<?xml version="1.0" encoding="UTF-8" standalone="no"?>
<!DOCTYPE svg PUBLIC "-//W3C//DTD SVG 1.1//EN"
 "http://www.w3.org/Graphics/SVG/1.1/DTD/svg11.dtd">
<!-- Generated by graphviz version 2.40.1 (20161225.0304)
 -->
<!-- Title: SBMLWriter.h Pages: 1 -->
<svg width="394pt" height="84pt"
 viewBox="0.00 0.00 393.50 84.00" xmlns="http://www.w3.org/2000/svg" xmlns:xlink="http://www.w3.org/1999/xlink">
<g id="graph0" class="graph" transform="scale(1 1) rotate(0) translate(4 80)">
<title>SBMLWriter.h</title>
<polygon fill="#ffffff" stroke="transparent" points="-4,4 -4,-80 389.5,-80 389.5,4 -4,4"/>
<!-- Node1 -->
<g id="node1" class="node">
<title>Node1</title>
<polygon fill="#bfbfbf" stroke="#000000" points="212.5,-56.5 212.5,-75.5 291.5,-75.5 291.5,-56.5 212.5,-56.5"/>
<text text-anchor="middle" x="252" y="-63.5" font-family="Helvetica,sans-Serif" font-size="10.00" fill="#000000">SBMLWriter.h</text>
</g>
<!-- Node2 -->
<g id="node2" class="node">
<title>Node2</title>
<polygon fill="#ffffff" stroke="#bfbfbf" points="0,-.5 0,-19.5 118,-19.5 118,-.5 0,-.5"/>
<text text-anchor="middle" x="59" y="-7.5" font-family="Helvetica,sans-Serif" font-size="10.00" fill="#000000">sbml/common/extern.h</text>
</g>
<!-- Node1&#45;&gt;Node2 -->
<g id="edge1" class="edge">
<title>Node1&#45;&gt;Node2</title>
<path fill="none" stroke="#191970" d="M218.8221,-56.3733C186.4513,-46.9807 137.0602,-32.6496 101.7576,-22.4064"/>
<polygon fill="#191970" stroke="#191970" points="102.3242,-18.9264 91.7449,-19.5011 100.3735,-25.6492 102.3242,-18.9264"/>
</g>
<!-- Node3 -->
<g id="node3" class="node">
<title>Node3</title>
<polygon fill="#ffffff" stroke="#bfbfbf" points="136.5,-.5 136.5,-19.5 263.5,-19.5 263.5,-.5 136.5,-.5"/>
<text text-anchor="middle" x="200" y="-7.5" font-family="Helvetica,sans-Serif" font-size="10.00" fill="#000000">sbml/common/sbmlfwd.h</text>
</g>
<!-- Node1&#45;&gt;Node3 -->
<g id="edge2" class="edge">
<title>Node1&#45;&gt;Node3</title>
<path fill="none" stroke="#191970" d="M242.9423,-56.2455C235.4858,-48.2155 224.7366,-36.6394 215.8583,-27.0781"/>
<polygon fill="#191970" stroke="#191970" points="218.3232,-24.589 208.9539,-19.6427 213.1937,-29.3522 218.3232,-24.589"/>
</g>
<!-- Node4 -->
<g id="node4" class="node">
<title>Node4</title>
<polygon fill="#ffffff" stroke="#bfbfbf" points="281.5,-.5 281.5,-19.5 326.5,-19.5 326.5,-.5 281.5,-.5"/>
<text text-anchor="middle" x="304" y="-7.5" font-family="Helvetica,sans-Serif" font-size="10.00" fill="#000000">iosfwd</text>
</g>
<!-- Node1&#45;&gt;Node4 -->
<g id="edge3" class="edge">
<title>Node1&#45;&gt;Node4</title>
<path fill="none" stroke="#191970" d="M261.0577,-56.2455C268.5142,-48.2155 279.2634,-36.6394 288.1417,-27.0781"/>
<polygon fill="#191970" stroke="#191970" points="290.8063,-29.3522 295.0461,-19.6427 285.6768,-24.589 290.8063,-29.3522"/>
</g>
<!-- Node5 -->
<g id="node5" class="node">
<title>Node5</title>
<polygon fill="#ffffff" stroke="#bfbfbf" points="344.5,-.5 344.5,-19.5 385.5,-19.5 385.5,-.5 344.5,-.5"/>
<text text-anchor="middle" x="365" y="-7.5" font-family="Helvetica,sans-Serif" font-size="10.00" fill="#000000">string</text>
</g>
<!-- Node1&#45;&gt;Node5 -->
<g id="edge4" class="edge">
<title>Node1&#45;&gt;Node5</title>
<path fill="none" stroke="#191970" d="M271.4254,-56.3733C289.4021,-47.4644 316.3441,-34.1127 336.709,-24.0203"/>
<polygon fill="#191970" stroke="#191970" points="338.4222,-27.0776 345.8281,-19.5011 335.3139,-20.8055 338.4222,-27.0776"/>
</g>
</g>
</svg>
