<?xml version="1.0" encoding="UTF-8" standalone="no"?>
<!DOCTYPE svg PUBLIC "-//W3C//DTD SVG 1.1//EN"
 "http://www.w3.org/Graphics/SVG/1.1/DTD/svg11.dtd">
<!-- Generated by graphviz version 2.40.1 (20161225.0304)
 -->
<!-- Title: libsbml.GraphicalObject Pages: 1 -->
<svg width="504pt" height="268pt"
 viewBox="0.00 0.00 504.00 268.00" xmlns="http://www.w3.org/2000/svg" xmlns:xlink="http://www.w3.org/1999/xlink">
<g id="graph0" class="graph" transform="scale(1 1) rotate(0) translate(4 264)">
<title>libsbml.GraphicalObject</title>
<polygon fill="#ffffff" stroke="transparent" points="-4,4 -4,-264 500,-264 500,4 -4,4"/>
<!-- Node1 -->
<g id="node1" class="node">
<title>Node1</title>
<polygon fill="#bfbfbf" stroke="#000000" points="201,-126.5 201,-145.5 323,-145.5 323,-126.5 201,-126.5"/>
<text text-anchor="middle" x="262" y="-133.5" font-family="Helvetica,sans-Serif" font-size="10.00" fill="#000000">libsbml.GraphicalObject</text>
</g>
<!-- Node4 -->
<g id="node4" class="node">
<title>Node4</title>
<g id="a_node4"><a xlink:href="classlibsbml_1_1_compartment_glyph.html" target="_top" xlink:title=" A glyph for an SBML compartment. ">
<polygon fill="#ffffff" stroke="#000000" points="359,-240.5 359,-259.5 496,-259.5 496,-240.5 359,-240.5"/>
<text text-anchor="middle" x="427.5" y="-247.5" font-family="Helvetica,sans-Serif" font-size="10.00" fill="#000000">libsbml.CompartmentGlyph</text>
</a>
</g>
</g>
<!-- Node1&#45;&gt;Node4 -->
<g id="edge3" class="edge">
<title>Node1&#45;&gt;Node4</title>
<path fill="none" stroke="#191970" d="M275.3137,-153.6636C292.3861,-175.0873 323.9973,-210.8296 359,-231 365.6297,-234.8204 373.0659,-237.9047 380.5293,-240.3854"/>
<polygon fill="#191970" stroke="#191970" points="278.0196,-151.4418 269.1141,-145.7021 272.4965,-155.7426 278.0196,-151.4418"/>
</g>
<!-- Node5 -->
<g id="node5" class="node">
<title>Node5</title>
<g id="a_node5"><a xlink:href="classlibsbml_1_1_general_glyph.html" target="_top" xlink:title=" A glyph for miscellaneous items. ">
<polygon fill="#ffffff" stroke="#000000" points="371.5,-202.5 371.5,-221.5 483.5,-221.5 483.5,-202.5 371.5,-202.5"/>
<text text-anchor="middle" x="427.5" y="-209.5" font-family="Helvetica,sans-Serif" font-size="10.00" fill="#000000">libsbml.GeneralGlyph</text>
</a>
</g>
</g>
<!-- Node1&#45;&gt;Node5 -->
<g id="edge4" class="edge">
<title>Node1&#45;&gt;Node5</title>
<path fill="none" stroke="#191970" d="M284.0954,-151.245C303.2093,-163.8698 331.9542,-181.5358 359,-193 367.6357,-196.6605 377.1811,-199.8221 386.3351,-202.4585"/>
<polygon fill="#191970" stroke="#191970" points="285.7897,-148.167 275.5355,-145.5016 281.8894,-153.9798 285.7897,-148.167"/>
</g>
<!-- Node6 -->
<g id="node6" class="node">
<title>Node6</title>
<g id="a_node6"><a xlink:href="classlibsbml_1_1_reaction_glyph.html" target="_top" xlink:title=" A glyph for an SBML reaction. ">
<polygon fill="#ffffff" stroke="#000000" points="369.5,-164.5 369.5,-183.5 485.5,-183.5 485.5,-164.5 369.5,-164.5"/>
<text text-anchor="middle" x="427.5" y="-171.5" font-family="Helvetica,sans-Serif" font-size="10.00" fill="#000000">libsbml.ReactionGlyph</text>
</a>
</g>
</g>
<!-- Node1&#45;&gt;Node6 -->
<g id="edge5" class="edge">
<title>Node1&#45;&gt;Node6</title>
<path fill="none" stroke="#191970" d="M313.8105,-147.8961C337.0733,-153.2374 364.1469,-159.4537 386.0377,-164.4799"/>
<polygon fill="#191970" stroke="#191970" points="314.2923,-144.4157 303.7626,-145.589 312.7258,-151.2382 314.2923,-144.4157"/>
</g>
<!-- Node7 -->
<g id="node7" class="node">
<title>Node7</title>
<g id="a_node7"><a xlink:href="classlibsbml_1_1_reference_glyph.html" target="_top" xlink:title=" Connection between an object and a glyph. ">
<polygon fill="#ffffff" stroke="#000000" points="366,-126.5 366,-145.5 489,-145.5 489,-126.5 366,-126.5"/>
<text text-anchor="middle" x="427.5" y="-133.5" font-family="Helvetica,sans-Serif" font-size="10.00" fill="#000000">libsbml.ReferenceGlyph</text>
</a>
</g>
</g>
<!-- Node1&#45;&gt;Node7 -->
<g id="edge6" class="edge">
<title>Node1&#45;&gt;Node7</title>
<path fill="none" stroke="#191970" d="M333.3874,-136C344.1684,-136 355.2116,-136 365.7664,-136"/>
<polygon fill="#191970" stroke="#191970" points="333.1559,-132.5001 323.1559,-136 333.1558,-139.5001 333.1559,-132.5001"/>
</g>
<!-- Node8 -->
<g id="node8" class="node">
<title>Node8</title>
<g id="a_node8"><a xlink:href="classlibsbml_1_1_species_glyph.html" target="_top" xlink:title=" A glyph for an SBML species. ">
<polygon fill="#ffffff" stroke="#000000" points="371.5,-88.5 371.5,-107.5 483.5,-107.5 483.5,-88.5 371.5,-88.5"/>
<text text-anchor="middle" x="427.5" y="-95.5" font-family="Helvetica,sans-Serif" font-size="10.00" fill="#000000">libsbml.SpeciesGlyph</text>
</a>
</g>
</g>
<!-- Node1&#45;&gt;Node8 -->
<g id="edge7" class="edge">
<title>Node1&#45;&gt;Node8</title>
<path fill="none" stroke="#191970" d="M313.8105,-124.1039C337.0733,-118.7626 364.1469,-112.5463 386.0377,-107.5201"/>
<polygon fill="#191970" stroke="#191970" points="312.7258,-120.7618 303.7626,-126.411 314.2923,-127.5843 312.7258,-120.7618"/>
</g>
<!-- Node9 -->
<g id="node9" class="node">
<title>Node9</title>
<g id="a_node9"><a xlink:href="classlibsbml_1_1_species_reference_glyph.html" target="_top" xlink:title=" A glyph for an SBML species reference. ">
<polygon fill="#ffffff" stroke="#000000" points="361.5,-39 361.5,-69 493.5,-69 493.5,-39 361.5,-39"/>
<text text-anchor="start" x="369.5" y="-57" font-family="Helvetica,sans-Serif" font-size="10.00" fill="#000000">libsbml.SpeciesReference</text>
<text text-anchor="middle" x="427.5" y="-46" font-family="Helvetica,sans-Serif" font-size="10.00" fill="#000000">Glyph</text>
</a>
</g>
</g>
<!-- Node1&#45;&gt;Node9 -->
<g id="edge8" class="edge">
<title>Node1&#45;&gt;Node9</title>
<path fill="none" stroke="#191970" d="M285.0027,-120.8748C304.2607,-108.6093 332.734,-91.385 359,-79 366.4429,-75.4905 374.5222,-72.1515 382.435,-69.1226"/>
<polygon fill="#191970" stroke="#191970" points="282.851,-118.0975 276.3391,-126.4549 286.6414,-123.9825 282.851,-118.0975"/>
</g>
<!-- Node10 -->
<g id="node10" class="node">
<title>Node10</title>
<g id="a_node10"><a xlink:href="classlibsbml_1_1_text_glyph.html" target="_top" xlink:title=" A glyph for a text label. ">
<polygon fill="#ffffff" stroke="#000000" points="379.5,-.5 379.5,-19.5 475.5,-19.5 475.5,-.5 379.5,-.5"/>
<text text-anchor="middle" x="427.5" y="-7.5" font-family="Helvetica,sans-Serif" font-size="10.00" fill="#000000">libsbml.TextGlyph</text>
</a>
</g>
</g>
<!-- Node1&#45;&gt;Node10 -->
<g id="edge9" class="edge">
<title>Node1&#45;&gt;Node10</title>
<path fill="none" stroke="#191970" d="M273.581,-117.8371C289.7904,-93.8961 321.5043,-52.1167 359,-29 365.3032,-25.114 372.4146,-22.0058 379.6091,-19.5244"/>
<polygon fill="#191970" stroke="#191970" points="270.5547,-116.0686 267.9682,-126.3428 276.3973,-119.924 270.5547,-116.0686"/>
</g>
<!-- Node2 -->
<g id="node2" class="node">
<title>Node2</title>
<g id="a_node2"><a xlink:href="classlibsbml_1_1_s_base.html" target="_top" xlink:title=" SBML&#39;s SBase class, base class of most SBML objects. ">
<polygon fill="#ffffff" stroke="#000000" points="85,-126.5 85,-145.5 165,-145.5 165,-126.5 85,-126.5"/>
<text text-anchor="middle" x="125" y="-133.5" font-family="Helvetica,sans-Serif" font-size="10.00" fill="#000000">libsbml.SBase</text>
</a>
</g>
</g>
<!-- Node2&#45;&gt;Node1 -->
<g id="edge1" class="edge">
<title>Node2&#45;&gt;Node1</title>
<path fill="none" stroke="#191970" d="M175.553,-136C183.7855,-136 192.3901,-136 200.8437,-136"/>
<polygon fill="#191970" stroke="#191970" points="175.3636,-132.5001 165.3635,-136 175.3635,-139.5001 175.3636,-132.5001"/>
</g>
<!-- Node3 -->
<g id="node3" class="node">
<title>Node3</title>
<polygon fill="#ffffff" stroke="#bfbfbf" points="0,-126.5 0,-145.5 49,-145.5 49,-126.5 0,-126.5"/>
<text text-anchor="middle" x="24.5" y="-133.5" font-family="Helvetica,sans-Serif" font-size="10.00" fill="#000000">_object</text>
</g>
<!-- Node3&#45;&gt;Node2 -->
<g id="edge2" class="edge">
<title>Node3&#45;&gt;Node2</title>
<path fill="none" stroke="#191970" d="M59.0924,-136C67.3153,-136 76.1597,-136 84.616,-136"/>
<polygon fill="#191970" stroke="#191970" points="59.0851,-132.5001 49.0851,-136 59.085,-139.5001 59.0851,-132.5001"/>
</g>
</g>
</svg>
