<?xml version="1.0" encoding="UTF-8" standalone="no"?>
<!DOCTYPE svg PUBLIC "-//W3C//DTD SVG 1.1//EN"
 "http://www.w3.org/Graphics/SVG/1.1/DTD/svg11.dtd">
<!-- Generated by graphviz version 2.40.1 (20161225.0304)
 -->
<!-- Title: libsbml.RenderInformationBase Pages: 1 -->
<svg width="274pt" height="196pt"
 viewBox="0.00 0.00 274.00 196.00" xmlns="http://www.w3.org/2000/svg" xmlns:xlink="http://www.w3.org/1999/xlink">
<g id="graph0" class="graph" transform="scale(1 1) rotate(0) translate(4 192)">
<title>libsbml.RenderInformationBase</title>
<polygon fill="#ffffff" stroke="transparent" points="-4,4 -4,-192 270,-192 270,4 -4,4"/>
<!-- Node1 -->
<g id="node1" class="node">
<title>Node1</title>
<polygon fill="#bfbfbf" stroke="#000000" points="73.5,-56.5 73.5,-75.5 194.5,-75.5 194.5,-56.5 73.5,-56.5"/>
<text text-anchor="middle" x="134" y="-63.5" font-family="Helvetica,sans-Serif" font-size="10.00" fill="#000000">libsbml.RenderInformationBase</text>
</g>
<!-- Node4 -->
<g id="node4" class="node">
<title>Node4</title>
<g id="a_node4"><a xlink:href="classlibsbml_1_1_global_render_information.html" target="_top" xlink:title=" Render information stored in a ListOfLayouts. ">
<polygon fill="#ffffff" stroke="#000000" points="0,-.5 0,-19.5 126,-19.5 126,-.5 0,-.5"/>
<text text-anchor="middle" x="63" y="-7.5" font-family="Helvetica,sans-Serif" font-size="10.00" fill="#000000">libsbml.GlobalRenderInformation</text>
</a>
</g>
</g>
<!-- Node1&#45;&gt;Node4 -->
<g id="edge3" class="edge">
<title>Node1&#45;&gt;Node4</title>
<path fill="none" stroke="#191970" d="M113.623,-49.928C101.2129,-40.1397 85.77,-27.9595 75.2255,-19.6427"/>
<polygon fill="#191970" stroke="#191970" points="111.6136,-52.8007 121.6327,-56.2455 115.9486,-47.3046 111.6136,-52.8007"/>
</g>
<!-- Node5 -->
<g id="node5" class="node">
<title>Node5</title>
<g id="a_node5"><a xlink:href="classlibsbml_1_1_local_render_information.html" target="_top" xlink:title=" Rendering information stored in Layouts. ">
<polygon fill="#ffffff" stroke="#000000" points="144,-.5 144,-19.5 266,-19.5 266,-.5 144,-.5"/>
<text text-anchor="middle" x="205" y="-7.5" font-family="Helvetica,sans-Serif" font-size="10.00" fill="#000000">libsbml.LocalRenderInformation</text>
</a>
</g>
</g>
<!-- Node1&#45;&gt;Node5 -->
<g id="edge4" class="edge">
<title>Node1&#45;&gt;Node5</title>
<path fill="none" stroke="#191970" d="M154.377,-49.928C166.7871,-40.1397 182.23,-27.9595 192.7745,-19.6427"/>
<polygon fill="#191970" stroke="#191970" points="152.0514,-47.3046 146.3673,-56.2455 156.3864,-52.8007 152.0514,-47.3046"/>
</g>
<!-- Node2 -->
<g id="node2" class="node">
<title>Node2</title>
<g id="a_node2"><a xlink:href="classlibsbml_1_1_s_base.html" target="_top" xlink:title=" SBML&#39;s SBase class, base class of most SBML objects. ">
<polygon fill="#ffffff" stroke="#000000" points="102,-112.5 102,-131.5 166,-131.5 166,-112.5 102,-112.5"/>
<text text-anchor="middle" x="134" y="-119.5" font-family="Helvetica,sans-Serif" font-size="10.00" fill="#000000">libsbml.SBase</text>
</a>
</g>
</g>
<!-- Node2&#45;&gt;Node1 -->
<g id="edge1" class="edge">
<title>Node2&#45;&gt;Node1</title>
<path fill="none" stroke="#191970" d="M134,-102.1575C134,-93.155 134,-82.9199 134,-75.6427"/>
<polygon fill="#191970" stroke="#191970" points="130.5001,-102.2455 134,-112.2455 137.5001,-102.2456 130.5001,-102.2455"/>
</g>
<!-- Node3 -->
<g id="node3" class="node">
<title>Node3</title>
<polygon fill="#ffffff" stroke="#bfbfbf" points="113.5,-168.5 113.5,-187.5 154.5,-187.5 154.5,-168.5 113.5,-168.5"/>
<text text-anchor="middle" x="134" y="-175.5" font-family="Helvetica,sans-Serif" font-size="10.00" fill="#000000">_object</text>
</g>
<!-- Node3&#45;&gt;Node2 -->
<g id="edge2" class="edge">
<title>Node3&#45;&gt;Node2</title>
<path fill="none" stroke="#191970" d="M134,-158.1575C134,-149.155 134,-138.9199 134,-131.6427"/>
<polygon fill="#191970" stroke="#191970" points="130.5001,-158.2455 134,-168.2455 137.5001,-158.2456 130.5001,-158.2455"/>
</g>
</g>
</svg>
