<?xml version="1.0" encoding="UTF-8" standalone="no"?>
<!DOCTYPE svg PUBLIC "-//W3C//DTD SVG 1.1//EN"
 "http://www.w3.org/Graphics/SVG/1.1/DTD/svg11.dtd">
<!-- Generated by graphviz version 2.40.1 (20161225.0304)
 -->
<!-- Title: libsbml.ListOfSpeciesTypeComponentMapInProducts Pages: 1 -->
<svg width="143pt" height="207pt"
 viewBox="0.00 0.00 143.00 207.00" xmlns="http://www.w3.org/2000/svg" xmlns:xlink="http://www.w3.org/1999/xlink">
<g id="graph0" class="graph" transform="scale(1 1) rotate(0) translate(4 203)">
<title>libsbml.ListOfSpeciesTypeComponentMapInProducts</title>
<polygon fill="#ffffff" stroke="transparent" points="-4,4 -4,-203 139,-203 139,4 -4,4"/>
<!-- Node1 -->
<g id="node1" class="node">
<title>Node1</title>
<polygon fill="#bfbfbf" stroke="#000000" points="0,-.5 0,-30.5 135,-30.5 135,-.5 0,-.5"/>
<text text-anchor="start" x="8" y="-18.5" font-family="Helvetica,sans-Serif" font-size="10.00" fill="#000000">libsbml.ListOfSpeciesType</text>
<text text-anchor="middle" x="67.5" y="-7.5" font-family="Helvetica,sans-Serif" font-size="10.00" fill="#000000">ComponentMapInProducts</text>
</g>
<!-- Node2 -->
<g id="node2" class="node">
<title>Node2</title>
<g id="a_node2"><a xlink:href="classlibsbml_1_1_list_of.html" target="_top" xlink:title=" Parent class for libSBML&#39;s &#39;ListOfXYZ&#39; classes. ">
<polygon fill="#ffffff" stroke="#000000" points="29,-67.5 29,-86.5 106,-86.5 106,-67.5 29,-67.5"/>
<text text-anchor="middle" x="67.5" y="-74.5" font-family="Helvetica,sans-Serif" font-size="10.00" fill="#000000">libsbml.ListOf</text>
</a>
</g>
</g>
<!-- Node2&#45;&gt;Node1 -->
<g id="edge1" class="edge">
<title>Node2&#45;&gt;Node1</title>
<path fill="none" stroke="#191970" d="M67.5,-57.3693C67.5,-48.681 67.5,-38.6241 67.5,-30.5446"/>
<polygon fill="#191970" stroke="#191970" points="64.0001,-57.3906 67.5,-67.3906 71.0001,-57.3907 64.0001,-57.3906"/>
</g>
<!-- Node3 -->
<g id="node3" class="node">
<title>Node3</title>
<g id="a_node3"><a xlink:href="classlibsbml_1_1_s_base.html" target="_top" xlink:title=" SBML&#39;s SBase class, base class of most SBML objects. ">
<polygon fill="#ffffff" stroke="#000000" points="27.5,-123.5 27.5,-142.5 107.5,-142.5 107.5,-123.5 27.5,-123.5"/>
<text text-anchor="middle" x="67.5" y="-130.5" font-family="Helvetica,sans-Serif" font-size="10.00" fill="#000000">libsbml.SBase</text>
</a>
</g>
</g>
<!-- Node3&#45;&gt;Node2 -->
<g id="edge2" class="edge">
<title>Node3&#45;&gt;Node2</title>
<path fill="none" stroke="#191970" d="M67.5,-113.1575C67.5,-104.155 67.5,-93.9199 67.5,-86.6427"/>
<polygon fill="#191970" stroke="#191970" points="64.0001,-113.2455 67.5,-123.2455 71.0001,-113.2456 64.0001,-113.2455"/>
</g>
<!-- Node4 -->
<g id="node4" class="node">
<title>Node4</title>
<polygon fill="#ffffff" stroke="#bfbfbf" points="43,-179.5 43,-198.5 92,-198.5 92,-179.5 43,-179.5"/>
<text text-anchor="middle" x="67.5" y="-186.5" font-family="Helvetica,sans-Serif" font-size="10.00" fill="#000000">_object</text>
</g>
<!-- Node4&#45;&gt;Node3 -->
<g id="edge3" class="edge">
<title>Node4&#45;&gt;Node3</title>
<path fill="none" stroke="#191970" d="M67.5,-169.1575C67.5,-160.155 67.5,-149.9199 67.5,-142.6427"/>
<polygon fill="#191970" stroke="#191970" points="64.0001,-169.2455 67.5,-179.2455 71.0001,-169.2456 64.0001,-169.2455"/>
</g>
</g>
</svg>
