<?xml version="1.0" encoding="UTF-8" standalone="no"?>
<!DOCTYPE svg PUBLIC "-//W3C//DTD SVG 1.1//EN"
 "http://www.w3.org/Graphics/SVG/1.1/DTD/svg11.dtd">
<!-- Generated by graphviz version 2.40.1 (20161225.0304)
 -->
<!-- Title: libsbml.CompBase Pages: 1 -->
<svg width="463pt" height="308pt"
 viewBox="0.00 0.00 462.50 308.00" xmlns="http://www.w3.org/2000/svg" xmlns:xlink="http://www.w3.org/1999/xlink">
<g id="graph0" class="graph" transform="scale(1 1) rotate(0) translate(4 304)">
<title>libsbml.CompBase</title>
<polygon fill="#ffffff" stroke="transparent" points="-4,4 -4,-304 458.5,-304 458.5,4 -4,4"/>
<!-- Node1 -->
<g id="node1" class="node">
<title>Node1</title>
<polygon fill="#bfbfbf" stroke="#000000" points="172,-168.5 172,-187.5 272,-187.5 272,-168.5 172,-168.5"/>
<text text-anchor="middle" x="222" y="-175.5" font-family="Helvetica,sans-Serif" font-size="10.00" fill="#000000">libsbml.CompBase</text>
</g>
<!-- Node4 -->
<g id="node4" class="node">
<title>Node4</title>
<g id="a_node4"><a xlink:href="classlibsbml_1_1_external_model_definition.html" target="_top" xlink:title=" A reference to an externally&#45;defined model. ">
<polygon fill="#ffffff" stroke="#000000" points="0,-112.5 0,-131.5 156,-131.5 156,-112.5 0,-112.5"/>
<text text-anchor="middle" x="78" y="-119.5" font-family="Helvetica,sans-Serif" font-size="10.00" fill="#000000">libsbml.ExternalModelDefinition</text>
</a>
</g>
</g>
<!-- Node1&#45;&gt;Node4 -->
<g id="edge3" class="edge">
<title>Node1&#45;&gt;Node4</title>
<path fill="none" stroke="#191970" d="M187.6818,-164.6541C161.422,-154.4419 125.8508,-140.6086 102.4315,-131.5011"/>
<polygon fill="#191970" stroke="#191970" points="186.6569,-168.0108 197.2455,-168.3733 189.194,-161.4867 186.6569,-168.0108"/>
</g>
<!-- Node5 -->
<g id="node5" class="node">
<title>Node5</title>
<g id="a_node5"><a xlink:href="classlibsbml_1_1_s_base_ref.html" target="_top" xlink:title=" Base class for references to objects. ">
<polygon fill="#ffffff" stroke="#000000" points="174.5,-112.5 174.5,-131.5 269.5,-131.5 269.5,-112.5 174.5,-112.5"/>
<text text-anchor="middle" x="222" y="-119.5" font-family="Helvetica,sans-Serif" font-size="10.00" fill="#000000">libsbml.SBaseRef</text>
</a>
</g>
</g>
<!-- Node1&#45;&gt;Node5 -->
<g id="edge4" class="edge">
<title>Node1&#45;&gt;Node5</title>
<path fill="none" stroke="#191970" d="M222,-158.1575C222,-149.155 222,-138.9199 222,-131.6427"/>
<polygon fill="#191970" stroke="#191970" points="218.5001,-158.2455 222,-168.2455 225.5001,-158.2456 218.5001,-158.2455"/>
</g>
<!-- Node11 -->
<g id="node11" class="node">
<title>Node11</title>
<g id="a_node11"><a xlink:href="classlibsbml_1_1_submodel.html" target="_top" xlink:title=" A model instance inside another model. ">
<polygon fill="#ffffff" stroke="#000000" points="287.5,-112.5 287.5,-131.5 382.5,-131.5 382.5,-112.5 287.5,-112.5"/>
<text text-anchor="middle" x="335" y="-119.5" font-family="Helvetica,sans-Serif" font-size="10.00" fill="#000000">libsbml.Submodel</text>
</a>
</g>
</g>
<!-- Node1&#45;&gt;Node11 -->
<g id="edge10" class="edge">
<title>Node1&#45;&gt;Node11</title>
<path fill="none" stroke="#191970" d="M250.5792,-163.8368C271.0058,-153.7139 297.9362,-140.3679 315.8281,-131.5011"/>
<polygon fill="#191970" stroke="#191970" points="248.8313,-160.7968 241.4254,-168.3733 251.9396,-167.0688 248.8313,-160.7968"/>
</g>
<!-- Node2 -->
<g id="node2" class="node">
<title>Node2</title>
<g id="a_node2"><a xlink:href="classlibsbml_1_1_s_base.html" target="_top" xlink:title=" SBML&#39;s SBase class, base class of most SBML objects. ">
<polygon fill="#ffffff" stroke="#000000" points="182,-224.5 182,-243.5 262,-243.5 262,-224.5 182,-224.5"/>
<text text-anchor="middle" x="222" y="-231.5" font-family="Helvetica,sans-Serif" font-size="10.00" fill="#000000">libsbml.SBase</text>
</a>
</g>
</g>
<!-- Node2&#45;&gt;Node1 -->
<g id="edge1" class="edge">
<title>Node2&#45;&gt;Node1</title>
<path fill="none" stroke="#191970" d="M222,-214.1575C222,-205.155 222,-194.9199 222,-187.6427"/>
<polygon fill="#191970" stroke="#191970" points="218.5001,-214.2455 222,-224.2455 225.5001,-214.2456 218.5001,-214.2455"/>
</g>
<!-- Node3 -->
<g id="node3" class="node">
<title>Node3</title>
<polygon fill="#ffffff" stroke="#bfbfbf" points="197.5,-280.5 197.5,-299.5 246.5,-299.5 246.5,-280.5 197.5,-280.5"/>
<text text-anchor="middle" x="222" y="-287.5" font-family="Helvetica,sans-Serif" font-size="10.00" fill="#000000">_object</text>
</g>
<!-- Node3&#45;&gt;Node2 -->
<g id="edge2" class="edge">
<title>Node3&#45;&gt;Node2</title>
<path fill="none" stroke="#191970" d="M222,-270.1575C222,-261.155 222,-250.9199 222,-243.6427"/>
<polygon fill="#191970" stroke="#191970" points="218.5001,-270.2455 222,-280.2455 225.5001,-270.2456 218.5001,-270.2455"/>
</g>
<!-- Node6 -->
<g id="node6" class="node">
<title>Node6</title>
<g id="a_node6"><a xlink:href="classlibsbml_1_1_deletion.html" target="_top" xlink:title=" Deletion of an object from a submodel. ">
<polygon fill="#ffffff" stroke="#000000" points="82.5,-56.5 82.5,-75.5 169.5,-75.5 169.5,-56.5 82.5,-56.5"/>
<text text-anchor="middle" x="126" y="-63.5" font-family="Helvetica,sans-Serif" font-size="10.00" fill="#000000">libsbml.Deletion</text>
</a>
</g>
</g>
<!-- Node5&#45;&gt;Node6 -->
<g id="edge5" class="edge">
<title>Node5&#45;&gt;Node6</title>
<path fill="none" stroke="#191970" d="M196.3654,-107.0465C179.2841,-97.0824 157.336,-84.2794 142.5303,-75.6427"/>
<polygon fill="#191970" stroke="#191970" points="194.8767,-110.23 205.2781,-112.2455 198.4038,-104.1836 194.8767,-110.23"/>
</g>
<!-- Node7 -->
<g id="node7" class="node">
<title>Node7</title>
<g id="a_node7"><a xlink:href="classlibsbml_1_1_port.html" target="_top" xlink:title=" An interface to be used in composition. ">
<polygon fill="#ffffff" stroke="#000000" points="187.5,-56.5 187.5,-75.5 256.5,-75.5 256.5,-56.5 187.5,-56.5"/>
<text text-anchor="middle" x="222" y="-63.5" font-family="Helvetica,sans-Serif" font-size="10.00" fill="#000000">libsbml.Port</text>
</a>
</g>
</g>
<!-- Node5&#45;&gt;Node7 -->
<g id="edge6" class="edge">
<title>Node5&#45;&gt;Node7</title>
<path fill="none" stroke="#191970" d="M222,-102.1575C222,-93.155 222,-82.9199 222,-75.6427"/>
<polygon fill="#191970" stroke="#191970" points="218.5001,-102.2455 222,-112.2455 225.5001,-102.2456 218.5001,-102.2455"/>
</g>
<!-- Node8 -->
<g id="node8" class="node">
<title>Node8</title>
<g id="a_node8"><a xlink:href="classlibsbml_1_1_replacing.html" target="_top" xlink:title=" Convenience class. ">
<polygon fill="#ffffff" stroke="#000000" points="274.5,-56.5 274.5,-75.5 369.5,-75.5 369.5,-56.5 274.5,-56.5"/>
<text text-anchor="middle" x="322" y="-63.5" font-family="Helvetica,sans-Serif" font-size="10.00" fill="#000000">libsbml.Replacing</text>
</a>
</g>
</g>
<!-- Node5&#45;&gt;Node8 -->
<g id="edge7" class="edge">
<title>Node5&#45;&gt;Node8</title>
<path fill="none" stroke="#191970" d="M248.2098,-107.3225C266.0717,-97.3198 289.2155,-84.3593 304.7809,-75.6427"/>
<polygon fill="#191970" stroke="#191970" points="246.4336,-104.3057 239.4187,-112.2455 249.8539,-110.4132 246.4336,-104.3057"/>
</g>
<!-- Node9 -->
<g id="node9" class="node">
<title>Node9</title>
<g id="a_node9"><a xlink:href="classlibsbml_1_1_replaced_by.html" target="_top" xlink:title=" Indicates an object replaced by another. ">
<polygon fill="#ffffff" stroke="#000000" points="203,-.5 203,-19.5 307,-19.5 307,-.5 203,-.5"/>
<text text-anchor="middle" x="255" y="-7.5" font-family="Helvetica,sans-Serif" font-size="10.00" fill="#000000">libsbml.ReplacedBy</text>
</a>
</g>
</g>
<!-- Node8&#45;&gt;Node9 -->
<g id="edge8" class="edge">
<title>Node8&#45;&gt;Node9</title>
<path fill="none" stroke="#191970" d="M302.4324,-49.645C290.7802,-39.9058 276.3916,-27.8795 266.5368,-19.6427"/>
<polygon fill="#191970" stroke="#191970" points="300.4121,-52.5179 310.3295,-56.2455 304.9012,-47.1469 300.4121,-52.5179"/>
</g>
<!-- Node10 -->
<g id="node10" class="node">
<title>Node10</title>
<g id="a_node10"><a xlink:href="classlibsbml_1_1_replaced_element.html" target="_top" xlink:title=" Indicates an object replaces another. ">
<polygon fill="#ffffff" stroke="#000000" points="325.5,-.5 325.5,-19.5 454.5,-19.5 454.5,-.5 325.5,-.5"/>
<text text-anchor="middle" x="390" y="-7.5" font-family="Helvetica,sans-Serif" font-size="10.00" fill="#000000">libsbml.ReplacedElement</text>
</a>
</g>
</g>
<!-- Node8&#45;&gt;Node10 -->
<g id="edge9" class="edge">
<title>Node8&#45;&gt;Node10</title>
<path fill="none" stroke="#191970" d="M341.8596,-49.645C353.6858,-39.9058 368.2892,-27.8795 378.291,-19.6427"/>
<polygon fill="#191970" stroke="#191970" points="339.339,-47.1867 333.8447,-56.2455 343.789,-52.5902 339.339,-47.1867"/>
</g>
</g>
</svg>
