<?xml version="1.0" encoding="UTF-8" standalone="no"?>
<!DOCTYPE svg PUBLIC "-//W3C//DTD SVG 1.1//EN"
 "http://www.w3.org/Graphics/SVG/1.1/DTD/svg11.dtd">
<!-- Generated by graphviz version 2.40.1 (20161225.0304)
 -->
<!-- Title: libsbml.SubListOfSpeciesFeatures Pages: 1 -->
<svg width="138pt" height="207pt"
 viewBox="0.00 0.00 138.00 207.00" xmlns="http://www.w3.org/2000/svg" xmlns:xlink="http://www.w3.org/1999/xlink">
<g id="graph0" class="graph" transform="scale(1 1) rotate(0) translate(4 203)">
<title>libsbml.SubListOfSpeciesFeatures</title>
<polygon fill="#ffffff" stroke="transparent" points="-4,4 -4,-203 134,-203 134,4 -4,4"/>
<!-- Node1 -->
<g id="node1" class="node">
<title>Node1</title>
<polygon fill="#bfbfbf" stroke="#000000" points="0,-.5 0,-30.5 130,-30.5 130,-.5 0,-.5"/>
<text text-anchor="start" x="8" y="-18.5" font-family="Helvetica,sans-Serif" font-size="10.00" fill="#000000">libsbml.SubListOfSpecies</text>
<text text-anchor="middle" x="65" y="-7.5" font-family="Helvetica,sans-Serif" font-size="10.00" fill="#000000">Features</text>
</g>
<!-- Node2 -->
<g id="node2" class="node">
<title>Node2</title>
<g id="a_node2"><a xlink:href="classlibsbml_1_1_list_of.html" target="_top" xlink:title=" Parent class for libSBML&#39;s &#39;ListOfXYZ&#39; classes. ">
<polygon fill="#ffffff" stroke="#000000" points="26.5,-67.5 26.5,-86.5 103.5,-86.5 103.5,-67.5 26.5,-67.5"/>
<text text-anchor="middle" x="65" y="-74.5" font-family="Helvetica,sans-Serif" font-size="10.00" fill="#000000">libsbml.ListOf</text>
</a>
</g>
</g>
<!-- Node2&#45;&gt;Node1 -->
<g id="edge1" class="edge">
<title>Node2&#45;&gt;Node1</title>
<path fill="none" stroke="#191970" d="M65,-57.3693C65,-48.681 65,-38.6241 65,-30.5446"/>
<polygon fill="#191970" stroke="#191970" points="61.5001,-57.3906 65,-67.3906 68.5001,-57.3907 61.5001,-57.3906"/>
</g>
<!-- Node3 -->
<g id="node3" class="node">
<title>Node3</title>
<g id="a_node3"><a xlink:href="classlibsbml_1_1_s_base.html" target="_top" xlink:title=" SBML&#39;s SBase class, base class of most SBML objects. ">
<polygon fill="#ffffff" stroke="#000000" points="25,-123.5 25,-142.5 105,-142.5 105,-123.5 25,-123.5"/>
<text text-anchor="middle" x="65" y="-130.5" font-family="Helvetica,sans-Serif" font-size="10.00" fill="#000000">libsbml.SBase</text>
</a>
</g>
</g>
<!-- Node3&#45;&gt;Node2 -->
<g id="edge2" class="edge">
<title>Node3&#45;&gt;Node2</title>
<path fill="none" stroke="#191970" d="M65,-113.1575C65,-104.155 65,-93.9199 65,-86.6427"/>
<polygon fill="#191970" stroke="#191970" points="61.5001,-113.2455 65,-123.2455 68.5001,-113.2456 61.5001,-113.2455"/>
</g>
<!-- Node4 -->
<g id="node4" class="node">
<title>Node4</title>
<polygon fill="#ffffff" stroke="#bfbfbf" points="40.5,-179.5 40.5,-198.5 89.5,-198.5 89.5,-179.5 40.5,-179.5"/>
<text text-anchor="middle" x="65" y="-186.5" font-family="Helvetica,sans-Serif" font-size="10.00" fill="#000000">_object</text>
</g>
<!-- Node4&#45;&gt;Node3 -->
<g id="edge3" class="edge">
<title>Node4&#45;&gt;Node3</title>
<path fill="none" stroke="#191970" d="M65,-169.1575C65,-160.155 65,-149.9199 65,-142.6427"/>
<polygon fill="#191970" stroke="#191970" points="61.5001,-169.2455 65,-179.2455 68.5001,-169.2456 61.5001,-169.2455"/>
</g>
</g>
</svg>
