<?xml version="1.0" encoding="UTF-8" standalone="no"?>
<!DOCTYPE svg PUBLIC "-//W3C//DTD SVG 1.1//EN"
 "http://www.w3.org/Graphics/SVG/1.1/DTD/svg11.dtd">
<!-- Generated by graphviz version 2.40.1 (20161225.0304)
 -->
<!-- Title: libsbml.Transformation Pages: 1 -->
<!--zoomable 180 -->
<svg id="main" version="1.1" xmlns="http://www.w3.org/2000/svg" xmlns:xlink="http://www.w3.org/1999/xlink" xml:space="preserve" onload="init(evt)">
<style type="text/css"><![CDATA[
.edge:hover path { stroke: red; }
.edge:hover polygon { stroke: red; fill: red; }
]]></style>
<script type="text/javascript"><![CDATA[
var edges = document.getElementsByTagName('g');
if (edges && edges.length) {
  for (var i=0;i<edges.length;i++) {
    if (edges[i].id.substr(0,4)=='edge') {
      edges[i].setAttribute('class','edge');
    }
  }
}
]]></script>
        <defs>
                <circle id="rim" cx="0" cy="0" r="7"/>
                <circle id="rim2" cx="0" cy="0" r="3.5"/>
                <g id="zoomPlus">
                        <use xlink:href="#rim" fill="#404040">
                                <set attributeName="fill" to="#808080" begin="zoomplus.mouseover" end="zoomplus.mouseout"/>
                        </use>
                        <path d="M-4,0h8M0,-4v8" fill="none" stroke="white" stroke-width="1.5" pointer-events="none"/>
                </g>
                <g id="zoomMin">
                        <use xlink:href="#rim" fill="#404040">
                                <set attributeName="fill" to="#808080" begin="zoomminus.mouseover" end="zoomminus.mouseout"/>
                        </use>
                        <path d="M-4,0h8" fill="none" stroke="white" stroke-width="1.5" pointer-events="none"/>
                </g>
                <g id="dirArrow">
                        <path fill="none" stroke="white" stroke-width="1.5" d="M0,-3.0v7 M-2.5,-0.5L0,-3.0L2.5,-0.5"/>
                </g>
               <g id="resetDef">
                       <use xlink:href="#rim2" fill="#404040">
                               <set attributeName="fill" to="#808080" begin="reset.mouseover" end="reset.mouseout"/>
                       </use>
               </g>
        </defs>

<script type="text/javascript">
var viewWidth = 834;
var viewHeight = 180;
var sectionId = 'dynsection-0';
</script>
<script xlink:href="svgpan.js"/>
<svg id="graph" class="graph">
<g id="viewport">
<title>libsbml.Transformation</title>
<polygon fill="#ffffff" stroke="transparent" points="-4,4 -4,-176 830,-176 830,4 -4,4"/>
<!-- Node1 -->
<g id="node1" class="node">
<title>Node1</title>
<polygon fill="#bfbfbf" stroke="#000000" points="177,-19.5 177,-38.5 269,-38.5 269,-19.5 177,-19.5"/>
<text text-anchor="middle" x="223" y="-26.5" font-family="Helvetica,sans-Serif" font-size="10.00" fill="#000000">libsbml.Transformation</text>
</g>
<!-- Node4 -->
<g id="node4" class="node">
<title>Node4</title>
<g id="a_node4"><a xlink:href="classlibsbml_1_1_transformation2_d.html" target="_top" xlink:title=" Implementation of a 2D transformation matrix. ">
<polygon fill="#ffffff" stroke="#000000" points="305,-19.5 305,-38.5 407,-38.5 407,-19.5 305,-19.5"/>
<text text-anchor="middle" x="356" y="-26.5" font-family="Helvetica,sans-Serif" font-size="10.00" fill="#000000">libsbml.Transformation2D</text>
</a>
</g>
</g>
<!-- Node1&#45;&gt;Node4 -->
<g id="edge3" class="edge">
<title>Node1&#45;&gt;Node4</title>
<path fill="none" stroke="#191970" d="M279.3523,-29C287.8449,-29 296.5637,-29 304.9368,-29"/>
<polygon fill="#191970" stroke="#191970" points="279.1437,-25.5001 269.1437,-29 279.1437,-32.5001 279.1437,-25.5001"/>
</g>
<!-- Node2 -->
<g id="node2" class="node">
<title>Node2</title>
<g id="a_node2"><a xlink:href="classlibsbml_1_1_s_base.html" target="_top" xlink:title=" SBML&#39;s SBase class, base class of most SBML objects. ">
<polygon fill="#ffffff" stroke="#000000" points="77,-19.5 77,-38.5 141,-38.5 141,-19.5 77,-19.5"/>
<text text-anchor="middle" x="109" y="-26.5" font-family="Helvetica,sans-Serif" font-size="10.00" fill="#000000">libsbml.SBase</text>
</a>
</g>
</g>
<!-- Node2&#45;&gt;Node1 -->
<g id="edge1" class="edge">
<title>Node2&#45;&gt;Node1</title>
<path fill="none" stroke="#191970" d="M151.2674,-29C159.5613,-29 168.302,-29 176.7192,-29"/>
<polygon fill="#191970" stroke="#191970" points="151.0588,-25.5001 141.0587,-29 151.0587,-32.5001 151.0588,-25.5001"/>
</g>
<!-- Node3 -->
<g id="node3" class="node">
<title>Node3</title>
<polygon fill="#ffffff" stroke="#bfbfbf" points="0,-19.5 0,-38.5 41,-38.5 41,-19.5 0,-19.5"/>
<text text-anchor="middle" x="20.5" y="-26.5" font-family="Helvetica,sans-Serif" font-size="10.00" fill="#000000">_object</text>
</g>
<!-- Node3&#45;&gt;Node2 -->
<g id="edge2" class="edge">
<title>Node3&#45;&gt;Node2</title>
<path fill="none" stroke="#191970" d="M51.069,-29C59.3786,-29 68.4022,-29 76.7991,-29"/>
<polygon fill="#191970" stroke="#191970" points="51.0262,-25.5001 41.0261,-29 51.0261,-32.5001 51.0262,-25.5001"/>
</g>
<!-- Node5 -->
<g id="node5" class="node">
<title>Node5</title>
<g id="a_node5"><a xlink:href="classlibsbml_1_1_graphical_primitive1_d.html" target="_top" xlink:title=" Base class for graphical primitives implementing 1D attributes. ">
<polygon fill="#ffffff" stroke="#000000" points="443,-38.5 443,-57.5 555,-57.5 555,-38.5 443,-38.5"/>
<text text-anchor="middle" x="499" y="-45.5" font-family="Helvetica,sans-Serif" font-size="10.00" fill="#000000">libsbml.GraphicalPrimitive1D</text>
</a>
</g>
</g>
<!-- Node4&#45;&gt;Node5 -->
<g id="edge4" class="edge">
<title>Node4&#45;&gt;Node5</title>
<path fill="none" stroke="#191970" d="M417.3901,-37.1567C425.8305,-38.2782 434.4626,-39.4251 442.8033,-40.5333"/>
<polygon fill="#191970" stroke="#191970" points="417.5963,-33.6534 407.2224,-35.8058 416.6742,-40.5925 417.5963,-33.6534"/>
</g>
<!-- Node14 -->
<g id="node14" class="node">
<title>Node14</title>
<g id="a_node14"><a xlink:href="classlibsbml_1_1_image.html" target="_top" xlink:title=" Representation of images. ">
<polygon fill="#ffffff" stroke="#000000" points="467.5,-.5 467.5,-19.5 530.5,-19.5 530.5,-.5 467.5,-.5"/>
<text text-anchor="middle" x="499" y="-7.5" font-family="Helvetica,sans-Serif" font-size="10.00" fill="#000000">libsbml.Image</text>
</a>
</g>
</g>
<!-- Node4&#45;&gt;Node14 -->
<g id="edge13" class="edge">
<title>Node4&#45;&gt;Node14</title>
<path fill="none" stroke="#191970" d="M417.2394,-20.8633C434.4645,-18.5746 452.5009,-16.1782 467.2373,-14.2202"/>
<polygon fill="#191970" stroke="#191970" points="416.6742,-17.4075 407.2224,-22.1942 417.5963,-24.3466 416.6742,-17.4075"/>
</g>
<!-- Node6 -->
<g id="node6" class="node">
<title>Node6</title>
<g id="a_node6"><a xlink:href="classlibsbml_1_1_graphical_primitive2_d.html" target="_top" xlink:title=" Base class for graphical primitives implementing 2D attributes. ">
<polygon fill="#ffffff" stroke="#000000" points="591,-76.5 591,-95.5 703,-95.5 703,-76.5 591,-76.5"/>
<text text-anchor="middle" x="647" y="-83.5" font-family="Helvetica,sans-Serif" font-size="10.00" fill="#000000">libsbml.GraphicalPrimitive2D</text>
</a>
</g>
</g>
<!-- Node5&#45;&gt;Node6 -->
<g id="edge5" class="edge">
<title>Node5&#45;&gt;Node6</title>
<path fill="none" stroke="#191970" d="M546.1735,-60.1121C566.7856,-65.4044 590.6093,-71.5213 609.9219,-76.4799"/>
<polygon fill="#191970" stroke="#191970" points="546.9029,-56.6859 536.3466,-57.589 545.162,-63.466 546.9029,-56.6859"/>
</g>
<!-- Node12 -->
<g id="node12" class="node">
<title>Node12</title>
<g id="a_node12"><a xlink:href="classlibsbml_1_1_render_curve.html" target="_top" xlink:title=" Representation of curves. ">
<polygon fill="#ffffff" stroke="#000000" points="603.5,-38.5 603.5,-57.5 690.5,-57.5 690.5,-38.5 603.5,-38.5"/>
<text text-anchor="middle" x="647" y="-45.5" font-family="Helvetica,sans-Serif" font-size="10.00" fill="#000000">libsbml.RenderCurve</text>
</a>
</g>
</g>
<!-- Node5&#45;&gt;Node12 -->
<g id="edge11" class="edge">
<title>Node5&#45;&gt;Node12</title>
<path fill="none" stroke="#191970" d="M565.5266,-48C578.3022,-48 591.378,-48 603.2099,-48"/>
<polygon fill="#191970" stroke="#191970" points="565.3747,-44.5001 555.3747,-48 565.3746,-51.5001 565.3747,-44.5001"/>
</g>
<!-- Node13 -->
<g id="node13" class="node">
<title>Node13</title>
<g id="a_node13"><a xlink:href="classlibsbml_1_1_text.html" target="_top" xlink:title=" Representation of text elements. ">
<polygon fill="#ffffff" stroke="#000000" points="618.5,-.5 618.5,-19.5 675.5,-19.5 675.5,-.5 618.5,-.5"/>
<text text-anchor="middle" x="647" y="-7.5" font-family="Helvetica,sans-Serif" font-size="10.00" fill="#000000">libsbml.Text</text>
</a>
</g>
</g>
<!-- Node5&#45;&gt;Node13 -->
<g id="edge12" class="edge">
<title>Node5&#45;&gt;Node13</title>
<path fill="none" stroke="#191970" d="M546.1778,-35.8868C569.7985,-29.822 597.6358,-22.6746 618.0688,-17.4283"/>
<polygon fill="#191970" stroke="#191970" points="545.162,-32.534 536.3466,-38.411 546.9029,-39.3141 545.162,-32.534"/>
</g>
<!-- Node7 -->
<g id="node7" class="node">
<title>Node7</title>
<g id="a_node7"><a xlink:href="classlibsbml_1_1_ellipse.html" target="_top" xlink:title=" Graphical representation of an ellipse. ">
<polygon fill="#ffffff" stroke="#000000" points="750.5,-152.5 750.5,-171.5 814.5,-171.5 814.5,-152.5 750.5,-152.5"/>
<text text-anchor="middle" x="782.5" y="-159.5" font-family="Helvetica,sans-Serif" font-size="10.00" fill="#000000">libsbml.Ellipse</text>
</a>
</g>
</g>
<!-- Node6&#45;&gt;Node7 -->
<g id="edge6" class="edge">
<title>Node6&#45;&gt;Node7</title>
<path fill="none" stroke="#191970" d="M669.4788,-101.1863C687.7868,-113.2444 714.519,-130.1538 739,-143 745.2757,-146.2931 752.2441,-149.5179 758.7315,-152.3486"/>
<polygon fill="#191970" stroke="#191970" points="671.238,-98.1531 660.9722,-95.5332 667.3636,-103.9831 671.238,-98.1531"/>
</g>
<!-- Node8 -->
<g id="node8" class="node">
<title>Node8</title>
<g id="a_node8"><a xlink:href="classlibsbml_1_1_line_ending.html" target="_top" xlink:title=" Decoration element for the start and/or end of curves. ">
<polygon fill="#ffffff" stroke="#000000" points="743,-114.5 743,-133.5 822,-133.5 822,-114.5 743,-114.5"/>
<text text-anchor="middle" x="782.5" y="-121.5" font-family="Helvetica,sans-Serif" font-size="10.00" fill="#000000">libsbml.LineEnding</text>
</a>
</g>
</g>
<!-- Node6&#45;&gt;Node8 -->
<g id="edge7" class="edge">
<title>Node6&#45;&gt;Node8</title>
<path fill="none" stroke="#191970" d="M690.9246,-98.3183C709.5414,-103.5393 730.9087,-109.5316 748.3186,-114.4141"/>
<polygon fill="#191970" stroke="#191970" points="691.766,-94.9193 681.1924,-95.589 689.8758,-101.6593 691.766,-94.9193"/>
</g>
<!-- Node9 -->
<g id="node9" class="node">
<title>Node9</title>
<g id="a_node9"><a xlink:href="classlibsbml_1_1_polygon.html" target="_top" xlink:title=" Representation of a Polygon ">
<polygon fill="#ffffff" stroke="#000000" points="748,-76.5 748,-95.5 817,-95.5 817,-76.5 748,-76.5"/>
<text text-anchor="middle" x="782.5" y="-83.5" font-family="Helvetica,sans-Serif" font-size="10.00" fill="#000000">libsbml.Polygon</text>
</a>
</g>
</g>
<!-- Node6&#45;&gt;Node9 -->
<g id="edge8" class="edge">
<title>Node6&#45;&gt;Node9</title>
<path fill="none" stroke="#191970" d="M713.2921,-86C725.2589,-86 737.2864,-86 747.8802,-86"/>
<polygon fill="#191970" stroke="#191970" points="713.2871,-82.5001 703.287,-86 713.287,-89.5001 713.2871,-82.5001"/>
</g>
<!-- Node10 -->
<g id="node10" class="node">
<title>Node10</title>
<g id="a_node10"><a xlink:href="classlibsbml_1_1_rectangle.html" target="_top" xlink:title=" Representation of a rectangle. ">
<polygon fill="#ffffff" stroke="#000000" points="744.5,-38.5 744.5,-57.5 820.5,-57.5 820.5,-38.5 744.5,-38.5"/>
<text text-anchor="middle" x="782.5" y="-45.5" font-family="Helvetica,sans-Serif" font-size="10.00" fill="#000000">libsbml.Rectangle</text>
</a>
</g>
</g>
<!-- Node6&#45;&gt;Node10 -->
<g id="edge9" class="edge">
<title>Node6&#45;&gt;Node10</title>
<path fill="none" stroke="#191970" d="M690.9246,-73.6817C709.5414,-68.4607 730.9087,-62.4684 748.3186,-57.5859"/>
<polygon fill="#191970" stroke="#191970" points="689.8758,-70.3407 681.1924,-76.411 691.766,-77.0807 689.8758,-70.3407"/>
</g>
<!-- Node11 -->
<g id="node11" class="node">
<title>Node11</title>
<g id="a_node11"><a xlink:href="classlibsbml_1_1_render_group.html" target="_top" xlink:title=" A group of graphical primitives creating a composite. ">
<polygon fill="#ffffff" stroke="#000000" points="739,-.5 739,-19.5 826,-19.5 826,-.5 739,-.5"/>
<text text-anchor="middle" x="782.5" y="-7.5" font-family="Helvetica,sans-Serif" font-size="10.00" fill="#000000">libsbml.RenderGroup</text>
</a>
</g>
</g>
<!-- Node6&#45;&gt;Node11 -->
<g id="edge10" class="edge">
<title>Node6&#45;&gt;Node11</title>
<path fill="none" stroke="#191970" d="M693.0581,-72.4558C696.5204,-70.815 699.8771,-69.0006 703,-67 722.5894,-54.4505 719.9595,-42.3677 739,-29 744.126,-25.4012 750.0423,-22.2646 755.8279,-19.633"/>
<polygon fill="#191970" stroke="#191970" points="691.5792,-69.2811 683.7347,-76.4025 694.308,-75.7273 691.5792,-69.2811"/>
</g>
</g>
</svg>
        <g id="navigator" transform="translate(0 0)" fill="#404254">
                <rect fill="#f2f5e9" fill-opacity="0.5" stroke="#606060" stroke-width=".5" x="0" y="0" width="60" height="60"/>
                <use id="zoomplus" xlink:href="#zoomPlus" x="17" y="9" onmousedown="handleZoom(evt,'in')"/>
                <use id="zoomminus" xlink:href="#zoomMin" x="42" y="9" onmousedown="handleZoom(evt,'out')"/>
                <use id="reset" xlink:href="#resetDef" x="30" y="36" onmousedown="handleReset()"/>
                <g id="arrowUp" xlink:href="#dirArrow" transform="translate(30 24)" onmousedown="handlePan(0,-1)">
                  <use xlink:href="#rim" fill="#404040">
                        <set attributeName="fill" to="#808080" begin="arrowUp.mouseover" end="arrowUp.mouseout"/>
                  </use>
                  <path fill="none" stroke="white" stroke-width="1.5" d="M0,-3.0v7 M-2.5,-0.5L0,-3.0L2.5,-0.5"/>
                </g>
                <g id="arrowRight" xlink:href="#dirArrow" transform="rotate(90) translate(36 -43)" onmousedown="handlePan(1,0)">
                  <use xlink:href="#rim" fill="#404040">
                        <set attributeName="fill" to="#808080" begin="arrowRight.mouseover" end="arrowRight.mouseout"/>
                  </use>
                  <path fill="none" stroke="white" stroke-width="1.5" d="M0,-3.0v7 M-2.5,-0.5L0,-3.0L2.5,-0.5"/>
                </g>
                <g id="arrowDown" xlink:href="#dirArrow" transform="rotate(180) translate(-30 -48)" onmousedown="handlePan(0,1)">
                  <use xlink:href="#rim" fill="#404040">
                        <set attributeName="fill" to="#808080" begin="arrowDown.mouseover" end="arrowDown.mouseout"/>
                  </use>
                  <path fill="none" stroke="white" stroke-width="1.5" d="M0,-3.0v7 M-2.5,-0.5L0,-3.0L2.5,-0.5"/>
                </g>
                <g id="arrowLeft" xlink:href="#dirArrow" transform="rotate(270) translate(-36 17)" onmousedown="handlePan(-1,0)">
                  <use xlink:href="#rim" fill="#404040">
                        <set attributeName="fill" to="#808080" begin="arrowLeft.mouseover" end="arrowLeft.mouseout"/>
                  </use>
                  <path fill="none" stroke="white" stroke-width="1.5" d="M0,-3.0v7 M-2.5,-0.5L0,-3.0L2.5,-0.5"/>
                </g>
        </g>
        <svg viewBox="0 0 15 15" width="100%" height="30px" preserveAspectRatio="xMaxYMin meet">
         <g id="arrow_out" transform="scale(0.3 0.3)">
          <a xlink:href="classlibsbml_1_1_transformation__inherit__graph_org.svg" target="_base">
           <rect id="button" ry="5" rx="5" y="6" x="6" height="38" width="38"
                fill="#f2f5e9" fill-opacity="0.5" stroke="#606060" stroke-width="1.0"/>
           <path id="arrow"
             d="M 11.500037,31.436501 C 11.940474,20.09759 22.043105,11.32322 32.158766,21.979434 L 37.068811,17.246167 C 37.068811,17.246167 37.088388,32 37.088388,32 L 22.160133,31.978069 C 22.160133,31.978069 26.997745,27.140456 26.997745,27.140456 C 18.528582,18.264221 13.291696,25.230495 11.500037,31.436501 z"
             style="fill:#404040;"/>
          </a>
         </g>
        </svg>
</svg>
