<?xml version="1.0" encoding="UTF-8" standalone="no"?>
<!DOCTYPE svg PUBLIC "-//W3C//DTD SVG 1.1//EN"
 "http://www.w3.org/Graphics/SVG/1.1/DTD/svg11.dtd">
<!-- Generated by graphviz version 2.40.1 (20161225.0304)
 -->
<!-- Title: libsbml.ListOfDrawables Pages: 1 -->
<svg width="132pt" height="196pt"
 viewBox="0.00 0.00 132.00 196.00" xmlns="http://www.w3.org/2000/svg" xmlns:xlink="http://www.w3.org/1999/xlink">
<g id="graph0" class="graph" transform="scale(1 1) rotate(0) translate(4 192)">
<title>libsbml.ListOfDrawables</title>
<polygon fill="#ffffff" stroke="transparent" points="-4,4 -4,-192 128,-192 128,4 -4,4"/>
<!-- Node1 -->
<g id="node1" class="node">
<title>Node1</title>
<polygon fill="#bfbfbf" stroke="#000000" points="0,-.5 0,-19.5 124,-19.5 124,-.5 0,-.5"/>
<text text-anchor="middle" x="62" y="-7.5" font-family="Helvetica,sans-Serif" font-size="10.00" fill="#000000">libsbml.ListOfDrawables</text>
</g>
<!-- Node2 -->
<g id="node2" class="node">
<title>Node2</title>
<g id="a_node2"><a xlink:href="classlibsbml_1_1_list_of.html" target="_top" xlink:title=" Parent class for libSBML&#39;s &#39;ListOfXYZ&#39; classes. ">
<polygon fill="#ffffff" stroke="#000000" points="23.5,-56.5 23.5,-75.5 100.5,-75.5 100.5,-56.5 23.5,-56.5"/>
<text text-anchor="middle" x="62" y="-63.5" font-family="Helvetica,sans-Serif" font-size="10.00" fill="#000000">libsbml.ListOf</text>
</a>
</g>
</g>
<!-- Node2&#45;&gt;Node1 -->
<g id="edge1" class="edge">
<title>Node2&#45;&gt;Node1</title>
<path fill="none" stroke="#191970" d="M62,-46.1575C62,-37.155 62,-26.9199 62,-19.6427"/>
<polygon fill="#191970" stroke="#191970" points="58.5001,-46.2455 62,-56.2455 65.5001,-46.2456 58.5001,-46.2455"/>
</g>
<!-- Node3 -->
<g id="node3" class="node">
<title>Node3</title>
<g id="a_node3"><a xlink:href="classlibsbml_1_1_s_base.html" target="_top" xlink:title=" SBML&#39;s SBase class, base class of most SBML objects. ">
<polygon fill="#ffffff" stroke="#000000" points="22,-112.5 22,-131.5 102,-131.5 102,-112.5 22,-112.5"/>
<text text-anchor="middle" x="62" y="-119.5" font-family="Helvetica,sans-Serif" font-size="10.00" fill="#000000">libsbml.SBase</text>
</a>
</g>
</g>
<!-- Node3&#45;&gt;Node2 -->
<g id="edge2" class="edge">
<title>Node3&#45;&gt;Node2</title>
<path fill="none" stroke="#191970" d="M62,-102.1575C62,-93.155 62,-82.9199 62,-75.6427"/>
<polygon fill="#191970" stroke="#191970" points="58.5001,-102.2455 62,-112.2455 65.5001,-102.2456 58.5001,-102.2455"/>
</g>
<!-- Node4 -->
<g id="node4" class="node">
<title>Node4</title>
<polygon fill="#ffffff" stroke="#bfbfbf" points="37.5,-168.5 37.5,-187.5 86.5,-187.5 86.5,-168.5 37.5,-168.5"/>
<text text-anchor="middle" x="62" y="-175.5" font-family="Helvetica,sans-Serif" font-size="10.00" fill="#000000">_object</text>
</g>
<!-- Node4&#45;&gt;Node3 -->
<g id="edge3" class="edge">
<title>Node4&#45;&gt;Node3</title>
<path fill="none" stroke="#191970" d="M62,-158.1575C62,-149.155 62,-138.9199 62,-131.6427"/>
<polygon fill="#191970" stroke="#191970" points="58.5001,-158.2455 62,-168.2455 65.5001,-158.2456 58.5001,-158.2455"/>
</g>
</g>
</svg>
