<?xml version="1.0" encoding="UTF-8" standalone="no"?>
<!DOCTYPE svg PUBLIC "-//W3C//DTD SVG 1.1//EN"
 "http://www.w3.org/Graphics/SVG/1.1/DTD/svg11.dtd">
<!-- Generated by graphviz version 2.40.1 (20161225.0304)
 -->
<!-- Title: libsbml.Polygon Pages: 1 -->
<svg width="120pt" height="364pt"
 viewBox="0.00 0.00 120.00 364.00" xmlns="http://www.w3.org/2000/svg" xmlns:xlink="http://www.w3.org/1999/xlink">
<g id="graph0" class="graph" transform="scale(1 1) rotate(0) translate(4 360)">
<title>libsbml.Polygon</title>
<polygon fill="#ffffff" stroke="transparent" points="-4,4 -4,-360 116,-360 116,4 -4,4"/>
<!-- Node1 -->
<g id="node1" class="node">
<title>Node1</title>
<polygon fill="#bfbfbf" stroke="#000000" points="21.5,-.5 21.5,-19.5 90.5,-19.5 90.5,-.5 21.5,-.5"/>
<text text-anchor="middle" x="56" y="-7.5" font-family="Helvetica,sans-Serif" font-size="10.00" fill="#000000">libsbml.Polygon</text>
</g>
<!-- Node2 -->
<g id="node2" class="node">
<title>Node2</title>
<g id="a_node2"><a xlink:href="classlibsbml_1_1_graphical_primitive2_d.html" target="_top" xlink:title=" Base class for graphical primitives implementing 2D attributes. ">
<polygon fill="#ffffff" stroke="#000000" points="0,-56.5 0,-75.5 112,-75.5 112,-56.5 0,-56.5"/>
<text text-anchor="middle" x="56" y="-63.5" font-family="Helvetica,sans-Serif" font-size="10.00" fill="#000000">libsbml.GraphicalPrimitive2D</text>
</a>
</g>
</g>
<!-- Node2&#45;&gt;Node1 -->
<g id="edge1" class="edge">
<title>Node2&#45;&gt;Node1</title>
<path fill="none" stroke="#191970" d="M56,-46.1575C56,-37.155 56,-26.9199 56,-19.6427"/>
<polygon fill="#191970" stroke="#191970" points="52.5001,-46.2455 56,-56.2455 59.5001,-46.2456 52.5001,-46.2455"/>
</g>
<!-- Node3 -->
<g id="node3" class="node">
<title>Node3</title>
<g id="a_node3"><a xlink:href="classlibsbml_1_1_graphical_primitive1_d.html" target="_top" xlink:title=" Base class for graphical primitives implementing 1D attributes. ">
<polygon fill="#ffffff" stroke="#000000" points="0,-112.5 0,-131.5 112,-131.5 112,-112.5 0,-112.5"/>
<text text-anchor="middle" x="56" y="-119.5" font-family="Helvetica,sans-Serif" font-size="10.00" fill="#000000">libsbml.GraphicalPrimitive1D</text>
</a>
</g>
</g>
<!-- Node3&#45;&gt;Node2 -->
<g id="edge2" class="edge">
<title>Node3&#45;&gt;Node2</title>
<path fill="none" stroke="#191970" d="M56,-102.1575C56,-93.155 56,-82.9199 56,-75.6427"/>
<polygon fill="#191970" stroke="#191970" points="52.5001,-102.2455 56,-112.2455 59.5001,-102.2456 52.5001,-102.2455"/>
</g>
<!-- Node4 -->
<g id="node4" class="node">
<title>Node4</title>
<g id="a_node4"><a xlink:href="classlibsbml_1_1_transformation2_d.html" target="_top" xlink:title=" Implementation of a 2D transformation matrix. ">
<polygon fill="#ffffff" stroke="#000000" points="5,-168.5 5,-187.5 107,-187.5 107,-168.5 5,-168.5"/>
<text text-anchor="middle" x="56" y="-175.5" font-family="Helvetica,sans-Serif" font-size="10.00" fill="#000000">libsbml.Transformation2D</text>
</a>
</g>
</g>
<!-- Node4&#45;&gt;Node3 -->
<g id="edge3" class="edge">
<title>Node4&#45;&gt;Node3</title>
<path fill="none" stroke="#191970" d="M56,-158.1575C56,-149.155 56,-138.9199 56,-131.6427"/>
<polygon fill="#191970" stroke="#191970" points="52.5001,-158.2455 56,-168.2455 59.5001,-158.2456 52.5001,-158.2455"/>
</g>
<!-- Node5 -->
<g id="node5" class="node">
<title>Node5</title>
<g id="a_node5"><a xlink:href="classlibsbml_1_1_transformation.html" target="_top" xlink:title=" Implementation of a 3D transformation matrix. ">
<polygon fill="#ffffff" stroke="#000000" points="10,-224.5 10,-243.5 102,-243.5 102,-224.5 10,-224.5"/>
<text text-anchor="middle" x="56" y="-231.5" font-family="Helvetica,sans-Serif" font-size="10.00" fill="#000000">libsbml.Transformation</text>
</a>
</g>
</g>
<!-- Node5&#45;&gt;Node4 -->
<g id="edge4" class="edge">
<title>Node5&#45;&gt;Node4</title>
<path fill="none" stroke="#191970" d="M56,-214.1575C56,-205.155 56,-194.9199 56,-187.6427"/>
<polygon fill="#191970" stroke="#191970" points="52.5001,-214.2455 56,-224.2455 59.5001,-214.2456 52.5001,-214.2455"/>
</g>
<!-- Node6 -->
<g id="node6" class="node">
<title>Node6</title>
<g id="a_node6"><a xlink:href="classlibsbml_1_1_s_base.html" target="_top" xlink:title=" SBML&#39;s SBase class, base class of most SBML objects. ">
<polygon fill="#ffffff" stroke="#000000" points="24,-280.5 24,-299.5 88,-299.5 88,-280.5 24,-280.5"/>
<text text-anchor="middle" x="56" y="-287.5" font-family="Helvetica,sans-Serif" font-size="10.00" fill="#000000">libsbml.SBase</text>
</a>
</g>
</g>
<!-- Node6&#45;&gt;Node5 -->
<g id="edge5" class="edge">
<title>Node6&#45;&gt;Node5</title>
<path fill="none" stroke="#191970" d="M56,-270.1575C56,-261.155 56,-250.9199 56,-243.6427"/>
<polygon fill="#191970" stroke="#191970" points="52.5001,-270.2455 56,-280.2455 59.5001,-270.2456 52.5001,-270.2455"/>
</g>
<!-- Node7 -->
<g id="node7" class="node">
<title>Node7</title>
<polygon fill="#ffffff" stroke="#bfbfbf" points="35.5,-336.5 35.5,-355.5 76.5,-355.5 76.5,-336.5 35.5,-336.5"/>
<text text-anchor="middle" x="56" y="-343.5" font-family="Helvetica,sans-Serif" font-size="10.00" fill="#000000">_object</text>
</g>
<!-- Node7&#45;&gt;Node6 -->
<g id="edge6" class="edge">
<title>Node7&#45;&gt;Node6</title>
<path fill="none" stroke="#191970" d="M56,-326.1575C56,-317.155 56,-306.9199 56,-299.6427"/>
<polygon fill="#191970" stroke="#191970" points="52.5001,-326.2455 56,-336.2455 59.5001,-326.2456 52.5001,-326.2455"/>
</g>
</g>
</svg>
