<?xml version="1.0" encoding="UTF-8" standalone="no"?>
<!DOCTYPE svg PUBLIC "-//W3C//DTD SVG 1.1//EN"
 "http://www.w3.org/Graphics/SVG/1.1/DTD/svg11.dtd">
<!-- Generated by graphviz version 2.40.1 (20161225.0304)
 -->
<!-- Title: libsbml.MultiCompartmentPlugin Pages: 1 -->
<svg width="140pt" height="151pt"
 viewBox="0.00 0.00 140.00 151.00" xmlns="http://www.w3.org/2000/svg" xmlns:xlink="http://www.w3.org/1999/xlink">
<g id="graph0" class="graph" transform="scale(1 1) rotate(0) translate(4 147)">
<title>libsbml.MultiCompartmentPlugin</title>
<polygon fill="#ffffff" stroke="transparent" points="-4,4 -4,-147 136,-147 136,4 -4,4"/>
<!-- Node1 -->
<g id="node1" class="node">
<title>Node1</title>
<polygon fill="#bfbfbf" stroke="#000000" points="0,-.5 0,-30.5 132,-30.5 132,-.5 0,-.5"/>
<text text-anchor="start" x="8" y="-18.5" font-family="Helvetica,sans-Serif" font-size="10.00" fill="#000000">libsbml.MultiCompartment</text>
<text text-anchor="middle" x="66" y="-7.5" font-family="Helvetica,sans-Serif" font-size="10.00" fill="#000000">Plugin</text>
</g>
<!-- Node2 -->
<g id="node2" class="node">
<title>Node2</title>
<g id="a_node2"><a xlink:href="classlibsbml_1_1_s_base_plugin.html" target="_top" xlink:title=" Base class for extending SBML objects in packages. ">
<polygon fill="#ffffff" stroke="#000000" points="12,-67.5 12,-86.5 120,-86.5 120,-67.5 12,-67.5"/>
<text text-anchor="middle" x="66" y="-74.5" font-family="Helvetica,sans-Serif" font-size="10.00" fill="#000000">libsbml.SBasePlugin</text>
</a>
</g>
</g>
<!-- Node2&#45;&gt;Node1 -->
<g id="edge1" class="edge">
<title>Node2&#45;&gt;Node1</title>
<path fill="none" stroke="#191970" d="M66,-57.3693C66,-48.681 66,-38.6241 66,-30.5446"/>
<polygon fill="#191970" stroke="#191970" points="62.5001,-57.3906 66,-67.3906 69.5001,-57.3907 62.5001,-57.3906"/>
</g>
<!-- Node3 -->
<g id="node3" class="node">
<title>Node3</title>
<polygon fill="#ffffff" stroke="#bfbfbf" points="41.5,-123.5 41.5,-142.5 90.5,-142.5 90.5,-123.5 41.5,-123.5"/>
<text text-anchor="middle" x="66" y="-130.5" font-family="Helvetica,sans-Serif" font-size="10.00" fill="#000000">_object</text>
</g>
<!-- Node3&#45;&gt;Node2 -->
<g id="edge2" class="edge">
<title>Node3&#45;&gt;Node2</title>
<path fill="none" stroke="#191970" d="M66,-113.1575C66,-104.155 66,-93.9199 66,-86.6427"/>
<polygon fill="#191970" stroke="#191970" points="62.5001,-113.2455 66,-123.2455 69.5001,-113.2456 62.5001,-113.2455"/>
</g>
</g>
</svg>
