<?xml version="1.0" encoding="UTF-8" standalone="no"?>
<!DOCTYPE svg PUBLIC "-//W3C//DTD SVG 1.1//EN"
 "http://www.w3.org/Graphics/SVG/1.1/DTD/svg11.dtd">
<!-- Generated by graphviz version 2.40.1 (20161225.0304)
 -->
<!-- Title: libsbml.SBMLConverter Pages: 1 -->
<!--zoomable 667 -->
<svg id="main" version="1.1" xmlns="http://www.w3.org/2000/svg" xmlns:xlink="http://www.w3.org/1999/xlink" xml:space="preserve" onload="init(evt)">
<style type="text/css"><![CDATA[
.edge:hover path { stroke: red; }
.edge:hover polygon { stroke: red; fill: red; }
]]></style>
<script type="text/javascript"><![CDATA[
var edges = document.getElementsByTagName('g');
if (edges && edges.length) {
  for (var i=0;i<edges.length;i++) {
    if (edges[i].id.substr(0,4)=='edge') {
      edges[i].setAttribute('class','edge');
    }
  }
}
]]></script>
        <defs>
                <circle id="rim" cx="0" cy="0" r="7"/>
                <circle id="rim2" cx="0" cy="0" r="3.5"/>
                <g id="zoomPlus">
                        <use xlink:href="#rim" fill="#404040">
                                <set attributeName="fill" to="#808080" begin="zoomplus.mouseover" end="zoomplus.mouseout"/>
                        </use>
                        <path d="M-4,0h8M0,-4v8" fill="none" stroke="white" stroke-width="1.5" pointer-events="none"/>
                </g>
                <g id="zoomMin">
                        <use xlink:href="#rim" fill="#404040">
                                <set attributeName="fill" to="#808080" begin="zoomminus.mouseover" end="zoomminus.mouseout"/>
                        </use>
                        <path d="M-4,0h8" fill="none" stroke="white" stroke-width="1.5" pointer-events="none"/>
                </g>
                <g id="dirArrow">
                        <path fill="none" stroke="white" stroke-width="1.5" d="M0,-3.0v7 M-2.5,-0.5L0,-3.0L2.5,-0.5"/>
                </g>
               <g id="resetDef">
                       <use xlink:href="#rim2" fill="#404040">
                               <set attributeName="fill" to="#808080" begin="reset.mouseover" end="reset.mouseout"/>
                       </use>
               </g>
        </defs>

<script type="text/javascript">
var viewWidth = 416;
var viewHeight = 667;
var sectionId = 'dynsection-0';
</script>
<script xlink:href="svgpan.js"/>
<svg id="graph" class="graph">
<g id="viewport">
<title>libsbml.SBMLConverter</title>
<polygon fill="#ffffff" stroke="transparent" points="-4,4 -4,-663 412,-663 412,4 -4,4"/>
<!-- Node1 -->
<g id="node1" class="node">
<title>Node1</title>
<polygon fill="#bfbfbf" stroke="#000000" points="85,-339.5 85,-358.5 207,-358.5 207,-339.5 85,-339.5"/>
<text text-anchor="middle" x="146" y="-346.5" font-family="Helvetica,sans-Serif" font-size="10.00" fill="#000000">libsbml.SBMLConverter</text>
</g>
<!-- Node3 -->
<g id="node3" class="node">
<title>Node3</title>
<g id="a_node3"><a xlink:href="classlibsbml_1_1_cobra_to_fbc_converter.html" target="_top" xlink:title=" COBRA to SBML Level 3 “fbc” converter. ">
<polygon fill="#ffffff" stroke="#000000" points="250.5,-639.5 250.5,-658.5 400.5,-658.5 400.5,-639.5 250.5,-639.5"/>
<text text-anchor="middle" x="325.5" y="-646.5" font-family="Helvetica,sans-Serif" font-size="10.00" fill="#000000">libsbml.CobraToFbcConverter</text>
</a>
</g>
</g>
<!-- Node1&#45;&gt;Node3 -->
<g id="edge2" class="edge">
<title>Node1&#45;&gt;Node3</title>
<path fill="none" stroke="#191970" d="M150.1962,-368.6719C162.8942,-426.4064 202.5253,-593.6045 243,-630 247.2623,-633.8328 252.1407,-636.9387 257.3485,-639.4503"/>
<polygon fill="#191970" stroke="#191970" points="153.5639,-367.6864 148.0234,-358.6557 146.723,-369.1705 153.5639,-367.6864"/>
</g>
<!-- Node4 -->
<g id="node4" class="node">
<title>Node4</title>
<g id="a_node4"><a xlink:href="classlibsbml_1_1_comp_flattening_converter.html" target="_top" xlink:title=" &#39;Flattens&#39; a model, removing composition. ">
<polygon fill="#ffffff" stroke="#000000" points="243,-601.5 243,-620.5 408,-620.5 408,-601.5 243,-601.5"/>
<text text-anchor="middle" x="325.5" y="-608.5" font-family="Helvetica,sans-Serif" font-size="10.00" fill="#000000">libsbml.CompFlatteningConverter</text>
</a>
</g>
</g>
<!-- Node1&#45;&gt;Node4 -->
<g id="edge3" class="edge">
<title>Node1&#45;&gt;Node4</title>
<path fill="none" stroke="#191970" d="M147.8027,-368.6839C153.153,-415.1415 173.2259,-532.1874 243,-592 247.4636,-595.8263 252.5464,-598.9208 257.9461,-601.4187"/>
<polygon fill="#191970" stroke="#191970" points="151.2802,-368.2857 146.7599,-358.7036 144.3181,-369.0132 151.2802,-368.2857"/>
</g>
<!-- Node5 -->
<g id="node5" class="node">
<title>Node5</title>
<g id="a_node5"><a xlink:href="classlibsbml_1_1_fbc_to_cobra_converter.html" target="_top" xlink:title=" SBML Level 3 “fbc” to COBRA converter. ">
<polygon fill="#ffffff" stroke="#000000" points="250.5,-563.5 250.5,-582.5 400.5,-582.5 400.5,-563.5 250.5,-563.5"/>
<text text-anchor="middle" x="325.5" y="-570.5" font-family="Helvetica,sans-Serif" font-size="10.00" fill="#000000">libsbml.FbcToCobraConverter</text>
</a>
</g>
</g>
<!-- Node1&#45;&gt;Node5 -->
<g id="edge4" class="edge">
<title>Node1&#45;&gt;Node5</title>
<path fill="none" stroke="#191970" d="M149.3978,-368.6242C157.5941,-409.7661 182.436,-505.2643 243,-554 247.8093,-557.8701 253.2612,-560.9817 259.0154,-563.4795"/>
<polygon fill="#191970" stroke="#191970" points="152.7915,-367.731 147.5116,-358.5455 145.9109,-369.0187 152.7915,-367.731"/>
</g>
<!-- Node6 -->
<g id="node6" class="node">
<title>Node6</title>
<g id="a_node6"><a xlink:href="classlibsbml_1_1_fbc_v1_to_v2_converter.html" target="_top" xlink:title=" Convert “fbc” Version 1 models to Version 2 ">
<polygon fill="#ffffff" stroke="#000000" points="252,-525.5 252,-544.5 399,-544.5 399,-525.5 252,-525.5"/>
<text text-anchor="middle" x="325.5" y="-532.5" font-family="Helvetica,sans-Serif" font-size="10.00" fill="#000000">libsbml.FbcV1ToV2Converter</text>
</a>
</g>
</g>
<!-- Node1&#45;&gt;Node6 -->
<g id="edge5" class="edge">
<title>Node1&#45;&gt;Node6</title>
<path fill="none" stroke="#191970" d="M151.5783,-368.3588C162.7666,-403.5656 191.4018,-477.9449 243,-516 248.2046,-519.8386 254.0573,-522.9189 260.1815,-525.3883"/>
<polygon fill="#191970" stroke="#191970" points="154.921,-367.3208 148.6601,-358.7738 148.2245,-369.3597 154.921,-367.3208"/>
</g>
<!-- Node7 -->
<g id="node7" class="node">
<title>Node7</title>
<g id="a_node7"><a xlink:href="classlibsbml_1_1_fbc_v2_to_v1_converter.html" target="_top" xlink:title=" Convert “fbc” Version 2 models to Version 1 ">
<polygon fill="#ffffff" stroke="#000000" points="252,-487.5 252,-506.5 399,-506.5 399,-487.5 252,-487.5"/>
<text text-anchor="middle" x="325.5" y="-494.5" font-family="Helvetica,sans-Serif" font-size="10.00" fill="#000000">libsbml.FbcV2ToV1Converter</text>
</a>
</g>
</g>
<!-- Node1&#45;&gt;Node7 -->
<g id="edge6" class="edge">
<title>Node1&#45;&gt;Node7</title>
<path fill="none" stroke="#191970" d="M154.7736,-367.8682C169.0536,-396.3954 200.1006,-450.1257 243,-478 248.9158,-481.8439 255.5136,-484.9143 262.3297,-487.3661"/>
<polygon fill="#191970" stroke="#191970" points="157.79,-366.0666 150.2803,-358.593 151.4903,-369.1185 157.79,-366.0666"/>
</g>
<!-- Node8 -->
<g id="node8" class="node">
<title>Node8</title>
<g id="a_node8"><a xlink:href="classlibsbml_1_1_s_b_m_l_function_definition_converter.html" target="_top" xlink:title=" Converter to expand user&#45;defined functions in&#45;line. ">
<polygon fill="#ffffff" stroke="#000000" points="246.5,-438 246.5,-468 404.5,-468 404.5,-438 246.5,-438"/>
<text text-anchor="start" x="254.5" y="-456" font-family="Helvetica,sans-Serif" font-size="10.00" fill="#000000">libsbml.SBMLFunctionDefinition</text>
<text text-anchor="middle" x="325.5" y="-445" font-family="Helvetica,sans-Serif" font-size="10.00" fill="#000000">Converter</text>
</a>
</g>
</g>
<!-- Node1&#45;&gt;Node8 -->
<g id="edge7" class="edge">
<title>Node1&#45;&gt;Node8</title>
<path fill="none" stroke="#191970" d="M162.7182,-366.1101C180.9547,-383.8828 211.739,-411.3716 243,-428 250.1351,-431.7953 257.9309,-435.1018 265.7911,-437.9569"/>
<polygon fill="#191970" stroke="#191970" points="164.8254,-363.2697 155.2657,-358.702 159.8904,-368.2342 164.8254,-363.2697"/>
</g>
<!-- Node9 -->
<g id="node9" class="node">
<title>Node9</title>
<g id="a_node9"><a xlink:href="classlibsbml_1_1_s_b_m_l_id_converter.html" target="_top" xlink:title=" Converter for replacing object identifiers. ">
<polygon fill="#ffffff" stroke="#000000" points="260.5,-399.5 260.5,-418.5 390.5,-418.5 390.5,-399.5 260.5,-399.5"/>
<text text-anchor="middle" x="325.5" y="-406.5" font-family="Helvetica,sans-Serif" font-size="10.00" fill="#000000">libsbml.SBMLIdConverter</text>
</a>
</g>
</g>
<!-- Node1&#45;&gt;Node9 -->
<g id="edge8" class="edge">
<title>Node1&#45;&gt;Node9</title>
<path fill="none" stroke="#191970" d="M174.9797,-362.812C194.0001,-371.4848 219.5972,-382.4226 243,-390 254.0467,-393.5767 266.132,-396.7553 277.5629,-399.4409"/>
<polygon fill="#191970" stroke="#191970" points="176.225,-359.5318 165.6793,-358.5129 173.2879,-365.8858 176.225,-359.5318"/>
</g>
<!-- Node10 -->
<g id="node10" class="node">
<title>Node10</title>
<g id="a_node10"><a xlink:href="classlibsbml_1_1_s_b_m_l_infer_units_converter.html" target="_top" xlink:title=" Converter for inferring and setting parameter units. ">
<polygon fill="#ffffff" stroke="#000000" points="243.5,-361.5 243.5,-380.5 407.5,-380.5 407.5,-361.5 243.5,-361.5"/>
<text text-anchor="middle" x="325.5" y="-368.5" font-family="Helvetica,sans-Serif" font-size="10.00" fill="#000000">libsbml.SBMLInferUnitsConverter</text>
</a>
</g>
</g>
<!-- Node1&#45;&gt;Node10 -->
<g id="edge9" class="edge">
<title>Node1&#45;&gt;Node10</title>
<path fill="none" stroke="#191970" d="M217.0055,-357.7026C227.121,-358.9424 237.569,-360.2229 247.804,-361.4774"/>
<polygon fill="#191970" stroke="#191970" points="217.3725,-354.2215 207.021,-356.4789 216.5209,-361.1695 217.3725,-354.2215"/>
</g>
<!-- Node11 -->
<g id="node11" class="node">
<title>Node11</title>
<g id="a_node11"><a xlink:href="classlibsbml_1_1_s_b_m_l_initial_assignment_converter.html" target="_top" xlink:title=" Converter that removes SBML initial assignments. ">
<polygon fill="#ffffff" stroke="#000000" points="249,-312 249,-342 402,-342 402,-312 249,-312"/>
<text text-anchor="start" x="257" y="-330" font-family="Helvetica,sans-Serif" font-size="10.00" fill="#000000">libsbml.SBMLInitialAssignment</text>
<text text-anchor="middle" x="325.5" y="-319" font-family="Helvetica,sans-Serif" font-size="10.00" fill="#000000">Converter</text>
</a>
</g>
</g>
<!-- Node1&#45;&gt;Node11 -->
<g id="edge10" class="edge">
<title>Node1&#45;&gt;Node11</title>
<path fill="none" stroke="#191970" d="M217.2408,-340.2685C227.5968,-338.9993 238.2965,-337.6879 248.7555,-336.406"/>
<polygon fill="#191970" stroke="#191970" points="216.5209,-336.8305 207.021,-341.5211 217.3725,-343.7785 216.5209,-336.8305"/>
</g>
<!-- Node12 -->
<g id="node12" class="node">
<title>Node12</title>
<g id="a_node12"><a xlink:href="classlibsbml_1_1_s_b_m_l_level1_version1_converter.html" target="_top" xlink:title=" Whole&#45;document SBML Level/Version converter. ">
<polygon fill="#ffffff" stroke="#000000" points="252,-263 252,-293 399,-293 399,-263 252,-263"/>
<text text-anchor="start" x="260" y="-281" font-family="Helvetica,sans-Serif" font-size="10.00" fill="#000000">libsbml.SBMLLevel1Version1</text>
<text text-anchor="middle" x="325.5" y="-270" font-family="Helvetica,sans-Serif" font-size="10.00" fill="#000000">Converter</text>
</a>
</g>
</g>
<!-- Node1&#45;&gt;Node12 -->
<g id="edge11" class="edge">
<title>Node1&#45;&gt;Node12</title>
<path fill="none" stroke="#191970" d="M172.5159,-334.6512C191.7169,-324.6346 218.4959,-311.4239 243,-302 251.3535,-298.7874 260.3232,-295.7623 269.1613,-293.0133"/>
<polygon fill="#191970" stroke="#191970" points="170.69,-331.6573 163.4804,-339.4208 173.9578,-337.8477 170.69,-331.6573"/>
</g>
<!-- Node13 -->
<g id="node13" class="node">
<title>Node13</title>
<g id="a_node13"><a xlink:href="classlibsbml_1_1_s_b_m_l_level_version_converter.html" target="_top" xlink:title=" Whole&#45;document SBML Level/Version converter. ">
<polygon fill="#ffffff" stroke="#000000" points="258,-214 258,-244 393,-244 393,-214 258,-214"/>
<text text-anchor="start" x="266" y="-232" font-family="Helvetica,sans-Serif" font-size="10.00" fill="#000000">libsbml.SBMLLevelVersion</text>
<text text-anchor="middle" x="325.5" y="-221" font-family="Helvetica,sans-Serif" font-size="10.00" fill="#000000">Converter</text>
</a>
</g>
</g>
<!-- Node1&#45;&gt;Node13 -->
<g id="edge12" class="edge">
<title>Node1&#45;&gt;Node13</title>
<path fill="none" stroke="#191970" d="M159.3138,-331.2172C176.3865,-309.6358 207.9979,-273.5863 243,-253 248.786,-249.597 255.087,-246.6488 261.5432,-244.1007"/>
<polygon fill="#191970" stroke="#191970" points="156.4623,-329.1833 153.1143,-339.2352 162,-333.4651 156.4623,-329.1833"/>
</g>
<!-- Node14 -->
<g id="node14" class="node">
<title>Node14</title>
<g id="a_node14"><a xlink:href="classlibsbml_1_1_s_b_m_l_local_parameter_converter.html" target="_top" xlink:title=" Converter to turn local parameters into global ones. ">
<polygon fill="#ffffff" stroke="#000000" points="251.5,-165 251.5,-195 399.5,-195 399.5,-165 251.5,-165"/>
<text text-anchor="start" x="259.5" y="-183" font-family="Helvetica,sans-Serif" font-size="10.00" fill="#000000">libsbml.SBMLLocalParameter</text>
<text text-anchor="middle" x="325.5" y="-172" font-family="Helvetica,sans-Serif" font-size="10.00" fill="#000000">Converter</text>
</a>
</g>
</g>
<!-- Node1&#45;&gt;Node14 -->
<g id="edge13" class="edge">
<title>Node1&#45;&gt;Node14</title>
<path fill="none" stroke="#191970" d="M153.6022,-329.8593C166.9478,-298.7326 197.5578,-237.2824 243,-204 247.6933,-200.5626 252.8714,-197.6154 258.2775,-195.0891"/>
<polygon fill="#191970" stroke="#191970" points="150.3394,-328.5904 149.7417,-339.1683 156.8055,-331.2719 150.3394,-328.5904"/>
</g>
<!-- Node15 -->
<g id="node15" class="node">
<title>Node15</title>
<g id="a_node15"><a xlink:href="classlibsbml_1_1_s_b_m_l_reaction_converter.html" target="_top" xlink:title=" Converter to replace reactions with SBML rate rules. ">
<polygon fill="#ffffff" stroke="#000000" points="245,-126.5 245,-145.5 406,-145.5 406,-126.5 245,-126.5"/>
<text text-anchor="middle" x="325.5" y="-133.5" font-family="Helvetica,sans-Serif" font-size="10.00" fill="#000000">libsbml.SBMLReactionConverter</text>
</a>
</g>
</g>
<!-- Node1&#45;&gt;Node15 -->
<g id="edge14" class="edge">
<title>Node1&#45;&gt;Node15</title>
<path fill="none" stroke="#191970" d="M150.042,-329.0565C159.1688,-289.3775 185.2402,-200.4559 243,-155 247.851,-151.1823 253.3309,-148.1059 259.1028,-145.6303"/>
<polygon fill="#191970" stroke="#191970" points="146.569,-328.5567 147.8625,-339.0722 153.4089,-330.0452 146.569,-328.5567"/>
</g>
<!-- Node16 -->
<g id="node16" class="node">
<title>Node16</title>
<g id="a_node16"><a xlink:href="classlibsbml_1_1_s_b_m_l_rule_converter.html" target="_top" xlink:title=" Converter that sorts SBML rules and assignments. ">
<polygon fill="#ffffff" stroke="#000000" points="254.5,-88.5 254.5,-107.5 396.5,-107.5 396.5,-88.5 254.5,-88.5"/>
<text text-anchor="middle" x="325.5" y="-95.5" font-family="Helvetica,sans-Serif" font-size="10.00" fill="#000000">libsbml.SBMLRuleConverter</text>
</a>
</g>
</g>
<!-- Node1&#45;&gt;Node16 -->
<g id="edge15" class="edge">
<title>Node1&#45;&gt;Node16</title>
<path fill="none" stroke="#191970" d="M148.2218,-329.2877C154.3846,-284.2933 175.928,-173.5593 243,-117 247.4945,-113.21 252.5986,-110.1405 258.0121,-107.6589"/>
<polygon fill="#191970" stroke="#191970" points="144.7458,-328.8784 146.968,-339.2376 151.6909,-329.7536 144.7458,-328.8784"/>
</g>
<!-- Node17 -->
<g id="node17" class="node">
<title>Node17</title>
<g id="a_node17"><a xlink:href="classlibsbml_1_1_s_b_m_l_strip_package_converter.html" target="_top" xlink:title=" Converter that removes SBML Level 3 packages. ">
<polygon fill="#ffffff" stroke="#000000" points="257,-39 257,-69 394,-69 394,-39 257,-39"/>
<text text-anchor="start" x="265" y="-57" font-family="Helvetica,sans-Serif" font-size="10.00" fill="#000000">libsbml.SBMLStripPackage</text>
<text text-anchor="middle" x="325.5" y="-46" font-family="Helvetica,sans-Serif" font-size="10.00" fill="#000000">Converter</text>
</a>
</g>
</g>
<!-- Node1&#45;&gt;Node17 -->
<g id="edge16" class="edge">
<title>Node1&#45;&gt;Node17</title>
<path fill="none" stroke="#191970" d="M147.2282,-329.2068C151.3815,-279.6539 169.1391,-149.2104 243,-79 247.122,-75.0818 251.838,-71.7759 256.8809,-68.987"/>
<polygon fill="#191970" stroke="#191970" points="143.7147,-329.2619 146.4697,-339.4922 150.6958,-329.7767 143.7147,-329.2619"/>
</g>
<!-- Node18 -->
<g id="node18" class="node">
<title>Node18</title>
<g id="a_node18"><a xlink:href="classlibsbml_1_1_s_b_m_l_units_converter.html" target="_top" xlink:title=" Converts a model&#39;s existing units to SI units. ">
<polygon fill="#ffffff" stroke="#000000" points="253.5,-.5 253.5,-19.5 397.5,-19.5 397.5,-.5 253.5,-.5"/>
<text text-anchor="middle" x="325.5" y="-7.5" font-family="Helvetica,sans-Serif" font-size="10.00" fill="#000000">libsbml.SBMLUnitsConverter</text>
</a>
</g>
</g>
<!-- Node1&#45;&gt;Node18 -->
<g id="edge17" class="edge">
<title>Node1&#45;&gt;Node18</title>
<path fill="none" stroke="#191970" d="M149.3574,-329.1446C160.4287,-265.9791 197.6746,-71.345 243,-29 247.0812,-25.1871 251.7686,-22.0876 256.7923,-19.5736"/>
<polygon fill="#191970" stroke="#191970" points="145.8492,-328.8933 147.5987,-339.3427 152.7474,-330.083 145.8492,-328.8933"/>
</g>
<!-- Node2 -->
<g id="node2" class="node">
<title>Node2</title>
<polygon fill="#ffffff" stroke="#bfbfbf" points="0,-339.5 0,-358.5 49,-358.5 49,-339.5 0,-339.5"/>
<text text-anchor="middle" x="24.5" y="-346.5" font-family="Helvetica,sans-Serif" font-size="10.00" fill="#000000">_object</text>
</g>
<!-- Node2&#45;&gt;Node1 -->
<g id="edge1" class="edge">
<title>Node2&#45;&gt;Node1</title>
<path fill="none" stroke="#191970" d="M59.1518,-349C67.1844,-349 75.9685,-349 84.7661,-349"/>
<polygon fill="#191970" stroke="#191970" points="59.0874,-345.5001 49.0873,-349 59.0873,-352.5001 59.0874,-345.5001"/>
</g>
</g>
</svg>
        <g id="navigator" transform="translate(0 0)" fill="#404254">
                <rect fill="#f2f5e9" fill-opacity="0.5" stroke="#606060" stroke-width=".5" x="0" y="0" width="60" height="60"/>
                <use id="zoomplus" xlink:href="#zoomPlus" x="17" y="9" onmousedown="handleZoom(evt,'in')"/>
                <use id="zoomminus" xlink:href="#zoomMin" x="42" y="9" onmousedown="handleZoom(evt,'out')"/>
                <use id="reset" xlink:href="#resetDef" x="30" y="36" onmousedown="handleReset()"/>
                <g id="arrowUp" xlink:href="#dirArrow" transform="translate(30 24)" onmousedown="handlePan(0,-1)">
                  <use xlink:href="#rim" fill="#404040">
                        <set attributeName="fill" to="#808080" begin="arrowUp.mouseover" end="arrowUp.mouseout"/>
                  </use>
                  <path fill="none" stroke="white" stroke-width="1.5" d="M0,-3.0v7 M-2.5,-0.5L0,-3.0L2.5,-0.5"/>
                </g>
                <g id="arrowRight" xlink:href="#dirArrow" transform="rotate(90) translate(36 -43)" onmousedown="handlePan(1,0)">
                  <use xlink:href="#rim" fill="#404040">
                        <set attributeName="fill" to="#808080" begin="arrowRight.mouseover" end="arrowRight.mouseout"/>
                  </use>
                  <path fill="none" stroke="white" stroke-width="1.5" d="M0,-3.0v7 M-2.5,-0.5L0,-3.0L2.5,-0.5"/>
                </g>
                <g id="arrowDown" xlink:href="#dirArrow" transform="rotate(180) translate(-30 -48)" onmousedown="handlePan(0,1)">
                  <use xlink:href="#rim" fill="#404040">
                        <set attributeName="fill" to="#808080" begin="arrowDown.mouseover" end="arrowDown.mouseout"/>
                  </use>
                  <path fill="none" stroke="white" stroke-width="1.5" d="M0,-3.0v7 M-2.5,-0.5L0,-3.0L2.5,-0.5"/>
                </g>
                <g id="arrowLeft" xlink:href="#dirArrow" transform="rotate(270) translate(-36 17)" onmousedown="handlePan(-1,0)">
                  <use xlink:href="#rim" fill="#404040">
                        <set attributeName="fill" to="#808080" begin="arrowLeft.mouseover" end="arrowLeft.mouseout"/>
                  </use>
                  <path fill="none" stroke="white" stroke-width="1.5" d="M0,-3.0v7 M-2.5,-0.5L0,-3.0L2.5,-0.5"/>
                </g>
        </g>
        <svg viewBox="0 0 15 15" width="100%" height="30px" preserveAspectRatio="xMaxYMin meet">
         <g id="arrow_out" transform="scale(0.3 0.3)">
          <a xlink:href="classlibsbml_1_1_s_b_m_l_converter__inherit__graph_org.svg" target="_base">
           <rect id="button" ry="5" rx="5" y="6" x="6" height="38" width="38"
                fill="#f2f5e9" fill-opacity="0.5" stroke="#606060" stroke-width="1.0"/>
           <path id="arrow"
             d="M 11.500037,31.436501 C 11.940474,20.09759 22.043105,11.32322 32.158766,21.979434 L 37.068811,17.246167 C 37.068811,17.246167 37.088388,32 37.088388,32 L 22.160133,31.978069 C 22.160133,31.978069 26.997745,27.140456 26.997745,27.140456 C 18.528582,18.264221 13.291696,25.230495 11.500037,31.436501 z"
             style="fill:#404040;"/>
          </a>
         </g>
        </svg>
</svg>
