<?xml version="1.0" encoding="UTF-8" standalone="no"?>
<!DOCTYPE svg PUBLIC "-//W3C//DTD SVG 1.1//EN"
 "http://www.w3.org/Graphics/SVG/1.1/DTD/svg11.dtd">
<!-- Generated by graphviz version 2.40.1 (20161225.0304)
 -->
<!-- Title: libsbml.Image Pages: 1 -->
<svg width="138pt" height="252pt"
 viewBox="0.00 0.00 138.00 252.00" xmlns="http://www.w3.org/2000/svg" xmlns:xlink="http://www.w3.org/1999/xlink">
<g id="graph0" class="graph" transform="scale(1 1) rotate(0) translate(4 248)">
<title>libsbml.Image</title>
<polygon fill="#ffffff" stroke="transparent" points="-4,4 -4,-248 134,-248 134,4 -4,4"/>
<!-- Node1 -->
<g id="node1" class="node">
<title>Node1</title>
<polygon fill="#bfbfbf" stroke="#000000" points="26,-.5 26,-19.5 104,-19.5 104,-.5 26,-.5"/>
<text text-anchor="middle" x="65" y="-7.5" font-family="Helvetica,sans-Serif" font-size="10.00" fill="#000000">libsbml.Image</text>
</g>
<!-- Node2 -->
<g id="node2" class="node">
<title>Node2</title>
<g id="a_node2"><a xlink:href="classlibsbml_1_1_transformation2_d.html" target="_top" xlink:title=" Implementation of a 2D transformation matrix. ">
<polygon fill="#ffffff" stroke="#000000" points="0,-56.5 0,-75.5 130,-75.5 130,-56.5 0,-56.5"/>
<text text-anchor="middle" x="65" y="-63.5" font-family="Helvetica,sans-Serif" font-size="10.00" fill="#000000">libsbml.Transformation2D</text>
</a>
</g>
</g>
<!-- Node2&#45;&gt;Node1 -->
<g id="edge1" class="edge">
<title>Node2&#45;&gt;Node1</title>
<path fill="none" stroke="#191970" d="M65,-46.1575C65,-37.155 65,-26.9199 65,-19.6427"/>
<polygon fill="#191970" stroke="#191970" points="61.5001,-46.2455 65,-56.2455 68.5001,-46.2456 61.5001,-46.2455"/>
</g>
<!-- Node3 -->
<g id="node3" class="node">
<title>Node3</title>
<g id="a_node3"><a xlink:href="classlibsbml_1_1_transformation.html" target="_top" xlink:title=" Implementation of a 3D transformation matrix. ">
<polygon fill="#ffffff" stroke="#000000" points="6,-112.5 6,-131.5 124,-131.5 124,-112.5 6,-112.5"/>
<text text-anchor="middle" x="65" y="-119.5" font-family="Helvetica,sans-Serif" font-size="10.00" fill="#000000">libsbml.Transformation</text>
</a>
</g>
</g>
<!-- Node3&#45;&gt;Node2 -->
<g id="edge2" class="edge">
<title>Node3&#45;&gt;Node2</title>
<path fill="none" stroke="#191970" d="M65,-102.1575C65,-93.155 65,-82.9199 65,-75.6427"/>
<polygon fill="#191970" stroke="#191970" points="61.5001,-102.2455 65,-112.2455 68.5001,-102.2456 61.5001,-102.2455"/>
</g>
<!-- Node4 -->
<g id="node4" class="node">
<title>Node4</title>
<g id="a_node4"><a xlink:href="classlibsbml_1_1_s_base.html" target="_top" xlink:title=" SBML&#39;s SBase class, base class of most SBML objects. ">
<polygon fill="#ffffff" stroke="#000000" points="25,-168.5 25,-187.5 105,-187.5 105,-168.5 25,-168.5"/>
<text text-anchor="middle" x="65" y="-175.5" font-family="Helvetica,sans-Serif" font-size="10.00" fill="#000000">libsbml.SBase</text>
</a>
</g>
</g>
<!-- Node4&#45;&gt;Node3 -->
<g id="edge3" class="edge">
<title>Node4&#45;&gt;Node3</title>
<path fill="none" stroke="#191970" d="M65,-158.1575C65,-149.155 65,-138.9199 65,-131.6427"/>
<polygon fill="#191970" stroke="#191970" points="61.5001,-158.2455 65,-168.2455 68.5001,-158.2456 61.5001,-158.2455"/>
</g>
<!-- Node5 -->
<g id="node5" class="node">
<title>Node5</title>
<polygon fill="#ffffff" stroke="#bfbfbf" points="40.5,-224.5 40.5,-243.5 89.5,-243.5 89.5,-224.5 40.5,-224.5"/>
<text text-anchor="middle" x="65" y="-231.5" font-family="Helvetica,sans-Serif" font-size="10.00" fill="#000000">_object</text>
</g>
<!-- Node5&#45;&gt;Node4 -->
<g id="edge4" class="edge">
<title>Node5&#45;&gt;Node4</title>
<path fill="none" stroke="#191970" d="M65,-214.1575C65,-205.155 65,-194.9199 65,-187.6427"/>
<polygon fill="#191970" stroke="#191970" points="61.5001,-214.2455 65,-224.2455 68.5001,-214.2456 61.5001,-214.2455"/>
</g>
</g>
</svg>
