<?xml version="1.0" encoding="utf-8"?>
<svg version="1.1" id="Layer_11" x="0px" y="0px" viewBox="0 0 192 192" style="enable-background:new 0 0 192 192;" xmlns="http://www.w3.org/2000/svg" xmlns:bx="https://boxy-svg.com">
  <defs>
    <filter id="gaussian-blur-filter-0" color-interpolation-filters="sRGB" x="-500%" y="-500%" width="1000%" height="1000%" bx:preset="gaussian-blur 1 0.05">
      <feGaussianBlur stdDeviation="0.05 0.05" edgeMode="none"/>
    </filter>
  </defs>
  <style type="text/css">
	.st0{fill:#FBBC05;}
</style>
  <g transform="matrix(1, 0, 0, 1, 0, 3.872388)" style="filter: url(#gaussian-blur-filter-0);">
    <path class="st0" d="M158.1,33.7h-36.4L96,8L70.3,33.7H33.9v36.4L8.2,95.9l25.7,25.7V158h36.4L96,183.7l25.7-25.7h36.4v-36.4 l25.7-25.7l-25.7-25.7V33.7z M158.7,95.9c0,34.6-28.1,62.7-62.7,62.7s-62.7-28.1-62.7-62.7S61.4,33.2,96,33.2 S158.7,61.3,158.7,95.9z" style="fill: rgb(208, 208, 208);"/>
    <path class="st0" d="M96,41.2c-30.2,0-54.7,24.5-54.7,54.7c0,30.2,24.5,54.7,54.7,54.7c30.2,0,54.7-24.5,54.7-54.7 C150.7,65.7,126.2,41.2,96,41.2z M79.9,75.6v9L65.4,95.9l14.5,11.3v9l-1-0.7L57.4,98.7L56,97.6v-3.4l1.4-1.1l21.5-16.7L79.9,75.6 L79.9,75.6z M105.7,70.4L93.8,123l-0.1,0.4h-7.4l0.4-2l11.9-52.5l0.1-0.4h7.4L105.7,70.4z M136,97.6l-1.4,1.1L113,115.4l-1,0.7v-9 l14.5-11.3l-14.5-11.3v-9v0l1,0.7L134.5,93l1.4,1.1V97.6z" style="fill: rgb(208, 208, 208);"/>
  </g>
  <g>
    <path class="st0" d="M158.1,33.7h-36.4L96,8L70.3,33.7H33.9v36.4L8.2,95.9l25.7,25.7V158h36.4L96,183.7l25.7-25.7h36.4v-36.4 l25.7-25.7l-25.7-25.7V33.7z M158.7,95.9c0,34.6-28.1,62.7-62.7,62.7s-62.7-28.1-62.7-62.7S61.4,33.2,96,33.2 S158.7,61.3,158.7,95.9z" style="fill: rgb(132, 197, 226);"/>
    <path class="st0" d="M96,41.2c-30.2,0-54.7,24.5-54.7,54.7c0,30.2,24.5,54.7,54.7,54.7c30.2,0,54.7-24.5,54.7-54.7 C150.7,65.7,126.2,41.2,96,41.2z M79.9,75.6v9L65.4,95.9l14.5,11.3v9l-1-0.7L57.4,98.7L56,97.6v-3.4l1.4-1.1l21.5-16.7L79.9,75.6 L79.9,75.6z M105.7,70.4L93.8,123l-0.1,0.4h-7.4l0.4-2l11.9-52.5l0.1-0.4h7.4L105.7,70.4z M136,97.6l-1.4,1.1L113,115.4l-1,0.7v-9 l14.5-11.3l-14.5-11.3v-9v0l1,0.7L134.5,93l1.4,1.1V97.6z" style="fill: rgb(132, 197, 226);"/>
  </g>
</svg>