<?xml version="1.0" encoding="utf-8"?>
<svg role="img" viewBox="0 0 24 24" xmlns="http://www.w3.org/2000/svg" xmlns:bx="https://boxy-svg.com">
  <defs>
    <filter id="gaussian-blur-filter-0" color-interpolation-filters="sRGB" x="-500%" y="-500%" width="1000%" height="1000%" bx:preset="gaussian-blur 1 0.05">
      <feGaussianBlur stdDeviation="0.05 0.05" edgeMode="none"/>
    </filter>
  </defs>
  <title>Pivotal Tracker icon</title>
  <path d="M 12.001 2.745 C 7.313 2.745 3.5 6.557 3.5 11.244 C 3.5 15.933 7.313 19.746 12.001 19.746 C 16.688 19.746 20.5 15.933 20.5 11.244 C 20.5 6.557 16.689 2.745 12.001 2.745 Z M 12.001 4.466 C 15.744 4.466 18.779 7.501 18.779 11.244 C 18.779 14.988 15.744 18.025 12.001 18.025 C 8.257 18.025 5.221 14.988 5.221 11.244 C 5.221 7.501 8.257 4.466 12.001 4.466 Z M 11.904 5.395 L 9.749 6.64 L 9.749 6.641 L 11.646 9.929 C 11.948 9.848 12.275 9.871 12.575 10.011 L 13.574 8.282 L 11.904 5.395 Z M 14.859 6.993 L 12.962 10.281 C 13.191 10.511 13.329 10.813 13.356 11.128 L 15.35 11.128 L 17.018 8.24 L 14.859 6.993 Z M 6.885 8.401 L 6.885 10.916 L 6.886 10.916 L 6.886 10.894 L 10.685 10.894 C 10.765 10.583 10.956 10.312 11.219 10.129 L 10.22 8.401 L 6.885 8.401 Z M 8.648 11.363 L 6.979 14.25 L 9.139 15.497 L 11.037 12.208 C 10.812 11.98 10.672 11.683 10.643 11.363 L 8.648 11.363 Z M 13.315 11.598 C 13.234 11.907 13.043 12.178 12.78 12.361 L 13.78 14.09 L 17.114 14.09 L 17.114 11.598 L 13.314 11.598 Z M 11.424 12.479 L 10.425 14.208 L 12.091 17.095 L 14.251 15.849 L 12.354 12.561 C 12.052 12.642 11.724 12.619 11.423 12.479 Z" style="fill: rgb(217, 219, 219); filter: url(#gaussian-blur-filter-0);" bx:origin="0.7 0.70002"/>
  <path d="M 12.001 2.343 C 7.313 2.343 3.5 6.155 3.5 10.842 C 3.5 15.531 7.313 19.344 12.001 19.344 C 16.688 19.344 20.5 15.531 20.5 10.842 C 20.5 6.155 16.689 2.343 12.001 2.343 Z M 12.001 4.064 C 15.744 4.064 18.779 7.099 18.779 10.842 C 18.779 14.586 15.744 17.623 12.001 17.623 C 8.257 17.623 5.221 14.586 5.221 10.842 C 5.221 7.099 8.257 4.064 12.001 4.064 Z M 11.904 4.993 L 9.749 6.238 L 9.749 6.239 L 11.646 9.527 C 11.948 9.446 12.275 9.469 12.575 9.609 L 13.574 7.88 L 11.904 4.993 Z M 14.859 6.591 L 12.962 9.879 C 13.191 10.109 13.329 10.411 13.356 10.726 L 15.35 10.726 L 17.018 7.838 L 14.859 6.591 Z M 6.885 7.999 L 6.885 10.514 L 6.886 10.514 L 6.886 10.492 L 10.685 10.492 C 10.765 10.181 10.956 9.91 11.219 9.727 L 10.22 7.999 L 6.885 7.999 Z M 8.648 10.961 L 6.979 13.848 L 9.139 15.095 L 11.037 11.806 C 10.812 11.578 10.672 11.281 10.643 10.961 L 8.648 10.961 Z M 13.315 11.196 C 13.234 11.505 13.043 11.776 12.78 11.959 L 13.78 13.688 L 17.114 13.688 L 17.114 11.196 L 13.314 11.196 Z M 11.424 12.077 L 10.425 13.806 L 12.091 16.693 L 14.251 15.447 L 12.354 12.159 C 12.052 12.24 11.724 12.217 11.423 12.077 Z" style="filter: none; fill: rgb(132, 197, 226);" bx:origin="0.7 0.70002"/>
</svg>