<?xml version="1.0" encoding="utf-8"?>
<svg role="img" viewBox="0 0 24 24" xmlns="http://www.w3.org/2000/svg" xmlns:bx="https://boxy-svg.com">
  <defs>
    <filter id="gaussian-blur-filter-0" color-interpolation-filters="sRGB" x="-500%" y="-500%" width="1000%" height="1000%" bx:preset="gaussian-blur 1 0.05">
      <feGaussianBlur stdDeviation="0.05 0.05" edgeMode="none"/>
    </filter>
  </defs>
  <title>Eclipse IDE icon</title>
  <path d="M 11.368 3.891 C 11.175 3.894 10.941 3.9 10.847 3.907 C 8.265 4.13 5.957 5.657 4.618 8.025 C 3.98 9.168 3.604 10.439 3.514 11.745 C 3.487 12.11 3.501 12.981 3.54 13.309 C 3.757 15.207 4.498 16.892 5.714 18.242 C 7.104 19.78 8.962 20.697 10.982 20.836 C 11.279 20.859 11.719 20.865 11.704 20.845 C 11.626 20.822 11.546 20.804 11.464 20.792 C 10.278 20.559 9.065 19.993 8.081 19.211 C 7.415 18.677 6.83 18.048 6.346 17.345 C 5.417 15.979 4.894 14.378 4.834 12.727 C 4.788 11.703 4.923 10.678 5.231 9.7 C 5.787 7.913 6.909 6.352 8.401 5.289 C 9.296 4.639 10.319 4.187 11.401 3.961 L 11.715 3.891 Z M 12.413 4.252 C 11.04 4.335 9.738 4.794 8.672 5.574 C 7.343 6.545 6.33 7.872 5.782 9.36 C 5.679 9.642 5.582 9.941 5.582 9.983 C 5.582 9.991 8.293 10 12.884 10 C 18.879 10 20.191 9.995 20.191 9.974 C 20.191 9.941 20.083 9.603 19.991 9.353 C 19.882 9.055 19.583 8.425 19.41 8.133 C 19.126 7.649 18.765 7.161 18.366 6.722 C 17.196 5.433 15.82 4.644 14.243 4.36 C 13.687 4.26 12.969 4.219 12.412 4.252 Z M 20.379 10.936 C 20.366 10.936 16.985 10.936 12.865 10.938 L 5.376 10.944 L 5.367 10.986 C 5.342 11.099 5.273 11.753 5.273 11.867 C 5.273 11.886 6.537 11.889 12.885 11.889 L 20.5 11.889 L 20.5 11.836 C 20.5 11.764 20.451 11.275 20.425 11.089 C 20.409 10.975 20.396 10.936 20.38 10.936 Z M 12.891 12.803 C 6.254 12.8 5.29 12.803 5.281 12.828 C 5.267 12.856 5.298 13.222 5.334 13.517 C 5.348 13.627 5.359 13.728 5.359 13.739 C 5.359 13.759 6.873 13.763 12.885 13.763 L 20.409 13.763 L 20.426 13.631 C 20.457 13.4 20.499 12.943 20.493 12.875 L 20.488 12.808 Z M 12.892 14.728 C 6.601 14.728 5.582 14.731 5.582 14.753 C 5.582 14.766 5.62 14.9 5.667 15.051 C 5.98 16.02 6.479 16.92 7.134 17.699 C 7.334 17.942 7.804 18.434 8.004 18.611 C 9.115 19.603 10.304 20.181 11.672 20.404 C 12.102 20.47 12.301 20.484 12.912 20.481 C 13.557 20.481 13.831 20.459 14.346 20.356 C 15.841 20.061 17.119 19.329 18.263 18.111 C 19.16 17.156 19.755 16.156 20.124 14.986 L 20.207 14.728 Z" style="filter: url(#gaussian-blur-filter-0); fill: rgb(215, 215, 215);">
    <desc>The original artwork for this icon was downloaded from Simple Icons on 2020-03-21. Artwork is licensed CC0.</desc>
  </path>
  <path d="M 11.368 3.517 C 11.175 3.52 10.941 3.526 10.847 3.533 C 8.265 3.756 5.957 5.283 4.618 7.651 C 3.98 8.794 3.604 10.065 3.514 11.371 C 3.487 11.736 3.501 12.607 3.54 12.935 C 3.757 14.833 4.498 16.518 5.714 17.868 C 7.104 19.406 8.962 20.323 10.982 20.462 C 11.279 20.485 11.719 20.491 11.704 20.471 C 11.626 20.448 11.546 20.43 11.464 20.418 C 10.278 20.185 9.065 19.619 8.081 18.837 C 7.415 18.303 6.83 17.674 6.346 16.971 C 5.417 15.605 4.894 14.004 4.834 12.353 C 4.788 11.329 4.923 10.304 5.231 9.326 C 5.787 7.539 6.909 5.978 8.401 4.915 C 9.296 4.265 10.319 3.813 11.401 3.587 L 11.715 3.517 Z M 12.413 3.878 C 11.04 3.961 9.738 4.42 8.672 5.2 C 7.343 6.171 6.33 7.498 5.782 8.986 C 5.679 9.268 5.582 9.567 5.582 9.609 C 5.582 9.617 8.293 9.626 12.884 9.626 C 18.879 9.626 20.191 9.621 20.191 9.6 C 20.191 9.567 20.083 9.229 19.991 8.979 C 19.882 8.681 19.583 8.051 19.41 7.759 C 19.126 7.275 18.765 6.787 18.366 6.348 C 17.196 5.059 15.82 4.27 14.243 3.986 C 13.687 3.886 12.969 3.845 12.412 3.878 Z M 20.379 10.562 C 20.366 10.562 16.985 10.562 12.865 10.564 L 5.376 10.57 L 5.367 10.612 C 5.342 10.725 5.273 11.379 5.273 11.493 C 5.273 11.512 6.537 11.515 12.885 11.515 L 20.5 11.515 L 20.5 11.462 C 20.5 11.39 20.451 10.901 20.425 10.715 C 20.409 10.601 20.396 10.562 20.38 10.562 Z M 12.891 12.429 C 6.254 12.426 5.29 12.429 5.281 12.454 C 5.267 12.482 5.298 12.848 5.334 13.143 C 5.348 13.253 5.359 13.354 5.359 13.365 C 5.359 13.385 6.873 13.389 12.885 13.389 L 20.409 13.389 L 20.426 13.257 C 20.457 13.026 20.499 12.569 20.493 12.501 L 20.488 12.434 Z M 12.892 14.354 C 6.601 14.354 5.582 14.357 5.582 14.379 C 5.582 14.392 5.62 14.526 5.667 14.677 C 5.98 15.646 6.479 16.546 7.134 17.325 C 7.334 17.568 7.804 18.06 8.004 18.237 C 9.115 19.229 10.304 19.807 11.672 20.03 C 12.102 20.096 12.301 20.11 12.912 20.107 C 13.557 20.107 13.831 20.085 14.346 19.982 C 15.841 19.687 17.119 18.955 18.263 17.737 C 19.16 16.782 19.755 15.782 20.124 14.612 L 20.207 14.354 Z" style="fill: rgb(132, 197, 226);">
    <desc>The original artwork for this icon was downloaded from Simple Icons on 2020-03-21. Artwork is licensed CC0.</desc>
  </path>
</svg>