<?xml version="1.0" encoding="UTF-8" standalone="no"?>
<!DOCTYPE svg PUBLIC "-//W3C//DTD SVG 1.1//EN"
 "http://www.w3.org/Graphics/SVG/1.1/DTD/svg11.dtd">
<!-- Generated by graphviz version 8.0.1 (20230327.1645)
 -->
<!-- Title: BoundaryCondition.h Pages: 1 -->
<svg width="488pt" height="192pt"
 viewBox="0.00 0.00 487.50 192.00" xmlns="http://www.w3.org/2000/svg" xmlns:xlink="http://www.w3.org/1999/xlink">
<g id="graph0" class="graph" transform="scale(1 1) rotate(0) translate(4 188)">
<title>BoundaryCondition.h</title>
<!-- Node1 -->
<g id="node1" class="node">
<title>Node1</title>
<g id="a_node1"><a xlink:title="Definition of the BoundaryCondition class.">
<polygon fill="#999999" stroke="#666666" points="199.5,-184 92.5,-184 92.5,-165 199.5,-165 199.5,-184"/>
<text text-anchor="middle" x="146" y="-172" font-family="Helvetica,sans-Serif" font-size="10.00">BoundaryCondition.h</text>
</a>
</g>
</g>
<!-- Node2 -->
<g id="node2" class="node">
<title>Node2</title>
<g id="a_node2"><a xlink:href="_boundary_condition_8cpp.html" target="_top" xlink:title="Implementation of the BoundaryCondition class.">
<polygon fill="white" stroke="#666666" points="118,-129 0,-129 0,-110 118,-110 118,-129"/>
<text text-anchor="middle" x="59" y="-117" font-family="Helvetica,sans-Serif" font-size="10.00">BoundaryCondition.cpp</text>
</a>
</g>
</g>
<!-- Node1&#45;&gt;Node2 -->
<g id="edge1" class="edge">
<title>Node1&#45;&gt;Node2</title>
<path fill="none" stroke="#63b8ff" d="M122.2,-159C106.63,-149.52 86.8,-137.43 73.54,-129.36"/>
<polygon fill="#63b8ff" stroke="#63b8ff" points="119.88,-162.3 130.24,-164.51 123.52,-156.32 119.88,-162.3"/>
</g>
<!-- Node3 -->
<g id="node3" class="node">
<title>Node3</title>
<g id="a_node3"><a xlink:href="_spatial_extension_types_8h.html" target="_top" xlink:title="Definition of SpatialExtensionTypes.">
<polygon fill="white" stroke="#666666" points="197.5,-74 72.5,-74 72.5,-55 197.5,-55 197.5,-74"/>
<text text-anchor="middle" x="135" y="-62" font-family="Helvetica,sans-Serif" font-size="10.00">SpatialExtensionTypes.h</text>
</a>
</g>
</g>
<!-- Node1&#45;&gt;Node3 -->
<g id="edge2" class="edge">
<title>Node1&#45;&gt;Node3</title>
<path fill="none" stroke="#63b8ff" d="M144,-153.9C141.6,-130.33 137.68,-91.81 135.91,-74.46"/>
<polygon fill="#63b8ff" stroke="#63b8ff" points="140.6,-154.07 145.1,-163.66 147.57,-153.36 140.6,-154.07"/>
</g>
<!-- Node5 -->
<g id="node5" class="node">
<title>Node5</title>
<g id="a_node5"><a xlink:href="_spatial_parameter_plugin_8h.html" target="_top" xlink:title="Definition of the SpatialParameterPlugin class.">
<polygon fill="white" stroke="#666666" points="322.5,-129 195.5,-129 195.5,-110 322.5,-110 322.5,-129"/>
<text text-anchor="middle" x="259" y="-117" font-family="Helvetica,sans-Serif" font-size="10.00">SpatialParameterPlugin.h</text>
</a>
</g>
</g>
<!-- Node1&#45;&gt;Node5 -->
<g id="edge4" class="edge">
<title>Node1&#45;&gt;Node5</title>
<path fill="none" stroke="#63b8ff" d="M174.93,-159.93C195.42,-150.32 222.33,-137.7 240.11,-129.36"/>
<polygon fill="#63b8ff" stroke="#63b8ff" points="173.74,-157.09 166.17,-164.51 176.71,-163.43 173.74,-157.09"/>
</g>
<!-- Node4 -->
<g id="node4" class="node">
<title>Node4</title>
<g id="a_node4"><a xlink:href="_spatial_validator_8cpp.html" target="_top" xlink:title="Definition of SpatialValidator.">
<polygon fill="white" stroke="#666666" points="186,-19 84,-19 84,0 186,0 186,-19"/>
<text text-anchor="middle" x="135" y="-7" font-family="Helvetica,sans-Serif" font-size="10.00">SpatialValidator.cpp</text>
</a>
</g>
</g>
<!-- Node3&#45;&gt;Node4 -->
<g id="edge3" class="edge">
<title>Node3&#45;&gt;Node4</title>
<path fill="none" stroke="#63b8ff" d="M135,-43.93C135,-35.53 135,-26.13 135,-19.44"/>
<polygon fill="#63b8ff" stroke="#63b8ff" points="131.5,-43.75 135,-53.75 138.5,-43.75 131.5,-43.75"/>
</g>
<!-- Node5&#45;&gt;Node3 -->
<g id="edge6" class="edge">
<title>Node5&#45;&gt;Node3</title>
<path fill="none" stroke="#63b8ff" d="M227.87,-105.19C205.3,-95.55 175.42,-82.78 155.72,-74.36"/>
<polygon fill="#63b8ff" stroke="#63b8ff" points="226.39,-108.8 236.97,-109.51 229.15,-102.36 226.39,-108.8"/>
</g>
<!-- Node6 -->
<g id="node6" class="node">
<title>Node6</title>
<g id="a_node6"><a xlink:href="_spatial_extension_8cpp.html" target="_top" xlink:title="Implementation of SpatialExtension.">
<polygon fill="white" stroke="#666666" points="324.5,-74 215.5,-74 215.5,-55 324.5,-55 324.5,-74"/>
<text text-anchor="middle" x="270" y="-62" font-family="Helvetica,sans-Serif" font-size="10.00">SpatialExtension.cpp</text>
</a>
</g>
</g>
<!-- Node5&#45;&gt;Node6 -->
<g id="edge5" class="edge">
<title>Node5&#45;&gt;Node6</title>
<path fill="none" stroke="#63b8ff" d="M263,-99.22C264.76,-90.74 266.74,-81.21 268.14,-74.44"/>
<polygon fill="#63b8ff" stroke="#63b8ff" points="259.42,-98.25 260.82,-108.75 266.28,-99.67 259.42,-98.25"/>
</g>
<!-- Node7 -->
<g id="node7" class="node">
<title>Node7</title>
<g id="a_node7"><a xlink:href="_spatial_parameter_plugin_8cpp.html" target="_top" xlink:title="Implementation of the SpatialParameterPlugin class.">
<polygon fill="white" stroke="#666666" points="479.5,-74 342.5,-74 342.5,-55 479.5,-55 479.5,-74"/>
<text text-anchor="middle" x="411" y="-62" font-family="Helvetica,sans-Serif" font-size="10.00">SpatialParameterPlugin.cpp</text>
</a>
</g>
</g>
<!-- Node5&#45;&gt;Node7 -->
<g id="edge7" class="edge">
<title>Node5&#45;&gt;Node7</title>
<path fill="none" stroke="#63b8ff" d="M294.9,-105.98C322.7,-96.29 360.53,-83.1 385.34,-74.45"/>
<polygon fill="#63b8ff" stroke="#63b8ff" points="294.07,-102.91 285.78,-109.51 296.38,-109.52 294.07,-102.91"/>
</g>
</g>
</svg>
