<?xml version="1.0" encoding="UTF-8" standalone="no"?>
<!DOCTYPE svg PUBLIC "-//W3C//DTD SVG 1.1//EN"
 "http://www.w3.org/Graphics/SVG/1.1/DTD/svg11.dtd">
<!-- Generated by graphviz version 8.0.1 (20230327.1645)
 -->
<!-- Title: CSGObject.h Pages: 1 -->
<svg width="764pt" height="247pt"
 viewBox="0.00 0.00 764.00 247.00" xmlns="http://www.w3.org/2000/svg" xmlns:xlink="http://www.w3.org/1999/xlink">
<g id="graph0" class="graph" transform="scale(1 1) rotate(0) translate(4 243)">
<title>CSGObject.h</title>
<!-- Node1 -->
<g id="node1" class="node">
<title>Node1</title>
<g id="a_node1"><a xlink:title="Definition of the CSGObject class.">
<polygon fill="#999999" stroke="#666666" points="454,-239 379,-239 379,-220 454,-220 454,-239"/>
<text text-anchor="middle" x="416.5" y="-227" font-family="Helvetica,sans-Serif" font-size="10.00">CSGObject.h</text>
</a>
</g>
</g>
<!-- Node2 -->
<g id="node2" class="node">
<title>Node2</title>
<g id="a_node2"><a xlink:href="_c_s_g_object_8cpp.html" target="_top" xlink:title="Implementation of the CSGObject class.">
<polygon fill="white" stroke="#666666" points="358.5,-129 272.5,-129 272.5,-110 358.5,-110 358.5,-129"/>
<text text-anchor="middle" x="315.5" y="-117" font-family="Helvetica,sans-Serif" font-size="10.00">CSGObject.cpp</text>
</a>
</g>
</g>
<!-- Node1&#45;&gt;Node2 -->
<g id="edge1" class="edge">
<title>Node1&#45;&gt;Node2</title>
<path fill="none" stroke="#63b8ff" d="M390.79,-213.82C378.55,-206.01 364.27,-195.62 353.5,-184 337.78,-167.04 325.38,-142.54 319.4,-129.48"/>
<polygon fill="#63b8ff" stroke="#63b8ff" points="388.71,-217.26 399.06,-219.51 392.37,-211.3 388.71,-217.26"/>
</g>
<!-- Node3 -->
<g id="node3" class="node">
<title>Node3</title>
<g id="a_node3"><a xlink:href="_list_of_c_s_g_objects_8h.html" target="_top" xlink:title="Definition of the ListOfCSGObjects class.">
<polygon fill="white" stroke="#666666" points="470,-184 363,-184 363,-165 470,-165 470,-184"/>
<text text-anchor="middle" x="416.5" y="-172" font-family="Helvetica,sans-Serif" font-size="10.00">ListOfCSGObjects.h</text>
</a>
</g>
</g>
<!-- Node1&#45;&gt;Node3 -->
<g id="edge2" class="edge">
<title>Node1&#45;&gt;Node3</title>
<path fill="none" stroke="#63b8ff" d="M416.5,-208.93C416.5,-200.53 416.5,-191.13 416.5,-184.44"/>
<polygon fill="#63b8ff" stroke="#63b8ff" points="413,-208.75 416.5,-218.75 420,-208.75 413,-208.75"/>
</g>
<!-- Node10 -->
<g id="node10" class="node">
<title>Node10</title>
<g id="a_node10"><a xlink:href="_spatial_extension_types_8h.html" target="_top" xlink:title="Definition of SpatialExtensionTypes.">
<polygon fill="white" stroke="#666666" points="756,-74 631,-74 631,-55 756,-55 756,-74"/>
<text text-anchor="middle" x="693.5" y="-62" font-family="Helvetica,sans-Serif" font-size="10.00">SpatialExtensionTypes.h</text>
</a>
</g>
</g>
<!-- Node1&#45;&gt;Node10 -->
<g id="edge13" class="edge">
<title>Node1&#45;&gt;Node10</title>
<path fill="none" stroke="#63b8ff" d="M443.78,-214.87C480.14,-196.45 546.22,-162.09 600.5,-129 630.38,-110.79 663.94,-87 681.43,-74.34"/>
<polygon fill="#63b8ff" stroke="#63b8ff" points="442.7,-212 435.35,-219.63 445.85,-218.25 442.7,-212"/>
</g>
<!-- Node3&#45;&gt;Node2 -->
<g id="edge3" class="edge">
<title>Node3&#45;&gt;Node2</title>
<path fill="none" stroke="#63b8ff" d="M389.63,-159.4C371.45,-149.86 347.99,-137.55 332.38,-129.36"/>
<polygon fill="#63b8ff" stroke="#63b8ff" points="387.89,-162.96 398.37,-164.51 391.14,-156.76 387.89,-162.96"/>
</g>
<!-- Node4 -->
<g id="node4" class="node">
<title>Node4</title>
<g id="a_node4"><a xlink:href="_c_s_geometry_8h.html" target="_top" xlink:title="Definition of the CSGeometry class.">
<polygon fill="white" stroke="#666666" points="456.5,-129 376.5,-129 376.5,-110 456.5,-110 456.5,-129"/>
<text text-anchor="middle" x="416.5" y="-117" font-family="Helvetica,sans-Serif" font-size="10.00">CSGeometry.h</text>
</a>
</g>
</g>
<!-- Node3&#45;&gt;Node4 -->
<g id="edge4" class="edge">
<title>Node3&#45;&gt;Node4</title>
<path fill="none" stroke="#63b8ff" d="M416.5,-153.93C416.5,-145.53 416.5,-136.13 416.5,-129.44"/>
<polygon fill="#63b8ff" stroke="#63b8ff" points="413,-153.75 416.5,-163.75 420,-153.75 413,-153.75"/>
</g>
<!-- Node12 -->
<g id="node12" class="node">
<title>Node12</title>
<g id="a_node12"><a xlink:href="_list_of_c_s_g_objects_8cpp.html" target="_top" xlink:title="Implementation of the ListOfCSGObjects class.">
<polygon fill="white" stroke="#666666" points="592,-129 475,-129 475,-110 592,-110 592,-129"/>
<text text-anchor="middle" x="533.5" y="-117" font-family="Helvetica,sans-Serif" font-size="10.00">ListOfCSGObjects.cpp</text>
</a>
</g>
</g>
<!-- Node3&#45;&gt;Node12 -->
<g id="edge12" class="edge">
<title>Node3&#45;&gt;Node12</title>
<path fill="none" stroke="#63b8ff" d="M446.17,-160.06C467.42,-150.43 495.44,-137.74 513.95,-129.36"/>
<polygon fill="#63b8ff" stroke="#63b8ff" points="445.01,-157.19 437.35,-164.51 447.9,-163.57 445.01,-157.19"/>
</g>
<!-- Node5 -->
<g id="node5" class="node">
<title>Node5</title>
<g id="a_node5"><a xlink:href="_c_s_geometry_8cpp.html" target="_top" xlink:title="Implementation of the CSGeometry class.">
<polygon fill="white" stroke="#666666" points="91,-74 0,-74 0,-55 91,-55 91,-74"/>
<text text-anchor="middle" x="45.5" y="-62" font-family="Helvetica,sans-Serif" font-size="10.00">CSGeometry.cpp</text>
</a>
</g>
</g>
<!-- Node4&#45;&gt;Node5 -->
<g id="edge5" class="edge">
<title>Node4&#45;&gt;Node5</title>
<path fill="none" stroke="#63b8ff" d="M365.55,-109.75C246.93,-91.69 215.05,-90.85 99.5,-74 96.87,-73.62 94.17,-73.22 91.45,-72.8"/>
<polygon fill="#63b8ff" stroke="#63b8ff" points="364.73,-113.32 375.14,-111.37 365.79,-106.4 364.73,-113.32"/>
</g>
<!-- Node6 -->
<g id="node6" class="node">
<title>Node6</title>
<g id="a_node6"><a xlink:href="_geometry_8cpp.html" target="_top" xlink:title="Implementation of the Geometry class.">
<polygon fill="white" stroke="#666666" points="186,-74 109,-74 109,-55 186,-55 186,-74"/>
<text text-anchor="middle" x="147.5" y="-62" font-family="Helvetica,sans-Serif" font-size="10.00">Geometry.cpp</text>
</a>
</g>
</g>
<!-- Node4&#45;&gt;Node6 -->
<g id="edge6" class="edge">
<title>Node4&#45;&gt;Node6</title>
<path fill="none" stroke="#63b8ff" d="M365.54,-108.46C313.4,-98.19 233.52,-82.45 186.3,-73.14"/>
<polygon fill="#63b8ff" stroke="#63b8ff" points="364.74,-112.07 375.23,-110.57 366.09,-105.2 364.74,-112.07"/>
</g>
<!-- Node7 -->
<g id="node7" class="node">
<title>Node7</title>
<g id="a_node7"><a xlink:href="_geometry_definition_8cpp.html" target="_top" xlink:title="Implementation of the GeometryDefinition class.">
<polygon fill="white" stroke="#666666" points="323,-74 204,-74 204,-55 323,-55 323,-74"/>
<text text-anchor="middle" x="263.5" y="-62" font-family="Helvetica,sans-Serif" font-size="10.00">GeometryDefinition.cpp</text>
</a>
</g>
</g>
<!-- Node4&#45;&gt;Node7 -->
<g id="edge7" class="edge">
<title>Node4&#45;&gt;Node7</title>
<path fill="none" stroke="#63b8ff" d="M380.36,-105.98C352.38,-96.29 314.3,-83.1 289.33,-74.45"/>
<polygon fill="#63b8ff" stroke="#63b8ff" points="378.95,-109.54 389.55,-109.51 381.24,-102.93 378.95,-109.54"/>
</g>
<!-- Node8 -->
<g id="node8" class="node">
<title>Node8</title>
<g id="a_node8"><a xlink:href="_list_of_geometry_definitions_8cpp.html" target="_top" xlink:title="Implementation of the ListOfGeometryDefinitions class.">
<polygon fill="white" stroke="#666666" points="492,-74 341,-74 341,-55 492,-55 492,-74"/>
<text text-anchor="middle" x="416.5" y="-62" font-family="Helvetica,sans-Serif" font-size="10.00">ListOfGeometryDefinitions.cpp</text>
</a>
</g>
</g>
<!-- Node4&#45;&gt;Node8 -->
<g id="edge8" class="edge">
<title>Node4&#45;&gt;Node8</title>
<path fill="none" stroke="#63b8ff" d="M416.5,-98.93C416.5,-90.53 416.5,-81.13 416.5,-74.44"/>
<polygon fill="#63b8ff" stroke="#63b8ff" points="413,-98.75 416.5,-108.75 420,-98.75 413,-98.75"/>
</g>
<!-- Node9 -->
<g id="node9" class="node">
<title>Node9</title>
<g id="a_node9"><a xlink:href="_mixed_geometry_8cpp.html" target="_top" xlink:title="Implementation of the MixedGeometry class.">
<polygon fill="white" stroke="#666666" points="613,-74 510,-74 510,-55 613,-55 613,-74"/>
<text text-anchor="middle" x="561.5" y="-62" font-family="Helvetica,sans-Serif" font-size="10.00">MixedGeometry.cpp</text>
</a>
</g>
</g>
<!-- Node4&#45;&gt;Node9 -->
<g id="edge9" class="edge">
<title>Node4&#45;&gt;Node9</title>
<path fill="none" stroke="#63b8ff" d="M451.13,-105.84C477.7,-96.13 513.71,-82.97 537.27,-74.36"/>
<polygon fill="#63b8ff" stroke="#63b8ff" points="450.29,-102.79 442.1,-109.51 452.69,-109.36 450.29,-102.79"/>
</g>
<!-- Node4&#45;&gt;Node10 -->
<g id="edge10" class="edge">
<title>Node4&#45;&gt;Node10</title>
<path fill="none" stroke="#63b8ff" d="M467.28,-108.78C518.5,-98.98 596.93,-83.98 646.69,-74.46"/>
<polygon fill="#63b8ff" stroke="#63b8ff" points="466.94,-105.48 457.78,-110.79 468.26,-112.35 466.94,-105.48"/>
</g>
<!-- Node11 -->
<g id="node11" class="node">
<title>Node11</title>
<g id="a_node11"><a xlink:href="_spatial_validator_8cpp.html" target="_top" xlink:title="Definition of SpatialValidator.">
<polygon fill="white" stroke="#666666" points="744.5,-19 642.5,-19 642.5,0 744.5,0 744.5,-19"/>
<text text-anchor="middle" x="693.5" y="-7" font-family="Helvetica,sans-Serif" font-size="10.00">SpatialValidator.cpp</text>
</a>
</g>
</g>
<!-- Node10&#45;&gt;Node11 -->
<g id="edge11" class="edge">
<title>Node10&#45;&gt;Node11</title>
<path fill="none" stroke="#63b8ff" d="M693.5,-43.93C693.5,-35.53 693.5,-26.13 693.5,-19.44"/>
<polygon fill="#63b8ff" stroke="#63b8ff" points="690,-43.75 693.5,-53.75 697,-43.75 690,-43.75"/>
</g>
</g>
</svg>
