<?xml version="1.0" encoding="UTF-8" standalone="no"?>
<!DOCTYPE svg PUBLIC "-//W3C//DTD SVG 1.1//EN"
 "http://www.w3.org/Graphics/SVG/1.1/DTD/svg11.dtd">
<!-- Generated by graphviz version 8.0.1 (20230327.1645)
 -->
<!-- Title: CompressionUtil.cpp Pages: 1 -->
<svg width="721pt" height="214pt"
 viewBox="0.00 0.00 721.00 214.00" xmlns="http://www.w3.org/2000/svg" xmlns:xlink="http://www.w3.org/1999/xlink">
<g id="graph0" class="graph" transform="scale(1 1) rotate(0) translate(4 210)">
<title>CompressionUtil.cpp</title>
<!-- Node1 -->
<g id="node1" class="node">
<title>Node1</title>
<g id="a_node1"><a xlink:title="Functions useful for various compression algorithms.">
<polygon fill="#999999" stroke="#666666" points="274,-206 166,-206 166,-187 274,-187 274,-206"/>
<text text-anchor="middle" x="220" y="-194" font-family="Helvetica,sans-Serif" font-size="10.00">CompressionUtil.cpp</text>
</a>
</g>
</g>
<!-- Node2 -->
<g id="node2" class="node">
<title>Node2</title>
<g id="a_node2"><a xlink:title=" ">
<polygon fill="#e0e0e0" stroke="#999999" points="112,-30 0,-30 0,0 112,0 112,-30"/>
<text text-anchor="start" x="8" y="-18" font-family="Helvetica,sans-Serif" font-size="10.00">sbml/common/libsbml</text>
<text text-anchor="middle" x="56" y="-7" font-family="Helvetica,sans-Serif" font-size="10.00">&#45;namespace.h</text>
</a>
</g>
</g>
<!-- Node1&#45;&gt;Node2 -->
<g id="edge1" class="edge">
<title>Node1&#45;&gt;Node2</title>
<path fill="none" stroke="#63b8ff" d="M165.67,-190.07C116.2,-183.86 48.44,-171.78 32,-151 6.64,-118.93 26.11,-69.13 41.67,-39.82"/>
<polygon fill="#63b8ff" stroke="#63b8ff" points="45.13,-41.81 46.93,-31.37 39.01,-38.41 45.13,-41.81"/>
</g>
<!-- Node3 -->
<g id="node3" class="node">
<title>Node3</title>
<g id="a_node3"><a xlink:title=" ">
<polygon fill="#e0e0e0" stroke="#999999" points="82.5,-145.5 41.5,-145.5 41.5,-126.5 82.5,-126.5 82.5,-145.5"/>
<text text-anchor="middle" x="62" y="-133.5" font-family="Helvetica,sans-Serif" font-size="10.00">string</text>
</a>
</g>
</g>
<!-- Node1&#45;&gt;Node3 -->
<g id="edge2" class="edge">
<title>Node1&#45;&gt;Node3</title>
<path fill="none" stroke="#63b8ff" d="M191.47,-186.51C165.33,-178.05 125.68,-164.67 92,-151 91.4,-150.76 90.8,-150.51 90.19,-150.25"/>
<polygon fill="#63b8ff" stroke="#63b8ff" points="91.84,-146.72 81.27,-145.89 89.01,-153.12 91.84,-146.72"/>
</g>
<!-- Node4 -->
<g id="node4" class="node">
<title>Node4</title>
<g id="a_node4"><a xlink:title=" ">
<polygon fill="#e0e0e0" stroke="#999999" points="147,-145.5 101,-145.5 101,-126.5 147,-126.5 147,-145.5"/>
<text text-anchor="middle" x="124" y="-133.5" font-family="Helvetica,sans-Serif" font-size="10.00">cstring</text>
</a>
</g>
</g>
<!-- Node1&#45;&gt;Node4 -->
<g id="edge3" class="edge">
<title>Node1&#45;&gt;Node4</title>
<path fill="none" stroke="#63b8ff" d="M205.42,-186.62C190.2,-177.34 166.07,-162.63 148.02,-151.64"/>
<polygon fill="#63b8ff" stroke="#63b8ff" points="150.08,-148.18 139.72,-145.97 146.44,-154.16 150.08,-148.18"/>
</g>
<!-- Node5 -->
<g id="node5" class="node">
<title>Node5</title>
<g id="a_node5"><a xlink:title=" ">
<polygon fill="#e0e0e0" stroke="#999999" points="209,-145.5 165,-145.5 165,-126.5 209,-126.5 209,-145.5"/>
<text text-anchor="middle" x="187" y="-133.5" font-family="Helvetica,sans-Serif" font-size="10.00">vector</text>
</a>
</g>
</g>
<!-- Node1&#45;&gt;Node5 -->
<g id="edge4" class="edge">
<title>Node1&#45;&gt;Node5</title>
<path fill="none" stroke="#63b8ff" d="M215.13,-186.87C210.45,-178.57 203.23,-165.78 197.28,-155.22"/>
<polygon fill="#63b8ff" stroke="#63b8ff" points="199.85,-153.66 191.89,-146.67 193.75,-157.1 199.85,-153.66"/>
</g>
<!-- Node6 -->
<g id="node6" class="node">
<title>Node6</title>
<g id="a_node6"><a xlink:title=" ">
<polygon fill="#e0e0e0" stroke="#999999" points="279,-145.5 227,-145.5 227,-126.5 279,-126.5 279,-145.5"/>
<text text-anchor="middle" x="253" y="-133.5" font-family="Helvetica,sans-Serif" font-size="10.00">sstream</text>
</a>
</g>
</g>
<!-- Node1&#45;&gt;Node6 -->
<g id="edge5" class="edge">
<title>Node1&#45;&gt;Node6</title>
<path fill="none" stroke="#63b8ff" d="M224.87,-186.87C229.55,-178.57 236.77,-165.78 242.72,-155.22"/>
<polygon fill="#63b8ff" stroke="#63b8ff" points="246.25,-157.1 248.11,-146.67 240.15,-153.66 246.25,-157.1"/>
</g>
<!-- Node7 -->
<g id="node7" class="node">
<title>Node7</title>
<g id="a_node7"><a xlink:title=" ">
<polygon fill="#e0e0e0" stroke="#999999" points="347,-145.5 297,-145.5 297,-126.5 347,-126.5 347,-145.5"/>
<text text-anchor="middle" x="322" y="-133.5" font-family="Helvetica,sans-Serif" font-size="10.00">iomanip</text>
</a>
</g>
</g>
<!-- Node1&#45;&gt;Node7 -->
<g id="edge6" class="edge">
<title>Node1&#45;&gt;Node7</title>
<path fill="none" stroke="#63b8ff" d="M235.49,-186.62C251.82,-177.25 277.78,-162.36 297.01,-151.33"/>
<polygon fill="#63b8ff" stroke="#63b8ff" points="298.43,-153.98 305.36,-145.97 294.95,-147.91 298.43,-153.98"/>
</g>
<!-- Node8 -->
<g id="node8" class="node">
<title>Node8</title>
<g id="a_node8"><a xlink:title=" ">
<polygon fill="#e0e0e0" stroke="#999999" points="544.5,-145.5 365.5,-145.5 365.5,-126.5 544.5,-126.5 544.5,-145.5"/>
<text text-anchor="middle" x="455" y="-133.5" font-family="Helvetica,sans-Serif" font-size="10.00">sbml/compress/CompressCommon.h</text>
</a>
</g>
</g>
<!-- Node1&#45;&gt;Node8 -->
<g id="edge7" class="edge">
<title>Node1&#45;&gt;Node8</title>
<path fill="none" stroke="#63b8ff" d="M255.95,-186.55C296.81,-176.38 363.63,-159.74 408.45,-148.59"/>
<polygon fill="#63b8ff" stroke="#63b8ff" points="409.2,-151.76 418.06,-145.95 407.51,-144.97 409.2,-151.76"/>
</g>
<!-- Node9 -->
<g id="node9" class="node">
<title>Node9</title>
<g id="a_node9"><a xlink:href="operation_return_values_8h.html" target="_top" xlink:title="Enumeration of values returned by operations within libSBML.">
<polygon fill="white" stroke="#666666" points="713,-151 563,-151 563,-121 713,-121 713,-151"/>
<text text-anchor="start" x="571" y="-139" font-family="Helvetica,sans-Serif" font-size="10.00">sbml/common/operationReturn</text>
<text text-anchor="middle" x="638" y="-128" font-family="Helvetica,sans-Serif" font-size="10.00">Values.h</text>
</a>
</g>
</g>
<!-- Node1&#45;&gt;Node9 -->
<g id="edge8" class="edge">
<title>Node1&#45;&gt;Node9</title>
<path fill="none" stroke="#63b8ff" d="M274.46,-188.8C338.44,-180.8 448.07,-166.72 552.21,-151.24"/>
<polygon fill="#63b8ff" stroke="#63b8ff" points="552.54,-154.58 561.91,-149.64 551.51,-147.66 552.54,-154.58"/>
</g>
<!-- Node10 -->
<g id="node10" class="node">
<title>Node10</title>
<g id="a_node10"><a xlink:href="extern_8h.html" target="_top" xlink:title="Definitions of LIBSBML_EXTERN and related things.">
<polygon fill="white" stroke="#666666" points="426,-85 310,-85 310,-66 426,-66 426,-85"/>
<text text-anchor="middle" x="368" y="-73" font-family="Helvetica,sans-Serif" font-size="10.00">sbml/common/extern.h</text>
</a>
</g>
</g>
<!-- Node9&#45;&gt;Node10 -->
<g id="edge9" class="edge">
<title>Node9&#45;&gt;Node10</title>
<path fill="none" stroke="#63b8ff" d="M571.26,-120.54C524.47,-110.4 462.84,-97.05 419.76,-87.71"/>
<polygon fill="#63b8ff" stroke="#63b8ff" points="420.74,-84.13 410.23,-85.43 419.26,-90.97 420.74,-84.13"/>
</g>
<!-- Node10&#45;&gt;Node2 -->
<g id="edge10" class="edge">
<title>Node10&#45;&gt;Node2</title>
<path fill="none" stroke="#63b8ff" d="M320.27,-65.55C267.64,-55.68 182.57,-39.73 123.21,-28.6"/>
<polygon fill="#63b8ff" stroke="#63b8ff" points="123.91,-24.99 113.44,-26.58 122.62,-31.87 123.91,-24.99"/>
</g>
</g>
</svg>
