<?xml version="1.0" encoding="UTF-8" standalone="no"?>
<!DOCTYPE svg PUBLIC "-//W3C//DTD SVG 1.1//EN"
 "http://www.w3.org/Graphics/SVG/1.1/DTD/svg11.dtd">
<!-- Generated by graphviz version 8.0.1 (20230327.1645)
 -->
<!-- Title: CompFlatteningConverter.h Pages: 1 -->
<svg width="1224pt" height="192pt"
 viewBox="0.00 0.00 1224.32 192.00" xmlns="http://www.w3.org/2000/svg" xmlns:xlink="http://www.w3.org/1999/xlink">
<g id="graph0" class="graph" transform="scale(1 1) rotate(0) translate(4 188)">
<title>CompFlatteningConverter.h</title>
<!-- Node1 -->
<g id="node1" class="node">
<title>Node1</title>
<g id="a_node1"><a xlink:title="Definition of a first flattening converter.">
<polygon fill="#999999" stroke="#666666" points="467.82,-184 331.82,-184 331.82,-165 467.82,-165 467.82,-184"/>
<text text-anchor="middle" x="399.82" y="-172" font-family="Helvetica,sans-Serif" font-size="10.00">CompFlatteningConverter.h</text>
</a>
</g>
</g>
<!-- Node2 -->
<g id="node2" class="node">
<title>Node2</title>
<g id="a_node2"><a xlink:href="_comp_extension_8cpp.html" target="_top" xlink:title="Implementation of CompExtension, the core module of comp package.">
<polygon fill="white" stroke="#666666" points="133.32,-74 28.32,-74 28.32,-55 133.32,-55 133.32,-74"/>
<text text-anchor="middle" x="80.82" y="-62" font-family="Helvetica,sans-Serif" font-size="10.00">CompExtension.cpp</text>
</a>
</g>
</g>
<!-- Node1&#45;&gt;Node2 -->
<g id="edge1" class="edge">
<title>Node1&#45;&gt;Node2</title>
<path fill="none" stroke="#63b8ff" d="M363.26,-161.12C298.26,-139.12 164.1,-93.69 107.23,-74.44"/>
<polygon fill="#63b8ff" stroke="#63b8ff" points="361.85,-164.68 372.44,-164.57 364.09,-158.05 361.85,-164.68"/>
</g>
<!-- Node3 -->
<g id="node3" class="node">
<title>Node3</title>
<g id="a_node3"><a xlink:href="_comp_flattening_converter_8cpp.html" target="_top" xlink:title="Implementation of a first flattening converter.">
<polygon fill="white" stroke="#666666" points="580.82,-19 434.82,-19 434.82,0 580.82,0 580.82,-19"/>
<text text-anchor="middle" x="507.82" y="-7" font-family="Helvetica,sans-Serif" font-size="10.00">CompFlatteningConverter.cpp</text>
</a>
</g>
</g>
<!-- Node1&#45;&gt;Node3 -->
<g id="edge2" class="edge">
<title>Node1&#45;&gt;Node3</title>
<path fill="none" stroke="#63b8ff" d="M320.73,-173.34C184.83,-170.52 -70.26,-152.56 18.82,-55 46.27,-24.94 304.96,-14.96 434.56,-11.84"/>
<polygon fill="#63b8ff" stroke="#63b8ff" points="320.44,-176.86 330.5,-173.54 320.57,-169.86 320.44,-176.86"/>
</g>
<!-- Node4 -->
<g id="node4" class="node">
<title>Node4</title>
<g id="a_node4"><a xlink:href="_comp_model_plugin_8h.html" target="_top" xlink:title="Definition of CompModelPlugin, the plugin class of comp package for the Model element.">
<polygon fill="white" stroke="#666666" points="617.82,-129 513.82,-129 513.82,-110 617.82,-110 617.82,-129"/>
<text text-anchor="middle" x="565.82" y="-117" font-family="Helvetica,sans-Serif" font-size="10.00">CompModelPlugin.h</text>
</a>
</g>
</g>
<!-- Node1&#45;&gt;Node4 -->
<g id="edge3" class="edge">
<title>Node1&#45;&gt;Node4</title>
<path fill="none" stroke="#63b8ff" d="M432.81,-161.11C461.78,-151.41 503.54,-138.14 532.59,-129.45"/>
<polygon fill="#63b8ff" stroke="#63b8ff" points="432.11,-157.99 423.76,-164.51 434.36,-164.62 432.11,-157.99"/>
</g>
<!-- Node4&#45;&gt;Node1 -->
<g id="edge9" class="edge">
<title>Node4&#45;&gt;Node1</title>
<path fill="none" stroke="#63b8ff" d="M532.6,-132.97C503.68,-142.65 462.16,-155.84 433.2,-164.51"/>
<polygon fill="#63b8ff" stroke="#63b8ff" points="533.66,-135.97 542.01,-129.45 531.41,-129.34 533.66,-135.97"/>
</g>
<!-- Node4&#45;&gt;Node2 -->
<g id="edge5" class="edge">
<title>Node4&#45;&gt;Node2</title>
<path fill="none" stroke="#63b8ff" d="M502.6,-112.47C419.85,-104.44 270.33,-89.44 142.82,-74 139.8,-73.63 136.7,-73.25 133.57,-72.85"/>
<polygon fill="#63b8ff" stroke="#63b8ff" points="502.04,-116.03 512.33,-113.51 502.72,-109.07 502.04,-116.03"/>
</g>
<!-- Node5 -->
<g id="node5" class="node">
<title>Node5</title>
<g id="a_node5"><a xlink:href="_comp_base_8cpp.html" target="_top" xlink:title="Implementation of CompBase, the base class of extension entities plugged in SBase derived classes in ...">
<polygon fill="white" stroke="#666666" points="1076.82,-74 992.82,-74 992.82,-55 1076.82,-55 1076.82,-74"/>
<text text-anchor="middle" x="1034.82" y="-62" font-family="Helvetica,sans-Serif" font-size="10.00">CompBase.cpp</text>
</a>
</g>
</g>
<!-- Node4&#45;&gt;Node5 -->
<g id="edge4" class="edge">
<title>Node4&#45;&gt;Node5</title>
<path fill="none" stroke="#63b8ff" d="M628.95,-112.95C710.92,-105.48 858.35,-91.12 983.82,-74 986.67,-73.61 989.6,-73.19 992.55,-72.74"/>
<polygon fill="#63b8ff" stroke="#63b8ff" points="628.72,-109.55 619.07,-113.94 629.35,-116.52 628.72,-109.55"/>
</g>
<!-- Node6 -->
<g id="node6" class="node">
<title>Node6</title>
<g id="a_node6"><a xlink:href="_comp_extension_types_8h.html" target="_top" xlink:title="Include all SBML types of Comp extension in a single header file.">
<polygon fill="white" stroke="#666666" points="1216.32,-74 1095.32,-74 1095.32,-55 1216.32,-55 1216.32,-74"/>
<text text-anchor="middle" x="1155.82" y="-62" font-family="Helvetica,sans-Serif" font-size="10.00">CompExtensionTypes.h</text>
</a>
</g>
</g>
<!-- Node4&#45;&gt;Node6 -->
<g id="edge6" class="edge">
<title>Node4&#45;&gt;Node6</title>
<path fill="none" stroke="#63b8ff" d="M629.18,-113.81C727.17,-106.38 921.37,-91.02 1085.82,-74 1088.86,-73.69 1091.98,-73.35 1095.13,-73"/>
<polygon fill="#63b8ff" stroke="#63b8ff" points="628.99,-110.39 619.28,-114.63 629.52,-117.37 628.99,-110.39"/>
</g>
<!-- Node8 -->
<g id="node8" class="node">
<title>Node8</title>
<g id="a_node8"><a xlink:href="_comp_model_plugin_8cpp.html" target="_top" xlink:title="Implementation of CompModelPlugin, the plugin class of comp package for the SBase element.">
<polygon fill="white" stroke="#666666" points="266.32,-74 151.32,-74 151.32,-55 266.32,-55 266.32,-74"/>
<text text-anchor="middle" x="208.82" y="-62" font-family="Helvetica,sans-Serif" font-size="10.00">CompModelPlugin.cpp</text>
</a>
</g>
</g>
<!-- Node4&#45;&gt;Node8 -->
<g id="edge10" class="edge">
<title>Node4&#45;&gt;Node8</title>
<path fill="none" stroke="#63b8ff" d="M502.73,-109.13C435.91,-99.21 331.31,-83.69 266.58,-74.08"/>
<polygon fill="#63b8ff" stroke="#63b8ff" points="502.12,-112.73 512.53,-110.74 503.15,-105.81 502.12,-112.73"/>
</g>
<!-- Node9 -->
<g id="node9" class="node">
<title>Node9</title>
<g id="a_node9"><a xlink:href="_comp_s_b_m_l_document_plugin_8cpp.html" target="_top" xlink:title="Implementation of CompSBMLDocumentPlugin, the plugin class of comp package for the SBase element.">
<polygon fill="white" stroke="#666666" points="445.32,-74 284.32,-74 284.32,-55 445.32,-55 445.32,-74"/>
<text text-anchor="middle" x="364.82" y="-62" font-family="Helvetica,sans-Serif" font-size="10.00">CompSBMLDocumentPlugin.cpp</text>
</a>
</g>
</g>
<!-- Node4&#45;&gt;Node9 -->
<g id="edge11" class="edge">
<title>Node4&#45;&gt;Node9</title>
<path fill="none" stroke="#63b8ff" d="M521.23,-106.74C484.24,-96.99 432.43,-83.33 398.75,-74.45"/>
<polygon fill="#63b8ff" stroke="#63b8ff" points="520.16,-110.34 530.72,-109.51 521.95,-103.58 520.16,-110.34"/>
</g>
<!-- Node10 -->
<g id="node10" class="node">
<title>Node10</title>
<g id="a_node10"><a xlink:href="_replaced_by_8cpp.html" target="_top" xlink:title="Implementation of ReplacedBy, the SBaseRef derived class of the comp package.">
<polygon fill="white" stroke="#666666" points="550.32,-74 463.32,-74 463.32,-55 550.32,-55 550.32,-74"/>
<text text-anchor="middle" x="506.82" y="-62" font-family="Helvetica,sans-Serif" font-size="10.00">ReplacedBy.cpp</text>
</a>
</g>
</g>
<!-- Node4&#45;&gt;Node10 -->
<g id="edge12" class="edge">
<title>Node4&#45;&gt;Node10</title>
<path fill="none" stroke="#63b8ff" d="M547.86,-102.37C537.61,-93.16 525.16,-81.98 516.68,-74.36"/>
<polygon fill="#63b8ff" stroke="#63b8ff" points="545.03,-104.43 554.81,-108.51 549.71,-99.22 545.03,-104.43"/>
</g>
<!-- Node11 -->
<g id="node11" class="node">
<title>Node11</title>
<g id="a_node11"><a xlink:href="_replaced_element_8cpp.html" target="_top" xlink:title="Implementation of ReplacedElement, the SBaseRef derived class of replacedElements package.">
<polygon fill="white" stroke="#666666" points="681.32,-74 568.32,-74 568.32,-55 681.32,-55 681.32,-74"/>
<text text-anchor="middle" x="624.82" y="-62" font-family="Helvetica,sans-Serif" font-size="10.00">ReplacedElement.cpp</text>
</a>
</g>
</g>
<!-- Node4&#45;&gt;Node11 -->
<g id="edge13" class="edge">
<title>Node4&#45;&gt;Node11</title>
<path fill="none" stroke="#63b8ff" d="M583.78,-102.37C594.03,-93.16 606.48,-81.98 614.96,-74.36"/>
<polygon fill="#63b8ff" stroke="#63b8ff" points="581.93,-99.22 576.83,-108.51 586.61,-104.43 581.93,-99.22"/>
</g>
<!-- Node12 -->
<g id="node12" class="node">
<title>Node12</title>
<g id="a_node12"><a xlink:href="_replacing_8cpp.html" target="_top" xlink:title="Implementation of Replacing, the SBaseRef derived class of Replacings package.">
<polygon fill="white" stroke="#666666" points="778.32,-74 699.32,-74 699.32,-55 778.32,-55 778.32,-74"/>
<text text-anchor="middle" x="738.82" y="-62" font-family="Helvetica,sans-Serif" font-size="10.00">Replacing.cpp</text>
</a>
</g>
</g>
<!-- Node4&#45;&gt;Node12 -->
<g id="edge14" class="edge">
<title>Node4&#45;&gt;Node12</title>
<path fill="none" stroke="#63b8ff" d="M605.43,-106.36C637.18,-96.64 681,-83.21 709.62,-74.45"/>
<polygon fill="#63b8ff" stroke="#63b8ff" points="604.7,-103.23 596.17,-109.51 606.75,-109.93 604.7,-103.23"/>
</g>
<!-- Node13 -->
<g id="node13" class="node">
<title>Node13</title>
<g id="a_node13"><a xlink:href="_s_base_ref_8cpp.html" target="_top" xlink:title="Implementation of SBaseRef, the SBase&#45;derived class of the comp package.">
<polygon fill="white" stroke="#666666" points="876.82,-74 796.82,-74 796.82,-55 876.82,-55 876.82,-74"/>
<text text-anchor="middle" x="836.82" y="-62" font-family="Helvetica,sans-Serif" font-size="10.00">SBaseRef.cpp</text>
</a>
</g>
</g>
<!-- Node4&#45;&gt;Node13 -->
<g id="edge15" class="edge">
<title>Node4&#45;&gt;Node13</title>
<path fill="none" stroke="#63b8ff" d="M622.51,-107.41C674.51,-97.24 750.26,-82.43 796.38,-73.41"/>
<polygon fill="#63b8ff" stroke="#63b8ff" points="621.93,-104.15 612.79,-109.51 623.28,-111.02 621.93,-104.15"/>
</g>
<!-- Node14 -->
<g id="node14" class="node">
<title>Node14</title>
<g id="a_node14"><a xlink:href="_submodel_8cpp.html" target="_top" xlink:title="Implementation of Submodel, the SBase&#45;derived class of the comp package.">
<polygon fill="white" stroke="#666666" points="974.32,-74 895.32,-74 895.32,-55 974.32,-55 974.32,-74"/>
<text text-anchor="middle" x="934.82" y="-62" font-family="Helvetica,sans-Serif" font-size="10.00">Submodel.cpp</text>
</a>
</g>
</g>
<!-- Node4&#45;&gt;Node14 -->
<g id="edge16" class="edge">
<title>Node4&#45;&gt;Node14</title>
<path fill="none" stroke="#63b8ff" d="M629.1,-110.34C693.72,-101.85 796.89,-87.89 885.82,-74 888.81,-73.53 891.89,-73.04 894.99,-72.52"/>
<polygon fill="#63b8ff" stroke="#63b8ff" points="628.74,-106.99 619.28,-111.75 629.65,-113.93 628.74,-106.99"/>
</g>
<!-- Node6&#45;&gt;Node3 -->
<g id="edge7" class="edge">
<title>Node6&#45;&gt;Node3</title>
<path fill="none" stroke="#63b8ff" d="M1084.22,-54.89C896.43,-36.46 688.57,-22.09 580.9,-15.09"/>
<polygon fill="#63b8ff" stroke="#63b8ff" points="1083.84,-58.47 1094.13,-55.97 1084.52,-51.5 1083.84,-58.47"/>
</g>
<!-- Node7 -->
<g id="node7" class="node">
<title>Node7</title>
<g id="a_node7"><a xlink:href="_comp_validator_8cpp.html" target="_top" xlink:title=" ">
<polygon fill="white" stroke="#666666" points="1204.82,-19 1106.82,-19 1106.82,0 1204.82,0 1204.82,-19"/>
<text text-anchor="middle" x="1155.82" y="-7" font-family="Helvetica,sans-Serif" font-size="10.00">CompValidator.cpp</text>
</a>
</g>
</g>
<!-- Node6&#45;&gt;Node7 -->
<g id="edge8" class="edge">
<title>Node6&#45;&gt;Node7</title>
<path fill="none" stroke="#63b8ff" d="M1155.82,-43.93C1155.82,-35.53 1155.82,-26.13 1155.82,-19.44"/>
<polygon fill="#63b8ff" stroke="#63b8ff" points="1152.32,-43.75 1155.82,-53.75 1159.32,-43.75 1152.32,-43.75"/>
</g>
</g>
</svg>
