<?xml version="1.0" encoding="UTF-8" standalone="no"?>
<!DOCTYPE svg PUBLIC "-//W3C//DTD SVG 1.1//EN"
 "http://www.w3.org/Graphics/SVG/1.1/DTD/svg11.dtd">
<!-- Generated by graphviz version 8.0.1 (20230327.1645)
 -->
<!-- Title: CompValidator.h Pages: 1 -->
<!--zoomable 192 -->
<svg id="main" version="1.1" xmlns="http://www.w3.org/2000/svg" xmlns:xlink="http://www.w3.org/1999/xlink" xml:space="preserve" onload="init(evt)">
<style type="text/css"><![CDATA[
.edge:hover path { stroke: red; }
.edge:hover polygon { stroke: red; fill: red; }
]]></style>
<script type="text/javascript"><![CDATA[
var edges = document.getElementsByTagName('g');
if (edges && edges.length) {
  for (var i=0;i<edges.length;i++) {
    if (edges[i].id.substr(0,4)=='edge') {
      edges[i].setAttribute('class','edge');
    }
  }
}
]]></script>
        <defs>
                <circle id="rim" cx="0" cy="0" r="7"/>
                <circle id="rim2" cx="0" cy="0" r="3.5"/>
                <g id="zoomPlus">
                        <use xlink:href="#rim" fill="#404040">
                                <set attributeName="fill" to="#808080" begin="zoomplus.mouseover" end="zoomplus.mouseout"/>
                        </use>
                        <path d="M-4,0h8M0,-4v8" fill="none" stroke="white" stroke-width="1.5" pointer-events="none"/>
                </g>
                <g id="zoomMin">
                        <use xlink:href="#rim" fill="#404040">
                                <set attributeName="fill" to="#808080" begin="zoomminus.mouseover" end="zoomminus.mouseout"/>
                        </use>
                        <path d="M-4,0h8" fill="none" stroke="white" stroke-width="1.5" pointer-events="none"/>
                </g>
                <g id="dirArrow">
                        <path fill="none" stroke="white" stroke-width="1.5" d="M0,-3.0v7 M-2.5,-0.5L0,-3.0L2.5,-0.5"/>
                </g>
               <g id="resetDef">
                       <use xlink:href="#rim2" fill="#404040">
                               <set attributeName="fill" to="#808080" begin="reset.mouseover" end="reset.mouseout"/>
                       </use>
               </g>
        </defs>

<script type="text/javascript">
var viewWidth = 698;
var viewHeight = 192;
var sectionId = 'dynsection-1';
</script>
<script xlink:href="svgpan.js"/>
<svg id="graph" class="graph">
<g id="viewport">
<title>CompValidator.h</title>
<!-- Node1 -->
<g id="node1" class="node">
<title>Node1</title>
<g id="a_node1"><a xlink:title="Base class for SBML CompValidators.">
<polygon fill="#999999" stroke="#666666" points="406.5,-184 318.5,-184 318.5,-165 406.5,-165 406.5,-184"/>
<text text-anchor="middle" x="362.5" y="-172" font-family="Helvetica,sans-Serif" font-size="10.00">CompValidator.h</text>
</a>
</g>
</g>
<!-- Node2 -->
<g id="node2" class="node">
<title>Node2</title>
<g id="a_node2"><a xlink:href="_comp_s_b_m_l_document_plugin_8cpp.html" target="_top" xlink:title="Implementation of CompSBMLDocumentPlugin, the plugin class of comp package for the SBase element.">
<polygon fill="white" stroke="#666666" points="161,-74 0,-74 0,-55 161,-55 161,-74"/>
<text text-anchor="middle" x="80.5" y="-62" font-family="Helvetica,sans-Serif" font-size="10.00">CompSBMLDocumentPlugin.cpp</text>
</a>
</g>
</g>
<!-- Node1&#45;&gt;Node2 -->
<g id="edge1" class="edge">
<title>Node1&#45;&gt;Node2</title>
<path fill="none" stroke="#63b8ff" d="M329.37,-160.81C271.63,-138.7 153.97,-93.64 103.9,-74.46"/>
<polygon fill="#63b8ff" stroke="#63b8ff" points="327.83,-164.35 338.42,-164.66 330.34,-157.82 327.83,-164.35"/>
</g>
<!-- Node3 -->
<g id="node3" class="node">
<title>Node3</title>
<g id="a_node3"><a xlink:href="_comp_s_b_m_l_document_plugin_8h.html" target="_top" xlink:title="Definition of CompSBMLDocumentPlugin, the plugin class of comp package for the Model element.">
<polygon fill="white" stroke="#666666" points="437.5,-129 287.5,-129 287.5,-110 437.5,-110 437.5,-129"/>
<text text-anchor="middle" x="362.5" y="-117" font-family="Helvetica,sans-Serif" font-size="10.00">CompSBMLDocumentPlugin.h</text>
</a>
</g>
</g>
<!-- Node1&#45;&gt;Node3 -->
<g id="edge2" class="edge">
<title>Node1&#45;&gt;Node3</title>
<path fill="none" stroke="#63b8ff" d="M362.5,-153.93C362.5,-145.53 362.5,-136.13 362.5,-129.44"/>
<polygon fill="#63b8ff" stroke="#63b8ff" points="359,-153.75 362.5,-163.75 366,-153.75 359,-153.75"/>
</g>
<!-- Node7 -->
<g id="node7" class="node">
<title>Node7</title>
<g id="a_node7"><a xlink:href="_comp_validator_8cpp.html" target="_top" xlink:title=" ">
<polygon fill="white" stroke="#666666" points="652.5,-19 554.5,-19 554.5,0 652.5,0 652.5,-19"/>
<text text-anchor="middle" x="603.5" y="-7" font-family="Helvetica,sans-Serif" font-size="10.00">CompValidator.cpp</text>
</a>
</g>
</g>
<!-- Node1&#45;&gt;Node7 -->
<g id="edge10" class="edge">
<title>Node1&#45;&gt;Node7</title>
<path fill="none" stroke="#63b8ff" d="M417.51,-164.56C501.02,-149.74 653.48,-117.37 685.5,-74 703.36,-49.81 663.02,-30.16 632.82,-19.42"/>
<polygon fill="#63b8ff" stroke="#63b8ff" points="416.94,-161.28 407.7,-166.45 418.15,-168.18 416.94,-161.28"/>
</g>
<!-- Node3&#45;&gt;Node2 -->
<g id="edge7" class="edge">
<title>Node3&#45;&gt;Node2</title>
<path fill="none" stroke="#63b8ff" d="M303.91,-107.49C251.81,-97.7 176.57,-83.56 128.1,-74.45"/>
<polygon fill="#63b8ff" stroke="#63b8ff" points="303.19,-111.1 313.66,-109.51 304.48,-104.22 303.19,-111.1"/>
</g>
<!-- Node4 -->
<g id="node4" class="node">
<title>Node4</title>
<g id="a_node4"><a xlink:href="_comp_extension_8cpp.html" target="_top" xlink:title="Implementation of CompExtension, the core module of comp package.">
<polygon fill="white" stroke="#666666" points="284,-74 179,-74 179,-55 284,-55 284,-74"/>
<text text-anchor="middle" x="231.5" y="-62" font-family="Helvetica,sans-Serif" font-size="10.00">CompExtension.cpp</text>
</a>
</g>
</g>
<!-- Node3&#45;&gt;Node4 -->
<g id="edge3" class="edge">
<title>Node3&#45;&gt;Node4</title>
<path fill="none" stroke="#63b8ff" d="M330.25,-105.45C306.35,-95.78 274.39,-82.85 253.39,-74.36"/>
<polygon fill="#63b8ff" stroke="#63b8ff" points="328.69,-109 339.28,-109.51 331.32,-102.51 328.69,-109"/>
</g>
<!-- Node5 -->
<g id="node5" class="node">
<title>Node5</title>
<g id="a_node5"><a xlink:href="_comp_extension_types_8h.html" target="_top" xlink:title="Include all SBML types of Comp extension in a single header file.">
<polygon fill="white" stroke="#666666" points="423,-74 302,-74 302,-55 423,-55 423,-74"/>
<text text-anchor="middle" x="362.5" y="-62" font-family="Helvetica,sans-Serif" font-size="10.00">CompExtensionTypes.h</text>
</a>
</g>
</g>
<!-- Node3&#45;&gt;Node5 -->
<g id="edge4" class="edge">
<title>Node3&#45;&gt;Node5</title>
<path fill="none" stroke="#63b8ff" d="M362.5,-98.93C362.5,-90.53 362.5,-81.13 362.5,-74.44"/>
<polygon fill="#63b8ff" stroke="#63b8ff" points="359,-98.75 362.5,-108.75 366,-98.75 359,-98.75"/>
</g>
<!-- Node8 -->
<g id="node8" class="node">
<title>Node8</title>
<g id="a_node8"><a xlink:href="_external_model_definition_8cpp.html" target="_top" xlink:title="Implementation of ExternalModelDefinition, the SBase&#45;derived class of the comp package.">
<polygon fill="white" stroke="#666666" points="580,-74 441,-74 441,-55 580,-55 580,-74"/>
<text text-anchor="middle" x="510.5" y="-62" font-family="Helvetica,sans-Serif" font-size="10.00">ExternalModelDefinition.cpp</text>
</a>
</g>
</g>
<!-- Node3&#45;&gt;Node8 -->
<g id="edge8" class="edge">
<title>Node3&#45;&gt;Node8</title>
<path fill="none" stroke="#63b8ff" d="M397.85,-105.84C424.97,-96.13 461.72,-82.97 485.76,-74.36"/>
<polygon fill="#63b8ff" stroke="#63b8ff" points="396.84,-102.84 388.61,-109.51 399.2,-109.43 396.84,-102.84"/>
</g>
<!-- Node9 -->
<g id="node9" class="node">
<title>Node9</title>
<g id="a_node9"><a xlink:href="_submodel_8cpp.html" target="_top" xlink:title="Implementation of Submodel, the SBase&#45;derived class of the comp package.">
<polygon fill="white" stroke="#666666" points="677,-74 598,-74 598,-55 677,-55 677,-74"/>
<text text-anchor="middle" x="637.5" y="-62" font-family="Helvetica,sans-Serif" font-size="10.00">Submodel.cpp</text>
</a>
</g>
</g>
<!-- Node3&#45;&gt;Node9 -->
<g id="edge9" class="edge">
<title>Node3&#45;&gt;Node9</title>
<path fill="none" stroke="#63b8ff" d="M419.79,-107.46C473.06,-97.19 551.03,-82.16 597.77,-73.16"/>
<polygon fill="#63b8ff" stroke="#63b8ff" points="419.31,-104.18 410.15,-109.51 420.63,-111.05 419.31,-104.18"/>
</g>
<!-- Node6 -->
<g id="node6" class="node">
<title>Node6</title>
<g id="a_node6"><a xlink:href="_comp_flattening_converter_8cpp.html" target="_top" xlink:title="Implementation of a first flattening converter.">
<polygon fill="white" stroke="#666666" points="435.5,-19 289.5,-19 289.5,0 435.5,0 435.5,-19"/>
<text text-anchor="middle" x="362.5" y="-7" font-family="Helvetica,sans-Serif" font-size="10.00">CompFlatteningConverter.cpp</text>
</a>
</g>
</g>
<!-- Node5&#45;&gt;Node6 -->
<g id="edge5" class="edge">
<title>Node5&#45;&gt;Node6</title>
<path fill="none" stroke="#63b8ff" d="M362.5,-43.93C362.5,-35.53 362.5,-26.13 362.5,-19.44"/>
<polygon fill="#63b8ff" stroke="#63b8ff" points="359,-43.75 362.5,-53.75 366,-43.75 359,-43.75"/>
</g>
<!-- Node5&#45;&gt;Node7 -->
<g id="edge6" class="edge">
<title>Node5&#45;&gt;Node7</title>
<path fill="none" stroke="#63b8ff" d="M413.97,-52.18C458.44,-42.4 521.83,-28.46 562.82,-19.45"/>
<polygon fill="#63b8ff" stroke="#63b8ff" points="413.4,-48.94 404.38,-54.51 414.9,-55.78 413.4,-48.94"/>
</g>
</g>
</svg>
        <g id="navigator" transform="translate(0 0)" fill="#404254">
                <rect fill="#f2f5e9" fill-opacity="0.5" stroke="#606060" stroke-width=".5" x="0" y="0" width="60" height="60"/>
                <use id="zoomplus" xlink:href="#zoomPlus" x="17" y="9" onmousedown="handleZoom(evt,'in')"/>
                <use id="zoomminus" xlink:href="#zoomMin" x="42" y="9" onmousedown="handleZoom(evt,'out')"/>
                <use id="reset" xlink:href="#resetDef" x="30" y="36" onmousedown="handleReset()"/>
                <g id="arrowUp" xlink:href="#dirArrow" transform="translate(30 24)" onmousedown="handlePan(0,-1)">
                  <use xlink:href="#rim" fill="#404040">
                        <set attributeName="fill" to="#808080" begin="arrowUp.mouseover" end="arrowUp.mouseout"/>
                  </use>
                  <path fill="none" stroke="white" stroke-width="1.5" d="M0,-3.0v7 M-2.5,-0.5L0,-3.0L2.5,-0.5"/>
                </g>
                <g id="arrowRight" xlink:href="#dirArrow" transform="rotate(90) translate(36 -43)" onmousedown="handlePan(1,0)">
                  <use xlink:href="#rim" fill="#404040">
                        <set attributeName="fill" to="#808080" begin="arrowRight.mouseover" end="arrowRight.mouseout"/>
                  </use>
                  <path fill="none" stroke="white" stroke-width="1.5" d="M0,-3.0v7 M-2.5,-0.5L0,-3.0L2.5,-0.5"/>
                </g>
                <g id="arrowDown" xlink:href="#dirArrow" transform="rotate(180) translate(-30 -48)" onmousedown="handlePan(0,1)">
                  <use xlink:href="#rim" fill="#404040">
                        <set attributeName="fill" to="#808080" begin="arrowDown.mouseover" end="arrowDown.mouseout"/>
                  </use>
                  <path fill="none" stroke="white" stroke-width="1.5" d="M0,-3.0v7 M-2.5,-0.5L0,-3.0L2.5,-0.5"/>
                </g>
                <g id="arrowLeft" xlink:href="#dirArrow" transform="rotate(270) translate(-36 17)" onmousedown="handlePan(-1,0)">
                  <use xlink:href="#rim" fill="#404040">
                        <set attributeName="fill" to="#808080" begin="arrowLeft.mouseover" end="arrowLeft.mouseout"/>
                  </use>
                  <path fill="none" stroke="white" stroke-width="1.5" d="M0,-3.0v7 M-2.5,-0.5L0,-3.0L2.5,-0.5"/>
                </g>
        </g>
        <svg viewBox="0 0 15 15" width="100%" height="30px" preserveAspectRatio="xMaxYMin meet">
         <g id="arrow_out" transform="scale(0.3 0.3)">
          <a xlink:href="_comp_validator_8h__dep__incl_org.svg" target="_base">
           <rect id="button" ry="5" rx="5" y="6" x="6" height="38" width="38"
                fill="#f2f5e9" fill-opacity="0.5" stroke="#606060" stroke-width="1.0"/>
           <path id="arrow"
             d="M 11.500037,31.436501 C 11.940474,20.09759 22.043105,11.32322 32.158766,21.979434 L 37.068811,17.246167 C 37.068811,17.246167 37.088388,32 37.088388,32 L 22.160133,31.978069 C 22.160133,31.978069 26.997745,27.140456 26.997745,27.140456 C 18.528582,18.264221 13.291696,25.230495 11.500037,31.436501 z"
             style="fill:#404040;"/>
          </a>
         </g>
        </svg>
</svg>
