<?xml version="1.0" encoding="UTF-8" standalone="no"?>
<!DOCTYPE svg PUBLIC "-//W3C//DTD SVG 1.1//EN"
 "http://www.w3.org/Graphics/SVG/1.1/DTD/svg11.dtd">
<!-- Generated by graphviz version 8.0.1 (20230327.1645)
 -->
<!-- Title: ConversionProperties.h Pages: 1 -->
<svg width="805pt" height="456pt"
 viewBox="0.00 0.00 805.00 456.00" xmlns="http://www.w3.org/2000/svg" xmlns:xlink="http://www.w3.org/1999/xlink">
<g id="graph0" class="graph" transform="scale(1 1) rotate(0) translate(4 452)">
<title>ConversionProperties.h</title>
<!-- Node1 -->
<g id="node1" class="node">
<title>Node1</title>
<g id="a_node1"><a xlink:title="Definition of ConversionProperties, the class encapsulating conversion configuration.">
<polygon fill="#999999" stroke="#666666" points="431.5,-448 312.5,-448 312.5,-429 431.5,-429 431.5,-448"/>
<text text-anchor="middle" x="372" y="-436" font-family="Helvetica,sans-Serif" font-size="10.00">ConversionProperties.h</text>
</a>
</g>
</g>
<!-- Node2 -->
<g id="node2" class="node">
<title>Node2</title>
<g id="a_node2"><a xlink:href="extern_8h.html" target="_top" xlink:title="Definitions of LIBSBML_EXTERN and related things.">
<polygon fill="white" stroke="#666666" points="242,-85 126,-85 126,-66 242,-66 242,-85"/>
<text text-anchor="middle" x="184" y="-73" font-family="Helvetica,sans-Serif" font-size="10.00">sbml/common/extern.h</text>
</a>
</g>
</g>
<!-- Node1&#45;&gt;Node2 -->
<g id="edge1" class="edge">
<title>Node1&#45;&gt;Node2</title>
<path fill="none" stroke="#63b8ff" d="M312.23,-431.74C207.08,-419.93 0,-388.48 0,-324 0,-324 0,-324 0,-201 0,-137.36 76.44,-104.04 130.78,-88.39"/>
<polygon fill="#63b8ff" stroke="#63b8ff" points="131.61,-91.51 140.32,-85.49 129.75,-84.76 131.61,-91.51"/>
</g>
<!-- Node4 -->
<g id="node4" class="node">
<title>Node4</title>
<g id="a_node4"><a xlink:href="_s_b_m_l_namespaces_8h.html" target="_top" xlink:title="SBMLNamespaces class to store level/version and namespace.">
<polygon fill="white" stroke="#666666" points="501,-393 367,-393 367,-374 501,-374 501,-393"/>
<text text-anchor="middle" x="434" y="-381" font-family="Helvetica,sans-Serif" font-size="10.00">sbml/SBMLNamespaces.h</text>
</a>
</g>
</g>
<!-- Node1&#45;&gt;Node4 -->
<g id="edge3" class="edge">
<title>Node1&#45;&gt;Node4</title>
<path fill="none" stroke="#63b8ff" d="M382.52,-428.51C391.48,-420.85 404.57,-409.66 415.31,-400.47"/>
<polygon fill="#63b8ff" stroke="#63b8ff" points="417.31,-402.52 422.64,-393.36 412.76,-397.2 417.31,-402.52"/>
</g>
<!-- Node20 -->
<g id="node20" class="node">
<title>Node20</title>
<g id="a_node20"><a xlink:href="_conversion_option_8h.html" target="_top" xlink:title="Definition of ConversionOption, the class encapsulating conversion options.">
<polygon fill="white" stroke="#666666" points="377,-338 237,-338 237,-308 377,-308 377,-338"/>
<text text-anchor="start" x="245" y="-326" font-family="Helvetica,sans-Serif" font-size="10.00">sbml/conversion/Conversion</text>
<text text-anchor="middle" x="307" y="-315" font-family="Helvetica,sans-Serif" font-size="10.00">Option.h</text>
</a>
</g>
</g>
<!-- Node1&#45;&gt;Node20 -->
<g id="edge29" class="edge">
<title>Node1&#45;&gt;Node20</title>
<path fill="none" stroke="#63b8ff" d="M366.9,-428.59C357.02,-411.34 334.97,-372.84 320.56,-347.68"/>
<polygon fill="#63b8ff" stroke="#63b8ff" points="323.28,-346.38 315.27,-339.44 317.2,-349.86 323.28,-346.38"/>
</g>
<!-- Node21 -->
<g id="node21" class="node">
<title>Node21</title>
<g id="a_node21"><a xlink:title=" ">
<polygon fill="#e0e0e0" stroke="#999999" points="554.5,-393 519.5,-393 519.5,-374 554.5,-374 554.5,-393"/>
<text text-anchor="middle" x="537" y="-381" font-family="Helvetica,sans-Serif" font-size="10.00">map</text>
</a>
</g>
</g>
<!-- Node1&#45;&gt;Node21 -->
<g id="edge33" class="edge">
<title>Node1&#45;&gt;Node21</title>
<path fill="none" stroke="#63b8ff" d="M399.99,-428.51C430.29,-418.78 478.34,-403.34 508.74,-393.58"/>
<polygon fill="#63b8ff" stroke="#63b8ff" points="509.63,-396.65 518.08,-390.26 507.49,-389.98 509.63,-396.65"/>
</g>
<!-- Node3 -->
<g id="node3" class="node">
<title>Node3</title>
<g id="a_node3"><a xlink:title=" ">
<polygon fill="#e0e0e0" stroke="#999999" points="621,-30 509,-30 509,0 621,0 621,-30"/>
<text text-anchor="start" x="517" y="-18" font-family="Helvetica,sans-Serif" font-size="10.00">sbml/common/libsbml</text>
<text text-anchor="middle" x="565" y="-7" font-family="Helvetica,sans-Serif" font-size="10.00">&#45;namespace.h</text>
</a>
</g>
</g>
<!-- Node2&#45;&gt;Node3 -->
<g id="edge2" class="edge">
<title>Node2&#45;&gt;Node3</title>
<path fill="none" stroke="#63b8ff" d="M242.28,-65.55C311.08,-54.99 425.29,-37.45 497.77,-26.32"/>
<polygon fill="#63b8ff" stroke="#63b8ff" points="498.24,-29.64 507.59,-24.66 497.18,-22.72 498.24,-29.64"/>
</g>
<!-- Node5 -->
<g id="node5" class="node">
<title>Node5</title>
<g id="a_node5"><a xlink:href="_x_m_l_namespaces_8h.html" target="_top" xlink:title="A list of XMLNamespace declarations (URI/prefix pairs)">
<polygon fill="white" stroke="#666666" points="695,-332.5 549,-332.5 549,-313.5 695,-313.5 695,-332.5"/>
<text text-anchor="middle" x="622" y="-320.5" font-family="Helvetica,sans-Serif" font-size="10.00">sbml/xml/XMLNamespaces.h</text>
</a>
</g>
</g>
<!-- Node4&#45;&gt;Node5 -->
<g id="edge4" class="edge">
<title>Node4&#45;&gt;Node5</title>
<path fill="none" stroke="#63b8ff" d="M462.55,-373.62C494.71,-363.61 547.17,-347.29 583.07,-336.12"/>
<polygon fill="#63b8ff" stroke="#63b8ff" points="583.67,-339.28 592.18,-332.97 581.59,-332.6 583.67,-339.28"/>
</g>
<!-- Node12 -->
<g id="node12" class="node">
<title>Node12</title>
<g id="a_node12"><a xlink:title=" ">
<polygon fill="#e0e0e0" stroke="#999999" points="549.5,-272 508.5,-272 508.5,-253 549.5,-253 549.5,-272"/>
<text text-anchor="middle" x="529" y="-260" font-family="Helvetica,sans-Serif" font-size="10.00">string</text>
</a>
</g>
</g>
<!-- Node4&#45;&gt;Node12 -->
<g id="edge27" class="edge">
<title>Node4&#45;&gt;Node12</title>
<path fill="none" stroke="#63b8ff" d="M453.76,-373.59C468.57,-366.02 488.39,-353.85 501,-338 514.01,-321.64 521.42,-298.6 525.31,-282.49"/>
<polygon fill="#63b8ff" stroke="#63b8ff" points="528.85,-283.69 527.55,-273.17 522.01,-282.21 528.85,-283.69"/>
</g>
<!-- Node14 -->
<g id="node14" class="node">
<title>Node14</title>
<g id="a_node14"><a xlink:href="common_8h.html" target="_top" xlink:title="Common functions and macros for C and C++.">
<polygon fill="white" stroke="#666666" points="333.5,-272 206.5,-272 206.5,-253 333.5,-253 333.5,-272"/>
<text text-anchor="middle" x="270" y="-260" font-family="Helvetica,sans-Serif" font-size="10.00">sbml/common/common.h</text>
</a>
</g>
</g>
<!-- Node4&#45;&gt;Node14 -->
<g id="edge18" class="edge">
<title>Node4&#45;&gt;Node14</title>
<path fill="none" stroke="#63b8ff" d="M430.6,-373.87C424.14,-358.54 408.69,-326.44 386,-308 367.37,-292.86 343.02,-282.48 321.43,-275.57"/>
<polygon fill="#63b8ff" stroke="#63b8ff" points="322.69,-271.99 312.1,-272.46 320.66,-278.69 322.69,-271.99"/>
</g>
<!-- Node19 -->
<g id="node19" class="node">
<title>Node19</title>
<g id="a_node19"><a xlink:title=" ">
<polygon fill="#e0e0e0" stroke="#999999" points="492.5,-332.5 433.5,-332.5 433.5,-313.5 492.5,-313.5 492.5,-332.5"/>
<text text-anchor="middle" x="463" y="-320.5" font-family="Helvetica,sans-Serif" font-size="10.00">stdexcept</text>
</a>
</g>
</g>
<!-- Node4&#45;&gt;Node19 -->
<g id="edge28" class="edge">
<title>Node4&#45;&gt;Node19</title>
<path fill="none" stroke="#63b8ff" d="M438.28,-373.87C442.39,-365.57 448.73,-352.78 453.97,-342.22"/>
<polygon fill="#63b8ff" stroke="#63b8ff" points="457.4,-344.18 458.7,-333.67 451.13,-341.07 457.4,-344.18"/>
</g>
<!-- Node6 -->
<g id="node6" class="node">
<title>Node6</title>
<g id="a_node6"><a xlink:href="_x_m_l_extern_8h.html" target="_top" xlink:title="Defines LIBLAX_EXTERN.">
<polygon fill="white" stroke="#666666" points="755,-85 639,-85 639,-66 755,-66 755,-85"/>
<text text-anchor="middle" x="697" y="-73" font-family="Helvetica,sans-Serif" font-size="10.00">sbml/xml/XMLExtern.h</text>
</a>
</g>
</g>
<!-- Node5&#45;&gt;Node6 -->
<g id="edge5" class="edge">
<title>Node5&#45;&gt;Node6</title>
<path fill="none" stroke="#63b8ff" d="M632.94,-313.01C652.16,-296.42 691.32,-258.85 706,-217 720.51,-175.63 710.27,-123.25 702.84,-95.61"/>
<polygon fill="#63b8ff" stroke="#63b8ff" points="706.02,-95.03 699.9,-86.38 699.3,-96.95 706.02,-95.03"/>
</g>
<!-- Node7 -->
<g id="node7" class="node">
<title>Node7</title>
<g id="a_node7"><a xlink:href="sbmlfwd_8h.html" target="_top" xlink:title="Forward declarations for all opaque C types.">
<polygon fill="white" stroke="#666666" points="490,-272 364,-272 364,-253 490,-253 490,-272"/>
<text text-anchor="middle" x="427" y="-260" font-family="Helvetica,sans-Serif" font-size="10.00">sbml/common/sbmlfwd.h</text>
</a>
</g>
</g>
<!-- Node5&#45;&gt;Node7 -->
<g id="edge7" class="edge">
<title>Node5&#45;&gt;Node7</title>
<path fill="none" stroke="#63b8ff" d="M592.38,-313.12C559.03,-303.11 504.62,-286.79 467.38,-275.62"/>
<polygon fill="#63b8ff" stroke="#63b8ff" points="468.48,-271.99 457.9,-272.47 466.47,-278.69 468.48,-271.99"/>
</g>
<!-- Node11 -->
<g id="node11" class="node">
<title>Node11</title>
<g id="a_node11"><a xlink:href="operation_return_values_8h.html" target="_top" xlink:title="Enumeration of values returned by operations within libSBML.">
<polygon fill="white" stroke="#666666" points="697,-217 547,-217 547,-187 697,-187 697,-217"/>
<text text-anchor="start" x="555" y="-205" font-family="Helvetica,sans-Serif" font-size="10.00">sbml/common/operationReturn</text>
<text text-anchor="middle" x="622" y="-194" font-family="Helvetica,sans-Serif" font-size="10.00">Values.h</text>
</a>
</g>
</g>
<!-- Node5&#45;&gt;Node11 -->
<g id="edge14" class="edge">
<title>Node5&#45;&gt;Node11</title>
<path fill="none" stroke="#63b8ff" d="M622,-313.06C622,-295.26 622,-254.83 622,-228.25"/>
<polygon fill="#63b8ff" stroke="#63b8ff" points="625.5,-228.47 622,-218.47 618.5,-228.47 625.5,-228.47"/>
</g>
<!-- Node5&#45;&gt;Node12 -->
<g id="edge16" class="edge">
<title>Node5&#45;&gt;Node12</title>
<path fill="none" stroke="#63b8ff" d="M607.88,-313.12C593.13,-303.84 569.75,-289.13 552.27,-278.14"/>
<polygon fill="#63b8ff" stroke="#63b8ff" points="554.59,-274.83 544.26,-272.47 550.86,-280.76 554.59,-274.83"/>
</g>
<!-- Node13 -->
<g id="node13" class="node">
<title>Node13</title>
<g id="a_node13"><a xlink:title=" ">
<polygon fill="#e0e0e0" stroke="#999999" points="797,-272 753,-272 753,-253 797,-253 797,-272"/>
<text text-anchor="middle" x="775" y="-260" font-family="Helvetica,sans-Serif" font-size="10.00">vector</text>
</a>
</g>
</g>
<!-- Node5&#45;&gt;Node13 -->
<g id="edge17" class="edge">
<title>Node5&#45;&gt;Node13</title>
<path fill="none" stroke="#63b8ff" d="M645.24,-313.12C671.15,-303.21 713.24,-287.11 742.43,-275.95"/>
<polygon fill="#63b8ff" stroke="#63b8ff" points="743.45,-278.93 751.54,-272.09 740.95,-272.39 743.45,-278.93"/>
</g>
<!-- Node6&#45;&gt;Node3 -->
<g id="edge6" class="edge">
<title>Node6&#45;&gt;Node3</title>
<path fill="none" stroke="#63b8ff" d="M676.95,-65.62C658.61,-57.48 630.86,-45.19 607.58,-34.87"/>
<polygon fill="#63b8ff" stroke="#63b8ff" points="609.14,-31.29 598.58,-30.44 606.31,-37.69 609.14,-31.29"/>
</g>
<!-- Node7&#45;&gt;Node3 -->
<g id="edge8" class="edge">
<title>Node7&#45;&gt;Node3</title>
<path fill="none" stroke="#63b8ff" d="M442.62,-252.56C469.61,-236.2 524.64,-198.7 551,-151 569.72,-117.12 571.93,-104.66 570,-66 569.6,-57.92 568.83,-49.14 568.02,-41.22"/>
<polygon fill="#63b8ff" stroke="#63b8ff" points="571.4,-40.97 566.83,-31.41 564.44,-41.74 571.4,-40.97"/>
</g>
<!-- Node8 -->
<g id="node8" class="node">
<title>Node8</title>
<g id="a_node8"><a xlink:href="libsbml-config_8h.html" target="_top" xlink:title="Decides whether to #include Unix or Windows configuration variables.">
<polygon fill="white" stroke="#666666" points="483,-217 371,-217 371,-187 483,-187 483,-217"/>
<text text-anchor="start" x="379" y="-205" font-family="Helvetica,sans-Serif" font-size="10.00">sbml/common/libsbml</text>
<text text-anchor="middle" x="427" y="-194" font-family="Helvetica,sans-Serif" font-size="10.00">&#45;config.h</text>
</a>
</g>
</g>
<!-- Node7&#45;&gt;Node8 -->
<g id="edge9" class="edge">
<title>Node7&#45;&gt;Node8</title>
<path fill="none" stroke="#63b8ff" d="M427,-252.87C427,-246.25 427,-236.78 427,-227.86"/>
<polygon fill="#63b8ff" stroke="#63b8ff" points="430.5,-228.11 427,-218.11 423.5,-228.11 430.5,-228.11"/>
</g>
<!-- Node8&#45;&gt;Node3 -->
<g id="edge10" class="edge">
<title>Node8&#45;&gt;Node3</title>
<path fill="none" stroke="#63b8ff" d="M474.72,-186.61C493.39,-178.79 513.52,-167.31 527,-151 553.29,-119.19 561.43,-70.32 563.92,-40.93"/>
<polygon fill="#63b8ff" stroke="#63b8ff" points="567.46,-41.55 564.65,-31.34 560.47,-41.08 567.46,-41.55"/>
</g>
<!-- Node9 -->
<g id="node9" class="node">
<title>Node9</title>
<g id="a_node9"><a xlink:title=" ">
<polygon fill="#e0e0e0" stroke="#999999" points="388,-151 276,-151 276,-121 388,-121 388,-151"/>
<text text-anchor="start" x="284" y="-139" font-family="Helvetica,sans-Serif" font-size="10.00">sbml/common/libsbml</text>
<text text-anchor="middle" x="332" y="-128" font-family="Helvetica,sans-Serif" font-size="10.00">&#45;config&#45;common.h</text>
</a>
</g>
</g>
<!-- Node8&#45;&gt;Node9 -->
<g id="edge11" class="edge">
<title>Node8&#45;&gt;Node9</title>
<path fill="none" stroke="#63b8ff" d="M405.92,-186.8C393.09,-178.16 376.5,-166.98 362.29,-157.4"/>
<polygon fill="#63b8ff" stroke="#63b8ff" points="364.6,-154.07 354.35,-151.39 360.69,-159.88 364.6,-154.07"/>
</g>
<!-- Node10 -->
<g id="node10" class="node">
<title>Node10</title>
<g id="a_node10"><a xlink:href="libsbml-version_8h.html" target="_top" xlink:title="Define libSBML version numbers for access from client software.">
<polygon fill="white" stroke="#666666" points="518,-151 406,-151 406,-121 518,-121 518,-151"/>
<text text-anchor="start" x="414" y="-139" font-family="Helvetica,sans-Serif" font-size="10.00">sbml/common/libsbml</text>
<text text-anchor="middle" x="462" y="-128" font-family="Helvetica,sans-Serif" font-size="10.00">&#45;version.h</text>
</a>
</g>
</g>
<!-- Node8&#45;&gt;Node10 -->
<g id="edge12" class="edge">
<title>Node8&#45;&gt;Node10</title>
<path fill="none" stroke="#63b8ff" d="M434.77,-186.8C438.98,-179.09 444.3,-169.37 449.12,-160.56"/>
<polygon fill="#63b8ff" stroke="#63b8ff" points="452.53,-162.62 454.25,-152.16 446.39,-159.26 452.53,-162.62"/>
</g>
<!-- Node10&#45;&gt;Node2 -->
<g id="edge13" class="edge">
<title>Node10&#45;&gt;Node2</title>
<path fill="none" stroke="#63b8ff" d="M405.63,-122.84C402.71,-122.21 399.82,-121.6 397,-121 342.83,-109.51 280.86,-96.59 237.79,-87.64"/>
<polygon fill="#63b8ff" stroke="#63b8ff" points="238.76,-84.06 228.26,-85.46 237.34,-90.92 238.76,-84.06"/>
</g>
<!-- Node11&#45;&gt;Node2 -->
<g id="edge15" class="edge">
<title>Node11&#45;&gt;Node2</title>
<path fill="none" stroke="#63b8ff" d="M609.86,-186.6C593.25,-168 561.54,-136.19 527,-121 479.35,-100.04 338.88,-87.05 253.2,-80.86"/>
<polygon fill="#63b8ff" stroke="#63b8ff" points="253.48,-77.3 243.26,-80.09 252.99,-84.28 253.48,-77.3"/>
</g>
<!-- Node14&#45;&gt;Node2 -->
<g id="edge21" class="edge">
<title>Node14&#45;&gt;Node2</title>
<path fill="none" stroke="#63b8ff" d="M206.31,-253.56C162.12,-246.59 108.81,-234.76 95,-217 68.81,-183.32 72.57,-157.29 95,-121 104.25,-106.03 120.23,-95.93 136.12,-89.19"/>
<polygon fill="#63b8ff" stroke="#63b8ff" points="136.86,-92.27 144.94,-85.42 134.35,-85.74 136.86,-92.27"/>
</g>
<!-- Node14&#45;&gt;Node8 -->
<g id="edge19" class="edge">
<title>Node14&#45;&gt;Node8</title>
<path fill="none" stroke="#63b8ff" d="M293.84,-252.62C316.15,-244.3 350.15,-231.63 378.21,-221.18"/>
<polygon fill="#63b8ff" stroke="#63b8ff" points="379.1,-224.21 387.25,-217.44 376.65,-217.65 379.1,-224.21"/>
</g>
<!-- Node15 -->
<g id="node15" class="node">
<title>Node15</title>
<g id="a_node15"><a xlink:title=" ">
<polygon fill="#e0e0e0" stroke="#999999" points="258,-145.5 212,-145.5 212,-126.5 258,-126.5 258,-145.5"/>
<text text-anchor="middle" x="235" y="-133.5" font-family="Helvetica,sans-Serif" font-size="10.00">stdio.h</text>
</a>
</g>
</g>
<!-- Node14&#45;&gt;Node15 -->
<g id="edge20" class="edge">
<title>Node14&#45;&gt;Node15</title>
<path fill="none" stroke="#63b8ff" d="M280.16,-252.81C288.9,-244.6 300.9,-231.43 306,-217 310.45,-204.43 312.14,-198.84 306,-187 300.94,-177.24 278.61,-162.38 260.33,-151.4"/>
<polygon fill="#63b8ff" stroke="#63b8ff" points="262.38,-147.95 251.99,-145.9 258.83,-153.99 262.38,-147.95"/>
</g>
<!-- Node16 -->
<g id="node16" class="node">
<title>Node16</title>
<g id="a_node16"><a xlink:href="memory_8h.html" target="_top" xlink:title=" ">
<polygon fill="white" stroke="#666666" points="202,-211.5 104,-211.5 104,-192.5 202,-192.5 202,-211.5"/>
<text text-anchor="middle" x="153" y="-199.5" font-family="Helvetica,sans-Serif" font-size="10.00">sbml/util/memory.h</text>
</a>
</g>
</g>
<!-- Node14&#45;&gt;Node16 -->
<g id="edge22" class="edge">
<title>Node14&#45;&gt;Node16</title>
<path fill="none" stroke="#63b8ff" d="M252.23,-252.62C233.25,-243.12 202.9,-227.95 180.76,-216.88"/>
<polygon fill="#63b8ff" stroke="#63b8ff" points="182.45,-213.31 171.94,-211.97 179.32,-219.57 182.45,-213.31"/>
</g>
<!-- Node17 -->
<g id="node17" class="node">
<title>Node17</title>
<g id="a_node17"><a xlink:href="util_8h.html" target="_top" xlink:title="Utility functions.">
<polygon fill="white" stroke="#666666" points="297.5,-211.5 220.5,-211.5 220.5,-192.5 297.5,-192.5 297.5,-211.5"/>
<text text-anchor="middle" x="259" y="-199.5" font-family="Helvetica,sans-Serif" font-size="10.00">sbml/util/util.h</text>
</a>
</g>
</g>
<!-- Node14&#45;&gt;Node17 -->
<g id="edge23" class="edge">
<title>Node14&#45;&gt;Node17</title>
<path fill="none" stroke="#63b8ff" d="M268.38,-252.87C266.87,-244.83 264.56,-232.57 262.61,-222.22"/>
<polygon fill="#63b8ff" stroke="#63b8ff" points="265.92,-221.85 260.63,-212.67 259.04,-223.14 265.92,-221.85"/>
</g>
<!-- Node17&#45;&gt;Node2 -->
<g id="edge26" class="edge">
<title>Node17&#45;&gt;Node2</title>
<path fill="none" stroke="#63b8ff" d="M244.87,-192.03C232.04,-183.14 213.56,-168.38 203,-151 192.73,-134.09 187.98,-111.79 185.81,-96.01"/>
<polygon fill="#63b8ff" stroke="#63b8ff" points="189.21,-95.94 184.59,-86.4 182.25,-96.74 189.21,-95.94"/>
</g>
<!-- Node17&#45;&gt;Node15 -->
<g id="edge24" class="edge">
<title>Node17&#45;&gt;Node15</title>
<path fill="none" stroke="#63b8ff" d="M255.66,-192.1C252.19,-182.84 246.64,-168.04 242.16,-156.11"/>
<polygon fill="#63b8ff" stroke="#63b8ff" points="245.1,-154.96 238.31,-146.82 238.54,-157.42 245.1,-154.96"/>
</g>
<!-- Node18 -->
<g id="node18" class="node">
<title>Node18</title>
<g id="a_node18"><a xlink:title=" ">
<polygon fill="#e0e0e0" stroke="#999999" points="156,-145.5 104,-145.5 104,-126.5 156,-126.5 156,-145.5"/>
<text text-anchor="middle" x="130" y="-133.5" font-family="Helvetica,sans-Serif" font-size="10.00">stdarg.h</text>
</a>
</g>
</g>
<!-- Node17&#45;&gt;Node18 -->
<g id="edge25" class="edge">
<title>Node17&#45;&gt;Node18</title>
<path fill="none" stroke="#63b8ff" d="M241.06,-192.1C219.4,-181.35 182.74,-163.16 157.5,-150.64"/>
<polygon fill="#63b8ff" stroke="#63b8ff" points="159.3,-147.13 148.78,-145.82 156.19,-153.4 159.3,-147.13"/>
</g>
<!-- Node20&#45;&gt;Node2 -->
<g id="edge30" class="edge">
<title>Node20&#45;&gt;Node2</title>
<path fill="none" stroke="#63b8ff" d="M236.65,-310.84C182.5,-298.17 111.18,-271.63 76,-217 67.97,-204.53 60.87,-144.79 77,-121 87.43,-105.62 104.26,-95.54 121.52,-88.95"/>
<polygon fill="#63b8ff" stroke="#63b8ff" points="122.37,-92.01 130.69,-85.45 120.09,-85.4 122.37,-92.01"/>
</g>
<!-- Node20&#45;&gt;Node7 -->
<g id="edge31" class="edge">
<title>Node20&#45;&gt;Node7</title>
<path fill="none" stroke="#63b8ff" d="M336.66,-307.54C355.75,-298.23 380.41,-286.22 399.13,-277.09"/>
<polygon fill="#63b8ff" stroke="#63b8ff" points="400.4,-279.87 407.85,-272.35 397.33,-273.58 400.4,-279.87"/>
</g>
<!-- Node20&#45;&gt;Node12 -->
<g id="edge32" class="edge">
<title>Node20&#45;&gt;Node12</title>
<path fill="none" stroke="#63b8ff" d="M363.79,-307.55C399.59,-298.36 447.04,-286.05 497.55,-272.35"/>
<polygon fill="#63b8ff" stroke="#63b8ff" points="498.3,-275.5 507.04,-269.5 496.47,-268.75 498.3,-275.5"/>
</g>
</g>
</svg>
