<?xml version="1.0" encoding="UTF-8" standalone="no"?>
<!DOCTYPE svg PUBLIC "-//W3C//DTD SVG 1.1//EN"
 "http://www.w3.org/Graphics/SVG/1.1/DTD/svg11.dtd">
<!-- Generated by graphviz version 8.0.1 (20230327.1645)
 -->
<!-- Title: CoordinateComponent.h Pages: 1 -->
<!--zoomable 302 -->
<svg id="main" version="1.1" xmlns="http://www.w3.org/2000/svg" xmlns:xlink="http://www.w3.org/1999/xlink" xml:space="preserve" onload="init(evt)">
<style type="text/css"><![CDATA[
.edge:hover path { stroke: red; }
.edge:hover polygon { stroke: red; fill: red; }
]]></style>
<script type="text/javascript"><![CDATA[
var edges = document.getElementsByTagName('g');
if (edges && edges.length) {
  for (var i=0;i<edges.length;i++) {
    if (edges[i].id.substr(0,4)=='edge') {
      edges[i].setAttribute('class','edge');
    }
  }
}
]]></script>
        <defs>
                <circle id="rim" cx="0" cy="0" r="7"/>
                <circle id="rim2" cx="0" cy="0" r="3.5"/>
                <g id="zoomPlus">
                        <use xlink:href="#rim" fill="#404040">
                                <set attributeName="fill" to="#808080" begin="zoomplus.mouseover" end="zoomplus.mouseout"/>
                        </use>
                        <path d="M-4,0h8M0,-4v8" fill="none" stroke="white" stroke-width="1.5" pointer-events="none"/>
                </g>
                <g id="zoomMin">
                        <use xlink:href="#rim" fill="#404040">
                                <set attributeName="fill" to="#808080" begin="zoomminus.mouseover" end="zoomminus.mouseout"/>
                        </use>
                        <path d="M-4,0h8" fill="none" stroke="white" stroke-width="1.5" pointer-events="none"/>
                </g>
                <g id="dirArrow">
                        <path fill="none" stroke="white" stroke-width="1.5" d="M0,-3.0v7 M-2.5,-0.5L0,-3.0L2.5,-0.5"/>
                </g>
               <g id="resetDef">
                       <use xlink:href="#rim2" fill="#404040">
                               <set attributeName="fill" to="#808080" begin="reset.mouseover" end="reset.mouseout"/>
                       </use>
               </g>
        </defs>

<script type="text/javascript">
var viewWidth = 709;
var viewHeight = 302;
var sectionId = 'dynsection-1';
</script>
<script xlink:href="svgpan.js"/>
<svg id="graph" class="graph">
<g id="viewport">
<title>CoordinateComponent.h</title>
<!-- Node1 -->
<g id="node1" class="node">
<title>Node1</title>
<g id="a_node1"><a xlink:title="Definition of the CoordinateComponent class.">
<polygon fill="#999999" stroke="#666666" points="245.5,-294 123.5,-294 123.5,-275 245.5,-275 245.5,-294"/>
<text text-anchor="middle" x="184.5" y="-282" font-family="Helvetica,sans-Serif" font-size="10.00">CoordinateComponent.h</text>
</a>
</g>
</g>
<!-- Node2 -->
<g id="node2" class="node">
<title>Node2</title>
<g id="a_node2"><a xlink:href="_coordinate_component_8cpp.html" target="_top" xlink:title="Implementation of the CoordinateComponent class.">
<polygon fill="white" stroke="#666666" points="133,-184 0,-184 0,-165 133,-165 133,-184"/>
<text text-anchor="middle" x="66.5" y="-172" font-family="Helvetica,sans-Serif" font-size="10.00">CoordinateComponent.cpp</text>
</a>
</g>
</g>
<!-- Node1&#45;&gt;Node2 -->
<g id="edge1" class="edge">
<title>Node1&#45;&gt;Node2</title>
<path fill="none" stroke="#63b8ff" d="M147.39,-270.4C130.87,-263.14 112.11,-252.76 98.5,-239 82.7,-223.03 73.19,-197.67 69.01,-184.35"/>
<polygon fill="#63b8ff" stroke="#63b8ff" points="145.75,-273.92 156.33,-274.52 148.43,-267.46 145.75,-273.92"/>
</g>
<!-- Node3 -->
<g id="node3" class="node">
<title>Node3</title>
<g id="a_node3"><a xlink:href="_list_of_coordinate_components_8h.html" target="_top" xlink:title="Definition of the ListOfCoordinateComponents class.">
<polygon fill="white" stroke="#666666" points="261.5,-239 107.5,-239 107.5,-220 261.5,-220 261.5,-239"/>
<text text-anchor="middle" x="184.5" y="-227" font-family="Helvetica,sans-Serif" font-size="10.00">ListOfCoordinateComponents.h</text>
</a>
</g>
</g>
<!-- Node1&#45;&gt;Node3 -->
<g id="edge2" class="edge">
<title>Node1&#45;&gt;Node3</title>
<path fill="none" stroke="#63b8ff" d="M184.5,-263.93C184.5,-255.53 184.5,-246.13 184.5,-239.44"/>
<polygon fill="#63b8ff" stroke="#63b8ff" points="181,-263.75 184.5,-273.75 188,-263.75 181,-263.75"/>
</g>
<!-- Node6 -->
<g id="node6" class="node">
<title>Node6</title>
<g id="a_node6"><a xlink:href="_spatial_extension_types_8h.html" target="_top" xlink:title="Definition of SpatialExtensionTypes.">
<polygon fill="white" stroke="#666666" points="437,-74 312,-74 312,-55 437,-55 437,-74"/>
<text text-anchor="middle" x="374.5" y="-62" font-family="Helvetica,sans-Serif" font-size="10.00">SpatialExtensionTypes.h</text>
</a>
</g>
</g>
<!-- Node1&#45;&gt;Node6 -->
<g id="edge13" class="edge">
<title>Node1&#45;&gt;Node6</title>
<path fill="none" stroke="#63b8ff" d="M256.35,-272.55C308.34,-260.46 375.09,-235.4 408.5,-184 432.06,-147.75 397.27,-94.93 381.55,-74.25"/>
<polygon fill="#63b8ff" stroke="#63b8ff" points="255.85,-269.3 246.83,-274.87 257.35,-276.13 255.85,-269.3"/>
</g>
<!-- Node3&#45;&gt;Node2 -->
<g id="edge3" class="edge">
<title>Node3&#45;&gt;Node2</title>
<path fill="none" stroke="#63b8ff" d="M154.58,-215.06C133.15,-205.43 104.88,-192.74 86.22,-184.36"/>
<polygon fill="#63b8ff" stroke="#63b8ff" points="152.93,-218.6 163.48,-219.51 155.79,-212.22 152.93,-218.6"/>
</g>
<!-- Node4 -->
<g id="node4" class="node">
<title>Node4</title>
<g id="a_node4"><a xlink:href="_geometry_8h.html" target="_top" xlink:title="Definition of the Geometry class.">
<polygon fill="white" stroke="#666666" points="217.5,-184 151.5,-184 151.5,-165 217.5,-165 217.5,-184"/>
<text text-anchor="middle" x="184.5" y="-172" font-family="Helvetica,sans-Serif" font-size="10.00">Geometry.h</text>
</a>
</g>
</g>
<!-- Node3&#45;&gt;Node4 -->
<g id="edge4" class="edge">
<title>Node3&#45;&gt;Node4</title>
<path fill="none" stroke="#63b8ff" d="M184.5,-208.93C184.5,-200.53 184.5,-191.13 184.5,-184.44"/>
<polygon fill="#63b8ff" stroke="#63b8ff" points="181,-208.75 184.5,-218.75 188,-208.75 181,-208.75"/>
</g>
<!-- Node11 -->
<g id="node11" class="node">
<title>Node11</title>
<g id="a_node11"><a xlink:href="_list_of_coordinate_components_8cpp.html" target="_top" xlink:title="Implementation of the ListOfCoordinateComponents class.">
<polygon fill="white" stroke="#666666" points="399.5,-184 235.5,-184 235.5,-165 399.5,-165 399.5,-184"/>
<text text-anchor="middle" x="317.5" y="-172" font-family="Helvetica,sans-Serif" font-size="10.00">ListOfCoordinateComponents.cpp</text>
</a>
</g>
</g>
<!-- Node3&#45;&gt;Node11 -->
<g id="edge12" class="edge">
<title>Node3&#45;&gt;Node11</title>
<path fill="none" stroke="#63b8ff" d="M217.24,-215.45C241.51,-205.78 273.95,-192.85 295.27,-184.36"/>
<polygon fill="#63b8ff" stroke="#63b8ff" points="216.06,-212.56 208.06,-219.51 218.65,-219.06 216.06,-212.56"/>
</g>
<!-- Node5 -->
<g id="node5" class="node">
<title>Node5</title>
<g id="a_node5"><a xlink:href="_geometry_8cpp.html" target="_top" xlink:title="Implementation of the Geometry class.">
<polygon fill="white" stroke="#666666" points="290,-129 213,-129 213,-110 290,-110 290,-129"/>
<text text-anchor="middle" x="251.5" y="-117" font-family="Helvetica,sans-Serif" font-size="10.00">Geometry.cpp</text>
</a>
</g>
</g>
<!-- Node4&#45;&gt;Node5 -->
<g id="edge5" class="edge">
<title>Node4&#45;&gt;Node5</title>
<path fill="none" stroke="#63b8ff" d="M204.2,-157.92C215.96,-148.61 230.48,-137.13 240.3,-129.36"/>
<polygon fill="#63b8ff" stroke="#63b8ff" points="202.54,-155.56 196.87,-164.51 206.88,-161.05 202.54,-155.56"/>
</g>
<!-- Node4&#45;&gt;Node6 -->
<g id="edge6" class="edge">
<title>Node4&#45;&gt;Node6</title>
<path fill="none" stroke="#63b8ff" d="M185.39,-154.2C187.07,-140.09 191.59,-121.48 203.5,-110 232.2,-82.32 275.85,-71.27 311.86,-67.11"/>
<polygon fill="#63b8ff" stroke="#63b8ff" points="181.85,-153.5 184.55,-163.74 188.83,-154.05 181.85,-153.5"/>
</g>
<!-- Node8 -->
<g id="node8" class="node">
<title>Node8</title>
<g id="a_node8"><a xlink:href="_spatial_model_plugin_8h.html" target="_top" xlink:title="Definition of the SpatialModelPlugin class.">
<polygon fill="white" stroke="#666666" points="563.5,-129 455.5,-129 455.5,-110 563.5,-110 563.5,-129"/>
<text text-anchor="middle" x="509.5" y="-117" font-family="Helvetica,sans-Serif" font-size="10.00">SpatialModelPlugin.h</text>
</a>
</g>
</g>
<!-- Node4&#45;&gt;Node8 -->
<g id="edge8" class="edge">
<title>Node4&#45;&gt;Node8</title>
<path fill="none" stroke="#63b8ff" d="M228.52,-164.7C313.13,-149.63 400.35,-136.38 455.13,-128.33"/>
<polygon fill="#63b8ff" stroke="#63b8ff" points="228.17,-161.39 218.95,-166.59 229.41,-168.28 228.17,-161.39"/>
</g>
<!-- Node7 -->
<g id="node7" class="node">
<title>Node7</title>
<g id="a_node7"><a xlink:href="_spatial_validator_8cpp.html" target="_top" xlink:title="Definition of SpatialValidator.">
<polygon fill="white" stroke="#666666" points="425.5,-19 323.5,-19 323.5,0 425.5,0 425.5,-19"/>
<text text-anchor="middle" x="374.5" y="-7" font-family="Helvetica,sans-Serif" font-size="10.00">SpatialValidator.cpp</text>
</a>
</g>
</g>
<!-- Node6&#45;&gt;Node7 -->
<g id="edge7" class="edge">
<title>Node6&#45;&gt;Node7</title>
<path fill="none" stroke="#63b8ff" d="M374.5,-43.93C374.5,-35.53 374.5,-26.13 374.5,-19.44"/>
<polygon fill="#63b8ff" stroke="#63b8ff" points="371,-43.75 374.5,-53.75 378,-43.75 371,-43.75"/>
</g>
<!-- Node8&#45;&gt;Node6 -->
<g id="edge10" class="edge">
<title>Node8&#45;&gt;Node6</title>
<path fill="none" stroke="#63b8ff" d="M476.6,-105.58C451.93,-95.9 418.8,-82.89 397.06,-74.36"/>
<polygon fill="#63b8ff" stroke="#63b8ff" points="475.01,-109.11 485.6,-109.51 477.57,-102.6 475.01,-109.11"/>
</g>
<!-- Node9 -->
<g id="node9" class="node">
<title>Node9</title>
<g id="a_node9"><a xlink:href="_spatial_extension_8cpp.html" target="_top" xlink:title="Implementation of SpatialExtension.">
<polygon fill="white" stroke="#666666" points="564,-74 455,-74 455,-55 564,-55 564,-74"/>
<text text-anchor="middle" x="509.5" y="-62" font-family="Helvetica,sans-Serif" font-size="10.00">SpatialExtension.cpp</text>
</a>
</g>
</g>
<!-- Node8&#45;&gt;Node9 -->
<g id="edge9" class="edge">
<title>Node8&#45;&gt;Node9</title>
<path fill="none" stroke="#63b8ff" d="M509.5,-98.93C509.5,-90.53 509.5,-81.13 509.5,-74.44"/>
<polygon fill="#63b8ff" stroke="#63b8ff" points="506,-98.75 509.5,-108.75 513,-98.75 506,-98.75"/>
</g>
<!-- Node10 -->
<g id="node10" class="node">
<title>Node10</title>
<g id="a_node10"><a xlink:href="_spatial_model_plugin_8cpp.html" target="_top" xlink:title="Implementation of the SpatialModelPlugin class.">
<polygon fill="white" stroke="#666666" points="701,-74 582,-74 582,-55 701,-55 701,-74"/>
<text text-anchor="middle" x="641.5" y="-62" font-family="Helvetica,sans-Serif" font-size="10.00">SpatialModelPlugin.cpp</text>
</a>
</g>
</g>
<!-- Node8&#45;&gt;Node10 -->
<g id="edge11" class="edge">
<title>Node8&#45;&gt;Node10</title>
<path fill="none" stroke="#63b8ff" d="M541.99,-105.45C566.08,-95.78 598.28,-82.85 619.44,-74.36"/>
<polygon fill="#63b8ff" stroke="#63b8ff" points="540.87,-102.54 532.89,-109.51 543.48,-109.03 540.87,-102.54"/>
</g>
</g>
</svg>
        <g id="navigator" transform="translate(0 0)" fill="#404254">
                <rect fill="#f2f5e9" fill-opacity="0.5" stroke="#606060" stroke-width=".5" x="0" y="0" width="60" height="60"/>
                <use id="zoomplus" xlink:href="#zoomPlus" x="17" y="9" onmousedown="handleZoom(evt,'in')"/>
                <use id="zoomminus" xlink:href="#zoomMin" x="42" y="9" onmousedown="handleZoom(evt,'out')"/>
                <use id="reset" xlink:href="#resetDef" x="30" y="36" onmousedown="handleReset()"/>
                <g id="arrowUp" xlink:href="#dirArrow" transform="translate(30 24)" onmousedown="handlePan(0,-1)">
                  <use xlink:href="#rim" fill="#404040">
                        <set attributeName="fill" to="#808080" begin="arrowUp.mouseover" end="arrowUp.mouseout"/>
                  </use>
                  <path fill="none" stroke="white" stroke-width="1.5" d="M0,-3.0v7 M-2.5,-0.5L0,-3.0L2.5,-0.5"/>
                </g>
                <g id="arrowRight" xlink:href="#dirArrow" transform="rotate(90) translate(36 -43)" onmousedown="handlePan(1,0)">
                  <use xlink:href="#rim" fill="#404040">
                        <set attributeName="fill" to="#808080" begin="arrowRight.mouseover" end="arrowRight.mouseout"/>
                  </use>
                  <path fill="none" stroke="white" stroke-width="1.5" d="M0,-3.0v7 M-2.5,-0.5L0,-3.0L2.5,-0.5"/>
                </g>
                <g id="arrowDown" xlink:href="#dirArrow" transform="rotate(180) translate(-30 -48)" onmousedown="handlePan(0,1)">
                  <use xlink:href="#rim" fill="#404040">
                        <set attributeName="fill" to="#808080" begin="arrowDown.mouseover" end="arrowDown.mouseout"/>
                  </use>
                  <path fill="none" stroke="white" stroke-width="1.5" d="M0,-3.0v7 M-2.5,-0.5L0,-3.0L2.5,-0.5"/>
                </g>
                <g id="arrowLeft" xlink:href="#dirArrow" transform="rotate(270) translate(-36 17)" onmousedown="handlePan(-1,0)">
                  <use xlink:href="#rim" fill="#404040">
                        <set attributeName="fill" to="#808080" begin="arrowLeft.mouseover" end="arrowLeft.mouseout"/>
                  </use>
                  <path fill="none" stroke="white" stroke-width="1.5" d="M0,-3.0v7 M-2.5,-0.5L0,-3.0L2.5,-0.5"/>
                </g>
        </g>
        <svg viewBox="0 0 15 15" width="100%" height="30px" preserveAspectRatio="xMaxYMin meet">
         <g id="arrow_out" transform="scale(0.3 0.3)">
          <a xlink:href="_coordinate_component_8h__dep__incl_org.svg" target="_base">
           <rect id="button" ry="5" rx="5" y="6" x="6" height="38" width="38"
                fill="#f2f5e9" fill-opacity="0.5" stroke="#606060" stroke-width="1.0"/>
           <path id="arrow"
             d="M 11.500037,31.436501 C 11.940474,20.09759 22.043105,11.32322 32.158766,21.979434 L 37.068811,17.246167 C 37.068811,17.246167 37.088388,32 37.088388,32 L 22.160133,31.978069 C 22.160133,31.978069 26.997745,27.140456 26.997745,27.140456 C 18.528582,18.264221 13.291696,25.230495 11.500037,31.436501 z"
             style="fill:#404040;"/>
          </a>
         </g>
        </svg>
</svg>
