<?xml version="1.0" encoding="UTF-8" standalone="no"?>
<!DOCTYPE svg PUBLIC "-//W3C//DTD SVG 1.1//EN"
 "http://www.w3.org/Graphics/SVG/1.1/DTD/svg11.dtd">
<!-- Generated by graphviz version 8.0.1 (20230327.1645)
 -->
<!-- Title: DistribASTPlugin.h Pages: 1 -->
<svg width="346pt" height="82pt"
 viewBox="0.00 0.00 346.00 82.00" xmlns="http://www.w3.org/2000/svg" xmlns:xlink="http://www.w3.org/1999/xlink">
<g id="graph0" class="graph" transform="scale(1 1) rotate(0) translate(4 78)">
<title>DistribASTPlugin.h</title>
<!-- Node1 -->
<g id="node1" class="node">
<title>Node1</title>
<g id="a_node1"><a xlink:title="Definition of the DistribASTPlugin class.">
<polygon fill="#999999" stroke="#666666" points="283.5,-74 183.5,-74 183.5,-55 283.5,-55 283.5,-74"/>
<text text-anchor="middle" x="233.5" y="-62" font-family="Helvetica,sans-Serif" font-size="10.00">DistribASTPlugin.h</text>
</a>
</g>
</g>
<!-- Node2 -->
<g id="node2" class="node">
<title>Node2</title>
<g id="a_node2"><a xlink:href="_a_s_t_base_plugin_8h.html" target="_top" xlink:title=" ">
<polygon fill="white" stroke="#666666" points="163,-19 0,-19 0,0 163,0 163,-19"/>
<text text-anchor="middle" x="81.5" y="-7" font-family="Helvetica,sans-Serif" font-size="10.00">sbml/extension/ASTBasePlugin.h</text>
</a>
</g>
</g>
<!-- Node1&#45;&gt;Node2 -->
<g id="edge1" class="edge">
<title>Node1&#45;&gt;Node2</title>
<path fill="none" stroke="#63b8ff" d="M207.72,-54.51C182.86,-45.84 145.02,-32.65 117.26,-22.97"/>
<polygon fill="#63b8ff" stroke="#63b8ff" points="118.75,-19.43 108.16,-19.45 116.45,-26.04 118.75,-19.43"/>
</g>
<!-- Node3 -->
<g id="node3" class="node">
<title>Node3</title>
<g id="a_node3"><a xlink:title=" ">
<polygon fill="#e0e0e0" stroke="#999999" points="225.5,-19 181.5,-19 181.5,0 225.5,0 225.5,-19"/>
<text text-anchor="middle" x="203.5" y="-7" font-family="Helvetica,sans-Serif" font-size="10.00">vector</text>
</a>
</g>
</g>
<!-- Node1&#45;&gt;Node3 -->
<g id="edge2" class="edge">
<title>Node1&#45;&gt;Node3</title>
<path fill="none" stroke="#63b8ff" d="M228.55,-54.75C224.57,-47.73 218.86,-37.64 213.9,-28.87"/>
<polygon fill="#63b8ff" stroke="#63b8ff" points="216.53,-27.42 208.56,-20.44 210.44,-30.87 216.53,-27.42"/>
</g>
<!-- Node4 -->
<g id="node4" class="node">
<title>Node4</title>
<g id="a_node4"><a xlink:title=" ">
<polygon fill="#e0e0e0" stroke="#999999" points="285,-19 244,-19 244,0 285,0 285,-19"/>
<text text-anchor="middle" x="264.5" y="-7" font-family="Helvetica,sans-Serif" font-size="10.00">string</text>
</a>
</g>
</g>
<!-- Node1&#45;&gt;Node4 -->
<g id="edge3" class="edge">
<title>Node1&#45;&gt;Node4</title>
<path fill="none" stroke="#63b8ff" d="M238.62,-54.75C242.72,-47.73 248.62,-37.64 253.75,-28.87"/>
<polygon fill="#63b8ff" stroke="#63b8ff" points="257.24,-30.84 259.27,-20.44 251.2,-27.31 257.24,-30.84"/>
</g>
<!-- Node5 -->
<g id="node5" class="node">
<title>Node5</title>
<g id="a_node5"><a xlink:title=" ">
<polygon fill="#e0e0e0" stroke="#999999" points="338,-19 303,-19 303,0 338,0 338,-19"/>
<text text-anchor="middle" x="320.5" y="-7" font-family="Helvetica,sans-Serif" font-size="10.00">map</text>
</a>
</g>
</g>
<!-- Node1&#45;&gt;Node5 -->
<g id="edge4" class="edge">
<title>Node1&#45;&gt;Node5</title>
<path fill="none" stroke="#63b8ff" d="M248.26,-54.51C261.59,-46.39 281.43,-34.3 296.95,-24.85"/>
<polygon fill="#63b8ff" stroke="#63b8ff" points="298.24,-27.55 304.96,-19.36 294.6,-21.57 298.24,-27.55"/>
</g>
</g>
</svg>
