<?xml version="1.0" encoding="UTF-8" standalone="no"?>
<!DOCTYPE svg PUBLIC "-//W3C//DTD SVG 1.1//EN"
 "http://www.w3.org/Graphics/SVG/1.1/DTD/svg11.dtd">
<!-- Generated by graphviz version 8.0.1 (20230327.1645)
 -->
<!-- Title: FbcOr.h Pages: 1 -->
<!--zoomable 137 -->
<svg id="main" version="1.1" xmlns="http://www.w3.org/2000/svg" xmlns:xlink="http://www.w3.org/1999/xlink" xml:space="preserve" onload="init(evt)">
<style type="text/css"><![CDATA[
.edge:hover path { stroke: red; }
.edge:hover polygon { stroke: red; fill: red; }
]]></style>
<script type="text/javascript"><![CDATA[
var edges = document.getElementsByTagName('g');
if (edges && edges.length) {
  for (var i=0;i<edges.length;i++) {
    if (edges[i].id.substr(0,4)=='edge') {
      edges[i].setAttribute('class','edge');
    }
  }
}
]]></script>
        <defs>
                <circle id="rim" cx="0" cy="0" r="7"/>
                <circle id="rim2" cx="0" cy="0" r="3.5"/>
                <g id="zoomPlus">
                        <use xlink:href="#rim" fill="#404040">
                                <set attributeName="fill" to="#808080" begin="zoomplus.mouseover" end="zoomplus.mouseout"/>
                        </use>
                        <path d="M-4,0h8M0,-4v8" fill="none" stroke="white" stroke-width="1.5" pointer-events="none"/>
                </g>
                <g id="zoomMin">
                        <use xlink:href="#rim" fill="#404040">
                                <set attributeName="fill" to="#808080" begin="zoomminus.mouseover" end="zoomminus.mouseout"/>
                        </use>
                        <path d="M-4,0h8" fill="none" stroke="white" stroke-width="1.5" pointer-events="none"/>
                </g>
                <g id="dirArrow">
                        <path fill="none" stroke="white" stroke-width="1.5" d="M0,-3.0v7 M-2.5,-0.5L0,-3.0L2.5,-0.5"/>
                </g>
               <g id="resetDef">
                       <use xlink:href="#rim2" fill="#404040">
                               <set attributeName="fill" to="#808080" begin="reset.mouseover" end="reset.mouseout"/>
                       </use>
               </g>
        </defs>

<script type="text/javascript">
var viewWidth = 694;
var viewHeight = 137;
var sectionId = 'dynsection-1';
</script>
<script xlink:href="svgpan.js"/>
<svg id="graph" class="graph">
<g id="viewport">
<title>FbcOr.h</title>
<!-- Node1 -->
<g id="node1" class="node">
<title>Node1</title>
<g id="a_node1"><a xlink:title="Implementation of the FbcOr class.">
<polygon fill="#999999" stroke="#666666" points="330.5,-129 279.5,-129 279.5,-110 330.5,-110 330.5,-129"/>
<text text-anchor="middle" x="305" y="-117" font-family="Helvetica,sans-Serif" font-size="10.00">FbcOr.h</text>
</a>
</g>
</g>
<!-- Node2 -->
<g id="node2" class="node">
<title>Node2</title>
<g id="a_node2"><a xlink:href="_association_8cpp.html" target="_top" xlink:title="Implementation of Association, the contents of a GeneAssociation.">
<polygon fill="white" stroke="#666666" points="86,-74 0,-74 0,-55 86,-55 86,-74"/>
<text text-anchor="middle" x="43" y="-62" font-family="Helvetica,sans-Serif" font-size="10.00">Association.cpp</text>
</a>
</g>
</g>
<!-- Node1&#45;&gt;Node2 -->
<g id="edge1" class="edge">
<title>Node1&#45;&gt;Node2</title>
<path fill="none" stroke="#63b8ff" d="M268.66,-111.15C220.98,-101.5 137.4,-84.6 86.43,-74.29"/>
<polygon fill="#63b8ff" stroke="#63b8ff" points="267.91,-114.77 278.4,-113.32 269.29,-107.91 267.91,-114.77"/>
</g>
<!-- Node3 -->
<g id="node3" class="node">
<title>Node3</title>
<g id="a_node3"><a xlink:href="_fbc_and_8cpp.html" target="_top" xlink:title="Implementation of the FbcAnd class.">
<polygon fill="white" stroke="#666666" points="173.5,-74 104.5,-74 104.5,-55 173.5,-55 173.5,-74"/>
<text text-anchor="middle" x="139" y="-62" font-family="Helvetica,sans-Serif" font-size="10.00">FbcAnd.cpp</text>
</a>
</g>
</g>
<!-- Node1&#45;&gt;Node3 -->
<g id="edge2" class="edge">
<title>Node1&#45;&gt;Node3</title>
<path fill="none" stroke="#63b8ff" d="M268.81,-106.94C238.2,-97.17 194.98,-83.37 166.97,-74.43"/>
<polygon fill="#63b8ff" stroke="#63b8ff" points="267.47,-110.51 278.06,-110.22 269.6,-103.84 267.47,-110.51"/>
</g>
<!-- Node4 -->
<g id="node4" class="node">
<title>Node4</title>
<g id="a_node4"><a xlink:href="_fbc_association_8cpp.html" target="_top" xlink:title="Implementation of the FbcAssociation class.">
<polygon fill="white" stroke="#666666" points="294.5,-74 191.5,-74 191.5,-55 294.5,-55 294.5,-74"/>
<text text-anchor="middle" x="243" y="-62" font-family="Helvetica,sans-Serif" font-size="10.00">FbcAssociation.cpp</text>
</a>
</g>
</g>
<!-- Node1&#45;&gt;Node4 -->
<g id="edge3" class="edge">
<title>Node1&#45;&gt;Node4</title>
<path fill="none" stroke="#63b8ff" d="M286.13,-102.37C275.36,-93.16 262.28,-81.98 253.36,-74.36"/>
<polygon fill="#63b8ff" stroke="#63b8ff" points="283.61,-105.67 293.48,-109.51 288.16,-100.35 283.61,-105.67"/>
</g>
<!-- Node5 -->
<g id="node5" class="node">
<title>Node5</title>
<g id="a_node5"><a xlink:href="_fbc_extension_types_8h.html" target="_top" xlink:title="Includes all SBML types of the fbc package extension in a single header file.">
<polygon fill="white" stroke="#666666" points="423.5,-74 312.5,-74 312.5,-55 423.5,-55 423.5,-74"/>
<text text-anchor="middle" x="368" y="-62" font-family="Helvetica,sans-Serif" font-size="10.00">FbcExtensionTypes.h</text>
</a>
</g>
</g>
<!-- Node1&#45;&gt;Node5 -->
<g id="edge4" class="edge">
<title>Node1&#45;&gt;Node5</title>
<path fill="none" stroke="#63b8ff" d="M323.85,-102.64C334.85,-93.39 348.32,-82.05 357.47,-74.36"/>
<polygon fill="#63b8ff" stroke="#63b8ff" points="322.09,-100.39 316.69,-109.51 326.59,-105.75 322.09,-100.39"/>
</g>
<!-- Node11 -->
<g id="node11" class="node">
<title>Node11</title>
<g id="a_node11"><a xlink:href="_fbc_or_8cpp.html" target="_top" xlink:title="Implementation of the FbcOr class.">
<polygon fill="white" stroke="#666666" points="504,-74 442,-74 442,-55 504,-55 504,-74"/>
<text text-anchor="middle" x="473" y="-62" font-family="Helvetica,sans-Serif" font-size="10.00">FbcOr.cpp</text>
</a>
</g>
</g>
<!-- Node1&#45;&gt;Node11 -->
<g id="edge10" class="edge">
<title>Node1&#45;&gt;Node11</title>
<path fill="none" stroke="#63b8ff" d="M341.24,-107.07C372.19,-97.3 416.09,-83.45 444.56,-74.47"/>
<polygon fill="#63b8ff" stroke="#63b8ff" points="340.37,-103.99 331.88,-110.33 342.47,-110.66 340.37,-103.99"/>
</g>
<!-- Node12 -->
<g id="node12" class="node">
<title>Node12</title>
<g id="a_node12"><a xlink:href="_gene_product_association_8cpp.html" target="_top" xlink:title="Implementation of the GeneProductAssociation class.">
<polygon fill="white" stroke="#666666" points="665.5,-74 522.5,-74 522.5,-55 665.5,-55 665.5,-74"/>
<text text-anchor="middle" x="594" y="-62" font-family="Helvetica,sans-Serif" font-size="10.00">GeneProductAssociation.cpp</text>
</a>
</g>
</g>
<!-- Node1&#45;&gt;Node12 -->
<g id="edge11" class="edge">
<title>Node1&#45;&gt;Node12</title>
<path fill="none" stroke="#63b8ff" d="M341.54,-111.8C393.17,-102.33 487.56,-85.02 545.15,-74.46"/>
<polygon fill="#63b8ff" stroke="#63b8ff" points="341.11,-108.5 331.9,-113.75 342.37,-115.39 341.11,-108.5"/>
</g>
<!-- Node6 -->
<g id="node6" class="node">
<title>Node6</title>
<g id="a_node6"><a xlink:href="_cobra_to_fbc_converter_8cpp.html" target="_top" xlink:title="Implementation of a cobra 2 fbc converter.">
<polygon fill="white" stroke="#666666" points="136.5,-19 5.5,-19 5.5,0 136.5,0 136.5,-19"/>
<text text-anchor="middle" x="71" y="-7" font-family="Helvetica,sans-Serif" font-size="10.00">CobraToFbcConverter.cpp</text>
</a>
</g>
</g>
<!-- Node5&#45;&gt;Node6 -->
<g id="edge5" class="edge">
<title>Node5&#45;&gt;Node6</title>
<path fill="none" stroke="#63b8ff" d="M306.98,-52.61C252.09,-42.82 172.4,-28.59 121.13,-19.45"/>
<polygon fill="#63b8ff" stroke="#63b8ff" points="306.16,-56.2 316.62,-54.51 307.39,-49.31 306.16,-56.2"/>
</g>
<!-- Node7 -->
<g id="node7" class="node">
<title>Node7</title>
<g id="a_node7"><a xlink:href="_fbc_to_cobra_converter_8cpp.html" target="_top" xlink:title="Implementation of a fbc 2 cobra converter.">
<polygon fill="white" stroke="#666666" points="285.5,-19 154.5,-19 154.5,0 285.5,0 285.5,-19"/>
<text text-anchor="middle" x="220" y="-7" font-family="Helvetica,sans-Serif" font-size="10.00">FbcToCobraConverter.cpp</text>
</a>
</g>
</g>
<!-- Node5&#45;&gt;Node7 -->
<g id="edge6" class="edge">
<title>Node5&#45;&gt;Node7</title>
<path fill="none" stroke="#63b8ff" d="M332.65,-50.84C305.53,-41.13 268.78,-27.97 244.74,-19.36"/>
<polygon fill="#63b8ff" stroke="#63b8ff" points="331.3,-54.43 341.89,-54.51 333.66,-47.84 331.3,-54.43"/>
</g>
<!-- Node8 -->
<g id="node8" class="node">
<title>Node8</title>
<g id="a_node8"><a xlink:href="_fbc_v1_to_v2_converter_8cpp.html" target="_top" xlink:title="Implementation of a fbc v1 to fbc v2 converter.">
<polygon fill="white" stroke="#666666" points="432,-19 304,-19 304,0 432,0 432,-19"/>
<text text-anchor="middle" x="368" y="-7" font-family="Helvetica,sans-Serif" font-size="10.00">FbcV1ToV2Converter.cpp</text>
</a>
</g>
</g>
<!-- Node5&#45;&gt;Node8 -->
<g id="edge7" class="edge">
<title>Node5&#45;&gt;Node8</title>
<path fill="none" stroke="#63b8ff" d="M368,-43.93C368,-35.53 368,-26.13 368,-19.44"/>
<polygon fill="#63b8ff" stroke="#63b8ff" points="364.5,-43.75 368,-53.75 371.5,-43.75 364.5,-43.75"/>
</g>
<!-- Node9 -->
<g id="node9" class="node">
<title>Node9</title>
<g id="a_node9"><a xlink:href="_fbc_v2_to_v1_converter_8cpp.html" target="_top" xlink:title="Implementation of a fbc v2 to fbc v1 converter.">
<polygon fill="white" stroke="#666666" points="578,-19 450,-19 450,0 578,0 578,-19"/>
<text text-anchor="middle" x="514" y="-7" font-family="Helvetica,sans-Serif" font-size="10.00">FbcV2ToV1Converter.cpp</text>
</a>
</g>
</g>
<!-- Node5&#45;&gt;Node9 -->
<g id="edge8" class="edge">
<title>Node5&#45;&gt;Node9</title>
<path fill="none" stroke="#63b8ff" d="M402.87,-50.84C429.62,-41.13 465.88,-27.97 489.6,-19.36"/>
<polygon fill="#63b8ff" stroke="#63b8ff" points="401.97,-47.81 393.77,-54.51 404.36,-54.39 401.97,-47.81"/>
</g>
<!-- Node10 -->
<g id="node10" class="node">
<title>Node10</title>
<g id="a_node10"><a xlink:href="_fbc_validator_8cpp.html" target="_top" xlink:title="Base class for SBML Validators.">
<polygon fill="white" stroke="#666666" points="685.5,-19 596.5,-19 596.5,0 685.5,0 685.5,-19"/>
<text text-anchor="middle" x="641" y="-7" font-family="Helvetica,sans-Serif" font-size="10.00">FbcValidator.cpp</text>
</a>
</g>
</g>
<!-- Node5&#45;&gt;Node10 -->
<g id="edge9" class="edge">
<title>Node5&#45;&gt;Node10</title>
<path fill="none" stroke="#63b8ff" d="M424.81,-52.47C475.74,-42.58 549.44,-28.28 596.28,-19.18"/>
<polygon fill="#63b8ff" stroke="#63b8ff" points="424.46,-49.17 415.31,-54.51 425.79,-56.04 424.46,-49.17"/>
</g>
</g>
</svg>
        <g id="navigator" transform="translate(0 0)" fill="#404254">
                <rect fill="#f2f5e9" fill-opacity="0.5" stroke="#606060" stroke-width=".5" x="0" y="0" width="60" height="60"/>
                <use id="zoomplus" xlink:href="#zoomPlus" x="17" y="9" onmousedown="handleZoom(evt,'in')"/>
                <use id="zoomminus" xlink:href="#zoomMin" x="42" y="9" onmousedown="handleZoom(evt,'out')"/>
                <use id="reset" xlink:href="#resetDef" x="30" y="36" onmousedown="handleReset()"/>
                <g id="arrowUp" xlink:href="#dirArrow" transform="translate(30 24)" onmousedown="handlePan(0,-1)">
                  <use xlink:href="#rim" fill="#404040">
                        <set attributeName="fill" to="#808080" begin="arrowUp.mouseover" end="arrowUp.mouseout"/>
                  </use>
                  <path fill="none" stroke="white" stroke-width="1.5" d="M0,-3.0v7 M-2.5,-0.5L0,-3.0L2.5,-0.5"/>
                </g>
                <g id="arrowRight" xlink:href="#dirArrow" transform="rotate(90) translate(36 -43)" onmousedown="handlePan(1,0)">
                  <use xlink:href="#rim" fill="#404040">
                        <set attributeName="fill" to="#808080" begin="arrowRight.mouseover" end="arrowRight.mouseout"/>
                  </use>
                  <path fill="none" stroke="white" stroke-width="1.5" d="M0,-3.0v7 M-2.5,-0.5L0,-3.0L2.5,-0.5"/>
                </g>
                <g id="arrowDown" xlink:href="#dirArrow" transform="rotate(180) translate(-30 -48)" onmousedown="handlePan(0,1)">
                  <use xlink:href="#rim" fill="#404040">
                        <set attributeName="fill" to="#808080" begin="arrowDown.mouseover" end="arrowDown.mouseout"/>
                  </use>
                  <path fill="none" stroke="white" stroke-width="1.5" d="M0,-3.0v7 M-2.5,-0.5L0,-3.0L2.5,-0.5"/>
                </g>
                <g id="arrowLeft" xlink:href="#dirArrow" transform="rotate(270) translate(-36 17)" onmousedown="handlePan(-1,0)">
                  <use xlink:href="#rim" fill="#404040">
                        <set attributeName="fill" to="#808080" begin="arrowLeft.mouseover" end="arrowLeft.mouseout"/>
                  </use>
                  <path fill="none" stroke="white" stroke-width="1.5" d="M0,-3.0v7 M-2.5,-0.5L0,-3.0L2.5,-0.5"/>
                </g>
        </g>
        <svg viewBox="0 0 15 15" width="100%" height="30px" preserveAspectRatio="xMaxYMin meet">
         <g id="arrow_out" transform="scale(0.3 0.3)">
          <a xlink:href="_fbc_or_8h__dep__incl_org.svg" target="_base">
           <rect id="button" ry="5" rx="5" y="6" x="6" height="38" width="38"
                fill="#f2f5e9" fill-opacity="0.5" stroke="#606060" stroke-width="1.0"/>
           <path id="arrow"
             d="M 11.500037,31.436501 C 11.940474,20.09759 22.043105,11.32322 32.158766,21.979434 L 37.068811,17.246167 C 37.068811,17.246167 37.088388,32 37.088388,32 L 22.160133,31.978069 C 22.160133,31.978069 26.997745,27.140456 26.997745,27.140456 C 18.528582,18.264221 13.291696,25.230495 11.500037,31.436501 z"
             style="fill:#404040;"/>
          </a>
         </g>
        </svg>
</svg>
