<?xml version="1.0" encoding="UTF-8" standalone="no"?>
<!DOCTYPE svg PUBLIC "-//W3C//DTD SVG 1.1//EN"
 "http://www.w3.org/Graphics/SVG/1.1/DTD/svg11.dtd">
<!-- Generated by graphviz version 8.0.1 (20230327.1645)
 -->
<!-- Title: LayoutSBMLError.h Pages: 1 -->
<!--zoomable 82 -->
<svg id="main" version="1.1" xmlns="http://www.w3.org/2000/svg" xmlns:xlink="http://www.w3.org/1999/xlink" xml:space="preserve" onload="init(evt)">
<style type="text/css"><![CDATA[
.edge:hover path { stroke: red; }
.edge:hover polygon { stroke: red; fill: red; }
]]></style>
<script type="text/javascript"><![CDATA[
var edges = document.getElementsByTagName('g');
if (edges && edges.length) {
  for (var i=0;i<edges.length;i++) {
    if (edges[i].id.substr(0,4)=='edge') {
      edges[i].setAttribute('class','edge');
    }
  }
}
]]></script>
        <defs>
                <circle id="rim" cx="0" cy="0" r="7"/>
                <circle id="rim2" cx="0" cy="0" r="3.5"/>
                <g id="zoomPlus">
                        <use xlink:href="#rim" fill="#404040">
                                <set attributeName="fill" to="#808080" begin="zoomplus.mouseover" end="zoomplus.mouseout"/>
                        </use>
                        <path d="M-4,0h8M0,-4v8" fill="none" stroke="white" stroke-width="1.5" pointer-events="none"/>
                </g>
                <g id="zoomMin">
                        <use xlink:href="#rim" fill="#404040">
                                <set attributeName="fill" to="#808080" begin="zoomminus.mouseover" end="zoomminus.mouseout"/>
                        </use>
                        <path d="M-4,0h8" fill="none" stroke="white" stroke-width="1.5" pointer-events="none"/>
                </g>
                <g id="dirArrow">
                        <path fill="none" stroke="white" stroke-width="1.5" d="M0,-3.0v7 M-2.5,-0.5L0,-3.0L2.5,-0.5"/>
                </g>
               <g id="resetDef">
                       <use xlink:href="#rim2" fill="#404040">
                               <set attributeName="fill" to="#808080" begin="reset.mouseover" end="reset.mouseout"/>
                       </use>
               </g>
        </defs>

<script type="text/javascript">
var viewWidth = 1969;
var viewHeight = 82;
var sectionId = 'dynsection-0';
</script>
<script xlink:href="svgpan.js"/>
<svg id="graph" class="graph">
<g id="viewport">
<title>LayoutSBMLError.h</title>
<!-- Node1 -->
<g id="node1" class="node">
<title>Node1</title>
<g id="a_node1"><a xlink:title="Implementation of the LayoutSBMLError class.">
<polygon fill="#999999" stroke="#666666" points="970,-74 869,-74 869,-55 970,-55 970,-74"/>
<text text-anchor="middle" x="919.5" y="-62" font-family="Helvetica,sans-Serif" font-size="10.00">LayoutSBMLError.h</text>
</a>
</g>
</g>
<!-- Node2 -->
<g id="node2" class="node">
<title>Node2</title>
<g id="a_node2"><a xlink:href="_bounding_box_8cpp.html" target="_top" xlink:title="Implementation of BoundingBox for SBML Layout.">
<polygon fill="white" stroke="#666666" points="93,-19 0,-19 0,0 93,0 93,-19"/>
<text text-anchor="middle" x="46.5" y="-7" font-family="Helvetica,sans-Serif" font-size="10.00">BoundingBox.cpp</text>
</a>
</g>
</g>
<!-- Node1&#45;&gt;Node2 -->
<g id="edge1" class="edge">
<title>Node1&#45;&gt;Node2</title>
<path fill="none" stroke="#63b8ff" d="M858.07,-62.17C721.77,-58.78 383.85,-47.95 102.5,-19 99.47,-18.69 96.35,-18.33 93.21,-17.93"/>
<polygon fill="#63b8ff" stroke="#63b8ff" points="857.61,-65.69 867.69,-62.43 857.78,-58.69 857.61,-65.69"/>
</g>
<!-- Node3 -->
<g id="node3" class="node">
<title>Node3</title>
<g id="a_node3"><a xlink:href="_compartment_glyph_8cpp.html" target="_top" xlink:title="Implementation of CompartmentGlyph for SBML Layout.">
<polygon fill="white" stroke="#666666" points="231.5,-19 111.5,-19 111.5,0 231.5,0 231.5,-19"/>
<text text-anchor="middle" x="171.5" y="-7" font-family="Helvetica,sans-Serif" font-size="10.00">CompartmentGlyph.cpp</text>
</a>
</g>
</g>
<!-- Node1&#45;&gt;Node3 -->
<g id="edge2" class="edge">
<title>Node1&#45;&gt;Node3</title>
<path fill="none" stroke="#63b8ff" d="M858.02,-60.65C738.76,-54.86 467.75,-40.43 240.5,-19 237.62,-18.73 234.67,-18.43 231.69,-18.12"/>
<polygon fill="#63b8ff" stroke="#63b8ff" points="857.58,-64.18 867.74,-61.17 857.92,-57.19 857.58,-64.18"/>
</g>
<!-- Node4 -->
<g id="node4" class="node">
<title>Node4</title>
<g id="a_node4"><a xlink:href="_cubic_bezier_8cpp.html" target="_top" xlink:title="Implementation of CubicBezier for SBML Layout.">
<polygon fill="white" stroke="#666666" points="337.5,-19 249.5,-19 249.5,0 337.5,0 337.5,-19"/>
<text text-anchor="middle" x="293.5" y="-7" font-family="Helvetica,sans-Serif" font-size="10.00">CubicBezier.cpp</text>
</a>
</g>
</g>
<!-- Node1&#45;&gt;Node4 -->
<g id="edge3" class="edge">
<title>Node1&#45;&gt;Node4</title>
<path fill="none" stroke="#63b8ff" d="M858.06,-60.38C752.99,-54.67 532.15,-41.06 346.5,-19 343.72,-18.67 340.87,-18.3 338,-17.91"/>
<polygon fill="#63b8ff" stroke="#63b8ff" points="857.6,-63.91 867.78,-60.95 857.98,-56.92 857.6,-63.91"/>
</g>
<!-- Node5 -->
<g id="node5" class="node">
<title>Node5</title>
<g id="a_node5"><a xlink:href="_curve_8cpp.html" target="_top" xlink:title="Implementation of Curve for SBML Layout.">
<polygon fill="white" stroke="#666666" points="417.5,-19 355.5,-19 355.5,0 417.5,0 417.5,-19"/>
<text text-anchor="middle" x="386.5" y="-7" font-family="Helvetica,sans-Serif" font-size="10.00">Curve.cpp</text>
</a>
</g>
</g>
<!-- Node1&#45;&gt;Node5 -->
<g id="edge4" class="edge">
<title>Node1&#45;&gt;Node5</title>
<path fill="none" stroke="#63b8ff" d="M857.54,-60.29C763.83,-54.89 580.63,-42.25 426.5,-19 423.69,-18.58 420.78,-18.08 417.88,-17.54"/>
<polygon fill="#63b8ff" stroke="#63b8ff" points="857.33,-63.84 867.52,-60.91 857.73,-56.85 857.33,-63.84"/>
</g>
<!-- Node6 -->
<g id="node6" class="node">
<title>Node6</title>
<g id="a_node6"><a xlink:href="_dimensions_8cpp.html" target="_top" xlink:title="Implementation of Dimensions for SBML Layout.">
<polygon fill="white" stroke="#666666" points="523,-19 436,-19 436,0 523,0 523,-19"/>
<text text-anchor="middle" x="479.5" y="-7" font-family="Helvetica,sans-Serif" font-size="10.00">Dimensions.cpp</text>
</a>
</g>
</g>
<!-- Node1&#45;&gt;Node6 -->
<g id="edge5" class="edge">
<title>Node1&#45;&gt;Node6</title>
<path fill="none" stroke="#63b8ff" d="M857.68,-57.33C781.01,-49.47 646.4,-34.97 531.5,-19 528.87,-18.63 526.17,-18.24 523.45,-17.84"/>
<polygon fill="#63b8ff" stroke="#63b8ff" points="857.25,-60.91 867.56,-58.44 857.97,-53.94 857.25,-60.91"/>
</g>
<!-- Node7 -->
<g id="node7" class="node">
<title>Node7</title>
<g id="a_node7"><a xlink:href="_general_glyph_8cpp.html" target="_top" xlink:title="Implementation of GeneralGlyph for SBML Layout.">
<polygon fill="white" stroke="#666666" points="636,-19 541,-19 541,0 636,0 636,-19"/>
<text text-anchor="middle" x="588.5" y="-7" font-family="Helvetica,sans-Serif" font-size="10.00">GeneralGlyph.cpp</text>
</a>
</g>
</g>
<!-- Node1&#45;&gt;Node7 -->
<g id="edge6" class="edge">
<title>Node1&#45;&gt;Node7</title>
<path fill="none" stroke="#63b8ff" d="M857.74,-53.61C793.64,-43.35 694.73,-27.51 636.33,-18.16"/>
<polygon fill="#63b8ff" stroke="#63b8ff" points="857.08,-57.21 867.51,-55.33 858.19,-50.3 857.08,-57.21"/>
</g>
<!-- Node8 -->
<g id="node8" class="node">
<title>Node8</title>
<g id="a_node8"><a xlink:href="_graphical_object_8cpp.html" target="_top" xlink:title="Implementation of GraphicalObject for SBML Layout.">
<polygon fill="white" stroke="#666666" points="759,-19 654,-19 654,0 759,0 759,-19"/>
<text text-anchor="middle" x="706.5" y="-7" font-family="Helvetica,sans-Serif" font-size="10.00">GraphicalObject.cpp</text>
</a>
</g>
</g>
<!-- Node1&#45;&gt;Node8 -->
<g id="edge7" class="edge">
<title>Node1&#45;&gt;Node8</title>
<path fill="none" stroke="#63b8ff" d="M872.76,-51.87C833.53,-42.11 778.3,-28.37 742.45,-19.45"/>
<polygon fill="#63b8ff" stroke="#63b8ff" points="871.82,-55.49 882.37,-54.51 873.51,-48.7 871.82,-55.49"/>
</g>
<!-- Node9 -->
<g id="node9" class="node">
<title>Node9</title>
<g id="a_node9"><a xlink:href="_layout_8cpp.html" target="_top" xlink:title="Implementation of Layout for SBML Layout.">
<polygon fill="white" stroke="#666666" points="842,-19 777,-19 777,0 842,0 842,-19"/>
<text text-anchor="middle" x="809.5" y="-7" font-family="Helvetica,sans-Serif" font-size="10.00">Layout.cpp</text>
</a>
</g>
</g>
<!-- Node1&#45;&gt;Node9 -->
<g id="edge8" class="edge">
<title>Node1&#45;&gt;Node9</title>
<path fill="none" stroke="#63b8ff" d="M891.06,-49.8C871.15,-40.2 845.12,-27.66 827.88,-19.36"/>
<polygon fill="#63b8ff" stroke="#63b8ff" points="889.31,-53.32 899.84,-54.51 892.35,-47.02 889.31,-53.32"/>
</g>
<!-- Node10 -->
<g id="node10" class="node">
<title>Node10</title>
<g id="a_node10"><a xlink:href="_layout_model_plugin_8cpp.html" target="_top" xlink:title="Implementation of LayoutModelPlugin, the plugin class of layout package for the Model element.">
<polygon fill="white" stroke="#666666" points="978.5,-19 860.5,-19 860.5,0 978.5,0 978.5,-19"/>
<text text-anchor="middle" x="919.5" y="-7" font-family="Helvetica,sans-Serif" font-size="10.00">LayoutModelPlugin.cpp</text>
</a>
</g>
</g>
<!-- Node1&#45;&gt;Node10 -->
<g id="edge9" class="edge">
<title>Node1&#45;&gt;Node10</title>
<path fill="none" stroke="#63b8ff" d="M919.5,-43.93C919.5,-35.53 919.5,-26.13 919.5,-19.44"/>
<polygon fill="#63b8ff" stroke="#63b8ff" points="916,-43.75 919.5,-53.75 923,-43.75 916,-43.75"/>
</g>
<!-- Node11 -->
<g id="node11" class="node">
<title>Node11</title>
<g id="a_node11"><a xlink:href="_layout_s_b_m_l_document_plugin_8cpp.html" target="_top" xlink:title="Implementation of the LayoutSBMLDocumentPlugin class.">
<polygon fill="white" stroke="#666666" points="1160.5,-19 996.5,-19 996.5,0 1160.5,0 1160.5,-19"/>
<text text-anchor="middle" x="1078.5" y="-7" font-family="Helvetica,sans-Serif" font-size="10.00">LayoutSBMLDocumentPlugin.cpp</text>
</a>
</g>
</g>
<!-- Node1&#45;&gt;Node11 -->
<g id="edge10" class="edge">
<title>Node1&#45;&gt;Node11</title>
<path fill="none" stroke="#63b8ff" d="M956.67,-51.11C985.78,-41.41 1025.59,-28.14 1051.66,-19.45"/>
<polygon fill="#63b8ff" stroke="#63b8ff" points="955.85,-48.03 947.47,-54.51 958.07,-54.67 955.85,-48.03"/>
</g>
<!-- Node12 -->
<g id="node12" class="node">
<title>Node12</title>
<g id="a_node12"><a xlink:href="_line_segment_8cpp.html" target="_top" xlink:title="Implementation of LineSegment for SBML Layout.">
<polygon fill="white" stroke="#666666" points="1270.5,-19 1178.5,-19 1178.5,0 1270.5,0 1270.5,-19"/>
<text text-anchor="middle" x="1224.5" y="-7" font-family="Helvetica,sans-Serif" font-size="10.00">LineSegment.cpp</text>
</a>
</g>
</g>
<!-- Node1&#45;&gt;Node12 -->
<g id="edge11" class="edge">
<title>Node1&#45;&gt;Node12</title>
<path fill="none" stroke="#63b8ff" d="M980.75,-52.86C1039.02,-42.73 1125.42,-27.72 1178.17,-18.55"/>
<polygon fill="#63b8ff" stroke="#63b8ff" points="980.46,-49.53 971.21,-54.69 981.66,-56.42 980.46,-49.53"/>
</g>
<!-- Node13 -->
<g id="node13" class="node">
<title>Node13</title>
<g id="a_node13"><a xlink:href="_point_8cpp.html" target="_top" xlink:title="Implementation of Point for SBML Layout.">
<polygon fill="white" stroke="#666666" points="1346.5,-19 1288.5,-19 1288.5,0 1346.5,0 1346.5,-19"/>
<text text-anchor="middle" x="1317.5" y="-7" font-family="Helvetica,sans-Serif" font-size="10.00">Point.cpp</text>
</a>
</g>
</g>
<!-- Node1&#45;&gt;Node13 -->
<g id="edge12" class="edge">
<title>Node1&#45;&gt;Node13</title>
<path fill="none" stroke="#63b8ff" d="M981.07,-57.73C1052.96,-50.56 1175.33,-37.05 1279.5,-19 1282.3,-18.52 1285.2,-17.96 1288.1,-17.37"/>
<polygon fill="#63b8ff" stroke="#63b8ff" points="981.01,-54.31 971.4,-58.78 981.7,-61.28 981.01,-54.31"/>
</g>
<!-- Node14 -->
<g id="node14" class="node">
<title>Node14</title>
<g id="a_node14"><a xlink:href="_reaction_glyph_8cpp.html" target="_top" xlink:title="Implementation of ReactionGlyph for SBML Layout.">
<polygon fill="white" stroke="#666666" points="1464.5,-19 1364.5,-19 1364.5,0 1464.5,0 1464.5,-19"/>
<text text-anchor="middle" x="1414.5" y="-7" font-family="Helvetica,sans-Serif" font-size="10.00">ReactionGlyph.cpp</text>
</a>
</g>
</g>
<!-- Node1&#45;&gt;Node14 -->
<g id="edge13" class="edge">
<title>Node1&#45;&gt;Node14</title>
<path fill="none" stroke="#63b8ff" d="M981.2,-58.01C1065.76,-50.31 1222.34,-35.38 1355.5,-19 1358.38,-18.65 1361.33,-18.27 1364.31,-17.88"/>
<polygon fill="#63b8ff" stroke="#63b8ff" points="980.9,-54.62 971.26,-59.01 981.53,-61.59 980.9,-54.62"/>
</g>
<!-- Node15 -->
<g id="node15" class="node">
<title>Node15</title>
<g id="a_node15"><a xlink:href="_reference_glyph_8cpp.html" target="_top" xlink:title="Implementation of ReferenceGlyph for SBML Layout.">
<polygon fill="white" stroke="#666666" points="1588.5,-19 1482.5,-19 1482.5,0 1588.5,0 1588.5,-19"/>
<text text-anchor="middle" x="1535.5" y="-7" font-family="Helvetica,sans-Serif" font-size="10.00">ReferenceGlyph.cpp</text>
</a>
</g>
</g>
<!-- Node1&#45;&gt;Node15 -->
<g id="edge14" class="edge">
<title>Node1&#45;&gt;Node15</title>
<path fill="none" stroke="#63b8ff" d="M981.13,-59.68C1083.53,-53.09 1295.1,-38.38 1473.5,-19 1476.31,-18.69 1479.19,-18.36 1482.09,-18.02"/>
<polygon fill="#63b8ff" stroke="#63b8ff" points="981.14,-56.24 971.38,-60.37 981.59,-63.22 981.14,-56.24"/>
</g>
<!-- Node16 -->
<g id="node16" class="node">
<title>Node16</title>
<g id="a_node16"><a xlink:href="_species_glyph_8cpp.html" target="_top" xlink:title="Implementation of SpeciesGlyph for SBML Layout.">
<polygon fill="white" stroke="#666666" points="1702.5,-19 1606.5,-19 1606.5,0 1702.5,0 1702.5,-19"/>
<text text-anchor="middle" x="1654.5" y="-7" font-family="Helvetica,sans-Serif" font-size="10.00">SpeciesGlyph.cpp</text>
</a>
</g>
</g>
<!-- Node1&#45;&gt;Node16 -->
<g id="edge15" class="edge">
<title>Node1&#45;&gt;Node16</title>
<path fill="none" stroke="#63b8ff" d="M980.94,-61.17C1100.12,-56.27 1370.88,-43.29 1597.5,-19 1600.29,-18.7 1603.14,-18.37 1606.03,-18.01"/>
<polygon fill="#63b8ff" stroke="#63b8ff" points="981.08,-57.7 971.23,-61.6 981.36,-64.69 981.08,-57.7"/>
</g>
<!-- Node17 -->
<g id="node17" class="node">
<title>Node17</title>
<g id="a_node17"><a xlink:href="_species_reference_glyph_8cpp.html" target="_top" xlink:title="Implementation of SpeciesReferenceGlyph for SBML Layout.">
<polygon fill="white" stroke="#666666" points="1862,-19 1721,-19 1721,0 1862,0 1862,-19"/>
<text text-anchor="middle" x="1791.5" y="-7" font-family="Helvetica,sans-Serif" font-size="10.00">SpeciesReferenceGlyph.cpp</text>
</a>
</g>
</g>
<!-- Node1&#45;&gt;Node17 -->
<g id="edge16" class="edge">
<title>Node1&#45;&gt;Node17</title>
<path fill="none" stroke="#63b8ff" d="M980.83,-61.09C1113.98,-55.64 1439.47,-41.08 1711.5,-19 1714.56,-18.75 1717.69,-18.48 1720.85,-18.2"/>
<polygon fill="#63b8ff" stroke="#63b8ff" points="980.91,-57.63 971.06,-61.53 981.19,-64.62 980.91,-57.63"/>
</g>
<!-- Node18 -->
<g id="node18" class="node">
<title>Node18</title>
<g id="a_node18"><a xlink:href="_text_glyph_8cpp.html" target="_top" xlink:title="Implementation of TextGlyph for SBML Layout.">
<polygon fill="white" stroke="#666666" points="1960.5,-19 1880.5,-19 1880.5,0 1960.5,0 1960.5,-19"/>
<text text-anchor="middle" x="1920.5" y="-7" font-family="Helvetica,sans-Serif" font-size="10.00">TextGlyph.cpp</text>
</a>
</g>
</g>
<!-- Node1&#45;&gt;Node18 -->
<g id="edge17" class="edge">
<title>Node1&#45;&gt;Node18</title>
<path fill="none" stroke="#63b8ff" d="M981.17,-63.28C1133.01,-62.17 1536.95,-55.69 1871.5,-19 1874.33,-18.69 1877.25,-18.32 1880.18,-17.91"/>
<polygon fill="#63b8ff" stroke="#63b8ff" points="981.22,-59.79 971.24,-63.36 981.27,-66.79 981.22,-59.79"/>
</g>
</g>
</svg>
        <g id="navigator" transform="translate(0 0)" fill="#404254">
                <rect fill="#f2f5e9" fill-opacity="0.5" stroke="#606060" stroke-width=".5" x="0" y="0" width="60" height="60"/>
                <use id="zoomplus" xlink:href="#zoomPlus" x="17" y="9" onmousedown="handleZoom(evt,'in')"/>
                <use id="zoomminus" xlink:href="#zoomMin" x="42" y="9" onmousedown="handleZoom(evt,'out')"/>
                <use id="reset" xlink:href="#resetDef" x="30" y="36" onmousedown="handleReset()"/>
                <g id="arrowUp" xlink:href="#dirArrow" transform="translate(30 24)" onmousedown="handlePan(0,-1)">
                  <use xlink:href="#rim" fill="#404040">
                        <set attributeName="fill" to="#808080" begin="arrowUp.mouseover" end="arrowUp.mouseout"/>
                  </use>
                  <path fill="none" stroke="white" stroke-width="1.5" d="M0,-3.0v7 M-2.5,-0.5L0,-3.0L2.5,-0.5"/>
                </g>
                <g id="arrowRight" xlink:href="#dirArrow" transform="rotate(90) translate(36 -43)" onmousedown="handlePan(1,0)">
                  <use xlink:href="#rim" fill="#404040">
                        <set attributeName="fill" to="#808080" begin="arrowRight.mouseover" end="arrowRight.mouseout"/>
                  </use>
                  <path fill="none" stroke="white" stroke-width="1.5" d="M0,-3.0v7 M-2.5,-0.5L0,-3.0L2.5,-0.5"/>
                </g>
                <g id="arrowDown" xlink:href="#dirArrow" transform="rotate(180) translate(-30 -48)" onmousedown="handlePan(0,1)">
                  <use xlink:href="#rim" fill="#404040">
                        <set attributeName="fill" to="#808080" begin="arrowDown.mouseover" end="arrowDown.mouseout"/>
                  </use>
                  <path fill="none" stroke="white" stroke-width="1.5" d="M0,-3.0v7 M-2.5,-0.5L0,-3.0L2.5,-0.5"/>
                </g>
                <g id="arrowLeft" xlink:href="#dirArrow" transform="rotate(270) translate(-36 17)" onmousedown="handlePan(-1,0)">
                  <use xlink:href="#rim" fill="#404040">
                        <set attributeName="fill" to="#808080" begin="arrowLeft.mouseover" end="arrowLeft.mouseout"/>
                  </use>
                  <path fill="none" stroke="white" stroke-width="1.5" d="M0,-3.0v7 M-2.5,-0.5L0,-3.0L2.5,-0.5"/>
                </g>
        </g>
        <svg viewBox="0 0 15 15" width="100%" height="30px" preserveAspectRatio="xMaxYMin meet">
         <g id="arrow_out" transform="scale(0.3 0.3)">
          <a xlink:href="_layout_s_b_m_l_error_8h__dep__incl_org.svg" target="_base">
           <rect id="button" ry="5" rx="5" y="6" x="6" height="38" width="38"
                fill="#f2f5e9" fill-opacity="0.5" stroke="#606060" stroke-width="1.0"/>
           <path id="arrow"
             d="M 11.500037,31.436501 C 11.940474,20.09759 22.043105,11.32322 32.158766,21.979434 L 37.068811,17.246167 C 37.068811,17.246167 37.088388,32 37.088388,32 L 22.160133,31.978069 C 22.160133,31.978069 26.997745,27.140456 26.997745,27.140456 C 18.528582,18.264221 13.291696,25.230495 11.500037,31.436501 z"
             style="fill:#404040;"/>
          </a>
         </g>
        </svg>
</svg>
