<?xml version="1.0" encoding="UTF-8" standalone="no"?>
<!DOCTYPE svg PUBLIC "-//W3C//DTD SVG 1.1//EN"
 "http://www.w3.org/Graphics/SVG/1.1/DTD/svg11.dtd">
<!-- Generated by graphviz version 8.0.1 (20230327.1645)
 -->
<!-- Title: ListOfCSGObjects.h Pages: 1 -->
<svg width="764pt" height="192pt"
 viewBox="0.00 0.00 764.00 192.00" xmlns="http://www.w3.org/2000/svg" xmlns:xlink="http://www.w3.org/1999/xlink">
<g id="graph0" class="graph" transform="scale(1 1) rotate(0) translate(4 188)">
<title>ListOfCSGObjects.h</title>
<!-- Node1 -->
<g id="node1" class="node">
<title>Node1</title>
<g id="a_node1"><a xlink:title="Definition of the ListOfCSGObjects class.">
<polygon fill="#999999" stroke="#666666" points="393,-184 286,-184 286,-165 393,-165 393,-184"/>
<text text-anchor="middle" x="339.5" y="-172" font-family="Helvetica,sans-Serif" font-size="10.00">ListOfCSGObjects.h</text>
</a>
</g>
</g>
<!-- Node2 -->
<g id="node2" class="node">
<title>Node2</title>
<g id="a_node2"><a xlink:href="_c_s_g_object_8cpp.html" target="_top" xlink:title="Implementation of the CSGObject class.">
<polygon fill="white" stroke="#666666" points="281.5,-129 195.5,-129 195.5,-110 281.5,-110 281.5,-129"/>
<text text-anchor="middle" x="238.5" y="-117" font-family="Helvetica,sans-Serif" font-size="10.00">CSGObject.cpp</text>
</a>
</g>
</g>
<!-- Node1&#45;&gt;Node2 -->
<g id="edge1" class="edge">
<title>Node1&#45;&gt;Node2</title>
<path fill="none" stroke="#63b8ff" d="M312.63,-159.4C294.45,-149.86 270.99,-137.55 255.38,-129.36"/>
<polygon fill="#63b8ff" stroke="#63b8ff" points="310.89,-162.96 321.37,-164.51 314.14,-156.76 310.89,-162.96"/>
</g>
<!-- Node3 -->
<g id="node3" class="node">
<title>Node3</title>
<g id="a_node3"><a xlink:href="_c_s_geometry_8h.html" target="_top" xlink:title="Definition of the CSGeometry class.">
<polygon fill="white" stroke="#666666" points="379.5,-129 299.5,-129 299.5,-110 379.5,-110 379.5,-129"/>
<text text-anchor="middle" x="339.5" y="-117" font-family="Helvetica,sans-Serif" font-size="10.00">CSGeometry.h</text>
</a>
</g>
</g>
<!-- Node1&#45;&gt;Node3 -->
<g id="edge2" class="edge">
<title>Node1&#45;&gt;Node3</title>
<path fill="none" stroke="#63b8ff" d="M339.5,-153.93C339.5,-145.53 339.5,-136.13 339.5,-129.44"/>
<polygon fill="#63b8ff" stroke="#63b8ff" points="336,-153.75 339.5,-163.75 343,-153.75 336,-153.75"/>
</g>
<!-- Node11 -->
<g id="node11" class="node">
<title>Node11</title>
<g id="a_node11"><a xlink:href="_list_of_c_s_g_objects_8cpp.html" target="_top" xlink:title="Implementation of the ListOfCSGObjects class.">
<polygon fill="white" stroke="#666666" points="515,-129 398,-129 398,-110 515,-110 515,-129"/>
<text text-anchor="middle" x="456.5" y="-117" font-family="Helvetica,sans-Serif" font-size="10.00">ListOfCSGObjects.cpp</text>
</a>
</g>
</g>
<!-- Node1&#45;&gt;Node11 -->
<g id="edge10" class="edge">
<title>Node1&#45;&gt;Node11</title>
<path fill="none" stroke="#63b8ff" d="M369.17,-160.06C390.42,-150.43 418.44,-137.74 436.95,-129.36"/>
<polygon fill="#63b8ff" stroke="#63b8ff" points="368.01,-157.19 360.35,-164.51 370.9,-163.57 368.01,-157.19"/>
</g>
<!-- Node4 -->
<g id="node4" class="node">
<title>Node4</title>
<g id="a_node4"><a xlink:href="_c_s_geometry_8cpp.html" target="_top" xlink:title="Implementation of the CSGeometry class.">
<polygon fill="white" stroke="#666666" points="91,-74 0,-74 0,-55 91,-55 91,-74"/>
<text text-anchor="middle" x="45.5" y="-62" font-family="Helvetica,sans-Serif" font-size="10.00">CSGeometry.cpp</text>
</a>
</g>
</g>
<!-- Node3&#45;&gt;Node4 -->
<g id="edge3" class="edge">
<title>Node3&#45;&gt;Node4</title>
<path fill="none" stroke="#63b8ff" d="M288.56,-109.32C232.89,-99.28 144.51,-83.35 91.06,-73.71"/>
<polygon fill="#63b8ff" stroke="#63b8ff" points="287.77,-112.91 298.24,-111.24 289.02,-106.02 287.77,-112.91"/>
</g>
<!-- Node5 -->
<g id="node5" class="node">
<title>Node5</title>
<g id="a_node5"><a xlink:href="_geometry_8cpp.html" target="_top" xlink:title="Implementation of the Geometry class.">
<polygon fill="white" stroke="#666666" points="186,-74 109,-74 109,-55 186,-55 186,-74"/>
<text text-anchor="middle" x="147.5" y="-62" font-family="Helvetica,sans-Serif" font-size="10.00">Geometry.cpp</text>
</a>
</g>
</g>
<!-- Node3&#45;&gt;Node5 -->
<g id="edge4" class="edge">
<title>Node3&#45;&gt;Node5</title>
<path fill="none" stroke="#63b8ff" d="M296.45,-106.62C261.15,-96.87 211.94,-83.29 179.91,-74.45"/>
<polygon fill="#63b8ff" stroke="#63b8ff" points="295.36,-110.22 305.93,-109.51 297.22,-103.47 295.36,-110.22"/>
</g>
<!-- Node6 -->
<g id="node6" class="node">
<title>Node6</title>
<g id="a_node6"><a xlink:href="_geometry_definition_8cpp.html" target="_top" xlink:title="Implementation of the GeometryDefinition class.">
<polygon fill="white" stroke="#666666" points="323,-74 204,-74 204,-55 323,-55 323,-74"/>
<text text-anchor="middle" x="263.5" y="-62" font-family="Helvetica,sans-Serif" font-size="10.00">GeometryDefinition.cpp</text>
</a>
</g>
</g>
<!-- Node3&#45;&gt;Node6 -->
<g id="edge5" class="edge">
<title>Node3&#45;&gt;Node6</title>
<path fill="none" stroke="#63b8ff" d="M317.93,-103.46C304.46,-94.06 287.56,-82.28 276.2,-74.36"/>
<polygon fill="#63b8ff" stroke="#63b8ff" points="315.4,-106.66 325.61,-109.51 319.41,-100.92 315.4,-106.66"/>
</g>
<!-- Node7 -->
<g id="node7" class="node">
<title>Node7</title>
<g id="a_node7"><a xlink:href="_list_of_geometry_definitions_8cpp.html" target="_top" xlink:title="Implementation of the ListOfGeometryDefinitions class.">
<polygon fill="white" stroke="#666666" points="492,-74 341,-74 341,-55 492,-55 492,-74"/>
<text text-anchor="middle" x="416.5" y="-62" font-family="Helvetica,sans-Serif" font-size="10.00">ListOfGeometryDefinitions.cpp</text>
</a>
</g>
</g>
<!-- Node3&#45;&gt;Node7 -->
<g id="edge6" class="edge">
<title>Node3&#45;&gt;Node7</title>
<path fill="none" stroke="#63b8ff" d="M361.35,-103.46C375,-94.06 392.12,-82.28 403.63,-74.36"/>
<polygon fill="#63b8ff" stroke="#63b8ff" points="359.81,-100.96 353.56,-109.51 363.78,-106.72 359.81,-100.96"/>
</g>
<!-- Node8 -->
<g id="node8" class="node">
<title>Node8</title>
<g id="a_node8"><a xlink:href="_mixed_geometry_8cpp.html" target="_top" xlink:title="Implementation of the MixedGeometry class.">
<polygon fill="white" stroke="#666666" points="613,-74 510,-74 510,-55 613,-55 613,-74"/>
<text text-anchor="middle" x="561.5" y="-62" font-family="Helvetica,sans-Serif" font-size="10.00">MixedGeometry.cpp</text>
</a>
</g>
</g>
<!-- Node3&#45;&gt;Node8 -->
<g id="edge7" class="edge">
<title>Node3&#45;&gt;Node8</title>
<path fill="none" stroke="#63b8ff" d="M387.7,-106.99C428.62,-97.22 486.51,-83.4 524.03,-74.45"/>
<polygon fill="#63b8ff" stroke="#63b8ff" points="387.07,-103.78 378.16,-109.51 388.7,-110.59 387.07,-103.78"/>
</g>
<!-- Node9 -->
<g id="node9" class="node">
<title>Node9</title>
<g id="a_node9"><a xlink:href="_spatial_extension_types_8h.html" target="_top" xlink:title="Definition of SpatialExtensionTypes.">
<polygon fill="white" stroke="#666666" points="756,-74 631,-74 631,-55 756,-55 756,-74"/>
<text text-anchor="middle" x="693.5" y="-62" font-family="Helvetica,sans-Serif" font-size="10.00">SpatialExtensionTypes.h</text>
</a>
</g>
</g>
<!-- Node3&#45;&gt;Node9 -->
<g id="edge8" class="edge">
<title>Node3&#45;&gt;Node9</title>
<path fill="none" stroke="#63b8ff" d="M390.5,-109.88C480.03,-95.78 571.38,-82.64 630.56,-74.28"/>
<polygon fill="#63b8ff" stroke="#63b8ff" points="390.21,-106.54 380.88,-111.55 391.3,-113.45 390.21,-106.54"/>
</g>
<!-- Node10 -->
<g id="node10" class="node">
<title>Node10</title>
<g id="a_node10"><a xlink:href="_spatial_validator_8cpp.html" target="_top" xlink:title="Definition of SpatialValidator.">
<polygon fill="white" stroke="#666666" points="744.5,-19 642.5,-19 642.5,0 744.5,0 744.5,-19"/>
<text text-anchor="middle" x="693.5" y="-7" font-family="Helvetica,sans-Serif" font-size="10.00">SpatialValidator.cpp</text>
</a>
</g>
</g>
<!-- Node9&#45;&gt;Node10 -->
<g id="edge9" class="edge">
<title>Node9&#45;&gt;Node10</title>
<path fill="none" stroke="#63b8ff" d="M693.5,-43.93C693.5,-35.53 693.5,-26.13 693.5,-19.44"/>
<polygon fill="#63b8ff" stroke="#63b8ff" points="690,-43.75 693.5,-53.75 697,-43.75 690,-43.75"/>
</g>
</g>
</svg>
