<?xml version="1.0" encoding="UTF-8" standalone="no"?>
<!DOCTYPE svg PUBLIC "-//W3C//DTD SVG 1.1//EN"
 "http://www.w3.org/Graphics/SVG/1.1/DTD/svg11.dtd">
<!-- Generated by graphviz version 8.0.1 (20230327.1645)
 -->
<!-- Title: ListOfColorDefinitions.h Pages: 1 -->
<svg width="1414pt" height="412pt"
 viewBox="0.00 0.00 1414.00 412.00" xmlns="http://www.w3.org/2000/svg" xmlns:xlink="http://www.w3.org/1999/xlink">
<g id="graph0" class="graph" transform="scale(1 1) rotate(0) translate(4 408)">
<title>ListOfColorDefinitions.h</title>
<!-- Node1 -->
<g id="node1" class="node">
<title>Node1</title>
<g id="a_node1"><a xlink:title="Definition of the ListOfColorDefinitions class.">
<polygon fill="#999999" stroke="#666666" points="877.5,-404 756.5,-404 756.5,-385 877.5,-385 877.5,-404"/>
<text text-anchor="middle" x="817" y="-392" font-family="Helvetica,sans-Serif" font-size="10.00">ListOfColorDefinitions.h</text>
</a>
</g>
</g>
<!-- Node2 -->
<g id="node2" class="node">
<title>Node2</title>
<g id="a_node2"><a xlink:href="_color_definition_8cpp.html" target="_top" xlink:title="Implementation of the ColorDefinition class.">
<polygon fill="white" stroke="#666666" points="659,-349 559,-349 559,-330 659,-330 659,-349"/>
<text text-anchor="middle" x="609" y="-337" font-family="Helvetica,sans-Serif" font-size="10.00">ColorDefinition.cpp</text>
</a>
</g>
</g>
<!-- Node1&#45;&gt;Node2 -->
<g id="edge1" class="edge">
<title>Node1&#45;&gt;Node2</title>
<path fill="none" stroke="#63b8ff" d="M771.35,-381.87C733.04,-372.11 679.11,-358.37 644.11,-349.45"/>
<polygon fill="#63b8ff" stroke="#63b8ff" points="770.16,-385.43 780.72,-384.51 771.89,-378.65 770.16,-385.43"/>
</g>
<!-- Node3 -->
<g id="node3" class="node">
<title>Node3</title>
<g id="a_node3"><a xlink:href="_list_of_color_definitions_8cpp.html" target="_top" xlink:title="Implementation of the ListOfColorDefinitions class.">
<polygon fill="white" stroke="#666666" points="808.5,-349 677.5,-349 677.5,-330 808.5,-330 808.5,-349"/>
<text text-anchor="middle" x="743" y="-337" font-family="Helvetica,sans-Serif" font-size="10.00">ListOfColorDefinitions.cpp</text>
</a>
</g>
</g>
<!-- Node1&#45;&gt;Node3 -->
<g id="edge2" class="edge">
<title>Node1&#45;&gt;Node3</title>
<path fill="none" stroke="#63b8ff" d="M795.62,-378.19C782.56,-368.84 766.32,-357.21 755.37,-349.36"/>
<polygon fill="#63b8ff" stroke="#63b8ff" points="793.28,-381.53 803.45,-384.51 797.35,-375.84 793.28,-381.53"/>
</g>
<!-- Node4 -->
<g id="node4" class="node">
<title>Node4</title>
<g id="a_node4"><a xlink:href="_render_extension_types_8h.html" target="_top" xlink:title="Definition of RenderExtensionTypes.">
<polygon fill="white" stroke="#666666" points="902,-129 776,-129 776,-110 902,-110 902,-129"/>
<text text-anchor="middle" x="839" y="-117" font-family="Helvetica,sans-Serif" font-size="10.00">RenderExtensionTypes.h</text>
</a>
</g>
</g>
<!-- Node1&#45;&gt;Node4 -->
<g id="edge3" class="edge">
<title>Node1&#45;&gt;Node4</title>
<path fill="none" stroke="#63b8ff" d="M888.76,-387.76C1045.8,-374.23 1406,-337.53 1406,-285.5 1406,-285.5 1406,-285.5 1406,-228.5 1406,-195.84 1396.61,-182.45 1369,-165 1330.36,-140.59 1034.44,-127.32 902.34,-122.56"/>
<polygon fill="#63b8ff" stroke="#63b8ff" points="888.48,-384.36 878.81,-388.69 889.08,-391.33 888.48,-384.36"/>
</g>
<!-- Node11 -->
<g id="node11" class="node">
<title>Node11</title>
<g id="a_node11"><a xlink:href="_render_information_base_8h.html" target="_top" xlink:title="Definition of the RenderInformationBase class.">
<polygon fill="white" stroke="#666666" points="955,-349 827,-349 827,-330 955,-330 955,-349"/>
<text text-anchor="middle" x="891" y="-337" font-family="Helvetica,sans-Serif" font-size="10.00">RenderInformationBase.h</text>
</a>
</g>
</g>
<!-- Node1&#45;&gt;Node11 -->
<g id="edge12" class="edge">
<title>Node1&#45;&gt;Node11</title>
<path fill="none" stroke="#63b8ff" d="M838.38,-378.19C851.44,-368.84 867.68,-357.21 878.63,-349.36"/>
<polygon fill="#63b8ff" stroke="#63b8ff" points="836.65,-375.84 830.55,-384.51 840.72,-381.53 836.65,-375.84"/>
</g>
<!-- Node5 -->
<g id="node5" class="node">
<title>Node5</title>
<g id="a_node5"><a xlink:href="_render_layout_converter_8cpp.html" target="_top" xlink:title="Simple converter to convert Layout + Render from l2 to L3 and vice versa.">
<polygon fill="white" stroke="#666666" points="1047,-74 909,-74 909,-55 1047,-55 1047,-74"/>
<text text-anchor="middle" x="978" y="-62" font-family="Helvetica,sans-Serif" font-size="10.00">RenderLayoutConverter.cpp</text>
</a>
</g>
</g>
<!-- Node4&#45;&gt;Node5 -->
<g id="edge4" class="edge">
<title>Node4&#45;&gt;Node5</title>
<path fill="none" stroke="#63b8ff" d="M872.54,-105.71C897.97,-96.01 932.29,-82.93 954.77,-74.36"/>
<polygon fill="#63b8ff" stroke="#63b8ff" points="871.68,-102.68 863.58,-109.51 874.17,-109.22 871.68,-102.68"/>
</g>
<!-- Node6 -->
<g id="node6" class="node">
<title>Node6</title>
<g id="a_node6"><a xlink:href="_render_layout_plugin_8cpp.html" target="_top" xlink:title="Implementation of RenderLayoutPlugin, the plugin class of the fbc package for the Model element.">
<polygon fill="white" stroke="#666666" points="1136.5,-19 1013.5,-19 1013.5,0 1136.5,0 1136.5,-19"/>
<text text-anchor="middle" x="1075" y="-7" font-family="Helvetica,sans-Serif" font-size="10.00">RenderLayoutPlugin.cpp</text>
</a>
</g>
</g>
<!-- Node4&#45;&gt;Node6 -->
<g id="edge5" class="edge">
<title>Node4&#45;&gt;Node6</title>
<path fill="none" stroke="#63b8ff" d="M913.01,-111.45C967.39,-104.8 1035.25,-92.99 1056,-74 1071.62,-59.7 1074.6,-33.15 1075.04,-19.35"/>
<polygon fill="#63b8ff" stroke="#63b8ff" points="912.86,-108.06 903.34,-112.71 913.68,-115.01 912.86,-108.06"/>
</g>
<!-- Node7 -->
<g id="node7" class="node">
<title>Node7</title>
<g id="a_node7"><a xlink:href="_render_utilities_8cpp.html" target="_top" xlink:title="implementation of RenderUtilities, a class of utility functions for the render package">
<polygon fill="white" stroke="#666666" points="739,-19 639,-19 639,0 739,0 739,-19"/>
<text text-anchor="middle" x="689" y="-7" font-family="Helvetica,sans-Serif" font-size="10.00">RenderUtilities.cpp</text>
</a>
</g>
</g>
<!-- Node4&#45;&gt;Node7 -->
<g id="edge6" class="edge">
<title>Node4&#45;&gt;Node7</title>
<path fill="none" stroke="#63b8ff" d="M764.89,-107.92C725.54,-100.63 682.88,-89.44 671,-74 658.28,-57.47 672.74,-32.35 682.17,-19.21"/>
<polygon fill="#63b8ff" stroke="#63b8ff" points="764.15,-111.53 774.61,-109.83 765.38,-104.63 764.15,-111.53"/>
</g>
<!-- Node8 -->
<g id="node8" class="node">
<title>Node8</title>
<g id="a_node8"><a xlink:href="_render_utilities_8h.html" target="_top" xlink:title="Definition of RenderUtilities, a class of utility functions for the render package.">
<polygon fill="white" stroke="#666666" points="768.5,-74 679.5,-74 679.5,-55 768.5,-55 768.5,-74"/>
<text text-anchor="middle" x="724" y="-62" font-family="Helvetica,sans-Serif" font-size="10.00">RenderUtilities.h</text>
</a>
</g>
</g>
<!-- Node4&#45;&gt;Node8 -->
<g id="edge7" class="edge">
<title>Node4&#45;&gt;Node8</title>
<path fill="none" stroke="#63b8ff" d="M809.56,-104.93C788.7,-95.32 761.32,-82.7 743.22,-74.36"/>
<polygon fill="#63b8ff" stroke="#63b8ff" points="807.94,-108.5 818.49,-109.51 810.87,-102.14 807.94,-108.5"/>
</g>
<!-- Node10 -->
<g id="node10" class="node">
<title>Node10</title>
<g id="a_node10"><a xlink:href="_render_validator_8cpp.html" target="_top" xlink:title="Definition of RenderValidator.">
<polygon fill="white" stroke="#666666" points="891,-74 787,-74 787,-55 891,-55 891,-74"/>
<text text-anchor="middle" x="839" y="-62" font-family="Helvetica,sans-Serif" font-size="10.00">RenderValidator.cpp</text>
</a>
</g>
</g>
<!-- Node4&#45;&gt;Node10 -->
<g id="edge11" class="edge">
<title>Node4&#45;&gt;Node10</title>
<path fill="none" stroke="#63b8ff" d="M839,-98.93C839,-90.53 839,-81.13 839,-74.44"/>
<polygon fill="#63b8ff" stroke="#63b8ff" points="835.5,-98.75 839,-108.75 842.5,-98.75 835.5,-98.75"/>
</g>
<!-- Node8&#45;&gt;Node6 -->
<g id="edge8" class="edge">
<title>Node8&#45;&gt;Node6</title>
<path fill="none" stroke="#63b8ff" d="M779.45,-54.79C867,-41.36 956.41,-28.04 1014.12,-19.49"/>
<polygon fill="#63b8ff" stroke="#63b8ff" points="779.14,-51.45 769.79,-56.42 780.2,-58.37 779.14,-51.45"/>
</g>
<!-- Node8&#45;&gt;Node7 -->
<g id="edge10" class="edge">
<title>Node8&#45;&gt;Node7</title>
<path fill="none" stroke="#63b8ff" d="M712.21,-45.65C706.39,-36.84 699.63,-26.59 694.91,-19.44"/>
<polygon fill="#63b8ff" stroke="#63b8ff" points="709.79,-47.33 718.22,-53.75 715.63,-43.47 709.79,-47.33"/>
</g>
<!-- Node9 -->
<g id="node9" class="node">
<title>Node9</title>
<g id="a_node9"><a xlink:href="_render_list_of_layouts_plugin_8cpp.html" target="_top" xlink:title="Implementation of RenderListOfLayoutsPlugin, the plugin class of the fbc package for the Model elemen...">
<polygon fill="white" stroke="#666666" points="385.5,-19 230.5,-19 230.5,0 385.5,0 385.5,-19"/>
<text text-anchor="middle" x="308" y="-7" font-family="Helvetica,sans-Serif" font-size="10.00">RenderListOfLayoutsPlugin.cpp</text>
</a>
</g>
</g>
<!-- Node8&#45;&gt;Node9 -->
<g id="edge9" class="edge">
<title>Node8&#45;&gt;Node9</title>
<path fill="none" stroke="#63b8ff" d="M668.47,-56.43C593.56,-46.88 460.12,-29.88 378.3,-19.46"/>
<polygon fill="#63b8ff" stroke="#63b8ff" points="667.72,-59.99 678.09,-57.78 668.61,-53.04 667.72,-59.99"/>
</g>
<!-- Node11&#45;&gt;Node4 -->
<g id="edge46" class="edge">
<title>Node11&#45;&gt;Node4</title>
<path fill="none" stroke="#63b8ff" d="M965.89,-335.09C1122.98,-325.41 1463.36,-289.77 1349,-165 1319.35,-132.65 1031.9,-123.73 902.08,-121.34"/>
<polygon fill="#63b8ff" stroke="#63b8ff" points="966.13,-331.62 956.36,-335.71 966.55,-338.61 966.13,-331.62"/>
</g>
<!-- Node12 -->
<g id="node12" class="node">
<title>Node12</title>
<g id="a_node12"><a xlink:href="_global_render_information_8h.html" target="_top" xlink:title="Definition of the GlobalRenderInformation class.">
<polygon fill="white" stroke="#666666" points="500.5,-294 367.5,-294 367.5,-275 500.5,-275 500.5,-294"/>
<text text-anchor="middle" x="434" y="-282" font-family="Helvetica,sans-Serif" font-size="10.00">GlobalRenderInformation.h</text>
</a>
</g>
</g>
<!-- Node11&#45;&gt;Node12 -->
<g id="edge13" class="edge">
<title>Node11&#45;&gt;Node12</title>
<path fill="none" stroke="#63b8ff" d="M815.62,-329.72C699.06,-316.19 575.25,-301.85 500.94,-293.25"/>
<polygon fill="#63b8ff" stroke="#63b8ff" points="815.18,-333.31 825.51,-330.99 815.98,-326.36 815.18,-333.31"/>
</g>
<!-- Node18 -->
<g id="node18" class="node">
<title>Node18</title>
<g id="a_node18"><a xlink:href="_render_information_base_8cpp.html" target="_top" xlink:title="Implementation of the RenderInformationBase class.">
<polygon fill="white" stroke="#666666" points="792,-184 654,-184 654,-165 792,-165 792,-184"/>
<text text-anchor="middle" x="723" y="-172" font-family="Helvetica,sans-Serif" font-size="10.00">RenderInformationBase.cpp</text>
</a>
</g>
</g>
<!-- Node11&#45;&gt;Node18 -->
<g id="edge47" class="edge">
<title>Node11&#45;&gt;Node18</title>
<path fill="none" stroke="#63b8ff" d="M863.35,-324.65C849.01,-316.74 831.68,-306.02 818,-294 778,-258.83 741.98,-205.38 728.56,-184.4"/>
<polygon fill="#63b8ff" stroke="#63b8ff" points="861.26,-328.03 871.73,-329.65 864.55,-321.85 861.26,-328.03"/>
</g>
<!-- Node19 -->
<g id="node19" class="node">
<title>Node19</title>
<g id="a_node19"><a xlink:href="_local_render_information_8h.html" target="_top" xlink:title="Definition of the LocalRenderInformation class.">
<polygon fill="white" stroke="#666666" points="955,-294 827,-294 827,-275 955,-275 955,-294"/>
<text text-anchor="middle" x="891" y="-282" font-family="Helvetica,sans-Serif" font-size="10.00">LocalRenderInformation.h</text>
</a>
</g>
</g>
<!-- Node11&#45;&gt;Node19 -->
<g id="edge30" class="edge">
<title>Node11&#45;&gt;Node19</title>
<path fill="none" stroke="#63b8ff" d="M891,-318.93C891,-310.53 891,-301.13 891,-294.44"/>
<polygon fill="#63b8ff" stroke="#63b8ff" points="887.5,-318.75 891,-328.75 894.5,-318.75 887.5,-318.75"/>
</g>
<!-- Node12&#45;&gt;Node4 -->
<g id="edge26" class="edge">
<title>Node12&#45;&gt;Node4</title>
<path fill="none" stroke="#63b8ff" d="M457.93,-268.91C504.67,-240.61 606.84,-179.74 645,-165 689,-148.01 741.23,-136.48 780.41,-129.43"/>
<polygon fill="#63b8ff" stroke="#63b8ff" points="456.32,-266.4 449.58,-274.58 459.95,-272.39 456.32,-266.4"/>
</g>
<!-- Node12&#45;&gt;Node9 -->
<g id="edge28" class="edge">
<title>Node12&#45;&gt;Node9</title>
<path fill="none" stroke="#63b8ff" d="M356.51,-280.02C231.7,-272.27 0,-248.12 0,-175.5 0,-175.5 0,-175.5 0,-118.5 0,-67.01 155.25,-34.19 245.3,-19.49"/>
<polygon fill="#63b8ff" stroke="#63b8ff" points="355.95,-283.55 366.14,-280.66 356.37,-276.56 355.95,-283.55"/>
</g>
<!-- Node13 -->
<g id="node13" class="node">
<title>Node13</title>
<g id="a_node13"><a xlink:href="_global_render_information_8cpp.html" target="_top" xlink:title="class for the storage of global render information">
<polygon fill="white" stroke="#666666" points="171.5,-184 28.5,-184 28.5,-165 171.5,-165 171.5,-184"/>
<text text-anchor="middle" x="100" y="-172" font-family="Helvetica,sans-Serif" font-size="10.00">GlobalRenderInformation.cpp</text>
</a>
</g>
</g>
<!-- Node12&#45;&gt;Node13 -->
<g id="edge14" class="edge">
<title>Node12&#45;&gt;Node13</title>
<path fill="none" stroke="#63b8ff" d="M394.2,-271.34C365.48,-262.51 325.79,-250.19 291,-239 232.12,-220.05 163.36,-196.95 126.52,-184.5"/>
<polygon fill="#63b8ff" stroke="#63b8ff" points="393.06,-274.96 403.64,-274.55 395.11,-268.27 393.06,-274.96"/>
</g>
<!-- Node14 -->
<g id="node14" class="node">
<title>Node14</title>
<g id="a_node14"><a xlink:href="_list_of_global_render_information_8h.html" target="_top" xlink:title="Definition of the ListOfGlobalRenderInformation class.">
<polygon fill="white" stroke="#666666" points="459.5,-239 300.5,-239 300.5,-220 459.5,-220 459.5,-239"/>
<text text-anchor="middle" x="380" y="-227" font-family="Helvetica,sans-Serif" font-size="10.00">ListOfGlobalRenderInformation.h</text>
</a>
</g>
</g>
<!-- Node12&#45;&gt;Node14 -->
<g id="edge15" class="edge">
<title>Node12&#45;&gt;Node14</title>
<path fill="none" stroke="#63b8ff" d="M411.29,-267.37C401.02,-258.16 389.98,-246.98 383.84,-239.36"/>
<polygon fill="#63b8ff" stroke="#63b8ff" points="408.75,-270.66 418.62,-274.51 413.31,-265.34 408.75,-270.66"/>
</g>
<!-- Node16 -->
<g id="node16" class="node">
<title>Node16</title>
<g id="a_node16"><a xlink:href="_render_list_of_layouts_plugin_8h.html" target="_top" xlink:title="Definition of RenderListOfLayoutsPlugin, the plugin class of fbc package for the Model element.">
<polygon fill="white" stroke="#666666" points="560,-184 416,-184 416,-165 560,-165 560,-184"/>
<text text-anchor="middle" x="488" y="-172" font-family="Helvetica,sans-Serif" font-size="10.00">RenderListOfLayoutsPlugin.h</text>
</a>
</g>
</g>
<!-- Node12&#45;&gt;Node16 -->
<g id="edge29" class="edge">
<title>Node12&#45;&gt;Node16</title>
<path fill="none" stroke="#63b8ff" d="M449.39,-266.3C455.83,-258.41 462.98,-248.68 468,-239 477.58,-220.53 483.58,-196.64 486.29,-184.08"/>
<polygon fill="#63b8ff" stroke="#63b8ff" points="446.14,-263.72 442.31,-273.6 451.46,-268.26 446.14,-263.72"/>
</g>
<!-- Node12&#45;&gt;Node18 -->
<g id="edge27" class="edge">
<title>Node12&#45;&gt;Node18</title>
<path fill="none" stroke="#63b8ff" d="M511.55,-274.98C551.3,-268.6 599.69,-257.63 640,-239 670.3,-225 699.92,-198.32 714.19,-184.42"/>
<polygon fill="#63b8ff" stroke="#63b8ff" points="511.2,-271.65 501.84,-276.62 512.26,-278.57 511.2,-271.65"/>
</g>
<!-- Node14&#45;&gt;Node4 -->
<g id="edge19" class="edge">
<title>Node14&#45;&gt;Node4</title>
<path fill="none" stroke="#63b8ff" d="M440.01,-217.33C477.57,-209.61 526.68,-198.2 569,-184 588.81,-177.36 592.07,-171.27 612,-165 666.21,-147.95 729.84,-136.15 775.92,-129.01"/>
<polygon fill="#63b8ff" stroke="#63b8ff" points="439.36,-214.09 430.25,-219.5 440.74,-220.95 439.36,-214.09"/>
</g>
<!-- Node14&#45;&gt;Node9 -->
<g id="edge20" class="edge">
<title>Node14&#45;&gt;Node9</title>
<path fill="none" stroke="#63b8ff" d="M309.11,-217.56C271.34,-210.13 230.36,-198.92 219,-184 175.74,-127.16 264.25,-46.15 296.71,-19.43"/>
<polygon fill="#63b8ff" stroke="#63b8ff" points="308.17,-221.13 318.65,-219.56 309.47,-214.26 308.17,-221.13"/>
</g>
<!-- Node14&#45;&gt;Node12 -->
<g id="edge17" class="edge">
<title>Node14&#45;&gt;Node12</title>
<path fill="none" stroke="#63b8ff" d="M402.38,-246.34C412.8,-255.64 424.06,-267.05 430.25,-274.75"/>
<polygon fill="#63b8ff" stroke="#63b8ff" points="405.19,-243.28 395.32,-239.44 400.64,-248.6 405.19,-243.28"/>
</g>
<!-- Node14&#45;&gt;Node13 -->
<g id="edge16" class="edge">
<title>Node14&#45;&gt;Node13</title>
<path fill="none" stroke="#63b8ff" d="M321.83,-217.49C270.1,-207.7 195.39,-193.56 147.26,-184.45"/>
<polygon fill="#63b8ff" stroke="#63b8ff" points="321.03,-221.09 331.5,-219.51 322.33,-214.21 321.03,-221.09"/>
</g>
<!-- Node15 -->
<g id="node15" class="node">
<title>Node15</title>
<g id="a_node15"><a xlink:href="_list_of_global_render_information_8cpp.html" target="_top" xlink:title="Implementation of the ListOfGlobalRenderInformation class.">
<polygon fill="white" stroke="#666666" points="398,-184 228,-184 228,-165 398,-165 398,-184"/>
<text text-anchor="middle" x="313" y="-172" font-family="Helvetica,sans-Serif" font-size="10.00">ListOfGlobalRenderInformation.cpp</text>
</a>
</g>
</g>
<!-- Node14&#45;&gt;Node15 -->
<g id="edge18" class="edge">
<title>Node14&#45;&gt;Node15</title>
<path fill="none" stroke="#63b8ff" d="M360.3,-212.92C348.54,-203.61 334.02,-192.13 324.2,-184.36"/>
<polygon fill="#63b8ff" stroke="#63b8ff" points="357.62,-216.05 367.63,-219.51 361.96,-210.56 357.62,-216.05"/>
</g>
<!-- Node14&#45;&gt;Node16 -->
<g id="edge21" class="edge">
<title>Node14&#45;&gt;Node16</title>
<path fill="none" stroke="#63b8ff" d="M408.19,-214.67C427.71,-205.09 453.1,-192.62 469.95,-184.36"/>
<polygon fill="#63b8ff" stroke="#63b8ff" points="406.76,-211.96 399.32,-219.51 409.84,-218.25 406.76,-211.96"/>
</g>
<!-- Node16&#45;&gt;Node4 -->
<g id="edge23" class="edge">
<title>Node16&#45;&gt;Node4</title>
<path fill="none" stroke="#63b8ff" d="M558.07,-162.92C622.9,-153.13 718.23,-138.74 779.46,-129.49"/>
<polygon fill="#63b8ff" stroke="#63b8ff" points="557.91,-159.56 548.54,-164.51 558.95,-166.48 557.91,-159.56"/>
</g>
<!-- Node16&#45;&gt;Node7 -->
<g id="edge25" class="edge">
<title>Node16&#45;&gt;Node7</title>
<path fill="none" stroke="#63b8ff" d="M507.57,-157.63C549.28,-123.8 645.81,-45.53 678.19,-19.27"/>
<polygon fill="#63b8ff" stroke="#63b8ff" points="505.66,-155.49 500.09,-164.5 510.06,-160.92 505.66,-155.49"/>
</g>
<!-- Node16&#45;&gt;Node9 -->
<g id="edge24" class="edge">
<title>Node16&#45;&gt;Node9</title>
<path fill="none" stroke="#63b8ff" d="M470,-157.2C432.39,-123.15 346.56,-45.42 317.68,-19.27"/>
<polygon fill="#63b8ff" stroke="#63b8ff" points="467.3,-159.39 477.07,-163.5 472,-154.2 467.3,-159.39"/>
</g>
<!-- Node17 -->
<g id="node17" class="node">
<title>Node17</title>
<g id="a_node17"><a xlink:href="_render_extension_8cpp.html" target="_top" xlink:title="Implementation of RenderExtension, the core module of the render package.">
<polygon fill="white" stroke="#666666" points="738,-129 628,-129 628,-110 738,-110 738,-129"/>
<text text-anchor="middle" x="683" y="-117" font-family="Helvetica,sans-Serif" font-size="10.00">RenderExtension.cpp</text>
</a>
</g>
</g>
<!-- Node16&#45;&gt;Node17 -->
<g id="edge22" class="edge">
<title>Node16&#45;&gt;Node17</title>
<path fill="none" stroke="#63b8ff" d="M531.26,-161.74C567.14,-151.99 617.41,-138.33 650.08,-129.45"/>
<polygon fill="#63b8ff" stroke="#63b8ff" points="530.81,-158.51 522.08,-164.51 532.65,-165.26 530.81,-158.51"/>
</g>
<!-- Node19&#45;&gt;Node4 -->
<g id="edge42" class="edge">
<title>Node19&#45;&gt;Node4</title>
<path fill="none" stroke="#63b8ff" d="M877.13,-265.7C871.66,-257.89 865.8,-248.38 862,-239 846.27,-200.15 841.08,-149.68 839.56,-129.45"/>
<polygon fill="#63b8ff" stroke="#63b8ff" points="874.9,-267.57 883.65,-273.54 880.53,-263.41 874.9,-267.57"/>
</g>
<!-- Node19&#45;&gt;Node16 -->
<g id="edge45" class="edge">
<title>Node19&#45;&gt;Node16</title>
<path fill="none" stroke="#63b8ff" d="M847.32,-271.79C766.2,-250.05 593.95,-203.89 521.36,-184.44"/>
<polygon fill="#63b8ff" stroke="#63b8ff" points="846.11,-275.36 856.68,-274.57 847.92,-268.6 846.11,-275.36"/>
</g>
<!-- Node19&#45;&gt;Node18 -->
<g id="edge43" class="edge">
<title>Node19&#45;&gt;Node18</title>
<path fill="none" stroke="#63b8ff" d="M861.8,-269.76C845.07,-261.51 823.91,-250.42 806,-239 778.46,-221.44 748.62,-197.18 733.32,-184.32"/>
<polygon fill="#63b8ff" stroke="#63b8ff" points="860.05,-273.28 870.57,-274.5 863.11,-266.99 860.05,-273.28"/>
</g>
<!-- Node20 -->
<g id="node20" class="node">
<title>Node20</title>
<g id="a_node20"><a xlink:href="_list_of_local_render_information_8h.html" target="_top" xlink:title="Definition of the ListOfLocalRenderInformation class.">
<polygon fill="white" stroke="#666666" points="1025.5,-239 870.5,-239 870.5,-220 1025.5,-220 1025.5,-239"/>
<text text-anchor="middle" x="948" y="-227" font-family="Helvetica,sans-Serif" font-size="10.00">ListOfLocalRenderInformation.h</text>
</a>
</g>
</g>
<!-- Node19&#45;&gt;Node20 -->
<g id="edge31" class="edge">
<title>Node19&#45;&gt;Node20</title>
<path fill="none" stroke="#63b8ff" d="M908.65,-267.09C918.49,-257.94 930.36,-246.9 938.47,-239.36"/>
<polygon fill="#63b8ff" stroke="#63b8ff" points="906.61,-264.14 901.67,-273.51 911.38,-269.26 906.61,-264.14"/>
</g>
<!-- Node22 -->
<g id="node22" class="node">
<title>Node22</title>
<g id="a_node22"><a xlink:href="_local_render_information_8cpp.html" target="_top" xlink:title="Implementation of the LocalRenderInformation class.">
<polygon fill="white" stroke="#666666" points="1208.5,-184 1069.5,-184 1069.5,-165 1208.5,-165 1208.5,-184"/>
<text text-anchor="middle" x="1139" y="-172" font-family="Helvetica,sans-Serif" font-size="10.00">LocalRenderInformation.cpp</text>
</a>
</g>
</g>
<!-- Node19&#45;&gt;Node22 -->
<g id="edge41" class="edge">
<title>Node19&#45;&gt;Node22</title>
<path fill="none" stroke="#63b8ff" d="M939.43,-271.77C967.9,-264.08 1004.23,-252.89 1035,-239 1070.09,-223.16 1107.85,-197.75 1126.75,-184.38"/>
<polygon fill="#63b8ff" stroke="#63b8ff" points="938.7,-268.6 929.93,-274.54 940.49,-275.37 938.7,-268.6"/>
</g>
<!-- Node23 -->
<g id="node23" class="node">
<title>Node23</title>
<g id="a_node23"><a xlink:href="_render_layout_plugin_8h.html" target="_top" xlink:title="Definition of RenderLayoutPlugin, the plugin class of fbc package for the Model element.">
<polygon fill="white" stroke="#666666" points="1339.5,-184 1226.5,-184 1226.5,-165 1339.5,-165 1339.5,-184"/>
<text text-anchor="middle" x="1283" y="-172" font-family="Helvetica,sans-Serif" font-size="10.00">RenderLayoutPlugin.h</text>
</a>
</g>
</g>
<!-- Node19&#45;&gt;Node23 -->
<g id="edge44" class="edge">
<title>Node19&#45;&gt;Node23</title>
<path fill="none" stroke="#63b8ff" d="M938.45,-271.92C973.72,-263.2 1022.98,-250.76 1066,-239 1133.4,-220.58 1211.98,-197.07 1253.61,-184.46"/>
<polygon fill="#63b8ff" stroke="#63b8ff" points="937.84,-268.71 928.97,-274.5 939.52,-275.51 937.84,-268.71"/>
</g>
<!-- Node20&#45;&gt;Node4 -->
<g id="edge34" class="edge">
<title>Node20&#45;&gt;Node4</title>
<path fill="none" stroke="#63b8ff" d="M919.68,-214.42C906.02,-206.7 890.03,-196.22 878,-184 861.48,-167.22 848.74,-142.21 842.75,-129.14"/>
<polygon fill="#63b8ff" stroke="#63b8ff" points="917.66,-217.85 928.12,-219.53 920.99,-211.69 917.66,-217.85"/>
</g>
<!-- Node20&#45;&gt;Node18 -->
<g id="edge35" class="edge">
<title>Node20&#45;&gt;Node18</title>
<path fill="none" stroke="#63b8ff" d="M899.15,-216.99C857.68,-207.22 799.01,-193.4 760.98,-184.45"/>
<polygon fill="#63b8ff" stroke="#63b8ff" points="898.3,-220.62 908.83,-219.51 899.9,-213.81 898.3,-220.62"/>
</g>
<!-- Node21 -->
<g id="node21" class="node">
<title>Node21</title>
<g id="a_node21"><a xlink:href="_list_of_local_render_information_8cpp.html" target="_top" xlink:title="Implementation of the ListOfLocalRenderInformation class.">
<polygon fill="white" stroke="#666666" points="1051.5,-184 886.5,-184 886.5,-165 1051.5,-165 1051.5,-184"/>
<text text-anchor="middle" x="969" y="-172" font-family="Helvetica,sans-Serif" font-size="10.00">ListOfLocalRenderInformation.cpp</text>
</a>
</g>
</g>
<!-- Node20&#45;&gt;Node21 -->
<g id="edge32" class="edge">
<title>Node20&#45;&gt;Node21</title>
<path fill="none" stroke="#63b8ff" d="M955.41,-209.79C958.83,-201.18 962.72,-191.36 965.46,-184.44"/>
<polygon fill="#63b8ff" stroke="#63b8ff" points="951.9,-208.16 951.47,-218.75 958.41,-210.74 951.9,-208.16"/>
</g>
<!-- Node20&#45;&gt;Node22 -->
<g id="edge33" class="edge">
<title>Node20&#45;&gt;Node22</title>
<path fill="none" stroke="#63b8ff" d="M990.82,-216.62C1025.94,-206.87 1074.89,-193.29 1106.76,-184.45"/>
<polygon fill="#63b8ff" stroke="#63b8ff" points="990.1,-213.46 981.4,-219.51 991.97,-220.21 990.1,-213.46"/>
</g>
<!-- Node20&#45;&gt;Node23 -->
<g id="edge36" class="edge">
<title>Node20&#45;&gt;Node23</title>
<path fill="none" stroke="#63b8ff" d="M1015.65,-217.8C1077.5,-208.01 1167.97,-193.7 1226.17,-184.49"/>
<polygon fill="#63b8ff" stroke="#63b8ff" points="1015.16,-214.49 1005.83,-219.51 1016.25,-221.4 1015.16,-214.49"/>
</g>
<!-- Node23&#45;&gt;Node4 -->
<g id="edge38" class="edge">
<title>Node23&#45;&gt;Node4</title>
<path fill="none" stroke="#63b8ff" d="M1215.43,-164.69C1099.27,-150.33 975.41,-136.02 902.4,-127.69"/>
<polygon fill="#63b8ff" stroke="#63b8ff" points="1214.93,-168.28 1225.29,-166.04 1215.79,-161.34 1214.93,-168.28"/>
</g>
<!-- Node23&#45;&gt;Node6 -->
<g id="edge39" class="edge">
<title>Node23&#45;&gt;Node6</title>
<path fill="none" stroke="#63b8ff" d="M1274.93,-154.94C1262.75,-129 1237.3,-82.07 1202,-55 1178.73,-37.16 1147.76,-26.12 1122.22,-19.49"/>
<polygon fill="#63b8ff" stroke="#63b8ff" points="1272.01,-155.98 1279.33,-163.65 1278.39,-153.09 1272.01,-155.98"/>
</g>
<!-- Node23&#45;&gt;Node7 -->
<g id="edge40" class="edge">
<title>Node23&#45;&gt;Node7</title>
<path fill="none" stroke="#63b8ff" d="M1261.3,-158.72C1222.19,-132.91 1136.46,-79.97 1056,-55 946.58,-21.05 811.32,-12.81 739.46,-10.93"/>
<polygon fill="#63b8ff" stroke="#63b8ff" points="1259.15,-162.17 1269.41,-164.81 1263.04,-156.35 1259.15,-162.17"/>
</g>
<!-- Node23&#45;&gt;Node17 -->
<g id="edge37" class="edge">
<title>Node23&#45;&gt;Node17</title>
<path fill="none" stroke="#63b8ff" d="M1215.46,-164.78C1016.19,-144.06 963.74,-146.8 767,-129 757.66,-128.15 747.74,-127.2 738.11,-126.25"/>
<polygon fill="#63b8ff" stroke="#63b8ff" points="1214.99,-168.35 1225.3,-165.91 1215.72,-161.39 1214.99,-168.35"/>
</g>
</g>
</svg>
