<?xml version="1.0" encoding="UTF-8" standalone="no"?>
<!DOCTYPE svg PUBLIC "-//W3C//DTD SVG 1.1//EN"
 "http://www.w3.org/Graphics/SVG/1.1/DTD/svg11.dtd">
<!-- Generated by graphviz version 8.0.1 (20230327.1645)
 -->
<!-- Title: Member.h Pages: 1 -->
<svg width="472pt" height="357pt"
 viewBox="0.00 0.00 472.00 357.00" xmlns="http://www.w3.org/2000/svg" xmlns:xlink="http://www.w3.org/1999/xlink">
<g id="graph0" class="graph" transform="scale(1 1) rotate(0) translate(4 353)">
<title>Member.h</title>
<!-- Node1 -->
<g id="node1" class="node">
<title>Node1</title>
<g id="a_node1"><a xlink:title="Definition of the Member class.">
<polygon fill="#999999" stroke="#666666" points="246.5,-349 187.5,-349 187.5,-330 246.5,-330 246.5,-349"/>
<text text-anchor="middle" x="217" y="-337" font-family="Helvetica,sans-Serif" font-size="10.00">Member.h</text>
</a>
</g>
</g>
<!-- Node2 -->
<g id="node2" class="node">
<title>Node2</title>
<g id="a_node2"><a xlink:href="_groups_extension_types_8h.html" target="_top" xlink:title="Definition of GroupsExtensionTypes.">
<polygon fill="white" stroke="#666666" points="126,-74 0,-74 0,-55 126,-55 126,-74"/>
<text text-anchor="middle" x="63" y="-62" font-family="Helvetica,sans-Serif" font-size="10.00">GroupsExtensionTypes.h</text>
</a>
</g>
</g>
<!-- Node1&#45;&gt;Node2 -->
<g id="edge1" class="edge">
<title>Node1&#45;&gt;Node2</title>
<path fill="none" stroke="#63b8ff" d="M176.28,-333.8C119.92,-324.77 25,-299.34 25,-230.5 25,-230.5 25,-230.5 25,-173.5 25,-134.74 47.05,-92.37 57.56,-74.37"/>
<polygon fill="#63b8ff" stroke="#63b8ff" points="175.59,-337.38 186,-335.39 176.62,-330.46 175.59,-337.38"/>
</g>
<!-- Node4 -->
<g id="node4" class="node">
<title>Node4</title>
<g id="a_node4"><a xlink:href="_list_of_members_8h.html" target="_top" xlink:title="Definition of the ListOfMembers class.">
<polygon fill="white" stroke="#666666" points="263,-294 171,-294 171,-275 263,-275 263,-294"/>
<text text-anchor="middle" x="217" y="-282" font-family="Helvetica,sans-Serif" font-size="10.00">ListOfMembers.h</text>
</a>
</g>
</g>
<!-- Node1&#45;&gt;Node4 -->
<g id="edge3" class="edge">
<title>Node1&#45;&gt;Node4</title>
<path fill="none" stroke="#63b8ff" d="M217,-318.93C217,-310.53 217,-301.13 217,-294.44"/>
<polygon fill="#63b8ff" stroke="#63b8ff" points="213.5,-318.75 217,-328.75 220.5,-318.75 213.5,-318.75"/>
</g>
<!-- Node13 -->
<g id="node13" class="node">
<title>Node13</title>
<g id="a_node13"><a xlink:href="_member_8cpp.html" target="_top" xlink:title="Implementation of the Member class.">
<polygon fill="white" stroke="#666666" points="356,-239 286,-239 286,-220 356,-220 356,-239"/>
<text text-anchor="middle" x="321" y="-227" font-family="Helvetica,sans-Serif" font-size="10.00">Member.cpp</text>
</a>
</g>
</g>
<!-- Node1&#45;&gt;Node13 -->
<g id="edge17" class="edge">
<title>Node1&#45;&gt;Node13</title>
<path fill="none" stroke="#63b8ff" d="M238.18,-323.22C248.83,-315.09 261.64,-304.6 272,-294 289.52,-276.07 306.63,-251.96 315.24,-239.23"/>
<polygon fill="#63b8ff" stroke="#63b8ff" points="236.41,-320.92 230.49,-329.71 240.6,-326.53 236.41,-320.92"/>
</g>
<!-- Node3 -->
<g id="node3" class="node">
<title>Node3</title>
<g id="a_node3"><a xlink:href="_groups_validator_8cpp.html" target="_top" xlink:title="Definition of GroupsValidator.">
<polygon fill="white" stroke="#666666" points="115,-19 11,-19 11,0 115,0 115,-19"/>
<text text-anchor="middle" x="63" y="-7" font-family="Helvetica,sans-Serif" font-size="10.00">GroupsValidator.cpp</text>
</a>
</g>
</g>
<!-- Node2&#45;&gt;Node3 -->
<g id="edge2" class="edge">
<title>Node2&#45;&gt;Node3</title>
<path fill="none" stroke="#63b8ff" d="M63,-43.93C63,-35.53 63,-26.13 63,-19.44"/>
<polygon fill="#63b8ff" stroke="#63b8ff" points="59.5,-43.75 63,-53.75 66.5,-43.75 59.5,-43.75"/>
</g>
<!-- Node5 -->
<g id="node5" class="node">
<title>Node5</title>
<g id="a_node5"><a xlink:href="_group_8h.html" target="_top" xlink:title="Definition of the Group class.">
<polygon fill="white" stroke="#666666" points="147.5,-239 96.5,-239 96.5,-220 147.5,-220 147.5,-239"/>
<text text-anchor="middle" x="122" y="-227" font-family="Helvetica,sans-Serif" font-size="10.00">Group.h</text>
</a>
</g>
</g>
<!-- Node4&#45;&gt;Node5 -->
<g id="edge4" class="edge">
<title>Node4&#45;&gt;Node5</title>
<path fill="none" stroke="#63b8ff" d="M191.49,-269.27C174.42,-259.74 152.49,-247.51 137.88,-239.36"/>
<polygon fill="#63b8ff" stroke="#63b8ff" points="189.45,-272.69 199.88,-274.51 192.86,-266.58 189.45,-272.69"/>
</g>
<!-- Node12 -->
<g id="node12" class="node">
<title>Node12</title>
<g id="a_node12"><a xlink:href="_list_of_members_8cpp.html" target="_top" xlink:title="Implementation of the ListOfMembers class.">
<polygon fill="white" stroke="#666666" points="268,-239 166,-239 166,-220 268,-220 268,-239"/>
<text text-anchor="middle" x="217" y="-227" font-family="Helvetica,sans-Serif" font-size="10.00">ListOfMembers.cpp</text>
</a>
</g>
</g>
<!-- Node4&#45;&gt;Node12 -->
<g id="edge15" class="edge">
<title>Node4&#45;&gt;Node12</title>
<path fill="none" stroke="#63b8ff" d="M217,-263.93C217,-255.53 217,-246.13 217,-239.44"/>
<polygon fill="#63b8ff" stroke="#63b8ff" points="213.5,-263.75 217,-273.75 220.5,-263.75 213.5,-263.75"/>
</g>
<!-- Node4&#45;&gt;Node13 -->
<g id="edge16" class="edge">
<title>Node4&#45;&gt;Node13</title>
<path fill="none" stroke="#63b8ff" d="M244.41,-269.53C263.16,-259.97 287.47,-247.59 303.62,-239.36"/>
<polygon fill="#63b8ff" stroke="#63b8ff" points="242.96,-266.85 235.64,-274.51 246.14,-273.09 242.96,-266.85"/>
</g>
<!-- Node5&#45;&gt;Node2 -->
<g id="edge6" class="edge">
<title>Node5&#45;&gt;Node2</title>
<path fill="none" stroke="#63b8ff" d="M113.82,-209.65C105.35,-189.79 91.96,-157.49 82,-129 75.24,-109.67 68.69,-86.52 65.33,-74.21"/>
<polygon fill="#63b8ff" stroke="#63b8ff" points="110.91,-210.75 118.08,-218.55 117.34,-207.98 110.91,-210.75"/>
</g>
<!-- Node6 -->
<g id="node6" class="node">
<title>Node6</title>
<g id="a_node6"><a xlink:href="_group_8cpp.html" target="_top" xlink:title="Implementation of the Group class.">
<polygon fill="white" stroke="#666666" points="153,-129 91,-129 91,-110 153,-110 153,-129"/>
<text text-anchor="middle" x="122" y="-117" font-family="Helvetica,sans-Serif" font-size="10.00">Group.cpp</text>
</a>
</g>
</g>
<!-- Node5&#45;&gt;Node6 -->
<g id="edge5" class="edge">
<title>Node5&#45;&gt;Node6</title>
<path fill="none" stroke="#63b8ff" d="M122,-208.9C122,-185.33 122,-146.81 122,-129.46"/>
<polygon fill="#63b8ff" stroke="#63b8ff" points="118.5,-208.66 122,-218.66 125.5,-208.66 118.5,-208.66"/>
</g>
<!-- Node7 -->
<g id="node7" class="node">
<title>Node7</title>
<g id="a_node7"><a xlink:href="_groups_model_plugin_8h.html" target="_top" xlink:title="Definition of the GroupsModelPlugin class.">
<polygon fill="white" stroke="#666666" points="393,-129 283,-129 283,-110 393,-110 393,-129"/>
<text text-anchor="middle" x="338" y="-117" font-family="Helvetica,sans-Serif" font-size="10.00">GroupsModelPlugin.h</text>
</a>
</g>
</g>
<!-- Node5&#45;&gt;Node7 -->
<g id="edge7" class="edge">
<title>Node5&#45;&gt;Node7</title>
<path fill="none" stroke="#63b8ff" d="M158.13,-218C191.66,-207.99 238.87,-193.13 256,-184 284.92,-168.58 314.16,-142.99 328.65,-129.49"/>
<polygon fill="#63b8ff" stroke="#63b8ff" points="157.38,-214.87 148.79,-221.07 159.37,-221.58 157.38,-214.87"/>
</g>
<!-- Node10 -->
<g id="node10" class="node">
<title>Node10</title>
<g id="a_node10"><a xlink:href="_list_of_groups_8h.html" target="_top" xlink:title="Definition of the ListOfGroups class.">
<polygon fill="white" stroke="#666666" points="246.5,-184 163.5,-184 163.5,-165 246.5,-165 246.5,-184"/>
<text text-anchor="middle" x="205" y="-172" font-family="Helvetica,sans-Serif" font-size="10.00">ListOfGroups.h</text>
</a>
</g>
</g>
<!-- Node5&#45;&gt;Node10 -->
<g id="edge11" class="edge">
<title>Node5&#45;&gt;Node10</title>
<path fill="none" stroke="#63b8ff" d="M145.13,-213.73C159.92,-204.29 178.6,-192.36 191.13,-184.36"/>
<polygon fill="#63b8ff" stroke="#63b8ff" points="143.62,-211.18 137.08,-219.51 147.39,-217.08 143.62,-211.18"/>
</g>
<!-- Node7&#45;&gt;Node2 -->
<g id="edge9" class="edge">
<title>Node7&#45;&gt;Node2</title>
<path fill="none" stroke="#63b8ff" d="M280.87,-107.49C230.06,-97.7 156.69,-83.56 109.42,-74.45"/>
<polygon fill="#63b8ff" stroke="#63b8ff" points="279.87,-111.05 290.35,-109.51 281.19,-104.18 279.87,-111.05"/>
</g>
<!-- Node8 -->
<g id="node8" class="node">
<title>Node8</title>
<g id="a_node8"><a xlink:href="_groups_extension_8cpp.html" target="_top" xlink:title="Implementation of GroupsExtension.">
<polygon fill="white" stroke="#666666" points="326,-74 216,-74 216,-55 326,-55 326,-74"/>
<text text-anchor="middle" x="271" y="-62" font-family="Helvetica,sans-Serif" font-size="10.00">GroupsExtension.cpp</text>
</a>
</g>
</g>
<!-- Node7&#45;&gt;Node8 -->
<g id="edge8" class="edge">
<title>Node7&#45;&gt;Node8</title>
<path fill="none" stroke="#63b8ff" d="M318.3,-102.92C306.54,-93.61 292.02,-82.13 282.2,-74.36"/>
<polygon fill="#63b8ff" stroke="#63b8ff" points="315.62,-106.05 325.63,-109.51 319.96,-100.56 315.62,-106.05"/>
</g>
<!-- Node9 -->
<g id="node9" class="node">
<title>Node9</title>
<g id="a_node9"><a xlink:href="_groups_model_plugin_8cpp.html" target="_top" xlink:title="Implementation of the GroupsModelPlugin class.">
<polygon fill="white" stroke="#666666" points="464,-74 344,-74 344,-55 464,-55 464,-74"/>
<text text-anchor="middle" x="404" y="-62" font-family="Helvetica,sans-Serif" font-size="10.00">GroupsModelPlugin.cpp</text>
</a>
</g>
</g>
<!-- Node7&#45;&gt;Node9 -->
<g id="edge10" class="edge">
<title>Node7&#45;&gt;Node9</title>
<path fill="none" stroke="#63b8ff" d="M357.75,-102.64C369.27,-93.39 383.39,-82.05 392.97,-74.36"/>
<polygon fill="#63b8ff" stroke="#63b8ff" points="355.8,-100.52 350.2,-109.51 360.18,-105.98 355.8,-100.52"/>
</g>
<!-- Node10&#45;&gt;Node6 -->
<g id="edge12" class="edge">
<title>Node10&#45;&gt;Node6</title>
<path fill="none" stroke="#63b8ff" d="M181.87,-158.73C167.08,-149.29 148.4,-137.36 135.87,-129.36"/>
<polygon fill="#63b8ff" stroke="#63b8ff" points="179.61,-162.08 189.92,-164.51 183.38,-156.18 179.61,-162.08"/>
</g>
<!-- Node10&#45;&gt;Node7 -->
<g id="edge13" class="edge">
<title>Node10&#45;&gt;Node7</title>
<path fill="none" stroke="#63b8ff" d="M237.74,-160.45C262.01,-150.78 294.45,-137.85 315.77,-129.36"/>
<polygon fill="#63b8ff" stroke="#63b8ff" points="236.56,-157.56 228.56,-164.51 239.15,-164.06 236.56,-157.56"/>
</g>
<!-- Node11 -->
<g id="node11" class="node">
<title>Node11</title>
<g id="a_node11"><a xlink:href="_list_of_groups_8cpp.html" target="_top" xlink:title="Implementation of the ListOfGroups class.">
<polygon fill="white" stroke="#666666" points="264.5,-129 171.5,-129 171.5,-110 264.5,-110 264.5,-129"/>
<text text-anchor="middle" x="218" y="-117" font-family="Helvetica,sans-Serif" font-size="10.00">ListOfGroups.cpp</text>
</a>
</g>
</g>
<!-- Node10&#45;&gt;Node11 -->
<g id="edge14" class="edge">
<title>Node10&#45;&gt;Node11</title>
<path fill="none" stroke="#63b8ff" d="M209.73,-154.22C211.81,-145.74 214.15,-136.21 215.81,-129.44"/>
<polygon fill="#63b8ff" stroke="#63b8ff" points="206.13,-153.2 207.15,-163.75 212.93,-154.87 206.13,-153.2"/>
</g>
</g>
</svg>
