<?xml version="1.0" encoding="UTF-8" standalone="no"?>
<!DOCTYPE svg PUBLIC "-//W3C//DTD SVG 1.1//EN"
 "http://www.w3.org/Graphics/SVG/1.1/DTD/svg11.dtd">
<!-- Generated by graphviz version 8.0.1 (20230327.1645)
 -->
<!-- Title: MultiSpeciesType.h Pages: 1 -->
<svg width="484pt" height="247pt"
 viewBox="0.00 0.00 483.50 247.00" xmlns="http://www.w3.org/2000/svg" xmlns:xlink="http://www.w3.org/1999/xlink">
<g id="graph0" class="graph" transform="scale(1 1) rotate(0) translate(4 243)">
<title>MultiSpeciesType.h</title>
<!-- Node1 -->
<g id="node1" class="node">
<title>Node1</title>
<g id="a_node1"><a xlink:title=": Implementation of the MultiSpeciesType class">
<polygon fill="#999999" stroke="#666666" points="299,-239 197,-239 197,-220 299,-220 299,-239"/>
<text text-anchor="middle" x="248" y="-227" font-family="Helvetica,sans-Serif" font-size="10.00">MultiSpeciesType.h</text>
</a>
</g>
</g>
<!-- Node2 -->
<g id="node2" class="node">
<title>Node2</title>
<g id="a_node2"><a xlink:href="_binding_site_species_type_8h.html" target="_top" xlink:title=": Implementation of the BindingSiteSpeciesType class">
<polygon fill="white" stroke="#666666" points="266.5,-184 135.5,-184 135.5,-165 266.5,-165 266.5,-184"/>
<text text-anchor="middle" x="201" y="-172" font-family="Helvetica,sans-Serif" font-size="10.00">BindingSiteSpeciesType.h</text>
</a>
</g>
</g>
<!-- Node1&#45;&gt;Node2 -->
<g id="edge1" class="edge">
<title>Node1&#45;&gt;Node2</title>
<path fill="none" stroke="#63b8ff" d="M233.17,-211.78C225.14,-202.72 215.54,-191.9 208.93,-184.44"/>
<polygon fill="#63b8ff" stroke="#63b8ff" points="229.99,-213.59 239.24,-218.75 235.22,-208.94 229.99,-213.59"/>
</g>
<!-- Node4 -->
<g id="node4" class="node">
<title>Node4</title>
<g id="a_node4"><a xlink:href="_multi_extension_types_8h.html" target="_top" xlink:title=": Implementation of the MultiExtensionTypes class">
<polygon fill="white" stroke="#666666" points="116,-74 0,-74 0,-55 116,-55 116,-74"/>
<text text-anchor="middle" x="58" y="-62" font-family="Helvetica,sans-Serif" font-size="10.00">MultiExtensionTypes.h</text>
</a>
</g>
</g>
<!-- Node1&#45;&gt;Node4 -->
<g id="edge10" class="edge">
<title>Node1&#45;&gt;Node4</title>
<path fill="none" stroke="#63b8ff" d="M191.31,-216.74C146.11,-203.88 86.48,-178.17 62,-129 53.14,-111.2 54.76,-87.04 56.51,-74.26"/>
<polygon fill="#63b8ff" stroke="#63b8ff" points="190.31,-220.36 200.88,-219.59 192.13,-213.6 190.31,-220.36"/>
</g>
<!-- Node6 -->
<g id="node6" class="node">
<title>Node6</title>
<g id="a_node6"><a xlink:href="_multi_model_plugin_8h.html" target="_top" xlink:title=": Implementation of the MultiModelPlugin class">
<polygon fill="white" stroke="#666666" points="344.5,-129 245.5,-129 245.5,-110 344.5,-110 344.5,-129"/>
<text text-anchor="middle" x="295" y="-117" font-family="Helvetica,sans-Serif" font-size="10.00">MultiModelPlugin.h</text>
</a>
</g>
</g>
<!-- Node1&#45;&gt;Node6 -->
<g id="edge11" class="edge">
<title>Node1&#45;&gt;Node6</title>
<path fill="none" stroke="#63b8ff" d="M260.18,-210.66C265.23,-202.73 270.86,-193.14 275,-184 283.49,-165.26 289.84,-141.88 292.93,-129.37"/>
<polygon fill="#63b8ff" stroke="#63b8ff" points="256.83,-208.37 254.25,-218.65 262.68,-212.22 256.83,-208.37"/>
</g>
<!-- Node9 -->
<g id="node9" class="node">
<title>Node9</title>
<g id="a_node9"><a xlink:href="_multi_species_type_8cpp.html" target="_top" xlink:title=": Implementation of the MultiSpeciesType class">
<polygon fill="white" stroke="#666666" points="475.5,-129 362.5,-129 362.5,-110 475.5,-110 475.5,-129"/>
<text text-anchor="middle" x="419" y="-117" font-family="Helvetica,sans-Serif" font-size="10.00">MultiSpeciesType.cpp</text>
</a>
</g>
</g>
<!-- Node1&#45;&gt;Node9 -->
<g id="edge12" class="edge">
<title>Node1&#45;&gt;Node9</title>
<path fill="none" stroke="#63b8ff" d="M271.23,-213.83C307.21,-191.1 375.33,-148.08 404.81,-129.46"/>
<polygon fill="#63b8ff" stroke="#63b8ff" points="269.58,-211.36 262.99,-219.66 273.32,-217.28 269.58,-211.36"/>
</g>
<!-- Node3 -->
<g id="node3" class="node">
<title>Node3</title>
<g id="a_node3"><a xlink:href="_binding_site_species_type_8cpp.html" target="_top" xlink:title=": Implementation of the BindingSiteSpeciesType class">
<polygon fill="white" stroke="#666666" points="227.5,-129 86.5,-129 86.5,-110 227.5,-110 227.5,-129"/>
<text text-anchor="middle" x="157" y="-117" font-family="Helvetica,sans-Serif" font-size="10.00">BindingSiteSpeciesType.cpp</text>
</a>
</g>
</g>
<!-- Node2&#45;&gt;Node3 -->
<g id="edge2" class="edge">
<title>Node2&#45;&gt;Node3</title>
<path fill="none" stroke="#63b8ff" d="M186.88,-156.5C179.42,-147.5 170.55,-136.82 164.42,-129.44"/>
<polygon fill="#63b8ff" stroke="#63b8ff" points="184.65,-158.29 193.73,-163.75 190.04,-153.82 184.65,-158.29"/>
</g>
<!-- Node2&#45;&gt;Node4 -->
<g id="edge3" class="edge">
<title>Node2&#45;&gt;Node4</title>
<path fill="none" stroke="#63b8ff" d="M133.26,-161.54C112.86,-154.96 91.94,-144.77 77,-129 62.44,-113.63 58.99,-87.55 58.21,-74.1"/>
<polygon fill="#63b8ff" stroke="#63b8ff" points="131.95,-165.1 142.53,-164.58 133.93,-158.39 131.95,-165.1"/>
</g>
<!-- Node2&#45;&gt;Node6 -->
<g id="edge5" class="edge">
<title>Node2&#45;&gt;Node6</title>
<path fill="none" stroke="#63b8ff" d="M226.24,-159.27C243.13,-149.74 264.83,-137.51 279.29,-129.36"/>
<polygon fill="#63b8ff" stroke="#63b8ff" points="224.94,-156.55 217.95,-164.51 228.38,-162.65 224.94,-156.55"/>
</g>
<!-- Node2&#45;&gt;Node9 -->
<g id="edge9" class="edge">
<title>Node2&#45;&gt;Node9</title>
<path fill="none" stroke="#63b8ff" d="M248.58,-161.93C288.75,-152.17 345.44,-138.38 382.2,-129.45"/>
<polygon fill="#63b8ff" stroke="#63b8ff" points="247.87,-158.75 238.98,-164.51 249.52,-165.55 247.87,-158.75"/>
</g>
<!-- Node5 -->
<g id="node5" class="node">
<title>Node5</title>
<g id="a_node5"><a xlink:href="_multi_validator_8cpp.html" target="_top" xlink:title=": Implementation of the MultiValidator class">
<polygon fill="white" stroke="#666666" points="104.5,-19 11.5,-19 11.5,0 104.5,0 104.5,-19"/>
<text text-anchor="middle" x="58" y="-7" font-family="Helvetica,sans-Serif" font-size="10.00">MultiValidator.cpp</text>
</a>
</g>
</g>
<!-- Node4&#45;&gt;Node5 -->
<g id="edge4" class="edge">
<title>Node4&#45;&gt;Node5</title>
<path fill="none" stroke="#63b8ff" d="M58,-43.93C58,-35.53 58,-26.13 58,-19.44"/>
<polygon fill="#63b8ff" stroke="#63b8ff" points="54.5,-43.75 58,-53.75 61.5,-43.75 54.5,-43.75"/>
</g>
<!-- Node6&#45;&gt;Node4 -->
<g id="edge7" class="edge">
<title>Node6&#45;&gt;Node4</title>
<path fill="none" stroke="#63b8ff" d="M244.1,-107.12C200.39,-97.34 138.23,-83.44 98,-74.45"/>
<polygon fill="#63b8ff" stroke="#63b8ff" points="243.27,-110.74 253.8,-109.51 244.8,-103.91 243.27,-110.74"/>
</g>
<!-- Node7 -->
<g id="node7" class="node">
<title>Node7</title>
<g id="a_node7"><a xlink:href="_multi_extension_8cpp.html" target="_top" xlink:title=": Implementation of the MultiExtension class">
<polygon fill="white" stroke="#666666" points="415,-74 315,-74 315,-55 415,-55 415,-74"/>
<text text-anchor="middle" x="365" y="-62" font-family="Helvetica,sans-Serif" font-size="10.00">MultiExtension.cpp</text>
</a>
</g>
</g>
<!-- Node6&#45;&gt;Node7 -->
<g id="edge6" class="edge">
<title>Node6&#45;&gt;Node7</title>
<path fill="none" stroke="#63b8ff" d="M315.58,-102.92C327.87,-93.61 343.04,-82.13 353.3,-74.36"/>
<polygon fill="#63b8ff" stroke="#63b8ff" points="313.73,-100.68 307.87,-109.51 317.96,-106.26 313.73,-100.68"/>
</g>
<!-- Node8 -->
<g id="node8" class="node">
<title>Node8</title>
<g id="a_node8"><a xlink:href="_multi_model_plugin_8cpp.html" target="_top" xlink:title=": Implementation of the MultiModelPlugin class">
<polygon fill="white" stroke="#666666" points="297,-74 187,-74 187,-55 297,-55 297,-74"/>
<text text-anchor="middle" x="242" y="-62" font-family="Helvetica,sans-Serif" font-size="10.00">MultiModelPlugin.cpp</text>
</a>
</g>
</g>
<!-- Node6&#45;&gt;Node8 -->
<g id="edge8" class="edge">
<title>Node6&#45;&gt;Node8</title>
<path fill="none" stroke="#63b8ff" d="M278.56,-102.06C269.45,-92.95 258.47,-81.97 250.94,-74.44"/>
<polygon fill="#63b8ff" stroke="#63b8ff" points="275.7,-104.15 285.25,-108.75 280.65,-99.2 275.7,-104.15"/>
</g>
</g>
</svg>
