<?xml version="1.0" encoding="UTF-8" standalone="no"?>
<!DOCTYPE svg PUBLIC "-//W3C//DTD SVG 1.1//EN"
 "http://www.w3.org/Graphics/SVG/1.1/DTD/svg11.dtd">
<!-- Generated by graphviz version 8.0.1 (20230327.1645)
 -->
<!-- Title: ParametricObject.h Pages: 1 -->
<svg width="798pt" height="247pt"
 viewBox="0.00 0.00 798.00 247.00" xmlns="http://www.w3.org/2000/svg" xmlns:xlink="http://www.w3.org/1999/xlink">
<g id="graph0" class="graph" transform="scale(1 1) rotate(0) translate(4 243)">
<title>ParametricObject.h</title>
<!-- Node1 -->
<g id="node1" class="node">
<title>Node1</title>
<g id="a_node1"><a xlink:title="Definition of the ParametricObject class.">
<polygon fill="#999999" stroke="#666666" points="633,-239 532,-239 532,-220 633,-220 633,-239"/>
<text text-anchor="middle" x="582.5" y="-227" font-family="Helvetica,sans-Serif" font-size="10.00">ParametricObject.h</text>
</a>
</g>
</g>
<!-- Node2 -->
<g id="node2" class="node">
<title>Node2</title>
<g id="a_node2"><a xlink:href="_list_of_parametric_objects_8h.html" target="_top" xlink:title="Definition of the ListOfParametricObjects class.">
<polygon fill="white" stroke="#666666" points="536.5,-184 404.5,-184 404.5,-165 536.5,-165 536.5,-184"/>
<text text-anchor="middle" x="470.5" y="-172" font-family="Helvetica,sans-Serif" font-size="10.00">ListOfParametricObjects.h</text>
</a>
</g>
</g>
<!-- Node1&#45;&gt;Node2 -->
<g id="edge1" class="edge">
<title>Node1&#45;&gt;Node2</title>
<path fill="none" stroke="#63b8ff" d="M553.82,-214.93C533.51,-205.32 506.85,-192.7 489.22,-184.36"/>
<polygon fill="#63b8ff" stroke="#63b8ff" points="551.96,-218.4 562.5,-219.51 554.96,-212.07 551.96,-218.4"/>
</g>
<!-- Node10 -->
<g id="node10" class="node">
<title>Node10</title>
<g id="a_node10"><a xlink:href="_spatial_extension_types_8h.html" target="_top" xlink:title="Definition of SpatialExtensionTypes.">
<polygon fill="white" stroke="#666666" points="790,-74 665,-74 665,-55 790,-55 790,-74"/>
<text text-anchor="middle" x="727.5" y="-62" font-family="Helvetica,sans-Serif" font-size="10.00">SpatialExtensionTypes.h</text>
</a>
</g>
</g>
<!-- Node1&#45;&gt;Node10 -->
<g id="edge13" class="edge">
<title>Node1&#45;&gt;Node10</title>
<path fill="none" stroke="#63b8ff" d="M597.52,-211.62C628.07,-177.28 696.5,-100.34 719.67,-74.31"/>
<polygon fill="#63b8ff" stroke="#63b8ff" points="595.33,-208.94 591.3,-218.74 600.56,-213.59 595.33,-208.94"/>
</g>
<!-- Node12 -->
<g id="node12" class="node">
<title>Node12</title>
<g id="a_node12"><a xlink:href="_parametric_object_8cpp.html" target="_top" xlink:title="Implementation of the ParametricObject class.">
<polygon fill="white" stroke="#666666" points="638,-129 527,-129 527,-110 638,-110 638,-129"/>
<text text-anchor="middle" x="582.5" y="-117" font-family="Helvetica,sans-Serif" font-size="10.00">ParametricObject.cpp</text>
</a>
</g>
</g>
<!-- Node1&#45;&gt;Node12 -->
<g id="edge12" class="edge">
<title>Node1&#45;&gt;Node12</title>
<path fill="none" stroke="#63b8ff" d="M582.5,-208.9C582.5,-185.33 582.5,-146.81 582.5,-129.46"/>
<polygon fill="#63b8ff" stroke="#63b8ff" points="579,-208.66 582.5,-218.66 586,-208.66 579,-208.66"/>
</g>
<!-- Node3 -->
<g id="node3" class="node">
<title>Node3</title>
<g id="a_node3"><a xlink:href="_list_of_parametric_objects_8cpp.html" target="_top" xlink:title="Implementation of the ListOfParametricObjects class.">
<polygon fill="white" stroke="#666666" points="378,-129 235,-129 235,-110 378,-110 378,-129"/>
<text text-anchor="middle" x="306.5" y="-117" font-family="Helvetica,sans-Serif" font-size="10.00">ListOfParametricObjects.cpp</text>
</a>
</g>
</g>
<!-- Node2&#45;&gt;Node3 -->
<g id="edge2" class="edge">
<title>Node2&#45;&gt;Node3</title>
<path fill="none" stroke="#63b8ff" d="M432.56,-161.24C402.49,-151.52 361.19,-138.18 334.18,-129.45"/>
<polygon fill="#63b8ff" stroke="#63b8ff" points="431.09,-164.76 441.68,-164.51 433.24,-158.1 431.09,-164.76"/>
</g>
<!-- Node4 -->
<g id="node4" class="node">
<title>Node4</title>
<g id="a_node4"><a xlink:href="_parametric_geometry_8h.html" target="_top" xlink:title="Definition of the ParametricGeometry class.">
<polygon fill="white" stroke="#666666" points="509,-129 396,-129 396,-110 509,-110 509,-129"/>
<text text-anchor="middle" x="452.5" y="-117" font-family="Helvetica,sans-Serif" font-size="10.00">ParametricGeometry.h</text>
</a>
</g>
</g>
<!-- Node2&#45;&gt;Node4 -->
<g id="edge3" class="edge">
<title>Node2&#45;&gt;Node4</title>
<path fill="none" stroke="#63b8ff" d="M464.05,-154.5C461.15,-145.96 457.86,-136.28 455.54,-129.44"/>
<polygon fill="#63b8ff" stroke="#63b8ff" points="461,-155.4 467.53,-163.75 467.63,-153.15 461,-155.4"/>
</g>
<!-- Node2&#45;&gt;Node12 -->
<g id="edge11" class="edge">
<title>Node2&#45;&gt;Node12</title>
<path fill="none" stroke="#63b8ff" d="M499.18,-159.93C519.49,-150.32 546.15,-137.7 563.78,-129.36"/>
<polygon fill="#63b8ff" stroke="#63b8ff" points="498.04,-157.07 490.5,-164.51 501.04,-163.4 498.04,-157.07"/>
</g>
<!-- Node5 -->
<g id="node5" class="node">
<title>Node5</title>
<g id="a_node5"><a xlink:href="_geometry_8cpp.html" target="_top" xlink:title="Implementation of the Geometry class.">
<polygon fill="white" stroke="#666666" points="77,-74 0,-74 0,-55 77,-55 77,-74"/>
<text text-anchor="middle" x="38.5" y="-62" font-family="Helvetica,sans-Serif" font-size="10.00">Geometry.cpp</text>
</a>
</g>
</g>
<!-- Node4&#45;&gt;Node5 -->
<g id="edge4" class="edge">
<title>Node4&#45;&gt;Node5</title>
<path fill="none" stroke="#63b8ff" d="M384.95,-109.82C251,-93.41 215.36,-93.49 85.5,-74 82.88,-73.61 80.17,-73.18 77.45,-72.73"/>
<polygon fill="#63b8ff" stroke="#63b8ff" points="384.27,-113.39 394.62,-111.14 385.13,-106.44 384.27,-113.39"/>
</g>
<!-- Node6 -->
<g id="node6" class="node">
<title>Node6</title>
<g id="a_node6"><a xlink:href="_geometry_definition_8cpp.html" target="_top" xlink:title="Implementation of the GeometryDefinition class.">
<polygon fill="white" stroke="#666666" points="214,-74 95,-74 95,-55 214,-55 214,-74"/>
<text text-anchor="middle" x="154.5" y="-62" font-family="Helvetica,sans-Serif" font-size="10.00">GeometryDefinition.cpp</text>
</a>
</g>
</g>
<!-- Node4&#45;&gt;Node6 -->
<g id="edge5" class="edge">
<title>Node4&#45;&gt;Node6</title>
<path fill="none" stroke="#63b8ff" d="M391.28,-107.61C336.2,-97.82 256.24,-83.59 204.8,-74.45"/>
<polygon fill="#63b8ff" stroke="#63b8ff" points="390.49,-111.2 400.95,-109.51 391.72,-104.31 390.49,-111.2"/>
</g>
<!-- Node7 -->
<g id="node7" class="node">
<title>Node7</title>
<g id="a_node7"><a xlink:href="_list_of_geometry_definitions_8cpp.html" target="_top" xlink:title="Implementation of the ListOfGeometryDefinitions class.">
<polygon fill="white" stroke="#666666" points="383,-74 232,-74 232,-55 383,-55 383,-74"/>
<text text-anchor="middle" x="307.5" y="-62" font-family="Helvetica,sans-Serif" font-size="10.00">ListOfGeometryDefinitions.cpp</text>
</a>
</g>
</g>
<!-- Node4&#45;&gt;Node7 -->
<g id="edge6" class="edge">
<title>Node4&#45;&gt;Node7</title>
<path fill="none" stroke="#63b8ff" d="M417.87,-105.84C391.3,-96.13 355.29,-82.97 331.73,-74.36"/>
<polygon fill="#63b8ff" stroke="#63b8ff" points="416.31,-109.36 426.9,-109.51 418.71,-102.79 416.31,-109.36"/>
</g>
<!-- Node8 -->
<g id="node8" class="node">
<title>Node8</title>
<g id="a_node8"><a xlink:href="_mixed_geometry_8cpp.html" target="_top" xlink:title="Implementation of the MixedGeometry class.">
<polygon fill="white" stroke="#666666" points="504,-74 401,-74 401,-55 504,-55 504,-74"/>
<text text-anchor="middle" x="452.5" y="-62" font-family="Helvetica,sans-Serif" font-size="10.00">MixedGeometry.cpp</text>
</a>
</g>
</g>
<!-- Node4&#45;&gt;Node8 -->
<g id="edge7" class="edge">
<title>Node4&#45;&gt;Node8</title>
<path fill="none" stroke="#63b8ff" d="M452.5,-98.93C452.5,-90.53 452.5,-81.13 452.5,-74.44"/>
<polygon fill="#63b8ff" stroke="#63b8ff" points="449,-98.75 452.5,-108.75 456,-98.75 449,-98.75"/>
</g>
<!-- Node9 -->
<g id="node9" class="node">
<title>Node9</title>
<g id="a_node9"><a xlink:href="_parametric_geometry_8cpp.html" target="_top" xlink:title="Implementation of the ParametricGeometry class.">
<polygon fill="white" stroke="#666666" points="646.5,-74 522.5,-74 522.5,-55 646.5,-55 646.5,-74"/>
<text text-anchor="middle" x="584.5" y="-62" font-family="Helvetica,sans-Serif" font-size="10.00">ParametricGeometry.cpp</text>
</a>
</g>
</g>
<!-- Node4&#45;&gt;Node9 -->
<g id="edge8" class="edge">
<title>Node4&#45;&gt;Node9</title>
<path fill="none" stroke="#63b8ff" d="M484.99,-105.45C509.08,-95.78 541.28,-82.85 562.44,-74.36"/>
<polygon fill="#63b8ff" stroke="#63b8ff" points="483.87,-102.54 475.89,-109.51 486.48,-109.03 483.87,-102.54"/>
</g>
<!-- Node4&#45;&gt;Node10 -->
<g id="edge9" class="edge">
<title>Node4&#45;&gt;Node10</title>
<path fill="none" stroke="#63b8ff" d="M509.63,-107.49C560.44,-97.7 633.81,-83.56 681.08,-74.45"/>
<polygon fill="#63b8ff" stroke="#63b8ff" points="509.31,-104.18 500.15,-109.51 510.63,-111.05 509.31,-104.18"/>
</g>
<!-- Node11 -->
<g id="node11" class="node">
<title>Node11</title>
<g id="a_node11"><a xlink:href="_spatial_validator_8cpp.html" target="_top" xlink:title="Definition of SpatialValidator.">
<polygon fill="white" stroke="#666666" points="778.5,-19 676.5,-19 676.5,0 778.5,0 778.5,-19"/>
<text text-anchor="middle" x="727.5" y="-7" font-family="Helvetica,sans-Serif" font-size="10.00">SpatialValidator.cpp</text>
</a>
</g>
</g>
<!-- Node10&#45;&gt;Node11 -->
<g id="edge10" class="edge">
<title>Node10&#45;&gt;Node11</title>
<path fill="none" stroke="#63b8ff" d="M727.5,-43.93C727.5,-35.53 727.5,-26.13 727.5,-19.44"/>
<polygon fill="#63b8ff" stroke="#63b8ff" points="724,-43.75 727.5,-53.75 731,-43.75 724,-43.75"/>
</g>
</g>
</svg>
