<?xml version="1.0" encoding="UTF-8" standalone="no"?>
<!DOCTYPE svg PUBLIC "-//W3C//DTD SVG 1.1//EN"
 "http://www.w3.org/Graphics/SVG/1.1/DTD/svg11.dtd">
<!-- Generated by graphviz version 8.0.1 (20230327.1645)
 -->
<!-- Title: RenderCubicBezier.h Pages: 1 -->
<svg width="1291pt" height="302pt"
 viewBox="0.00 0.00 1290.50 302.00" xmlns="http://www.w3.org/2000/svg" xmlns:xlink="http://www.w3.org/1999/xlink">
<g id="graph0" class="graph" transform="scale(1 1) rotate(0) translate(4 298)">
<title>RenderCubicBezier.h</title>
<!-- Node1 -->
<g id="node1" class="node">
<title>Node1</title>
<g id="a_node1"><a xlink:title="Definition of the RenderCubicBezier class.">
<polygon fill="#999999" stroke="#666666" points="956.5,-294 847.5,-294 847.5,-275 956.5,-275 956.5,-294"/>
<text text-anchor="middle" x="902" y="-282" font-family="Helvetica,sans-Serif" font-size="10.00">RenderCubicBezier.h</text>
</a>
</g>
</g>
<!-- Node2 -->
<g id="node2" class="node">
<title>Node2</title>
<g id="a_node2"><a xlink:href="_list_of_curve_elements_8cpp.html" target="_top" xlink:title="storage class for curve elements">
<polygon fill="white" stroke="#666666" points="659.5,-184 530.5,-184 530.5,-165 659.5,-165 659.5,-184"/>
<text text-anchor="middle" x="595" y="-172" font-family="Helvetica,sans-Serif" font-size="10.00">ListOfCurveElements.cpp</text>
</a>
</g>
</g>
<!-- Node1&#45;&gt;Node2 -->
<g id="edge1" class="edge">
<title>Node1&#45;&gt;Node2</title>
<path fill="none" stroke="#63b8ff" d="M847.24,-272.23C812.81,-264.46 767.72,-253.01 729,-239 684.94,-223.06 635.8,-197.69 611.07,-184.35"/>
<polygon fill="#63b8ff" stroke="#63b8ff" points="846.05,-275.77 856.57,-274.52 847.57,-268.94 846.05,-275.77"/>
</g>
<!-- Node3 -->
<g id="node3" class="node">
<title>Node3</title>
<g id="a_node3"><a xlink:href="_list_of_curve_elements_8h.html" target="_top" xlink:title="Definition of the ListOfCurveElements class.">
<polygon fill="white" stroke="#666666" points="857.5,-239 738.5,-239 738.5,-220 857.5,-220 857.5,-239"/>
<text text-anchor="middle" x="798" y="-227" font-family="Helvetica,sans-Serif" font-size="10.00">ListOfCurveElements.h</text>
</a>
</g>
</g>
<!-- Node1&#45;&gt;Node3 -->
<g id="edge2" class="edge">
<title>Node1&#45;&gt;Node3</title>
<path fill="none" stroke="#63b8ff" d="M874.59,-269.53C855.84,-259.97 831.53,-247.59 815.38,-239.36"/>
<polygon fill="#63b8ff" stroke="#63b8ff" points="872.86,-273.09 883.36,-274.51 876.04,-266.85 872.86,-273.09"/>
</g>
<!-- Node8 -->
<g id="node8" class="node">
<title>Node8</title>
<g id="a_node8"><a xlink:href="_polygon_8cpp.html" target="_top" xlink:title="Implementation of the Polygon class.">
<polygon fill="white" stroke="#666666" points="1171.5,-129 1100.5,-129 1100.5,-110 1171.5,-110 1171.5,-129"/>
<text text-anchor="middle" x="1136" y="-117" font-family="Helvetica,sans-Serif" font-size="10.00">Polygon.cpp</text>
</a>
</g>
</g>
<!-- Node1&#45;&gt;Node8 -->
<g id="edge30" class="edge">
<title>Node1&#45;&gt;Node8</title>
<path fill="none" stroke="#63b8ff" d="M912.31,-265.2C927.83,-239.24 959.64,-191.89 999,-165 1015.72,-153.57 1066.14,-138.79 1100.92,-129.47"/>
<polygon fill="#63b8ff" stroke="#63b8ff" points="908.84,-263.2 906.84,-273.61 914.89,-266.72 908.84,-263.2"/>
</g>
<!-- Node9 -->
<g id="node9" class="node">
<title>Node9</title>
<g id="a_node9"><a xlink:href="_render_extension_types_8h.html" target="_top" xlink:title="Definition of RenderExtensionTypes.">
<polygon fill="white" stroke="#666666" points="302,-129 176,-129 176,-110 302,-110 302,-129"/>
<text text-anchor="middle" x="239" y="-117" font-family="Helvetica,sans-Serif" font-size="10.00">RenderExtensionTypes.h</text>
</a>
</g>
</g>
<!-- Node1&#45;&gt;Node9 -->
<g id="edge33" class="edge">
<title>Node1&#45;&gt;Node9</title>
<path fill="none" stroke="#63b8ff" d="M841.72,-272.51C796.94,-264.08 734.45,-251.76 680,-239 524.66,-202.6 341.02,-150.2 269.57,-129.45"/>
<polygon fill="#63b8ff" stroke="#63b8ff" points="840.95,-276.11 851.43,-274.51 842.24,-269.23 840.95,-276.11"/>
</g>
<!-- Node20 -->
<g id="node20" class="node">
<title>Node20</title>
<g id="a_node20"><a xlink:href="_render_curve_8cpp.html" target="_top" xlink:title="Implementation of the RenderCurve class.">
<polygon fill="white" stroke="#666666" points="1282.5,-129 1189.5,-129 1189.5,-110 1282.5,-110 1282.5,-129"/>
<text text-anchor="middle" x="1236" y="-117" font-family="Helvetica,sans-Serif" font-size="10.00">RenderCurve.cpp</text>
</a>
</g>
</g>
<!-- Node1&#45;&gt;Node20 -->
<g id="edge32" class="edge">
<title>Node1&#45;&gt;Node20</title>
<path fill="none" stroke="#63b8ff" d="M930.24,-269.72C996.84,-237.21 1162.27,-156.48 1217.62,-129.47"/>
<polygon fill="#63b8ff" stroke="#63b8ff" points="928.88,-266.97 921.43,-274.5 931.96,-273.26 928.88,-266.97"/>
</g>
<!-- Node21 -->
<g id="node21" class="node">
<title>Node21</title>
<g id="a_node21"><a xlink:href="_render_point_8cpp.html" target="_top" xlink:title="Implementation of the RenderPoint class.">
<polygon fill="white" stroke="#666666" points="946.5,-184 857.5,-184 857.5,-165 946.5,-165 946.5,-184"/>
<text text-anchor="middle" x="902" y="-172" font-family="Helvetica,sans-Serif" font-size="10.00">RenderPoint.cpp</text>
</a>
</g>
</g>
<!-- Node1&#45;&gt;Node21 -->
<g id="edge34" class="edge">
<title>Node1&#45;&gt;Node21</title>
<path fill="none" stroke="#63b8ff" d="M902,-263.9C902,-240.33 902,-201.81 902,-184.46"/>
<polygon fill="#63b8ff" stroke="#63b8ff" points="898.5,-263.66 902,-273.66 905.5,-263.66 898.5,-263.66"/>
</g>
<!-- Node22 -->
<g id="node22" class="node">
<title>Node22</title>
<g id="a_node22"><a xlink:href="_render_cubic_bezier_8cpp.html" target="_top" xlink:title="Implementation of the RenderCubicBezier class.">
<polygon fill="white" stroke="#666666" points="1160.5,-239 1041.5,-239 1041.5,-220 1160.5,-220 1160.5,-239"/>
<text text-anchor="middle" x="1101" y="-227" font-family="Helvetica,sans-Serif" font-size="10.00">RenderCubicBezier.cpp</text>
</a>
</g>
</g>
<!-- Node1&#45;&gt;Node22 -->
<g id="edge31" class="edge">
<title>Node1&#45;&gt;Node22</title>
<path fill="none" stroke="#63b8ff" d="M946.14,-271.74C982.76,-261.99 1034.06,-248.33 1067.41,-239.45"/>
<polygon fill="#63b8ff" stroke="#63b8ff" points="945.52,-268.55 936.76,-274.51 947.32,-275.32 945.52,-268.55"/>
</g>
<!-- Node3&#45;&gt;Node2 -->
<g id="edge3" class="edge">
<title>Node3&#45;&gt;Node2</title>
<path fill="none" stroke="#63b8ff" d="M752.97,-216.74C715.61,-206.99 663.28,-193.33 629.27,-184.45"/>
<polygon fill="#63b8ff" stroke="#63b8ff" points="752,-220.37 762.56,-219.51 753.77,-213.6 752,-220.37"/>
</g>
<!-- Node4 -->
<g id="node4" class="node">
<title>Node4</title>
<g id="a_node4"><a xlink:href="_polygon_8h.html" target="_top" xlink:title="class representing a polygon">
<polygon fill="white" stroke="#666666" points="738,-184 678,-184 678,-165 738,-165 738,-184"/>
<text text-anchor="middle" x="708" y="-172" font-family="Helvetica,sans-Serif" font-size="10.00">Polygon.h</text>
</a>
</g>
</g>
<!-- Node3&#45;&gt;Node4 -->
<g id="edge4" class="edge">
<title>Node3&#45;&gt;Node4</title>
<path fill="none" stroke="#63b8ff" d="M773.38,-214C757.27,-204.52 736.76,-192.43 723.04,-184.36"/>
<polygon fill="#63b8ff" stroke="#63b8ff" points="771.34,-217.45 781.73,-219.51 774.89,-211.42 771.34,-217.45"/>
</g>
<!-- Node19 -->
<g id="node19" class="node">
<title>Node19</title>
<g id="a_node19"><a xlink:href="_render_curve_8h.html" target="_top" xlink:title="Definition of the RenderCurve class.">
<polygon fill="white" stroke="#666666" points="839.5,-184 756.5,-184 756.5,-165 839.5,-165 839.5,-184"/>
<text text-anchor="middle" x="798" y="-172" font-family="Helvetica,sans-Serif" font-size="10.00">RenderCurve.h</text>
</a>
</g>
</g>
<!-- Node3&#45;&gt;Node19 -->
<g id="edge21" class="edge">
<title>Node3&#45;&gt;Node19</title>
<path fill="none" stroke="#63b8ff" d="M798,-208.93C798,-200.53 798,-191.13 798,-184.44"/>
<polygon fill="#63b8ff" stroke="#63b8ff" points="794.5,-208.75 798,-218.75 801.5,-208.75 794.5,-208.75"/>
</g>
<!-- Node3&#45;&gt;Node21 -->
<g id="edge29" class="edge">
<title>Node3&#45;&gt;Node21</title>
<path fill="none" stroke="#63b8ff" d="M825.41,-214.53C844.16,-204.97 868.47,-192.59 884.62,-184.36"/>
<polygon fill="#63b8ff" stroke="#63b8ff" points="823.96,-211.85 816.64,-219.51 827.14,-218.09 823.96,-211.85"/>
</g>
<!-- Node5 -->
<g id="node5" class="node">
<title>Node5</title>
<g id="a_node5"><a xlink:href="_graphical_primitive1_d_8cpp.html" target="_top" xlink:title="abstract base class for graphical 1D objects">
<polygon fill="white" stroke="#666666" points="956,-129 828,-129 828,-110 956,-110 956,-129"/>
<text text-anchor="middle" x="892" y="-117" font-family="Helvetica,sans-Serif" font-size="10.00">GraphicalPrimitive1D.cpp</text>
</a>
</g>
</g>
<!-- Node4&#45;&gt;Node5 -->
<g id="edge5" class="edge">
<title>Node4&#45;&gt;Node5</title>
<path fill="none" stroke="#63b8ff" d="M748.86,-161.73C782.73,-151.98 830.14,-138.32 860.96,-129.44"/>
<polygon fill="#63b8ff" stroke="#63b8ff" points="748.02,-158.62 739.38,-164.75 749.96,-165.34 748.02,-158.62"/>
</g>
<!-- Node6 -->
<g id="node6" class="node">
<title>Node6</title>
<g id="a_node6"><a xlink:href="_graphical_primitive2_d_8cpp.html" target="_top" xlink:title="Implementation of the GraphicalPrimitive2D class.">
<polygon fill="white" stroke="#666666" points="448,-129 320,-129 320,-110 448,-110 448,-129"/>
<text text-anchor="middle" x="384" y="-117" font-family="Helvetica,sans-Serif" font-size="10.00">GraphicalPrimitive2D.cpp</text>
</a>
</g>
</g>
<!-- Node4&#45;&gt;Node6 -->
<g id="edge6" class="edge">
<title>Node4&#45;&gt;Node6</title>
<path fill="none" stroke="#63b8ff" d="M667.13,-164.94C585.26,-149.98 502.86,-137.48 447.61,-129.46"/>
<polygon fill="#63b8ff" stroke="#63b8ff" points="666.43,-168.55 676.89,-166.92 667.69,-161.67 666.43,-168.55"/>
</g>
<!-- Node7 -->
<g id="node7" class="node">
<title>Node7</title>
<g id="a_node7"><a xlink:href="_list_of_drawables_8cpp.html" target="_top" xlink:title="Implementation of the ListOfDrawables class.">
<polygon fill="white" stroke="#666666" points="1082,-129 974,-129 974,-110 1082,-110 1082,-129"/>
<text text-anchor="middle" x="1028" y="-117" font-family="Helvetica,sans-Serif" font-size="10.00">ListOfDrawables.cpp</text>
</a>
</g>
</g>
<!-- Node4&#45;&gt;Node7 -->
<g id="edge7" class="edge">
<title>Node4&#45;&gt;Node7</title>
<path fill="none" stroke="#63b8ff" d="M748.96,-164.72C832.96,-149.11 919.32,-136.03 973.71,-128.15"/>
<polygon fill="#63b8ff" stroke="#63b8ff" points="748.38,-161.46 739.2,-166.74 749.67,-168.34 748.38,-161.46"/>
</g>
<!-- Node4&#45;&gt;Node8 -->
<g id="edge8" class="edge">
<title>Node4&#45;&gt;Node8</title>
<path fill="none" stroke="#63b8ff" d="M748.81,-164.88C900.63,-141.06 942.32,-150.78 1091,-129 1093.99,-128.56 1097.08,-128.07 1100.18,-127.54"/>
<polygon fill="#63b8ff" stroke="#63b8ff" points="748.5,-161.55 739.17,-166.58 749.6,-168.46 748.5,-161.55"/>
</g>
<!-- Node4&#45;&gt;Node9 -->
<g id="edge9" class="edge">
<title>Node4&#45;&gt;Node9</title>
<path fill="none" stroke="#63b8ff" d="M667.3,-165.09C508.63,-140.64 466.12,-145.98 311,-129 308.12,-128.69 305.18,-128.36 302.21,-128.02"/>
<polygon fill="#63b8ff" stroke="#63b8ff" points="666.5,-168.66 676.92,-166.74 667.58,-161.74 666.5,-168.66"/>
</g>
<!-- Node16 -->
<g id="node16" class="node">
<title>Node16</title>
<g id="a_node16"><a xlink:href="_render_group_8cpp.html" target="_top" xlink:title="Implementation of the RenderGroup class.">
<polygon fill="white" stroke="#666666" points="559.5,-129 466.5,-129 466.5,-110 559.5,-110 559.5,-129"/>
<text text-anchor="middle" x="513" y="-117" font-family="Helvetica,sans-Serif" font-size="10.00">RenderGroup.cpp</text>
</a>
</g>
</g>
<!-- Node4&#45;&gt;Node16 -->
<g id="edge18" class="edge">
<title>Node4&#45;&gt;Node16</title>
<path fill="none" stroke="#63b8ff" d="M667.36,-162.45C631.31,-152.66 579.33,-138.53 545.86,-129.43"/>
<polygon fill="#63b8ff" stroke="#63b8ff" points="665.96,-165.97 676.53,-165.22 667.8,-159.22 665.96,-165.97"/>
</g>
<!-- Node17 -->
<g id="node17" class="node">
<title>Node17</title>
<g id="a_node17"><a xlink:href="_transformation_8cpp.html" target="_top" xlink:title="class representing a 3D affine transformation">
<polygon fill="white" stroke="#666666" points="678.5,-129 577.5,-129 577.5,-110 678.5,-110 678.5,-129"/>
<text text-anchor="middle" x="628" y="-117" font-family="Helvetica,sans-Serif" font-size="10.00">Transformation.cpp</text>
</a>
</g>
</g>
<!-- Node4&#45;&gt;Node17 -->
<g id="edge19" class="edge">
<title>Node4&#45;&gt;Node17</title>
<path fill="none" stroke="#63b8ff" d="M685.3,-158.46C671.11,-149.06 653.33,-137.28 641.37,-129.36"/>
<polygon fill="#63b8ff" stroke="#63b8ff" points="683.16,-161.9 693.43,-164.51 687.03,-156.07 683.16,-161.9"/>
</g>
<!-- Node18 -->
<g id="node18" class="node">
<title>Node18</title>
<g id="a_node18"><a xlink:href="_transformation2_d_8cpp.html" target="_top" xlink:title="class representing a 2D affine transformation">
<polygon fill="white" stroke="#666666" points="809.5,-129 696.5,-129 696.5,-110 809.5,-110 809.5,-129"/>
<text text-anchor="middle" x="753" y="-117" font-family="Helvetica,sans-Serif" font-size="10.00">Transformation2D.cpp</text>
</a>
</g>
</g>
<!-- Node4&#45;&gt;Node18 -->
<g id="edge20" class="edge">
<title>Node4&#45;&gt;Node18</title>
<path fill="none" stroke="#63b8ff" d="M722.44,-156.5C730.08,-147.5 739.14,-136.82 745.41,-129.44"/>
<polygon fill="#63b8ff" stroke="#63b8ff" points="719.24,-153.86 715.43,-163.75 724.57,-158.39 719.24,-153.86"/>
</g>
<!-- Node10 -->
<g id="node10" class="node">
<title>Node10</title>
<g id="a_node10"><a xlink:href="_render_layout_converter_8cpp.html" target="_top" xlink:title="Simple converter to convert Layout + Render from l2 to L3 and vice versa.">
<polygon fill="white" stroke="#666666" points="138,-74 0,-74 0,-55 138,-55 138,-74"/>
<text text-anchor="middle" x="69" y="-62" font-family="Helvetica,sans-Serif" font-size="10.00">RenderLayoutConverter.cpp</text>
</a>
</g>
</g>
<!-- Node9&#45;&gt;Node10 -->
<g id="edge10" class="edge">
<title>Node9&#45;&gt;Node10</title>
<path fill="none" stroke="#63b8ff" d="M199.67,-106.24C168.51,-96.52 125.69,-83.18 97.7,-74.45"/>
<polygon fill="#63b8ff" stroke="#63b8ff" points="198.57,-109.87 209.16,-109.51 200.66,-103.19 198.57,-109.87"/>
</g>
<!-- Node11 -->
<g id="node11" class="node">
<title>Node11</title>
<g id="a_node11"><a xlink:href="_render_layout_plugin_8cpp.html" target="_top" xlink:title="Implementation of RenderLayoutPlugin, the plugin class of the fbc package for the Model element.">
<polygon fill="white" stroke="#666666" points="143.5,-19 20.5,-19 20.5,0 143.5,0 143.5,-19"/>
<text text-anchor="middle" x="82" y="-7" font-family="Helvetica,sans-Serif" font-size="10.00">RenderLayoutPlugin.cpp</text>
</a>
</g>
</g>
<!-- Node9&#45;&gt;Node11 -->
<g id="edge11" class="edge">
<title>Node9&#45;&gt;Node11</title>
<path fill="none" stroke="#63b8ff" d="M217.35,-103.52C198.72,-90.64 171.11,-71.57 147,-55 128.97,-42.6 108.09,-28.32 94.96,-19.35"/>
<polygon fill="#63b8ff" stroke="#63b8ff" points="215,-106.84 225.21,-109.65 218.98,-101.08 215,-106.84"/>
</g>
<!-- Node12 -->
<g id="node12" class="node">
<title>Node12</title>
<g id="a_node12"><a xlink:href="_render_utilities_8cpp.html" target="_top" xlink:title="implementation of RenderUtilities, a class of utility functions for the render package">
<polygon fill="white" stroke="#666666" points="435,-19 335,-19 335,0 435,0 435,-19"/>
<text text-anchor="middle" x="385" y="-7" font-family="Helvetica,sans-Serif" font-size="10.00">RenderUtilities.cpp</text>
</a>
</g>
</g>
<!-- Node9&#45;&gt;Node12 -->
<g id="edge12" class="edge">
<title>Node9&#45;&gt;Node12</title>
<path fill="none" stroke="#63b8ff" d="M259.63,-103.24C290.55,-80.37 347.93,-37.92 372.89,-19.46"/>
<polygon fill="#63b8ff" stroke="#63b8ff" points="257.91,-100.9 251.95,-109.66 262.07,-106.53 257.91,-100.9"/>
</g>
<!-- Node13 -->
<g id="node13" class="node">
<title>Node13</title>
<g id="a_node13"><a xlink:href="_render_utilities_8h.html" target="_top" xlink:title="Definition of RenderUtilities, a class of utility functions for the render package.">
<polygon fill="white" stroke="#666666" points="283.5,-74 194.5,-74 194.5,-55 283.5,-55 283.5,-74"/>
<text text-anchor="middle" x="239" y="-62" font-family="Helvetica,sans-Serif" font-size="10.00">RenderUtilities.h</text>
</a>
</g>
</g>
<!-- Node9&#45;&gt;Node13 -->
<g id="edge13" class="edge">
<title>Node9&#45;&gt;Node13</title>
<path fill="none" stroke="#63b8ff" d="M239,-98.93C239,-90.53 239,-81.13 239,-74.44"/>
<polygon fill="#63b8ff" stroke="#63b8ff" points="235.5,-98.75 239,-108.75 242.5,-98.75 235.5,-98.75"/>
</g>
<!-- Node15 -->
<g id="node15" class="node">
<title>Node15</title>
<g id="a_node15"><a xlink:href="_render_validator_8cpp.html" target="_top" xlink:title="Definition of RenderValidator.">
<polygon fill="white" stroke="#666666" points="444,-74 340,-74 340,-55 444,-55 444,-74"/>
<text text-anchor="middle" x="392" y="-62" font-family="Helvetica,sans-Serif" font-size="10.00">RenderValidator.cpp</text>
</a>
</g>
</g>
<!-- Node9&#45;&gt;Node15 -->
<g id="edge17" class="edge">
<title>Node9&#45;&gt;Node15</title>
<path fill="none" stroke="#63b8ff" d="M275.14,-105.98C303.12,-96.29 341.2,-83.1 366.17,-74.45"/>
<polygon fill="#63b8ff" stroke="#63b8ff" points="274.26,-102.93 265.95,-109.51 276.55,-109.54 274.26,-102.93"/>
</g>
<!-- Node13&#45;&gt;Node11 -->
<g id="edge14" class="edge">
<title>Node13&#45;&gt;Node11</title>
<path fill="none" stroke="#63b8ff" d="M202.3,-51.11C173.55,-41.41 134.25,-28.14 108.5,-19.45"/>
<polygon fill="#63b8ff" stroke="#63b8ff" points="200.77,-54.63 211.37,-54.51 203.01,-47.99 200.77,-54.63"/>
</g>
<!-- Node13&#45;&gt;Node12 -->
<g id="edge16" class="edge">
<title>Node13&#45;&gt;Node12</title>
<path fill="none" stroke="#63b8ff" d="M273.87,-50.84C300.62,-41.13 336.88,-27.97 360.6,-19.36"/>
<polygon fill="#63b8ff" stroke="#63b8ff" points="272.97,-47.81 264.77,-54.51 275.36,-54.39 272.97,-47.81"/>
</g>
<!-- Node14 -->
<g id="node14" class="node">
<title>Node14</title>
<g id="a_node14"><a xlink:href="_render_list_of_layouts_plugin_8cpp.html" target="_top" xlink:title="Implementation of RenderListOfLayoutsPlugin, the plugin class of the fbc package for the Model elemen...">
<polygon fill="white" stroke="#666666" points="316.5,-19 161.5,-19 161.5,0 316.5,0 316.5,-19"/>
<text text-anchor="middle" x="239" y="-7" font-family="Helvetica,sans-Serif" font-size="10.00">RenderListOfLayoutsPlugin.cpp</text>
</a>
</g>
</g>
<!-- Node13&#45;&gt;Node14 -->
<g id="edge15" class="edge">
<title>Node13&#45;&gt;Node14</title>
<path fill="none" stroke="#63b8ff" d="M239,-43.93C239,-35.53 239,-26.13 239,-19.44"/>
<polygon fill="#63b8ff" stroke="#63b8ff" points="235.5,-43.75 239,-53.75 242.5,-43.75 235.5,-43.75"/>
</g>
<!-- Node19&#45;&gt;Node5 -->
<g id="edge22" class="edge">
<title>Node19&#45;&gt;Node5</title>
<path fill="none" stroke="#63b8ff" d="M823.24,-159.27C840.13,-149.74 861.83,-137.51 876.29,-129.36"/>
<polygon fill="#63b8ff" stroke="#63b8ff" points="821.94,-156.55 814.95,-164.51 825.38,-162.65 821.94,-156.55"/>
</g>
<!-- Node19&#45;&gt;Node7 -->
<g id="edge23" class="edge">
<title>Node19&#45;&gt;Node7</title>
<path fill="none" stroke="#63b8ff" d="M847.66,-162.06C890.07,-152.28 950.22,-138.42 989.18,-129.45"/>
<polygon fill="#63b8ff" stroke="#63b8ff" points="846.98,-158.85 838.02,-164.51 848.55,-165.67 846.98,-158.85"/>
</g>
<!-- Node19&#45;&gt;Node9 -->
<g id="edge25" class="edge">
<title>Node19&#45;&gt;Node9</title>
<path fill="none" stroke="#63b8ff" d="M745.22,-164.88C552.21,-141.26 500.97,-148.05 311,-129 308.12,-128.71 305.18,-128.41 302.2,-128.09"/>
<polygon fill="#63b8ff" stroke="#63b8ff" points="744.66,-168.47 755.02,-166.22 745.52,-161.52 744.66,-168.47"/>
</g>
<!-- Node19&#45;&gt;Node16 -->
<g id="edge26" class="edge">
<title>Node19&#45;&gt;Node16</title>
<path fill="none" stroke="#63b8ff" d="M745.67,-163.77C692.43,-153.87 610.67,-138.66 559.6,-129.17"/>
<polygon fill="#63b8ff" stroke="#63b8ff" points="744.78,-167.35 755.25,-165.74 746.06,-160.47 744.78,-167.35"/>
</g>
<!-- Node19&#45;&gt;Node17 -->
<g id="edge27" class="edge">
<title>Node19&#45;&gt;Node17</title>
<path fill="none" stroke="#63b8ff" d="M758.67,-161.24C727.51,-151.52 684.69,-138.18 656.7,-129.45"/>
<polygon fill="#63b8ff" stroke="#63b8ff" points="757.57,-164.87 768.16,-164.51 759.66,-158.19 757.57,-164.87"/>
</g>
<!-- Node19&#45;&gt;Node18 -->
<g id="edge28" class="edge">
<title>Node19&#45;&gt;Node18</title>
<path fill="none" stroke="#63b8ff" d="M783.56,-156.5C775.92,-147.5 766.86,-136.82 760.59,-129.44"/>
<polygon fill="#63b8ff" stroke="#63b8ff" points="781.43,-158.39 790.57,-163.75 786.76,-153.86 781.43,-158.39"/>
</g>
<!-- Node19&#45;&gt;Node20 -->
<g id="edge24" class="edge">
<title>Node19&#45;&gt;Node20</title>
<path fill="none" stroke="#63b8ff" d="M850.72,-164.69C997.29,-144.68 1036.86,-147.92 1181,-129 1183.68,-128.65 1186.44,-128.27 1189.21,-127.88"/>
<polygon fill="#63b8ff" stroke="#63b8ff" points="850.41,-161.34 840.98,-166.17 851.37,-168.27 850.41,-161.34"/>
</g>
</g>
</svg>
