<?xml version="1.0" encoding="UTF-8" standalone="no"?>
<!DOCTYPE svg PUBLIC "-//W3C//DTD SVG 1.1//EN"
 "http://www.w3.org/Graphics/SVG/1.1/DTD/svg11.dtd">
<!-- Generated by graphviz version 8.0.1 (20230327.1645)
 -->
<!-- Title: RenderCurve.h Pages: 1 -->
<svg width="880pt" height="192pt"
 viewBox="0.00 0.00 879.50 192.00" xmlns="http://www.w3.org/2000/svg" xmlns:xlink="http://www.w3.org/1999/xlink">
<g id="graph0" class="graph" transform="scale(1 1) rotate(0) translate(4 188)">
<title>RenderCurve.h</title>
<!-- Node1 -->
<g id="node1" class="node">
<title>Node1</title>
<g id="a_node1"><a xlink:title="Definition of the RenderCurve class.">
<polygon fill="#999999" stroke="#666666" points="488.5,-184 405.5,-184 405.5,-165 488.5,-165 488.5,-184"/>
<text text-anchor="middle" x="447" y="-172" font-family="Helvetica,sans-Serif" font-size="10.00">RenderCurve.h</text>
</a>
</g>
</g>
<!-- Node2 -->
<g id="node2" class="node">
<title>Node2</title>
<g id="a_node2"><a xlink:href="_graphical_primitive1_d_8cpp.html" target="_top" xlink:title="abstract base class for graphical 1D objects">
<polygon fill="white" stroke="#666666" points="128,-129 0,-129 0,-110 128,-110 128,-129"/>
<text text-anchor="middle" x="64" y="-117" font-family="Helvetica,sans-Serif" font-size="10.00">GraphicalPrimitive1D.cpp</text>
</a>
</g>
</g>
<!-- Node1&#45;&gt;Node2 -->
<g id="edge1" class="edge">
<title>Node1&#45;&gt;Node2</title>
<path fill="none" stroke="#63b8ff" d="M394.62,-166.25C325.28,-156.66 203.07,-139.74 128.23,-129.39"/>
<polygon fill="#63b8ff" stroke="#63b8ff" points="393.9,-169.82 404.28,-167.73 394.86,-162.89 393.9,-169.82"/>
</g>
<!-- Node3 -->
<g id="node3" class="node">
<title>Node3</title>
<g id="a_node3"><a xlink:href="_list_of_drawables_8cpp.html" target="_top" xlink:title="Implementation of the ListOfDrawables class.">
<polygon fill="white" stroke="#666666" points="254,-129 146,-129 146,-110 254,-110 254,-129"/>
<text text-anchor="middle" x="200" y="-117" font-family="Helvetica,sans-Serif" font-size="10.00">ListOfDrawables.cpp</text>
</a>
</g>
</g>
<!-- Node1&#45;&gt;Node3 -->
<g id="edge2" class="edge">
<title>Node1&#45;&gt;Node3</title>
<path fill="none" stroke="#63b8ff" d="M394.53,-162.24C348.95,-152.46 283.79,-138.48 241.69,-129.45"/>
<polygon fill="#63b8ff" stroke="#63b8ff" points="393.59,-165.83 404.1,-164.51 395.06,-158.99 393.59,-165.83"/>
</g>
<!-- Node4 -->
<g id="node4" class="node">
<title>Node4</title>
<g id="a_node4"><a xlink:href="_render_curve_8cpp.html" target="_top" xlink:title="Implementation of the RenderCurve class.">
<polygon fill="white" stroke="#666666" points="365.5,-129 272.5,-129 272.5,-110 365.5,-110 365.5,-129"/>
<text text-anchor="middle" x="319" y="-117" font-family="Helvetica,sans-Serif" font-size="10.00">RenderCurve.cpp</text>
</a>
</g>
</g>
<!-- Node1&#45;&gt;Node4 -->
<g id="edge3" class="edge">
<title>Node1&#45;&gt;Node4</title>
<path fill="none" stroke="#63b8ff" d="M415.18,-160.32C391.85,-150.67 360.82,-137.82 340.39,-129.36"/>
<polygon fill="#63b8ff" stroke="#63b8ff" points="413.71,-163.92 424.29,-164.51 416.39,-157.45 413.71,-163.92"/>
</g>
<!-- Node5 -->
<g id="node5" class="node">
<title>Node5</title>
<g id="a_node5"><a xlink:href="_render_extension_types_8h.html" target="_top" xlink:title="Definition of RenderExtensionTypes.">
<polygon fill="white" stroke="#666666" points="510,-129 384,-129 384,-110 510,-110 510,-129"/>
<text text-anchor="middle" x="447" y="-117" font-family="Helvetica,sans-Serif" font-size="10.00">RenderExtensionTypes.h</text>
</a>
</g>
</g>
<!-- Node1&#45;&gt;Node5 -->
<g id="edge4" class="edge">
<title>Node1&#45;&gt;Node5</title>
<path fill="none" stroke="#63b8ff" d="M447,-153.93C447,-145.53 447,-136.13 447,-129.44"/>
<polygon fill="#63b8ff" stroke="#63b8ff" points="443.5,-153.75 447,-163.75 450.5,-153.75 443.5,-153.75"/>
</g>
<!-- Node12 -->
<g id="node12" class="node">
<title>Node12</title>
<g id="a_node12"><a xlink:href="_render_group_8cpp.html" target="_top" xlink:title="Implementation of the RenderGroup class.">
<polygon fill="white" stroke="#666666" points="621.5,-129 528.5,-129 528.5,-110 621.5,-110 621.5,-129"/>
<text text-anchor="middle" x="575" y="-117" font-family="Helvetica,sans-Serif" font-size="10.00">RenderGroup.cpp</text>
</a>
</g>
</g>
<!-- Node1&#45;&gt;Node12 -->
<g id="edge13" class="edge">
<title>Node1&#45;&gt;Node12</title>
<path fill="none" stroke="#63b8ff" d="M478.82,-160.32C502.15,-150.67 533.18,-137.82 553.61,-129.36"/>
<polygon fill="#63b8ff" stroke="#63b8ff" points="477.61,-157.45 469.71,-164.51 480.29,-163.92 477.61,-157.45"/>
</g>
<!-- Node13 -->
<g id="node13" class="node">
<title>Node13</title>
<g id="a_node13"><a xlink:href="_transformation_8cpp.html" target="_top" xlink:title="class representing a 3D affine transformation">
<polygon fill="white" stroke="#666666" points="740.5,-129 639.5,-129 639.5,-110 740.5,-110 740.5,-129"/>
<text text-anchor="middle" x="690" y="-117" font-family="Helvetica,sans-Serif" font-size="10.00">Transformation.cpp</text>
</a>
</g>
</g>
<!-- Node1&#45;&gt;Node13 -->
<g id="edge14" class="edge">
<title>Node1&#45;&gt;Node13</title>
<path fill="none" stroke="#63b8ff" d="M498.9,-162.18C543.74,-152.4 607.65,-138.46 648.98,-129.45"/>
<polygon fill="#63b8ff" stroke="#63b8ff" points="498.25,-158.96 489.22,-164.51 499.74,-165.8 498.25,-158.96"/>
</g>
<!-- Node14 -->
<g id="node14" class="node">
<title>Node14</title>
<g id="a_node14"><a xlink:href="_transformation2_d_8cpp.html" target="_top" xlink:title="class representing a 2D affine transformation">
<polygon fill="white" stroke="#666666" points="871.5,-129 758.5,-129 758.5,-110 871.5,-110 871.5,-129"/>
<text text-anchor="middle" x="815" y="-117" font-family="Helvetica,sans-Serif" font-size="10.00">Transformation2D.cpp</text>
</a>
</g>
</g>
<!-- Node1&#45;&gt;Node14 -->
<g id="edge15" class="edge">
<title>Node1&#45;&gt;Node14</title>
<path fill="none" stroke="#63b8ff" d="M499.4,-165.95C567.91,-156.09 687.5,-138.86 758.15,-128.69"/>
<polygon fill="#63b8ff" stroke="#63b8ff" points="499.25,-162.58 489.86,-167.47 500.25,-169.51 499.25,-162.58"/>
</g>
<!-- Node6 -->
<g id="node6" class="node">
<title>Node6</title>
<g id="a_node6"><a xlink:href="_render_layout_converter_8cpp.html" target="_top" xlink:title="Simple converter to convert Layout + Render from l2 to L3 and vice versa.">
<polygon fill="white" stroke="#666666" points="346,-74 208,-74 208,-55 346,-55 346,-74"/>
<text text-anchor="middle" x="277" y="-62" font-family="Helvetica,sans-Serif" font-size="10.00">RenderLayoutConverter.cpp</text>
</a>
</g>
</g>
<!-- Node5&#45;&gt;Node6 -->
<g id="edge5" class="edge">
<title>Node5&#45;&gt;Node6</title>
<path fill="none" stroke="#63b8ff" d="M407.67,-106.24C376.51,-96.52 333.69,-83.18 305.7,-74.45"/>
<polygon fill="#63b8ff" stroke="#63b8ff" points="406.57,-109.87 417.16,-109.51 408.66,-103.19 406.57,-109.87"/>
</g>
<!-- Node7 -->
<g id="node7" class="node">
<title>Node7</title>
<g id="a_node7"><a xlink:href="_render_layout_plugin_8cpp.html" target="_top" xlink:title="Implementation of RenderLayoutPlugin, the plugin class of the fbc package for the Model element.">
<polygon fill="white" stroke="#666666" points="351.5,-19 228.5,-19 228.5,0 351.5,0 351.5,-19"/>
<text text-anchor="middle" x="290" y="-7" font-family="Helvetica,sans-Serif" font-size="10.00">RenderLayoutPlugin.cpp</text>
</a>
</g>
</g>
<!-- Node5&#45;&gt;Node7 -->
<g id="edge6" class="edge">
<title>Node5&#45;&gt;Node7</title>
<path fill="none" stroke="#63b8ff" d="M425.35,-103.52C406.72,-90.64 379.11,-71.57 355,-55 336.97,-42.6 316.09,-28.32 302.96,-19.35"/>
<polygon fill="#63b8ff" stroke="#63b8ff" points="423,-106.84 433.21,-109.65 426.98,-101.08 423,-106.84"/>
</g>
<!-- Node8 -->
<g id="node8" class="node">
<title>Node8</title>
<g id="a_node8"><a xlink:href="_render_utilities_8cpp.html" target="_top" xlink:title="implementation of RenderUtilities, a class of utility functions for the render package">
<polygon fill="white" stroke="#666666" points="643,-19 543,-19 543,0 643,0 643,-19"/>
<text text-anchor="middle" x="593" y="-7" font-family="Helvetica,sans-Serif" font-size="10.00">RenderUtilities.cpp</text>
</a>
</g>
</g>
<!-- Node5&#45;&gt;Node8 -->
<g id="edge7" class="edge">
<title>Node5&#45;&gt;Node8</title>
<path fill="none" stroke="#63b8ff" d="M467.63,-103.24C498.55,-80.37 555.93,-37.92 580.89,-19.46"/>
<polygon fill="#63b8ff" stroke="#63b8ff" points="465.91,-100.9 459.95,-109.66 470.07,-106.53 465.91,-100.9"/>
</g>
<!-- Node9 -->
<g id="node9" class="node">
<title>Node9</title>
<g id="a_node9"><a xlink:href="_render_utilities_8h.html" target="_top" xlink:title="Definition of RenderUtilities, a class of utility functions for the render package.">
<polygon fill="white" stroke="#666666" points="491.5,-74 402.5,-74 402.5,-55 491.5,-55 491.5,-74"/>
<text text-anchor="middle" x="447" y="-62" font-family="Helvetica,sans-Serif" font-size="10.00">RenderUtilities.h</text>
</a>
</g>
</g>
<!-- Node5&#45;&gt;Node9 -->
<g id="edge8" class="edge">
<title>Node5&#45;&gt;Node9</title>
<path fill="none" stroke="#63b8ff" d="M447,-98.93C447,-90.53 447,-81.13 447,-74.44"/>
<polygon fill="#63b8ff" stroke="#63b8ff" points="443.5,-98.75 447,-108.75 450.5,-98.75 443.5,-98.75"/>
</g>
<!-- Node11 -->
<g id="node11" class="node">
<title>Node11</title>
<g id="a_node11"><a xlink:href="_render_validator_8cpp.html" target="_top" xlink:title="Definition of RenderValidator.">
<polygon fill="white" stroke="#666666" points="652,-74 548,-74 548,-55 652,-55 652,-74"/>
<text text-anchor="middle" x="600" y="-62" font-family="Helvetica,sans-Serif" font-size="10.00">RenderValidator.cpp</text>
</a>
</g>
</g>
<!-- Node5&#45;&gt;Node11 -->
<g id="edge12" class="edge">
<title>Node5&#45;&gt;Node11</title>
<path fill="none" stroke="#63b8ff" d="M483.14,-105.98C511.12,-96.29 549.2,-83.1 574.17,-74.45"/>
<polygon fill="#63b8ff" stroke="#63b8ff" points="482.26,-102.93 473.95,-109.51 484.55,-109.54 482.26,-102.93"/>
</g>
<!-- Node9&#45;&gt;Node7 -->
<g id="edge9" class="edge">
<title>Node9&#45;&gt;Node7</title>
<path fill="none" stroke="#63b8ff" d="M410.3,-51.11C381.55,-41.41 342.25,-28.14 316.5,-19.45"/>
<polygon fill="#63b8ff" stroke="#63b8ff" points="408.77,-54.63 419.37,-54.51 411.01,-47.99 408.77,-54.63"/>
</g>
<!-- Node9&#45;&gt;Node8 -->
<g id="edge11" class="edge">
<title>Node9&#45;&gt;Node8</title>
<path fill="none" stroke="#63b8ff" d="M481.87,-50.84C508.62,-41.13 544.88,-27.97 568.6,-19.36"/>
<polygon fill="#63b8ff" stroke="#63b8ff" points="480.97,-47.81 472.77,-54.51 483.36,-54.39 480.97,-47.81"/>
</g>
<!-- Node10 -->
<g id="node10" class="node">
<title>Node10</title>
<g id="a_node10"><a xlink:href="_render_list_of_layouts_plugin_8cpp.html" target="_top" xlink:title="Implementation of RenderListOfLayoutsPlugin, the plugin class of the fbc package for the Model elemen...">
<polygon fill="white" stroke="#666666" points="524.5,-19 369.5,-19 369.5,0 524.5,0 524.5,-19"/>
<text text-anchor="middle" x="447" y="-7" font-family="Helvetica,sans-Serif" font-size="10.00">RenderListOfLayoutsPlugin.cpp</text>
</a>
</g>
</g>
<!-- Node9&#45;&gt;Node10 -->
<g id="edge10" class="edge">
<title>Node9&#45;&gt;Node10</title>
<path fill="none" stroke="#63b8ff" d="M447,-43.93C447,-35.53 447,-26.13 447,-19.44"/>
<polygon fill="#63b8ff" stroke="#63b8ff" points="443.5,-43.75 447,-53.75 450.5,-43.75 443.5,-43.75"/>
</g>
</g>
</svg>
