<?xml version="1.0" encoding="UTF-8" standalone="no"?>
<!DOCTYPE svg PUBLIC "-//W3C//DTD SVG 1.1//EN"
 "http://www.w3.org/Graphics/SVG/1.1/DTD/svg11.dtd">
<!-- Generated by graphviz version 8.0.1 (20230327.1645)
 -->
<!-- Title: SBMLExtensionException.h Pages: 1 -->
<svg width="555pt" height="335pt"
 viewBox="0.00 0.00 554.69 335.00" xmlns="http://www.w3.org/2000/svg" xmlns:xlink="http://www.w3.org/1999/xlink">
<g id="graph0" class="graph" transform="scale(1 1) rotate(0) translate(4 331)">
<title>SBMLExtensionException.h</title>
<!-- Node1 -->
<g id="node1" class="node">
<title>Node1</title>
<g id="a_node1"><a xlink:title="Class of exceptions thrown in some situations.">
<polygon fill="#999999" stroke="#666666" points="496.69,-327 357.69,-327 357.69,-308 496.69,-308 496.69,-327"/>
<text text-anchor="middle" x="427.19" y="-315" font-family="Helvetica,sans-Serif" font-size="10.00">SBMLExtensionException.h</text>
</a>
</g>
</g>
<!-- Node2 -->
<g id="node2" class="node">
<title>Node2</title>
<g id="a_node2"><a xlink:href="common_8h.html" target="_top" xlink:title="Common functions and macros for C and C++.">
<polygon fill="white" stroke="#666666" points="388.69,-272 261.69,-272 261.69,-253 388.69,-253 388.69,-272"/>
<text text-anchor="middle" x="325.19" y="-260" font-family="Helvetica,sans-Serif" font-size="10.00">sbml/common/common.h</text>
</a>
</g>
</g>
<!-- Node1&#45;&gt;Node2 -->
<g id="edge1" class="edge">
<title>Node1&#45;&gt;Node2</title>
<path fill="none" stroke="#63b8ff" d="M409.89,-307.51C393.97,-299.24 370.11,-286.84 351.77,-277.31"/>
<polygon fill="#63b8ff" stroke="#63b8ff" points="353.73,-273.86 343.24,-272.36 350.5,-280.07 353.73,-273.86"/>
</g>
<!-- Node12 -->
<g id="node12" class="node">
<title>Node12</title>
<g id="a_node12"><a xlink:title=" ">
<polygon fill="#e0e0e0" stroke="#999999" points="447.69,-272 406.69,-272 406.69,-253 447.69,-253 447.69,-272"/>
<text text-anchor="middle" x="427.19" y="-260" font-family="Helvetica,sans-Serif" font-size="10.00">string</text>
</a>
</g>
</g>
<!-- Node1&#45;&gt;Node12 -->
<g id="edge15" class="edge">
<title>Node1&#45;&gt;Node12</title>
<path fill="none" stroke="#63b8ff" d="M427.19,-307.75C427.19,-301.11 427.19,-291.73 427.19,-283.31"/>
<polygon fill="#63b8ff" stroke="#63b8ff" points="430.69,-283.44 427.19,-273.44 423.69,-283.44 430.69,-283.44"/>
</g>
<!-- Node13 -->
<g id="node13" class="node">
<title>Node13</title>
<g id="a_node13"><a xlink:title=" ">
<polygon fill="#e0e0e0" stroke="#999999" points="524.69,-272 465.69,-272 465.69,-253 524.69,-253 524.69,-272"/>
<text text-anchor="middle" x="495.19" y="-260" font-family="Helvetica,sans-Serif" font-size="10.00">stdexcept</text>
</a>
</g>
</g>
<!-- Node1&#45;&gt;Node13 -->
<g id="edge16" class="edge">
<title>Node1&#45;&gt;Node13</title>
<path fill="none" stroke="#63b8ff" d="M438.73,-307.51C448.75,-299.7 463.49,-288.21 475.4,-278.93"/>
<polygon fill="#63b8ff" stroke="#63b8ff" points="477.09,-281.27 482.83,-272.36 472.79,-275.74 477.09,-281.27"/>
</g>
<!-- Node3 -->
<g id="node3" class="node">
<title>Node3</title>
<g id="a_node3"><a xlink:href="libsbml-config_8h.html" target="_top" xlink:title="Decides whether to #include Unix or Windows configuration variables.">
<polygon fill="white" stroke="#666666" points="194.19,-217 82.19,-217 82.19,-187 194.19,-187 194.19,-217"/>
<text text-anchor="start" x="90.19" y="-205" font-family="Helvetica,sans-Serif" font-size="10.00">sbml/common/libsbml</text>
<text text-anchor="middle" x="138.19" y="-194" font-family="Helvetica,sans-Serif" font-size="10.00">&#45;config.h</text>
</a>
</g>
</g>
<!-- Node2&#45;&gt;Node3 -->
<g id="edge2" class="edge">
<title>Node2&#45;&gt;Node3</title>
<path fill="none" stroke="#63b8ff" d="M296.79,-252.62C269.75,-244.16 228.3,-231.19 194.55,-220.63"/>
<polygon fill="#63b8ff" stroke="#63b8ff" points="195.94,-217.08 185.35,-217.44 193.85,-223.77 195.94,-217.08"/>
</g>
<!-- Node7 -->
<g id="node7" class="node">
<title>Node7</title>
<g id="a_node7"><a xlink:href="extern_8h.html" target="_top" xlink:title="Definitions of LIBSBML_EXTERN and related things.">
<polygon fill="white" stroke="#666666" points="303.19,-85 187.19,-85 187.19,-66 303.19,-66 303.19,-85"/>
<text text-anchor="middle" x="245.19" y="-73" font-family="Helvetica,sans-Serif" font-size="10.00">sbml/common/extern.h</text>
</a>
</g>
</g>
<!-- Node2&#45;&gt;Node7 -->
<g id="edge9" class="edge">
<title>Node2&#45;&gt;Node7</title>
<path fill="none" stroke="#63b8ff" d="M321.87,-252.5C313.5,-230.04 290.64,-169.78 268.19,-121 264.19,-112.31 259.38,-102.87 255.2,-94.93"/>
<polygon fill="#63b8ff" stroke="#63b8ff" points="257.82,-93.41 250.01,-86.25 251.65,-96.72 257.82,-93.41"/>
</g>
<!-- Node8 -->
<g id="node8" class="node">
<title>Node8</title>
<g id="a_node8"><a xlink:title=" ">
<polygon fill="#e0e0e0" stroke="#999999" points="378.19,-145.5 332.19,-145.5 332.19,-126.5 378.19,-126.5 378.19,-145.5"/>
<text text-anchor="middle" x="355.19" y="-133.5" font-family="Helvetica,sans-Serif" font-size="10.00">stdio.h</text>
</a>
</g>
</g>
<!-- Node2&#45;&gt;Node8 -->
<g id="edge8" class="edge">
<title>Node2&#45;&gt;Node8</title>
<path fill="none" stroke="#63b8ff" d="M327.35,-252.55C332.17,-232.54 343.91,-183.81 350.5,-156.45"/>
<polygon fill="#63b8ff" stroke="#63b8ff" points="354.11,-157.41 353.05,-146.87 347.31,-155.77 354.11,-157.41"/>
</g>
<!-- Node9 -->
<g id="node9" class="node">
<title>Node9</title>
<g id="a_node9"><a xlink:href="memory_8h.html" target="_top" xlink:title=" ">
<polygon fill="white" stroke="#666666" points="451.19,-211.5 353.19,-211.5 353.19,-192.5 451.19,-192.5 451.19,-211.5"/>
<text text-anchor="middle" x="402.19" y="-199.5" font-family="Helvetica,sans-Serif" font-size="10.00">sbml/util/memory.h</text>
</a>
</g>
</g>
<!-- Node2&#45;&gt;Node9 -->
<g id="edge10" class="edge">
<title>Node2&#45;&gt;Node9</title>
<path fill="none" stroke="#63b8ff" d="M336.89,-252.62C348.76,-243.6 367.38,-229.45 381.71,-218.56"/>
<polygon fill="#63b8ff" stroke="#63b8ff" points="383.54,-220.8 389.39,-211.97 379.31,-215.23 383.54,-220.8"/>
</g>
<!-- Node10 -->
<g id="node10" class="node">
<title>Node10</title>
<g id="a_node10"><a xlink:href="util_8h.html" target="_top" xlink:title="Utility functions.">
<polygon fill="white" stroke="#666666" points="546.69,-211.5 469.69,-211.5 469.69,-192.5 546.69,-192.5 546.69,-211.5"/>
<text text-anchor="middle" x="508.19" y="-199.5" font-family="Helvetica,sans-Serif" font-size="10.00">sbml/util/util.h</text>
</a>
</g>
</g>
<!-- Node2&#45;&gt;Node10 -->
<g id="edge11" class="edge">
<title>Node2&#45;&gt;Node10</title>
<path fill="none" stroke="#63b8ff" d="M352.98,-252.62C384.16,-242.65 434.91,-226.43 469.84,-215.26"/>
<polygon fill="#63b8ff" stroke="#63b8ff" points="470.68,-218.35 479.14,-211.97 468.54,-211.68 470.68,-218.35"/>
</g>
<!-- Node4 -->
<g id="node4" class="node">
<title>Node4</title>
<g id="a_node4"><a xlink:title=" ">
<polygon fill="#e0e0e0" stroke="#999999" points="152.19,-30 40.19,-30 40.19,0 152.19,0 152.19,-30"/>
<text text-anchor="start" x="48.19" y="-18" font-family="Helvetica,sans-Serif" font-size="10.00">sbml/common/libsbml</text>
<text text-anchor="middle" x="96.19" y="-7" font-family="Helvetica,sans-Serif" font-size="10.00">&#45;namespace.h</text>
</a>
</g>
</g>
<!-- Node3&#45;&gt;Node4 -->
<g id="edge3" class="edge">
<title>Node3&#45;&gt;Node4</title>
<path fill="none" stroke="#63b8ff" d="M82.02,-194.15C54.95,-187.71 24.82,-175.22 8.19,-151 -19.26,-111.03 30.79,-63.31 65.99,-36.64"/>
<polygon fill="#63b8ff" stroke="#63b8ff" points="67.58,-39.08 73.56,-30.34 63.43,-33.44 67.58,-39.08"/>
</g>
<!-- Node5 -->
<g id="node5" class="node">
<title>Node5</title>
<g id="a_node5"><a xlink:title=" ">
<polygon fill="#e0e0e0" stroke="#999999" points="129.19,-151 17.19,-151 17.19,-121 129.19,-121 129.19,-151"/>
<text text-anchor="start" x="25.19" y="-139" font-family="Helvetica,sans-Serif" font-size="10.00">sbml/common/libsbml</text>
<text text-anchor="middle" x="73.19" y="-128" font-family="Helvetica,sans-Serif" font-size="10.00">&#45;config&#45;common.h</text>
</a>
</g>
</g>
<!-- Node3&#45;&gt;Node5 -->
<g id="edge4" class="edge">
<title>Node3&#45;&gt;Node5</title>
<path fill="none" stroke="#63b8ff" d="M123.76,-186.8C115.43,-178.59 104.78,-168.1 95.4,-158.87"/>
<polygon fill="#63b8ff" stroke="#63b8ff" points="98.16,-156.69 88.58,-152.16 93.25,-161.67 98.16,-156.69"/>
</g>
<!-- Node6 -->
<g id="node6" class="node">
<title>Node6</title>
<g id="a_node6"><a xlink:href="libsbml-version_8h.html" target="_top" xlink:title="Define libSBML version numbers for access from client software.">
<polygon fill="white" stroke="#666666" points="259.19,-151 147.19,-151 147.19,-121 259.19,-121 259.19,-151"/>
<text text-anchor="start" x="155.19" y="-139" font-family="Helvetica,sans-Serif" font-size="10.00">sbml/common/libsbml</text>
<text text-anchor="middle" x="203.19" y="-128" font-family="Helvetica,sans-Serif" font-size="10.00">&#45;version.h</text>
</a>
</g>
</g>
<!-- Node3&#45;&gt;Node6 -->
<g id="edge5" class="edge">
<title>Node3&#45;&gt;Node6</title>
<path fill="none" stroke="#63b8ff" d="M152.62,-186.8C160.95,-178.59 171.6,-168.1 180.98,-158.87"/>
<polygon fill="#63b8ff" stroke="#63b8ff" points="183.14,-161.67 187.81,-152.16 178.22,-156.69 183.14,-161.67"/>
</g>
<!-- Node6&#45;&gt;Node7 -->
<g id="edge6" class="edge">
<title>Node6&#45;&gt;Node7</title>
<path fill="none" stroke="#63b8ff" d="M213.57,-120.54C219.36,-112.48 226.61,-102.38 232.71,-93.89"/>
<polygon fill="#63b8ff" stroke="#63b8ff" points="235.97,-96.34 238.96,-86.18 230.29,-92.26 235.97,-96.34"/>
</g>
<!-- Node7&#45;&gt;Node4 -->
<g id="edge7" class="edge">
<title>Node7&#45;&gt;Node4</title>
<path fill="none" stroke="#63b8ff" d="M222.56,-65.62C201.57,-57.38 169.69,-44.86 143.19,-34.45"/>
<polygon fill="#63b8ff" stroke="#63b8ff" points="144.56,-30.84 133.97,-30.44 142,-37.35 144.56,-30.84"/>
</g>
<!-- Node10&#45;&gt;Node7 -->
<g id="edge14" class="edge">
<title>Node10&#45;&gt;Node7</title>
<path fill="none" stroke="#63b8ff" d="M497.15,-192.14C476.6,-176.02 430.63,-141.66 387.19,-121 357.4,-106.83 322,-95.73 294,-88.15"/>
<polygon fill="#63b8ff" stroke="#63b8ff" points="295.22,-84.59 284.66,-85.42 293.43,-91.36 295.22,-84.59"/>
</g>
<!-- Node10&#45;&gt;Node8 -->
<g id="edge12" class="edge">
<title>Node10&#45;&gt;Node8</title>
<path fill="none" stroke="#63b8ff" d="M486.92,-192.1C460.77,-181.16 416.19,-162.52 386.22,-149.98"/>
<polygon fill="#63b8ff" stroke="#63b8ff" points="387.86,-146.45 377.28,-145.82 385.16,-152.91 387.86,-146.45"/>
</g>
<!-- Node11 -->
<g id="node11" class="node">
<title>Node11</title>
<g id="a_node11"><a xlink:title=" ">
<polygon fill="#e0e0e0" stroke="#999999" points="534.19,-145.5 482.19,-145.5 482.19,-126.5 534.19,-126.5 534.19,-145.5"/>
<text text-anchor="middle" x="508.19" y="-133.5" font-family="Helvetica,sans-Serif" font-size="10.00">stdarg.h</text>
</a>
</g>
</g>
<!-- Node10&#45;&gt;Node11 -->
<g id="edge13" class="edge">
<title>Node10&#45;&gt;Node11</title>
<path fill="none" stroke="#63b8ff" d="M508.19,-192.1C508.19,-182.93 508.19,-168.34 508.19,-156.48"/>
<polygon fill="#63b8ff" stroke="#63b8ff" points="511.69,-156.82 508.19,-146.82 504.69,-156.82 511.69,-156.82"/>
</g>
</g>
</svg>
