<?xml version="1.0" encoding="UTF-8" standalone="no"?>
<!DOCTYPE svg PUBLIC "-//W3C//DTD SVG 1.1//EN"
 "http://www.w3.org/Graphics/SVG/1.1/DTD/svg11.dtd">
<!-- Generated by graphviz version 8.0.1 (20230327.1645)
 -->
<!-- Title: SBMLVisitor.h Pages: 1 -->
<svg width="328pt" height="335pt"
 viewBox="0.00 0.00 328.40 335.00" xmlns="http://www.w3.org/2000/svg" xmlns:xlink="http://www.w3.org/1999/xlink">
<g id="graph0" class="graph" transform="scale(1 1) rotate(0) translate(4 331)">
<title>SBMLVisitor.h</title>
<!-- Node1 -->
<g id="node1" class="node">
<title>Node1</title>
<g id="a_node1"><a xlink:title="Visitor Design Pattern for the SBML object tree.">
<polygon fill="#999999" stroke="#666666" points="78.99,-327 0.99,-327 0.99,-308 78.99,-308 78.99,-327"/>
<text text-anchor="middle" x="39.99" y="-315" font-family="Helvetica,sans-Serif" font-size="10.00">SBMLVisitor.h</text>
</a>
</g>
</g>
<!-- Node2 -->
<g id="node2" class="node">
<title>Node2</title>
<g id="a_node2"><a xlink:href="extern_8h.html" target="_top" xlink:title="Definitions of LIBSBML_EXTERN and related things.">
<polygon fill="white" stroke="#666666" points="196.99,-85 80.99,-85 80.99,-66 196.99,-66 196.99,-85"/>
<text text-anchor="middle" x="138.99" y="-73" font-family="Helvetica,sans-Serif" font-size="10.00">sbml/common/extern.h</text>
</a>
</g>
</g>
<!-- Node1&#45;&gt;Node2 -->
<g id="edge1" class="edge">
<title>Node1&#45;&gt;Node2</title>
<path fill="none" stroke="#63b8ff" d="M32.85,-307.6C26.49,-299.05 17.64,-285.47 13.99,-272 0.75,-223.11 -17.44,-193.28 39.99,-121 52.04,-105.83 70.38,-95.67 88.02,-88.94"/>
<polygon fill="#63b8ff" stroke="#63b8ff" points="88.98,-91.96 97.26,-85.36 86.67,-85.35 88.98,-91.96"/>
</g>
<!-- Node4 -->
<g id="node4" class="node">
<title>Node4</title>
<g id="a_node4"><a xlink:href="_s_b_m_l_type_codes_8h.html" target="_top" xlink:title="Enumeration to identify SBML objects at runtime.">
<polygon fill="white" stroke="#666666" points="148.49,-272 23.49,-272 23.49,-253 148.49,-253 148.49,-272"/>
<text text-anchor="middle" x="85.99" y="-260" font-family="Helvetica,sans-Serif" font-size="10.00">sbml/SBMLTypeCodes.h</text>
</a>
</g>
</g>
<!-- Node1&#45;&gt;Node4 -->
<g id="edge3" class="edge">
<title>Node1&#45;&gt;Node4</title>
<path fill="none" stroke="#63b8ff" d="M47.58,-307.75C53.94,-300.43 63.19,-289.76 71.03,-280.74"/>
<polygon fill="#63b8ff" stroke="#63b8ff" points="74.32,-283.29 78.23,-273.44 69.03,-278.7 74.32,-283.29"/>
</g>
<!-- Node3 -->
<g id="node3" class="node">
<title>Node3</title>
<g id="a_node3"><a xlink:title=" ">
<polygon fill="#e0e0e0" stroke="#999999" points="237.99,-30 125.99,-30 125.99,0 237.99,0 237.99,-30"/>
<text text-anchor="start" x="133.99" y="-18" font-family="Helvetica,sans-Serif" font-size="10.00">sbml/common/libsbml</text>
<text text-anchor="middle" x="181.99" y="-7" font-family="Helvetica,sans-Serif" font-size="10.00">&#45;namespace.h</text>
</a>
</g>
</g>
<!-- Node2&#45;&gt;Node3 -->
<g id="edge2" class="edge">
<title>Node2&#45;&gt;Node3</title>
<path fill="none" stroke="#63b8ff" d="M145.33,-65.87C150.57,-58.74 158.26,-48.28 165.24,-38.79"/>
<polygon fill="#63b8ff" stroke="#63b8ff" points="168.51,-41.25 171.61,-31.11 162.87,-37.1 168.51,-41.25"/>
</g>
<!-- Node4&#45;&gt;Node2 -->
<g id="edge9" class="edge">
<title>Node4&#45;&gt;Node2</title>
<path fill="none" stroke="#63b8ff" d="M79.52,-252.56C63.47,-229.2 25.01,-165.1 51.99,-121 60.99,-106.28 76.58,-96.23 92.09,-89.47"/>
<polygon fill="#63b8ff" stroke="#63b8ff" points="93.19,-92.4 101.21,-85.48 90.62,-85.89 93.19,-92.4"/>
</g>
<!-- Node5 -->
<g id="node5" class="node">
<title>Node5</title>
<g id="a_node5"><a xlink:href="libsbml-config_8h.html" target="_top" xlink:title="Decides whether to #include Unix or Windows configuration variables.">
<polygon fill="white" stroke="#666666" points="237.99,-217 125.99,-217 125.99,-187 237.99,-187 237.99,-217"/>
<text text-anchor="start" x="133.99" y="-205" font-family="Helvetica,sans-Serif" font-size="10.00">sbml/common/libsbml</text>
<text text-anchor="middle" x="181.99" y="-194" font-family="Helvetica,sans-Serif" font-size="10.00">&#45;config.h</text>
</a>
</g>
</g>
<!-- Node4&#45;&gt;Node5 -->
<g id="edge4" class="edge">
<title>Node4&#45;&gt;Node5</title>
<path fill="none" stroke="#63b8ff" d="M100.57,-252.62C113.37,-244.81 132.47,-233.17 148.96,-223.13"/>
<polygon fill="#63b8ff" stroke="#63b8ff" points="150.57,-225.63 157.29,-217.44 146.93,-219.65 150.57,-225.63"/>
</g>
<!-- Node5&#45;&gt;Node3 -->
<g id="edge5" class="edge">
<title>Node5&#45;&gt;Node3</title>
<path fill="none" stroke="#63b8ff" d="M238.16,-194.15C265.23,-187.71 295.35,-175.22 311.99,-151 343.7,-104.83 273.98,-59.71 224.91,-35.11"/>
<polygon fill="#63b8ff" stroke="#63b8ff" points="226.62,-31.56 216.1,-30.32 223.55,-37.85 226.62,-31.56"/>
</g>
<!-- Node6 -->
<g id="node6" class="node">
<title>Node6</title>
<g id="a_node6"><a xlink:title=" ">
<polygon fill="#e0e0e0" stroke="#999999" points="172.99,-151 60.99,-151 60.99,-121 172.99,-121 172.99,-151"/>
<text text-anchor="start" x="68.99" y="-139" font-family="Helvetica,sans-Serif" font-size="10.00">sbml/common/libsbml</text>
<text text-anchor="middle" x="116.99" y="-128" font-family="Helvetica,sans-Serif" font-size="10.00">&#45;config&#45;common.h</text>
</a>
</g>
</g>
<!-- Node5&#45;&gt;Node6 -->
<g id="edge6" class="edge">
<title>Node5&#45;&gt;Node6</title>
<path fill="none" stroke="#63b8ff" d="M167.56,-186.8C159.23,-178.59 148.58,-168.1 139.2,-158.87"/>
<polygon fill="#63b8ff" stroke="#63b8ff" points="141.95,-156.69 132.37,-152.16 137.04,-161.67 141.95,-156.69"/>
</g>
<!-- Node7 -->
<g id="node7" class="node">
<title>Node7</title>
<g id="a_node7"><a xlink:href="libsbml-version_8h.html" target="_top" xlink:title="Define libSBML version numbers for access from client software.">
<polygon fill="white" stroke="#666666" points="302.99,-151 190.99,-151 190.99,-121 302.99,-121 302.99,-151"/>
<text text-anchor="start" x="198.99" y="-139" font-family="Helvetica,sans-Serif" font-size="10.00">sbml/common/libsbml</text>
<text text-anchor="middle" x="246.99" y="-128" font-family="Helvetica,sans-Serif" font-size="10.00">&#45;version.h</text>
</a>
</g>
</g>
<!-- Node5&#45;&gt;Node7 -->
<g id="edge7" class="edge">
<title>Node5&#45;&gt;Node7</title>
<path fill="none" stroke="#63b8ff" d="M196.41,-186.8C204.74,-178.59 215.4,-168.1 224.78,-158.87"/>
<polygon fill="#63b8ff" stroke="#63b8ff" points="226.93,-161.67 231.6,-152.16 222.02,-156.69 226.93,-161.67"/>
</g>
<!-- Node7&#45;&gt;Node2 -->
<g id="edge8" class="edge">
<title>Node7&#45;&gt;Node2</title>
<path fill="none" stroke="#63b8ff" d="M220.29,-120.54C203.27,-111.32 181.33,-99.44 164.54,-90.34"/>
<polygon fill="#63b8ff" stroke="#63b8ff" points="166.78,-87.03 156.32,-85.35 163.44,-93.19 166.78,-87.03"/>
</g>
</g>
</svg>
