<?xml version="1.0" encoding="UTF-8" standalone="no"?>
<!DOCTYPE svg PUBLIC "-//W3C//DTD SVG 1.1//EN"
 "http://www.w3.org/Graphics/SVG/1.1/DTD/svg11.dtd">
<!-- Generated by graphviz version 8.0.1 (20230327.1645)
 -->
<!-- Title: SBMLWriter.h Pages: 1 -->
<svg width="392pt" height="335pt"
 viewBox="0.00 0.00 392.45 335.00" xmlns="http://www.w3.org/2000/svg" xmlns:xlink="http://www.w3.org/1999/xlink">
<g id="graph0" class="graph" transform="scale(1 1) rotate(0) translate(4 331)">
<title>SBMLWriter.h</title>
<!-- Node1 -->
<g id="node1" class="node">
<title>Node1</title>
<g id="a_node1"><a xlink:title="Writes an SBML Document to file or in&#45;memory string.">
<polygon fill="#999999" stroke="#666666" points="289.45,-327 212.45,-327 212.45,-308 289.45,-308 289.45,-327"/>
<text text-anchor="middle" x="250.95" y="-315" font-family="Helvetica,sans-Serif" font-size="10.00">SBMLWriter.h</text>
</a>
</g>
</g>
<!-- Node2 -->
<g id="node2" class="node">
<title>Node2</title>
<g id="a_node2"><a xlink:href="extern_8h.html" target="_top" xlink:title="Definitions of LIBSBML_EXTERN and related things.">
<polygon fill="white" stroke="#666666" points="254.95,-85 138.95,-85 138.95,-66 254.95,-66 254.95,-85"/>
<text text-anchor="middle" x="196.95" y="-73" font-family="Helvetica,sans-Serif" font-size="10.00">sbml/common/extern.h</text>
</a>
</g>
</g>
<!-- Node1&#45;&gt;Node2 -->
<g id="edge1" class="edge">
<title>Node1&#45;&gt;Node2</title>
<path fill="none" stroke="#63b8ff" d="M213.24,-307.55C187.63,-300.41 153.68,-288.79 126.95,-272 62.02,-231.21 33.59,-221.73 3.95,-151 -18.39,-97.69 63.64,-81.96 127.64,-77.64"/>
<polygon fill="#63b8ff" stroke="#63b8ff" points="127.77,-81.08 137.54,-76.99 127.35,-74.09 127.77,-81.08"/>
</g>
<!-- Node4 -->
<g id="node4" class="node">
<title>Node4</title>
<g id="a_node4"><a xlink:href="sbmlfwd_8h.html" target="_top" xlink:title="Forward declarations for all opaque C types.">
<polygon fill="white" stroke="#666666" points="261.95,-272 135.95,-272 135.95,-253 261.95,-253 261.95,-272"/>
<text text-anchor="middle" x="198.95" y="-260" font-family="Helvetica,sans-Serif" font-size="10.00">sbml/common/sbmlfwd.h</text>
</a>
</g>
</g>
<!-- Node1&#45;&gt;Node4 -->
<g id="edge3" class="edge">
<title>Node1&#45;&gt;Node4</title>
<path fill="none" stroke="#63b8ff" d="M242.37,-307.75C235.03,-300.27 224.28,-289.32 215.31,-280.17"/>
<polygon fill="#63b8ff" stroke="#63b8ff" points="218.23,-278.13 208.73,-273.44 213.23,-283.03 218.23,-278.13"/>
</g>
<!-- Node8 -->
<g id="node8" class="node">
<title>Node8</title>
<g id="a_node8"><a xlink:title=" ">
<polygon fill="#e0e0e0" stroke="#999999" points="325.45,-272 280.45,-272 280.45,-253 325.45,-253 325.45,-272"/>
<text text-anchor="middle" x="302.95" y="-260" font-family="Helvetica,sans-Serif" font-size="10.00">iosfwd</text>
</a>
</g>
</g>
<!-- Node1&#45;&gt;Node8 -->
<g id="edge10" class="edge">
<title>Node1&#45;&gt;Node8</title>
<path fill="none" stroke="#63b8ff" d="M259.54,-307.75C266.87,-300.27 277.63,-289.32 286.59,-280.17"/>
<polygon fill="#63b8ff" stroke="#63b8ff" points="288.68,-283.03 293.18,-273.44 283.68,-278.13 288.68,-283.03"/>
</g>
<!-- Node9 -->
<g id="node9" class="node">
<title>Node9</title>
<g id="a_node9"><a xlink:title=" ">
<polygon fill="#e0e0e0" stroke="#999999" points="384.45,-272 343.45,-272 343.45,-253 384.45,-253 384.45,-272"/>
<text text-anchor="middle" x="363.95" y="-260" font-family="Helvetica,sans-Serif" font-size="10.00">string</text>
</a>
</g>
</g>
<!-- Node1&#45;&gt;Node9 -->
<g id="edge11" class="edge">
<title>Node1&#45;&gt;Node9</title>
<path fill="none" stroke="#63b8ff" d="M270.12,-307.51C288.01,-299.12 314.92,-286.5 335.35,-276.92"/>
<polygon fill="#63b8ff" stroke="#63b8ff" points="336.5,-279.77 344.07,-272.36 333.53,-273.44 336.5,-279.77"/>
</g>
<!-- Node3 -->
<g id="node3" class="node">
<title>Node3</title>
<g id="a_node3"><a xlink:title=" ">
<polygon fill="#e0e0e0" stroke="#999999" points="338.95,-30 226.95,-30 226.95,0 338.95,0 338.95,-30"/>
<text text-anchor="start" x="234.95" y="-18" font-family="Helvetica,sans-Serif" font-size="10.00">sbml/common/libsbml</text>
<text text-anchor="middle" x="282.95" y="-7" font-family="Helvetica,sans-Serif" font-size="10.00">&#45;namespace.h</text>
</a>
</g>
</g>
<!-- Node2&#45;&gt;Node3 -->
<g id="edge2" class="edge">
<title>Node2&#45;&gt;Node3</title>
<path fill="none" stroke="#63b8ff" d="M210.02,-65.62C221.38,-57.89 238.28,-46.39 252.95,-36.41"/>
<polygon fill="#63b8ff" stroke="#63b8ff" points="254.43,-38.96 260.73,-30.44 250.49,-33.17 254.43,-38.96"/>
</g>
<!-- Node4&#45;&gt;Node3 -->
<g id="edge4" class="edge">
<title>Node4&#45;&gt;Node3</title>
<path fill="none" stroke="#63b8ff" d="M218.34,-252.63C232.84,-245.08 252.12,-232.91 263.95,-217 305,-161.79 307.94,-134.06 297.95,-66 296.71,-57.49 294.32,-48.42 291.82,-40.38"/>
<polygon fill="#63b8ff" stroke="#63b8ff" points="294.9,-39.57 288.42,-31.19 288.26,-41.78 294.9,-39.57"/>
</g>
<!-- Node5 -->
<g id="node5" class="node">
<title>Node5</title>
<g id="a_node5"><a xlink:href="libsbml-config_8h.html" target="_top" xlink:title="Decides whether to #include Unix or Windows configuration variables.">
<polygon fill="white" stroke="#666666" points="254.95,-217 142.95,-217 142.95,-187 254.95,-187 254.95,-217"/>
<text text-anchor="start" x="150.95" y="-205" font-family="Helvetica,sans-Serif" font-size="10.00">sbml/common/libsbml</text>
<text text-anchor="middle" x="198.95" y="-194" font-family="Helvetica,sans-Serif" font-size="10.00">&#45;config.h</text>
</a>
</g>
</g>
<!-- Node4&#45;&gt;Node5 -->
<g id="edge5" class="edge">
<title>Node4&#45;&gt;Node5</title>
<path fill="none" stroke="#63b8ff" d="M198.95,-252.87C198.95,-246.25 198.95,-236.78 198.95,-227.86"/>
<polygon fill="#63b8ff" stroke="#63b8ff" points="202.45,-228.11 198.95,-218.11 195.45,-228.11 202.45,-228.11"/>
</g>
<!-- Node5&#45;&gt;Node3 -->
<g id="edge6" class="edge">
<title>Node5&#45;&gt;Node3</title>
<path fill="none" stroke="#63b8ff" d="M226.55,-186.58C240.04,-178.07 255.21,-166.01 263.95,-151 283.95,-116.67 285.89,-69.31 284.86,-40.78"/>
<polygon fill="#63b8ff" stroke="#63b8ff" points="288.32,-40.94 284.3,-31.14 281.33,-41.3 288.32,-40.94"/>
</g>
<!-- Node6 -->
<g id="node6" class="node">
<title>Node6</title>
<g id="a_node6"><a xlink:title=" ">
<polygon fill="#e0e0e0" stroke="#999999" points="124.95,-151 12.95,-151 12.95,-121 124.95,-121 124.95,-151"/>
<text text-anchor="start" x="20.95" y="-139" font-family="Helvetica,sans-Serif" font-size="10.00">sbml/common/libsbml</text>
<text text-anchor="middle" x="68.95" y="-128" font-family="Helvetica,sans-Serif" font-size="10.00">&#45;config&#45;common.h</text>
</a>
</g>
</g>
<!-- Node5&#45;&gt;Node6 -->
<g id="edge7" class="edge">
<title>Node5&#45;&gt;Node6</title>
<path fill="none" stroke="#63b8ff" d="M169.78,-186.64C151.46,-177.62 127.63,-165.89 107.73,-156.09"/>
<polygon fill="#63b8ff" stroke="#63b8ff" points="109.55,-152.59 99.03,-151.31 106.46,-158.87 109.55,-152.59"/>
</g>
<!-- Node7 -->
<g id="node7" class="node">
<title>Node7</title>
<g id="a_node7"><a xlink:href="libsbml-version_8h.html" target="_top" xlink:title="Define libSBML version numbers for access from client software.">
<polygon fill="white" stroke="#666666" points="254.95,-151 142.95,-151 142.95,-121 254.95,-121 254.95,-151"/>
<text text-anchor="start" x="150.95" y="-139" font-family="Helvetica,sans-Serif" font-size="10.00">sbml/common/libsbml</text>
<text text-anchor="middle" x="198.95" y="-128" font-family="Helvetica,sans-Serif" font-size="10.00">&#45;version.h</text>
</a>
</g>
</g>
<!-- Node5&#45;&gt;Node7 -->
<g id="edge8" class="edge">
<title>Node5&#45;&gt;Node7</title>
<path fill="none" stroke="#63b8ff" d="M198.95,-186.8C198.95,-179.5 198.95,-170.41 198.95,-161.99"/>
<polygon fill="#63b8ff" stroke="#63b8ff" points="202.45,-162.16 198.95,-152.16 195.45,-162.16 202.45,-162.16"/>
</g>
<!-- Node7&#45;&gt;Node2 -->
<g id="edge9" class="edge">
<title>Node7&#45;&gt;Node2</title>
<path fill="none" stroke="#63b8ff" d="M198.46,-120.54C198.21,-113.17 197.9,-104.1 197.62,-96.11"/>
<polygon fill="#63b8ff" stroke="#63b8ff" points="201.09,-96.05 197.25,-86.18 194.09,-96.29 201.09,-96.05"/>
</g>
</g>
</svg>
