<?xml version="1.0" encoding="UTF-8" standalone="no"?>
<!DOCTYPE svg PUBLIC "-//W3C//DTD SVG 1.1//EN"
 "http://www.w3.org/Graphics/SVG/1.1/DTD/svg11.dtd">
<!-- Generated by graphviz version 8.0.1 (20230327.1645)
 -->
<!-- Title: SBMLFileResolver.h Pages: 1 -->
<svg width="444pt" height="82pt"
 viewBox="0.00 0.00 443.50 82.00" xmlns="http://www.w3.org/2000/svg" xmlns:xlink="http://www.w3.org/1999/xlink">
<g id="graph0" class="graph" transform="scale(1 1) rotate(0) translate(4 78)">
<title>SBMLFileResolver.h</title>
<!-- Node1 -->
<g id="node1" class="node">
<title>Node1</title>
<g id="a_node1"><a xlink:title="A file&#45;based resolver for SBML Documents.">
<polygon fill="#999999" stroke="#666666" points="275,-74 169,-74 169,-55 275,-55 275,-74"/>
<text text-anchor="middle" x="222" y="-62" font-family="Helvetica,sans-Serif" font-size="10.00">SBMLFileResolver.h</text>
</a>
</g>
</g>
<!-- Node2 -->
<g id="node2" class="node">
<title>Node2</title>
<g id="a_node2"><a xlink:href="_comp_flattening_converter_8cpp.html" target="_top" xlink:title="Implementation of a first flattening converter.">
<polygon fill="white" stroke="#666666" points="146,-19 0,-19 0,0 146,0 146,-19"/>
<text text-anchor="middle" x="73" y="-7" font-family="Helvetica,sans-Serif" font-size="10.00">CompFlatteningConverter.cpp</text>
</a>
</g>
</g>
<!-- Node1&#45;&gt;Node2 -->
<g id="edge1" class="edge">
<title>Node1&#45;&gt;Node2</title>
<path fill="none" stroke="#63b8ff" d="M186.42,-50.84C159.11,-41.13 122.11,-27.97 97.9,-19.36"/>
<polygon fill="#63b8ff" stroke="#63b8ff" points="185.13,-54.46 195.72,-54.51 187.48,-47.86 185.13,-54.46"/>
</g>
<!-- Node3 -->
<g id="node3" class="node">
<title>Node3</title>
<g id="a_node3"><a xlink:href="_s_b_m_l_file_resolver_8cpp.html" target="_top" xlink:title="Implementation of SBMLFileResolver, the file system based resolver for SBML Documents.">
<polygon fill="white" stroke="#666666" points="280,-19 164,-19 164,0 280,0 280,-19"/>
<text text-anchor="middle" x="222" y="-7" font-family="Helvetica,sans-Serif" font-size="10.00">SBMLFileResolver.cpp</text>
</a>
</g>
</g>
<!-- Node1&#45;&gt;Node3 -->
<g id="edge2" class="edge">
<title>Node1&#45;&gt;Node3</title>
<path fill="none" stroke="#63b8ff" d="M222,-43.93C222,-35.53 222,-26.13 222,-19.44"/>
<polygon fill="#63b8ff" stroke="#63b8ff" points="218.5,-43.75 222,-53.75 225.5,-43.75 218.5,-43.75"/>
</g>
<!-- Node4 -->
<g id="node4" class="node">
<title>Node4</title>
<g id="a_node4"><a xlink:href="_s_b_m_l_resolver_registry_8cpp.html" target="_top" xlink:title="Implementation of SBMLResolverRegistry, a registry of available resolvers.">
<polygon fill="white" stroke="#666666" points="435.5,-19 298.5,-19 298.5,0 435.5,0 435.5,-19"/>
<text text-anchor="middle" x="367" y="-7" font-family="Helvetica,sans-Serif" font-size="10.00">SBMLResolverRegistry.cpp</text>
</a>
</g>
</g>
<!-- Node1&#45;&gt;Node4 -->
<g id="edge3" class="edge">
<title>Node1&#45;&gt;Node4</title>
<path fill="none" stroke="#63b8ff" d="M256.63,-50.84C283.2,-41.13 319.21,-27.97 342.77,-19.36"/>
<polygon fill="#63b8ff" stroke="#63b8ff" points="255.79,-47.79 247.6,-54.51 258.19,-54.36 255.79,-47.79"/>
</g>
</g>
</svg>
