<?xml version="1.0" encoding="UTF-8" standalone="no"?>
<!DOCTYPE svg PUBLIC "-//W3C//DTD SVG 1.1//EN"
 "http://www.w3.org/Graphics/SVG/1.1/DTD/svg11.dtd">
<!-- Generated by graphviz version 8.0.1 (20230327.1645)
 -->
<!-- Title: SBMLUri.h Pages: 1 -->
<svg width="516pt" height="82pt"
 viewBox="0.00 0.00 516.00 82.00" xmlns="http://www.w3.org/2000/svg" xmlns:xlink="http://www.w3.org/1999/xlink">
<g id="graph0" class="graph" transform="scale(1 1) rotate(0) translate(4 78)">
<title>SBMLUri.h</title>
<!-- Node1 -->
<g id="node1" class="node">
<title>Node1</title>
<g id="a_node1"><a xlink:title="Definition of SBMLUri, the utility class for handling URIs.">
<polygon fill="#999999" stroke="#666666" points="333,-74 268,-74 268,-55 333,-55 333,-74"/>
<text text-anchor="middle" x="300.5" y="-62" font-family="Helvetica,sans-Serif" font-size="10.00">SBMLUri.h</text>
</a>
</g>
</g>
<!-- Node2 -->
<g id="node2" class="node">
<title>Node2</title>
<g id="a_node2"><a xlink:href="_comp_s_b_m_l_document_plugin_8cpp.html" target="_top" xlink:title="Implementation of CompSBMLDocumentPlugin, the plugin class of comp package for the SBase element.">
<polygon fill="white" stroke="#666666" points="161,-19 0,-19 0,0 161,0 161,-19"/>
<text text-anchor="middle" x="80.5" y="-7" font-family="Helvetica,sans-Serif" font-size="10.00">CompSBMLDocumentPlugin.cpp</text>
</a>
</g>
</g>
<!-- Node1&#45;&gt;Node2 -->
<g id="edge1" class="edge">
<title>Node1&#45;&gt;Node2</title>
<path fill="none" stroke="#63b8ff" d="M256.9,-53C216.22,-43.2 156.19,-28.73 117.71,-19.47"/>
<polygon fill="#63b8ff" stroke="#63b8ff" points="256.02,-56.63 266.56,-55.57 257.66,-49.82 256.02,-56.63"/>
</g>
<!-- Node3 -->
<g id="node3" class="node">
<title>Node3</title>
<g id="a_node3"><a xlink:href="_s_b_m_l_file_resolver_8cpp.html" target="_top" xlink:title="Implementation of SBMLFileResolver, the file system based resolver for SBML Documents.">
<polygon fill="white" stroke="#666666" points="295.5,-19 179.5,-19 179.5,0 295.5,0 295.5,-19"/>
<text text-anchor="middle" x="237.5" y="-7" font-family="Helvetica,sans-Serif" font-size="10.00">SBMLFileResolver.cpp</text>
</a>
</g>
</g>
<!-- Node1&#45;&gt;Node3 -->
<g id="edge2" class="edge">
<title>Node1&#45;&gt;Node3</title>
<path fill="none" stroke="#63b8ff" d="M281.65,-47.64C270.65,-38.39 257.18,-27.05 248.03,-19.36"/>
<polygon fill="#63b8ff" stroke="#63b8ff" points="278.91,-50.75 288.81,-54.51 283.41,-45.39 278.91,-50.75"/>
</g>
<!-- Node4 -->
<g id="node4" class="node">
<title>Node4</title>
<g id="a_node4"><a xlink:href="_s_b_m_l_resolver_8cpp.html" target="_top" xlink:title="Implementation of SBMLResolver, the base class of package extensions.">
<polygon fill="white" stroke="#666666" points="415,-19 314,-19 314,0 415,0 415,-19"/>
<text text-anchor="middle" x="364.5" y="-7" font-family="Helvetica,sans-Serif" font-size="10.00">SBMLResolver.cpp</text>
</a>
</g>
</g>
<!-- Node1&#45;&gt;Node4 -->
<g id="edge3" class="edge">
<title>Node1&#45;&gt;Node4</title>
<path fill="none" stroke="#63b8ff" d="M319.65,-47.64C330.83,-38.39 344.51,-27.05 353.8,-19.36"/>
<polygon fill="#63b8ff" stroke="#63b8ff" points="317.83,-45.44 312.36,-54.51 322.29,-50.83 317.83,-45.44"/>
</g>
<!-- Node5 -->
<g id="node5" class="node">
<title>Node5</title>
<g id="a_node5"><a xlink:href="_s_b_m_l_uri_8cpp.html" target="_top" xlink:title="Implementation of SBMLUri, the utility class for handling uris.">
<polygon fill="white" stroke="#666666" points="508,-19 433,-19 433,0 508,0 508,-19"/>
<text text-anchor="middle" x="470.5" y="-7" font-family="Helvetica,sans-Serif" font-size="10.00">SBMLUri.cpp</text>
</a>
</g>
</g>
<!-- Node1&#45;&gt;Node5 -->
<g id="edge4" class="edge">
<title>Node1&#45;&gt;Node5</title>
<path fill="none" stroke="#63b8ff" d="M339.83,-51.24C370.99,-41.52 413.81,-28.18 441.8,-19.45"/>
<polygon fill="#63b8ff" stroke="#63b8ff" points="338.84,-48.19 330.34,-54.51 340.93,-54.87 338.84,-48.19"/>
</g>
</g>
</svg>
