<?xml version="1.0" encoding="UTF-8" standalone="no"?>
<!DOCTYPE svg PUBLIC "-//W3C//DTD SVG 1.1//EN"
 "http://www.w3.org/Graphics/SVG/1.1/DTD/svg11.dtd">
<!-- Generated by graphviz version 8.0.1 (20230327.1645)
 -->
<!-- Title: SpatialValidator.h Pages: 1 -->
<svg width="1052pt" height="566pt"
 viewBox="0.00 0.00 1052.00 566.00" xmlns="http://www.w3.org/2000/svg" xmlns:xlink="http://www.w3.org/1999/xlink">
<g id="graph0" class="graph" transform="scale(1 1) rotate(0) translate(4 562)">
<title>SpatialValidator.h</title>
<!-- Node1 -->
<g id="node1" class="node">
<title>Node1</title>
<g id="a_node1"><a xlink:title="Definition of SpatialValidator.">
<polygon fill="#999999" stroke="#666666" points="687,-558 595,-558 595,-539 687,-539 687,-558"/>
<text text-anchor="middle" x="641" y="-546" font-family="Helvetica,sans-Serif" font-size="10.00">SpatialValidator.h</text>
</a>
</g>
</g>
<!-- Node2 -->
<g id="node2" class="node">
<title>Node2</title>
<g id="a_node2"><a xlink:href="_s_b_m_l_error_8h.html" target="_top" xlink:title="Represents SBML errors and other diagnostics.">
<polygon fill="white" stroke="#666666" points="598,-448 502,-448 502,-429 598,-429 598,-448"/>
<text text-anchor="middle" x="550" y="-436" font-family="Helvetica,sans-Serif" font-size="10.00">sbml/SBMLError.h</text>
</a>
</g>
</g>
<!-- Node1&#45;&gt;Node2 -->
<g id="edge1" class="edge">
<title>Node1&#45;&gt;Node2</title>
<path fill="none" stroke="#63b8ff" d="M640.35,-538.82C638.97,-525.7 634.74,-500.62 622,-484 611.86,-470.77 596.56,-460.52 582.67,-453.22"/>
<polygon fill="#63b8ff" stroke="#63b8ff" points="584.42,-449.69 573.9,-448.42 581.34,-455.97 584.42,-449.69"/>
</g>
<!-- Node23 -->
<g id="node23" class="node">
<title>Node23</title>
<g id="a_node23"><a xlink:href="_validator_8h.html" target="_top" xlink:title="Base class for SBML Validators.">
<polygon fill="white" stroke="#666666" points="612.5,-503 487.5,-503 487.5,-484 612.5,-484 612.5,-503"/>
<text text-anchor="middle" x="550" y="-491" font-family="Helvetica,sans-Serif" font-size="10.00">sbml/validator/Validator.h</text>
</a>
</g>
</g>
<!-- Node1&#45;&gt;Node23 -->
<g id="edge38" class="edge">
<title>Node1&#45;&gt;Node23</title>
<path fill="none" stroke="#63b8ff" d="M625.56,-538.51C611.62,-530.39 590.86,-518.3 574.63,-508.85"/>
<polygon fill="#63b8ff" stroke="#63b8ff" points="576.61,-505.37 566.21,-503.36 573.09,-511.42 576.61,-505.37"/>
</g>
<!-- Node24 -->
<g id="node24" class="node">
<title>Node24</title>
<g id="a_node24"><a xlink:href="_s_b_m_l_reader_8h.html" target="_top" xlink:title="Reads an SBML Document into memory.">
<polygon fill="white" stroke="#666666" points="768.5,-338 661.5,-338 661.5,-319 768.5,-319 768.5,-338"/>
<text text-anchor="middle" x="715" y="-326" font-family="Helvetica,sans-Serif" font-size="10.00">sbml/SBMLReader.h</text>
</a>
</g>
</g>
<!-- Node1&#45;&gt;Node24 -->
<g id="edge40" class="edge">
<title>Node1&#45;&gt;Node24</title>
<path fill="none" stroke="#63b8ff" d="M643.99,-538.68C654.99,-506.3 693.3,-393.42 708.61,-348.33"/>
<polygon fill="#63b8ff" stroke="#63b8ff" points="712.15,-349.78 712.05,-339.19 705.52,-347.53 712.15,-349.78"/>
</g>
<!-- Node3 -->
<g id="node3" class="node">
<title>Node3</title>
<g id="a_node3"><a xlink:href="extern_8h.html" target="_top" xlink:title="Definitions of LIBSBML_EXTERN and related things.">
<polygon fill="white" stroke="#666666" points="500,-85 384,-85 384,-66 500,-66 500,-85"/>
<text text-anchor="middle" x="442" y="-73" font-family="Helvetica,sans-Serif" font-size="10.00">sbml/common/extern.h</text>
</a>
</g>
</g>
<!-- Node2&#45;&gt;Node3 -->
<g id="edge2" class="edge">
<title>Node2&#45;&gt;Node3</title>
<path fill="none" stroke="#63b8ff" d="M501.67,-438.2C367.46,-438.84 0,-431.31 0,-329.5 0,-329.5 0,-329.5 0,-201 0,-124.48 248.51,-92.72 372.85,-81.61"/>
<polygon fill="#63b8ff" stroke="#63b8ff" points="373.1,-85.02 382.76,-80.66 372.5,-78.04 373.1,-85.02"/>
</g>
<!-- Node5 -->
<g id="node5" class="node">
<title>Node5</title>
<g id="a_node5"><a xlink:href="_x_m_l_error_8h.html" target="_top" xlink:title="Represents errors (and messages) encountered during an XML parse.">
<polygon fill="white" stroke="#666666" points="566,-338 458,-338 458,-319 566,-319 566,-338"/>
<text text-anchor="middle" x="512" y="-326" font-family="Helvetica,sans-Serif" font-size="10.00">sbml/xml/XMLError.h</text>
</a>
</g>
</g>
<!-- Node2&#45;&gt;Node5 -->
<g id="edge4" class="edge">
<title>Node2&#45;&gt;Node5</title>
<path fill="none" stroke="#63b8ff" d="M546.89,-428.66C540.77,-411.26 527.02,-372.19 518.73,-348.62"/>
<polygon fill="#63b8ff" stroke="#63b8ff" points="521.77,-347.73 515.15,-339.46 515.17,-350.06 521.77,-347.73"/>
</g>
<!-- Node17 -->
<g id="node17" class="node">
<title>Node17</title>
<g id="a_node17"><a xlink:href="_s_b_m_l_namespaces_8h.html" target="_top" xlink:title="SBMLNamespaces class to store level/version and namespace.">
<polygon fill="white" stroke="#666666" points="681,-393 547,-393 547,-374 681,-374 681,-393"/>
<text text-anchor="middle" x="614" y="-381" font-family="Helvetica,sans-Serif" font-size="10.00">sbml/SBMLNamespaces.h</text>
</a>
</g>
</g>
<!-- Node2&#45;&gt;Node17 -->
<g id="edge23" class="edge">
<title>Node2&#45;&gt;Node17</title>
<path fill="none" stroke="#63b8ff" d="M560.86,-428.51C570.2,-420.77 583.89,-409.43 595.04,-400.2"/>
<polygon fill="#63b8ff" stroke="#63b8ff" points="596.83,-402.43 602.3,-393.36 592.37,-397.04 596.83,-402.43"/>
</g>
<!-- Node4 -->
<g id="node4" class="node">
<title>Node4</title>
<g id="a_node4"><a xlink:title=" ">
<polygon fill="#e0e0e0" stroke="#999999" points="834,-30 722,-30 722,0 834,0 834,-30"/>
<text text-anchor="start" x="730" y="-18" font-family="Helvetica,sans-Serif" font-size="10.00">sbml/common/libsbml</text>
<text text-anchor="middle" x="778" y="-7" font-family="Helvetica,sans-Serif" font-size="10.00">&#45;namespace.h</text>
</a>
</g>
</g>
<!-- Node3&#45;&gt;Node4 -->
<g id="edge3" class="edge">
<title>Node3&#45;&gt;Node4</title>
<path fill="none" stroke="#63b8ff" d="M493.4,-65.55C551.61,-55.42 646.69,-38.86 710.76,-27.71"/>
<polygon fill="#63b8ff" stroke="#63b8ff" points="711.31,-30.99 720.56,-25.83 710.11,-24.09 711.31,-30.99"/>
</g>
<!-- Node6 -->
<g id="node6" class="node">
<title>Node6</title>
<g id="a_node6"><a xlink:title=" ">
<polygon fill="#e0e0e0" stroke="#999999" points="190,-211.5 144,-211.5 144,-192.5 190,-192.5 190,-211.5"/>
<text text-anchor="middle" x="167" y="-199.5" font-family="Helvetica,sans-Serif" font-size="10.00">stdio.h</text>
</a>
</g>
</g>
<!-- Node5&#45;&gt;Node6 -->
<g id="edge5" class="edge">
<title>Node5&#45;&gt;Node6</title>
<path fill="none" stroke="#63b8ff" d="M457.54,-325.18C381.88,-321.02 249.88,-310.02 211,-283 190.2,-268.54 178.22,-240.95 172.16,-222.27"/>
<polygon fill="#63b8ff" stroke="#63b8ff" points="175.31,-221.58 169.12,-212.98 168.59,-223.56 175.31,-221.58"/>
</g>
<!-- Node7 -->
<g id="node7" class="node">
<title>Node7</title>
<g id="a_node7"><a xlink:href="_x_m_l_extern_8h.html" target="_top" xlink:title="Defines LIBLAX_EXTERN.">
<polygon fill="white" stroke="#666666" points="922,-277.5 806,-277.5 806,-258.5 922,-258.5 922,-277.5"/>
<text text-anchor="middle" x="864" y="-265.5" font-family="Helvetica,sans-Serif" font-size="10.00">sbml/xml/XMLExtern.h</text>
</a>
</g>
</g>
<!-- Node5&#45;&gt;Node7 -->
<g id="edge6" class="edge">
<title>Node5&#45;&gt;Node7</title>
<path fill="none" stroke="#63b8ff" d="M565.84,-318.55C628.51,-308.14 731.95,-290.95 799.02,-279.8"/>
<polygon fill="#63b8ff" stroke="#63b8ff" points="799.58,-283.09 808.87,-278 798.43,-276.18 799.58,-283.09"/>
</g>
<!-- Node8 -->
<g id="node8" class="node">
<title>Node8</title>
<g id="a_node8"><a xlink:href="sbmlfwd_8h.html" target="_top" xlink:title="Forward declarations for all opaque C types.">
<polygon fill="white" stroke="#666666" points="750,-277.5 624,-277.5 624,-258.5 750,-258.5 750,-277.5"/>
<text text-anchor="middle" x="687" y="-265.5" font-family="Helvetica,sans-Serif" font-size="10.00">sbml/common/sbmlfwd.h</text>
</a>
</g>
</g>
<!-- Node5&#45;&gt;Node8 -->
<g id="edge8" class="edge">
<title>Node5&#45;&gt;Node8</title>
<path fill="none" stroke="#63b8ff" d="M538.58,-318.62C568.26,-308.69 616.5,-292.57 649.89,-281.4"/>
<polygon fill="#63b8ff" stroke="#63b8ff" points="650.8,-284.46 659.17,-277.97 648.58,-277.82 650.8,-284.46"/>
</g>
<!-- Node12 -->
<g id="node12" class="node">
<title>Node12</title>
<g id="a_node12"><a xlink:href="util_8h.html" target="_top" xlink:title="Utility functions.">
<polygon fill="white" stroke="#666666" points="297.5,-277.5 220.5,-277.5 220.5,-258.5 297.5,-258.5 297.5,-277.5"/>
<text text-anchor="middle" x="259" y="-265.5" font-family="Helvetica,sans-Serif" font-size="10.00">sbml/util/util.h</text>
</a>
</g>
</g>
<!-- Node5&#45;&gt;Node12 -->
<g id="edge15" class="edge">
<title>Node5&#45;&gt;Node12</title>
<path fill="none" stroke="#63b8ff" d="M473.3,-318.55C429.03,-308.32 356.45,-291.53 308.2,-280.38"/>
<polygon fill="#63b8ff" stroke="#63b8ff" points="309.23,-276.79 298.7,-277.95 307.65,-283.61 309.23,-276.79"/>
</g>
<!-- Node14 -->
<g id="node14" class="node">
<title>Node14</title>
<g id="a_node14"><a xlink:title=" ">
<polygon fill="#e0e0e0" stroke="#999999" points="437.5,-277.5 392.5,-277.5 392.5,-258.5 437.5,-258.5 437.5,-277.5"/>
<text text-anchor="middle" x="415" y="-265.5" font-family="Helvetica,sans-Serif" font-size="10.00">iosfwd</text>
</a>
</g>
</g>
<!-- Node5&#45;&gt;Node14 -->
<g id="edge19" class="edge">
<title>Node5&#45;&gt;Node14</title>
<path fill="none" stroke="#63b8ff" d="M497.27,-318.62C481.88,-309.34 457.5,-294.63 439.27,-283.64"/>
<polygon fill="#63b8ff" stroke="#63b8ff" points="441.24,-280.14 430.87,-277.97 437.63,-286.13 441.24,-280.14"/>
</g>
<!-- Node15 -->
<g id="node15" class="node">
<title>Node15</title>
<g id="a_node15"><a xlink:title=" ">
<polygon fill="#e0e0e0" stroke="#999999" points="981.5,-277.5 940.5,-277.5 940.5,-258.5 981.5,-258.5 981.5,-277.5"/>
<text text-anchor="middle" x="961" y="-265.5" font-family="Helvetica,sans-Serif" font-size="10.00">string</text>
</a>
</g>
</g>
<!-- Node5&#45;&gt;Node15 -->
<g id="edge20" class="edge">
<title>Node5&#45;&gt;Node15</title>
<path fill="none" stroke="#63b8ff" d="M566.28,-320.06C569.23,-319.69 572.15,-319.34 575,-319 732.93,-300.37 777.68,-325.22 931,-283 932.14,-282.69 933.28,-282.33 934.43,-281.95"/>
<polygon fill="#63b8ff" stroke="#63b8ff" points="935.59,-284.86 943.56,-277.88 932.98,-278.36 935.59,-284.86"/>
</g>
<!-- Node16 -->
<g id="node16" class="node">
<title>Node16</title>
<g id="a_node16"><a xlink:href="operation_return_values_8h.html" target="_top" xlink:title="Enumeration of values returned by operations within libSBML.">
<polygon fill="white" stroke="#666666" points="606,-283 456,-283 456,-253 606,-253 606,-283"/>
<text text-anchor="start" x="464" y="-271" font-family="Helvetica,sans-Serif" font-size="10.00">sbml/common/operationReturn</text>
<text text-anchor="middle" x="531" y="-260" font-family="Helvetica,sans-Serif" font-size="10.00">Values.h</text>
</a>
</g>
</g>
<!-- Node5&#45;&gt;Node16 -->
<g id="edge21" class="edge">
<title>Node5&#45;&gt;Node16</title>
<path fill="none" stroke="#63b8ff" d="M514.8,-318.87C516.98,-312.18 520.1,-302.57 523.02,-293.56"/>
<polygon fill="#63b8ff" stroke="#63b8ff" points="526.66,-294.71 526.42,-284.11 520,-292.54 526.66,-294.71"/>
</g>
<!-- Node7&#45;&gt;Node4 -->
<g id="edge7" class="edge">
<title>Node7&#45;&gt;Node4</title>
<path fill="none" stroke="#63b8ff" d="M864.4,-258.36C865.37,-229.32 865.56,-133.27 830,-66 824.32,-55.26 815.48,-45.48 806.69,-37.48"/>
<polygon fill="#63b8ff" stroke="#63b8ff" points="809.26,-34.21 799.38,-30.37 804.71,-39.53 809.26,-34.21"/>
</g>
<!-- Node8&#45;&gt;Node4 -->
<g id="edge9" class="edge">
<title>Node8&#45;&gt;Node4</title>
<path fill="none" stroke="#63b8ff" d="M693.88,-258.16C701.23,-248.44 712.91,-232.19 721,-217 750.72,-161.2 760.21,-146.7 774,-85 777.2,-70.69 778.25,-54.32 778.48,-41.12"/>
<polygon fill="#63b8ff" stroke="#63b8ff" points="781.99,-41.47 778.51,-31.46 774.99,-41.45 781.99,-41.47"/>
</g>
<!-- Node9 -->
<g id="node9" class="node">
<title>Node9</title>
<g id="a_node9"><a xlink:href="libsbml-config_8h.html" target="_top" xlink:title="Decides whether to #include Unix or Windows configuration variables.">
<polygon fill="white" stroke="#666666" points="712,-217 600,-217 600,-187 712,-187 712,-217"/>
<text text-anchor="start" x="608" y="-205" font-family="Helvetica,sans-Serif" font-size="10.00">sbml/common/libsbml</text>
<text text-anchor="middle" x="656" y="-194" font-family="Helvetica,sans-Serif" font-size="10.00">&#45;config.h</text>
</a>
</g>
</g>
<!-- Node8&#45;&gt;Node9 -->
<g id="edge10" class="edge">
<title>Node8&#45;&gt;Node9</title>
<path fill="none" stroke="#63b8ff" d="M682.69,-258.1C678.81,-250.08 672.92,-237.93 667.66,-227.07"/>
<polygon fill="#63b8ff" stroke="#63b8ff" points="670.4,-225.71 662.89,-218.23 664.1,-228.76 670.4,-225.71"/>
</g>
<!-- Node9&#45;&gt;Node4 -->
<g id="edge11" class="edge">
<title>Node9&#45;&gt;Node4</title>
<path fill="none" stroke="#63b8ff" d="M680.47,-186.61C693.87,-177.73 709.95,-165.31 721,-151 747.21,-117.04 763.62,-69.25 771.77,-40.58"/>
<polygon fill="#63b8ff" stroke="#63b8ff" points="775.33,-41.82 774.58,-31.25 768.58,-39.98 775.33,-41.82"/>
</g>
<!-- Node10 -->
<g id="node10" class="node">
<title>Node10</title>
<g id="a_node10"><a xlink:title=" ">
<polygon fill="#e0e0e0" stroke="#999999" points="712,-151 600,-151 600,-121 712,-121 712,-151"/>
<text text-anchor="start" x="608" y="-139" font-family="Helvetica,sans-Serif" font-size="10.00">sbml/common/libsbml</text>
<text text-anchor="middle" x="656" y="-128" font-family="Helvetica,sans-Serif" font-size="10.00">&#45;config&#45;common.h</text>
</a>
</g>
</g>
<!-- Node9&#45;&gt;Node10 -->
<g id="edge12" class="edge">
<title>Node9&#45;&gt;Node10</title>
<path fill="none" stroke="#63b8ff" d="M656,-186.8C656,-179.5 656,-170.41 656,-161.99"/>
<polygon fill="#63b8ff" stroke="#63b8ff" points="659.5,-162.16 656,-152.16 652.5,-162.16 659.5,-162.16"/>
</g>
<!-- Node11 -->
<g id="node11" class="node">
<title>Node11</title>
<g id="a_node11"><a xlink:href="libsbml-version_8h.html" target="_top" xlink:title="Define libSBML version numbers for access from client software.">
<polygon fill="white" stroke="#666666" points="582,-151 470,-151 470,-121 582,-121 582,-151"/>
<text text-anchor="start" x="478" y="-139" font-family="Helvetica,sans-Serif" font-size="10.00">sbml/common/libsbml</text>
<text text-anchor="middle" x="526" y="-128" font-family="Helvetica,sans-Serif" font-size="10.00">&#45;version.h</text>
</a>
</g>
</g>
<!-- Node9&#45;&gt;Node11 -->
<g id="edge13" class="edge">
<title>Node9&#45;&gt;Node11</title>
<path fill="none" stroke="#63b8ff" d="M626.83,-186.64C608.51,-177.62 584.68,-165.89 564.78,-156.09"/>
<polygon fill="#63b8ff" stroke="#63b8ff" points="566.59,-152.59 556.08,-151.31 563.5,-158.87 566.59,-152.59"/>
</g>
<!-- Node11&#45;&gt;Node3 -->
<g id="edge14" class="edge">
<title>Node11&#45;&gt;Node3</title>
<path fill="none" stroke="#63b8ff" d="M505.24,-120.54C492.41,-111.61 476.01,-100.18 463.12,-91.21"/>
<polygon fill="#63b8ff" stroke="#63b8ff" points="465.66,-88.02 455.46,-85.18 461.66,-93.76 465.66,-88.02"/>
</g>
<!-- Node12&#45;&gt;Node3 -->
<g id="edge18" class="edge">
<title>Node12&#45;&gt;Node3</title>
<path fill="none" stroke="#63b8ff" d="M252.81,-258.29C242.94,-243.25 225.84,-211.68 237,-187 262.66,-130.25 331.66,-101.79 382.56,-88.12"/>
<polygon fill="#63b8ff" stroke="#63b8ff" points="383.3,-91.28 392.12,-85.42 381.57,-84.5 383.3,-91.28"/>
</g>
<!-- Node12&#45;&gt;Node6 -->
<g id="edge16" class="edge">
<title>Node12&#45;&gt;Node6</title>
<path fill="none" stroke="#63b8ff" d="M246.21,-258.1C231.24,-247.69 206.23,-230.29 188.31,-217.83"/>
<polygon fill="#63b8ff" stroke="#63b8ff" points="190.89,-214.66 180.68,-211.82 186.89,-220.41 190.89,-214.66"/>
</g>
<!-- Node13 -->
<g id="node13" class="node">
<title>Node13</title>
<g id="a_node13"><a xlink:title=" ">
<polygon fill="#e0e0e0" stroke="#999999" points="298,-211.5 246,-211.5 246,-192.5 298,-192.5 298,-211.5"/>
<text text-anchor="middle" x="272" y="-199.5" font-family="Helvetica,sans-Serif" font-size="10.00">stdarg.h</text>
</a>
</g>
</g>
<!-- Node12&#45;&gt;Node13 -->
<g id="edge17" class="edge">
<title>Node12&#45;&gt;Node13</title>
<path fill="none" stroke="#63b8ff" d="M260.81,-258.1C262.67,-248.93 265.63,-234.34 268.04,-222.48"/>
<polygon fill="#63b8ff" stroke="#63b8ff" points="271.65,-223.32 270.21,-212.82 264.79,-221.93 271.65,-223.32"/>
</g>
<!-- Node16&#45;&gt;Node3 -->
<g id="edge22" class="edge">
<title>Node16&#45;&gt;Node3</title>
<path fill="none" stroke="#63b8ff" d="M520.48,-252.73C505.31,-231.54 477.34,-190.06 461,-151 453.52,-133.12 448.41,-111.56 445.39,-96.24"/>
<polygon fill="#63b8ff" stroke="#63b8ff" points="448.67,-95.69 443.41,-86.49 441.78,-96.96 448.67,-95.69"/>
</g>
<!-- Node17&#45;&gt;Node15 -->
<g id="edge36" class="edge">
<title>Node17&#45;&gt;Node15</title>
<path fill="none" stroke="#63b8ff" d="M681.45,-381.87C765.96,-379.67 904.31,-370.96 942,-338 956.01,-325.75 960.13,-304.21 961.14,-288.44"/>
<polygon fill="#63b8ff" stroke="#63b8ff" points="964.65,-288.85 961.41,-278.76 957.66,-288.67 964.65,-288.85"/>
</g>
<!-- Node18 -->
<g id="node18" class="node">
<title>Node18</title>
<g id="a_node18"><a xlink:href="_x_m_l_namespaces_8h.html" target="_top" xlink:title="A list of XMLNamespace declarations (URI/prefix pairs)">
<polygon fill="white" stroke="#666666" points="933,-338 787,-338 787,-319 933,-319 933,-338"/>
<text text-anchor="middle" x="860" y="-326" font-family="Helvetica,sans-Serif" font-size="10.00">sbml/xml/XMLNamespaces.h</text>
</a>
</g>
</g>
<!-- Node17&#45;&gt;Node18 -->
<g id="edge24" class="edge">
<title>Node17&#45;&gt;Node18</title>
<path fill="none" stroke="#63b8ff" d="M655.73,-373.51C697.74,-364.46 762.63,-350.48 807.97,-340.71"/>
<polygon fill="#63b8ff" stroke="#63b8ff" points="808.44,-343.97 817.48,-338.45 806.96,-337.13 808.44,-343.97"/>
</g>
<!-- Node20 -->
<g id="node20" class="node">
<title>Node20</title>
<g id="a_node20"><a xlink:href="common_8h.html" target="_top" xlink:title="Common functions and macros for C and C++.">
<polygon fill="white" stroke="#666666" points="355.5,-338 228.5,-338 228.5,-319 355.5,-319 355.5,-338"/>
<text text-anchor="middle" x="292" y="-326" font-family="Helvetica,sans-Serif" font-size="10.00">sbml/common/common.h</text>
</a>
</g>
</g>
<!-- Node17&#45;&gt;Node20 -->
<g id="edge30" class="edge">
<title>Node17&#45;&gt;Node20</title>
<path fill="none" stroke="#63b8ff" d="M559.38,-373.51C503.55,-364.32 416.84,-350.05 357.39,-340.26"/>
<polygon fill="#63b8ff" stroke="#63b8ff" points="358.06,-336.66 347.62,-338.49 356.92,-343.57 358.06,-336.66"/>
</g>
<!-- Node22 -->
<g id="node22" class="node">
<title>Node22</title>
<g id="a_node22"><a xlink:title=" ">
<polygon fill="#e0e0e0" stroke="#999999" points="643.5,-338 584.5,-338 584.5,-319 643.5,-319 643.5,-338"/>
<text text-anchor="middle" x="614" y="-326" font-family="Helvetica,sans-Serif" font-size="10.00">stdexcept</text>
</a>
</g>
</g>
<!-- Node17&#45;&gt;Node22 -->
<g id="edge37" class="edge">
<title>Node17&#45;&gt;Node22</title>
<path fill="none" stroke="#63b8ff" d="M614,-373.75C614,-367.11 614,-357.73 614,-349.31"/>
<polygon fill="#63b8ff" stroke="#63b8ff" points="617.5,-349.44 614,-339.44 610.5,-349.44 617.5,-349.44"/>
</g>
<!-- Node18&#45;&gt;Node7 -->
<g id="edge25" class="edge">
<title>Node18&#45;&gt;Node7</title>
<path fill="none" stroke="#63b8ff" d="M860.59,-318.87C861.13,-310.92 861.96,-298.83 862.66,-288.55"/>
<polygon fill="#63b8ff" stroke="#63b8ff" points="866.22,-288.88 863.41,-278.67 859.23,-288.41 866.22,-288.88"/>
</g>
<!-- Node18&#45;&gt;Node8 -->
<g id="edge26" class="edge">
<title>Node18&#45;&gt;Node8</title>
<path fill="none" stroke="#63b8ff" d="M833.73,-318.62C804.38,-308.69 756.69,-292.57 723.68,-281.4"/>
<polygon fill="#63b8ff" stroke="#63b8ff" points="725.12,-277.86 714.52,-277.97 722.87,-284.49 725.12,-277.86"/>
</g>
<!-- Node18&#45;&gt;Node15 -->
<g id="edge28" class="edge">
<title>Node18&#45;&gt;Node15</title>
<path fill="none" stroke="#63b8ff" d="M875.34,-318.62C891.51,-309.25 917.21,-294.36 936.25,-283.33"/>
<polygon fill="#63b8ff" stroke="#63b8ff" points="937.62,-286.01 944.52,-277.97 934.11,-279.95 937.62,-286.01"/>
</g>
<!-- Node18&#45;&gt;Node16 -->
<g id="edge27" class="edge">
<title>Node18&#45;&gt;Node16</title>
<path fill="none" stroke="#63b8ff" d="M809.67,-318.55C758.56,-309.46 678.43,-295.21 617.19,-284.33"/>
<polygon fill="#63b8ff" stroke="#63b8ff" points="617.83,-280.71 607.37,-282.4 616.6,-287.6 617.83,-280.71"/>
</g>
<!-- Node19 -->
<g id="node19" class="node">
<title>Node19</title>
<g id="a_node19"><a xlink:title=" ">
<polygon fill="#e0e0e0" stroke="#999999" points="1044,-277.5 1000,-277.5 1000,-258.5 1044,-258.5 1044,-277.5"/>
<text text-anchor="middle" x="1022" y="-265.5" font-family="Helvetica,sans-Serif" font-size="10.00">vector</text>
</a>
</g>
</g>
<!-- Node18&#45;&gt;Node19 -->
<g id="edge29" class="edge">
<title>Node18&#45;&gt;Node19</title>
<path fill="none" stroke="#63b8ff" d="M888.91,-318.57C915.65,-310.1 956.37,-296.67 991,-283 991.74,-282.71 992.49,-282.41 993.25,-282.1"/>
<polygon fill="#63b8ff" stroke="#63b8ff" points="994.29,-285.03 1002.11,-277.88 991.54,-278.6 994.29,-285.03"/>
</g>
<!-- Node20&#45;&gt;Node3 -->
<g id="edge33" class="edge">
<title>Node20&#45;&gt;Node3</title>
<path fill="none" stroke="#63b8ff" d="M297.34,-318.57C319.12,-282.12 401.5,-144.27 431.22,-94.53"/>
<polygon fill="#63b8ff" stroke="#63b8ff" points="434.6,-96.71 436.73,-86.33 428.59,-93.11 434.6,-96.71"/>
</g>
<!-- Node20&#45;&gt;Node6 -->
<g id="edge32" class="edge">
<title>Node20&#45;&gt;Node6</title>
<path fill="none" stroke="#63b8ff" d="M237.47,-318.58C215.76,-312.25 192.54,-301.44 178,-283 164.53,-265.91 163.35,-240.15 164.51,-222.5"/>
<polygon fill="#63b8ff" stroke="#63b8ff" points="168.07,-223.08 165.56,-212.79 161.1,-222.4 168.07,-223.08"/>
</g>
<!-- Node20&#45;&gt;Node9 -->
<g id="edge31" class="edge">
<title>Node20&#45;&gt;Node9</title>
<path fill="none" stroke="#63b8ff" d="M301.66,-318.53C321.15,-300.61 364.84,-261.41 383,-253 448.93,-222.48 531.9,-210.56 588.97,-205.93"/>
<polygon fill="#63b8ff" stroke="#63b8ff" points="588.96,-209.36 598.67,-205.12 588.43,-202.38 588.96,-209.36"/>
</g>
<!-- Node20&#45;&gt;Node12 -->
<g id="edge35" class="edge">
<title>Node20&#45;&gt;Node12</title>
<path fill="none" stroke="#63b8ff" d="M287.13,-318.87C282.45,-310.57 275.23,-297.78 269.28,-287.22"/>
<polygon fill="#63b8ff" stroke="#63b8ff" points="271.85,-285.66 263.89,-278.67 265.75,-289.1 271.85,-285.66"/>
</g>
<!-- Node21 -->
<g id="node21" class="node">
<title>Node21</title>
<g id="a_node21"><a xlink:href="memory_8h.html" target="_top" xlink:title=" ">
<polygon fill="white" stroke="#666666" points="126,-277.5 28,-277.5 28,-258.5 126,-258.5 126,-277.5"/>
<text text-anchor="middle" x="77" y="-265.5" font-family="Helvetica,sans-Serif" font-size="10.00">sbml/util/memory.h</text>
</a>
</g>
</g>
<!-- Node20&#45;&gt;Node21 -->
<g id="edge34" class="edge">
<title>Node20&#45;&gt;Node21</title>
<path fill="none" stroke="#63b8ff" d="M259.35,-318.62C222.25,-308.52 161.55,-292.01 120.47,-280.83"/>
<polygon fill="#63b8ff" stroke="#63b8ff" points="121.53,-277.22 110.96,-277.97 119.69,-283.97 121.53,-277.22"/>
</g>
<!-- Node23&#45;&gt;Node2 -->
<g id="edge39" class="edge">
<title>Node23&#45;&gt;Node2</title>
<path fill="none" stroke="#63b8ff" d="M550,-483.75C550,-477.11 550,-467.73 550,-459.31"/>
<polygon fill="#63b8ff" stroke="#63b8ff" points="553.5,-459.44 550,-449.44 546.5,-459.44 553.5,-459.44"/>
</g>
<!-- Node24&#45;&gt;Node3 -->
<g id="edge41" class="edge">
<title>Node24&#45;&gt;Node3</title>
<path fill="none" stroke="#63b8ff" d="M728.2,-318.68C738.76,-310.76 752.81,-298.07 759,-283 780.19,-231.43 763.67,-158.75 721,-121 690.69,-94.18 583.51,-83.45 511.17,-79.2"/>
<polygon fill="#63b8ff" stroke="#63b8ff" points="511.5,-75.66 501.32,-78.6 511.11,-82.65 511.5,-75.66"/>
</g>
<!-- Node24&#45;&gt;Node8 -->
<g id="edge42" class="edge">
<title>Node24&#45;&gt;Node8</title>
<path fill="none" stroke="#63b8ff" d="M710.87,-318.87C706.94,-310.66 700.9,-298.04 695.88,-287.55"/>
<polygon fill="#63b8ff" stroke="#63b8ff" points="698.62,-286.18 691.15,-278.67 692.31,-289.2 698.62,-286.18"/>
</g>
<!-- Node24&#45;&gt;Node12 -->
<g id="edge43" class="edge">
<title>Node24&#45;&gt;Node12</title>
<path fill="none" stroke="#63b8ff" d="M661.24,-320.1C658.45,-319.72 655.69,-319.36 653,-319 529.04,-302.64 383.01,-284.37 308.37,-275.1"/>
<polygon fill="#63b8ff" stroke="#63b8ff" points="309.24,-271.56 298.88,-273.8 308.38,-278.51 309.24,-271.56"/>
</g>
<!-- Node24&#45;&gt;Node15 -->
<g id="edge44" class="edge">
<title>Node24&#45;&gt;Node15</title>
<path fill="none" stroke="#63b8ff" d="M768.72,-320.01C812.99,-312.99 877.03,-300.88 931,-283 931.78,-282.74 932.56,-282.47 933.35,-282.19"/>
<polygon fill="#63b8ff" stroke="#63b8ff" points="934.6,-285.04 942.51,-277.99 931.93,-278.57 934.6,-285.04"/>
</g>
</g>
</svg>
