<?xml version="1.0" encoding="UTF-8" standalone="no"?>
<!DOCTYPE svg PUBLIC "-//W3C//DTD SVG 1.1//EN"
 "http://www.w3.org/Graphics/SVG/1.1/DTD/svg11.dtd">
<!-- Generated by graphviz version 8.0.1 (20230327.1645)
 -->
<!-- Title: SpeciesReferenceGlyph.h Pages: 1 -->
<!--zoomable 302 -->
<svg id="main" version="1.1" xmlns="http://www.w3.org/2000/svg" xmlns:xlink="http://www.w3.org/1999/xlink" xml:space="preserve" onload="init(evt)">
<style type="text/css"><![CDATA[
.edge:hover path { stroke: red; }
.edge:hover polygon { stroke: red; fill: red; }
]]></style>
<script type="text/javascript"><![CDATA[
var edges = document.getElementsByTagName('g');
if (edges && edges.length) {
  for (var i=0;i<edges.length;i++) {
    if (edges[i].id.substr(0,4)=='edge') {
      edges[i].setAttribute('class','edge');
    }
  }
}
]]></script>
        <defs>
                <circle id="rim" cx="0" cy="0" r="7"/>
                <circle id="rim2" cx="0" cy="0" r="3.5"/>
                <g id="zoomPlus">
                        <use xlink:href="#rim" fill="#404040">
                                <set attributeName="fill" to="#808080" begin="zoomplus.mouseover" end="zoomplus.mouseout"/>
                        </use>
                        <path d="M-4,0h8M0,-4v8" fill="none" stroke="white" stroke-width="1.5" pointer-events="none"/>
                </g>
                <g id="zoomMin">
                        <use xlink:href="#rim" fill="#404040">
                                <set attributeName="fill" to="#808080" begin="zoomminus.mouseover" end="zoomminus.mouseout"/>
                        </use>
                        <path d="M-4,0h8" fill="none" stroke="white" stroke-width="1.5" pointer-events="none"/>
                </g>
                <g id="dirArrow">
                        <path fill="none" stroke="white" stroke-width="1.5" d="M0,-3.0v7 M-2.5,-0.5L0,-3.0L2.5,-0.5"/>
                </g>
               <g id="resetDef">
                       <use xlink:href="#rim2" fill="#404040">
                               <set attributeName="fill" to="#808080" begin="reset.mouseover" end="reset.mouseout"/>
                       </use>
               </g>
        </defs>

<script type="text/javascript">
var viewWidth = 3053;
var viewHeight = 302;
var sectionId = 'dynsection-1';
</script>
<script xlink:href="svgpan.js"/>
<svg id="graph" class="graph">
<g id="viewport">
<title>SpeciesReferenceGlyph.h</title>
<!-- Node1 -->
<g id="node1" class="node">
<title>Node1</title>
<g id="a_node1"><a xlink:title="Definition of SpeciesReferenceGlyph for SBML Layout.">
<polygon fill="#999999" stroke="#666666" points="1479,-294 1348,-294 1348,-275 1479,-275 1479,-294"/>
<text text-anchor="middle" x="1413.5" y="-282" font-family="Helvetica,sans-Serif" font-size="10.00">SpeciesReferenceGlyph.h</text>
</a>
</g>
</g>
<!-- Node2 -->
<g id="node2" class="node">
<title>Node2</title>
<g id="a_node2"><a xlink:href="_layout_8h.html" target="_top" xlink:title="Definition of Layout for SBML Layout.">
<polygon fill="white" stroke="#666666" points="1129.5,-184 1075.5,-184 1075.5,-165 1129.5,-165 1129.5,-184"/>
<text text-anchor="middle" x="1102.5" y="-172" font-family="Helvetica,sans-Serif" font-size="10.00">Layout.h</text>
</a>
</g>
</g>
<!-- Node1&#45;&gt;Node2 -->
<g id="edge1" class="edge">
<title>Node1&#45;&gt;Node2</title>
<path fill="none" stroke="#63b8ff" d="M1377.46,-270.98C1313.95,-248.93 1183.58,-203.66 1128.25,-184.44"/>
<polygon fill="#63b8ff" stroke="#63b8ff" points="1376.19,-274.6 1386.78,-274.57 1378.49,-267.98 1376.19,-274.6"/>
</g>
<!-- Node28 -->
<g id="node28" class="node">
<title>Node28</title>
<g id="a_node28"><a xlink:href="_layout_extension_types_8h.html" target="_top" xlink:title="Include all SBML types of layout extension in a single header file.">
<polygon fill="white" stroke="#666666" points="373.5,-74 249.5,-74 249.5,-55 373.5,-55 373.5,-74"/>
<text text-anchor="middle" x="311.5" y="-62" font-family="Helvetica,sans-Serif" font-size="10.00">LayoutExtensionTypes.h</text>
</a>
</g>
</g>
<!-- Node1&#45;&gt;Node28 -->
<g id="edge49" class="edge">
<title>Node1&#45;&gt;Node28</title>
<path fill="none" stroke="#63b8ff" d="M1336.99,-281.5C1177.91,-275.99 800.69,-255.79 493.5,-184 424.36,-167.84 396.52,-176.23 343.5,-129 326.54,-113.89 317.43,-87.7 313.65,-74.16"/>
<polygon fill="#63b8ff" stroke="#63b8ff" points="1336.5,-285.02 1346.61,-281.86 1336.73,-278.03 1336.5,-285.02"/>
</g>
<!-- Node38 -->
<g id="node38" class="node">
<title>Node38</title>
<g id="a_node38"><a xlink:href="_reaction_glyph_8cpp.html" target="_top" xlink:title="Implementation of ReactionGlyph for SBML Layout.">
<polygon fill="white" stroke="#666666" points="1946.5,-129 1846.5,-129 1846.5,-110 1946.5,-110 1946.5,-129"/>
<text text-anchor="middle" x="1896.5" y="-117" font-family="Helvetica,sans-Serif" font-size="10.00">ReactionGlyph.cpp</text>
</a>
</g>
</g>
<!-- Node1&#45;&gt;Node38 -->
<g id="edge50" class="edge">
<title>Node1&#45;&gt;Node38</title>
<path fill="none" stroke="#63b8ff" d="M1450.55,-271C1544.23,-239.38 1788.81,-156.84 1869.93,-129.47"/>
<polygon fill="#63b8ff" stroke="#63b8ff" points="1449.51,-267.99 1441.16,-274.5 1451.75,-274.62 1449.51,-267.99"/>
</g>
<!-- Node41 -->
<g id="node41" class="node">
<title>Node41</title>
<g id="a_node41"><a xlink:href="_species_reference_glyph_8cpp.html" target="_top" xlink:title="Implementation of SpeciesReferenceGlyph for SBML Layout.">
<polygon fill="white" stroke="#666666" points="1828,-129 1687,-129 1687,-110 1828,-110 1828,-129"/>
<text text-anchor="middle" x="1757.5" y="-117" font-family="Helvetica,sans-Serif" font-size="10.00">SpeciesReferenceGlyph.cpp</text>
</a>
</g>
</g>
<!-- Node1&#45;&gt;Node41 -->
<g id="edge56" class="edge">
<title>Node1&#45;&gt;Node41</title>
<path fill="none" stroke="#63b8ff" d="M1442.17,-269.92C1510.48,-237.55 1681.44,-156.54 1738.57,-129.47"/>
<polygon fill="#63b8ff" stroke="#63b8ff" points="1441.02,-267.06 1433.48,-274.5 1444.02,-273.39 1441.02,-267.06"/>
</g>
<!-- Node43 -->
<g id="node43" class="node">
<title>Node43</title>
<g id="a_node43"><a xlink:href="_reaction_glyph_8h.html" target="_top" xlink:title="Definition of ReactionGlyph for SBML Layout.">
<polygon fill="white" stroke="#666666" points="1458,-239 1369,-239 1369,-220 1458,-220 1458,-239"/>
<text text-anchor="middle" x="1413.5" y="-227" font-family="Helvetica,sans-Serif" font-size="10.00">ReactionGlyph.h</text>
</a>
</g>
</g>
<!-- Node1&#45;&gt;Node43 -->
<g id="edge51" class="edge">
<title>Node1&#45;&gt;Node43</title>
<path fill="none" stroke="#63b8ff" d="M1413.5,-263.93C1413.5,-255.53 1413.5,-246.13 1413.5,-239.44"/>
<polygon fill="#63b8ff" stroke="#63b8ff" points="1410,-263.75 1413.5,-273.75 1417,-263.75 1410,-263.75"/>
</g>
<!-- Node3 -->
<g id="node3" class="node">
<title>Node3</title>
<g id="a_node3"><a xlink:href="_compartment_glyph_8cpp.html" target="_top" xlink:title="Implementation of CompartmentGlyph for SBML Layout.">
<polygon fill="white" stroke="#666666" points="502.5,-129 382.5,-129 382.5,-110 502.5,-110 502.5,-129"/>
<text text-anchor="middle" x="442.5" y="-117" font-family="Helvetica,sans-Serif" font-size="10.00">CompartmentGlyph.cpp</text>
</a>
</g>
</g>
<!-- Node2&#45;&gt;Node3 -->
<g id="edge2" class="edge">
<title>Node2&#45;&gt;Node3</title>
<path fill="none" stroke="#63b8ff" d="M1064.1,-171.24C969.85,-165.56 719.63,-149.64 511.5,-129 508.62,-128.71 505.67,-128.41 502.69,-128.09"/>
<polygon fill="#63b8ff" stroke="#63b8ff" points="1063.87,-174.79 1074.07,-171.9 1064.29,-167.81 1063.87,-174.79"/>
</g>
<!-- Node4 -->
<g id="node4" class="node">
<title>Node4</title>
<g id="a_node4"><a xlink:href="_general_glyph_8cpp.html" target="_top" xlink:title="Implementation of GeneralGlyph for SBML Layout.">
<polygon fill="white" stroke="#666666" points="1669,-129 1574,-129 1574,-110 1669,-110 1669,-129"/>
<text text-anchor="middle" x="1621.5" y="-117" font-family="Helvetica,sans-Serif" font-size="10.00">GeneralGlyph.cpp</text>
</a>
</g>
</g>
<!-- Node2&#45;&gt;Node4 -->
<g id="edge3" class="edge">
<title>Node2&#45;&gt;Node4</title>
<path fill="none" stroke="#63b8ff" d="M1140.78,-170.49C1220,-164.11 1407.65,-148.24 1564.5,-129 1567.48,-128.63 1570.54,-128.24 1573.63,-127.82"/>
<polygon fill="#63b8ff" stroke="#63b8ff" points="1140.58,-167.08 1130.89,-171.36 1141.14,-174.05 1140.58,-167.08"/>
</g>
<!-- Node5 -->
<g id="node5" class="node">
<title>Node5</title>
<g id="a_node5"><a xlink:href="_layout_8cpp.html" target="_top" xlink:title="Implementation of Layout for SBML Layout.">
<polygon fill="white" stroke="#666666" points="586,-129 521,-129 521,-110 586,-110 586,-129"/>
<text text-anchor="middle" x="553.5" y="-117" font-family="Helvetica,sans-Serif" font-size="10.00">Layout.cpp</text>
</a>
</g>
</g>
<!-- Node2&#45;&gt;Node5 -->
<g id="edge4" class="edge">
<title>Node2&#45;&gt;Node5</title>
<path fill="none" stroke="#63b8ff" d="M1064.41,-171.3C980.39,-166.2 772.94,-152.19 600.5,-129 595.9,-128.38 591.06,-127.63 586.31,-126.82"/>
<polygon fill="#63b8ff" stroke="#63b8ff" points="1064,-174.85 1074.2,-171.95 1064.42,-167.86 1064,-174.85"/>
</g>
<!-- Node6 -->
<g id="node6" class="node">
<title>Node6</title>
<g id="a_node6"><a xlink:href="_layout_annotation_8cpp.html" target="_top" xlink:title="Layout annotation I/O.">
<polygon fill="white" stroke="#666666" points="757,-74 646,-74 646,-55 757,-55 757,-74"/>
<text text-anchor="middle" x="701.5" y="-62" font-family="Helvetica,sans-Serif" font-size="10.00">LayoutAnnotation.cpp</text>
</a>
</g>
</g>
<!-- Node2&#45;&gt;Node6 -->
<g id="edge5" class="edge">
<title>Node2&#45;&gt;Node6</title>
<path fill="none" stroke="#63b8ff" d="M1064.75,-173.23C1005.78,-171.67 889.09,-163.96 797.5,-129 762.96,-115.82 728.21,-88.53 711.59,-74.4"/>
<polygon fill="#63b8ff" stroke="#63b8ff" points="1064.33,-176.75 1074.41,-173.46 1064.48,-169.75 1064.33,-176.75"/>
</g>
<!-- Node7 -->
<g id="node7" class="node">
<title>Node7</title>
<g id="a_node7"><a xlink:href="_layout_annotation_8h.html" target="_top" xlink:title="Layout annotation I/O.">
<polygon fill="white" stroke="#666666" points="1556,-129 1455,-129 1455,-110 1556,-110 1556,-129"/>
<text text-anchor="middle" x="1505.5" y="-117" font-family="Helvetica,sans-Serif" font-size="10.00">LayoutAnnotation.h</text>
</a>
</g>
</g>
<!-- Node2&#45;&gt;Node7 -->
<g id="edge6" class="edge">
<title>Node2&#45;&gt;Node7</title>
<path fill="none" stroke="#63b8ff" d="M1140.38,-168.52C1213.15,-158.95 1372.51,-137.99 1454.52,-127.21"/>
<polygon fill="#63b8ff" stroke="#63b8ff" points="1140.34,-165.12 1130.88,-169.9 1141.25,-172.06 1140.34,-165.12"/>
</g>
<!-- Node2&#45;&gt;Node28 -->
<g id="edge28" class="edge">
<title>Node2&#45;&gt;Node28</title>
<path fill="none" stroke="#63b8ff" d="M1064.55,-171.65C967.9,-166.66 714.45,-151.75 633.5,-129 614.94,-123.78 612.89,-115.78 594.5,-110 554.47,-97.41 444.24,-82.08 373.76,-73.1"/>
<polygon fill="#63b8ff" stroke="#63b8ff" points="1064.1,-175.18 1074.27,-172.2 1064.46,-168.19 1064.1,-175.18"/>
</g>
<!-- Node34 -->
<g id="node34" class="node">
<title>Node34</title>
<g id="a_node34"><a xlink:href="_layout_model_plugin_8h.html" target="_top" xlink:title="Definition of LayoutModelPlugin, the plugin class of layout package for Model element.">
<polygon fill="white" stroke="#666666" points="750,-129 643,-129 643,-110 750,-110 750,-129"/>
<text text-anchor="middle" x="696.5" y="-117" font-family="Helvetica,sans-Serif" font-size="10.00">LayoutModelPlugin.h</text>
</a>
</g>
</g>
<!-- Node2&#45;&gt;Node34 -->
<g id="edge34" class="edge">
<title>Node2&#45;&gt;Node34</title>
<path fill="none" stroke="#63b8ff" d="M1064.34,-168.52C991.79,-159.05 833.76,-138.42 750.42,-127.54"/>
<polygon fill="#63b8ff" stroke="#63b8ff" points="1063.86,-172.12 1074.23,-169.94 1064.77,-165.18 1063.86,-172.12"/>
</g>
<!-- Node37 -->
<g id="node37" class="node">
<title>Node37</title>
<g id="a_node37"><a xlink:href="_layout_species_reference_plugin_8h.html" target="_top" xlink:title="Definition of LayoutSpeciesReferencePlugin, the plugin class of layout package (Level2) for the Speci...">
<polygon fill="white" stroke="#666666" points="1322,-129 1161,-129 1161,-110 1322,-110 1322,-129"/>
<text text-anchor="middle" x="1241.5" y="-117" font-family="Helvetica,sans-Serif" font-size="10.00">LayoutSpeciesReferencePlugin.h</text>
</a>
</g>
</g>
<!-- Node2&#45;&gt;Node37 -->
<g id="edge40" class="edge">
<title>Node2&#45;&gt;Node37</title>
<path fill="none" stroke="#63b8ff" d="M1136.04,-160.71C1161.47,-151.01 1195.79,-137.93 1218.27,-129.36"/>
<polygon fill="#63b8ff" stroke="#63b8ff" points="1135.18,-157.68 1127.08,-164.51 1137.67,-164.22 1135.18,-157.68"/>
</g>
<!-- Node2&#45;&gt;Node38 -->
<g id="edge44" class="edge">
<title>Node2&#45;&gt;Node38</title>
<path fill="none" stroke="#63b8ff" d="M1140.69,-172.3C1249.7,-168.64 1571.57,-156.16 1837.5,-129 1840.28,-128.72 1843.13,-128.4 1846,-128.05"/>
<polygon fill="#63b8ff" stroke="#63b8ff" points="1140.81,-168.83 1130.93,-172.66 1141.04,-175.82 1140.81,-168.83"/>
</g>
<!-- Node39 -->
<g id="node39" class="node">
<title>Node39</title>
<g id="a_node39"><a xlink:href="_render_layout_plugin_8cpp.html" target="_top" xlink:title="Implementation of RenderLayoutPlugin, the plugin class of the fbc package for the Model element.">
<polygon fill="white" stroke="#666666" points="930,-129 807,-129 807,-110 930,-110 930,-129"/>
<text text-anchor="middle" x="868.5" y="-117" font-family="Helvetica,sans-Serif" font-size="10.00">RenderLayoutPlugin.cpp</text>
</a>
</g>
</g>
<!-- Node2&#45;&gt;Node39 -->
<g id="edge45" class="edge">
<title>Node2&#45;&gt;Node39</title>
<path fill="none" stroke="#63b8ff" d="M1064.61,-164.92C1021.61,-155.18 951.79,-139.36 908.09,-129.47"/>
<polygon fill="#63b8ff" stroke="#63b8ff" points="1063.67,-168.52 1074.2,-167.32 1065.22,-161.69 1063.67,-168.52"/>
</g>
<!-- Node40 -->
<g id="node40" class="node">
<title>Node40</title>
<g id="a_node40"><a xlink:href="_species_glyph_8cpp.html" target="_top" xlink:title="Implementation of SpeciesGlyph for SBML Layout.">
<polygon fill="white" stroke="#666666" points="1044.5,-129 948.5,-129 948.5,-110 1044.5,-110 1044.5,-129"/>
<text text-anchor="middle" x="996.5" y="-117" font-family="Helvetica,sans-Serif" font-size="10.00">SpeciesGlyph.cpp</text>
</a>
</g>
</g>
<!-- Node2&#45;&gt;Node40 -->
<g id="edge46" class="edge">
<title>Node2&#45;&gt;Node40</title>
<path fill="none" stroke="#63b8ff" d="M1074.83,-159.67C1055.68,-150.09 1030.75,-137.62 1014.22,-129.36"/>
<polygon fill="#63b8ff" stroke="#63b8ff" points="1073.01,-163.17 1083.52,-164.51 1076.14,-156.91 1073.01,-163.17"/>
</g>
<!-- Node2&#45;&gt;Node41 -->
<g id="edge47" class="edge">
<title>Node2&#45;&gt;Node41</title>
<path fill="none" stroke="#63b8ff" d="M1140.56,-170.96C1232.86,-164.7 1475.97,-147.72 1678.5,-129 1681.25,-128.75 1684.05,-128.48 1686.88,-128.21"/>
<polygon fill="#63b8ff" stroke="#63b8ff" points="1140.55,-167.52 1130.81,-171.68 1141.02,-174.5 1140.55,-167.52"/>
</g>
<!-- Node42 -->
<g id="node42" class="node">
<title>Node42</title>
<g id="a_node42"><a xlink:href="_text_glyph_8cpp.html" target="_top" xlink:title="Implementation of TextGlyph for SBML Layout.">
<polygon fill="white" stroke="#666666" points="1142.5,-129 1062.5,-129 1062.5,-110 1142.5,-110 1142.5,-129"/>
<text text-anchor="middle" x="1102.5" y="-117" font-family="Helvetica,sans-Serif" font-size="10.00">TextGlyph.cpp</text>
</a>
</g>
</g>
<!-- Node2&#45;&gt;Node42 -->
<g id="edge48" class="edge">
<title>Node2&#45;&gt;Node42</title>
<path fill="none" stroke="#63b8ff" d="M1102.5,-153.93C1102.5,-145.53 1102.5,-136.13 1102.5,-129.44"/>
<polygon fill="#63b8ff" stroke="#63b8ff" points="1099,-153.75 1102.5,-163.75 1106,-153.75 1099,-153.75"/>
</g>
<!-- Node7&#45;&gt;Node6 -->
<g id="edge11" class="edge">
<title>Node7&#45;&gt;Node6</title>
<path fill="none" stroke="#63b8ff" d="M1444.17,-115.36C1291.53,-107.46 897.46,-86.49 766.5,-74 763.55,-73.72 760.54,-73.41 757.49,-73.07"/>
<polygon fill="#63b8ff" stroke="#63b8ff" points="1443.57,-118.89 1453.74,-115.91 1443.93,-111.9 1443.57,-118.89"/>
</g>
<!-- Node8 -->
<g id="node8" class="node">
<title>Node8</title>
<g id="a_node8"><a xlink:href="_ellipse_8cpp.html" target="_top" xlink:title="Implementation of the Ellipse class.">
<polygon fill="white" stroke="#666666" points="1782,-74 1717,-74 1717,-55 1782,-55 1782,-74"/>
<text text-anchor="middle" x="1749.5" y="-62" font-family="Helvetica,sans-Serif" font-size="10.00">Ellipse.cpp</text>
</a>
</g>
</g>
<!-- Node7&#45;&gt;Node8 -->
<g id="edge7" class="edge">
<title>Node7&#45;&gt;Node8</title>
<path fill="none" stroke="#63b8ff" d="M1557.41,-107.22C1605.53,-96.77 1675.66,-81.54 1716.53,-72.66"/>
<polygon fill="#63b8ff" stroke="#63b8ff" points="1556.92,-103.97 1547.89,-109.51 1558.41,-110.81 1556.92,-103.97"/>
</g>
<!-- Node9 -->
<g id="node9" class="node">
<title>Node9</title>
<g id="a_node9"><a xlink:href="_global_style_8cpp.html" target="_top" xlink:title="Implementation of the GlobalStyle class.">
<polygon fill="white" stroke="#666666" points="1886.5,-74 1800.5,-74 1800.5,-55 1886.5,-55 1886.5,-74"/>
<text text-anchor="middle" x="1843.5" y="-62" font-family="Helvetica,sans-Serif" font-size="10.00">GlobalStyle.cpp</text>
</a>
</g>
</g>
<!-- Node7&#45;&gt;Node9 -->
<g id="edge8" class="edge">
<title>Node7&#45;&gt;Node9</title>
<path fill="none" stroke="#63b8ff" d="M1567.21,-109.04C1625.15,-100.12 1714.23,-86.33 1791.5,-74 1794.3,-73.55 1797.18,-73.09 1800.09,-72.62"/>
<polygon fill="#63b8ff" stroke="#63b8ff" points="1566.76,-105.72 1557.41,-110.7 1567.82,-112.64 1566.76,-105.72"/>
</g>
<!-- Node10 -->
<g id="node10" class="node">
<title>Node10</title>
<g id="a_node10"><a xlink:href="_gradient_stop_8cpp.html" target="_top" xlink:title="class representing a stop in a gradient definition">
<polygon fill="white" stroke="#666666" points="1996.5,-74 1904.5,-74 1904.5,-55 1996.5,-55 1996.5,-74"/>
<text text-anchor="middle" x="1950.5" y="-62" font-family="Helvetica,sans-Serif" font-size="10.00">GradientStop.cpp</text>
</a>
</g>
</g>
<!-- Node7&#45;&gt;Node10 -->
<g id="edge9" class="edge">
<title>Node7&#45;&gt;Node10</title>
<path fill="none" stroke="#63b8ff" d="M1567.04,-109.72C1713.13,-91.52 1752.22,-92.85 1895.5,-74 1898.28,-73.63 1901.13,-73.24 1904.01,-72.84"/>
<polygon fill="#63b8ff" stroke="#63b8ff" points="1566.82,-106.34 1557.33,-111.06 1567.69,-113.29 1566.82,-106.34"/>
</g>
<!-- Node11 -->
<g id="node11" class="node">
<title>Node11</title>
<g id="a_node11"><a xlink:href="_image_8cpp.html" target="_top" xlink:title="Implementation of the Image class.">
<polygon fill="white" stroke="#666666" points="2076.5,-74 2014.5,-74 2014.5,-55 2076.5,-55 2076.5,-74"/>
<text text-anchor="middle" x="2045.5" y="-62" font-family="Helvetica,sans-Serif" font-size="10.00">Image.cpp</text>
</a>
</g>
</g>
<!-- Node7&#45;&gt;Node11 -->
<g id="edge10" class="edge">
<title>Node7&#45;&gt;Node11</title>
<path fill="none" stroke="#63b8ff" d="M1567.21,-109.76C1761.8,-88.48 1814.44,-101.98 2005.5,-74 2008.31,-73.59 2011.22,-73.1 2014.13,-72.56"/>
<polygon fill="#63b8ff" stroke="#63b8ff" points="1566.88,-106.39 1557.32,-110.98 1567.65,-113.35 1566.88,-106.39"/>
</g>
<!-- Node12 -->
<g id="node12" class="node">
<title>Node12</title>
<g id="a_node12"><a xlink:href="_layout_model_plugin_8cpp.html" target="_top" xlink:title="Implementation of LayoutModelPlugin, the plugin class of layout package for the Model element.">
<polygon fill="white" stroke="#666666" points="893.5,-74 775.5,-74 775.5,-55 893.5,-55 893.5,-74"/>
<text text-anchor="middle" x="834.5" y="-62" font-family="Helvetica,sans-Serif" font-size="10.00">LayoutModelPlugin.cpp</text>
</a>
</g>
</g>
<!-- Node7&#45;&gt;Node12 -->
<g id="edge12" class="edge">
<title>Node7&#45;&gt;Node12</title>
<path fill="none" stroke="#63b8ff" d="M1443.79,-114.98C1334.53,-108.52 1099.93,-93.61 902.5,-74 899.66,-73.72 896.75,-73.41 893.82,-73.09"/>
<polygon fill="#63b8ff" stroke="#63b8ff" points="1443.41,-118.52 1453.6,-115.62 1443.82,-111.54 1443.41,-118.52"/>
</g>
<!-- Node13 -->
<g id="node13" class="node">
<title>Node13</title>
<g id="a_node13"><a xlink:href="_layout_species_reference_plugin_8cpp.html" target="_top" xlink:title="Implementation of LayoutSpeciesReferencePlugin, the plugin object of layout package (Level2) for the ...">
<polygon fill="white" stroke="#666666" points="1083.5,-74 911.5,-74 911.5,-55 1083.5,-55 1083.5,-74"/>
<text text-anchor="middle" x="997.5" y="-62" font-family="Helvetica,sans-Serif" font-size="10.00">LayoutSpeciesReferencePlugin.cpp</text>
</a>
</g>
</g>
<!-- Node7&#45;&gt;Node13 -->
<g id="edge13" class="edge">
<title>Node7&#45;&gt;Node13</title>
<path fill="none" stroke="#63b8ff" d="M1444.09,-112.09C1354.09,-102.7 1185.97,-85.16 1083.65,-74.49"/>
<polygon fill="#63b8ff" stroke="#63b8ff" points="1443.62,-115.67 1453.93,-113.22 1444.35,-108.71 1443.62,-115.67"/>
</g>
<!-- Node14 -->
<g id="node14" class="node">
<title>Node14</title>
<g id="a_node14"><a xlink:href="_linear_gradient_8cpp.html" target="_top" xlink:title="Implementation of the LinearGradient class.">
<polygon fill="white" stroke="#666666" points="2192.5,-74 2094.5,-74 2094.5,-55 2192.5,-55 2192.5,-74"/>
<text text-anchor="middle" x="2143.5" y="-62" font-family="Helvetica,sans-Serif" font-size="10.00">LinearGradient.cpp</text>
</a>
</g>
</g>
<!-- Node7&#45;&gt;Node14 -->
<g id="edge14" class="edge">
<title>Node7&#45;&gt;Node14</title>
<path fill="none" stroke="#63b8ff" d="M1567.05,-109.8C1797.14,-85.83 1858.22,-98.47 2085.5,-74 2088.33,-73.69 2091.24,-73.35 2094.17,-72.99"/>
<polygon fill="#63b8ff" stroke="#63b8ff" points="1566.9,-106.41 1557.32,-110.93 1567.63,-113.37 1566.9,-106.41"/>
</g>
<!-- Node15 -->
<g id="node15" class="node">
<title>Node15</title>
<g id="a_node15"><a xlink:href="_list_of_curve_elements_8cpp.html" target="_top" xlink:title="storage class for curve elements">
<polygon fill="white" stroke="#666666" points="2340,-74 2211,-74 2211,-55 2340,-55 2340,-74"/>
<text text-anchor="middle" x="2275.5" y="-62" font-family="Helvetica,sans-Serif" font-size="10.00">ListOfCurveElements.cpp</text>
</a>
</g>
</g>
<!-- Node7&#45;&gt;Node15 -->
<g id="edge15" class="edge">
<title>Node7&#45;&gt;Node15</title>
<path fill="none" stroke="#63b8ff" d="M1566.85,-109.85C1848.45,-82.15 1922.42,-97.89 2201.5,-74 2204.46,-73.75 2207.49,-73.47 2210.55,-73.18"/>
<polygon fill="#63b8ff" stroke="#63b8ff" points="1566.92,-106.42 1557.31,-110.89 1567.61,-113.39 1566.92,-106.42"/>
</g>
<!-- Node16 -->
<g id="node16" class="node">
<title>Node16</title>
<g id="a_node16"><a xlink:href="_list_of_gradient_stops_8cpp.html" target="_top" xlink:title="Implementation of the ListOfGradientStops class.">
<polygon fill="white" stroke="#666666" points="2482.5,-74 2358.5,-74 2358.5,-55 2482.5,-55 2482.5,-74"/>
<text text-anchor="middle" x="2420.5" y="-62" font-family="Helvetica,sans-Serif" font-size="10.00">ListOfGradientStops.cpp</text>
</a>
</g>
</g>
<!-- Node7&#45;&gt;Node16 -->
<g id="edge16" class="edge">
<title>Node7&#45;&gt;Node16</title>
<path fill="none" stroke="#63b8ff" d="M1567.18,-109.84C1914.06,-77.58 2005,-102.48 2349.5,-74 2352.35,-73.76 2355.25,-73.5 2358.19,-73.22"/>
<polygon fill="#63b8ff" stroke="#63b8ff" points="1566.94,-106.44 1557.31,-110.86 1567.59,-113.41 1566.94,-106.44"/>
</g>
<!-- Node17 -->
<g id="node17" class="node">
<title>Node17</title>
<g id="a_node17"><a xlink:href="_local_render_information_8cpp.html" target="_top" xlink:title="Implementation of the LocalRenderInformation class.">
<polygon fill="white" stroke="#666666" points="2640,-74 2501,-74 2501,-55 2640,-55 2640,-74"/>
<text text-anchor="middle" x="2570.5" y="-62" font-family="Helvetica,sans-Serif" font-size="10.00">LocalRenderInformation.cpp</text>
</a>
</g>
</g>
<!-- Node7&#45;&gt;Node17 -->
<g id="edge17" class="edge">
<title>Node7&#45;&gt;Node17</title>
<path fill="none" stroke="#63b8ff" d="M1566.98,-109.87C1976.93,-73.09 2083.8,-103.81 2491.5,-74 2494.53,-73.78 2497.62,-73.53 2500.74,-73.27"/>
<polygon fill="#63b8ff" stroke="#63b8ff" points="1566.95,-106.45 1557.31,-110.84 1567.58,-113.42 1566.95,-106.45"/>
</g>
<!-- Node18 -->
<g id="node18" class="node">
<title>Node18</title>
<g id="a_node18"><a xlink:href="_local_style_8cpp.html" target="_top" xlink:title="class for representing a local style">
<polygon fill="white" stroke="#666666" points="2739,-74 2658,-74 2658,-55 2739,-55 2739,-74"/>
<text text-anchor="middle" x="2698.5" y="-62" font-family="Helvetica,sans-Serif" font-size="10.00">LocalStyle.cpp</text>
</a>
</g>
</g>
<!-- Node7&#45;&gt;Node18 -->
<g id="edge18" class="edge">
<title>Node7&#45;&gt;Node18</title>
<path fill="none" stroke="#63b8ff" d="M1566.99,-109.88C2046.96,-68.35 2173.06,-122.99 2649.5,-74 2652.16,-73.73 2654.9,-73.39 2657.65,-73.02"/>
<polygon fill="#63b8ff" stroke="#63b8ff" points="1566.96,-106.46 1557.31,-110.82 1567.57,-113.43 1566.96,-106.46"/>
</g>
<!-- Node19 -->
<g id="node19" class="node">
<title>Node19</title>
<g id="a_node19"><a xlink:href="_polygon_8cpp.html" target="_top" xlink:title="Implementation of the Polygon class.">
<polygon fill="white" stroke="#666666" points="2828,-74 2757,-74 2757,-55 2828,-55 2828,-74"/>
<text text-anchor="middle" x="2792.5" y="-62" font-family="Helvetica,sans-Serif" font-size="10.00">Polygon.cpp</text>
</a>
</g>
</g>
<!-- Node7&#45;&gt;Node19 -->
<g id="edge19" class="edge">
<title>Node7&#45;&gt;Node19</title>
<path fill="none" stroke="#63b8ff" d="M1567.18,-109.87C2090.87,-65.31 2228.83,-131.72 2748.5,-74 2751.13,-73.71 2753.84,-73.34 2756.55,-72.93"/>
<polygon fill="#63b8ff" stroke="#63b8ff" points="1566.97,-106.46 1557.31,-110.81 1567.57,-113.44 1566.97,-106.46"/>
</g>
<!-- Node20 -->
<g id="node20" class="node">
<title>Node20</title>
<g id="a_node20"><a xlink:href="_radial_gradient_8cpp.html" target="_top" xlink:title="Implementation of the RadialGradient class.">
<polygon fill="white" stroke="#666666" points="2946.5,-74 2846.5,-74 2846.5,-55 2946.5,-55 2946.5,-74"/>
<text text-anchor="middle" x="2896.5" y="-62" font-family="Helvetica,sans-Serif" font-size="10.00">RadialGradient.cpp</text>
</a>
</g>
</g>
<!-- Node7&#45;&gt;Node20 -->
<g id="edge20" class="edge">
<title>Node7&#45;&gt;Node20</title>
<path fill="none" stroke="#63b8ff" d="M1567.15,-109.88C2130.29,-62.33 2277.15,-122.13 2837.5,-74 2840.28,-73.76 2843.14,-73.48 2846.01,-73.16"/>
<polygon fill="#63b8ff" stroke="#63b8ff" points="1566.97,-106.47 1557.31,-110.8 1567.57,-113.44 1566.97,-106.47"/>
</g>
<!-- Node21 -->
<g id="node21" class="node">
<title>Node21</title>
<g id="a_node21"><a xlink:href="_rectangle_8cpp.html" target="_top" xlink:title="Implementation of the Rectangle class.">
<polygon fill="white" stroke="#666666" points="3044.5,-74 2964.5,-74 2964.5,-55 3044.5,-55 3044.5,-74"/>
<text text-anchor="middle" x="3004.5" y="-62" font-family="Helvetica,sans-Serif" font-size="10.00">Rectangle.cpp</text>
</a>
</g>
</g>
<!-- Node7&#45;&gt;Node21 -->
<g id="edge21" class="edge">
<title>Node7&#45;&gt;Node21</title>
<path fill="none" stroke="#63b8ff" d="M1567.23,-109.88C2182.61,-58.72 2343.69,-134.65 2955.5,-74 2958.34,-73.72 2961.25,-73.37 2964.19,-72.97"/>
<polygon fill="#63b8ff" stroke="#63b8ff" points="1566.98,-106.47 1557.31,-110.8 1567.56,-113.45 1566.98,-106.47"/>
</g>
<!-- Node22 -->
<g id="node22" class="node">
<title>Node22</title>
<g id="a_node22"><a xlink:href="_render_cubic_bezier_8cpp.html" target="_top" xlink:title="Implementation of the RenderCubicBezier class.">
<polygon fill="white" stroke="#666666" points="1221,-74 1102,-74 1102,-55 1221,-55 1221,-74"/>
<text text-anchor="middle" x="1161.5" y="-62" font-family="Helvetica,sans-Serif" font-size="10.00">RenderCubicBezier.cpp</text>
</a>
</g>
</g>
<!-- Node7&#45;&gt;Node22 -->
<g id="edge22" class="edge">
<title>Node7&#45;&gt;Node22</title>
<path fill="none" stroke="#63b8ff" d="M1444.08,-109.04C1380.52,-99.24 1281.99,-84.06 1219.66,-74.46"/>
<polygon fill="#63b8ff" stroke="#63b8ff" points="1443.33,-112.62 1453.74,-110.68 1444.39,-105.7 1443.33,-112.62"/>
</g>
<!-- Node23 -->
<g id="node23" class="node">
<title>Node23</title>
<g id="a_node23"><a xlink:href="_render_curve_8cpp.html" target="_top" xlink:title="Implementation of the RenderCurve class.">
<polygon fill="white" stroke="#666666" points="1332,-74 1239,-74 1239,-55 1332,-55 1332,-74"/>
<text text-anchor="middle" x="1285.5" y="-62" font-family="Helvetica,sans-Serif" font-size="10.00">RenderCurve.cpp</text>
</a>
</g>
</g>
<!-- Node7&#45;&gt;Node23 -->
<g id="edge23" class="edge">
<title>Node7&#45;&gt;Node23</title>
<path fill="none" stroke="#63b8ff" d="M1457.74,-106.99C1417.19,-97.22 1359.82,-83.4 1322.64,-74.45"/>
<polygon fill="#63b8ff" stroke="#63b8ff" points="1456.64,-110.57 1467.18,-109.51 1458.28,-103.76 1456.64,-110.57"/>
</g>
<!-- Node24 -->
<g id="node24" class="node">
<title>Node24</title>
<g id="a_node24"><a xlink:href="_render_group_8cpp.html" target="_top" xlink:title="Implementation of the RenderGroup class.">
<polygon fill="white" stroke="#666666" points="1443,-74 1350,-74 1350,-55 1443,-55 1443,-74"/>
<text text-anchor="middle" x="1396.5" y="-62" font-family="Helvetica,sans-Serif" font-size="10.00">RenderGroup.cpp</text>
</a>
</g>
</g>
<!-- Node7&#45;&gt;Node24 -->
<g id="edge24" class="edge">
<title>Node7&#45;&gt;Node24</title>
<path fill="none" stroke="#63b8ff" d="M1477.32,-104.8C1457.59,-95.2 1431.8,-82.66 1414.72,-74.36"/>
<polygon fill="#63b8ff" stroke="#63b8ff" points="1475.49,-108.28 1486.01,-109.51 1478.55,-101.99 1475.49,-108.28"/>
</g>
<!-- Node25 -->
<g id="node25" class="node">
<title>Node25</title>
<g id="a_node25"><a xlink:href="_render_point_8cpp.html" target="_top" xlink:title="Implementation of the RenderPoint class.">
<polygon fill="white" stroke="#666666" points="1550,-74 1461,-74 1461,-55 1550,-55 1550,-74"/>
<text text-anchor="middle" x="1505.5" y="-62" font-family="Helvetica,sans-Serif" font-size="10.00">RenderPoint.cpp</text>
</a>
</g>
</g>
<!-- Node7&#45;&gt;Node25 -->
<g id="edge25" class="edge">
<title>Node7&#45;&gt;Node25</title>
<path fill="none" stroke="#63b8ff" d="M1505.5,-98.93C1505.5,-90.53 1505.5,-81.13 1505.5,-74.44"/>
<polygon fill="#63b8ff" stroke="#63b8ff" points="1502,-98.75 1505.5,-108.75 1509,-98.75 1502,-98.75"/>
</g>
<!-- Node26 -->
<g id="node26" class="node">
<title>Node26</title>
<g id="a_node26"><a xlink:href="_style_8cpp.html" target="_top" xlink:title="Implementation of the Style class.">
<polygon fill="white" stroke="#666666" points="1626.5,-74 1568.5,-74 1568.5,-55 1626.5,-55 1626.5,-74"/>
<text text-anchor="middle" x="1597.5" y="-62" font-family="Helvetica,sans-Serif" font-size="10.00">Style.cpp</text>
</a>
</g>
</g>
<!-- Node7&#45;&gt;Node26 -->
<g id="edge26" class="edge">
<title>Node7&#45;&gt;Node26</title>
<path fill="none" stroke="#63b8ff" d="M1530.21,-104.27C1546.74,-94.74 1567.97,-82.51 1582.12,-74.36"/>
<polygon fill="#63b8ff" stroke="#63b8ff" points="1529.02,-101.48 1522.11,-109.51 1532.52,-107.55 1529.02,-101.48"/>
</g>
<!-- Node27 -->
<g id="node27" class="node">
<title>Node27</title>
<g id="a_node27"><a xlink:href="_text_8cpp.html" target="_top" xlink:title="Implementation of the Text class.">
<polygon fill="white" stroke="#666666" points="1698.5,-74 1644.5,-74 1644.5,-55 1698.5,-55 1698.5,-74"/>
<text text-anchor="middle" x="1671.5" y="-62" font-family="Helvetica,sans-Serif" font-size="10.00">Text.cpp</text>
</a>
</g>
</g>
<!-- Node7&#45;&gt;Node27 -->
<g id="edge27" class="edge">
<title>Node7&#45;&gt;Node27</title>
<path fill="none" stroke="#63b8ff" d="M1543.97,-106.22C1574.6,-96.44 1616.72,-82.99 1644.03,-74.27"/>
<polygon fill="#63b8ff" stroke="#63b8ff" points="1543.12,-103.13 1534.66,-109.51 1545.25,-109.8 1543.12,-103.13"/>
</g>
<!-- Node29 -->
<g id="node29" class="node">
<title>Node29</title>
<g id="a_node29"><a xlink:href="_graphical_object_8cpp.html" target="_top" xlink:title="Implementation of GraphicalObject for SBML Layout.">
<polygon fill="white" stroke="#666666" points="105,-19 0,-19 0,0 105,0 105,-19"/>
<text text-anchor="middle" x="52.5" y="-7" font-family="Helvetica,sans-Serif" font-size="10.00">GraphicalObject.cpp</text>
</a>
</g>
</g>
<!-- Node28&#45;&gt;Node29 -->
<g id="edge29" class="edge">
<title>Node28&#45;&gt;Node29</title>
<path fill="none" stroke="#63b8ff" d="M256.79,-52.3C208.97,-42.52 140.46,-28.5 96.22,-19.45"/>
<polygon fill="#63b8ff" stroke="#63b8ff" points="256.07,-55.93 266.56,-54.51 257.47,-49.08 256.07,-55.93"/>
</g>
<!-- Node30 -->
<g id="node30" class="node">
<title>Node30</title>
<g id="a_node30"><a xlink:href="_layout_validator_8cpp.html" target="_top" xlink:title="Implementation of the LayoutValidator class.">
<polygon fill="white" stroke="#666666" points="224,-19 123,-19 123,0 224,0 224,-19"/>
<text text-anchor="middle" x="173.5" y="-7" font-family="Helvetica,sans-Serif" font-size="10.00">LayoutValidator.cpp</text>
</a>
</g>
</g>
<!-- Node28&#45;&gt;Node30 -->
<g id="edge30" class="edge">
<title>Node28&#45;&gt;Node30</title>
<path fill="none" stroke="#63b8ff" d="M277.87,-50.58C252.65,-40.9 218.78,-27.89 196.56,-19.36"/>
<polygon fill="#63b8ff" stroke="#63b8ff" points="276.5,-54.19 287.09,-54.51 279.01,-47.66 276.5,-54.19"/>
</g>
<!-- Node31 -->
<g id="node31" class="node">
<title>Node31</title>
<g id="a_node31"><a xlink:href="_render_layout_converter_8cpp.html" target="_top" xlink:title="Simple converter to convert Layout + Render from l2 to L3 and vice versa.">
<polygon fill="white" stroke="#666666" points="380.5,-19 242.5,-19 242.5,0 380.5,0 380.5,-19"/>
<text text-anchor="middle" x="311.5" y="-7" font-family="Helvetica,sans-Serif" font-size="10.00">RenderLayoutConverter.cpp</text>
</a>
</g>
</g>
<!-- Node28&#45;&gt;Node31 -->
<g id="edge31" class="edge">
<title>Node28&#45;&gt;Node31</title>
<path fill="none" stroke="#63b8ff" d="M311.5,-43.93C311.5,-35.53 311.5,-26.13 311.5,-19.44"/>
<polygon fill="#63b8ff" stroke="#63b8ff" points="308,-43.75 311.5,-53.75 315,-43.75 308,-43.75"/>
</g>
<!-- Node32 -->
<g id="node32" class="node">
<title>Node32</title>
<g id="a_node32"><a xlink:href="_render_list_of_layouts_plugin_8cpp.html" target="_top" xlink:title="Implementation of RenderListOfLayoutsPlugin, the plugin class of the fbc package for the Model elemen...">
<polygon fill="white" stroke="#666666" points="554,-19 399,-19 399,0 554,0 554,-19"/>
<text text-anchor="middle" x="476.5" y="-7" font-family="Helvetica,sans-Serif" font-size="10.00">RenderListOfLayoutsPlugin.cpp</text>
</a>
</g>
</g>
<!-- Node28&#45;&gt;Node32 -->
<g id="edge32" class="edge">
<title>Node28&#45;&gt;Node32</title>
<path fill="none" stroke="#63b8ff" d="M349.67,-51.24C379.92,-41.52 421.47,-28.18 448.65,-19.45"/>
<polygon fill="#63b8ff" stroke="#63b8ff" points="348.94,-48.12 340.49,-54.51 351.08,-54.78 348.94,-48.12"/>
</g>
<!-- Node33 -->
<g id="node33" class="node">
<title>Node33</title>
<g id="a_node33"><a xlink:href="_render_utilities_8cpp.html" target="_top" xlink:title="implementation of RenderUtilities, a class of utility functions for the render package">
<polygon fill="white" stroke="#666666" points="672.5,-19 572.5,-19 572.5,0 672.5,0 672.5,-19"/>
<text text-anchor="middle" x="622.5" y="-7" font-family="Helvetica,sans-Serif" font-size="10.00">RenderUtilities.cpp</text>
</a>
</g>
</g>
<!-- Node28&#45;&gt;Node33 -->
<g id="edge33" class="edge">
<title>Node28&#45;&gt;Node33</title>
<path fill="none" stroke="#63b8ff" d="M374.8,-52.71C433.05,-42.79 518.3,-28.26 572.07,-19.1"/>
<polygon fill="#63b8ff" stroke="#63b8ff" points="374.53,-49.38 365.26,-54.51 375.7,-56.28 374.53,-49.38"/>
</g>
<!-- Node34&#45;&gt;Node6 -->
<g id="edge35" class="edge">
<title>Node34&#45;&gt;Node6</title>
<path fill="none" stroke="#63b8ff" d="M698.35,-98.93C699.14,-90.53 700.03,-81.13 700.66,-74.44"/>
<polygon fill="#63b8ff" stroke="#63b8ff" points="694.78,-98.46 697.33,-108.75 701.75,-99.12 694.78,-98.46"/>
</g>
<!-- Node34&#45;&gt;Node12 -->
<g id="edge38" class="edge">
<title>Node34&#45;&gt;Node12</title>
<path fill="none" stroke="#63b8ff" d="M730.13,-105.58C755.35,-95.9 789.22,-82.89 811.44,-74.36"/>
<polygon fill="#63b8ff" stroke="#63b8ff" points="728.99,-102.66 720.91,-109.51 731.5,-109.19 728.99,-102.66"/>
</g>
<!-- Node34&#45;&gt;Node28 -->
<g id="edge37" class="edge">
<title>Node34&#45;&gt;Node28</title>
<path fill="none" stroke="#63b8ff" d="M631.84,-109.6C559.93,-99.7 444.57,-83.82 373.68,-74.06"/>
<polygon fill="#63b8ff" stroke="#63b8ff" points="631.18,-113.18 641.56,-111.07 632.13,-106.24 631.18,-113.18"/>
</g>
<!-- Node35 -->
<g id="node35" class="node">
<title>Node35</title>
<g id="a_node35"><a xlink:href="_layout_extension_8cpp.html" target="_top" xlink:title="Implementation of LayoutExtension, the core module of layout package.">
<polygon fill="white" stroke="#666666" points="627.5,-74 519.5,-74 519.5,-55 627.5,-55 627.5,-74"/>
<text text-anchor="middle" x="573.5" y="-62" font-family="Helvetica,sans-Serif" font-size="10.00">LayoutExtension.cpp</text>
</a>
</g>
</g>
<!-- Node34&#45;&gt;Node35 -->
<g id="edge36" class="edge">
<title>Node34&#45;&gt;Node35</title>
<path fill="none" stroke="#63b8ff" d="M665.62,-105.19C643.24,-95.55 613.6,-82.78 594.06,-74.36"/>
<polygon fill="#63b8ff" stroke="#63b8ff" points="664.07,-108.77 674.63,-109.51 666.84,-102.34 664.07,-108.77"/>
</g>
<!-- Node36 -->
<g id="node36" class="node">
<title>Node36</title>
<g id="a_node36"><a xlink:href="_render_extension_8cpp.html" target="_top" xlink:title="Implementation of RenderExtension, the core module of the render package.">
<polygon fill="white" stroke="#666666" points="501.5,-74 391.5,-74 391.5,-55 501.5,-55 501.5,-74"/>
<text text-anchor="middle" x="446.5" y="-62" font-family="Helvetica,sans-Serif" font-size="10.00">RenderExtension.cpp</text>
</a>
</g>
</g>
<!-- Node34&#45;&gt;Node36 -->
<g id="edge39" class="edge">
<title>Node34&#45;&gt;Node36</title>
<path fill="none" stroke="#63b8ff" d="M643.4,-107.24C597.26,-97.46 531.31,-83.48 488.7,-74.45"/>
<polygon fill="#63b8ff" stroke="#63b8ff" points="642.58,-110.86 653.09,-109.51 644.03,-104.01 642.58,-110.86"/>
</g>
<!-- Node37&#45;&gt;Node6 -->
<g id="edge41" class="edge">
<title>Node37&#45;&gt;Node6</title>
<path fill="none" stroke="#63b8ff" d="M1149.63,-109.83C978.57,-93.88 933.79,-92.75 766.5,-74 763.45,-73.66 760.31,-73.29 757.15,-72.91"/>
<polygon fill="#63b8ff" stroke="#63b8ff" points="1149.26,-113.4 1159.55,-110.85 1149.92,-106.43 1149.26,-113.4"/>
</g>
<!-- Node37&#45;&gt;Node13 -->
<g id="edge43" class="edge">
<title>Node37&#45;&gt;Node13</title>
<path fill="none" stroke="#63b8ff" d="M1189.39,-107.18C1144.37,-97.4 1080.19,-83.46 1038.69,-74.45"/>
<polygon fill="#63b8ff" stroke="#63b8ff" points="1188.59,-110.81 1199.11,-109.51 1190.08,-103.97 1188.59,-110.81"/>
</g>
<!-- Node37&#45;&gt;Node35 -->
<g id="edge42" class="edge">
<title>Node37&#45;&gt;Node35</title>
<path fill="none" stroke="#63b8ff" d="M1149.88,-109.89C921.03,-91.39 861.3,-97 636.5,-74 633.65,-73.71 630.72,-73.39 627.77,-73.05"/>
<polygon fill="#63b8ff" stroke="#63b8ff" points="1149.3,-113.44 1159.56,-110.76 1149.87,-106.46 1149.3,-113.44"/>
</g>
<!-- Node43&#45;&gt;Node2 -->
<g id="edge53" class="edge">
<title>Node43&#45;&gt;Node2</title>
<path fill="none" stroke="#63b8ff" d="M1357.82,-219.01C1290.74,-207.58 1180.73,-188.83 1129.87,-180.16"/>
<polygon fill="#63b8ff" stroke="#63b8ff" points="1357.16,-222.62 1367.61,-220.85 1358.34,-215.72 1357.16,-222.62"/>
</g>
<!-- Node43&#45;&gt;Node4 -->
<g id="edge52" class="edge">
<title>Node43&#45;&gt;Node4</title>
<path fill="none" stroke="#63b8ff" d="M1440.09,-214.69C1483.39,-192.21 1567.93,-148.32 1604.24,-129.46"/>
<polygon fill="#63b8ff" stroke="#63b8ff" points="1438.78,-211.95 1431.52,-219.66 1442.01,-218.16 1438.78,-211.95"/>
</g>
<!-- Node43&#45;&gt;Node28 -->
<g id="edge54" class="edge">
<title>Node43&#45;&gt;Node28</title>
<path fill="none" stroke="#63b8ff" d="M1357.75,-228.16C1168.11,-226.24 550.05,-213.5 373.5,-129 347.65,-116.63 326.63,-88.71 317.07,-74.37"/>
<polygon fill="#63b8ff" stroke="#63b8ff" points="1357.53,-231.67 1367.56,-228.26 1357.6,-224.67 1357.53,-231.67"/>
</g>
<!-- Node43&#45;&gt;Node38 -->
<g id="edge55" class="edge">
<title>Node43&#45;&gt;Node38</title>
<path fill="none" stroke="#63b8ff" d="M1464.08,-217.19C1560.54,-195.62 1768.99,-149.01 1856.52,-129.44"/>
<polygon fill="#63b8ff" stroke="#63b8ff" points="1463.43,-213.97 1454.44,-219.57 1464.96,-220.8 1463.43,-213.97"/>
</g>
</g>
</svg>
        <g id="navigator" transform="translate(0 0)" fill="#404254">
                <rect fill="#f2f5e9" fill-opacity="0.5" stroke="#606060" stroke-width=".5" x="0" y="0" width="60" height="60"/>
                <use id="zoomplus" xlink:href="#zoomPlus" x="17" y="9" onmousedown="handleZoom(evt,'in')"/>
                <use id="zoomminus" xlink:href="#zoomMin" x="42" y="9" onmousedown="handleZoom(evt,'out')"/>
                <use id="reset" xlink:href="#resetDef" x="30" y="36" onmousedown="handleReset()"/>
                <g id="arrowUp" xlink:href="#dirArrow" transform="translate(30 24)" onmousedown="handlePan(0,-1)">
                  <use xlink:href="#rim" fill="#404040">
                        <set attributeName="fill" to="#808080" begin="arrowUp.mouseover" end="arrowUp.mouseout"/>
                  </use>
                  <path fill="none" stroke="white" stroke-width="1.5" d="M0,-3.0v7 M-2.5,-0.5L0,-3.0L2.5,-0.5"/>
                </g>
                <g id="arrowRight" xlink:href="#dirArrow" transform="rotate(90) translate(36 -43)" onmousedown="handlePan(1,0)">
                  <use xlink:href="#rim" fill="#404040">
                        <set attributeName="fill" to="#808080" begin="arrowRight.mouseover" end="arrowRight.mouseout"/>
                  </use>
                  <path fill="none" stroke="white" stroke-width="1.5" d="M0,-3.0v7 M-2.5,-0.5L0,-3.0L2.5,-0.5"/>
                </g>
                <g id="arrowDown" xlink:href="#dirArrow" transform="rotate(180) translate(-30 -48)" onmousedown="handlePan(0,1)">
                  <use xlink:href="#rim" fill="#404040">
                        <set attributeName="fill" to="#808080" begin="arrowDown.mouseover" end="arrowDown.mouseout"/>
                  </use>
                  <path fill="none" stroke="white" stroke-width="1.5" d="M0,-3.0v7 M-2.5,-0.5L0,-3.0L2.5,-0.5"/>
                </g>
                <g id="arrowLeft" xlink:href="#dirArrow" transform="rotate(270) translate(-36 17)" onmousedown="handlePan(-1,0)">
                  <use xlink:href="#rim" fill="#404040">
                        <set attributeName="fill" to="#808080" begin="arrowLeft.mouseover" end="arrowLeft.mouseout"/>
                  </use>
                  <path fill="none" stroke="white" stroke-width="1.5" d="M0,-3.0v7 M-2.5,-0.5L0,-3.0L2.5,-0.5"/>
                </g>
        </g>
        <svg viewBox="0 0 15 15" width="100%" height="30px" preserveAspectRatio="xMaxYMin meet">
         <g id="arrow_out" transform="scale(0.3 0.3)">
          <a xlink:href="_species_reference_glyph_8h__dep__incl_org.svg" target="_base">
           <rect id="button" ry="5" rx="5" y="6" x="6" height="38" width="38"
                fill="#f2f5e9" fill-opacity="0.5" stroke="#606060" stroke-width="1.0"/>
           <path id="arrow"
             d="M 11.500037,31.436501 C 11.940474,20.09759 22.043105,11.32322 32.158766,21.979434 L 37.068811,17.246167 C 37.068811,17.246167 37.088388,32 37.088388,32 L 22.160133,31.978069 C 22.160133,31.978069 26.997745,27.140456 26.997745,27.140456 C 18.528582,18.264221 13.291696,25.230495 11.500037,31.436501 z"
             style="fill:#404040;"/>
          </a>
         </g>
        </svg>
</svg>
