<?xml version="1.0" encoding="UTF-8" standalone="no"?>
<!DOCTYPE svg PUBLIC "-//W3C//DTD SVG 1.1//EN"
 "http://www.w3.org/Graphics/SVG/1.1/DTD/svg11.dtd">
<!-- Generated by graphviz version 8.0.1 (20230327.1645)
 -->
<!-- Title: SpeciesFeature.h Pages: 1 -->
<svg width="457pt" height="247pt"
 viewBox="0.00 0.00 457.45 247.00" xmlns="http://www.w3.org/2000/svg" xmlns:xlink="http://www.w3.org/1999/xlink">
<g id="graph0" class="graph" transform="scale(1 1) rotate(0) translate(4 243)">
<title>SpeciesFeature.h</title>
<!-- Node1 -->
<g id="node1" class="node">
<title>Node1</title>
<g id="a_node1"><a xlink:title=": Implementation of the SpeciesFeature class">
<polygon fill="#999999" stroke="#666666" points="198.95,-239 105.95,-239 105.95,-220 198.95,-220 198.95,-239"/>
<text text-anchor="middle" x="152.45" y="-227" font-family="Helvetica,sans-Serif" font-size="10.00">SpeciesFeature.h</text>
</a>
</g>
</g>
<!-- Node2 -->
<g id="node2" class="node">
<title>Node2</title>
<g id="a_node2"><a xlink:href="_multi_extension_types_8h.html" target="_top" xlink:title=": Implementation of the MultiExtensionTypes class">
<polygon fill="white" stroke="#666666" points="157.45,-74 41.45,-74 41.45,-55 157.45,-55 157.45,-74"/>
<text text-anchor="middle" x="99.45" y="-62" font-family="Helvetica,sans-Serif" font-size="10.00">MultiExtensionTypes.h</text>
</a>
</g>
</g>
<!-- Node1&#45;&gt;Node2 -->
<g id="edge1" class="edge">
<title>Node1&#45;&gt;Node2</title>
<path fill="none" stroke="#63b8ff" d="M112.01,-215.9C74.61,-201.68 21.97,-174.4 2.45,-129 -9.67,-100.8 27.07,-83.66 58.76,-74.42"/>
<polygon fill="#63b8ff" stroke="#63b8ff" points="110.51,-219.44 121.11,-219.57 112.9,-212.86 110.51,-219.44"/>
</g>
<!-- Node4 -->
<g id="node4" class="node">
<title>Node4</title>
<g id="a_node4"><a xlink:href="_multi_species_plugin_8h.html" target="_top" xlink:title=": Implementation of the MultiSpeciesPlugin class">
<polygon fill="white" stroke="#666666" points="279.45,-129 171.45,-129 171.45,-110 279.45,-110 279.45,-129"/>
<text text-anchor="middle" x="225.45" y="-117" font-family="Helvetica,sans-Serif" font-size="10.00">MultiSpeciesPlugin.h</text>
</a>
</g>
</g>
<!-- Node1&#45;&gt;Node4 -->
<g id="edge3" class="edge">
<title>Node1&#45;&gt;Node4</title>
<path fill="none" stroke="#63b8ff" d="M194.37,-215.29C209.07,-208.42 224.01,-198.36 232.45,-184 242.57,-166.79 235,-142.39 229.61,-129.42"/>
<polygon fill="#63b8ff" stroke="#63b8ff" points="193.15,-212.43 185.31,-219.56 195.89,-218.88 193.15,-212.43"/>
</g>
<!-- Node7 -->
<g id="node7" class="node">
<title>Node7</title>
<g id="a_node7"><a xlink:href="_species_feature_8cpp.html" target="_top" xlink:title=": Implementation of the SpeciesFeature class">
<polygon fill="white" stroke="#666666" points="115.45,-129 11.45,-129 11.45,-110 115.45,-110 115.45,-129"/>
<text text-anchor="middle" x="63.45" y="-117" font-family="Helvetica,sans-Serif" font-size="10.00">SpeciesFeature.cpp</text>
</a>
</g>
</g>
<!-- Node1&#45;&gt;Node7 -->
<g id="edge7" class="edge">
<title>Node1&#45;&gt;Node7</title>
<path fill="none" stroke="#63b8ff" d="M113.36,-215.48C98.25,-208.48 82.27,-198.29 72.45,-184 60.98,-167.3 61.27,-142.25 62.4,-129.16"/>
<polygon fill="#63b8ff" stroke="#63b8ff" points="111.51,-218.92 122.09,-219.62 114.26,-212.48 111.51,-218.92"/>
</g>
<!-- Node8 -->
<g id="node8" class="node">
<title>Node8</title>
<g id="a_node8"><a xlink:href="_sub_list_of_species_features_8cpp.html" target="_top" xlink:title=": Implementation of the SubListOfSpeciesFeatures class">
<polygon fill="white" stroke="#666666" points="449.45,-129 297.45,-129 297.45,-110 449.45,-110 449.45,-129"/>
<text text-anchor="middle" x="373.45" y="-117" font-family="Helvetica,sans-Serif" font-size="10.00">SubListOfSpeciesFeatures.cpp</text>
</a>
</g>
</g>
<!-- Node1&#45;&gt;Node8 -->
<g id="edge8" class="edge">
<title>Node1&#45;&gt;Node8</title>
<path fill="none" stroke="#63b8ff" d="M182.29,-215.01C201.3,-206.32 226.42,-194.7 248.45,-184 287.43,-165.07 332.64,-141.77 356.57,-129.32"/>
<polygon fill="#63b8ff" stroke="#63b8ff" points="181.06,-212.17 173.41,-219.5 183.96,-218.54 181.06,-212.17"/>
</g>
<!-- Node9 -->
<g id="node9" class="node">
<title>Node9</title>
<g id="a_node9"><a xlink:href="_sub_list_of_species_features_8h.html" target="_top" xlink:title=": Implementation of the SubListOfSpeciesFeatures class">
<polygon fill="white" stroke="#666666" points="223.45,-184 81.45,-184 81.45,-165 223.45,-165 223.45,-184"/>
<text text-anchor="middle" x="152.45" y="-172" font-family="Helvetica,sans-Serif" font-size="10.00">SubListOfSpeciesFeatures.h</text>
</a>
</g>
</g>
<!-- Node1&#45;&gt;Node9 -->
<g id="edge9" class="edge">
<title>Node1&#45;&gt;Node9</title>
<path fill="none" stroke="#63b8ff" d="M152.45,-208.93C152.45,-200.53 152.45,-191.13 152.45,-184.44"/>
<polygon fill="#63b8ff" stroke="#63b8ff" points="148.95,-208.75 152.45,-218.75 155.95,-208.75 148.95,-208.75"/>
</g>
<!-- Node3 -->
<g id="node3" class="node">
<title>Node3</title>
<g id="a_node3"><a xlink:href="_multi_validator_8cpp.html" target="_top" xlink:title=": Implementation of the MultiValidator class">
<polygon fill="white" stroke="#666666" points="145.95,-19 52.95,-19 52.95,0 145.95,0 145.95,-19"/>
<text text-anchor="middle" x="99.45" y="-7" font-family="Helvetica,sans-Serif" font-size="10.00">MultiValidator.cpp</text>
</a>
</g>
</g>
<!-- Node2&#45;&gt;Node3 -->
<g id="edge2" class="edge">
<title>Node2&#45;&gt;Node3</title>
<path fill="none" stroke="#63b8ff" d="M99.45,-43.93C99.45,-35.53 99.45,-26.13 99.45,-19.44"/>
<polygon fill="#63b8ff" stroke="#63b8ff" points="95.95,-43.75 99.45,-53.75 102.95,-43.75 95.95,-43.75"/>
</g>
<!-- Node4&#45;&gt;Node2 -->
<g id="edge5" class="edge">
<title>Node4&#45;&gt;Node2</title>
<path fill="none" stroke="#63b8ff" d="M194.13,-105.32C171.17,-95.67 140.62,-82.82 120.51,-74.36"/>
<polygon fill="#63b8ff" stroke="#63b8ff" points="192.51,-108.86 203.08,-109.51 195.22,-102.41 192.51,-108.86"/>
</g>
<!-- Node5 -->
<g id="node5" class="node">
<title>Node5</title>
<g id="a_node5"><a xlink:href="_multi_extension_8cpp.html" target="_top" xlink:title=": Implementation of the MultiExtension class">
<polygon fill="white" stroke="#666666" points="275.45,-74 175.45,-74 175.45,-55 275.45,-55 275.45,-74"/>
<text text-anchor="middle" x="225.45" y="-62" font-family="Helvetica,sans-Serif" font-size="10.00">MultiExtension.cpp</text>
</a>
</g>
</g>
<!-- Node4&#45;&gt;Node5 -->
<g id="edge4" class="edge">
<title>Node4&#45;&gt;Node5</title>
<path fill="none" stroke="#63b8ff" d="M225.45,-98.93C225.45,-90.53 225.45,-81.13 225.45,-74.44"/>
<polygon fill="#63b8ff" stroke="#63b8ff" points="221.95,-98.75 225.45,-108.75 228.95,-98.75 221.95,-98.75"/>
</g>
<!-- Node6 -->
<g id="node6" class="node">
<title>Node6</title>
<g id="a_node6"><a xlink:href="_multi_species_plugin_8cpp.html" target="_top" xlink:title=": Implementation of the MultiSpeciesPlugin class">
<polygon fill="white" stroke="#666666" points="412.95,-74 293.95,-74 293.95,-55 412.95,-55 412.95,-74"/>
<text text-anchor="middle" x="353.45" y="-62" font-family="Helvetica,sans-Serif" font-size="10.00">MultiSpeciesPlugin.cpp</text>
</a>
</g>
</g>
<!-- Node4&#45;&gt;Node6 -->
<g id="edge6" class="edge">
<title>Node4&#45;&gt;Node6</title>
<path fill="none" stroke="#63b8ff" d="M257.28,-105.32C280.6,-95.67 311.64,-82.82 332.06,-74.36"/>
<polygon fill="#63b8ff" stroke="#63b8ff" points="256.07,-102.45 248.17,-109.51 258.75,-108.92 256.07,-102.45"/>
</g>
<!-- Node9&#45;&gt;Node2 -->
<g id="edge10" class="edge">
<title>Node9&#45;&gt;Node2</title>
<path fill="none" stroke="#63b8ff" d="M144.79,-154.85C139.41,-142.08 131.87,-124.84 124.45,-110 118.11,-97.32 109.93,-83.11 104.69,-74.23"/>
<polygon fill="#63b8ff" stroke="#63b8ff" points="141.84,-155.86 148.91,-163.75 148.3,-153.17 141.84,-155.86"/>
</g>
<!-- Node9&#45;&gt;Node4 -->
<g id="edge11" class="edge">
<title>Node9&#45;&gt;Node4</title>
<path fill="none" stroke="#63b8ff" d="M173.54,-158.19C186.43,-148.84 202.44,-137.21 213.25,-129.36"/>
<polygon fill="#63b8ff" stroke="#63b8ff" points="171.87,-155.8 165.84,-164.51 175.99,-161.47 171.87,-155.8"/>
</g>
<!-- Node9&#45;&gt;Node7 -->
<g id="edge12" class="edge">
<title>Node9&#45;&gt;Node7</title>
<path fill="none" stroke="#63b8ff" d="M128.1,-159C112.18,-149.52 91.89,-137.43 78.33,-129.36"/>
<polygon fill="#63b8ff" stroke="#63b8ff" points="125.97,-162.4 136.36,-164.51 129.56,-156.39 125.97,-162.4"/>
</g>
<!-- Node9&#45;&gt;Node8 -->
<g id="edge13" class="edge">
<title>Node9&#45;&gt;Node8</title>
<path fill="none" stroke="#63b8ff" d="M200.43,-161.99C241.17,-152.22 298.8,-138.4 336.15,-129.45"/>
<polygon fill="#63b8ff" stroke="#63b8ff" points="199.85,-158.77 190.94,-164.51 201.48,-165.58 199.85,-158.77"/>
</g>
</g>
</svg>
