<?xml version="1.0" encoding="UTF-8" standalone="no"?>
<!DOCTYPE svg PUBLIC "-//W3C//DTD SVG 1.1//EN"
 "http://www.w3.org/Graphics/SVG/1.1/DTD/svg11.dtd">
<!-- Generated by graphviz version 8.0.1 (20230327.1645)
 -->
<!-- Title: Style.h Pages: 1 -->
<svg width="1639pt" height="467pt"
 viewBox="0.00 0.00 1638.50 467.00" xmlns="http://www.w3.org/2000/svg" xmlns:xlink="http://www.w3.org/1999/xlink">
<g id="graph0" class="graph" transform="scale(1 1) rotate(0) translate(4 463)">
<title>Style.h</title>
<!-- Node1 -->
<g id="node1" class="node">
<title>Node1</title>
<g id="a_node1"><a xlink:title="Definition of the Style class.">
<polygon fill="#999999" stroke="#666666" points="858.5,-459 811.5,-459 811.5,-440 858.5,-440 858.5,-459"/>
<text text-anchor="middle" x="835" y="-447" font-family="Helvetica,sans-Serif" font-size="10.00">Style.h</text>
</a>
</g>
</g>
<!-- Node2 -->
<g id="node2" class="node">
<title>Node2</title>
<g id="a_node2"><a xlink:href="_global_style_8h.html" target="_top" xlink:title="Definition of the GlobalStyle class.">
<polygon fill="white" stroke="#666666" points="777.5,-404 702.5,-404 702.5,-385 777.5,-385 777.5,-404"/>
<text text-anchor="middle" x="740" y="-392" font-family="Helvetica,sans-Serif" font-size="10.00">GlobalStyle.h</text>
</a>
</g>
</g>
<!-- Node1&#45;&gt;Node2 -->
<g id="edge1" class="edge">
<title>Node1&#45;&gt;Node2</title>
<path fill="none" stroke="#63b8ff" d="M809.49,-434.27C792.42,-424.74 770.49,-412.51 755.88,-404.36"/>
<polygon fill="#63b8ff" stroke="#63b8ff" points="807.45,-437.69 817.88,-439.51 810.86,-431.58 807.45,-437.69"/>
</g>
<!-- Node9 -->
<g id="node9" class="node">
<title>Node9</title>
<g id="a_node9"><a xlink:href="_render_extension_types_8h.html" target="_top" xlink:title="Definition of RenderExtensionTypes.">
<polygon fill="white" stroke="#666666" points="811,-129 685,-129 685,-110 811,-110 811,-129"/>
<text text-anchor="middle" x="748" y="-117" font-family="Helvetica,sans-Serif" font-size="10.00">RenderExtensionTypes.h</text>
</a>
</g>
</g>
<!-- Node1&#45;&gt;Node9 -->
<g id="edge61" class="edge">
<title>Node1&#45;&gt;Node9</title>
<path fill="none" stroke="#63b8ff" d="M829.54,-429.32C823.93,-407.86 816,-371.98 816,-340.5 816,-340.5 816,-340.5 816,-283.5 816,-275.11 766.24,-161.79 751.85,-129.2"/>
<polygon fill="#63b8ff" stroke="#63b8ff" points="826.35,-429.91 832.36,-438.63 833.1,-428.06 826.35,-429.91"/>
</g>
<!-- Node20 -->
<g id="node20" class="node">
<title>Node20</title>
<g id="a_node20"><a xlink:href="_style_8cpp.html" target="_top" xlink:title="Implementation of the Style class.">
<polygon fill="white" stroke="#666666" points="902,-294 844,-294 844,-275 902,-275 902,-294"/>
<text text-anchor="middle" x="873" y="-282" font-family="Helvetica,sans-Serif" font-size="10.00">Style.cpp</text>
</a>
</g>
</g>
<!-- Node1&#45;&gt;Node20 -->
<g id="edge62" class="edge">
<title>Node1&#45;&gt;Node20</title>
<path fill="none" stroke="#63b8ff" d="M839.46,-429.37C847.7,-394.03 865.01,-319.79 870.95,-294.31"/>
<polygon fill="#63b8ff" stroke="#63b8ff" points="835.9,-428.2 837.04,-438.74 842.72,-429.79 835.9,-428.2"/>
</g>
<!-- Node21 -->
<g id="node21" class="node">
<title>Node21</title>
<g id="a_node21"><a xlink:href="_local_style_8h.html" target="_top" xlink:title="Definition of the LocalStyle class.">
<polygon fill="white" stroke="#666666" points="993.5,-404 922.5,-404 922.5,-385 993.5,-385 993.5,-404"/>
<text text-anchor="middle" x="958" y="-392" font-family="Helvetica,sans-Serif" font-size="10.00">LocalStyle.h</text>
</a>
</g>
</g>
<!-- Node1&#45;&gt;Node21 -->
<g id="edge35" class="edge">
<title>Node1&#45;&gt;Node21</title>
<path fill="none" stroke="#63b8ff" d="M865.88,-435.19C888.26,-425.55 917.9,-412.78 937.44,-404.36"/>
<polygon fill="#63b8ff" stroke="#63b8ff" points="864.66,-432.34 856.87,-439.51 867.43,-438.77 864.66,-432.34"/>
</g>
<!-- Node3 -->
<g id="node3" class="node">
<title>Node3</title>
<g id="a_node3"><a xlink:href="_global_style_8cpp.html" target="_top" xlink:title="Implementation of the GlobalStyle class.">
<polygon fill="white" stroke="#666666" points="386,-294 300,-294 300,-275 386,-275 386,-294"/>
<text text-anchor="middle" x="343" y="-282" font-family="Helvetica,sans-Serif" font-size="10.00">GlobalStyle.cpp</text>
</a>
</g>
</g>
<!-- Node2&#45;&gt;Node3 -->
<g id="edge2" class="edge">
<title>Node2&#45;&gt;Node3</title>
<path fill="none" stroke="#63b8ff" d="M691.5,-383.37C652.31,-374.94 595.85,-362.21 547,-349 482.73,-331.61 408.29,-307.39 369.55,-294.46"/>
<polygon fill="#63b8ff" stroke="#63b8ff" points="690.56,-386.97 701.07,-385.64 692.02,-380.12 690.56,-386.97"/>
</g>
<!-- Node4 -->
<g id="node4" class="node">
<title>Node4</title>
<g id="a_node4"><a xlink:href="_list_of_global_styles_8h.html" target="_top" xlink:title="Definition of the ListOfGlobalStyles class.">
<polygon fill="white" stroke="#666666" points="663.5,-349 556.5,-349 556.5,-330 663.5,-330 663.5,-349"/>
<text text-anchor="middle" x="610" y="-337" font-family="Helvetica,sans-Serif" font-size="10.00">ListOfGlobalStyles.h</text>
</a>
</g>
</g>
<!-- Node2&#45;&gt;Node4 -->
<g id="edge3" class="edge">
<title>Node2&#45;&gt;Node4</title>
<path fill="none" stroke="#63b8ff" d="M708,-380.45C684.27,-370.78 652.56,-357.85 631.73,-349.36"/>
<polygon fill="#63b8ff" stroke="#63b8ff" points="706.37,-383.97 716.95,-384.51 709.01,-377.49 706.37,-383.97"/>
</g>
<!-- Node2&#45;&gt;Node9 -->
<g id="edge33" class="edge">
<title>Node2&#45;&gt;Node9</title>
<path fill="none" stroke="#63b8ff" d="M737.38,-374.09C731.17,-326.4 716.76,-204.52 726,-165 729.1,-151.74 736.75,-137.9 742.16,-129.24"/>
<polygon fill="#63b8ff" stroke="#63b8ff" points="734.01,-374.3 738.79,-383.75 740.95,-373.38 734.01,-374.3"/>
</g>
<!-- Node2&#45;&gt;Node20 -->
<g id="edge34" class="edge">
<title>Node2&#45;&gt;Node20</title>
<path fill="none" stroke="#63b8ff" d="M759.16,-377.94C787.41,-355 839.33,-312.84 861.97,-294.46"/>
<polygon fill="#63b8ff" stroke="#63b8ff" points="757.44,-375.64 751.88,-384.66 761.85,-381.08 757.44,-375.64"/>
</g>
<!-- Node4&#45;&gt;Node3 -->
<g id="edge29" class="edge">
<title>Node4&#45;&gt;Node3</title>
<path fill="none" stroke="#63b8ff" d="M554.09,-327.4C504.13,-317.49 431.98,-303.16 386.3,-294.1"/>
<polygon fill="#63b8ff" stroke="#63b8ff" points="553.22,-331 563.71,-329.51 554.58,-324.13 553.22,-331"/>
</g>
<!-- Node5 -->
<g id="node5" class="node">
<title>Node5</title>
<g id="a_node5"><a xlink:href="_global_render_information_8h.html" target="_top" xlink:title="Definition of the GlobalRenderInformation class.">
<polygon fill="white" stroke="#666666" points="537.5,-294 404.5,-294 404.5,-275 537.5,-275 537.5,-294"/>
<text text-anchor="middle" x="471" y="-282" font-family="Helvetica,sans-Serif" font-size="10.00">GlobalRenderInformation.h</text>
</a>
</g>
</g>
<!-- Node4&#45;&gt;Node5 -->
<g id="edge4" class="edge">
<title>Node4&#45;&gt;Node5</title>
<path fill="none" stroke="#63b8ff" d="M576.46,-325.71C551.03,-316.01 516.71,-302.93 494.23,-294.36"/>
<polygon fill="#63b8ff" stroke="#63b8ff" points="574.83,-329.22 585.42,-329.51 577.32,-322.68 574.83,-329.22"/>
</g>
<!-- Node4&#45;&gt;Node9 -->
<g id="edge31" class="edge">
<title>Node4&#45;&gt;Node9</title>
<path fill="none" stroke="#63b8ff" d="M595.84,-321.2C587.17,-308.43 578.82,-290.63 585,-275 613.44,-203.02 695.78,-149.77 731.33,-129.49"/>
<polygon fill="#63b8ff" stroke="#63b8ff" points="593.51,-322.94 602.29,-328.87 599.12,-318.76 593.51,-322.94"/>
</g>
<!-- Node19 -->
<g id="node19" class="node">
<title>Node19</title>
<g id="a_node19"><a xlink:href="_list_of_global_styles_8cpp.html" target="_top" xlink:title="Implementation of the ListOfGlobalStyles class.">
<polygon fill="white" stroke="#666666" points="711.5,-294 594.5,-294 594.5,-275 711.5,-275 711.5,-294"/>
<text text-anchor="middle" x="653" y="-282" font-family="Helvetica,sans-Serif" font-size="10.00">ListOfGlobalStyles.cpp</text>
</a>
</g>
</g>
<!-- Node4&#45;&gt;Node19 -->
<g id="edge30" class="edge">
<title>Node4&#45;&gt;Node19</title>
<path fill="none" stroke="#63b8ff" d="M624.02,-321.22C631.27,-312.28 639.82,-301.74 645.75,-294.44"/>
<polygon fill="#63b8ff" stroke="#63b8ff" points="620.68,-318.78 617.1,-328.75 626.12,-323.19 620.68,-318.78"/>
</g>
<!-- Node4&#45;&gt;Node20 -->
<g id="edge32" class="edge">
<title>Node4&#45;&gt;Node20</title>
<path fill="none" stroke="#63b8ff" d="M665.12,-327.39C719.53,-316.43 800.64,-300.08 843.69,-291.41"/>
<polygon fill="#63b8ff" stroke="#63b8ff" points="664.73,-324.1 655.61,-329.51 666.11,-330.96 664.73,-324.1"/>
</g>
<!-- Node6 -->
<g id="node6" class="node">
<title>Node6</title>
<g id="a_node6"><a xlink:href="_global_render_information_8cpp.html" target="_top" xlink:title="class for the storage of global render information">
<polygon fill="white" stroke="#666666" points="171.5,-184 28.5,-184 28.5,-165 171.5,-165 171.5,-184"/>
<text text-anchor="middle" x="100" y="-172" font-family="Helvetica,sans-Serif" font-size="10.00">GlobalRenderInformation.cpp</text>
</a>
</g>
</g>
<!-- Node5&#45;&gt;Node6 -->
<g id="edge5" class="edge">
<title>Node5&#45;&gt;Node6</title>
<path fill="none" stroke="#63b8ff" d="M420.76,-272.2C384.51,-263.77 334.48,-251.58 291,-239 230.75,-221.57 161.09,-197.36 124.83,-184.45"/>
<polygon fill="#63b8ff" stroke="#63b8ff" points="419.55,-275.74 430.08,-274.58 421.12,-268.92 419.55,-275.74"/>
</g>
<!-- Node7 -->
<g id="node7" class="node">
<title>Node7</title>
<g id="a_node7"><a xlink:href="_list_of_global_render_information_8h.html" target="_top" xlink:title="Definition of the ListOfGlobalRenderInformation class.">
<polygon fill="white" stroke="#666666" points="459.5,-239 300.5,-239 300.5,-220 459.5,-220 459.5,-239"/>
<text text-anchor="middle" x="380" y="-227" font-family="Helvetica,sans-Serif" font-size="10.00">ListOfGlobalRenderInformation.h</text>
</a>
</g>
</g>
<!-- Node5&#45;&gt;Node7 -->
<g id="edge6" class="edge">
<title>Node5&#45;&gt;Node7</title>
<path fill="none" stroke="#63b8ff" d="M440.99,-269.53C423.39,-259.97 402.4,-247.59 390.02,-239.36"/>
<polygon fill="#63b8ff" stroke="#63b8ff" points="438.87,-272.9 449.35,-274.51 442.16,-266.72 438.87,-272.9"/>
</g>
<!-- Node5&#45;&gt;Node9 -->
<g id="edge25" class="edge">
<title>Node5&#45;&gt;Node9</title>
<path fill="none" stroke="#63b8ff" d="M491.35,-268.48C523.89,-244.82 590.05,-198.18 650,-165 675.18,-151.07 705.53,-137.79 725.72,-129.43"/>
<polygon fill="#63b8ff" stroke="#63b8ff" points="489.75,-266.04 483.74,-274.77 493.88,-271.7 489.75,-266.04"/>
</g>
<!-- Node14 -->
<g id="node14" class="node">
<title>Node14</title>
<g id="a_node14"><a xlink:href="_render_list_of_layouts_plugin_8cpp.html" target="_top" xlink:title="Implementation of RenderListOfLayoutsPlugin, the plugin class of the fbc package for the Model elemen...">
<polygon fill="white" stroke="#666666" points="340.5,-19 185.5,-19 185.5,0 340.5,0 340.5,-19"/>
<text text-anchor="middle" x="263" y="-7" font-family="Helvetica,sans-Serif" font-size="10.00">RenderListOfLayoutsPlugin.cpp</text>
</a>
</g>
</g>
<!-- Node5&#45;&gt;Node14 -->
<g id="edge27" class="edge">
<title>Node5&#45;&gt;Node14</title>
<path fill="none" stroke="#63b8ff" d="M393.44,-273.64C259.72,-255.58 0,-215.37 0,-175.5 0,-175.5 0,-175.5 0,-118.5 0,-37.67 107.61,-16.06 185.16,-10.98"/>
<polygon fill="#63b8ff" stroke="#63b8ff" points="392.64,-277.2 403.02,-275.06 393.57,-270.26 392.64,-277.2"/>
</g>
<!-- Node16 -->
<g id="node16" class="node">
<title>Node16</title>
<g id="a_node16"><a xlink:href="_render_list_of_layouts_plugin_8h.html" target="_top" xlink:title="Definition of RenderListOfLayoutsPlugin, the plugin class of fbc package for the Model element.">
<polygon fill="white" stroke="#666666" points="560,-184 416,-184 416,-165 560,-165 560,-184"/>
<text text-anchor="middle" x="488" y="-172" font-family="Helvetica,sans-Serif" font-size="10.00">RenderListOfLayoutsPlugin.h</text>
</a>
</g>
</g>
<!-- Node5&#45;&gt;Node16 -->
<g id="edge28" class="edge">
<title>Node5&#45;&gt;Node16</title>
<path fill="none" stroke="#63b8ff" d="M474.09,-263.9C477.79,-240.33 483.86,-201.81 486.59,-184.46"/>
<polygon fill="#63b8ff" stroke="#63b8ff" points="470.49,-263.24 472.39,-273.66 477.4,-264.33 470.49,-263.24"/>
</g>
<!-- Node18 -->
<g id="node18" class="node">
<title>Node18</title>
<g id="a_node18"><a xlink:href="_render_information_base_8cpp.html" target="_top" xlink:title="Implementation of the RenderInformationBase class.">
<polygon fill="white" stroke="#666666" points="944,-184 806,-184 806,-165 944,-165 944,-184"/>
<text text-anchor="middle" x="875" y="-172" font-family="Helvetica,sans-Serif" font-size="10.00">RenderInformationBase.cpp</text>
</a>
</g>
</g>
<!-- Node5&#45;&gt;Node18 -->
<g id="edge26" class="edge">
<title>Node5&#45;&gt;Node18</title>
<path fill="none" stroke="#63b8ff" d="M515.87,-271.77C549.94,-262.84 597.94,-250.22 640,-239 712.28,-219.72 796.95,-196.74 842.32,-184.4"/>
<polygon fill="#63b8ff" stroke="#63b8ff" points="515.11,-268.61 506.33,-274.53 516.89,-275.38 515.11,-268.61"/>
</g>
<!-- Node7&#45;&gt;Node5 -->
<g id="edge8" class="edge">
<title>Node7&#45;&gt;Node5</title>
<path fill="none" stroke="#63b8ff" d="M409.73,-244.31C427.29,-253.84 448.31,-266.24 460.78,-274.51"/>
<polygon fill="#63b8ff" stroke="#63b8ff" points="411.87,-240.96 401.4,-239.36 408.59,-247.14 411.87,-240.96"/>
</g>
<!-- Node7&#45;&gt;Node6 -->
<g id="edge7" class="edge">
<title>Node7&#45;&gt;Node6</title>
<path fill="none" stroke="#63b8ff" d="M321.83,-217.49C270.1,-207.7 195.39,-193.56 147.26,-184.45"/>
<polygon fill="#63b8ff" stroke="#63b8ff" points="321.03,-221.09 331.5,-219.51 322.33,-214.21 321.03,-221.09"/>
</g>
<!-- Node8 -->
<g id="node8" class="node">
<title>Node8</title>
<g id="a_node8"><a xlink:href="_list_of_global_render_information_8cpp.html" target="_top" xlink:title="Implementation of the ListOfGlobalRenderInformation class.">
<polygon fill="white" stroke="#666666" points="398,-184 228,-184 228,-165 398,-165 398,-184"/>
<text text-anchor="middle" x="313" y="-172" font-family="Helvetica,sans-Serif" font-size="10.00">ListOfGlobalRenderInformation.cpp</text>
</a>
</g>
</g>
<!-- Node7&#45;&gt;Node8 -->
<g id="edge9" class="edge">
<title>Node7&#45;&gt;Node8</title>
<path fill="none" stroke="#63b8ff" d="M360.3,-212.92C348.54,-203.61 334.02,-192.13 324.2,-184.36"/>
<polygon fill="#63b8ff" stroke="#63b8ff" points="357.62,-216.05 367.63,-219.51 361.96,-210.56 357.62,-216.05"/>
</g>
<!-- Node7&#45;&gt;Node9 -->
<g id="edge10" class="edge">
<title>Node7&#45;&gt;Node9</title>
<path fill="none" stroke="#63b8ff" d="M440.01,-217.33C477.57,-209.61 526.68,-198.2 569,-184 588.81,-177.36 592.49,-172.48 612,-165 647.84,-151.26 689.95,-137.9 717.72,-129.46"/>
<polygon fill="#63b8ff" stroke="#63b8ff" points="439.36,-214.09 430.25,-219.5 440.74,-220.95 439.36,-214.09"/>
</g>
<!-- Node7&#45;&gt;Node14 -->
<g id="edge19" class="edge">
<title>Node7&#45;&gt;Node14</title>
<path fill="none" stroke="#63b8ff" d="M309.11,-217.56C271.34,-210.13 230.36,-198.92 219,-184 179.1,-131.58 235.46,-46.99 256.01,-19.47"/>
<polygon fill="#63b8ff" stroke="#63b8ff" points="308.17,-221.13 318.65,-219.56 309.47,-214.26 308.17,-221.13"/>
</g>
<!-- Node7&#45;&gt;Node16 -->
<g id="edge20" class="edge">
<title>Node7&#45;&gt;Node16</title>
<path fill="none" stroke="#63b8ff" d="M408.19,-214.67C427.71,-205.09 453.1,-192.62 469.95,-184.36"/>
<polygon fill="#63b8ff" stroke="#63b8ff" points="406.76,-211.96 399.32,-219.51 409.84,-218.25 406.76,-211.96"/>
</g>
<!-- Node10 -->
<g id="node10" class="node">
<title>Node10</title>
<g id="a_node10"><a xlink:href="_render_layout_converter_8cpp.html" target="_top" xlink:title="Simple converter to convert Layout + Render from l2 to L3 and vice versa.">
<polygon fill="white" stroke="#666666" points="654,-74 516,-74 516,-55 654,-55 654,-74"/>
<text text-anchor="middle" x="585" y="-62" font-family="Helvetica,sans-Serif" font-size="10.00">RenderLayoutConverter.cpp</text>
</a>
</g>
</g>
<!-- Node9&#45;&gt;Node10 -->
<g id="edge11" class="edge">
<title>Node9&#45;&gt;Node10</title>
<path fill="none" stroke="#63b8ff" d="M709.9,-106.11C680.05,-96.41 639.24,-83.14 612.51,-74.45"/>
<polygon fill="#63b8ff" stroke="#63b8ff" points="708.76,-109.75 719.35,-109.51 710.92,-103.09 708.76,-109.75"/>
</g>
<!-- Node11 -->
<g id="node11" class="node">
<title>Node11</title>
<g id="a_node11"><a xlink:href="_render_layout_plugin_8cpp.html" target="_top" xlink:title="Implementation of RenderLayoutPlugin, the plugin class of the fbc package for the Model element.">
<polygon fill="white" stroke="#666666" points="1011.5,-19 888.5,-19 888.5,0 1011.5,0 1011.5,-19"/>
<text text-anchor="middle" x="950" y="-7" font-family="Helvetica,sans-Serif" font-size="10.00">RenderLayoutPlugin.cpp</text>
</a>
</g>
</g>
<!-- Node9&#45;&gt;Node11 -->
<g id="edge12" class="edge">
<title>Node9&#45;&gt;Node11</title>
<path fill="none" stroke="#63b8ff" d="M821.84,-108.16C865.41,-100.64 915.06,-89.13 931,-74 946.36,-59.42 949.45,-33 949.98,-19.28"/>
<polygon fill="#63b8ff" stroke="#63b8ff" points="821.49,-104.83 812.21,-109.94 822.65,-111.74 821.49,-104.83"/>
</g>
<!-- Node12 -->
<g id="node12" class="node">
<title>Node12</title>
<g id="a_node12"><a xlink:href="_render_utilities_8cpp.html" target="_top" xlink:title="implementation of RenderUtilities, a class of utility functions for the render package">
<polygon fill="white" stroke="#666666" points="769,-19 669,-19 669,0 769,0 769,-19"/>
<text text-anchor="middle" x="719" y="-7" font-family="Helvetica,sans-Serif" font-size="10.00">RenderUtilities.cpp</text>
</a>
</g>
</g>
<!-- Node9&#45;&gt;Node12 -->
<g id="edge13" class="edge">
<title>Node9&#45;&gt;Node12</title>
<path fill="none" stroke="#63b8ff" d="M725.08,-102.77C716.1,-95.23 706.81,-85.36 702,-74 694.07,-55.3 705.39,-31.9 713.02,-19.38"/>
<polygon fill="#63b8ff" stroke="#63b8ff" points="722.72,-106.15 732.77,-109.51 727.01,-100.62 722.72,-106.15"/>
</g>
<!-- Node13 -->
<g id="node13" class="node">
<title>Node13</title>
<g id="a_node13"><a xlink:href="_render_utilities_8h.html" target="_top" xlink:title="Definition of RenderUtilities, a class of utility functions for the render package.">
<polygon fill="white" stroke="#666666" points="799.5,-74 710.5,-74 710.5,-55 799.5,-55 799.5,-74"/>
<text text-anchor="middle" x="755" y="-62" font-family="Helvetica,sans-Serif" font-size="10.00">RenderUtilities.h</text>
</a>
</g>
</g>
<!-- Node9&#45;&gt;Node13 -->
<g id="edge14" class="edge">
<title>Node9&#45;&gt;Node13</title>
<path fill="none" stroke="#63b8ff" d="M750.59,-98.93C751.69,-90.53 752.94,-81.13 753.82,-74.44"/>
<polygon fill="#63b8ff" stroke="#63b8ff" points="747,-98.38 749.16,-108.75 753.94,-99.29 747,-98.38"/>
</g>
<!-- Node15 -->
<g id="node15" class="node">
<title>Node15</title>
<g id="a_node15"><a xlink:href="_render_validator_8cpp.html" target="_top" xlink:title="Definition of RenderValidator.">
<polygon fill="white" stroke="#666666" points="922,-74 818,-74 818,-55 922,-55 922,-74"/>
<text text-anchor="middle" x="870" y="-62" font-family="Helvetica,sans-Serif" font-size="10.00">RenderValidator.cpp</text>
</a>
</g>
</g>
<!-- Node9&#45;&gt;Node15 -->
<g id="edge18" class="edge">
<title>Node9&#45;&gt;Node15</title>
<path fill="none" stroke="#63b8ff" d="M778.63,-105.19C800.83,-95.55 830.23,-82.78 849.61,-74.36"/>
<polygon fill="#63b8ff" stroke="#63b8ff" points="777.47,-102.31 769.7,-109.51 780.26,-108.73 777.47,-102.31"/>
</g>
<!-- Node13&#45;&gt;Node11 -->
<g id="edge15" class="edge">
<title>Node13&#45;&gt;Node11</title>
<path fill="none" stroke="#63b8ff" d="M798.26,-51.74C834.14,-41.99 884.41,-28.33 917.08,-19.45"/>
<polygon fill="#63b8ff" stroke="#63b8ff" points="797.81,-48.51 789.08,-54.51 799.65,-55.26 797.81,-48.51"/>
</g>
<!-- Node13&#45;&gt;Node12 -->
<g id="edge17" class="edge">
<title>Node13&#45;&gt;Node12</title>
<path fill="none" stroke="#63b8ff" d="M743.07,-45.93C737.04,-37.06 729.98,-26.67 725.07,-19.44"/>
<polygon fill="#63b8ff" stroke="#63b8ff" points="740.54,-47.44 749.06,-53.75 746.33,-43.51 740.54,-47.44"/>
</g>
<!-- Node13&#45;&gt;Node14 -->
<g id="edge16" class="edge">
<title>Node13&#45;&gt;Node14</title>
<path fill="none" stroke="#63b8ff" d="M699.24,-57.49C611.45,-48.04 440.75,-29.65 340.89,-18.89"/>
<polygon fill="#63b8ff" stroke="#63b8ff" points="698.72,-61.06 709.03,-58.66 699.47,-54.11 698.72,-61.06"/>
</g>
<!-- Node16&#45;&gt;Node9 -->
<g id="edge22" class="edge">
<title>Node16&#45;&gt;Node9</title>
<path fill="none" stroke="#63b8ff" d="M542.62,-162.37C590.63,-152.58 659.61,-138.52 704.11,-129.45"/>
<polygon fill="#63b8ff" stroke="#63b8ff" points="542.2,-159.08 533.11,-164.51 543.6,-165.94 542.2,-159.08"/>
</g>
<!-- Node16&#45;&gt;Node12 -->
<g id="edge24" class="edge">
<title>Node16&#45;&gt;Node12</title>
<path fill="none" stroke="#63b8ff" d="M485,-153.84C482.21,-127.66 481.68,-81.56 507,-55 528.8,-32.13 613.29,-20.11 668.8,-14.55"/>
<polygon fill="#63b8ff" stroke="#63b8ff" points="481.64,-154.16 486.4,-163.63 488.58,-153.26 481.64,-154.16"/>
</g>
<!-- Node16&#45;&gt;Node14 -->
<g id="edge23" class="edge">
<title>Node16&#45;&gt;Node14</title>
<path fill="none" stroke="#63b8ff" d="M466.71,-158.07C420.46,-124.57 312.05,-46.04 275.38,-19.47"/>
<polygon fill="#63b8ff" stroke="#63b8ff" points="464.43,-161.47 474.58,-164.5 468.54,-155.8 464.43,-161.47"/>
</g>
<!-- Node17 -->
<g id="node17" class="node">
<title>Node17</title>
<g id="a_node17"><a xlink:href="_render_extension_8cpp.html" target="_top" xlink:title="Implementation of RenderExtension, the core module of the render package.">
<polygon fill="white" stroke="#666666" points="647,-129 537,-129 537,-110 647,-110 647,-129"/>
<text text-anchor="middle" x="592" y="-117" font-family="Helvetica,sans-Serif" font-size="10.00">RenderExtension.cpp</text>
</a>
</g>
</g>
<!-- Node16&#45;&gt;Node17 -->
<g id="edge21" class="edge">
<title>Node16&#45;&gt;Node17</title>
<path fill="none" stroke="#63b8ff" d="M515.41,-159.53C534.16,-149.97 558.47,-137.59 574.62,-129.36"/>
<polygon fill="#63b8ff" stroke="#63b8ff" points="513.96,-156.85 506.64,-164.51 517.14,-163.09 513.96,-156.85"/>
</g>
<!-- Node21&#45;&gt;Node9 -->
<g id="edge59" class="edge">
<title>Node21&#45;&gt;Node9</title>
<path fill="none" stroke="#63b8ff" d="M953.63,-374.17C947.33,-349.37 933.86,-305.88 911,-275 872.42,-222.9 842.46,-230.22 797,-184 779.42,-166.13 762.34,-142 753.74,-129.24"/>
<polygon fill="#63b8ff" stroke="#63b8ff" points="950.42,-374.79 956.16,-383.7 957.23,-373.16 950.42,-374.79"/>
</g>
<!-- Node21&#45;&gt;Node20 -->
<g id="edge60" class="edge">
<title>Node21&#45;&gt;Node20</title>
<path fill="none" stroke="#63b8ff" d="M941.23,-377.02C933.26,-368.87 923.79,-358.72 916,-349 901.17,-330.51 886.18,-307.03 878.41,-294.44"/>
<polygon fill="#63b8ff" stroke="#63b8ff" points="938.33,-379.07 947.86,-383.69 943.29,-374.13 938.33,-379.07"/>
</g>
<!-- Node22 -->
<g id="node22" class="node">
<title>Node22</title>
<g id="a_node22"><a xlink:href="_list_of_local_styles_8h.html" target="_top" xlink:title="Definition of the ListOfLocalStyles class.">
<polygon fill="white" stroke="#666666" points="1182,-349 1080,-349 1080,-330 1182,-330 1182,-349"/>
<text text-anchor="middle" x="1131" y="-337" font-family="Helvetica,sans-Serif" font-size="10.00">ListOfLocalStyles.h</text>
</a>
</g>
</g>
<!-- Node21&#45;&gt;Node22 -->
<g id="edge36" class="edge">
<title>Node21&#45;&gt;Node22</title>
<path fill="none" stroke="#63b8ff" d="M997.61,-381.36C1029.36,-371.64 1073.18,-358.21 1101.8,-349.45"/>
<polygon fill="#63b8ff" stroke="#63b8ff" points="996.88,-378.23 988.35,-384.51 998.93,-384.93 996.88,-378.23"/>
</g>
<!-- Node24 -->
<g id="node24" class="node">
<title>Node24</title>
<g id="a_node24"><a xlink:href="_local_render_information_8h.html" target="_top" xlink:title="Definition of the LocalRenderInformation class.">
<polygon fill="white" stroke="#666666" points="1147,-294 1019,-294 1019,-275 1147,-275 1147,-294"/>
<text text-anchor="middle" x="1083" y="-282" font-family="Helvetica,sans-Serif" font-size="10.00">LocalRenderInformation.h</text>
</a>
</g>
</g>
<!-- Node21&#45;&gt;Node24 -->
<g id="edge57" class="edge">
<title>Node21&#45;&gt;Node24</title>
<path fill="none" stroke="#63b8ff" d="M976.35,-377.65C1002.98,-354.64 1051.45,-312.76 1072.63,-294.46"/>
<polygon fill="#63b8ff" stroke="#63b8ff" points="974.51,-375.48 969.23,-384.66 979.08,-380.77 974.51,-375.48"/>
</g>
<!-- Node29 -->
<g id="node29" class="node">
<title>Node29</title>
<g id="a_node29"><a xlink:href="_local_style_8cpp.html" target="_top" xlink:title="class for representing a local style">
<polygon fill="white" stroke="#666666" points="1630.5,-294 1549.5,-294 1549.5,-275 1630.5,-275 1630.5,-294"/>
<text text-anchor="middle" x="1590" y="-282" font-family="Helvetica,sans-Serif" font-size="10.00">LocalStyle.cpp</text>
</a>
</g>
</g>
<!-- Node21&#45;&gt;Node29 -->
<g id="edge58" class="edge">
<title>Node21&#45;&gt;Node29</title>
<path fill="none" stroke="#63b8ff" d="M1004.33,-385.58C1123.13,-365.28 1437.12,-311.63 1549.38,-292.44"/>
<polygon fill="#63b8ff" stroke="#63b8ff" points="1004.06,-382.25 994.79,-387.38 1005.24,-389.15 1004.06,-382.25"/>
</g>
<!-- Node22&#45;&gt;Node9 -->
<g id="edge55" class="edge">
<title>Node22&#45;&gt;Node9</title>
<path fill="none" stroke="#63b8ff" d="M1192.99,-331.77C1321.86,-315.55 1598.92,-267.81 1502,-165 1478.44,-140.01 988.48,-126.12 811.26,-121.9"/>
<polygon fill="#63b8ff" stroke="#63b8ff" points="1192.61,-328.41 1183.11,-333.11 1193.47,-335.36 1192.61,-328.41"/>
</g>
<!-- Node22&#45;&gt;Node20 -->
<g id="edge56" class="edge">
<title>Node22&#45;&gt;Node20</title>
<path fill="none" stroke="#63b8ff" d="M1076.65,-327.34C1023.59,-316.44 944.83,-300.26 902.49,-291.56"/>
<polygon fill="#63b8ff" stroke="#63b8ff" points="1075.73,-330.93 1086.23,-329.51 1077.14,-324.07 1075.73,-330.93"/>
</g>
<!-- Node23 -->
<g id="node23" class="node">
<title>Node23</title>
<g id="a_node23"><a xlink:href="_list_of_local_styles_8cpp.html" target="_top" xlink:title="Implementation of the ListOfLocalStyles class.">
<polygon fill="white" stroke="#666666" points="1278.5,-294 1165.5,-294 1165.5,-275 1278.5,-275 1278.5,-294"/>
<text text-anchor="middle" x="1222" y="-282" font-family="Helvetica,sans-Serif" font-size="10.00">ListOfLocalStyles.cpp</text>
</a>
</g>
</g>
<!-- Node22&#45;&gt;Node23 -->
<g id="edge37" class="edge">
<title>Node22&#45;&gt;Node23</title>
<path fill="none" stroke="#63b8ff" d="M1155.9,-324C1172.18,-314.52 1192.92,-302.43 1206.79,-294.36"/>
<polygon fill="#63b8ff" stroke="#63b8ff" points="1154.32,-321.45 1147.44,-329.51 1157.84,-327.5 1154.32,-321.45"/>
</g>
<!-- Node22&#45;&gt;Node24 -->
<g id="edge38" class="edge">
<title>Node22&#45;&gt;Node24</title>
<path fill="none" stroke="#63b8ff" d="M1115.86,-321.78C1107.65,-312.72 1097.85,-301.9 1091.1,-294.44"/>
<polygon fill="#63b8ff" stroke="#63b8ff" points="1112.77,-323.69 1122.07,-328.75 1117.96,-318.99 1112.77,-323.69"/>
</g>
<!-- Node22&#45;&gt;Node29 -->
<g id="edge54" class="edge">
<title>Node22&#45;&gt;Node29</title>
<path fill="none" stroke="#63b8ff" d="M1193.21,-332.5C1272.63,-324.64 1414.24,-309.97 1535,-294 1539.6,-293.39 1544.4,-292.71 1549.18,-292.01"/>
<polygon fill="#63b8ff" stroke="#63b8ff" points="1193.03,-329.1 1183.42,-333.56 1193.72,-336.06 1193.03,-329.1"/>
</g>
<!-- Node24&#45;&gt;Node9 -->
<g id="edge50" class="edge">
<title>Node24&#45;&gt;Node9</title>
<path fill="none" stroke="#63b8ff" d="M1158.24,-274.01C1250.82,-259.47 1389.13,-226.64 1332,-165 1314.49,-146.11 958.84,-129.24 811.29,-123.03"/>
<polygon fill="#63b8ff" stroke="#63b8ff" points="1157.83,-270.68 1148.48,-275.65 1158.89,-277.6 1157.83,-270.68"/>
</g>
<!-- Node24&#45;&gt;Node16 -->
<g id="edge53" class="edge">
<title>Node24&#45;&gt;Node16</title>
<path fill="none" stroke="#63b8ff" d="M1022.94,-272.6C905.1,-251.21 645.68,-204.12 537.2,-184.43"/>
<polygon fill="#63b8ff" stroke="#63b8ff" points="1022.08,-276.18 1032.55,-274.52 1023.33,-269.29 1022.08,-276.18"/>
</g>
<!-- Node24&#45;&gt;Node18 -->
<g id="edge51" class="edge">
<title>Node24&#45;&gt;Node18</title>
<path fill="none" stroke="#63b8ff" d="M1056.55,-269.83C1039.54,-261.04 1016.96,-249.36 997,-239 959.49,-219.53 915.53,-196.63 891.97,-184.35"/>
<polygon fill="#63b8ff" stroke="#63b8ff" points="1054.37,-273.16 1064.86,-274.65 1057.58,-266.95 1054.37,-273.16"/>
</g>
<!-- Node25 -->
<g id="node25" class="node">
<title>Node25</title>
<g id="a_node25"><a xlink:href="_list_of_local_render_information_8h.html" target="_top" xlink:title="Definition of the ListOfLocalRenderInformation class.">
<polygon fill="white" stroke="#666666" points="1160.5,-239 1005.5,-239 1005.5,-220 1160.5,-220 1160.5,-239"/>
<text text-anchor="middle" x="1083" y="-227" font-family="Helvetica,sans-Serif" font-size="10.00">ListOfLocalRenderInformation.h</text>
</a>
</g>
</g>
<!-- Node24&#45;&gt;Node25 -->
<g id="edge39" class="edge">
<title>Node24&#45;&gt;Node25</title>
<path fill="none" stroke="#63b8ff" d="M1083,-263.93C1083,-255.53 1083,-246.13 1083,-239.44"/>
<polygon fill="#63b8ff" stroke="#63b8ff" points="1079.5,-263.75 1083,-273.75 1086.5,-263.75 1079.5,-263.75"/>
</g>
<!-- Node27 -->
<g id="node27" class="node">
<title>Node27</title>
<g id="a_node27"><a xlink:href="_local_render_information_8cpp.html" target="_top" xlink:title="Implementation of the LocalRenderInformation class.">
<polygon fill="white" stroke="#666666" points="1322.5,-184 1183.5,-184 1183.5,-165 1322.5,-165 1322.5,-184"/>
<text text-anchor="middle" x="1253" y="-172" font-family="Helvetica,sans-Serif" font-size="10.00">LocalRenderInformation.cpp</text>
</a>
</g>
</g>
<!-- Node24&#45;&gt;Node27 -->
<g id="edge49" class="edge">
<title>Node24&#45;&gt;Node27</title>
<path fill="none" stroke="#63b8ff" d="M1112.43,-270.08C1129.64,-261.84 1151.53,-250.66 1170,-239 1197.62,-221.57 1227.43,-197.26 1242.7,-184.36"/>
<polygon fill="#63b8ff" stroke="#63b8ff" points="1111.46,-267.14 1103.91,-274.58 1114.44,-273.48 1111.46,-267.14"/>
</g>
<!-- Node28 -->
<g id="node28" class="node">
<title>Node28</title>
<g id="a_node28"><a xlink:href="_render_layout_plugin_8h.html" target="_top" xlink:title="Definition of RenderLayoutPlugin, the plugin class of fbc package for the Model element.">
<polygon fill="white" stroke="#666666" points="1492.5,-184 1379.5,-184 1379.5,-165 1492.5,-165 1492.5,-184"/>
<text text-anchor="middle" x="1436" y="-172" font-family="Helvetica,sans-Serif" font-size="10.00">RenderLayoutPlugin.h</text>
</a>
</g>
</g>
<!-- Node24&#45;&gt;Node28 -->
<g id="edge52" class="edge">
<title>Node24&#45;&gt;Node28</title>
<path fill="none" stroke="#63b8ff" d="M1157.91,-273.91C1235.06,-263.67 1346.56,-247.75 1365,-239 1392.79,-225.81 1417.68,-198.27 1429.21,-184.19"/>
<polygon fill="#63b8ff" stroke="#63b8ff" points="1157.73,-270.53 1148.27,-275.31 1158.64,-277.47 1157.73,-270.53"/>
</g>
<!-- Node25&#45;&gt;Node9 -->
<g id="edge42" class="edge">
<title>Node25&#45;&gt;Node9</title>
<path fill="none" stroke="#63b8ff" d="M1055.27,-214.93C1017.28,-196.34 953.67,-165.23 953,-165 905.18,-148.4 848.85,-136.71 807.35,-129.49"/>
<polygon fill="#63b8ff" stroke="#63b8ff" points="1053.25,-218.33 1063.77,-219.58 1056.33,-212.04 1053.25,-218.33"/>
</g>
<!-- Node25&#45;&gt;Node18 -->
<g id="edge43" class="edge">
<title>Node25&#45;&gt;Node18</title>
<path fill="none" stroke="#63b8ff" d="M1037.35,-216.87C999.04,-207.11 945.11,-193.37 910.11,-184.45"/>
<polygon fill="#63b8ff" stroke="#63b8ff" points="1036.16,-220.43 1046.72,-219.51 1037.89,-213.65 1036.16,-220.43"/>
</g>
<!-- Node26 -->
<g id="node26" class="node">
<title>Node26</title>
<g id="a_node26"><a xlink:href="_list_of_local_render_information_8cpp.html" target="_top" xlink:title="Implementation of the ListOfLocalRenderInformation class.">
<polygon fill="white" stroke="#666666" points="1165.5,-184 1000.5,-184 1000.5,-165 1165.5,-165 1165.5,-184"/>
<text text-anchor="middle" x="1083" y="-172" font-family="Helvetica,sans-Serif" font-size="10.00">ListOfLocalRenderInformation.cpp</text>
</a>
</g>
</g>
<!-- Node25&#45;&gt;Node26 -->
<g id="edge40" class="edge">
<title>Node25&#45;&gt;Node26</title>
<path fill="none" stroke="#63b8ff" d="M1083,-208.93C1083,-200.53 1083,-191.13 1083,-184.44"/>
<polygon fill="#63b8ff" stroke="#63b8ff" points="1079.5,-208.75 1083,-218.75 1086.5,-208.75 1079.5,-208.75"/>
</g>
<!-- Node25&#45;&gt;Node27 -->
<g id="edge41" class="edge">
<title>Node25&#45;&gt;Node27</title>
<path fill="none" stroke="#63b8ff" d="M1122.33,-216.24C1153.49,-206.52 1196.31,-193.18 1224.3,-184.45"/>
<polygon fill="#63b8ff" stroke="#63b8ff" points="1121.34,-213.19 1112.84,-219.51 1123.43,-219.87 1121.34,-213.19"/>
</g>
<!-- Node25&#45;&gt;Node28 -->
<g id="edge44" class="edge">
<title>Node25&#45;&gt;Node28</title>
<path fill="none" stroke="#63b8ff" d="M1153.64,-217.89C1219.88,-207.95 1317.66,-193.27 1379.04,-184.05"/>
<polygon fill="#63b8ff" stroke="#63b8ff" points="1153.25,-214.56 1143.88,-219.51 1154.29,-221.49 1153.25,-214.56"/>
</g>
<!-- Node28&#45;&gt;Node9 -->
<g id="edge46" class="edge">
<title>Node28&#45;&gt;Node9</title>
<path fill="none" stroke="#63b8ff" d="M1368.46,-165.34C1367.3,-165.22 1366.14,-165.11 1365,-165 1162.95,-145.63 922.94,-130.61 811.15,-124.07"/>
<polygon fill="#63b8ff" stroke="#63b8ff" points="1367.75,-168.89 1378.06,-166.44 1368.48,-161.93 1367.75,-168.89"/>
</g>
<!-- Node28&#45;&gt;Node11 -->
<g id="edge47" class="edge">
<title>Node28&#45;&gt;Node11</title>
<path fill="none" stroke="#63b8ff" d="M1402.44,-160.75C1342.78,-138.25 1214.17,-90.54 1104,-55 1062.68,-41.67 1014.53,-28.06 983.22,-19.46"/>
<polygon fill="#63b8ff" stroke="#63b8ff" points="1400.83,-164.26 1411.42,-164.52 1403.3,-157.71 1400.83,-164.26"/>
</g>
<!-- Node28&#45;&gt;Node12 -->
<g id="edge48" class="edge">
<title>Node28&#45;&gt;Node12</title>
<path fill="none" stroke="#63b8ff" d="M1388.4,-161.93C1298.94,-140.29 1099.57,-92.46 931,-55 873.18,-42.15 806.26,-28.27 763.32,-19.49"/>
<polygon fill="#63b8ff" stroke="#63b8ff" points="1387.46,-165.55 1398,-164.5 1389.11,-158.75 1387.46,-165.55"/>
</g>
<!-- Node28&#45;&gt;Node17 -->
<g id="edge45" class="edge">
<title>Node28&#45;&gt;Node17</title>
<path fill="none" stroke="#63b8ff" d="M1368.16,-167.69C1356.12,-166.74 1343.69,-165.8 1332,-165 1040.68,-145.11 967.11,-151.7 676,-129 666.65,-128.27 656.72,-127.37 647.09,-126.44"/>
<polygon fill="#63b8ff" stroke="#63b8ff" points="1367.83,-171.26 1378.08,-168.57 1368.39,-164.28 1367.83,-171.26"/>
</g>
</g>
</svg>
