<?xml version="1.0" encoding="UTF-8" standalone="no"?>
<!DOCTYPE svg PUBLIC "-//W3C//DTD SVG 1.1//EN"
 "http://www.w3.org/Graphics/SVG/1.1/DTD/svg11.dtd">
<!-- Generated by graphviz version 8.0.1 (20230327.1645)
 -->
<!-- Title: SubListOfSpeciesFeatures.h Pages: 1 -->
<svg width="527pt" height="192pt"
 viewBox="0.00 0.00 527.00 192.00" xmlns="http://www.w3.org/2000/svg" xmlns:xlink="http://www.w3.org/1999/xlink">
<g id="graph0" class="graph" transform="scale(1 1) rotate(0) translate(4 188)">
<title>SubListOfSpeciesFeatures.h</title>
<!-- Node1 -->
<g id="node1" class="node">
<title>Node1</title>
<g id="a_node1"><a xlink:title=": Implementation of the SubListOfSpeciesFeatures class">
<polygon fill="#999999" stroke="#666666" points="306,-184 164,-184 164,-165 306,-165 306,-184"/>
<text text-anchor="middle" x="235" y="-172" font-family="Helvetica,sans-Serif" font-size="10.00">SubListOfSpeciesFeatures.h</text>
</a>
</g>
</g>
<!-- Node2 -->
<g id="node2" class="node">
<title>Node2</title>
<g id="a_node2"><a xlink:href="_multi_extension_types_8h.html" target="_top" xlink:title=": Implementation of the MultiExtensionTypes class">
<polygon fill="white" stroke="#666666" points="116,-74 0,-74 0,-55 116,-55 116,-74"/>
<text text-anchor="middle" x="58" y="-62" font-family="Helvetica,sans-Serif" font-size="10.00">MultiExtensionTypes.h</text>
</a>
</g>
</g>
<!-- Node1&#45;&gt;Node2 -->
<g id="edge1" class="edge">
<title>Node1&#45;&gt;Node2</title>
<path fill="none" stroke="#63b8ff" d="M182.13,-161.57C158.63,-154.6 131.48,-144.12 110,-129 88.56,-113.91 71.08,-87.71 62.94,-74.16"/>
<polygon fill="#63b8ff" stroke="#63b8ff" points="181.06,-165.19 191.64,-164.53 182.96,-158.45 181.06,-165.19"/>
</g>
<!-- Node4 -->
<g id="node4" class="node">
<title>Node4</title>
<g id="a_node4"><a xlink:href="_multi_species_plugin_8h.html" target="_top" xlink:title=": Implementation of the MultiSpeciesPlugin class">
<polygon fill="white" stroke="#666666" points="227,-129 119,-129 119,-110 227,-110 227,-129"/>
<text text-anchor="middle" x="173" y="-117" font-family="Helvetica,sans-Serif" font-size="10.00">MultiSpeciesPlugin.h</text>
</a>
</g>
</g>
<!-- Node1&#45;&gt;Node4 -->
<g id="edge3" class="edge">
<title>Node1&#45;&gt;Node4</title>
<path fill="none" stroke="#63b8ff" d="M216.13,-157.37C205.36,-148.16 192.28,-136.98 183.36,-129.36"/>
<polygon fill="#63b8ff" stroke="#63b8ff" points="213.61,-160.67 223.48,-164.51 218.16,-155.35 213.61,-160.67"/>
</g>
<!-- Node7 -->
<g id="node7" class="node">
<title>Node7</title>
<g id="a_node7"><a xlink:href="_species_feature_8cpp.html" target="_top" xlink:title=": Implementation of the SpeciesFeature class">
<polygon fill="white" stroke="#666666" points="349,-129 245,-129 245,-110 349,-110 349,-129"/>
<text text-anchor="middle" x="297" y="-117" font-family="Helvetica,sans-Serif" font-size="10.00">SpeciesFeature.cpp</text>
</a>
</g>
</g>
<!-- Node1&#45;&gt;Node7 -->
<g id="edge7" class="edge">
<title>Node1&#45;&gt;Node7</title>
<path fill="none" stroke="#63b8ff" d="M253.87,-157.37C264.64,-148.16 277.72,-136.98 286.64,-129.36"/>
<polygon fill="#63b8ff" stroke="#63b8ff" points="251.84,-155.35 246.52,-164.51 256.39,-160.67 251.84,-155.35"/>
</g>
<!-- Node8 -->
<g id="node8" class="node">
<title>Node8</title>
<g id="a_node8"><a xlink:href="_sub_list_of_species_features_8cpp.html" target="_top" xlink:title=": Implementation of the SubListOfSpeciesFeatures class">
<polygon fill="white" stroke="#666666" points="519,-129 367,-129 367,-110 519,-110 519,-129"/>
<text text-anchor="middle" x="443" y="-117" font-family="Helvetica,sans-Serif" font-size="10.00">SubListOfSpeciesFeatures.cpp</text>
</a>
</g>
</g>
<!-- Node1&#45;&gt;Node8 -->
<g id="edge8" class="edge">
<title>Node1&#45;&gt;Node8</title>
<path fill="none" stroke="#63b8ff" d="M280.65,-161.87C318.96,-152.11 372.89,-138.37 407.89,-129.45"/>
<polygon fill="#63b8ff" stroke="#63b8ff" points="280.11,-158.65 271.28,-164.51 281.84,-165.43 280.11,-158.65"/>
</g>
<!-- Node3 -->
<g id="node3" class="node">
<title>Node3</title>
<g id="a_node3"><a xlink:href="_multi_validator_8cpp.html" target="_top" xlink:title=": Implementation of the MultiValidator class">
<polygon fill="white" stroke="#666666" points="104.5,-19 11.5,-19 11.5,0 104.5,0 104.5,-19"/>
<text text-anchor="middle" x="58" y="-7" font-family="Helvetica,sans-Serif" font-size="10.00">MultiValidator.cpp</text>
</a>
</g>
</g>
<!-- Node2&#45;&gt;Node3 -->
<g id="edge2" class="edge">
<title>Node2&#45;&gt;Node3</title>
<path fill="none" stroke="#63b8ff" d="M58,-43.93C58,-35.53 58,-26.13 58,-19.44"/>
<polygon fill="#63b8ff" stroke="#63b8ff" points="54.5,-43.75 58,-53.75 61.5,-43.75 54.5,-43.75"/>
</g>
<!-- Node4&#45;&gt;Node2 -->
<g id="edge5" class="edge">
<title>Node4&#45;&gt;Node2</title>
<path fill="none" stroke="#63b8ff" d="M143.56,-104.93C122.7,-95.32 95.32,-82.7 77.22,-74.36"/>
<polygon fill="#63b8ff" stroke="#63b8ff" points="141.94,-108.5 152.49,-109.51 144.87,-102.14 141.94,-108.5"/>
</g>
<!-- Node5 -->
<g id="node5" class="node">
<title>Node5</title>
<g id="a_node5"><a xlink:href="_multi_extension_8cpp.html" target="_top" xlink:title=": Implementation of the MultiExtension class">
<polygon fill="white" stroke="#666666" points="234,-74 134,-74 134,-55 234,-55 234,-74"/>
<text text-anchor="middle" x="184" y="-62" font-family="Helvetica,sans-Serif" font-size="10.00">MultiExtension.cpp</text>
</a>
</g>
</g>
<!-- Node4&#45;&gt;Node5 -->
<g id="edge4" class="edge">
<title>Node4&#45;&gt;Node5</title>
<path fill="none" stroke="#63b8ff" d="M177,-99.22C178.76,-90.74 180.74,-81.21 182.14,-74.44"/>
<polygon fill="#63b8ff" stroke="#63b8ff" points="173.42,-98.25 174.82,-108.75 180.28,-99.67 173.42,-98.25"/>
</g>
<!-- Node6 -->
<g id="node6" class="node">
<title>Node6</title>
<g id="a_node6"><a xlink:href="_multi_species_plugin_8cpp.html" target="_top" xlink:title=": Implementation of the MultiSpeciesPlugin class">
<polygon fill="white" stroke="#666666" points="371.5,-74 252.5,-74 252.5,-55 371.5,-55 371.5,-74"/>
<text text-anchor="middle" x="312" y="-62" font-family="Helvetica,sans-Serif" font-size="10.00">MultiSpeciesPlugin.cpp</text>
</a>
</g>
</g>
<!-- Node4&#45;&gt;Node6 -->
<g id="edge6" class="edge">
<title>Node4&#45;&gt;Node6</title>
<path fill="none" stroke="#63b8ff" d="M206.54,-105.71C231.97,-96.01 266.29,-82.93 288.77,-74.36"/>
<polygon fill="#63b8ff" stroke="#63b8ff" points="205.68,-102.68 197.58,-109.51 208.17,-109.22 205.68,-102.68"/>
</g>
</g>
</svg>
