<?xml version="1.0" encoding="UTF-8" standalone="no"?>
<!DOCTYPE svg PUBLIC "-//W3C//DTD SVG 1.1//EN"
 "http://www.w3.org/Graphics/SVG/1.1/DTD/svg11.dtd">
<!-- Generated by graphviz version 8.0.1 (20230327.1645)
 -->
<!-- Title: XMLTriple.h Pages: 1 -->
<svg width="460pt" height="335pt"
 viewBox="0.00 0.00 460.00 335.00" xmlns="http://www.w3.org/2000/svg" xmlns:xlink="http://www.w3.org/1999/xlink">
<g id="graph0" class="graph" transform="scale(1 1) rotate(0) translate(4 331)">
<title>XMLTriple.h</title>
<!-- Node1 -->
<g id="node1" class="node">
<title>Node1</title>
<g id="a_node1"><a xlink:title="Stores an XML namespace triple.">
<polygon fill="#999999" stroke="#666666" points="183,-327 115,-327 115,-308 183,-308 183,-327"/>
<text text-anchor="middle" x="149" y="-315" font-family="Helvetica,sans-Serif" font-size="10.00">XMLTriple.h</text>
</a>
</g>
</g>
<!-- Node2 -->
<g id="node2" class="node">
<title>Node2</title>
<g id="a_node2"><a xlink:href="_x_m_l_extern_8h.html" target="_top" xlink:title="Defines LIBLAX_EXTERN.">
<polygon fill="white" stroke="#666666" points="116,-211.5 0,-211.5 0,-192.5 116,-192.5 116,-211.5"/>
<text text-anchor="middle" x="58" y="-199.5" font-family="Helvetica,sans-Serif" font-size="10.00">sbml/xml/XMLExtern.h</text>
</a>
</g>
</g>
<!-- Node1&#45;&gt;Node2 -->
<g id="edge1" class="edge">
<title>Node1&#45;&gt;Node2</title>
<path fill="none" stroke="#63b8ff" d="M125.65,-307.51C109.71,-300.23 89.33,-288.46 77,-272 66.18,-257.56 61.53,-237.31 59.52,-222.48"/>
<polygon fill="#63b8ff" stroke="#63b8ff" points="62.94,-222.54 58.41,-212.96 55.98,-223.27 62.94,-222.54"/>
</g>
<!-- Node4 -->
<g id="node4" class="node">
<title>Node4</title>
<g id="a_node4"><a xlink:href="sbmlfwd_8h.html" target="_top" xlink:title="Forward declarations for all opaque C types.">
<polygon fill="white" stroke="#666666" points="212,-272 86,-272 86,-253 212,-253 212,-272"/>
<text text-anchor="middle" x="149" y="-260" font-family="Helvetica,sans-Serif" font-size="10.00">sbml/common/sbmlfwd.h</text>
</a>
</g>
</g>
<!-- Node1&#45;&gt;Node4 -->
<g id="edge3" class="edge">
<title>Node1&#45;&gt;Node4</title>
<path fill="none" stroke="#63b8ff" d="M149,-307.75C149,-301.11 149,-291.73 149,-283.31"/>
<polygon fill="#63b8ff" stroke="#63b8ff" points="152.5,-283.44 149,-273.44 145.5,-283.44 152.5,-283.44"/>
</g>
<!-- Node9 -->
<g id="node9" class="node">
<title>Node9</title>
<g id="a_node9"><a xlink:title=" ">
<polygon fill="#e0e0e0" stroke="#999999" points="271.5,-272 230.5,-272 230.5,-253 271.5,-253 271.5,-272"/>
<text text-anchor="middle" x="251" y="-260" font-family="Helvetica,sans-Serif" font-size="10.00">string</text>
</a>
</g>
</g>
<!-- Node1&#45;&gt;Node9 -->
<g id="edge11" class="edge">
<title>Node1&#45;&gt;Node9</title>
<path fill="none" stroke="#63b8ff" d="M166.3,-307.51C182.22,-299.24 206.08,-286.84 224.42,-277.31"/>
<polygon fill="#63b8ff" stroke="#63b8ff" points="225.69,-280.07 232.95,-272.36 222.47,-273.86 225.69,-280.07"/>
</g>
<!-- Node3 -->
<g id="node3" class="node">
<title>Node3</title>
<g id="a_node3"><a xlink:title=" ">
<polygon fill="#e0e0e0" stroke="#999999" points="219,-30 107,-30 107,0 219,0 219,-30"/>
<text text-anchor="start" x="115" y="-18" font-family="Helvetica,sans-Serif" font-size="10.00">sbml/common/libsbml</text>
<text text-anchor="middle" x="163" y="-7" font-family="Helvetica,sans-Serif" font-size="10.00">&#45;namespace.h</text>
</a>
</g>
</g>
<!-- Node2&#45;&gt;Node3 -->
<g id="edge2" class="edge">
<title>Node2&#45;&gt;Node3</title>
<path fill="none" stroke="#63b8ff" d="M62.28,-192.32C73.02,-170.65 102.3,-112.57 130,-66 135.27,-57.13 141.42,-47.63 146.96,-39.32"/>
<polygon fill="#63b8ff" stroke="#63b8ff" points="150.41,-41.46 153.11,-31.21 144.61,-37.54 150.41,-41.46"/>
</g>
<!-- Node4&#45;&gt;Node3 -->
<g id="edge4" class="edge">
<title>Node4&#45;&gt;Node3</title>
<path fill="none" stroke="#63b8ff" d="M149.5,-252.76C151.43,-218.85 158.48,-95.2 161.55,-41.35"/>
<polygon fill="#63b8ff" stroke="#63b8ff" points="165.1,-41.58 162.18,-31.39 158.12,-41.18 165.1,-41.58"/>
</g>
<!-- Node5 -->
<g id="node5" class="node">
<title>Node5</title>
<g id="a_node5"><a xlink:href="libsbml-config_8h.html" target="_top" xlink:title="Decides whether to #include Unix or Windows configuration variables.">
<polygon fill="white" stroke="#666666" points="303,-217 191,-217 191,-187 303,-187 303,-217"/>
<text text-anchor="start" x="199" y="-205" font-family="Helvetica,sans-Serif" font-size="10.00">sbml/common/libsbml</text>
<text text-anchor="middle" x="247" y="-194" font-family="Helvetica,sans-Serif" font-size="10.00">&#45;config.h</text>
</a>
</g>
</g>
<!-- Node4&#45;&gt;Node5 -->
<g id="edge5" class="edge">
<title>Node4&#45;&gt;Node5</title>
<path fill="none" stroke="#63b8ff" d="M163.88,-252.62C177.08,-244.74 196.82,-232.96 213.75,-222.85"/>
<polygon fill="#63b8ff" stroke="#63b8ff" points="215.02,-225.57 221.81,-217.44 211.43,-219.56 215.02,-225.57"/>
</g>
<!-- Node5&#45;&gt;Node3 -->
<g id="edge6" class="edge">
<title>Node5&#45;&gt;Node3</title>
<path fill="none" stroke="#63b8ff" d="M230.42,-186.74C220.58,-177.46 208.59,-164.6 201,-151 181.18,-115.5 171.05,-68.87 166.4,-40.73"/>
<polygon fill="#63b8ff" stroke="#63b8ff" points="169.76,-40.59 164.78,-31.24 162.85,-41.65 169.76,-40.59"/>
</g>
<!-- Node6 -->
<g id="node6" class="node">
<title>Node6</title>
<g id="a_node6"><a xlink:title=" ">
<polygon fill="#e0e0e0" stroke="#999999" points="322,-151 210,-151 210,-121 322,-121 322,-151"/>
<text text-anchor="start" x="218" y="-139" font-family="Helvetica,sans-Serif" font-size="10.00">sbml/common/libsbml</text>
<text text-anchor="middle" x="266" y="-128" font-family="Helvetica,sans-Serif" font-size="10.00">&#45;config&#45;common.h</text>
</a>
</g>
</g>
<!-- Node5&#45;&gt;Node6 -->
<g id="edge7" class="edge">
<title>Node5&#45;&gt;Node6</title>
<path fill="none" stroke="#63b8ff" d="M251.22,-186.8C253.41,-179.42 256.14,-170.2 258.67,-161.7"/>
<polygon fill="#63b8ff" stroke="#63b8ff" points="262.3,-162.75 261.8,-152.16 255.59,-160.75 262.3,-162.75"/>
</g>
<!-- Node7 -->
<g id="node7" class="node">
<title>Node7</title>
<g id="a_node7"><a xlink:href="libsbml-version_8h.html" target="_top" xlink:title="Define libSBML version numbers for access from client software.">
<polygon fill="white" stroke="#666666" points="452,-151 340,-151 340,-121 452,-121 452,-151"/>
<text text-anchor="start" x="348" y="-139" font-family="Helvetica,sans-Serif" font-size="10.00">sbml/common/libsbml</text>
<text text-anchor="middle" x="396" y="-128" font-family="Helvetica,sans-Serif" font-size="10.00">&#45;version.h</text>
</a>
</g>
</g>
<!-- Node5&#45;&gt;Node7 -->
<g id="edge8" class="edge">
<title>Node5&#45;&gt;Node7</title>
<path fill="none" stroke="#63b8ff" d="M280.44,-186.64C301.74,-177.49 329.55,-165.54 352.56,-155.66"/>
<polygon fill="#63b8ff" stroke="#63b8ff" points="353.61,-158.59 361.42,-151.43 350.85,-152.16 353.61,-158.59"/>
</g>
<!-- Node8 -->
<g id="node8" class="node">
<title>Node8</title>
<g id="a_node8"><a xlink:href="extern_8h.html" target="_top" xlink:title="Definitions of LIBSBML_EXTERN and related things.">
<polygon fill="white" stroke="#666666" points="390,-85 274,-85 274,-66 390,-66 390,-85"/>
<text text-anchor="middle" x="332" y="-73" font-family="Helvetica,sans-Serif" font-size="10.00">sbml/common/extern.h</text>
</a>
</g>
</g>
<!-- Node7&#45;&gt;Node8 -->
<g id="edge9" class="edge">
<title>Node7&#45;&gt;Node8</title>
<path fill="none" stroke="#63b8ff" d="M380.18,-120.54C370.88,-112.04 359.12,-101.29 349.54,-92.53"/>
<polygon fill="#63b8ff" stroke="#63b8ff" points="352.23,-90.34 342.49,-86.18 347.51,-95.51 352.23,-90.34"/>
</g>
<!-- Node8&#45;&gt;Node3 -->
<g id="edge10" class="edge">
<title>Node8&#45;&gt;Node3</title>
<path fill="none" stroke="#63b8ff" d="M306.33,-65.62C282.11,-57.23 245.08,-44.41 214.72,-33.9"/>
<polygon fill="#63b8ff" stroke="#63b8ff" points="216.31,-30.4 205.71,-30.44 214.02,-37.02 216.31,-30.4"/>
</g>
</g>
</svg>
