<?xml version="1.0" encoding="UTF-8" standalone="no"?>
<!DOCTYPE svg PUBLIC "-//W3C//DTD SVG 1.1//EN"
 "http://www.w3.org/Graphics/SVG/1.1/DTD/svg11.dtd">
<!-- Generated by graphviz version 8.0.1 (20230327.1645)
 -->
<!-- Title: XMLErrorLog.cpp Pages: 1 -->
<svg width="619pt" height="445pt"
 viewBox="0.00 0.00 618.61 445.00" xmlns="http://www.w3.org/2000/svg" xmlns:xlink="http://www.w3.org/1999/xlink">
<g id="graph0" class="graph" transform="scale(1 1) rotate(0) translate(4 441)">
<title>XMLErrorLog.cpp</title>
<!-- Node1 -->
<g id="node1" class="node">
<title>Node1</title>
<g id="a_node1"><a xlink:title="Stores errors (and messages) encountered while processing XML.">
<polygon fill="#999999" stroke="#666666" points="304,-437 212,-437 212,-418 304,-418 304,-437"/>
<text text-anchor="middle" x="258" y="-425" font-family="Helvetica,sans-Serif" font-size="10.00">XMLErrorLog.cpp</text>
</a>
</g>
</g>
<!-- Node2 -->
<g id="node2" class="node">
<title>Node2</title>
<g id="a_node2"><a xlink:title=" ">
<polygon fill="#e0e0e0" stroke="#999999" points="109,-382 53,-382 53,-363 109,-363 109,-382"/>
<text text-anchor="middle" x="81" y="-370" font-family="Helvetica,sans-Serif" font-size="10.00">algorithm</text>
</a>
</g>
</g>
<!-- Node1&#45;&gt;Node2 -->
<g id="edge1" class="edge">
<title>Node1&#45;&gt;Node2</title>
<path fill="none" stroke="#63b8ff" d="M227.97,-417.51C198.2,-408.59 152.44,-394.89 119.9,-385.15"/>
<polygon fill="#63b8ff" stroke="#63b8ff" points="121,-381.52 110.41,-382.01 118.99,-388.23 121,-381.52"/>
</g>
<!-- Node3 -->
<g id="node3" class="node">
<title>Node3</title>
<g id="a_node3"><a xlink:title=" ">
<polygon fill="#e0e0e0" stroke="#999999" points="186.5,-382 127.5,-382 127.5,-363 186.5,-363 186.5,-382"/>
<text text-anchor="middle" x="157" y="-370" font-family="Helvetica,sans-Serif" font-size="10.00">functional</text>
</a>
</g>
</g>
<!-- Node1&#45;&gt;Node3 -->
<g id="edge2" class="edge">
<title>Node1&#45;&gt;Node3</title>
<path fill="none" stroke="#63b8ff" d="M240.87,-417.51C225.17,-409.27 201.7,-396.96 183.58,-387.45"/>
<polygon fill="#63b8ff" stroke="#63b8ff" points="185.36,-383.91 174.88,-382.36 182.11,-390.1 185.36,-383.91"/>
</g>
<!-- Node4 -->
<g id="node4" class="node">
<title>Node4</title>
<g id="a_node4"><a xlink:title=" ">
<polygon fill="#e0e0e0" stroke="#999999" points="257,-382 205,-382 205,-363 257,-363 257,-382"/>
<text text-anchor="middle" x="231" y="-370" font-family="Helvetica,sans-Serif" font-size="10.00">sstream</text>
</a>
</g>
</g>
<!-- Node1&#45;&gt;Node4 -->
<g id="edge3" class="edge">
<title>Node1&#45;&gt;Node4</title>
<path fill="none" stroke="#63b8ff" d="M253.54,-417.75C250.01,-410.81 244.94,-400.86 240.51,-392.16"/>
<polygon fill="#63b8ff" stroke="#63b8ff" points="243.21,-390.76 235.56,-383.44 236.98,-393.94 243.21,-390.76"/>
</g>
<!-- Node5 -->
<g id="node5" class="node">
<title>Node5</title>
<g id="a_node5"><a xlink:href="_x_m_l_error_8h.html" target="_top" xlink:title="Represents errors (and messages) encountered during an XML parse.">
<polygon fill="white" stroke="#666666" points="260,-327 152,-327 152,-308 260,-308 260,-327"/>
<text text-anchor="middle" x="206" y="-315" font-family="Helvetica,sans-Serif" font-size="10.00">sbml/xml/XMLError.h</text>
</a>
</g>
</g>
<!-- Node1&#45;&gt;Node5 -->
<g id="edge4" class="edge">
<title>Node1&#45;&gt;Node5</title>
<path fill="none" stroke="#63b8ff" d="M262.07,-417.76C267.38,-405 274.99,-380.87 266,-363 259.58,-350.24 247.57,-340.22 235.98,-332.95"/>
<polygon fill="#63b8ff" stroke="#63b8ff" points="237.88,-329.43 227.47,-327.48 234.4,-335.5 237.88,-329.43"/>
</g>
<!-- Node19 -->
<g id="node19" class="node">
<title>Node19</title>
<g id="a_node19"><a xlink:href="_x_m_l_parser_8h.html" target="_top" xlink:title=" ">
<polygon fill="white" stroke="#666666" points="573,-382 457,-382 457,-363 573,-363 573,-382"/>
<text text-anchor="middle" x="515" y="-370" font-family="Helvetica,sans-Serif" font-size="10.00">sbml/xml/XMLParser.h</text>
</a>
</g>
</g>
<!-- Node1&#45;&gt;Node19 -->
<g id="edge24" class="edge">
<title>Node1&#45;&gt;Node19</title>
<path fill="none" stroke="#63b8ff" d="M301.6,-417.51C345.57,-408.44 413.56,-394.42 460.94,-384.65"/>
<polygon fill="#63b8ff" stroke="#63b8ff" points="461.53,-387.89 470.62,-382.45 460.12,-381.04 461.53,-387.89"/>
</g>
<!-- Node20 -->
<g id="node20" class="node">
<title>Node20</title>
<g id="a_node20"><a xlink:href="_x_m_l_error_log_8h.html" target="_top" xlink:title="Stores errors (and messages) encountered while processing XML.">
<polygon fill="white" stroke="#666666" points="438.5,-382 313.5,-382 313.5,-363 438.5,-363 438.5,-382"/>
<text text-anchor="middle" x="376" y="-370" font-family="Helvetica,sans-Serif" font-size="10.00">sbml/xml/XMLErrorLog.h</text>
</a>
</g>
</g>
<!-- Node1&#45;&gt;Node20 -->
<g id="edge25" class="edge">
<title>Node1&#45;&gt;Node20</title>
<path fill="none" stroke="#63b8ff" d="M278.02,-417.51C296.78,-409.08 325.06,-396.38 346.42,-386.79"/>
<polygon fill="#63b8ff" stroke="#63b8ff" points="347.59,-389.65 355.28,-382.36 344.72,-383.26 347.59,-389.65"/>
</g>
<!-- Node6 -->
<g id="node6" class="node">
<title>Node6</title>
<g id="a_node6"><a xlink:title=" ">
<polygon fill="#e0e0e0" stroke="#999999" points="46,-211.5 0,-211.5 0,-192.5 46,-192.5 46,-211.5"/>
<text text-anchor="middle" x="23" y="-199.5" font-family="Helvetica,sans-Serif" font-size="10.00">stdio.h</text>
</a>
</g>
</g>
<!-- Node5&#45;&gt;Node6 -->
<g id="edge5" class="edge">
<title>Node5&#45;&gt;Node6</title>
<path fill="none" stroke="#63b8ff" d="M151.82,-311.63C120.43,-306.31 81.91,-295.2 55,-272 40.02,-259.08 31.61,-237.65 27.22,-222.1"/>
<polygon fill="#63b8ff" stroke="#63b8ff" points="30.41,-221.44 24.59,-212.59 23.62,-223.14 30.41,-221.44"/>
</g>
<!-- Node7 -->
<g id="node7" class="node">
<title>Node7</title>
<g id="a_node7"><a xlink:href="_x_m_l_extern_8h.html" target="_top" xlink:title="Defines LIBLAX_EXTERN.">
<polygon fill="white" stroke="#666666" points="449,-272 333,-272 333,-253 449,-253 449,-272"/>
<text text-anchor="middle" x="391" y="-260" font-family="Helvetica,sans-Serif" font-size="10.00">sbml/xml/XMLExtern.h</text>
</a>
</g>
</g>
<!-- Node5&#45;&gt;Node7 -->
<g id="edge6" class="edge">
<title>Node5&#45;&gt;Node7</title>
<path fill="none" stroke="#63b8ff" d="M237.38,-307.51C268.17,-298.69 315.32,-285.18 349.25,-275.46"/>
<polygon fill="#63b8ff" stroke="#63b8ff" points="350.12,-278.57 358.77,-272.45 348.2,-271.84 350.12,-278.57"/>
</g>
<!-- Node9 -->
<g id="node9" class="node">
<title>Node9</title>
<g id="a_node9"><a xlink:href="sbmlfwd_8h.html" target="_top" xlink:title="Forward declarations for all opaque C types.">
<polygon fill="white" stroke="#666666" points="604,-272 478,-272 478,-253 604,-253 604,-272"/>
<text text-anchor="middle" x="541" y="-260" font-family="Helvetica,sans-Serif" font-size="10.00">sbml/common/sbmlfwd.h</text>
</a>
</g>
</g>
<!-- Node5&#45;&gt;Node9 -->
<g id="edge8" class="edge">
<title>Node5&#45;&gt;Node9</title>
<path fill="none" stroke="#63b8ff" d="M260.2,-307.93C318.4,-298.72 410.97,-284.07 473.77,-274.14"/>
<polygon fill="#63b8ff" stroke="#63b8ff" points="474.03,-277.48 483.36,-272.46 472.94,-270.57 474.03,-277.48"/>
</g>
<!-- Node14 -->
<g id="node14" class="node">
<title>Node14</title>
<g id="a_node14"><a xlink:href="util_8h.html" target="_top" xlink:title="Utility functions.">
<polygon fill="white" stroke="#666666" points="141.5,-272 64.5,-272 64.5,-253 141.5,-253 141.5,-272"/>
<text text-anchor="middle" x="103" y="-260" font-family="Helvetica,sans-Serif" font-size="10.00">sbml/util/util.h</text>
</a>
</g>
</g>
<!-- Node5&#45;&gt;Node14 -->
<g id="edge16" class="edge">
<title>Node5&#45;&gt;Node14</title>
<path fill="none" stroke="#63b8ff" d="M188.53,-307.51C172.45,-299.24 148.36,-286.84 129.84,-277.31"/>
<polygon fill="#63b8ff" stroke="#63b8ff" points="131.71,-273.82 121.21,-272.36 128.5,-280.05 131.71,-273.82"/>
</g>
<!-- Node16 -->
<g id="node16" class="node">
<title>Node16</title>
<g id="a_node16"><a xlink:title=" ">
<polygon fill="#e0e0e0" stroke="#999999" points="255.5,-272 210.5,-272 210.5,-253 255.5,-253 255.5,-272"/>
<text text-anchor="middle" x="233" y="-260" font-family="Helvetica,sans-Serif" font-size="10.00">iosfwd</text>
</a>
</g>
</g>
<!-- Node5&#45;&gt;Node16 -->
<g id="edge20" class="edge">
<title>Node5&#45;&gt;Node16</title>
<path fill="none" stroke="#63b8ff" d="M210.46,-307.75C213.99,-300.81 219.06,-290.86 223.49,-282.16"/>
<polygon fill="#63b8ff" stroke="#63b8ff" points="227.02,-283.94 228.44,-273.44 220.79,-280.76 227.02,-283.94"/>
</g>
<!-- Node17 -->
<g id="node17" class="node">
<title>Node17</title>
<g id="a_node17"><a xlink:title=" ">
<polygon fill="#e0e0e0" stroke="#999999" points="314.5,-272 273.5,-272 273.5,-253 314.5,-253 314.5,-272"/>
<text text-anchor="middle" x="294" y="-260" font-family="Helvetica,sans-Serif" font-size="10.00">string</text>
</a>
</g>
</g>
<!-- Node5&#45;&gt;Node17 -->
<g id="edge21" class="edge">
<title>Node5&#45;&gt;Node17</title>
<path fill="none" stroke="#63b8ff" d="M220.93,-307.51C234.41,-299.39 254.48,-287.3 270.18,-277.85"/>
<polygon fill="#63b8ff" stroke="#63b8ff" points="271.53,-280.52 278.29,-272.36 267.92,-274.52 271.53,-280.52"/>
</g>
<!-- Node18 -->
<g id="node18" class="node">
<title>Node18</title>
<g id="a_node18"><a xlink:href="operation_return_values_8h.html" target="_top" xlink:title="Enumeration of values returned by operations within libSBML.">
<polygon fill="white" stroke="#666666" points="257,-151 107,-151 107,-121 257,-121 257,-151"/>
<text text-anchor="start" x="115" y="-139" font-family="Helvetica,sans-Serif" font-size="10.00">sbml/common/operationReturn</text>
<text text-anchor="middle" x="182" y="-128" font-family="Helvetica,sans-Serif" font-size="10.00">Values.h</text>
</a>
</g>
</g>
<!-- Node5&#45;&gt;Node18 -->
<g id="edge22" class="edge">
<title>Node5&#45;&gt;Node18</title>
<path fill="none" stroke="#63b8ff" d="M204.84,-307.84C201.35,-281.72 190.82,-202.96 185.36,-162.15"/>
<polygon fill="#63b8ff" stroke="#63b8ff" points="188.73,-161.93 183.94,-152.48 181.79,-162.86 188.73,-161.93"/>
</g>
<!-- Node8 -->
<g id="node8" class="node">
<title>Node8</title>
<g id="a_node8"><a xlink:title=" ">
<polygon fill="#e0e0e0" stroke="#999999" points="425,-30 313,-30 313,0 425,0 425,-30"/>
<text text-anchor="start" x="321" y="-18" font-family="Helvetica,sans-Serif" font-size="10.00">sbml/common/libsbml</text>
<text text-anchor="middle" x="369" y="-7" font-family="Helvetica,sans-Serif" font-size="10.00">&#45;namespace.h</text>
</a>
</g>
</g>
<!-- Node7&#45;&gt;Node8 -->
<g id="edge7" class="edge">
<title>Node7&#45;&gt;Node8</title>
<path fill="none" stroke="#63b8ff" d="M380.28,-252.54C360.61,-235.3 319.35,-195.3 304,-151 289.63,-109.52 322.44,-64.07 346.48,-37.91"/>
<polygon fill="#63b8ff" stroke="#63b8ff" points="348.54,-40.77 352.91,-31.12 343.48,-35.94 348.54,-40.77"/>
</g>
<!-- Node9&#45;&gt;Node8 -->
<g id="edge9" class="edge">
<title>Node9&#45;&gt;Node8</title>
<path fill="none" stroke="#63b8ff" d="M550.47,-252.78C574.12,-229.95 631.73,-167.01 602,-121 565.65,-64.75 491.17,-38.33 436.15,-26.12"/>
<polygon fill="#63b8ff" stroke="#63b8ff" points="436.93,-22.5 426.43,-23.86 435.49,-29.35 436.93,-22.5"/>
</g>
<!-- Node10 -->
<g id="node10" class="node">
<title>Node10</title>
<g id="a_node10"><a xlink:href="libsbml-config_8h.html" target="_top" xlink:title="Decides whether to #include Unix or Windows configuration variables.">
<polygon fill="white" stroke="#666666" points="551,-217 439,-217 439,-187 551,-187 551,-217"/>
<text text-anchor="start" x="447" y="-205" font-family="Helvetica,sans-Serif" font-size="10.00">sbml/common/libsbml</text>
<text text-anchor="middle" x="495" y="-194" font-family="Helvetica,sans-Serif" font-size="10.00">&#45;config.h</text>
</a>
</g>
</g>
<!-- Node9&#45;&gt;Node10 -->
<g id="edge10" class="edge">
<title>Node9&#45;&gt;Node10</title>
<path fill="none" stroke="#63b8ff" d="M534.21,-252.87C528.55,-245.67 520.22,-235.07 512.69,-225.49"/>
<polygon fill="#63b8ff" stroke="#63b8ff" points="515.03,-223.81 506.1,-218.11 509.53,-228.14 515.03,-223.81"/>
</g>
<!-- Node10&#45;&gt;Node8 -->
<g id="edge11" class="edge">
<title>Node10&#45;&gt;Node8</title>
<path fill="none" stroke="#63b8ff" d="M485.32,-186.79C463.7,-155.04 411.3,-78.11 384.84,-39.26"/>
<polygon fill="#63b8ff" stroke="#63b8ff" points="387.23,-37.55 378.71,-31.26 381.45,-41.49 387.23,-37.55"/>
</g>
<!-- Node11 -->
<g id="node11" class="node">
<title>Node11</title>
<g id="a_node11"><a xlink:title=" ">
<polygon fill="#e0e0e0" stroke="#999999" points="593,-151 481,-151 481,-121 593,-121 593,-151"/>
<text text-anchor="start" x="489" y="-139" font-family="Helvetica,sans-Serif" font-size="10.00">sbml/common/libsbml</text>
<text text-anchor="middle" x="537" y="-128" font-family="Helvetica,sans-Serif" font-size="10.00">&#45;config&#45;common.h</text>
</a>
</g>
</g>
<!-- Node10&#45;&gt;Node11 -->
<g id="edge12" class="edge">
<title>Node10&#45;&gt;Node11</title>
<path fill="none" stroke="#63b8ff" d="M504.32,-186.8C509.43,-179.01 515.9,-169.16 521.73,-160.28"/>
<polygon fill="#63b8ff" stroke="#63b8ff" points="525.14,-162.44 527.7,-152.16 519.29,-158.6 525.14,-162.44"/>
</g>
<!-- Node12 -->
<g id="node12" class="node">
<title>Node12</title>
<g id="a_node12"><a xlink:href="libsbml-version_8h.html" target="_top" xlink:title="Define libSBML version numbers for access from client software.">
<polygon fill="white" stroke="#666666" points="425,-151 313,-151 313,-121 425,-121 425,-151"/>
<text text-anchor="start" x="321" y="-139" font-family="Helvetica,sans-Serif" font-size="10.00">sbml/common/libsbml</text>
<text text-anchor="middle" x="369" y="-128" font-family="Helvetica,sans-Serif" font-size="10.00">&#45;version.h</text>
</a>
</g>
</g>
<!-- Node10&#45;&gt;Node12 -->
<g id="edge13" class="edge">
<title>Node10&#45;&gt;Node12</title>
<path fill="none" stroke="#63b8ff" d="M466.72,-186.64C449.05,-177.66 426.08,-165.99 406.85,-156.23"/>
<polygon fill="#63b8ff" stroke="#63b8ff" points="408.68,-152.72 398.18,-151.31 405.51,-158.96 408.68,-152.72"/>
</g>
<!-- Node13 -->
<g id="node13" class="node">
<title>Node13</title>
<g id="a_node13"><a xlink:href="extern_8h.html" target="_top" xlink:title="Definitions of LIBSBML_EXTERN and related things.">
<polygon fill="white" stroke="#666666" points="249,-85 133,-85 133,-66 249,-66 249,-85"/>
<text text-anchor="middle" x="191" y="-73" font-family="Helvetica,sans-Serif" font-size="10.00">sbml/common/extern.h</text>
</a>
</g>
</g>
<!-- Node12&#45;&gt;Node13 -->
<g id="edge14" class="edge">
<title>Node12&#45;&gt;Node13</title>
<path fill="none" stroke="#63b8ff" d="M325,-120.54C295.33,-110.79 256.61,-98.06 228.42,-88.8"/>
<polygon fill="#63b8ff" stroke="#63b8ff" points="229.77,-85.23 219.18,-85.43 227.59,-91.88 229.77,-85.23"/>
</g>
<!-- Node13&#45;&gt;Node8 -->
<g id="edge15" class="edge">
<title>Node13&#45;&gt;Node8</title>
<path fill="none" stroke="#63b8ff" d="M218.03,-65.62C243.66,-57.19 282.89,-44.3 314.94,-33.77"/>
<polygon fill="#63b8ff" stroke="#63b8ff" points="315.66,-36.89 324.06,-30.44 313.47,-30.24 315.66,-36.89"/>
</g>
<!-- Node14&#45;&gt;Node6 -->
<g id="edge17" class="edge">
<title>Node14&#45;&gt;Node6</title>
<path fill="none" stroke="#63b8ff" d="M90.85,-252.62C78.4,-243.51 58.8,-229.18 43.86,-218.25"/>
<polygon fill="#63b8ff" stroke="#63b8ff" points="46.4,-215.05 36.26,-211.97 42.27,-220.7 46.4,-215.05"/>
</g>
<!-- Node14&#45;&gt;Node13 -->
<g id="edge19" class="edge">
<title>Node14&#45;&gt;Node13</title>
<path fill="none" stroke="#63b8ff" d="M99.38,-252.61C90.35,-228.82 69.47,-162.7 98,-121 108.21,-106.08 124.85,-96 141.25,-89.27"/>
<polygon fill="#63b8ff" stroke="#63b8ff" points="142.22,-92.27 150.37,-85.5 139.78,-85.71 142.22,-92.27"/>
</g>
<!-- Node15 -->
<g id="node15" class="node">
<title>Node15</title>
<g id="a_node15"><a xlink:title=" ">
<polygon fill="#e0e0e0" stroke="#999999" points="154,-211.5 102,-211.5 102,-192.5 154,-192.5 154,-211.5"/>
<text text-anchor="middle" x="128" y="-199.5" font-family="Helvetica,sans-Serif" font-size="10.00">stdarg.h</text>
</a>
</g>
</g>
<!-- Node14&#45;&gt;Node15 -->
<g id="edge18" class="edge">
<title>Node14&#45;&gt;Node15</title>
<path fill="none" stroke="#63b8ff" d="M106.69,-252.87C110.2,-244.66 115.59,-232.04 120.07,-221.55"/>
<polygon fill="#63b8ff" stroke="#63b8ff" points="123.58,-223.24 124.3,-212.67 117.15,-220.49 123.58,-223.24"/>
</g>
<!-- Node18&#45;&gt;Node13 -->
<g id="edge23" class="edge">
<title>Node18&#45;&gt;Node13</title>
<path fill="none" stroke="#63b8ff" d="M184.22,-120.54C185.37,-113.08 186.79,-103.89 188.03,-95.83"/>
<polygon fill="#63b8ff" stroke="#63b8ff" points="191.6,-96.59 189.67,-86.18 184.69,-95.53 191.6,-96.59"/>
</g>
<!-- Node20&#45;&gt;Node5 -->
<g id="edge27" class="edge">
<title>Node20&#45;&gt;Node5</title>
<path fill="none" stroke="#63b8ff" d="M347.16,-362.51C319.11,-353.76 276.3,-340.42 245.17,-330.71"/>
<polygon fill="#63b8ff" stroke="#63b8ff" points="246.28,-327.08 235.7,-327.45 244.2,-333.76 246.28,-327.08"/>
</g>
<!-- Node20&#45;&gt;Node7 -->
<g id="edge26" class="edge">
<title>Node20&#45;&gt;Node7</title>
<path fill="none" stroke="#63b8ff" d="M434.26,-362.51C455.09,-356.18 476.48,-345.39 489,-327 505.37,-302.96 472.61,-285.92 440.65,-275.59"/>
<polygon fill="#63b8ff" stroke="#63b8ff" points="441.95,-272.02 431.36,-272.47 439.92,-278.72 441.95,-272.02"/>
</g>
<!-- Node20&#45;&gt;Node9 -->
<g id="edge28" class="edge">
<title>Node20&#45;&gt;Node9</title>
<path fill="none" stroke="#63b8ff" d="M428.03,-362.56C453.43,-356.09 483.14,-345.18 505,-327 519.15,-315.24 528.83,-296.39 534.56,-282.28"/>
<polygon fill="#63b8ff" stroke="#63b8ff" points="538.1,-283.8 538.31,-273.21 531.54,-281.35 538.1,-283.8"/>
</g>
<!-- Node20&#45;&gt;Node17 -->
<g id="edge30" class="edge">
<title>Node20&#45;&gt;Node17</title>
<path fill="none" stroke="#63b8ff" d="M353.28,-362.52C337.85,-355.24 318.27,-343.47 307,-327 298.15,-314.06 295.08,-296.39 294.12,-282.98"/>
<polygon fill="#63b8ff" stroke="#63b8ff" points="297.59,-282.98 293.73,-273.11 290.59,-283.23 297.59,-282.98"/>
</g>
<!-- Node21 -->
<g id="node21" class="node">
<title>Node21</title>
<g id="a_node21"><a xlink:title=" ">
<polygon fill="#e0e0e0" stroke="#999999" points="370,-327 316,-327 316,-308 370,-308 370,-327"/>
<text text-anchor="middle" x="343" y="-315" font-family="Helvetica,sans-Serif" font-size="10.00">iostream</text>
</a>
</g>
</g>
<!-- Node20&#45;&gt;Node21 -->
<g id="edge29" class="edge">
<title>Node20&#45;&gt;Node21</title>
<path fill="none" stroke="#63b8ff" d="M370.55,-362.75C366.13,-355.66 359.76,-345.42 354.26,-336.59"/>
<polygon fill="#63b8ff" stroke="#63b8ff" points="356.82,-335.08 348.57,-328.44 350.88,-338.78 356.82,-335.08"/>
</g>
<!-- Node22 -->
<g id="node22" class="node">
<title>Node22</title>
<g id="a_node22"><a xlink:title=" ">
<polygon fill="#e0e0e0" stroke="#999999" points="432,-327 388,-327 388,-308 432,-308 432,-327"/>
<text text-anchor="middle" x="410" y="-315" font-family="Helvetica,sans-Serif" font-size="10.00">vector</text>
</a>
</g>
</g>
<!-- Node20&#45;&gt;Node22 -->
<g id="edge31" class="edge">
<title>Node20&#45;&gt;Node22</title>
<path fill="none" stroke="#63b8ff" d="M381.61,-362.75C386.16,-355.66 392.73,-345.42 398.4,-336.59"/>
<polygon fill="#63b8ff" stroke="#63b8ff" points="401.81,-338.75 404.26,-328.44 395.92,-334.97 401.81,-338.75"/>
</g>
<!-- Node23 -->
<g id="node23" class="node">
<title>Node23</title>
<g id="a_node23"><a xlink:title=" ">
<polygon fill="#e0e0e0" stroke="#999999" points="479.5,-327 450.5,-327 450.5,-308 479.5,-308 479.5,-327"/>
<text text-anchor="middle" x="465" y="-315" font-family="Helvetica,sans-Serif" font-size="10.00">list</text>
</a>
</g>
</g>
<!-- Node20&#45;&gt;Node23 -->
<g id="edge32" class="edge">
<title>Node20&#45;&gt;Node23</title>
<path fill="none" stroke="#63b8ff" d="M391.1,-362.51C404.73,-354.39 425.03,-342.3 440.91,-332.85"/>
<polygon fill="#63b8ff" stroke="#63b8ff" points="442.32,-335.48 449.13,-327.36 438.74,-329.47 442.32,-335.48"/>
</g>
</g>
</svg>
