<?xml version="1.0" encoding="UTF-8" standalone="no"?>
<!DOCTYPE svg PUBLIC "-//W3C//DTD SVG 1.1//EN"
 "http://www.w3.org/Graphics/SVG/1.1/DTD/svg11.dtd">
<!-- Generated by graphviz version 8.0.1 (20230327.1645)
 -->
<!-- Title: XMLError.h Pages: 1 -->
<svg width="666pt" height="335pt"
 viewBox="0.00 0.00 666.00 335.00" xmlns="http://www.w3.org/2000/svg" xmlns:xlink="http://www.w3.org/1999/xlink">
<g id="graph0" class="graph" transform="scale(1 1) rotate(0) translate(4 331)">
<title>XMLError.h</title>
<!-- Node1 -->
<g id="node1" class="node">
<title>Node1</title>
<g id="a_node1"><a xlink:title="Represents errors (and messages) encountered during an XML parse.">
<polygon fill="#999999" stroke="#666666" points="458.5,-327 393.5,-327 393.5,-308 458.5,-308 458.5,-327"/>
<text text-anchor="middle" x="426" y="-315" font-family="Helvetica,sans-Serif" font-size="10.00">XMLError.h</text>
</a>
</g>
</g>
<!-- Node2 -->
<g id="node2" class="node">
<title>Node2</title>
<g id="a_node2"><a xlink:title=" ">
<polygon fill="#e0e0e0" stroke="#999999" points="382,-211.5 336,-211.5 336,-192.5 382,-192.5 382,-211.5"/>
<text text-anchor="middle" x="359" y="-199.5" font-family="Helvetica,sans-Serif" font-size="10.00">stdio.h</text>
</a>
</g>
</g>
<!-- Node1&#45;&gt;Node2 -->
<g id="edge1" class="edge">
<title>Node1&#45;&gt;Node2</title>
<path fill="none" stroke="#63b8ff" d="M413.11,-307.74C402.21,-299.68 386.97,-286.76 378,-272 368.73,-256.74 363.88,-236.86 361.41,-222.36"/>
<polygon fill="#63b8ff" stroke="#63b8ff" points="364.75,-222.06 359.85,-212.67 357.83,-223.07 364.75,-222.06"/>
</g>
<!-- Node3 -->
<g id="node3" class="node">
<title>Node3</title>
<g id="a_node3"><a xlink:href="_x_m_l_extern_8h.html" target="_top" xlink:title="Defines LIBLAX_EXTERN.">
<polygon fill="white" stroke="#666666" points="116,-85 0,-85 0,-66 116,-66 116,-85"/>
<text text-anchor="middle" x="58" y="-73" font-family="Helvetica,sans-Serif" font-size="10.00">sbml/xml/XMLExtern.h</text>
</a>
</g>
</g>
<!-- Node1&#45;&gt;Node3 -->
<g id="edge2" class="edge">
<title>Node1&#45;&gt;Node3</title>
<path fill="none" stroke="#63b8ff" d="M393.18,-313.45C336.46,-307.66 223.01,-293.7 190,-272 122.42,-227.56 80.55,-135.33 64.94,-95.5"/>
<polygon fill="#63b8ff" stroke="#63b8ff" points="67.9,-94.44 61.09,-86.33 61.36,-96.92 67.9,-94.44"/>
</g>
<!-- Node5 -->
<g id="node5" class="node">
<title>Node5</title>
<g id="a_node5"><a xlink:href="sbmlfwd_8h.html" target="_top" xlink:title="Forward declarations for all opaque C types.">
<polygon fill="white" stroke="#666666" points="325,-272 199,-272 199,-253 325,-253 325,-272"/>
<text text-anchor="middle" x="262" y="-260" font-family="Helvetica,sans-Serif" font-size="10.00">sbml/common/sbmlfwd.h</text>
</a>
</g>
</g>
<!-- Node1&#45;&gt;Node5 -->
<g id="edge4" class="edge">
<title>Node1&#45;&gt;Node5</title>
<path fill="none" stroke="#63b8ff" d="M398.18,-307.51C371.12,-298.76 329.82,-285.42 299.79,-275.71"/>
<polygon fill="#63b8ff" stroke="#63b8ff" points="301.27,-272.19 290.68,-272.45 299.12,-278.85 301.27,-272.19"/>
</g>
<!-- Node10 -->
<g id="node10" class="node">
<title>Node10</title>
<g id="a_node10"><a xlink:href="util_8h.html" target="_top" xlink:title="Utility functions.">
<polygon fill="white" stroke="#666666" points="464.5,-272 387.5,-272 387.5,-253 464.5,-253 464.5,-272"/>
<text text-anchor="middle" x="426" y="-260" font-family="Helvetica,sans-Serif" font-size="10.00">sbml/util/util.h</text>
</a>
</g>
</g>
<!-- Node1&#45;&gt;Node10 -->
<g id="edge12" class="edge">
<title>Node1&#45;&gt;Node10</title>
<path fill="none" stroke="#63b8ff" d="M426,-307.75C426,-301.11 426,-291.73 426,-283.31"/>
<polygon fill="#63b8ff" stroke="#63b8ff" points="429.5,-283.44 426,-273.44 422.5,-283.44 429.5,-283.44"/>
</g>
<!-- Node12 -->
<g id="node12" class="node">
<title>Node12</title>
<g id="a_node12"><a xlink:title=" ">
<polygon fill="#e0e0e0" stroke="#999999" points="591.5,-272 546.5,-272 546.5,-253 591.5,-253 591.5,-272"/>
<text text-anchor="middle" x="569" y="-260" font-family="Helvetica,sans-Serif" font-size="10.00">iosfwd</text>
</a>
</g>
</g>
<!-- Node1&#45;&gt;Node12 -->
<g id="edge16" class="edge">
<title>Node1&#45;&gt;Node12</title>
<path fill="none" stroke="#63b8ff" d="M450.26,-307.51C473.79,-298.79 509.68,-285.49 535.84,-275.79"/>
<polygon fill="#63b8ff" stroke="#63b8ff" points="536.88,-278.77 545.04,-272.01 534.45,-272.2 536.88,-278.77"/>
</g>
<!-- Node13 -->
<g id="node13" class="node">
<title>Node13</title>
<g id="a_node13"><a xlink:title=" ">
<polygon fill="#e0e0e0" stroke="#999999" points="650.5,-272 609.5,-272 609.5,-253 650.5,-253 650.5,-272"/>
<text text-anchor="middle" x="630" y="-260" font-family="Helvetica,sans-Serif" font-size="10.00">string</text>
</a>
</g>
</g>
<!-- Node1&#45;&gt;Node13 -->
<g id="edge17" class="edge">
<title>Node1&#45;&gt;Node13</title>
<path fill="none" stroke="#63b8ff" d="M458.99,-308.49C492.11,-300.36 544.84,-287.2 598.69,-272.57"/>
<polygon fill="#63b8ff" stroke="#63b8ff" points="599.39,-275.73 608.12,-269.72 597.55,-268.98 599.39,-275.73"/>
</g>
<!-- Node14 -->
<g id="node14" class="node">
<title>Node14</title>
<g id="a_node14"><a xlink:href="operation_return_values_8h.html" target="_top" xlink:title="Enumeration of values returned by operations within libSBML.">
<polygon fill="white" stroke="#666666" points="658,-151 508,-151 508,-121 658,-121 658,-151"/>
<text text-anchor="start" x="516" y="-139" font-family="Helvetica,sans-Serif" font-size="10.00">sbml/common/operationReturn</text>
<text text-anchor="middle" x="583" y="-128" font-family="Helvetica,sans-Serif" font-size="10.00">Values.h</text>
</a>
</g>
</g>
<!-- Node1&#45;&gt;Node14 -->
<g id="edge18" class="edge">
<title>Node1&#45;&gt;Node14</title>
<path fill="none" stroke="#63b8ff" d="M436.08,-307.65C445.85,-298.91 460.92,-285.01 473,-272 507.93,-234.38 544.92,-187.27 565.86,-159.81"/>
<polygon fill="#63b8ff" stroke="#63b8ff" points="569.07,-162.38 572.33,-152.3 563.49,-158.14 569.07,-162.38"/>
</g>
<!-- Node4 -->
<g id="node4" class="node">
<title>Node4</title>
<g id="a_node4"><a xlink:title=" ">
<polygon fill="#e0e0e0" stroke="#999999" points="219,-30 107,-30 107,0 219,0 219,-30"/>
<text text-anchor="start" x="115" y="-18" font-family="Helvetica,sans-Serif" font-size="10.00">sbml/common/libsbml</text>
<text text-anchor="middle" x="163" y="-7" font-family="Helvetica,sans-Serif" font-size="10.00">&#45;namespace.h</text>
</a>
</g>
</g>
<!-- Node3&#45;&gt;Node4 -->
<g id="edge3" class="edge">
<title>Node3&#45;&gt;Node4</title>
<path fill="none" stroke="#63b8ff" d="M73.95,-65.62C88.15,-57.7 109.43,-45.85 127.63,-35.71"/>
<polygon fill="#63b8ff" stroke="#63b8ff" points="129.05,-38.36 136.08,-30.44 125.64,-32.25 129.05,-38.36"/>
</g>
<!-- Node5&#45;&gt;Node4 -->
<g id="edge5" class="edge">
<title>Node5&#45;&gt;Node4</title>
<path fill="none" stroke="#63b8ff" d="M241.65,-252.57C227.04,-245.13 208.05,-233.13 197,-217 159.96,-162.92 158.72,-81.88 160.86,-41.2"/>
<polygon fill="#63b8ff" stroke="#63b8ff" points="164.41,-41.6 161.57,-31.4 157.43,-41.15 164.41,-41.6"/>
</g>
<!-- Node6 -->
<g id="node6" class="node">
<title>Node6</title>
<g id="a_node6"><a xlink:href="libsbml-config_8h.html" target="_top" xlink:title="Decides whether to #include Unix or Windows configuration variables.">
<polygon fill="white" stroke="#666666" points="318,-217 206,-217 206,-187 318,-187 318,-217"/>
<text text-anchor="start" x="214" y="-205" font-family="Helvetica,sans-Serif" font-size="10.00">sbml/common/libsbml</text>
<text text-anchor="middle" x="262" y="-194" font-family="Helvetica,sans-Serif" font-size="10.00">&#45;config.h</text>
</a>
</g>
</g>
<!-- Node5&#45;&gt;Node6 -->
<g id="edge6" class="edge">
<title>Node5&#45;&gt;Node6</title>
<path fill="none" stroke="#63b8ff" d="M262,-252.87C262,-246.25 262,-236.78 262,-227.86"/>
<polygon fill="#63b8ff" stroke="#63b8ff" points="265.5,-228.11 262,-218.11 258.5,-228.11 265.5,-228.11"/>
</g>
<!-- Node6&#45;&gt;Node4 -->
<g id="edge7" class="edge">
<title>Node6&#45;&gt;Node4</title>
<path fill="none" stroke="#63b8ff" d="M238.09,-186.58C225.37,-177.78 210.44,-165.44 201,-151 178.62,-116.79 169.25,-69.4 165.45,-40.82"/>
<polygon fill="#63b8ff" stroke="#63b8ff" points="168.84,-40.68 164.18,-31.16 161.89,-41.51 168.84,-40.68"/>
</g>
<!-- Node7 -->
<g id="node7" class="node">
<title>Node7</title>
<g id="a_node7"><a xlink:title=" ">
<polygon fill="#e0e0e0" stroke="#999999" points="322,-151 210,-151 210,-121 322,-121 322,-151"/>
<text text-anchor="start" x="218" y="-139" font-family="Helvetica,sans-Serif" font-size="10.00">sbml/common/libsbml</text>
<text text-anchor="middle" x="266" y="-128" font-family="Helvetica,sans-Serif" font-size="10.00">&#45;config&#45;common.h</text>
</a>
</g>
</g>
<!-- Node6&#45;&gt;Node7 -->
<g id="edge8" class="edge">
<title>Node6&#45;&gt;Node7</title>
<path fill="none" stroke="#63b8ff" d="M262.89,-186.8C263.34,-179.5 263.91,-170.41 264.44,-161.99"/>
<polygon fill="#63b8ff" stroke="#63b8ff" points="267.98,-162.36 265.11,-152.16 261,-161.93 267.98,-162.36"/>
</g>
<!-- Node8 -->
<g id="node8" class="node">
<title>Node8</title>
<g id="a_node8"><a xlink:href="libsbml-version_8h.html" target="_top" xlink:title="Define libSBML version numbers for access from client software.">
<polygon fill="white" stroke="#666666" points="452,-151 340,-151 340,-121 452,-121 452,-151"/>
<text text-anchor="start" x="348" y="-139" font-family="Helvetica,sans-Serif" font-size="10.00">sbml/common/libsbml</text>
<text text-anchor="middle" x="396" y="-128" font-family="Helvetica,sans-Serif" font-size="10.00">&#45;version.h</text>
</a>
</g>
</g>
<!-- Node6&#45;&gt;Node8 -->
<g id="edge9" class="edge">
<title>Node6&#45;&gt;Node8</title>
<path fill="none" stroke="#63b8ff" d="M292.07,-186.64C311.04,-177.58 335.74,-165.78 356.31,-155.96"/>
<polygon fill="#63b8ff" stroke="#63b8ff" points="357.51,-158.78 365.03,-151.31 354.5,-152.47 357.51,-158.78"/>
</g>
<!-- Node9 -->
<g id="node9" class="node">
<title>Node9</title>
<g id="a_node9"><a xlink:href="extern_8h.html" target="_top" xlink:title="Definitions of LIBSBML_EXTERN and related things.">
<polygon fill="white" stroke="#666666" points="496,-85 380,-85 380,-66 496,-66 496,-85"/>
<text text-anchor="middle" x="438" y="-73" font-family="Helvetica,sans-Serif" font-size="10.00">sbml/common/extern.h</text>
</a>
</g>
</g>
<!-- Node8&#45;&gt;Node9 -->
<g id="edge10" class="edge">
<title>Node8&#45;&gt;Node9</title>
<path fill="none" stroke="#63b8ff" d="M406.38,-120.54C412.17,-112.48 419.42,-102.38 425.52,-93.89"/>
<polygon fill="#63b8ff" stroke="#63b8ff" points="428.78,-96.34 431.77,-86.18 423.1,-92.26 428.78,-96.34"/>
</g>
<!-- Node9&#45;&gt;Node4 -->
<g id="edge11" class="edge">
<title>Node9&#45;&gt;Node4</title>
<path fill="none" stroke="#63b8ff" d="M395.93,-65.55C351.83,-56.17 281.87,-41.29 230.12,-30.28"/>
<polygon fill="#63b8ff" stroke="#63b8ff" points="230.88,-26.65 220.37,-27.99 229.42,-33.5 230.88,-26.65"/>
</g>
<!-- Node10&#45;&gt;Node2 -->
<g id="edge13" class="edge">
<title>Node10&#45;&gt;Node2</title>
<path fill="none" stroke="#63b8ff" d="M415.82,-252.62C405.69,-243.77 389.9,-229.98 377.54,-219.19"/>
<polygon fill="#63b8ff" stroke="#63b8ff" points="380.11,-215.91 370.27,-211.97 375.5,-221.18 380.11,-215.91"/>
</g>
<!-- Node10&#45;&gt;Node9 -->
<g id="edge15" class="edge">
<title>Node10&#45;&gt;Node9</title>
<path fill="none" stroke="#63b8ff" d="M435.88,-252.75C444.39,-244.5 456.05,-231.3 461,-217 474.96,-176.68 471.08,-162.46 461,-121 458.74,-111.72 454.19,-102.21 449.72,-94.37"/>
<polygon fill="#63b8ff" stroke="#63b8ff" points="452.31,-92.9 444.1,-86.2 446.34,-96.56 452.31,-92.9"/>
</g>
<!-- Node11 -->
<g id="node11" class="node">
<title>Node11</title>
<g id="a_node11"><a xlink:title=" ">
<polygon fill="#e0e0e0" stroke="#999999" points="452,-211.5 400,-211.5 400,-192.5 452,-192.5 452,-211.5"/>
<text text-anchor="middle" x="426" y="-199.5" font-family="Helvetica,sans-Serif" font-size="10.00">stdarg.h</text>
</a>
</g>
</g>
<!-- Node10&#45;&gt;Node11 -->
<g id="edge14" class="edge">
<title>Node10&#45;&gt;Node11</title>
<path fill="none" stroke="#63b8ff" d="M426,-252.87C426,-244.92 426,-232.83 426,-222.55"/>
<polygon fill="#63b8ff" stroke="#63b8ff" points="429.5,-222.67 426,-212.67 422.5,-222.67 429.5,-222.67"/>
</g>
<!-- Node14&#45;&gt;Node9 -->
<g id="edge19" class="edge">
<title>Node14&#45;&gt;Node9</title>
<path fill="none" stroke="#63b8ff" d="M547.16,-120.54C523.56,-111.02 492.92,-98.66 470.11,-89.46"/>
<polygon fill="#63b8ff" stroke="#63b8ff" points="471.51,-85.84 460.93,-85.35 468.89,-92.33 471.51,-85.84"/>
</g>
</g>
</svg>
