<?xml version="1.0" encoding="UTF-8" standalone="no"?>
<!DOCTYPE svg PUBLIC "-//W3C//DTD SVG 1.1//EN"
 "http://www.w3.org/Graphics/SVG/1.1/DTD/svg11.dtd">
<!-- Generated by graphviz version 8.0.1 (20230327.1645)
 -->
<!-- Title: XMLOutputStream.h Pages: 1 -->
<svg width="500pt" height="335pt"
 viewBox="0.00 0.00 500.47 335.00" xmlns="http://www.w3.org/2000/svg" xmlns:xlink="http://www.w3.org/1999/xlink">
<g id="graph0" class="graph" transform="scale(1 1) rotate(0) translate(4 331)">
<title>XMLOutputStream.h</title>
<!-- Node1 -->
<g id="node1" class="node">
<title>Node1</title>
<g id="a_node1"><a xlink:title="XMLOutputStream.">
<polygon fill="#999999" stroke="#666666" points="358.34,-327 252.34,-327 252.34,-308 358.34,-308 358.34,-327"/>
<text text-anchor="middle" x="305.34" y="-315" font-family="Helvetica,sans-Serif" font-size="10.00">XMLOutputStream.h</text>
</a>
</g>
</g>
<!-- Node2 -->
<g id="node2" class="node">
<title>Node2</title>
<g id="a_node2"><a xlink:href="sbmlfwd_8h.html" target="_top" xlink:title="Forward declarations for all opaque C types.">
<polygon fill="white" stroke="#666666" points="128.34,-272 2.34,-272 2.34,-253 128.34,-253 128.34,-272"/>
<text text-anchor="middle" x="65.34" y="-260" font-family="Helvetica,sans-Serif" font-size="10.00">sbml/common/sbmlfwd.h</text>
</a>
</g>
</g>
<!-- Node1&#45;&gt;Node2 -->
<g id="edge1" class="edge">
<title>Node1&#45;&gt;Node2</title>
<path fill="none" stroke="#63b8ff" d="M264.63,-307.51C223.74,-298.48 160.6,-284.54 116.38,-274.77"/>
<polygon fill="#63b8ff" stroke="#63b8ff" points="117.37,-271.19 106.85,-272.45 115.86,-278.02 117.37,-271.19"/>
</g>
<!-- Node6 -->
<g id="node6" class="node">
<title>Node6</title>
<g id="a_node6"><a xlink:href="libsbml-version_8h.html" target="_top" xlink:title="Define libSBML version numbers for access from client software.">
<polygon fill="white" stroke="#666666" points="273.34,-151 161.34,-151 161.34,-121 273.34,-121 273.34,-151"/>
<text text-anchor="start" x="169.34" y="-139" font-family="Helvetica,sans-Serif" font-size="10.00">sbml/common/libsbml</text>
<text text-anchor="middle" x="217.34" y="-128" font-family="Helvetica,sans-Serif" font-size="10.00">&#45;version.h</text>
</a>
</g>
</g>
<!-- Node1&#45;&gt;Node6 -->
<g id="edge14" class="edge">
<title>Node1&#45;&gt;Node6</title>
<path fill="none" stroke="#63b8ff" d="M252.01,-312.59C224.33,-307.53 192.75,-296.36 175.34,-272 150.75,-237.58 178.3,-188.32 198.94,-159.8"/>
<polygon fill="#63b8ff" stroke="#63b8ff" points="202.11,-162.41 205.32,-152.31 196.52,-158.2 202.11,-162.41"/>
</g>
<!-- Node8 -->
<g id="node8" class="node">
<title>Node8</title>
<g id="a_node8"><a xlink:title=" ">
<polygon fill="#e0e0e0" stroke="#999999" points="238.34,-272 184.34,-272 184.34,-253 238.34,-253 238.34,-272"/>
<text text-anchor="middle" x="211.34" y="-260" font-family="Helvetica,sans-Serif" font-size="10.00">iostream</text>
</a>
</g>
</g>
<!-- Node1&#45;&gt;Node8 -->
<g id="edge9" class="edge">
<title>Node1&#45;&gt;Node8</title>
<path fill="none" stroke="#63b8ff" d="M289.4,-307.51C274.86,-299.31 253.15,-287.07 236.31,-277.58"/>
<polygon fill="#63b8ff" stroke="#63b8ff" points="238.48,-274.22 228.05,-272.36 235.05,-280.32 238.48,-274.22"/>
</g>
<!-- Node9 -->
<g id="node9" class="node">
<title>Node9</title>
<g id="a_node9"><a xlink:title=" ">
<polygon fill="#e0e0e0" stroke="#999999" points="296.34,-272 256.34,-272 256.34,-253 296.34,-253 296.34,-272"/>
<text text-anchor="middle" x="276.34" y="-260" font-family="Helvetica,sans-Serif" font-size="10.00">limits</text>
</a>
</g>
</g>
<!-- Node1&#45;&gt;Node9 -->
<g id="edge10" class="edge">
<title>Node1&#45;&gt;Node9</title>
<path fill="none" stroke="#63b8ff" d="M300.55,-307.75C296.72,-300.73 291.2,-290.64 286.4,-281.87"/>
<polygon fill="#63b8ff" stroke="#63b8ff" points="289.11,-280.53 281.24,-273.44 282.97,-283.89 289.11,-280.53"/>
</g>
<!-- Node10 -->
<g id="node10" class="node">
<title>Node10</title>
<g id="a_node10"><a xlink:title=" ">
<polygon fill="#e0e0e0" stroke="#999999" points="356.34,-272 314.34,-272 314.34,-253 356.34,-253 356.34,-272"/>
<text text-anchor="middle" x="335.34" y="-260" font-family="Helvetica,sans-Serif" font-size="10.00">locale</text>
</a>
</g>
</g>
<!-- Node1&#45;&gt;Node10 -->
<g id="edge11" class="edge">
<title>Node1&#45;&gt;Node10</title>
<path fill="none" stroke="#63b8ff" d="M310.3,-307.75C314.27,-300.73 319.98,-290.64 324.94,-281.87"/>
<polygon fill="#63b8ff" stroke="#63b8ff" points="328.4,-283.87 330.28,-273.44 322.31,-280.42 328.4,-283.87"/>
</g>
<!-- Node11 -->
<g id="node11" class="node">
<title>Node11</title>
<g id="a_node11"><a xlink:title=" ">
<polygon fill="#e0e0e0" stroke="#999999" points="415.84,-272 374.84,-272 374.84,-253 415.84,-253 415.84,-272"/>
<text text-anchor="middle" x="395.34" y="-260" font-family="Helvetica,sans-Serif" font-size="10.00">string</text>
</a>
</g>
</g>
<!-- Node1&#45;&gt;Node11 -->
<g id="edge12" class="edge">
<title>Node1&#45;&gt;Node11</title>
<path fill="none" stroke="#63b8ff" d="M320.61,-307.51C334.4,-299.39 354.93,-287.3 370.98,-277.85"/>
<polygon fill="#63b8ff" stroke="#63b8ff" points="372.46,-280.45 379.3,-272.36 368.91,-274.42 372.46,-280.45"/>
</g>
<!-- Node12 -->
<g id="node12" class="node">
<title>Node12</title>
<g id="a_node12"><a xlink:title=" ">
<polygon fill="#e0e0e0" stroke="#999999" points="478.34,-272 434.34,-272 434.34,-253 478.34,-253 478.34,-272"/>
<text text-anchor="middle" x="456.34" y="-260" font-family="Helvetica,sans-Serif" font-size="10.00">time.h</text>
</a>
</g>
</g>
<!-- Node1&#45;&gt;Node12 -->
<g id="edge13" class="edge">
<title>Node1&#45;&gt;Node12</title>
<path fill="none" stroke="#63b8ff" d="M330.96,-307.51C356.62,-298.5 396.21,-284.61 424.02,-274.84"/>
<polygon fill="#63b8ff" stroke="#63b8ff" points="424.78,-277.94 433.05,-271.32 422.46,-271.33 424.78,-277.94"/>
</g>
<!-- Node13 -->
<g id="node13" class="node">
<title>Node13</title>
<g id="a_node13"><a xlink:href="_x_m_l_extern_8h.html" target="_top" xlink:title="Defines LIBLAX_EXTERN.">
<polygon fill="white" stroke="#666666" points="462.34,-211.5 346.34,-211.5 346.34,-192.5 462.34,-192.5 462.34,-211.5"/>
<text text-anchor="middle" x="404.34" y="-199.5" font-family="Helvetica,sans-Serif" font-size="10.00">sbml/xml/XMLExtern.h</text>
</a>
</g>
</g>
<!-- Node1&#45;&gt;Node13 -->
<g id="edge15" class="edge">
<title>Node1&#45;&gt;Node13</title>
<path fill="none" stroke="#63b8ff" d="M358.42,-310.75C406.28,-304.35 471.53,-292.15 487.34,-272 505.38,-249.02 470.68,-228.45 440.78,-215.86"/>
<polygon fill="#63b8ff" stroke="#63b8ff" points="442.49,-212.38 431.9,-211.91 439.88,-218.88 442.49,-212.38"/>
</g>
<!-- Node3 -->
<g id="node3" class="node">
<title>Node3</title>
<g id="a_node3"><a xlink:title=" ">
<polygon fill="#e0e0e0" stroke="#999999" points="134.34,-30 22.34,-30 22.34,0 134.34,0 134.34,-30"/>
<text text-anchor="start" x="30.34" y="-18" font-family="Helvetica,sans-Serif" font-size="10.00">sbml/common/libsbml</text>
<text text-anchor="middle" x="78.34" y="-7" font-family="Helvetica,sans-Serif" font-size="10.00">&#45;namespace.h</text>
</a>
</g>
</g>
<!-- Node2&#45;&gt;Node3 -->
<g id="edge2" class="edge">
<title>Node2&#45;&gt;Node3</title>
<path fill="none" stroke="#63b8ff" d="M43.91,-252.54C29.56,-245.26 11.81,-233.5 3.34,-217 -2.74,-205.14 2.15,-200.28 3.34,-187 8.31,-131.92 4.78,-113.94 32.34,-66 38.16,-55.88 46.36,-46.11 54.23,-37.93"/>
<polygon fill="#63b8ff" stroke="#63b8ff" points="56.25,-40.86 60.88,-31.33 51.32,-35.89 56.25,-40.86"/>
</g>
<!-- Node4 -->
<g id="node4" class="node">
<title>Node4</title>
<g id="a_node4"><a xlink:href="libsbml-config_8h.html" target="_top" xlink:title="Decides whether to #include Unix or Windows configuration variables.">
<polygon fill="white" stroke="#666666" points="124.34,-217 12.34,-217 12.34,-187 124.34,-187 124.34,-217"/>
<text text-anchor="start" x="20.34" y="-205" font-family="Helvetica,sans-Serif" font-size="10.00">sbml/common/libsbml</text>
<text text-anchor="middle" x="68.34" y="-194" font-family="Helvetica,sans-Serif" font-size="10.00">&#45;config.h</text>
</a>
</g>
</g>
<!-- Node2&#45;&gt;Node4 -->
<g id="edge3" class="edge">
<title>Node2&#45;&gt;Node4</title>
<path fill="none" stroke="#63b8ff" d="M65.79,-252.87C66.13,-246.25 66.61,-236.78 67.07,-227.86"/>
<polygon fill="#63b8ff" stroke="#63b8ff" points="70.6,-228.28 67.62,-218.11 63.61,-227.92 70.6,-228.28"/>
</g>
<!-- Node4&#45;&gt;Node3 -->
<g id="edge4" class="edge">
<title>Node4&#45;&gt;Node3</title>
<path fill="none" stroke="#63b8ff" d="M49.46,-186.55C39.33,-177.57 27.83,-165.07 22.34,-151 17.5,-138.58 19.11,-133.94 22.34,-121 29.91,-90.72 48.05,-59.61 61.65,-39.2"/>
<polygon fill="#63b8ff" stroke="#63b8ff" points="64.94,-41.58 67.71,-31.35 59.17,-37.62 64.94,-41.58"/>
</g>
<!-- Node5 -->
<g id="node5" class="node">
<title>Node5</title>
<g id="a_node5"><a xlink:title=" ">
<polygon fill="#e0e0e0" stroke="#999999" points="143.34,-151 31.34,-151 31.34,-121 143.34,-121 143.34,-151"/>
<text text-anchor="start" x="39.34" y="-139" font-family="Helvetica,sans-Serif" font-size="10.00">sbml/common/libsbml</text>
<text text-anchor="middle" x="87.34" y="-128" font-family="Helvetica,sans-Serif" font-size="10.00">&#45;config&#45;common.h</text>
</a>
</g>
</g>
<!-- Node4&#45;&gt;Node5 -->
<g id="edge5" class="edge">
<title>Node4&#45;&gt;Node5</title>
<path fill="none" stroke="#63b8ff" d="M72.56,-186.8C74.75,-179.42 77.49,-170.2 80.01,-161.7"/>
<polygon fill="#63b8ff" stroke="#63b8ff" points="83.65,-162.75 83.14,-152.16 76.94,-160.75 83.65,-162.75"/>
</g>
<!-- Node4&#45;&gt;Node6 -->
<g id="edge6" class="edge">
<title>Node4&#45;&gt;Node6</title>
<path fill="none" stroke="#63b8ff" d="M101.78,-186.64C123.08,-177.49 150.9,-165.54 173.9,-155.66"/>
<polygon fill="#63b8ff" stroke="#63b8ff" points="174.95,-158.59 182.76,-151.43 172.19,-152.16 174.95,-158.59"/>
</g>
<!-- Node7 -->
<g id="node7" class="node">
<title>Node7</title>
<g id="a_node7"><a xlink:href="extern_8h.html" target="_top" xlink:title="Definitions of LIBSBML_EXTERN and related things.">
<polygon fill="white" stroke="#666666" points="211.34,-85 95.34,-85 95.34,-66 211.34,-66 211.34,-85"/>
<text text-anchor="middle" x="153.34" y="-73" font-family="Helvetica,sans-Serif" font-size="10.00">sbml/common/extern.h</text>
</a>
</g>
</g>
<!-- Node6&#45;&gt;Node7 -->
<g id="edge7" class="edge">
<title>Node6&#45;&gt;Node7</title>
<path fill="none" stroke="#63b8ff" d="M201.52,-120.54C192.23,-112.04 180.46,-101.29 170.88,-92.53"/>
<polygon fill="#63b8ff" stroke="#63b8ff" points="173.58,-90.34 163.83,-86.18 168.85,-95.51 173.58,-90.34"/>
</g>
<!-- Node7&#45;&gt;Node3 -->
<g id="edge8" class="edge">
<title>Node7&#45;&gt;Node3</title>
<path fill="none" stroke="#63b8ff" d="M141.95,-65.62C132.23,-58.03 117.86,-46.82 105.24,-36.98"/>
<polygon fill="#63b8ff" stroke="#63b8ff" points="107.89,-33.83 97.86,-30.44 103.59,-39.35 107.89,-33.83"/>
</g>
<!-- Node13&#45;&gt;Node3 -->
<g id="edge16" class="edge">
<title>Node13&#45;&gt;Node3</title>
<path fill="none" stroke="#63b8ff" d="M394.67,-192.26C368.41,-168.92 292.87,-104.29 220.34,-66 195.46,-52.86 166.39,-41.93 141.06,-33.67"/>
<polygon fill="#63b8ff" stroke="#63b8ff" points="142.41,-30.11 131.82,-30.41 140.28,-36.78 142.41,-30.11"/>
</g>
</g>
</svg>
