<?xml version="1.0" encoding="UTF-8" standalone="no"?>
<!DOCTYPE svg PUBLIC "-//W3C//DTD SVG 1.1//EN"
 "http://www.w3.org/Graphics/SVG/1.1/DTD/svg11.dtd">
<!-- Generated by graphviz version 8.0.1 (20230327.1645)
 -->
<!-- Title: XMLConstructorException.h Pages: 1 -->
<svg width="597pt" height="82pt"
 viewBox="0.00 0.00 596.50 82.00" xmlns="http://www.w3.org/2000/svg" xmlns:xlink="http://www.w3.org/1999/xlink">
<g id="graph0" class="graph" transform="scale(1 1) rotate(0) translate(4 78)">
<title>XMLConstructorException.h</title>
<!-- Node1 -->
<g id="node1" class="node">
<title>Node1</title>
<g id="a_node1"><a xlink:title="XMLConstructorException an exception thrown by XML classes.">
<polygon fill="#999999" stroke="#666666" points="392,-74 252,-74 252,-55 392,-55 392,-74"/>
<text text-anchor="middle" x="322" y="-62" font-family="Helvetica,sans-Serif" font-size="10.00">XMLConstructorException.h</text>
</a>
</g>
</g>
<!-- Node2 -->
<g id="node2" class="node">
<title>Node2</title>
<g id="a_node2"><a xlink:href="_x_m_l_attributes_8cpp.html" target="_top" xlink:title="XMLAttributes are a list of name/value pairs for XMLElements.">
<polygon fill="white" stroke="#666666" points="98,-19 0,-19 0,0 98,0 98,-19"/>
<text text-anchor="middle" x="49" y="-7" font-family="Helvetica,sans-Serif" font-size="10.00">XMLAttributes.cpp</text>
</a>
</g>
</g>
<!-- Node1&#45;&gt;Node2 -->
<g id="edge1" class="edge">
<title>Node1&#45;&gt;Node2</title>
<path fill="none" stroke="#63b8ff" d="M264.97,-52.43C214.54,-42.64 141.91,-28.54 95.08,-19.45"/>
<polygon fill="#63b8ff" stroke="#63b8ff" points="264.21,-56.04 274.69,-54.51 265.54,-49.17 264.21,-56.04"/>
</g>
<!-- Node3 -->
<g id="node3" class="node">
<title>Node3</title>
<g id="a_node3"><a xlink:href="_x_m_l_constructor_exception_8cpp.html" target="_top" xlink:title="XMLConstructorException an exception thrown by XML classes.">
<polygon fill="white" stroke="#666666" points="266,-19 116,-19 116,0 266,0 266,-19"/>
<text text-anchor="middle" x="191" y="-7" font-family="Helvetica,sans-Serif" font-size="10.00">XMLConstructorException.cpp</text>
</a>
</g>
</g>
<!-- Node1&#45;&gt;Node3 -->
<g id="edge2" class="edge">
<title>Node1&#45;&gt;Node3</title>
<path fill="none" stroke="#63b8ff" d="M289.75,-50.45C265.85,-40.78 233.89,-27.85 212.89,-19.36"/>
<polygon fill="#63b8ff" stroke="#63b8ff" points="288.19,-54 298.78,-54.51 290.82,-47.51 288.19,-54"/>
</g>
<!-- Node4 -->
<g id="node4" class="node">
<title>Node4</title>
<g id="a_node4"><a xlink:href="_x_m_l_error_8cpp.html" target="_top" xlink:title="Represents errors (and messages) encountered during an XML parse.">
<polygon fill="white" stroke="#666666" points="360,-19 284,-19 284,0 360,0 360,-19"/>
<text text-anchor="middle" x="322" y="-7" font-family="Helvetica,sans-Serif" font-size="10.00">XMLError.cpp</text>
</a>
</g>
</g>
<!-- Node1&#45;&gt;Node4 -->
<g id="edge3" class="edge">
<title>Node1&#45;&gt;Node4</title>
<path fill="none" stroke="#63b8ff" d="M322,-43.93C322,-35.53 322,-26.13 322,-19.44"/>
<polygon fill="#63b8ff" stroke="#63b8ff" points="318.5,-43.75 322,-53.75 325.5,-43.75 318.5,-43.75"/>
</g>
<!-- Node5 -->
<g id="node5" class="node">
<title>Node5</title>
<g id="a_node5"><a xlink:href="_x_m_l_namespaces_8cpp.html" target="_top" xlink:title="A list of XMLNamespace declarations (URI/prefix pairs)">
<polygon fill="white" stroke="#666666" points="491.5,-19 378.5,-19 378.5,0 491.5,0 491.5,-19"/>
<text text-anchor="middle" x="435" y="-7" font-family="Helvetica,sans-Serif" font-size="10.00">XMLNamespaces.cpp</text>
</a>
</g>
</g>
<!-- Node1&#45;&gt;Node5 -->
<g id="edge4" class="edge">
<title>Node1&#45;&gt;Node5</title>
<path fill="none" stroke="#63b8ff" d="M350.93,-49.93C371.42,-40.32 398.33,-27.7 416.11,-19.36"/>
<polygon fill="#63b8ff" stroke="#63b8ff" points="349.74,-47.09 342.17,-54.51 352.71,-53.43 349.74,-47.09"/>
</g>
<!-- Node6 -->
<g id="node6" class="node">
<title>Node6</title>
<g id="a_node6"><a xlink:href="_x_m_l_triple_8cpp.html" target="_top" xlink:title="Stores an XML namespace triple.">
<polygon fill="white" stroke="#666666" points="588.5,-19 509.5,-19 509.5,0 588.5,0 588.5,-19"/>
<text text-anchor="middle" x="549" y="-7" font-family="Helvetica,sans-Serif" font-size="10.00">XMLTriple.cpp</text>
</a>
</g>
</g>
<!-- Node1&#45;&gt;Node6 -->
<g id="edge5" class="edge">
<title>Node1&#45;&gt;Node6</title>
<path fill="none" stroke="#63b8ff" d="M371.01,-52.06C412.87,-42.28 472.24,-28.42 510.68,-19.45"/>
<polygon fill="#63b8ff" stroke="#63b8ff" points="370.45,-48.83 361.51,-54.51 372.04,-55.64 370.45,-48.83"/>
</g>
</g>
</svg>
