<?xml version="1.0" encoding="UTF-8" standalone="no"?>
<!DOCTYPE svg PUBLIC "-//W3C//DTD SVG 1.1//EN"
 "http://www.w3.org/Graphics/SVG/1.1/DTD/svg11.dtd">
<!-- Generated by graphviz version 8.0.1 (20230327.1645)
 -->
<!-- Title: GeometryDefinition Pages: 1 -->
<svg width="562pt" height="137pt"
 viewBox="0.00 0.00 562.00 137.00" xmlns="http://www.w3.org/2000/svg" xmlns:xlink="http://www.w3.org/1999/xlink">
<g id="graph0" class="graph" transform="scale(1 1) rotate(0) translate(4 133)">
<title>GeometryDefinition</title>
<!-- Node1 -->
<g id="node1" class="node">
<title>Node1</title>
<g id="a_node1"><a xlink:title=" ">
<polygon fill="#999999" stroke="#666666" points="299,-74 198,-74 198,-55 299,-55 299,-74"/>
<text text-anchor="middle" x="248.5" y="-62" font-family="Helvetica,sans-Serif" font-size="10.00">GeometryDefinition</text>
</a>
</g>
</g>
<!-- Node3 -->
<g id="node3" class="node">
<title>Node3</title>
<g id="a_node3"><a xlink:href="class_analytic_geometry.html" target="_top" xlink:title=" ">
<polygon fill="white" stroke="#666666" points="95,-19 0,-19 0,0 95,0 95,-19"/>
<text text-anchor="middle" x="47.5" y="-7" font-family="Helvetica,sans-Serif" font-size="10.00">AnalyticGeometry</text>
</a>
</g>
</g>
<!-- Node1&#45;&gt;Node3 -->
<g id="edge2" class="edge">
<title>Node1&#45;&gt;Node3</title>
<path fill="none" stroke="#63b8ff" d="M203.91,-51.74C166.92,-41.99 115.11,-28.33 81.43,-19.45"/>
<polygon fill="#63b8ff" stroke="#63b8ff" points="202.84,-55.34 213.4,-54.51 204.63,-48.58 202.84,-55.34"/>
</g>
<!-- Node4 -->
<g id="node4" class="node">
<title>Node4</title>
<g id="a_node4"><a xlink:href="class_c_s_geometry.html" target="_top" xlink:title=" ">
<polygon fill="white" stroke="#666666" points="187.5,-19 113.5,-19 113.5,0 187.5,0 187.5,-19"/>
<text text-anchor="middle" x="150.5" y="-7" font-family="Helvetica,sans-Serif" font-size="10.00">CSGeometry</text>
</a>
</g>
</g>
<!-- Node1&#45;&gt;Node4 -->
<g id="edge3" class="edge">
<title>Node1&#45;&gt;Node4</title>
<path fill="none" stroke="#63b8ff" d="M222.68,-49.53C205,-39.97 182.09,-27.59 166.88,-19.36"/>
<polygon fill="#63b8ff" stroke="#63b8ff" points="220.41,-52.83 230.88,-54.51 223.74,-46.67 220.41,-52.83"/>
</g>
<!-- Node5 -->
<g id="node5" class="node">
<title>Node5</title>
<g id="a_node5"><a xlink:href="class_mixed_geometry.html" target="_top" xlink:title=" ">
<polygon fill="white" stroke="#666666" points="291.5,-19 205.5,-19 205.5,0 291.5,0 291.5,-19"/>
<text text-anchor="middle" x="248.5" y="-7" font-family="Helvetica,sans-Serif" font-size="10.00">MixedGeometry</text>
</a>
</g>
</g>
<!-- Node1&#45;&gt;Node5 -->
<g id="edge4" class="edge">
<title>Node1&#45;&gt;Node5</title>
<path fill="none" stroke="#63b8ff" d="M248.5,-43.93C248.5,-35.53 248.5,-26.13 248.5,-19.44"/>
<polygon fill="#63b8ff" stroke="#63b8ff" points="245,-43.75 248.5,-53.75 252,-43.75 245,-43.75"/>
</g>
<!-- Node6 -->
<g id="node6" class="node">
<title>Node6</title>
<g id="a_node6"><a xlink:href="class_parametric_geometry.html" target="_top" xlink:title=" ">
<polygon fill="white" stroke="#666666" points="417,-19 310,-19 310,0 417,0 417,-19"/>
<text text-anchor="middle" x="363.5" y="-7" font-family="Helvetica,sans-Serif" font-size="10.00">ParametricGeometry</text>
</a>
</g>
</g>
<!-- Node1&#45;&gt;Node6 -->
<g id="edge5" class="edge">
<title>Node1&#45;&gt;Node6</title>
<path fill="none" stroke="#63b8ff" d="M277.94,-49.93C298.8,-40.32 326.18,-27.7 344.28,-19.36"/>
<polygon fill="#63b8ff" stroke="#63b8ff" points="276.63,-47.14 269.01,-54.51 279.56,-53.5 276.63,-47.14"/>
</g>
<!-- Node7 -->
<g id="node7" class="node">
<title>Node7</title>
<g id="a_node7"><a xlink:href="class_sampled_field_geometry.html" target="_top" xlink:title=" ">
<polygon fill="white" stroke="#666666" points="554,-19 435,-19 435,0 554,0 554,-19"/>
<text text-anchor="middle" x="494.5" y="-7" font-family="Helvetica,sans-Serif" font-size="10.00">SampledFieldGeometry</text>
</a>
</g>
</g>
<!-- Node1&#45;&gt;Node7 -->
<g id="edge6" class="edge">
<title>Node1&#45;&gt;Node7</title>
<path fill="none" stroke="#63b8ff" d="M300.75,-52.24C346.16,-42.46 411.05,-28.48 452.98,-19.45"/>
<polygon fill="#63b8ff" stroke="#63b8ff" points="300.27,-48.98 291.23,-54.51 301.74,-55.82 300.27,-48.98"/>
</g>
<!-- Node2 -->
<g id="node2" class="node">
<title>Node2</title>
<g id="a_node2"><a xlink:href="class_s_base.html" target="_top" xlink:title=" ">
<polygon fill="white" stroke="#666666" points="271.5,-129 225.5,-129 225.5,-110 271.5,-110 271.5,-129"/>
<text text-anchor="middle" x="248.5" y="-117" font-family="Helvetica,sans-Serif" font-size="10.00">SBase</text>
</a>
</g>
</g>
<!-- Node2&#45;&gt;Node1 -->
<g id="edge1" class="edge">
<title>Node2&#45;&gt;Node1</title>
<path fill="none" stroke="#63b8ff" d="M248.5,-98.93C248.5,-90.53 248.5,-81.13 248.5,-74.44"/>
<polygon fill="#63b8ff" stroke="#63b8ff" points="245,-98.75 248.5,-108.75 252,-98.75 245,-98.75"/>
</g>
</g>
</svg>
