<?xml version="1.0" encoding="UTF-8" standalone="no"?>
<!DOCTYPE svg PUBLIC "-//W3C//DTD SVG 1.1//EN"
 "http://www.w3.org/Graphics/SVG/1.1/DTD/svg11.dtd">
<!-- Generated by graphviz version 8.0.1 (20230327.1645)
 -->
<!-- Title: CSGTransformation Pages: 1 -->
<svg width="454pt" height="192pt"
 viewBox="0.00 0.00 453.50 192.00" xmlns="http://www.w3.org/2000/svg" xmlns:xlink="http://www.w3.org/1999/xlink">
<g id="graph0" class="graph" transform="scale(1 1) rotate(0) translate(4 188)">
<title>CSGTransformation</title>
<!-- Node1 -->
<g id="node1" class="node">
<title>Node1</title>
<g id="a_node1"><a xlink:title=" ">
<polygon fill="#999999" stroke="#666666" points="317.5,-74 213.5,-74 213.5,-55 317.5,-55 317.5,-74"/>
<text text-anchor="middle" x="265.5" y="-62" font-family="Helvetica,sans-Serif" font-size="10.00">CSGTransformation</text>
</a>
</g>
</g>
<!-- Node4 -->
<g id="node4" class="node">
<title>Node4</title>
<g id="a_node4"><a xlink:href="class_c_s_g_homogeneous_transformation.html" target="_top" xlink:title=" ">
<polygon fill="white" stroke="#666666" points="167,-19 0,-19 0,0 167,0 167,-19"/>
<text text-anchor="middle" x="83.5" y="-7" font-family="Helvetica,sans-Serif" font-size="10.00">CSGHomogeneousTransformation</text>
</a>
</g>
</g>
<!-- Node1&#45;&gt;Node4 -->
<g id="edge3" class="edge">
<title>Node1&#45;&gt;Node4</title>
<path fill="none" stroke="#63b8ff" d="M224.26,-51.49C190.83,-41.76 144.46,-28.25 114.22,-19.45"/>
<polygon fill="#63b8ff" stroke="#63b8ff" points="223.05,-55.07 233.63,-54.51 225,-48.35 223.05,-55.07"/>
</g>
<!-- Node5 -->
<g id="node5" class="node">
<title>Node5</title>
<g id="a_node5"><a xlink:href="class_c_s_g_rotation.html" target="_top" xlink:title=" ">
<polygon fill="white" stroke="#666666" points="260,-19 185,-19 185,0 260,0 260,-19"/>
<text text-anchor="middle" x="222.5" y="-7" font-family="Helvetica,sans-Serif" font-size="10.00">CSGRotation</text>
</a>
</g>
</g>
<!-- Node1&#45;&gt;Node5 -->
<g id="edge4" class="edge">
<title>Node1&#45;&gt;Node5</title>
<path fill="none" stroke="#63b8ff" d="M251.48,-46.22C244.23,-37.28 235.68,-26.74 229.75,-19.44"/>
<polygon fill="#63b8ff" stroke="#63b8ff" points="249.38,-48.19 258.4,-53.75 254.82,-43.78 249.38,-48.19"/>
</g>
<!-- Node6 -->
<g id="node6" class="node">
<title>Node6</title>
<g id="a_node6"><a xlink:href="class_c_s_g_scale.html" target="_top" xlink:title=" ">
<polygon fill="white" stroke="#666666" points="341,-19 278,-19 278,0 341,0 341,-19"/>
<text text-anchor="middle" x="309.5" y="-7" font-family="Helvetica,sans-Serif" font-size="10.00">CSGScale</text>
</a>
</g>
</g>
<!-- Node1&#45;&gt;Node6 -->
<g id="edge5" class="edge">
<title>Node1&#45;&gt;Node6</title>
<path fill="none" stroke="#63b8ff" d="M279.62,-46.5C287.08,-37.5 295.95,-26.82 302.08,-19.44"/>
<polygon fill="#63b8ff" stroke="#63b8ff" points="276.46,-43.82 272.77,-53.75 281.85,-48.29 276.46,-43.82"/>
</g>
<!-- Node7 -->
<g id="node7" class="node">
<title>Node7</title>
<g id="a_node7"><a xlink:href="class_c_s_g_translation.html" target="_top" xlink:title=" ">
<polygon fill="white" stroke="#666666" points="445.5,-19 359.5,-19 359.5,0 445.5,0 445.5,-19"/>
<text text-anchor="middle" x="402.5" y="-7" font-family="Helvetica,sans-Serif" font-size="10.00">CSGTranslation</text>
</a>
</g>
</g>
<!-- Node1&#45;&gt;Node7 -->
<g id="edge6" class="edge">
<title>Node1&#45;&gt;Node7</title>
<path fill="none" stroke="#63b8ff" d="M298.89,-50.58C323.93,-40.9 357.54,-27.89 379.6,-19.36"/>
<polygon fill="#63b8ff" stroke="#63b8ff" points="297.8,-47.64 289.74,-54.51 300.33,-54.17 297.8,-47.64"/>
</g>
<!-- Node2 -->
<g id="node2" class="node">
<title>Node2</title>
<g id="a_node2"><a xlink:href="class_c_s_g_node.html" target="_top" xlink:title=" ">
<polygon fill="white" stroke="#666666" points="296.5,-129 234.5,-129 234.5,-110 296.5,-110 296.5,-129"/>
<text text-anchor="middle" x="265.5" y="-117" font-family="Helvetica,sans-Serif" font-size="10.00">CSGNode</text>
</a>
</g>
</g>
<!-- Node2&#45;&gt;Node1 -->
<g id="edge1" class="edge">
<title>Node2&#45;&gt;Node1</title>
<path fill="none" stroke="#63b8ff" d="M265.5,-98.93C265.5,-90.53 265.5,-81.13 265.5,-74.44"/>
<polygon fill="#63b8ff" stroke="#63b8ff" points="262,-98.75 265.5,-108.75 269,-98.75 262,-98.75"/>
</g>
<!-- Node3 -->
<g id="node3" class="node">
<title>Node3</title>
<g id="a_node3"><a xlink:href="class_s_base.html" target="_top" xlink:title=" ">
<polygon fill="white" stroke="#666666" points="288.5,-184 242.5,-184 242.5,-165 288.5,-165 288.5,-184"/>
<text text-anchor="middle" x="265.5" y="-172" font-family="Helvetica,sans-Serif" font-size="10.00">SBase</text>
</a>
</g>
</g>
<!-- Node3&#45;&gt;Node2 -->
<g id="edge2" class="edge">
<title>Node3&#45;&gt;Node2</title>
<path fill="none" stroke="#63b8ff" d="M265.5,-153.93C265.5,-145.53 265.5,-136.13 265.5,-129.44"/>
<polygon fill="#63b8ff" stroke="#63b8ff" points="262,-153.75 265.5,-163.75 269,-153.75 262,-153.75"/>
</g>
</g>
</svg>
