<?xml version="1.0" encoding="UTF-8" standalone="no"?>
<!DOCTYPE svg PUBLIC "-//W3C//DTD SVG 1.1//EN"
 "http://www.w3.org/Graphics/SVG/1.1/DTD/svg11.dtd">
<!-- Generated by graphviz version 8.0.1 (20230327.1645)
 -->
<!-- Title: Style Pages: 1 -->
<svg width="156pt" height="137pt"
 viewBox="0.00 0.00 155.50 137.00" xmlns="http://www.w3.org/2000/svg" xmlns:xlink="http://www.w3.org/1999/xlink">
<g id="graph0" class="graph" transform="scale(1 1) rotate(0) translate(4 133)">
<title>Style</title>
<!-- Node1 -->
<g id="node1" class="node">
<title>Node1</title>
<g id="a_node1"><a xlink:title=" ">
<polygon fill="#999999" stroke="#666666" points="94,-74 55,-74 55,-55 94,-55 94,-74"/>
<text text-anchor="middle" x="74.5" y="-62" font-family="Helvetica,sans-Serif" font-size="10.00">Style</text>
</a>
</g>
</g>
<!-- Node3 -->
<g id="node3" class="node">
<title>Node3</title>
<g id="a_node3"><a xlink:href="class_global_style.html" target="_top" xlink:title=" ">
<polygon fill="white" stroke="#666666" points="67,-19 0,-19 0,0 67,0 67,-19"/>
<text text-anchor="middle" x="33.5" y="-7" font-family="Helvetica,sans-Serif" font-size="10.00">GlobalStyle</text>
</a>
</g>
</g>
<!-- Node1&#45;&gt;Node3 -->
<g id="edge2" class="edge">
<title>Node1&#45;&gt;Node3</title>
<path fill="none" stroke="#63b8ff" d="M61.13,-46.22C54.22,-37.28 46.07,-26.74 40.42,-19.44"/>
<polygon fill="#63b8ff" stroke="#63b8ff" points="58.84,-47.98 67.73,-53.75 64.38,-43.7 58.84,-47.98"/>
</g>
<!-- Node4 -->
<g id="node4" class="node">
<title>Node4</title>
<g id="a_node4"><a xlink:href="class_local_style.html" target="_top" xlink:title=" ">
<polygon fill="white" stroke="#666666" points="147.5,-19 85.5,-19 85.5,0 147.5,0 147.5,-19"/>
<text text-anchor="middle" x="116.5" y="-7" font-family="Helvetica,sans-Serif" font-size="10.00">LocalStyle</text>
</a>
</g>
</g>
<!-- Node1&#45;&gt;Node4 -->
<g id="edge3" class="edge">
<title>Node1&#45;&gt;Node4</title>
<path fill="none" stroke="#63b8ff" d="M88.2,-46.22C95.28,-37.28 103.63,-26.74 109.41,-19.44"/>
<polygon fill="#63b8ff" stroke="#63b8ff" points="84.9,-43.74 81.44,-53.75 90.39,-48.08 84.9,-43.74"/>
</g>
<!-- Node2 -->
<g id="node2" class="node">
<title>Node2</title>
<g id="a_node2"><a xlink:href="class_s_base.html" target="_top" xlink:title=" ">
<polygon fill="white" stroke="#666666" points="97.5,-129 51.5,-129 51.5,-110 97.5,-110 97.5,-129"/>
<text text-anchor="middle" x="74.5" y="-117" font-family="Helvetica,sans-Serif" font-size="10.00">SBase</text>
</a>
</g>
</g>
<!-- Node2&#45;&gt;Node1 -->
<g id="edge1" class="edge">
<title>Node2&#45;&gt;Node1</title>
<path fill="none" stroke="#63b8ff" d="M74.5,-98.93C74.5,-90.53 74.5,-81.13 74.5,-74.44"/>
<polygon fill="#63b8ff" stroke="#63b8ff" points="71,-98.75 74.5,-108.75 78,-98.75 71,-98.75"/>
</g>
</g>
</svg>
