<?xml version="1.0" encoding="UTF-8" standalone="no"?>
<!DOCTYPE svg PUBLIC "-//W3C//DTD SVG 1.1//EN"
 "http://www.w3.org/Graphics/SVG/1.1/DTD/svg11.dtd">
<!-- Generated by graphviz version 8.0.1 (20230327.1645)
 -->
<!-- Title: SBaseRef Pages: 1 -->
<svg width="260pt" height="247pt"
 viewBox="0.00 0.00 259.50 247.00" xmlns="http://www.w3.org/2000/svg" xmlns:xlink="http://www.w3.org/1999/xlink">
<g id="graph0" class="graph" transform="scale(1 1) rotate(0) translate(4 243)">
<title>SBaseRef</title>
<!-- Node1 -->
<g id="node1" class="node">
<title>Node1</title>
<g id="a_node1"><a xlink:title=" ">
<polygon fill="#999999" stroke="#666666" points="119.5,-129 57.5,-129 57.5,-110 119.5,-110 119.5,-129"/>
<text text-anchor="middle" x="88.5" y="-117" font-family="Helvetica,sans-Serif" font-size="10.00">SBaseRef</text>
</a>
</g>
</g>
<!-- Node4 -->
<g id="node4" class="node">
<title>Node4</title>
<g id="a_node4"><a xlink:href="class_deletion.html" target="_top" xlink:title=" ">
<polygon fill="white" stroke="#666666" points="53,-74 0,-74 0,-55 53,-55 53,-74"/>
<text text-anchor="middle" x="26.5" y="-62" font-family="Helvetica,sans-Serif" font-size="10.00">Deletion</text>
</a>
</g>
</g>
<!-- Node1&#45;&gt;Node4 -->
<g id="edge3" class="edge">
<title>Node1&#45;&gt;Node4</title>
<path fill="none" stroke="#63b8ff" d="M69.63,-102.37C58.86,-93.16 45.78,-81.98 36.86,-74.36"/>
<polygon fill="#63b8ff" stroke="#63b8ff" points="67.11,-105.67 76.98,-109.51 71.66,-100.35 67.11,-105.67"/>
</g>
<!-- Node5 -->
<g id="node5" class="node">
<title>Node5</title>
<g id="a_node5"><a xlink:href="class_port.html" target="_top" xlink:title=" ">
<polygon fill="white" stroke="#666666" points="106,-74 71,-74 71,-55 106,-55 106,-74"/>
<text text-anchor="middle" x="88.5" y="-62" font-family="Helvetica,sans-Serif" font-size="10.00">Port</text>
</a>
</g>
</g>
<!-- Node1&#45;&gt;Node5 -->
<g id="edge4" class="edge">
<title>Node1&#45;&gt;Node5</title>
<path fill="none" stroke="#63b8ff" d="M88.5,-98.93C88.5,-90.53 88.5,-81.13 88.5,-74.44"/>
<polygon fill="#63b8ff" stroke="#63b8ff" points="85,-98.75 88.5,-108.75 92,-98.75 85,-98.75"/>
</g>
<!-- Node6 -->
<g id="node6" class="node">
<title>Node6</title>
<g id="a_node6"><a xlink:href="class_replacing.html" target="_top" xlink:title=" ">
<polygon fill="white" stroke="#666666" points="184.5,-74 124.5,-74 124.5,-55 184.5,-55 184.5,-74"/>
<text text-anchor="middle" x="154.5" y="-62" font-family="Helvetica,sans-Serif" font-size="10.00">Replacing</text>
</a>
</g>
</g>
<!-- Node1&#45;&gt;Node6 -->
<g id="edge5" class="edge">
<title>Node1&#45;&gt;Node6</title>
<path fill="none" stroke="#63b8ff" d="M108.25,-102.64C119.77,-93.39 133.89,-82.05 143.47,-74.36"/>
<polygon fill="#63b8ff" stroke="#63b8ff" points="106.3,-100.52 100.7,-109.51 110.68,-105.98 106.3,-100.52"/>
</g>
<!-- Node2 -->
<g id="node2" class="node">
<title>Node2</title>
<g id="a_node2"><a xlink:href="class_comp_base.html" target="_top" xlink:title=" ">
<polygon fill="white" stroke="#666666" points="121,-184 56,-184 56,-165 121,-165 121,-184"/>
<text text-anchor="middle" x="88.5" y="-172" font-family="Helvetica,sans-Serif" font-size="10.00">CompBase</text>
</a>
</g>
</g>
<!-- Node2&#45;&gt;Node1 -->
<g id="edge1" class="edge">
<title>Node2&#45;&gt;Node1</title>
<path fill="none" stroke="#63b8ff" d="M88.5,-153.93C88.5,-145.53 88.5,-136.13 88.5,-129.44"/>
<polygon fill="#63b8ff" stroke="#63b8ff" points="85,-153.75 88.5,-163.75 92,-153.75 85,-153.75"/>
</g>
<!-- Node3 -->
<g id="node3" class="node">
<title>Node3</title>
<g id="a_node3"><a xlink:href="class_s_base.html" target="_top" xlink:title=" ">
<polygon fill="white" stroke="#666666" points="111.5,-239 65.5,-239 65.5,-220 111.5,-220 111.5,-239"/>
<text text-anchor="middle" x="88.5" y="-227" font-family="Helvetica,sans-Serif" font-size="10.00">SBase</text>
</a>
</g>
</g>
<!-- Node3&#45;&gt;Node2 -->
<g id="edge2" class="edge">
<title>Node3&#45;&gt;Node2</title>
<path fill="none" stroke="#63b8ff" d="M88.5,-208.93C88.5,-200.53 88.5,-191.13 88.5,-184.44"/>
<polygon fill="#63b8ff" stroke="#63b8ff" points="85,-208.75 88.5,-218.75 92,-208.75 85,-208.75"/>
</g>
<!-- Node7 -->
<g id="node7" class="node">
<title>Node7</title>
<g id="a_node7"><a xlink:href="class_replaced_by.html" target="_top" xlink:title=" ">
<polygon fill="white" stroke="#666666" points="139.5,-19 69.5,-19 69.5,0 139.5,0 139.5,-19"/>
<text text-anchor="middle" x="104.5" y="-7" font-family="Helvetica,sans-Serif" font-size="10.00">ReplacedBy</text>
</a>
</g>
</g>
<!-- Node6&#45;&gt;Node7 -->
<g id="edge6" class="edge">
<title>Node6&#45;&gt;Node7</title>
<path fill="none" stroke="#63b8ff" d="M138.72,-46.78C130.18,-37.72 119.97,-26.9 112.94,-19.44"/>
<polygon fill="#63b8ff" stroke="#63b8ff" points="135.84,-48.88 145.24,-53.75 140.93,-44.07 135.84,-48.88"/>
</g>
<!-- Node8 -->
<g id="node8" class="node">
<title>Node8</title>
<g id="a_node8"><a xlink:href="class_replaced_element.html" target="_top" xlink:title=" ">
<polygon fill="white" stroke="#666666" points="251.5,-19 157.5,-19 157.5,0 251.5,0 251.5,-19"/>
<text text-anchor="middle" x="204.5" y="-7" font-family="Helvetica,sans-Serif" font-size="10.00">ReplacedElement</text>
</a>
</g>
</g>
<!-- Node6&#45;&gt;Node8 -->
<g id="edge7" class="edge">
<title>Node6&#45;&gt;Node8</title>
<path fill="none" stroke="#63b8ff" d="M170.28,-46.78C178.82,-37.72 189.03,-26.9 196.06,-19.44"/>
<polygon fill="#63b8ff" stroke="#63b8ff" points="168.07,-44.07 163.76,-53.75 173.16,-48.88 168.07,-44.07"/>
</g>
</g>
</svg>
