<?xml version="1.0" encoding="UTF-8" standalone="no"?>
<!DOCTYPE svg PUBLIC "-//W3C//DTD SVG 1.1//EN"
 "http://www.w3.org/Graphics/SVG/1.1/DTD/svg11.dtd">
<!-- Generated by graphviz version 8.0.1 (20230327.1645)
 -->
<!-- Title: ReplacedBy Pages: 1 -->
<svg width="78pt" height="247pt"
 viewBox="0.00 0.00 78.00 247.00" xmlns="http://www.w3.org/2000/svg" xmlns:xlink="http://www.w3.org/1999/xlink">
<g id="graph0" class="graph" transform="scale(1 1) rotate(0) translate(4 243)">
<title>ReplacedBy</title>
<!-- Node1 -->
<g id="node1" class="node">
<title>Node1</title>
<g id="a_node1"><a xlink:title=" ">
<polygon fill="#999999" stroke="#666666" points="70,-19 0,-19 0,0 70,0 70,-19"/>
<text text-anchor="middle" x="35" y="-7" font-family="Helvetica,sans-Serif" font-size="10.00">ReplacedBy</text>
</a>
</g>
</g>
<!-- Node2 -->
<g id="node2" class="node">
<title>Node2</title>
<g id="a_node2"><a xlink:href="class_replacing.html" target="_top" xlink:title=" ">
<polygon fill="white" stroke="#666666" points="65,-74 5,-74 5,-55 65,-55 65,-74"/>
<text text-anchor="middle" x="35" y="-62" font-family="Helvetica,sans-Serif" font-size="10.00">Replacing</text>
</a>
</g>
</g>
<!-- Node2&#45;&gt;Node1 -->
<g id="edge1" class="edge">
<title>Node2&#45;&gt;Node1</title>
<path fill="none" stroke="#63b8ff" d="M35,-43.93C35,-35.53 35,-26.13 35,-19.44"/>
<polygon fill="#63b8ff" stroke="#63b8ff" points="31.5,-43.75 35,-53.75 38.5,-43.75 31.5,-43.75"/>
</g>
<!-- Node3 -->
<g id="node3" class="node">
<title>Node3</title>
<g id="a_node3"><a xlink:href="class_s_base_ref.html" target="_top" xlink:title=" ">
<polygon fill="white" stroke="#666666" points="66,-129 4,-129 4,-110 66,-110 66,-129"/>
<text text-anchor="middle" x="35" y="-117" font-family="Helvetica,sans-Serif" font-size="10.00">SBaseRef</text>
</a>
</g>
</g>
<!-- Node3&#45;&gt;Node2 -->
<g id="edge2" class="edge">
<title>Node3&#45;&gt;Node2</title>
<path fill="none" stroke="#63b8ff" d="M35,-98.93C35,-90.53 35,-81.13 35,-74.44"/>
<polygon fill="#63b8ff" stroke="#63b8ff" points="31.5,-98.75 35,-108.75 38.5,-98.75 31.5,-98.75"/>
</g>
<!-- Node4 -->
<g id="node4" class="node">
<title>Node4</title>
<g id="a_node4"><a xlink:href="class_comp_base.html" target="_top" xlink:title=" ">
<polygon fill="white" stroke="#666666" points="67.5,-184 2.5,-184 2.5,-165 67.5,-165 67.5,-184"/>
<text text-anchor="middle" x="35" y="-172" font-family="Helvetica,sans-Serif" font-size="10.00">CompBase</text>
</a>
</g>
</g>
<!-- Node4&#45;&gt;Node3 -->
<g id="edge3" class="edge">
<title>Node4&#45;&gt;Node3</title>
<path fill="none" stroke="#63b8ff" d="M35,-153.93C35,-145.53 35,-136.13 35,-129.44"/>
<polygon fill="#63b8ff" stroke="#63b8ff" points="31.5,-153.75 35,-163.75 38.5,-153.75 31.5,-153.75"/>
</g>
<!-- Node5 -->
<g id="node5" class="node">
<title>Node5</title>
<g id="a_node5"><a xlink:href="class_s_base.html" target="_top" xlink:title=" ">
<polygon fill="white" stroke="#666666" points="58,-239 12,-239 12,-220 58,-220 58,-239"/>
<text text-anchor="middle" x="35" y="-227" font-family="Helvetica,sans-Serif" font-size="10.00">SBase</text>
</a>
</g>
</g>
<!-- Node5&#45;&gt;Node4 -->
<g id="edge4" class="edge">
<title>Node5&#45;&gt;Node4</title>
<path fill="none" stroke="#63b8ff" d="M35,-208.93C35,-200.53 35,-191.13 35,-184.44"/>
<polygon fill="#63b8ff" stroke="#63b8ff" points="31.5,-208.75 35,-218.75 38.5,-208.75 31.5,-208.75"/>
</g>
</g>
</svg>
