<?xml version="1.0" encoding="UTF-8" standalone="no"?>
<!DOCTYPE svg PUBLIC "-//W3C//DTD SVG 1.1//EN"
 "http://www.w3.org/Graphics/SVG/1.1/DTD/svg11.dtd">
<!-- Generated by graphviz version 8.0.1 (20230327.1645)
 -->
<!-- Title: extension Pages: 1 -->
<svg width="331pt" height="133pt"
 viewBox="0.00 0.00 330.50 133.00" xmlns="http://www.w3.org/2000/svg" xmlns:xlink="http://www.w3.org/1999/xlink">
<g id="graph0" class="graph" transform="scale(1 1) rotate(0) translate(4 129)">
<title>extension</title>
<g id="clust1" class="cluster">
<title>clusterdir_29063129b3eccaffa9adb8cada31bc79</title>
<g id="a_clust1"><a xlink:href="dir_29063129b3eccaffa9adb8cada31bc79.html" target="_top" xlink:title="groups">
<polygon fill="#edf0f7" stroke="#7f7f7f" stroke-dasharray="5,2" points="8,-8 8,-117 134,-117 134,-8 8,-8"/>
<text text-anchor="middle" x="71" y="-105" font-family="Helvetica,sans-Serif" font-size="10.00">groups</text>
</a>
</g>
</g>
<!-- dir_1a2a11cbb6a63f53ae2e16947db16deb -->
<g id="node1" class="node">
<title>dir_1a2a11cbb6a63f53ae2e16947db16deb</title>
<g id="a_node1"><a xlink:href="dir_1a2a11cbb6a63f53ae2e16947db16deb.html" target="_top" xlink:title="sbml">
<polygon fill="#a2b4d6" stroke="#404040" points="54,-35 16,-35 16,-16 54,-16 54,-35"/>
<text text-anchor="middle" x="35" y="-23" font-family="Helvetica,sans-Serif" font-size="10.00">sbml</text>
</a>
</g>
</g>
<!-- dir_57fdbdaf356605263ec8ba5b7b6a3875 -->
<g id="node2" class="node">
<title>dir_57fdbdaf356605263ec8ba5b7b6a3875</title>
<g id="a_node2"><a xlink:href="dir_57fdbdaf356605263ec8ba5b7b6a3875.html" target="_top" xlink:title="validator">
<polygon fill="#a2b4d6" stroke="#404040" points="125.5,-35 72.5,-35 72.5,-16 125.5,-16 125.5,-35"/>
<text text-anchor="middle" x="99" y="-23" font-family="Helvetica,sans-Serif" font-size="10.00">validator</text>
</a>
</g>
</g>
<!-- dir_0e5086b15e36e287b22643c32e731771 -->
<g id="node3" class="node">
<title>dir_0e5086b15e36e287b22643c32e731771</title>
<g id="a_node3"><a xlink:href="dir_0e5086b15e36e287b22643c32e731771.html" target="_top" xlink:title="extension">
<polygon fill="#edf0f7" stroke="#404040" stroke-width="2" points="125.5,-90 66.5,-90 66.5,-71 125.5,-71 125.5,-90"/>
<text text-anchor="middle" x="96" y="-78" font-family="Helvetica,sans-Serif" font-size="10.00">extension</text>
</a>
</g>
</g>
<!-- dir_0e5086b15e36e287b22643c32e731771&#45;&gt;dir_1a2a11cbb6a63f53ae2e16947db16deb -->
<g id="edge1" class="edge">
<title>dir_0e5086b15e36e287b22643c32e731771&#45;&gt;dir_1a2a11cbb6a63f53ae2e16947db16deb</title>
<path fill="none" stroke="#63b8ff" d="M85.65,-70.51C76.84,-62.85 63.95,-51.66 53.39,-42.47"/>
<polygon fill="#63b8ff" stroke="#63b8ff" points="56.04,-39.27 46.19,-35.36 51.45,-44.56 56.04,-39.27"/>
<g id="a_edge1&#45;headlabel"><a xlink:href="dir_000018_000036.html" target="_top" xlink:title="2">
<text text-anchor="middle" x="59.61" y="-36.99" font-family="Helvetica,sans-Serif" font-size="10.00" fill="#63b8ff">2</text>
</a>
</g>
</g>
<!-- dir_0e5086b15e36e287b22643c32e731771&#45;&gt;dir_57fdbdaf356605263ec8ba5b7b6a3875 -->
<g id="edge3" class="edge">
<title>dir_0e5086b15e36e287b22643c32e731771&#45;&gt;dir_57fdbdaf356605263ec8ba5b7b6a3875</title>
<path fill="none" stroke="#63b8ff" d="M96.5,-70.75C96.87,-64.11 97.4,-54.73 97.88,-46.31"/>
<polygon fill="#63b8ff" stroke="#63b8ff" points="101.42,-46.62 98.49,-36.44 94.43,-46.23 101.42,-46.62"/>
<g id="a_edge3&#45;headlabel"><a xlink:href="dir_000018_000052.html" target="_top" xlink:title="5">
<text text-anchor="middle" x="104.05" y="-46.87" font-family="Helvetica,sans-Serif" font-size="10.00" fill="#63b8ff">5</text>
</a>
</g>
</g>
<!-- dir_3f96c34ad80e9031c68706862fabf1a4 -->
<g id="node4" class="node">
<title>dir_3f96c34ad80e9031c68706862fabf1a4</title>
<g id="a_node4"><a xlink:href="dir_3f96c34ad80e9031c68706862fabf1a4.html" target="_top" xlink:title="extension">
<polygon fill="#edf0f7" stroke="#7f7f7f" points="202.5,-35 143.5,-35 143.5,-16 202.5,-16 202.5,-35"/>
<text text-anchor="middle" x="173" y="-23" font-family="Helvetica,sans-Serif" font-size="10.00">extension</text>
</a>
</g>
</g>
<!-- dir_0e5086b15e36e287b22643c32e731771&#45;&gt;dir_3f96c34ad80e9031c68706862fabf1a4 -->
<g id="edge2" class="edge">
<title>dir_0e5086b15e36e287b22643c32e731771&#45;&gt;dir_3f96c34ad80e9031c68706862fabf1a4</title>
<path fill="none" stroke="#63b8ff" d="M109.06,-70.51C120.64,-62.54 137.76,-50.75 151.38,-41.38"/>
<polygon fill="#63b8ff" stroke="#63b8ff" points="152.88,-43.91 159.13,-35.36 148.91,-38.14 152.88,-43.91"/>
<g id="a_edge2&#45;headlabel"><a xlink:href="dir_000018_000014.html" target="_top" xlink:title="9">
<text text-anchor="middle" x="152.53" y="-45.79" font-family="Helvetica,sans-Serif" font-size="10.00" fill="#63b8ff">9</text>
</a>
</g>
</g>
<!-- dir_fd1e11fb0964f7346e999e146b0dfd59 -->
<g id="node5" class="node">
<title>dir_fd1e11fb0964f7346e999e146b0dfd59</title>
<g id="a_node5"><a xlink:href="dir_fd1e11fb0964f7346e999e146b0dfd59.html" target="_top" xlink:title="common">
<polygon fill="#edf0f7" stroke="#7f7f7f" points="275,-35 221,-35 221,-16 275,-16 275,-35"/>
<text text-anchor="middle" x="248" y="-23" font-family="Helvetica,sans-Serif" font-size="10.00">common</text>
</a>
</g>
</g>
<!-- dir_0e5086b15e36e287b22643c32e731771&#45;&gt;dir_fd1e11fb0964f7346e999e146b0dfd59 -->
<g id="edge5" class="edge">
<title>dir_0e5086b15e36e287b22643c32e731771&#45;&gt;dir_fd1e11fb0964f7346e999e146b0dfd59</title>
<path fill="none" stroke="#63b8ff" d="M121.78,-70.51C146.64,-61.84 184.48,-48.65 212.24,-38.97"/>
<polygon fill="#63b8ff" stroke="#63b8ff" points="213.05,-42.04 221.34,-35.45 210.75,-35.43 213.05,-42.04"/>
<g id="a_edge5&#45;headlabel"><a xlink:href="dir_000018_000001.html" target="_top" xlink:title="3">
<text text-anchor="middle" x="211.59" y="-43.41" font-family="Helvetica,sans-Serif" font-size="10.00" fill="#63b8ff">3</text>
</a>
</g>
</g>
<!-- dir_c541d4b187fc5f863b4735b323978e0f -->
<g id="node6" class="node">
<title>dir_c541d4b187fc5f863b4735b323978e0f</title>
<g id="a_node6"><a xlink:href="dir_c541d4b187fc5f863b4735b323978e0f.html" target="_top" xlink:title="util">
<polygon fill="#edf0f7" stroke="#7f7f7f" points="322.5,-35 293.5,-35 293.5,-16 322.5,-16 322.5,-35"/>
<text text-anchor="middle" x="308" y="-23" font-family="Helvetica,sans-Serif" font-size="10.00">util</text>
</a>
</g>
</g>
<!-- dir_0e5086b15e36e287b22643c32e731771&#45;&gt;dir_c541d4b187fc5f863b4735b323978e0f -->
<g id="edge4" class="edge">
<title>dir_0e5086b15e36e287b22643c32e731771&#45;&gt;dir_c541d4b187fc5f863b4735b323978e0f</title>
<path fill="none" stroke="#63b8ff" d="M125.89,-73.47C161.23,-66.11 221.98,-52.76 282.93,-35.05"/>
<polygon fill="#63b8ff" stroke="#63b8ff" points="283.5,-38.24 292.1,-32.06 281.52,-31.52 283.5,-38.24"/>
<g id="a_edge4&#45;headlabel"><a xlink:href="dir_000018_000048.html" target="_top" xlink:title="1">
<text text-anchor="middle" x="281.85" y="-39.48" font-family="Helvetica,sans-Serif" font-size="10.00" fill="#63b8ff">1</text>
</a>
</g>
</g>
</g>
</svg>
