<?xml version="1.0" encoding="UTF-8" standalone="no"?>
<!DOCTYPE svg PUBLIC "-//W3C//DTD SVG 1.1//EN"
 "http://www.w3.org/Graphics/SVG/1.1/DTD/svg11.dtd">
<!-- Generated by graphviz version 8.0.1 (20230327.1645)
 -->
<!-- Title: common Pages: 1 -->
<svg width="212pt" height="133pt"
 viewBox="0.00 0.00 212.00 133.00" xmlns="http://www.w3.org/2000/svg" xmlns:xlink="http://www.w3.org/1999/xlink">
<g id="graph0" class="graph" transform="scale(1 1) rotate(0) translate(4 129)">
<title>common</title>
<g id="clust1" class="cluster">
<title>clusterdir_483546704081fb5397ff7c9e88ae9794</title>
<g id="a_clust1"><a xlink:href="dir_483546704081fb5397ff7c9e88ae9794.html" target="_top" xlink:title="spatial">
<polygon fill="#edf0f7" stroke="#7f7f7f" stroke-dasharray="5,2" points="8,-8 8,-117 140,-117 140,-8 8,-8"/>
<text text-anchor="middle" x="74" y="-105" font-family="Helvetica,sans-Serif" font-size="10.00">spatial</text>
</a>
</g>
</g>
<!-- dir_2abae89ee613873825cbb39ee1243e8b -->
<g id="node1" class="node">
<title>dir_2abae89ee613873825cbb39ee1243e8b</title>
<g id="a_node1"><a xlink:href="dir_2abae89ee613873825cbb39ee1243e8b.html" target="_top" xlink:title="extension">
<polygon fill="#a2b4d6" stroke="#404040" points="75.5,-35 16.5,-35 16.5,-16 75.5,-16 75.5,-35"/>
<text text-anchor="middle" x="46" y="-23" font-family="Helvetica,sans-Serif" font-size="10.00">extension</text>
</a>
</g>
</g>
<!-- dir_3bfc5c2bb8435cbdcb242e4cabcc5b38 -->
<g id="node2" class="node">
<title>dir_3bfc5c2bb8435cbdcb242e4cabcc5b38</title>
<g id="a_node2"><a xlink:href="dir_3bfc5c2bb8435cbdcb242e4cabcc5b38.html" target="_top" xlink:title="sbml">
<polygon fill="#a2b4d6" stroke="#404040" points="132,-35 94,-35 94,-16 132,-16 132,-35"/>
<text text-anchor="middle" x="113" y="-23" font-family="Helvetica,sans-Serif" font-size="10.00">sbml</text>
</a>
</g>
</g>
<!-- dir_6440e6c2986786ef6ea73aa73692af12 -->
<g id="node3" class="node">
<title>dir_6440e6c2986786ef6ea73aa73692af12</title>
<g id="a_node3"><a xlink:href="dir_6440e6c2986786ef6ea73aa73692af12.html" target="_top" xlink:title="common">
<polygon fill="#edf0f7" stroke="#404040" stroke-width="2" points="132,-90 78,-90 78,-71 132,-71 132,-90"/>
<text text-anchor="middle" x="105" y="-78" font-family="Helvetica,sans-Serif" font-size="10.00">common</text>
</a>
</g>
</g>
<!-- dir_6440e6c2986786ef6ea73aa73692af12&#45;&gt;dir_2abae89ee613873825cbb39ee1243e8b -->
<g id="edge1" class="edge">
<title>dir_6440e6c2986786ef6ea73aa73692af12&#45;&gt;dir_2abae89ee613873825cbb39ee1243e8b</title>
<path fill="none" stroke="#63b8ff" d="M94.99,-70.51C86.46,-62.85 74,-51.66 63.78,-42.47"/>
<polygon fill="#63b8ff" stroke="#63b8ff" points="66.64,-40.44 56.86,-36.36 61.96,-45.64 66.64,-40.44"/>
<g id="a_edge1&#45;headlabel"><a xlink:href="dir_000010_000023.html" target="_top" xlink:title="7">
<text text-anchor="middle" x="70.21" y="-37.23" font-family="Helvetica,sans-Serif" font-size="10.00" fill="#63b8ff">7</text>
</a>
</g>
</g>
<!-- dir_6440e6c2986786ef6ea73aa73692af12&#45;&gt;dir_3bfc5c2bb8435cbdcb242e4cabcc5b38 -->
<g id="edge2" class="edge">
<title>dir_6440e6c2986786ef6ea73aa73692af12&#45;&gt;dir_3bfc5c2bb8435cbdcb242e4cabcc5b38</title>
<path fill="none" stroke="#63b8ff" d="M106.32,-70.75C107.32,-64.11 108.74,-54.73 110.01,-46.31"/>
<polygon fill="#63b8ff" stroke="#63b8ff" points="113.62,-46.85 111.65,-36.44 106.7,-45.81 113.62,-46.85"/>
<g id="a_edge2&#45;headlabel"><a xlink:href="dir_000010_000041.html" target="_top" xlink:title="34">
<text text-anchor="middle" x="115.89" y="-47.33" font-family="Helvetica,sans-Serif" font-size="10.00" fill="#63b8ff">34</text>
</a>
</g>
</g>
<!-- dir_fd1e11fb0964f7346e999e146b0dfd59 -->
<g id="node4" class="node">
<title>dir_fd1e11fb0964f7346e999e146b0dfd59</title>
<g id="a_node4"><a xlink:href="dir_fd1e11fb0964f7346e999e146b0dfd59.html" target="_top" xlink:title="common">
<polygon fill="#edf0f7" stroke="#7f7f7f" points="204,-35 150,-35 150,-16 204,-16 204,-35"/>
<text text-anchor="middle" x="177" y="-23" font-family="Helvetica,sans-Serif" font-size="10.00">common</text>
</a>
</g>
</g>
<!-- dir_6440e6c2986786ef6ea73aa73692af12&#45;&gt;dir_fd1e11fb0964f7346e999e146b0dfd59 -->
<g id="edge3" class="edge">
<title>dir_6440e6c2986786ef6ea73aa73692af12&#45;&gt;dir_fd1e11fb0964f7346e999e146b0dfd59</title>
<path fill="none" stroke="#63b8ff" d="M117.21,-70.51C127.93,-62.62 143.74,-50.98 156.41,-41.65"/>
<polygon fill="#63b8ff" stroke="#63b8ff" points="157.99,-44.1 163.97,-35.36 153.84,-38.47 157.99,-44.1"/>
<g id="a_edge3&#45;headlabel"><a xlink:href="dir_000010_000001.html" target="_top" xlink:title="1">
<text text-anchor="middle" x="157.78" y="-46.02" font-family="Helvetica,sans-Serif" font-size="10.00" fill="#63b8ff">1</text>
</a>
</g>
</g>
</g>
</svg>
