<?xml version="1.0" encoding="UTF-8" standalone="no"?>
<!DOCTYPE svg PUBLIC "-//W3C//DTD SVG 1.1//EN"
 "http://www.w3.org/Graphics/SVG/1.1/DTD/svg11.dtd">
<!-- Generated by graphviz version 8.0.1 (20230327.1645)
 -->
<!-- Title: conversion Pages: 1 -->
<svg width="348pt" height="133pt"
 viewBox="0.00 0.00 348.00 133.00" xmlns="http://www.w3.org/2000/svg" xmlns:xlink="http://www.w3.org/1999/xlink">
<g id="graph0" class="graph" transform="scale(1 1) rotate(0) translate(4 129)">
<title>conversion</title>
<g id="clust1" class="cluster">
<title>clusterdir_a359a38bc464cff0ef8a57dc34360380</title>
<g id="a_clust1"><a xlink:href="dir_a359a38bc464cff0ef8a57dc34360380.html" target="_top" xlink:title="sbml">
<polygon fill="#edf0f7" stroke="#7f7f7f" stroke-dasharray="5,2" points="8,-8 8,-117 332,-117 332,-8 8,-8"/>
<text text-anchor="middle" x="170" y="-105" font-family="Helvetica,sans-Serif" font-size="10.00">sbml</text>
</a>
</g>
</g>
<!-- dir_3f96c34ad80e9031c68706862fabf1a4 -->
<g id="node1" class="node">
<title>dir_3f96c34ad80e9031c68706862fabf1a4</title>
<g id="a_node1"><a xlink:href="dir_3f96c34ad80e9031c68706862fabf1a4.html" target="_top" xlink:title="extension">
<polygon fill="#a2b4d6" stroke="#404040" points="75.5,-35 16.5,-35 16.5,-16 75.5,-16 75.5,-35"/>
<text text-anchor="middle" x="46" y="-23" font-family="Helvetica,sans-Serif" font-size="10.00">extension</text>
</a>
</g>
</g>
<!-- dir_fd1e11fb0964f7346e999e146b0dfd59 -->
<g id="node2" class="node">
<title>dir_fd1e11fb0964f7346e999e146b0dfd59</title>
<g id="a_node2"><a xlink:href="dir_fd1e11fb0964f7346e999e146b0dfd59.html" target="_top" xlink:title="common">
<polygon fill="#a2b4d6" stroke="#404040" points="148,-35 94,-35 94,-16 148,-16 148,-35"/>
<text text-anchor="middle" x="121" y="-23" font-family="Helvetica,sans-Serif" font-size="10.00">common</text>
</a>
</g>
</g>
<!-- dir_c541d4b187fc5f863b4735b323978e0f -->
<g id="node3" class="node">
<title>dir_c541d4b187fc5f863b4735b323978e0f</title>
<g id="a_node3"><a xlink:href="dir_c541d4b187fc5f863b4735b323978e0f.html" target="_top" xlink:title="util">
<polygon fill="#a2b4d6" stroke="#404040" points="195.5,-35 166.5,-35 166.5,-16 195.5,-16 195.5,-35"/>
<text text-anchor="middle" x="181" y="-23" font-family="Helvetica,sans-Serif" font-size="10.00">util</text>
</a>
</g>
</g>
<!-- dir_48ff6375d03f1aa509a6e0480f966544 -->
<g id="node4" class="node">
<title>dir_48ff6375d03f1aa509a6e0480f966544</title>
<g id="a_node4"><a xlink:href="dir_48ff6375d03f1aa509a6e0480f966544.html" target="_top" xlink:title="math">
<polygon fill="#a2b4d6" stroke="#404040" points="252,-35 214,-35 214,-16 252,-16 252,-35"/>
<text text-anchor="middle" x="233" y="-23" font-family="Helvetica,sans-Serif" font-size="10.00">math</text>
</a>
</g>
</g>
<!-- dir_a0a785b8d726fb513b94381e63693443 -->
<g id="node5" class="node">
<title>dir_a0a785b8d726fb513b94381e63693443</title>
<g id="a_node5"><a xlink:href="dir_a0a785b8d726fb513b94381e63693443.html" target="_top" xlink:title="validator">
<polygon fill="#a2b4d6" stroke="#404040" points="323.5,-35 270.5,-35 270.5,-16 323.5,-16 323.5,-35"/>
<text text-anchor="middle" x="297" y="-23" font-family="Helvetica,sans-Serif" font-size="10.00">validator</text>
</a>
</g>
</g>
<!-- dir_d3b86ce335ad818909ececff0fac1eca -->
<g id="node6" class="node">
<title>dir_d3b86ce335ad818909ececff0fac1eca</title>
<g id="a_node6"><a xlink:href="dir_d3b86ce335ad818909ececff0fac1eca.html" target="_top" xlink:title="conversion">
<polygon fill="#edf0f7" stroke="#404040" stroke-width="2" points="213,-90 149,-90 149,-71 213,-71 213,-90"/>
<text text-anchor="middle" x="181" y="-78" font-family="Helvetica,sans-Serif" font-size="10.00">conversion</text>
</a>
</g>
</g>
<!-- dir_d3b86ce335ad818909ececff0fac1eca&#45;&gt;dir_3f96c34ad80e9031c68706862fabf1a4 -->
<g id="edge1" class="edge">
<title>dir_d3b86ce335ad818909ececff0fac1eca&#45;&gt;dir_3f96c34ad80e9031c68706862fabf1a4</title>
<path fill="none" stroke="#63b8ff" d="M158.1,-70.51C136.25,-61.93 103.1,-48.92 78.52,-39.27"/>
<polygon fill="#63b8ff" stroke="#63b8ff" points="80.15,-35.75 69.56,-35.36 77.59,-42.27 80.15,-35.75"/>
<g id="a_edge1&#45;headlabel"><a xlink:href="dir_000012_000014.html" target="_top" xlink:title="5">
<text text-anchor="middle" x="83.53" y="-31.93" font-family="Helvetica,sans-Serif" font-size="10.00" fill="#63b8ff">5</text>
</a>
</g>
</g>
<!-- dir_d3b86ce335ad818909ececff0fac1eca&#45;&gt;dir_fd1e11fb0964f7346e999e146b0dfd59 -->
<g id="edge5" class="edge">
<title>dir_d3b86ce335ad818909ececff0fac1eca&#45;&gt;dir_fd1e11fb0964f7346e999e146b0dfd59</title>
<path fill="none" stroke="#63b8ff" d="M170.82,-70.51C162.15,-62.85 149.48,-51.66 139.08,-42.47"/>
<polygon fill="#63b8ff" stroke="#63b8ff" points="141.84,-40.36 132.03,-36.36 137.21,-45.6 141.84,-40.36"/>
<g id="a_edge5&#45;headlabel"><a xlink:href="dir_000012_000001.html" target="_top" xlink:title="6">
<text text-anchor="middle" x="145.41" y="-37.11" font-family="Helvetica,sans-Serif" font-size="10.00" fill="#63b8ff">6</text>
</a>
</g>
</g>
<!-- dir_d3b86ce335ad818909ececff0fac1eca&#45;&gt;dir_c541d4b187fc5f863b4735b323978e0f -->
<g id="edge4" class="edge">
<title>dir_d3b86ce335ad818909ececff0fac1eca&#45;&gt;dir_c541d4b187fc5f863b4735b323978e0f</title>
<path fill="none" stroke="#63b8ff" d="M181,-70.75C181,-64.11 181,-54.73 181,-46.31"/>
<polygon fill="#63b8ff" stroke="#63b8ff" points="184.5,-46.44 181,-36.44 177.5,-46.44 184.5,-46.44"/>
<g id="a_edge4&#45;headlabel"><a xlink:href="dir_000012_000048.html" target="_top" xlink:title="11">
<text text-anchor="middle" x="187.34" y="-46.54" font-family="Helvetica,sans-Serif" font-size="10.00" fill="#63b8ff">11</text>
</a>
</g>
</g>
<!-- dir_d3b86ce335ad818909ececff0fac1eca&#45;&gt;dir_48ff6375d03f1aa509a6e0480f966544 -->
<g id="edge2" class="edge">
<title>dir_d3b86ce335ad818909ececff0fac1eca&#45;&gt;dir_48ff6375d03f1aa509a6e0480f966544</title>
<path fill="none" stroke="#63b8ff" d="M189.59,-70.75C196.92,-63.27 207.67,-52.32 216.64,-43.17"/>
<polygon fill="#63b8ff" stroke="#63b8ff" points="218.72,-46.03 223.23,-36.44 213.72,-41.13 218.72,-46.03"/>
<g id="a_edge2&#45;headlabel"><a xlink:href="dir_000012_000027.html" target="_top" xlink:title="12">
<text text-anchor="middle" x="219.23" y="-47.09" font-family="Helvetica,sans-Serif" font-size="10.00" fill="#63b8ff">12</text>
</a>
</g>
</g>
<!-- dir_d3b86ce335ad818909ececff0fac1eca&#45;&gt;dir_a0a785b8d726fb513b94381e63693443 -->
<g id="edge3" class="edge">
<title>dir_d3b86ce335ad818909ececff0fac1eca&#45;&gt;dir_a0a785b8d726fb513b94381e63693443</title>
<path fill="none" stroke="#63b8ff" d="M200.68,-70.51C219.04,-62.12 246.67,-49.5 267.63,-39.92"/>
<polygon fill="#63b8ff" stroke="#63b8ff" points="268.97,-42.7 276.61,-35.36 266.06,-36.33 268.97,-42.7"/>
<g id="a_edge3&#45;headlabel"><a xlink:href="dir_000012_000058.html" target="_top" xlink:title="14">
<text text-anchor="middle" x="267.88" y="-44.27" font-family="Helvetica,sans-Serif" font-size="10.00" fill="#63b8ff">14</text>
</a>
</g>
</g>
</g>
</svg>
