<?xml version="1.0" encoding="UTF-8" standalone="no"?>
<!DOCTYPE svg PUBLIC "-//W3C//DTD SVG 1.1//EN"
 "http://www.w3.org/Graphics/SVG/1.1/DTD/svg11.dtd">
<!-- Generated by graphviz version 8.0.1 (20230327.1645)
 -->
<!-- Title: layout Pages: 1 -->
<svg width="401pt" height="290pt"
 viewBox="0.00 0.00 400.50 290.00" xmlns="http://www.w3.org/2000/svg" xmlns:xlink="http://www.w3.org/1999/xlink">
<g id="graph0" class="graph" transform="scale(1 1) rotate(0) translate(4 286)">
<title>layout</title>
<g id="clust1" class="cluster">
<title>clusterdir_d29d847ea07fb74c2c88b7147de27d35</title>
<g id="a_clust1"><a xlink:href="dir_d29d847ea07fb74c2c88b7147de27d35.html" target="_top" xlink:title="packages">
<polygon fill="#edf0f7" stroke="#7f7f7f" stroke-dasharray="5,2" points="110,-39 110,-274 258,-274 258,-39 110,-39"/>
<text text-anchor="middle" x="184" y="-262" font-family="Helvetica,sans-Serif" font-size="10.00">packages</text>
</a>
</g>
</g>
<g id="clust2" class="cluster">
<title>clusterdir_56d603006930d6f32ca38bb932b49787</title>
<g id="a_clust2"><a xlink:href="dir_56d603006930d6f32ca38bb932b49787.html" target="_top">
<polygon fill="#edf0f7" stroke="#404040" stroke-width="2" points="118,-47 118,-247 250,-247 250,-47 118,-47"/>
</a>
</g>
</g>
<!-- dir_56d603006930d6f32ca38bb932b49787 -->
<g id="node1" class="node">
<title>dir_56d603006930d6f32ca38bb932b49787</title>
<text text-anchor="middle" x="220" y="-227" font-family="Helvetica,sans-Serif" font-size="10.00">layout</text>
</g>
<!-- dir_e8a3015d30ced03ce97057fe372cd335 -->
<g id="node2" class="node">
<title>dir_e8a3015d30ced03ce97057fe372cd335</title>
<g id="a_node2"><a xlink:href="dir_e8a3015d30ced03ce97057fe372cd335.html" target="_top" xlink:title="common">
<polygon fill="#a2b4d6" stroke="#404040" points="180,-239 126,-239 126,-220 180,-220 180,-239"/>
<text text-anchor="middle" x="153" y="-227" font-family="Helvetica,sans-Serif" font-size="10.00">common</text>
</a>
</g>
</g>
<!-- dir_469dd4fe8a06b7a018d55910fd20ec61 -->
<g id="node3" class="node">
<title>dir_469dd4fe8a06b7a018d55910fd20ec61</title>
<g id="a_node3"><a xlink:href="dir_469dd4fe8a06b7a018d55910fd20ec61.html" target="_top" xlink:title="extension">
<polygon fill="#a2b4d6" stroke="#404040" points="185.5,-184 126.5,-184 126.5,-165 185.5,-165 185.5,-184"/>
<text text-anchor="middle" x="156" y="-172" font-family="Helvetica,sans-Serif" font-size="10.00">extension</text>
</a>
</g>
</g>
<!-- dir_e8a3015d30ced03ce97057fe372cd335&#45;&gt;dir_469dd4fe8a06b7a018d55910fd20ec61 -->
<g id="edge1" class="edge">
<title>dir_e8a3015d30ced03ce97057fe372cd335&#45;&gt;dir_469dd4fe8a06b7a018d55910fd20ec61</title>
<path fill="none" stroke="#63b8ff" d="M148.33,-219.75C147.27,-213.04 147.35,-203.52 148.36,-195.02"/>
<polygon fill="#63b8ff" stroke="#63b8ff" points="151.94,-195.91 150.29,-185.44 145.05,-194.65 151.94,-195.91"/>
<g id="a_edge1&#45;headlabel"><a xlink:href="dir_000006_000019.html" target="_top" xlink:title="3">
<text text-anchor="middle" x="154.08" y="-196.45" font-family="Helvetica,sans-Serif" font-size="10.00" fill="#63b8ff">3</text>
</a>
</g>
</g>
<!-- dir_88ac4bf79705bb8559b852278d35d8da -->
<g id="node4" class="node">
<title>dir_88ac4bf79705bb8559b852278d35d8da</title>
<g id="a_node4"><a xlink:href="dir_88ac4bf79705bb8559b852278d35d8da.html" target="_top" xlink:title="sbml">
<polygon fill="#a2b4d6" stroke="#404040" points="188,-129 150,-129 150,-110 188,-110 188,-129"/>
<text text-anchor="middle" x="169" y="-117" font-family="Helvetica,sans-Serif" font-size="10.00">sbml</text>
</a>
</g>
</g>
<!-- dir_e8a3015d30ced03ce97057fe372cd335&#45;&gt;dir_88ac4bf79705bb8559b852278d35d8da -->
<g id="edge2" class="edge">
<title>dir_e8a3015d30ced03ce97057fe372cd335&#45;&gt;dir_88ac4bf79705bb8559b852278d35d8da</title>
<path fill="none" stroke="#63b8ff" d="M158.42,-219.55C166.71,-211.54 180.12,-198.81 186,-184 192.12,-168.61 183.92,-151.2 176.59,-138.51"/>
<polygon fill="#63b8ff" stroke="#63b8ff" points="179.11,-136.9 170.98,-130.1 173.1,-140.48 179.11,-136.9"/>
<g id="a_edge2&#45;headlabel"><a xlink:href="dir_000006_000037.html" target="_top" xlink:title="16">
<text text-anchor="middle" x="183.39" y="-135.03" font-family="Helvetica,sans-Serif" font-size="10.00" fill="#63b8ff">16</text>
</a>
</g>
</g>
<!-- dir_469dd4fe8a06b7a018d55910fd20ec61&#45;&gt;dir_e8a3015d30ced03ce97057fe372cd335 -->
<g id="edge8" class="edge">
<title>dir_469dd4fe8a06b7a018d55910fd20ec61&#45;&gt;dir_e8a3015d30ced03ce97057fe372cd335</title>
<path fill="none" stroke="#63b8ff" d="M160.7,-184.44C161.74,-191.21 161.64,-200.74 160.61,-209.22"/>
<polygon fill="#63b8ff" stroke="#63b8ff" points="157.04,-208.28 158.66,-218.75 163.93,-209.55 157.04,-208.28"/>
<g id="a_edge8&#45;headlabel"><a xlink:href="dir_000019_000006.html" target="_top" xlink:title="1">
<text text-anchor="middle" x="154.91" y="-202.73" font-family="Helvetica,sans-Serif" font-size="10.00" fill="#63b8ff">1</text>
</a>
</g>
</g>
<!-- dir_469dd4fe8a06b7a018d55910fd20ec61&#45;&gt;dir_88ac4bf79705bb8559b852278d35d8da -->
<g id="edge6" class="edge">
<title>dir_469dd4fe8a06b7a018d55910fd20ec61&#45;&gt;dir_88ac4bf79705bb8559b852278d35d8da</title>
<path fill="none" stroke="#63b8ff" d="M152.98,-164.75C153.19,-157.96 155.11,-148.3 157.76,-139.73"/>
<polygon fill="#63b8ff" stroke="#63b8ff" points="161.39,-141.03 161.6,-130.44 154.83,-138.59 161.39,-141.03"/>
<g id="a_edge6&#45;headlabel"><a xlink:href="dir_000019_000037.html" target="_top" xlink:title="2">
<text text-anchor="middle" x="162.79" y="-141.89" font-family="Helvetica,sans-Serif" font-size="10.00" fill="#63b8ff">2</text>
</a>
</g>
</g>
<!-- dir_4843a4f4b536048b06467fd8eed65856 -->
<g id="node5" class="node">
<title>dir_4843a4f4b536048b06467fd8eed65856</title>
<g id="a_node5"><a xlink:href="dir_4843a4f4b536048b06467fd8eed65856.html" target="_top" xlink:title="util">
<polygon fill="#a2b4d6" stroke="#404040" points="167.5,-74 138.5,-74 138.5,-55 167.5,-55 167.5,-74"/>
<text text-anchor="middle" x="153" y="-62" font-family="Helvetica,sans-Serif" font-size="10.00">util</text>
</a>
</g>
</g>
<!-- dir_469dd4fe8a06b7a018d55910fd20ec61&#45;&gt;dir_4843a4f4b536048b06467fd8eed65856 -->
<g id="edge4" class="edge">
<title>dir_469dd4fe8a06b7a018d55910fd20ec61&#45;&gt;dir_4843a4f4b536048b06467fd8eed65856</title>
<path fill="none" stroke="#63b8ff" d="M145.12,-164.52C139.31,-155.68 134.08,-141.71 132,-129 129.5,-113.76 133.16,-96.54 138.48,-83.89"/>
<polygon fill="#63b8ff" stroke="#63b8ff" points="142.04,-85.6 143.46,-75.1 135.8,-82.43 142.04,-85.6"/>
<g id="a_edge4&#45;headlabel"><a xlink:href="dir_000019_000046.html" target="_top" xlink:title="2">
<text text-anchor="middle" x="142.94" y="-86.6" font-family="Helvetica,sans-Serif" font-size="10.00" fill="#63b8ff">2</text>
</a>
</g>
</g>
<!-- dir_f86e7e40b6052a0bfb03f7d9a1d54b90 -->
<g id="node6" class="node">
<title>dir_f86e7e40b6052a0bfb03f7d9a1d54b90</title>
<g id="a_node6"><a xlink:href="dir_f86e7e40b6052a0bfb03f7d9a1d54b90.html" target="_top" xlink:title="validator">
<polygon fill="#a2b4d6" stroke="#404040" points="238.5,-74 185.5,-74 185.5,-55 238.5,-55 238.5,-74"/>
<text text-anchor="middle" x="212" y="-62" font-family="Helvetica,sans-Serif" font-size="10.00">validator</text>
</a>
</g>
</g>
<!-- dir_469dd4fe8a06b7a018d55910fd20ec61&#45;&gt;dir_f86e7e40b6052a0bfb03f7d9a1d54b90 -->
<g id="edge9" class="edge">
<title>dir_469dd4fe8a06b7a018d55910fd20ec61&#45;&gt;dir_f86e7e40b6052a0bfb03f7d9a1d54b90</title>
<path fill="none" stroke="#63b8ff" d="M166.73,-164.74C176.12,-156.49 189.41,-143.29 197,-129 204.32,-115.21 208.11,-97.87 210.04,-84.79"/>
<polygon fill="#63b8ff" stroke="#63b8ff" points="213.6,-85.56 211.35,-75.21 206.65,-84.7 213.6,-85.56"/>
<g id="a_edge9&#45;headlabel"><a xlink:href="dir_000019_000053.html" target="_top" xlink:title="5">
<text text-anchor="middle" x="215.98" y="-85.97" font-family="Helvetica,sans-Serif" font-size="10.00" fill="#63b8ff">5</text>
</a>
</g>
</g>
<!-- dir_3f96c34ad80e9031c68706862fabf1a4 -->
<g id="node7" class="node">
<title>dir_3f96c34ad80e9031c68706862fabf1a4</title>
<g id="a_node7"><a xlink:href="dir_3f96c34ad80e9031c68706862fabf1a4.html" target="_top" xlink:title="extension">
<polygon fill="#edf0f7" stroke="#7f7f7f" points="392.5,-129 333.5,-129 333.5,-110 392.5,-110 392.5,-129"/>
<text text-anchor="middle" x="363" y="-117" font-family="Helvetica,sans-Serif" font-size="10.00">extension</text>
</a>
</g>
</g>
<!-- dir_469dd4fe8a06b7a018d55910fd20ec61&#45;&gt;dir_3f96c34ad80e9031c68706862fabf1a4 -->
<g id="edge3" class="edge">
<title>dir_469dd4fe8a06b7a018d55910fd20ec61&#45;&gt;dir_3f96c34ad80e9031c68706862fabf1a4</title>
<path fill="none" stroke="#63b8ff" d="M185.66,-165.91C221.6,-156.7 282.34,-141.15 322.55,-130.86"/>
<polygon fill="#63b8ff" stroke="#63b8ff" points="323.24,-134.04 332.06,-128.17 321.51,-127.26 323.24,-134.04"/>
<g id="a_edge3&#45;headlabel"><a xlink:href="dir_000019_000014.html" target="_top" xlink:title="10">
<text text-anchor="middle" x="321.46" y="-135.18" font-family="Helvetica,sans-Serif" font-size="10.00" fill="#63b8ff">10</text>
</a>
</g>
</g>
<!-- dir_fd1e11fb0964f7346e999e146b0dfd59 -->
<g id="node10" class="node">
<title>dir_fd1e11fb0964f7346e999e146b0dfd59</title>
<g id="a_node10"><a xlink:href="dir_fd1e11fb0964f7346e999e146b0dfd59.html" target="_top" xlink:title="common">
<polygon fill="#edf0f7" stroke="#7f7f7f" points="104,-19 50,-19 50,0 104,0 104,-19"/>
<text text-anchor="middle" x="77" y="-7" font-family="Helvetica,sans-Serif" font-size="10.00">common</text>
</a>
</g>
</g>
<!-- dir_469dd4fe8a06b7a018d55910fd20ec61&#45;&gt;dir_fd1e11fb0964f7346e999e146b0dfd59 -->
<g id="edge10" class="edge">
<title>dir_469dd4fe8a06b7a018d55910fd20ec61&#45;&gt;dir_fd1e11fb0964f7346e999e146b0dfd59</title>
<path fill="none" stroke="#63b8ff" d="M149.73,-164.55C138.05,-147.57 112.73,-109.21 97,-74 90.57,-59.62 85.32,-42.55 81.82,-29.74"/>
<polygon fill="#63b8ff" stroke="#63b8ff" points="85.02,-29.15 79.1,-20.36 78.25,-30.92 85.02,-29.15"/>
<g id="a_edge10&#45;headlabel"><a xlink:href="dir_000019_000001.html" target="_top" xlink:title="4">
<text text-anchor="middle" x="88.67" y="-28.41" font-family="Helvetica,sans-Serif" font-size="10.00" fill="#63b8ff">4</text>
</a>
</g>
</g>
<!-- dir_5cbb9a0bf548abf0d2e32772c73d2ad6 -->
<g id="node11" class="node">
<title>dir_5cbb9a0bf548abf0d2e32772c73d2ad6</title>
<g id="a_node11"><a xlink:href="dir_5cbb9a0bf548abf0d2e32772c73d2ad6.html" target="_top" xlink:title="xml">
<polygon fill="#edf0f7" stroke="#7f7f7f" points="32,-19 0,-19 0,0 32,0 32,-19"/>
<text text-anchor="middle" x="16" y="-7" font-family="Helvetica,sans-Serif" font-size="10.00">xml</text>
</a>
</g>
</g>
<!-- dir_469dd4fe8a06b7a018d55910fd20ec61&#45;&gt;dir_5cbb9a0bf548abf0d2e32772c73d2ad6 -->
<g id="edge5" class="edge">
<title>dir_469dd4fe8a06b7a018d55910fd20ec61&#45;&gt;dir_5cbb9a0bf548abf0d2e32772c73d2ad6</title>
<path fill="none" stroke="#63b8ff" d="M146.37,-164.6C137.04,-155.83 122.62,-141.9 111,-129 79.97,-94.57 46.77,-51.55 29,-27.97"/>
<polygon fill="#63b8ff" stroke="#63b8ff" points="31.38,-26.31 22.58,-20.41 25.78,-30.51 31.38,-26.31"/>
<g id="a_edge5&#45;headlabel"><a xlink:href="dir_000019_000059.html" target="_top" xlink:title="4">
<text text-anchor="middle" x="35.81" y="-23.98" font-family="Helvetica,sans-Serif" font-size="10.00" fill="#63b8ff">4</text>
</a>
</g>
</g>
<!-- dir_c541d4b187fc5f863b4735b323978e0f -->
<g id="node12" class="node">
<title>dir_c541d4b187fc5f863b4735b323978e0f</title>
<g id="a_node12"><a xlink:href="dir_c541d4b187fc5f863b4735b323978e0f.html" target="_top" xlink:title="util">
<polygon fill="#edf0f7" stroke="#7f7f7f" points="302.5,-19 273.5,-19 273.5,0 302.5,0 302.5,-19"/>
<text text-anchor="middle" x="288" y="-7" font-family="Helvetica,sans-Serif" font-size="10.00">util</text>
</a>
</g>
</g>
<!-- dir_469dd4fe8a06b7a018d55910fd20ec61&#45;&gt;dir_c541d4b187fc5f863b4735b323978e0f -->
<g id="edge7" class="edge">
<title>dir_469dd4fe8a06b7a018d55910fd20ec61&#45;&gt;dir_c541d4b187fc5f863b4735b323978e0f</title>
<path fill="none" stroke="#63b8ff" d="M172.28,-164.58C198.15,-149.5 248.36,-116.43 274,-74 282.05,-60.69 285.49,-43.3 286.95,-30.09"/>
<polygon fill="#63b8ff" stroke="#63b8ff" points="290.5,-30.62 287.81,-20.37 283.52,-30.06 290.5,-30.62"/>
<g id="a_edge7&#45;headlabel"><a xlink:href="dir_000019_000048.html" target="_top" xlink:title="4">
<text text-anchor="middle" x="293.04" y="-30.93" font-family="Helvetica,sans-Serif" font-size="10.00" fill="#63b8ff">4</text>
</a>
</g>
</g>
<!-- dir_88ac4bf79705bb8559b852278d35d8da&#45;&gt;dir_e8a3015d30ced03ce97057fe372cd335 -->
<g id="edge15" class="edge">
<title>dir_88ac4bf79705bb8559b852278d35d8da&#45;&gt;dir_e8a3015d30ced03ce97057fe372cd335</title>
<path fill="none" stroke="#63b8ff" d="M182.93,-129.1C196.2,-141.29 211.83,-164.29 204,-184 199.54,-195.22 190.76,-205.25 181.59,-212.94"/>
<polygon fill="#63b8ff" stroke="#63b8ff" points="179.69,-210.74 173.8,-219.55 183.9,-216.33 179.69,-210.74"/>
<g id="a_edge15&#45;headlabel"><a xlink:href="dir_000037_000006.html" target="_top" xlink:title="16">
<text text-anchor="middle" x="179.85" y="-203.81" font-family="Helvetica,sans-Serif" font-size="10.00" fill="#63b8ff">16</text>
</a>
</g>
</g>
<!-- dir_88ac4bf79705bb8559b852278d35d8da&#45;&gt;dir_469dd4fe8a06b7a018d55910fd20ec61 -->
<g id="edge11" class="edge">
<title>dir_88ac4bf79705bb8559b852278d35d8da&#45;&gt;dir_469dd4fe8a06b7a018d55910fd20ec61</title>
<path fill="none" stroke="#63b8ff" d="M172.01,-129.44C171.78,-136.28 169.83,-145.96 167.16,-154.5"/>
<polygon fill="#63b8ff" stroke="#63b8ff" points="163.55,-153.16 163.31,-163.75 170.11,-155.62 163.55,-153.16"/>
<g id="a_edge11&#45;headlabel"><a xlink:href="dir_000037_000019.html" target="_top" xlink:title="28">
<text text-anchor="middle" x="162.16" y="-147.29" font-family="Helvetica,sans-Serif" font-size="10.00" fill="#63b8ff">28</text>
</a>
</g>
</g>
<!-- dir_88ac4bf79705bb8559b852278d35d8da&#45;&gt;dir_4843a4f4b536048b06467fd8eed65856 -->
<g id="edge12" class="edge">
<title>dir_88ac4bf79705bb8559b852278d35d8da&#45;&gt;dir_4843a4f4b536048b06467fd8eed65856</title>
<path fill="none" stroke="#63b8ff" d="M161.19,-109.75C157.72,-103.04 154.39,-93.52 152.36,-85.02"/>
<polygon fill="#63b8ff" stroke="#63b8ff" points="155.67,-84.68 150.49,-75.44 148.78,-85.9 155.67,-84.68"/>
<g id="a_edge12&#45;headlabel"><a xlink:href="dir_000037_000046.html" target="_top" xlink:title="15">
<text text-anchor="middle" x="159.09" y="-84.23" font-family="Helvetica,sans-Serif" font-size="10.00" fill="#63b8ff">15</text>
</a>
</g>
</g>
<!-- dir_88ac4bf79705bb8559b852278d35d8da&#45;&gt;dir_f86e7e40b6052a0bfb03f7d9a1d54b90 -->
<g id="edge16" class="edge">
<title>dir_88ac4bf79705bb8559b852278d35d8da&#45;&gt;dir_f86e7e40b6052a0bfb03f7d9a1d54b90</title>
<path fill="none" stroke="#63b8ff" d="M176.1,-109.75C182.04,-102.43 190.69,-91.76 198.02,-82.74"/>
<polygon fill="#63b8ff" stroke="#63b8ff" points="201.16,-85.41 204.75,-75.44 195.73,-81 201.16,-85.41"/>
<g id="a_edge16&#45;headlabel"><a xlink:href="dir_000037_000053.html" target="_top" xlink:title="15">
<text text-anchor="middle" x="201.1" y="-86.49" font-family="Helvetica,sans-Serif" font-size="10.00" fill="#63b8ff">15</text>
</a>
</g>
</g>
<!-- dir_88ac4bf79705bb8559b852278d35d8da&#45;&gt;dir_fd1e11fb0964f7346e999e146b0dfd59 -->
<g id="edge17" class="edge">
<title>dir_88ac4bf79705bb8559b852278d35d8da&#45;&gt;dir_fd1e11fb0964f7346e999e146b0dfd59</title>
<path fill="none" stroke="#63b8ff" d="M161.17,-109.69C153.25,-100.75 140.68,-86.49 130,-74 116.63,-58.37 101.63,-40.35 91.01,-27.51"/>
<polygon fill="#63b8ff" stroke="#63b8ff" points="93.2,-25.67 84.14,-20.18 87.8,-30.12 93.2,-25.67"/>
<g id="a_edge17&#45;headlabel"><a xlink:href="dir_000037_000001.html" target="_top" xlink:title="31">
<text text-anchor="middle" x="97.68" y="-23.13" font-family="Helvetica,sans-Serif" font-size="10.00" fill="#63b8ff">31</text>
</a>
</g>
</g>
<!-- dir_88ac4bf79705bb8559b852278d35d8da&#45;&gt;dir_5cbb9a0bf548abf0d2e32772c73d2ad6 -->
<g id="edge13" class="edge">
<title>dir_88ac4bf79705bb8559b852278d35d8da&#45;&gt;dir_5cbb9a0bf548abf0d2e32772c73d2ad6</title>
<path fill="none" stroke="#63b8ff" d="M153.51,-109.61C138.71,-100.95 115.92,-87.2 97,-74 74.87,-58.56 50.66,-39.23 34.52,-25.98"/>
<polygon fill="#63b8ff" stroke="#63b8ff" points="37.39,-22.99 27.46,-19.31 32.93,-28.38 37.39,-22.99"/>
<g id="a_edge13&#45;headlabel"><a xlink:href="dir_000037_000059.html" target="_top" xlink:title="76">
<text text-anchor="middle" x="40.97" y="-20.59" font-family="Helvetica,sans-Serif" font-size="10.00" fill="#63b8ff">76</text>
</a>
</g>
</g>
<!-- dir_88ac4bf79705bb8559b852278d35d8da&#45;&gt;dir_c541d4b187fc5f863b4735b323978e0f -->
<g id="edge14" class="edge">
<title>dir_88ac4bf79705bb8559b852278d35d8da&#45;&gt;dir_c541d4b187fc5f863b4735b323978e0f</title>
<path fill="none" stroke="#63b8ff" d="M188.27,-110.9C205.42,-103.42 230.44,-90.72 248,-74 261.55,-61.1 272.49,-42.69 279.48,-29.01"/>
<polygon fill="#63b8ff" stroke="#63b8ff" points="283,-30.78 284.21,-20.25 276.7,-27.72 283,-30.78"/>
<g id="a_edge14&#45;headlabel"><a xlink:href="dir_000037_000048.html" target="_top" xlink:title="10">
<text text-anchor="middle" x="283.98" y="-31.75" font-family="Helvetica,sans-Serif" font-size="10.00" fill="#63b8ff">10</text>
</a>
</g>
</g>
<!-- dir_4843a4f4b536048b06467fd8eed65856&#45;&gt;dir_469dd4fe8a06b7a018d55910fd20ec61 -->
<g id="edge18" class="edge">
<title>dir_4843a4f4b536048b06467fd8eed65856&#45;&gt;dir_469dd4fe8a06b7a018d55910fd20ec61</title>
<path fill="none" stroke="#63b8ff" d="M155.41,-74.1C153.83,-86.29 146.77,-109.29 150,-129 151.37,-137.34 154.09,-146.23 156.24,-153.85"/>
<polygon fill="#63b8ff" stroke="#63b8ff" points="153.09,-154.65 158.89,-163.52 159.88,-152.97 153.09,-154.65"/>
<g id="a_edge18&#45;headlabel"><a xlink:href="dir_000046_000019.html" target="_top" xlink:title="2">
<text text-anchor="middle" x="149.47" y="-150.35" font-family="Helvetica,sans-Serif" font-size="10.00" fill="#63b8ff">2</text>
</a>
</g>
</g>
<!-- dir_4843a4f4b536048b06467fd8eed65856&#45;&gt;dir_88ac4bf79705bb8559b852278d35d8da -->
<g id="edge20" class="edge">
<title>dir_4843a4f4b536048b06467fd8eed65856&#45;&gt;dir_88ac4bf79705bb8559b852278d35d8da</title>
<path fill="none" stroke="#63b8ff" d="M160.91,-74.44C164.33,-81.13 167.61,-90.53 169.63,-98.93"/>
<polygon fill="#63b8ff" stroke="#63b8ff" points="166.35,-99.5 171.52,-108.75 173.25,-98.29 166.35,-99.5"/>
<g id="a_edge20&#45;headlabel"><a xlink:href="dir_000046_000037.html" target="_top" xlink:title="3">
<text text-anchor="middle" x="162.94" y="-94.95" font-family="Helvetica,sans-Serif" font-size="10.00" fill="#63b8ff">3</text>
</a>
</g>
</g>
<!-- dir_909df41e089bc57b29bc62cc6d76d6dc -->
<g id="node9" class="node">
<title>dir_909df41e089bc57b29bc62cc6d76d6dc</title>
<g id="a_node9"><a xlink:href="dir_909df41e089bc57b29bc62cc6d76d6dc.html" target="_top" xlink:title="annotation">
<polygon fill="#edf0f7" stroke="#7f7f7f" points="184,-19 122,-19 122,0 184,0 184,-19"/>
<text text-anchor="middle" x="153" y="-7" font-family="Helvetica,sans-Serif" font-size="10.00">annotation</text>
</a>
</g>
</g>
<!-- dir_4843a4f4b536048b06467fd8eed65856&#45;&gt;dir_909df41e089bc57b29bc62cc6d76d6dc -->
<g id="edge21" class="edge">
<title>dir_4843a4f4b536048b06467fd8eed65856&#45;&gt;dir_909df41e089bc57b29bc62cc6d76d6dc</title>
<path fill="none" stroke="#63b8ff" d="M153,-54.75C153,-48.11 153,-38.73 153,-30.31"/>
<polygon fill="#63b8ff" stroke="#63b8ff" points="156.5,-30.44 153,-20.44 149.5,-30.44 156.5,-30.44"/>
<g id="a_edge21&#45;headlabel"><a xlink:href="dir_000046_000000.html" target="_top" xlink:title="1">
<text text-anchor="middle" x="159.34" y="-30.54" font-family="Helvetica,sans-Serif" font-size="10.00" fill="#63b8ff">1</text>
</a>
</g>
</g>
<!-- dir_4843a4f4b536048b06467fd8eed65856&#45;&gt;dir_fd1e11fb0964f7346e999e146b0dfd59 -->
<g id="edge23" class="edge">
<title>dir_4843a4f4b536048b06467fd8eed65856&#45;&gt;dir_fd1e11fb0964f7346e999e146b0dfd59</title>
<path fill="none" stroke="#63b8ff" d="M143.38,-54.71C137.87,-49.86 130.74,-43.85 124,-39 117.18,-34.1 109.5,-29.2 102.35,-24.88"/>
<polygon fill="#63b8ff" stroke="#63b8ff" points="104.45,-21.47 94.06,-19.4 100.9,-27.5 104.45,-21.47"/>
<g id="a_edge23&#45;headlabel"><a xlink:href="dir_000046_000001.html" target="_top" xlink:title="4">
<text text-anchor="middle" x="107.99" y="-18.35" font-family="Helvetica,sans-Serif" font-size="10.00" fill="#63b8ff">4</text>
</a>
</g>
</g>
<!-- dir_4843a4f4b536048b06467fd8eed65856&#45;&gt;dir_5cbb9a0bf548abf0d2e32772c73d2ad6 -->
<g id="edge19" class="edge">
<title>dir_4843a4f4b536048b06467fd8eed65856&#45;&gt;dir_5cbb9a0bf548abf0d2e32772c73d2ad6</title>
<path fill="none" stroke="#63b8ff" d="M138.08,-57.73C115.08,-48.83 70.66,-31.64 42.21,-20.64"/>
<polygon fill="#63b8ff" stroke="#63b8ff" points="43.76,-17.1 33.17,-16.76 41.24,-23.63 43.76,-17.1"/>
<g id="a_edge19&#45;headlabel"><a xlink:href="dir_000046_000059.html" target="_top" xlink:title="6">
<text text-anchor="middle" x="47.14" y="-13.25" font-family="Helvetica,sans-Serif" font-size="10.00" fill="#63b8ff">6</text>
</a>
</g>
</g>
<!-- dir_4843a4f4b536048b06467fd8eed65856&#45;&gt;dir_c541d4b187fc5f863b4735b323978e0f -->
<g id="edge22" class="edge">
<title>dir_4843a4f4b536048b06467fd8eed65856&#45;&gt;dir_c541d4b187fc5f863b4735b323978e0f</title>
<path fill="none" stroke="#63b8ff" d="M159.61,-54.52C163.97,-49.23 170.14,-42.83 177,-39 209.28,-20.96 224.16,-28.89 262.67,-19.23"/>
<polygon fill="#63b8ff" stroke="#63b8ff" points="263.3,-22.41 272,-16.36 261.43,-15.66 263.3,-22.41"/>
<g id="a_edge22&#45;headlabel"><a xlink:href="dir_000046_000048.html" target="_top" xlink:title="2">
<text text-anchor="middle" x="261.59" y="-23.6" font-family="Helvetica,sans-Serif" font-size="10.00" fill="#63b8ff">2</text>
</a>
</g>
</g>
<!-- dir_f86e7e40b6052a0bfb03f7d9a1d54b90&#45;&gt;dir_e8a3015d30ced03ce97057fe372cd335 -->
<g id="edge25" class="edge">
<title>dir_f86e7e40b6052a0bfb03f7d9a1d54b90&#45;&gt;dir_e8a3015d30ced03ce97057fe372cd335</title>
<path fill="none" stroke="#63b8ff" d="M213.24,-74.4C215.67,-94.94 219.36,-146.75 201,-184 195.29,-195.59 185.19,-205.66 175.72,-213.27"/>
<polygon fill="#63b8ff" stroke="#63b8ff" points="173.91,-211 168,-219.79 178.1,-216.61 173.91,-211"/>
<g id="a_edge25&#45;headlabel"><a xlink:href="dir_000053_000006.html" target="_top" xlink:title="1">
<text text-anchor="middle" x="174.09" y="-204.08" font-family="Helvetica,sans-Serif" font-size="10.00" fill="#63b8ff">1</text>
</a>
</g>
</g>
<!-- dir_a0a785b8d726fb513b94381e63693443 -->
<g id="node8" class="node">
<title>dir_a0a785b8d726fb513b94381e63693443</title>
<g id="a_node8"><a xlink:href="dir_a0a785b8d726fb513b94381e63693443.html" target="_top" xlink:title="validator">
<polygon fill="#edf0f7" stroke="#7f7f7f" points="255.5,-19 202.5,-19 202.5,0 255.5,0 255.5,-19"/>
<text text-anchor="middle" x="229" y="-7" font-family="Helvetica,sans-Serif" font-size="10.00">validator</text>
</a>
</g>
</g>
<!-- dir_f86e7e40b6052a0bfb03f7d9a1d54b90&#45;&gt;dir_a0a785b8d726fb513b94381e63693443 -->
<g id="edge24" class="edge">
<title>dir_f86e7e40b6052a0bfb03f7d9a1d54b90&#45;&gt;dir_a0a785b8d726fb513b94381e63693443</title>
<path fill="none" stroke="#63b8ff" d="M214.81,-54.75C216.98,-47.96 220.08,-38.3 222.83,-29.73"/>
<polygon fill="#63b8ff" stroke="#63b8ff" points="226.41,-31.03 226.13,-20.44 219.74,-28.9 226.41,-31.03"/>
<g id="a_edge24&#45;headlabel"><a xlink:href="dir_000053_000058.html" target="_top" xlink:title="2">
<text text-anchor="middle" x="228.02" y="-31.82" font-family="Helvetica,sans-Serif" font-size="10.00" fill="#63b8ff">2</text>
</a>
</g>
</g>
</g>
</svg>
