<?xml version="1.0" encoding="UTF-8" standalone="no"?>
<!DOCTYPE svg PUBLIC "-//W3C//DTD SVG 1.1//EN"
 "http://www.w3.org/Graphics/SVG/1.1/DTD/svg11.dtd">
<!-- Generated by graphviz version 8.0.1 (20230327.1645)
 -->
<!-- Title: extension Pages: 1 -->
<svg width="509pt" height="133pt"
 viewBox="0.00 0.00 509.00 133.00" xmlns="http://www.w3.org/2000/svg" xmlns:xlink="http://www.w3.org/1999/xlink">
<g id="graph0" class="graph" transform="scale(1 1) rotate(0) translate(4 129)">
<title>extension</title>
<g id="clust1" class="cluster">
<title>clusterdir_ff67eb8bdf90fd4ca788748765fa4706</title>
<g id="a_clust1"><a xlink:href="dir_ff67eb8bdf90fd4ca788748765fa4706.html" target="_top" xlink:title="multi">
<polygon fill="#edf0f7" stroke="#7f7f7f" stroke-dasharray="5,2" points="8,-8 8,-117 206,-117 206,-8 8,-8"/>
<text text-anchor="middle" x="107" y="-105" font-family="Helvetica,sans-Serif" font-size="10.00">multi</text>
</a>
</g>
</g>
<!-- dir_211df2c2e27ea537834950dcda81a69a -->
<g id="node1" class="node">
<title>dir_211df2c2e27ea537834950dcda81a69a</title>
<g id="a_node1"><a xlink:href="dir_211df2c2e27ea537834950dcda81a69a.html" target="_top" xlink:title="sbml">
<polygon fill="#a2b4d6" stroke="#404040" points="54,-35 16,-35 16,-16 54,-16 54,-35"/>
<text text-anchor="middle" x="35" y="-23" font-family="Helvetica,sans-Serif" font-size="10.00">sbml</text>
</a>
</g>
</g>
<!-- dir_d25dc3b0d43d3f59e2bc754eb6f23a17 -->
<g id="node2" class="node">
<title>dir_d25dc3b0d43d3f59e2bc754eb6f23a17</title>
<g id="a_node2"><a xlink:href="dir_d25dc3b0d43d3f59e2bc754eb6f23a17.html" target="_top" xlink:title="common">
<polygon fill="#a2b4d6" stroke="#404040" points="126,-35 72,-35 72,-16 126,-16 126,-35"/>
<text text-anchor="middle" x="99" y="-23" font-family="Helvetica,sans-Serif" font-size="10.00">common</text>
</a>
</g>
</g>
<!-- dir_e49853d8c79be0c159e687553c4d5267 -->
<g id="node3" class="node">
<title>dir_e49853d8c79be0c159e687553c4d5267</title>
<g id="a_node3"><a xlink:href="dir_e49853d8c79be0c159e687553c4d5267.html" target="_top" xlink:title="validator">
<polygon fill="#a2b4d6" stroke="#404040" points="197.5,-35 144.5,-35 144.5,-16 197.5,-16 197.5,-35"/>
<text text-anchor="middle" x="171" y="-23" font-family="Helvetica,sans-Serif" font-size="10.00">validator</text>
</a>
</g>
</g>
<!-- dir_15c5042fe4b0a3c710a68e7faf2f3890 -->
<g id="node4" class="node">
<title>dir_15c5042fe4b0a3c710a68e7faf2f3890</title>
<g id="a_node4"><a xlink:href="dir_15c5042fe4b0a3c710a68e7faf2f3890.html" target="_top" xlink:title="extension">
<polygon fill="#edf0f7" stroke="#404040" stroke-width="2" points="197.5,-90 138.5,-90 138.5,-71 197.5,-71 197.5,-90"/>
<text text-anchor="middle" x="168" y="-78" font-family="Helvetica,sans-Serif" font-size="10.00">extension</text>
</a>
</g>
</g>
<!-- dir_15c5042fe4b0a3c710a68e7faf2f3890&#45;&gt;dir_211df2c2e27ea537834950dcda81a69a -->
<g id="edge1" class="edge">
<title>dir_15c5042fe4b0a3c710a68e7faf2f3890&#45;&gt;dir_211df2c2e27ea537834950dcda81a69a</title>
<path fill="none" stroke="#63b8ff" d="M145.44,-70.51C123.1,-61.61 88.79,-47.94 64.35,-38.19"/>
<polygon fill="#63b8ff" stroke="#63b8ff" points="65.8,-34.61 55.21,-34.16 63.21,-41.11 65.8,-34.61"/>
<g id="a_edge1&#45;headlabel"><a xlink:href="dir_000020_000038.html" target="_top" xlink:title="9">
<text text-anchor="middle" x="69.19" y="-30.8" font-family="Helvetica,sans-Serif" font-size="10.00" fill="#63b8ff">9</text>
</a>
</g>
</g>
<!-- dir_15c5042fe4b0a3c710a68e7faf2f3890&#45;&gt;dir_d25dc3b0d43d3f59e2bc754eb6f23a17 -->
<g id="edge6" class="edge">
<title>dir_15c5042fe4b0a3c710a68e7faf2f3890&#45;&gt;dir_d25dc3b0d43d3f59e2bc754eb6f23a17</title>
<path fill="none" stroke="#63b8ff" d="M156.3,-70.51C146.12,-62.7 131.17,-51.21 119.08,-41.93"/>
<polygon fill="#63b8ff" stroke="#63b8ff" points="121.59,-38.67 111.53,-35.36 117.33,-44.23 121.59,-38.67"/>
<g id="a_edge6&#45;headlabel"><a xlink:href="dir_000020_000007.html" target="_top" xlink:title="4">
<text text-anchor="middle" x="125.17" y="-36.11" font-family="Helvetica,sans-Serif" font-size="10.00" fill="#63b8ff">4</text>
</a>
</g>
</g>
<!-- dir_15c5042fe4b0a3c710a68e7faf2f3890&#45;&gt;dir_e49853d8c79be0c159e687553c4d5267 -->
<g id="edge7" class="edge">
<title>dir_15c5042fe4b0a3c710a68e7faf2f3890&#45;&gt;dir_e49853d8c79be0c159e687553c4d5267</title>
<path fill="none" stroke="#63b8ff" d="M168.5,-70.75C168.87,-64.11 169.4,-54.73 169.88,-46.31"/>
<polygon fill="#63b8ff" stroke="#63b8ff" points="173.42,-46.62 170.49,-36.44 166.43,-46.23 173.42,-46.62"/>
<g id="a_edge7&#45;headlabel"><a xlink:href="dir_000020_000054.html" target="_top" xlink:title="10">
<text text-anchor="middle" x="176.05" y="-46.87" font-family="Helvetica,sans-Serif" font-size="10.00" fill="#63b8ff">10</text>
</a>
</g>
</g>
<!-- dir_3f96c34ad80e9031c68706862fabf1a4 -->
<g id="node5" class="node">
<title>dir_3f96c34ad80e9031c68706862fabf1a4</title>
<g id="a_node5"><a xlink:href="dir_3f96c34ad80e9031c68706862fabf1a4.html" target="_top" xlink:title="extension">
<polygon fill="#edf0f7" stroke="#7f7f7f" points="274.5,-35 215.5,-35 215.5,-16 274.5,-16 274.5,-35"/>
<text text-anchor="middle" x="245" y="-23" font-family="Helvetica,sans-Serif" font-size="10.00">extension</text>
</a>
</g>
</g>
<!-- dir_15c5042fe4b0a3c710a68e7faf2f3890&#45;&gt;dir_3f96c34ad80e9031c68706862fabf1a4 -->
<g id="edge2" class="edge">
<title>dir_15c5042fe4b0a3c710a68e7faf2f3890&#45;&gt;dir_3f96c34ad80e9031c68706862fabf1a4</title>
<path fill="none" stroke="#63b8ff" d="M181.06,-70.51C192.64,-62.54 209.76,-50.75 223.38,-41.38"/>
<polygon fill="#63b8ff" stroke="#63b8ff" points="224.88,-43.91 231.13,-35.36 220.91,-38.14 224.88,-43.91"/>
<g id="a_edge2&#45;headlabel"><a xlink:href="dir_000020_000014.html" target="_top" xlink:title="14">
<text text-anchor="middle" x="224.53" y="-45.79" font-family="Helvetica,sans-Serif" font-size="10.00" fill="#63b8ff">14</text>
</a>
</g>
</g>
<!-- dir_48ff6375d03f1aa509a6e0480f966544 -->
<g id="node6" class="node">
<title>dir_48ff6375d03f1aa509a6e0480f966544</title>
<g id="a_node6"><a xlink:href="dir_48ff6375d03f1aa509a6e0480f966544.html" target="_top" xlink:title="math">
<polygon fill="#edf0f7" stroke="#7f7f7f" points="331,-35 293,-35 293,-16 331,-16 331,-35"/>
<text text-anchor="middle" x="312" y="-23" font-family="Helvetica,sans-Serif" font-size="10.00">math</text>
</a>
</g>
</g>
<!-- dir_15c5042fe4b0a3c710a68e7faf2f3890&#45;&gt;dir_48ff6375d03f1aa509a6e0480f966544 -->
<g id="edge3" class="edge">
<title>dir_15c5042fe4b0a3c710a68e7faf2f3890&#45;&gt;dir_48ff6375d03f1aa509a6e0480f966544</title>
<path fill="none" stroke="#63b8ff" d="M192.43,-70.51C217.25,-61.37 255.73,-47.21 282.3,-37.43"/>
<polygon fill="#63b8ff" stroke="#63b8ff" points="283.37,-40.4 291.54,-33.66 280.95,-33.83 283.37,-40.4"/>
<g id="a_edge3&#45;headlabel"><a xlink:href="dir_000020_000027.html" target="_top" xlink:title="1">
<text text-anchor="middle" x="281.97" y="-41.81" font-family="Helvetica,sans-Serif" font-size="10.00" fill="#63b8ff">1</text>
</a>
</g>
</g>
<!-- dir_5cbb9a0bf548abf0d2e32772c73d2ad6 -->
<g id="node7" class="node">
<title>dir_5cbb9a0bf548abf0d2e32772c73d2ad6</title>
<g id="a_node7"><a xlink:href="dir_5cbb9a0bf548abf0d2e32772c73d2ad6.html" target="_top" xlink:title="xml">
<polygon fill="#edf0f7" stroke="#7f7f7f" points="381,-35 349,-35 349,-16 381,-16 381,-35"/>
<text text-anchor="middle" x="365" y="-23" font-family="Helvetica,sans-Serif" font-size="10.00">xml</text>
</a>
</g>
</g>
<!-- dir_15c5042fe4b0a3c710a68e7faf2f3890&#45;&gt;dir_5cbb9a0bf548abf0d2e32772c73d2ad6 -->
<g id="edge4" class="edge">
<title>dir_15c5042fe4b0a3c710a68e7faf2f3890&#45;&gt;dir_5cbb9a0bf548abf0d2e32772c73d2ad6</title>
<path fill="none" stroke="#63b8ff" d="M197.71,-72.53C230.12,-64.76 283.74,-51.47 338.43,-35.31"/>
<polygon fill="#63b8ff" stroke="#63b8ff" points="339.07,-38.47 347.65,-32.25 337.07,-31.76 339.07,-38.47"/>
<g id="a_edge4&#45;headlabel"><a xlink:href="dir_000020_000059.html" target="_top" xlink:title="2">
<text text-anchor="middle" x="337.44" y="-39.72" font-family="Helvetica,sans-Serif" font-size="10.00" fill="#63b8ff">2</text>
</a>
</g>
</g>
<!-- dir_c541d4b187fc5f863b4735b323978e0f -->
<g id="node8" class="node">
<title>dir_c541d4b187fc5f863b4735b323978e0f</title>
<g id="a_node8"><a xlink:href="dir_c541d4b187fc5f863b4735b323978e0f.html" target="_top" xlink:title="util">
<polygon fill="#edf0f7" stroke="#7f7f7f" points="428.5,-35 399.5,-35 399.5,-16 428.5,-16 428.5,-35"/>
<text text-anchor="middle" x="414" y="-23" font-family="Helvetica,sans-Serif" font-size="10.00">util</text>
</a>
</g>
</g>
<!-- dir_15c5042fe4b0a3c710a68e7faf2f3890&#45;&gt;dir_c541d4b187fc5f863b4735b323978e0f -->
<g id="edge5" class="edge">
<title>dir_15c5042fe4b0a3c710a68e7faf2f3890&#45;&gt;dir_c541d4b187fc5f863b4735b323978e0f</title>
<path fill="none" stroke="#63b8ff" d="M197.76,-74.92C238.73,-68.32 314.93,-54.98 388.73,-35"/>
<polygon fill="#63b8ff" stroke="#63b8ff" points="389.41,-38.17 398.13,-32.14 387.56,-31.42 389.41,-38.17"/>
<g id="a_edge5&#45;headlabel"><a xlink:href="dir_000020_000048.html" target="_top" xlink:title="4">
<text text-anchor="middle" x="387.7" y="-39.36" font-family="Helvetica,sans-Serif" font-size="10.00" fill="#63b8ff">4</text>
</a>
</g>
</g>
<!-- dir_fd1e11fb0964f7346e999e146b0dfd59 -->
<g id="node9" class="node">
<title>dir_fd1e11fb0964f7346e999e146b0dfd59</title>
<g id="a_node9"><a xlink:href="dir_fd1e11fb0964f7346e999e146b0dfd59.html" target="_top" xlink:title="common">
<polygon fill="#edf0f7" stroke="#7f7f7f" points="501,-35 447,-35 447,-16 501,-16 501,-35"/>
<text text-anchor="middle" x="474" y="-23" font-family="Helvetica,sans-Serif" font-size="10.00">common</text>
</a>
</g>
</g>
<!-- dir_15c5042fe4b0a3c710a68e7faf2f3890&#45;&gt;dir_fd1e11fb0964f7346e999e146b0dfd59 -->
<g id="edge8" class="edge">
<title>dir_15c5042fe4b0a3c710a68e7faf2f3890&#45;&gt;dir_fd1e11fb0964f7346e999e146b0dfd59</title>
<path fill="none" stroke="#63b8ff" d="M197.69,-75.29C245.68,-68.33 343.51,-53.55 435.87,-35.31"/>
<polygon fill="#63b8ff" stroke="#63b8ff" points="436.4,-38.58 445.53,-33.19 435.03,-31.71 436.4,-38.58"/>
<g id="a_edge8&#45;headlabel"><a xlink:href="dir_000020_000001.html" target="_top" xlink:title="10">
<text text-anchor="middle" x="434.43" y="-39.57" font-family="Helvetica,sans-Serif" font-size="10.00" fill="#63b8ff">10</text>
</a>
</g>
</g>
</g>
</svg>
