<?xml version="1.0" encoding="UTF-8" standalone="no"?>
<!DOCTYPE svg PUBLIC "-//W3C//DTD SVG 1.1//EN"
 "http://www.w3.org/Graphics/SVG/1.1/DTD/svg11.dtd">
<!-- Generated by graphviz version 8.0.1 (20230327.1645)
 -->
<!-- Title: util Pages: 1 -->
<svg width="390pt" height="133pt"
 viewBox="0.00 0.00 389.50 133.00" xmlns="http://www.w3.org/2000/svg" xmlns:xlink="http://www.w3.org/1999/xlink">
<g id="graph0" class="graph" transform="scale(1 1) rotate(0) translate(4 129)">
<title>util</title>
<g id="clust1" class="cluster">
<title>clusterdir_56d603006930d6f32ca38bb932b49787</title>
<g id="a_clust1"><a xlink:href="dir_56d603006930d6f32ca38bb932b49787.html" target="_top" xlink:title="layout">
<polygon fill="#edf0f7" stroke="#7f7f7f" stroke-dasharray="5,2" points="8,-8 8,-117 140,-117 140,-8 8,-8"/>
<text text-anchor="middle" x="74" y="-105" font-family="Helvetica,sans-Serif" font-size="10.00">layout</text>
</a>
</g>
</g>
<!-- dir_469dd4fe8a06b7a018d55910fd20ec61 -->
<g id="node1" class="node">
<title>dir_469dd4fe8a06b7a018d55910fd20ec61</title>
<g id="a_node1"><a xlink:href="dir_469dd4fe8a06b7a018d55910fd20ec61.html" target="_top" xlink:title="extension">
<polygon fill="#a2b4d6" stroke="#404040" points="75.5,-35 16.5,-35 16.5,-16 75.5,-16 75.5,-35"/>
<text text-anchor="middle" x="46" y="-23" font-family="Helvetica,sans-Serif" font-size="10.00">extension</text>
</a>
</g>
</g>
<!-- dir_88ac4bf79705bb8559b852278d35d8da -->
<g id="node2" class="node">
<title>dir_88ac4bf79705bb8559b852278d35d8da</title>
<g id="a_node2"><a xlink:href="dir_88ac4bf79705bb8559b852278d35d8da.html" target="_top" xlink:title="sbml">
<polygon fill="#a2b4d6" stroke="#404040" points="132,-35 94,-35 94,-16 132,-16 132,-35"/>
<text text-anchor="middle" x="113" y="-23" font-family="Helvetica,sans-Serif" font-size="10.00">sbml</text>
</a>
</g>
</g>
<!-- dir_4843a4f4b536048b06467fd8eed65856 -->
<g id="node3" class="node">
<title>dir_4843a4f4b536048b06467fd8eed65856</title>
<g id="a_node3"><a xlink:href="dir_4843a4f4b536048b06467fd8eed65856.html" target="_top" xlink:title="util">
<polygon fill="#edf0f7" stroke="#404040" stroke-width="2" points="131.5,-90 102.5,-90 102.5,-71 131.5,-71 131.5,-90"/>
<text text-anchor="middle" x="117" y="-78" font-family="Helvetica,sans-Serif" font-size="10.00">util</text>
</a>
</g>
</g>
<!-- dir_4843a4f4b536048b06467fd8eed65856&#45;&gt;dir_469dd4fe8a06b7a018d55910fd20ec61 -->
<g id="edge1" class="edge">
<title>dir_4843a4f4b536048b06467fd8eed65856&#45;&gt;dir_469dd4fe8a06b7a018d55910fd20ec61</title>
<path fill="none" stroke="#63b8ff" d="M104.96,-70.51C94.49,-62.7 79.1,-51.21 66.67,-41.93"/>
<polygon fill="#63b8ff" stroke="#63b8ff" points="68.97,-38.54 58.87,-35.36 64.79,-44.14 68.97,-38.54"/>
<g id="a_edge1&#45;headlabel"><a xlink:href="dir_000046_000019.html" target="_top" xlink:title="2">
<text text-anchor="middle" x="72.55" y="-35.91" font-family="Helvetica,sans-Serif" font-size="10.00" fill="#63b8ff">2</text>
</a>
</g>
</g>
<!-- dir_4843a4f4b536048b06467fd8eed65856&#45;&gt;dir_88ac4bf79705bb8559b852278d35d8da -->
<g id="edge3" class="edge">
<title>dir_4843a4f4b536048b06467fd8eed65856&#45;&gt;dir_88ac4bf79705bb8559b852278d35d8da</title>
<path fill="none" stroke="#63b8ff" d="M116.34,-70.75C115.84,-64.11 115.13,-54.73 114.5,-46.31"/>
<polygon fill="#63b8ff" stroke="#63b8ff" points="117.92,-46.15 113.67,-36.44 110.94,-46.68 117.92,-46.15"/>
<g id="a_edge3&#45;headlabel"><a xlink:href="dir_000046_000037.html" target="_top" xlink:title="3">
<text text-anchor="middle" x="121.02" y="-46.02" font-family="Helvetica,sans-Serif" font-size="10.00" fill="#63b8ff">3</text>
</a>
</g>
</g>
<!-- dir_5cbb9a0bf548abf0d2e32772c73d2ad6 -->
<g id="node4" class="node">
<title>dir_5cbb9a0bf548abf0d2e32772c73d2ad6</title>
<g id="a_node4"><a xlink:href="dir_5cbb9a0bf548abf0d2e32772c73d2ad6.html" target="_top" xlink:title="xml">
<polygon fill="#edf0f7" stroke="#7f7f7f" points="182,-35 150,-35 150,-16 182,-16 182,-35"/>
<text text-anchor="middle" x="166" y="-23" font-family="Helvetica,sans-Serif" font-size="10.00">xml</text>
</a>
</g>
</g>
<!-- dir_4843a4f4b536048b06467fd8eed65856&#45;&gt;dir_5cbb9a0bf548abf0d2e32772c73d2ad6 -->
<g id="edge2" class="edge">
<title>dir_4843a4f4b536048b06467fd8eed65856&#45;&gt;dir_5cbb9a0bf548abf0d2e32772c73d2ad6</title>
<path fill="none" stroke="#63b8ff" d="M125.09,-70.75C131.93,-63.35 141.93,-52.54 150.32,-43.45"/>
<polygon fill="#63b8ff" stroke="#63b8ff" points="152.51,-46.16 156.73,-36.44 147.37,-41.41 152.51,-46.16"/>
<g id="a_edge2&#45;headlabel"><a xlink:href="dir_000046_000059.html" target="_top" xlink:title="6">
<text text-anchor="middle" x="153.16" y="-47.23" font-family="Helvetica,sans-Serif" font-size="10.00" fill="#63b8ff">6</text>
</a>
</g>
</g>
<!-- dir_fd1e11fb0964f7346e999e146b0dfd59 -->
<g id="node5" class="node">
<title>dir_fd1e11fb0964f7346e999e146b0dfd59</title>
<g id="a_node5"><a xlink:href="dir_fd1e11fb0964f7346e999e146b0dfd59.html" target="_top" xlink:title="common">
<polygon fill="#edf0f7" stroke="#7f7f7f" points="254,-35 200,-35 200,-16 254,-16 254,-35"/>
<text text-anchor="middle" x="227" y="-23" font-family="Helvetica,sans-Serif" font-size="10.00">common</text>
</a>
</g>
</g>
<!-- dir_4843a4f4b536048b06467fd8eed65856&#45;&gt;dir_fd1e11fb0964f7346e999e146b0dfd59 -->
<g id="edge6" class="edge">
<title>dir_4843a4f4b536048b06467fd8eed65856&#45;&gt;dir_fd1e11fb0964f7346e999e146b0dfd59</title>
<path fill="none" stroke="#63b8ff" d="M131.84,-72.35C148.87,-64.14 177.2,-50.49 198.54,-40.21"/>
<polygon fill="#63b8ff" stroke="#63b8ff" points="199.88,-42.97 207.37,-35.48 196.84,-36.67 199.88,-42.97"/>
<g id="a_edge6&#45;headlabel"><a xlink:href="dir_000046_000001.html" target="_top" xlink:title="4">
<text text-anchor="middle" x="198.87" y="-44.59" font-family="Helvetica,sans-Serif" font-size="10.00" fill="#63b8ff">4</text>
</a>
</g>
</g>
<!-- dir_909df41e089bc57b29bc62cc6d76d6dc -->
<g id="node6" class="node">
<title>dir_909df41e089bc57b29bc62cc6d76d6dc</title>
<g id="a_node6"><a xlink:href="dir_909df41e089bc57b29bc62cc6d76d6dc.html" target="_top" xlink:title="annotation">
<polygon fill="#edf0f7" stroke="#7f7f7f" points="334,-35 272,-35 272,-16 334,-16 334,-35"/>
<text text-anchor="middle" x="303" y="-23" font-family="Helvetica,sans-Serif" font-size="10.00">annotation</text>
</a>
</g>
</g>
<!-- dir_4843a4f4b536048b06467fd8eed65856&#45;&gt;dir_909df41e089bc57b29bc62cc6d76d6dc -->
<g id="edge4" class="edge">
<title>dir_4843a4f4b536048b06467fd8eed65856&#45;&gt;dir_909df41e089bc57b29bc62cc6d76d6dc</title>
<path fill="none" stroke="#63b8ff" d="M131.91,-75.25C159.6,-67.36 219.91,-50.18 261,-38.47"/>
<polygon fill="#63b8ff" stroke="#63b8ff" points="261.86,-41.58 270.52,-35.47 259.94,-34.85 261.86,-41.58"/>
<g id="a_edge4&#45;headlabel"><a xlink:href="dir_000046_000000.html" target="_top" xlink:title="1">
<text text-anchor="middle" x="260.18" y="-42.79" font-family="Helvetica,sans-Serif" font-size="10.00" fill="#63b8ff">1</text>
</a>
</g>
</g>
<!-- dir_c541d4b187fc5f863b4735b323978e0f -->
<g id="node7" class="node">
<title>dir_c541d4b187fc5f863b4735b323978e0f</title>
<g id="a_node7"><a xlink:href="dir_c541d4b187fc5f863b4735b323978e0f.html" target="_top" xlink:title="util">
<polygon fill="#edf0f7" stroke="#7f7f7f" points="381.5,-35 352.5,-35 352.5,-16 381.5,-16 381.5,-35"/>
<text text-anchor="middle" x="367" y="-23" font-family="Helvetica,sans-Serif" font-size="10.00">util</text>
</a>
</g>
</g>
<!-- dir_4843a4f4b536048b06467fd8eed65856&#45;&gt;dir_c541d4b187fc5f863b4735b323978e0f -->
<g id="edge5" class="edge">
<title>dir_4843a4f4b536048b06467fd8eed65856&#45;&gt;dir_c541d4b187fc5f863b4735b323978e0f</title>
<path fill="none" stroke="#63b8ff" d="M131.98,-77.33C167.01,-72.08 257.1,-57.67 341.59,-35.02"/>
<polygon fill="#63b8ff" stroke="#63b8ff" points="342.4,-38.16 351.13,-32.15 340.56,-31.4 342.4,-38.16"/>
<g id="a_edge5&#45;headlabel"><a xlink:href="dir_000046_000048.html" target="_top" xlink:title="2">
<text text-anchor="middle" x="340.68" y="-39.34" font-family="Helvetica,sans-Serif" font-size="10.00" fill="#63b8ff">2</text>
</a>
</g>
</g>
</g>
</svg>
