<?xml version="1.0" encoding="UTF-8" standalone="no"?>
<!DOCTYPE svg PUBLIC "-//W3C//DTD SVG 1.1//EN"
 "http://www.w3.org/Graphics/SVG/1.1/DTD/svg11.dtd">
<!-- Generated by graphviz version 8.0.1 (20230327.1645)
 -->
<!-- Title: util Pages: 1 -->
<svg width="366pt" height="133pt"
 viewBox="0.00 0.00 366.00 133.00" xmlns="http://www.w3.org/2000/svg" xmlns:xlink="http://www.w3.org/1999/xlink">
<g id="graph0" class="graph" transform="scale(1 1) rotate(0) translate(4 129)">
<title>util</title>
<g id="clust1" class="cluster">
<title>clusterdir_7b03e134e134ebc1f6457862e207af52</title>
<g id="a_clust1"><a xlink:href="dir_7b03e134e134ebc1f6457862e207af52.html" target="_top" xlink:title="fbc">
<polygon fill="#edf0f7" stroke="#7f7f7f" stroke-dasharray="5,2" points="8,-8 8,-117 78,-117 78,-8 8,-8"/>
<text text-anchor="middle" x="43" y="-105" font-family="Helvetica,sans-Serif" font-size="10.00">fbc</text>
</a>
</g>
</g>
<!-- dir_496e4851956202bb45315fe7c1680ab4 -->
<g id="node1" class="node">
<title>dir_496e4851956202bb45315fe7c1680ab4</title>
<g id="a_node1"><a xlink:href="dir_496e4851956202bb45315fe7c1680ab4.html" target="_top" xlink:title="common">
<polygon fill="#a2b4d6" stroke="#404040" points="70,-35 16,-35 16,-16 70,-16 70,-35"/>
<text text-anchor="middle" x="43" y="-23" font-family="Helvetica,sans-Serif" font-size="10.00">common</text>
</a>
</g>
</g>
<!-- dir_00f765e93311d284ad467d6a6503d92c -->
<g id="node2" class="node">
<title>dir_00f765e93311d284ad467d6a6503d92c</title>
<g id="a_node2"><a xlink:href="dir_00f765e93311d284ad467d6a6503d92c.html" target="_top" xlink:title="util">
<polygon fill="#edf0f7" stroke="#404040" stroke-width="2" points="69.5,-90 40.5,-90 40.5,-71 69.5,-71 69.5,-90"/>
<text text-anchor="middle" x="55" y="-78" font-family="Helvetica,sans-Serif" font-size="10.00">util</text>
</a>
</g>
</g>
<!-- dir_00f765e93311d284ad467d6a6503d92c&#45;&gt;dir_496e4851956202bb45315fe7c1680ab4 -->
<g id="edge3" class="edge">
<title>dir_00f765e93311d284ad467d6a6503d92c&#45;&gt;dir_496e4851956202bb45315fe7c1680ab4</title>
<path fill="none" stroke="#63b8ff" d="M53.02,-70.75C51.5,-64.04 49.34,-54.52 47.42,-46.02"/>
<polygon fill="#63b8ff" stroke="#63b8ff" points="50.65,-45.42 45.02,-36.44 43.82,-46.97 50.65,-45.42"/>
<g id="a_edge3&#45;headlabel"><a xlink:href="dir_000045_000004.html" target="_top" xlink:title="4">
<text text-anchor="middle" x="54.21" y="-44.8" font-family="Helvetica,sans-Serif" font-size="10.00" fill="#63b8ff">4</text>
</a>
</g>
</g>
<!-- dir_3f96c34ad80e9031c68706862fabf1a4 -->
<g id="node3" class="node">
<title>dir_3f96c34ad80e9031c68706862fabf1a4</title>
<g id="a_node3"><a xlink:href="dir_3f96c34ad80e9031c68706862fabf1a4.html" target="_top" xlink:title="extension">
<polygon fill="#edf0f7" stroke="#7f7f7f" points="147.5,-35 88.5,-35 88.5,-16 147.5,-16 147.5,-35"/>
<text text-anchor="middle" x="118" y="-23" font-family="Helvetica,sans-Serif" font-size="10.00">extension</text>
</a>
</g>
</g>
<!-- dir_00f765e93311d284ad467d6a6503d92c&#45;&gt;dir_3f96c34ad80e9031c68706862fabf1a4 -->
<g id="edge1" class="edge">
<title>dir_00f765e93311d284ad467d6a6503d92c&#45;&gt;dir_3f96c34ad80e9031c68706862fabf1a4</title>
<path fill="none" stroke="#63b8ff" d="M65.69,-70.51C74.88,-62.77 88.36,-51.43 99.34,-42.2"/>
<polygon fill="#63b8ff" stroke="#63b8ff" points="101.07,-44.47 106.47,-35.36 96.57,-39.12 101.07,-44.47"/>
<g id="a_edge1&#45;headlabel"><a xlink:href="dir_000045_000014.html" target="_top" xlink:title="8">
<text text-anchor="middle" x="101.15" y="-46.46" font-family="Helvetica,sans-Serif" font-size="10.00" fill="#63b8ff">8</text>
</a>
</g>
</g>
<!-- dir_fd1e11fb0964f7346e999e146b0dfd59 -->
<g id="node4" class="node">
<title>dir_fd1e11fb0964f7346e999e146b0dfd59</title>
<g id="a_node4"><a xlink:href="dir_fd1e11fb0964f7346e999e146b0dfd59.html" target="_top" xlink:title="common">
<polygon fill="#edf0f7" stroke="#7f7f7f" points="220,-35 166,-35 166,-16 220,-16 220,-35"/>
<text text-anchor="middle" x="193" y="-23" font-family="Helvetica,sans-Serif" font-size="10.00">common</text>
</a>
</g>
</g>
<!-- dir_00f765e93311d284ad467d6a6503d92c&#45;&gt;dir_fd1e11fb0964f7346e999e146b0dfd59 -->
<g id="edge5" class="edge">
<title>dir_00f765e93311d284ad467d6a6503d92c&#45;&gt;dir_fd1e11fb0964f7346e999e146b0dfd59</title>
<path fill="none" stroke="#63b8ff" d="M69.77,-73.83C91.07,-65.65 131,-50.31 159.64,-39.31"/>
<polygon fill="#63b8ff" stroke="#63b8ff" points="160.55,-42.33 168.63,-35.48 158.04,-35.79 160.55,-42.33"/>
<g id="a_edge5&#45;headlabel"><a xlink:href="dir_000045_000001.html" target="_top" xlink:title="8">
<text text-anchor="middle" x="159.21" y="-43.77" font-family="Helvetica,sans-Serif" font-size="10.00" fill="#63b8ff">8</text>
</a>
</g>
</g>
<!-- dir_d3b86ce335ad818909ececff0fac1eca -->
<g id="node5" class="node">
<title>dir_d3b86ce335ad818909ececff0fac1eca</title>
<g id="a_node5"><a xlink:href="dir_d3b86ce335ad818909ececff0fac1eca.html" target="_top" xlink:title="conversion">
<polygon fill="#edf0f7" stroke="#7f7f7f" points="302,-35 238,-35 238,-16 302,-16 302,-35"/>
<text text-anchor="middle" x="270" y="-23" font-family="Helvetica,sans-Serif" font-size="10.00">conversion</text>
</a>
</g>
</g>
<!-- dir_00f765e93311d284ad467d6a6503d92c&#45;&gt;dir_d3b86ce335ad818909ececff0fac1eca -->
<g id="edge4" class="edge">
<title>dir_00f765e93311d284ad467d6a6503d92c&#45;&gt;dir_d3b86ce335ad818909ececff0fac1eca</title>
<path fill="none" stroke="#63b8ff" d="M69.78,-75.86C101.79,-67.96 178.59,-49.03 227.23,-37.04"/>
<polygon fill="#63b8ff" stroke="#63b8ff" points="227.88,-40.24 236.75,-34.45 226.2,-33.45 227.88,-40.24"/>
<g id="a_edge4&#45;headlabel"><a xlink:href="dir_000045_000012.html" target="_top" xlink:title="20">
<text text-anchor="middle" x="226.07" y="-41.36" font-family="Helvetica,sans-Serif" font-size="10.00" fill="#63b8ff">20</text>
</a>
</g>
</g>
<!-- dir_48ff6375d03f1aa509a6e0480f966544 -->
<g id="node6" class="node">
<title>dir_48ff6375d03f1aa509a6e0480f966544</title>
<g id="a_node6"><a xlink:href="dir_48ff6375d03f1aa509a6e0480f966544.html" target="_top" xlink:title="math">
<polygon fill="#edf0f7" stroke="#7f7f7f" points="358,-35 320,-35 320,-16 358,-16 358,-35"/>
<text text-anchor="middle" x="339" y="-23" font-family="Helvetica,sans-Serif" font-size="10.00">math</text>
</a>
</g>
</g>
<!-- dir_00f765e93311d284ad467d6a6503d92c&#45;&gt;dir_48ff6375d03f1aa509a6e0480f966544 -->
<g id="edge2" class="edge">
<title>dir_00f765e93311d284ad467d6a6503d92c&#45;&gt;dir_48ff6375d03f1aa509a6e0480f966544</title>
<path fill="none" stroke="#63b8ff" d="M69.85,-77.57C107.99,-72.47 212.66,-57.64 309.01,-35.23"/>
<polygon fill="#63b8ff" stroke="#63b8ff" points="309.57,-38.46 318.5,-32.75 307.96,-31.65 309.57,-38.46"/>
<g id="a_edge2&#45;headlabel"><a xlink:href="dir_000045_000027.html" target="_top" xlink:title="3">
<text text-anchor="middle" x="307.73" y="-39.55" font-family="Helvetica,sans-Serif" font-size="10.00" fill="#63b8ff">3</text>
</a>
</g>
</g>
</g>
</svg>
