<?xml version="1.0" encoding="UTF-8" standalone="no"?>
<!DOCTYPE svg PUBLIC "-//W3C//DTD SVG 1.1//EN"
 "http://www.w3.org/Graphics/SVG/1.1/DTD/svg11.dtd">
<!-- Generated by graphviz version 8.0.1 (20230327.1645)
 -->
<!-- Title: common Pages: 1 -->
<svg width="156pt" height="133pt"
 viewBox="0.00 0.00 156.00 133.00" xmlns="http://www.w3.org/2000/svg" xmlns:xlink="http://www.w3.org/1999/xlink">
<g id="graph0" class="graph" transform="scale(1 1) rotate(0) translate(4 129)">
<title>common</title>
<g id="clust1" class="cluster">
<title>clusterdir_56d603006930d6f32ca38bb932b49787</title>
<g id="a_clust1"><a xlink:href="dir_56d603006930d6f32ca38bb932b49787.html" target="_top" xlink:title="layout">
<polygon fill="#edf0f7" stroke="#7f7f7f" stroke-dasharray="5,2" points="8,-8 8,-117 140,-117 140,-8 8,-8"/>
<text text-anchor="middle" x="74" y="-105" font-family="Helvetica,sans-Serif" font-size="10.00">layout</text>
</a>
</g>
</g>
<!-- dir_469dd4fe8a06b7a018d55910fd20ec61 -->
<g id="node1" class="node">
<title>dir_469dd4fe8a06b7a018d55910fd20ec61</title>
<g id="a_node1"><a xlink:href="dir_469dd4fe8a06b7a018d55910fd20ec61.html" target="_top" xlink:title="extension">
<polygon fill="#a2b4d6" stroke="#404040" points="75.5,-35 16.5,-35 16.5,-16 75.5,-16 75.5,-35"/>
<text text-anchor="middle" x="46" y="-23" font-family="Helvetica,sans-Serif" font-size="10.00">extension</text>
</a>
</g>
</g>
<!-- dir_88ac4bf79705bb8559b852278d35d8da -->
<g id="node2" class="node">
<title>dir_88ac4bf79705bb8559b852278d35d8da</title>
<g id="a_node2"><a xlink:href="dir_88ac4bf79705bb8559b852278d35d8da.html" target="_top" xlink:title="sbml">
<polygon fill="#a2b4d6" stroke="#404040" points="132,-35 94,-35 94,-16 132,-16 132,-35"/>
<text text-anchor="middle" x="113" y="-23" font-family="Helvetica,sans-Serif" font-size="10.00">sbml</text>
</a>
</g>
</g>
<!-- dir_e8a3015d30ced03ce97057fe372cd335 -->
<g id="node3" class="node">
<title>dir_e8a3015d30ced03ce97057fe372cd335</title>
<g id="a_node3"><a xlink:href="dir_e8a3015d30ced03ce97057fe372cd335.html" target="_top" xlink:title="common">
<polygon fill="#edf0f7" stroke="#404040" stroke-width="2" points="102,-90 48,-90 48,-71 102,-71 102,-90"/>
<text text-anchor="middle" x="75" y="-78" font-family="Helvetica,sans-Serif" font-size="10.00">common</text>
</a>
</g>
</g>
<!-- dir_e8a3015d30ced03ce97057fe372cd335&#45;&gt;dir_469dd4fe8a06b7a018d55910fd20ec61 -->
<g id="edge1" class="edge">
<title>dir_e8a3015d30ced03ce97057fe372cd335&#45;&gt;dir_469dd4fe8a06b7a018d55910fd20ec61</title>
<path fill="none" stroke="#63b8ff" d="M70.21,-70.75C66.37,-63.73 60.85,-53.64 56.05,-44.87"/>
<polygon fill="#63b8ff" stroke="#63b8ff" points="58.76,-43.53 50.89,-36.44 52.62,-46.89 58.76,-43.53"/>
<g id="a_edge1&#45;headlabel"><a xlink:href="dir_000006_000019.html" target="_top" xlink:title="3">
<text text-anchor="middle" x="62.98" y="-41.83" font-family="Helvetica,sans-Serif" font-size="10.00" fill="#63b8ff">3</text>
</a>
</g>
</g>
<!-- dir_e8a3015d30ced03ce97057fe372cd335&#45;&gt;dir_88ac4bf79705bb8559b852278d35d8da -->
<g id="edge2" class="edge">
<title>dir_e8a3015d30ced03ce97057fe372cd335&#45;&gt;dir_88ac4bf79705bb8559b852278d35d8da</title>
<path fill="none" stroke="#63b8ff" d="M81.27,-70.75C86.41,-63.58 93.85,-53.2 100.24,-44.3"/>
<polygon fill="#63b8ff" stroke="#63b8ff" points="103.61,-46.61 106.59,-36.44 97.92,-42.53 103.61,-46.61"/>
<g id="a_edge2&#45;headlabel"><a xlink:href="dir_000006_000037.html" target="_top" xlink:title="16">
<text text-anchor="middle" x="103.82" y="-47.68" font-family="Helvetica,sans-Serif" font-size="10.00" fill="#63b8ff">16</text>
</a>
</g>
</g>
</g>
</svg>
