<?xml version="1.0" encoding="UTF-8" standalone="no"?>
<!DOCTYPE svg PUBLIC "-//W3C//DTD SVG 1.1//EN"
 "http://www.w3.org/Graphics/SVG/1.1/DTD/svg11.dtd">
<!-- Generated by graphviz version 8.0.1 (20230327.1645)
 -->
<!-- Title: groupsfwd.h Pages: 1 -->
<svg width="492pt" height="412pt"
 viewBox="0.00 0.00 491.50 412.00" xmlns="http://www.w3.org/2000/svg" xmlns:xlink="http://www.w3.org/1999/xlink">
<g id="graph0" class="graph" transform="scale(1 1) rotate(0) translate(4 408)">
<title>groupsfwd.h</title>
<!-- Node1 -->
<g id="node1" class="node">
<title>Node1</title>
<g id="a_node1"><a xlink:title="Definition of groupsfwd.">
<polygon fill="#999999" stroke="#666666" points="232,-404 162,-404 162,-385 232,-385 232,-404"/>
<text text-anchor="middle" x="197" y="-392" font-family="Helvetica,sans-Serif" font-size="10.00">groupsfwd.h</text>
</a>
</g>
</g>
<!-- Node2 -->
<g id="node2" class="node">
<title>Node2</title>
<g id="a_node2"><a xlink:href="_group_8h.html" target="_top" xlink:title="Definition of the Group class.">
<polygon fill="white" stroke="#666666" points="325.5,-239 274.5,-239 274.5,-220 325.5,-220 325.5,-239"/>
<text text-anchor="middle" x="300" y="-227" font-family="Helvetica,sans-Serif" font-size="10.00">Group.h</text>
</a>
</g>
</g>
<!-- Node1&#45;&gt;Node2 -->
<g id="edge1" class="edge">
<title>Node1&#45;&gt;Node2</title>
<path fill="none" stroke="#63b8ff" d="M208.23,-375.73C230.19,-340.97 278.12,-265.12 294.43,-239.31"/>
<polygon fill="#63b8ff" stroke="#63b8ff" points="204.92,-373.41 202.54,-383.74 210.84,-377.15 204.92,-373.41"/>
</g>
<!-- Node4 -->
<g id="node4" class="node">
<title>Node4</title>
<g id="a_node4"><a xlink:href="_groups_extension_types_8h.html" target="_top" xlink:title="Definition of GroupsExtensionTypes.">
<polygon fill="white" stroke="#666666" points="142,-74 16,-74 16,-55 142,-55 142,-74"/>
<text text-anchor="middle" x="79" y="-62" font-family="Helvetica,sans-Serif" font-size="10.00">GroupsExtensionTypes.h</text>
</a>
</g>
</g>
<!-- Node1&#45;&gt;Node4 -->
<g id="edge13" class="edge">
<title>Node1&#45;&gt;Node4</title>
<path fill="none" stroke="#63b8ff" d="M150.99,-388.51C92.77,-379.36 0,-354.02 0,-285.5 0,-285.5 0,-285.5 0,-173.5 0,-129.13 43.98,-90.85 66.31,-74.27"/>
<polygon fill="#63b8ff" stroke="#63b8ff" points="150.38,-392.11 160.78,-390.09 151.39,-385.18 150.38,-392.11"/>
</g>
<!-- Node9 -->
<g id="node9" class="node">
<title>Node9</title>
<g id="a_node9"><a xlink:href="_list_of_groups_8h.html" target="_top" xlink:title="Definition of the ListOfGroups class.">
<polygon fill="white" stroke="#666666" points="395.5,-184 312.5,-184 312.5,-165 395.5,-165 395.5,-184"/>
<text text-anchor="middle" x="354" y="-172" font-family="Helvetica,sans-Serif" font-size="10.00">ListOfGroups.h</text>
</a>
</g>
</g>
<!-- Node1&#45;&gt;Node9 -->
<g id="edge14" class="edge">
<title>Node1&#45;&gt;Node9</title>
<path fill="none" stroke="#63b8ff" d="M216.06,-377.51C245.79,-351.54 302.97,-297.19 334,-239 343.79,-220.64 349.7,-196.71 352.35,-184.11"/>
<polygon fill="#63b8ff" stroke="#63b8ff" points="214.08,-375.46 208.78,-384.63 218.65,-380.77 214.08,-375.46"/>
</g>
<!-- Node11 -->
<g id="node11" class="node">
<title>Node11</title>
<g id="a_node11"><a xlink:href="_list_of_members_8h.html" target="_top" xlink:title="Definition of the ListOfMembers class.">
<polygon fill="white" stroke="#666666" points="243,-294 151,-294 151,-275 243,-275 243,-294"/>
<text text-anchor="middle" x="197" y="-282" font-family="Helvetica,sans-Serif" font-size="10.00">ListOfMembers.h</text>
</a>
</g>
</g>
<!-- Node1&#45;&gt;Node11 -->
<g id="edge15" class="edge">
<title>Node1&#45;&gt;Node11</title>
<path fill="none" stroke="#63b8ff" d="M197,-373.9C197,-350.33 197,-311.81 197,-294.46"/>
<polygon fill="#63b8ff" stroke="#63b8ff" points="193.5,-373.66 197,-383.66 200.5,-373.66 193.5,-373.66"/>
</g>
<!-- Node14 -->
<g id="node14" class="node">
<title>Node14</title>
<g id="a_node14"><a xlink:href="_member_8h.html" target="_top" xlink:title="Definition of the Member class.">
<polygon fill="white" stroke="#666666" points="152.5,-349 93.5,-349 93.5,-330 152.5,-330 152.5,-349"/>
<text text-anchor="middle" x="123" y="-337" font-family="Helvetica,sans-Serif" font-size="10.00">Member.h</text>
</a>
</g>
</g>
<!-- Node1&#45;&gt;Node14 -->
<g id="edge19" class="edge">
<title>Node1&#45;&gt;Node14</title>
<path fill="none" stroke="#63b8ff" d="M175.62,-378.19C162.56,-368.84 146.32,-357.21 135.37,-349.36"/>
<polygon fill="#63b8ff" stroke="#63b8ff" points="173.28,-381.53 183.45,-384.51 177.35,-375.84 173.28,-381.53"/>
</g>
<!-- Node3 -->
<g id="node3" class="node">
<title>Node3</title>
<g id="a_node3"><a xlink:href="_group_8cpp.html" target="_top" xlink:title="Implementation of the Group class.">
<polygon fill="white" stroke="#666666" points="244,-129 182,-129 182,-110 244,-110 244,-129"/>
<text text-anchor="middle" x="213" y="-117" font-family="Helvetica,sans-Serif" font-size="10.00">Group.cpp</text>
</a>
</g>
</g>
<!-- Node2&#45;&gt;Node3 -->
<g id="edge2" class="edge">
<title>Node2&#45;&gt;Node3</title>
<path fill="none" stroke="#63b8ff" d="M286,-211.12C267.24,-187.83 234.64,-147.36 220.22,-129.46"/>
<polygon fill="#63b8ff" stroke="#63b8ff" points="283.88,-213.07 292.88,-218.66 289.33,-208.68 283.88,-213.07"/>
</g>
<!-- Node2&#45;&gt;Node4 -->
<g id="edge3" class="edge">
<title>Node2&#45;&gt;Node4</title>
<path fill="none" stroke="#63b8ff" d="M279.08,-213.07C233.66,-179.57 127.18,-101.04 91.16,-74.47"/>
<polygon fill="#63b8ff" stroke="#63b8ff" points="276.68,-216.39 286.8,-219.5 280.83,-210.75 276.68,-216.39"/>
</g>
<!-- Node6 -->
<g id="node6" class="node">
<title>Node6</title>
<g id="a_node6"><a xlink:href="_groups_model_plugin_8h.html" target="_top" xlink:title="Definition of the GroupsModelPlugin class.">
<polygon fill="white" stroke="#666666" points="372,-129 262,-129 262,-110 372,-110 372,-129"/>
<text text-anchor="middle" x="317" y="-117" font-family="Helvetica,sans-Serif" font-size="10.00">GroupsModelPlugin.h</text>
</a>
</g>
</g>
<!-- Node2&#45;&gt;Node6 -->
<g id="edge5" class="edge">
<title>Node2&#45;&gt;Node6</title>
<path fill="none" stroke="#63b8ff" d="M299.63,-209.15C299.7,-196.5 300.39,-179.66 303,-165 305.27,-152.24 310.17,-138.05 313.53,-129.2"/>
<polygon fill="#63b8ff" stroke="#63b8ff" points="296.13,-208.82 299.71,-218.79 303.13,-208.77 296.13,-208.82"/>
</g>
<!-- Node2&#45;&gt;Node9 -->
<g id="edge9" class="edge">
<title>Node2&#45;&gt;Node9</title>
<path fill="none" stroke="#63b8ff" d="M316.75,-212.06C326.04,-202.95 337.22,-191.97 344.89,-184.44"/>
<polygon fill="#63b8ff" stroke="#63b8ff" points="314.6,-209.25 309.92,-218.75 319.51,-214.24 314.6,-209.25"/>
</g>
<!-- Node5 -->
<g id="node5" class="node">
<title>Node5</title>
<g id="a_node5"><a xlink:href="_groups_validator_8cpp.html" target="_top" xlink:title="Definition of GroupsValidator.">
<polygon fill="white" stroke="#666666" points="131,-19 27,-19 27,0 131,0 131,-19"/>
<text text-anchor="middle" x="79" y="-7" font-family="Helvetica,sans-Serif" font-size="10.00">GroupsValidator.cpp</text>
</a>
</g>
</g>
<!-- Node4&#45;&gt;Node5 -->
<g id="edge4" class="edge">
<title>Node4&#45;&gt;Node5</title>
<path fill="none" stroke="#63b8ff" d="M79,-43.93C79,-35.53 79,-26.13 79,-19.44"/>
<polygon fill="#63b8ff" stroke="#63b8ff" points="75.5,-43.75 79,-53.75 82.5,-43.75 75.5,-43.75"/>
</g>
<!-- Node6&#45;&gt;Node4 -->
<g id="edge7" class="edge">
<title>Node6&#45;&gt;Node4</title>
<path fill="none" stroke="#63b8ff" d="M265.89,-107.12C221.99,-97.34 159.57,-83.44 119.17,-74.45"/>
<polygon fill="#63b8ff" stroke="#63b8ff" points="265.1,-110.75 275.63,-109.51 266.63,-103.92 265.1,-110.75"/>
</g>
<!-- Node7 -->
<g id="node7" class="node">
<title>Node7</title>
<g id="a_node7"><a xlink:href="_groups_extension_8cpp.html" target="_top" xlink:title="Implementation of GroupsExtension.">
<polygon fill="white" stroke="#666666" points="440,-74 330,-74 330,-55 440,-55 440,-74"/>
<text text-anchor="middle" x="385" y="-62" font-family="Helvetica,sans-Serif" font-size="10.00">GroupsExtension.cpp</text>
</a>
</g>
</g>
<!-- Node6&#45;&gt;Node7 -->
<g id="edge6" class="edge">
<title>Node6&#45;&gt;Node7</title>
<path fill="none" stroke="#63b8ff" d="M337,-102.92C348.93,-93.61 363.66,-82.13 373.64,-74.36"/>
<polygon fill="#63b8ff" stroke="#63b8ff" points="335.27,-100.6 329.54,-109.51 339.57,-106.12 335.27,-100.6"/>
</g>
<!-- Node8 -->
<g id="node8" class="node">
<title>Node8</title>
<g id="a_node8"><a xlink:href="_groups_model_plugin_8cpp.html" target="_top" xlink:title="Implementation of the GroupsModelPlugin class.">
<polygon fill="white" stroke="#666666" points="312,-74 192,-74 192,-55 312,-55 312,-74"/>
<text text-anchor="middle" x="252" y="-62" font-family="Helvetica,sans-Serif" font-size="10.00">GroupsModelPlugin.cpp</text>
</a>
</g>
</g>
<!-- Node6&#45;&gt;Node8 -->
<g id="edge8" class="edge">
<title>Node6&#45;&gt;Node8</title>
<path fill="none" stroke="#63b8ff" d="M297.55,-102.64C286.2,-93.39 272.3,-82.05 262.86,-74.36"/>
<polygon fill="#63b8ff" stroke="#63b8ff" points="295.01,-105.9 304.97,-109.51 299.44,-100.48 295.01,-105.9"/>
</g>
<!-- Node9&#45;&gt;Node3 -->
<g id="edge10" class="edge">
<title>Node9&#45;&gt;Node3</title>
<path fill="none" stroke="#63b8ff" d="M319.98,-160.71C294.18,-151.01 259.37,-137.93 236.57,-129.36"/>
<polygon fill="#63b8ff" stroke="#63b8ff" points="318.49,-164.27 329.08,-164.51 320.95,-157.71 318.49,-164.27"/>
</g>
<!-- Node9&#45;&gt;Node6 -->
<g id="edge11" class="edge">
<title>Node9&#45;&gt;Node6</title>
<path fill="none" stroke="#63b8ff" d="M341.74,-155.93C335.54,-147.06 328.29,-136.67 323.24,-129.44"/>
<polygon fill="#63b8ff" stroke="#63b8ff" points="339.3,-157.55 347.89,-163.75 345.04,-153.55 339.3,-157.55"/>
</g>
<!-- Node10 -->
<g id="node10" class="node">
<title>Node10</title>
<g id="a_node10"><a xlink:href="_list_of_groups_8cpp.html" target="_top" xlink:title="Implementation of the ListOfGroups class.">
<polygon fill="white" stroke="#666666" points="483.5,-129 390.5,-129 390.5,-110 483.5,-110 483.5,-129"/>
<text text-anchor="middle" x="437" y="-117" font-family="Helvetica,sans-Serif" font-size="10.00">ListOfGroups.cpp</text>
</a>
</g>
</g>
<!-- Node9&#45;&gt;Node10 -->
<g id="edge12" class="edge">
<title>Node9&#45;&gt;Node10</title>
<path fill="none" stroke="#63b8ff" d="M377.13,-158.73C391.92,-149.29 410.6,-137.36 423.13,-129.36"/>
<polygon fill="#63b8ff" stroke="#63b8ff" points="375.62,-156.18 369.08,-164.51 379.39,-162.08 375.62,-156.18"/>
</g>
<!-- Node11&#45;&gt;Node2 -->
<g id="edge16" class="edge">
<title>Node11&#45;&gt;Node2</title>
<path fill="none" stroke="#63b8ff" d="M224.14,-269.53C242.72,-259.97 266.79,-247.59 282.79,-239.36"/>
<polygon fill="#63b8ff" stroke="#63b8ff" points="222.76,-266.82 215.47,-274.51 225.97,-273.05 222.76,-266.82"/>
</g>
<!-- Node12 -->
<g id="node12" class="node">
<title>Node12</title>
<g id="a_node12"><a xlink:href="_list_of_members_8cpp.html" target="_top" xlink:title="Implementation of the ListOfMembers class.">
<polygon fill="white" stroke="#666666" points="256,-239 154,-239 154,-220 256,-220 256,-239"/>
<text text-anchor="middle" x="205" y="-227" font-family="Helvetica,sans-Serif" font-size="10.00">ListOfMembers.cpp</text>
</a>
</g>
</g>
<!-- Node11&#45;&gt;Node12 -->
<g id="edge17" class="edge">
<title>Node11&#45;&gt;Node12</title>
<path fill="none" stroke="#63b8ff" d="M199.95,-263.93C201.22,-255.53 202.64,-246.13 203.65,-239.44"/>
<polygon fill="#63b8ff" stroke="#63b8ff" points="196.35,-263.34 198.32,-273.75 203.27,-264.38 196.35,-263.34"/>
</g>
<!-- Node13 -->
<g id="node13" class="node">
<title>Node13</title>
<g id="a_node13"><a xlink:href="_member_8cpp.html" target="_top" xlink:title="Implementation of the Member class.">
<polygon fill="white" stroke="#666666" points="136,-239 66,-239 66,-220 136,-220 136,-239"/>
<text text-anchor="middle" x="101" y="-227" font-family="Helvetica,sans-Serif" font-size="10.00">Member.cpp</text>
</a>
</g>
</g>
<!-- Node11&#45;&gt;Node13 -->
<g id="edge18" class="edge">
<title>Node11&#45;&gt;Node13</title>
<path fill="none" stroke="#63b8ff" d="M171.22,-269.27C153.97,-259.74 131.81,-247.51 117.04,-239.36"/>
<polygon fill="#63b8ff" stroke="#63b8ff" points="169.27,-272.74 179.71,-274.51 172.65,-266.61 169.27,-272.74"/>
</g>
<!-- Node14&#45;&gt;Node4 -->
<g id="edge20" class="edge">
<title>Node14&#45;&gt;Node4</title>
<path fill="none" stroke="#63b8ff" d="M99.99,-323.36C74.81,-304.76 38,-270.7 38,-230.5 38,-230.5 38,-230.5 38,-173.5 38,-134.39 61.79,-92.2 73.13,-74.31"/>
<polygon fill="#63b8ff" stroke="#63b8ff" points="97.78,-326.79 107.96,-329.71 101.82,-321.07 97.78,-326.79"/>
</g>
<!-- Node14&#45;&gt;Node11 -->
<g id="edge21" class="edge">
<title>Node14&#45;&gt;Node11</title>
<path fill="none" stroke="#63b8ff" d="M144.38,-323.19C157.44,-313.84 173.68,-302.21 184.63,-294.36"/>
<polygon fill="#63b8ff" stroke="#63b8ff" points="142.65,-320.84 136.55,-329.51 146.72,-326.53 142.65,-320.84"/>
</g>
<!-- Node14&#45;&gt;Node13 -->
<g id="edge22" class="edge">
<title>Node14&#45;&gt;Node13</title>
<path fill="none" stroke="#63b8ff" d="M119.01,-318.9C114.21,-295.33 106.36,-256.81 102.83,-239.46"/>
<polygon fill="#63b8ff" stroke="#63b8ff" points="115.77,-319.56 121.2,-328.66 122.63,-318.16 115.77,-319.56"/>
</g>
</g>
</svg>
