<?xml version="1.0" encoding="UTF-8" standalone="no"?>
<!DOCTYPE svg PUBLIC "-//W3C//DTD SVG 1.1//EN"
 "http://www.w3.org/Graphics/SVG/1.1/DTD/svg11.dtd">
<!-- Generated by graphviz version 8.0.1 (20230327.1645)
 -->
<!-- Title: Graphical Class Hierarchy Pages: 1 -->
<svg width="223pt" height="323pt"
 viewBox="0.00 0.00 223.00 323.00" xmlns="http://www.w3.org/2000/svg" xmlns:xlink="http://www.w3.org/1999/xlink">
<g id="graph0" class="graph" transform="scale(1 1) rotate(0) translate(4 319)">
<title>Graphical Class Hierarchy</title>
<!-- Node0 -->
<g id="node1" class="node">
<title>Node0</title>
<g id="a_node1"><a xlink:href="class_s_b_m_l_extension.html" target="_top" xlink:title=" ">
<polygon fill="white" stroke="#666666" points="87,-167 0,-167 0,-148 87,-148 87,-167"/>
<text text-anchor="middle" x="43.5" y="-155" font-family="Helvetica,sans-Serif" font-size="10.00">SBMLExtension</text>
</a>
</g>
</g>
<!-- Node1 -->
<g id="node2" class="node">
<title>Node1</title>
<g id="a_node2"><a xlink:href="class_comp_extension.html" target="_top" xlink:title=" ">
<polygon fill="white" stroke="#666666" points="212,-315 126,-315 126,-296 212,-296 212,-315"/>
<text text-anchor="middle" x="169" y="-303" font-family="Helvetica,sans-Serif" font-size="10.00">CompExtension</text>
</a>
</g>
</g>
<!-- Node0&#45;&gt;Node1 -->
<g id="edge1" class="edge">
<title>Node0&#45;&gt;Node1</title>
<path fill="none" stroke="#63b8ff" d="M51.88,-177.69C63.14,-205.9 87.14,-257.05 123,-287.5 126.72,-290.66 131.06,-293.31 135.56,-295.52"/>
<polygon fill="#63b8ff" stroke="#63b8ff" points="54.8,-176.54 47.96,-168.45 48.27,-179.04 54.8,-176.54"/>
</g>
<!-- Node2 -->
<g id="node3" class="node">
<title>Node2</title>
<g id="a_node3"><a xlink:href="class_distrib_extension.html" target="_top" xlink:title=" ">
<polygon fill="white" stroke="#666666" points="213.5,-278 124.5,-278 124.5,-259 213.5,-259 213.5,-278"/>
<text text-anchor="middle" x="169" y="-266" font-family="Helvetica,sans-Serif" font-size="10.00">DistribExtension</text>
</a>
</g>
</g>
<!-- Node0&#45;&gt;Node2 -->
<g id="edge2" class="edge">
<title>Node0&#45;&gt;Node2</title>
<path fill="none" stroke="#63b8ff" d="M56.27,-176.34C70.04,-197.02 94.58,-229.99 123,-250.5 127.37,-253.65 132.36,-256.35 137.4,-258.63"/>
<polygon fill="#63b8ff" stroke="#63b8ff" points="58.79,-174.78 50.41,-168.29 52.91,-178.59 58.79,-174.78"/>
</g>
<!-- Node3 -->
<g id="node4" class="node">
<title>Node3</title>
<g id="a_node4"><a xlink:href="class_fbc_extension.html" target="_top" xlink:title=" ">
<polygon fill="white" stroke="#666666" points="207.5,-241 130.5,-241 130.5,-222 207.5,-222 207.5,-241"/>
<text text-anchor="middle" x="169" y="-229" font-family="Helvetica,sans-Serif" font-size="10.00">FbcExtension</text>
</a>
</g>
</g>
<!-- Node0&#45;&gt;Node3 -->
<g id="edge3" class="edge">
<title>Node0&#45;&gt;Node3</title>
<path fill="none" stroke="#63b8ff" d="M64.62,-173.9C79.98,-185.91 102,-202.03 123,-213.5 128.46,-216.49 134.53,-219.25 140.39,-221.67"/>
<polygon fill="#63b8ff" stroke="#63b8ff" points="67.41,-170.86 57.41,-167.38 63.06,-176.34 67.41,-170.86"/>
</g>
<!-- Node4 -->
<g id="node5" class="node">
<title>Node4</title>
<g id="a_node5"><a xlink:href="class_groups_extension.html" target="_top" xlink:title=" ">
<polygon fill="white" stroke="#666666" points="215,-204 123,-204 123,-185 215,-185 215,-204"/>
<text text-anchor="middle" x="169" y="-192" font-family="Helvetica,sans-Serif" font-size="10.00">GroupsExtension</text>
</a>
</g>
</g>
<!-- Node0&#45;&gt;Node4 -->
<g id="edge4" class="edge">
<title>Node0&#45;&gt;Node4</title>
<path fill="none" stroke="#63b8ff" d="M87.94,-170.51C103.34,-175.13 120.4,-180.24 134.81,-184.56"/>
<polygon fill="#63b8ff" stroke="#63b8ff" points="89.18,-166.93 78.6,-167.42 87.17,-173.64 89.18,-166.93"/>
</g>
<!-- Node5 -->
<g id="node6" class="node">
<title>Node5</title>
<g id="a_node6"><a xlink:href="class_layout_extension.html" target="_top" xlink:title=" ">
<polygon fill="white" stroke="#666666" points="213.5,-167 124.5,-167 124.5,-148 213.5,-148 213.5,-167"/>
<text text-anchor="middle" x="169" y="-155" font-family="Helvetica,sans-Serif" font-size="10.00">LayoutExtension</text>
</a>
</g>
</g>
<!-- Node0&#45;&gt;Node5 -->
<g id="edge5" class="edge">
<title>Node0&#45;&gt;Node5</title>
<path fill="none" stroke="#63b8ff" d="M98.24,-157.5C106.98,-157.5 115.93,-157.5 124.39,-157.5"/>
<polygon fill="#63b8ff" stroke="#63b8ff" points="98.35,-154 88.35,-157.5 98.35,-161 98.35,-154"/>
</g>
<!-- Node6 -->
<g id="node7" class="node">
<title>Node6</title>
<g id="a_node7"><a xlink:href="class_multi_extension.html" target="_top" xlink:title=" ">
<polygon fill="white" stroke="#666666" points="209.5,-130 128.5,-130 128.5,-111 209.5,-111 209.5,-130"/>
<text text-anchor="middle" x="169" y="-118" font-family="Helvetica,sans-Serif" font-size="10.00">MultiExtension</text>
</a>
</g>
</g>
<!-- Node0&#45;&gt;Node6 -->
<g id="edge6" class="edge">
<title>Node0&#45;&gt;Node6</title>
<path fill="none" stroke="#63b8ff" d="M87.94,-144.49C103.34,-139.87 120.4,-134.76 134.81,-130.44"/>
<polygon fill="#63b8ff" stroke="#63b8ff" points="87.17,-141.36 78.6,-147.58 89.18,-148.07 87.17,-141.36"/>
</g>
<!-- Node7 -->
<g id="node8" class="node">
<title>Node7</title>
<g id="a_node8"><a xlink:href="class_qual_extension.html" target="_top" xlink:title=" ">
<polygon fill="white" stroke="#666666" points="209,-93 129,-93 129,-74 209,-74 209,-93"/>
<text text-anchor="middle" x="169" y="-81" font-family="Helvetica,sans-Serif" font-size="10.00">QualExtension</text>
</a>
</g>
</g>
<!-- Node0&#45;&gt;Node7 -->
<g id="edge7" class="edge">
<title>Node0&#45;&gt;Node7</title>
<path fill="none" stroke="#63b8ff" d="M65.43,-141C80.81,-129.34 102.5,-113.84 123,-102.5 128.94,-99.22 135.56,-96.13 141.85,-93.44"/>
<polygon fill="#63b8ff" stroke="#63b8ff" points="63.53,-138.81 57.74,-147.69 67.8,-144.36 63.53,-138.81"/>
</g>
<!-- Node8 -->
<g id="node9" class="node">
<title>Node8</title>
<g id="a_node9"><a xlink:href="class_render_extension.html" target="_top" xlink:title=" ">
<polygon fill="white" stroke="#666666" points="215,-56 123,-56 123,-37 215,-37 215,-56"/>
<text text-anchor="middle" x="169" y="-44" font-family="Helvetica,sans-Serif" font-size="10.00">RenderExtension</text>
</a>
</g>
</g>
<!-- Node0&#45;&gt;Node8 -->
<g id="edge8" class="edge">
<title>Node0&#45;&gt;Node8</title>
<path fill="none" stroke="#63b8ff" d="M56.61,-138.65C70.52,-118.27 95.05,-85.97 123,-65.5 127.79,-61.99 133.32,-58.98 138.84,-56.46"/>
<polygon fill="#63b8ff" stroke="#63b8ff" points="53.29,-136.32 50.67,-146.59 59.12,-140.2 53.29,-136.32"/>
</g>
<!-- Node9 -->
<g id="node10" class="node">
<title>Node9</title>
<g id="a_node10"><a xlink:href="class_spatial_extension.html" target="_top" xlink:title=" ">
<polygon fill="white" stroke="#666666" points="214,-19 124,-19 124,0 214,0 214,-19"/>
<text text-anchor="middle" x="169" y="-7" font-family="Helvetica,sans-Serif" font-size="10.00">SpatialExtension</text>
</a>
</g>
</g>
<!-- Node0&#45;&gt;Node9 -->
<g id="edge9" class="edge">
<title>Node0&#45;&gt;Node9</title>
<path fill="none" stroke="#63b8ff" d="M52,-137.56C63.4,-109.68 87.58,-59.05 123,-28.5 127.24,-24.84 132.28,-21.81 137.43,-19.32"/>
<polygon fill="#63b8ff" stroke="#63b8ff" points="48.43,-136.08 48.02,-146.67 54.94,-138.65 48.43,-136.08"/>
</g>
</g>
</svg>
