<?xml version="1.0" encoding="UTF-8" standalone="no"?>
<!DOCTYPE svg PUBLIC "-//W3C//DTD SVG 1.1//EN"
 "http://www.w3.org/Graphics/SVG/1.1/DTD/svg11.dtd">
<!-- Generated by graphviz version 2.40.1 (20161225.0304)
 -->
<!-- Title: Association.cpp Pages: 1 -->
<!--zoomable 856 -->
<svg id="main" version="1.1" xmlns="http://www.w3.org/2000/svg" xmlns:xlink="http://www.w3.org/1999/xlink" xml:space="preserve" onload="init(evt)">
<style type="text/css"><![CDATA[
.edge:hover path { stroke: red; }
.edge:hover polygon { stroke: red; fill: red; }
]]></style>
<script type="text/javascript"><![CDATA[
var edges = document.getElementsByTagName('g');
if (edges && edges.length) {
  for (var i=0;i<edges.length;i++) {
    if (edges[i].id.substr(0,4)=='edge') {
      edges[i].setAttribute('class','edge');
    }
  }
}
]]></script>
        <defs>
                <circle id="rim" cx="0" cy="0" r="7"/>
                <circle id="rim2" cx="0" cy="0" r="3.5"/>
                <g id="zoomPlus">
                        <use xlink:href="#rim" fill="#404040">
                                <set attributeName="fill" to="#808080" begin="zoomplus.mouseover" end="zoomplus.mouseout"/>
                        </use>
                        <path d="M-4,0h8M0,-4v8" fill="none" stroke="white" stroke-width="1.5" pointer-events="none"/>
                </g>
                <g id="zoomMin">
                        <use xlink:href="#rim" fill="#404040">
                                <set attributeName="fill" to="#808080" begin="zoomminus.mouseover" end="zoomminus.mouseout"/>
                        </use>
                        <path d="M-4,0h8" fill="none" stroke="white" stroke-width="1.5" pointer-events="none"/>
                </g>
                <g id="dirArrow">
                        <path fill="none" stroke="white" stroke-width="1.5" d="M0,-3.0v7 M-2.5,-0.5L0,-3.0L2.5,-0.5"/>
                </g>
               <g id="resetDef">
                       <use xlink:href="#rim2" fill="#404040">
                               <set attributeName="fill" to="#808080" begin="reset.mouseover" end="reset.mouseout"/>
                       </use>
               </g>
        </defs>

<script type="text/javascript">
var viewWidth = 3037;
var viewHeight = 856;
var sectionId = 'dynsection-0';
</script>
<script xlink:href="svgpan.js"/>
<svg id="graph" class="graph">
<g id="viewport">
<title>Association.cpp</title>
<polygon fill="#ffffff" stroke="transparent" points="-4,4 -4,-852 3032.7695,-852 3032.7695,4 -4,4"/>
<!-- Node1 -->
<g id="node1" class="node">
<title>Node1</title>
<polygon fill="#bfbfbf" stroke="#000000" points="537.2695,-828.5 537.2695,-847.5 624.2695,-847.5 624.2695,-828.5 537.2695,-828.5"/>
<text text-anchor="middle" x="580.7695" y="-835.5" font-family="Helvetica,sans-Serif" font-size="10.00" fill="#000000">Association.cpp</text>
</g>
<!-- Node2 -->
<g id="node2" class="node">
<title>Node2</title>
<polygon fill="#ffffff" stroke="#bfbfbf" points="101.2695,-772.5 101.2695,-791.5 156.2695,-791.5 156.2695,-772.5 101.2695,-772.5"/>
<text text-anchor="middle" x="128.7695" y="-779.5" font-family="Helvetica,sans-Serif" font-size="10.00" fill="#000000">iostream</text>
</g>
<!-- Node1&#45;&gt;Node2 -->
<g id="edge1" class="edge">
<title>Node1&#45;&gt;Node2</title>
<path fill="none" stroke="#191970" d="M537.0038,-835.4831C462.5947,-830.7007 306.615,-818.4958 166.623,-792.1226"/>
<polygon fill="#191970" stroke="#191970" points="167.0522,-788.6413 156.5725,-790.1992 165.7364,-795.5165 167.0522,-788.6413"/>
</g>
<!-- Node3 -->
<g id="node3" class="node">
<title>Node3</title>
<polygon fill="#ffffff" stroke="#bfbfbf" points="174.2695,-772.5 174.2695,-791.5 213.2695,-791.5 213.2695,-772.5 174.2695,-772.5"/>
<text text-anchor="middle" x="193.7695" y="-779.5" font-family="Helvetica,sans-Serif" font-size="10.00" fill="#000000">limits</text>
</g>
<!-- Node1&#45;&gt;Node3 -->
<g id="edge2" class="edge">
<title>Node1&#45;&gt;Node3</title>
<path fill="none" stroke="#191970" d="M536.9995,-835.2673C470.8775,-830.5113 341.5928,-818.7652 223.5113,-791.7446"/>
<polygon fill="#191970" stroke="#191970" points="224.1144,-788.2914 213.5808,-789.4293 222.5249,-795.1085 224.1144,-788.2914"/>
</g>
<!-- Node4 -->
<g id="node4" class="node">
<title>Node4</title>
<g id="a_node4"><a xlink:href="_s_b_m_l_visitor_8h.html" target="_top" xlink:title="Visitor Design Pattern for the SBML object tree. ">
<polygon fill="#ffffff" stroke="#000000" points="231.7695,-772.5 231.7695,-791.5 335.7695,-791.5 335.7695,-772.5 231.7695,-772.5"/>
<text text-anchor="middle" x="283.7695" y="-779.5" font-family="Helvetica,sans-Serif" font-size="10.00" fill="#000000">sbml/SBMLVisitor.h</text>
</a>
</g>
</g>
<!-- Node1&#45;&gt;Node4 -->
<g id="edge3" class="edge">
<title>Node1&#45;&gt;Node4</title>
<path fill="none" stroke="#191970" d="M537.2651,-829.7971C486.3464,-820.1963 401.7084,-804.2376 344.3757,-793.4274"/>
<polygon fill="#191970" stroke="#191970" points="344.8326,-789.952 334.3573,-791.5384 343.5356,-796.8308 344.8326,-789.952"/>
</g>
<!-- Node5 -->
<g id="node5" class="node">
<title>Node5</title>
<g id="a_node5"><a xlink:href="_x_m_l_node_8h.html" target="_top" xlink:title="Class definition of XMLNode_t, a node in an XML document tree. ">
<polygon fill="#ffffff" stroke="#000000" points="911.7695,-319 911.7695,-338 1023.7695,-338 1023.7695,-319 911.7695,-319"/>
<text text-anchor="middle" x="967.7695" y="-326" font-family="Helvetica,sans-Serif" font-size="10.00" fill="#000000">sbml/xml/XMLNode.h</text>
</a>
</g>
</g>
<!-- Node1&#45;&gt;Node5 -->
<g id="edge4" class="edge">
<title>Node1&#45;&gt;Node5</title>
<path fill="none" stroke="#191970" d="M624.4509,-835.8601C693.5666,-831.6568 823.9812,-820.1493 859.7695,-792 884.8145,-772.3008 887.7695,-757.8639 887.7695,-726 887.7695,-726 887.7695,-726 887.7695,-614 887.7695,-509.8936 937.7006,-392.089 958.6692,-347.2067"/>
<polygon fill="#191970" stroke="#191970" points="961.8722,-348.6209 963.0048,-338.0867 955.5502,-345.6154 961.8722,-348.6209"/>
</g>
<!-- Node8 -->
<g id="node8" class="node">
<title>Node8</title>
<g id="a_node8"><a xlink:href="_x_m_l_token_8h.html" target="_top" xlink:title="A unit of XML syntax, either an XML element or text. ">
<polygon fill="#ffffff" stroke="#000000" points="661.2695,-257.5 661.2695,-276.5 776.2695,-276.5 776.2695,-257.5 661.2695,-257.5"/>
<text text-anchor="middle" x="718.7695" y="-264.5" font-family="Helvetica,sans-Serif" font-size="10.00" fill="#000000">sbml/xml/XMLToken.h</text>
</a>
</g>
</g>
<!-- Node1&#45;&gt;Node8 -->
<g id="edge18" class="edge">
<title>Node1&#45;&gt;Node8</title>
<path fill="none" stroke="#191970" d="M599.6613,-828.4787C629.3966,-811.9949 683.7695,-775.1354 683.7695,-726 683.7695,-726 683.7695,-726 683.7695,-614 683.7695,-509.7259 644.4575,-481.859 666.7695,-380 674.5034,-344.6932 694.351,-307.2529 707.1672,-285.5598"/>
<polygon fill="#191970" stroke="#191970" points="710.3068,-287.1321 712.4922,-276.7651 704.3188,-283.5065 710.3068,-287.1321"/>
</g>
<!-- Node9 -->
<g id="node9" class="node">
<title>Node9</title>
<g id="a_node9"><a xlink:href="_x_m_l_attributes_8h.html" target="_top" xlink:title="XMLAttributes_t are a list of name/value pairs for XML elements. ">
<polygon fill="#ffffff" stroke="#000000" points="812.7695,-196 812.7695,-215 942.7695,-215 942.7695,-196 812.7695,-196"/>
<text text-anchor="middle" x="877.7695" y="-203" font-family="Helvetica,sans-Serif" font-size="10.00" fill="#000000">sbml/xml/XMLAttributes.h</text>
</a>
</g>
</g>
<!-- Node1&#45;&gt;Node9 -->
<g id="edge19" class="edge">
<title>Node1&#45;&gt;Node9</title>
<path fill="none" stroke="#191970" d="M624.5289,-828.9671C699.7963,-812.1607 845.7695,-773.4499 845.7695,-726 845.7695,-726 845.7695,-726 845.7695,-446 845.7695,-363.2215 864.6277,-265.8054 873.3903,-225.0082"/>
<polygon fill="#191970" stroke="#191970" points="876.8481,-225.5793 875.5701,-215.0619 870.0104,-224.0808 876.8481,-225.5793"/>
</g>
<!-- Node13 -->
<g id="node13" class="node">
<title>Node13</title>
<g id="a_node13"><a xlink:href="_x_m_l_input_stream_8h.html" target="_top" xlink:title="XMLInputStream_t. ">
<polygon fill="#ffffff" stroke="#000000" points="675.7695,-380.5 675.7695,-399.5 817.7695,-399.5 817.7695,-380.5 675.7695,-380.5"/>
<text text-anchor="middle" x="746.7695" y="-387.5" font-family="Helvetica,sans-Serif" font-size="10.00" fill="#000000">sbml/xml/XMLInputStream.h</text>
</a>
</g>
</g>
<!-- Node1&#45;&gt;Node13 -->
<g id="edge20" class="edge">
<title>Node1&#45;&gt;Node13</title>
<path fill="none" stroke="#191970" d="M624.4052,-828.6199C648.2563,-821.7144 677.0674,-810.2682 697.7695,-792 722.8231,-769.892 733.7695,-759.4132 733.7695,-726 733.7695,-726 733.7695,-726 733.7695,-502 733.7695,-469.3457 739.2896,-431.6911 743.1356,-409.4184"/>
<polygon fill="#191970" stroke="#191970" points="746.586,-410.0059 744.907,-399.545 739.696,-408.7698 746.586,-410.0059"/>
</g>
<!-- Node22 -->
<g id="node22" class="node">
<title>Node22</title>
<g id="a_node22"><a xlink:href="util_8h.html" target="_top" xlink:title="Utility functions. ">
<polygon fill="#ffffff" stroke="#000000" points="2401.2695,-196 2401.2695,-215 2478.2695,-215 2478.2695,-196 2401.2695,-196"/>
<text text-anchor="middle" x="2439.7695" y="-203" font-family="Helvetica,sans-Serif" font-size="10.00" fill="#000000">sbml/util/util.h</text>
</a>
</g>
</g>
<!-- Node1&#45;&gt;Node22 -->
<g id="edge45" class="edge">
<title>Node1&#45;&gt;Node22</title>
<path fill="none" stroke="#191970" d="M624.6155,-835.1387C911.3012,-815.8641 2506.7695,-699.7151 2506.7695,-502 2506.7695,-502 2506.7695,-502 2506.7695,-328.5 2506.7695,-286.4539 2476.2037,-245.0929 2456.3623,-222.6732"/>
<polygon fill="#191970" stroke="#191970" points="2458.707,-220.0514 2449.369,-215.0461 2453.5475,-224.7822 2458.707,-220.0514"/>
</g>
<!-- Node24 -->
<g id="node24" class="node">
<title>Node24</title>
<g id="a_node24"><a xlink:href="_x_m_l_output_stream_8h.html" target="_top" xlink:title="XMLOutputStream_t. ">
<polygon fill="#ffffff" stroke="#000000" points="505.7695,-548.5 505.7695,-567.5 655.7695,-567.5 655.7695,-548.5 505.7695,-548.5"/>
<text text-anchor="middle" x="580.7695" y="-555.5" font-family="Helvetica,sans-Serif" font-size="10.00" fill="#000000">sbml/xml/XMLOutputStream.h</text>
</a>
</g>
</g>
<!-- Node1&#45;&gt;Node24 -->
<g id="edge43" class="edge">
<title>Node1&#45;&gt;Node24</title>
<path fill="none" stroke="#191970" d="M580.7695,-828.4116C580.7695,-809.0538 580.7695,-763.9167 580.7695,-726 580.7695,-726 580.7695,-726 580.7695,-670 580.7695,-637.7116 580.7695,-600.1872 580.7695,-577.8048"/>
<polygon fill="#191970" stroke="#191970" points="584.2696,-577.5883 580.7695,-567.5884 577.2696,-577.5884 584.2696,-577.5883"/>
</g>
<!-- Node25 -->
<g id="node25" class="node">
<title>Node25</title>
<g id="a_node25"><a xlink:href="_association_8h.html" target="_top" xlink:title="Definition of Association_t, the contents of a GeneAssociation_t. ">
<polygon fill="#ffffff" stroke="#000000" points="96.2695,-190.5 96.2695,-220.5 219.2695,-220.5 219.2695,-190.5 96.2695,-190.5"/>
<text text-anchor="start" x="104.2695" y="-208.5" font-family="Helvetica,sans-Serif" font-size="10.00" fill="#000000">sbml/packages/fbc/sbml</text>
<text text-anchor="middle" x="157.7695" y="-197.5" font-family="Helvetica,sans-Serif" font-size="10.00" fill="#000000">/Association.h</text>
</a>
</g>
</g>
<!-- Node1&#45;&gt;Node25 -->
<g id="edge46" class="edge">
<title>Node1&#45;&gt;Node25</title>
<path fill="none" stroke="#191970" d="M537.1174,-834.7076C473.7498,-827.2825 363.7695,-803.266 363.7695,-726 363.7695,-726 363.7695,-726 363.7695,-328.5 363.7695,-292.322 268.9229,-248.6089 207.9446,-224.2436"/>
<polygon fill="#191970" stroke="#191970" points="209.0552,-220.9192 198.4685,-220.5034 206.4852,-227.4304 209.0552,-220.9192"/>
</g>
<!-- Node27 -->
<g id="node27" class="node">
<title>Node27</title>
<g id="a_node27"><a xlink:href="_fbc_extension_8h.html" target="_top" xlink:title="Definition of FbcExtension_t, the core module of fbc package. ">
<polygon fill="#ffffff" stroke="#000000" points="1809.2695,-313.5 1809.2695,-343.5 1954.2695,-343.5 1954.2695,-313.5 1809.2695,-313.5"/>
<text text-anchor="start" x="1817.2695" y="-331.5" font-family="Helvetica,sans-Serif" font-size="10.00" fill="#000000">sbml/packages/fbc/extension</text>
<text text-anchor="middle" x="1881.7695" y="-320.5" font-family="Helvetica,sans-Serif" font-size="10.00" fill="#000000">/FbcExtension.h</text>
</a>
</g>
</g>
<!-- Node1&#45;&gt;Node27 -->
<g id="edge50" class="edge">
<title>Node1&#45;&gt;Node27</title>
<path fill="none" stroke="#191970" d="M624.5027,-835.7019C697.6339,-831.1503 840.8589,-818.997 882.7695,-792 912.2015,-773.0412 925.7695,-761.0097 925.7695,-726 925.7695,-726 925.7695,-726 925.7695,-614 925.7695,-508.2099 1289.3003,-541.9258 1390.7695,-512 1558.8607,-462.4257 1751.9092,-383.5955 1837.2447,-347.5791"/>
<polygon fill="#191970" stroke="#191970" points="1838.7785,-350.7306 1846.6236,-343.6098 1836.0502,-344.2841 1838.7785,-350.7306"/>
</g>
<!-- Node29 -->
<g id="node29" class="node">
<title>Node29</title>
<g id="a_node29"><a xlink:href="_fbc_and_8h.html" target="_top" xlink:title="Implementation of the FbcAnd_t class. ">
<polygon fill="#ffffff" stroke="#000000" points="237.2695,-190.5 237.2695,-220.5 360.2695,-220.5 360.2695,-190.5 237.2695,-190.5"/>
<text text-anchor="start" x="245.2695" y="-208.5" font-family="Helvetica,sans-Serif" font-size="10.00" fill="#000000">sbml/packages/fbc/sbml</text>
<text text-anchor="middle" x="298.7695" y="-197.5" font-family="Helvetica,sans-Serif" font-size="10.00" fill="#000000">/FbcAnd.h</text>
</a>
</g>
</g>
<!-- Node1&#45;&gt;Node29 -->
<g id="edge55" class="edge">
<title>Node1&#45;&gt;Node29</title>
<path fill="none" stroke="#191970" d="M536.9812,-830.4179C483.9885,-818.4378 401.7695,-789.6021 401.7695,-726 401.7695,-726 401.7695,-726 401.7695,-328.5 401.7695,-294.9798 398.2807,-283.5122 377.7695,-257 367.9078,-244.253 353.9495,-233.6944 340.5032,-225.5259"/>
<polygon fill="#191970" stroke="#191970" points="342.201,-222.4648 331.7891,-220.5042 338.7059,-228.5298 342.201,-222.4648"/>
</g>
<!-- Node30 -->
<g id="node30" class="node">
<title>Node30</title>
<g id="a_node30"><a xlink:href="_fbc_or_8h.html" target="_top" xlink:title="Implementation of the FbcOr_t class. ">
<polygon fill="#ffffff" stroke="#000000" points="378.2695,-190.5 378.2695,-220.5 501.2695,-220.5 501.2695,-190.5 378.2695,-190.5"/>
<text text-anchor="start" x="386.2695" y="-208.5" font-family="Helvetica,sans-Serif" font-size="10.00" fill="#000000">sbml/packages/fbc/sbml</text>
<text text-anchor="middle" x="439.7695" y="-197.5" font-family="Helvetica,sans-Serif" font-size="10.00" fill="#000000">/FbcOr.h</text>
</a>
</g>
</g>
<!-- Node1&#45;&gt;Node30 -->
<g id="edge59" class="edge">
<title>Node1&#45;&gt;Node30</title>
<path fill="none" stroke="#191970" d="M548.7745,-828.3938C507.1735,-813.6921 439.7695,-781.3338 439.7695,-726 439.7695,-726 439.7695,-726 439.7695,-328.5 439.7695,-294.6453 439.7695,-255.5491 439.7695,-230.6876"/>
<polygon fill="#191970" stroke="#191970" points="443.2696,-230.6486 439.7695,-220.6486 436.2696,-230.6487 443.2696,-230.6486"/>
</g>
<!-- Node31 -->
<g id="node31" class="node">
<title>Node31</title>
<g id="a_node31"><a xlink:href="_gene_product_ref_8h.html" target="_top" xlink:title="Implementation of the GeneProductRef_t class. ">
<polygon fill="#ffffff" stroke="#000000" points="519.2695,-190.5 519.2695,-220.5 642.2695,-220.5 642.2695,-190.5 519.2695,-190.5"/>
<text text-anchor="start" x="527.2695" y="-208.5" font-family="Helvetica,sans-Serif" font-size="10.00" fill="#000000">sbml/packages/fbc/sbml</text>
<text text-anchor="middle" x="580.7695" y="-197.5" font-family="Helvetica,sans-Serif" font-size="10.00" fill="#000000">/GeneProductRef.h</text>
</a>
</g>
</g>
<!-- Node1&#45;&gt;Node31 -->
<g id="edge63" class="edge">
<title>Node1&#45;&gt;Node31</title>
<path fill="none" stroke="#191970" d="M561.8778,-828.4787C532.1425,-811.9949 477.7695,-775.1354 477.7695,-726 477.7695,-726 477.7695,-726 477.7695,-614 477.7695,-464.3491 543.5669,-292.9632 569.9838,-230.1843"/>
<polygon fill="#191970" stroke="#191970" points="573.3114,-231.3036 574.0114,-220.7319 566.8716,-228.5596 573.3114,-231.3036"/>
</g>
<!-- Node32 -->
<g id="node32" class="node">
<title>Node32</title>
<g id="a_node32"><a xlink:href="_formula_parser_8h.html" target="_top" xlink:title="Parses an SBML formula string into an AST. ">
<polygon fill="#ffffff" stroke="#000000" points="2696.7695,-772.5 2696.7695,-791.5 2836.7695,-791.5 2836.7695,-772.5 2696.7695,-772.5"/>
<text text-anchor="middle" x="2766.7695" y="-779.5" font-family="Helvetica,sans-Serif" font-size="10.00" fill="#000000">sbml/math/FormulaParser.h</text>
</a>
</g>
</g>
<!-- Node1&#45;&gt;Node32 -->
<g id="edge67" class="edge">
<title>Node1&#45;&gt;Node32</title>
<path fill="none" stroke="#191970" d="M624.4357,-836.8814C893.7695,-829.9817 2329.3986,-793.2044 2686.3649,-784.0598"/>
<polygon fill="#191970" stroke="#191970" points="2686.7021,-787.5524 2696.6092,-783.7973 2686.5228,-780.5547 2686.7021,-787.5524"/>
</g>
<!-- Node6 -->
<g id="node6" class="node">
<title>Node6</title>
<g id="a_node6"><a xlink:href="_x_m_l_extern_8h.html" target="_top" xlink:title="Defines LIBLAX_EXTERN. ">
<polygon fill="#ffffff" stroke="#000000" points="9.2695,-129 9.2695,-148 126.2695,-148 126.2695,-129 9.2695,-129"/>
<text text-anchor="middle" x="67.7695" y="-136" font-family="Helvetica,sans-Serif" font-size="10.00" fill="#000000">sbml/xml/XMLExtern.h</text>
</a>
</g>
</g>
<!-- Node5&#45;&gt;Node6 -->
<g id="edge5" class="edge">
<title>Node5&#45;&gt;Node6</title>
<path fill="none" stroke="#191970" d="M951.1284,-318.8641C922.1228,-302.6342 859.9323,-270.3154 802.7695,-257 722.9207,-238.4001 122.3109,-280.3706 65.7695,-221 50.0031,-204.4446 54.6688,-176.4742 60.4208,-157.7514"/>
<polygon fill="#191970" stroke="#191970" points="63.7657,-158.7871 63.6959,-148.1925 57.1436,-156.5182 63.7657,-158.7871"/>
</g>
<!-- Node5&#45;&gt;Node8 -->
<g id="edge7" class="edge">
<title>Node5&#45;&gt;Node8</title>
<path fill="none" stroke="#191970" d="M929.1365,-318.9581C885.5214,-308.1857 814.4942,-290.6428 767.2054,-278.9631"/>
<polygon fill="#191970" stroke="#191970" points="768.0408,-275.5643 757.4932,-276.5643 766.3622,-282.3601 768.0408,-275.5643"/>
</g>
<!-- Node10 -->
<g id="node10" class="node">
<title>Node10</title>
<polygon fill="#ffffff" stroke="#bfbfbf" points="907.2695,-129 907.2695,-148 1034.2695,-148 1034.2695,-129 907.2695,-129"/>
<text text-anchor="middle" x="970.7695" y="-136" font-family="Helvetica,sans-Serif" font-size="10.00" fill="#000000">sbml/common/sbmlfwd.h</text>
</g>
<!-- Node5&#45;&gt;Node10 -->
<g id="edge17" class="edge">
<title>Node5&#45;&gt;Node10</title>
<path fill="none" stroke="#191970" d="M967.9224,-318.8167C968.3907,-289.1573 969.8123,-199.1278 970.4518,-158.6229"/>
<polygon fill="#191970" stroke="#191970" points="973.955,-158.4457 970.6134,-148.3917 966.9558,-158.3351 973.955,-158.4457"/>
</g>
<!-- Node7 -->
<g id="node7" class="node">
<title>Node7</title>
<g id="a_node7"><a xlink:href="libsbml-namespace_8h.html" target="_top" xlink:title="Defines C++ namespace of libSBML. ">
<polygon fill="#ffffff" stroke="#000000" points="1889.2695,-.5 1889.2695,-30.5 2002.2695,-30.5 2002.2695,-.5 1889.2695,-.5"/>
<text text-anchor="start" x="1897.2695" y="-18.5" font-family="Helvetica,sans-Serif" font-size="10.00" fill="#000000">sbml/common/libsbml</text>
<text text-anchor="middle" x="1945.7695" y="-7.5" font-family="Helvetica,sans-Serif" font-size="10.00" fill="#000000">&#45;namespace.h</text>
</a>
</g>
</g>
<!-- Node6&#45;&gt;Node7 -->
<g id="edge6" class="edge">
<title>Node6&#45;&gt;Node7</title>
<path fill="none" stroke="#191970" d="M126.4935,-130.5857C147.9481,-127.8917 172.4288,-125.0472 194.7695,-123 850.0022,-62.9566 1646.3375,-27.6965 1878.9876,-18.1514"/>
<polygon fill="#191970" stroke="#191970" points="1879.1387,-21.6482 1888.9874,-17.7427 1878.8528,-14.654 1879.1387,-21.6482"/>
</g>
<!-- Node8&#45;&gt;Node6 -->
<g id="edge8" class="edge">
<title>Node8&#45;&gt;Node6</title>
<path fill="none" stroke="#191970" d="M661.0838,-264.2701C494.9928,-256.2761 26.7701,-232.7439 15.7695,-221 -3.4226,-200.511 24.0637,-171.9521 45.8112,-154.3734"/>
<polygon fill="#191970" stroke="#191970" points="47.9976,-157.1069 53.7559,-148.2135 43.7084,-151.575 47.9976,-157.1069"/>
</g>
<!-- Node8&#45;&gt;Node8 -->
<g id="edge15" class="edge">
<title>Node8&#45;&gt;Node8</title>
<path fill="none" stroke="#191970" d="M746.6469,-276.5334C769.9354,-280.6075 794.2695,-277.4297 794.2695,-267 794.2695,-258.0777 776.4612,-254.4626 756.7336,-256.1546"/>
<polygon fill="#191970" stroke="#191970" points="756.1119,-252.7059 746.6469,-257.4666 757.0149,-259.6474 756.1119,-252.7059"/>
</g>
<!-- Node8&#45;&gt;Node9 -->
<g id="edge9" class="edge">
<title>Node8&#45;&gt;Node9</title>
<path fill="none" stroke="#191970" d="M743.6133,-257.3906C770.4503,-247.0103 813.3929,-230.4004 843.4448,-218.7766"/>
<polygon fill="#191970" stroke="#191970" points="845.0362,-221.9138 853.1002,-215.0419 842.511,-215.3851 845.0362,-221.9138"/>
</g>
<!-- Node8&#45;&gt;Node10 -->
<g id="edge16" class="edge">
<title>Node8&#45;&gt;Node10</title>
<path fill="none" stroke="#191970" d="M726.9138,-257.2492C740.9722,-241.0174 771.4121,-208.4234 803.7695,-190 836.7437,-171.2255 877.3562,-158.5038 910.2744,-150.4017"/>
<polygon fill="#191970" stroke="#191970" points="911.3081,-153.7535 920.2264,-148.0339 909.6879,-146.9436 911.3081,-153.7535"/>
</g>
<!-- Node9&#45;&gt;Node6 -->
<g id="edge10" class="edge">
<title>Node9&#45;&gt;Node6</title>
<path fill="none" stroke="#191970" d="M812.5119,-200.1021C661.8066,-187.6364 290.6897,-156.9391 136.5828,-144.192"/>
<polygon fill="#191970" stroke="#191970" points="136.5636,-140.6785 126.3091,-143.3422 135.9865,-147.6547 136.5636,-140.6785"/>
</g>
<!-- Node9&#45;&gt;Node10 -->
<g id="edge11" class="edge">
<title>Node9&#45;&gt;Node10</title>
<path fill="none" stroke="#191970" d="M891.0942,-195.9005C906.2873,-184.9549 931.3398,-166.9064 949.298,-153.9688"/>
<polygon fill="#191970" stroke="#191970" points="951.4018,-156.7668 957.4696,-148.0817 947.31,-151.0872 951.4018,-156.7668"/>
</g>
<!-- Node11 -->
<g id="node11" class="node">
<title>Node11</title>
<g id="a_node11"><a xlink:href="operation_return_values_8h.html" target="_top" xlink:title="Enumeration of values returned by operations within libSBML. ">
<polygon fill="#ffffff" stroke="#000000" points="1523.2695,-123.5 1523.2695,-153.5 1676.2695,-153.5 1676.2695,-123.5 1523.2695,-123.5"/>
<text text-anchor="start" x="1531.2695" y="-141.5" font-family="Helvetica,sans-Serif" font-size="10.00" fill="#000000">sbml/common/operationReturn</text>
<text text-anchor="middle" x="1599.7695" y="-130.5" font-family="Helvetica,sans-Serif" font-size="10.00" fill="#000000">Values.h</text>
</a>
</g>
</g>
<!-- Node9&#45;&gt;Node11 -->
<g id="edge12" class="edge">
<title>Node9&#45;&gt;Node11</title>
<path fill="none" stroke="#191970" d="M942.7963,-199.4657C1073.119,-187.372 1366.308,-160.1647 1512.8932,-146.5619"/>
<polygon fill="#191970" stroke="#191970" points="1513.556,-150.0156 1523.1898,-145.6064 1512.9091,-143.0455 1513.556,-150.0156"/>
</g>
<!-- Node12 -->
<g id="node12" class="node">
<title>Node12</title>
<g id="a_node12"><a xlink:href="extern_8h.html" target="_top" xlink:title="Definitions of LIBSBML_EXTERN and related things. ">
<polygon fill="#ffffff" stroke="#000000" points="2055.7695,-67.5 2055.7695,-86.5 2173.7695,-86.5 2173.7695,-67.5 2055.7695,-67.5"/>
<text text-anchor="middle" x="2114.7695" y="-74.5" font-family="Helvetica,sans-Serif" font-size="10.00" fill="#000000">sbml/common/extern.h</text>
</a>
</g>
</g>
<!-- Node11&#45;&gt;Node12 -->
<g id="edge13" class="edge">
<title>Node11&#45;&gt;Node12</title>
<path fill="none" stroke="#191970" d="M1676.6728,-125.0639C1681.4384,-124.3359 1686.1664,-123.6411 1690.7695,-123 1815.3756,-105.6449 1961.3578,-91.0635 2045.448,-83.2192"/>
<polygon fill="#191970" stroke="#191970" points="2046.0072,-86.6824 2055.6409,-82.2731 2045.3602,-79.7124 2046.0072,-86.6824"/>
</g>
<!-- Node12&#45;&gt;Node7 -->
<g id="edge14" class="edge">
<title>Node12&#45;&gt;Node7</title>
<path fill="none" stroke="#191970" d="M2088.3633,-67.3906C2063.9029,-58.4893 2026.8546,-45.0073 1996.6523,-34.0165"/>
<polygon fill="#191970" stroke="#191970" points="1997.7056,-30.6753 1987.1116,-30.5446 1995.3118,-37.2533 1997.7056,-30.6753"/>
</g>
<!-- Node13&#45;&gt;Node6 -->
<g id="edge21" class="edge">
<title>Node13&#45;&gt;Node6</title>
<path fill="none" stroke="#191970" d="M675.6889,-384.7576C506.8027,-370.6758 89.3326,-325.7671 5.7695,-221 -12.6381,-197.9214 18.3321,-170.3754 42.7446,-153.6727"/>
<polygon fill="#191970" stroke="#191970" points="44.8948,-156.4482 51.3384,-148.038 41.0566,-150.5943 44.8948,-156.4482"/>
</g>
<!-- Node13&#45;&gt;Node8 -->
<g id="edge22" class="edge">
<title>Node13&#45;&gt;Node8</title>
<path fill="none" stroke="#191970" d="M744.5724,-380.3484C739.9925,-360.2295 729.346,-313.4608 723.2563,-286.7098"/>
<polygon fill="#191970" stroke="#191970" points="726.5889,-285.5804 720.9564,-276.6068 719.7635,-287.1342 726.5889,-285.5804"/>
</g>
<!-- Node13&#45;&gt;Node10 -->
<g id="edge23" class="edge">
<title>Node13&#45;&gt;Node10</title>
<path fill="none" stroke="#191970" d="M739.3264,-380.3563C727.8765,-365.6141 705.1288,-336.6901 684.7695,-313 670.6227,-296.5386 659.6381,-297.2286 651.7695,-277 648.5471,-268.7158 647.1176,-264.5744 651.7695,-257 670.2854,-226.8517 693.1131,-240.2938 722.7695,-221 741.0394,-209.1141 741.2625,-199.723 760.7695,-190 803.4461,-168.7286 855.4751,-155.8869 897.0678,-148.3466"/>
<polygon fill="#191970" stroke="#191970" points="897.8839,-151.7571 907.1321,-146.5878 896.6788,-144.8616 897.8839,-151.7571"/>
</g>
<!-- Node13&#45;&gt;Node11 -->
<g id="edge24" class="edge">
<title>Node13&#45;&gt;Node11</title>
<path fill="none" stroke="#191970" d="M762.5018,-380.27C789.9233,-363.7686 848.7189,-330.3967 902.7695,-313 1140.7779,-236.3947 1222.495,-305.63 1457.7695,-221 1499.6505,-205.9351 1543.2558,-178.5662 1570.9095,-159.5006"/>
<polygon fill="#191970" stroke="#191970" points="1573.1167,-162.228 1579.3051,-153.6284 1569.1045,-156.4919 1573.1167,-162.228"/>
</g>
<!-- Node14 -->
<g id="node14" class="node">
<title>Node14</title>
<g id="a_node14"><a xlink:href="_s_b_m_l_namespaces_8h.html" target="_top" xlink:title="SBMLNamespaces_t class to store level/version and namespace. ">
<polygon fill="#ffffff" stroke="#000000" points="2010.7695,-319 2010.7695,-338 2144.7695,-338 2144.7695,-319 2010.7695,-319"/>
<text text-anchor="middle" x="2077.7695" y="-326" font-family="Helvetica,sans-Serif" font-size="10.00" fill="#000000">sbml/SBMLNamespaces.h</text>
</a>
</g>
</g>
<!-- Node13&#45;&gt;Node14 -->
<g id="edge25" class="edge">
<title>Node13&#45;&gt;Node14</title>
<path fill="none" stroke="#191970" d="M818.0615,-388.2189C1043.4627,-382.4434 1739.0368,-363.4785 1963.7695,-344 1977.4603,-342.8134 1992.0262,-341.145 2006.008,-339.3396"/>
<polygon fill="#191970" stroke="#191970" points="2006.6119,-342.7902 2016.0649,-338.0057 2005.6914,-335.851 2006.6119,-342.7902"/>
</g>
<!-- Node15 -->
<g id="node15" class="node">
<title>Node15</title>
<g id="a_node15"><a xlink:href="_x_m_l_namespaces_8h.html" target="_top" xlink:title="A list of XMLNamespace declarations (URI/prefix pairs) ">
<polygon fill="#ffffff" stroke="#000000" points="1302.7695,-196 1302.7695,-215 1448.7695,-215 1448.7695,-196 1302.7695,-196"/>
<text text-anchor="middle" x="1375.7695" y="-203" font-family="Helvetica,sans-Serif" font-size="10.00" fill="#000000">sbml/xml/XMLNamespaces.h</text>
</a>
</g>
</g>
<!-- Node14&#45;&gt;Node15 -->
<g id="edge26" class="edge">
<title>Node14&#45;&gt;Node15</title>
<path fill="none" stroke="#191970" d="M2027.0716,-318.9886C1952.4052,-305.0405 1808.4421,-278.376 1685.7695,-257 1603.0361,-242.5835 1507.7155,-226.8841 1444.8573,-216.657"/>
<polygon fill="#191970" stroke="#191970" points="1445.1009,-213.1507 1434.6689,-215.001 1443.9778,-220.06 1445.1009,-213.1507"/>
</g>
<!-- Node16 -->
<g id="node16" class="node">
<title>Node16</title>
<g id="a_node16"><a xlink:href="common_8h.html" target="_top" xlink:title="Common functions and macros for C and C++. ">
<polygon fill="#ffffff" stroke="#000000" points="2078.7695,-257.5 2078.7695,-276.5 2206.7695,-276.5 2206.7695,-257.5 2078.7695,-257.5"/>
<text text-anchor="middle" x="2142.7695" y="-264.5" font-family="Helvetica,sans-Serif" font-size="10.00" fill="#000000">sbml/common/common.h</text>
</a>
</g>
</g>
<!-- Node14&#45;&gt;Node16 -->
<g id="edge30" class="edge">
<title>Node14&#45;&gt;Node16</title>
<path fill="none" stroke="#191970" d="M2087.9258,-318.8906C2097.7895,-309.5581 2112.9751,-295.1902 2124.8682,-283.9374"/>
<polygon fill="#191970" stroke="#191970" points="2127.6116,-286.1601 2132.4701,-276.7449 2122.8007,-281.0753 2127.6116,-286.1601"/>
</g>
<!-- Node15&#45;&gt;Node6 -->
<g id="edge27" class="edge">
<title>Node15&#45;&gt;Node6</title>
<path fill="none" stroke="#191970" d="M1302.6763,-201.9507C1134.4928,-193.7577 707.0892,-172.7877 349.7695,-154 276.9029,-150.1687 193.459,-145.554 136.3581,-142.3613"/>
<polygon fill="#191970" stroke="#191970" points="136.5457,-138.8665 126.3658,-141.8021 136.1545,-145.8555 136.5457,-138.8665"/>
</g>
<!-- Node15&#45;&gt;Node10 -->
<g id="edge28" class="edge">
<title>Node15&#45;&gt;Node10</title>
<path fill="none" stroke="#191970" d="M1318.173,-195.9717C1244.5,-183.7838 1117.0903,-162.7062 1038.7419,-149.7448"/>
<polygon fill="#191970" stroke="#191970" points="1038.9321,-146.2288 1028.4949,-148.0496 1037.7895,-153.1349 1038.9321,-146.2288"/>
</g>
<!-- Node15&#45;&gt;Node11 -->
<g id="edge29" class="edge">
<title>Node15&#45;&gt;Node11</title>
<path fill="none" stroke="#191970" d="M1407.8633,-195.9005C1442.2058,-185.6284 1497.4631,-169.1006 1539.884,-156.4122"/>
<polygon fill="#191970" stroke="#191970" points="1540.9699,-159.7407 1549.5475,-153.5218 1538.9639,-153.0342 1540.9699,-159.7407"/>
</g>
<!-- Node16&#45;&gt;Node12 -->
<g id="edge37" class="edge">
<title>Node16&#45;&gt;Node12</title>
<path fill="none" stroke="#191970" d="M2161.7727,-257.4797C2175.3024,-249.6337 2192.6424,-237.1761 2201.7695,-221 2223.2445,-182.9401 2232.98,-160.027 2209.7695,-123 2200.0877,-107.5548 2183.5857,-97.1672 2167.0258,-90.2389"/>
<polygon fill="#191970" stroke="#191970" points="2167.9111,-86.831 2157.32,-86.5472 2165.4225,-93.3737 2167.9111,-86.831"/>
</g>
<!-- Node17 -->
<g id="node17" class="node">
<title>Node17</title>
<g id="a_node17"><a xlink:href="libsbml-config_8h.html" target="_top" xlink:title="Decides whether to #include Unix or Windows configuration variables. ">
<polygon fill="#ffffff" stroke="#000000" points="1885.2695,-190.5 1885.2695,-220.5 1998.2695,-220.5 1998.2695,-190.5 1885.2695,-190.5"/>
<text text-anchor="start" x="1893.2695" y="-208.5" font-family="Helvetica,sans-Serif" font-size="10.00" fill="#000000">sbml/common/libsbml</text>
<text text-anchor="middle" x="1941.7695" y="-197.5" font-family="Helvetica,sans-Serif" font-size="10.00" fill="#000000">&#45;config.h</text>
</a>
</g>
</g>
<!-- Node16&#45;&gt;Node17 -->
<g id="edge31" class="edge">
<title>Node16&#45;&gt;Node17</title>
<path fill="none" stroke="#191970" d="M2111.3633,-257.3906C2081.8935,-248.3737 2037.061,-234.6563 2000.8916,-223.5896"/>
<polygon fill="#191970" stroke="#191970" points="2001.5261,-220.1236 1990.9397,-220.5446 1999.478,-226.8173 2001.5261,-220.1236"/>
</g>
<!-- Node20 -->
<g id="node20" class="node">
<title>Node20</title>
<polygon fill="#ffffff" stroke="#bfbfbf" points="2322.7695,-129 2322.7695,-148 2368.7695,-148 2368.7695,-129 2322.7695,-129"/>
<text text-anchor="middle" x="2345.7695" y="-136" font-family="Helvetica,sans-Serif" font-size="10.00" fill="#000000">stdio.h</text>
</g>
<!-- Node16&#45;&gt;Node20 -->
<g id="edge36" class="edge">
<title>Node16&#45;&gt;Node20</title>
<path fill="none" stroke="#191970" d="M2186.5833,-257.4315C2213.0791,-250.2567 2246.667,-238.6005 2272.7695,-221 2298.5434,-203.6211 2321.0165,-175.0531 2333.9903,-156.5101"/>
<polygon fill="#191970" stroke="#191970" points="2336.9982,-158.3109 2339.7227,-148.0723 2331.208,-154.3772 2336.9982,-158.3109"/>
</g>
<!-- Node21 -->
<g id="node21" class="node">
<title>Node21</title>
<g id="a_node21"><a xlink:href="memory_8h.html" target="_top" xlink:title="sbml/util/memory.h">
<polygon fill="#ffffff" stroke="#000000" points="2092.7695,-196 2092.7695,-215 2192.7695,-215 2192.7695,-196 2092.7695,-196"/>
<text text-anchor="middle" x="2142.7695" y="-203" font-family="Helvetica,sans-Serif" font-size="10.00" fill="#000000">sbml/util/memory.h</text>
</a>
</g>
</g>
<!-- Node16&#45;&gt;Node21 -->
<g id="edge38" class="edge">
<title>Node16&#45;&gt;Node21</title>
<path fill="none" stroke="#191970" d="M2142.7695,-257.3906C2142.7695,-248.8657 2142.7695,-236.1392 2142.7695,-225.4235"/>
<polygon fill="#191970" stroke="#191970" points="2146.2696,-225.2448 2142.7695,-215.2449 2139.2696,-225.2449 2146.2696,-225.2448"/>
</g>
<!-- Node16&#45;&gt;Node22 -->
<g id="edge39" class="edge">
<title>Node16&#45;&gt;Node22</title>
<path fill="none" stroke="#191970" d="M2188.8499,-257.4581C2243.7622,-246.0874 2335.104,-227.1732 2391.1228,-215.5733"/>
<polygon fill="#191970" stroke="#191970" points="2392.0724,-218.951 2401.155,-213.4959 2390.653,-212.0964 2392.0724,-218.951"/>
</g>
<!-- Node17&#45;&gt;Node7 -->
<g id="edge32" class="edge">
<title>Node17&#45;&gt;Node7</title>
<path fill="none" stroke="#191970" d="M1912.2553,-190.291C1898.7973,-181.6371 1884.2277,-169.4245 1876.7695,-154 1870.7719,-141.5961 1872.8916,-136.2208 1876.7695,-123 1886.2056,-90.8301 1908.5582,-59.1677 1925.2822,-38.6313"/>
<polygon fill="#191970" stroke="#191970" points="1928.0969,-40.7213 1931.8257,-30.8043 1922.7264,-36.2315 1928.0969,-40.7213"/>
</g>
<!-- Node18 -->
<g id="node18" class="node">
<title>Node18</title>
<g id="a_node18"><a xlink:href="libsbml-config-common_8h.html" target="_top" xlink:title="Configuration variables. ">
<polygon fill="#ffffff" stroke="#000000" points="1885.2695,-123.5 1885.2695,-153.5 1998.2695,-153.5 1998.2695,-123.5 1885.2695,-123.5"/>
<text text-anchor="start" x="1893.2695" y="-141.5" font-family="Helvetica,sans-Serif" font-size="10.00" fill="#000000">sbml/common/libsbml</text>
<text text-anchor="middle" x="1941.7695" y="-130.5" font-family="Helvetica,sans-Serif" font-size="10.00" fill="#000000">&#45;config&#45;common.h</text>
</a>
</g>
</g>
<!-- Node17&#45;&gt;Node18 -->
<g id="edge33" class="edge">
<title>Node17&#45;&gt;Node18</title>
<path fill="none" stroke="#191970" d="M1941.7695,-190.2967C1941.7695,-182.5013 1941.7695,-172.7991 1941.7695,-163.9064"/>
<polygon fill="#191970" stroke="#191970" points="1945.2696,-163.6431 1941.7695,-153.6432 1938.2696,-163.6432 1945.2696,-163.6431"/>
</g>
<!-- Node19 -->
<g id="node19" class="node">
<title>Node19</title>
<g id="a_node19"><a xlink:href="libsbml-version_8h.html" target="_top" xlink:title="Define libSBML version numbers for access from client software. ">
<polygon fill="#ffffff" stroke="#000000" points="2016.2695,-123.5 2016.2695,-153.5 2129.2695,-153.5 2129.2695,-123.5 2016.2695,-123.5"/>
<text text-anchor="start" x="2024.2695" y="-141.5" font-family="Helvetica,sans-Serif" font-size="10.00" fill="#000000">sbml/common/libsbml</text>
<text text-anchor="middle" x="2072.7695" y="-130.5" font-family="Helvetica,sans-Serif" font-size="10.00" fill="#000000">&#45;version.h</text>
</a>
</g>
</g>
<!-- Node17&#45;&gt;Node19 -->
<g id="edge34" class="edge">
<title>Node17&#45;&gt;Node19</title>
<path fill="none" stroke="#191970" d="M1971.1685,-190.4639C1989.7469,-180.9619 2013.9605,-168.5779 2034.0894,-158.283"/>
<polygon fill="#191970" stroke="#191970" points="2035.7061,-161.3874 2043.0155,-153.7177 2032.5186,-155.1552 2035.7061,-161.3874"/>
</g>
<!-- Node19&#45;&gt;Node12 -->
<g id="edge35" class="edge">
<title>Node19&#45;&gt;Node12</title>
<path fill="none" stroke="#191970" d="M2083.1516,-123.2977C2088.9209,-114.8498 2096.1411,-104.2773 2102.2248,-95.369"/>
<polygon fill="#191970" stroke="#191970" points="2105.2955,-97.0788 2108.0448,-86.8469 2099.5148,-93.1311 2105.2955,-97.0788"/>
</g>
<!-- Node22&#45;&gt;Node12 -->
<g id="edge42" class="edge">
<title>Node22&#45;&gt;Node12</title>
<path fill="none" stroke="#191970" d="M2435.5817,-195.9793C2427.3103,-178.3927 2407.1011,-140.9728 2377.7695,-123 2346.0501,-103.564 2250.7157,-90.4169 2184.0082,-83.3133"/>
<polygon fill="#191970" stroke="#191970" points="2184.2829,-79.823 2173.9738,-82.267 2183.5569,-86.7853 2184.2829,-79.823"/>
</g>
<!-- Node22&#45;&gt;Node20 -->
<g id="edge40" class="edge">
<title>Node22&#45;&gt;Node20</title>
<path fill="none" stroke="#191970" d="M2426.3016,-195.9005C2410.9451,-184.9549 2385.6233,-166.9064 2367.472,-153.9688"/>
<polygon fill="#191970" stroke="#191970" points="2369.3871,-151.0358 2359.2125,-148.0817 2365.3242,-156.736 2369.3871,-151.0358"/>
</g>
<!-- Node23 -->
<g id="node23" class="node">
<title>Node23</title>
<polygon fill="#ffffff" stroke="#bfbfbf" points="2425.2695,-129 2425.2695,-148 2478.2695,-148 2478.2695,-129 2425.2695,-129"/>
<text text-anchor="middle" x="2451.7695" y="-136" font-family="Helvetica,sans-Serif" font-size="10.00" fill="#000000">stdarg.h</text>
</g>
<!-- Node22&#45;&gt;Node23 -->
<g id="edge41" class="edge">
<title>Node22&#45;&gt;Node23</title>
<path fill="none" stroke="#191970" d="M2441.4889,-195.9005C2443.2532,-186.0495 2446.048,-170.4451 2448.2786,-157.9912"/>
<polygon fill="#191970" stroke="#191970" points="2451.7355,-158.5421 2450.0534,-148.0817 2444.8452,-157.308 2451.7355,-158.5421"/>
</g>
<!-- Node24&#45;&gt;Node10 -->
<g id="edge44" class="edge">
<title>Node24&#45;&gt;Node10</title>
<path fill="none" stroke="#191970" d="M577.2283,-548.2625C570.5523,-529.0058 556.7695,-484.5786 556.7695,-446 556.7695,-446 556.7695,-446 556.7695,-328.5 556.7695,-294.9798 558.9246,-282.4245 580.7695,-257 603.5686,-230.4651 620.8425,-239.1183 650.7695,-221 671.2332,-208.611 672.728,-199.2962 694.7695,-190 730.4601,-174.9472 828.215,-158.7351 897.2144,-148.605"/>
<polygon fill="#191970" stroke="#191970" points="897.7835,-152.0591 907.1752,-147.1554 896.7754,-145.1321 897.7835,-152.0591"/>
</g>
<!-- Node25&#45;&gt;Node10 -->
<g id="edge48" class="edge">
<title>Node25&#45;&gt;Node10</title>
<path fill="none" stroke="#191970" d="M219.5143,-191.3057C222.298,-190.8307 225.0593,-190.3918 227.7695,-190 470.9797,-154.8435 762.5682,-143.5029 896.6657,-139.993"/>
<polygon fill="#191970" stroke="#191970" points="896.9143,-143.4879 906.8219,-139.7343 896.736,-136.4902 896.9143,-143.4879"/>
</g>
<!-- Node25&#45;&gt;Node12 -->
<g id="edge47" class="edge">
<title>Node25&#45;&gt;Node12</title>
<path fill="none" stroke="#191970" d="M179.2684,-190.3653C208.842,-170.5271 264.4855,-136.6528 317.7695,-123 402.7702,-101.2205 1725.7074,-82.2012 2045.5521,-77.9057"/>
<polygon fill="#191970" stroke="#191970" points="2045.6616,-81.4046 2055.6138,-77.771 2045.5678,-74.4053 2045.6616,-81.4046"/>
</g>
<!-- Node26 -->
<g id="node26" class="node">
<title>Node26</title>
<g id="a_node26"><a xlink:href="fbcfwd_8h.html" target="_top" xlink:title="Implementation of the fbcfwd class. ">
<polygon fill="#ffffff" stroke="#000000" points="358.7695,-123.5 358.7695,-153.5 498.7695,-153.5 498.7695,-123.5 358.7695,-123.5"/>
<text text-anchor="start" x="366.7695" y="-141.5" font-family="Helvetica,sans-Serif" font-size="10.00" fill="#000000">sbml/packages/fbc/common</text>
<text text-anchor="middle" x="428.7695" y="-130.5" font-family="Helvetica,sans-Serif" font-size="10.00" fill="#000000">/fbcfwd.h</text>
</a>
</g>
</g>
<!-- Node25&#45;&gt;Node26 -->
<g id="edge49" class="edge">
<title>Node25&#45;&gt;Node26</title>
<path fill="none" stroke="#191970" d="M218.5872,-190.4639C259.8487,-180.2627 314.5464,-166.7397 357.7992,-156.0462"/>
<polygon fill="#191970" stroke="#191970" points="358.8189,-159.3995 367.6866,-153.6017 357.1388,-152.6041 358.8189,-159.3995"/>
</g>
<!-- Node27&#45;&gt;Node12 -->
<g id="edge51" class="edge">
<title>Node27&#45;&gt;Node12</title>
<path fill="none" stroke="#191970" d="M1873.1545,-313.4677C1853.1369,-276.3369 1808.6486,-179.2274 1855.7695,-123 1879.5555,-94.6173 1977.1458,-83.7346 2045.4853,-79.5701"/>
<polygon fill="#191970" stroke="#191970" points="2045.9816,-83.0475 2055.7647,-78.9804 2045.5806,-76.059 2045.9816,-83.0475"/>
</g>
<!-- Node28 -->
<g id="node28" class="node">
<title>Node28</title>
<g id="a_node28"><a xlink:href="_s_b_m_l_type_codes_8h.html" target="_top" xlink:title="Enumeration to identify SBML objects at runtime. ">
<polygon fill="#ffffff" stroke="#000000" points="1885.2695,-257.5 1885.2695,-276.5 2012.2695,-276.5 2012.2695,-257.5 1885.2695,-257.5"/>
<text text-anchor="middle" x="1948.7695" y="-264.5" font-family="Helvetica,sans-Serif" font-size="10.00" fill="#000000">sbml/SBMLTypeCodes.h</text>
</a>
</g>
</g>
<!-- Node27&#45;&gt;Node28 -->
<g id="edge52" class="edge">
<title>Node27&#45;&gt;Node28</title>
<path fill="none" stroke="#191970" d="M1898.3313,-313.2977C1908.116,-304.3163 1920.5169,-292.9334 1930.5738,-283.702"/>
<polygon fill="#191970" stroke="#191970" points="1933.0418,-286.1876 1938.042,-276.8469 1928.3082,-281.0307 1933.0418,-286.1876"/>
</g>
<!-- Node28&#45;&gt;Node12 -->
<g id="edge54" class="edge">
<title>Node28&#45;&gt;Node12</title>
<path fill="none" stroke="#191970" d="M1921.8051,-257.4934C1905.5982,-250.2188 1886.3187,-238.4326 1876.7695,-221 1855.8445,-182.8001 1849.0469,-156.5938 1876.7695,-123 1897.8613,-97.4414 1983.0697,-85.9206 2045.5281,-80.8386"/>
<polygon fill="#191970" stroke="#191970" points="2046.0328,-84.3101 2055.7328,-80.0484 2045.4924,-77.331 2046.0328,-84.3101"/>
</g>
<!-- Node28&#45;&gt;Node17 -->
<g id="edge53" class="edge">
<title>Node28&#45;&gt;Node17</title>
<path fill="none" stroke="#191970" d="M1947.6758,-257.3906C1946.86,-250.2234 1945.7062,-240.0862 1944.6345,-230.671"/>
<polygon fill="#191970" stroke="#191970" points="1948.0905,-230.0846 1943.4819,-220.5446 1941.1354,-230.8763 1948.0905,-230.0846"/>
</g>
<!-- Node29&#45;&gt;Node10 -->
<g id="edge57" class="edge">
<title>Node29&#45;&gt;Node10</title>
<path fill="none" stroke="#191970" d="M360.5224,-191.3605C363.3039,-190.8706 366.0626,-190.4136 368.7695,-190 557.9996,-161.0858 783.3586,-147.2244 897.1758,-141.6481"/>
<polygon fill="#191970" stroke="#191970" points="897.3527,-145.1437 907.1723,-141.1656 897.0152,-138.1518 897.3527,-145.1437"/>
</g>
<!-- Node29&#45;&gt;Node12 -->
<g id="edge56" class="edge">
<title>Node29&#45;&gt;Node12</title>
<path fill="none" stroke="#191970" d="M303.1823,-190.3584C309.7692,-170.8435 324.2201,-137.6825 349.7695,-123 387.1526,-101.5171 1722.9079,-82.2549 2045.279,-77.9122"/>
<polygon fill="#191970" stroke="#191970" points="2045.4672,-81.41 2055.4193,-77.776 2045.3732,-74.4107 2045.4672,-81.41"/>
</g>
<!-- Node29&#45;&gt;Node26 -->
<g id="edge58" class="edge">
<title>Node29&#45;&gt;Node26</title>
<path fill="none" stroke="#191970" d="M327.9441,-190.4639C346.2976,-181.0047 370.1931,-168.6894 390.1145,-158.4222"/>
<polygon fill="#191970" stroke="#191970" points="391.9571,-161.4101 399.2426,-153.7177 388.7502,-155.1879 391.9571,-161.4101"/>
</g>
<!-- Node30&#45;&gt;Node10 -->
<g id="edge61" class="edge">
<title>Node30&#45;&gt;Node10</title>
<path fill="none" stroke="#191970" d="M501.5364,-191.4483C504.3141,-190.9347 507.0682,-190.4487 509.7695,-190 645.688,-167.426 805.8341,-152.0231 897.1192,-144.2886"/>
<polygon fill="#191970" stroke="#191970" points="897.4181,-147.7759 907.0901,-143.4511 896.8322,-140.8005 897.4181,-147.7759"/>
</g>
<!-- Node30&#45;&gt;Node12 -->
<g id="edge60" class="edge">
<title>Node30&#45;&gt;Node12</title>
<path fill="none" stroke="#191970" d="M484.2427,-190.4932C544.6681,-170.8828 656.4569,-137.3542 754.7695,-123 1007.7152,-86.0686 1804.8719,-78.7048 2045.3933,-77.3104"/>
<polygon fill="#191970" stroke="#191970" points="2045.7674,-80.8084 2055.7475,-77.2521 2045.728,-73.8086 2045.7674,-80.8084"/>
</g>
<!-- Node30&#45;&gt;Node26 -->
<g id="edge62" class="edge">
<title>Node30&#45;&gt;Node26</title>
<path fill="none" stroke="#191970" d="M437.2735,-190.2967C435.9796,-182.4156 434.3657,-172.5857 432.8927,-163.6135"/>
<polygon fill="#191970" stroke="#191970" points="436.3297,-162.944 431.2557,-153.6432 429.4222,-164.0781 436.3297,-162.944"/>
</g>
<!-- Node31&#45;&gt;Node10 -->
<g id="edge65" class="edge">
<title>Node31&#45;&gt;Node10</title>
<path fill="none" stroke="#191970" d="M642.5326,-192.6959C647.3457,-191.7616 652.1342,-190.8525 656.7695,-190 739.4138,-174.801 834.7064,-159.4815 898.4379,-149.5509"/>
<polygon fill="#191970" stroke="#191970" points="899.0449,-152.9987 908.3887,-148.0042 897.9697,-146.0818 899.0449,-152.9987"/>
</g>
<!-- Node31&#45;&gt;Node12 -->
<g id="edge64" class="edge">
<title>Node31&#45;&gt;Node12</title>
<path fill="none" stroke="#191970" d="M625.9482,-190.4721C687.0334,-170.9204 799.7337,-137.5451 898.7695,-123 1122.3984,-90.1563 1821.7451,-80.0797 2045.3102,-77.6566"/>
<polygon fill="#191970" stroke="#191970" points="2045.6307,-81.1534 2055.5928,-77.5469 2045.556,-74.1538 2045.6307,-81.1534"/>
</g>
<!-- Node31&#45;&gt;Node26 -->
<g id="edge66" class="edge">
<title>Node31&#45;&gt;Node26</title>
<path fill="none" stroke="#191970" d="M546.6578,-190.4639C524.7329,-180.7996 496.0442,-168.154 472.4576,-157.7572"/>
<polygon fill="#191970" stroke="#191970" points="473.5923,-154.4325 463.0301,-153.6017 470.7689,-160.8379 473.5923,-154.4325"/>
</g>
<!-- Node32&#45;&gt;Node12 -->
<g id="edge71" class="edge">
<title>Node32&#45;&gt;Node12</title>
<path fill="none" stroke="#191970" d="M2834.7873,-772.4789C2887.4091,-764.1578 2955.1578,-751.0701 2978.7695,-736 3009.7902,-716.2012 3028.7695,-706.8004 3028.7695,-670 3028.7695,-670 3028.7695,-670 3028.7695,-390 3028.7695,-255.175 3001.4577,-190.5401 2884.7695,-123 2825.0077,-88.4093 2361.7555,-79.6973 2183.9461,-77.6175"/>
<polygon fill="#191970" stroke="#191970" points="2183.9577,-74.1175 2173.9186,-77.5037 2183.8782,-81.117 2183.9577,-74.1175"/>
</g>
<!-- Node33 -->
<g id="node33" class="node">
<title>Node33</title>
<g id="a_node33"><a xlink:href="_a_s_t_node_type_8h.html" target="_top" xlink:title="Enumeration for Abstract Syntax Tree (AST). ">
<polygon fill="#ffffff" stroke="#000000" points="2861.2695,-492.5 2861.2695,-511.5 3000.2695,-511.5 3000.2695,-492.5 2861.2695,-492.5"/>
<text text-anchor="middle" x="2930.7695" y="-499.5" font-family="Helvetica,sans-Serif" font-size="10.00" fill="#000000">sbml/math/ASTNodeType.h</text>
</a>
</g>
</g>
<!-- Node32&#45;&gt;Node33 -->
<g id="edge68" class="edge">
<title>Node32&#45;&gt;Node33</title>
<path fill="none" stroke="#191970" d="M2837.03,-776.004C2902.7218,-766.0892 2990.7695,-739.784 2990.7695,-670 2990.7695,-670 2990.7695,-670 2990.7695,-614 2990.7695,-576.7757 2964.6985,-539.9604 2946.9274,-519.1895"/>
<polygon fill="#191970" stroke="#191970" points="2949.4041,-516.7077 2940.1445,-511.5588 2944.1723,-521.3582 2949.4041,-516.7077"/>
</g>
<!-- Node34 -->
<g id="node34" class="node">
<title>Node34</title>
<g id="a_node34"><a xlink:href="_stack_8h.html" target="_top" xlink:title="sbml/util/Stack.h">
<polygon fill="#ffffff" stroke="#000000" points="2722.2695,-716.5 2722.2695,-735.5 2811.2695,-735.5 2811.2695,-716.5 2722.2695,-716.5"/>
<text text-anchor="middle" x="2766.7695" y="-723.5" font-family="Helvetica,sans-Serif" font-size="10.00" fill="#000000">sbml/util/Stack.h</text>
</a>
</g>
</g>
<!-- Node32&#45;&gt;Node34 -->
<g id="edge72" class="edge">
<title>Node32&#45;&gt;Node34</title>
<path fill="none" stroke="#191970" d="M2766.7695,-772.2455C2766.7695,-764.9382 2766.7695,-754.6944 2766.7695,-745.7046"/>
<polygon fill="#191970" stroke="#191970" points="2770.2696,-745.6426 2766.7695,-735.6427 2763.2696,-745.6427 2770.2696,-745.6426"/>
</g>
<!-- Node35 -->
<g id="node35" class="node">
<title>Node35</title>
<g id="a_node35"><a xlink:href="_a_s_t_node_8h.html" target="_top" xlink:title="Abstract Syntax Tree (AST) for representing formula trees. ">
<polygon fill="#ffffff" stroke="#000000" points="2527.2695,-716.5 2527.2695,-735.5 2644.2695,-735.5 2644.2695,-716.5 2527.2695,-716.5"/>
<text text-anchor="middle" x="2585.7695" y="-723.5" font-family="Helvetica,sans-Serif" font-size="10.00" fill="#000000">sbml/math/ASTNode.h</text>
</a>
</g>
</g>
<!-- Node32&#45;&gt;Node35 -->
<g id="edge73" class="edge">
<title>Node32&#45;&gt;Node35</title>
<path fill="none" stroke="#191970" d="M2730.4125,-772.3733C2698.4933,-763.0613 2652.5354,-748.8953 2620.9685,-738.671"/>
<polygon fill="#191970" stroke="#191970" points="2621.8537,-735.2783 2611.2612,-735.5011 2619.6808,-741.9325 2621.8537,-735.2783"/>
</g>
<!-- Node36 -->
<g id="node36" class="node">
<title>Node36</title>
<g id="a_node36"><a xlink:href="_formula_tokenizer_8h.html" target="_top" xlink:title="Tokenizes an SBML formula string. ">
<polygon fill="#ffffff" stroke="#000000" points="2808.7695,-660.5 2808.7695,-679.5 2962.7695,-679.5 2962.7695,-660.5 2808.7695,-660.5"/>
<text text-anchor="middle" x="2885.7695" y="-667.5" font-family="Helvetica,sans-Serif" font-size="10.00" fill="#000000">sbml/math/FormulaTokenizer.h</text>
</a>
</g>
</g>
<!-- Node32&#45;&gt;Node36 -->
<g id="edge139" class="edge">
<title>Node32&#45;&gt;Node36</title>
<path fill="none" stroke="#191970" d="M2778.6124,-772.4167C2789.7279,-763.3048 2806.7032,-749.0858 2820.7695,-736 2837.9314,-720.0345 2856.6209,-700.855 2869.5356,-687.2963"/>
<polygon fill="#191970" stroke="#191970" points="2872.4321,-689.3277 2876.7653,-679.6594 2867.3487,-684.5153 2872.4321,-689.3277"/>
</g>
<!-- Node33&#45;&gt;Node7 -->
<g id="edge69" class="edge">
<title>Node33&#45;&gt;Node7</title>
<path fill="none" stroke="#191970" d="M2940.1445,-492.4412C2957.0195,-474.1765 2990.7695,-432.353 2990.7695,-390 2990.7695,-390 2990.7695,-390 2990.7695,-138.5 2990.7695,-39.6052 2243.0479,-20.0085 2012.5791,-16.3171"/>
<polygon fill="#191970" stroke="#191970" points="2012.3769,-12.8137 2002.3238,-16.158 2012.2683,-19.8128 2012.3769,-12.8137"/>
</g>
<!-- Node33&#45;&gt;Node12 -->
<g id="edge70" class="edge">
<title>Node33&#45;&gt;Node12</title>
<path fill="none" stroke="#191970" d="M2928.4771,-492.4772C2924.053,-473.2372 2914.7695,-428.3016 2914.7695,-390 2914.7695,-390 2914.7695,-390 2914.7695,-205.5 2914.7695,-157.9834 2889.0885,-144.6087 2846.7695,-123 2788.7362,-93.3673 2355.5153,-81.7129 2184.1973,-78.2317"/>
<polygon fill="#191970" stroke="#191970" points="2184.0993,-74.7291 2174.0313,-78.0285 2183.9593,-81.7277 2184.0993,-74.7291"/>
</g>
<!-- Node35&#45;&gt;Node9 -->
<g id="edge84" class="edge">
<title>Node35&#45;&gt;Node9</title>
<path fill="none" stroke="#191970" d="M2527.1774,-725.3661C2339.8834,-723.0218 1757.1616,-713.1815 1571.7695,-680 1410.5816,-651.1506 1373.4611,-627.1534 1220.7695,-568 1059.5668,-505.5493 987.6661,-494.5955 902.7695,-344 881.3613,-306.0245 877.6505,-253.7087 877.3675,-225.4874"/>
<polygon fill="#191970" stroke="#191970" points="880.8682,-225.3092 877.4084,-215.2952 873.8682,-225.281 880.8682,-225.3092"/>
</g>
<!-- Node35&#45;&gt;Node10 -->
<g id="edge75" class="edge">
<title>Node35&#45;&gt;Node10</title>
<path fill="none" stroke="#191970" d="M2527.0877,-725.7949C2327.7777,-724.7511 1677.8267,-718.4121 1472.7695,-680 1244.5566,-637.2502 822.7096,-584.3525 666.7695,-400 625.2838,-350.9556 619.1448,-315.4598 645.7695,-257 646.0633,-256.3549 722.1345,-190.3149 722.7695,-190 752.8569,-175.078 835.3307,-159.6283 896.965,-149.5931"/>
<polygon fill="#191970" stroke="#191970" points="897.736,-153.0141 907.0522,-147.9685 896.6229,-146.1032 897.736,-153.0141"/>
</g>
<!-- Node35&#45;&gt;Node11 -->
<g id="edge137" class="edge">
<title>Node35&#45;&gt;Node11</title>
<path fill="none" stroke="#191970" d="M2526.997,-722.1633C2456.7089,-716.6911 2335.8688,-704.4708 2234.7695,-680 2163.1718,-662.67 2144.9179,-656.4186 2078.7695,-624 1995.8495,-583.3617 1971.6394,-574.617 1903.7695,-512 1771.4033,-389.8782 1780.3371,-321.9537 1657.7695,-190 1648.1518,-179.6457 1636.6724,-169.126 1626.474,-160.3166"/>
<polygon fill="#191970" stroke="#191970" points="1628.5174,-157.4601 1618.6298,-153.6541 1623.9859,-162.7954 1628.5174,-157.4601"/>
</g>
<!-- Node35&#45;&gt;Node12 -->
<g id="edge74" class="edge">
<title>Node35&#45;&gt;Node12</title>
<path fill="none" stroke="#191970" d="M2585.6505,-716.0744C2585.6586,-703.0845 2586.237,-679.6592 2589.7695,-660 2598.1491,-613.3661 2620.7695,-605.3808 2620.7695,-558 2620.7695,-558 2620.7695,-558 2620.7695,-205.5 2620.7695,-160.9329 2602.1286,-145.6894 2563.7695,-123 2531.8626,-104.127 2301.7872,-88.0208 2183.949,-80.9034"/>
<polygon fill="#191970" stroke="#191970" points="2184.1306,-77.4081 2173.9393,-80.3041 2183.7122,-84.3955 2184.1306,-77.4081"/>
</g>
<!-- Node35&#45;&gt;Node32 -->
<g id="edge83" class="edge">
<title>Node35&#45;&gt;Node32</title>
<path fill="none" stroke="#191970" d="M2621.6958,-735.5011C2653.4879,-744.7691 2699.4468,-758.9309 2731.1428,-769.1905"/>
<polygon fill="#191970" stroke="#191970" points="2730.3041,-772.5984 2740.8966,-772.3733 2732.4757,-765.9437 2730.3041,-772.5984"/>
</g>
<!-- Node35&#45;&gt;Node33 -->
<g id="edge76" class="edge">
<title>Node35&#45;&gt;Node33</title>
<path fill="none" stroke="#191970" d="M2644.3808,-718.9996C2680.2031,-712.7675 2725.8744,-701.2001 2761.7695,-680 2833.1739,-637.8278 2893.68,-556.9086 2918.5934,-520.5239"/>
<polygon fill="#191970" stroke="#191970" points="2921.7206,-522.1459 2924.402,-511.896 2915.9139,-518.2366 2921.7206,-522.1459"/>
</g>
<!-- Node35&#45;&gt;Node36 -->
<g id="edge77" class="edge">
<title>Node35&#45;&gt;Node36</title>
<path fill="none" stroke="#191970" d="M2637.0005,-716.4369C2688.9904,-706.7321 2769.4769,-691.708 2824.7376,-681.3926"/>
<polygon fill="#191970" stroke="#191970" points="2825.5619,-684.7993 2834.7499,-679.5237 2824.2774,-677.9182 2825.5619,-684.7993"/>
</g>
<!-- Node37 -->
<g id="node37" class="node">
<title>Node37</title>
<g id="a_node37"><a xlink:href="_formula_formatter_8h.html" target="_top" xlink:title="Formats an AST formula tree as an SBML formula string. ">
<polygon fill="#ffffff" stroke="#000000" points="2598.7695,-660.5 2598.7695,-679.5 2752.7695,-679.5 2752.7695,-660.5 2598.7695,-660.5"/>
<text text-anchor="middle" x="2675.7695" y="-667.5" font-family="Helvetica,sans-Serif" font-size="10.00" fill="#000000">sbml/math/FormulaFormatter.h</text>
</a>
</g>
</g>
<!-- Node35&#45;&gt;Node37 -->
<g id="edge79" class="edge">
<title>Node35&#45;&gt;Node37</title>
<path fill="none" stroke="#191970" d="M2596.1795,-716.2455C2608.4427,-707.5731 2628.7714,-694.7645 2645.9073,-684.825"/>
<polygon fill="#191970" stroke="#191970" points="2648.0621,-687.6262 2655.0273,-679.6427 2644.6037,-681.5402 2648.0621,-687.6262"/>
</g>
<!-- Node39 -->
<g id="node39" class="node">
<title>Node39</title>
<g id="a_node39"><a xlink:href="_syntax_checker_8h.html" target="_top" xlink:title="Syntax checking functions. ">
<polygon fill="#ffffff" stroke="#000000" points="2243.2695,-660.5 2243.2695,-679.5 2360.2695,-679.5 2360.2695,-660.5 2243.2695,-660.5"/>
<text text-anchor="middle" x="2301.7695" y="-667.5" font-family="Helvetica,sans-Serif" font-size="10.00" fill="#000000">sbml/SyntaxChecker.h</text>
</a>
</g>
</g>
<!-- Node35&#45;&gt;Node39 -->
<g id="edge85" class="edge">
<title>Node35&#45;&gt;Node39</title>
<path fill="none" stroke="#191970" d="M2537.2709,-716.4369C2488.258,-706.7724 2412.4918,-691.8326 2360.1989,-681.5213"/>
<polygon fill="#191970" stroke="#191970" points="2360.5564,-678.0244 2350.0682,-679.5237 2359.2021,-684.8922 2360.5564,-678.0244"/>
</g>
<!-- Node52 -->
<g id="node52" class="node">
<title>Node52</title>
<g id="a_node52"><a xlink:href="_a_s_t_base_plugin_8h.html" target="_top" xlink:title="sbml/extension/ASTBasePlugin.h">
<polygon fill="#ffffff" stroke="#000000" points="2378.7695,-660.5 2378.7695,-679.5 2542.7695,-679.5 2542.7695,-660.5 2378.7695,-660.5"/>
<text text-anchor="middle" x="2460.7695" y="-667.5" font-family="Helvetica,sans-Serif" font-size="10.00" fill="#000000">sbml/extension/ASTBasePlugin.h</text>
</a>
</g>
</g>
<!-- Node35&#45;&gt;Node52 -->
<g id="edge138" class="edge">
<title>Node35&#45;&gt;Node52</title>
<path fill="none" stroke="#191970" d="M2564.2813,-716.3733C2544.1255,-707.3435 2513.7815,-693.7494 2491.1515,-683.6111"/>
<polygon fill="#191970" stroke="#191970" points="2492.5344,-680.3955 2481.9774,-679.5011 2489.6725,-686.7838 2492.5344,-680.3955"/>
</g>
<!-- Node36&#45;&gt;Node12 -->
<g id="edge78" class="edge">
<title>Node36&#45;&gt;Node12</title>
<path fill="none" stroke="#191970" d="M2877.4883,-660.2442C2862.582,-641.6512 2832.7695,-599.3024 2832.7695,-558 2832.7695,-558 2832.7695,-558 2832.7695,-205.5 2832.7695,-119.9144 2741.3999,-145.296 2658.7695,-123 2571.0981,-99.3438 2309.9004,-85.3296 2184.0582,-79.7765"/>
<polygon fill="#191970" stroke="#191970" points="2183.9158,-76.2671 2173.7728,-79.3282 2183.6109,-83.2604 2183.9158,-76.2671"/>
</g>
<!-- Node37&#45;&gt;Node12 -->
<g id="edge80" class="edge">
<title>Node37&#45;&gt;Node12</title>
<path fill="none" stroke="#191970" d="M2673.3339,-660.4856C2668.6332,-641.2608 2658.7695,-596.351 2658.7695,-558 2658.7695,-558 2658.7695,-558 2658.7695,-205.5 2658.7695,-167.3133 2664.2702,-147.2473 2634.7695,-123 2600.6933,-94.992 2317.7273,-82.9801 2184.1202,-78.8326"/>
<polygon fill="#191970" stroke="#191970" points="2184.091,-75.3302 2173.9891,-78.5243 2183.878,-82.3269 2184.091,-75.3302"/>
</g>
<!-- Node37&#45;&gt;Node35 -->
<g id="edge82" class="edge">
<title>Node37&#45;&gt;Node35</title>
<path fill="none" stroke="#191970" d="M2665.5175,-679.6427C2653.324,-688.2794 2633.0164,-701.0824 2615.8533,-711.0465"/>
<polygon fill="#191970" stroke="#191970" points="2613.6749,-708.2589 2606.7132,-716.2455 2617.1359,-714.3435 2613.6749,-708.2589"/>
</g>
<!-- Node38 -->
<g id="node38" class="node">
<title>Node38</title>
<g id="a_node38"><a xlink:href="_string_buffer_8h.html" target="_top" xlink:title="sbml/util/StringBuffer.h">
<polygon fill="#ffffff" stroke="#000000" points="2687.2695,-604.5 2687.2695,-623.5 2804.2695,-623.5 2804.2695,-604.5 2687.2695,-604.5"/>
<text text-anchor="middle" x="2745.7695" y="-611.5" font-family="Helvetica,sans-Serif" font-size="10.00" fill="#000000">sbml/util/StringBuffer.h</text>
</a>
</g>
</g>
<!-- Node37&#45;&gt;Node38 -->
<g id="edge81" class="edge">
<title>Node37&#45;&gt;Node38</title>
<path fill="none" stroke="#191970" d="M2687.9626,-660.2455C2698.4016,-651.8943 2713.635,-639.7076 2725.8435,-629.9408"/>
<polygon fill="#191970" stroke="#191970" points="2728.0939,-632.6227 2733.7162,-623.6427 2723.721,-627.1566 2728.0939,-632.6227"/>
</g>
<!-- Node39&#45;&gt;Node12 -->
<g id="edge86" class="edge">
<title>Node39&#45;&gt;Node12</title>
<path fill="none" stroke="#191970" d="M2350.5974,-660.4285C2398.2101,-650.6933 2466.9644,-635.4516 2491.7695,-624 2537.1308,-603.0583 2582.7695,-607.962 2582.7695,-558 2582.7695,-558 2582.7695,-558 2582.7695,-205.5 2582.7695,-162.3929 2568.2121,-146.0253 2531.7695,-123 2503.0713,-104.8678 2295.0213,-88.7494 2184.0623,-81.3279"/>
<polygon fill="#191970" stroke="#191970" points="2184.1722,-77.8276 2173.9626,-80.6584 2183.7092,-84.8122 2184.1722,-77.8276"/>
</g>
<!-- Node39&#45;&gt;Node22 -->
<g id="edge136" class="edge">
<title>Node39&#45;&gt;Node22</title>
<path fill="none" stroke="#191970" d="M2341.3525,-660.4456C2410.2094,-642.6612 2544.7695,-602.2464 2544.7695,-558 2544.7695,-558 2544.7695,-558 2544.7695,-328.5 2544.7695,-294.9798 2541.4312,-283.3951 2520.7695,-257 2508.1474,-240.8753 2488.9795,-228.3646 2472.4582,-219.7136"/>
<polygon fill="#191970" stroke="#191970" points="2473.6191,-216.3822 2463.1061,-215.0678 2470.5048,-222.6513 2473.6191,-216.3822"/>
</g>
<!-- Node40 -->
<g id="node40" class="node">
<title>Node40</title>
<g id="a_node40"><a xlink:href="_s_base_8h.html" target="_top" xlink:title="Definition of SBase_t, the base object of all SBML objects. ">
<polygon fill="#ffffff" stroke="#000000" points="2087.7695,-604.5 2087.7695,-623.5 2165.7695,-623.5 2165.7695,-604.5 2087.7695,-604.5"/>
<text text-anchor="middle" x="2126.7695" y="-611.5" font-family="Helvetica,sans-Serif" font-size="10.00" fill="#000000">sbml/SBase.h</text>
</a>
</g>
</g>
<!-- Node39&#45;&gt;Node40 -->
<g id="edge87" class="edge">
<title>Node39&#45;&gt;Node40</title>
<path fill="none" stroke="#191970" d="M2266.4439,-660.3733C2235.6563,-651.1016 2191.4668,-637.0178 2161.0074,-626.804"/>
<polygon fill="#191970" stroke="#191970" points="2161.8375,-623.3901 2151.2433,-623.5011 2159.5944,-630.021 2161.8375,-623.3901"/>
</g>
<!-- Node40&#45;&gt;Node5 -->
<g id="edge130" class="edge">
<title>Node40&#45;&gt;Node5</title>
<path fill="none" stroke="#191970" d="M2087.328,-613.6888C1944.6695,-612.269 1455.9797,-604.7707 1304.7695,-568 1186.4654,-539.2312 1148.1565,-534.1177 1054.7695,-456 1017.7706,-425.0506 989.7892,-374.5879 976.4367,-347.3547"/>
<polygon fill="#191970" stroke="#191970" points="979.5088,-345.6654 972.0471,-338.1438 973.1897,-348.6769 979.5088,-345.6654"/>
</g>
<!-- Node40&#45;&gt;Node10 -->
<g id="edge89" class="edge">
<title>Node40&#45;&gt;Node10</title>
<path fill="none" stroke="#191970" d="M2087.6812,-611.617C2011.8457,-606.5974 1839.643,-593.2621 1696.7695,-568 1558.7781,-543.6011 1527.0911,-524.4559 1390.7695,-492 1320.706,-475.319 1294.0138,-493.8986 1232.7695,-456 1102.7904,-375.5676 1112.8638,-307.224 1014.7695,-190 1005.2179,-178.5857 994.3564,-165.8701 985.8146,-155.9297"/>
<polygon fill="#191970" stroke="#191970" points="988.4418,-153.6168 979.2649,-148.322 983.1369,-158.1839 988.4418,-153.6168"/>
</g>
<!-- Node40&#45;&gt;Node12 -->
<g id="edge88" class="edge">
<title>Node40&#45;&gt;Node12</title>
<path fill="none" stroke="#191970" d="M2166.0013,-609.5754C2255.8336,-598.3548 2468.7695,-565.1026 2468.7695,-502 2468.7695,-502 2468.7695,-502 2468.7695,-328.5 2468.7695,-235.3666 2571.6989,-192.5599 2509.7695,-123 2488.5334,-99.1472 2291.6439,-85.7442 2184.1119,-80.1461"/>
<polygon fill="#191970" stroke="#191970" points="2184.1592,-76.644 2173.9935,-79.6286 2183.8016,-83.6349 2184.1592,-76.644"/>
</g>
<!-- Node40&#45;&gt;Node14 -->
<g id="edge123" class="edge">
<title>Node40&#45;&gt;Node14</title>
<path fill="none" stroke="#191970" d="M2104.5186,-604.3895C2071.3425,-588.3825 2012.7695,-552.9125 2012.7695,-502 2012.7695,-502 2012.7695,-502 2012.7695,-446 2012.7695,-415.4754 2017.0102,-406.7192 2031.7695,-380 2038.9247,-367.0468 2049.8745,-354.6116 2059.2961,-345.2064"/>
<polygon fill="#191970" stroke="#191970" points="2061.9387,-347.5214 2066.7339,-338.0738 2057.0937,-342.4691 2061.9387,-347.5214"/>
</g>
<!-- Node40&#45;&gt;Node28 -->
<g id="edge90" class="edge">
<title>Node40&#45;&gt;Node28</title>
<path fill="none" stroke="#191970" d="M2149.0205,-604.3895C2182.1966,-588.3825 2240.7695,-552.9125 2240.7695,-502 2240.7695,-502 2240.7695,-502 2240.7695,-390 2240.7695,-338.364 2199.7452,-336.5056 2153.7695,-313 2113.0517,-292.1825 2063.0471,-280.7224 2022.6184,-274.4474"/>
<polygon fill="#191970" stroke="#191970" points="2022.9618,-270.9602 2012.5577,-272.9612 2021.9388,-277.8851 2022.9618,-270.9602"/>
</g>
<!-- Node40&#45;&gt;Node39 -->
<g id="edge124" class="edge">
<title>Node40&#45;&gt;Node39</title>
<path fill="none" stroke="#191970" d="M2161.6778,-623.5011C2192.3436,-632.729 2236.534,-646.8084 2267.1172,-657.057"/>
<polygon fill="#191970" stroke="#191970" points="2266.3338,-660.4867 2276.928,-660.3733 2268.5753,-653.8553 2266.3338,-660.4867"/>
</g>
<!-- Node41 -->
<g id="node41" class="node">
<title>Node41</title>
<g id="a_node41"><a xlink:href="_r_d_f_annotation_8h.html" target="_top" xlink:title="RDFAnnotation I/O. ">
<polygon fill="#ffffff" stroke="#000000" points="1313.2695,-548.5 1313.2695,-567.5 1480.2695,-567.5 1480.2695,-548.5 1313.2695,-548.5"/>
<text text-anchor="middle" x="1396.7695" y="-555.5" font-family="Helvetica,sans-Serif" font-size="10.00" fill="#000000">sbml/annotation/RDFAnnotation.h</text>
</a>
</g>
</g>
<!-- Node40&#45;&gt;Node41 -->
<g id="edge91" class="edge">
<title>Node40&#45;&gt;Node41</title>
<path fill="none" stroke="#191970" d="M2087.5216,-610.9892C1975.519,-602.3972 1652.0892,-577.5862 1490.6913,-565.205"/>
<polygon fill="#191970" stroke="#191970" points="1490.537,-561.6829 1480.2986,-564.4077 1490.0015,-568.6624 1490.537,-561.6829"/>
</g>
<!-- Node44 -->
<g id="node44" class="node">
<title>Node44</title>
<g id="a_node44"><a xlink:href="_list_8h.html" target="_top" xlink:title="Simple, generic list utility class. ">
<polygon fill="#ffffff" stroke="#000000" points="1475.7695,-319 1475.7695,-338 1555.7695,-338 1555.7695,-319 1475.7695,-319"/>
<text text-anchor="middle" x="1515.7695" y="-326" font-family="Helvetica,sans-Serif" font-size="10.00" fill="#000000">sbml/util/List.h</text>
</a>
</g>
</g>
<!-- Node40&#45;&gt;Node44 -->
<g id="edge122" class="edge">
<title>Node40&#45;&gt;Node44</title>
<path fill="none" stroke="#191970" d="M2087.5247,-612.9113C1975.4194,-608.7464 1661.7695,-589.2935 1661.7695,-502 1661.7695,-502 1661.7695,-502 1661.7695,-446 1661.7695,-391.7037 1599.729,-358.2658 1556.5327,-341.5648"/>
<polygon fill="#191970" stroke="#191970" points="1557.6832,-338.2586 1547.0902,-338.0609 1555.2479,-344.8213 1557.6832,-338.2586"/>
</g>
<!-- Node48 -->
<g id="node48" class="node">
<title>Node48</title>
<g id="a_node48"><a xlink:href="_c_v_term_8h.html" target="_top" xlink:title="Definition of a CVTerm_t class for adding annotations to a Model_t. ">
<polygon fill="#ffffff" stroke="#000000" points="1541.2695,-257.5 1541.2695,-276.5 1676.2695,-276.5 1676.2695,-257.5 1541.2695,-257.5"/>
<text text-anchor="middle" x="1608.7695" y="-264.5" font-family="Helvetica,sans-Serif" font-size="10.00" fill="#000000">sbml/annotation/CVTerm.h</text>
</a>
</g>
</g>
<!-- Node40&#45;&gt;Node48 -->
<g id="edge117" class="edge">
<title>Node40&#45;&gt;Node48</title>
<path fill="none" stroke="#191970" d="M2102.9369,-604.421C2082.4805,-595.8508 2052.4763,-582.4416 2027.7695,-568 1865.2222,-472.9877 1687.1077,-331.06 1628.5892,-283.3264"/>
<polygon fill="#191970" stroke="#191970" points="1630.4962,-280.3644 1620.5409,-276.739 1626.0625,-285.7813 1630.4962,-280.3644"/>
</g>
<!-- Node49 -->
<g id="node49" class="node">
<title>Node49</title>
<g id="a_node49"><a xlink:href="_s_b_m_l_constructor_exception_8h.html" target="_top" xlink:title="Definition of SBMLConstructorException_t, the exception class for constructor exceptions. ">
<polygon fill="#ffffff" stroke="#000000" points="2040.7695,-380.5 2040.7695,-399.5 2212.7695,-399.5 2212.7695,-380.5 2040.7695,-380.5"/>
<text text-anchor="middle" x="2126.7695" y="-387.5" font-family="Helvetica,sans-Serif" font-size="10.00" fill="#000000">sbml/SBMLConstructorException.h</text>
</a>
</g>
</g>
<!-- Node40&#45;&gt;Node49 -->
<g id="edge125" class="edge">
<title>Node40&#45;&gt;Node49</title>
<path fill="none" stroke="#191970" d="M2126.7695,-604.375C2126.7695,-570.4851 2126.7695,-456.2317 2126.7695,-409.8332"/>
<polygon fill="#191970" stroke="#191970" points="2130.2696,-409.5891 2126.7695,-399.5891 2123.2696,-409.5892 2130.2696,-409.5891"/>
</g>
<!-- Node50 -->
<g id="node50" class="node">
<title>Node50</title>
<g id="a_node50"><a xlink:href="_expected_attributes_8h.html" target="_top" xlink:title="Definition of ExpectedAttributes, the class allowing the specification of attributes to expect...">
<polygon fill="#ffffff" stroke="#000000" points="2307.2695,-436.5 2307.2695,-455.5 2440.2695,-455.5 2440.2695,-436.5 2307.2695,-436.5"/>
<text text-anchor="middle" x="2373.7695" y="-443.5" font-family="Helvetica,sans-Serif" font-size="10.00" fill="#000000">sbml/ExpectedAttributes.h</text>
</a>
</g>
</g>
<!-- Node40&#45;&gt;Node50 -->
<g id="edge128" class="edge">
<title>Node40&#45;&gt;Node50</title>
<path fill="none" stroke="#191970" d="M2166.0283,-610.9218C2201.9656,-606.4095 2255.1256,-595.3032 2292.7695,-568 2329.6519,-541.2491 2354.5907,-492.1645 2366.2333,-465.1248"/>
<polygon fill="#191970" stroke="#191970" points="2369.5743,-466.2043 2370.1637,-455.6259 2363.1062,-463.5279 2369.5743,-466.2043"/>
</g>
<!-- Node51 -->
<g id="node51" class="node">
<title>Node51</title>
<g id="a_node51"><a xlink:href="_x_m_l_error_8h.html" target="_top" xlink:title="Represents errors (and messages) encountered during an XML parse. ">
<polygon fill="#ffffff" stroke="#000000" points="2262.7695,-257.5 2262.7695,-276.5 2372.7695,-276.5 2372.7695,-257.5 2262.7695,-257.5"/>
<text text-anchor="middle" x="2317.7695" y="-264.5" font-family="Helvetica,sans-Serif" font-size="10.00" fill="#000000">sbml/xml/XMLError.h</text>
</a>
</g>
</g>
<!-- Node40&#45;&gt;Node51 -->
<g id="edge131" class="edge">
<title>Node40&#45;&gt;Node51</title>
<path fill="none" stroke="#191970" d="M2163.5645,-604.4434C2208.5493,-590.2795 2278.7695,-559.0354 2278.7695,-502 2278.7695,-502 2278.7695,-502 2278.7695,-390 2278.7695,-351.5571 2296.2941,-309.3836 2307.8486,-285.7553"/>
<polygon fill="#191970" stroke="#191970" points="2311.112,-287.0583 2312.5098,-276.556 2304.8678,-283.8943 2311.112,-287.0583"/>
</g>
<!-- Node42 -->
<g id="node42" class="node">
<title>Node42</title>
<g id="a_node42"><a xlink:href="_r_d_f_annotation_parser_8h.html" target="_top" xlink:title="RDFAnnotationParser.h">
<polygon fill="#ffffff" stroke="#000000" points="1258.2695,-492.5 1258.2695,-511.5 1381.2695,-511.5 1381.2695,-492.5 1258.2695,-492.5"/>
<text text-anchor="middle" x="1319.7695" y="-499.5" font-family="Helvetica,sans-Serif" font-size="10.00" fill="#000000">RDFAnnotationParser.h</text>
</a>
</g>
</g>
<!-- Node41&#45;&gt;Node42 -->
<g id="edge92" class="edge">
<title>Node41&#45;&gt;Node42</title>
<path fill="none" stroke="#191970" d="M1383.3572,-548.2455C1371.7638,-539.814 1354.7948,-527.4729 1341.3017,-517.6598"/>
<polygon fill="#191970" stroke="#191970" points="1343.1742,-514.6938 1333.0282,-511.6427 1339.057,-520.355 1343.1742,-514.6938"/>
</g>
<!-- Node42&#45;&gt;Node9 -->
<g id="edge95" class="edge">
<title>Node42&#45;&gt;Node9</title>
<path fill="none" stroke="#191970" d="M1258.0638,-497.6061C1194.7967,-491.8688 1102.0505,-479.6388 1075.7695,-456 1026.4263,-411.6177 1071.7756,-366.6943 1032.7695,-313 1000.6619,-268.8018 944.583,-236.5587 909.4069,-219.4575"/>
<polygon fill="#191970" stroke="#191970" points="910.6127,-216.1559 900.077,-215.0383 907.6162,-222.4821 910.6127,-216.1559"/>
</g>
<!-- Node42&#45;&gt;Node10 -->
<g id="edge94" class="edge">
<title>Node42&#45;&gt;Node10</title>
<path fill="none" stroke="#191970" d="M1258.2101,-493.8719C1226.2007,-487.4313 1187.6363,-476.0298 1157.7695,-456 1100.7647,-417.7703 1007.9352,-220.548 979.3923,-157.7377"/>
<polygon fill="#191970" stroke="#191970" points="982.4098,-155.9156 975.1034,-148.2431 976.0305,-158.7973 982.4098,-155.9156"/>
</g>
<!-- Node42&#45;&gt;Node12 -->
<g id="edge93" class="edge">
<title>Node42&#45;&gt;Node12</title>
<path fill="none" stroke="#191970" d="M1381.7348,-499.1608C1502.3484,-491.1018 1773.4916,-460.3809 1963.7695,-344 2037.7918,-298.7253 2017.9917,-246.5894 2083.7695,-190 2110.5901,-166.926 2136.2537,-184.1483 2154.7695,-154 2167.1001,-133.9228 2149.4327,-109.6363 2133.8199,-93.7782"/>
<polygon fill="#191970" stroke="#191970" points="2136.1024,-91.1179 2126.4609,-86.7258 2131.259,-96.1718 2136.1024,-91.1179"/>
</g>
<!-- Node43 -->
<g id="node43" class="node">
<title>Node43</title>
<g id="a_node43"><a xlink:href="_model_history_8h.html" target="_top" xlink:title="ModelHistory_t I/O. ">
<polygon fill="#ffffff" stroke="#000000" points="1241.2695,-436.5 1241.2695,-455.5 1398.2695,-455.5 1398.2695,-436.5 1241.2695,-436.5"/>
<text text-anchor="middle" x="1319.7695" y="-443.5" font-family="Helvetica,sans-Serif" font-size="10.00" fill="#000000">sbml/annotation/ModelHistory.h</text>
</a>
</g>
</g>
<!-- Node42&#45;&gt;Node43 -->
<g id="edge96" class="edge">
<title>Node42&#45;&gt;Node43</title>
<path fill="none" stroke="#191970" d="M1319.7695,-492.2455C1319.7695,-484.9382 1319.7695,-474.6944 1319.7695,-465.7046"/>
<polygon fill="#191970" stroke="#191970" points="1323.2696,-465.6426 1319.7695,-455.6427 1316.2696,-465.6427 1323.2696,-465.6426"/>
</g>
<!-- Node43&#45;&gt;Node5 -->
<g id="edge104" class="edge">
<title>Node43&#45;&gt;Node5</title>
<path fill="none" stroke="#191970" d="M1280.3894,-436.444C1246.1236,-427.8385 1195.273,-414.3656 1151.7695,-400 1097.6311,-382.1225 1036.1534,-357.2861 999.7375,-342.0847"/>
<polygon fill="#191970" stroke="#191970" points="1000.7333,-338.707 990.1578,-338.0664 998.0256,-345.1621 1000.7333,-338.707"/>
</g>
<!-- Node43&#45;&gt;Node10 -->
<g id="edge98" class="edge">
<title>Node43&#45;&gt;Node10</title>
<path fill="none" stroke="#191970" d="M1288.0386,-436.4113C1266.6525,-428.8738 1238.6432,-416.8208 1217.7695,-400 1127.0312,-326.8795 1148.3834,-266.8366 1060.7695,-190 1043.2505,-174.636 1020.4391,-161.6427 1002.1657,-152.5506"/>
<polygon fill="#191970" stroke="#191970" points="1003.6026,-149.3577 993.0757,-148.1597 1000.5578,-155.6609 1003.6026,-149.3577"/>
</g>
<!-- Node43&#45;&gt;Node11 -->
<g id="edge99" class="edge">
<title>Node43&#45;&gt;Node11</title>
<path fill="none" stroke="#191970" d="M1340.2292,-436.4487C1355.3486,-428.5107 1375.525,-415.9498 1388.7695,-400 1432.9116,-346.8417 1398.8345,-303.6898 1449.7695,-257 1487.6894,-222.2407 1521.0223,-254.8345 1559.7695,-221 1577.0893,-205.8762 1587.599,-181.5522 1593.4695,-163.2262"/>
<polygon fill="#191970" stroke="#191970" points="1596.8657,-164.0834 1596.3369,-153.5017 1590.1515,-162.1035 1596.8657,-164.0834"/>
</g>
<!-- Node43&#45;&gt;Node12 -->
<g id="edge97" class="edge">
<title>Node43&#45;&gt;Node12</title>
<path fill="none" stroke="#191970" d="M1294.944,-436.4395C1279.4817,-429.0336 1260.8583,-417.1213 1251.7695,-400 1236.3395,-370.9331 1172.6048,-326.6276 1293.7695,-190 1353.4582,-122.694 1396.6954,-141.3244 1484.7695,-123 1590.2354,-101.0571 1904.8534,-85.7022 2045.4982,-79.7466"/>
<polygon fill="#191970" stroke="#191970" points="2045.88,-83.2338 2055.7243,-79.3172 2045.5862,-76.2399 2045.88,-83.2338"/>
</g>
<!-- Node43&#45;&gt;Node44 -->
<g id="edge100" class="edge">
<title>Node43&#45;&gt;Node44</title>
<path fill="none" stroke="#191970" d="M1398.5757,-438.509C1478.2299,-430.1234 1591.447,-415.6452 1604.7695,-400 1624.9441,-376.3081 1586.898,-354.7834 1554.4553,-341.6786"/>
<polygon fill="#191970" stroke="#191970" points="1555.6623,-338.3929 1545.073,-338.05 1553.1373,-344.9216 1555.6623,-338.3929"/>
</g>
<!-- Node46 -->
<g id="node46" class="node">
<title>Node46</title>
<g id="a_node46"><a xlink:href="_date_8h.html" target="_top" xlink:title="Date_t I/O. ">
<polygon fill="#ffffff" stroke="#000000" points="1260.2695,-380.5 1260.2695,-399.5 1379.2695,-399.5 1379.2695,-380.5 1260.2695,-380.5"/>
<text text-anchor="middle" x="1319.7695" y="-387.5" font-family="Helvetica,sans-Serif" font-size="10.00" fill="#000000">sbml/annotation/Date.h</text>
</a>
</g>
</g>
<!-- Node43&#45;&gt;Node46 -->
<g id="edge105" class="edge">
<title>Node43&#45;&gt;Node46</title>
<path fill="none" stroke="#191970" d="M1319.7695,-436.2455C1319.7695,-428.9382 1319.7695,-418.6944 1319.7695,-409.7046"/>
<polygon fill="#191970" stroke="#191970" points="1323.2696,-409.6426 1319.7695,-399.6427 1316.2696,-409.6427 1323.2696,-409.6426"/>
</g>
<!-- Node47 -->
<g id="node47" class="node">
<title>Node47</title>
<g id="a_node47"><a xlink:href="_model_creator_8h.html" target="_top" xlink:title="ModelCreator_t I/O. ">
<polygon fill="#ffffff" stroke="#000000" points="1436.2695,-380.5 1436.2695,-399.5 1595.2695,-399.5 1595.2695,-380.5 1436.2695,-380.5"/>
<text text-anchor="middle" x="1515.7695" y="-387.5" font-family="Helvetica,sans-Serif" font-size="10.00" fill="#000000">sbml/annotation/ModelCreator.h</text>
</a>
</g>
</g>
<!-- Node43&#45;&gt;Node47 -->
<g id="edge111" class="edge">
<title>Node43&#45;&gt;Node47</title>
<path fill="none" stroke="#191970" d="M1353.4631,-436.3733C1386.4782,-426.9404 1436.9268,-412.5265 1472.8081,-402.2747"/>
<polygon fill="#191970" stroke="#191970" points="1473.8619,-405.6137 1482.5156,-399.5011 1471.9388,-398.8831 1473.8619,-405.6137"/>
</g>
<!-- Node44&#45;&gt;Node10 -->
<g id="edge103" class="edge">
<title>Node44&#45;&gt;Node10</title>
<path fill="none" stroke="#191970" d="M1475.6581,-318.9847C1415.8247,-303.7717 1300.8123,-270.55 1212.7695,-221 1193.7752,-210.3101 1194.2435,-199.7892 1174.7695,-190 1134.0021,-169.507 1084.4487,-156.7513 1044.3898,-149.0613"/>
<polygon fill="#191970" stroke="#191970" points="1044.8915,-145.5947 1034.4211,-147.2137 1043.6158,-152.4775 1044.8915,-145.5947"/>
</g>
<!-- Node44&#45;&gt;Node12 -->
<g id="edge101" class="edge">
<title>Node44&#45;&gt;Node12</title>
<path fill="none" stroke="#191970" d="M1555.8009,-320.9913C1600.1021,-311.9091 1667.6538,-295.5163 1685.7695,-277 1735.4659,-226.2049 1674.8119,-169.2433 1728.7695,-123 1752.2949,-102.8381 1940.6875,-87.932 2045.3157,-81.1158"/>
<polygon fill="#191970" stroke="#191970" points="2045.7255,-84.5968 2055.4802,-80.4619 2045.2761,-77.6112 2045.7255,-84.5968"/>
</g>
<!-- Node45 -->
<g id="node45" class="node">
<title>Node45</title>
<polygon fill="#ffffff" stroke="#bfbfbf" points="1474.2695,-257.5 1474.2695,-276.5 1523.2695,-276.5 1523.2695,-257.5 1474.2695,-257.5"/>
<text text-anchor="middle" x="1498.7695" y="-264.5" font-family="Helvetica,sans-Serif" font-size="10.00" fill="#000000">string.h</text>
</g>
<!-- Node44&#45;&gt;Node45 -->
<g id="edge102" class="edge">
<title>Node44&#45;&gt;Node45</title>
<path fill="none" stroke="#191970" d="M1513.1133,-318.8906C1510.732,-310.276 1507.1647,-297.3708 1504.1835,-286.5858"/>
<polygon fill="#191970" stroke="#191970" points="1507.5011,-285.4509 1501.4632,-276.7449 1500.7541,-287.3159 1507.5011,-285.4509"/>
</g>
<!-- Node46&#45;&gt;Node5 -->
<g id="edge110" class="edge">
<title>Node46&#45;&gt;Node5</title>
<path fill="none" stroke="#191970" d="M1265.1558,-380.4581C1202.2464,-369.4668 1098.995,-351.4272 1032.2085,-339.7585"/>
<polygon fill="#191970" stroke="#191970" points="1032.675,-336.2871 1022.2218,-338.0137 1031.4702,-343.1826 1032.675,-336.2871"/>
</g>
<!-- Node46&#45;&gt;Node10 -->
<g id="edge107" class="edge">
<title>Node46&#45;&gt;Node10</title>
<path fill="none" stroke="#191970" d="M1308.0689,-380.2601C1297.0539,-371.0375 1280.1466,-356.7437 1265.7695,-344 1190.215,-277.0292 1184.1109,-243.9484 1098.7695,-190 1072.1085,-173.1463 1039.0093,-160.005 1013.1488,-151.2162"/>
<polygon fill="#191970" stroke="#191970" points="1014.2137,-147.882 1003.6204,-148.0622 1012.014,-154.5274 1014.2137,-147.882"/>
</g>
<!-- Node46&#45;&gt;Node11 -->
<g id="edge108" class="edge">
<title>Node46&#45;&gt;Node11</title>
<path fill="none" stroke="#191970" d="M1322.3223,-380.2313C1329.291,-355.5503 1351.0377,-290.29 1393.7695,-257 1442.7557,-218.8377 1476.1707,-254.0054 1528.7695,-221 1552.429,-206.1538 1572.437,-180.9478 1585.1226,-162.2947"/>
<polygon fill="#191970" stroke="#191970" points="1588.1786,-164.0174 1590.7457,-153.7383 1582.3287,-160.173 1588.1786,-164.0174"/>
</g>
<!-- Node46&#45;&gt;Node12 -->
<g id="edge106" class="edge">
<title>Node46&#45;&gt;Node12</title>
<path fill="none" stroke="#191970" d="M1319.9348,-380.1605C1320.485,-365.1624 1322.7415,-335.9088 1331.7695,-313 1342.7975,-285.0165 1346.4092,-275.947 1369.7695,-257 1402.5889,-230.381 1425.8934,-248.7415 1457.7695,-221 1495.7783,-187.9214 1472.0856,-149.7758 1514.7695,-123 1558.793,-95.3839 1896.8479,-82.9077 2045.2706,-78.7197"/>
<polygon fill="#191970" stroke="#191970" points="2045.7237,-82.2086 2055.6227,-78.4324 2045.5294,-75.2113 2045.7237,-82.2086"/>
</g>
<!-- Node46&#45;&gt;Node44 -->
<g id="edge109" class="edge">
<title>Node46&#45;&gt;Node44</title>
<path fill="none" stroke="#191970" d="M1350.3945,-380.3906C1384.0519,-369.8298 1438.2594,-352.8208 1475.3755,-341.1747"/>
<polygon fill="#191970" stroke="#191970" points="1476.8661,-344.3753 1485.3596,-338.0419 1474.7704,-337.6963 1476.8661,-344.3753"/>
</g>
<!-- Node47&#45;&gt;Node5 -->
<g id="edge116" class="edge">
<title>Node47&#45;&gt;Node5</title>
<path fill="none" stroke="#191970" d="M1436.0856,-381.0574C1327.6025,-368.8827 1135.3924,-347.3117 1034.2469,-335.9605"/>
<polygon fill="#191970" stroke="#191970" points="1034.4832,-332.4651 1024.1552,-334.828 1033.7024,-339.4215 1034.4832,-332.4651"/>
</g>
<!-- Node47&#45;&gt;Node10 -->
<g id="edge113" class="edge">
<title>Node47&#45;&gt;Node10</title>
<path fill="none" stroke="#191970" d="M1492.6432,-380.3383C1436.4279,-356.4736 1288.8531,-291.5363 1174.7695,-221 1155.3389,-208.9863 1154.0672,-200.4824 1133.7695,-190 1099.1194,-172.1055 1057.0938,-159.0123 1024.3942,-150.5063"/>
<polygon fill="#191970" stroke="#191970" points="1025.1175,-147.079 1014.5639,-148.0135 1023.3968,-153.8642 1025.1175,-147.079"/>
</g>
<!-- Node47&#45;&gt;Node11 -->
<g id="edge114" class="edge">
<title>Node47&#45;&gt;Node11</title>
<path fill="none" stroke="#191970" d="M1500.2161,-380.4509C1488.6224,-372.3534 1473.6528,-359.583 1466.7695,-344 1451.1451,-308.6279 1442.101,-287.5795 1465.7695,-257 1504.83,-206.5344 1565.7091,-271.4656 1604.7695,-221 1617.2508,-204.8744 1614.3342,-181.2294 1609.2688,-163.3823"/>
<polygon fill="#191970" stroke="#191970" points="1612.531,-162.0937 1606.1382,-153.6449 1605.867,-164.2363 1612.531,-162.0937"/>
</g>
<!-- Node47&#45;&gt;Node12 -->
<g id="edge112" class="edge">
<title>Node47&#45;&gt;Node12</title>
<path fill="none" stroke="#191970" d="M1591.9887,-380.4917C1657.9346,-367.4973 1742.7695,-337.1484 1742.7695,-267 1742.7695,-267 1742.7695,-267 1742.7695,-205.5 1742.7695,-150.247 1785.8863,-146.7602 1835.7695,-123 1871.9401,-105.7713 1975.4056,-91.8124 2045.6491,-83.9575"/>
<polygon fill="#191970" stroke="#191970" points="2046.2035,-87.4177 2055.7599,-82.8432 2045.4366,-80.4598 2046.2035,-87.4177"/>
</g>
<!-- Node47&#45;&gt;Node44 -->
<g id="edge115" class="edge">
<title>Node47&#45;&gt;Node44</title>
<path fill="none" stroke="#191970" d="M1515.7695,-380.3906C1515.7695,-371.8657 1515.7695,-359.1392 1515.7695,-348.4235"/>
<polygon fill="#191970" stroke="#191970" points="1519.2696,-348.2448 1515.7695,-338.2449 1512.2696,-348.2449 1519.2696,-348.2448"/>
</g>
<!-- Node48&#45;&gt;Node9 -->
<g id="edge121" class="edge">
<title>Node48&#45;&gt;Node9</title>
<path fill="none" stroke="#191970" d="M1541.2463,-257.9288C1538.3838,-257.6032 1535.549,-257.2919 1532.7695,-257 1323.3334,-235.003 1075.3197,-217.9488 953.2947,-210.1484"/>
<polygon fill="#191970" stroke="#191970" points="953.1525,-206.6324 942.9503,-209.4901 952.7078,-213.6183 953.1525,-206.6324"/>
</g>
<!-- Node48&#45;&gt;Node10 -->
<g id="edge119" class="edge">
<title>Node48&#45;&gt;Node10</title>
<path fill="none" stroke="#191970" d="M1541.1457,-257.9323C1455.7745,-246.3593 1317.1656,-227.1053 1293.7695,-221 1256.4721,-211.267 1249.7328,-200.9338 1212.7695,-190 1154.3881,-172.7307 1086.472,-158.7974 1037.4749,-149.7997"/>
<polygon fill="#191970" stroke="#191970" points="1038.0914,-146.3545 1027.6268,-148.0109 1036.8403,-153.2418 1038.0914,-146.3545"/>
</g>
<!-- Node48&#45;&gt;Node11 -->
<g id="edge120" class="edge">
<title>Node48&#45;&gt;Node11</title>
<path fill="none" stroke="#191970" d="M1618.7057,-257.4913C1626.9455,-248.8654 1638.0462,-235.3368 1642.7695,-221 1647.0807,-207.9141 1647.466,-202.9526 1642.7695,-190 1638.9182,-179.3783 1631.812,-169.412 1624.4704,-161.1294"/>
<polygon fill="#191970" stroke="#191970" points="1626.8797,-158.5836 1617.4579,-153.7378 1621.8014,-163.4014 1626.8797,-158.5836"/>
</g>
<!-- Node48&#45;&gt;Node12 -->
<g id="edge118" class="edge">
<title>Node48&#45;&gt;Node12</title>
<path fill="none" stroke="#191970" d="M1676.2914,-263.3403C1773.8347,-257.3561 1948.9281,-243.8027 2007.7695,-221 2029.7374,-212.4868 2030.1675,-201.4288 2050.7695,-190 2087.7218,-169.501 2115.2158,-189.0842 2138.7695,-154 2150.8865,-135.9515 2139.4803,-111.4751 2128.6256,-95.0049"/>
<polygon fill="#191970" stroke="#191970" points="2131.4351,-92.9159 2122.8049,-86.7702 2125.7189,-96.9564 2131.4351,-92.9159"/>
</g>
<!-- Node49&#45;&gt;Node12 -->
<g id="edge126" class="edge">
<title>Node49&#45;&gt;Node12</title>
<path fill="none" stroke="#191970" d="M2136.6703,-380.2776C2172.5656,-343.8427 2290.6308,-212.8941 2229.7695,-123 2218.8877,-106.9272 2201.3822,-96.4699 2183.2768,-89.6663"/>
<polygon fill="#191970" stroke="#191970" points="2184.3807,-86.3449 2173.7862,-86.4311 2182.1221,-92.9705 2184.3807,-86.3449"/>
</g>
<!-- Node49&#45;&gt;Node14 -->
<g id="edge127" class="edge">
<title>Node49&#45;&gt;Node14</title>
<path fill="none" stroke="#191970" d="M2119.1133,-380.3906C2111.8206,-371.2376 2100.6688,-357.2409 2091.7843,-346.09"/>
<polygon fill="#191970" stroke="#191970" points="2094.5026,-343.8849 2085.5337,-338.2449 2089.0278,-348.247 2094.5026,-343.8849"/>
</g>
<!-- Node50&#45;&gt;Node12 -->
<g id="edge129" class="edge">
<title>Node50&#45;&gt;Node12</title>
<path fill="none" stroke="#191970" d="M2376.6101,-436.3989C2385.3769,-407.6403 2413.9053,-320.2766 2454.7695,-257 2466.5447,-238.7666 2479.9009,-241.2286 2487.7695,-221 2503.5594,-180.4073 2516.6217,-155.6289 2487.7695,-123 2468.0255,-100.6715 2286.4365,-86.7824 2184.1008,-80.6607"/>
<polygon fill="#191970" stroke="#191970" points="2184.0357,-77.1509 2173.8474,-80.0574 2183.6245,-84.1388 2184.0357,-77.1509"/>
</g>
<!-- Node51&#45;&gt;Node6 -->
<g id="edge133" class="edge">
<title>Node51&#45;&gt;Node6</title>
<path fill="none" stroke="#191970" d="M2262.514,-260.761C2247.3784,-259.2763 2230.9578,-257.8715 2215.7695,-257 2156.7193,-253.6117 132.7358,-258.2224 86.7695,-221 68.4366,-206.1544 65.6231,-177.4955 66.0753,-158.1792"/>
<polygon fill="#191970" stroke="#191970" points="69.5772,-158.2363 66.6262,-148.0608 62.5876,-157.8556 69.5772,-158.2363"/>
</g>
<!-- Node51&#45;&gt;Node10 -->
<g id="edge134" class="edge">
<title>Node51&#45;&gt;Node10</title>
<path fill="none" stroke="#191970" d="M2307.625,-257.3858C2288.6408,-240.1018 2245.6817,-204.2559 2201.7695,-190 2146.6486,-172.1052 1302.4384,-147.595 1044.8364,-140.4991"/>
<polygon fill="#191970" stroke="#191970" points="1044.5584,-136.9902 1034.466,-140.2141 1044.3661,-143.9876 1044.5584,-136.9902"/>
</g>
<!-- Node51&#45;&gt;Node20 -->
<g id="edge132" class="edge">
<title>Node51&#45;&gt;Node20</title>
<path fill="none" stroke="#191970" d="M2326.8437,-257.3243C2334.3658,-248.5913 2344.4926,-234.9994 2348.7695,-221 2355.0902,-200.311 2352.9146,-175.3392 2350.0644,-158.3269"/>
<polygon fill="#191970" stroke="#191970" points="2353.4869,-157.5896 2348.1764,-148.4218 2346.6107,-158.9003 2353.4869,-157.5896"/>
</g>
<!-- Node51&#45;&gt;Node22 -->
<g id="edge135" class="edge">
<title>Node51&#45;&gt;Node22</title>
<path fill="none" stroke="#191970" d="M2336.832,-257.3906C2356.8868,-247.2811 2388.6629,-231.2628 2411.6079,-219.6962"/>
<polygon fill="#191970" stroke="#191970" points="2413.4868,-222.6687 2420.8409,-215.0419 2410.3358,-216.418 2413.4868,-222.6687"/>
</g>
</g>
</svg>
        <g id="navigator" transform="translate(0 0)" fill="#404254">
                <rect fill="#f2f5e9" fill-opacity="0.5" stroke="#606060" stroke-width=".5" x="0" y="0" width="60" height="60"/>
                <use id="zoomplus" xlink:href="#zoomPlus" x="17" y="9" onmousedown="handleZoom(evt,'in')"/>
                <use id="zoomminus" xlink:href="#zoomMin" x="42" y="9" onmousedown="handleZoom(evt,'out')"/>
                <use id="reset" xlink:href="#resetDef" x="30" y="36" onmousedown="handleReset()"/>
                <g id="arrowUp" xlink:href="#dirArrow" transform="translate(30 24)" onmousedown="handlePan(0,-1)">
                  <use xlink:href="#rim" fill="#404040">
                        <set attributeName="fill" to="#808080" begin="arrowUp.mouseover" end="arrowUp.mouseout"/>
                  </use>
                  <path fill="none" stroke="white" stroke-width="1.5" d="M0,-3.0v7 M-2.5,-0.5L0,-3.0L2.5,-0.5"/>
                </g>
                <g id="arrowRight" xlink:href="#dirArrow" transform="rotate(90) translate(36 -43)" onmousedown="handlePan(1,0)">
                  <use xlink:href="#rim" fill="#404040">
                        <set attributeName="fill" to="#808080" begin="arrowRight.mouseover" end="arrowRight.mouseout"/>
                  </use>
                  <path fill="none" stroke="white" stroke-width="1.5" d="M0,-3.0v7 M-2.5,-0.5L0,-3.0L2.5,-0.5"/>
                </g>
                <g id="arrowDown" xlink:href="#dirArrow" transform="rotate(180) translate(-30 -48)" onmousedown="handlePan(0,1)">
                  <use xlink:href="#rim" fill="#404040">
                        <set attributeName="fill" to="#808080" begin="arrowDown.mouseover" end="arrowDown.mouseout"/>
                  </use>
                  <path fill="none" stroke="white" stroke-width="1.5" d="M0,-3.0v7 M-2.5,-0.5L0,-3.0L2.5,-0.5"/>
                </g>
                <g id="arrowLeft" xlink:href="#dirArrow" transform="rotate(270) translate(-36 17)" onmousedown="handlePan(-1,0)">
                  <use xlink:href="#rim" fill="#404040">
                        <set attributeName="fill" to="#808080" begin="arrowLeft.mouseover" end="arrowLeft.mouseout"/>
                  </use>
                  <path fill="none" stroke="white" stroke-width="1.5" d="M0,-3.0v7 M-2.5,-0.5L0,-3.0L2.5,-0.5"/>
                </g>
        </g>
        <svg viewBox="0 0 15 15" width="100%" height="30px" preserveAspectRatio="xMaxYMin meet">
         <g id="arrow_out" transform="scale(0.3 0.3)">
          <a xlink:href="_association_8cpp__incl_org.svg" target="_base">
           <rect id="button" ry="5" rx="5" y="6" x="6" height="38" width="38"
                fill="#f2f5e9" fill-opacity="0.5" stroke="#606060" stroke-width="1.0"/>
           <path id="arrow"
             d="M 11.500037,31.436501 C 11.940474,20.09759 22.043105,11.32322 32.158766,21.979434 L 37.068811,17.246167 C 37.068811,17.246167 37.088388,32 37.088388,32 L 22.160133,31.978069 C 22.160133,31.978069 26.997745,27.140456 26.997745,27.140456 C 18.528582,18.264221 13.291696,25.230495 11.500037,31.436501 z"
             style="fill:#404040;"/>
          </a>
         </g>
        </svg>
</svg>
