<?xml version="1.0" encoding="UTF-8" standalone="no"?>
<!DOCTYPE svg PUBLIC "-//W3C//DTD SVG 1.1//EN"
 "http://www.w3.org/Graphics/SVG/1.1/DTD/svg11.dtd">
<!-- Generated by graphviz version 2.40.1 (20161225.0304)
 -->
<!-- Title: CompModelPlugin.cpp Pages: 1 -->
<!--zoomable 408 -->
<svg id="main" version="1.1" xmlns="http://www.w3.org/2000/svg" xmlns:xlink="http://www.w3.org/1999/xlink" xml:space="preserve" onload="init(evt)">
<style type="text/css"><![CDATA[
.edge:hover path { stroke: red; }
.edge:hover polygon { stroke: red; fill: red; }
]]></style>
<script type="text/javascript"><![CDATA[
var edges = document.getElementsByTagName('g');
if (edges && edges.length) {
  for (var i=0;i<edges.length;i++) {
    if (edges[i].id.substr(0,4)=='edge') {
      edges[i].setAttribute('class','edge');
    }
  }
}
]]></script>
        <defs>
                <circle id="rim" cx="0" cy="0" r="7"/>
                <circle id="rim2" cx="0" cy="0" r="3.5"/>
                <g id="zoomPlus">
                        <use xlink:href="#rim" fill="#404040">
                                <set attributeName="fill" to="#808080" begin="zoomplus.mouseover" end="zoomplus.mouseout"/>
                        </use>
                        <path d="M-4,0h8M0,-4v8" fill="none" stroke="white" stroke-width="1.5" pointer-events="none"/>
                </g>
                <g id="zoomMin">
                        <use xlink:href="#rim" fill="#404040">
                                <set attributeName="fill" to="#808080" begin="zoomminus.mouseover" end="zoomminus.mouseout"/>
                        </use>
                        <path d="M-4,0h8" fill="none" stroke="white" stroke-width="1.5" pointer-events="none"/>
                </g>
                <g id="dirArrow">
                        <path fill="none" stroke="white" stroke-width="1.5" d="M0,-3.0v7 M-2.5,-0.5L0,-3.0L2.5,-0.5"/>
                </g>
               <g id="resetDef">
                       <use xlink:href="#rim2" fill="#404040">
                               <set attributeName="fill" to="#808080" begin="reset.mouseover" end="reset.mouseout"/>
                       </use>
               </g>
        </defs>

<script type="text/javascript">
var viewWidth = 1307;
var viewHeight = 408;
var sectionId = 'dynsection-0';
</script>
<script xlink:href="svgpan.js"/>
<svg id="graph" class="graph">
<g id="viewport">
<title>CompModelPlugin.cpp</title>
<polygon fill="#ffffff" stroke="transparent" points="-4,4 -4,-404 1302.5,-404 1302.5,4 -4,4"/>
<!-- Node1 -->
<g id="node1" class="node">
<title>Node1</title>
<polygon fill="#bfbfbf" stroke="#000000" points="429,-380.5 429,-399.5 546,-399.5 546,-380.5 429,-380.5"/>
<text text-anchor="middle" x="487.5" y="-387.5" font-family="Helvetica,sans-Serif" font-size="10.00" fill="#000000">CompModelPlugin.cpp</text>
</g>
<!-- Node2 -->
<g id="node2" class="node">
<title>Node2</title>
<polygon fill="#ffffff" stroke="#bfbfbf" points="0,-319 0,-338 53,-338 53,-319 0,-319"/>
<text text-anchor="middle" x="26.5" y="-326" font-family="Helvetica,sans-Serif" font-size="10.00" fill="#000000">ostream</text>
</g>
<!-- Node1&#45;&gt;Node2 -->
<g id="edge1" class="edge">
<title>Node1&#45;&gt;Node2</title>
<path fill="none" stroke="#191970" d="M428.7892,-385.9123C328.7049,-378.5682 129.3039,-362.1994 61.5,-344 59.3097,-343.4121 57.0815,-342.7055 54.8642,-341.9223"/>
<polygon fill="#191970" stroke="#191970" points="55.9516,-338.5878 45.3667,-338.1289 53.3551,-345.0885 55.9516,-338.5878"/>
</g>
<!-- Node3 -->
<g id="node3" class="node">
<title>Node3</title>
<polygon fill="#ffffff" stroke="#bfbfbf" points="71,-319 71,-338 126,-338 126,-319 71,-319"/>
<text text-anchor="middle" x="98.5" y="-326" font-family="Helvetica,sans-Serif" font-size="10.00" fill="#000000">iostream</text>
</g>
<!-- Node1&#45;&gt;Node3 -->
<g id="edge2" class="edge">
<title>Node1&#45;&gt;Node3</title>
<path fill="none" stroke="#191970" d="M428.9536,-387.1271C358.3331,-382.5748 236.5119,-371.2315 135.5,-344 133.0288,-343.3338 130.5046,-342.5394 127.9935,-341.6674"/>
<polygon fill="#191970" stroke="#191970" points="129.1039,-338.3447 118.5139,-338.0265 126.5941,-344.8793 129.1039,-338.3447"/>
</g>
<!-- Node4 -->
<g id="node4" class="node">
<title>Node4</title>
<polygon fill="#ffffff" stroke="#bfbfbf" points="144.5,-319 144.5,-338 188.5,-338 188.5,-319 144.5,-319"/>
<text text-anchor="middle" x="166.5" y="-326" font-family="Helvetica,sans-Serif" font-size="10.00" fill="#000000">vector</text>
</g>
<!-- Node1&#45;&gt;Node4 -->
<g id="edge3" class="edge">
<title>Node1&#45;&gt;Node4</title>
<path fill="none" stroke="#191970" d="M428.7848,-385.9826C369.3218,-380.6943 275.2843,-368.9575 197.5,-344 195.885,-343.4818 194.2498,-342.8898 192.6185,-342.2466"/>
<polygon fill="#191970" stroke="#191970" points="194.0418,-339.0491 183.4844,-338.1587 191.1822,-345.4384 194.0418,-339.0491"/>
</g>
<!-- Node5 -->
<g id="node5" class="node">
<title>Node5</title>
<polygon fill="#ffffff" stroke="#bfbfbf" points="206.5,-319 206.5,-338 236.5,-338 236.5,-319 206.5,-319"/>
<text text-anchor="middle" x="221.5" y="-326" font-family="Helvetica,sans-Serif" font-size="10.00" fill="#000000">set</text>
</g>
<!-- Node1&#45;&gt;Node5 -->
<g id="edge4" class="edge">
<title>Node1&#45;&gt;Node5</title>
<path fill="none" stroke="#191970" d="M428.5217,-385.1852C378.3913,-379.6069 305.2564,-367.9119 245.5,-344 244.9244,-343.7697 244.3477,-343.5249 243.7715,-343.2675"/>
<polygon fill="#191970" stroke="#191970" points="245.1632,-340.0395 234.7097,-338.3147 241.8059,-346.1819 245.1632,-340.0395"/>
</g>
<!-- Node6 -->
<g id="node6" class="node">
<title>Node6</title>
<g id="a_node6"><a xlink:href="libsbml-version_8h.html" target="_top" xlink:title="Define libSBML version numbers for access from client software. ">
<polygon fill="#ffffff" stroke="#000000" points="536,-123.5 536,-153.5 649,-153.5 649,-123.5 536,-123.5"/>
<text text-anchor="start" x="544" y="-141.5" font-family="Helvetica,sans-Serif" font-size="10.00" fill="#000000">sbml/common/libsbml</text>
<text text-anchor="middle" x="592.5" y="-130.5" font-family="Helvetica,sans-Serif" font-size="10.00" fill="#000000">&#45;version.h</text>
</a>
</g>
</g>
<!-- Node1&#45;&gt;Node6 -->
<g id="edge5" class="edge">
<title>Node1&#45;&gt;Node6</title>
<path fill="none" stroke="#191970" d="M493.4219,-380.1615C502.606,-365.1647 521.1449,-335.9128 539.5,-313 553.2596,-295.8239 563.9951,-296.8495 573.5,-277 590.9739,-240.5085 593.7471,-192.8127 593.5557,-163.9787"/>
<polygon fill="#191970" stroke="#191970" points="597.0539,-163.8446 593.3617,-153.9139 590.0552,-163.9796 597.0539,-163.8446"/>
</g>
<!-- Node9 -->
<g id="node9" class="node">
<title>Node9</title>
<polygon fill="#ffffff" stroke="#bfbfbf" points="548.5,-313.5 548.5,-343.5 658.5,-343.5 658.5,-313.5 548.5,-313.5"/>
<text text-anchor="start" x="556.5" y="-331.5" font-family="Helvetica,sans-Serif" font-size="10.00" fill="#000000">sbml/packages/comp</text>
<text text-anchor="middle" x="603.5" y="-320.5" font-family="Helvetica,sans-Serif" font-size="10.00" fill="#000000">/common/compfwd.h</text>
</g>
<!-- Node1&#45;&gt;Node9 -->
<g id="edge8" class="edge">
<title>Node1&#45;&gt;Node9</title>
<path fill="none" stroke="#191970" d="M505.625,-380.3906C521.7603,-371.8361 545.8755,-359.0509 566.1309,-348.3121"/>
<polygon fill="#191970" stroke="#191970" points="567.9276,-351.3211 575.1232,-343.5446 564.6486,-345.1365 567.9276,-351.3211"/>
</g>
<!-- Node10 -->
<g id="node10" class="node">
<title>Node10</title>
<g id="a_node10"><a xlink:href="_comp_model_plugin_8h.html" target="_top" xlink:title="Definition of CompModelPlugin_t, the plugin class of comp package for the Model_t element...">
<polygon fill="#ffffff" stroke="#000000" points="677,-313.5 677,-343.5 832,-343.5 832,-313.5 677,-313.5"/>
<text text-anchor="start" x="685" y="-331.5" font-family="Helvetica,sans-Serif" font-size="10.00" fill="#000000">sbml/packages/comp</text>
<text text-anchor="middle" x="754.5" y="-320.5" font-family="Helvetica,sans-Serif" font-size="10.00" fill="#000000">/extension/CompModelPlugin.h</text>
</a>
</g>
</g>
<!-- Node1&#45;&gt;Node10 -->
<g id="edge9" class="edge">
<title>Node1&#45;&gt;Node10</title>
<path fill="none" stroke="#191970" d="M528.9258,-380.4581C569.0084,-371.2256 630.6818,-357.0199 679.4171,-345.7944"/>
<polygon fill="#191970" stroke="#191970" points="680.335,-349.1747 689.2942,-343.5193 678.7637,-342.3533 680.335,-349.1747"/>
</g>
<!-- Node11 -->
<g id="node11" class="node">
<title>Node11</title>
<g id="a_node11"><a xlink:href="_comp_extension_8h.html" target="_top" xlink:title="Definition of CompExtension_t, the core module of comp package. ">
<polygon fill="#ffffff" stroke="#000000" points="254.5,-313.5 254.5,-343.5 398.5,-343.5 398.5,-313.5 254.5,-313.5"/>
<text text-anchor="start" x="262.5" y="-331.5" font-family="Helvetica,sans-Serif" font-size="10.00" fill="#000000">sbml/packages/comp</text>
<text text-anchor="middle" x="326.5" y="-320.5" font-family="Helvetica,sans-Serif" font-size="10.00" fill="#000000">/extension/CompExtension.h</text>
</a>
</g>
</g>
<!-- Node1&#45;&gt;Node11 -->
<g id="edge10" class="edge">
<title>Node1&#45;&gt;Node11</title>
<path fill="none" stroke="#191970" d="M462.3438,-380.3906C439.1421,-371.5279 404.0521,-358.1239 375.3482,-347.1594"/>
<polygon fill="#191970" stroke="#191970" points="376.4757,-343.8435 365.885,-343.5446 373.9777,-350.3826 376.4757,-343.8435"/>
</g>
<!-- Node15 -->
<g id="node15" class="node">
<title>Node15</title>
<g id="a_node15"><a xlink:href="_comp_s_b_m_l_error_8h.html" target="_top" xlink:title="Represents SBML errors and other diagnostics. ">
<polygon fill="#ffffff" stroke="#000000" points="850.5,-313.5 850.5,-343.5 994.5,-343.5 994.5,-313.5 850.5,-313.5"/>
<text text-anchor="start" x="858.5" y="-331.5" font-family="Helvetica,sans-Serif" font-size="10.00" fill="#000000">sbml/packages/comp</text>
<text text-anchor="middle" x="922.5" y="-320.5" font-family="Helvetica,sans-Serif" font-size="10.00" fill="#000000">/validator/CompSBMLError.h</text>
</a>
</g>
</g>
<!-- Node1&#45;&gt;Node15 -->
<g id="edge18" class="edge">
<title>Node1&#45;&gt;Node15</title>
<path fill="none" stroke="#191970" d="M546.2223,-383.4597C614.5156,-375.6093 730.8659,-361.4814 840.2326,-344.1517"/>
<polygon fill="#191970" stroke="#191970" points="840.7913,-347.6069 850.1144,-342.574 839.6876,-340.6945 840.7913,-347.6069"/>
</g>
<!-- Node16 -->
<g id="node16" class="node">
<title>Node16</title>
<g id="a_node16"><a xlink:href="_model_8h.html" target="_top" xlink:title="Definition of Model_t. ">
<polygon fill="#ffffff" stroke="#000000" points="416.5,-319 416.5,-338 492.5,-338 492.5,-319 416.5,-319"/>
<text text-anchor="middle" x="454.5" y="-326" font-family="Helvetica,sans-Serif" font-size="10.00" fill="#000000">sbml/Model.h</text>
</a>
</g>
</g>
<!-- Node1&#45;&gt;Node16 -->
<g id="edge19" class="edge">
<title>Node1&#45;&gt;Node16</title>
<path fill="none" stroke="#191970" d="M482.3438,-380.3906C477.5768,-371.5068 470.3615,-358.0601 464.4703,-347.0811"/>
<polygon fill="#191970" stroke="#191970" points="467.5412,-345.4016 459.7289,-338.2449 461.3731,-348.7114 467.5412,-345.4016"/>
</g>
<!-- Node18 -->
<g id="node18" class="node">
<title>Node18</title>
<g id="a_node18"><a xlink:href="_element_filter_8h.html" target="_top" xlink:title="Base class of element filters. ">
<polygon fill="#ffffff" stroke="#000000" points="1013,-319 1013,-338 1136,-338 1136,-319 1013,-319"/>
<text text-anchor="middle" x="1074.5" y="-326" font-family="Helvetica,sans-Serif" font-size="10.00" fill="#000000">sbml/util/ElementFilter.h</text>
</a>
</g>
</g>
<!-- Node1&#45;&gt;Node18 -->
<g id="edge24" class="edge">
<title>Node1&#45;&gt;Node18</title>
<path fill="none" stroke="#191970" d="M546.2134,-387.1794C642.2684,-382.0249 838.8078,-369.2151 1003.5,-344 1010.371,-342.948 1017.5729,-341.631 1024.6451,-340.2116"/>
<polygon fill="#191970" stroke="#191970" points="1025.7872,-343.5487 1034.8603,-338.0779 1024.3559,-336.6966 1025.7872,-343.5487"/>
</g>
<!-- Node19 -->
<g id="node19" class="node">
<title>Node19</title>
<g id="a_node19"><a xlink:href="_prefix_transformer_8h.html" target="_top" xlink:title="sbml/util/PrefixTransformer.h">
<polygon fill="#ffffff" stroke="#000000" points="1154.5,-319 1154.5,-338 1298.5,-338 1298.5,-319 1154.5,-319"/>
<text text-anchor="middle" x="1226.5" y="-326" font-family="Helvetica,sans-Serif" font-size="10.00" fill="#000000">sbml/util/PrefixTransformer.h</text>
</a>
</g>
</g>
<!-- Node1&#45;&gt;Node19 -->
<g id="edge25" class="edge">
<title>Node1&#45;&gt;Node19</title>
<path fill="none" stroke="#191970" d="M546.2708,-388.2429C661.5969,-384.2761 925.4833,-372.6377 1145.5,-344 1153.9699,-342.8975 1162.8909,-341.4672 1171.5929,-339.9216"/>
<polygon fill="#191970" stroke="#191970" points="1172.4663,-343.3197 1181.6674,-338.0671 1171.199,-336.4354 1172.4663,-343.3197"/>
</g>
<!-- Node7 -->
<g id="node7" class="node">
<title>Node7</title>
<g id="a_node7"><a xlink:href="extern_8h.html" target="_top" xlink:title="Definitions of LIBSBML_EXTERN and related things. ">
<polygon fill="#ffffff" stroke="#000000" points="278.5,-67.5 278.5,-86.5 396.5,-86.5 396.5,-67.5 278.5,-67.5"/>
<text text-anchor="middle" x="337.5" y="-74.5" font-family="Helvetica,sans-Serif" font-size="10.00" fill="#000000">sbml/common/extern.h</text>
</a>
</g>
</g>
<!-- Node6&#45;&gt;Node7 -->
<g id="edge6" class="edge">
<title>Node6&#45;&gt;Node7</title>
<path fill="none" stroke="#191970" d="M535.9072,-124.8512C491.2163,-114.0728 429.4831,-99.1842 386.7997,-88.8899"/>
<polygon fill="#191970" stroke="#191970" points="387.4619,-85.4493 376.92,-86.5072 385.8206,-92.2542 387.4619,-85.4493"/>
</g>
<!-- Node8 -->
<g id="node8" class="node">
<title>Node8</title>
<g id="a_node8"><a xlink:href="libsbml-namespace_8h.html" target="_top" xlink:title="Defines C++ namespace of libSBML. ">
<polygon fill="#ffffff" stroke="#000000" points="366,-.5 366,-30.5 479,-30.5 479,-.5 366,-.5"/>
<text text-anchor="start" x="374" y="-18.5" font-family="Helvetica,sans-Serif" font-size="10.00" fill="#000000">sbml/common/libsbml</text>
<text text-anchor="middle" x="422.5" y="-7.5" font-family="Helvetica,sans-Serif" font-size="10.00" fill="#000000">&#45;namespace.h</text>
</a>
</g>
</g>
<!-- Node7&#45;&gt;Node8 -->
<g id="edge7" class="edge">
<title>Node7&#45;&gt;Node8</title>
<path fill="none" stroke="#191970" d="M350.7813,-67.3906C362.1784,-59.1444 379.0092,-46.9669 393.5023,-36.4807"/>
<polygon fill="#191970" stroke="#191970" points="395.6565,-39.2421 401.7067,-30.5446 391.5532,-33.5709 395.6565,-39.2421"/>
</g>
<!-- Node11&#45;&gt;Node7 -->
<g id="edge11" class="edge">
<title>Node11&#45;&gt;Node7</title>
<path fill="none" stroke="#191970" d="M254.1365,-313.4923C223.2847,-302.8557 196.2383,-285.2911 205.5,-257 228.1888,-187.694 288.8484,-123.0157 319.3947,-93.6118"/>
<polygon fill="#191970" stroke="#191970" points="321.9528,-96.0099 326.8137,-86.5959 317.1431,-90.9238 321.9528,-96.0099"/>
</g>
<!-- Node12 -->
<g id="node12" class="node">
<title>Node12</title>
<g id="a_node12"><a xlink:href="_s_b_m_l_type_codes_8h.html" target="_top" xlink:title="Enumeration to identify SBML objects at runtime. ">
<polygon fill="#ffffff" stroke="#000000" points="215,-257.5 215,-276.5 342,-276.5 342,-257.5 215,-257.5"/>
<text text-anchor="middle" x="278.5" y="-264.5" font-family="Helvetica,sans-Serif" font-size="10.00" fill="#000000">sbml/SBMLTypeCodes.h</text>
</a>
</g>
</g>
<!-- Node11&#45;&gt;Node12 -->
<g id="edge12" class="edge">
<title>Node11&#45;&gt;Node12</title>
<path fill="none" stroke="#191970" d="M314.6348,-313.2977C307.9025,-304.672 299.4415,-293.8312 292.3994,-284.8087"/>
<polygon fill="#191970" stroke="#191970" points="295.0973,-282.5766 286.1854,-276.8469 289.579,-286.8836 295.0973,-282.5766"/>
</g>
<!-- Node12&#45;&gt;Node7 -->
<g id="edge17" class="edge">
<title>Node12&#45;&gt;Node7</title>
<path fill="none" stroke="#191970" d="M281.5069,-257.3167C290.7564,-227.5303 318.9133,-136.8556 331.412,-96.6053"/>
<polygon fill="#191970" stroke="#191970" points="334.8053,-97.4798 334.4284,-86.8917 328.1202,-95.4039 334.8053,-97.4798"/>
</g>
<!-- Node13 -->
<g id="node13" class="node">
<title>Node13</title>
<g id="a_node13"><a xlink:href="libsbml-config_8h.html" target="_top" xlink:title="Decides whether to #include Unix or Windows configuration variables. ">
<polygon fill="#ffffff" stroke="#000000" points="366,-190.5 366,-220.5 479,-220.5 479,-190.5 366,-190.5"/>
<text text-anchor="start" x="374" y="-208.5" font-family="Helvetica,sans-Serif" font-size="10.00" fill="#000000">sbml/common/libsbml</text>
<text text-anchor="middle" x="422.5" y="-197.5" font-family="Helvetica,sans-Serif" font-size="10.00" fill="#000000">&#45;config.h</text>
</a>
</g>
</g>
<!-- Node12&#45;&gt;Node13 -->
<g id="edge13" class="edge">
<title>Node12&#45;&gt;Node13</title>
<path fill="none" stroke="#191970" d="M301,-257.3906C321.4811,-248.6435 352.3197,-235.4728 377.8022,-224.5897"/>
<polygon fill="#191970" stroke="#191970" points="379.4519,-227.691 387.2736,-220.5446 376.7025,-221.2535 379.4519,-227.691"/>
</g>
<!-- Node13&#45;&gt;Node6 -->
<g id="edge16" class="edge">
<title>Node13&#45;&gt;Node6</title>
<path fill="none" stroke="#191970" d="M460.6513,-190.4639C485.4995,-180.6708 518.1156,-167.8162 544.6905,-157.3426"/>
<polygon fill="#191970" stroke="#191970" points="546.1621,-160.5247 554.1823,-153.6017 543.5954,-154.0122 546.1621,-160.5247"/>
</g>
<!-- Node13&#45;&gt;Node8 -->
<g id="edge14" class="edge">
<title>Node13&#45;&gt;Node8</title>
<path fill="none" stroke="#191970" d="M452.4566,-190.3925C466.1188,-181.7636 480.9135,-169.5426 488.5,-154 494.5436,-141.6185 492.2454,-136.2589 488.5,-123 479.4479,-90.9549 457.8656,-59.0528 441.8311,-38.4285"/>
<polygon fill="#191970" stroke="#191970" points="444.5387,-36.2102 435.5667,-30.5752 439.0664,-40.5753 444.5387,-36.2102"/>
</g>
<!-- Node14 -->
<g id="node14" class="node">
<title>Node14</title>
<g id="a_node14"><a xlink:href="libsbml-config-common_8h.html" target="_top" xlink:title="Configuration variables. ">
<polygon fill="#ffffff" stroke="#000000" points="366,-123.5 366,-153.5 479,-153.5 479,-123.5 366,-123.5"/>
<text text-anchor="start" x="374" y="-141.5" font-family="Helvetica,sans-Serif" font-size="10.00" fill="#000000">sbml/common/libsbml</text>
<text text-anchor="middle" x="422.5" y="-130.5" font-family="Helvetica,sans-Serif" font-size="10.00" fill="#000000">&#45;config&#45;common.h</text>
</a>
</g>
</g>
<!-- Node13&#45;&gt;Node14 -->
<g id="edge15" class="edge">
<title>Node13&#45;&gt;Node14</title>
<path fill="none" stroke="#191970" d="M422.5,-190.2967C422.5,-182.5013 422.5,-172.7991 422.5,-163.9064"/>
<polygon fill="#191970" stroke="#191970" points="426.0001,-163.6431 422.5,-153.6432 419.0001,-163.6432 426.0001,-163.6431"/>
</g>
<!-- Node16&#45;&gt;Node7 -->
<g id="edge21" class="edge">
<title>Node16&#45;&gt;Node7</title>
<path fill="none" stroke="#191970" d="M441.8289,-318.8422C420.4168,-301.7326 377.4606,-263.8369 357.5,-221 338.3861,-179.9802 336.2355,-125.7828 336.6627,-96.9879"/>
<polygon fill="#191970" stroke="#191970" points="340.1712,-96.7263 336.9485,-86.6336 333.1739,-96.5332 340.1712,-96.7263"/>
</g>
<!-- Node16&#45;&gt;Node12 -->
<g id="edge23" class="edge">
<title>Node16&#45;&gt;Node12</title>
<path fill="none" stroke="#191970" d="M427,-318.8906C397.0353,-308.42 348.9317,-291.6111 315.6302,-279.9745"/>
<polygon fill="#191970" stroke="#191970" points="316.4017,-276.5366 305.8069,-276.5419 314.0926,-283.1448 316.4017,-276.5366"/>
</g>
<!-- Node16&#45;&gt;Node13 -->
<g id="edge20" class="edge">
<title>Node16&#45;&gt;Node13</title>
<path fill="none" stroke="#191970" d="M448.1133,-318.7106C441.9272,-308.6825 432.8612,-292.4204 428.5,-277 424.2735,-262.056 422.7406,-244.7099 422.2802,-230.8456"/>
<polygon fill="#191970" stroke="#191970" points="425.7754,-230.526 422.1098,-220.5855 418.7764,-230.6423 425.7754,-230.526"/>
</g>
<!-- Node17 -->
<g id="node17" class="node">
<title>Node17</title>
<polygon fill="#ffffff" stroke="#bfbfbf" points="437,-257.5 437,-276.5 564,-276.5 564,-257.5 437,-257.5"/>
<text text-anchor="middle" x="500.5" y="-264.5" font-family="Helvetica,sans-Serif" font-size="10.00" fill="#000000">sbml/common/sbmlfwd.h</text>
</g>
<!-- Node16&#45;&gt;Node17 -->
<g id="edge22" class="edge">
<title>Node16&#45;&gt;Node17</title>
<path fill="none" stroke="#191970" d="M461.6875,-318.8906C468.4666,-309.8273 478.7978,-296.0149 487.0973,-284.9188"/>
<polygon fill="#191970" stroke="#191970" points="490.0243,-286.849 493.2112,-276.7449 484.4188,-282.6563 490.0243,-286.849"/>
</g>
</g>
</svg>
        <g id="navigator" transform="translate(0 0)" fill="#404254">
                <rect fill="#f2f5e9" fill-opacity="0.5" stroke="#606060" stroke-width=".5" x="0" y="0" width="60" height="60"/>
                <use id="zoomplus" xlink:href="#zoomPlus" x="17" y="9" onmousedown="handleZoom(evt,'in')"/>
                <use id="zoomminus" xlink:href="#zoomMin" x="42" y="9" onmousedown="handleZoom(evt,'out')"/>
                <use id="reset" xlink:href="#resetDef" x="30" y="36" onmousedown="handleReset()"/>
                <g id="arrowUp" xlink:href="#dirArrow" transform="translate(30 24)" onmousedown="handlePan(0,-1)">
                  <use xlink:href="#rim" fill="#404040">
                        <set attributeName="fill" to="#808080" begin="arrowUp.mouseover" end="arrowUp.mouseout"/>
                  </use>
                  <path fill="none" stroke="white" stroke-width="1.5" d="M0,-3.0v7 M-2.5,-0.5L0,-3.0L2.5,-0.5"/>
                </g>
                <g id="arrowRight" xlink:href="#dirArrow" transform="rotate(90) translate(36 -43)" onmousedown="handlePan(1,0)">
                  <use xlink:href="#rim" fill="#404040">
                        <set attributeName="fill" to="#808080" begin="arrowRight.mouseover" end="arrowRight.mouseout"/>
                  </use>
                  <path fill="none" stroke="white" stroke-width="1.5" d="M0,-3.0v7 M-2.5,-0.5L0,-3.0L2.5,-0.5"/>
                </g>
                <g id="arrowDown" xlink:href="#dirArrow" transform="rotate(180) translate(-30 -48)" onmousedown="handlePan(0,1)">
                  <use xlink:href="#rim" fill="#404040">
                        <set attributeName="fill" to="#808080" begin="arrowDown.mouseover" end="arrowDown.mouseout"/>
                  </use>
                  <path fill="none" stroke="white" stroke-width="1.5" d="M0,-3.0v7 M-2.5,-0.5L0,-3.0L2.5,-0.5"/>
                </g>
                <g id="arrowLeft" xlink:href="#dirArrow" transform="rotate(270) translate(-36 17)" onmousedown="handlePan(-1,0)">
                  <use xlink:href="#rim" fill="#404040">
                        <set attributeName="fill" to="#808080" begin="arrowLeft.mouseover" end="arrowLeft.mouseout"/>
                  </use>
                  <path fill="none" stroke="white" stroke-width="1.5" d="M0,-3.0v7 M-2.5,-0.5L0,-3.0L2.5,-0.5"/>
                </g>
        </g>
        <svg viewBox="0 0 15 15" width="100%" height="30px" preserveAspectRatio="xMaxYMin meet">
         <g id="arrow_out" transform="scale(0.3 0.3)">
          <a xlink:href="_comp_model_plugin_8cpp__incl_org.svg" target="_base">
           <rect id="button" ry="5" rx="5" y="6" x="6" height="38" width="38"
                fill="#f2f5e9" fill-opacity="0.5" stroke="#606060" stroke-width="1.0"/>
           <path id="arrow"
             d="M 11.500037,31.436501 C 11.940474,20.09759 22.043105,11.32322 32.158766,21.979434 L 37.068811,17.246167 C 37.068811,17.246167 37.088388,32 37.088388,32 L 22.160133,31.978069 C 22.160133,31.978069 26.997745,27.140456 26.997745,27.140456 C 18.528582,18.264221 13.291696,25.230495 11.500037,31.436501 z"
             style="fill:#404040;"/>
          </a>
         </g>
        </svg>
</svg>
