<?xml version="1.0" encoding="UTF-8" standalone="no"?>
<!DOCTYPE svg PUBLIC "-//W3C//DTD SVG 1.1//EN"
 "http://www.w3.org/Graphics/SVG/1.1/DTD/svg11.dtd">
<!-- Generated by graphviz version 2.40.1 (20161225.0304)
 -->
<!-- Title: Constraint.cpp Pages: 1 -->
<svg width="3275pt" height="789pt"
 viewBox="0.00 0.00 3274.79 789.00" xmlns="http://www.w3.org/2000/svg" xmlns:xlink="http://www.w3.org/1999/xlink">
<g id="graph0" class="graph" transform="scale(1 1) rotate(0) translate(4 785)">
<title>Constraint.cpp</title>
<polygon fill="#ffffff" stroke="transparent" points="-4,4 -4,-785 3270.7906,-785 3270.7906,4 -4,4"/>
<!-- Node1 -->
<g id="node1" class="node">
<title>Node1</title>
<polygon fill="#bfbfbf" stroke="#000000" points="911.5,-761.5 911.5,-780.5 992.5,-780.5 992.5,-761.5 911.5,-761.5"/>
<text text-anchor="middle" x="952" y="-768.5" font-family="Helvetica,sans-Serif" font-size="10.00" fill="#000000">Constraint.cpp</text>
</g>
<!-- Node2 -->
<g id="node2" class="node">
<title>Node2</title>
<g id="a_node2"><a xlink:href="_x_m_l_node_8h.html" target="_top" xlink:title="Class definition of XMLNode_t, a node in an XML document tree. ">
<polygon fill="#ffffff" stroke="#000000" points="1760,-313.5 1760,-332.5 1872,-332.5 1872,-313.5 1760,-313.5"/>
<text text-anchor="middle" x="1816" y="-320.5" font-family="Helvetica,sans-Serif" font-size="10.00" fill="#000000">sbml/xml/XMLNode.h</text>
</a>
</g>
</g>
<!-- Node1&#45;&gt;Node2 -->
<g id="edge1" class="edge">
<title>Node1&#45;&gt;Node2</title>
<path fill="none" stroke="#191970" d="M992.778,-770.7583C1179.6348,-769.1238 1945,-756.4791 1945,-659 1945,-659 1945,-659 1945,-603 1945,-551.2227 1895.1802,-560.4153 1849,-537 1805.7487,-515.0698 1774.0688,-540.5443 1746,-501 1708.7903,-448.5777 1767.8899,-373.6475 1798.915,-340.2305"/>
<polygon fill="#191970" stroke="#191970" points="1801.7568,-342.3218 1806.1222,-332.6681 1796.6895,-337.4925 1801.7568,-342.3218"/>
</g>
<!-- Node6 -->
<g id="node6" class="node">
<title>Node6</title>
<g id="a_node6"><a xlink:href="_x_m_l_attributes_8h.html" target="_top" xlink:title="XMLAttributes_t are a list of name/value pairs for XML elements. ">
<polygon fill="#ffffff" stroke="#000000" points="1576,-196 1576,-215 1706,-215 1706,-196 1576,-196"/>
<text text-anchor="middle" x="1641" y="-203" font-family="Helvetica,sans-Serif" font-size="10.00" fill="#000000">sbml/xml/XMLAttributes.h</text>
</a>
</g>
</g>
<!-- Node1&#45;&gt;Node6 -->
<g id="edge15" class="edge">
<title>Node1&#45;&gt;Node6</title>
<path fill="none" stroke="#191970" d="M992.5082,-768.7649C1140.7346,-760.0552 1645,-725.5354 1645,-659 1645,-659 1645,-659 1645,-547 1645,-426.9868 1641.8889,-397.0099 1641,-277 1640.8709,-259.5658 1640.8834,-239.7396 1640.9211,-225.3941"/>
<polygon fill="#191970" stroke="#191970" points="1644.4215,-225.2261 1640.9544,-215.2147 1637.4216,-225.2031 1644.4215,-225.2261"/>
</g>
<!-- Node10 -->
<g id="node10" class="node">
<title>Node10</title>
<g id="a_node10"><a xlink:href="_x_m_l_input_stream_8h.html" target="_top" xlink:title="XMLInputStream_t. ">
<polygon fill="#ffffff" stroke="#000000" points="1361,-369.5 1361,-388.5 1503,-388.5 1503,-369.5 1361,-369.5"/>
<text text-anchor="middle" x="1432" y="-376.5" font-family="Helvetica,sans-Serif" font-size="10.00" fill="#000000">sbml/xml/XMLInputStream.h</text>
</a>
</g>
</g>
<!-- Node1&#45;&gt;Node10 -->
<g id="edge16" class="edge">
<title>Node1&#45;&gt;Node10</title>
<path fill="none" stroke="#191970" d="M952,-761.4116C952,-742.0538 952,-696.9167 952,-659 952,-659 952,-659 952,-603 952,-508.8578 1259.0324,-422.0202 1381.9794,-391.0212"/>
<polygon fill="#191970" stroke="#191970" points="1383.0488,-394.3617 1391.9011,-388.5403 1381.3507,-387.5707 1383.0488,-394.3617"/>
</g>
<!-- Node19 -->
<g id="node19" class="node">
<title>Node19</title>
<g id="a_node19"><a xlink:href="util_8h.html" target="_top" xlink:title="Utility functions. ">
<polygon fill="#ffffff" stroke="#000000" points="142.5,-196 142.5,-215 219.5,-215 219.5,-196 142.5,-196"/>
<text text-anchor="middle" x="181" y="-203" font-family="Helvetica,sans-Serif" font-size="10.00" fill="#000000">sbml/util/util.h</text>
</a>
</g>
</g>
<!-- Node1&#45;&gt;Node19 -->
<g id="edge150" class="edge">
<title>Node1&#45;&gt;Node19</title>
<path fill="none" stroke="#191970" d="M911.247,-770.2021C831.3614,-767.9058 648.9849,-759.0448 500,-725 416.1188,-705.8322 318,-745.0433 318,-659 318,-659 318,-659 318,-323 318,-292.4754 319.1226,-279.9529 299,-257 280.9984,-236.4664 253.3051,-223.8024 229.27,-216.1731"/>
<polygon fill="#191970" stroke="#191970" points="230.1611,-212.7868 219.5787,-213.299 228.1708,-219.4979 230.1611,-212.7868"/>
</g>
<!-- Node21 -->
<g id="node21" class="node">
<title>Node21</title>
<g id="a_node21"><a xlink:href="_x_m_l_output_stream_8h.html" target="_top" xlink:title="XMLOutputStream_t. ">
<polygon fill="#ffffff" stroke="#000000" points="2087,-537.5 2087,-556.5 2237,-556.5 2237,-537.5 2087,-537.5"/>
<text text-anchor="middle" x="2162" y="-544.5" font-family="Helvetica,sans-Serif" font-size="10.00" fill="#000000">sbml/xml/XMLOutputStream.h</text>
</a>
</g>
</g>
<!-- Node1&#45;&gt;Node21 -->
<g id="edge39" class="edge">
<title>Node1&#45;&gt;Node21</title>
<path fill="none" stroke="#191970" d="M992.5317,-770.0766C1179.3953,-765.7099 1950.6782,-746.4483 1997,-725 2072.1156,-690.2193 2129.1091,-604.0026 2151.5613,-565.7707"/>
<polygon fill="#191970" stroke="#191970" points="2154.8008,-567.1575 2156.7412,-556.7418 2148.729,-563.6741 2154.8008,-567.1575"/>
</g>
<!-- Node22 -->
<g id="node22" class="node">
<title>Node22</title>
<g id="a_node22"><a xlink:href="_math_m_l_8h.html" target="_top" xlink:title="Utilities for reading and writing MathML to/from text strings. ">
<polygon fill="#ffffff" stroke="#000000" points="504,-196 504,-215 614,-215 614,-196 504,-196"/>
<text text-anchor="middle" x="559" y="-203" font-family="Helvetica,sans-Serif" font-size="10.00" fill="#000000">sbml/math/MathML.h</text>
</a>
</g>
</g>
<!-- Node1&#45;&gt;Node22 -->
<g id="edge41" class="edge">
<title>Node1&#45;&gt;Node22</title>
<path fill="none" stroke="#191970" d="M911.3683,-768.6151C807.427,-761.4087 540,-735.44 540,-659 540,-659 540,-659 540,-323 540,-288.1936 548.2253,-248.3226 553.8521,-225.1197"/>
<polygon fill="#191970" stroke="#191970" points="557.3113,-225.7152 556.3581,-215.1633 550.523,-224.0065 557.3113,-225.7152"/>
</g>
<!-- Node23 -->
<g id="node23" class="node">
<title>Node23</title>
<g id="a_node23"><a xlink:href="_a_s_t_node_8h.html" target="_top" xlink:title="Abstract Syntax Tree (AST) for representing formula trees. ">
<polygon fill="#ffffff" stroke="#000000" points="2676.5,-705.5 2676.5,-724.5 2793.5,-724.5 2793.5,-705.5 2676.5,-705.5"/>
<text text-anchor="middle" x="2735" y="-712.5" font-family="Helvetica,sans-Serif" font-size="10.00" fill="#000000">sbml/math/ASTNode.h</text>
</a>
</g>
</g>
<!-- Node1&#45;&gt;Node23 -->
<g id="edge44" class="edge">
<title>Node1&#45;&gt;Node23</title>
<path fill="none" stroke="#191970" d="M992.5905,-769.7251C1223.503,-762.4727 2371.5969,-726.4137 2666.0776,-717.1647"/>
<polygon fill="#191970" stroke="#191970" points="2666.305,-720.6594 2676.1902,-716.8471 2666.0852,-713.6628 2666.305,-720.6594"/>
</g>
<!-- Node45 -->
<g id="node45" class="node">
<title>Node45</title>
<g id="a_node45"><a xlink:href="_s_b_o_8h.html" target="_top" xlink:title="SBO_t utility Function. ">
<polygon fill="#ffffff" stroke="#000000" points="1844,-369.5 1844,-388.5 1914,-388.5 1914,-369.5 1844,-369.5"/>
<text text-anchor="middle" x="1879" y="-376.5" font-family="Helvetica,sans-Serif" font-size="10.00" fill="#000000">sbml/SBO.h</text>
</a>
</g>
</g>
<!-- Node1&#45;&gt;Node45 -->
<g id="edge119" class="edge">
<title>Node1&#45;&gt;Node45</title>
<path fill="none" stroke="#191970" d="M992.8023,-770.3935C1176.4888,-767.5041 1919.4717,-754.0536 1959,-725 1984.1498,-706.5147 1983,-690.2125 1983,-659 1983,-659 1983,-659 1983,-547 1983,-483.3491 1928.3617,-423.7076 1898.2913,-395.7034"/>
<polygon fill="#191970" stroke="#191970" points="1900.2873,-392.7888 1890.5272,-388.6667 1895.5864,-397.9756 1900.2873,-392.7888"/>
</g>
<!-- Node46 -->
<g id="node46" class="node">
<title>Node46</title>
<g id="a_node46"><a xlink:href="_s_b_m_l_visitor_8h.html" target="_top" xlink:title="Visitor Design Pattern for the SBML object tree. ">
<polygon fill="#ffffff" stroke="#000000" points="2812,-705.5 2812,-724.5 2916,-724.5 2916,-705.5 2812,-705.5"/>
<text text-anchor="middle" x="2864" y="-712.5" font-family="Helvetica,sans-Serif" font-size="10.00" fill="#000000">sbml/SBMLVisitor.h</text>
</a>
</g>
</g>
<!-- Node1&#45;&gt;Node46 -->
<g id="edge122" class="edge">
<title>Node1&#45;&gt;Node46</title>
<path fill="none" stroke="#191970" d="M992.8445,-770.7506C1228.1269,-769.1988 2413.2573,-759.7993 2801.6746,-724.9716"/>
<polygon fill="#191970" stroke="#191970" points="2802.1802,-728.44 2811.8177,-724.0392 2801.5393,-721.4694 2802.1802,-728.44"/>
</g>
<!-- Node47 -->
<g id="node47" class="node">
<title>Node47</title>
<g id="a_node47"><a xlink:href="_s_b_m_l_document_8h.html" target="_top" xlink:title="Top&#45;level container for an SBML Model_t and associated data. ">
<polygon fill="#ffffff" stroke="#000000" points="649,-649.5 649,-668.5 771,-668.5 771,-649.5 649,-649.5"/>
<text text-anchor="middle" x="710" y="-656.5" font-family="Helvetica,sans-Serif" font-size="10.00" fill="#000000">sbml/SBMLDocument.h</text>
</a>
</g>
</g>
<!-- Node1&#45;&gt;Node47 -->
<g id="edge123" class="edge">
<title>Node1&#45;&gt;Node47</title>
<path fill="none" stroke="#191970" d="M920.5964,-761.4629C894.2913,-753.063 856.0162,-739.8736 824,-725 791.3703,-709.8414 755.7913,-688.388 733.2113,-674.1017"/>
<polygon fill="#191970" stroke="#191970" points="734.9718,-671.0732 724.6602,-668.64 731.2038,-676.9726 734.9718,-671.0732"/>
</g>
<!-- Node48 -->
<g id="node48" class="node">
<title>Node48</title>
<g id="a_node48"><a xlink:href="_s_b_m_l_error_8h.html" target="_top" xlink:title="Represents SBML errors and other diagnostics. ">
<polygon fill="#ffffff" stroke="#000000" points="346,-369.5 346,-388.5 444,-388.5 444,-369.5 346,-369.5"/>
<text text-anchor="middle" x="395" y="-376.5" font-family="Helvetica,sans-Serif" font-size="10.00" fill="#000000">sbml/SBMLError.h</text>
</a>
</g>
</g>
<!-- Node1&#45;&gt;Node48 -->
<g id="edge141" class="edge">
<title>Node1&#45;&gt;Node48</title>
<path fill="none" stroke="#191970" d="M911.2379,-769.0079C810.5677,-763.7516 556.1226,-748.2922 526,-725 418.3564,-641.765 399.1598,-459.3477 395.7401,-398.8992"/>
<polygon fill="#191970" stroke="#191970" points="399.2305,-398.6119 395.2561,-388.7907 392.2385,-398.9467 399.2305,-398.6119"/>
</g>
<!-- Node52 -->
<g id="node52" class="node">
<title>Node52</title>
<g id="a_node52"><a xlink:href="_model_8h.html" target="_top" xlink:title="Definition of Model_t. ">
<polygon fill="#ffffff" stroke="#000000" points="804,-313.5 804,-332.5 880,-332.5 880,-313.5 804,-313.5"/>
<text text-anchor="middle" x="842" y="-320.5" font-family="Helvetica,sans-Serif" font-size="10.00" fill="#000000">sbml/Model.h</text>
</a>
</g>
</g>
<!-- Node1&#45;&gt;Node52 -->
<g id="edge142" class="edge">
<title>Node1&#45;&gt;Node52</title>
<path fill="none" stroke="#191970" d="M949.7367,-761.3923C941.556,-725.7933 914,-597.9437 914,-491 914,-491 914,-491 914,-435 914,-396.0554 882.816,-359.8622 861.4931,-339.6662"/>
<polygon fill="#191970" stroke="#191970" points="863.6381,-336.8856 853.8893,-332.7368 858.9231,-342.0595 863.6381,-336.8856"/>
</g>
<!-- Node53 -->
<g id="node53" class="node">
<title>Node53</title>
<g id="a_node53"><a xlink:href="_constraint_8h.html" target="_top" xlink:title="Definitions of Constraint_t and ListOfConstraints_t. ">
<polygon fill="#ffffff" stroke="#000000" points="670,-196 670,-215 764,-215 764,-196 670,-196"/>
<text text-anchor="middle" x="717" y="-203" font-family="Helvetica,sans-Serif" font-size="10.00" fill="#000000">sbml/Constraint.h</text>
</a>
</g>
</g>
<!-- Node1&#45;&gt;Node53 -->
<g id="edge147" class="edge">
<title>Node1&#45;&gt;Node53</title>
<path fill="none" stroke="#191970" d="M947.9211,-761.1847C920.425,-695.0185 762.0999,-314.0277 724.8477,-224.3846"/>
<polygon fill="#191970" stroke="#191970" points="728.0774,-223.0358 721.0079,-215.1445 721.6134,-225.722 728.0774,-223.0358"/>
</g>
<!-- Node3 -->
<g id="node3" class="node">
<title>Node3</title>
<g id="a_node3"><a xlink:href="_x_m_l_extern_8h.html" target="_top" xlink:title="Defines LIBLAX_EXTERN. ">
<polygon fill="#ffffff" stroke="#000000" points="360.5,-129 360.5,-148 477.5,-148 477.5,-129 360.5,-129"/>
<text text-anchor="middle" x="419" y="-136" font-family="Helvetica,sans-Serif" font-size="10.00" fill="#000000">sbml/xml/XMLExtern.h</text>
</a>
</g>
</g>
<!-- Node2&#45;&gt;Node3 -->
<g id="edge2" class="edge">
<title>Node2&#45;&gt;Node3</title>
<path fill="none" stroke="#191970" d="M1759.9823,-321.5123C1571.8792,-316.3639 963.7566,-298.4412 769,-277 627.2239,-261.3916 564.1187,-310.4244 453,-221 433.7305,-205.4926 425.2718,-177.2374 421.6343,-158.1678"/>
<polygon fill="#191970" stroke="#191970" points="425.0675,-157.474 420.0044,-148.1672 418.1586,-158.6 425.0675,-157.474"/>
</g>
<!-- Node5 -->
<g id="node5" class="node">
<title>Node5</title>
<g id="a_node5"><a xlink:href="_x_m_l_token_8h.html" target="_top" xlink:title="A unit of XML syntax, either an XML element or text. ">
<polygon fill="#ffffff" stroke="#000000" points="1380.5,-257.5 1380.5,-276.5 1495.5,-276.5 1495.5,-257.5 1380.5,-257.5"/>
<text text-anchor="middle" x="1438" y="-264.5" font-family="Helvetica,sans-Serif" font-size="10.00" fill="#000000">sbml/xml/XMLToken.h</text>
</a>
</g>
</g>
<!-- Node2&#45;&gt;Node5 -->
<g id="edge4" class="edge">
<title>Node2&#45;&gt;Node5</title>
<path fill="none" stroke="#191970" d="M1759.8177,-314.6767C1692.0516,-304.6373 1578.222,-287.7736 1505.6845,-277.0273"/>
<polygon fill="#191970" stroke="#191970" points="1506.1372,-273.5563 1495.7322,-275.5529 1505.1113,-280.4807 1506.1372,-273.5563"/>
</g>
<!-- Node7 -->
<g id="node7" class="node">
<title>Node7</title>
<polygon fill="#ffffff" stroke="#bfbfbf" points="1623.5,-129 1623.5,-148 1750.5,-148 1750.5,-129 1623.5,-129"/>
<text text-anchor="middle" x="1687" y="-136" font-family="Helvetica,sans-Serif" font-size="10.00" fill="#000000">sbml/common/sbmlfwd.h</text>
</g>
<!-- Node2&#45;&gt;Node7 -->
<g id="edge14" class="edge">
<title>Node2&#45;&gt;Node7</title>
<path fill="none" stroke="#191970" d="M1767.4958,-313.4978C1731.2621,-305.2991 1686.1528,-292.3698 1675,-277 1669.7795,-269.8056 1671.3837,-265.12 1675,-257 1684.7306,-235.1513 1705.2694,-242.8487 1715,-221 1724.5534,-199.5491 1712.2219,-173.7743 1701.0359,-156.8091"/>
<polygon fill="#191970" stroke="#191970" points="1703.7099,-154.5278 1695.0856,-148.3738 1697.9898,-158.5628 1703.7099,-154.5278"/>
</g>
<!-- Node4 -->
<g id="node4" class="node">
<title>Node4</title>
<g id="a_node4"><a xlink:href="libsbml-namespace_8h.html" target="_top" xlink:title="Defines C++ namespace of libSBML. ">
<polygon fill="#ffffff" stroke="#000000" points="1169.5,-.5 1169.5,-30.5 1282.5,-30.5 1282.5,-.5 1169.5,-.5"/>
<text text-anchor="start" x="1177.5" y="-18.5" font-family="Helvetica,sans-Serif" font-size="10.00" fill="#000000">sbml/common/libsbml</text>
<text text-anchor="middle" x="1226" y="-7.5" font-family="Helvetica,sans-Serif" font-size="10.00" fill="#000000">&#45;namespace.h</text>
</a>
</g>
</g>
<!-- Node3&#45;&gt;Node4 -->
<g id="edge3" class="edge">
<title>Node3&#45;&gt;Node4</title>
<path fill="none" stroke="#191970" d="M436.8281,-128.8144C467.2375,-112.8118 531.5289,-81.2108 590,-67 696.4604,-41.1259 1018.0969,-24.49 1158.8384,-18.2631"/>
<polygon fill="#191970" stroke="#191970" points="1159.2214,-21.7498 1169.0586,-17.8152 1158.9149,-14.7565 1159.2214,-21.7498"/>
</g>
<!-- Node5&#45;&gt;Node3 -->
<g id="edge5" class="edge">
<title>Node5&#45;&gt;Node3</title>
<path fill="none" stroke="#191970" d="M1380.4463,-265.395C1181.8456,-259.7002 535.179,-239.796 495,-221 465.7435,-207.3136 442.4952,-176.7316 429.7505,-156.8919"/>
<polygon fill="#191970" stroke="#191970" points="432.5821,-154.8152 424.3574,-148.1364 426.622,-158.4864 432.5821,-154.8152"/>
</g>
<!-- Node5&#45;&gt;Node5 -->
<g id="edge12" class="edge">
<title>Node5&#45;&gt;Node5</title>
<path fill="none" stroke="#191970" d="M1470.2009,-276.5252C1492.0805,-279.3079 1513.5,-276.1328 1513.5,-267 1513.5,-259.2942 1498.2512,-255.8298 1480.3433,-256.6068"/>
<polygon fill="#191970" stroke="#191970" points="1479.866,-253.1347 1470.2009,-257.4748 1480.4629,-260.1092 1479.866,-253.1347"/>
</g>
<!-- Node5&#45;&gt;Node6 -->
<g id="edge6" class="edge">
<title>Node5&#45;&gt;Node6</title>
<path fill="none" stroke="#191970" d="M1469.7188,-257.3906C1504.7272,-246.7846 1561.2019,-229.6753 1599.6551,-218.0257"/>
<polygon fill="#191970" stroke="#191970" points="1600.9484,-221.291 1609.504,-215.0419 1598.9187,-214.5917 1600.9484,-221.291"/>
</g>
<!-- Node5&#45;&gt;Node7 -->
<g id="edge13" class="edge">
<title>Node5&#45;&gt;Node7</title>
<path fill="none" stroke="#191970" d="M1457.543,-257.486C1475.2503,-248.6469 1501.8783,-234.8046 1524,-221 1543.9874,-208.5273 1546.4963,-201.6043 1567,-190 1593.8785,-174.7878 1626.1322,-161.182 1650.4288,-151.7807"/>
<polygon fill="#191970" stroke="#191970" points="1651.8844,-154.9717 1659.9834,-148.1411 1649.3925,-148.4302 1651.8844,-154.9717"/>
</g>
<!-- Node6&#45;&gt;Node3 -->
<g id="edge7" class="edge">
<title>Node6&#45;&gt;Node3</title>
<path fill="none" stroke="#191970" d="M1575.7281,-197.9453C1549.4348,-195.1137 1518.8042,-192.0815 1491,-190 1147.5891,-164.2914 1060.9548,-170.944 717,-154 638.3714,-150.1266 548.0891,-145.3902 487.6929,-142.1801"/>
<polygon fill="#191970" stroke="#191970" points="487.6908,-138.6752 477.519,-141.6388 487.3189,-145.6653 487.6908,-138.6752"/>
</g>
<!-- Node6&#45;&gt;Node7 -->
<g id="edge8" class="edge">
<title>Node6&#45;&gt;Node7</title>
<path fill="none" stroke="#191970" d="M1647.5907,-195.9005C1654.6273,-185.6515 1665.9398,-169.1747 1674.6434,-156.4976"/>
<polygon fill="#191970" stroke="#191970" points="1677.6468,-158.3067 1680.4215,-148.0817 1671.876,-154.3446 1677.6468,-158.3067"/>
</g>
<!-- Node8 -->
<g id="node8" class="node">
<title>Node8</title>
<g id="a_node8"><a xlink:href="operation_return_values_8h.html" target="_top" xlink:title="Enumeration of values returned by operations within libSBML. ">
<polygon fill="#ffffff" stroke="#000000" points="2075.5,-123.5 2075.5,-153.5 2228.5,-153.5 2228.5,-123.5 2075.5,-123.5"/>
<text text-anchor="start" x="2083.5" y="-141.5" font-family="Helvetica,sans-Serif" font-size="10.00" fill="#000000">sbml/common/operationReturn</text>
<text text-anchor="middle" x="2152" y="-130.5" font-family="Helvetica,sans-Serif" font-size="10.00" fill="#000000">Values.h</text>
</a>
</g>
</g>
<!-- Node6&#45;&gt;Node8 -->
<g id="edge9" class="edge">
<title>Node6&#45;&gt;Node8</title>
<path fill="none" stroke="#191970" d="M1706.2375,-196.9463C1797.5043,-184.9799 1963.4942,-163.216 2065.1391,-149.8888"/>
<polygon fill="#191970" stroke="#191970" points="2065.614,-153.3566 2075.0741,-148.5862 2064.704,-146.416 2065.614,-153.3566"/>
</g>
<!-- Node9 -->
<g id="node9" class="node">
<title>Node9</title>
<g id="a_node9"><a xlink:href="extern_8h.html" target="_top" xlink:title="Definitions of LIBSBML_EXTERN and related things. ">
<polygon fill="#ffffff" stroke="#000000" points="1941,-67.5 1941,-86.5 2059,-86.5 2059,-67.5 1941,-67.5"/>
<text text-anchor="middle" x="2000" y="-74.5" font-family="Helvetica,sans-Serif" font-size="10.00" fill="#000000">sbml/common/extern.h</text>
</a>
</g>
</g>
<!-- Node8&#45;&gt;Node9 -->
<g id="edge10" class="edge">
<title>Node8&#45;&gt;Node9</title>
<path fill="none" stroke="#191970" d="M2114.8166,-123.4554C2089.7887,-113.329 2057.0837,-100.0964 2032.9834,-90.3453"/>
<polygon fill="#191970" stroke="#191970" points="2034.1373,-87.0366 2023.5546,-86.5303 2031.5118,-93.5256 2034.1373,-87.0366"/>
</g>
<!-- Node9&#45;&gt;Node4 -->
<g id="edge11" class="edge">
<title>Node9&#45;&gt;Node4</title>
<path fill="none" stroke="#191970" d="M1940.8702,-72.3017C1799.3778,-61.0591 1442.0084,-32.6635 1292.9281,-20.8179"/>
<polygon fill="#191970" stroke="#191970" points="1292.806,-17.2973 1282.5601,-19.9941 1292.2514,-24.2753 1292.806,-17.2973"/>
</g>
<!-- Node10&#45;&gt;Node3 -->
<g id="edge17" class="edge">
<title>Node10&#45;&gt;Node3</title>
<path fill="none" stroke="#191970" d="M1360.8799,-372.7959C1345.4283,-371.4974 1329.1691,-370.1688 1314,-369 954.0769,-341.2678 838.8793,-419.0204 507,-277 467.4329,-260.0681 449.8092,-258.1027 428,-221 416.7469,-201.8557 415.7816,-175.8588 416.7954,-158.2002"/>
<polygon fill="#191970" stroke="#191970" points="420.2871,-158.4443 417.6334,-148.1872 413.3115,-157.8604 420.2871,-158.4443"/>
</g>
<!-- Node10&#45;&gt;Node5 -->
<g id="edge18" class="edge">
<title>Node10&#45;&gt;Node5</title>
<path fill="none" stroke="#191970" d="M1432.5116,-369.4509C1433.4901,-351.184 1435.6453,-310.9553 1436.9448,-286.6976"/>
<polygon fill="#191970" stroke="#191970" points="1440.4497,-286.6978 1437.4897,-276.5249 1433.4597,-286.3233 1440.4497,-286.6978"/>
</g>
<!-- Node10&#45;&gt;Node7 -->
<g id="edge19" class="edge">
<title>Node10&#45;&gt;Node7</title>
<path fill="none" stroke="#191970" d="M1425.8187,-369.3397C1410.8738,-345.8917 1373.8016,-287.1433 1371,-277 1368.6334,-268.4319 1365.694,-264.1315 1371,-257 1404.2381,-212.327 1442.7563,-248.8027 1491,-221 1508.4351,-210.9523 1506.6386,-200.1745 1524,-190 1556.0217,-171.234 1595.6577,-158.5125 1627.8262,-150.4083"/>
<polygon fill="#191970" stroke="#191970" points="1628.665,-153.8064 1637.5531,-148.0399 1627.0089,-147.0051 1628.665,-153.8064"/>
</g>
<!-- Node10&#45;&gt;Node8 -->
<g id="edge20" class="edge">
<title>Node10&#45;&gt;Node8</title>
<path fill="none" stroke="#191970" d="M1478.0818,-369.4753C1552.6057,-353.5514 1703.7746,-319.0876 1828,-277 1888.3578,-256.5508 1901.3908,-246.0239 1960,-221 2010.5994,-199.396 2068.6257,-174.4373 2107.5241,-157.6795"/>
<polygon fill="#191970" stroke="#191970" points="2109.1865,-160.7743 2116.9852,-153.6028 2106.4164,-154.3457 2109.1865,-160.7743"/>
</g>
<!-- Node11 -->
<g id="node11" class="node">
<title>Node11</title>
<g id="a_node11"><a xlink:href="_s_b_m_l_namespaces_8h.html" target="_top" xlink:title="SBMLNamespaces_t class to store level/version and namespace. ">
<polygon fill="#ffffff" stroke="#000000" points="1247,-313.5 1247,-332.5 1381,-332.5 1381,-313.5 1247,-313.5"/>
<text text-anchor="middle" x="1314" y="-320.5" font-family="Helvetica,sans-Serif" font-size="10.00" fill="#000000">sbml/SBMLNamespaces.h</text>
</a>
</g>
</g>
<!-- Node10&#45;&gt;Node11 -->
<g id="edge21" class="edge">
<title>Node10&#45;&gt;Node11</title>
<path fill="none" stroke="#191970" d="M1411.7151,-369.3733C1392.8579,-360.4241 1364.554,-346.9917 1343.2545,-336.8835"/>
<polygon fill="#191970" stroke="#191970" points="1344.5551,-333.6266 1334.0202,-332.5011 1341.5539,-339.9506 1344.5551,-333.6266"/>
</g>
<!-- Node12 -->
<g id="node12" class="node">
<title>Node12</title>
<g id="a_node12"><a xlink:href="_x_m_l_namespaces_8h.html" target="_top" xlink:title="A list of XMLNamespace declarations (URI/prefix pairs) ">
<polygon fill="#ffffff" stroke="#000000" points="1336,-196 1336,-215 1482,-215 1482,-196 1336,-196"/>
<text text-anchor="middle" x="1409" y="-203" font-family="Helvetica,sans-Serif" font-size="10.00" fill="#000000">sbml/xml/XMLNamespaces.h</text>
</a>
</g>
</g>
<!-- Node11&#45;&gt;Node12 -->
<g id="edge22" class="edge">
<title>Node11&#45;&gt;Node12</title>
<path fill="none" stroke="#191970" d="M1315.6877,-313.1787C1318.4354,-299.4683 1324.9349,-274.3292 1338,-257 1349.4633,-241.7954 1366.6681,-229.1569 1381.2704,-220.2053"/>
<polygon fill="#191970" stroke="#191970" points="1383.0933,-223.1938 1389.9514,-215.1181 1379.5541,-217.1544 1383.0933,-223.1938"/>
</g>
<!-- Node13 -->
<g id="node13" class="node">
<title>Node13</title>
<g id="a_node13"><a xlink:href="common_8h.html" target="_top" xlink:title="Common functions and macros for C and C++. ">
<polygon fill="#ffffff" stroke="#000000" points="924,-257.5 924,-276.5 1052,-276.5 1052,-257.5 924,-257.5"/>
<text text-anchor="middle" x="988" y="-264.5" font-family="Helvetica,sans-Serif" font-size="10.00" fill="#000000">sbml/common/common.h</text>
</a>
</g>
</g>
<!-- Node11&#45;&gt;Node13 -->
<g id="edge26" class="edge">
<title>Node11&#45;&gt;Node13</title>
<path fill="none" stroke="#191970" d="M1258.329,-313.4369C1201.5989,-303.6918 1113.645,-288.5832 1053.5753,-278.2645"/>
<polygon fill="#191970" stroke="#191970" points="1053.8896,-274.7673 1043.4414,-276.5237 1052.7044,-281.6662 1053.8896,-274.7673"/>
</g>
<!-- Node12&#45;&gt;Node3 -->
<g id="edge23" class="edge">
<title>Node12&#45;&gt;Node3</title>
<path fill="none" stroke="#191970" d="M1335.8009,-200.5461C1151.0618,-188.0436 667.8618,-155.3422 487.8765,-143.1613"/>
<polygon fill="#191970" stroke="#191970" points="487.9553,-139.6588 477.7417,-142.4754 487.4825,-146.6428 487.9553,-139.6588"/>
</g>
<!-- Node12&#45;&gt;Node7 -->
<g id="edge24" class="edge">
<title>Node12&#45;&gt;Node7</title>
<path fill="none" stroke="#191970" d="M1448.5354,-195.9717C1498.1068,-184.0246 1583.1207,-163.5357 1637.1155,-150.5225"/>
<polygon fill="#191970" stroke="#191970" points="1638.2493,-153.8496 1647.1509,-148.1039 1636.6092,-147.0444 1638.2493,-153.8496"/>
</g>
<!-- Node12&#45;&gt;Node8 -->
<g id="edge25" class="edge">
<title>Node12&#45;&gt;Node8</title>
<path fill="none" stroke="#191970" d="M1482.1417,-198.1712C1508.8417,-195.5364 1539.2819,-192.5796 1567,-190 1743.8838,-173.5382 1950.9881,-155.6275 2065.2323,-145.8662"/>
<polygon fill="#191970" stroke="#191970" points="2065.6533,-149.3431 2075.3192,-145.0049 2065.0577,-142.3685 2065.6533,-149.3431"/>
</g>
<!-- Node13&#45;&gt;Node9 -->
<g id="edge33" class="edge">
<title>Node13&#45;&gt;Node9</title>
<path fill="none" stroke="#191970" d="M1010.2773,-257.347C1026.1762,-249.508 1047.1185,-237.1177 1061,-221 1092.0396,-184.9603 1064.8598,-150.0253 1104,-123 1137.8554,-99.6237 1726.2833,-83.4973 1930.7059,-78.5791"/>
<polygon fill="#191970" stroke="#191970" points="1930.8126,-82.0776 1940.7261,-78.3396 1930.6453,-75.0796 1930.8126,-82.0776"/>
</g>
<!-- Node14 -->
<g id="node14" class="node">
<title>Node14</title>
<g id="a_node14"><a xlink:href="libsbml-config_8h.html" target="_top" xlink:title="Decides whether to #include Unix or Windows configuration variables. ">
<polygon fill="#ffffff" stroke="#000000" points="782.5,-190.5 782.5,-220.5 895.5,-220.5 895.5,-190.5 782.5,-190.5"/>
<text text-anchor="start" x="790.5" y="-208.5" font-family="Helvetica,sans-Serif" font-size="10.00" fill="#000000">sbml/common/libsbml</text>
<text text-anchor="middle" x="839" y="-197.5" font-family="Helvetica,sans-Serif" font-size="10.00" fill="#000000">&#45;config.h</text>
</a>
</g>
</g>
<!-- Node13&#45;&gt;Node14 -->
<g id="edge27" class="edge">
<title>Node13&#45;&gt;Node14</title>
<path fill="none" stroke="#191970" d="M964.7188,-257.3906C943.4331,-248.6049 911.3358,-235.3567 884.9016,-224.446"/>
<polygon fill="#191970" stroke="#191970" points="886.0284,-221.1247 875.4495,-220.5446 883.3577,-227.5952 886.0284,-221.1247"/>
</g>
<!-- Node17 -->
<g id="node17" class="node">
<title>Node17</title>
<polygon fill="#ffffff" stroke="#bfbfbf" points="71,-129 71,-148 117,-148 117,-129 71,-129"/>
<text text-anchor="middle" x="94" y="-136" font-family="Helvetica,sans-Serif" font-size="10.00" fill="#000000">stdio.h</text>
</g>
<!-- Node13&#45;&gt;Node17 -->
<g id="edge32" class="edge">
<title>Node13&#45;&gt;Node17</title>
<path fill="none" stroke="#191970" d="M923.8534,-258.088C920.5232,-257.7016 917.2235,-257.3359 914,-257 696.8112,-234.368 639.7634,-254.6053 424,-221 313.6321,-203.8101 186.2102,-166.9857 127.1832,-148.9242"/>
<polygon fill="#191970" stroke="#191970" points="127.8964,-145.4816 117.3092,-145.8821 125.8354,-152.1713 127.8964,-145.4816"/>
</g>
<!-- Node18 -->
<g id="node18" class="node">
<title>Node18</title>
<g id="a_node18"><a xlink:href="memory_8h.html" target="_top" xlink:title="sbml/util/memory.h">
<polygon fill="#ffffff" stroke="#000000" points="952,-196 952,-215 1052,-215 1052,-196 952,-196"/>
<text text-anchor="middle" x="1002" y="-203" font-family="Helvetica,sans-Serif" font-size="10.00" fill="#000000">sbml/util/memory.h</text>
</a>
</g>
</g>
<!-- Node13&#45;&gt;Node18 -->
<g id="edge34" class="edge">
<title>Node13&#45;&gt;Node18</title>
<path fill="none" stroke="#191970" d="M990.1875,-257.3906C992.1486,-248.776 995.0863,-235.8708 997.5415,-225.0858"/>
<polygon fill="#191970" stroke="#191970" points="1000.9746,-225.7723 999.7817,-215.2449 994.1493,-224.2185 1000.9746,-225.7723"/>
</g>
<!-- Node13&#45;&gt;Node19 -->
<g id="edge35" class="edge">
<title>Node13&#45;&gt;Node19</title>
<path fill="none" stroke="#191970" d="M923.8589,-258.0336C920.5273,-257.6614 917.2258,-257.3136 914,-257 646.3414,-230.9751 577.8431,-245.0516 310,-221 283.3631,-218.6081 253.7295,-215.1071 229.5883,-212.0373"/>
<polygon fill="#191970" stroke="#191970" points="229.968,-208.5574 219.6031,-210.7526 229.0747,-215.5002 229.968,-208.5574"/>
</g>
<!-- Node14&#45;&gt;Node4 -->
<g id="edge28" class="edge">
<title>Node14&#45;&gt;Node4</title>
<path fill="none" stroke="#191970" d="M782.4141,-190.523C739.8091,-176.4576 692.6027,-153.0882 717,-123 771.9829,-55.1919 1034.1755,-28.4926 1159.2807,-19.483"/>
<polygon fill="#191970" stroke="#191970" points="1159.7692,-22.9574 1169.4991,-18.7646 1159.2782,-15.9746 1159.7692,-22.9574"/>
</g>
<!-- Node15 -->
<g id="node15" class="node">
<title>Node15</title>
<g id="a_node15"><a xlink:href="libsbml-config-common_8h.html" target="_top" xlink:title="Configuration variables. ">
<polygon fill="#ffffff" stroke="#000000" points="726.5,-123.5 726.5,-153.5 839.5,-153.5 839.5,-123.5 726.5,-123.5"/>
<text text-anchor="start" x="734.5" y="-141.5" font-family="Helvetica,sans-Serif" font-size="10.00" fill="#000000">sbml/common/libsbml</text>
<text text-anchor="middle" x="783" y="-130.5" font-family="Helvetica,sans-Serif" font-size="10.00" fill="#000000">&#45;config&#45;common.h</text>
</a>
</g>
</g>
<!-- Node14&#45;&gt;Node15 -->
<g id="edge29" class="edge">
<title>Node14&#45;&gt;Node15</title>
<path fill="none" stroke="#191970" d="M826.2927,-190.2967C819.2044,-181.816 810.2298,-171.0785 802.2921,-161.5817"/>
<polygon fill="#191970" stroke="#191970" points="804.7556,-159.0714 795.657,-153.6432 799.3846,-163.5606 804.7556,-159.0714"/>
</g>
<!-- Node16 -->
<g id="node16" class="node">
<title>Node16</title>
<g id="a_node16"><a xlink:href="libsbml-version_8h.html" target="_top" xlink:title="Define libSBML version numbers for access from client software. ">
<polygon fill="#ffffff" stroke="#000000" points="857.5,-123.5 857.5,-153.5 970.5,-153.5 970.5,-123.5 857.5,-123.5"/>
<text text-anchor="start" x="865.5" y="-141.5" font-family="Helvetica,sans-Serif" font-size="10.00" fill="#000000">sbml/common/libsbml</text>
<text text-anchor="middle" x="914" y="-130.5" font-family="Helvetica,sans-Serif" font-size="10.00" fill="#000000">&#45;version.h</text>
</a>
</g>
</g>
<!-- Node14&#45;&gt;Node16 -->
<g id="edge30" class="edge">
<title>Node14&#45;&gt;Node16</title>
<path fill="none" stroke="#191970" d="M856.0187,-190.2967C865.8956,-181.4733 878.5069,-170.2072 889.4438,-160.4368"/>
<polygon fill="#191970" stroke="#191970" points="891.9228,-162.9155 897.0487,-153.6432 887.2593,-157.6952 891.9228,-162.9155"/>
</g>
<!-- Node16&#45;&gt;Node9 -->
<g id="edge31" class="edge">
<title>Node16&#45;&gt;Node9</title>
<path fill="none" stroke="#191970" d="M970.817,-125.2075C975.5974,-124.3601 980.3713,-123.6057 985,-123 1168.4292,-98.9978 1732.6443,-83.4473 1930.5363,-78.6117"/>
<polygon fill="#191970" stroke="#191970" points="1930.8905,-82.1042 1940.8026,-78.3624 1930.7205,-75.1062 1930.8905,-82.1042"/>
</g>
<!-- Node19&#45;&gt;Node9 -->
<g id="edge38" class="edge">
<title>Node19&#45;&gt;Node9</title>
<path fill="none" stroke="#191970" d="M187.881,-195.7542C201.4777,-177.4333 233.8027,-138.3243 272,-123 350.0585,-91.6839 1616.7954,-79.938 1930.2615,-77.5033"/>
<polygon fill="#191970" stroke="#191970" points="1930.5978,-81.0009 1940.5706,-77.4239 1930.5439,-74.0011 1930.5978,-81.0009"/>
</g>
<!-- Node19&#45;&gt;Node17 -->
<g id="edge36" class="edge">
<title>Node19&#45;&gt;Node17</title>
<path fill="none" stroke="#191970" d="M168.535,-195.9005C154.4513,-185.0544 131.3112,-167.2339 114.5461,-154.3229"/>
<polygon fill="#191970" stroke="#191970" points="116.5003,-151.4102 106.4419,-148.0817 112.2292,-156.9562 116.5003,-151.4102"/>
</g>
<!-- Node20 -->
<g id="node20" class="node">
<title>Node20</title>
<polygon fill="#ffffff" stroke="#bfbfbf" points="154.5,-129 154.5,-148 207.5,-148 207.5,-129 154.5,-129"/>
<text text-anchor="middle" x="181" y="-136" font-family="Helvetica,sans-Serif" font-size="10.00" fill="#000000">stdarg.h</text>
</g>
<!-- Node19&#45;&gt;Node20 -->
<g id="edge37" class="edge">
<title>Node19&#45;&gt;Node20</title>
<path fill="none" stroke="#191970" d="M181,-195.9005C181,-186.149 181,-170.7597 181,-158.3695"/>
<polygon fill="#191970" stroke="#191970" points="184.5001,-158.0816 181,-148.0817 177.5001,-158.0817 184.5001,-158.0816"/>
</g>
<!-- Node21&#45;&gt;Node7 -->
<g id="edge40" class="edge">
<title>Node21&#45;&gt;Node7</title>
<path fill="none" stroke="#191970" d="M2148.0337,-537.282C2124.031,-520.2108 2074.0602,-483.0263 2038,-445 1941.1124,-342.8297 1964.5354,-271.9 1850,-190 1822.5532,-170.3738 1787.335,-158.0224 1756.662,-150.3551"/>
<polygon fill="#191970" stroke="#191970" points="1757.4172,-146.9371 1746.8786,-148.027 1755.7967,-153.747 1757.4172,-146.9371"/>
</g>
<!-- Node22&#45;&gt;Node7 -->
<g id="edge43" class="edge">
<title>Node22&#45;&gt;Node7</title>
<path fill="none" stroke="#191970" d="M614.1904,-196.0763C629.3259,-193.7752 645.7628,-191.5362 661,-190 1016.8372,-154.1247 1444.7442,-142.8532 1613.4793,-139.6529"/>
<polygon fill="#191970" stroke="#191970" points="1613.5598,-143.1521 1623.493,-139.4668 1613.4296,-136.1534 1613.5598,-143.1521"/>
</g>
<!-- Node22&#45;&gt;Node9 -->
<g id="edge42" class="edge">
<title>Node22&#45;&gt;Node9</title>
<path fill="none" stroke="#191970" d="M563.5951,-195.8409C572.8411,-177.668 595.6118,-138.8011 628,-123 686.9824,-94.2245 1660.4057,-80.9101 1930.8102,-77.7557"/>
<polygon fill="#191970" stroke="#191970" points="1930.9303,-81.2546 1940.8891,-77.639 1930.8492,-74.2551 1930.9303,-81.2546"/>
</g>
<!-- Node23&#45;&gt;Node6 -->
<g id="edge62" class="edge">
<title>Node23&#45;&gt;Node6</title>
<path fill="none" stroke="#191970" d="M2684.6903,-705.4675C2488.3978,-668.102 1783.0046,-532.1429 1746,-501 1659.4579,-428.1665 1644.2279,-278.93 1641.5611,-225.2684"/>
<polygon fill="#191970" stroke="#191970" points="1645.0501,-224.92 1641.1538,-215.0677 1638.0556,-225.1994 1645.0501,-224.92"/>
</g>
<!-- Node23&#45;&gt;Node7 -->
<g id="edge46" class="edge">
<title>Node23&#45;&gt;Node7</title>
<path fill="none" stroke="#191970" d="M2676.3472,-708.5749C2645.4209,-702.6154 2608.5092,-691.1306 2582,-669 2467.103,-573.081 2521.2056,-486.8979 2429,-369 2341.4413,-257.0439 2300.4895,-229.6399 2164,-190 2090.237,-168.5774 1875.1765,-151.2919 1760.6982,-143.3015"/>
<polygon fill="#191970" stroke="#191970" points="1760.8323,-139.8025 1750.6145,-142.6036 1760.3489,-146.7858 1760.8323,-139.8025"/>
</g>
<!-- Node23&#45;&gt;Node8 -->
<g id="edge117" class="edge">
<title>Node23&#45;&gt;Node8</title>
<path fill="none" stroke="#191970" d="M2683.6518,-705.4847C2646.3472,-697.4058 2600.4731,-684.6439 2589,-669 2583.7432,-661.8322 2587.6202,-657.7811 2589,-649 2608.5706,-524.4524 2676,-505.0758 2676,-379 2676,-379 2676,-379 2676,-323 2676,-231.4302 2387.702,-174.194 2238.7937,-150.7382"/>
<polygon fill="#191970" stroke="#191970" points="2239.1748,-147.2555 2228.7553,-149.1749 2238.0976,-154.1721 2239.1748,-147.2555"/>
</g>
<!-- Node23&#45;&gt;Node9 -->
<g id="edge45" class="edge">
<title>Node23&#45;&gt;Node9</title>
<path fill="none" stroke="#191970" d="M2746.4767,-705.4447C2760.1176,-692.8554 2779.9736,-669.8625 2771,-649 2761.8075,-627.6287 2745.0877,-632.8777 2733,-613 2717.14,-586.9191 2714,-577.5246 2714,-547 2714,-547 2714,-547 2714,-205.5 2714,-127.8528 2634.4738,-144.9714 2560,-123 2469.929,-96.427 2198.5807,-83.8051 2069.5782,-79.1801"/>
<polygon fill="#191970" stroke="#191970" points="2069.5343,-75.6765 2059.4172,-78.8219 2069.2876,-82.6722 2069.5343,-75.6765"/>
</g>
<!-- Node24 -->
<g id="node24" class="node">
<title>Node24</title>
<g id="a_node24"><a xlink:href="_a_s_t_node_type_8h.html" target="_top" xlink:title="Enumeration for Abstract Syntax Tree (AST). ">
<polygon fill="#ffffff" stroke="#000000" points="3098.5,-481.5 3098.5,-500.5 3237.5,-500.5 3237.5,-481.5 3098.5,-481.5"/>
<text text-anchor="middle" x="3168" y="-488.5" font-family="Helvetica,sans-Serif" font-size="10.00" fill="#000000">sbml/math/ASTNodeType.h</text>
</a>
</g>
</g>
<!-- Node23&#45;&gt;Node24 -->
<g id="edge47" class="edge">
<title>Node23&#45;&gt;Node24</title>
<path fill="none" stroke="#191970" d="M2793.5803,-706.1952C2796.7646,-705.776 2799.9202,-705.3744 2803,-705 2968.7698,-684.8456 3019.3792,-724.1499 3177,-669 3225.1465,-652.154 3281.6802,-640.465 3263,-593 3248.4622,-556.0605 3213.5474,-524.5794 3190.3399,-506.7292"/>
<polygon fill="#191970" stroke="#191970" points="3192.1939,-503.7457 3182.0855,-500.5723 3188.0087,-509.3568 3192.1939,-503.7457"/>
</g>
<!-- Node25 -->
<g id="node25" class="node">
<title>Node25</title>
<g id="a_node25"><a xlink:href="_formula_tokenizer_8h.html" target="_top" xlink:title="Tokenizes an SBML formula string. ">
<polygon fill="#ffffff" stroke="#000000" points="2742,-593.5 2742,-612.5 2896,-612.5 2896,-593.5 2742,-593.5"/>
<text text-anchor="middle" x="2819" y="-600.5" font-family="Helvetica,sans-Serif" font-size="10.00" fill="#000000">sbml/math/FormulaTokenizer.h</text>
</a>
</g>
</g>
<!-- Node23&#45;&gt;Node25 -->
<g id="edge50" class="edge">
<title>Node23&#45;&gt;Node25</title>
<path fill="none" stroke="#191970" d="M2757.6203,-705.4498C2773.0028,-697.8008 2792.5669,-685.5997 2804,-669 2813.3615,-655.4079 2816.9659,-636.8636 2818.3125,-622.8924"/>
<polygon fill="#191970" stroke="#191970" points="2821.809,-623.059 2818.9752,-612.8502 2814.8242,-622.5979 2821.809,-623.059"/>
</g>
<!-- Node26 -->
<g id="node26" class="node">
<title>Node26</title>
<g id="a_node26"><a xlink:href="_formula_formatter_8h.html" target="_top" xlink:title="Formats an AST formula tree as an SBML formula string. ">
<polygon fill="#ffffff" stroke="#000000" points="3014,-649.5 3014,-668.5 3168,-668.5 3168,-649.5 3014,-649.5"/>
<text text-anchor="middle" x="3091" y="-656.5" font-family="Helvetica,sans-Serif" font-size="10.00" fill="#000000">sbml/math/FormulaFormatter.h</text>
</a>
</g>
</g>
<!-- Node23&#45;&gt;Node26 -->
<g id="edge52" class="edge">
<title>Node23&#45;&gt;Node26</title>
<path fill="none" stroke="#191970" d="M2790.5645,-705.4369C2850.9684,-695.6314 2947.7323,-680.3957 3015.1011,-670.0731"/>
<polygon fill="#191970" stroke="#191970" points="3015.8788,-673.495 3025.2349,-668.5237 3014.8208,-666.5754 3015.8788,-673.495"/>
</g>
<!-- Node28 -->
<g id="node28" class="node">
<title>Node28</title>
<g id="a_node28"><a xlink:href="_formula_parser_8h.html" target="_top" xlink:title="Parses an SBML formula string into an AST. ">
<polygon fill="#ffffff" stroke="#000000" points="2856,-649.5 2856,-668.5 2996,-668.5 2996,-649.5 2856,-649.5"/>
<text text-anchor="middle" x="2926" y="-656.5" font-family="Helvetica,sans-Serif" font-size="10.00" fill="#000000">sbml/math/FormulaParser.h</text>
</a>
</g>
</g>
<!-- Node23&#45;&gt;Node28 -->
<g id="edge56" class="edge">
<title>Node23&#45;&gt;Node28</title>
<path fill="none" stroke="#191970" d="M2762.592,-705.3733C2792.9196,-695.9404 2841.9295,-681.5265 2878.4374,-671.2747"/>
<polygon fill="#191970" stroke="#191970" points="2879.6858,-674.5601 2888.3771,-668.5011 2877.8043,-667.8177 2879.6858,-674.5601"/>
</g>
<!-- Node30 -->
<g id="node30" class="node">
<title>Node30</title>
<g id="a_node30"><a xlink:href="_syntax_checker_8h.html" target="_top" xlink:title="Syntax checking functions. ">
<polygon fill="#ffffff" stroke="#000000" points="1472.5,-649.5 1472.5,-668.5 1589.5,-668.5 1589.5,-649.5 1472.5,-649.5"/>
<text text-anchor="middle" x="1531" y="-656.5" font-family="Helvetica,sans-Serif" font-size="10.00" fill="#000000">sbml/SyntaxChecker.h</text>
</a>
</g>
</g>
<!-- Node23&#45;&gt;Node30 -->
<g id="edge63" class="edge">
<title>Node23&#45;&gt;Node30</title>
<path fill="none" stroke="#191970" d="M2676.1135,-712.2611C2474.9786,-702.906 1815.7428,-672.2439 1600.0115,-662.2098"/>
<polygon fill="#191970" stroke="#191970" points="1599.925,-658.7021 1589.7731,-661.7336 1599.5997,-665.6946 1599.925,-658.7021"/>
</g>
<!-- Node44 -->
<g id="node44" class="node">
<title>Node44</title>
<g id="a_node44"><a xlink:href="_a_s_t_base_plugin_8h.html" target="_top" xlink:title="sbml/extension/ASTBasePlugin.h">
<polygon fill="#ffffff" stroke="#000000" points="2598,-649.5 2598,-668.5 2762,-668.5 2762,-649.5 2598,-649.5"/>
<text text-anchor="middle" x="2680" y="-656.5" font-family="Helvetica,sans-Serif" font-size="10.00" fill="#000000">sbml/extension/ASTBasePlugin.h</text>
</a>
</g>
</g>
<!-- Node23&#45;&gt;Node44 -->
<g id="edge118" class="edge">
<title>Node23&#45;&gt;Node44</title>
<path fill="none" stroke="#191970" d="M2725.4197,-705.2455C2717.4542,-697.1352 2705.9359,-685.4075 2696.4921,-675.7919"/>
<polygon fill="#191970" stroke="#191970" points="2698.9747,-673.3247 2689.4705,-668.6427 2693.9805,-678.2297 2698.9747,-673.3247"/>
</g>
<!-- Node24&#45;&gt;Node4 -->
<g id="edge48" class="edge">
<title>Node24&#45;&gt;Node4</title>
<path fill="none" stroke="#191970" d="M3167.1403,-481.4209C3165.4813,-462.0797 3162,-416.971 3162,-379 3162,-379 3162,-379 3162,-138.5 3162,-42.7442 1633.6588,-20.0463 1292.839,-16.1751"/>
<polygon fill="#191970" stroke="#191970" points="1292.6702,-12.6731 1282.6316,-16.0608 1292.5918,-19.6727 1292.6702,-12.6731"/>
</g>
<!-- Node24&#45;&gt;Node9 -->
<g id="edge49" class="edge">
<title>Node24&#45;&gt;Node9</title>
<path fill="none" stroke="#191970" d="M3160.558,-481.4319C3146.8504,-462.819 3119,-419.9622 3119,-379 3119,-379 3119,-379 3119,-205.5 3119,-165.6701 3116.7377,-145.6861 3084,-123 3042.2617,-94.0768 2301.4986,-81.239 2069.1294,-77.9118"/>
<polygon fill="#191970" stroke="#191970" points="2069.1558,-74.4119 2059.1071,-77.7697 2069.0565,-81.4112 2069.1558,-74.4119"/>
</g>
<!-- Node25&#45;&gt;Node9 -->
<g id="edge51" class="edge">
<title>Node25&#45;&gt;Node9</title>
<path fill="none" stroke="#191970" d="M2813.9832,-593.4109C2804.5255,-574.4144 2785,-530.4221 2785,-491 2785,-491 2785,-491 2785,-205.5 2785,-160.9329 2766.7941,-144.9373 2728,-123 2671.5883,-91.1003 2239.9532,-80.8042 2069.2056,-77.9585"/>
<polygon fill="#191970" stroke="#191970" points="2069.129,-74.4569 2059.0733,-77.7933 2069.0148,-81.4559 2069.129,-74.4569"/>
</g>
<!-- Node26&#45;&gt;Node9 -->
<g id="edge53" class="edge">
<title>Node26&#45;&gt;Node9</title>
<path fill="none" stroke="#191970" d="M3087.9014,-649.2275C3082.0599,-629.9094 3070,-585.3796 3070,-547 3070,-547 3070,-547 3070,-205.5 3070,-98.5723 2948.7486,-144.477 2844,-123 2696.5342,-92.7645 2243.355,-81.4471 2069.1841,-78.1446"/>
<polygon fill="#191970" stroke="#191970" points="2069.1758,-74.6439 2059.1122,-77.9566 2069.0452,-81.6427 2069.1758,-74.6439"/>
</g>
<!-- Node26&#45;&gt;Node23 -->
<g id="edge55" class="edge">
<title>Node26&#45;&gt;Node23</title>
<path fill="none" stroke="#191970" d="M3035.5379,-668.5465C2972.9869,-678.701 2871.352,-694.693 2803.8018,-705.0127"/>
<polygon fill="#191970" stroke="#191970" points="2803.0367,-701.5888 2793.6782,-706.5556 2804.0914,-708.5089 2803.0367,-701.5888"/>
</g>
<!-- Node27 -->
<g id="node27" class="node">
<title>Node27</title>
<g id="a_node27"><a xlink:href="_string_buffer_8h.html" target="_top" xlink:title="sbml/util/StringBuffer.h">
<polygon fill="#ffffff" stroke="#000000" points="3136.5,-593.5 3136.5,-612.5 3253.5,-612.5 3253.5,-593.5 3136.5,-593.5"/>
<text text-anchor="middle" x="3195" y="-600.5" font-family="Helvetica,sans-Serif" font-size="10.00" fill="#000000">sbml/util/StringBuffer.h</text>
</a>
</g>
</g>
<!-- Node26&#45;&gt;Node27 -->
<g id="edge54" class="edge">
<title>Node26&#45;&gt;Node27</title>
<path fill="none" stroke="#191970" d="M3109.1154,-649.2455C3125.445,-640.4527 3149.671,-627.4079 3168.2339,-617.4125"/>
<polygon fill="#191970" stroke="#191970" points="3169.9468,-620.4654 3177.0922,-612.6427 3166.6281,-614.3021 3169.9468,-620.4654"/>
</g>
<!-- Node28&#45;&gt;Node9 -->
<g id="edge58" class="edge">
<title>Node28&#45;&gt;Node9</title>
<path fill="none" stroke="#191970" d="M2925.7134,-649.4127C2925.1604,-630.0567 2924,-584.9227 2924,-547 2924,-547 2924,-547 2924,-205.5 2924,-124.7012 2839.9643,-144.2135 2762,-123 2632.641,-87.8024 2231.8535,-79.5078 2069.4263,-77.5768"/>
<polygon fill="#191970" stroke="#191970" points="2069.117,-74.0731 2059.0776,-77.4586 2069.0369,-81.0726 2069.117,-74.0731"/>
</g>
<!-- Node28&#45;&gt;Node23 -->
<g id="edge60" class="edge">
<title>Node28&#45;&gt;Node23</title>
<path fill="none" stroke="#191970" d="M2898.8117,-668.5011C2868.651,-677.8895 2819.6692,-692.2996 2783.0507,-702.5882"/>
<polygon fill="#191970" stroke="#191970" points="2781.7664,-699.3128 2773.0761,-705.3733 2783.649,-706.055 2781.7664,-699.3128"/>
</g>
<!-- Node28&#45;&gt;Node24 -->
<g id="edge57" class="edge">
<title>Node28&#45;&gt;Node24</title>
<path fill="none" stroke="#191970" d="M2965.5863,-649.4234C2991.2986,-642.0393 3024.7817,-630.1574 3051,-613 3095.3711,-583.9632 3135.3951,-535.1353 3155.1025,-508.9215"/>
<polygon fill="#191970" stroke="#191970" points="3158.0764,-510.786 3161.1998,-500.662 3152.4447,-506.6286 3158.0764,-510.786"/>
</g>
<!-- Node28&#45;&gt;Node25 -->
<g id="edge61" class="edge">
<title>Node28&#45;&gt;Node25</title>
<path fill="none" stroke="#191970" d="M2907.362,-649.2455C2890.5614,-640.4527 2865.6366,-627.4079 2846.5382,-617.4125"/>
<polygon fill="#191970" stroke="#191970" points="2847.9073,-614.1787 2837.4244,-612.6427 2844.6614,-620.3807 2847.9073,-614.1787"/>
</g>
<!-- Node29 -->
<g id="node29" class="node">
<title>Node29</title>
<g id="a_node29"><a xlink:href="_stack_8h.html" target="_top" xlink:title="sbml/util/Stack.h">
<polygon fill="#ffffff" stroke="#000000" points="2952.5,-593.5 2952.5,-612.5 3041.5,-612.5 3041.5,-593.5 2952.5,-593.5"/>
<text text-anchor="middle" x="2997" y="-600.5" font-family="Helvetica,sans-Serif" font-size="10.00" fill="#000000">sbml/util/Stack.h</text>
</a>
</g>
</g>
<!-- Node28&#45;&gt;Node29 -->
<g id="edge59" class="edge">
<title>Node28&#45;&gt;Node29</title>
<path fill="none" stroke="#191970" d="M2938.3673,-649.2455C2948.9554,-640.8943 2964.4064,-628.7076 2976.7893,-618.9408"/>
<polygon fill="#191970" stroke="#191970" points="2979.0903,-621.5837 2984.7745,-612.6427 2974.7553,-616.0875 2979.0903,-621.5837"/>
</g>
<!-- Node30&#45;&gt;Node9 -->
<g id="edge64" class="edge">
<title>Node30&#45;&gt;Node9</title>
<path fill="none" stroke="#191970" d="M1573.3131,-649.4433C1746.5113,-610.266 2394.1789,-463.1647 2435,-445 2474.9858,-427.207 2487.7958,-422.4661 2516,-389 2533.6837,-368.0172 2531.5967,-358.3921 2542,-333 2577.4424,-246.4934 2608.6691,-173.5047 2530,-123 2492.1258,-98.6852 2204.6596,-84.7291 2069.6445,-79.4537"/>
<polygon fill="#191970" stroke="#191970" points="2069.5372,-75.9471 2059.4097,-79.0591 2069.2674,-82.9419 2069.5372,-75.9471"/>
</g>
<!-- Node30&#45;&gt;Node19 -->
<g id="edge116" class="edge">
<title>Node30&#45;&gt;Node19</title>
<path fill="none" stroke="#191970" d="M1472.157,-651.5599C1375.5588,-638.4103 1178.0051,-607.5724 1017,-557 699.9127,-457.4015 641.7807,-377.4165 332,-257 294.8892,-242.5745 251.844,-228.1111 221.2303,-218.2009"/>
<polygon fill="#191970" stroke="#191970" points="221.9428,-214.7534 211.3514,-215.0212 219.7981,-221.4168 221.9428,-214.7534"/>
</g>
<!-- Node31 -->
<g id="node31" class="node">
<title>Node31</title>
<g id="a_node31"><a xlink:href="_s_base_8h.html" target="_top" xlink:title="Definition of SBase_t, the base object of all SBML objects. ">
<polygon fill="#ffffff" stroke="#000000" points="1492,-593.5 1492,-612.5 1570,-612.5 1570,-593.5 1492,-593.5"/>
<text text-anchor="middle" x="1531" y="-600.5" font-family="Helvetica,sans-Serif" font-size="10.00" fill="#000000">sbml/SBase.h</text>
</a>
</g>
</g>
<!-- Node30&#45;&gt;Node31 -->
<g id="edge65" class="edge">
<title>Node30&#45;&gt;Node31</title>
<path fill="none" stroke="#191970" d="M1525.7332,-649.2455C1524.3221,-641.9382 1523.9179,-631.6944 1524.5205,-622.7046"/>
<polygon fill="#191970" stroke="#191970" points="1528.0111,-622.9945 1525.7549,-612.6427 1521.0632,-622.1421 1528.0111,-622.9945"/>
</g>
<!-- Node31&#45;&gt;Node2 -->
<g id="edge110" class="edge">
<title>Node31&#45;&gt;Node2</title>
<path fill="none" stroke="#191970" d="M1534.1925,-593.2446C1541.7184,-571.3232 1562.2804,-517.2521 1593,-481 1649.7026,-414.0855 1740.7889,-361.4255 1787.0392,-337.3231"/>
<polygon fill="#191970" stroke="#191970" points="1788.9031,-340.3005 1796.1995,-332.6185 1785.705,-334.0737 1788.9031,-340.3005"/>
</g>
<!-- Node31&#45;&gt;Node7 -->
<g id="edge67" class="edge">
<title>Node31&#45;&gt;Node7</title>
<path fill="none" stroke="#191970" d="M1538.7761,-593.1692C1546.1022,-583.8825 1557.3621,-569.5452 1567,-557 1649.7465,-449.2929 1645.4741,-398.5107 1751,-313 1780.351,-289.216 1807.718,-308.8717 1828,-277 1862.1648,-223.3125 1772.8298,-174.725 1721.0016,-152.0242"/>
<polygon fill="#191970" stroke="#191970" points="1722.3697,-148.8027 1711.7988,-148.0913 1719.6189,-155.2395 1722.3697,-148.8027"/>
</g>
<!-- Node31&#45;&gt;Node9 -->
<g id="edge66" class="edge">
<title>Node31&#45;&gt;Node9</title>
<path fill="none" stroke="#191970" d="M1570.1522,-599.7547C1648.2925,-592.958 1820.9015,-576.2528 1877,-557 1940.3026,-535.2747 1943.5157,-502.1887 2007,-481 2215.9422,-411.263 2323.6445,-528.6392 2494,-389 2516.0012,-370.9658 2513.705,-359.1095 2525,-333 2562.3621,-246.6334 2578.9175,-171.0362 2498,-123 2462.017,-101.6389 2197.824,-86.364 2069.5305,-80.1223"/>
<polygon fill="#191970" stroke="#191970" points="2069.5705,-76.6203 2059.4137,-79.6352 2069.2337,-83.6122 2069.5705,-76.6203"/>
</g>
<!-- Node31&#45;&gt;Node11 -->
<g id="edge103" class="edge">
<title>Node31&#45;&gt;Node11</title>
<path fill="none" stroke="#191970" d="M1491.8816,-598.5028C1434.1783,-589.4503 1333,-563.2729 1333,-491 1333,-491 1333,-491 1333,-435 1333,-402.2688 1325.0148,-364.9052 1319.3978,-342.6716"/>
<polygon fill="#191970" stroke="#191970" points="1322.7289,-341.5763 1316.8035,-332.7934 1315.9585,-343.3545 1322.7289,-341.5763"/>
</g>
<!-- Node31&#45;&gt;Node30 -->
<g id="edge104" class="edge">
<title>Node31&#45;&gt;Node30</title>
<path fill="none" stroke="#191970" d="M1536.2451,-612.6427C1537.6665,-619.9199 1538.081,-630.155 1537.4887,-639.1575"/>
<polygon fill="#191970" stroke="#191970" points="1533.9947,-638.8972 1536.2668,-649.2455 1540.9439,-639.739 1533.9947,-638.8972"/>
</g>
<!-- Node32 -->
<g id="node32" class="node">
<title>Node32</title>
<g id="a_node32"><a xlink:href="_s_b_m_l_type_codes_8h.html" target="_top" xlink:title="Enumeration to identify SBML objects at runtime. ">
<polygon fill="#ffffff" stroke="#000000" points="778.5,-257.5 778.5,-276.5 905.5,-276.5 905.5,-257.5 778.5,-257.5"/>
<text text-anchor="middle" x="842" y="-264.5" font-family="Helvetica,sans-Serif" font-size="10.00" fill="#000000">sbml/SBMLTypeCodes.h</text>
</a>
</g>
</g>
<!-- Node31&#45;&gt;Node32 -->
<g id="edge68" class="edge">
<title>Node31&#45;&gt;Node32</title>
<path fill="none" stroke="#191970" d="M1491.8487,-601.2511C1383.3957,-596.1327 1084.5841,-580.075 1047,-557 962.7278,-505.2606 982.7145,-451.3716 928,-369 911.2185,-343.7358 908.5909,-336.1538 889,-313 880.2158,-302.6183 869.4313,-291.9393 860.4094,-283.487"/>
<polygon fill="#191970" stroke="#191970" points="862.7579,-280.8918 853.0293,-276.6959 858.0179,-286.0428 862.7579,-280.8918"/>
</g>
<!-- Node33 -->
<g id="node33" class="node">
<title>Node33</title>
<g id="a_node33"><a xlink:href="_r_d_f_annotation_8h.html" target="_top" xlink:title="RDFAnnotation I/O. ">
<polygon fill="#ffffff" stroke="#000000" points="1673.5,-537.5 1673.5,-556.5 1840.5,-556.5 1840.5,-537.5 1673.5,-537.5"/>
<text text-anchor="middle" x="1757" y="-544.5" font-family="Helvetica,sans-Serif" font-size="10.00" fill="#000000">sbml/annotation/RDFAnnotation.h</text>
</a>
</g>
</g>
<!-- Node31&#45;&gt;Node33 -->
<g id="edge71" class="edge">
<title>Node31&#45;&gt;Node33</title>
<path fill="none" stroke="#191970" d="M1569.594,-593.4369C1608.0284,-583.9133 1667.136,-569.2672 1708.671,-558.9753"/>
<polygon fill="#191970" stroke="#191970" points="1709.7006,-562.3261 1718.5652,-556.5237 1708.0169,-555.5316 1709.7006,-562.3261"/>
</g>
<!-- Node36 -->
<g id="node36" class="node">
<title>Node36</title>
<g id="a_node36"><a xlink:href="_list_8h.html" target="_top" xlink:title="Simple, generic list utility class. ">
<polygon fill="#ffffff" stroke="#000000" points="2188,-313.5 2188,-332.5 2268,-332.5 2268,-313.5 2188,-313.5"/>
<text text-anchor="middle" x="2228" y="-320.5" font-family="Helvetica,sans-Serif" font-size="10.00" fill="#000000">sbml/util/List.h</text>
</a>
</g>
</g>
<!-- Node31&#45;&gt;Node36 -->
<g id="edge102" class="edge">
<title>Node31&#45;&gt;Node36</title>
<path fill="none" stroke="#191970" d="M1570.1852,-600.2504C1643.9442,-594.6004 1800.3618,-580.2285 1849,-557 1893.8393,-535.5857 1885.9836,-502.0395 1931,-481 1988.2328,-454.2509 2168.432,-489.7751 2213,-445 2239.7409,-418.1349 2236.5949,-369.8166 2232.1623,-342.7491"/>
<polygon fill="#191970" stroke="#191970" points="2235.5391,-341.7643 2230.2671,-332.5743 2228.6575,-343.0461 2235.5391,-341.7643"/>
</g>
<!-- Node40 -->
<g id="node40" class="node">
<title>Node40</title>
<g id="a_node40"><a xlink:href="_c_v_term_8h.html" target="_top" xlink:title="Definition of a CVTerm_t class for adding annotations to a Model_t. ">
<polygon fill="#ffffff" stroke="#000000" points="1684.5,-257.5 1684.5,-276.5 1819.5,-276.5 1819.5,-257.5 1684.5,-257.5"/>
<text text-anchor="middle" x="1752" y="-264.5" font-family="Helvetica,sans-Serif" font-size="10.00" fill="#000000">sbml/annotation/CVTerm.h</text>
</a>
</g>
</g>
<!-- Node31&#45;&gt;Node40 -->
<g id="edge97" class="edge">
<title>Node31&#45;&gt;Node40</title>
<path fill="none" stroke="#191970" d="M1531,-593.4116C1531,-574.0538 1531,-528.9167 1531,-491 1531,-491 1531,-491 1531,-435 1531,-348.1291 1640.5592,-300.3033 1705.3985,-279.6057"/>
<polygon fill="#191970" stroke="#191970" points="1706.4915,-282.9312 1715.0096,-276.631 1704.4218,-276.2442 1706.4915,-282.9312"/>
</g>
<!-- Node41 -->
<g id="node41" class="node">
<title>Node41</title>
<g id="a_node41"><a xlink:href="_s_b_m_l_constructor_exception_8h.html" target="_top" xlink:title="Definition of SBMLConstructorException_t, the exception class for constructor exceptions. ">
<polygon fill="#ffffff" stroke="#000000" points="1133,-369.5 1133,-388.5 1305,-388.5 1305,-369.5 1133,-369.5"/>
<text text-anchor="middle" x="1219" y="-376.5" font-family="Helvetica,sans-Serif" font-size="10.00" fill="#000000">sbml/SBMLConstructorException.h</text>
</a>
</g>
</g>
<!-- Node31&#45;&gt;Node41 -->
<g id="edge105" class="edge">
<title>Node31&#45;&gt;Node41</title>
<path fill="none" stroke="#191970" d="M1491.9089,-598.3968C1438.4389,-591.4579 1346.0351,-576.974 1319,-557 1263.9691,-516.3423 1235.0721,-435.7953 1224.1858,-398.6306"/>
<polygon fill="#191970" stroke="#191970" points="1227.4397,-397.2701 1221.3766,-388.5816 1220.6982,-399.1547 1227.4397,-397.2701"/>
</g>
<!-- Node42 -->
<g id="node42" class="node">
<title>Node42</title>
<g id="a_node42"><a xlink:href="_expected_attributes_8h.html" target="_top" xlink:title="Definition of ExpectedAttributes, the class allowing the specification of attributes to expect...">
<polygon fill="#ffffff" stroke="#000000" points="1056.5,-537.5 1056.5,-556.5 1189.5,-556.5 1189.5,-537.5 1056.5,-537.5"/>
<text text-anchor="middle" x="1123" y="-544.5" font-family="Helvetica,sans-Serif" font-size="10.00" fill="#000000">sbml/ExpectedAttributes.h</text>
</a>
</g>
</g>
<!-- Node31&#45;&gt;Node42 -->
<g id="edge108" class="edge">
<title>Node31&#45;&gt;Node42</title>
<path fill="none" stroke="#191970" d="M1491.8792,-597.6305C1424.8259,-588.4271 1286.7878,-569.4807 1199.8948,-557.5542"/>
<polygon fill="#191970" stroke="#191970" points="1200.2047,-554.064 1189.8216,-556.1716 1199.2527,-560.999 1200.2047,-554.064"/>
</g>
<!-- Node43 -->
<g id="node43" class="node">
<title>Node43</title>
<g id="a_node43"><a xlink:href="_x_m_l_error_8h.html" target="_top" xlink:title="Represents errors (and messages) encountered during an XML parse. ">
<polygon fill="#ffffff" stroke="#000000" points="180,-257.5 180,-276.5 290,-276.5 290,-257.5 180,-257.5"/>
<text text-anchor="middle" x="235" y="-264.5" font-family="Helvetica,sans-Serif" font-size="10.00" fill="#000000">sbml/xml/XMLError.h</text>
</a>
</g>
</g>
<!-- Node31&#45;&gt;Node43 -->
<g id="edge111" class="edge">
<title>Node31&#45;&gt;Node43</title>
<path fill="none" stroke="#191970" d="M1491.6567,-600.8352C1387.6905,-594.8984 1107.449,-577.4342 1017,-557 711.845,-488.0596 364.7687,-328.9249 263.887,-280.9427"/>
<polygon fill="#191970" stroke="#191970" points="265.1709,-277.6772 254.6387,-276.5265 262.1545,-283.994 265.1709,-277.6772"/>
</g>
<!-- Node32&#45;&gt;Node9 -->
<g id="edge70" class="edge">
<title>Node32&#45;&gt;Node9</title>
<path fill="none" stroke="#191970" d="M855.3997,-257.2566C868.0224,-248.0316 887.418,-233.7361 904,-221 921.5602,-207.5126 924.2952,-201.8492 943,-190 999.9212,-153.9413 1013.7776,-139.9201 1079,-123 1160.5373,-101.8475 1730.5098,-84.3839 1930.6906,-78.8406"/>
<polygon fill="#191970" stroke="#191970" points="1930.8925,-82.3365 1940.7923,-78.5623 1930.6997,-75.3391 1930.8925,-82.3365"/>
</g>
<!-- Node32&#45;&gt;Node14 -->
<g id="edge69" class="edge">
<title>Node32&#45;&gt;Node14</title>
<path fill="none" stroke="#191970" d="M841.5313,-257.3906C841.1816,-250.2234 840.6871,-240.0862 840.2279,-230.671"/>
<polygon fill="#191970" stroke="#191970" points="843.717,-230.3622 839.7339,-220.5446 836.7254,-230.7033 843.717,-230.3622"/>
</g>
<!-- Node34 -->
<g id="node34" class="node">
<title>Node34</title>
<g id="a_node34"><a xlink:href="_r_d_f_annotation_parser_8h.html" target="_top" xlink:title="RDFAnnotationParser.h">
<polygon fill="#ffffff" stroke="#000000" points="1755.5,-481.5 1755.5,-500.5 1878.5,-500.5 1878.5,-481.5 1755.5,-481.5"/>
<text text-anchor="middle" x="1817" y="-488.5" font-family="Helvetica,sans-Serif" font-size="10.00" fill="#000000">RDFAnnotationParser.h</text>
</a>
</g>
</g>
<!-- Node33&#45;&gt;Node34 -->
<g id="edge72" class="edge">
<title>Node33&#45;&gt;Node34</title>
<path fill="none" stroke="#191970" d="M1767.4512,-537.2455C1776.2269,-529.0549 1788.9554,-517.1749 1799.314,-507.5069"/>
<polygon fill="#191970" stroke="#191970" points="1801.7461,-510.0246 1806.6686,-500.6427 1796.9699,-504.9072 1801.7461,-510.0246"/>
</g>
<!-- Node34&#45;&gt;Node6 -->
<g id="edge75" class="edge">
<title>Node34&#45;&gt;Node6</title>
<path fill="none" stroke="#191970" d="M1808.932,-481.3225C1784.8667,-452.0929 1712.5029,-361.5222 1668,-277 1659.0461,-259.9942 1651.581,-239.3431 1646.7863,-224.6157"/>
<polygon fill="#191970" stroke="#191970" points="1650.1245,-223.5636 1643.7839,-215.0756 1643.4474,-225.665 1650.1245,-223.5636"/>
</g>
<!-- Node34&#45;&gt;Node7 -->
<g id="edge74" class="edge">
<title>Node34&#45;&gt;Node7</title>
<path fill="none" stroke="#191970" d="M1816.1176,-481.3545C1814.5979,-459.6583 1813.4783,-406.0182 1835,-369 1848.0483,-346.5564 1869.629,-356.3383 1881,-333 1891.7671,-310.9011 1865.6466,-265.1327 1862,-257 1847.9936,-225.7627 1850.0235,-212.2425 1824,-190 1801.7341,-170.9692 1771.7424,-158.635 1745.4972,-150.8252"/>
<polygon fill="#191970" stroke="#191970" points="1746.2202,-147.3927 1735.6458,-148.0491 1744.3215,-154.1303 1746.2202,-147.3927"/>
</g>
<!-- Node34&#45;&gt;Node9 -->
<g id="edge73" class="edge">
<title>Node34&#45;&gt;Node9</title>
<path fill="none" stroke="#191970" d="M1878.6585,-485.7425C1956.7758,-478.6452 2095.4029,-464.5929 2213,-445 2328.3129,-425.7876 2373.1594,-454.4833 2470,-389 2494.9163,-372.1517 2495.9513,-360.5594 2508,-333 2546.128,-245.7887 2547.1794,-172.6937 2466,-123 2432.9873,-102.7914 2191.186,-87.1922 2069.5202,-80.5285"/>
<polygon fill="#191970" stroke="#191970" points="2069.3713,-77.0154 2059.1964,-79.9688 2068.9922,-84.0051 2069.3713,-77.0154"/>
</g>
<!-- Node35 -->
<g id="node35" class="node">
<title>Node35</title>
<g id="a_node35"><a xlink:href="_model_history_8h.html" target="_top" xlink:title="ModelHistory_t I/O. ">
<polygon fill="#ffffff" stroke="#000000" points="2046.5,-425.5 2046.5,-444.5 2203.5,-444.5 2203.5,-425.5 2046.5,-425.5"/>
<text text-anchor="middle" x="2125" y="-432.5" font-family="Helvetica,sans-Serif" font-size="10.00" fill="#000000">sbml/annotation/ModelHistory.h</text>
</a>
</g>
</g>
<!-- Node34&#45;&gt;Node35 -->
<g id="edge76" class="edge">
<title>Node34&#45;&gt;Node35</title>
<path fill="none" stroke="#191970" d="M1869.5971,-481.4369C1923.0841,-471.712 2005.9492,-456.6456 2062.6933,-446.3285"/>
<polygon fill="#191970" stroke="#191970" points="2063.4072,-449.7562 2072.6198,-444.5237 2062.155,-442.8691 2063.4072,-449.7562"/>
</g>
<!-- Node35&#45;&gt;Node2 -->
<g id="edge84" class="edge">
<title>Node35&#45;&gt;Node2</title>
<path fill="none" stroke="#191970" d="M2098.6548,-425.4509C2043.2406,-405.3655 1914.572,-358.7284 1851.7708,-335.9655"/>
<polygon fill="#191970" stroke="#191970" points="1852.8727,-332.6421 1842.2785,-332.5249 1850.4873,-339.2231 1852.8727,-332.6421"/>
</g>
<!-- Node35&#45;&gt;Node7 -->
<g id="edge78" class="edge">
<title>Node35&#45;&gt;Node7</title>
<path fill="none" stroke="#191970" d="M2097.1033,-425.426C2078.4908,-417.8951 2054.4986,-405.8439 2038,-389 1968.7368,-318.2869 2016.5736,-250.199 1938,-190 1910.6404,-169.0385 1824.4359,-154.5838 1760.6501,-146.4389"/>
<polygon fill="#191970" stroke="#191970" points="1760.9746,-142.9523 1750.6179,-145.1858 1760.1069,-149.8983 1760.9746,-142.9523"/>
</g>
<!-- Node35&#45;&gt;Node8 -->
<g id="edge79" class="edge">
<title>Node35&#45;&gt;Node8</title>
<path fill="none" stroke="#191970" d="M2203.6484,-428.3844C2288.7789,-420.4098 2414.4248,-405.9466 2429,-389 2512.0421,-292.447 2304.5983,-196.5936 2203.5311,-157.2032"/>
<polygon fill="#191970" stroke="#191970" points="2204.6856,-153.8973 2194.0958,-153.5693 2202.1698,-160.4296 2204.6856,-153.8973"/>
</g>
<!-- Node35&#45;&gt;Node9 -->
<g id="edge77" class="edge">
<title>Node35&#45;&gt;Node9</title>
<path fill="none" stroke="#191970" d="M2203.6043,-428.6101C2293.5248,-420.562 2430.6551,-405.7441 2448,-389 2533.1159,-306.8323 2524.0488,-204.1902 2438,-123 2411.7506,-98.2328 2185.9841,-84.9774 2069.2684,-79.725"/>
<polygon fill="#191970" stroke="#191970" points="2069.1519,-76.2165 2059.007,-79.2712 2068.8426,-83.2097 2069.1519,-76.2165"/>
</g>
<!-- Node35&#45;&gt;Node36 -->
<g id="edge80" class="edge">
<title>Node35&#45;&gt;Node36</title>
<path fill="none" stroke="#191970" d="M2136.5792,-425.2307C2147.0202,-416.2197 2162.5941,-402.2685 2175,-389 2189.4902,-373.5022 2204.4935,-354.4931 2214.8224,-340.8624"/>
<polygon fill="#191970" stroke="#191970" points="2217.6882,-342.8745 2220.8826,-332.7727 2212.0859,-338.6776 2217.6882,-342.8745"/>
</g>
<!-- Node38 -->
<g id="node38" class="node">
<title>Node38</title>
<g id="a_node38"><a xlink:href="_date_8h.html" target="_top" xlink:title="Date_t I/O. ">
<polygon fill="#ffffff" stroke="#000000" points="2046.5,-369.5 2046.5,-388.5 2165.5,-388.5 2165.5,-369.5 2046.5,-369.5"/>
<text text-anchor="middle" x="2106" y="-376.5" font-family="Helvetica,sans-Serif" font-size="10.00" fill="#000000">sbml/annotation/Date.h</text>
</a>
</g>
</g>
<!-- Node35&#45;&gt;Node38 -->
<g id="edge85" class="edge">
<title>Node35&#45;&gt;Node38</title>
<path fill="none" stroke="#191970" d="M2121.6905,-425.2455C2119.1567,-417.7776 2115.5823,-407.2427 2112.485,-398.1137"/>
<polygon fill="#191970" stroke="#191970" points="2115.7991,-396.9879 2109.2716,-388.6427 2109.1702,-399.237 2115.7991,-396.9879"/>
</g>
<!-- Node39 -->
<g id="node39" class="node">
<title>Node39</title>
<g id="a_node39"><a xlink:href="_model_creator_8h.html" target="_top" xlink:title="ModelCreator_t I/O. ">
<polygon fill="#ffffff" stroke="#000000" points="2260.5,-369.5 2260.5,-388.5 2419.5,-388.5 2419.5,-369.5 2260.5,-369.5"/>
<text text-anchor="middle" x="2340" y="-376.5" font-family="Helvetica,sans-Serif" font-size="10.00" fill="#000000">sbml/annotation/ModelCreator.h</text>
</a>
</g>
</g>
<!-- Node35&#45;&gt;Node39 -->
<g id="edge91" class="edge">
<title>Node35&#45;&gt;Node39</title>
<path fill="none" stroke="#191970" d="M2161.9598,-425.3733C2198.4075,-415.8799 2254.2246,-401.3415 2293.6289,-391.0781"/>
<polygon fill="#191970" stroke="#191970" points="2294.7276,-394.4087 2303.5225,-388.5011 2292.9631,-387.6348 2294.7276,-394.4087"/>
</g>
<!-- Node36&#45;&gt;Node7 -->
<g id="edge83" class="edge">
<title>Node36&#45;&gt;Node7</title>
<path fill="none" stroke="#191970" d="M2216.3638,-313.3568C2185.5607,-288.3932 2098.4569,-221.4184 2014,-190 1930.6164,-158.9809 1828.5054,-146.6447 1760.8062,-141.7388"/>
<polygon fill="#191970" stroke="#191970" points="1760.8762,-138.2354 1750.6594,-141.0405 1760.3955,-145.2189 1760.8762,-138.2354"/>
</g>
<!-- Node36&#45;&gt;Node9 -->
<g id="edge81" class="edge">
<title>Node36&#45;&gt;Node9</title>
<path fill="none" stroke="#191970" d="M2261.4118,-313.429C2301.1859,-300.0346 2365.768,-271.4832 2394,-221 2415.2593,-182.9851 2422.9577,-155.5352 2394,-123 2372.8203,-99.2037 2176.4281,-85.7755 2069.1675,-80.1591"/>
<polygon fill="#191970" stroke="#191970" points="2069.2412,-76.6584 2059.0745,-79.6399 2068.8815,-83.6491 2069.2412,-76.6584"/>
</g>
<!-- Node37 -->
<g id="node37" class="node">
<title>Node37</title>
<polygon fill="#ffffff" stroke="#bfbfbf" points="2218.5,-257.5 2218.5,-276.5 2267.5,-276.5 2267.5,-257.5 2218.5,-257.5"/>
<text text-anchor="middle" x="2243" y="-264.5" font-family="Helvetica,sans-Serif" font-size="10.00" fill="#000000">string.h</text>
</g>
<!-- Node36&#45;&gt;Node37 -->
<g id="edge82" class="edge">
<title>Node36&#45;&gt;Node37</title>
<path fill="none" stroke="#191970" d="M2230.6128,-313.2455C2232.5916,-305.8579 2235.3744,-295.4689 2237.8012,-286.4087"/>
<polygon fill="#191970" stroke="#191970" points="2241.2105,-287.2078 2240.4171,-276.6427 2234.4489,-285.3966 2241.2105,-287.2078"/>
</g>
<!-- Node38&#45;&gt;Node2 -->
<g id="edge90" class="edge">
<title>Node38&#45;&gt;Node2</title>
<path fill="none" stroke="#191970" d="M2056.4767,-369.4369C2006.3241,-359.7522 1928.739,-344.7703 1875.3303,-334.4569"/>
<polygon fill="#191970" stroke="#191970" points="1875.8013,-330.9832 1865.319,-332.5237 1874.474,-337.8563 1875.8013,-330.9832"/>
</g>
<!-- Node38&#45;&gt;Node7 -->
<g id="edge87" class="edge">
<title>Node38&#45;&gt;Node7</title>
<path fill="none" stroke="#191970" d="M2102.436,-369.1347C2090.3514,-337.2168 2047.6449,-236.1567 1976,-190 1941.2195,-167.5929 1834.3066,-152.8925 1760.7491,-145.1364"/>
<polygon fill="#191970" stroke="#191970" points="1760.9089,-141.6344 1750.6021,-144.088 1760.1894,-148.5973 1760.9089,-141.6344"/>
</g>
<!-- Node38&#45;&gt;Node8 -->
<g id="edge88" class="edge">
<title>Node38&#45;&gt;Node8</title>
<path fill="none" stroke="#191970" d="M2107.1828,-369.3593C2110.0702,-348.1181 2118.7026,-296.0692 2138,-257 2146.9766,-238.8262 2159.4217,-240.1726 2166,-221 2172.4423,-202.2237 2168.0189,-179.9877 2162.4937,-163.3343"/>
<polygon fill="#191970" stroke="#191970" points="2165.7176,-161.9592 2158.9983,-153.7676 2159.1427,-164.3614 2165.7176,-161.9592"/>
</g>
<!-- Node38&#45;&gt;Node9 -->
<g id="edge86" class="edge">
<title>Node38&#45;&gt;Node9</title>
<path fill="none" stroke="#191970" d="M2113.7838,-369.4787C2146.987,-328.3407 2273.4876,-166.0034 2238,-123 2216.9083,-97.4414 2131.6998,-85.9206 2069.2415,-80.8386"/>
<polygon fill="#191970" stroke="#191970" points="2069.2772,-77.331 2059.0368,-80.0484 2068.7367,-84.3101 2069.2772,-77.331"/>
</g>
<!-- Node38&#45;&gt;Node36 -->
<g id="edge89" class="edge">
<title>Node38&#45;&gt;Node36</title>
<path fill="none" stroke="#191970" d="M2126.9725,-369.3733C2146.5567,-360.3838 2175.9961,-346.8706 2198.051,-336.7471"/>
<polygon fill="#191970" stroke="#191970" points="2199.6729,-339.8538 2207.3011,-332.5011 2196.7527,-333.4919 2199.6729,-339.8538"/>
</g>
<!-- Node39&#45;&gt;Node2 -->
<g id="edge96" class="edge">
<title>Node39&#45;&gt;Node2</title>
<path fill="none" stroke="#191970" d="M2260.4157,-370.4948C2157.1026,-359.4537 1978.6642,-340.384 1882.3137,-330.087"/>
<polygon fill="#191970" stroke="#191970" points="1882.4313,-326.5797 1872.116,-328.9971 1881.6874,-333.5401 1882.4313,-326.5797"/>
</g>
<!-- Node39&#45;&gt;Node7 -->
<g id="edge93" class="edge">
<title>Node39&#45;&gt;Node7</title>
<path fill="none" stroke="#191970" d="M2337.7917,-369.4679C2331.989,-346.5625 2314.1312,-288.0315 2277,-257 2199.3285,-192.0879 1901.1995,-157.5496 1760.8599,-144.5945"/>
<polygon fill="#191970" stroke="#191970" points="1760.9025,-141.084 1750.6262,-143.6624 1760.2675,-148.0552 1760.9025,-141.084"/>
</g>
<!-- Node39&#45;&gt;Node8 -->
<g id="edge94" class="edge">
<title>Node39&#45;&gt;Node8</title>
<path fill="none" stroke="#191970" d="M2339.7753,-369.2641C2338.8367,-347.3827 2334.0598,-293.3882 2310,-257 2280.5369,-212.4398 2228.4165,-178.2276 2192.1287,-158.272"/>
<polygon fill="#191970" stroke="#191970" points="2193.7327,-155.1607 2183.2676,-153.5081 2190.418,-161.3261 2193.7327,-155.1607"/>
</g>
<!-- Node39&#45;&gt;Node9 -->
<g id="edge92" class="edge">
<title>Node39&#45;&gt;Node9</title>
<path fill="none" stroke="#191970" d="M2348.3346,-369.4949C2379.4857,-332.8216 2483.8885,-198.8092 2416,-123 2393.3485,-97.7057 2182.0054,-84.8255 2069.5872,-79.7157"/>
<polygon fill="#191970" stroke="#191970" points="2069.5025,-76.2085 2059.3566,-79.2597 2069.1908,-83.2016 2069.5025,-76.2085"/>
</g>
<!-- Node39&#45;&gt;Node36 -->
<g id="edge95" class="edge">
<title>Node39&#45;&gt;Node36</title>
<path fill="none" stroke="#191970" d="M2320.7465,-369.3733C2302.9288,-360.4644 2276.2253,-347.1127 2256.0406,-337.0203"/>
<polygon fill="#191970" stroke="#191970" points="2257.5118,-333.8428 2247.0022,-332.5011 2254.3813,-340.1038 2257.5118,-333.8428"/>
</g>
<!-- Node40&#45;&gt;Node6 -->
<g id="edge101" class="edge">
<title>Node40&#45;&gt;Node6</title>
<path fill="none" stroke="#191970" d="M1734.6563,-257.3906C1716.5727,-247.3713 1688.0141,-231.5483 1667.1835,-220.0071"/>
<polygon fill="#191970" stroke="#191970" points="1668.6654,-216.8268 1658.222,-215.0419 1665.2729,-222.9498 1668.6654,-216.8268"/>
</g>
<!-- Node40&#45;&gt;Node7 -->
<g id="edge99" class="edge">
<title>Node40&#45;&gt;Node7</title>
<path fill="none" stroke="#191970" d="M1753.8276,-257.389C1756.2267,-242.188 1758.9517,-212.0617 1748,-190 1740.4893,-174.87 1726.3044,-162.4737 1713.5025,-153.6374"/>
<polygon fill="#191970" stroke="#191970" points="1715.2545,-150.602 1704.9596,-148.0988 1711.4465,-156.4756 1715.2545,-150.602"/>
</g>
<!-- Node40&#45;&gt;Node8 -->
<g id="edge100" class="edge">
<title>Node40&#45;&gt;Node8</title>
<path fill="none" stroke="#191970" d="M1781.7382,-257.4466C1848.1609,-236.1083 2009.4923,-184.2806 2095.6213,-156.6116"/>
<polygon fill="#191970" stroke="#191970" points="2096.7843,-159.9143 2105.2346,-153.5234 2094.6433,-153.2497 2096.7843,-159.9143"/>
</g>
<!-- Node40&#45;&gt;Node9 -->
<g id="edge98" class="edge">
<title>Node40&#45;&gt;Node9</title>
<path fill="none" stroke="#191970" d="M1764.6393,-257.3167C1804.7721,-226.5698 1929.5882,-130.9445 1979.2821,-92.8726"/>
<polygon fill="#191970" stroke="#191970" points="1981.5766,-95.5239 1987.3861,-86.6638 1977.3194,-89.9672 1981.5766,-95.5239"/>
</g>
<!-- Node41&#45;&gt;Node9 -->
<g id="edge106" class="edge">
<title>Node41&#45;&gt;Node9</title>
<path fill="none" stroke="#191970" d="M1220.714,-369.2195C1223.2751,-355.9865 1228.8089,-331.8659 1238,-313 1267.5526,-252.3392 1270.8142,-227.3663 1327,-190 1425.4849,-124.5027 1779.7278,-92.4351 1930.8738,-81.493"/>
<polygon fill="#191970" stroke="#191970" points="1931.2401,-84.9759 1940.9652,-80.7721 1930.7412,-77.9937 1931.2401,-84.9759"/>
</g>
<!-- Node41&#45;&gt;Node11 -->
<g id="edge107" class="edge">
<title>Node41&#45;&gt;Node11</title>
<path fill="none" stroke="#191970" d="M1235.5477,-369.2455C1250.2599,-360.5731 1271.9888,-347.7645 1288.8505,-337.825"/>
<polygon fill="#191970" stroke="#191970" points="1290.8046,-340.736 1297.6419,-332.6427 1287.2498,-334.7057 1290.8046,-340.736"/>
</g>
<!-- Node42&#45;&gt;Node9 -->
<g id="edge109" class="edge">
<title>Node42&#45;&gt;Node9</title>
<path fill="none" stroke="#191970" d="M1120.7233,-537.2914C1114.7442,-509.7462 1100.6078,-429.2029 1124,-369 1162.8612,-268.9855 1201.0455,-255.5425 1286,-190 1337.1514,-150.5366 1352.8886,-140.7764 1415,-123 1510.0988,-95.7825 1797.5369,-83.3882 1930.7923,-78.9899"/>
<polygon fill="#191970" stroke="#191970" points="1931.0058,-82.4849 1940.8869,-78.6623 1930.7786,-75.4886 1931.0058,-82.4849"/>
</g>
<!-- Node43&#45;&gt;Node3 -->
<g id="edge113" class="edge">
<title>Node43&#45;&gt;Node3</title>
<path fill="none" stroke="#191970" d="M248.8299,-257.3416C280.3984,-235.2951 358.0035,-181.0981 396.5388,-154.1862"/>
<polygon fill="#191970" stroke="#191970" points="398.815,-156.8657 405.0096,-148.2705 394.807,-151.1266 398.815,-156.8657"/>
</g>
<!-- Node43&#45;&gt;Node7 -->
<g id="edge114" class="edge">
<title>Node43&#45;&gt;Node7</title>
<path fill="none" stroke="#191970" d="M259.6209,-257.4945C305.233,-240.3872 406.3127,-204.8179 495,-190 711.8069,-153.7758 1388.4238,-142.2177 1613.417,-139.3247"/>
<polygon fill="#191970" stroke="#191970" points="1613.5129,-142.8238 1623.4677,-139.1973 1613.4241,-135.8244 1613.5129,-142.8238"/>
</g>
<!-- Node43&#45;&gt;Node17 -->
<g id="edge112" class="edge">
<title>Node43&#45;&gt;Node17</title>
<path fill="none" stroke="#191970" d="M198.2885,-257.3997C177.0379,-250.2819 151.0163,-238.6962 133,-221 115.2265,-203.5423 104.5727,-176.4023 98.9981,-158.0626"/>
<polygon fill="#191970" stroke="#191970" points="102.2976,-156.866 96.2262,-148.1834 95.5579,-158.7571 102.2976,-156.866"/>
</g>
<!-- Node43&#45;&gt;Node19 -->
<g id="edge115" class="edge">
<title>Node43&#45;&gt;Node19</title>
<path fill="none" stroke="#191970" d="M226.5625,-257.3906C218.4469,-248.1478 205.9945,-233.966 196.1576,-222.7628"/>
<polygon fill="#191970" stroke="#191970" points="198.7846,-220.45 189.5565,-215.2449 193.5245,-225.0686 198.7846,-220.45"/>
</g>
<!-- Node45&#45;&gt;Node9 -->
<g id="edge120" class="edge">
<title>Node45&#45;&gt;Node9</title>
<path fill="none" stroke="#191970" d="M1914.0394,-370.4897C1992.2096,-349.3906 2179.8666,-286.5185 2255,-154 2261.7953,-142.0146 2263.8354,-133.5718 2255,-123 2231.745,-95.1747 2136.6423,-84.1524 2069.4118,-79.8048"/>
<polygon fill="#191970" stroke="#191970" points="2069.4867,-76.303 2059.2919,-79.1867 2069.0599,-83.2899 2069.4867,-76.303"/>
</g>
<!-- Node45&#45;&gt;Node11 -->
<g id="edge121" class="edge">
<title>Node45&#45;&gt;Node11</title>
<path fill="none" stroke="#191970" d="M1843.6567,-375.4969C1753.8941,-366.6001 1515.4786,-342.9696 1391.4345,-330.6749"/>
<polygon fill="#191970" stroke="#191970" points="1391.5464,-327.169 1381.2499,-329.6655 1390.8559,-334.1348 1391.5464,-327.169"/>
</g>
<!-- Node47&#45;&gt;Node7 -->
<g id="edge125" class="edge">
<title>Node47&#45;&gt;Node7</title>
<path fill="none" stroke="#191970" d="M726.6106,-649.341C775.7589,-620.5166 924.1405,-531.7216 1038,-445 1106.1355,-393.1043 1249.2337,-225.8888 1327,-190 1376.4719,-167.1689 1522.8768,-151.7139 1613.02,-144.067"/>
<polygon fill="#191970" stroke="#191970" points="1613.509,-147.5384 1623.1827,-143.2177 1612.926,-140.5627 1613.509,-147.5384"/>
</g>
<!-- Node47&#45;&gt;Node9 -->
<g id="edge124" class="edge">
<title>Node47&#45;&gt;Node9</title>
<path fill="none" stroke="#191970" d="M716.9129,-649.1686C761.9541,-586.0947 1021.5788,-237.2971 1333,-123 1388.012,-102.8096 1771.2789,-85.8491 1930.6927,-79.5864"/>
<polygon fill="#191970" stroke="#191970" points="1931.0076,-83.0769 1940.8634,-79.1894 1930.7345,-76.0822 1931.0076,-83.0769"/>
</g>
<!-- Node47&#45;&gt;Node17 -->
<g id="edge140" class="edge">
<title>Node47&#45;&gt;Node17</title>
<path fill="none" stroke="#191970" d="M648.8814,-656.6608C483.2261,-646.7413 38,-594.7987 38,-323 38,-323 38,-323 38,-267 38,-224.6772 63.8451,-180.5534 80.4194,-156.6083"/>
<polygon fill="#191970" stroke="#191970" points="83.4707,-158.3589 86.4476,-148.1908 77.7796,-154.2832 83.4707,-158.3589"/>
</g>
<!-- Node47&#45;&gt;Node31 -->
<g id="edge138" class="edge">
<title>Node47&#45;&gt;Node31</title>
<path fill="none" stroke="#191970" d="M771.0377,-654.8366C927.295,-644.1784 1339.4529,-616.0653 1481.8104,-606.3552"/>
<polygon fill="#191970" stroke="#191970" points="1482.2442,-609.8338 1491.9828,-605.6613 1481.7678,-602.8501 1482.2442,-609.8338"/>
</g>
<!-- Node47&#45;&gt;Node48 -->
<g id="edge126" class="edge">
<title>Node47&#45;&gt;Node48</title>
<path fill="none" stroke="#191970" d="M661.1738,-649.4285C638.809,-642.7174 613.6387,-631.5085 597,-613 576.5929,-590.2997 578,-577.5246 578,-547 578,-547 578,-547 578,-491 578,-431.738 507.3196,-402.8778 453.8111,-389.5204"/>
<polygon fill="#191970" stroke="#191970" points="454.5785,-386.1053 444.0406,-387.2028 452.9628,-392.9163 454.5785,-386.1053"/>
</g>
<!-- Node49 -->
<g id="node49" class="node">
<title>Node49</title>
<g id="a_node49"><a xlink:href="_s_b_m_l_error_log_8h.html" target="_top" xlink:title="Stores errors (and messages) encountered while processing SBML. ">
<polygon fill="#ffffff" stroke="#000000" points="174.5,-425.5 174.5,-444.5 289.5,-444.5 289.5,-425.5 174.5,-425.5"/>
<text text-anchor="middle" x="232" y="-432.5" font-family="Helvetica,sans-Serif" font-size="10.00" fill="#000000">sbml/SBMLErrorLog.h</text>
</a>
</g>
</g>
<!-- Node47&#45;&gt;Node49 -->
<g id="edge130" class="edge">
<title>Node47&#45;&gt;Node49</title>
<path fill="none" stroke="#191970" d="M673.3238,-649.4993C643.3809,-641.2576 600.2471,-628.2688 564,-613 444.0307,-562.4639 309.908,-482.9033 256.1701,-450.0053"/>
<polygon fill="#191970" stroke="#191970" points="257.7322,-446.8571 247.3804,-444.6007 254.0656,-452.8201 257.7322,-446.8571"/>
</g>
<!-- Node51 -->
<g id="node51" class="node">
<title>Node51</title>
<g id="a_node51"><a xlink:href="_s_b_m_l_transforms_8h.html" target="_top" xlink:title="sbml/SBMLTransforms.h">
<polygon fill="#ffffff" stroke="#000000" points="606.5,-593.5 606.5,-612.5 733.5,-612.5 733.5,-593.5 606.5,-593.5"/>
<text text-anchor="middle" x="670" y="-600.5" font-family="Helvetica,sans-Serif" font-size="10.00" fill="#000000">sbml/SBMLTransforms.h</text>
</a>
</g>
</g>
<!-- Node47&#45;&gt;Node51 -->
<g id="edge139" class="edge">
<title>Node47&#45;&gt;Node51</title>
<path fill="none" stroke="#191970" d="M703.0325,-649.2455C697.4689,-641.4564 689.522,-630.3308 682.8171,-620.9439"/>
<polygon fill="#191970" stroke="#191970" points="685.5481,-618.7457 676.8876,-612.6427 679.852,-622.8144 685.5481,-618.7457"/>
</g>
<!-- Node48&#45;&gt;Node9 -->
<g id="edge127" class="edge">
<title>Node48&#45;&gt;Node9</title>
<path fill="none" stroke="#191970" d="M388.5309,-369.4559C364.0416,-332.0663 281.8319,-194.1245 351,-123 378.9636,-94.2454 1621.3899,-80.5854 1930.7862,-77.626"/>
<polygon fill="#191970" stroke="#191970" points="1930.998,-81.1242 1940.9643,-77.5293 1930.9315,-74.1246 1930.998,-81.1242"/>
</g>
<!-- Node48&#45;&gt;Node11 -->
<g id="edge129" class="edge">
<title>Node48&#45;&gt;Node11</title>
<path fill="none" stroke="#191970" d="M444.0845,-376.009C595.0327,-366.8108 1053.2262,-338.8905 1236.7644,-327.7064"/>
<polygon fill="#191970" stroke="#191970" points="1237.107,-331.1921 1246.8756,-327.0903 1236.6812,-324.2051 1237.107,-331.1921"/>
</g>
<!-- Node48&#45;&gt;Node43 -->
<g id="edge128" class="edge">
<title>Node48&#45;&gt;Node43</title>
<path fill="none" stroke="#191970" d="M381.3585,-369.4509C353.6097,-350.0268 290.3862,-305.7703 256.8421,-282.2895"/>
<polygon fill="#191970" stroke="#191970" points="258.8065,-279.3922 248.607,-276.5249 254.7922,-285.1269 258.8065,-279.3922"/>
</g>
<!-- Node49&#45;&gt;Node9 -->
<g id="edge131" class="edge">
<title>Node49&#45;&gt;Node9</title>
<path fill="none" stroke="#191970" d="M191.3232,-425.4529C124.7866,-407.1461 0,-360.3666 0,-267 0,-267 0,-267 0,-205.5 0,-159.6333 21.2117,-143.9778 62,-123 104.3735,-101.207 1589.2196,-81.964 1930.5422,-77.8221"/>
<polygon fill="#191970" stroke="#191970" points="1930.8227,-81.3191 1940.7796,-77.6983 1930.7379,-74.3196 1930.8227,-81.3191"/>
</g>
<!-- Node49&#45;&gt;Node43 -->
<g id="edge132" class="edge">
<title>Node49&#45;&gt;Node43</title>
<path fill="none" stroke="#191970" d="M232.1699,-425.4862C232.6441,-398.9293 233.9899,-323.5651 234.6399,-287.1655"/>
<polygon fill="#191970" stroke="#191970" points="238.1453,-286.8888 234.8245,-276.8279 231.1464,-286.7638 238.1453,-286.8888"/>
</g>
<!-- Node49&#45;&gt;Node48 -->
<g id="edge137" class="edge">
<title>Node49&#45;&gt;Node48</title>
<path fill="none" stroke="#191970" d="M260.0207,-425.3733C287.0078,-416.1016 328.0017,-402.0178 357.7311,-391.804"/>
<polygon fill="#191970" stroke="#191970" points="359.0248,-395.0605 367.3449,-388.5011 356.7503,-388.4403 359.0248,-395.0605"/>
</g>
<!-- Node50 -->
<g id="node50" class="node">
<title>Node50</title>
<g id="a_node50"><a xlink:href="_x_m_l_error_log_8h.html" target="_top" xlink:title="Stores errors (and messages) encountered while processing XML. ">
<polygon fill="#ffffff" stroke="#000000" points="81.5,-313.5 81.5,-332.5 208.5,-332.5 208.5,-313.5 81.5,-313.5"/>
<text text-anchor="middle" x="145" y="-320.5" font-family="Helvetica,sans-Serif" font-size="10.00" fill="#000000">sbml/xml/XMLErrorLog.h</text>
</a>
</g>
</g>
<!-- Node49&#45;&gt;Node50 -->
<g id="edge133" class="edge">
<title>Node49&#45;&gt;Node50</title>
<path fill="none" stroke="#191970" d="M224.5824,-425.4509C209.9435,-406.6054 177.1472,-364.3849 158.5486,-340.4419"/>
<polygon fill="#191970" stroke="#191970" points="161.2974,-338.2751 152.3988,-332.5249 155.7693,-342.5693 161.2974,-338.2751"/>
</g>
<!-- Node50&#45;&gt;Node3 -->
<g id="edge134" class="edge">
<title>Node50&#45;&gt;Node3</title>
<path fill="none" stroke="#191970" d="M139.9609,-313.2581C128.2964,-289.1973 102.6648,-226.2855 133,-190 160.1198,-157.5606 274.334,-145.5227 349.9661,-141.0772"/>
<polygon fill="#191970" stroke="#191970" points="350.5786,-144.5486 360.369,-140.499 350.1901,-137.5594 350.5786,-144.5486"/>
</g>
<!-- Node50&#45;&gt;Node7 -->
<g id="edge136" class="edge">
<title>Node50&#45;&gt;Node7</title>
<path fill="none" stroke="#191970" d="M208.6935,-321.6069C403.044,-317.1046 980.1739,-301.783 1061,-277 1077.3966,-271.9725 1079.1772,-265.6261 1094,-257 1146.7942,-226.2765 1155.8067,-208.5662 1214,-190 1286.4748,-166.8774 1499.5188,-150.3678 1613.3359,-142.9251"/>
<polygon fill="#191970" stroke="#191970" points="1613.6104,-146.4148 1623.3635,-142.2761 1613.1583,-139.4294 1613.6104,-146.4148"/>
</g>
<!-- Node50&#45;&gt;Node43 -->
<g id="edge135" class="edge">
<title>Node50&#45;&gt;Node43</title>
<path fill="none" stroke="#191970" d="M160.6768,-313.2455C174.4856,-304.6534 194.8193,-292.0014 210.7292,-282.1018"/>
<polygon fill="#191970" stroke="#191970" points="212.8613,-284.8974 219.5028,-276.6427 209.1632,-278.954 212.8613,-284.8974"/>
</g>
<!-- Node52&#45;&gt;Node7 -->
<g id="edge145" class="edge">
<title>Node52&#45;&gt;Node7</title>
<path fill="none" stroke="#191970" d="M880.2156,-318.7995C930.1566,-312.6843 1019.9696,-299.5302 1094,-277 1186.7352,-248.7772 1200.585,-215.8841 1294,-190 1402.5242,-159.9293 1532.9008,-147.2589 1612.841,-142.0307"/>
<polygon fill="#191970" stroke="#191970" points="1613.5373,-145.4938 1623.2969,-141.3706 1613.0962,-138.5077 1613.5373,-145.4938"/>
</g>
<!-- Node52&#45;&gt;Node9 -->
<g id="edge144" class="edge">
<title>Node52&#45;&gt;Node9</title>
<path fill="none" stroke="#191970" d="M803.7653,-313.7888C760.3757,-301.0618 691.6627,-273.4758 661,-221 637.1804,-180.2353 661.2287,-146.8084 702,-123 755.3525,-91.8449 1668.9576,-80.3176 1930.5407,-77.6471"/>
<polygon fill="#191970" stroke="#191970" points="1930.7079,-81.1457 1940.6721,-77.5448 1930.6372,-74.146 1930.7079,-81.1457"/>
</g>
<!-- Node52&#45;&gt;Node14 -->
<g id="edge143" class="edge">
<title>Node52&#45;&gt;Node14</title>
<path fill="none" stroke="#191970" d="M814.3041,-313.4275C797.9537,-306.1781 778.6261,-294.4435 769,-277 758.0084,-257.082 776.5803,-238.8317 797.3454,-225.7551"/>
<polygon fill="#191970" stroke="#191970" points="799.1516,-228.7533 805.9817,-220.6539 795.5915,-222.7262 799.1516,-228.7533"/>
</g>
<!-- Node52&#45;&gt;Node32 -->
<g id="edge146" class="edge">
<title>Node52&#45;&gt;Node32</title>
<path fill="none" stroke="#191970" d="M842,-313.2455C842,-305.9382 842,-295.6944 842,-286.7046"/>
<polygon fill="#191970" stroke="#191970" points="845.5001,-286.6426 842,-276.6427 838.5001,-286.6427 845.5001,-286.6426"/>
</g>
<!-- Node53&#45;&gt;Node7 -->
<g id="edge149" class="edge">
<title>Node53&#45;&gt;Node7</title>
<path fill="none" stroke="#191970" d="M746.962,-195.9367C755.3111,-193.6208 764.4397,-191.4092 773,-190 934.2066,-163.4623 1425.9798,-146.3337 1613.3946,-140.6171"/>
<polygon fill="#191970" stroke="#191970" points="1613.5368,-144.1145 1623.4262,-140.3132 1613.3248,-137.1178 1613.5368,-144.1145"/>
</g>
<!-- Node53&#45;&gt;Node9 -->
<g id="edge148" class="edge">
<title>Node53&#45;&gt;Node9</title>
<path fill="none" stroke="#191970" d="M713.2323,-195.782C707.2573,-178.5428 698.105,-142.5846 717,-123 738.2369,-100.988 1666.8437,-82.8961 1930.7281,-78.1924"/>
<polygon fill="#191970" stroke="#191970" points="1931.0084,-81.6881 1940.9447,-78.0111 1930.8841,-74.6892 1931.0084,-81.6881"/>
</g>
</g>
</svg>
