<?xml version="1.0" encoding="UTF-8" standalone="no"?>
<!DOCTYPE svg PUBLIC "-//W3C//DTD SVG 1.1//EN"
 "http://www.w3.org/Graphics/SVG/1.1/DTD/svg11.dtd">
<!-- Generated by graphviz version 2.40.1 (20161225.0304)
 -->
<!-- Title: Deletion.cpp Pages: 1 -->
<!--zoomable 486 -->
<svg id="main" version="1.1" xmlns="http://www.w3.org/2000/svg" xmlns:xlink="http://www.w3.org/1999/xlink" xml:space="preserve" onload="init(evt)">
<style type="text/css"><![CDATA[
.edge:hover path { stroke: red; }
.edge:hover polygon { stroke: red; fill: red; }
]]></style>
<script type="text/javascript"><![CDATA[
var edges = document.getElementsByTagName('g');
if (edges && edges.length) {
  for (var i=0;i<edges.length;i++) {
    if (edges[i].id.substr(0,4)=='edge') {
      edges[i].setAttribute('class','edge');
    }
  }
}
]]></script>
        <defs>
                <circle id="rim" cx="0" cy="0" r="7"/>
                <circle id="rim2" cx="0" cy="0" r="3.5"/>
                <g id="zoomPlus">
                        <use xlink:href="#rim" fill="#404040">
                                <set attributeName="fill" to="#808080" begin="zoomplus.mouseover" end="zoomplus.mouseout"/>
                        </use>
                        <path d="M-4,0h8M0,-4v8" fill="none" stroke="white" stroke-width="1.5" pointer-events="none"/>
                </g>
                <g id="zoomMin">
                        <use xlink:href="#rim" fill="#404040">
                                <set attributeName="fill" to="#808080" begin="zoomminus.mouseover" end="zoomminus.mouseout"/>
                        </use>
                        <path d="M-4,0h8" fill="none" stroke="white" stroke-width="1.5" pointer-events="none"/>
                </g>
                <g id="dirArrow">
                        <path fill="none" stroke="white" stroke-width="1.5" d="M0,-3.0v7 M-2.5,-0.5L0,-3.0L2.5,-0.5"/>
                </g>
               <g id="resetDef">
                       <use xlink:href="#rim2" fill="#404040">
                               <set attributeName="fill" to="#808080" begin="reset.mouseover" end="reset.mouseout"/>
                       </use>
               </g>
        </defs>

<script type="text/javascript">
var viewWidth = 1354;
var viewHeight = 486;
var sectionId = 'dynsection-0';
</script>
<script xlink:href="svgpan.js"/>
<svg id="graph" class="graph">
<g id="viewport">
<title>Deletion.cpp</title>
<polygon fill="#ffffff" stroke="transparent" points="-4,4 -4,-482 1349.5,-482 1349.5,4 -4,4"/>
<!-- Node1 -->
<g id="node1" class="node">
<title>Node1</title>
<polygon fill="#bfbfbf" stroke="#000000" points="648.5,-458.5 648.5,-477.5 720.5,-477.5 720.5,-458.5 648.5,-458.5"/>
<text text-anchor="middle" x="684.5" y="-465.5" font-family="Helvetica,sans-Serif" font-size="10.00" fill="#000000">Deletion.cpp</text>
</g>
<!-- Node2 -->
<g id="node2" class="node">
<title>Node2</title>
<polygon fill="#ffffff" stroke="#bfbfbf" points="0,-397 0,-416 55,-416 55,-397 0,-397"/>
<text text-anchor="middle" x="27.5" y="-404" font-family="Helvetica,sans-Serif" font-size="10.00" fill="#000000">iostream</text>
</g>
<!-- Node1&#45;&gt;Node2 -->
<g id="edge1" class="edge">
<title>Node1&#45;&gt;Node2</title>
<path fill="none" stroke="#191970" d="M648.1102,-466.6093C533.5077,-462.0206 181.0559,-446.2558 69.5,-422 66.2342,-421.2899 62.8805,-420.3811 59.5606,-419.3602"/>
<polygon fill="#191970" stroke="#191970" points="60.4185,-415.9552 49.8241,-416.0487 58.1645,-422.5824 60.4185,-415.9552"/>
</g>
<!-- Node3 -->
<g id="node3" class="node">
<title>Node3</title>
<g id="a_node3"><a xlink:href="_x_m_l_node_8h.html" target="_top" xlink:title="Class definition of XMLNode_t, a node in an XML document tree. ">
<polygon fill="#ffffff" stroke="#000000" points="152.5,-397 152.5,-416 264.5,-416 264.5,-397 152.5,-397"/>
<text text-anchor="middle" x="208.5" y="-404" font-family="Helvetica,sans-Serif" font-size="10.00" fill="#000000">sbml/xml/XMLNode.h</text>
</a>
</g>
</g>
<!-- Node1&#45;&gt;Node3 -->
<g id="edge2" class="edge">
<title>Node1&#45;&gt;Node3</title>
<path fill="none" stroke="#191970" d="M648.3319,-463.327C568.6259,-453.0289 376.8488,-428.2509 274.8708,-415.0752"/>
<polygon fill="#191970" stroke="#191970" points="275.056,-411.5701 264.6899,-413.7598 274.159,-418.5124 275.056,-411.5701"/>
</g>
<!-- Node6 -->
<g id="node6" class="node">
<title>Node6</title>
<g id="a_node6"><a xlink:href="_x_m_l_token_8h.html" target="_top" xlink:title="A unit of XML syntax, either an XML element or text. ">
<polygon fill="#ffffff" stroke="#000000" points="192,-330 192,-349 307,-349 307,-330 192,-330"/>
<text text-anchor="middle" x="249.5" y="-337" font-family="Helvetica,sans-Serif" font-size="10.00" fill="#000000">sbml/xml/XMLToken.h</text>
</a>
</g>
</g>
<!-- Node1&#45;&gt;Node6 -->
<g id="edge16" class="edge">
<title>Node1&#45;&gt;Node6</title>
<path fill="none" stroke="#191970" d="M648.4529,-465.197C596.0742,-460.3774 496.3534,-448.3729 415.5,-422 362.5404,-404.7255 305.3067,-373.0943 273.7905,-354.4183"/>
<polygon fill="#191970" stroke="#191970" points="275.2448,-351.2094 264.8685,-349.0685 271.645,-357.2128 275.2448,-351.2094"/>
</g>
<!-- Node7 -->
<g id="node7" class="node">
<title>Node7</title>
<g id="a_node7"><a xlink:href="_x_m_l_attributes_8h.html" target="_top" xlink:title="XMLAttributes_t are a list of name/value pairs for XML elements. ">
<polygon fill="#ffffff" stroke="#000000" points="145.5,-263 145.5,-282 275.5,-282 275.5,-263 145.5,-263"/>
<text text-anchor="middle" x="210.5" y="-270" font-family="Helvetica,sans-Serif" font-size="10.00" fill="#000000">sbml/xml/XMLAttributes.h</text>
</a>
</g>
</g>
<!-- Node1&#45;&gt;Node7 -->
<g id="edge17" class="edge">
<title>Node1&#45;&gt;Node7</title>
<path fill="none" stroke="#191970" d="M648.3474,-467.6908C532.7404,-466.3308 177.6157,-459.1396 143.5,-422 106.9386,-382.198 161.5676,-319.1153 192.1561,-289.2419"/>
<polygon fill="#191970" stroke="#191970" points="194.8639,-291.4968 199.6982,-282.0692 190.0399,-286.4244 194.8639,-291.4968"/>
</g>
<!-- Node11 -->
<g id="node11" class="node">
<title>Node11</title>
<g id="a_node11"><a xlink:href="_x_m_l_input_stream_8h.html" target="_top" xlink:title="XMLInputStream_t. ">
<polygon fill="#ffffff" stroke="#000000" points="424.5,-397 424.5,-416 566.5,-416 566.5,-397 424.5,-397"/>
<text text-anchor="middle" x="495.5" y="-404" font-family="Helvetica,sans-Serif" font-size="10.00" fill="#000000">sbml/xml/XMLInputStream.h</text>
</a>
</g>
</g>
<!-- Node1&#45;&gt;Node11 -->
<g id="edge18" class="edge">
<title>Node1&#45;&gt;Node11</title>
<path fill="none" stroke="#191970" d="M654.9688,-458.3906C622.5134,-447.8298 570.2419,-430.8208 534.4514,-419.1747"/>
<polygon fill="#191970" stroke="#191970" points="535.4161,-415.808 524.8239,-416.0419 533.2501,-422.4645 535.4161,-415.808"/>
</g>
<!-- Node22 -->
<g id="node22" class="node">
<title>Node22</title>
<g id="a_node22"><a xlink:href="_x_m_l_output_stream_8h.html" target="_top" xlink:title="XMLOutputStream_t. ">
<polygon fill="#ffffff" stroke="#000000" points="609.5,-330 609.5,-349 759.5,-349 759.5,-330 609.5,-330"/>
<text text-anchor="middle" x="684.5" y="-337" font-family="Helvetica,sans-Serif" font-size="10.00" fill="#000000">sbml/xml/XMLOutputStream.h</text>
</a>
</g>
</g>
<!-- Node1&#45;&gt;Node22 -->
<g id="edge41" class="edge">
<title>Node1&#45;&gt;Node22</title>
<path fill="none" stroke="#191970" d="M684.5,-458.3416C684.5,-437.4114 684.5,-387.504 684.5,-359.4762"/>
<polygon fill="#191970" stroke="#191970" points="688.0001,-359.2704 684.5,-349.2705 681.0001,-359.2705 688.0001,-359.2704"/>
</g>
<!-- Node23 -->
<g id="node23" class="node">
<title>Node23</title>
<g id="a_node23"><a xlink:href="_comp_extension_8h.html" target="_top" xlink:title="Definition of CompExtension_t, the core module of comp package. ">
<polygon fill="#ffffff" stroke="#000000" points="1001.5,-324.5 1001.5,-354.5 1145.5,-354.5 1145.5,-324.5 1001.5,-324.5"/>
<text text-anchor="start" x="1009.5" y="-342.5" font-family="Helvetica,sans-Serif" font-size="10.00" fill="#000000">sbml/packages/comp</text>
<text text-anchor="middle" x="1073.5" y="-331.5" font-family="Helvetica,sans-Serif" font-size="10.00" fill="#000000">/extension/CompExtension.h</text>
</a>
</g>
</g>
<!-- Node1&#45;&gt;Node23 -->
<g id="edge43" class="edge">
<title>Node1&#45;&gt;Node23</title>
<path fill="none" stroke="#191970" d="M720.5731,-463.5497C765.4928,-457.341 844.1561,-444.2621 908.5,-422 956.0849,-405.5363 1007.4544,-378.1786 1040.0128,-359.5171"/>
<polygon fill="#191970" stroke="#191970" points="1041.7775,-362.5398 1048.6784,-354.5005 1038.2704,-356.4817 1041.7775,-362.5398"/>
</g>
<!-- Node25 -->
<g id="node25" class="node">
<title>Node25</title>
<g id="a_node25"><a xlink:href="_deletion_8h.html" target="_top" xlink:title="Definition of Deletion_t, the SBase_t derived class of deletions package. ">
<polygon fill="#ffffff" stroke="#000000" points="793.5,-257.5 793.5,-287.5 903.5,-287.5 903.5,-257.5 793.5,-257.5"/>
<text text-anchor="start" x="801.5" y="-275.5" font-family="Helvetica,sans-Serif" font-size="10.00" fill="#000000">sbml/packages/comp</text>
<text text-anchor="middle" x="848.5" y="-264.5" font-family="Helvetica,sans-Serif" font-size="10.00" fill="#000000">/sbml/Deletion.h</text>
</a>
</g>
</g>
<!-- Node1&#45;&gt;Node25 -->
<g id="edge48" class="edge">
<title>Node1&#45;&gt;Node25</title>
<path fill="none" stroke="#191970" d="M692.6328,-458.3051C717.5365,-428.6181 793.2326,-338.3828 829.1679,-295.5453"/>
<polygon fill="#191970" stroke="#191970" points="832.0525,-297.5525 835.798,-287.6418 826.6896,-293.0537 832.0525,-297.5525"/>
</g>
<!-- Node27 -->
<g id="node27" class="node">
<title>Node27</title>
<g id="a_node27"><a xlink:href="_port_8h.html" target="_top" xlink:title="Definition of Port_t, the SBase_t derived class of the comp package. ">
<polygon fill="#ffffff" stroke="#000000" points="921.5,-257.5 921.5,-287.5 1031.5,-287.5 1031.5,-257.5 921.5,-257.5"/>
<text text-anchor="start" x="929.5" y="-275.5" font-family="Helvetica,sans-Serif" font-size="10.00" fill="#000000">sbml/packages/comp</text>
<text text-anchor="middle" x="976.5" y="-264.5" font-family="Helvetica,sans-Serif" font-size="10.00" fill="#000000">/sbml/Port.h</text>
</a>
</g>
</g>
<!-- Node1&#45;&gt;Node27 -->
<g id="edge52" class="edge">
<title>Node1&#45;&gt;Node27</title>
<path fill="none" stroke="#191970" d="M698.9803,-458.3051C744.06,-428.1233 882.6148,-335.3581 945.2188,-293.4434"/>
<polygon fill="#191970" stroke="#191970" points="947.5218,-296.1136 953.8842,-287.6418 943.6274,-290.2969 947.5218,-296.1136"/>
</g>
<!-- Node28 -->
<g id="node28" class="node">
<title>Node28</title>
<g id="a_node28"><a xlink:href="_submodel_8h.html" target="_top" xlink:title="Definition of Submodel_t, the SBase_t derived class of the comp package. ">
<polygon fill="#ffffff" stroke="#000000" points="1195.5,-257.5 1195.5,-287.5 1305.5,-287.5 1305.5,-257.5 1195.5,-257.5"/>
<text text-anchor="start" x="1203.5" y="-275.5" font-family="Helvetica,sans-Serif" font-size="10.00" fill="#000000">sbml/packages/comp</text>
<text text-anchor="middle" x="1250.5" y="-264.5" font-family="Helvetica,sans-Serif" font-size="10.00" fill="#000000">/sbml/Submodel.h</text>
</a>
</g>
</g>
<!-- Node1&#45;&gt;Node28 -->
<g id="edge56" class="edge">
<title>Node1&#45;&gt;Node28</title>
<path fill="none" stroke="#191970" d="M720.581,-466.1193C802.8152,-460.4463 1008.3183,-438.3297 1154.5,-355 1183.0656,-338.7164 1211.034,-313.2847 1229.345,-294.9612"/>
<polygon fill="#191970" stroke="#191970" points="1232.0707,-297.1806 1236.5749,-287.5909 1227.0736,-292.2787 1232.0707,-297.1806"/>
</g>
<!-- Node29 -->
<g id="node29" class="node">
<title>Node29</title>
<g id="a_node29"><a xlink:href="_comp_s_b_m_l_error_8h.html" target="_top" xlink:title="Represents SBML errors and other diagnostics. ">
<polygon fill="#ffffff" stroke="#000000" points="1201.5,-391.5 1201.5,-421.5 1345.5,-421.5 1345.5,-391.5 1201.5,-391.5"/>
<text text-anchor="start" x="1209.5" y="-409.5" font-family="Helvetica,sans-Serif" font-size="10.00" fill="#000000">sbml/packages/comp</text>
<text text-anchor="middle" x="1273.5" y="-398.5" font-family="Helvetica,sans-Serif" font-size="10.00" fill="#000000">/validator/CompSBMLError.h</text>
</a>
</g>
</g>
<!-- Node1&#45;&gt;Node29 -->
<g id="edge60" class="edge">
<title>Node1&#45;&gt;Node29</title>
<path fill="none" stroke="#191970" d="M720.6072,-465.782C803.4129,-460.4589 1013.274,-445.6215 1187.5,-422 1188.7685,-421.828 1190.0467,-421.6505 1191.3328,-421.4681"/>
<polygon fill="#191970" stroke="#191970" points="1191.936,-424.917 1201.3112,-419.9816 1190.9046,-417.9934 1191.936,-424.917"/>
</g>
<!-- Node4 -->
<g id="node4" class="node">
<title>Node4</title>
<g id="a_node4"><a xlink:href="_x_m_l_extern_8h.html" target="_top" xlink:title="Defines LIBLAX_EXTERN. ">
<polygon fill="#ffffff" stroke="#000000" points="77,-196 77,-215 194,-215 194,-196 77,-196"/>
<text text-anchor="middle" x="135.5" y="-203" font-family="Helvetica,sans-Serif" font-size="10.00" fill="#000000">sbml/xml/XMLExtern.h</text>
</a>
</g>
</g>
<!-- Node3&#45;&gt;Node4 -->
<g id="edge3" class="edge">
<title>Node3&#45;&gt;Node4</title>
<path fill="none" stroke="#191970" d="M192.8973,-396.8369C166.1529,-379.1799 112.6801,-338.7995 94.5,-288 89.8576,-275.0279 89.9549,-270.0065 94.5,-257 99.0488,-243.9829 108.4174,-231.796 117.052,-222.5484"/>
<polygon fill="#191970" stroke="#191970" points="119.7531,-224.7953 124.3115,-215.2313 114.7838,-219.8652 119.7531,-224.7953"/>
</g>
<!-- Node3&#45;&gt;Node6 -->
<g id="edge5" class="edge">
<title>Node3&#45;&gt;Node6</title>
<path fill="none" stroke="#191970" d="M214.3743,-396.9005C220.5852,-386.751 230.5335,-370.4941 238.2599,-357.8679"/>
<polygon fill="#191970" stroke="#191970" points="241.4023,-359.4382 243.6366,-349.0817 235.4315,-355.7844 241.4023,-359.4382"/>
</g>
<!-- Node8 -->
<g id="node8" class="node">
<title>Node8</title>
<polygon fill="#ffffff" stroke="#bfbfbf" points="402,-196 402,-215 529,-215 529,-196 402,-196"/>
<text text-anchor="middle" x="465.5" y="-203" font-family="Helvetica,sans-Serif" font-size="10.00" fill="#000000">sbml/common/sbmlfwd.h</text>
</g>
<!-- Node3&#45;&gt;Node8 -->
<g id="edge15" class="edge">
<title>Node3&#45;&gt;Node8</title>
<path fill="none" stroke="#191970" d="M200.2518,-396.897C186.8961,-380.1549 163.8246,-345.3732 182.5,-324 260.9974,-234.1632 361.295,-369.4112 448.5,-288 465.4877,-272.1409 467.9355,-244.1795 467.349,-225.2528"/>
<polygon fill="#191970" stroke="#191970" points="470.8298,-224.8328 466.7174,-215.0686 463.8432,-225.2661 470.8298,-224.8328"/>
</g>
<!-- Node5 -->
<g id="node5" class="node">
<title>Node5</title>
<g id="a_node5"><a xlink:href="libsbml-namespace_8h.html" target="_top" xlink:title="Defines C++ namespace of libSBML. ">
<polygon fill="#ffffff" stroke="#000000" points="622,-.5 622,-30.5 735,-30.5 735,-.5 622,-.5"/>
<text text-anchor="start" x="630" y="-18.5" font-family="Helvetica,sans-Serif" font-size="10.00" fill="#000000">sbml/common/libsbml</text>
<text text-anchor="middle" x="678.5" y="-7.5" font-family="Helvetica,sans-Serif" font-size="10.00" fill="#000000">&#45;namespace.h</text>
</a>
</g>
</g>
<!-- Node4&#45;&gt;Node5 -->
<g id="edge4" class="edge">
<title>Node4&#45;&gt;Node5</title>
<path fill="none" stroke="#191970" d="M162.7996,-195.9477C248.3729,-166.0049 512.4056,-73.6177 625.8333,-33.9285"/>
<polygon fill="#191970" stroke="#191970" points="627.0763,-37.2017 635.3592,-30.5953 624.7643,-30.5945 627.0763,-37.2017"/>
</g>
<!-- Node6&#45;&gt;Node4 -->
<g id="edge6" class="edge">
<title>Node6&#45;&gt;Node4</title>
<path fill="none" stroke="#191970" d="M205.9839,-329.9885C167.5074,-320.5922 115.649,-305.1681 103.5,-288 89.239,-267.8473 105.4927,-240.4858 119.5698,-222.9075"/>
<polygon fill="#191970" stroke="#191970" points="122.3609,-225.0279 126.1624,-215.1385 117.0235,-220.4988 122.3609,-225.0279"/>
</g>
<!-- Node6&#45;&gt;Node6 -->
<g id="edge13" class="edge">
<title>Node6&#45;&gt;Node6</title>
<path fill="none" stroke="#191970" d="M273.0778,-349.0645C297.5654,-354.8698 325,-351.6816 325,-339.5 325,-328.9362 304.3688,-325.1357 282.9193,-328.0984"/>
<polygon fill="#191970" stroke="#191970" points="282.2657,-324.6598 273.0778,-329.9355 283.5503,-331.541 282.2657,-324.6598"/>
</g>
<!-- Node6&#45;&gt;Node7 -->
<g id="edge7" class="edge">
<title>Node6&#45;&gt;Node7</title>
<path fill="none" stroke="#191970" d="M243.9123,-329.9005C238.0043,-319.751 228.5413,-303.4941 221.1918,-290.8679"/>
<polygon fill="#191970" stroke="#191970" points="224.133,-288.9634 216.0774,-282.0817 218.0833,-292.4849 224.133,-288.9634"/>
</g>
<!-- Node6&#45;&gt;Node8 -->
<g id="edge14" class="edge">
<title>Node6&#45;&gt;Node8</title>
<path fill="none" stroke="#191970" d="M307.0274,-330.5521C372.1102,-319.8458 470.5426,-301.6565 481.5,-288 496.0603,-269.8531 486.2721,-242.3016 476.8201,-224.1038"/>
<polygon fill="#191970" stroke="#191970" points="479.7024,-222.0878 471.7603,-215.0754 473.596,-225.51 479.7024,-222.0878"/>
</g>
<!-- Node7&#45;&gt;Node4 -->
<g id="edge8" class="edge">
<title>Node7&#45;&gt;Node4</title>
<path fill="none" stroke="#191970" d="M199.7543,-262.9005C187.836,-252.2535 168.3943,-234.8856 154.0132,-222.0385"/>
<polygon fill="#191970" stroke="#191970" points="156.0151,-219.1337 146.2257,-215.0817 151.3516,-224.354 156.0151,-219.1337"/>
</g>
<!-- Node7&#45;&gt;Node8 -->
<g id="edge9" class="edge">
<title>Node7&#45;&gt;Node8</title>
<path fill="none" stroke="#191970" d="M246.7645,-262.9717C292.0456,-251.0743 369.5671,-230.7059 419.1233,-217.6852"/>
<polygon fill="#191970" stroke="#191970" points="420.1655,-221.0303 428.9478,-215.1039 418.3866,-214.2601 420.1655,-221.0303"/>
</g>
<!-- Node9 -->
<g id="node9" class="node">
<title>Node9</title>
<g id="a_node9"><a xlink:href="operation_return_values_8h.html" target="_top" xlink:title="Enumeration of values returned by operations within libSBML. ">
<polygon fill="#ffffff" stroke="#000000" points="231,-190.5 231,-220.5 384,-220.5 384,-190.5 231,-190.5"/>
<text text-anchor="start" x="239" y="-208.5" font-family="Helvetica,sans-Serif" font-size="10.00" fill="#000000">sbml/common/operationReturn</text>
<text text-anchor="middle" x="307.5" y="-197.5" font-family="Helvetica,sans-Serif" font-size="10.00" fill="#000000">Values.h</text>
</a>
</g>
</g>
<!-- Node7&#45;&gt;Node9 -->
<g id="edge10" class="edge">
<title>Node7&#45;&gt;Node9</title>
<path fill="none" stroke="#191970" d="M224.3977,-262.9005C238.1735,-253.3853 259.7205,-238.5023 277.4221,-226.2755"/>
<polygon fill="#191970" stroke="#191970" points="279.5132,-229.0849 285.7521,-220.5218 275.5349,-223.3253 279.5132,-229.0849"/>
</g>
<!-- Node10 -->
<g id="node10" class="node">
<title>Node10</title>
<g id="a_node10"><a xlink:href="extern_8h.html" target="_top" xlink:title="Definitions of LIBSBML_EXTERN and related things. ">
<polygon fill="#ffffff" stroke="#000000" points="953.5,-67.5 953.5,-86.5 1071.5,-86.5 1071.5,-67.5 953.5,-67.5"/>
<text text-anchor="middle" x="1012.5" y="-74.5" font-family="Helvetica,sans-Serif" font-size="10.00" fill="#000000">sbml/common/extern.h</text>
</a>
</g>
</g>
<!-- Node9&#45;&gt;Node10 -->
<g id="edge11" class="edge">
<title>Node9&#45;&gt;Node10</title>
<path fill="none" stroke="#191970" d="M338.8513,-190.4161C380.1388,-171.2844 455.4811,-138.8773 523.5,-123 601.3852,-104.8196 827.6943,-88.5836 943.0868,-81.2044"/>
<polygon fill="#191970" stroke="#191970" points="943.4665,-84.6874 953.2246,-80.5606 943.0229,-77.7015 943.4665,-84.6874"/>
</g>
<!-- Node10&#45;&gt;Node5 -->
<g id="edge12" class="edge">
<title>Node10&#45;&gt;Node5</title>
<path fill="none" stroke="#191970" d="M960.679,-67.4581C902.6745,-56.7776 808.5251,-39.4417 745.101,-27.7634"/>
<polygon fill="#191970" stroke="#191970" points="745.6644,-24.3083 735.1958,-25.9395 744.3967,-31.1926 745.6644,-24.3083"/>
</g>
<!-- Node11&#45;&gt;Node4 -->
<g id="edge19" class="edge">
<title>Node11&#45;&gt;Node4</title>
<path fill="none" stroke="#191970" d="M466.5946,-396.9542C440.9678,-387.904 402.9877,-373.0301 372.5,-355 353.4413,-343.7289 353.6615,-333.1534 333.5,-324 252.4558,-287.2058 193.9127,-356.0129 136.5,-288 121.9021,-270.7069 124.9417,-243.3361 129.4087,-224.9133"/>
<polygon fill="#191970" stroke="#191970" points="132.7906,-225.8151 132.0812,-215.244 126.0436,-223.9502 132.7906,-225.8151"/>
</g>
<!-- Node11&#45;&gt;Node6 -->
<g id="edge20" class="edge">
<title>Node11&#45;&gt;Node6</title>
<path fill="none" stroke="#191970" d="M460.5154,-396.9717C416.9237,-385.0991 342.3591,-364.7909 294.5396,-351.7669"/>
<polygon fill="#191970" stroke="#191970" points="295.3305,-348.3549 284.7622,-349.1039 293.4909,-355.1088 295.3305,-348.3549"/>
</g>
<!-- Node11&#45;&gt;Node8 -->
<g id="edge21" class="edge">
<title>Node11&#45;&gt;Node8</title>
<path fill="none" stroke="#191970" d="M514.2969,-396.9218C529.0918,-388.2237 548.6416,-373.874 557.5,-355 576.0056,-315.5712 579.5277,-294.5748 557.5,-257 546.9366,-238.981 527.5113,-226.7933 509.2232,-218.8186"/>
<polygon fill="#191970" stroke="#191970" points="510.3995,-215.5191 499.8162,-215.0237 507.7806,-222.0108 510.3995,-215.5191"/>
</g>
<!-- Node11&#45;&gt;Node9 -->
<g id="edge22" class="edge">
<title>Node11&#45;&gt;Node9</title>
<path fill="none" stroke="#191970" d="M503.8195,-396.6349C515.985,-380.9408 535.9959,-349.4599 524.5,-324 500.1882,-270.1569 439.2973,-239.9574 388.1854,-223.5415"/>
<polygon fill="#191970" stroke="#191970" points="389.0246,-220.1378 378.4373,-220.5367 386.9626,-226.8272 389.0246,-220.1378"/>
</g>
<!-- Node12 -->
<g id="node12" class="node">
<title>Node12</title>
<g id="a_node12"><a xlink:href="_s_b_m_l_namespaces_8h.html" target="_top" xlink:title="SBMLNamespaces_t class to store level/version and namespace. ">
<polygon fill="#ffffff" stroke="#000000" points="381.5,-330 381.5,-349 515.5,-349 515.5,-330 381.5,-330"/>
<text text-anchor="middle" x="448.5" y="-337" font-family="Helvetica,sans-Serif" font-size="10.00" fill="#000000">sbml/SBMLNamespaces.h</text>
</a>
</g>
</g>
<!-- Node11&#45;&gt;Node12 -->
<g id="edge23" class="edge">
<title>Node11&#45;&gt;Node12</title>
<path fill="none" stroke="#191970" d="M488.766,-396.9005C481.5764,-386.6515 470.0181,-370.1747 461.1252,-357.4976"/>
<polygon fill="#191970" stroke="#191970" points="463.8296,-355.2582 455.2215,-349.0817 458.099,-359.2783 463.8296,-355.2582"/>
</g>
<!-- Node13 -->
<g id="node13" class="node">
<title>Node13</title>
<g id="a_node13"><a xlink:href="_x_m_l_namespaces_8h.html" target="_top" xlink:title="A list of XMLNamespace declarations (URI/prefix pairs) ">
<polygon fill="#ffffff" stroke="#000000" points="293.5,-263 293.5,-282 439.5,-282 439.5,-263 293.5,-263"/>
<text text-anchor="middle" x="366.5" y="-270" font-family="Helvetica,sans-Serif" font-size="10.00" fill="#000000">sbml/xml/XMLNamespaces.h</text>
</a>
</g>
</g>
<!-- Node12&#45;&gt;Node13 -->
<g id="edge24" class="edge">
<title>Node12&#45;&gt;Node13</title>
<path fill="none" stroke="#191970" d="M436.7514,-329.9005C423.5989,-319.1539 402.0664,-301.5603 386.3017,-288.6794"/>
<polygon fill="#191970" stroke="#191970" points="388.1852,-285.6986 378.2268,-282.0817 383.7561,-291.1193 388.1852,-285.6986"/>
</g>
<!-- Node14 -->
<g id="node14" class="node">
<title>Node14</title>
<g id="a_node14"><a xlink:href="common_8h.html" target="_top" xlink:title="Common functions and macros for C and C++. ">
<polygon fill="#ffffff" stroke="#000000" points="647.5,-263 647.5,-282 775.5,-282 775.5,-263 647.5,-263"/>
<text text-anchor="middle" x="711.5" y="-270" font-family="Helvetica,sans-Serif" font-size="10.00" fill="#000000">sbml/common/common.h</text>
</a>
</g>
</g>
<!-- Node12&#45;&gt;Node14 -->
<g id="edge28" class="edge">
<title>Node12&#45;&gt;Node14</title>
<path fill="none" stroke="#191970" d="M485.9022,-329.9717C532.7014,-318.0495 612.8914,-297.6208 663.9881,-284.6038"/>
<polygon fill="#191970" stroke="#191970" points="664.9746,-287.9643 673.801,-282.1039 663.2465,-281.181 664.9746,-287.9643"/>
</g>
<!-- Node13&#45;&gt;Node4 -->
<g id="edge25" class="edge">
<title>Node13&#45;&gt;Node4</title>
<path fill="none" stroke="#191970" d="M333.4033,-262.9005C292.5779,-251.0594 223.0918,-230.9054 178.2609,-217.9025"/>
<polygon fill="#191970" stroke="#191970" points="179.1145,-214.5059 168.5353,-215.0817 177.1645,-221.2288 179.1145,-214.5059"/>
</g>
<!-- Node13&#45;&gt;Node8 -->
<g id="edge26" class="edge">
<title>Node13&#45;&gt;Node8</title>
<path fill="none" stroke="#191970" d="M380.6843,-262.9005C396.9311,-251.9052 423.7691,-233.7422 442.9034,-220.7927"/>
<polygon fill="#191970" stroke="#191970" points="445.022,-223.5851 451.342,-215.0817 441.0986,-217.7879 445.022,-223.5851"/>
</g>
<!-- Node13&#45;&gt;Node9 -->
<g id="edge27" class="edge">
<title>Node13&#45;&gt;Node9</title>
<path fill="none" stroke="#191970" d="M358.0467,-262.9005C350.1247,-253.9043 337.9774,-240.1099 327.5764,-228.2986"/>
<polygon fill="#191970" stroke="#191970" points="329.9637,-225.7136 320.7281,-220.5218 324.7102,-230.3398 329.9637,-225.7136"/>
</g>
<!-- Node14&#45;&gt;Node10 -->
<g id="edge35" class="edge">
<title>Node14&#45;&gt;Node10</title>
<path fill="none" stroke="#191970" d="M738.3454,-262.947C756.6541,-254.8586 779.5026,-241.297 790.5,-221 811.5241,-182.1974 746.4103,-157.0386 774.5,-123 795.5917,-97.4414 880.8002,-85.9206 943.2585,-80.8386"/>
<polygon fill="#191970" stroke="#191970" points="943.7633,-84.3101 953.4632,-80.0484 943.2228,-77.331 943.7633,-84.3101"/>
</g>
<!-- Node15 -->
<g id="node15" class="node">
<title>Node15</title>
<g id="a_node15"><a xlink:href="libsbml-config_8h.html" target="_top" xlink:title="Decides whether to #include Unix or Windows configuration variables. ">
<polygon fill="#ffffff" stroke="#000000" points="838,-190.5 838,-220.5 951,-220.5 951,-190.5 838,-190.5"/>
<text text-anchor="start" x="846" y="-208.5" font-family="Helvetica,sans-Serif" font-size="10.00" fill="#000000">sbml/common/libsbml</text>
<text text-anchor="middle" x="894.5" y="-197.5" font-family="Helvetica,sans-Serif" font-size="10.00" fill="#000000">&#45;config.h</text>
</a>
</g>
</g>
<!-- Node14&#45;&gt;Node15 -->
<g id="edge29" class="edge">
<title>Node14&#45;&gt;Node15</title>
<path fill="none" stroke="#191970" d="M737.7194,-262.9005C765.3626,-252.7798 809.5924,-236.5864 844.0368,-223.9756"/>
<polygon fill="#191970" stroke="#191970" points="845.2833,-227.2465 853.4704,-220.5218 842.8766,-220.6732 845.2833,-227.2465"/>
</g>
<!-- Node18 -->
<g id="node18" class="node">
<title>Node18</title>
<polygon fill="#ffffff" stroke="#bfbfbf" points="532.5,-129 532.5,-148 578.5,-148 578.5,-129 532.5,-129"/>
<text text-anchor="middle" x="555.5" y="-136" font-family="Helvetica,sans-Serif" font-size="10.00" fill="#000000">stdio.h</text>
</g>
<!-- Node14&#45;&gt;Node18 -->
<g id="edge34" class="edge">
<title>Node14&#45;&gt;Node18</title>
<path fill="none" stroke="#191970" d="M654.4806,-262.9889C627.6764,-255.7352 597.3276,-243.0562 577.5,-221 561.9893,-203.7459 557.2212,-176.7515 555.8578,-158.3766"/>
<polygon fill="#191970" stroke="#191970" points="559.3459,-158.0394 555.3832,-148.2136 552.3536,-158.366 559.3459,-158.0394"/>
</g>
<!-- Node19 -->
<g id="node19" class="node">
<title>Node19</title>
<g id="a_node19"><a xlink:href="memory_8h.html" target="_top" xlink:title="sbml/util/memory.h">
<polygon fill="#ffffff" stroke="#000000" points="681.5,-196 681.5,-215 781.5,-215 781.5,-196 681.5,-196"/>
<text text-anchor="middle" x="731.5" y="-203" font-family="Helvetica,sans-Serif" font-size="10.00" fill="#000000">sbml/util/memory.h</text>
</a>
</g>
</g>
<!-- Node14&#45;&gt;Node19 -->
<g id="edge36" class="edge">
<title>Node14&#45;&gt;Node19</title>
<path fill="none" stroke="#191970" d="M714.3655,-262.9005C717.3061,-253.0495 721.9642,-237.4451 725.6817,-224.9912"/>
<polygon fill="#191970" stroke="#191970" points="729.1331,-225.665 728.6398,-215.0817 722.4256,-223.6627 729.1331,-225.665"/>
</g>
<!-- Node20 -->
<g id="node20" class="node">
<title>Node20</title>
<g id="a_node20"><a xlink:href="util_8h.html" target="_top" xlink:title="Utility functions. ">
<polygon fill="#ffffff" stroke="#000000" points="586,-196 586,-215 663,-215 663,-196 586,-196"/>
<text text-anchor="middle" x="624.5" y="-203" font-family="Helvetica,sans-Serif" font-size="10.00" fill="#000000">sbml/util/util.h</text>
</a>
</g>
</g>
<!-- Node14&#45;&gt;Node20 -->
<g id="edge37" class="edge">
<title>Node14&#45;&gt;Node20</title>
<path fill="none" stroke="#191970" d="M699.035,-262.9005C684.9513,-252.0544 661.8112,-234.2339 645.0461,-221.3229"/>
<polygon fill="#191970" stroke="#191970" points="647.0003,-218.4102 636.9419,-215.0817 642.7292,-223.9562 647.0003,-218.4102"/>
</g>
<!-- Node15&#45;&gt;Node5 -->
<g id="edge30" class="edge">
<title>Node15&#45;&gt;Node5</title>
<path fill="none" stroke="#191970" d="M842.5718,-190.417C820.044,-182.1424 794.3385,-170.2087 774.5,-154 735.4528,-122.0971 705.47,-70.3763 690.0446,-39.9814"/>
<polygon fill="#191970" stroke="#191970" points="693.129,-38.3228 685.5548,-30.9145 686.8559,-41.4291 693.129,-38.3228"/>
</g>
<!-- Node16 -->
<g id="node16" class="node">
<title>Node16</title>
<g id="a_node16"><a xlink:href="libsbml-config-common_8h.html" target="_top" xlink:title="Configuration variables. ">
<polygon fill="#ffffff" stroke="#000000" points="783,-123.5 783,-153.5 896,-153.5 896,-123.5 783,-123.5"/>
<text text-anchor="start" x="791" y="-141.5" font-family="Helvetica,sans-Serif" font-size="10.00" fill="#000000">sbml/common/libsbml</text>
<text text-anchor="middle" x="839.5" y="-130.5" font-family="Helvetica,sans-Serif" font-size="10.00" fill="#000000">&#45;config&#45;common.h</text>
</a>
</g>
</g>
<!-- Node15&#45;&gt;Node16 -->
<g id="edge31" class="edge">
<title>Node15&#45;&gt;Node16</title>
<path fill="none" stroke="#191970" d="M882.0196,-190.2967C875.0579,-181.816 866.2436,-171.0785 858.4476,-161.5817"/>
<polygon fill="#191970" stroke="#191970" points="860.9812,-159.1517 851.931,-153.6432 855.5707,-163.5932 860.9812,-159.1517"/>
</g>
<!-- Node17 -->
<g id="node17" class="node">
<title>Node17</title>
<g id="a_node17"><a xlink:href="libsbml-version_8h.html" target="_top" xlink:title="Define libSBML version numbers for access from client software. ">
<polygon fill="#ffffff" stroke="#000000" points="914,-123.5 914,-153.5 1027,-153.5 1027,-123.5 914,-123.5"/>
<text text-anchor="start" x="922" y="-141.5" font-family="Helvetica,sans-Serif" font-size="10.00" fill="#000000">sbml/common/libsbml</text>
<text text-anchor="middle" x="970.5" y="-130.5" font-family="Helvetica,sans-Serif" font-size="10.00" fill="#000000">&#45;version.h</text>
</a>
</g>
</g>
<!-- Node15&#45;&gt;Node17 -->
<g id="edge32" class="edge">
<title>Node15&#45;&gt;Node17</title>
<path fill="none" stroke="#191970" d="M911.7456,-190.2967C921.7542,-181.4733 934.5336,-170.2072 945.6164,-160.4368"/>
<polygon fill="#191970" stroke="#191970" points="948.1359,-162.8816 953.3227,-153.6432 943.5068,-157.6307 948.1359,-162.8816"/>
</g>
<!-- Node17&#45;&gt;Node10 -->
<g id="edge33" class="edge">
<title>Node17&#45;&gt;Node10</title>
<path fill="none" stroke="#191970" d="M980.882,-123.2977C986.6513,-114.8498 993.8716,-104.2773 999.9553,-95.369"/>
<polygon fill="#191970" stroke="#191970" points="1003.0259,-97.0788 1005.7753,-86.8469 997.2453,-93.1311 1003.0259,-97.0788"/>
</g>
<!-- Node20&#45;&gt;Node10 -->
<g id="edge40" class="edge">
<title>Node20&#45;&gt;Node10</title>
<path fill="none" stroke="#191970" d="M634.7039,-195.7399C653.7846,-178.1006 696.8947,-141.0706 740.5,-123 776.2185,-108.1978 875.0809,-93.7688 943.2278,-85.1305"/>
<polygon fill="#191970" stroke="#191970" points="943.9803,-88.5637 953.4671,-83.8467 943.1094,-81.6181 943.9803,-88.5637"/>
</g>
<!-- Node20&#45;&gt;Node18 -->
<g id="edge38" class="edge">
<title>Node20&#45;&gt;Node18</title>
<path fill="none" stroke="#191970" d="M614.614,-195.9005C603.7516,-185.353 586.0965,-168.2096 572.9043,-155.3998"/>
<polygon fill="#191970" stroke="#191970" points="574.9802,-152.537 565.3677,-148.0817 570.1038,-157.559 574.9802,-152.537"/>
</g>
<!-- Node21 -->
<g id="node21" class="node">
<title>Node21</title>
<polygon fill="#ffffff" stroke="#bfbfbf" points="597,-129 597,-148 650,-148 650,-129 597,-129"/>
<text text-anchor="middle" x="623.5" y="-136" font-family="Helvetica,sans-Serif" font-size="10.00" fill="#000000">stdarg.h</text>
</g>
<!-- Node20&#45;&gt;Node21 -->
<g id="edge39" class="edge">
<title>Node20&#45;&gt;Node21</title>
<path fill="none" stroke="#191970" d="M624.3567,-195.9005C624.2112,-186.149 623.9815,-170.7597 623.7966,-158.3695"/>
<polygon fill="#191970" stroke="#191970" points="627.292,-158.0283 623.643,-148.0817 620.2927,-158.1328 627.292,-158.0283"/>
</g>
<!-- Node22&#45;&gt;Node8 -->
<g id="edge42" class="edge">
<title>Node22&#45;&gt;Node8</title>
<path fill="none" stroke="#191970" d="M676.3249,-329.8678C661.6437,-313.0805 629.1878,-278.231 595.5,-257 568.5477,-240.0139 535.0655,-226.9092 508.8313,-218.1703"/>
<polygon fill="#191970" stroke="#191970" points="509.7523,-214.7896 499.1603,-215.0358 507.594,-221.4486 509.7523,-214.7896"/>
</g>
<!-- Node23&#45;&gt;Node10 -->
<g id="edge44" class="edge">
<title>Node23&#45;&gt;Node10</title>
<path fill="none" stroke="#191970" d="M1145.7878,-333.9103C1208.8829,-327.3515 1293.5459,-313.9049 1314.5,-288 1323.1648,-277.2879 1318.2716,-270.2515 1314.5,-257 1295.3231,-189.6212 1288.8545,-163.2258 1231.5,-123 1207.62,-106.2516 1136.4107,-93.3251 1081.6086,-85.499"/>
<polygon fill="#191970" stroke="#191970" points="1081.9702,-82.0156 1071.5819,-84.0973 1081.001,-88.9482 1081.9702,-82.0156"/>
</g>
<!-- Node24 -->
<g id="node24" class="node">
<title>Node24</title>
<g id="a_node24"><a xlink:href="_s_b_m_l_type_codes_8h.html" target="_top" xlink:title="Enumeration to identify SBML objects at runtime. ">
<polygon fill="#ffffff" stroke="#000000" points="1050,-263 1050,-282 1177,-282 1177,-263 1050,-263"/>
<text text-anchor="middle" x="1113.5" y="-270" font-family="Helvetica,sans-Serif" font-size="10.00" fill="#000000">sbml/SBMLTypeCodes.h</text>
</a>
</g>
</g>
<!-- Node23&#45;&gt;Node24 -->
<g id="edge45" class="edge">
<title>Node23&#45;&gt;Node24</title>
<path fill="none" stroke="#191970" d="M1082.5766,-324.2967C1088.5063,-314.3645 1096.2838,-301.3371 1102.5555,-290.8321"/>
<polygon fill="#191970" stroke="#191970" points="1105.6746,-292.4354 1107.7955,-282.055 1099.6642,-288.8471 1105.6746,-292.4354"/>
</g>
<!-- Node24&#45;&gt;Node10 -->
<g id="edge47" class="edge">
<title>Node24&#45;&gt;Node10</title>
<path fill="none" stroke="#191970" d="M1156.5971,-262.9126C1201.1792,-250.7914 1261.3289,-226.9379 1238.5,-190 1202.8938,-132.388 1128.0353,-103.1664 1074.2201,-89.0457"/>
<polygon fill="#191970" stroke="#191970" points="1074.9827,-85.6285 1064.4308,-86.5814 1073.2738,-92.4168 1074.9827,-85.6285"/>
</g>
<!-- Node24&#45;&gt;Node15 -->
<g id="edge46" class="edge">
<title>Node24&#45;&gt;Node15</title>
<path fill="none" stroke="#191970" d="M1082.1226,-262.9005C1048.6174,-252.6501 994.7502,-236.1702 953.3109,-223.4924"/>
<polygon fill="#191970" stroke="#191970" points="954.1874,-220.1005 943.601,-220.5218 952.1395,-226.7942 954.1874,-220.1005"/>
</g>
<!-- Node25&#45;&gt;Node8 -->
<g id="edge50" class="edge">
<title>Node25&#45;&gt;Node8</title>
<path fill="none" stroke="#191970" d="M793.4024,-258.869C790.396,-258.2149 787.4138,-257.5871 784.5,-257 700.8478,-240.1442 603.9798,-225.1368 539.1356,-215.7324"/>
<polygon fill="#191970" stroke="#191970" points="539.4077,-212.2355 529.0104,-214.2717 538.4081,-219.1638 539.4077,-212.2355"/>
</g>
<!-- Node25&#45;&gt;Node10 -->
<g id="edge49" class="edge">
<title>Node25&#45;&gt;Node10</title>
<path fill="none" stroke="#191970" d="M900.8101,-257.4918C947.338,-240.8587 1011.7314,-208.8547 1036.5,-154 1045.2668,-134.5842 1035.1368,-111.0503 1025.4743,-95.1505"/>
<polygon fill="#191970" stroke="#191970" points="1028.389,-93.2124 1019.9857,-86.7599 1022.531,-97.0445 1028.389,-93.2124"/>
</g>
<!-- Node26 -->
<g id="node26" class="node">
<title>Node26</title>
<polygon fill="#ffffff" stroke="#bfbfbf" points="1119.5,-190.5 1119.5,-220.5 1229.5,-220.5 1229.5,-190.5 1119.5,-190.5"/>
<text text-anchor="start" x="1127.5" y="-208.5" font-family="Helvetica,sans-Serif" font-size="10.00" fill="#000000">sbml/packages/comp</text>
<text text-anchor="middle" x="1174.5" y="-197.5" font-family="Helvetica,sans-Serif" font-size="10.00" fill="#000000">/common/compfwd.h</text>
</g>
<!-- Node25&#45;&gt;Node26 -->
<g id="edge51" class="edge">
<title>Node25&#45;&gt;Node26</title>
<path fill="none" stroke="#191970" d="M903.6228,-258.9888C906.6227,-258.3038 909.5966,-257.6366 912.5,-257 979.3929,-242.3326 1056.33,-227.4435 1109.4432,-217.473"/>
<polygon fill="#191970" stroke="#191970" points="1110.2213,-220.8882 1119.4066,-215.6078 1108.9333,-214.0077 1110.2213,-220.8882"/>
</g>
<!-- Node27&#45;&gt;Node8 -->
<g id="edge54" class="edge">
<title>Node27&#45;&gt;Node8</title>
<path fill="none" stroke="#191970" d="M921.4376,-258.6815C918.4221,-258.0758 915.4284,-257.5097 912.5,-257 764.972,-231.3215 726.1279,-239.2662 577.5,-221 565.1244,-219.4791 551.9948,-217.7586 539.2474,-216.0313"/>
<polygon fill="#191970" stroke="#191970" points="539.5097,-212.5347 529.1278,-214.6483 538.5617,-219.4702 539.5097,-212.5347"/>
</g>
<!-- Node27&#45;&gt;Node10 -->
<g id="edge53" class="edge">
<title>Node27&#45;&gt;Node10</title>
<path fill="none" stroke="#191970" d="M1022.9,-257.3725C1039.9229,-249.3574 1057.4665,-237.6318 1067.5,-221 1090.0035,-183.6976 1088.2879,-162.3051 1069.5,-123 1063.3552,-110.1449 1051.6701,-99.7306 1040.4715,-92.0832"/>
<polygon fill="#191970" stroke="#191970" points="1042.0339,-88.9304 1031.71,-86.5495 1038.2959,-94.8488 1042.0339,-88.9304"/>
</g>
<!-- Node27&#45;&gt;Node26 -->
<g id="edge55" class="edge">
<title>Node27&#45;&gt;Node26</title>
<path fill="none" stroke="#191970" d="M1020.9351,-257.4639C1050.2567,-247.5419 1088.8653,-234.4774 1120.034,-223.9304"/>
<polygon fill="#191970" stroke="#191970" points="1121.5206,-227.1224 1129.8711,-220.6017 1119.2769,-220.4917 1121.5206,-227.1224"/>
</g>
<!-- Node28&#45;&gt;Node8 -->
<g id="edge58" class="edge">
<title>Node28&#45;&gt;Node8</title>
<path fill="none" stroke="#191970" d="M1195.4652,-258.5109C1192.4425,-257.9492 1189.4398,-257.4393 1186.5,-257 918.3381,-216.9297 847.3307,-247.6052 577.5,-221 564.6572,-219.7337 551.0244,-218.0956 537.8542,-216.3601"/>
<polygon fill="#191970" stroke="#191970" points="538.2715,-212.8848 527.8938,-215.0186 537.3371,-219.8222 538.2715,-212.8848"/>
</g>
<!-- Node28&#45;&gt;Node10 -->
<g id="edge57" class="edge">
<title>Node28&#45;&gt;Node10</title>
<path fill="none" stroke="#191970" d="M1254.6095,-257.3896C1258.4577,-240.4473 1262.5208,-212.412 1254.5,-190 1241.5187,-153.727 1232.0937,-143.5402 1199.5,-123 1164.3381,-100.8414 1119.23,-89.3561 1082.1266,-83.4033"/>
<polygon fill="#191970" stroke="#191970" points="1082.2974,-79.8899 1071.8887,-81.8668 1081.2584,-86.8123 1082.2974,-79.8899"/>
</g>
<!-- Node28&#45;&gt;Node26 -->
<g id="edge59" class="edge">
<title>Node28&#45;&gt;Node26</title>
<path fill="none" stroke="#191970" d="M1233.2544,-257.2967C1223.2458,-248.4733 1210.4664,-237.2072 1199.3836,-227.4368"/>
<polygon fill="#191970" stroke="#191970" points="1201.4932,-224.6307 1191.6773,-220.6432 1196.8641,-229.8816 1201.4932,-224.6307"/>
</g>
</g>
</svg>
        <g id="navigator" transform="translate(0 0)" fill="#404254">
                <rect fill="#f2f5e9" fill-opacity="0.5" stroke="#606060" stroke-width=".5" x="0" y="0" width="60" height="60"/>
                <use id="zoomplus" xlink:href="#zoomPlus" x="17" y="9" onmousedown="handleZoom(evt,'in')"/>
                <use id="zoomminus" xlink:href="#zoomMin" x="42" y="9" onmousedown="handleZoom(evt,'out')"/>
                <use id="reset" xlink:href="#resetDef" x="30" y="36" onmousedown="handleReset()"/>
                <g id="arrowUp" xlink:href="#dirArrow" transform="translate(30 24)" onmousedown="handlePan(0,-1)">
                  <use xlink:href="#rim" fill="#404040">
                        <set attributeName="fill" to="#808080" begin="arrowUp.mouseover" end="arrowUp.mouseout"/>
                  </use>
                  <path fill="none" stroke="white" stroke-width="1.5" d="M0,-3.0v7 M-2.5,-0.5L0,-3.0L2.5,-0.5"/>
                </g>
                <g id="arrowRight" xlink:href="#dirArrow" transform="rotate(90) translate(36 -43)" onmousedown="handlePan(1,0)">
                  <use xlink:href="#rim" fill="#404040">
                        <set attributeName="fill" to="#808080" begin="arrowRight.mouseover" end="arrowRight.mouseout"/>
                  </use>
                  <path fill="none" stroke="white" stroke-width="1.5" d="M0,-3.0v7 M-2.5,-0.5L0,-3.0L2.5,-0.5"/>
                </g>
                <g id="arrowDown" xlink:href="#dirArrow" transform="rotate(180) translate(-30 -48)" onmousedown="handlePan(0,1)">
                  <use xlink:href="#rim" fill="#404040">
                        <set attributeName="fill" to="#808080" begin="arrowDown.mouseover" end="arrowDown.mouseout"/>
                  </use>
                  <path fill="none" stroke="white" stroke-width="1.5" d="M0,-3.0v7 M-2.5,-0.5L0,-3.0L2.5,-0.5"/>
                </g>
                <g id="arrowLeft" xlink:href="#dirArrow" transform="rotate(270) translate(-36 17)" onmousedown="handlePan(-1,0)">
                  <use xlink:href="#rim" fill="#404040">
                        <set attributeName="fill" to="#808080" begin="arrowLeft.mouseover" end="arrowLeft.mouseout"/>
                  </use>
                  <path fill="none" stroke="white" stroke-width="1.5" d="M0,-3.0v7 M-2.5,-0.5L0,-3.0L2.5,-0.5"/>
                </g>
        </g>
        <svg viewBox="0 0 15 15" width="100%" height="30px" preserveAspectRatio="xMaxYMin meet">
         <g id="arrow_out" transform="scale(0.3 0.3)">
          <a xlink:href="_deletion_8cpp__incl_org.svg" target="_base">
           <rect id="button" ry="5" rx="5" y="6" x="6" height="38" width="38"
                fill="#f2f5e9" fill-opacity="0.5" stroke="#606060" stroke-width="1.0"/>
           <path id="arrow"
             d="M 11.500037,31.436501 C 11.940474,20.09759 22.043105,11.32322 32.158766,21.979434 L 37.068811,17.246167 C 37.068811,17.246167 37.088388,32 37.088388,32 L 22.160133,31.978069 C 22.160133,31.978069 26.997745,27.140456 26.997745,27.140456 C 18.528582,18.264221 13.291696,25.230495 11.500037,31.436501 z"
             style="fill:#404040;"/>
          </a>
         </g>
        </svg>
</svg>
