<?xml version="1.0" encoding="UTF-8" standalone="no"?>
<!DOCTYPE svg PUBLIC "-//W3C//DTD SVG 1.1//EN"
 "http://www.w3.org/Graphics/SVG/1.1/DTD/svg11.dtd">
<!-- Generated by graphviz version 2.40.1 (20161225.0304)
 -->
<!-- Title: FbcSpeciesPlugin.cpp Pages: 1 -->
<svg width="1286pt" height="531pt"
 viewBox="0.00 0.00 1285.50 531.00" xmlns="http://www.w3.org/2000/svg" xmlns:xlink="http://www.w3.org/1999/xlink">
<g id="graph0" class="graph" transform="scale(1 1) rotate(0) translate(4 527)">
<title>FbcSpeciesPlugin.cpp</title>
<polygon fill="#ffffff" stroke="transparent" points="-4,4 -4,-527 1281.5,-527 1281.5,4 -4,4"/>
<!-- Node1 -->
<g id="node1" class="node">
<title>Node1</title>
<polygon fill="#bfbfbf" stroke="#000000" points="763.5,-503.5 763.5,-522.5 878.5,-522.5 878.5,-503.5 763.5,-503.5"/>
<text text-anchor="middle" x="821" y="-510.5" font-family="Helvetica,sans-Serif" font-size="10.00" fill="#000000">FbcSpeciesPlugin.cpp</text>
</g>
<!-- Node2 -->
<g id="node2" class="node">
<title>Node2</title>
<g id="a_node2"><a xlink:href="_fbc_species_plugin_8h.html" target="_top" xlink:title="Definition of FbcSpeciesPlugin_t, the plugin class of the fbc package for the Species_t element...">
<polygon fill="#ffffff" stroke="#000000" points="32.5,-257.5 32.5,-287.5 177.5,-287.5 177.5,-257.5 32.5,-257.5"/>
<text text-anchor="start" x="40.5" y="-275.5" font-family="Helvetica,sans-Serif" font-size="10.00" fill="#000000">sbml/packages/fbc/extension</text>
<text text-anchor="middle" x="105" y="-264.5" font-family="Helvetica,sans-Serif" font-size="10.00" fill="#000000">/FbcSpeciesPlugin.h</text>
</a>
</g>
</g>
<!-- Node1&#45;&gt;Node2 -->
<g id="edge1" class="edge">
<title>Node1&#45;&gt;Node2</title>
<path fill="none" stroke="#191970" d="M763.2874,-506.938C648.1876,-492.8842 384.6108,-450.7449 192,-344 167.8996,-330.6436 143.9666,-310.3225 127.3213,-294.7537"/>
<polygon fill="#191970" stroke="#191970" points="129.4173,-291.9159 119.7666,-287.5439 124.5845,-296.9799 129.4173,-291.9159"/>
</g>
<!-- Node7 -->
<g id="node7" class="node">
<title>Node7</title>
<g id="a_node7"><a xlink:href="_fbc_s_b_m_l_error_8h.html" target="_top" xlink:title="Represents SBML errors and other diagnostics. ">
<polygon fill="#ffffff" stroke="#000000" points="567,-436.5 567,-466.5 707,-466.5 707,-436.5 567,-436.5"/>
<text text-anchor="start" x="575" y="-454.5" font-family="Helvetica,sans-Serif" font-size="10.00" fill="#000000">sbml/packages/fbc/validator</text>
<text text-anchor="middle" x="637" y="-443.5" font-family="Helvetica,sans-Serif" font-size="10.00" fill="#000000">/FbcSBMLError.h</text>
</a>
</g>
</g>
<!-- Node1&#45;&gt;Node7 -->
<g id="edge6" class="edge">
<title>Node1&#45;&gt;Node7</title>
<path fill="none" stroke="#191970" d="M792.25,-503.3906C765.3879,-494.4123 724.5825,-480.7735 691.5466,-469.7316"/>
<polygon fill="#191970" stroke="#191970" points="692.6052,-466.3952 682.0115,-466.5446 690.3862,-473.0342 692.6052,-466.3952"/>
</g>
<!-- Node22 -->
<g id="node22" class="node">
<title>Node22</title>
<g id="a_node22"><a xlink:href="_element_filter_8h.html" target="_top" xlink:title="Base class of element filters. ">
<polygon fill="#ffffff" stroke="#000000" points="759.5,-442 759.5,-461 882.5,-461 882.5,-442 759.5,-442"/>
<text text-anchor="middle" x="821" y="-449" font-family="Helvetica,sans-Serif" font-size="10.00" fill="#000000">sbml/util/ElementFilter.h</text>
</a>
</g>
</g>
<!-- Node1&#45;&gt;Node22 -->
<g id="edge36" class="edge">
<title>Node1&#45;&gt;Node22</title>
<path fill="none" stroke="#191970" d="M821,-503.3906C821,-494.8657 821,-482.1392 821,-471.4235"/>
<polygon fill="#191970" stroke="#191970" points="824.5001,-471.2448 821,-461.2449 817.5001,-471.2449 824.5001,-471.2448"/>
</g>
<!-- Node23 -->
<g id="node23" class="node">
<title>Node23</title>
<g id="a_node23"><a xlink:href="_model_8h.html" target="_top" xlink:title="Definition of Model_t. ">
<polygon fill="#ffffff" stroke="#000000" points="918,-324.5 918,-343.5 994,-343.5 994,-324.5 918,-324.5"/>
<text text-anchor="middle" x="956" y="-331.5" font-family="Helvetica,sans-Serif" font-size="10.00" fill="#000000">sbml/Model.h</text>
</a>
</g>
</g>
<!-- Node1&#45;&gt;Node23 -->
<g id="edge37" class="edge">
<title>Node1&#45;&gt;Node23</title>
<path fill="none" stroke="#191970" d="M841.8504,-503.4028C857.3019,-495.4407 878.0192,-482.8698 892,-467 922.3562,-432.5424 941.575,-381.1504 950.3733,-353.4199"/>
<polygon fill="#191970" stroke="#191970" points="953.7613,-354.3085 953.3279,-343.7226 947.0652,-352.2683 953.7613,-354.3085"/>
</g>
<!-- Node25 -->
<g id="node25" class="node">
<title>Node25</title>
<polygon fill="#ffffff" stroke="#bfbfbf" points="956.5,-442 956.5,-461 1011.5,-461 1011.5,-442 956.5,-442"/>
<text text-anchor="middle" x="984" y="-449" font-family="Helvetica,sans-Serif" font-size="10.00" fill="#000000">iostream</text>
</g>
<!-- Node1&#45;&gt;Node25 -->
<g id="edge44" class="edge">
<title>Node1&#45;&gt;Node25</title>
<path fill="none" stroke="#191970" d="M846.4688,-503.3906C874.1005,-492.9652 918.3869,-476.2559 949.2128,-464.6252"/>
<polygon fill="#191970" stroke="#191970" points="950.5894,-467.8467 958.7101,-461.0419 948.1183,-461.2974 950.5894,-467.8467"/>
</g>
<!-- Node3 -->
<g id="node3" class="node">
<title>Node3</title>
<g id="a_node3"><a xlink:href="extern_8h.html" target="_top" xlink:title="Definitions of LIBSBML_EXTERN and related things. ">
<polygon fill="#ffffff" stroke="#000000" points="793,-67.5 793,-86.5 911,-86.5 911,-67.5 793,-67.5"/>
<text text-anchor="middle" x="852" y="-74.5" font-family="Helvetica,sans-Serif" font-size="10.00" fill="#000000">sbml/common/extern.h</text>
</a>
</g>
</g>
<!-- Node2&#45;&gt;Node3 -->
<g id="edge2" class="edge">
<title>Node2&#45;&gt;Node3</title>
<path fill="none" stroke="#191970" d="M120.163,-257.2122C129.3106,-247.4312 140.7511,-234.1498 149,-221 174.2755,-180.7077 153.1086,-150.3821 192,-123 239.4436,-89.5965 623.179,-80.266 782.771,-77.817"/>
<polygon fill="#191970" stroke="#191970" points="783.0062,-81.314 792.953,-77.6655 782.902,-74.3148 783.0062,-81.314"/>
</g>
<!-- Node5 -->
<g id="node5" class="node">
<title>Node5</title>
<polygon fill="#ffffff" stroke="#bfbfbf" points="272.5,-196 272.5,-215 399.5,-215 399.5,-196 272.5,-196"/>
<text text-anchor="middle" x="336" y="-203" font-family="Helvetica,sans-Serif" font-size="10.00" fill="#000000">sbml/common/sbmlfwd.h</text>
</g>
<!-- Node2&#45;&gt;Node5 -->
<g id="edge4" class="edge">
<title>Node2&#45;&gt;Node5</title>
<path fill="none" stroke="#191970" d="M156.8409,-257.4639C197.9915,-245.5284 254.8205,-229.0456 293.3589,-217.8678"/>
<polygon fill="#191970" stroke="#191970" points="294.5989,-221.1524 303.228,-215.0053 292.6489,-214.4295 294.5989,-221.1524"/>
</g>
<!-- Node6 -->
<g id="node6" class="node">
<title>Node6</title>
<g id="a_node6"><a xlink:href="fbcfwd_8h.html" target="_top" xlink:title="Implementation of the fbcfwd class. ">
<polygon fill="#ffffff" stroke="#000000" points="0,-190.5 0,-220.5 140,-220.5 140,-190.5 0,-190.5"/>
<text text-anchor="start" x="8" y="-208.5" font-family="Helvetica,sans-Serif" font-size="10.00" fill="#000000">sbml/packages/fbc/common</text>
<text text-anchor="middle" x="70" y="-197.5" font-family="Helvetica,sans-Serif" font-size="10.00" fill="#000000">/fbcfwd.h</text>
</a>
</g>
</g>
<!-- Node2&#45;&gt;Node6 -->
<g id="edge5" class="edge">
<title>Node2&#45;&gt;Node6</title>
<path fill="none" stroke="#191970" d="M97.058,-257.2967C92.8067,-249.1586 87.47,-238.9425 82.662,-229.7386"/>
<polygon fill="#191970" stroke="#191970" points="85.6431,-227.8861 77.9106,-220.6432 79.4386,-231.1273 85.6431,-227.8861"/>
</g>
<!-- Node4 -->
<g id="node4" class="node">
<title>Node4</title>
<g id="a_node4"><a xlink:href="libsbml-namespace_8h.html" target="_top" xlink:title="Defines C++ namespace of libSBML. ">
<polygon fill="#ffffff" stroke="#000000" points="795.5,-.5 795.5,-30.5 908.5,-30.5 908.5,-.5 795.5,-.5"/>
<text text-anchor="start" x="803.5" y="-18.5" font-family="Helvetica,sans-Serif" font-size="10.00" fill="#000000">sbml/common/libsbml</text>
<text text-anchor="middle" x="852" y="-7.5" font-family="Helvetica,sans-Serif" font-size="10.00" fill="#000000">&#45;namespace.h</text>
</a>
</g>
</g>
<!-- Node3&#45;&gt;Node4 -->
<g id="edge3" class="edge">
<title>Node3&#45;&gt;Node4</title>
<path fill="none" stroke="#191970" d="M852,-67.3906C852,-60.2234 852,-50.0862 852,-40.671"/>
<polygon fill="#191970" stroke="#191970" points="855.5001,-40.5446 852,-30.5446 848.5001,-40.5446 855.5001,-40.5446"/>
</g>
<!-- Node7&#45;&gt;Node3 -->
<g id="edge7" class="edge">
<title>Node7&#45;&gt;Node3</title>
<path fill="none" stroke="#191970" d="M696.6371,-436.4697C771.435,-415.8362 890,-376.4363 890,-334 890,-334 890,-334 890,-205.5 890,-165.195 872.596,-120.5903 861.3445,-95.9654"/>
<polygon fill="#191970" stroke="#191970" points="864.4056,-94.2511 856.9678,-86.7058 858.0769,-97.2425 864.4056,-94.2511"/>
</g>
<!-- Node8 -->
<g id="node8" class="node">
<title>Node8</title>
<g id="a_node8"><a xlink:href="_s_b_m_l_error_8h.html" target="_top" xlink:title="Represents SBML errors and other diagnostics. ">
<polygon fill="#ffffff" stroke="#000000" points="479,-380.5 479,-399.5 577,-399.5 577,-380.5 479,-380.5"/>
<text text-anchor="middle" x="528" y="-387.5" font-family="Helvetica,sans-Serif" font-size="10.00" fill="#000000">sbml/SBMLError.h</text>
</a>
</g>
</g>
<!-- Node7&#45;&gt;Node8 -->
<g id="edge8" class="edge">
<title>Node7&#45;&gt;Node8</title>
<path fill="none" stroke="#191970" d="M610.3356,-436.4554C593.1059,-426.734 570.8025,-414.15 553.7554,-404.5317"/>
<polygon fill="#191970" stroke="#191970" points="555.3204,-401.3961 544.8911,-399.5303 551.8806,-407.4926 555.3204,-401.3961"/>
</g>
<!-- Node14 -->
<g id="node14" class="node">
<title>Node14</title>
<g id="a_node14"><a xlink:href="_s_b_m_l_namespaces_8h.html" target="_top" xlink:title="SBMLNamespaces_t class to store level/version and namespace. ">
<polygon fill="#ffffff" stroke="#000000" points="557,-324.5 557,-343.5 691,-343.5 691,-324.5 557,-324.5"/>
<text text-anchor="middle" x="624" y="-331.5" font-family="Helvetica,sans-Serif" font-size="10.00" fill="#000000">sbml/SBMLNamespaces.h</text>
</a>
</g>
</g>
<!-- Node7&#45;&gt;Node14 -->
<g id="edge35" class="edge">
<title>Node7&#45;&gt;Node14</title>
<path fill="none" stroke="#191970" d="M635.3005,-436.1389C632.9583,-414.9692 628.7372,-376.8174 626.1697,-353.6112"/>
<polygon fill="#191970" stroke="#191970" points="629.6362,-353.1139 625.0576,-343.5595 622.6786,-353.8837 629.6362,-353.1139"/>
</g>
<!-- Node8&#45;&gt;Node3 -->
<g id="edge9" class="edge">
<title>Node8&#45;&gt;Node3</title>
<path fill="none" stroke="#191970" d="M478.7446,-382.5292C388.5428,-367.4507 206,-329.8512 206,-272.5 206,-272.5 206,-272.5 206,-205.5 206,-147.1874 616.1329,-100.2189 782.8158,-83.5382"/>
<polygon fill="#191970" stroke="#191970" points="783.3543,-87.002 792.9593,-82.5305 782.6622,-80.0363 783.3543,-87.002"/>
</g>
<!-- Node9 -->
<g id="node9" class="node">
<title>Node9</title>
<g id="a_node9"><a xlink:href="_x_m_l_error_8h.html" target="_top" xlink:title="Represents errors (and messages) encountered during an XML parse. ">
<polygon fill="#ffffff" stroke="#000000" points="380,-263 380,-282 490,-282 490,-263 380,-263"/>
<text text-anchor="middle" x="435" y="-270" font-family="Helvetica,sans-Serif" font-size="10.00" fill="#000000">sbml/xml/XMLError.h</text>
</a>
</g>
</g>
<!-- Node8&#45;&gt;Node9 -->
<g id="edge10" class="edge">
<title>Node8&#45;&gt;Node9</title>
<path fill="none" stroke="#191970" d="M520.3894,-380.3845C504.7895,-360.6749 468.9809,-315.4328 449.0459,-290.2461"/>
<polygon fill="#191970" stroke="#191970" points="451.6664,-287.9174 442.7157,-282.2484 446.1775,-292.2617 451.6664,-287.9174"/>
</g>
<!-- Node8&#45;&gt;Node14 -->
<g id="edge19" class="edge">
<title>Node8&#45;&gt;Node14</title>
<path fill="none" stroke="#191970" d="M544.7219,-380.2455C559.5889,-371.5731 581.5466,-358.7645 598.5858,-348.825"/>
<polygon fill="#191970" stroke="#191970" points="600.5955,-351.7047 607.4697,-343.6427 597.0683,-345.6582 600.5955,-351.7047"/>
</g>
<!-- Node9&#45;&gt;Node5 -->
<g id="edge14" class="edge">
<title>Node9&#45;&gt;Node5</title>
<path fill="none" stroke="#191970" d="M420.8157,-262.9005C404.5689,-251.9052 377.7309,-233.7422 358.5966,-220.7927"/>
<polygon fill="#191970" stroke="#191970" points="360.4014,-217.7879 350.158,-215.0817 356.478,-223.5851 360.4014,-217.7879"/>
</g>
<!-- Node10 -->
<g id="node10" class="node">
<title>Node10</title>
<polygon fill="#ffffff" stroke="#bfbfbf" points="606,-129 606,-148 652,-148 652,-129 606,-129"/>
<text text-anchor="middle" x="629" y="-136" font-family="Helvetica,sans-Serif" font-size="10.00" fill="#000000">stdio.h</text>
</g>
<!-- Node9&#45;&gt;Node10 -->
<g id="edge11" class="edge">
<title>Node9&#45;&gt;Node10</title>
<path fill="none" stroke="#191970" d="M379.951,-265.5438C316.3851,-255.3566 225.1205,-232.7656 263,-190 306.9353,-140.3975 493.6868,-165.1758 559,-154 571.1461,-151.9217 584.3666,-149.1327 596.014,-146.4936"/>
<polygon fill="#191970" stroke="#191970" points="596.8244,-149.8987 605.7781,-144.2346 595.2465,-143.0788 596.8244,-149.8987"/>
</g>
<!-- Node11 -->
<g id="node11" class="node">
<title>Node11</title>
<g id="a_node11"><a xlink:href="_x_m_l_extern_8h.html" target="_top" xlink:title="Defines LIBLAX_EXTERN. ">
<polygon fill="#ffffff" stroke="#000000" points="417.5,-196 417.5,-215 534.5,-215 534.5,-196 417.5,-196"/>
<text text-anchor="middle" x="476" y="-203" font-family="Helvetica,sans-Serif" font-size="10.00" fill="#000000">sbml/xml/XMLExtern.h</text>
</a>
</g>
</g>
<!-- Node9&#45;&gt;Node11 -->
<g id="edge12" class="edge">
<title>Node9&#45;&gt;Node11</title>
<path fill="none" stroke="#191970" d="M440.8743,-262.9005C447.0852,-252.751 457.0335,-236.4941 464.7599,-223.8679"/>
<polygon fill="#191970" stroke="#191970" points="467.9023,-225.4382 470.1366,-215.0817 461.9315,-221.7844 467.9023,-225.4382"/>
</g>
<!-- Node12 -->
<g id="node12" class="node">
<title>Node12</title>
<g id="a_node12"><a xlink:href="util_8h.html" target="_top" xlink:title="Utility functions. ">
<polygon fill="#ffffff" stroke="#000000" points="552.5,-196 552.5,-215 629.5,-215 629.5,-196 552.5,-196"/>
<text text-anchor="middle" x="591" y="-203" font-family="Helvetica,sans-Serif" font-size="10.00" fill="#000000">sbml/util/util.h</text>
</a>
</g>
</g>
<!-- Node9&#45;&gt;Node12 -->
<g id="edge15" class="edge">
<title>Node9&#45;&gt;Node12</title>
<path fill="none" stroke="#191970" d="M457.351,-262.9005C484.1105,-251.4077 529.1035,-232.0838 559.4089,-219.068"/>
<polygon fill="#191970" stroke="#191970" points="560.8833,-222.244 568.6905,-215.0817 558.1208,-215.8121 560.8833,-222.244"/>
</g>
<!-- Node11&#45;&gt;Node4 -->
<g id="edge13" class="edge">
<title>Node11&#45;&gt;Node4</title>
<path fill="none" stroke="#191970" d="M474.2145,-195.7665C471.7031,-178.8225 469.2304,-143.7381 487,-123 525.724,-77.807 690.7572,-42.9764 785.1114,-26.3097"/>
<polygon fill="#191970" stroke="#191970" points="785.8849,-29.7277 795.1343,-24.5606 784.6815,-22.8319 785.8849,-29.7277"/>
</g>
<!-- Node12&#45;&gt;Node3 -->
<g id="edge18" class="edge">
<title>Node12&#45;&gt;Node3</title>
<path fill="none" stroke="#191970" d="M588.3525,-195.9222C584.287,-178.9053 578.7542,-143.2875 597,-123 621.2137,-96.0767 715.8144,-84.824 782.7009,-80.1799"/>
<polygon fill="#191970" stroke="#191970" points="783.0214,-83.6665 792.7693,-79.5157 782.5606,-76.6817 783.0214,-83.6665"/>
</g>
<!-- Node12&#45;&gt;Node10 -->
<g id="edge16" class="edge">
<title>Node12&#45;&gt;Node10</title>
<path fill="none" stroke="#191970" d="M596.4445,-195.9005C602.2009,-185.751 611.4213,-169.4941 618.5824,-156.8679"/>
<polygon fill="#191970" stroke="#191970" points="621.6766,-158.5067 623.5656,-148.0817 615.5877,-155.0533 621.6766,-158.5067"/>
</g>
<!-- Node13 -->
<g id="node13" class="node">
<title>Node13</title>
<polygon fill="#ffffff" stroke="#bfbfbf" points="496.5,-129 496.5,-148 549.5,-148 549.5,-129 496.5,-129"/>
<text text-anchor="middle" x="523" y="-136" font-family="Helvetica,sans-Serif" font-size="10.00" fill="#000000">stdarg.h</text>
</g>
<!-- Node12&#45;&gt;Node13 -->
<g id="edge17" class="edge">
<title>Node12&#45;&gt;Node13</title>
<path fill="none" stroke="#191970" d="M581.2573,-195.9005C570.5523,-185.353 553.153,-168.2096 540.1521,-155.3998"/>
<polygon fill="#191970" stroke="#191970" points="542.3044,-152.607 532.7247,-148.0817 537.3915,-157.5933 542.3044,-152.607"/>
</g>
<!-- Node15 -->
<g id="node15" class="node">
<title>Node15</title>
<g id="a_node15"><a xlink:href="_x_m_l_namespaces_8h.html" target="_top" xlink:title="A list of XMLNamespace declarations (URI/prefix pairs) ">
<polygon fill="#ffffff" stroke="#000000" points="546,-263 546,-282 692,-282 692,-263 546,-263"/>
<text text-anchor="middle" x="619" y="-270" font-family="Helvetica,sans-Serif" font-size="10.00" fill="#000000">sbml/xml/XMLNamespaces.h</text>
</a>
</g>
</g>
<!-- Node14&#45;&gt;Node15 -->
<g id="edge20" class="edge">
<title>Node14&#45;&gt;Node15</title>
<path fill="none" stroke="#191970" d="M623.2188,-324.3906C622.5257,-315.8657 621.491,-303.1392 620.6198,-292.4235"/>
<polygon fill="#191970" stroke="#191970" points="624.0912,-291.9283 619.7923,-282.2449 617.1142,-292.4956 624.0912,-291.9283"/>
</g>
<!-- Node17 -->
<g id="node17" class="node">
<title>Node17</title>
<g id="a_node17"><a xlink:href="common_8h.html" target="_top" xlink:title="Common functions and macros for C and C++. ">
<polygon fill="#ffffff" stroke="#000000" points="710,-263 710,-282 838,-282 838,-263 710,-263"/>
<text text-anchor="middle" x="774" y="-270" font-family="Helvetica,sans-Serif" font-size="10.00" fill="#000000">sbml/common/common.h</text>
</a>
</g>
</g>
<!-- Node14&#45;&gt;Node17 -->
<g id="edge25" class="edge">
<title>Node14&#45;&gt;Node17</title>
<path fill="none" stroke="#191970" d="M647.4375,-324.3906C672.6453,-314.0554 712.9153,-297.5447 741.2477,-285.9284"/>
<polygon fill="#191970" stroke="#191970" points="742.8023,-289.0739 750.7271,-282.0419 740.1468,-282.5971 742.8023,-289.0739"/>
</g>
<!-- Node15&#45;&gt;Node5 -->
<g id="edge22" class="edge">
<title>Node15&#45;&gt;Node5</title>
<path fill="none" stroke="#191970" d="M578.7535,-262.9717C528.1857,-250.9998 441.3876,-230.4504 386.4393,-217.4415"/>
<polygon fill="#191970" stroke="#191970" points="387.1032,-214.002 376.5658,-215.1039 385.4905,-220.8137 387.1032,-214.002"/>
</g>
<!-- Node15&#45;&gt;Node11 -->
<g id="edge21" class="edge">
<title>Node15&#45;&gt;Node11</title>
<path fill="none" stroke="#191970" d="M598.5116,-262.9005C574.1944,-251.5072 533.4514,-232.4178 505.6831,-219.4075"/>
<polygon fill="#191970" stroke="#191970" points="506.9907,-216.1551 496.4504,-215.0817 504.0208,-222.4938 506.9907,-216.1551"/>
</g>
<!-- Node16 -->
<g id="node16" class="node">
<title>Node16</title>
<g id="a_node16"><a xlink:href="operation_return_values_8h.html" target="_top" xlink:title="Enumeration of values returned by operations within libSBML. ">
<polygon fill="#ffffff" stroke="#000000" points="670.5,-123.5 670.5,-153.5 823.5,-153.5 823.5,-123.5 670.5,-123.5"/>
<text text-anchor="start" x="678.5" y="-141.5" font-family="Helvetica,sans-Serif" font-size="10.00" fill="#000000">sbml/common/operationReturn</text>
<text text-anchor="middle" x="747" y="-130.5" font-family="Helvetica,sans-Serif" font-size="10.00" fill="#000000">Values.h</text>
</a>
</g>
</g>
<!-- Node15&#45;&gt;Node16 -->
<g id="edge23" class="edge">
<title>Node15&#45;&gt;Node16</title>
<path fill="none" stroke="#191970" d="M628.2054,-262.8631C648.4117,-241.7096 697.1035,-190.7354 725.4798,-161.0289"/>
<polygon fill="#191970" stroke="#191970" points="728.1891,-163.2597 732.5656,-153.611 723.1273,-158.4246 728.1891,-163.2597"/>
</g>
<!-- Node16&#45;&gt;Node3 -->
<g id="edge24" class="edge">
<title>Node16&#45;&gt;Node3</title>
<path fill="none" stroke="#191970" d="M772.6859,-123.4554C789.1297,-113.8241 810.3708,-101.3828 826.7323,-91.7996"/>
<polygon fill="#191970" stroke="#191970" points="828.8688,-94.6045 835.7287,-86.5303 825.331,-88.5643 828.8688,-94.6045"/>
</g>
<!-- Node17&#45;&gt;Node3 -->
<g id="edge32" class="edge">
<title>Node17&#45;&gt;Node3</title>
<path fill="none" stroke="#191970" d="M790.4651,-262.9251C804.2654,-253.9542 823.2341,-239.2135 833,-221 854.46,-180.9767 855.1293,-125.9999 853.6394,-96.9164"/>
<polygon fill="#191970" stroke="#191970" points="857.1229,-96.5482 852.9756,-86.7988 850.1379,-97.0066 857.1229,-96.5482"/>
</g>
<!-- Node17&#45;&gt;Node10 -->
<g id="edge31" class="edge">
<title>Node17&#45;&gt;Node10</title>
<path fill="none" stroke="#191970" d="M762.5498,-262.7832C750.5594,-252.5436 731.2488,-235.8703 715,-221 690.8654,-198.9129 663.7345,-172.6355 646.5167,-155.771"/>
<polygon fill="#191970" stroke="#191970" points="648.5044,-152.8174 638.9172,-148.3078 643.5996,-157.8118 648.5044,-152.8174"/>
</g>
<!-- Node17&#45;&gt;Node12 -->
<g id="edge34" class="edge">
<title>Node17&#45;&gt;Node12</title>
<path fill="none" stroke="#191970" d="M747.7806,-262.9005C715.9819,-251.2584 662.2349,-231.5805 626.6825,-218.5641"/>
<polygon fill="#191970" stroke="#191970" points="627.7646,-215.2331 617.1708,-215.0817 625.3579,-221.8064 627.7646,-215.2331"/>
</g>
<!-- Node18 -->
<g id="node18" class="node">
<title>Node18</title>
<g id="a_node18"><a xlink:href="libsbml-config_8h.html" target="_top" xlink:title="Decides whether to #include Unix or Windows configuration variables. ">
<polygon fill="#ffffff" stroke="#000000" points="1025.5,-190.5 1025.5,-220.5 1138.5,-220.5 1138.5,-190.5 1025.5,-190.5"/>
<text text-anchor="start" x="1033.5" y="-208.5" font-family="Helvetica,sans-Serif" font-size="10.00" fill="#000000">sbml/common/libsbml</text>
<text text-anchor="middle" x="1082" y="-197.5" font-family="Helvetica,sans-Serif" font-size="10.00" fill="#000000">&#45;config.h</text>
</a>
</g>
</g>
<!-- Node17&#45;&gt;Node18 -->
<g id="edge26" class="edge">
<title>Node17&#45;&gt;Node18</title>
<path fill="none" stroke="#191970" d="M817.8018,-262.9717C869.2972,-251.7698 955.3144,-233.0582 1015.1558,-220.0408"/>
<polygon fill="#191970" stroke="#191970" points="1016.2395,-223.387 1025.267,-217.8413 1014.7515,-216.5469 1016.2395,-223.387"/>
</g>
<!-- Node21 -->
<g id="node21" class="node">
<title>Node21</title>
<g id="a_node21"><a xlink:href="memory_8h.html" target="_top" xlink:title="sbml/util/memory.h">
<polygon fill="#ffffff" stroke="#000000" points="724,-196 724,-215 824,-215 824,-196 724,-196"/>
<text text-anchor="middle" x="774" y="-203" font-family="Helvetica,sans-Serif" font-size="10.00" fill="#000000">sbml/util/memory.h</text>
</a>
</g>
</g>
<!-- Node17&#45;&gt;Node21 -->
<g id="edge33" class="edge">
<title>Node17&#45;&gt;Node21</title>
<path fill="none" stroke="#191970" d="M774,-262.9005C774,-253.149 774,-237.7597 774,-225.3695"/>
<polygon fill="#191970" stroke="#191970" points="777.5001,-225.0816 774,-215.0817 770.5001,-225.0817 777.5001,-225.0816"/>
</g>
<!-- Node18&#45;&gt;Node4 -->
<g id="edge27" class="edge">
<title>Node18&#45;&gt;Node4</title>
<path fill="none" stroke="#191970" d="M1097.0122,-190.3334C1112.1976,-173.0927 1131.5143,-144.5509 1117,-123 1073.0609,-57.7588 982.0124,-32.0967 918.9922,-22.0125"/>
<polygon fill="#191970" stroke="#191970" points="919.1503,-18.497 908.7407,-20.469 918.1081,-25.4189 919.1503,-18.497"/>
</g>
<!-- Node19 -->
<g id="node19" class="node">
<title>Node19</title>
<g id="a_node19"><a xlink:href="libsbml-config-common_8h.html" target="_top" xlink:title="Configuration variables. ">
<polygon fill="#ffffff" stroke="#000000" points="1164.5,-123.5 1164.5,-153.5 1277.5,-153.5 1277.5,-123.5 1164.5,-123.5"/>
<text text-anchor="start" x="1172.5" y="-141.5" font-family="Helvetica,sans-Serif" font-size="10.00" fill="#000000">sbml/common/libsbml</text>
<text text-anchor="middle" x="1221" y="-130.5" font-family="Helvetica,sans-Serif" font-size="10.00" fill="#000000">&#45;config&#45;common.h</text>
</a>
</g>
</g>
<!-- Node18&#45;&gt;Node19 -->
<g id="edge28" class="edge">
<title>Node18&#45;&gt;Node19</title>
<path fill="none" stroke="#191970" d="M1113.1943,-190.4639C1132.9961,-180.9191 1158.8312,-168.4663 1180.2461,-158.144"/>
<polygon fill="#191970" stroke="#191970" points="1181.9405,-161.2127 1189.4289,-153.7177 1178.901,-154.907 1181.9405,-161.2127"/>
</g>
<!-- Node20 -->
<g id="node20" class="node">
<title>Node20</title>
<g id="a_node20"><a xlink:href="libsbml-version_8h.html" target="_top" xlink:title="Define libSBML version numbers for access from client software. ">
<polygon fill="#ffffff" stroke="#000000" points="994.5,-123.5 994.5,-153.5 1107.5,-153.5 1107.5,-123.5 994.5,-123.5"/>
<text text-anchor="start" x="1002.5" y="-141.5" font-family="Helvetica,sans-Serif" font-size="10.00" fill="#000000">sbml/common/libsbml</text>
<text text-anchor="middle" x="1051" y="-130.5" font-family="Helvetica,sans-Serif" font-size="10.00" fill="#000000">&#45;version.h</text>
</a>
</g>
</g>
<!-- Node18&#45;&gt;Node20 -->
<g id="edge29" class="edge">
<title>Node18&#45;&gt;Node20</title>
<path fill="none" stroke="#191970" d="M1074.9656,-190.2967C1071.2003,-182.1586 1066.4734,-171.9425 1062.2149,-162.7386"/>
<polygon fill="#191970" stroke="#191970" points="1065.3822,-161.2491 1058.0065,-153.6432 1059.0293,-164.1885 1065.3822,-161.2491"/>
</g>
<!-- Node20&#45;&gt;Node3 -->
<g id="edge30" class="edge">
<title>Node20&#45;&gt;Node3</title>
<path fill="none" stroke="#191970" d="M1002.3191,-123.4554C968.6786,-113.059 924.4438,-99.3884 892.6825,-89.5727"/>
<polygon fill="#191970" stroke="#191970" points="893.4255,-86.1391 882.8379,-86.5303 891.3586,-92.827 893.4255,-86.1391"/>
</g>
<!-- Node23&#45;&gt;Node3 -->
<g id="edge39" class="edge">
<title>Node23&#45;&gt;Node3</title>
<path fill="none" stroke="#191970" d="M954.3954,-324.2663C948.2365,-287.6328 925.3847,-158.3466 904,-123 896.7859,-111.076 885.4807,-100.5393 875.2515,-92.5692"/>
<polygon fill="#191970" stroke="#191970" points="877.1513,-89.6215 867.0255,-86.5039 872.9971,-95.2556 877.1513,-89.6215"/>
</g>
<!-- Node23&#45;&gt;Node5 -->
<g id="edge40" class="edge">
<title>Node23&#45;&gt;Node5</title>
<path fill="none" stroke="#191970" d="M917.7036,-332.5647C827.7335,-328.7518 605.3373,-316.6368 537,-288 516.8978,-279.5761 518.1781,-267.3568 499,-257 465.2775,-238.7887 424.0985,-225.8455 391.5675,-217.4897"/>
<polygon fill="#191970" stroke="#191970" points="392.3172,-214.0695 381.7672,-215.043 390.6216,-220.861 392.3172,-214.0695"/>
</g>
<!-- Node23&#45;&gt;Node18 -->
<g id="edge38" class="edge">
<title>Node23&#45;&gt;Node18</title>
<path fill="none" stroke="#191970" d="M994.0642,-326.3962C1030.3791,-318.2775 1081.2451,-304.3468 1093,-288 1104.9179,-271.4266 1100.3321,-248.0209 1093.8283,-230.3709"/>
<polygon fill="#191970" stroke="#191970" points="1096.9137,-228.6691 1089.8876,-220.7391 1090.4349,-231.3198 1096.9137,-228.6691"/>
</g>
<!-- Node24 -->
<g id="node24" class="node">
<title>Node24</title>
<g id="a_node24"><a xlink:href="_s_b_m_l_type_codes_8h.html" target="_top" xlink:title="Enumeration to identify SBML objects at runtime. ">
<polygon fill="#ffffff" stroke="#000000" points="956.5,-263 956.5,-282 1083.5,-282 1083.5,-263 956.5,-263"/>
<text text-anchor="middle" x="1020" y="-270" font-family="Helvetica,sans-Serif" font-size="10.00" fill="#000000">sbml/SBMLTypeCodes.h</text>
</a>
</g>
</g>
<!-- Node23&#45;&gt;Node24 -->
<g id="edge41" class="edge">
<title>Node23&#45;&gt;Node24</title>
<path fill="none" stroke="#191970" d="M966,-324.3906C975.7119,-315.0581 990.6639,-300.6902 1002.3741,-289.4374"/>
<polygon fill="#191970" stroke="#191970" points="1005.0736,-291.6974 1009.859,-282.2449 1000.2234,-286.65 1005.0736,-291.6974"/>
</g>
<!-- Node24&#45;&gt;Node3 -->
<g id="edge43" class="edge">
<title>Node24&#45;&gt;Node3</title>
<path fill="none" stroke="#191970" d="M1017.2504,-262.8551C1009.4706,-237.0813 985.0297,-165.6701 942,-123 927.597,-108.7174 907.8513,-97.9543 890.5242,-90.4443"/>
<polygon fill="#191970" stroke="#191970" points="891.7757,-87.1746 881.1962,-86.6051 889.1114,-93.6478 891.7757,-87.1746"/>
</g>
<!-- Node24&#45;&gt;Node18 -->
<g id="edge42" class="edge">
<title>Node24&#45;&gt;Node18</title>
<path fill="none" stroke="#191970" d="M1028.8831,-262.9005C1037.288,-253.8178 1050.2188,-239.8442 1061.2175,-227.9585"/>
<polygon fill="#191970" stroke="#191970" points="1063.8762,-230.2386 1068.0993,-220.5218 1058.7385,-225.4842 1063.8762,-230.2386"/>
</g>
</g>
</svg>
