<?xml version="1.0" encoding="UTF-8" standalone="no"?>
<!DOCTYPE svg PUBLIC "-//W3C//DTD SVG 1.1//EN"
 "http://www.w3.org/Graphics/SVG/1.1/DTD/svg11.dtd">
<!-- Generated by graphviz version 2.40.1 (20161225.0304)
 -->
<!-- Title: FluxObjective.cpp Pages: 1 -->
<!--zoomable 542 -->
<svg id="main" version="1.1" xmlns="http://www.w3.org/2000/svg" xmlns:xlink="http://www.w3.org/1999/xlink" xml:space="preserve" onload="init(evt)">
<style type="text/css"><![CDATA[
.edge:hover path { stroke: red; }
.edge:hover polygon { stroke: red; fill: red; }
]]></style>
<script type="text/javascript"><![CDATA[
var edges = document.getElementsByTagName('g');
if (edges && edges.length) {
  for (var i=0;i<edges.length;i++) {
    if (edges[i].id.substr(0,4)=='edge') {
      edges[i].setAttribute('class','edge');
    }
  }
}
]]></script>
        <defs>
                <circle id="rim" cx="0" cy="0" r="7"/>
                <circle id="rim2" cx="0" cy="0" r="3.5"/>
                <g id="zoomPlus">
                        <use xlink:href="#rim" fill="#404040">
                                <set attributeName="fill" to="#808080" begin="zoomplus.mouseover" end="zoomplus.mouseout"/>
                        </use>
                        <path d="M-4,0h8M0,-4v8" fill="none" stroke="white" stroke-width="1.5" pointer-events="none"/>
                </g>
                <g id="zoomMin">
                        <use xlink:href="#rim" fill="#404040">
                                <set attributeName="fill" to="#808080" begin="zoomminus.mouseover" end="zoomminus.mouseout"/>
                        </use>
                        <path d="M-4,0h8" fill="none" stroke="white" stroke-width="1.5" pointer-events="none"/>
                </g>
                <g id="dirArrow">
                        <path fill="none" stroke="white" stroke-width="1.5" d="M0,-3.0v7 M-2.5,-0.5L0,-3.0L2.5,-0.5"/>
                </g>
               <g id="resetDef">
                       <use xlink:href="#rim2" fill="#404040">
                               <set attributeName="fill" to="#808080" begin="reset.mouseover" end="reset.mouseout"/>
                       </use>
               </g>
        </defs>

<script type="text/javascript">
var viewWidth = 1663;
var viewHeight = 542;
var sectionId = 'dynsection-0';
</script>
<script xlink:href="svgpan.js"/>
<svg id="graph" class="graph">
<g id="viewport">
<title>FluxObjective.cpp</title>
<polygon fill="#ffffff" stroke="transparent" points="-4,4 -4,-538 1659,-538 1659,4 -4,4"/>
<!-- Node1 -->
<g id="node1" class="node">
<title>Node1</title>
<polygon fill="#bfbfbf" stroke="#000000" points="368.5,-514.5 368.5,-533.5 464.5,-533.5 464.5,-514.5 368.5,-514.5"/>
<text text-anchor="middle" x="416.5" y="-521.5" font-family="Helvetica,sans-Serif" font-size="10.00" fill="#000000">FluxObjective.cpp</text>
</g>
<!-- Node2 -->
<g id="node2" class="node">
<title>Node2</title>
<polygon fill="#ffffff" stroke="#bfbfbf" points="0,-453 0,-472 55,-472 55,-453 0,-453"/>
<text text-anchor="middle" x="27.5" y="-460" font-family="Helvetica,sans-Serif" font-size="10.00" fill="#000000">iostream</text>
</g>
<!-- Node1&#45;&gt;Node2 -->
<g id="edge1" class="edge">
<title>Node1&#45;&gt;Node2</title>
<path fill="none" stroke="#191970" d="M368.2806,-521.9391C299.5298,-518.0563 169.8779,-507.2205 63.5,-478 61.1747,-477.3613 58.8034,-476.6024 56.4432,-475.7688"/>
<polygon fill="#191970" stroke="#191970" points="57.5386,-472.4387 46.9514,-472.0384 54.9781,-478.9537 57.5386,-472.4387"/>
</g>
<!-- Node3 -->
<g id="node3" class="node">
<title>Node3</title>
<polygon fill="#ffffff" stroke="#bfbfbf" points="73,-453 73,-472 112,-472 112,-453 73,-453"/>
<text text-anchor="middle" x="92.5" y="-460" font-family="Helvetica,sans-Serif" font-size="10.00" fill="#000000">limits</text>
</g>
<!-- Node1&#45;&gt;Node3 -->
<g id="edge2" class="edge">
<title>Node1&#45;&gt;Node3</title>
<path fill="none" stroke="#191970" d="M368.3315,-521.4524C308.9444,-517.1945 205.5593,-506.1149 121.5,-478 120.0788,-477.5247 118.6442,-476.9838 117.2138,-476.396"/>
<polygon fill="#191970" stroke="#191970" points="118.5577,-473.1595 108.0233,-472.0288 115.5533,-479.482 118.5577,-473.1595"/>
</g>
<!-- Node4 -->
<g id="node4" class="node">
<title>Node4</title>
<g id="a_node4"><a xlink:href="_s_b_m_l_visitor_8h.html" target="_top" xlink:title="Visitor Design Pattern for the SBML object tree. ">
<polygon fill="#ffffff" stroke="#000000" points="130.5,-453 130.5,-472 234.5,-472 234.5,-453 130.5,-453"/>
<text text-anchor="middle" x="182.5" y="-460" font-family="Helvetica,sans-Serif" font-size="10.00" fill="#000000">sbml/SBMLVisitor.h</text>
</a>
</g>
</g>
<!-- Node1&#45;&gt;Node4 -->
<g id="edge3" class="edge">
<title>Node1&#45;&gt;Node4</title>
<path fill="none" stroke="#191970" d="M380.1942,-514.4581C339.3781,-503.7308 273.0162,-486.2895 228.577,-474.61"/>
<polygon fill="#191970" stroke="#191970" points="229.4522,-471.2212 218.8909,-472.0643 227.6728,-477.9913 229.4522,-471.2212"/>
</g>
<!-- Node5 -->
<g id="node5" class="node">
<title>Node5</title>
<g id="a_node5"><a xlink:href="_x_m_l_node_8h.html" target="_top" xlink:title="Class definition of XMLNode_t, a node in an XML document tree. ">
<polygon fill="#ffffff" stroke="#000000" points="276.5,-391.5 276.5,-410.5 388.5,-410.5 388.5,-391.5 276.5,-391.5"/>
<text text-anchor="middle" x="332.5" y="-398.5" font-family="Helvetica,sans-Serif" font-size="10.00" fill="#000000">sbml/xml/XMLNode.h</text>
</a>
</g>
</g>
<!-- Node1&#45;&gt;Node5 -->
<g id="edge4" class="edge">
<title>Node1&#45;&gt;Node5</title>
<path fill="none" stroke="#191970" d="M409.9087,-514.3484C395.8622,-493.7804 362.7944,-445.3596 344.7578,-418.9489"/>
<polygon fill="#191970" stroke="#191970" points="347.5907,-416.8909 339.0607,-410.6068 341.8101,-420.8387 347.5907,-416.8909"/>
</g>
<!-- Node8 -->
<g id="node8" class="node">
<title>Node8</title>
<g id="a_node8"><a xlink:href="_x_m_l_token_8h.html" target="_top" xlink:title="A unit of XML syntax, either an XML element or text. ">
<polygon fill="#ffffff" stroke="#000000" points="278,-330 278,-349 393,-349 393,-330 278,-330"/>
<text text-anchor="middle" x="335.5" y="-337" font-family="Helvetica,sans-Serif" font-size="10.00" fill="#000000">sbml/xml/XMLToken.h</text>
</a>
</g>
</g>
<!-- Node1&#45;&gt;Node8 -->
<g id="edge18" class="edge">
<title>Node1&#45;&gt;Node8</title>
<path fill="none" stroke="#191970" d="M417.3895,-514.2328C419.0293,-491.1582 420.4915,-432.1254 397.5,-391 389.1226,-376.0152 374.5348,-363.5648 361.6134,-354.6613"/>
<polygon fill="#191970" stroke="#191970" points="363.3215,-351.597 353.0308,-349.0764 359.5036,-357.4642 363.3215,-351.597"/>
</g>
<!-- Node9 -->
<g id="node9" class="node">
<title>Node9</title>
<g id="a_node9"><a xlink:href="_x_m_l_attributes_8h.html" target="_top" xlink:title="XMLAttributes_t are a list of name/value pairs for XML elements. ">
<polygon fill="#ffffff" stroke="#000000" points="332.5,-263 332.5,-282 462.5,-282 462.5,-263 332.5,-263"/>
<text text-anchor="middle" x="397.5" y="-270" font-family="Helvetica,sans-Serif" font-size="10.00" fill="#000000">sbml/xml/XMLAttributes.h</text>
</a>
</g>
</g>
<!-- Node1&#45;&gt;Node9 -->
<g id="edge19" class="edge">
<title>Node1&#45;&gt;Node9</title>
<path fill="none" stroke="#191970" d="M392.9361,-514.3983C358.0045,-498.7082 293.7834,-463.9201 267.5,-411 259.4887,-394.8697 243.1251,-360.8573 268.5,-324 281.7817,-304.7081 303.5543,-292.6418 325.4629,-285.0952"/>
<polygon fill="#191970" stroke="#191970" points="326.687,-288.3792 335.171,-282.0331 324.5813,-281.7034 326.687,-288.3792"/>
</g>
<!-- Node13 -->
<g id="node13" class="node">
<title>Node13</title>
<g id="a_node13"><a xlink:href="_x_m_l_input_stream_8h.html" target="_top" xlink:title="XMLInputStream_t. ">
<polygon fill="#ffffff" stroke="#000000" points="444.5,-391.5 444.5,-410.5 586.5,-410.5 586.5,-391.5 444.5,-391.5"/>
<text text-anchor="middle" x="515.5" y="-398.5" font-family="Helvetica,sans-Serif" font-size="10.00" fill="#000000">sbml/xml/XMLInputStream.h</text>
</a>
</g>
</g>
<!-- Node1&#45;&gt;Node13 -->
<g id="edge20" class="edge">
<title>Node1&#45;&gt;Node13</title>
<path fill="none" stroke="#191970" d="M424.2684,-514.3484C440.8954,-493.6906 480.1367,-444.9362 501.3308,-418.6042"/>
<polygon fill="#191970" stroke="#191970" points="504.2241,-420.5915 507.7677,-410.6068 498.771,-416.2024 504.2241,-420.5915"/>
</g>
<!-- Node24 -->
<g id="node24" class="node">
<title>Node24</title>
<g id="a_node24"><a xlink:href="_x_m_l_output_stream_8h.html" target="_top" xlink:title="XMLOutputStream_t. ">
<polygon fill="#ffffff" stroke="#000000" points="645.5,-391.5 645.5,-410.5 795.5,-410.5 795.5,-391.5 645.5,-391.5"/>
<text text-anchor="middle" x="720.5" y="-398.5" font-family="Helvetica,sans-Serif" font-size="10.00" fill="#000000">sbml/xml/XMLOutputStream.h</text>
</a>
</g>
</g>
<!-- Node1&#45;&gt;Node24 -->
<g id="edge43" class="edge">
<title>Node1&#45;&gt;Node24</title>
<path fill="none" stroke="#191970" d="M440.1014,-514.4507C493.8639,-492.6982 625.5545,-439.4155 687.4004,-414.3923"/>
<polygon fill="#191970" stroke="#191970" points="688.7468,-417.6232 696.704,-410.628 686.1213,-411.1342 688.7468,-417.6232"/>
</g>
<!-- Node25 -->
<g id="node25" class="node">
<title>Node25</title>
<g id="a_node25"><a xlink:href="_flux_objective_8h.html" target="_top" xlink:title="Definition of FluxObjective_t, the SBase_t derived class of the fbc package. ">
<polygon fill="#ffffff" stroke="#000000" points="835,-257.5 835,-287.5 958,-287.5 958,-257.5 835,-257.5"/>
<text text-anchor="start" x="843" y="-275.5" font-family="Helvetica,sans-Serif" font-size="10.00" fill="#000000">sbml/packages/fbc/sbml</text>
<text text-anchor="middle" x="896.5" y="-264.5" font-family="Helvetica,sans-Serif" font-size="10.00" fill="#000000">/FluxObjective.h</text>
</a>
</g>
</g>
<!-- Node1&#45;&gt;Node25 -->
<g id="edge45" class="edge">
<title>Node1&#45;&gt;Node25</title>
<path fill="none" stroke="#191970" d="M464.7983,-520.665C543.2293,-513.07 700.0159,-488.5959 804.5,-411 809.9307,-406.9668 856.7448,-334.5667 881.4191,-296.0938"/>
<polygon fill="#191970" stroke="#191970" points="884.4468,-297.8561 886.8939,-287.5477 878.5525,-294.0801 884.4468,-297.8561"/>
</g>
<!-- Node27 -->
<g id="node27" class="node">
<title>Node27</title>
<g id="a_node27"><a xlink:href="_fbc_extension_8h.html" target="_top" xlink:title="Definition of FbcExtension_t, the core module of fbc package. ">
<polygon fill="#ffffff" stroke="#000000" points="1510,-324.5 1510,-354.5 1655,-354.5 1655,-324.5 1510,-324.5"/>
<text text-anchor="start" x="1518" y="-342.5" font-family="Helvetica,sans-Serif" font-size="10.00" fill="#000000">sbml/packages/fbc/extension</text>
<text text-anchor="middle" x="1582.5" y="-331.5" font-family="Helvetica,sans-Serif" font-size="10.00" fill="#000000">/FbcExtension.h</text>
</a>
</g>
</g>
<!-- Node1&#45;&gt;Node27 -->
<g id="edge49" class="edge">
<title>Node1&#45;&gt;Node27</title>
<path fill="none" stroke="#191970" d="M464.5423,-522.9144C648.4475,-518.1583 1306.826,-495.4585 1495.5,-411 1521.1093,-399.5362 1545.3475,-378.4547 1561.7034,-362.1418"/>
<polygon fill="#191970" stroke="#191970" points="1564.5995,-364.1849 1569.0709,-354.5798 1559.5856,-359.3 1564.5995,-364.1849"/>
</g>
<!-- Node29 -->
<g id="node29" class="node">
<title>Node29</title>
<g id="a_node29"><a xlink:href="_fbc_s_b_m_l_error_8h.html" target="_top" xlink:title="Represents SBML errors and other diagnostics. ">
<polygon fill="#ffffff" stroke="#000000" points="914.5,-447.5 914.5,-477.5 1054.5,-477.5 1054.5,-447.5 914.5,-447.5"/>
<text text-anchor="start" x="922.5" y="-465.5" font-family="Helvetica,sans-Serif" font-size="10.00" fill="#000000">sbml/packages/fbc/validator</text>
<text text-anchor="middle" x="984.5" y="-454.5" font-family="Helvetica,sans-Serif" font-size="10.00" fill="#000000">/FbcSBMLError.h</text>
</a>
</g>
</g>
<!-- Node1&#45;&gt;Node29 -->
<g id="edge54" class="edge">
<title>Node1&#45;&gt;Node29</title>
<path fill="none" stroke="#191970" d="M464.6045,-519.291C545.8346,-511.2727 715.341,-494.2534 858.5,-478 873.1793,-476.3334 888.81,-474.4769 903.8874,-472.6442"/>
<polygon fill="#191970" stroke="#191970" points="904.717,-476.0689 914.2187,-471.3818 903.868,-469.1206 904.717,-476.0689"/>
</g>
<!-- Node6 -->
<g id="node6" class="node">
<title>Node6</title>
<g id="a_node6"><a xlink:href="_x_m_l_extern_8h.html" target="_top" xlink:title="Defines LIBLAX_EXTERN. ">
<polygon fill="#ffffff" stroke="#000000" points="327,-196 327,-215 444,-215 444,-196 327,-196"/>
<text text-anchor="middle" x="385.5" y="-203" font-family="Helvetica,sans-Serif" font-size="10.00" fill="#000000">sbml/xml/XMLExtern.h</text>
</a>
</g>
</g>
<!-- Node5&#45;&gt;Node6 -->
<g id="edge5" class="edge">
<title>Node5&#45;&gt;Node6</title>
<path fill="none" stroke="#191970" d="M309.734,-391.3999C295.0403,-383.8573 277.1158,-371.8029 268.5,-355 256.8576,-332.2943 278.2786,-262.4779 282.5,-257 296.5644,-238.7494 318.8404,-226.4937 339.0842,-218.5341"/>
<polygon fill="#191970" stroke="#191970" points="340.3308,-221.8049 348.5086,-215.0689 337.9151,-215.2349 340.3308,-221.8049"/>
</g>
<!-- Node5&#45;&gt;Node8 -->
<g id="edge7" class="edge">
<title>Node5&#45;&gt;Node8</title>
<path fill="none" stroke="#191970" d="M332.9688,-391.3906C333.3846,-382.8657 334.0054,-370.1392 334.5281,-359.4235"/>
<polygon fill="#191970" stroke="#191970" points="338.0332,-359.4035 335.0246,-349.2449 331.0415,-359.0624 338.0332,-359.4035"/>
</g>
<!-- Node10 -->
<g id="node10" class="node">
<title>Node10</title>
<polygon fill="#ffffff" stroke="#bfbfbf" points="633,-196 633,-215 760,-215 760,-196 633,-196"/>
<text text-anchor="middle" x="696.5" y="-203" font-family="Helvetica,sans-Serif" font-size="10.00" fill="#000000">sbml/common/sbmlfwd.h</text>
</g>
<!-- Node5&#45;&gt;Node10 -->
<g id="edge17" class="edge">
<title>Node5&#45;&gt;Node10</title>
<path fill="none" stroke="#191970" d="M388.6181,-391.7143C480.9807,-375.1679 658.5184,-337.6116 695.5,-288 708.962,-269.9404 706.2627,-242.938 702.1773,-224.7939"/>
<polygon fill="#191970" stroke="#191970" points="705.5461,-223.8409 699.6551,-215.0347 698.7687,-225.5924 705.5461,-223.8409"/>
</g>
<!-- Node7 -->
<g id="node7" class="node">
<title>Node7</title>
<g id="a_node7"><a xlink:href="libsbml-namespace_8h.html" target="_top" xlink:title="Defines C++ namespace of libSBML. ">
<polygon fill="#ffffff" stroke="#000000" points="1004,-.5 1004,-30.5 1117,-30.5 1117,-.5 1004,-.5"/>
<text text-anchor="start" x="1012" y="-18.5" font-family="Helvetica,sans-Serif" font-size="10.00" fill="#000000">sbml/common/libsbml</text>
<text text-anchor="middle" x="1060.5" y="-7.5" font-family="Helvetica,sans-Serif" font-size="10.00" fill="#000000">&#45;namespace.h</text>
</a>
</g>
</g>
<!-- Node6&#45;&gt;Node7 -->
<g id="edge6" class="edge">
<title>Node6&#45;&gt;Node7</title>
<path fill="none" stroke="#191970" d="M419.4359,-195.9477C526.3462,-165.8544 857.3334,-72.6876 997.1418,-33.3342"/>
<polygon fill="#191970" stroke="#191970" points="998.1943,-36.674 1006.8719,-30.5953 996.2976,-29.9358 998.1943,-36.674"/>
</g>
<!-- Node8&#45;&gt;Node6 -->
<g id="edge8" class="edge">
<title>Node8&#45;&gt;Node6</title>
<path fill="none" stroke="#191970" d="M323.4727,-329.9669C305.4356,-314.4696 275.0592,-282.9343 290.5,-257 301.3377,-238.7971 321.0985,-226.6325 339.8017,-218.7209"/>
<polygon fill="#191970" stroke="#191970" points="341.1053,-221.9693 349.1428,-215.0665 338.5549,-215.4505 341.1053,-221.9693"/>
</g>
<!-- Node8&#45;&gt;Node8 -->
<g id="edge15" class="edge">
<title>Node8&#45;&gt;Node8</title>
<path fill="none" stroke="#191970" d="M363.3774,-349.0334C386.6659,-353.1075 411,-349.9297 411,-339.5 411,-330.5777 393.1916,-326.9626 373.464,-328.6546"/>
<polygon fill="#191970" stroke="#191970" points="372.8423,-325.2059 363.3774,-329.9666 373.7453,-332.1474 372.8423,-325.2059"/>
</g>
<!-- Node8&#45;&gt;Node9 -->
<g id="edge9" class="edge">
<title>Node8&#45;&gt;Node9</title>
<path fill="none" stroke="#191970" d="M344.3831,-329.9005C354.0514,-319.4525 369.7088,-302.5325 381.5248,-289.7635"/>
<polygon fill="#191970" stroke="#191970" points="384.4103,-291.7985 388.6334,-282.0817 379.2726,-287.0441 384.4103,-291.7985"/>
</g>
<!-- Node8&#45;&gt;Node10 -->
<g id="edge16" class="edge">
<title>Node8&#45;&gt;Node10</title>
<path fill="none" stroke="#191970" d="M389.7167,-329.9245C401.5035,-327.9093 413.9122,-325.8386 425.5,-324 480.5007,-315.2734 631.6892,-324.7844 673.5,-288 691.241,-272.3917 695.819,-244.3697 696.7398,-225.361"/>
<polygon fill="#191970" stroke="#191970" points="700.2435,-225.1898 696.9285,-215.1269 693.2447,-225.0607 700.2435,-225.1898"/>
</g>
<!-- Node9&#45;&gt;Node6 -->
<g id="edge10" class="edge">
<title>Node9&#45;&gt;Node6</title>
<path fill="none" stroke="#191970" d="M395.7807,-262.9005C394.0163,-253.0495 391.2215,-237.4451 388.991,-224.9912"/>
<polygon fill="#191970" stroke="#191970" points="392.4244,-224.308 387.2161,-215.0817 385.534,-225.5421 392.4244,-224.308"/>
</g>
<!-- Node9&#45;&gt;Node10 -->
<g id="edge11" class="edge">
<title>Node9&#45;&gt;Node10</title>
<path fill="none" stroke="#191970" d="M440.0219,-262.9717C493.5596,-250.975 585.5348,-230.3651 643.5699,-217.3606"/>
<polygon fill="#191970" stroke="#191970" points="644.648,-220.7059 653.6407,-215.1039 643.1174,-213.8753 644.648,-220.7059"/>
</g>
<!-- Node11 -->
<g id="node11" class="node">
<title>Node11</title>
<g id="a_node11"><a xlink:href="operation_return_values_8h.html" target="_top" xlink:title="Enumeration of values returned by operations within libSBML. ">
<polygon fill="#ffffff" stroke="#000000" points="462,-190.5 462,-220.5 615,-220.5 615,-190.5 462,-190.5"/>
<text text-anchor="start" x="470" y="-208.5" font-family="Helvetica,sans-Serif" font-size="10.00" fill="#000000">sbml/common/operationReturn</text>
<text text-anchor="middle" x="538.5" y="-197.5" font-family="Helvetica,sans-Serif" font-size="10.00" fill="#000000">Values.h</text>
</a>
</g>
</g>
<!-- Node9&#45;&gt;Node11 -->
<g id="edge12" class="edge">
<title>Node9&#45;&gt;Node11</title>
<path fill="none" stroke="#191970" d="M417.7019,-262.9005C438.4546,-253.0393 471.3402,-237.4128 497.5625,-224.9526"/>
<polygon fill="#191970" stroke="#191970" points="499.357,-227.975 506.887,-220.5218 496.3527,-221.6524 499.357,-227.975"/>
</g>
<!-- Node12 -->
<g id="node12" class="node">
<title>Node12</title>
<g id="a_node12"><a xlink:href="extern_8h.html" target="_top" xlink:title="Definitions of LIBSBML_EXTERN and related things. ">
<polygon fill="#ffffff" stroke="#000000" points="1001.5,-67.5 1001.5,-86.5 1119.5,-86.5 1119.5,-67.5 1001.5,-67.5"/>
<text text-anchor="middle" x="1060.5" y="-74.5" font-family="Helvetica,sans-Serif" font-size="10.00" fill="#000000">sbml/common/extern.h</text>
</a>
</g>
</g>
<!-- Node11&#45;&gt;Node12 -->
<g id="edge13" class="edge">
<title>Node11&#45;&gt;Node12</title>
<path fill="none" stroke="#191970" d="M599.6581,-190.4448C704.4708,-164.6432 916.337,-112.4884 1011.8537,-88.9752"/>
<polygon fill="#191970" stroke="#191970" points="1012.9471,-92.3106 1021.8205,-86.5217 1011.2738,-85.5135 1012.9471,-92.3106"/>
</g>
<!-- Node12&#45;&gt;Node7 -->
<g id="edge14" class="edge">
<title>Node12&#45;&gt;Node7</title>
<path fill="none" stroke="#191970" d="M1060.5,-67.3906C1060.5,-60.2234 1060.5,-50.0862 1060.5,-40.671"/>
<polygon fill="#191970" stroke="#191970" points="1064.0001,-40.5446 1060.5,-30.5446 1057.0001,-40.5446 1064.0001,-40.5446"/>
</g>
<!-- Node13&#45;&gt;Node6 -->
<g id="edge21" class="edge">
<title>Node13&#45;&gt;Node6</title>
<path fill="none" stroke="#191970" d="M505.7698,-391.2646C489.4093,-375.3452 454.803,-343.561 420.5,-324 380.5539,-301.221 349.7566,-325.7513 323.5,-288 306.8263,-264.0269 336.5142,-237.1391 360.2891,-220.7651"/>
<polygon fill="#191970" stroke="#191970" points="362.2597,-223.6581 368.6839,-215.2331 358.408,-217.8131 362.2597,-223.6581"/>
</g>
<!-- Node13&#45;&gt;Node8 -->
<g id="edge22" class="edge">
<title>Node13&#45;&gt;Node8</title>
<path fill="none" stroke="#191970" d="M487.375,-391.3906C456.5972,-380.8749 407.1079,-363.966 373.0345,-352.3243"/>
<polygon fill="#191970" stroke="#191970" points="374.022,-348.9631 363.4275,-349.0419 371.7588,-355.5871 374.022,-348.9631"/>
</g>
<!-- Node13&#45;&gt;Node10 -->
<g id="edge23" class="edge">
<title>Node13&#45;&gt;Node10</title>
<path fill="none" stroke="#191970" d="M568.85,-391.4541C623.6877,-378.4906 706.2887,-349.4656 744.5,-288 758.6621,-265.2193 735.7221,-238.2619 716.9386,-221.5183"/>
<polygon fill="#191970" stroke="#191970" points="719.154,-218.8079 709.2633,-215.0098 714.6267,-224.1468 719.154,-218.8079"/>
</g>
<!-- Node13&#45;&gt;Node11 -->
<g id="edge24" class="edge">
<title>Node13&#45;&gt;Node11</title>
<path fill="none" stroke="#191970" d="M513.1785,-391.3571C507.9386,-367.8913 496.6174,-306.1332 509.5,-257 512.0228,-247.3784 516.7931,-237.6592 521.7472,-229.2958"/>
<polygon fill="#191970" stroke="#191970" points="524.7183,-231.1459 527.0974,-220.8216 518.7993,-227.4089 524.7183,-231.1459"/>
</g>
<!-- Node14 -->
<g id="node14" class="node">
<title>Node14</title>
<g id="a_node14"><a xlink:href="_s_b_m_l_namespaces_8h.html" target="_top" xlink:title="SBMLNamespaces_t class to store level/version and namespace. ">
<polygon fill="#ffffff" stroke="#000000" points="872.5,-330 872.5,-349 1006.5,-349 1006.5,-330 872.5,-330"/>
<text text-anchor="middle" x="939.5" y="-337" font-family="Helvetica,sans-Serif" font-size="10.00" fill="#000000">sbml/SBMLNamespaces.h</text>
</a>
</g>
</g>
<!-- Node13&#45;&gt;Node14 -->
<g id="edge25" class="edge">
<title>Node13&#45;&gt;Node14</title>
<path fill="none" stroke="#191970" d="M581.2848,-391.4581C657.6844,-380.3766 783.4793,-362.1304 863.8536,-350.4723"/>
<polygon fill="#191970" stroke="#191970" points="864.5157,-353.913 873.9098,-349.0137 863.5109,-346.9855 864.5157,-353.913"/>
</g>
<!-- Node15 -->
<g id="node15" class="node">
<title>Node15</title>
<g id="a_node15"><a xlink:href="_x_m_l_namespaces_8h.html" target="_top" xlink:title="A list of XMLNamespace declarations (URI/prefix pairs) ">
<polygon fill="#ffffff" stroke="#000000" points="518.5,-263 518.5,-282 664.5,-282 664.5,-263 518.5,-263"/>
<text text-anchor="middle" x="591.5" y="-270" font-family="Helvetica,sans-Serif" font-size="10.00" fill="#000000">sbml/xml/XMLNamespaces.h</text>
</a>
</g>
</g>
<!-- Node14&#45;&gt;Node15 -->
<g id="edge26" class="edge">
<title>Node14&#45;&gt;Node15</title>
<path fill="none" stroke="#191970" d="M890.0097,-329.9717C827.093,-317.8584 718.5663,-296.9639 651.1471,-283.9838"/>
<polygon fill="#191970" stroke="#191970" points="651.5824,-280.5034 641.101,-282.0496 650.259,-287.3772 651.5824,-280.5034"/>
</g>
<!-- Node16 -->
<g id="node16" class="node">
<title>Node16</title>
<g id="a_node16"><a xlink:href="common_8h.html" target="_top" xlink:title="Common functions and macros for C and C++. ">
<polygon fill="#ffffff" stroke="#000000" points="1158.5,-263 1158.5,-282 1286.5,-282 1286.5,-263 1158.5,-263"/>
<text text-anchor="middle" x="1222.5" y="-270" font-family="Helvetica,sans-Serif" font-size="10.00" fill="#000000">sbml/common/common.h</text>
</a>
</g>
</g>
<!-- Node14&#45;&gt;Node16 -->
<g id="edge30" class="edge">
<title>Node14&#45;&gt;Node16</title>
<path fill="none" stroke="#191970" d="M979.7465,-329.9717C1030.3143,-317.9998 1117.1124,-297.4504 1172.0607,-284.4415"/>
<polygon fill="#191970" stroke="#191970" points="1173.0095,-287.8137 1181.9342,-282.1039 1171.3968,-281.002 1173.0095,-287.8137"/>
</g>
<!-- Node15&#45;&gt;Node6 -->
<g id="edge27" class="edge">
<title>Node15&#45;&gt;Node6</title>
<path fill="none" stroke="#191970" d="M561.9852,-262.9005C525.8841,-251.1589 464.6518,-231.2436 424.6456,-218.2318"/>
<polygon fill="#191970" stroke="#191970" points="425.5522,-214.8463 414.96,-215.0817 423.3871,-221.5031 425.5522,-214.8463"/>
</g>
<!-- Node15&#45;&gt;Node10 -->
<g id="edge28" class="edge">
<title>Node15&#45;&gt;Node10</title>
<path fill="none" stroke="#191970" d="M606.5439,-262.9005C623.8534,-251.8554 652.4977,-233.5776 672.8089,-220.6172"/>
<polygon fill="#191970" stroke="#191970" points="674.9367,-223.4113 681.484,-215.0817 671.1712,-217.5103 674.9367,-223.4113"/>
</g>
<!-- Node15&#45;&gt;Node11 -->
<g id="edge29" class="edge">
<title>Node15&#45;&gt;Node11</title>
<path fill="none" stroke="#191970" d="M583.9064,-262.9005C576.8584,-253.9908 566.0875,-240.3748 556.8047,-228.6399"/>
<polygon fill="#191970" stroke="#191970" points="559.332,-226.1932 550.3829,-220.5218 553.842,-230.536 559.332,-226.1932"/>
</g>
<!-- Node16&#45;&gt;Node12 -->
<g id="edge37" class="edge">
<title>Node16&#45;&gt;Node12</title>
<path fill="none" stroke="#191970" d="M1178.9124,-262.9069C1128.3682,-251.3461 1050.8657,-232.0949 1042.5,-221 1014.5487,-183.93 1036.1636,-125.6154 1050.47,-95.8481"/>
<polygon fill="#191970" stroke="#191970" points="1053.76,-97.0968 1055.1324,-86.5912 1047.5081,-93.948 1053.76,-97.0968"/>
</g>
<!-- Node17 -->
<g id="node17" class="node">
<title>Node17</title>
<g id="a_node17"><a xlink:href="libsbml-config_8h.html" target="_top" xlink:title="Decides whether to #include Unix or Windows configuration variables. ">
<polygon fill="#ffffff" stroke="#000000" points="1356,-190.5 1356,-220.5 1469,-220.5 1469,-190.5 1356,-190.5"/>
<text text-anchor="start" x="1364" y="-208.5" font-family="Helvetica,sans-Serif" font-size="10.00" fill="#000000">sbml/common/libsbml</text>
<text text-anchor="middle" x="1412.5" y="-197.5" font-family="Helvetica,sans-Serif" font-size="10.00" fill="#000000">&#45;config.h</text>
</a>
</g>
</g>
<!-- Node16&#45;&gt;Node17 -->
<g id="edge31" class="edge">
<title>Node16&#45;&gt;Node17</title>
<path fill="none" stroke="#191970" d="M1249.7224,-262.9005C1278.4229,-252.7798 1324.3446,-236.5864 1360.1065,-223.9756"/>
<polygon fill="#191970" stroke="#191970" points="1361.6341,-227.1482 1369.901,-220.5218 1359.3062,-220.5466 1361.6341,-227.1482"/>
</g>
<!-- Node20 -->
<g id="node20" class="node">
<title>Node20</title>
<polygon fill="#ffffff" stroke="#bfbfbf" points="1160.5,-129 1160.5,-148 1206.5,-148 1206.5,-129 1160.5,-129"/>
<text text-anchor="middle" x="1183.5" y="-136" font-family="Helvetica,sans-Serif" font-size="10.00" fill="#000000">stdio.h</text>
</g>
<!-- Node16&#45;&gt;Node20 -->
<g id="edge36" class="edge">
<title>Node16&#45;&gt;Node20</title>
<path fill="none" stroke="#191970" d="M1245.3113,-262.9436C1262.0226,-254.5792 1283.4682,-240.6696 1293.5,-221 1299.7598,-208.7263 1300.897,-201.6238 1293.5,-190 1273.218,-158.1283 1250.708,-170.0304 1216.5,-154 1215.3394,-153.4561 1214.1559,-152.9013 1212.9604,-152.3406"/>
<polygon fill="#191970" stroke="#191970" points="1214.2813,-149.0943 1203.7417,-148.0144 1211.3074,-155.4312 1214.2813,-149.0943"/>
</g>
<!-- Node21 -->
<g id="node21" class="node">
<title>Node21</title>
<g id="a_node21"><a xlink:href="memory_8h.html" target="_top" xlink:title="sbml/util/memory.h">
<polygon fill="#ffffff" stroke="#000000" points="1184.5,-196 1184.5,-215 1284.5,-215 1284.5,-196 1184.5,-196"/>
<text text-anchor="middle" x="1234.5" y="-203" font-family="Helvetica,sans-Serif" font-size="10.00" fill="#000000">sbml/util/memory.h</text>
</a>
</g>
</g>
<!-- Node16&#45;&gt;Node21 -->
<g id="edge38" class="edge">
<title>Node16&#45;&gt;Node21</title>
<path fill="none" stroke="#191970" d="M1224.2193,-262.9005C1225.9837,-253.0495 1228.7785,-237.4451 1231.009,-224.9912"/>
<polygon fill="#191970" stroke="#191970" points="1234.466,-225.5421 1232.7839,-215.0817 1227.5756,-224.308 1234.466,-225.5421"/>
</g>
<!-- Node22 -->
<g id="node22" class="node">
<title>Node22</title>
<g id="a_node22"><a xlink:href="util_8h.html" target="_top" xlink:title="Utility functions. ">
<polygon fill="#ffffff" stroke="#000000" points="1051,-196 1051,-215 1128,-215 1128,-196 1051,-196"/>
<text text-anchor="middle" x="1089.5" y="-203" font-family="Helvetica,sans-Serif" font-size="10.00" fill="#000000">sbml/util/util.h</text>
</a>
</g>
</g>
<!-- Node16&#45;&gt;Node22 -->
<g id="edge39" class="edge">
<title>Node16&#45;&gt;Node22</title>
<path fill="none" stroke="#191970" d="M1203.4443,-262.9005C1181.0252,-251.6067 1143.5946,-232.7506 1117.7868,-219.7497"/>
<polygon fill="#191970" stroke="#191970" points="1119.0258,-216.4549 1108.5203,-215.0817 1115.8765,-222.7065 1119.0258,-216.4549"/>
</g>
<!-- Node17&#45;&gt;Node7 -->
<g id="edge32" class="edge">
<title>Node17&#45;&gt;Node7</title>
<path fill="none" stroke="#191970" d="M1439.0869,-190.4042C1464.6618,-173.9446 1496.9324,-146.7726 1478.5,-123 1435.7444,-67.8573 1233.9646,-36.0518 1127.1728,-22.8128"/>
<polygon fill="#191970" stroke="#191970" points="1127.4934,-19.326 1117.1431,-21.5894 1126.6457,-26.2745 1127.4934,-19.326"/>
</g>
<!-- Node18 -->
<g id="node18" class="node">
<title>Node18</title>
<g id="a_node18"><a xlink:href="libsbml-config-common_8h.html" target="_top" xlink:title="Configuration variables. ">
<polygon fill="#ffffff" stroke="#000000" points="1356,-123.5 1356,-153.5 1469,-153.5 1469,-123.5 1356,-123.5"/>
<text text-anchor="start" x="1364" y="-141.5" font-family="Helvetica,sans-Serif" font-size="10.00" fill="#000000">sbml/common/libsbml</text>
<text text-anchor="middle" x="1412.5" y="-130.5" font-family="Helvetica,sans-Serif" font-size="10.00" fill="#000000">&#45;config&#45;common.h</text>
</a>
</g>
</g>
<!-- Node17&#45;&gt;Node18 -->
<g id="edge33" class="edge">
<title>Node17&#45;&gt;Node18</title>
<path fill="none" stroke="#191970" d="M1412.5,-190.2967C1412.5,-182.5013 1412.5,-172.7991 1412.5,-163.9064"/>
<polygon fill="#191970" stroke="#191970" points="1416.0001,-163.6431 1412.5,-153.6432 1409.0001,-163.6432 1416.0001,-163.6431"/>
</g>
<!-- Node19 -->
<g id="node19" class="node">
<title>Node19</title>
<g id="a_node19"><a xlink:href="libsbml-version_8h.html" target="_top" xlink:title="Define libSBML version numbers for access from client software. ">
<polygon fill="#ffffff" stroke="#000000" points="1225,-123.5 1225,-153.5 1338,-153.5 1338,-123.5 1225,-123.5"/>
<text text-anchor="start" x="1233" y="-141.5" font-family="Helvetica,sans-Serif" font-size="10.00" fill="#000000">sbml/common/libsbml</text>
<text text-anchor="middle" x="1281.5" y="-130.5" font-family="Helvetica,sans-Serif" font-size="10.00" fill="#000000">&#45;version.h</text>
</a>
</g>
</g>
<!-- Node17&#45;&gt;Node19 -->
<g id="edge34" class="edge">
<title>Node17&#45;&gt;Node19</title>
<path fill="none" stroke="#191970" d="M1383.101,-190.4639C1364.5226,-180.9619 1340.309,-168.5779 1320.1801,-158.283"/>
<polygon fill="#191970" stroke="#191970" points="1321.751,-155.1552 1311.2541,-153.7177 1318.5635,-161.3874 1321.751,-155.1552"/>
</g>
<!-- Node19&#45;&gt;Node12 -->
<g id="edge35" class="edge">
<title>Node19&#45;&gt;Node12</title>
<path fill="none" stroke="#191970" d="M1227.4373,-123.4554C1189.7542,-112.9689 1140.1012,-99.1515 1104.767,-89.3187"/>
<polygon fill="#191970" stroke="#191970" points="1105.3194,-85.8394 1094.7472,-86.5303 1103.4427,-92.5832 1105.3194,-85.8394"/>
</g>
<!-- Node22&#45;&gt;Node12 -->
<g id="edge42" class="edge">
<title>Node22&#45;&gt;Node12</title>
<path fill="none" stroke="#191970" d="M1087.3203,-195.8416C1082.5757,-174.8184 1071.2333,-124.5598 1064.9242,-96.6038"/>
<polygon fill="#191970" stroke="#191970" points="1068.3207,-95.7546 1062.705,-86.7705 1061.4924,-97.2957 1068.3207,-95.7546"/>
</g>
<!-- Node22&#45;&gt;Node20 -->
<g id="edge40" class="edge">
<title>Node22&#45;&gt;Node20</title>
<path fill="none" stroke="#191970" d="M1102.9679,-195.9005C1118.3244,-184.9549 1143.6463,-166.9064 1161.7976,-153.9688"/>
<polygon fill="#191970" stroke="#191970" points="1163.9454,-156.736 1170.0571,-148.0817 1159.8824,-151.0358 1163.9454,-156.736"/>
</g>
<!-- Node23 -->
<g id="node23" class="node">
<title>Node23</title>
<polygon fill="#ffffff" stroke="#bfbfbf" points="1089,-129 1089,-148 1142,-148 1142,-129 1089,-129"/>
<text text-anchor="middle" x="1115.5" y="-136" font-family="Helvetica,sans-Serif" font-size="10.00" fill="#000000">stdarg.h</text>
</g>
<!-- Node22&#45;&gt;Node23 -->
<g id="edge41" class="edge">
<title>Node22&#45;&gt;Node23</title>
<path fill="none" stroke="#191970" d="M1093.2252,-195.9005C1097.0866,-185.95 1103.226,-170.1292 1108.0823,-157.6147"/>
<polygon fill="#191970" stroke="#191970" points="1111.4269,-158.6706 1111.7817,-148.0817 1104.901,-156.1381 1111.4269,-158.6706"/>
</g>
<!-- Node24&#45;&gt;Node10 -->
<g id="edge44" class="edge">
<title>Node24&#45;&gt;Node10</title>
<path fill="none" stroke="#191970" d="M742.2658,-391.3857C756.5664,-383.773 774.1252,-371.6416 782.5,-355 802.0795,-316.0933 803.976,-294.8929 782.5,-257 772.581,-239.4987 754.0854,-227.3022 736.7808,-219.1882"/>
<polygon fill="#191970" stroke="#191970" points="737.9183,-215.8664 727.3517,-215.0927 735.1295,-222.2869 737.9183,-215.8664"/>
</g>
<!-- Node25&#45;&gt;Node10 -->
<g id="edge47" class="edge">
<title>Node25&#45;&gt;Node10</title>
<path fill="none" stroke="#191970" d="M851.6161,-257.4639C816.4427,-245.6808 768.0393,-229.4657 734.7043,-218.2984"/>
<polygon fill="#191970" stroke="#191970" points="735.4679,-214.8631 724.874,-215.0053 733.2443,-221.5006 735.4679,-214.8631"/>
</g>
<!-- Node25&#45;&gt;Node12 -->
<g id="edge46" class="edge">
<title>Node25&#45;&gt;Node12</title>
<path fill="none" stroke="#191970" d="M906.248,-257.4693C912.6343,-247.3511 920.9755,-233.6041 927.5,-221 949.3654,-178.7599 937.8742,-157.6104 970.5,-123 984.2104,-108.4556 1003.5379,-97.7472 1020.7697,-90.3407"/>
<polygon fill="#191970" stroke="#191970" points="1022.1289,-93.5664 1030.0782,-86.5622 1019.4961,-87.0803 1022.1289,-93.5664"/>
</g>
<!-- Node26 -->
<g id="node26" class="node">
<title>Node26</title>
<g id="a_node26"><a xlink:href="fbcfwd_8h.html" target="_top" xlink:title="Implementation of the fbcfwd class. ">
<polygon fill="#ffffff" stroke="#000000" points="778.5,-190.5 778.5,-220.5 918.5,-220.5 918.5,-190.5 778.5,-190.5"/>
<text text-anchor="start" x="786.5" y="-208.5" font-family="Helvetica,sans-Serif" font-size="10.00" fill="#000000">sbml/packages/fbc/common</text>
<text text-anchor="middle" x="848.5" y="-197.5" font-family="Helvetica,sans-Serif" font-size="10.00" fill="#000000">/fbcfwd.h</text>
</a>
</g>
</g>
<!-- Node25&#45;&gt;Node26 -->
<g id="edge48" class="edge">
<title>Node25&#45;&gt;Node26</title>
<path fill="none" stroke="#191970" d="M885.6081,-257.2967C879.5937,-248.9016 871.9951,-238.2952 865.2426,-228.8698"/>
<polygon fill="#191970" stroke="#191970" points="868.0179,-226.734 859.3488,-220.6432 862.3275,-230.8107 868.0179,-226.734"/>
</g>
<!-- Node27&#45;&gt;Node12 -->
<g id="edge50" class="edge">
<title>Node27&#45;&gt;Node12</title>
<path fill="none" stroke="#191970" d="M1611.2377,-324.4081C1624.5839,-315.7162 1639.1084,-303.4356 1646.5,-288 1652.4507,-275.5735 1651.0841,-269.9928 1646.5,-257 1621.05,-184.8671 1605.8393,-159.2806 1538.5,-123 1503.386,-104.0816 1253.6565,-87.7422 1129.8008,-80.6979"/>
<polygon fill="#191970" stroke="#191970" points="1129.8425,-77.1947 1119.6612,-80.126 1129.4482,-84.1836 1129.8425,-77.1947"/>
</g>
<!-- Node28 -->
<g id="node28" class="node">
<title>Node28</title>
<g id="a_node28"><a xlink:href="_s_b_m_l_type_codes_8h.html" target="_top" xlink:title="Enumeration to identify SBML objects at runtime. ">
<polygon fill="#ffffff" stroke="#000000" points="1510,-263 1510,-282 1637,-282 1637,-263 1510,-263"/>
<text text-anchor="middle" x="1573.5" y="-270" font-family="Helvetica,sans-Serif" font-size="10.00" fill="#000000">sbml/SBMLTypeCodes.h</text>
</a>
</g>
</g>
<!-- Node27&#45;&gt;Node28 -->
<g id="edge51" class="edge">
<title>Node27&#45;&gt;Node28</title>
<path fill="none" stroke="#191970" d="M1580.4578,-324.2967C1579.178,-314.7699 1577.5158,-302.3954 1576.137,-292.1306"/>
<polygon fill="#191970" stroke="#191970" points="1579.5838,-291.5 1574.7835,-282.055 1572.6461,-292.4319 1579.5838,-291.5"/>
</g>
<!-- Node28&#45;&gt;Node12 -->
<g id="edge53" class="edge">
<title>Node28&#45;&gt;Node12</title>
<path fill="none" stroke="#191970" d="M1572.7622,-262.7776C1570.1244,-235.5162 1558.6155,-158.0544 1511.5,-123 1481.5886,-100.7456 1248.8894,-86.2347 1129.9737,-80.1959"/>
<polygon fill="#191970" stroke="#191970" points="1130.0366,-76.6948 1119.8739,-79.6895 1129.686,-83.686 1130.0366,-76.6948"/>
</g>
<!-- Node28&#45;&gt;Node17 -->
<g id="edge52" class="edge">
<title>Node28&#45;&gt;Node17</title>
<path fill="none" stroke="#191970" d="M1550.4326,-262.9005C1526.4245,-252.9096 1488.1954,-237.0006 1458.0663,-224.4624"/>
<polygon fill="#191970" stroke="#191970" points="1459.1743,-221.1325 1448.5971,-220.5218 1456.4848,-227.5953 1459.1743,-221.1325"/>
</g>
<!-- Node29&#45;&gt;Node12 -->
<g id="edge55" class="edge">
<title>Node29&#45;&gt;Node12</title>
<path fill="none" stroke="#191970" d="M1054.9248,-451.8197C1167.4731,-430.5399 1384.7279,-371.2197 1478.5,-221 1501.564,-184.0522 1507.5652,-155.4392 1478.5,-123 1455.7048,-97.5586 1242.8264,-84.7306 1129.9816,-79.671"/>
<polygon fill="#191970" stroke="#191970" points="1129.8584,-76.1623 1119.7143,-79.2198 1129.551,-83.1556 1129.8584,-76.1623"/>
</g>
<!-- Node29&#45;&gt;Node14 -->
<g id="edge64" class="edge">
<title>Node29&#45;&gt;Node14</title>
<path fill="none" stroke="#191970" d="M978.9821,-447.4178C970.8045,-425.0657 955.4717,-383.1559 946.5098,-358.6602"/>
<polygon fill="#191970" stroke="#191970" points="949.7164,-357.2379 942.9936,-349.0493 943.1426,-359.643 949.7164,-357.2379"/>
</g>
<!-- Node30 -->
<g id="node30" class="node">
<title>Node30</title>
<g id="a_node30"><a xlink:href="_s_b_m_l_error_8h.html" target="_top" xlink:title="Represents SBML errors and other diagnostics. ">
<polygon fill="#ffffff" stroke="#000000" points="976.5,-391.5 976.5,-410.5 1074.5,-410.5 1074.5,-391.5 976.5,-391.5"/>
<text text-anchor="middle" x="1025.5" y="-398.5" font-family="Helvetica,sans-Serif" font-size="10.00" fill="#000000">sbml/SBMLError.h</text>
</a>
</g>
</g>
<!-- Node29&#45;&gt;Node30 -->
<g id="edge56" class="edge">
<title>Node29&#45;&gt;Node30</title>
<path fill="none" stroke="#191970" d="M994.6348,-447.2977C1000.2668,-438.8498 1007.3151,-428.2773 1013.254,-419.369"/>
<polygon fill="#191970" stroke="#191970" points="1016.3005,-421.1089 1018.9354,-410.8469 1010.4762,-417.226 1016.3005,-421.1089"/>
</g>
<!-- Node30&#45;&gt;Node12 -->
<g id="edge57" class="edge">
<title>Node30&#45;&gt;Node12</title>
<path fill="none" stroke="#191970" d="M1024.4598,-391.4888C1022.8224,-376.9196 1019.4232,-348.2185 1015.5,-324 1012.8936,-307.9101 1010.0628,-304.2246 1008.5,-288 1001.4273,-214.5714 998.7943,-191.3679 1026.5,-123 1030.7077,-112.617 1037.8095,-102.4521 1044.4376,-94.3295"/>
<polygon fill="#191970" stroke="#191970" points="1047.1532,-96.5397 1051.0322,-86.6805 1041.8515,-91.9689 1047.1532,-96.5397"/>
</g>
<!-- Node30&#45;&gt;Node14 -->
<g id="edge63" class="edge">
<title>Node30&#45;&gt;Node14</title>
<path fill="none" stroke="#191970" d="M1012.0625,-391.3906C998.4305,-381.6421 977.1154,-366.3994 961.1078,-354.9521"/>
<polygon fill="#191970" stroke="#191970" points="963.0132,-352.0118 952.8431,-349.0419 958.9414,-357.7057 963.0132,-352.0118"/>
</g>
<!-- Node31 -->
<g id="node31" class="node">
<title>Node31</title>
<g id="a_node31"><a xlink:href="_x_m_l_error_8h.html" target="_top" xlink:title="Represents errors (and messages) encountered during an XML parse. ">
<polygon fill="#ffffff" stroke="#000000" points="1017.5,-263 1017.5,-282 1127.5,-282 1127.5,-263 1017.5,-263"/>
<text text-anchor="middle" x="1072.5" y="-270" font-family="Helvetica,sans-Serif" font-size="10.00" fill="#000000">sbml/xml/XMLError.h</text>
</a>
</g>
</g>
<!-- Node30&#45;&gt;Node31 -->
<g id="edge58" class="edge">
<title>Node30&#45;&gt;Node31</title>
<path fill="none" stroke="#191970" d="M1030.961,-391.3633C1035.99,-382.2137 1043.4194,-367.9692 1048.5,-355 1056.7124,-334.0364 1063.5838,-309.1137 1067.8407,-292.1881"/>
<polygon fill="#191970" stroke="#191970" points="1071.2727,-292.8875 1070.2483,-282.3423 1064.4731,-291.2247 1071.2727,-292.8875"/>
</g>
<!-- Node31&#45;&gt;Node6 -->
<g id="edge60" class="edge">
<title>Node31&#45;&gt;Node6</title>
<path fill="none" stroke="#191970" d="M1017.2912,-263.5391C1001.2638,-261.1578 983.7122,-258.7617 967.5,-257 739.8362,-232.2604 680.0336,-254.5467 453.5,-221 446.7401,-219.9989 439.6558,-218.6859 432.7186,-217.2472"/>
<polygon fill="#191970" stroke="#191970" points="433.2307,-213.7768 422.7152,-215.0709 431.7426,-220.6168 433.2307,-213.7768"/>
</g>
<!-- Node31&#45;&gt;Node10 -->
<g id="edge61" class="edge">
<title>Node31&#45;&gt;Node10</title>
<path fill="none" stroke="#191970" d="M1017.3646,-263.8232C956.5468,-254.0905 855.8463,-237.4978 769.5,-221 763.2364,-219.8033 756.683,-218.4937 750.1826,-217.159"/>
<polygon fill="#191970" stroke="#191970" points="750.564,-213.6635 740.0607,-215.0536 749.1383,-220.5168 750.564,-213.6635"/>
</g>
<!-- Node31&#45;&gt;Node20 -->
<g id="edge59" class="edge">
<title>Node31&#45;&gt;Node20</title>
<path fill="none" stroke="#191970" d="M1087.8457,-262.8968C1101.9961,-253.4912 1122.9503,-238.1101 1137.5,-221 1154.1064,-201.4713 1167.584,-175.0307 1175.5618,-157.401"/>
<polygon fill="#191970" stroke="#191970" points="1178.804,-158.7224 1179.6057,-148.1579 1172.3909,-155.9166 1178.804,-158.7224"/>
</g>
<!-- Node31&#45;&gt;Node22 -->
<g id="edge62" class="edge">
<title>Node31&#45;&gt;Node22</title>
<path fill="none" stroke="#191970" d="M1074.9357,-262.9005C1077.4352,-253.0495 1081.3945,-237.4451 1084.5545,-224.9912"/>
<polygon fill="#191970" stroke="#191970" points="1088.0019,-225.6353 1087.0688,-215.0817 1081.2169,-223.9137 1088.0019,-225.6353"/>
</g>
</g>
</svg>
        <g id="navigator" transform="translate(0 0)" fill="#404254">
                <rect fill="#f2f5e9" fill-opacity="0.5" stroke="#606060" stroke-width=".5" x="0" y="0" width="60" height="60"/>
                <use id="zoomplus" xlink:href="#zoomPlus" x="17" y="9" onmousedown="handleZoom(evt,'in')"/>
                <use id="zoomminus" xlink:href="#zoomMin" x="42" y="9" onmousedown="handleZoom(evt,'out')"/>
                <use id="reset" xlink:href="#resetDef" x="30" y="36" onmousedown="handleReset()"/>
                <g id="arrowUp" xlink:href="#dirArrow" transform="translate(30 24)" onmousedown="handlePan(0,-1)">
                  <use xlink:href="#rim" fill="#404040">
                        <set attributeName="fill" to="#808080" begin="arrowUp.mouseover" end="arrowUp.mouseout"/>
                  </use>
                  <path fill="none" stroke="white" stroke-width="1.5" d="M0,-3.0v7 M-2.5,-0.5L0,-3.0L2.5,-0.5"/>
                </g>
                <g id="arrowRight" xlink:href="#dirArrow" transform="rotate(90) translate(36 -43)" onmousedown="handlePan(1,0)">
                  <use xlink:href="#rim" fill="#404040">
                        <set attributeName="fill" to="#808080" begin="arrowRight.mouseover" end="arrowRight.mouseout"/>
                  </use>
                  <path fill="none" stroke="white" stroke-width="1.5" d="M0,-3.0v7 M-2.5,-0.5L0,-3.0L2.5,-0.5"/>
                </g>
                <g id="arrowDown" xlink:href="#dirArrow" transform="rotate(180) translate(-30 -48)" onmousedown="handlePan(0,1)">
                  <use xlink:href="#rim" fill="#404040">
                        <set attributeName="fill" to="#808080" begin="arrowDown.mouseover" end="arrowDown.mouseout"/>
                  </use>
                  <path fill="none" stroke="white" stroke-width="1.5" d="M0,-3.0v7 M-2.5,-0.5L0,-3.0L2.5,-0.5"/>
                </g>
                <g id="arrowLeft" xlink:href="#dirArrow" transform="rotate(270) translate(-36 17)" onmousedown="handlePan(-1,0)">
                  <use xlink:href="#rim" fill="#404040">
                        <set attributeName="fill" to="#808080" begin="arrowLeft.mouseover" end="arrowLeft.mouseout"/>
                  </use>
                  <path fill="none" stroke="white" stroke-width="1.5" d="M0,-3.0v7 M-2.5,-0.5L0,-3.0L2.5,-0.5"/>
                </g>
        </g>
        <svg viewBox="0 0 15 15" width="100%" height="30px" preserveAspectRatio="xMaxYMin meet">
         <g id="arrow_out" transform="scale(0.3 0.3)">
          <a xlink:href="_flux_objective_8cpp__incl_org.svg" target="_base">
           <rect id="button" ry="5" rx="5" y="6" x="6" height="38" width="38"
                fill="#f2f5e9" fill-opacity="0.5" stroke="#606060" stroke-width="1.0"/>
           <path id="arrow"
             d="M 11.500037,31.436501 C 11.940474,20.09759 22.043105,11.32322 32.158766,21.979434 L 37.068811,17.246167 C 37.068811,17.246167 37.088388,32 37.088388,32 L 22.160133,31.978069 C 22.160133,31.978069 26.997745,27.140456 26.997745,27.140456 C 18.528582,18.264221 13.291696,25.230495 11.500037,31.436501 z"
             style="fill:#404040;"/>
          </a>
         </g>
        </svg>
</svg>
