<?xml version="1.0" encoding="UTF-8" standalone="no"?>
<!DOCTYPE svg PUBLIC "-//W3C//DTD SVG 1.1//EN"
 "http://www.w3.org/Graphics/SVG/1.1/DTD/svg11.dtd">
<!-- Generated by graphviz version 2.40.1 (20161225.0304)
 -->
<!-- Title: GlobalRenderInformation.h Pages: 1 -->
<!--zoomable 408 -->
<svg id="main" version="1.1" xmlns="http://www.w3.org/2000/svg" xmlns:xlink="http://www.w3.org/1999/xlink" xml:space="preserve" onload="init(evt)">
<style type="text/css"><![CDATA[
.edge:hover path { stroke: red; }
.edge:hover polygon { stroke: red; fill: red; }
]]></style>
<script type="text/javascript"><![CDATA[
var edges = document.getElementsByTagName('g');
if (edges && edges.length) {
  for (var i=0;i<edges.length;i++) {
    if (edges[i].id.substr(0,4)=='edge') {
      edges[i].setAttribute('class','edge');
    }
  }
}
]]></script>
        <defs>
                <circle id="rim" cx="0" cy="0" r="7"/>
                <circle id="rim2" cx="0" cy="0" r="3.5"/>
                <g id="zoomPlus">
                        <use xlink:href="#rim" fill="#404040">
                                <set attributeName="fill" to="#808080" begin="zoomplus.mouseover" end="zoomplus.mouseout"/>
                        </use>
                        <path d="M-4,0h8M0,-4v8" fill="none" stroke="white" stroke-width="1.5" pointer-events="none"/>
                </g>
                <g id="zoomMin">
                        <use xlink:href="#rim" fill="#404040">
                                <set attributeName="fill" to="#808080" begin="zoomminus.mouseover" end="zoomminus.mouseout"/>
                        </use>
                        <path d="M-4,0h8" fill="none" stroke="white" stroke-width="1.5" pointer-events="none"/>
                </g>
                <g id="dirArrow">
                        <path fill="none" stroke="white" stroke-width="1.5" d="M0,-3.0v7 M-2.5,-0.5L0,-3.0L2.5,-0.5"/>
                </g>
               <g id="resetDef">
                       <use xlink:href="#rim2" fill="#404040">
                               <set attributeName="fill" to="#808080" begin="reset.mouseover" end="reset.mouseout"/>
                       </use>
               </g>
        </defs>

<script type="text/javascript">
var viewWidth = 757;
var viewHeight = 408;
var sectionId = 'dynsection-0';
</script>
<script xlink:href="svgpan.js"/>
<svg id="graph" class="graph">
<g id="viewport">
<title>GlobalRenderInformation.h</title>
<polygon fill="#ffffff" stroke="transparent" points="-4,4 -4,-404 752.5,-404 752.5,4 -4,4"/>
<!-- Node1 -->
<g id="node1" class="node">
<title>Node1</title>
<polygon fill="#bfbfbf" stroke="#000000" points="357,-380.5 357,-399.5 494,-399.5 494,-380.5 357,-380.5"/>
<text text-anchor="middle" x="425.5" y="-387.5" font-family="Helvetica,sans-Serif" font-size="10.00" fill="#000000">GlobalRenderInformation.h</text>
</g>
<!-- Node2 -->
<g id="node2" class="node">
<title>Node2</title>
<g id="a_node2"><a xlink:href="extern_8h.html" target="_top" xlink:title="Definitions of LIBSBML_EXTERN and related things. ">
<polygon fill="#ffffff" stroke="#000000" points="330.5,-67.5 330.5,-86.5 448.5,-86.5 448.5,-67.5 330.5,-67.5"/>
<text text-anchor="middle" x="389.5" y="-74.5" font-family="Helvetica,sans-Serif" font-size="10.00" fill="#000000">sbml/common/extern.h</text>
</a>
</g>
</g>
<!-- Node1&#45;&gt;Node2 -->
<g id="edge1" class="edge">
<title>Node1&#45;&gt;Node2</title>
<path fill="none" stroke="#191970" d="M494.2078,-385.2015C540.8085,-379.8029 602.7432,-368.3382 652.5,-344 703.0357,-319.2809 748.5,-317.7573 748.5,-261.5 748.5,-261.5 748.5,-261.5 748.5,-200 748.5,-139.4281 563.288,-102.413 458.9282,-86.3642"/>
<polygon fill="#191970" stroke="#191970" points="459.1923,-82.8645 448.7815,-84.8306 458.1462,-89.7859 459.1923,-82.8645"/>
</g>
<!-- Node4 -->
<g id="node4" class="node">
<title>Node4</title>
<polygon fill="#ffffff" stroke="#bfbfbf" points="306,-129 306,-148 433,-148 433,-129 306,-129"/>
<text text-anchor="middle" x="369.5" y="-136" font-family="Helvetica,sans-Serif" font-size="10.00" fill="#000000">sbml/common/sbmlfwd.h</text>
</g>
<!-- Node1&#45;&gt;Node4 -->
<g id="edge3" class="edge">
<title>Node1&#45;&gt;Node4</title>
<path fill="none" stroke="#191970" d="M420.074,-380.4116C409.6256,-361.3967 386.9145,-317.2644 377.5,-277 367.8077,-235.5474 367.6855,-185.313 368.5388,-158.1834"/>
<polygon fill="#191970" stroke="#191970" points="372.041,-158.1946 368.9391,-148.064 365.0465,-157.9178 372.041,-158.1946"/>
</g>
<!-- Node5 -->
<g id="node5" class="node">
<title>Node5</title>
<g id="a_node5"><a xlink:href="renderfwd_8h.html" target="_top" xlink:title="Definition of renderfwd. ">
<polygon fill="#ffffff" stroke="#000000" points="387,-246.5 387,-276.5 502,-276.5 502,-246.5 387,-246.5"/>
<text text-anchor="start" x="395" y="-264.5" font-family="Helvetica,sans-Serif" font-size="10.00" fill="#000000">sbml/packages/render</text>
<text text-anchor="middle" x="444.5" y="-253.5" font-family="Helvetica,sans-Serif" font-size="10.00" fill="#000000">/common/renderfwd.h</text>
</a>
</g>
</g>
<!-- Node1&#45;&gt;Node5 -->
<g id="edge4" class="edge">
<title>Node1&#45;&gt;Node5</title>
<path fill="none" stroke="#191970" d="M426.9281,-380.3416C429.8361,-360.6745 436.5271,-315.4221 440.7623,-286.7784"/>
<polygon fill="#191970" stroke="#191970" points="444.2519,-287.106 442.2523,-276.7016 437.3272,-286.0821 444.2519,-287.106"/>
</g>
<!-- Node6 -->
<g id="node6" class="node">
<title>Node6</title>
<g id="a_node6"><a xlink:href="_x_m_l_node_8h.html" target="_top" xlink:title="Class definition of XMLNode_t, a node in an XML document tree. ">
<polygon fill="#ffffff" stroke="#000000" points="176.5,-319 176.5,-338 288.5,-338 288.5,-319 176.5,-319"/>
<text text-anchor="middle" x="232.5" y="-326" font-family="Helvetica,sans-Serif" font-size="10.00" fill="#000000">sbml/xml/XMLNode.h</text>
</a>
</g>
</g>
<!-- Node1&#45;&gt;Node6 -->
<g id="edge5" class="edge">
<title>Node1&#45;&gt;Node6</title>
<path fill="none" stroke="#191970" d="M395.3438,-380.3906C362.2015,-369.8298 308.8238,-352.8208 272.2758,-341.1747"/>
<polygon fill="#191970" stroke="#191970" points="273.0351,-337.7433 262.4445,-338.0419 270.9098,-344.4129 273.0351,-337.7433"/>
</g>
<!-- Node11 -->
<g id="node11" class="node">
<title>Node11</title>
<g id="a_node11"><a xlink:href="_list_of_global_render_information_8h.html" target="_top" xlink:title="Definition of the ListOfGlobalRenderInformation_t class. ">
<polygon fill="#ffffff" stroke="#000000" points="454,-313.5 454,-343.5 643,-343.5 643,-313.5 454,-313.5"/>
<text text-anchor="start" x="462" y="-331.5" font-family="Helvetica,sans-Serif" font-size="10.00" fill="#000000">sbml/packages/render</text>
<text text-anchor="middle" x="548.5" y="-320.5" font-family="Helvetica,sans-Serif" font-size="10.00" fill="#000000">/sbml/ListOfGlobalRenderInformation.h</text>
</a>
</g>
</g>
<!-- Node1&#45;&gt;Node11 -->
<g id="edge18" class="edge">
<title>Node1&#45;&gt;Node11</title>
<path fill="none" stroke="#191970" d="M444.7188,-380.3906C461.9818,-371.7591 487.8596,-358.8202 509.4553,-348.0224"/>
<polygon fill="#191970" stroke="#191970" points="511.0318,-351.1473 518.4108,-343.5446 507.9013,-344.8863 511.0318,-351.1473"/>
</g>
<!-- Node3 -->
<g id="node3" class="node">
<title>Node3</title>
<g id="a_node3"><a xlink:href="libsbml-namespace_8h.html" target="_top" xlink:title="Defines C++ namespace of libSBML. ">
<polygon fill="#ffffff" stroke="#000000" points="256,-.5 256,-30.5 369,-30.5 369,-.5 256,-.5"/>
<text text-anchor="start" x="264" y="-18.5" font-family="Helvetica,sans-Serif" font-size="10.00" fill="#000000">sbml/common/libsbml</text>
<text text-anchor="middle" x="312.5" y="-7.5" font-family="Helvetica,sans-Serif" font-size="10.00" fill="#000000">&#45;namespace.h</text>
</a>
</g>
</g>
<!-- Node2&#45;&gt;Node3 -->
<g id="edge2" class="edge">
<title>Node2&#45;&gt;Node3</title>
<path fill="none" stroke="#191970" d="M377.4688,-67.3906C367.3372,-59.2986 352.4658,-47.4207 339.5069,-37.0705"/>
<polygon fill="#191970" stroke="#191970" points="341.3343,-34.0506 331.3363,-30.5446 336.9657,-39.5202 341.3343,-34.0506"/>
</g>
<!-- Node6&#45;&gt;Node4 -->
<g id="edge17" class="edge">
<title>Node6&#45;&gt;Node4</title>
<path fill="none" stroke="#191970" d="M244.5618,-318.6653C256.1435,-308.8572 273.7172,-292.9867 286.5,-277 318.0117,-237.5901 346.2448,-185.1263 360.2304,-157.4506"/>
<polygon fill="#191970" stroke="#191970" points="363.5442,-158.6477 364.87,-148.1361 357.2785,-155.5266 363.5442,-158.6477"/>
</g>
<!-- Node7 -->
<g id="node7" class="node">
<title>Node7</title>
<g id="a_node7"><a xlink:href="_x_m_l_extern_8h.html" target="_top" xlink:title="Defines LIBLAX_EXTERN. ">
<polygon fill="#ffffff" stroke="#000000" points="0,-129 0,-148 117,-148 117,-129 0,-129"/>
<text text-anchor="middle" x="58.5" y="-136" font-family="Helvetica,sans-Serif" font-size="10.00" fill="#000000">sbml/xml/XMLExtern.h</text>
</a>
</g>
</g>
<!-- Node6&#45;&gt;Node7 -->
<g id="edge6" class="edge">
<title>Node6&#45;&gt;Node7</title>
<path fill="none" stroke="#191970" d="M206.3589,-318.9415C185.4359,-310.34 156.2594,-296.1137 135.5,-277 98.5478,-242.9772 75.138,-187.0364 64.7495,-157.747"/>
<polygon fill="#191970" stroke="#191970" points="68.0517,-156.5863 61.5103,-148.2519 61.4265,-158.8464 68.0517,-156.5863"/>
</g>
<!-- Node8 -->
<g id="node8" class="node">
<title>Node8</title>
<g id="a_node8"><a xlink:href="_x_m_l_token_8h.html" target="_top" xlink:title="A unit of XML syntax, either an XML element or text. ">
<polygon fill="#ffffff" stroke="#000000" points="145,-252 145,-271 260,-271 260,-252 145,-252"/>
<text text-anchor="middle" x="202.5" y="-259" font-family="Helvetica,sans-Serif" font-size="10.00" fill="#000000">sbml/xml/XMLToken.h</text>
</a>
</g>
</g>
<!-- Node6&#45;&gt;Node8 -->
<g id="edge8" class="edge">
<title>Node6&#45;&gt;Node8</title>
<path fill="none" stroke="#191970" d="M228.2017,-318.9005C223.7017,-308.8505 216.5204,-292.8122 210.8912,-280.2403"/>
<polygon fill="#191970" stroke="#191970" points="214.0714,-278.7782 206.7903,-271.0817 207.6826,-281.6389 214.0714,-278.7782"/>
</g>
<!-- Node7&#45;&gt;Node3 -->
<g id="edge7" class="edge">
<title>Node7&#45;&gt;Node3</title>
<path fill="none" stroke="#191970" d="M78.431,-128.8484C120.1097,-108.6654 217.173,-61.6623 272.3256,-34.9545"/>
<polygon fill="#191970" stroke="#191970" points="273.9831,-38.0407 281.4579,-30.5322 270.9322,-31.7406 273.9831,-38.0407"/>
</g>
<!-- Node8&#45;&gt;Node4 -->
<g id="edge16" class="edge">
<title>Node8&#45;&gt;Node4</title>
<path fill="none" stroke="#191970" d="M215.6042,-251.8484C244.3834,-230.6517 313.3264,-179.8734 348.333,-154.0901"/>
<polygon fill="#191970" stroke="#191970" points="350.4805,-156.8553 356.4567,-148.1068 346.3292,-151.219 350.4805,-156.8553"/>
</g>
<!-- Node8&#45;&gt;Node7 -->
<g id="edge9" class="edge">
<title>Node8&#45;&gt;Node7</title>
<path fill="none" stroke="#191970" d="M181.7827,-251.9387C163.232,-242.7768 135.8905,-227.7444 115.5,-210 97.4508,-194.293 80.897,-172.2975 70.334,-156.8625"/>
<polygon fill="#191970" stroke="#191970" points="73.0293,-154.5955 64.5714,-148.2146 67.2041,-158.4772 73.0293,-154.5955"/>
</g>
<!-- Node8&#45;&gt;Node8 -->
<g id="edge15" class="edge">
<title>Node8&#45;&gt;Node8</title>
<path fill="none" stroke="#191970" d="M230.3774,-271.0334C253.6659,-275.1075 278,-271.9297 278,-261.5 278,-252.5777 260.1916,-248.9626 240.464,-250.6546"/>
<polygon fill="#191970" stroke="#191970" points="239.8423,-247.2059 230.3774,-251.9666 240.7453,-254.1474 239.8423,-247.2059"/>
</g>
<!-- Node9 -->
<g id="node9" class="node">
<title>Node9</title>
<g id="a_node9"><a xlink:href="_x_m_l_attributes_8h.html" target="_top" xlink:title="XMLAttributes_t are a list of name/value pairs for XML elements. ">
<polygon fill="#ffffff" stroke="#000000" points="124.5,-190.5 124.5,-209.5 254.5,-209.5 254.5,-190.5 124.5,-190.5"/>
<text text-anchor="middle" x="189.5" y="-197.5" font-family="Helvetica,sans-Serif" font-size="10.00" fill="#000000">sbml/xml/XMLAttributes.h</text>
</a>
</g>
</g>
<!-- Node8&#45;&gt;Node9 -->
<g id="edge10" class="edge">
<title>Node8&#45;&gt;Node9</title>
<path fill="none" stroke="#191970" d="M200.4688,-251.8906C198.6478,-243.276 195.9198,-230.3708 193.6401,-219.5858"/>
<polygon fill="#191970" stroke="#191970" points="197.0524,-218.8048 191.5599,-209.7449 190.2038,-220.2525 197.0524,-218.8048"/>
</g>
<!-- Node9&#45;&gt;Node4 -->
<g id="edge12" class="edge">
<title>Node9&#45;&gt;Node4</title>
<path fill="none" stroke="#191970" d="M217.625,-190.3906C248.4028,-179.8749 297.8921,-162.966 331.9655,-151.3243"/>
<polygon fill="#191970" stroke="#191970" points="333.2412,-154.5871 341.5725,-148.0419 330.978,-147.9631 333.2412,-154.5871"/>
</g>
<!-- Node9&#45;&gt;Node7 -->
<g id="edge11" class="edge">
<title>Node9&#45;&gt;Node7</title>
<path fill="none" stroke="#191970" d="M169.0313,-190.3906C147.3048,-180.1908 112.7665,-163.9763 88.0815,-152.3875"/>
<polygon fill="#191970" stroke="#191970" points="89.3645,-149.1234 78.825,-148.0419 86.3897,-155.4598 89.3645,-149.1234"/>
</g>
<!-- Node10 -->
<g id="node10" class="node">
<title>Node10</title>
<g id="a_node10"><a xlink:href="operation_return_values_8h.html" target="_top" xlink:title="Enumeration of values returned by operations within libSBML. ">
<polygon fill="#ffffff" stroke="#000000" points="135,-123.5 135,-153.5 288,-153.5 288,-123.5 135,-123.5"/>
<text text-anchor="start" x="143" y="-141.5" font-family="Helvetica,sans-Serif" font-size="10.00" fill="#000000">sbml/common/operationReturn</text>
<text text-anchor="middle" x="211.5" y="-130.5" font-family="Helvetica,sans-Serif" font-size="10.00" fill="#000000">Values.h</text>
</a>
</g>
</g>
<!-- Node9&#45;&gt;Node10 -->
<g id="edge13" class="edge">
<title>Node9&#45;&gt;Node10</title>
<path fill="none" stroke="#191970" d="M192.9375,-190.3906C195.5565,-183.0692 199.2842,-172.6488 202.7126,-163.0647"/>
<polygon fill="#191970" stroke="#191970" points="206.0454,-164.1392 206.1182,-153.5446 199.4544,-161.7814 206.0454,-164.1392"/>
</g>
<!-- Node10&#45;&gt;Node2 -->
<g id="edge14" class="edge">
<title>Node10&#45;&gt;Node2</title>
<path fill="none" stroke="#191970" d="M255.0437,-123.4554C284.8737,-113.149 324.0166,-99.6249 352.3702,-89.8286"/>
<polygon fill="#191970" stroke="#191970" points="353.6076,-93.1041 361.9163,-86.5303 351.3216,-86.4879 353.6076,-93.1041"/>
</g>
<!-- Node11&#45;&gt;Node2 -->
<g id="edge19" class="edge">
<title>Node11&#45;&gt;Node2</title>
<path fill="none" stroke="#191970" d="M548.0501,-313.2975C547.0701,-296.2727 544.0054,-268.1636 534.5,-246 506.2445,-180.1171 442.8461,-121.0091 410.0398,-93.4275"/>
<polygon fill="#191970" stroke="#191970" points="411.9634,-90.4768 402.0247,-86.8063 407.5051,-95.8735 411.9634,-90.4768"/>
</g>
<!-- Node11&#45;&gt;Node4 -->
<g id="edge20" class="edge">
<title>Node11&#45;&gt;Node4</title>
<path fill="none" stroke="#191970" d="M544.211,-313.2713C538.7246,-295.7161 527.9218,-266.6346 511.5,-246 479.0443,-205.2182 427.7648,-171.5348 396.5218,-153.283"/>
<polygon fill="#191970" stroke="#191970" points="397.9291,-150.0557 387.5119,-148.1233 394.4504,-156.1301 397.9291,-150.0557"/>
</g>
<!-- Node11&#45;&gt;Node5 -->
<g id="edge21" class="edge">
<title>Node11&#45;&gt;Node5</title>
<path fill="none" stroke="#191970" d="M525.1604,-313.4639C510.9426,-304.3044 492.5677,-292.4667 476.9478,-282.4038"/>
<polygon fill="#191970" stroke="#191970" points="478.4236,-279.1912 468.1216,-276.7177 474.6326,-285.0758 478.4236,-279.1912"/>
</g>
<!-- Node12 -->
<g id="node12" class="node">
<title>Node12</title>
<g id="a_node12"><a xlink:href="_element_filter_8h.html" target="_top" xlink:title="Base class of element filters. ">
<polygon fill="#ffffff" stroke="#000000" points="597,-252 597,-271 720,-271 720,-252 597,-252"/>
<text text-anchor="middle" x="658.5" y="-259" font-family="Helvetica,sans-Serif" font-size="10.00" fill="#000000">sbml/util/ElementFilter.h</text>
</a>
</g>
</g>
<!-- Node11&#45;&gt;Node12 -->
<g id="edge22" class="edge">
<title>Node11&#45;&gt;Node12</title>
<path fill="none" stroke="#191970" d="M573.1861,-313.4639C591.3102,-302.4247 615.8209,-287.4954 633.92,-276.4715"/>
<polygon fill="#191970" stroke="#191970" points="636.0126,-279.2951 642.7324,-271.1039 632.3712,-273.3167 636.0126,-279.2951"/>
</g>
</g>
</svg>
        <g id="navigator" transform="translate(0 0)" fill="#404254">
                <rect fill="#f2f5e9" fill-opacity="0.5" stroke="#606060" stroke-width=".5" x="0" y="0" width="60" height="60"/>
                <use id="zoomplus" xlink:href="#zoomPlus" x="17" y="9" onmousedown="handleZoom(evt,'in')"/>
                <use id="zoomminus" xlink:href="#zoomMin" x="42" y="9" onmousedown="handleZoom(evt,'out')"/>
                <use id="reset" xlink:href="#resetDef" x="30" y="36" onmousedown="handleReset()"/>
                <g id="arrowUp" xlink:href="#dirArrow" transform="translate(30 24)" onmousedown="handlePan(0,-1)">
                  <use xlink:href="#rim" fill="#404040">
                        <set attributeName="fill" to="#808080" begin="arrowUp.mouseover" end="arrowUp.mouseout"/>
                  </use>
                  <path fill="none" stroke="white" stroke-width="1.5" d="M0,-3.0v7 M-2.5,-0.5L0,-3.0L2.5,-0.5"/>
                </g>
                <g id="arrowRight" xlink:href="#dirArrow" transform="rotate(90) translate(36 -43)" onmousedown="handlePan(1,0)">
                  <use xlink:href="#rim" fill="#404040">
                        <set attributeName="fill" to="#808080" begin="arrowRight.mouseover" end="arrowRight.mouseout"/>
                  </use>
                  <path fill="none" stroke="white" stroke-width="1.5" d="M0,-3.0v7 M-2.5,-0.5L0,-3.0L2.5,-0.5"/>
                </g>
                <g id="arrowDown" xlink:href="#dirArrow" transform="rotate(180) translate(-30 -48)" onmousedown="handlePan(0,1)">
                  <use xlink:href="#rim" fill="#404040">
                        <set attributeName="fill" to="#808080" begin="arrowDown.mouseover" end="arrowDown.mouseout"/>
                  </use>
                  <path fill="none" stroke="white" stroke-width="1.5" d="M0,-3.0v7 M-2.5,-0.5L0,-3.0L2.5,-0.5"/>
                </g>
                <g id="arrowLeft" xlink:href="#dirArrow" transform="rotate(270) translate(-36 17)" onmousedown="handlePan(-1,0)">
                  <use xlink:href="#rim" fill="#404040">
                        <set attributeName="fill" to="#808080" begin="arrowLeft.mouseover" end="arrowLeft.mouseout"/>
                  </use>
                  <path fill="none" stroke="white" stroke-width="1.5" d="M0,-3.0v7 M-2.5,-0.5L0,-3.0L2.5,-0.5"/>
                </g>
        </g>
        <svg viewBox="0 0 15 15" width="100%" height="30px" preserveAspectRatio="xMaxYMin meet">
         <g id="arrow_out" transform="scale(0.3 0.3)">
          <a xlink:href="_global_render_information_8h__incl_org.svg" target="_base">
           <rect id="button" ry="5" rx="5" y="6" x="6" height="38" width="38"
                fill="#f2f5e9" fill-opacity="0.5" stroke="#606060" stroke-width="1.0"/>
           <path id="arrow"
             d="M 11.500037,31.436501 C 11.940474,20.09759 22.043105,11.32322 32.158766,21.979434 L 37.068811,17.246167 C 37.068811,17.246167 37.088388,32 37.088388,32 L 22.160133,31.978069 C 22.160133,31.978069 26.997745,27.140456 26.997745,27.140456 C 18.528582,18.264221 13.291696,25.230495 11.500037,31.436501 z"
             style="fill:#404040;"/>
          </a>
         </g>
        </svg>
</svg>
