<?xml version="1.0" encoding="UTF-8" standalone="no"?>
<!DOCTYPE svg PUBLIC "-//W3C//DTD SVG 1.1//EN"
 "http://www.w3.org/Graphics/SVG/1.1/DTD/svg11.dtd">
<!-- Generated by graphviz version 2.40.1 (20161225.0304)
 -->
<!-- Title: GlobalStyle.cpp Pages: 1 -->
<!--zoomable 486 -->
<svg id="main" version="1.1" xmlns="http://www.w3.org/2000/svg" xmlns:xlink="http://www.w3.org/1999/xlink" xml:space="preserve" onload="init(evt)">
<style type="text/css"><![CDATA[
.edge:hover path { stroke: red; }
.edge:hover polygon { stroke: red; fill: red; }
]]></style>
<script type="text/javascript"><![CDATA[
var edges = document.getElementsByTagName('g');
if (edges && edges.length) {
  for (var i=0;i<edges.length;i++) {
    if (edges[i].id.substr(0,4)=='edge') {
      edges[i].setAttribute('class','edge');
    }
  }
}
]]></script>
        <defs>
                <circle id="rim" cx="0" cy="0" r="7"/>
                <circle id="rim2" cx="0" cy="0" r="3.5"/>
                <g id="zoomPlus">
                        <use xlink:href="#rim" fill="#404040">
                                <set attributeName="fill" to="#808080" begin="zoomplus.mouseover" end="zoomplus.mouseout"/>
                        </use>
                        <path d="M-4,0h8M0,-4v8" fill="none" stroke="white" stroke-width="1.5" pointer-events="none"/>
                </g>
                <g id="zoomMin">
                        <use xlink:href="#rim" fill="#404040">
                                <set attributeName="fill" to="#808080" begin="zoomminus.mouseover" end="zoomminus.mouseout"/>
                        </use>
                        <path d="M-4,0h8" fill="none" stroke="white" stroke-width="1.5" pointer-events="none"/>
                </g>
                <g id="dirArrow">
                        <path fill="none" stroke="white" stroke-width="1.5" d="M0,-3.0v7 M-2.5,-0.5L0,-3.0L2.5,-0.5"/>
                </g>
               <g id="resetDef">
                       <use xlink:href="#rim2" fill="#404040">
                               <set attributeName="fill" to="#808080" begin="reset.mouseover" end="reset.mouseout"/>
                       </use>
               </g>
        </defs>

<script type="text/javascript">
var viewWidth = 1116;
var viewHeight = 486;
var sectionId = 'dynsection-0';
</script>
<script xlink:href="svgpan.js"/>
<svg id="graph" class="graph">
<g id="viewport">
<title>GlobalStyle.cpp</title>
<polygon fill="#ffffff" stroke="transparent" points="-4,4 -4,-482 1111.5,-482 1111.5,4 -4,4"/>
<!-- Node1 -->
<g id="node1" class="node">
<title>Node1</title>
<polygon fill="#bfbfbf" stroke="#000000" points="628.5,-458.5 628.5,-477.5 715.5,-477.5 715.5,-458.5 628.5,-458.5"/>
<text text-anchor="middle" x="672" y="-465.5" font-family="Helvetica,sans-Serif" font-size="10.00" fill="#000000">GlobalStyle.cpp</text>
</g>
<!-- Node2 -->
<g id="node2" class="node">
<title>Node2</title>
<g id="a_node2"><a xlink:href="_global_style_8h.html" target="_top" xlink:title="Definition of the GlobalStyle_t class. ">
<polygon fill="#ffffff" stroke="#000000" points="362.5,-391.5 362.5,-421.5 477.5,-421.5 477.5,-391.5 362.5,-391.5"/>
<text text-anchor="start" x="370.5" y="-409.5" font-family="Helvetica,sans-Serif" font-size="10.00" fill="#000000">sbml/packages/render</text>
<text text-anchor="middle" x="420" y="-398.5" font-family="Helvetica,sans-Serif" font-size="10.00" fill="#000000">/sbml/GlobalStyle.h</text>
</a>
</g>
</g>
<!-- Node1&#45;&gt;Node2 -->
<g id="edge1" class="edge">
<title>Node1&#45;&gt;Node2</title>
<path fill="none" stroke="#191970" d="M632.9015,-458.4581C594.2627,-449.0284 534.3663,-434.4108 487.9345,-423.0792"/>
<polygon fill="#191970" stroke="#191970" points="488.4896,-419.6121 477.9448,-420.6413 486.8299,-426.4125 488.4896,-419.6121"/>
</g>
<!-- Node12 -->
<g id="node12" class="node">
<title>Node12</title>
<g id="a_node12"><a xlink:href="_list_of_global_styles_8h.html" target="_top" xlink:title="Definition of the ListOfGlobalStyles_t class. ">
<polygon fill="#ffffff" stroke="#000000" points="510,-391.5 510,-421.5 644,-421.5 644,-391.5 510,-391.5"/>
<text text-anchor="start" x="518" y="-409.5" font-family="Helvetica,sans-Serif" font-size="10.00" fill="#000000">sbml/packages/render</text>
<text text-anchor="middle" x="577" y="-398.5" font-family="Helvetica,sans-Serif" font-size="10.00" fill="#000000">/sbml/ListOfGlobalStyles.h</text>
</a>
</g>
</g>
<!-- Node1&#45;&gt;Node12 -->
<g id="edge19" class="edge">
<title>Node1&#45;&gt;Node12</title>
<path fill="none" stroke="#191970" d="M657.1563,-458.3906C644.2992,-450.0673 625.2552,-437.7389 608.9558,-427.1872"/>
<polygon fill="#191970" stroke="#191970" points="610.5362,-424.0409 600.2396,-421.5446 606.7321,-429.9171 610.5362,-424.0409"/>
</g>
<!-- Node13 -->
<g id="node13" class="node">
<title>Node13</title>
<g id="a_node13"><a xlink:href="_render_s_b_m_l_error_8h.html" target="_top" xlink:title="Definition of the RenderSBMLError class. ">
<polygon fill="#ffffff" stroke="#000000" points="700,-391.5 700,-421.5 850,-421.5 850,-391.5 700,-391.5"/>
<text text-anchor="start" x="708" y="-409.5" font-family="Helvetica,sans-Serif" font-size="10.00" fill="#000000">sbml/packages/render</text>
<text text-anchor="middle" x="775" y="-398.5" font-family="Helvetica,sans-Serif" font-size="10.00" fill="#000000">/validator/RenderSBMLError.h</text>
</a>
</g>
</g>
<!-- Node1&#45;&gt;Node13 -->
<g id="edge23" class="edge">
<title>Node1&#45;&gt;Node13</title>
<path fill="none" stroke="#191970" d="M688.0938,-458.3906C702.1626,-449.9903 723.0641,-437.5103 740.8433,-426.8945"/>
<polygon fill="#191970" stroke="#191970" points="743.0117,-429.6763 749.8034,-421.5446 739.4231,-423.6661 743.0117,-429.6763"/>
</g>
<!-- Node14 -->
<g id="node14" class="node">
<title>Node14</title>
<g id="a_node14"><a xlink:href="_layout_annotation_8h.html" target="_top" xlink:title="Layout_t annotation I/O. ">
<polygon fill="#ffffff" stroke="#000000" points="702.5,-324.5 702.5,-354.5 823.5,-354.5 823.5,-324.5 702.5,-324.5"/>
<text text-anchor="start" x="710.5" y="-342.5" font-family="Helvetica,sans-Serif" font-size="10.00" fill="#000000">sbml/packages/layout</text>
<text text-anchor="middle" x="763" y="-331.5" font-family="Helvetica,sans-Serif" font-size="10.00" fill="#000000">/util/LayoutAnnotation.h</text>
</a>
</g>
</g>
<!-- Node1&#45;&gt;Node14 -->
<g id="edge24" class="edge">
<title>Node1&#45;&gt;Node14</title>
<path fill="none" stroke="#191970" d="M672.289,-458.1295C673.1861,-442.573 676.7805,-411.9683 691,-391 699.3986,-378.6153 711.824,-368.2014 723.9981,-360.0508"/>
<polygon fill="#191970" stroke="#191970" points="726.1704,-362.8186 732.7572,-354.5201 722.4331,-356.8998 726.1704,-362.8186"/>
</g>
<!-- Node19 -->
<g id="node19" class="node">
<title>Node19</title>
<g id="a_node19"><a xlink:href="_render_extension_8h.html" target="_top" xlink:title="Definition of RenderExtension_t, the core module of the render package. ">
<polygon fill="#ffffff" stroke="#000000" points="0,-257.5 0,-287.5 150,-287.5 150,-257.5 0,-257.5"/>
<text text-anchor="start" x="8" y="-275.5" font-family="Helvetica,sans-Serif" font-size="10.00" fill="#000000">sbml/packages/render</text>
<text text-anchor="middle" x="75" y="-264.5" font-family="Helvetica,sans-Serif" font-size="10.00" fill="#000000">/extension/RenderExtension.h</text>
</a>
</g>
</g>
<!-- Node1&#45;&gt;Node19 -->
<g id="edge38" class="edge">
<title>Node1&#45;&gt;Node19</title>
<path fill="none" stroke="#191970" d="M628.2777,-464.4004C566.4936,-458.7004 450.416,-445.7313 354,-422 267.054,-400.5996 240.6493,-401.2868 164,-355 137.2555,-338.8496 111.6321,-313.7279 94.8047,-295.4473"/>
<polygon fill="#191970" stroke="#191970" points="97.0145,-292.6713 87.7197,-287.5862 91.8148,-297.3577 97.0145,-292.6713"/>
</g>
<!-- Node20 -->
<g id="node20" class="node">
<title>Node20</title>
<polygon fill="#ffffff" stroke="#bfbfbf" points="868,-397 868,-416 920,-416 920,-397 868,-397"/>
<text text-anchor="middle" x="894" y="-404" font-family="Helvetica,sans-Serif" font-size="10.00" fill="#000000">assert.h</text>
</g>
<!-- Node1&#45;&gt;Node20 -->
<g id="edge40" class="edge">
<title>Node1&#45;&gt;Node20</title>
<path fill="none" stroke="#191970" d="M715.7002,-459.5236C754.0005,-451.5593 810.9081,-438.4216 859,-422 860.8395,-421.3719 862.7156,-420.6849 864.5959,-419.9608"/>
<polygon fill="#191970" stroke="#191970" points="865.9724,-423.1792 873.8824,-416.1306 863.3033,-416.708 865.9724,-423.1792"/>
</g>
<!-- Node21 -->
<g id="node21" class="node">
<title>Node21</title>
<polygon fill="#ffffff" stroke="#bfbfbf" points="938,-397 938,-416 996,-416 996,-397 938,-397"/>
<text text-anchor="middle" x="967" y="-404" font-family="Helvetica,sans-Serif" font-size="10.00" fill="#000000">algorithm</text>
</g>
<!-- Node1&#45;&gt;Node21 -->
<g id="edge41" class="edge">
<title>Node1&#45;&gt;Node21</title>
<path fill="none" stroke="#191970" d="M715.8388,-463.0059C767.5145,-456.4678 855.6449,-443.2687 929,-422 931.3095,-421.3304 933.6706,-420.5679 936.0294,-419.7487"/>
<polygon fill="#191970" stroke="#191970" points="937.4507,-422.9535 945.5761,-416.1543 934.9842,-416.4024 937.4507,-422.9535"/>
</g>
<!-- Node3 -->
<g id="node3" class="node">
<title>Node3</title>
<g id="a_node3"><a xlink:href="extern_8h.html" target="_top" xlink:title="Definitions of LIBSBML_EXTERN and related things. ">
<polygon fill="#ffffff" stroke="#000000" points="609,-67.5 609,-86.5 727,-86.5 727,-67.5 609,-67.5"/>
<text text-anchor="middle" x="668" y="-74.5" font-family="Helvetica,sans-Serif" font-size="10.00" fill="#000000">sbml/common/extern.h</text>
</a>
</g>
</g>
<!-- Node2&#45;&gt;Node3 -->
<g id="edge2" class="edge">
<title>Node2&#45;&gt;Node3</title>
<path fill="none" stroke="#191970" d="M362.3424,-399.9351C290.7638,-388.2111 178,-356.4232 178,-272.5 178,-272.5 178,-272.5 178,-205.5 178,-167.8735 168.7345,-147.8357 197,-123 226.5282,-97.0548 475.1114,-84.1942 598.7443,-79.3543"/>
<polygon fill="#191970" stroke="#191970" points="599.0092,-82.8468 608.8673,-78.965 598.7401,-75.852 599.0092,-82.8468"/>
</g>
<!-- Node5 -->
<g id="node5" class="node">
<title>Node5</title>
<polygon fill="#ffffff" stroke="#bfbfbf" points="512.5,-129 512.5,-148 639.5,-148 639.5,-129 512.5,-129"/>
<text text-anchor="middle" x="576" y="-136" font-family="Helvetica,sans-Serif" font-size="10.00" fill="#000000">sbml/common/sbmlfwd.h</text>
</g>
<!-- Node2&#45;&gt;Node5 -->
<g id="edge4" class="edge">
<title>Node2&#45;&gt;Node5</title>
<path fill="none" stroke="#191970" d="M421.8531,-391.305C424.3379,-374.2869 429.6851,-346.1839 440,-324 471.9929,-255.1939 531.4214,-186.3301 559.9299,-155.4034"/>
<polygon fill="#191970" stroke="#191970" points="562.5288,-157.7484 566.7903,-148.0483 557.4099,-152.9737 562.5288,-157.7484"/>
</g>
<!-- Node6 -->
<g id="node6" class="node">
<title>Node6</title>
<g id="a_node6"><a xlink:href="renderfwd_8h.html" target="_top" xlink:title="Definition of renderfwd. ">
<polygon fill="#ffffff" stroke="#000000" points="448.5,-324.5 448.5,-354.5 563.5,-354.5 563.5,-324.5 448.5,-324.5"/>
<text text-anchor="start" x="456.5" y="-342.5" font-family="Helvetica,sans-Serif" font-size="10.00" fill="#000000">sbml/packages/render</text>
<text text-anchor="middle" x="506" y="-331.5" font-family="Helvetica,sans-Serif" font-size="10.00" fill="#000000">/common/renderfwd.h</text>
</a>
</g>
</g>
<!-- Node2&#45;&gt;Node6 -->
<g id="edge5" class="edge">
<title>Node2&#45;&gt;Node6</title>
<path fill="none" stroke="#191970" d="M439.5147,-391.2967C451.0602,-382.302 465.864,-370.7687 478.5706,-360.8694"/>
<polygon fill="#191970" stroke="#191970" points="480.8249,-363.55 486.5625,-354.6432 476.5229,-358.028 480.8249,-363.55"/>
</g>
<!-- Node7 -->
<g id="node7" class="node">
<title>Node7</title>
<g id="a_node7"><a xlink:href="_x_m_l_node_8h.html" target="_top" xlink:title="Class definition of XMLNode_t, a node in an XML document tree. ">
<polygon fill="#ffffff" stroke="#000000" points="280,-330 280,-349 392,-349 392,-330 280,-330"/>
<text text-anchor="middle" x="336" y="-337" font-family="Helvetica,sans-Serif" font-size="10.00" fill="#000000">sbml/xml/XMLNode.h</text>
</a>
</g>
</g>
<!-- Node2&#45;&gt;Node7 -->
<g id="edge6" class="edge">
<title>Node2&#45;&gt;Node7</title>
<path fill="none" stroke="#191970" d="M400.9391,-391.2967C387.4703,-380.5537 369.4615,-366.1895 355.8252,-355.3129"/>
<polygon fill="#191970" stroke="#191970" points="357.9796,-352.5544 347.9794,-349.055 353.6147,-358.0268 357.9796,-352.5544"/>
</g>
<!-- Node4 -->
<g id="node4" class="node">
<title>Node4</title>
<g id="a_node4"><a xlink:href="libsbml-namespace_8h.html" target="_top" xlink:title="Defines C++ namespace of libSBML. ">
<polygon fill="#ffffff" stroke="#000000" points="409.5,-.5 409.5,-30.5 522.5,-30.5 522.5,-.5 409.5,-.5"/>
<text text-anchor="start" x="417.5" y="-18.5" font-family="Helvetica,sans-Serif" font-size="10.00" fill="#000000">sbml/common/libsbml</text>
<text text-anchor="middle" x="466" y="-7.5" font-family="Helvetica,sans-Serif" font-size="10.00" fill="#000000">&#45;namespace.h</text>
</a>
</g>
</g>
<!-- Node3&#45;&gt;Node4 -->
<g id="edge3" class="edge">
<title>Node3&#45;&gt;Node4</title>
<path fill="none" stroke="#191970" d="M636.4375,-67.3906C606.8211,-58.3737 561.7656,-44.6563 525.4162,-33.5896"/>
<polygon fill="#191970" stroke="#191970" points="526.0006,-30.109 515.4148,-30.5446 523.9618,-36.8055 526.0006,-30.109"/>
</g>
<!-- Node7&#45;&gt;Node5 -->
<g id="edge18" class="edge">
<title>Node7&#45;&gt;Node5</title>
<path fill="none" stroke="#191970" d="M355.801,-329.9399C373.8693,-320.6735 400.7604,-305.4815 421,-288 463.7642,-251.0634 460.4255,-228.2707 502,-190 516.9725,-176.2174 535.8239,-163.1507 550.7524,-153.6278"/>
<polygon fill="#191970" stroke="#191970" points="552.8438,-156.4482 559.4707,-148.1817 549.1352,-150.5113 552.8438,-156.4482"/>
</g>
<!-- Node8 -->
<g id="node8" class="node">
<title>Node8</title>
<g id="a_node8"><a xlink:href="_x_m_l_extern_8h.html" target="_top" xlink:title="Defines LIBLAX_EXTERN. ">
<polygon fill="#ffffff" stroke="#000000" points="206.5,-129 206.5,-148 323.5,-148 323.5,-129 206.5,-129"/>
<text text-anchor="middle" x="265" y="-136" font-family="Helvetica,sans-Serif" font-size="10.00" fill="#000000">sbml/xml/XMLExtern.h</text>
</a>
</g>
</g>
<!-- Node7&#45;&gt;Node8 -->
<g id="edge7" class="edge">
<title>Node7&#45;&gt;Node8</title>
<path fill="none" stroke="#191970" d="M316.4074,-329.9467C300.8479,-321.2634 279.947,-306.9215 269,-288 245.2496,-246.9481 253.356,-188.3654 259.9495,-158.17"/>
<polygon fill="#191970" stroke="#191970" points="263.4395,-158.6199 262.3329,-148.083 256.6271,-157.0102 263.4395,-158.6199"/>
</g>
<!-- Node9 -->
<g id="node9" class="node">
<title>Node9</title>
<g id="a_node9"><a xlink:href="_x_m_l_token_8h.html" target="_top" xlink:title="A unit of XML syntax, either an XML element or text. ">
<polygon fill="#ffffff" stroke="#000000" points="278.5,-263 278.5,-282 393.5,-282 393.5,-263 278.5,-263"/>
<text text-anchor="middle" x="336" y="-270" font-family="Helvetica,sans-Serif" font-size="10.00" fill="#000000">sbml/xml/XMLToken.h</text>
</a>
</g>
</g>
<!-- Node7&#45;&gt;Node9 -->
<g id="edge9" class="edge">
<title>Node7&#45;&gt;Node9</title>
<path fill="none" stroke="#191970" d="M336,-329.9005C336,-320.149 336,-304.7597 336,-292.3695"/>
<polygon fill="#191970" stroke="#191970" points="339.5001,-292.0816 336,-282.0817 332.5001,-292.0817 339.5001,-292.0816"/>
</g>
<!-- Node8&#45;&gt;Node4 -->
<g id="edge8" class="edge">
<title>Node8&#45;&gt;Node4</title>
<path fill="none" stroke="#191970" d="M280.7721,-128.8484C313.4134,-108.8739 388.9818,-62.6305 432.8453,-35.7887"/>
<polygon fill="#191970" stroke="#191970" points="434.7324,-38.7373 441.4352,-30.5322 431.0786,-32.7665 434.7324,-38.7373"/>
</g>
<!-- Node9&#45;&gt;Node5 -->
<g id="edge17" class="edge">
<title>Node9&#45;&gt;Node5</title>
<path fill="none" stroke="#191970" d="M352.8585,-262.8217C370.1879,-252.749 397.8352,-236.3324 421,-221 440.6462,-207.9965 443.6465,-201.8658 464,-190 489.2859,-175.2587 519.5195,-161.5698 542.1979,-152.016"/>
<polygon fill="#191970" stroke="#191970" points="543.8371,-155.1251 551.7291,-148.0563 541.1515,-148.6608 543.8371,-155.1251"/>
</g>
<!-- Node9&#45;&gt;Node8 -->
<g id="edge10" class="edge">
<title>Node9&#45;&gt;Node8</title>
<path fill="none" stroke="#191970" d="M317.681,-262.9344C302.9048,-254.1556 282.993,-239.6862 273,-221 262.5902,-201.5345 261.7833,-175.7748 262.8087,-158.2533"/>
<polygon fill="#191970" stroke="#191970" points="266.314,-158.3359 263.6646,-148.0777 259.3386,-157.7492 266.314,-158.3359"/>
</g>
<!-- Node9&#45;&gt;Node9 -->
<g id="edge16" class="edge">
<title>Node9&#45;&gt;Node9</title>
<path fill="none" stroke="#191970" d="M359.5778,-282.0645C384.0654,-287.8698 411.5,-284.6816 411.5,-272.5 411.5,-261.9362 390.8688,-258.1357 369.4193,-261.0984"/>
<polygon fill="#191970" stroke="#191970" points="368.7657,-257.6598 359.5778,-262.9355 370.0503,-264.541 368.7657,-257.6598"/>
</g>
<!-- Node10 -->
<g id="node10" class="node">
<title>Node10</title>
<g id="a_node10"><a xlink:href="_x_m_l_attributes_8h.html" target="_top" xlink:title="XMLAttributes_t are a list of name/value pairs for XML elements. ">
<polygon fill="#ffffff" stroke="#000000" points="282,-196 282,-215 412,-215 412,-196 282,-196"/>
<text text-anchor="middle" x="347" y="-203" font-family="Helvetica,sans-Serif" font-size="10.00" fill="#000000">sbml/xml/XMLAttributes.h</text>
</a>
</g>
</g>
<!-- Node9&#45;&gt;Node10 -->
<g id="edge11" class="edge">
<title>Node9&#45;&gt;Node10</title>
<path fill="none" stroke="#191970" d="M337.576,-262.9005C339.1934,-253.0495 341.7553,-237.4451 343.8,-224.9912"/>
<polygon fill="#191970" stroke="#191970" points="347.2605,-225.5166 345.4269,-215.0817 340.3529,-224.3825 347.2605,-225.5166"/>
</g>
<!-- Node10&#45;&gt;Node5 -->
<g id="edge13" class="edge">
<title>Node10&#45;&gt;Node5</title>
<path fill="none" stroke="#191970" d="M379.8101,-195.9005C420.2821,-184.0594 489.1665,-163.9054 533.6094,-150.9025"/>
<polygon fill="#191970" stroke="#191970" points="534.6359,-154.249 543.2507,-148.0817 532.6703,-147.5306 534.6359,-154.249"/>
</g>
<!-- Node10&#45;&gt;Node8 -->
<g id="edge12" class="edge">
<title>Node10&#45;&gt;Node8</title>
<path fill="none" stroke="#191970" d="M335.2514,-195.9005C322.0989,-185.1539 300.5664,-167.5603 284.8017,-154.6794"/>
<polygon fill="#191970" stroke="#191970" points="286.6852,-151.6986 276.7268,-148.0817 282.2561,-157.1193 286.6852,-151.6986"/>
</g>
<!-- Node11 -->
<g id="node11" class="node">
<title>Node11</title>
<g id="a_node11"><a xlink:href="operation_return_values_8h.html" target="_top" xlink:title="Enumeration of values returned by operations within libSBML. ">
<polygon fill="#ffffff" stroke="#000000" points="341.5,-123.5 341.5,-153.5 494.5,-153.5 494.5,-123.5 341.5,-123.5"/>
<text text-anchor="start" x="349.5" y="-141.5" font-family="Helvetica,sans-Serif" font-size="10.00" fill="#000000">sbml/common/operationReturn</text>
<text text-anchor="middle" x="418" y="-130.5" font-family="Helvetica,sans-Serif" font-size="10.00" fill="#000000">Values.h</text>
</a>
</g>
</g>
<!-- Node10&#45;&gt;Node11 -->
<g id="edge14" class="edge">
<title>Node10&#45;&gt;Node11</title>
<path fill="none" stroke="#191970" d="M357.1726,-195.9005C366.8892,-186.7313 381.8879,-172.5776 394.56,-160.6195"/>
<polygon fill="#191970" stroke="#191970" points="397.2106,-162.9306 402.0814,-153.5218 392.4063,-157.8395 397.2106,-162.9306"/>
</g>
<!-- Node11&#45;&gt;Node3 -->
<g id="edge15" class="edge">
<title>Node11&#45;&gt;Node3</title>
<path fill="none" stroke="#191970" d="M479.1569,-123.4554C522.3336,-112.8339 579.4021,-98.7951 619.46,-88.9408"/>
<polygon fill="#191970" stroke="#191970" points="620.3845,-92.3178 629.2589,-86.5303 618.7123,-85.5205 620.3845,-92.3178"/>
</g>
<!-- Node12&#45;&gt;Node3 -->
<g id="edge20" class="edge">
<title>Node12&#45;&gt;Node3</title>
<path fill="none" stroke="#191970" d="M596.2988,-391.4657C623.011,-368.8021 668,-323.1182 668,-272.5 668,-272.5 668,-272.5 668,-205.5 668,-167.0012 668,-122.0145 668,-96.7812"/>
<polygon fill="#191970" stroke="#191970" points="671.5001,-96.6718 668,-86.6719 664.5001,-96.6719 671.5001,-96.6718"/>
</g>
<!-- Node12&#45;&gt;Node5 -->
<g id="edge21" class="edge">
<title>Node12&#45;&gt;Node5</title>
<path fill="none" stroke="#191970" d="M576.9434,-391.3233C576.7728,-345.6161 576.2641,-209.2783 576.0733,-158.1539"/>
<polygon fill="#191970" stroke="#191970" points="579.5732,-158.0794 576.0358,-148.0926 572.5732,-158.1056 579.5732,-158.0794"/>
</g>
<!-- Node12&#45;&gt;Node6 -->
<g id="edge22" class="edge">
<title>Node12&#45;&gt;Node6</title>
<path fill="none" stroke="#191970" d="M560.889,-391.2967C551.6296,-382.559 539.8317,-371.4257 529.5485,-361.7218"/>
<polygon fill="#191970" stroke="#191970" points="531.7224,-358.9609 522.0472,-354.6432 526.9181,-364.052 531.7224,-358.9609"/>
</g>
<!-- Node14&#45;&gt;Node3 -->
<g id="edge25" class="edge">
<title>Node14&#45;&gt;Node3</title>
<path fill="none" stroke="#191970" d="M792.0925,-324.3827C834.7995,-299.9168 907.3218,-248.4457 887,-190 874.5306,-154.1379 865.6349,-143.9955 834,-123 805.2207,-103.8997 768.6199,-92.6709 737.1135,-86.0987"/>
<polygon fill="#191970" stroke="#191970" points="737.5671,-82.6209 727.0795,-84.1244 736.2157,-89.4893 737.5671,-82.6209"/>
</g>
<!-- Node14&#45;&gt;Node5 -->
<g id="edge26" class="edge">
<title>Node14&#45;&gt;Node5</title>
<path fill="none" stroke="#191970" d="M740.9443,-324.3532C727.4039,-314.6251 710.0291,-301.3501 696,-288 651.401,-245.5597 608.6001,-186.3952 588.2848,-156.8347"/>
<polygon fill="#191970" stroke="#191970" points="591.0229,-154.6369 582.5053,-148.336 585.2346,-158.5733 591.0229,-154.6369"/>
</g>
<!-- Node14&#45;&gt;Node10 -->
<g id="edge27" class="edge">
<title>Node14&#45;&gt;Node10</title>
<path fill="none" stroke="#191970" d="M704.7738,-324.4357C668.1845,-314.6872 620.1057,-301.3607 578,-288 507.4326,-265.608 426.1767,-235.5812 381.2943,-218.6162"/>
<polygon fill="#191970" stroke="#191970" points="382.3468,-215.2722 371.7555,-215.0001 379.8654,-221.8177 382.3468,-215.2722"/>
</g>
<!-- Node15 -->
<g id="node15" class="node">
<title>Node15</title>
<g id="a_node15"><a xlink:href="_species_reference_8h.html" target="_top" xlink:title="Definitions of SpeciesReference_t and ListOfSpeciesReferences_t. ">
<polygon fill="#ffffff" stroke="#000000" points="705,-263 705,-282 835,-282 835,-263 705,-263"/>
<text text-anchor="middle" x="770" y="-270" font-family="Helvetica,sans-Serif" font-size="10.00" fill="#000000">sbml/SpeciesReference.h</text>
</a>
</g>
</g>
<!-- Node14&#45;&gt;Node15 -->
<g id="edge28" class="edge">
<title>Node14&#45;&gt;Node15</title>
<path fill="none" stroke="#191970" d="M764.5884,-324.2967C765.5837,-314.7699 766.8766,-302.3954 767.949,-292.1306"/>
<polygon fill="#191970" stroke="#191970" points="771.4436,-292.3646 769.0017,-282.055 764.4815,-291.6371 771.4436,-292.3646"/>
</g>
<!-- Node17 -->
<g id="node17" class="node">
<title>Node17</title>
<g id="a_node17"><a xlink:href="_layout_8h.html" target="_top" xlink:title="Definition of Layout_t for SBML Layout_t. ">
<polygon fill="#ffffff" stroke="#000000" points="956.5,-190.5 956.5,-220.5 1069.5,-220.5 1069.5,-190.5 956.5,-190.5"/>
<text text-anchor="start" x="964.5" y="-208.5" font-family="Helvetica,sans-Serif" font-size="10.00" fill="#000000">sbml/packages/layout</text>
<text text-anchor="middle" x="1013" y="-197.5" font-family="Helvetica,sans-Serif" font-size="10.00" fill="#000000">/sbml/Layout.h</text>
</a>
</g>
</g>
<!-- Node14&#45;&gt;Node17 -->
<g id="edge34" class="edge">
<title>Node14&#45;&gt;Node17</title>
<path fill="none" stroke="#191970" d="M823.8477,-331.0097C860.303,-323.815 906.3395,-310.8653 942,-288 965.5133,-272.9234 985.5439,-247.753 998.2747,-229.1712"/>
<polygon fill="#191970" stroke="#191970" points="1001.3141,-230.9207 1003.9212,-220.6517 995.4793,-227.0535 1001.3141,-230.9207"/>
</g>
<!-- Node15&#45;&gt;Node3 -->
<g id="edge29" class="edge">
<title>Node15&#45;&gt;Node3</title>
<path fill="none" stroke="#191970" d="M810.3724,-262.9501C832.392,-255.4587 857.7881,-242.5671 871,-221 878.1971,-209.2514 877.9821,-201.8776 871,-190 838.395,-134.5343 767.6089,-104.3176 718.8808,-89.4192"/>
<polygon fill="#191970" stroke="#191970" points="719.7247,-86.0192 709.1434,-86.5548 717.7492,-92.7347 719.7247,-86.0192"/>
</g>
<!-- Node15&#45;&gt;Node5 -->
<g id="edge30" class="edge">
<title>Node15&#45;&gt;Node5</title>
<path fill="none" stroke="#191970" d="M753.5202,-262.8307C736.5842,-252.7652 709.5762,-236.3543 687,-221 654.5744,-198.9469 618.3443,-171.4543 596.3614,-154.4384"/>
<polygon fill="#191970" stroke="#191970" points="598.4462,-151.6259 588.4025,-148.2532 594.1508,-157.1531 598.4462,-151.6259"/>
</g>
<!-- Node16 -->
<g id="node16" class="node">
<title>Node16</title>
<g id="a_node16"><a xlink:href="_modifier_species_reference_8h.html" target="_top" xlink:title="Definitions of ModifierSpeciesReference_t. ">
<polygon fill="#ffffff" stroke="#000000" points="696,-196 696,-215 862,-215 862,-196 696,-196"/>
<text text-anchor="middle" x="779" y="-203" font-family="Helvetica,sans-Serif" font-size="10.00" fill="#000000">sbml/ModifierSpeciesReference.h</text>
</a>
</g>
</g>
<!-- Node15&#45;&gt;Node16 -->
<g id="edge31" class="edge">
<title>Node15&#45;&gt;Node16</title>
<path fill="none" stroke="#191970" d="M771.2895,-262.9005C772.5994,-253.149 774.6666,-237.7597 776.331,-225.3695"/>
<polygon fill="#191970" stroke="#191970" points="779.8503,-225.4586 777.7129,-215.0817 772.9127,-224.5266 779.8503,-225.4586"/>
</g>
<!-- Node16&#45;&gt;Node3 -->
<g id="edge32" class="edge">
<title>Node16&#45;&gt;Node3</title>
<path fill="none" stroke="#191970" d="M770.657,-195.8416C752.0147,-174.2602 706.7598,-121.8706 683.0523,-94.4254"/>
<polygon fill="#191970" stroke="#191970" points="685.6255,-92.0501 676.4399,-86.7705 680.3282,-96.626 685.6255,-92.0501"/>
</g>
<!-- Node16&#45;&gt;Node5 -->
<g id="edge33" class="edge">
<title>Node16&#45;&gt;Node5</title>
<path fill="none" stroke="#191970" d="M749.915,-195.9005C714.3396,-184.1589 653.9992,-164.2436 614.5755,-151.2318"/>
<polygon fill="#191970" stroke="#191970" points="615.6241,-147.8923 605.031,-148.0817 613.4302,-154.5396 615.6241,-147.8923"/>
</g>
<!-- Node17&#45;&gt;Node3 -->
<g id="edge35" class="edge">
<title>Node17&#45;&gt;Node3</title>
<path fill="none" stroke="#191970" d="M1004.6294,-190.4984C993.1501,-171.4557 970.6437,-139.1447 942,-123 907.857,-103.7557 806.649,-90.4074 737.2796,-83.2243"/>
<polygon fill="#191970" stroke="#191970" points="737.5902,-79.7379 727.2876,-82.2093 736.8826,-86.7021 737.5902,-79.7379"/>
</g>
<!-- Node17&#45;&gt;Node5 -->
<g id="edge36" class="edge">
<title>Node17&#45;&gt;Node5</title>
<path fill="none" stroke="#191970" d="M956.3179,-196.8096C877.4565,-184.7187 734.6137,-162.8183 648.2141,-149.5717"/>
<polygon fill="#191970" stroke="#191970" points="648.6393,-146.0961 638.2243,-148.0401 647.5784,-153.0152 648.6393,-146.0961"/>
</g>
<!-- Node18 -->
<g id="node18" class="node">
<title>Node18</title>
<g id="a_node18"><a xlink:href="layoutfwd_8h.html" target="_top" xlink:title="C Structure declarations for SBML Layout_t. ">
<polygon fill="#ffffff" stroke="#000000" points="994.5,-123.5 994.5,-153.5 1107.5,-153.5 1107.5,-123.5 994.5,-123.5"/>
<text text-anchor="start" x="1002.5" y="-141.5" font-family="Helvetica,sans-Serif" font-size="10.00" fill="#000000">sbml/packages/layout</text>
<text text-anchor="middle" x="1051" y="-130.5" font-family="Helvetica,sans-Serif" font-size="10.00" fill="#000000">/common/layoutfwd.h</text>
</a>
</g>
</g>
<!-- Node17&#45;&gt;Node18 -->
<g id="edge37" class="edge">
<title>Node17&#45;&gt;Node18</title>
<path fill="none" stroke="#191970" d="M1021.6228,-190.2967C1026.287,-182.0729 1032.1547,-171.7272 1037.4174,-162.4483"/>
<polygon fill="#191970" stroke="#191970" points="1040.5223,-164.0683 1042.4113,-153.6432 1034.4335,-160.6148 1040.5223,-164.0683"/>
</g>
<!-- Node19&#45;&gt;Node3 -->
<g id="edge39" class="edge">
<title>Node19&#45;&gt;Node3</title>
<path fill="none" stroke="#191970" d="M78.9814,-257.394C88.0926,-226.1565 113.6602,-154.7307 164,-123 199.9135,-100.3627 468.8528,-85.6879 598.5056,-79.855"/>
<polygon fill="#191970" stroke="#191970" points="598.8906,-83.3415 608.7252,-79.4006 598.5796,-76.3484 598.8906,-83.3415"/>
</g>
</g>
</svg>
        <g id="navigator" transform="translate(0 0)" fill="#404254">
                <rect fill="#f2f5e9" fill-opacity="0.5" stroke="#606060" stroke-width=".5" x="0" y="0" width="60" height="60"/>
                <use id="zoomplus" xlink:href="#zoomPlus" x="17" y="9" onmousedown="handleZoom(evt,'in')"/>
                <use id="zoomminus" xlink:href="#zoomMin" x="42" y="9" onmousedown="handleZoom(evt,'out')"/>
                <use id="reset" xlink:href="#resetDef" x="30" y="36" onmousedown="handleReset()"/>
                <g id="arrowUp" xlink:href="#dirArrow" transform="translate(30 24)" onmousedown="handlePan(0,-1)">
                  <use xlink:href="#rim" fill="#404040">
                        <set attributeName="fill" to="#808080" begin="arrowUp.mouseover" end="arrowUp.mouseout"/>
                  </use>
                  <path fill="none" stroke="white" stroke-width="1.5" d="M0,-3.0v7 M-2.5,-0.5L0,-3.0L2.5,-0.5"/>
                </g>
                <g id="arrowRight" xlink:href="#dirArrow" transform="rotate(90) translate(36 -43)" onmousedown="handlePan(1,0)">
                  <use xlink:href="#rim" fill="#404040">
                        <set attributeName="fill" to="#808080" begin="arrowRight.mouseover" end="arrowRight.mouseout"/>
                  </use>
                  <path fill="none" stroke="white" stroke-width="1.5" d="M0,-3.0v7 M-2.5,-0.5L0,-3.0L2.5,-0.5"/>
                </g>
                <g id="arrowDown" xlink:href="#dirArrow" transform="rotate(180) translate(-30 -48)" onmousedown="handlePan(0,1)">
                  <use xlink:href="#rim" fill="#404040">
                        <set attributeName="fill" to="#808080" begin="arrowDown.mouseover" end="arrowDown.mouseout"/>
                  </use>
                  <path fill="none" stroke="white" stroke-width="1.5" d="M0,-3.0v7 M-2.5,-0.5L0,-3.0L2.5,-0.5"/>
                </g>
                <g id="arrowLeft" xlink:href="#dirArrow" transform="rotate(270) translate(-36 17)" onmousedown="handlePan(-1,0)">
                  <use xlink:href="#rim" fill="#404040">
                        <set attributeName="fill" to="#808080" begin="arrowLeft.mouseover" end="arrowLeft.mouseout"/>
                  </use>
                  <path fill="none" stroke="white" stroke-width="1.5" d="M0,-3.0v7 M-2.5,-0.5L0,-3.0L2.5,-0.5"/>
                </g>
        </g>
        <svg viewBox="0 0 15 15" width="100%" height="30px" preserveAspectRatio="xMaxYMin meet">
         <g id="arrow_out" transform="scale(0.3 0.3)">
          <a xlink:href="_global_style_8cpp__incl_org.svg" target="_base">
           <rect id="button" ry="5" rx="5" y="6" x="6" height="38" width="38"
                fill="#f2f5e9" fill-opacity="0.5" stroke="#606060" stroke-width="1.0"/>
           <path id="arrow"
             d="M 11.500037,31.436501 C 11.940474,20.09759 22.043105,11.32322 32.158766,21.979434 L 37.068811,17.246167 C 37.068811,17.246167 37.088388,32 37.088388,32 L 22.160133,31.978069 C 22.160133,31.978069 26.997745,27.140456 26.997745,27.140456 C 18.528582,18.264221 13.291696,25.230495 11.500037,31.436501 z"
             style="fill:#404040;"/>
          </a>
         </g>
        </svg>
</svg>
