<?xml version="1.0" encoding="UTF-8" standalone="no"?>
<!DOCTYPE svg PUBLIC "-//W3C//DTD SVG 1.1//EN"
 "http://www.w3.org/Graphics/SVG/1.1/DTD/svg11.dtd">
<!-- Generated by graphviz version 2.40.1 (20161225.0304)
 -->
<!-- Title: GraphicalPrimitive1D.h Pages: 1 -->
<svg width="714pt" height="419pt"
 viewBox="0.00 0.00 713.50 419.00" xmlns="http://www.w3.org/2000/svg" xmlns:xlink="http://www.w3.org/1999/xlink">
<g id="graph0" class="graph" transform="scale(1 1) rotate(0) translate(4 415)">
<title>GraphicalPrimitive1D.h</title>
<polygon fill="#ffffff" stroke="transparent" points="-4,4 -4,-415 709.5,-415 709.5,4 -4,4"/>
<!-- Node1 -->
<g id="node1" class="node">
<title>Node1</title>
<polygon fill="#bfbfbf" stroke="#000000" points="193.5,-391.5 193.5,-410.5 312.5,-410.5 312.5,-391.5 193.5,-391.5"/>
<text text-anchor="middle" x="253" y="-398.5" font-family="Helvetica,sans-Serif" font-size="10.00" fill="#000000">GraphicalPrimitive1D.h</text>
</g>
<!-- Node2 -->
<g id="node2" class="node">
<title>Node2</title>
<g id="a_node2"><a xlink:href="extern_8h.html" target="_top" xlink:title="Definitions of LIBSBML_EXTERN and related things. ">
<polygon fill="#ffffff" stroke="#000000" points="185,-67.5 185,-86.5 303,-86.5 303,-67.5 185,-67.5"/>
<text text-anchor="middle" x="244" y="-74.5" font-family="Helvetica,sans-Serif" font-size="10.00" fill="#000000">sbml/common/extern.h</text>
</a>
</g>
</g>
<!-- Node1&#45;&gt;Node2 -->
<g id="edge1" class="edge">
<title>Node1&#45;&gt;Node2</title>
<path fill="none" stroke="#191970" d="M193.3629,-396.4802C118.565,-387.1855 0,-358.8358 0,-272.5 0,-272.5 0,-272.5 0,-205.5 0,-125.9372 102.822,-95.5214 174.9713,-83.9725"/>
<polygon fill="#191970" stroke="#191970" points="175.5706,-87.4217 184.9344,-82.4649 174.5233,-80.5005 175.5706,-87.4217"/>
</g>
<!-- Node4 -->
<g id="node4" class="node">
<title>Node4</title>
<polygon fill="#ffffff" stroke="#bfbfbf" points="272.5,-129 272.5,-148 399.5,-148 399.5,-129 272.5,-129"/>
<text text-anchor="middle" x="336" y="-136" font-family="Helvetica,sans-Serif" font-size="10.00" fill="#000000">sbml/common/sbmlfwd.h</text>
</g>
<!-- Node1&#45;&gt;Node4 -->
<g id="edge3" class="edge">
<title>Node1&#45;&gt;Node4</title>
<path fill="none" stroke="#191970" d="M244.7911,-391.1677C237.9886,-382.3343 228.8369,-368.6831 225,-355 221.28,-341.7339 221.3368,-337.2819 225,-324 243.8801,-255.5446 295.4881,-186.9464 321.1316,-155.812"/>
<polygon fill="#191970" stroke="#191970" points="323.8902,-157.9693 327.627,-148.0553 318.5234,-153.4751 323.8902,-157.9693"/>
</g>
<!-- Node5 -->
<g id="node5" class="node">
<title>Node5</title>
<g id="a_node5"><a xlink:href="renderfwd_8h.html" target="_top" xlink:title="Definition of renderfwd. ">
<polygon fill="#ffffff" stroke="#000000" points="310.5,-257.5 310.5,-287.5 425.5,-287.5 425.5,-257.5 310.5,-257.5"/>
<text text-anchor="start" x="318.5" y="-275.5" font-family="Helvetica,sans-Serif" font-size="10.00" fill="#000000">sbml/packages/render</text>
<text text-anchor="middle" x="368" y="-264.5" font-family="Helvetica,sans-Serif" font-size="10.00" fill="#000000">/common/renderfwd.h</text>
</a>
</g>
</g>
<!-- Node1&#45;&gt;Node5 -->
<g id="edge4" class="edge">
<title>Node1&#45;&gt;Node5</title>
<path fill="none" stroke="#191970" d="M291.8855,-391.4838C323.7676,-382.8019 365.1815,-369.1953 375,-355 386.5519,-338.2986 383.2222,-314.9062 377.9177,-297.2938"/>
<polygon fill="#191970" stroke="#191970" points="381.1867,-296.0349 374.6639,-287.6861 374.5566,-298.2804 381.1867,-296.0349"/>
</g>
<!-- Node6 -->
<g id="node6" class="node">
<title>Node6</title>
<g id="a_node6"><a xlink:href="_render_extension_8h.html" target="_top" xlink:title="Definition of RenderExtension_t, the core module of the render package. ">
<polygon fill="#ffffff" stroke="#000000" points="28,-190.5 28,-220.5 178,-220.5 178,-190.5 28,-190.5"/>
<text text-anchor="start" x="36" y="-208.5" font-family="Helvetica,sans-Serif" font-size="10.00" fill="#000000">sbml/packages/render</text>
<text text-anchor="middle" x="103" y="-197.5" font-family="Helvetica,sans-Serif" font-size="10.00" fill="#000000">/extension/RenderExtension.h</text>
</a>
</g>
</g>
<!-- Node1&#45;&gt;Node6 -->
<g id="edge5" class="edge">
<title>Node1&#45;&gt;Node6</title>
<path fill="none" stroke="#191970" d="M237.1164,-391.4913C223.9403,-383.0615 205.2802,-369.815 192,-355 157.0694,-316.0324 128.6558,-261.3369 113.9366,-230.0486"/>
<polygon fill="#191970" stroke="#191970" points="117.0182,-228.3734 109.6479,-220.7622 110.6632,-231.3083 117.0182,-228.3734"/>
</g>
<!-- Node7 -->
<g id="node7" class="node">
<title>Node7</title>
<g id="a_node7"><a xlink:href="_transformation2_d_8h.html" target="_top" xlink:title="abstract base class for representing 2D affine transformations ">
<polygon fill="#ffffff" stroke="#000000" points="234,-324.5 234,-354.5 366,-354.5 366,-324.5 234,-324.5"/>
<text text-anchor="start" x="242" y="-342.5" font-family="Helvetica,sans-Serif" font-size="10.00" fill="#000000">sbml/packages/render</text>
<text text-anchor="middle" x="300" y="-331.5" font-family="Helvetica,sans-Serif" font-size="10.00" fill="#000000">/sbml/Transformation2D.h</text>
</a>
</g>
</g>
<!-- Node1&#45;&gt;Node7 -->
<g id="edge7" class="edge">
<title>Node1&#45;&gt;Node7</title>
<path fill="none" stroke="#191970" d="M260.3438,-391.3906C266.2335,-383.6839 274.7473,-372.5434 282.3778,-362.5589"/>
<polygon fill="#191970" stroke="#191970" points="285.2113,-364.6153 288.5025,-354.5446 279.6495,-360.3648 285.2113,-364.6153"/>
</g>
<!-- Node8 -->
<g id="node8" class="node">
<title>Node8</title>
<g id="a_node8"><a xlink:href="_x_m_l_node_8h.html" target="_top" xlink:title="Class definition of XMLNode_t, a node in an XML document tree. ">
<polygon fill="#ffffff" stroke="#000000" points="453,-330 453,-349 565,-349 565,-330 453,-330"/>
<text text-anchor="middle" x="509" y="-337" font-family="Helvetica,sans-Serif" font-size="10.00" fill="#000000">sbml/xml/XMLNode.h</text>
</a>
</g>
</g>
<!-- Node1&#45;&gt;Node8 -->
<g id="edge11" class="edge">
<title>Node1&#45;&gt;Node8</title>
<path fill="none" stroke="#191970" d="M292.7191,-391.4581C337.5603,-380.6857 410.5843,-363.1428 459.2025,-351.4631"/>
<polygon fill="#191970" stroke="#191970" points="460.2819,-354.8034 469.1877,-349.0643 458.6468,-347.9971 460.2819,-354.8034"/>
</g>
<!-- Node3 -->
<g id="node3" class="node">
<title>Node3</title>
<g id="a_node3"><a xlink:href="libsbml-namespace_8h.html" target="_top" xlink:title="Defines C++ namespace of libSBML. ">
<polygon fill="#ffffff" stroke="#000000" points="230.5,-.5 230.5,-30.5 343.5,-30.5 343.5,-.5 230.5,-.5"/>
<text text-anchor="start" x="238.5" y="-18.5" font-family="Helvetica,sans-Serif" font-size="10.00" fill="#000000">sbml/common/libsbml</text>
<text text-anchor="middle" x="287" y="-7.5" font-family="Helvetica,sans-Serif" font-size="10.00" fill="#000000">&#45;namespace.h</text>
</a>
</g>
</g>
<!-- Node2&#45;&gt;Node3 -->
<g id="edge2" class="edge">
<title>Node2&#45;&gt;Node3</title>
<path fill="none" stroke="#191970" d="M250.7188,-67.3906C256.0533,-59.761 263.741,-48.7658 270.6679,-38.8588"/>
<polygon fill="#191970" stroke="#191970" points="273.6192,-40.7456 276.481,-30.5446 267.8824,-36.7345 273.6192,-40.7456"/>
</g>
<!-- Node6&#45;&gt;Node2 -->
<g id="edge6" class="edge">
<title>Node6&#45;&gt;Node2</title>
<path fill="none" stroke="#191970" d="M119.7282,-190.2548C146.3042,-166.0349 197.9788,-118.9413 225.5789,-93.788"/>
<polygon fill="#191970" stroke="#191970" points="228.2836,-96.0586 233.3171,-86.7358 223.5685,-90.8848 228.2836,-96.0586"/>
</g>
<!-- Node7&#45;&gt;Node2 -->
<g id="edge8" class="edge">
<title>Node7&#45;&gt;Node2</title>
<path fill="none" stroke="#191970" d="M296.7472,-324.2523C287.1332,-279.1868 258.8558,-146.6365 248.1614,-96.5064"/>
<polygon fill="#191970" stroke="#191970" points="251.5617,-95.6698 246.0523,-86.6202 244.7158,-97.1304 251.5617,-95.6698"/>
</g>
<!-- Node7&#45;&gt;Node4 -->
<g id="edge9" class="edge">
<title>Node7&#45;&gt;Node4</title>
<path fill="none" stroke="#191970" d="M299.2232,-324.4957C298.6273,-307.8853 298.4246,-280.3678 302,-257 307.4772,-221.2021 320.5671,-180.9581 328.8138,-157.7839"/>
<polygon fill="#191970" stroke="#191970" points="332.1912,-158.7374 332.318,-148.1433 325.6123,-156.346 332.1912,-158.7374"/>
</g>
<!-- Node7&#45;&gt;Node5 -->
<g id="edge10" class="edge">
<title>Node7&#45;&gt;Node5</title>
<path fill="none" stroke="#191970" d="M315.4303,-324.2967C324.2984,-315.559 335.5978,-304.4257 345.4465,-294.7218"/>
<polygon fill="#191970" stroke="#191970" points="347.964,-297.1548 352.6308,-287.6432 343.051,-292.1685 347.964,-297.1548"/>
</g>
<!-- Node8&#45;&gt;Node4 -->
<g id="edge23" class="edge">
<title>Node8&#45;&gt;Node4</title>
<path fill="none" stroke="#191970" d="M500.6559,-329.8054C473.3083,-298.0316 386.1271,-196.7401 350.9396,-155.8576"/>
<polygon fill="#191970" stroke="#191970" points="353.4366,-153.3934 344.2604,-148.0974 348.1311,-157.9598 353.4366,-153.3934"/>
</g>
<!-- Node9 -->
<g id="node9" class="node">
<title>Node9</title>
<g id="a_node9"><a xlink:href="_x_m_l_extern_8h.html" target="_top" xlink:title="Defines LIBLAX_EXTERN. ">
<polygon fill="#ffffff" stroke="#000000" points="588.5,-129 588.5,-148 705.5,-148 705.5,-129 588.5,-129"/>
<text text-anchor="middle" x="647" y="-136" font-family="Helvetica,sans-Serif" font-size="10.00" fill="#000000">sbml/xml/XMLExtern.h</text>
</a>
</g>
</g>
<!-- Node8&#45;&gt;Node9 -->
<g id="edge12" class="edge">
<title>Node8&#45;&gt;Node9</title>
<path fill="none" stroke="#191970" d="M555.8095,-329.9664C580.1085,-322.5844 608.1597,-309.795 625,-288 654.5715,-249.7279 652.9606,-189.0455 649.7432,-158.0792"/>
<polygon fill="#191970" stroke="#191970" points="653.2132,-157.6201 648.5399,-148.1117 646.2637,-158.4591 653.2132,-157.6201"/>
</g>
<!-- Node10 -->
<g id="node10" class="node">
<title>Node10</title>
<g id="a_node10"><a xlink:href="_x_m_l_token_8h.html" target="_top" xlink:title="A unit of XML syntax, either an XML element or text. ">
<polygon fill="#ffffff" stroke="#000000" points="482.5,-263 482.5,-282 597.5,-282 597.5,-263 482.5,-263"/>
<text text-anchor="middle" x="540" y="-270" font-family="Helvetica,sans-Serif" font-size="10.00" fill="#000000">sbml/xml/XMLToken.h</text>
</a>
</g>
</g>
<!-- Node8&#45;&gt;Node10 -->
<g id="edge14" class="edge">
<title>Node8&#45;&gt;Node10</title>
<path fill="none" stroke="#191970" d="M513.4415,-329.9005C518.0916,-319.8505 525.5123,-303.8122 531.3291,-291.2403"/>
<polygon fill="#191970" stroke="#191970" points="534.5439,-292.627 535.5667,-282.0817 528.191,-289.6876 534.5439,-292.627"/>
</g>
<!-- Node9&#45;&gt;Node3 -->
<g id="edge13" class="edge">
<title>Node9&#45;&gt;Node3</title>
<path fill="none" stroke="#191970" d="M619.051,-128.9507C559.3242,-108.5441 418.381,-60.3885 340.7004,-33.8476"/>
<polygon fill="#191970" stroke="#191970" points="341.6862,-30.4859 331.0917,-30.5647 339.423,-37.1099 341.6862,-30.4859"/>
</g>
<!-- Node10&#45;&gt;Node4 -->
<g id="edge22" class="edge">
<title>Node10&#45;&gt;Node4</title>
<path fill="none" stroke="#191970" d="M526.0402,-262.8871C511.1267,-252.5936 486.819,-235.7475 466,-221 446.775,-207.3817 442.7125,-202.9026 423,-190 403.0501,-176.942 379.7753,-163.2409 362.3217,-153.2561"/>
<polygon fill="#191970" stroke="#191970" points="363.7057,-150.0169 353.2822,-148.1189 360.247,-156.1028 363.7057,-150.0169"/>
</g>
<!-- Node10&#45;&gt;Node9 -->
<g id="edge15" class="edge">
<title>Node10&#45;&gt;Node9</title>
<path fill="none" stroke="#191970" d="M559.712,-262.953C576.1895,-254.0945 599.2925,-239.5013 614,-221 628.9451,-202.1998 637.9175,-175.7537 642.6543,-157.9147"/>
<polygon fill="#191970" stroke="#191970" points="646.0872,-158.6111 645.0718,-148.065 639.289,-156.9425 646.0872,-158.6111"/>
</g>
<!-- Node10&#45;&gt;Node10 -->
<g id="edge21" class="edge">
<title>Node10&#45;&gt;Node10</title>
<path fill="none" stroke="#191970" d="M563.5778,-282.0645C588.0654,-287.8698 615.5,-284.6816 615.5,-272.5 615.5,-261.9362 594.8688,-258.1357 573.4193,-261.0984"/>
<polygon fill="#191970" stroke="#191970" points="572.7657,-257.6598 563.5778,-262.9355 574.0503,-264.541 572.7657,-257.6598"/>
</g>
<!-- Node11 -->
<g id="node11" class="node">
<title>Node11</title>
<g id="a_node11"><a xlink:href="_x_m_l_attributes_8h.html" target="_top" xlink:title="XMLAttributes_t are a list of name/value pairs for XML elements. ">
<polygon fill="#ffffff" stroke="#000000" points="475,-196 475,-215 605,-215 605,-196 475,-196"/>
<text text-anchor="middle" x="540" y="-203" font-family="Helvetica,sans-Serif" font-size="10.00" fill="#000000">sbml/xml/XMLAttributes.h</text>
</a>
</g>
</g>
<!-- Node10&#45;&gt;Node11 -->
<g id="edge16" class="edge">
<title>Node10&#45;&gt;Node11</title>
<path fill="none" stroke="#191970" d="M540,-262.9005C540,-253.149 540,-237.7597 540,-225.3695"/>
<polygon fill="#191970" stroke="#191970" points="543.5001,-225.0816 540,-215.0817 536.5001,-225.0817 543.5001,-225.0816"/>
</g>
<!-- Node11&#45;&gt;Node4 -->
<g id="edge18" class="edge">
<title>Node11&#45;&gt;Node4</title>
<path fill="none" stroke="#191970" d="M510.7718,-195.9005C475.0211,-184.1589 414.3834,-164.2436 374.7655,-151.2318"/>
<polygon fill="#191970" stroke="#191970" points="375.7669,-147.8768 365.174,-148.0817 373.5826,-154.5273 375.7669,-147.8768"/>
</g>
<!-- Node11&#45;&gt;Node9 -->
<g id="edge17" class="edge">
<title>Node11&#45;&gt;Node9</title>
<path fill="none" stroke="#191970" d="M555.3305,-195.9005C573.0491,-184.8057 602.4228,-166.4128 623.1368,-153.4424"/>
<polygon fill="#191970" stroke="#191970" points="625.0799,-156.3553 631.6979,-148.0817 621.3649,-150.4224 625.0799,-156.3553"/>
</g>
<!-- Node12 -->
<g id="node12" class="node">
<title>Node12</title>
<g id="a_node12"><a xlink:href="operation_return_values_8h.html" target="_top" xlink:title="Enumeration of values returned by operations within libSBML. ">
<polygon fill="#ffffff" stroke="#000000" points="417.5,-123.5 417.5,-153.5 570.5,-153.5 570.5,-123.5 417.5,-123.5"/>
<text text-anchor="start" x="425.5" y="-141.5" font-family="Helvetica,sans-Serif" font-size="10.00" fill="#000000">sbml/common/operationReturn</text>
<text text-anchor="middle" x="494" y="-130.5" font-family="Helvetica,sans-Serif" font-size="10.00" fill="#000000">Values.h</text>
</a>
</g>
</g>
<!-- Node11&#45;&gt;Node12 -->
<g id="edge19" class="edge">
<title>Node11&#45;&gt;Node12</title>
<path fill="none" stroke="#191970" d="M533.4093,-195.9005C527.3516,-187.0773 518.1251,-173.6387 510.1221,-161.9822"/>
<polygon fill="#191970" stroke="#191970" points="512.859,-159.7848 504.3134,-153.5218 507.0881,-163.7468 512.859,-159.7848"/>
</g>
<!-- Node12&#45;&gt;Node2 -->
<g id="edge20" class="edge">
<title>Node12&#45;&gt;Node2</title>
<path fill="none" stroke="#191970" d="M432.8431,-123.4554C389.6664,-112.8339 332.5979,-98.7951 292.54,-88.9408"/>
<polygon fill="#191970" stroke="#191970" points="293.2877,-85.5205 282.7411,-86.5303 291.6155,-92.3178 293.2877,-85.5205"/>
</g>
</g>
</svg>
