<?xml version="1.0" encoding="UTF-8" standalone="no"?>
<!DOCTYPE svg PUBLIC "-//W3C//DTD SVG 1.1//EN"
 "http://www.w3.org/Graphics/SVG/1.1/DTD/svg11.dtd">
<!-- Generated by graphviz version 2.40.1 (20161225.0304)
 -->
<!-- Title: LayoutSpeciesReferencePlugin.h Pages: 1 -->
<svg width="2857pt" height="1079pt"
 viewBox="0.00 0.00 2857.35 1079.00" xmlns="http://www.w3.org/2000/svg" xmlns:xlink="http://www.w3.org/1999/xlink">
<g id="graph0" class="graph" transform="scale(1 1) rotate(0) translate(4 1075)">
<title>LayoutSpeciesReferencePlugin.h</title>
<polygon fill="#ffffff" stroke="transparent" points="-4,4 -4,-1075 2853.3488,-1075 2853.3488,4 -4,4"/>
<!-- Node1 -->
<g id="node1" class="node">
<title>Node1</title>
<polygon fill="#bfbfbf" stroke="#000000" points="578.3488,-1051.5 578.3488,-1070.5 742.3488,-1070.5 742.3488,-1051.5 578.3488,-1051.5"/>
<text text-anchor="middle" x="660.3488" y="-1058.5" font-family="Helvetica,sans-Serif" font-size="10.00" fill="#000000">LayoutSpeciesReferencePlugin.h</text>
</g>
<!-- Node2 -->
<g id="node2" class="node">
<title>Node2</title>
<polygon fill="#ffffff" stroke="#bfbfbf" points="811.8488,-129 811.8488,-148 938.8488,-148 938.8488,-129 811.8488,-129"/>
<text text-anchor="middle" x="875.3488" y="-136" font-family="Helvetica,sans-Serif" font-size="10.00" fill="#000000">sbml/common/sbmlfwd.h</text>
</g>
<!-- Node1&#45;&gt;Node2 -->
<g id="edge1" class="edge">
<title>Node1&#45;&gt;Node2</title>
<path fill="none" stroke="#191970" d="M610.8921,-1051.4546C569.1843,-1042.6484 513.4721,-1028.8739 495.3488,-1015 461.4857,-989.0769 446.3488,-975.1464 446.3488,-932.5 446.3488,-932.5 446.3488,-932.5 446.3488,-379 446.3488,-218.0912 678.8255,-163.7577 801.5076,-146.2877"/>
<polygon fill="#191970" stroke="#191970" points="802.1572,-149.7314 811.5864,-144.9002 801.2024,-142.7968 802.1572,-149.7314"/>
</g>
<!-- Node3 -->
<g id="node3" class="node">
<title>Node3</title>
<g id="a_node3"><a xlink:href="_s_b_m_l_error_log_8h.html" target="_top" xlink:title="Stores errors (and messages) encountered while processing SBML. ">
<polygon fill="#ffffff" stroke="#000000" points="2488.8488,-425.5 2488.8488,-444.5 2603.8488,-444.5 2603.8488,-425.5 2488.8488,-425.5"/>
<text text-anchor="middle" x="2546.3488" y="-432.5" font-family="Helvetica,sans-Serif" font-size="10.00" fill="#000000">sbml/SBMLErrorLog.h</text>
</a>
</g>
</g>
<!-- Node1&#45;&gt;Node3 -->
<g id="edge2" class="edge">
<title>Node1&#45;&gt;Node3</title>
<path fill="none" stroke="#191970" d="M742.413,-1059.6927C1102.0809,-1053.4341 2521.3488,-1023.0036 2521.3488,-932.5 2521.3488,-932.5 2521.3488,-932.5 2521.3488,-547 2521.3488,-513.7847 2531.9518,-476.3305 2539.3475,-454.2459"/>
<polygon fill="#191970" stroke="#191970" points="2542.6796,-455.3197 2542.6599,-444.7249 2536.0683,-453.0195 2542.6796,-455.3197"/>
</g>
<!-- Node21 -->
<g id="node21" class="node">
<title>Node21</title>
<g id="a_node21"><a xlink:href="_species_reference_8h.html" target="_top" xlink:title="Definitions of SpeciesReference_t and ListOfSpeciesReferences_t. ">
<polygon fill="#ffffff" stroke="#000000" points="258.3488,-257.5 258.3488,-276.5 388.3488,-276.5 388.3488,-257.5 258.3488,-257.5"/>
<text text-anchor="middle" x="323.3488" y="-264.5" font-family="Helvetica,sans-Serif" font-size="10.00" fill="#000000">sbml/SpeciesReference.h</text>
</a>
</g>
</g>
<!-- Node1&#45;&gt;Node21 -->
<g id="edge37" class="edge">
<title>Node1&#45;&gt;Node21</title>
<path fill="none" stroke="#191970" d="M590.5744,-1051.4673C533.9425,-1042.9014 459.2393,-1029.4732 432.3488,-1015 386.8261,-990.4984 350.3488,-984.1976 350.3488,-932.5 350.3488,-932.5 350.3488,-932.5 350.3488,-379 350.3488,-345.6538 338.8975,-308.2392 330.9102,-286.1981"/>
<polygon fill="#191970" stroke="#191970" points="334.1324,-284.823 327.3327,-276.6981 327.5815,-287.29 334.1324,-284.823"/>
</g>
<!-- Node23 -->
<g id="node23" class="node">
<title>Node23</title>
<g id="a_node23"><a xlink:href="_x_m_l_input_stream_8h.html" target="_top" xlink:title="XMLInputStream_t. ">
<polygon fill="#ffffff" stroke="#000000" points="1473.3488,-369.5 1473.3488,-388.5 1615.3488,-388.5 1615.3488,-369.5 1473.3488,-369.5"/>
<text text-anchor="middle" x="1544.3488" y="-376.5" font-family="Helvetica,sans-Serif" font-size="10.00" fill="#000000">sbml/xml/XMLInputStream.h</text>
</a>
</g>
</g>
<!-- Node1&#45;&gt;Node23 -->
<g id="edge43" class="edge">
<title>Node1&#45;&gt;Node23</title>
<path fill="none" stroke="#191970" d="M666.7547,-1051.4807C680.0367,-1030.7906 709.3488,-979.7744 709.3488,-932.5 709.3488,-932.5 709.3488,-932.5 709.3488,-664.5 709.3488,-506.227 1253.2691,-417.4614 1463.1195,-389.1044"/>
<polygon fill="#191970" stroke="#191970" points="1463.7104,-392.5566 1473.1571,-387.7597 1462.7809,-385.6186 1463.7104,-392.5566"/>
</g>
<!-- Node26 -->
<g id="node26" class="node">
<title>Node26</title>
<g id="a_node26"><a xlink:href="_x_m_l_output_stream_8h.html" target="_top" xlink:title="XMLOutputStream_t. ">
<polygon fill="#ffffff" stroke="#000000" points="504.3488,-990 504.3488,-1009 654.3488,-1009 654.3488,-990 504.3488,-990"/>
<text text-anchor="middle" x="579.3488" y="-997" font-family="Helvetica,sans-Serif" font-size="10.00" fill="#000000">sbml/xml/XMLOutputStream.h</text>
</a>
</g>
</g>
<!-- Node1&#45;&gt;Node26 -->
<g id="edge56" class="edge">
<title>Node1&#45;&gt;Node26</title>
<path fill="none" stroke="#191970" d="M647.6925,-1051.3906C634.9719,-1041.7324 615.1484,-1026.6812 600.1203,-1015.271"/>
<polygon fill="#191970" stroke="#191970" points="601.9971,-1012.3015 591.9161,-1009.0419 597.7641,-1017.8766 601.9971,-1012.3015"/>
</g>
<!-- Node27 -->
<g id="node27" class="node">
<title>Node27</title>
<g id="a_node27"><a xlink:href="_s_base_plugin_8h.html" target="_top" xlink:title="Definition of SBasePlugin_t, the base class of extension entities plugged in SBase_t derived classes ...">
<polygon fill="#ffffff" stroke="#000000" points="1169.3488,-856 1169.3488,-875 1321.3488,-875 1321.3488,-856 1169.3488,-856"/>
<text text-anchor="middle" x="1245.3488" y="-863" font-family="Helvetica,sans-Serif" font-size="10.00" fill="#000000">sbml/extension/SBasePlugin.h</text>
</a>
</g>
</g>
<!-- Node1&#45;&gt;Node27 -->
<g id="edge58" class="edge">
<title>Node1&#45;&gt;Node27</title>
<path fill="none" stroke="#191970" d="M742.7127,-1056.473C840.4946,-1050.2033 997.1486,-1037.0792 1051.3488,-1015 1127.221,-984.0925 1198.7767,-915.0251 1229.536,-882.7454"/>
<polygon fill="#191970" stroke="#191970" points="1232.1612,-885.0627 1236.4549,-875.3769 1227.0582,-880.271 1232.1612,-885.0627"/>
</g>
<!-- Node48 -->
<g id="node48" class="node">
<title>Node48</title>
<g id="a_node48"><a xlink:href="_layout_8h.html" target="_top" xlink:title="Definition of Layout_t for SBML Layout_t. ">
<polygon fill="#ffffff" stroke="#000000" points="44.8488,-190.5 44.8488,-220.5 157.8488,-220.5 157.8488,-190.5 44.8488,-190.5"/>
<text text-anchor="start" x="52.8488" y="-208.5" font-family="Helvetica,sans-Serif" font-size="10.00" fill="#000000">sbml/packages/layout</text>
<text text-anchor="middle" x="101.3488" y="-197.5" font-family="Helvetica,sans-Serif" font-size="10.00" fill="#000000">/sbml/Layout.h</text>
</a>
</g>
</g>
<!-- Node1&#45;&gt;Node48 -->
<g id="edge134" class="edge">
<title>Node1&#45;&gt;Node48</title>
<path fill="none" stroke="#191970" d="M578.3138,-1059.0189C423.21,-1053.0334 102.3488,-1028.9904 102.3488,-932.5 102.3488,-932.5 102.3488,-932.5 102.3488,-323 102.3488,-291.3002 101.9803,-254.7917 101.6907,-230.9916"/>
<polygon fill="#191970" stroke="#191970" points="105.187,-230.6647 101.5608,-220.7098 98.1875,-230.7532 105.187,-230.6647"/>
</g>
<!-- Node50 -->
<g id="node50" class="node">
<title>Node50</title>
<g id="a_node50"><a xlink:href="_layout_extension_8h.html" target="_top" xlink:title="Definition of LayoutExtension_t, the core module of layout package. ">
<polygon fill="#ffffff" stroke="#000000" points="894.8488,-984.5 894.8488,-1014.5 1041.8488,-1014.5 1041.8488,-984.5 894.8488,-984.5"/>
<text text-anchor="start" x="902.8488" y="-1002.5" font-family="Helvetica,sans-Serif" font-size="10.00" fill="#000000">sbml/packages/layout</text>
<text text-anchor="middle" x="968.3488" y="-991.5" font-family="Helvetica,sans-Serif" font-size="10.00" fill="#000000">/extension/LayoutExtension.h</text>
</a>
</g>
</g>
<!-- Node1&#45;&gt;Node50 -->
<g id="edge138" class="edge">
<title>Node1&#45;&gt;Node50</title>
<path fill="none" stroke="#191970" d="M708.1358,-1051.4581C755.158,-1042.0689 827.939,-1027.5364 884.5851,-1016.2255"/>
<polygon fill="#191970" stroke="#191970" points="885.4839,-1019.6153 894.6049,-1014.2248 884.1131,-1012.7508 885.4839,-1019.6153"/>
</g>
<!-- Node4 -->
<g id="node4" class="node">
<title>Node4</title>
<g id="a_node4"><a xlink:href="extern_8h.html" target="_top" xlink:title="Definitions of LIBSBML_EXTERN and related things. ">
<polygon fill="#ffffff" stroke="#000000" points="1375.3488,-67.5 1375.3488,-86.5 1493.3488,-86.5 1493.3488,-67.5 1375.3488,-67.5"/>
<text text-anchor="middle" x="1434.3488" y="-74.5" font-family="Helvetica,sans-Serif" font-size="10.00" fill="#000000">sbml/common/extern.h</text>
</a>
</g>
</g>
<!-- Node3&#45;&gt;Node4 -->
<g id="edge3" class="edge">
<title>Node3&#45;&gt;Node4</title>
<path fill="none" stroke="#191970" d="M2592.2057,-425.4971C2668.0522,-408.4468 2811.3488,-370.0128 2811.3488,-323 2811.3488,-323 2811.3488,-323 2811.3488,-205.5 2811.3488,-167.3133 2817.4962,-146.4383 2787.3488,-123 2761.7729,-103.1159 1776.1346,-83.3525 1503.5664,-78.2588"/>
<polygon fill="#191970" stroke="#191970" points="1503.4726,-74.7565 1493.4092,-78.0696 1503.3422,-81.7553 1503.4726,-74.7565"/>
</g>
<!-- Node6 -->
<g id="node6" class="node">
<title>Node6</title>
<g id="a_node6"><a xlink:href="_x_m_l_error_8h.html" target="_top" xlink:title="Represents errors (and messages) encountered during an XML parse. ">
<polygon fill="#ffffff" stroke="#000000" points="2427.3488,-257.5 2427.3488,-276.5 2537.3488,-276.5 2537.3488,-257.5 2427.3488,-257.5"/>
<text text-anchor="middle" x="2482.3488" y="-264.5" font-family="Helvetica,sans-Serif" font-size="10.00" fill="#000000">sbml/xml/XMLError.h</text>
</a>
</g>
</g>
<!-- Node3&#45;&gt;Node6 -->
<g id="edge5" class="edge">
<title>Node3&#45;&gt;Node6</title>
<path fill="none" stroke="#191970" d="M2540.3511,-425.2553C2529.7098,-407.5416 2507.505,-368.5988 2495.3488,-333 2490.1595,-317.8037 2486.7943,-299.8914 2484.7908,-286.5647"/>
<polygon fill="#191970" stroke="#191970" points="2488.2513,-286.0371 2483.4179,-276.609 2481.3169,-286.9934 2488.2513,-286.0371"/>
</g>
<!-- Node11 -->
<g id="node11" class="node">
<title>Node11</title>
<g id="a_node11"><a xlink:href="_x_m_l_error_log_8h.html" target="_top" xlink:title="Stores errors (and messages) encountered while processing XML. ">
<polygon fill="#ffffff" stroke="#000000" points="2503.8488,-313.5 2503.8488,-332.5 2630.8488,-332.5 2630.8488,-313.5 2503.8488,-313.5"/>
<text text-anchor="middle" x="2567.3488" y="-320.5" font-family="Helvetica,sans-Serif" font-size="10.00" fill="#000000">sbml/xml/XMLErrorLog.h</text>
</a>
</g>
</g>
<!-- Node3&#45;&gt;Node11 -->
<g id="edge14" class="edge">
<title>Node3&#45;&gt;Node11</title>
<path fill="none" stroke="#191970" d="M2548.1392,-425.4509C2551.5798,-407.1013 2559.1755,-366.5908 2563.717,-342.3693"/>
<polygon fill="#191970" stroke="#191970" points="2567.1599,-342.9986 2565.5629,-332.5249 2560.2798,-341.7086 2567.1599,-342.9986"/>
</g>
<!-- Node12 -->
<g id="node12" class="node">
<title>Node12</title>
<g id="a_node12"><a xlink:href="_s_b_m_l_error_8h.html" target="_top" xlink:title="Represents SBML errors and other diagnostics. ">
<polygon fill="#ffffff" stroke="#000000" points="2197.3488,-369.5 2197.3488,-388.5 2295.3488,-388.5 2295.3488,-369.5 2197.3488,-369.5"/>
<text text-anchor="middle" x="2246.3488" y="-376.5" font-family="Helvetica,sans-Serif" font-size="10.00" fill="#000000">sbml/SBMLError.h</text>
</a>
</g>
</g>
<!-- Node3&#45;&gt;Node12 -->
<g id="edge18" class="edge">
<title>Node3&#45;&gt;Node12</title>
<path fill="none" stroke="#191970" d="M2495.1178,-425.4369C2442.4978,-415.6145 2360.6861,-400.343 2305.3824,-390.0196"/>
<polygon fill="#191970" stroke="#191970" points="2305.85,-386.5465 2295.3775,-388.152 2304.5655,-393.4277 2305.85,-386.5465"/>
</g>
<!-- Node5 -->
<g id="node5" class="node">
<title>Node5</title>
<g id="a_node5"><a xlink:href="libsbml-namespace_8h.html" target="_top" xlink:title="Defines C++ namespace of libSBML. ">
<polygon fill="#ffffff" stroke="#000000" points="2049.8488,-.5 2049.8488,-30.5 2162.8488,-30.5 2162.8488,-.5 2049.8488,-.5"/>
<text text-anchor="start" x="2057.8488" y="-18.5" font-family="Helvetica,sans-Serif" font-size="10.00" fill="#000000">sbml/common/libsbml</text>
<text text-anchor="middle" x="2106.3488" y="-7.5" font-family="Helvetica,sans-Serif" font-size="10.00" fill="#000000">&#45;namespace.h</text>
</a>
</g>
</g>
<!-- Node4&#45;&gt;Node5 -->
<g id="edge4" class="edge">
<title>Node4&#45;&gt;Node5</title>
<path fill="none" stroke="#191970" d="M1493.3953,-71.5962C1618.1271,-60.181 1907.7526,-33.6751 2039.2503,-21.6407"/>
<polygon fill="#191970" stroke="#191970" points="2039.94,-25.0923 2049.5794,-20.6954 2039.302,-18.1214 2039.94,-25.0923"/>
</g>
<!-- Node6&#45;&gt;Node2 -->
<g id="edge9" class="edge">
<title>Node6&#45;&gt;Node2</title>
<path fill="none" stroke="#191970" d="M2427.2318,-264.8511C2280.5804,-258.9209 1883.1658,-241.4073 1753.3488,-221 1698.0822,-212.3121 1686.5935,-198.8261 1631.3488,-190 1501.4523,-169.2473 1113.1504,-149.49 949.4395,-141.8374"/>
<polygon fill="#191970" stroke="#191970" points="949.1379,-138.3196 938.986,-141.3509 948.8125,-145.3121 949.1379,-138.3196"/>
</g>
<!-- Node7 -->
<g id="node7" class="node">
<title>Node7</title>
<polygon fill="#ffffff" stroke="#bfbfbf" points="2353.3488,-129 2353.3488,-148 2399.3488,-148 2399.3488,-129 2353.3488,-129"/>
<text text-anchor="middle" x="2376.3488" y="-136" font-family="Helvetica,sans-Serif" font-size="10.00" fill="#000000">stdio.h</text>
</g>
<!-- Node6&#45;&gt;Node7 -->
<g id="edge6" class="edge">
<title>Node6&#45;&gt;Node7</title>
<path fill="none" stroke="#191970" d="M2471.0769,-257.3329C2460.9487,-248.3908 2445.9313,-234.4832 2434.3488,-221 2416.4443,-200.1573 2398.6948,-173.8646 2387.639,-156.637"/>
<polygon fill="#191970" stroke="#191970" points="2390.5342,-154.6669 2382.2271,-148.0909 2384.6203,-158.4119 2390.5342,-154.6669"/>
</g>
<!-- Node8 -->
<g id="node8" class="node">
<title>Node8</title>
<g id="a_node8"><a xlink:href="_x_m_l_extern_8h.html" target="_top" xlink:title="Defines LIBLAX_EXTERN. ">
<polygon fill="#ffffff" stroke="#000000" points="2526.8488,-129 2526.8488,-148 2643.8488,-148 2643.8488,-129 2526.8488,-129"/>
<text text-anchor="middle" x="2585.3488" y="-136" font-family="Helvetica,sans-Serif" font-size="10.00" fill="#000000">sbml/xml/XMLExtern.h</text>
</a>
</g>
</g>
<!-- Node6&#45;&gt;Node8 -->
<g id="edge7" class="edge">
<title>Node6&#45;&gt;Node8</title>
<path fill="none" stroke="#191970" d="M2509.7928,-257.4962C2527.2396,-250.1143 2548.9824,-238.2074 2562.3488,-221 2576.4828,-202.8044 2581.9331,-176.4103 2584.0336,-158.4089"/>
<polygon fill="#191970" stroke="#191970" points="2587.5422,-158.476 2584.9723,-148.1976 2580.5715,-157.8352 2587.5422,-158.476"/>
</g>
<!-- Node9 -->
<g id="node9" class="node">
<title>Node9</title>
<g id="a_node9"><a xlink:href="util_8h.html" target="_top" xlink:title="Utility functions. ">
<polygon fill="#ffffff" stroke="#000000" points="2442.8488,-196 2442.8488,-215 2519.8488,-215 2519.8488,-196 2442.8488,-196"/>
<text text-anchor="middle" x="2481.3488" y="-203" font-family="Helvetica,sans-Serif" font-size="10.00" fill="#000000">sbml/util/util.h</text>
</a>
</g>
</g>
<!-- Node6&#45;&gt;Node9 -->
<g id="edge10" class="edge">
<title>Node6&#45;&gt;Node9</title>
<path fill="none" stroke="#191970" d="M2482.1925,-257.3906C2482.0539,-248.8657 2481.847,-236.1392 2481.6727,-225.4235"/>
<polygon fill="#191970" stroke="#191970" points="2485.1694,-225.1866 2481.5072,-215.2449 2478.1704,-225.3005 2485.1694,-225.1866"/>
</g>
<!-- Node8&#45;&gt;Node5 -->
<g id="edge8" class="edge">
<title>Node8&#45;&gt;Node5</title>
<path fill="none" stroke="#191970" d="M2548.161,-128.9507C2467.4311,-108.2205 2275.1839,-58.8543 2172.9475,-32.6016"/>
<polygon fill="#191970" stroke="#191970" points="2173.5973,-29.1549 2163.041,-30.0577 2171.8563,-35.935 2173.5973,-29.1549"/>
</g>
<!-- Node9&#45;&gt;Node4 -->
<g id="edge13" class="edge">
<title>Node9&#45;&gt;Node4</title>
<path fill="none" stroke="#191970" d="M2476.3096,-195.8677C2466.224,-177.7407 2441.6366,-138.9488 2408.3488,-123 2367.6754,-103.5126 1719.5994,-84.589 1503.7075,-78.7981"/>
<polygon fill="#191970" stroke="#191970" points="1503.5427,-75.2926 1493.4527,-78.5242 1503.3557,-82.2901 1503.5427,-75.2926"/>
</g>
<!-- Node9&#45;&gt;Node7 -->
<g id="edge11" class="edge">
<title>Node9&#45;&gt;Node7</title>
<path fill="none" stroke="#191970" d="M2466.3048,-195.9005C2448.9953,-184.8554 2420.351,-166.5776 2400.0399,-153.6172"/>
<polygon fill="#191970" stroke="#191970" points="2401.6775,-150.5103 2391.3648,-148.0817 2397.9121,-156.4113 2401.6775,-150.5103"/>
</g>
<!-- Node10 -->
<g id="node10" class="node">
<title>Node10</title>
<polygon fill="#ffffff" stroke="#bfbfbf" points="2455.8488,-129 2455.8488,-148 2508.8488,-148 2508.8488,-129 2455.8488,-129"/>
<text text-anchor="middle" x="2482.3488" y="-136" font-family="Helvetica,sans-Serif" font-size="10.00" fill="#000000">stdarg.h</text>
</g>
<!-- Node9&#45;&gt;Node10 -->
<g id="edge12" class="edge">
<title>Node9&#45;&gt;Node10</title>
<path fill="none" stroke="#191970" d="M2481.492,-195.9005C2481.6376,-186.149 2481.8673,-170.7597 2482.0522,-158.3695"/>
<polygon fill="#191970" stroke="#191970" points="2485.556,-158.1328 2482.2058,-148.0817 2478.5568,-158.0283 2485.556,-158.1328"/>
</g>
<!-- Node11&#45;&gt;Node2 -->
<g id="edge17" class="edge">
<title>Node11&#45;&gt;Node2</title>
<path fill="none" stroke="#191970" d="M2503.6222,-321.3618C2328.2242,-316.5861 1840.8664,-301.4487 1682.3488,-277 1647.4042,-271.6104 1639.9059,-264.4817 1605.3488,-257 1435.5988,-220.2486 1391.8065,-217.7121 1220.3488,-190 1126.8994,-174.8961 1018.9443,-159.0364 949.0381,-148.9749"/>
<polygon fill="#191970" stroke="#191970" points="949.4026,-145.4915 939.0064,-147.5333 948.4069,-152.4203 949.4026,-145.4915"/>
</g>
<!-- Node11&#45;&gt;Node6 -->
<g id="edge16" class="edge">
<title>Node11&#45;&gt;Node6</title>
<path fill="none" stroke="#191970" d="M2552.5429,-313.2455C2539.6232,-304.7337 2520.6557,-292.2375 2505.6935,-282.3801"/>
<polygon fill="#191970" stroke="#191970" points="2507.2612,-279.2216 2496.985,-276.6427 2503.41,-285.067 2507.2612,-279.2216"/>
</g>
<!-- Node11&#45;&gt;Node8 -->
<g id="edge15" class="edge">
<title>Node11&#45;&gt;Node8</title>
<path fill="none" stroke="#191970" d="M2569.2693,-313.4894C2572.8036,-295.5134 2580.2584,-255.2767 2583.3488,-221 2585.2721,-199.6675 2585.6311,-175.1151 2585.597,-158.3787"/>
<polygon fill="#191970" stroke="#191970" points="2589.0955,-158.1513 2585.5249,-148.1763 2582.0957,-158.2008 2589.0955,-158.1513"/>
</g>
<!-- Node12&#45;&gt;Node4 -->
<g id="edge19" class="edge">
<title>Node12&#45;&gt;Node4</title>
<path fill="none" stroke="#191970" d="M2252.5966,-369.3703C2270.9273,-339.7875 2320.8577,-248.685 2281.3488,-190 2237.1468,-124.3442 2193.4751,-140.7768 2116.3488,-123 2001.3724,-96.4991 1653.5188,-83.4134 1503.9441,-78.8916"/>
<polygon fill="#191970" stroke="#191970" points="1503.6233,-75.3806 1493.5234,-78.5808 1503.4145,-82.3775 1503.6233,-75.3806"/>
</g>
<!-- Node12&#45;&gt;Node6 -->
<g id="edge20" class="edge">
<title>Node12&#45;&gt;Node6</title>
<path fill="none" stroke="#191970" d="M2266.47,-369.4509C2308.2703,-349.6135 2404.6461,-303.8758 2453.2294,-280.8194"/>
<polygon fill="#191970" stroke="#191970" points="2454.7448,-283.9744 2462.2785,-276.5249 2451.7436,-277.6504 2454.7448,-283.9744"/>
</g>
<!-- Node13 -->
<g id="node13" class="node">
<title>Node13</title>
<g id="a_node13"><a xlink:href="_s_b_m_l_namespaces_8h.html" target="_top" xlink:title="SBMLNamespaces_t class to store level/version and namespace. ">
<polygon fill="#ffffff" stroke="#000000" points="1776.3488,-313.5 1776.3488,-332.5 1910.3488,-332.5 1910.3488,-313.5 1776.3488,-313.5"/>
<text text-anchor="middle" x="1843.3488" y="-320.5" font-family="Helvetica,sans-Serif" font-size="10.00" fill="#000000">sbml/SBMLNamespaces.h</text>
</a>
</g>
</g>
<!-- Node12&#45;&gt;Node13 -->
<g id="edge21" class="edge">
<title>Node12&#45;&gt;Node13</title>
<path fill="none" stroke="#191970" d="M2197.336,-372.1893C2128.4379,-362.6154 2002.2599,-345.0819 1920.6468,-333.7412"/>
<polygon fill="#191970" stroke="#191970" points="1920.8142,-330.2309 1910.4276,-332.3211 1919.8507,-337.1643 1920.8142,-330.2309"/>
</g>
<!-- Node14 -->
<g id="node14" class="node">
<title>Node14</title>
<g id="a_node14"><a xlink:href="_x_m_l_namespaces_8h.html" target="_top" xlink:title="A list of XMLNamespace declarations (URI/prefix pairs) ">
<polygon fill="#ffffff" stroke="#000000" points="1762.3488,-196 1762.3488,-215 1908.3488,-215 1908.3488,-196 1762.3488,-196"/>
<text text-anchor="middle" x="1835.3488" y="-203" font-family="Helvetica,sans-Serif" font-size="10.00" fill="#000000">sbml/xml/XMLNamespaces.h</text>
</a>
</g>
</g>
<!-- Node13&#45;&gt;Node14 -->
<g id="edge22" class="edge">
<title>Node13&#45;&gt;Node14</title>
<path fill="none" stroke="#191970" d="M1842.6941,-313.3845C1841.3873,-294.1913 1838.4321,-250.786 1836.6946,-225.2663"/>
<polygon fill="#191970" stroke="#191970" points="1840.1838,-224.9875 1836.0125,-215.2484 1833.1999,-225.4631 1840.1838,-224.9875"/>
</g>
<!-- Node16 -->
<g id="node16" class="node">
<title>Node16</title>
<g id="a_node16"><a xlink:href="common_8h.html" target="_top" xlink:title="Common functions and macros for C and C++. ">
<polygon fill="#ffffff" stroke="#000000" points="2097.3488,-257.5 2097.3488,-276.5 2225.3488,-276.5 2225.3488,-257.5 2097.3488,-257.5"/>
<text text-anchor="middle" x="2161.3488" y="-264.5" font-family="Helvetica,sans-Serif" font-size="10.00" fill="#000000">sbml/common/common.h</text>
</a>
</g>
</g>
<!-- Node13&#45;&gt;Node16 -->
<g id="edge27" class="edge">
<title>Node13&#45;&gt;Node16</title>
<path fill="none" stroke="#191970" d="M1897.6536,-313.4369C1952.9915,-303.6918 2038.7871,-288.5832 2097.3827,-278.2645"/>
<polygon fill="#191970" stroke="#191970" points="2098.0265,-281.705 2107.2679,-276.5237 2096.8124,-274.8111 2098.0265,-281.705"/>
</g>
<!-- Node14&#45;&gt;Node2 -->
<g id="edge24" class="edge">
<title>Node14&#45;&gt;Node2</title>
<path fill="none" stroke="#191970" d="M1787.6345,-195.9593C1774.9134,-193.7009 1761.147,-191.5123 1748.3488,-190 1453.5679,-155.1679 1099.867,-143.5016 949.1693,-139.933"/>
<polygon fill="#191970" stroke="#191970" points="949.1847,-136.4326 939.1062,-139.6997 949.0223,-143.4307 949.1847,-136.4326"/>
</g>
<!-- Node14&#45;&gt;Node8 -->
<g id="edge23" class="edge">
<title>Node14&#45;&gt;Node8</title>
<path fill="none" stroke="#191970" d="M1903.7343,-195.971C1920.8888,-193.7925 1939.2726,-191.639 1956.3488,-190 2205.4935,-166.087 2270.7094,-190.3276 2518.3488,-154 2525.0949,-153.0104 2532.1655,-151.6909 2539.0801,-150.238"/>
<polygon fill="#191970" stroke="#191970" points="2540.0336,-153.6118 2549.043,-148.0368 2538.5234,-146.7767 2540.0336,-153.6118"/>
</g>
<!-- Node15 -->
<g id="node15" class="node">
<title>Node15</title>
<g id="a_node15"><a xlink:href="operation_return_values_8h.html" target="_top" xlink:title="Enumeration of values returned by operations within libSBML. ">
<polygon fill="#ffffff" stroke="#000000" points="1357.8488,-123.5 1357.8488,-153.5 1510.8488,-153.5 1510.8488,-123.5 1357.8488,-123.5"/>
<text text-anchor="start" x="1365.8488" y="-141.5" font-family="Helvetica,sans-Serif" font-size="10.00" fill="#000000">sbml/common/operationReturn</text>
<text text-anchor="middle" x="1434.3488" y="-130.5" font-family="Helvetica,sans-Serif" font-size="10.00" fill="#000000">Values.h</text>
</a>
</g>
</g>
<!-- Node14&#45;&gt;Node15 -->
<g id="edge25" class="edge">
<title>Node14&#45;&gt;Node15</title>
<path fill="none" stroke="#191970" d="M1782.4604,-195.9575C1771.2058,-193.9605 1759.388,-191.8886 1748.3488,-190 1671.4658,-176.847 1583.8717,-162.5364 1520.77,-152.3464"/>
<polygon fill="#191970" stroke="#191970" points="1521.2882,-148.8849 1510.8583,-150.7472 1520.1731,-155.7955 1521.2882,-148.8849"/>
</g>
<!-- Node15&#45;&gt;Node4 -->
<g id="edge26" class="edge">
<title>Node15&#45;&gt;Node4</title>
<path fill="none" stroke="#191970" d="M1434.3488,-123.2977C1434.3488,-115.3834 1434.3488,-105.6043 1434.3488,-97.0759"/>
<polygon fill="#191970" stroke="#191970" points="1437.8489,-96.8469 1434.3488,-86.8469 1430.8489,-96.847 1437.8489,-96.8469"/>
</g>
<!-- Node16&#45;&gt;Node4 -->
<g id="edge34" class="edge">
<title>Node16&#45;&gt;Node4</title>
<path fill="none" stroke="#191970" d="M2159.7401,-257.4924C2154.6761,-230.8579 2136.3834,-155.3516 2087.3488,-123 2039.5152,-91.4408 1661.7056,-81.0566 1503.5738,-78.0712"/>
<polygon fill="#191970" stroke="#191970" points="1503.5443,-74.5702 1493.4815,-77.8851 1503.4152,-81.569 1503.5443,-74.5702"/>
</g>
<!-- Node16&#45;&gt;Node7 -->
<g id="edge33" class="edge">
<title>Node16&#45;&gt;Node7</title>
<path fill="none" stroke="#191970" d="M2195.3836,-257.4582C2220.2336,-249.6745 2254.1838,-237.3047 2281.3488,-221 2312.0461,-202.5752 2342.3766,-173.9264 2360.2274,-155.6972"/>
<polygon fill="#191970" stroke="#191970" points="2363.0973,-157.7624 2367.5074,-148.129 2358.0524,-152.9096 2363.0973,-157.7624"/>
</g>
<!-- Node16&#45;&gt;Node9 -->
<g id="edge36" class="edge">
<title>Node16&#45;&gt;Node9</title>
<path fill="none" stroke="#191970" d="M2210.9977,-257.4581C2271.4036,-245.8488 2372.7243,-226.3763 2432.6825,-214.8531"/>
<polygon fill="#191970" stroke="#191970" points="2433.4975,-218.2605 2442.6572,-212.936 2432.1763,-211.3863 2433.4975,-218.2605"/>
</g>
<!-- Node17 -->
<g id="node17" class="node">
<title>Node17</title>
<g id="a_node17"><a xlink:href="libsbml-config_8h.html" target="_top" xlink:title="Decides whether to #include Unix or Windows configuration variables. ">
<polygon fill="#ffffff" stroke="#000000" points="1964.8488,-190.5 1964.8488,-220.5 2077.8488,-220.5 2077.8488,-190.5 1964.8488,-190.5"/>
<text text-anchor="start" x="1972.8488" y="-208.5" font-family="Helvetica,sans-Serif" font-size="10.00" fill="#000000">sbml/common/libsbml</text>
<text text-anchor="middle" x="2021.3488" y="-197.5" font-family="Helvetica,sans-Serif" font-size="10.00" fill="#000000">&#45;config.h</text>
</a>
</g>
</g>
<!-- Node16&#45;&gt;Node17 -->
<g id="edge28" class="edge">
<title>Node16&#45;&gt;Node17</title>
<path fill="none" stroke="#191970" d="M2139.4738,-257.3906C2119.5616,-248.6435 2089.5796,-235.4728 2064.8049,-224.5897"/>
<polygon fill="#191970" stroke="#191970" points="2066.1599,-221.3621 2055.5966,-220.5446 2063.3445,-227.771 2066.1599,-221.3621"/>
</g>
<!-- Node20 -->
<g id="node20" class="node">
<title>Node20</title>
<g id="a_node20"><a xlink:href="memory_8h.html" target="_top" xlink:title="sbml/util/memory.h">
<polygon fill="#ffffff" stroke="#000000" points="2172.3488,-196 2172.3488,-215 2272.3488,-215 2272.3488,-196 2172.3488,-196"/>
<text text-anchor="middle" x="2222.3488" y="-203" font-family="Helvetica,sans-Serif" font-size="10.00" fill="#000000">sbml/util/memory.h</text>
</a>
</g>
</g>
<!-- Node16&#45;&gt;Node20 -->
<g id="edge35" class="edge">
<title>Node16&#45;&gt;Node20</title>
<path fill="none" stroke="#191970" d="M2170.88,-257.3906C2180.1367,-248.0581 2194.3878,-233.6902 2205.5491,-222.4374"/>
<polygon fill="#191970" stroke="#191970" points="2208.1259,-224.8095 2212.6831,-215.2449 2203.156,-219.88 2208.1259,-224.8095"/>
</g>
<!-- Node17&#45;&gt;Node5 -->
<g id="edge29" class="edge">
<title>Node17&#45;&gt;Node5</title>
<path fill="none" stroke="#191970" d="M2049.7344,-190.3556C2063.3518,-181.5806 2078.5762,-169.2417 2087.3488,-154 2107.6388,-118.7475 2109.5059,-70.2949 2108.3756,-41.0329"/>
<polygon fill="#191970" stroke="#191970" points="2111.8587,-40.6232 2107.8277,-30.8251 2104.8688,-40.9984 2111.8587,-40.6232"/>
</g>
<!-- Node18 -->
<g id="node18" class="node">
<title>Node18</title>
<g id="a_node18"><a xlink:href="libsbml-config-common_8h.html" target="_top" xlink:title="Configuration variables. ">
<polygon fill="#ffffff" stroke="#000000" points="1833.8488,-123.5 1833.8488,-153.5 1946.8488,-153.5 1946.8488,-123.5 1833.8488,-123.5"/>
<text text-anchor="start" x="1841.8488" y="-141.5" font-family="Helvetica,sans-Serif" font-size="10.00" fill="#000000">sbml/common/libsbml</text>
<text text-anchor="middle" x="1890.3488" y="-130.5" font-family="Helvetica,sans-Serif" font-size="10.00" fill="#000000">&#45;config&#45;common.h</text>
</a>
</g>
</g>
<!-- Node17&#45;&gt;Node18 -->
<g id="edge30" class="edge">
<title>Node17&#45;&gt;Node18</title>
<path fill="none" stroke="#191970" d="M1991.9498,-190.4639C1973.3714,-180.9619 1949.1578,-168.5779 1929.0289,-158.283"/>
<polygon fill="#191970" stroke="#191970" points="1930.5997,-155.1552 1920.1028,-153.7177 1927.4122,-161.3874 1930.5997,-155.1552"/>
</g>
<!-- Node19 -->
<g id="node19" class="node">
<title>Node19</title>
<g id="a_node19"><a xlink:href="libsbml-version_8h.html" target="_top" xlink:title="Define libSBML version numbers for access from client software. ">
<polygon fill="#ffffff" stroke="#000000" points="1964.8488,-123.5 1964.8488,-153.5 2077.8488,-153.5 2077.8488,-123.5 1964.8488,-123.5"/>
<text text-anchor="start" x="1972.8488" y="-141.5" font-family="Helvetica,sans-Serif" font-size="10.00" fill="#000000">sbml/common/libsbml</text>
<text text-anchor="middle" x="2021.3488" y="-130.5" font-family="Helvetica,sans-Serif" font-size="10.00" fill="#000000">&#45;version.h</text>
</a>
</g>
</g>
<!-- Node17&#45;&gt;Node19 -->
<g id="edge31" class="edge">
<title>Node17&#45;&gt;Node19</title>
<path fill="none" stroke="#191970" d="M2021.3488,-190.2967C2021.3488,-182.5013 2021.3488,-172.7991 2021.3488,-163.9064"/>
<polygon fill="#191970" stroke="#191970" points="2024.8489,-163.6431 2021.3488,-153.6432 2017.8489,-163.6432 2024.8489,-163.6431"/>
</g>
<!-- Node19&#45;&gt;Node4 -->
<g id="edge32" class="edge">
<title>Node19&#45;&gt;Node4</title>
<path fill="none" stroke="#191970" d="M1964.7269,-124.4828C1961.9013,-123.9452 1959.097,-123.4463 1956.3488,-123 1795.3012,-96.8462 1603.7152,-84.761 1503.4156,-79.8685"/>
<polygon fill="#191970" stroke="#191970" points="1503.5656,-76.3717 1493.4097,-79.3896 1503.2309,-83.3637 1503.5656,-76.3717"/>
</g>
<!-- Node21&#45;&gt;Node2 -->
<g id="edge39" class="edge">
<title>Node21&#45;&gt;Node2</title>
<path fill="none" stroke="#191970" d="M352.0337,-257.3901C399.7901,-241.6511 498.8108,-210.1204 584.3488,-190 657.6448,-172.7592 742.5397,-158.3605 801.646,-149.2115"/>
<polygon fill="#191970" stroke="#191970" points="802.2852,-152.6545 811.6379,-147.6768 801.2224,-145.7356 802.2852,-152.6545"/>
</g>
<!-- Node21&#45;&gt;Node4 -->
<g id="edge38" class="edge">
<title>Node21&#45;&gt;Node4</title>
<path fill="none" stroke="#191970" d="M258.2435,-264.5742C183.6251,-260.4594 67.4751,-249.5444 35.3488,-221 2.1824,-191.5316 -14.5104,-154.8765 16.3488,-123 40.0541,-98.5132 1083.254,-81.9763 1364.8995,-77.9523"/>
<polygon fill="#191970" stroke="#191970" points="1365.0396,-81.4508 1374.9888,-77.8089 1364.9401,-74.4515 1365.0396,-81.4508"/>
</g>
<!-- Node22 -->
<g id="node22" class="node">
<title>Node22</title>
<g id="a_node22"><a xlink:href="_modifier_species_reference_8h.html" target="_top" xlink:title="Definitions of ModifierSpeciesReference_t. ">
<polygon fill="#ffffff" stroke="#000000" points="214.3488,-196 214.3488,-215 380.3488,-215 380.3488,-196 214.3488,-196"/>
<text text-anchor="middle" x="297.3488" y="-203" font-family="Helvetica,sans-Serif" font-size="10.00" fill="#000000">sbml/ModifierSpeciesReference.h</text>
</a>
</g>
</g>
<!-- Node21&#45;&gt;Node22 -->
<g id="edge40" class="edge">
<title>Node21&#45;&gt;Node22</title>
<path fill="none" stroke="#191970" d="M319.2863,-257.3906C315.6064,-248.6862 310.0746,-235.6015 305.4867,-224.7494"/>
<polygon fill="#191970" stroke="#191970" points="308.5863,-223.0927 301.4685,-215.2449 302.1388,-225.8185 308.5863,-223.0927"/>
</g>
<!-- Node22&#45;&gt;Node2 -->
<g id="edge42" class="edge">
<title>Node22&#45;&gt;Node2</title>
<path fill="none" stroke="#191970" d="M379.5482,-195.9717C492.3196,-182.8996 693.3129,-159.601 801.516,-147.0585"/>
<polygon fill="#191970" stroke="#191970" points="802.161,-150.5072 811.6915,-145.879 801.355,-143.5538 802.161,-150.5072"/>
</g>
<!-- Node22&#45;&gt;Node4 -->
<g id="edge41" class="edge">
<title>Node22&#45;&gt;Node4</title>
<path fill="none" stroke="#191970" d="M304.8662,-195.8058C319.6715,-177.573 354.6385,-138.608 394.3488,-123 484.1229,-87.7146 1147.4247,-79.2901 1365.2566,-77.4651"/>
<polygon fill="#191970" stroke="#191970" points="1365.3177,-80.9648 1375.2887,-77.3831 1365.2604,-73.9651 1365.3177,-80.9648"/>
</g>
<!-- Node23&#45;&gt;Node2 -->
<g id="edge53" class="edge">
<title>Node23&#45;&gt;Node2</title>
<path fill="none" stroke="#191970" d="M1528.2675,-369.3192C1505.418,-355.7756 1462.0288,-330.8336 1423.3488,-313 1319.2317,-264.9965 1287.4524,-266.803 1182.3488,-221 1153.741,-208.5331 1148.8443,-200.1902 1119.3488,-190 1063.5504,-170.7226 997.9688,-157.3702 948.8561,-149.1001"/>
<polygon fill="#191970" stroke="#191970" points="949.3854,-145.6402 938.9485,-147.4629 948.2441,-152.5465 949.3854,-145.6402"/>
</g>
<!-- Node23&#45;&gt;Node8 -->
<g id="edge44" class="edge">
<title>Node23&#45;&gt;Node8</title>
<path fill="none" stroke="#191970" d="M1615.6087,-376.6614C1857.3106,-368.6476 2631.4515,-342.2785 2640.3488,-333 2688.4666,-282.8202 2629.1679,-193.8195 2599.8924,-156.1379"/>
<polygon fill="#191970" stroke="#191970" points="2602.4683,-153.754 2593.5012,-148.1111 2596.9922,-158.1143 2602.4683,-153.754"/>
</g>
<!-- Node23&#45;&gt;Node13 -->
<g id="edge55" class="edge">
<title>Node23&#45;&gt;Node13</title>
<path fill="none" stroke="#191970" d="M1595.409,-369.4369C1647.2255,-359.7321 1727.4437,-344.708 1782.5203,-334.3926"/>
<polygon fill="#191970" stroke="#191970" points="1783.3144,-337.8048 1792.4992,-332.5237 1782.0257,-330.9245 1783.3144,-337.8048"/>
</g>
<!-- Node23&#45;&gt;Node15 -->
<g id="edge54" class="edge">
<title>Node23&#45;&gt;Node15</title>
<path fill="none" stroke="#191970" d="M1537.7673,-369.1503C1528.6807,-355.8388 1511.4673,-331.6295 1494.3488,-313 1478.1658,-295.3886 1465.6197,-298.0954 1454.3488,-277 1435.1621,-241.089 1432.5252,-192.84 1432.9922,-163.7973"/>
<polygon fill="#191970" stroke="#191970" points="1436.4944,-163.7728 1433.2951,-153.6725 1429.4975,-163.5634 1436.4944,-163.7728"/>
</g>
<!-- Node24 -->
<g id="node24" class="node">
<title>Node24</title>
<g id="a_node24"><a xlink:href="_x_m_l_token_8h.html" target="_top" xlink:title="A unit of XML syntax, either an XML element or text. ">
<polygon fill="#ffffff" stroke="#000000" points="1462.8488,-257.5 1462.8488,-276.5 1577.8488,-276.5 1577.8488,-257.5 1462.8488,-257.5"/>
<text text-anchor="middle" x="1520.3488" y="-264.5" font-family="Helvetica,sans-Serif" font-size="10.00" fill="#000000">sbml/xml/XMLToken.h</text>
</a>
</g>
</g>
<!-- Node23&#45;&gt;Node24 -->
<g id="edge45" class="edge">
<title>Node23&#45;&gt;Node24</title>
<path fill="none" stroke="#191970" d="M1542.79,-369.1136C1540.694,-356.1663 1536.722,-332.7869 1532.3488,-313 1530.4168,-304.2586 1527.9677,-294.6666 1525.7865,-286.514"/>
<polygon fill="#191970" stroke="#191970" points="1529.1497,-285.5437 1523.1395,-276.8186 1522.3969,-287.3873 1529.1497,-285.5437"/>
</g>
<!-- Node24&#45;&gt;Node2 -->
<g id="edge52" class="edge">
<title>Node24&#45;&gt;Node2</title>
<path fill="none" stroke="#191970" d="M1462.5868,-260.7061C1390.5156,-252.3576 1271.7114,-236.8234 1230.3488,-221 1206.6295,-211.9261 1206.0274,-199.1793 1182.3488,-190 1106.2158,-160.4863 1013.0129,-147.8713 949.4082,-142.4884"/>
<polygon fill="#191970" stroke="#191970" points="949.3177,-138.9699 939.0688,-141.655 948.7552,-145.9472 949.3177,-138.9699"/>
</g>
<!-- Node24&#45;&gt;Node8 -->
<g id="edge46" class="edge">
<title>Node24&#45;&gt;Node8</title>
<path fill="none" stroke="#191970" d="M1577.9166,-263.3324C1712.2463,-254.6305 2038.7151,-232.5989 2087.3488,-221 2122.8332,-212.5371 2127.9512,-198.8193 2163.3488,-190 2317.2315,-151.6602 2361.895,-179.9237 2518.3488,-154 2524.6871,-152.9498 2531.3212,-151.6562 2537.8467,-150.2679"/>
<polygon fill="#191970" stroke="#191970" points="2538.9467,-153.6092 2547.9534,-148.0299 2537.4332,-146.7748 2538.9467,-153.6092"/>
</g>
<!-- Node24&#45;&gt;Node24 -->
<g id="edge51" class="edge">
<title>Node24&#45;&gt;Node24</title>
<path fill="none" stroke="#191970" d="M1552.5496,-276.5252C1574.4293,-279.3079 1595.8488,-276.1328 1595.8488,-267 1595.8488,-259.2942 1580.5999,-255.8298 1562.6921,-256.6068"/>
<polygon fill="#191970" stroke="#191970" points="1562.2147,-253.1347 1552.5496,-257.4748 1562.8117,-260.1092 1562.2147,-253.1347"/>
</g>
<!-- Node25 -->
<g id="node25" class="node">
<title>Node25</title>
<g id="a_node25"><a xlink:href="_x_m_l_attributes_8h.html" target="_top" xlink:title="XMLAttributes_t are a list of name/value pairs for XML elements. ">
<polygon fill="#ffffff" stroke="#000000" points="1462.3488,-196 1462.3488,-215 1592.3488,-215 1592.3488,-196 1462.3488,-196"/>
<text text-anchor="middle" x="1527.3488" y="-203" font-family="Helvetica,sans-Serif" font-size="10.00" fill="#000000">sbml/xml/XMLAttributes.h</text>
</a>
</g>
</g>
<!-- Node24&#45;&gt;Node25 -->
<g id="edge47" class="edge">
<title>Node24&#45;&gt;Node25</title>
<path fill="none" stroke="#191970" d="M1521.4425,-257.3906C1522.4128,-248.8657 1523.8614,-236.1392 1525.0811,-225.4235"/>
<polygon fill="#191970" stroke="#191970" points="1528.5861,-225.5766 1526.2396,-215.2449 1521.6311,-224.7849 1528.5861,-225.5766"/>
</g>
<!-- Node25&#45;&gt;Node2 -->
<g id="edge49" class="edge">
<title>Node25&#45;&gt;Node2</title>
<path fill="none" stroke="#191970" d="M1462.1484,-198.8C1339.9982,-186.2477 1077.4656,-159.2697 949.0826,-146.0769"/>
<polygon fill="#191970" stroke="#191970" points="949.2584,-142.5767 938.9529,-145.036 948.5427,-149.54 949.2584,-142.5767"/>
</g>
<!-- Node25&#45;&gt;Node8 -->
<g id="edge48" class="edge">
<title>Node25&#45;&gt;Node8</title>
<path fill="none" stroke="#191970" d="M1592.5981,-200.653C1637.7263,-197.3919 1699.1662,-193.1326 1753.3488,-190 2093.1576,-170.354 2181.1703,-200.5478 2518.3488,-154 2525.1825,-153.0566 2532.3447,-151.7494 2539.3389,-150.2907"/>
<polygon fill="#191970" stroke="#191970" points="2540.3966,-153.6417 2549.4081,-148.07 2538.8889,-146.8059 2540.3966,-153.6417"/>
</g>
<!-- Node25&#45;&gt;Node15 -->
<g id="edge50" class="edge">
<title>Node25&#45;&gt;Node15</title>
<path fill="none" stroke="#191970" d="M1514.0241,-195.9005C1500.9365,-186.4718 1480.5329,-171.7725 1463.6502,-159.6096"/>
<polygon fill="#191970" stroke="#191970" points="1465.3595,-156.5274 1455.1999,-153.5218 1461.2677,-162.2069 1465.3595,-156.5274"/>
</g>
<!-- Node26&#45;&gt;Node2 -->
<g id="edge57" class="edge">
<title>Node26&#45;&gt;Node2</title>
<path fill="none" stroke="#191970" d="M565.7376,-989.7731C539.4692,-969.7498 484.3488,-921.1085 484.3488,-865.5 484.3488,-865.5 484.3488,-865.5 484.3488,-547 484.3488,-368.4987 528.3659,-300.7587 668.3488,-190 689.3473,-173.3853 752.6741,-159.1081 803.808,-149.8292"/>
<polygon fill="#191970" stroke="#191970" points="804.624,-153.239 813.856,-148.0408 803.3974,-146.3473 804.624,-153.239"/>
</g>
<!-- Node27&#45;&gt;Node2 -->
<g id="edge59" class="edge">
<title>Node27&#45;&gt;Node2</title>
<path fill="none" stroke="#191970" d="M1241.0822,-855.7503C1229.5903,-830.3199 1195.8273,-760.8392 1151.3488,-716 1069.7766,-633.7663 712.3488,-550.8292 712.3488,-435 712.3488,-435 712.3488,-435 712.3488,-379 712.3488,-278.9875 810.1335,-189.6242 854.2273,-154.4118"/>
<polygon fill="#191970" stroke="#191970" points="856.5682,-157.0242 862.2853,-148.1042 852.2535,-151.512 856.5682,-157.0242"/>
</g>
<!-- Node27&#45;&gt;Node3 -->
<g id="edge114" class="edge">
<title>Node27&#45;&gt;Node3</title>
<path fill="none" stroke="#191970" d="M1321.5157,-863.2074C1481.8942,-857.8727 1849.6223,-842.8334 1971.3488,-814 2046.7662,-796.1358 2061.8902,-779.2878 2132.3488,-747 2262.0863,-687.5475 2419.3488,-745.711 2419.3488,-603 2419.3488,-603 2419.3488,-603 2419.3488,-547 2419.3488,-498.155 2472.8467,-465.5347 2510.3987,-448.6541"/>
<polygon fill="#191970" stroke="#191970" points="2512.2336,-451.6747 2520.0343,-444.5053 2509.4653,-445.2454 2512.2336,-451.6747"/>
</g>
<!-- Node28 -->
<g id="node28" class="node">
<title>Node28</title>
<g id="a_node28"><a xlink:href="_s_base_8h.html" target="_top" xlink:title="Definition of SBase_t, the base object of all SBML objects. ">
<polygon fill="#ffffff" stroke="#000000" points="1406.3488,-593.5 1406.3488,-612.5 1484.3488,-612.5 1484.3488,-593.5 1406.3488,-593.5"/>
<text text-anchor="middle" x="1445.3488" y="-600.5" font-family="Helvetica,sans-Serif" font-size="10.00" fill="#000000">sbml/SBase.h</text>
</a>
</g>
</g>
<!-- Node27&#45;&gt;Node28 -->
<g id="edge60" class="edge">
<title>Node27&#45;&gt;Node28</title>
<path fill="none" stroke="#191970" d="M1252.7041,-855.8462C1282.2887,-817.0164 1392.8662,-671.8833 1431.7341,-620.8692"/>
<polygon fill="#191970" stroke="#191970" points="1434.6501,-622.8171 1437.9266,-612.7416 1429.0821,-618.5748 1434.6501,-622.8171"/>
</g>
<!-- Node29 -->
<g id="node29" class="node">
<title>Node29</title>
<g id="a_node29"><a xlink:href="_s_b_m_l_type_codes_8h.html" target="_top" xlink:title="Enumeration to identify SBML objects at runtime. ">
<polygon fill="#ffffff" stroke="#000000" points="1937.8488,-481.5 1937.8488,-500.5 2064.8488,-500.5 2064.8488,-481.5 1937.8488,-481.5"/>
<text text-anchor="middle" x="2001.3488" y="-488.5" font-family="Helvetica,sans-Serif" font-size="10.00" fill="#000000">sbml/SBMLTypeCodes.h</text>
</a>
</g>
</g>
<!-- Node27&#45;&gt;Node29 -->
<g id="edge113" class="edge">
<title>Node27&#45;&gt;Node29</title>
<path fill="none" stroke="#191970" d="M1321.5556,-861.8186C1534.681,-850.5147 2121.3488,-812.0802 2121.3488,-731.5 2121.3488,-731.5 2121.3488,-731.5 2121.3488,-603 2121.3488,-555.2581 2069.9583,-522.0374 2034.4383,-504.7779"/>
<polygon fill="#191970" stroke="#191970" points="2035.8861,-501.5913 2025.3441,-500.5343 2032.9261,-507.9346 2035.8861,-501.5913"/>
</g>
<!-- Node42 -->
<g id="node42" class="node">
<title>Node42</title>
<g id="a_node42"><a xlink:href="_s_b_m_l_document_8h.html" target="_top" xlink:title="Top&#45;level container for an SBML Model_t and associated data. ">
<polygon fill="#ffffff" stroke="#000000" points="1218.3488,-655 1218.3488,-674 1340.3488,-674 1340.3488,-655 1218.3488,-655"/>
<text text-anchor="middle" x="1279.3488" y="-662" font-family="Helvetica,sans-Serif" font-size="10.00" fill="#000000">sbml/SBMLDocument.h</text>
</a>
</g>
</g>
<!-- Node27&#45;&gt;Node42 -->
<g id="edge115" class="edge">
<title>Node27&#45;&gt;Node42</title>
<path fill="none" stroke="#191970" d="M1246.9887,-855.8054C1252.2734,-824.5634 1268.927,-726.1112 1276.057,-683.9604"/>
<polygon fill="#191970" stroke="#191970" points="1279.5084,-684.5411 1277.7253,-674.0974 1272.6064,-683.3735 1279.5084,-684.5411"/>
</g>
<!-- Node44 -->
<g id="node44" class="node">
<title>Node44</title>
<g id="a_node44"><a xlink:href="_s_b_m_l_extension_8h.html" target="_top" xlink:title="Definition of SBMLExtension_t, the core component of SBML package extension. ">
<polygon fill="#ffffff" stroke="#000000" points="849.8488,-789 849.8488,-808 1014.8488,-808 1014.8488,-789 849.8488,-789"/>
<text text-anchor="middle" x="932.3488" y="-796" font-family="Helvetica,sans-Serif" font-size="10.00" fill="#000000">sbml/extension/SBMLExtension.h</text>
</a>
</g>
</g>
<!-- Node27&#45;&gt;Node44 -->
<g id="edge123" class="edge">
<title>Node27&#45;&gt;Node44</title>
<path fill="none" stroke="#191970" d="M1200.8359,-855.9717C1144.4794,-843.9082 1047.4364,-823.1354 986.7459,-810.1441"/>
<polygon fill="#191970" stroke="#191970" points="987.4723,-806.7204 976.9612,-808.0496 986.007,-813.5653 987.4723,-806.7204"/>
</g>
<!-- Node47 -->
<g id="node47" class="node">
<title>Node47</title>
<g id="a_node47"><a xlink:href="_a_s_t_base_plugin_8h.html" target="_top" xlink:title="sbml/extension/ASTBasePlugin.h">
<polygon fill="#ffffff" stroke="#000000" points="978.3488,-722 978.3488,-741 1142.3488,-741 1142.3488,-722 978.3488,-722"/>
<text text-anchor="middle" x="1060.3488" y="-729" font-family="Helvetica,sans-Serif" font-size="10.00" fill="#000000">sbml/extension/ASTBasePlugin.h</text>
</a>
</g>
</g>
<!-- Node27&#45;&gt;Node47 -->
<g id="edge133" class="edge">
<title>Node27&#45;&gt;Node47</title>
<path fill="none" stroke="#191970" d="M1226.6683,-855.9975C1208.2221,-846.3163 1179.4956,-830.4285 1156.3488,-814 1127.1572,-793.2811 1096.2461,-765.5263 1077.6231,-748.0783"/>
<polygon fill="#191970" stroke="#191970" points="1079.8785,-745.394 1070.2081,-741.0656 1075.0686,-750.4798 1079.8785,-745.394"/>
</g>
<!-- Node28&#45;&gt;Node2 -->
<g id="edge62" class="edge">
<title>Node28&#45;&gt;Node2</title>
<path fill="none" stroke="#191970" d="M1406.2723,-598.8483C1352.6532,-592.6086 1253.5582,-579.1266 1171.3488,-557 1103.035,-538.6134 1085.6417,-532.6045 1022.3488,-501 980.8732,-480.2897 966.9958,-477.9136 934.3488,-445 861.2592,-371.3138 871.1258,-324.7499 868.3488,-221 867.9801,-207.2272 867.4188,-203.7464 868.3488,-190 869.0579,-179.5176 870.5701,-167.9167 872.0081,-158.3833"/>
<polygon fill="#191970" stroke="#191970" points="875.4923,-158.7587 873.6096,-148.3325 868.5796,-157.6572 875.4923,-158.7587"/>
</g>
<!-- Node28&#45;&gt;Node4 -->
<g id="edge61" class="edge">
<title>Node28&#45;&gt;Node4</title>
<path fill="none" stroke="#191970" d="M1406.1532,-598.4558C1321.8067,-588.5805 1128.3481,-565.3781 1099.3488,-557 882.5151,-494.355 718.8149,-413.761 748.3488,-190 752.3835,-159.4314 742.5399,-142.5922 766.3488,-123 789.2084,-104.189 1198.7655,-86.1845 1365.0452,-79.617"/>
<polygon fill="#191970" stroke="#191970" points="1365.3088,-83.1094 1375.1637,-79.2196 1365.0341,-76.1148 1365.3088,-83.1094"/>
</g>
<!-- Node28&#45;&gt;Node6 -->
<g id="edge112" class="edge">
<title>Node28&#45;&gt;Node6</title>
<path fill="none" stroke="#191970" d="M1484.5826,-601.174C1570.6797,-596.7193 1773.5028,-583.6543 1836.3488,-557 1885.4912,-536.1576 1881.5859,-504.8346 1929.3488,-481 2082.9008,-404.3746 2147.7047,-459.088 2304.3488,-389 2367.8039,-360.608 2432.7871,-309.2794 2463.7459,-283.1804"/>
<polygon fill="#191970" stroke="#191970" points="2466.2085,-285.6803 2471.5461,-276.5282 2461.6662,-280.3541 2466.2085,-285.6803"/>
</g>
<!-- Node28&#45;&gt;Node13 -->
<g id="edge101" class="edge">
<title>Node28&#45;&gt;Node13</title>
<path fill="none" stroke="#191970" d="M1484.4794,-598.8733C1575.8107,-588.1586 1795.3488,-555.6764 1795.3488,-491 1795.3488,-491 1795.3488,-491 1795.3488,-435 1795.3488,-399.4341 1816.0505,-362.2782 1830.2633,-340.9597"/>
<polygon fill="#191970" stroke="#191970" points="1833.242,-342.8059 1836.0586,-332.5923 1827.4875,-338.8202 1833.242,-342.8059"/>
</g>
<!-- Node28&#45;&gt;Node29 -->
<g id="edge63" class="edge">
<title>Node28&#45;&gt;Node29</title>
<path fill="none" stroke="#191970" d="M1484.5981,-602.2221C1584.1935,-599.7744 1844.4186,-590.2872 1923.3488,-557 1948.9591,-546.1993 1972.4395,-523.8952 1986.8032,-508.2154"/>
<polygon fill="#191970" stroke="#191970" points="1989.4356,-510.522 1993.4464,-500.7156 1984.1957,-505.8805 1989.4356,-510.522"/>
</g>
<!-- Node30 -->
<g id="node30" class="node">
<title>Node30</title>
<g id="a_node30"><a xlink:href="_r_d_f_annotation_8h.html" target="_top" xlink:title="RDFAnnotation I/O. ">
<polygon fill="#ffffff" stroke="#000000" points="1241.8488,-537.5 1241.8488,-556.5 1408.8488,-556.5 1408.8488,-537.5 1241.8488,-537.5"/>
<text text-anchor="middle" x="1325.3488" y="-544.5" font-family="Helvetica,sans-Serif" font-size="10.00" fill="#000000">sbml/annotation/RDFAnnotation.h</text>
</a>
</g>
</g>
<!-- Node28&#45;&gt;Node30 -->
<g id="edge66" class="edge">
<title>Node28&#45;&gt;Node30</title>
<path fill="none" stroke="#191970" d="M1424.72,-593.3733C1405.4569,-584.3838 1376.5001,-570.8706 1354.8068,-560.7471"/>
<polygon fill="#191970" stroke="#191970" points="1356.2503,-557.5584 1345.7083,-556.5011 1353.29,-563.9017 1356.2503,-557.5584"/>
</g>
<!-- Node33 -->
<g id="node33" class="node">
<title>Node33</title>
<g id="a_node33"><a xlink:href="_list_8h.html" target="_top" xlink:title="Simple, generic list utility class. ">
<polygon fill="#ffffff" stroke="#000000" points="976.3488,-313.5 976.3488,-332.5 1056.3488,-332.5 1056.3488,-313.5 976.3488,-313.5"/>
<text text-anchor="middle" x="1016.3488" y="-320.5" font-family="Helvetica,sans-Serif" font-size="10.00" fill="#000000">sbml/util/List.h</text>
</a>
</g>
</g>
<!-- Node28&#45;&gt;Node33 -->
<g id="edge100" class="edge">
<title>Node28&#45;&gt;Node33</title>
<path fill="none" stroke="#191970" d="M1406.1326,-596.6219C1363.1748,-589.1447 1292.5083,-575.397 1233.3488,-557 1202.0408,-547.2641 978.6102,-472.2304 960.3488,-445 937.0402,-410.2436 973.9827,-364.2209 998.1202,-339.8374"/>
<polygon fill="#191970" stroke="#191970" points="1000.6997,-342.2107 1005.4145,-332.7227 995.812,-337.1996 1000.6997,-342.2107"/>
</g>
<!-- Node35 -->
<g id="node35" class="node">
<title>Node35</title>
<g id="a_node35"><a xlink:href="_x_m_l_node_8h.html" target="_top" xlink:title="Class definition of XMLNode_t, a node in an XML document tree. ">
<polygon fill="#ffffff" stroke="#000000" points="1302.3488,-313.5 1302.3488,-332.5 1414.3488,-332.5 1414.3488,-313.5 1302.3488,-313.5"/>
<text text-anchor="middle" x="1358.3488" y="-320.5" font-family="Helvetica,sans-Serif" font-size="10.00" fill="#000000">sbml/xml/XMLNode.h</text>
</a>
</g>
</g>
<!-- Node28&#45;&gt;Node35 -->
<g id="edge111" class="edge">
<title>Node28&#45;&gt;Node35</title>
<path fill="none" stroke="#191970" d="M1445.3488,-593.4116C1445.3488,-574.0538 1445.3488,-528.9167 1445.3488,-491 1445.3488,-491 1445.3488,-491 1445.3488,-435 1445.3488,-393.4126 1407.4757,-357.9469 1381.7061,-338.6288"/>
<polygon fill="#191970" stroke="#191970" points="1383.6606,-335.7232 1373.503,-332.711 1379.5652,-341.4001 1383.6606,-335.7232"/>
</g>
<!-- Node38 -->
<g id="node38" class="node">
<title>Node38</title>
<g id="a_node38"><a xlink:href="_c_v_term_8h.html" target="_top" xlink:title="Definition of a CVTerm_t class for adding annotations to a Model_t. ">
<polygon fill="#ffffff" stroke="#000000" points="1690.8488,-257.5 1690.8488,-276.5 1825.8488,-276.5 1825.8488,-257.5 1690.8488,-257.5"/>
<text text-anchor="middle" x="1758.3488" y="-264.5" font-family="Helvetica,sans-Serif" font-size="10.00" fill="#000000">sbml/annotation/CVTerm.h</text>
</a>
</g>
</g>
<!-- Node28&#45;&gt;Node38 -->
<g id="edge95" class="edge">
<title>Node28&#45;&gt;Node38</title>
<path fill="none" stroke="#191970" d="M1483.0046,-593.4526C1549.6339,-575.4468 1681.3488,-534.3679 1681.3488,-491 1681.3488,-491 1681.3488,-491 1681.3488,-379 1681.3488,-339.0704 1714.9928,-302.9919 1737.8027,-283.1198"/>
<polygon fill="#191970" stroke="#191970" points="1740.219,-285.6614 1745.6338,-276.5547 1735.7219,-280.297 1740.219,-285.6614"/>
</g>
<!-- Node39 -->
<g id="node39" class="node">
<title>Node39</title>
<g id="a_node39"><a xlink:href="_syntax_checker_8h.html" target="_top" xlink:title="Syntax checking functions. ">
<polygon fill="#ffffff" stroke="#000000" points="2159.8488,-481.5 2159.8488,-500.5 2276.8488,-500.5 2276.8488,-481.5 2159.8488,-481.5"/>
<text text-anchor="middle" x="2218.3488" y="-488.5" font-family="Helvetica,sans-Serif" font-size="10.00" fill="#000000">sbml/SyntaxChecker.h</text>
</a>
</g>
</g>
<!-- Node28&#45;&gt;Node39 -->
<g id="edge102" class="edge">
<title>Node28&#45;&gt;Node39</title>
<path fill="none" stroke="#191970" d="M1484.6683,-601.254C1569.2387,-597.2699 1773.8322,-585.5485 1943.3488,-557 2024.1815,-543.3869 2116.6843,-518.2063 2171.2862,-503.1921"/>
<polygon fill="#191970" stroke="#191970" points="2172.3156,-506.539 2181.0291,-500.512 2170.4589,-499.7897 2172.3156,-506.539"/>
</g>
<!-- Node40 -->
<g id="node40" class="node">
<title>Node40</title>
<g id="a_node40"><a xlink:href="_s_b_m_l_constructor_exception_8h.html" target="_top" xlink:title="Definition of SBMLConstructorException_t, the exception class for constructor exceptions. ">
<polygon fill="#ffffff" stroke="#000000" points="1861.3488,-369.5 1861.3488,-388.5 2033.3488,-388.5 2033.3488,-369.5 1861.3488,-369.5"/>
<text text-anchor="middle" x="1947.3488" y="-376.5" font-family="Helvetica,sans-Serif" font-size="10.00" fill="#000000">sbml/SBMLConstructorException.h</text>
</a>
</g>
</g>
<!-- Node28&#45;&gt;Node40 -->
<g id="edge106" class="edge">
<title>Node28&#45;&gt;Node40</title>
<path fill="none" stroke="#191970" d="M1484.5011,-601.7988C1566.7836,-598.6784 1754.5774,-588.2517 1809.3488,-557 1875.4723,-519.271 1920.8379,-435.9741 1938.7734,-398.2433"/>
<polygon fill="#191970" stroke="#191970" points="1942.0802,-399.431 1943.0993,-388.8853 1935.7262,-396.4938 1942.0802,-399.431"/>
</g>
<!-- Node41 -->
<g id="node41" class="node">
<title>Node41</title>
<g id="a_node41"><a xlink:href="_expected_attributes_8h.html" target="_top" xlink:title="Definition of ExpectedAttributes, the class allowing the specification of attributes to expect...">
<polygon fill="#ffffff" stroke="#000000" points="626.8488,-537.5 626.8488,-556.5 759.8488,-556.5 759.8488,-537.5 626.8488,-537.5"/>
<text text-anchor="middle" x="693.3488" y="-544.5" font-family="Helvetica,sans-Serif" font-size="10.00" fill="#000000">sbml/ExpectedAttributes.h</text>
</a>
</g>
</g>
<!-- Node28&#45;&gt;Node41 -->
<g id="edge109" class="edge">
<title>Node28&#45;&gt;Node41</title>
<path fill="none" stroke="#191970" d="M1406.0118,-598.4407C1389.4571,-596.6076 1369.9801,-594.5627 1352.3488,-593 1142.0608,-574.3614 893.4666,-558.7437 770.3777,-551.4391"/>
<polygon fill="#191970" stroke="#191970" points="770.4872,-547.9395 760.298,-550.8429 770.0738,-554.9273 770.4872,-547.9395"/>
</g>
<!-- Node29&#45;&gt;Node4 -->
<g id="edge65" class="edge">
<title>Node29&#45;&gt;Node4</title>
<path fill="none" stroke="#191970" d="M2065.3355,-486.8914C2192.3055,-476.5589 2482.3887,-441.9653 2697.3488,-333 2737.2517,-312.7728 2773.3488,-311.7368 2773.3488,-267 2773.3488,-267 2773.3488,-267 2773.3488,-205.5 2773.3488,-155.3442 2741.9773,-143.8241 2696.3488,-123 2641.8495,-98.1274 1760.2702,-82.1919 1503.8127,-78.0662"/>
<polygon fill="#191970" stroke="#191970" points="1503.567,-74.5619 1493.5123,-77.9014 1503.455,-81.561 1503.567,-74.5619"/>
</g>
<!-- Node29&#45;&gt;Node17 -->
<g id="edge64" class="edge">
<title>Node29&#45;&gt;Node17</title>
<path fill="none" stroke="#191970" d="M2006.7457,-481.2559C2016.2129,-463.5433 2035.4612,-424.6021 2042.3488,-389 2053.1669,-333.0803 2038.8628,-266.4187 2029.0904,-230.8428"/>
<polygon fill="#191970" stroke="#191970" points="2032.3472,-229.5009 2026.2359,-220.8463 2025.6163,-231.423 2032.3472,-229.5009"/>
</g>
<!-- Node31 -->
<g id="node31" class="node">
<title>Node31</title>
<g id="a_node31"><a xlink:href="_r_d_f_annotation_parser_8h.html" target="_top" xlink:title="RDFAnnotationParser.h">
<polygon fill="#ffffff" stroke="#000000" points="1255.8488,-481.5 1255.8488,-500.5 1378.8488,-500.5 1378.8488,-481.5 1255.8488,-481.5"/>
<text text-anchor="middle" x="1317.3488" y="-488.5" font-family="Helvetica,sans-Serif" font-size="10.00" fill="#000000">RDFAnnotationParser.h</text>
</a>
</g>
</g>
<!-- Node30&#45;&gt;Node31 -->
<g id="edge67" class="edge">
<title>Node30&#45;&gt;Node31</title>
<path fill="none" stroke="#191970" d="M1323.9553,-537.2455C1322.9114,-529.9382 1321.448,-519.6944 1320.1637,-510.7046"/>
<polygon fill="#191970" stroke="#191970" points="1323.6054,-510.0472 1318.7263,-500.6427 1316.6758,-511.0372 1323.6054,-510.0472"/>
</g>
<!-- Node31&#45;&gt;Node2 -->
<g id="edge69" class="edge">
<title>Node31&#45;&gt;Node2</title>
<path fill="none" stroke="#191970" d="M1255.4802,-486.422C1159.4784,-478.8161 983.2315,-462.6558 960.3488,-445 868.7298,-374.3088 870.1505,-213.9645 873.6807,-158.1188"/>
<polygon fill="#191970" stroke="#191970" points="877.1726,-158.3565 874.4106,-148.128 870.1912,-157.8463 877.1726,-158.3565"/>
</g>
<!-- Node31&#45;&gt;Node4 -->
<g id="edge68" class="edge">
<title>Node31&#45;&gt;Node4</title>
<path fill="none" stroke="#191970" d="M1379.0913,-481.5173C1438.498,-471.9528 1523.8116,-456.9349 1555.3488,-445 1659.1575,-405.7146 1671.6661,-369.2534 1767.3488,-313 1796.8278,-295.6688 1806.0719,-294.6705 1835.3488,-277 1873.1323,-254.1952 1896.7423,-260.026 1917.3488,-221 1923.782,-208.8164 1925.9098,-200.7951 1917.3488,-190 1903.9818,-173.1448 1617.161,-113.7464 1491.9575,-88.4957"/>
<polygon fill="#191970" stroke="#191970" points="1492.6439,-85.0637 1482.1498,-86.5209 1491.2621,-91.926 1492.6439,-85.0637"/>
</g>
<!-- Node31&#45;&gt;Node25 -->
<g id="edge70" class="edge">
<title>Node31&#45;&gt;Node25</title>
<path fill="none" stroke="#191970" d="M1368.3997,-481.4719C1447.5592,-465.5434 1593.9929,-431.0732 1624.3488,-389 1643.7194,-362.1524 1688.5539,-384.6531 1605.3488,-257 1594.6085,-240.5223 1576.5525,-228.1029 1560.5163,-219.5927"/>
<polygon fill="#191970" stroke="#191970" points="1561.889,-216.3662 1551.3784,-215.0327 1558.7634,-222.6296 1561.889,-216.3662"/>
</g>
<!-- Node32 -->
<g id="node32" class="node">
<title>Node32</title>
<g id="a_node32"><a xlink:href="_model_history_8h.html" target="_top" xlink:title="ModelHistory_t I/O. ">
<polygon fill="#ffffff" stroke="#000000" points="968.8488,-425.5 968.8488,-444.5 1125.8488,-444.5 1125.8488,-425.5 968.8488,-425.5"/>
<text text-anchor="middle" x="1047.3488" y="-432.5" font-family="Helvetica,sans-Serif" font-size="10.00" fill="#000000">sbml/annotation/ModelHistory.h</text>
</a>
</g>
</g>
<!-- Node31&#45;&gt;Node32 -->
<g id="edge71" class="edge">
<title>Node31&#45;&gt;Node32</title>
<path fill="none" stroke="#191970" d="M1271.2409,-481.4369C1224.7413,-471.7925 1152.9129,-456.8948 1103.2088,-446.5858"/>
<polygon fill="#191970" stroke="#191970" points="1103.7689,-443.1275 1093.2665,-444.5237 1102.3473,-449.9817 1103.7689,-443.1275"/>
</g>
<!-- Node32&#45;&gt;Node2 -->
<g id="edge73" class="edge">
<title>Node32&#45;&gt;Node2</title>
<path fill="none" stroke="#191970" d="M1034.8367,-425.1789C1000.9396,-397.5728 908.2159,-315.1316 883.3488,-221 877.854,-200.2003 876.0487,-175.5584 875.4975,-158.6553"/>
<polygon fill="#191970" stroke="#191970" points="878.9902,-158.2582 875.2864,-148.3319 871.9917,-158.4014 878.9902,-158.2582"/>
</g>
<!-- Node32&#45;&gt;Node4 -->
<g id="edge72" class="edge">
<title>Node32&#45;&gt;Node4</title>
<path fill="none" stroke="#191970" d="M1007.4233,-425.4629C944.6655,-408.0759 824.8884,-364.6437 774.3488,-277 739.5568,-216.6652 746.5648,-163.328 803.3488,-123 848.2683,-91.0981 1210.3767,-80.9463 1364.8883,-78.0475"/>
<polygon fill="#191970" stroke="#191970" points="1365.2694,-81.5412 1375.2038,-77.859 1365.1415,-74.5424 1365.2694,-81.5412"/>
</g>
<!-- Node32&#45;&gt;Node15 -->
<g id="edge74" class="edge">
<title>Node32&#45;&gt;Node15</title>
<path fill="none" stroke="#191970" d="M1126.017,-426.3933C1214.0289,-416.3455 1347.1243,-399.7378 1368.3488,-389 1399.4772,-373.2516 1409.47,-365.0057 1423.3488,-333 1448.656,-274.6393 1424.9403,-253.4585 1429.3488,-190 1429.9375,-181.5259 1430.7735,-172.2852 1431.5938,-164.0006"/>
<polygon fill="#191970" stroke="#191970" points="1435.1008,-164.1106 1432.6409,-153.8053 1428.1374,-163.3953 1435.1008,-164.1106"/>
</g>
<!-- Node32&#45;&gt;Node33 -->
<g id="edge75" class="edge">
<title>Node32&#45;&gt;Node33</title>
<path fill="none" stroke="#191970" d="M1044.7057,-425.4509C1039.6268,-407.1013 1028.4141,-366.5908 1021.7099,-342.3693"/>
<polygon fill="#191970" stroke="#191970" points="1025.0259,-341.2289 1018.9851,-332.5249 1018.2796,-343.0962 1025.0259,-341.2289"/>
</g>
<!-- Node32&#45;&gt;Node35 -->
<g id="edge79" class="edge">
<title>Node32&#45;&gt;Node35</title>
<path fill="none" stroke="#191970" d="M1125.8351,-425.4677C1212.9792,-414.5297 1342.5212,-397.0663 1350.3488,-389 1362.0065,-376.9867 1363.023,-357.4022 1361.7138,-342.6808"/>
<polygon fill="#191970" stroke="#191970" points="1365.1601,-342.0409 1360.397,-332.5771 1358.2188,-342.9456 1365.1601,-342.0409"/>
</g>
<!-- Node36 -->
<g id="node36" class="node">
<title>Node36</title>
<g id="a_node36"><a xlink:href="_date_8h.html" target="_top" xlink:title="Date_t I/O. ">
<polygon fill="#ffffff" stroke="#000000" points="1044.8488,-369.5 1044.8488,-388.5 1163.8488,-388.5 1163.8488,-369.5 1044.8488,-369.5"/>
<text text-anchor="middle" x="1104.3488" y="-376.5" font-family="Helvetica,sans-Serif" font-size="10.00" fill="#000000">sbml/annotation/Date.h</text>
</a>
</g>
</g>
<!-- Node32&#45;&gt;Node36 -->
<g id="edge83" class="edge">
<title>Node32&#45;&gt;Node36</title>
<path fill="none" stroke="#191970" d="M1057.2774,-425.2455C1065.5326,-417.1352 1077.4697,-405.4075 1087.257,-395.7919"/>
<polygon fill="#191970" stroke="#191970" points="1089.8534,-398.1476 1094.5339,-388.6427 1084.9476,-393.1542 1089.8534,-398.1476"/>
</g>
<!-- Node37 -->
<g id="node37" class="node">
<title>Node37</title>
<g id="a_node37"><a xlink:href="_model_creator_8h.html" target="_top" xlink:title="ModelCreator_t I/O. ">
<polygon fill="#ffffff" stroke="#000000" points="1181.8488,-369.5 1181.8488,-388.5 1340.8488,-388.5 1340.8488,-369.5 1181.8488,-369.5"/>
<text text-anchor="middle" x="1261.3488" y="-376.5" font-family="Helvetica,sans-Serif" font-size="10.00" fill="#000000">sbml/annotation/ModelCreator.h</text>
</a>
</g>
</g>
<!-- Node32&#45;&gt;Node37 -->
<g id="edge89" class="edge">
<title>Node32&#45;&gt;Node37</title>
<path fill="none" stroke="#191970" d="M1084.1367,-425.3733C1120.4148,-415.8799 1175.9723,-401.3415 1215.1933,-391.0781"/>
<polygon fill="#191970" stroke="#191970" points="1216.2527,-394.4188 1225.0409,-388.5011 1214.4806,-387.6468 1216.2527,-394.4188"/>
</g>
<!-- Node33&#45;&gt;Node2 -->
<g id="edge78" class="edge">
<title>Node33&#45;&gt;Node2</title>
<path fill="none" stroke="#191970" d="M1003.2465,-313.4727C991.9869,-304.8348 975.8025,-291.2991 964.3488,-277 936.7402,-242.5328 940.8548,-226.738 916.3488,-190 908.4026,-178.0876 898.4132,-165.4991 890.2841,-155.75"/>
<polygon fill="#191970" stroke="#191970" points="892.853,-153.3676 883.7174,-148.0018 887.5128,-157.8935 892.853,-153.3676"/>
</g>
<!-- Node33&#45;&gt;Node4 -->
<g id="edge76" class="edge">
<title>Node33&#45;&gt;Node4</title>
<path fill="none" stroke="#191970" d="M1011.3203,-313.0891C995.7899,-280.9328 952.5447,-178.3888 1002.3488,-123 1026.1215,-96.5615 1249.2424,-84.1142 1365.151,-79.3907"/>
<polygon fill="#191970" stroke="#191970" points="1365.4919,-82.88 1375.3443,-78.984 1365.2127,-75.8856 1365.4919,-82.88"/>
</g>
<!-- Node34 -->
<g id="node34" class="node">
<title>Node34</title>
<polygon fill="#ffffff" stroke="#bfbfbf" points="1044.8488,-257.5 1044.8488,-276.5 1093.8488,-276.5 1093.8488,-257.5 1044.8488,-257.5"/>
<text text-anchor="middle" x="1069.3488" y="-264.5" font-family="Helvetica,sans-Serif" font-size="10.00" fill="#000000">string.h</text>
</g>
<!-- Node33&#45;&gt;Node34 -->
<g id="edge77" class="edge">
<title>Node33&#45;&gt;Node34</title>
<path fill="none" stroke="#191970" d="M1025.5807,-313.2455C1033.1805,-305.2155 1044.1365,-293.6394 1053.1855,-284.0781"/>
<polygon fill="#191970" stroke="#191970" points="1055.8908,-286.3115 1060.2227,-276.6427 1050.8068,-281.4998 1055.8908,-286.3115"/>
</g>
<!-- Node35&#45;&gt;Node2 -->
<g id="edge82" class="edge">
<title>Node35&#45;&gt;Node2</title>
<path fill="none" stroke="#191970" d="M1340.1435,-313.3283C1295.1017,-289.6949 1174.4101,-228.1613 1068.3488,-190 1022.5182,-173.51 968.8837,-159.6126 929.803,-150.4264"/>
<polygon fill="#191970" stroke="#191970" points="930.2232,-146.9309 919.6906,-148.0781 928.6397,-153.7495 930.2232,-146.9309"/>
</g>
<!-- Node35&#45;&gt;Node8 -->
<g id="edge80" class="edge">
<title>Node35&#45;&gt;Node8</title>
<path fill="none" stroke="#191970" d="M1414.3569,-321.0509C1581.4225,-315.0799 2074.5523,-296.2731 2234.3488,-277 2300.5949,-269.01 2473.5722,-257.6247 2529.3488,-221 2552.7764,-205.6167 2568.9696,-176.6937 2577.7085,-157.5097"/>
<polygon fill="#191970" stroke="#191970" points="2580.9575,-158.8141 2581.6967,-148.2451 2574.5279,-156.0463 2580.9575,-158.8141"/>
</g>
<!-- Node35&#45;&gt;Node24 -->
<g id="edge81" class="edge">
<title>Node35&#45;&gt;Node24</title>
<path fill="none" stroke="#191970" d="M1386.1976,-313.3733C1413.0191,-304.1016 1453.7615,-290.0178 1483.3085,-279.804"/>
<polygon fill="#191970" stroke="#191970" points="1484.5556,-283.0762 1492.8634,-276.5011 1482.2686,-276.4603 1484.5556,-283.0762"/>
</g>
<!-- Node36&#45;&gt;Node2 -->
<g id="edge85" class="edge">
<title>Node36&#45;&gt;Node2</title>
<path fill="none" stroke="#191970" d="M1044.7347,-369.864C1018.4949,-363.2963 988.8236,-352.0816 967.3488,-333 912.961,-284.6734 888.0775,-197.294 879.2859,-158.2619"/>
<polygon fill="#191970" stroke="#191970" points="882.6489,-157.2503 877.1399,-148.2004 875.8029,-158.7105 882.6489,-157.2503"/>
</g>
<!-- Node36&#45;&gt;Node4 -->
<g id="edge84" class="edge">
<title>Node36&#45;&gt;Node4</title>
<path fill="none" stroke="#191970" d="M1108.6214,-369.4491C1125.8433,-332.0343 1193.9924,-194.011 1292.3488,-123 1314.7922,-106.7964 1343.2296,-96.1061 1368.7513,-89.1493"/>
<polygon fill="#191970" stroke="#191970" points="1369.9313,-92.4596 1378.7398,-86.5721 1368.1825,-85.6815 1369.9313,-92.4596"/>
</g>
<!-- Node36&#45;&gt;Node15 -->
<g id="edge86" class="edge">
<title>Node36&#45;&gt;Node15</title>
<path fill="none" stroke="#191970" d="M1113.2436,-369.1835C1140.9474,-339.0627 1229.1221,-246.5765 1317.3488,-190 1337.4377,-177.1177 1361.2933,-165.9711 1382.2068,-157.3751"/>
<polygon fill="#191970" stroke="#191970" points="1383.61,-160.5833 1391.5846,-153.608 1381.0006,-154.0878 1383.61,-160.5833"/>
</g>
<!-- Node36&#45;&gt;Node33 -->
<g id="edge87" class="edge">
<title>Node36&#45;&gt;Node33</title>
<path fill="none" stroke="#191970" d="M1089.0203,-369.2455C1075.5184,-360.6534 1055.6366,-348.0014 1040.0802,-338.1018"/>
<polygon fill="#191970" stroke="#191970" points="1041.8173,-335.0587 1031.5015,-332.6427 1038.0591,-340.9643 1041.8173,-335.0587"/>
</g>
<!-- Node36&#45;&gt;Node35 -->
<g id="edge88" class="edge">
<title>Node36&#45;&gt;Node35</title>
<path fill="none" stroke="#191970" d="M1147.7243,-369.4369C1191.2858,-359.8328 1258.4764,-345.0191 1305.2122,-334.7152"/>
<polygon fill="#191970" stroke="#191970" points="1306.1402,-338.0947 1315.1521,-332.5237 1304.6331,-331.2588 1306.1402,-338.0947"/>
</g>
<!-- Node37&#45;&gt;Node2 -->
<g id="edge91" class="edge">
<title>Node37&#45;&gt;Node2</title>
<path fill="none" stroke="#191970" d="M1242.9074,-369.4481C1226.85,-360.7945 1203.2481,-347.2495 1184.3488,-333 1144.9317,-303.2808 1143.6281,-285.5397 1103.3488,-257 1038.5782,-211.1072 953.6919,-171.7603 907.9485,-152.0325"/>
<polygon fill="#191970" stroke="#191970" points="909.1059,-148.721 898.5348,-148.0119 906.3564,-155.1584 909.1059,-148.721"/>
</g>
<!-- Node37&#45;&gt;Node4 -->
<g id="edge90" class="edge">
<title>Node37&#45;&gt;Node4</title>
<path fill="none" stroke="#191970" d="M1259.2473,-369.2977C1253.4714,-340.2565 1239.7332,-252.1848 1270.3488,-190 1295.5336,-138.8458 1356.3218,-106.7064 1396.3952,-90.3105"/>
<polygon fill="#191970" stroke="#191970" points="1397.839,-93.5034 1405.8536,-86.5741 1395.2671,-86.993 1397.839,-93.5034"/>
</g>
<!-- Node37&#45;&gt;Node15 -->
<g id="edge92" class="edge">
<title>Node37&#45;&gt;Node15</title>
<path fill="none" stroke="#191970" d="M1263.3594,-369.1759C1269.9648,-339.0334 1293.5464,-246.4914 1344.3488,-190 1356.0121,-177.0305 1371.739,-166.5012 1386.7827,-158.4228"/>
<polygon fill="#191970" stroke="#191970" points="1388.7024,-161.3726 1396.0188,-153.7097 1385.5207,-155.1375 1388.7024,-161.3726"/>
</g>
<!-- Node37&#45;&gt;Node33 -->
<g id="edge93" class="edge">
<title>Node37&#45;&gt;Node33</title>
<path fill="none" stroke="#191970" d="M1219.5101,-369.4369C1177.072,-359.7367 1111.3839,-344.7223 1066.2562,-334.4074"/>
<polygon fill="#191970" stroke="#191970" points="1066.9174,-330.9684 1056.3889,-332.152 1065.3576,-337.7924 1066.9174,-330.9684"/>
</g>
<!-- Node37&#45;&gt;Node35 -->
<g id="edge94" class="edge">
<title>Node37&#45;&gt;Node35</title>
<path fill="none" stroke="#191970" d="M1278.2449,-369.2455C1293.2668,-360.5731 1315.4531,-347.7645 1332.6698,-337.825"/>
<polygon fill="#191970" stroke="#191970" points="1334.7358,-340.6737 1341.6463,-332.6427 1331.2359,-334.6114 1334.7358,-340.6737"/>
</g>
<!-- Node38&#45;&gt;Node2 -->
<g id="edge97" class="edge">
<title>Node38&#45;&gt;Node2</title>
<path fill="none" stroke="#191970" d="M1721.3223,-257.4911C1695.7051,-249.9267 1661.4795,-237.8098 1634.3488,-221 1617.2429,-210.4015 1619.784,-198.0671 1601.3488,-190 1542.6838,-164.3287 1121.7122,-147.0214 948.998,-140.9284"/>
<polygon fill="#191970" stroke="#191970" points="949.0932,-137.4297 938.9768,-140.5777 948.8483,-144.4254 949.0932,-137.4297"/>
</g>
<!-- Node38&#45;&gt;Node4 -->
<g id="edge96" class="edge">
<title>Node38&#45;&gt;Node4</title>
<path fill="none" stroke="#191970" d="M1749.054,-256.9985C1734.0492,-241.2624 1703.0558,-210.4162 1672.3488,-190 1605.3556,-145.4582 1518.0742,-108.7815 1470.005,-90.1876"/>
<polygon fill="#191970" stroke="#191970" points="1471.2382,-86.912 1460.6478,-86.6054 1468.7355,-93.4494 1471.2382,-86.912"/>
</g>
<!-- Node38&#45;&gt;Node15 -->
<g id="edge98" class="edge">
<title>Node38&#45;&gt;Node15</title>
<path fill="none" stroke="#191970" d="M1742.2529,-257.4429C1726.8123,-248.2313 1702.879,-233.8389 1682.3488,-221 1660.8168,-207.5347 1657.6119,-200.1865 1634.3488,-190 1598.6231,-174.3563 1557.1495,-162.7089 1521.2623,-154.4859"/>
<polygon fill="#191970" stroke="#191970" points="1521.8207,-151.0244 1511.2978,-152.257 1520.2926,-157.8556 1521.8207,-151.0244"/>
</g>
<!-- Node38&#45;&gt;Node25 -->
<g id="edge99" class="edge">
<title>Node38&#45;&gt;Node25</title>
<path fill="none" stroke="#191970" d="M1722.5085,-257.4581C1682.3003,-246.7533 1616.9797,-229.3628 1573.1119,-217.6837"/>
<polygon fill="#191970" stroke="#191970" points="1573.837,-214.2549 1563.2731,-215.0643 1572.0361,-221.0193 1573.837,-214.2549"/>
</g>
<!-- Node39&#45;&gt;Node4 -->
<g id="edge103" class="edge">
<title>Node39&#45;&gt;Node4</title>
<path fill="none" stroke="#191970" d="M2276.8626,-486.7441C2433.2907,-474.588 2849.3488,-436.8209 2849.3488,-379 2849.3488,-379 2849.3488,-379 2849.3488,-205.5 2849.3488,-165.1307 2844.9767,-145.3348 2811.3488,-123 2756.451,-86.5383 1775.2902,-78.7629 1503.5864,-77.3058"/>
<polygon fill="#191970" stroke="#191970" points="1503.4789,-73.8053 1493.4607,-77.2527 1503.4421,-80.8052 1503.4789,-73.8053"/>
</g>
<!-- Node39&#45;&gt;Node9 -->
<g id="edge105" class="edge">
<title>Node39&#45;&gt;Node9</title>
<path fill="none" stroke="#191970" d="M2261.1118,-481.4579C2359.1952,-458.6161 2595.3823,-397.8507 2640.3488,-333 2676.8468,-280.3625 2582.2195,-238.4133 2523.6637,-218.3573"/>
<polygon fill="#191970" stroke="#191970" points="2524.4893,-214.9432 2513.8956,-215.0985 2522.274,-221.5834 2524.4893,-214.9432"/>
</g>
<!-- Node39&#45;&gt;Node28 -->
<g id="edge104" class="edge">
<title>Node39&#45;&gt;Node28</title>
<path fill="none" stroke="#191970" d="M2192.454,-500.512C2146.2444,-515.0269 2047.2126,-542.5396 1961.3488,-557 1791.8288,-585.549 1587.2305,-597.2703 1494.7685,-601.2543"/>
<polygon fill="#191970" stroke="#191970" points="1494.4309,-597.7652 1484.5863,-601.6809 1494.7241,-604.7591 1494.4309,-597.7652"/>
</g>
<!-- Node40&#45;&gt;Node4 -->
<g id="edge107" class="edge">
<title>Node40&#45;&gt;Node4</title>
<path fill="none" stroke="#191970" d="M2033.4116,-374.9317C2216.8164,-366.0586 2631.8461,-344.8176 2660.3488,-333 2701.3652,-315.994 2735.3488,-311.4022 2735.3488,-267 2735.3488,-267 2735.3488,-267 2735.3488,-205.5 2735.3488,-153.8024 2700.6981,-143.753 2653.3488,-123 2600.4973,-99.8354 1753.8554,-82.7684 1503.5323,-78.2097"/>
<polygon fill="#191970" stroke="#191970" points="1503.5321,-74.7093 1493.4703,-78.0274 1503.4052,-81.7081 1503.5321,-74.7093"/>
</g>
<!-- Node40&#45;&gt;Node13 -->
<g id="edge108" class="edge">
<title>Node40&#45;&gt;Node13</title>
<path fill="none" stroke="#191970" d="M1929.2334,-369.2455C1912.9037,-360.4527 1888.6778,-347.4079 1870.1149,-337.4125"/>
<polygon fill="#191970" stroke="#191970" points="1871.7207,-334.3021 1861.2566,-332.6427 1868.4019,-340.4654 1871.7207,-334.3021"/>
</g>
<!-- Node41&#45;&gt;Node4 -->
<g id="edge110" class="edge">
<title>Node41&#45;&gt;Node4</title>
<path fill="none" stroke="#191970" d="M685.5739,-537.3675C648.7882,-491.5579 493.0565,-294.9051 470.3488,-221 457.5563,-179.3654 440.2933,-154.5239 470.3488,-123 501.1517,-90.6922 1148.8612,-80.2956 1364.907,-77.7198"/>
<polygon fill="#191970" stroke="#191970" points="1365.2115,-81.2165 1375.1698,-77.5994 1365.1294,-74.217 1365.2115,-81.2165"/>
</g>
<!-- Node42&#45;&gt;Node2 -->
<g id="edge117" class="edge">
<title>Node42&#45;&gt;Node2</title>
<path fill="none" stroke="#191970" d="M1239.653,-654.9546C1105.0568,-621.4496 674.3488,-504.4339 674.3488,-379 674.3488,-379 674.3488,-379 674.3488,-323 674.3488,-257.7817 688.3944,-234.2019 736.3488,-190 757.3227,-170.6673 786.1916,-158.4213 812.1873,-150.7494"/>
<polygon fill="#191970" stroke="#191970" points="813.2885,-154.0761 821.9872,-148.0278 811.4153,-147.3314 813.2885,-154.0761"/>
</g>
<!-- Node42&#45;&gt;Node3 -->
<g id="edge119" class="edge">
<title>Node42&#45;&gt;Node3</title>
<path fill="none" stroke="#191970" d="M1340.4879,-662.594C1529.1125,-656.4887 2094.0524,-636.44 2173.3488,-613 2287.115,-579.3707 2296.8495,-528.9748 2405.3488,-481 2436.2851,-467.321 2472.6003,-455.5678 2500.6276,-447.366"/>
<polygon fill="#191970" stroke="#191970" points="2501.9121,-450.6385 2510.5532,-444.508 2499.9751,-443.9118 2501.9121,-450.6385"/>
</g>
<!-- Node42&#45;&gt;Node4 -->
<g id="edge116" class="edge">
<title>Node42&#45;&gt;Node4</title>
<path fill="none" stroke="#191970" d="M1218.2565,-661.646C1073.18,-653.774 713.0078,-627.4677 618.3488,-557 535.3933,-495.2448 378.9489,-197.8156 450.3488,-123 481.8754,-89.9651 1145.8925,-80.0325 1364.9351,-77.6488"/>
<polygon fill="#191970" stroke="#191970" points="1365.0631,-81.1477 1375.0251,-77.5409 1364.9882,-74.1481 1365.0631,-81.1477"/>
</g>
<!-- Node42&#45;&gt;Node7 -->
<g id="edge122" class="edge">
<title>Node42&#45;&gt;Node7</title>
<path fill="none" stroke="#191970" d="M1340.4662,-663.4318C1537.4216,-658.6882 2150.5638,-633.3628 2286.3488,-501 2384.9347,-404.8987 2381.8996,-218.8609 2377.9931,-158.1685"/>
<polygon fill="#191970" stroke="#191970" points="2381.4736,-157.7716 2377.2539,-148.0534 2374.4922,-158.2819 2381.4736,-157.7716"/>
</g>
<!-- Node42&#45;&gt;Node12 -->
<g id="edge118" class="edge">
<title>Node42&#45;&gt;Node12</title>
<path fill="none" stroke="#191970" d="M1340.4607,-660.3204C1460.1597,-650.9223 1732.9614,-623.5112 1952.3488,-557 2009.4442,-539.6905 2022.6814,-530.8326 2074.3488,-501 2132.3088,-467.534 2195.2013,-419.6504 2226.4245,-395.0069"/>
<polygon fill="#191970" stroke="#191970" points="2228.7069,-397.6638 2234.3609,-388.7037 2224.3534,-392.1823 2228.7069,-397.6638"/>
</g>
<!-- Node42&#45;&gt;Node28 -->
<g id="edge120" class="edge">
<title>Node42&#45;&gt;Node28</title>
<path fill="none" stroke="#191970" d="M1305.2863,-654.8906C1333.4266,-644.4652 1378.5281,-627.7559 1409.9213,-616.1252"/>
<polygon fill="#191970" stroke="#191970" points="1411.4322,-619.298 1419.5934,-612.5419 1409.0003,-612.734 1411.4322,-619.298"/>
</g>
<!-- Node43 -->
<g id="node43" class="node">
<title>Node43</title>
<g id="a_node43"><a xlink:href="_s_b_m_l_transforms_8h.html" target="_top" xlink:title="sbml/SBMLTransforms.h">
<polygon fill="#ffffff" stroke="#000000" points="1215.8488,-593.5 1215.8488,-612.5 1342.8488,-612.5 1342.8488,-593.5 1215.8488,-593.5"/>
<text text-anchor="middle" x="1279.3488" y="-600.5" font-family="Helvetica,sans-Serif" font-size="10.00" fill="#000000">sbml/SBMLTransforms.h</text>
</a>
</g>
</g>
<!-- Node42&#45;&gt;Node43 -->
<g id="edge121" class="edge">
<title>Node42&#45;&gt;Node43</title>
<path fill="none" stroke="#191970" d="M1279.3488,-654.8906C1279.3488,-646.3657 1279.3488,-633.6392 1279.3488,-622.9235"/>
<polygon fill="#191970" stroke="#191970" points="1282.8489,-622.7448 1279.3488,-612.7449 1275.8489,-622.7449 1282.8489,-622.7448"/>
</g>
<!-- Node44&#45;&gt;Node18 -->
<g id="edge124" class="edge">
<title>Node44&#45;&gt;Node18</title>
<path fill="none" stroke="#191970" d="M882.1176,-788.9761C856.5758,-781.634 827.0594,-768.8792 808.3488,-747 783.8277,-718.3264 788.3488,-702.2287 788.3488,-664.5 788.3488,-664.5 788.3488,-664.5 788.3488,-435 788.3488,-219.4026 1584.833,-156.0883 1823.5324,-141.9545"/>
<polygon fill="#191970" stroke="#191970" points="1824.0242,-145.4319 1833.8038,-141.3564 1823.6172,-138.4437 1824.0242,-145.4319"/>
</g>
<!-- Node45 -->
<g id="node45" class="node">
<title>Node45</title>
<g id="a_node45"><a xlink:href="_s_base_plugin_creator_base_8h.html" target="_top" xlink:title="Definition of SBasePluginCreatorBase_t, the base class of SBasePlugin_t creator classes. ">
<polygon fill="#ffffff" stroke="#000000" points="816.8488,-716.5 816.8488,-746.5 959.8488,-746.5 959.8488,-716.5 816.8488,-716.5"/>
<text text-anchor="start" x="824.8488" y="-734.5" font-family="Helvetica,sans-Serif" font-size="10.00" fill="#000000">sbml/extension/SBasePlugin</text>
<text text-anchor="middle" x="888.3488" y="-723.5" font-family="Helvetica,sans-Serif" font-size="10.00" fill="#000000">CreatorBase.h</text>
</a>
</g>
</g>
<!-- Node44&#45;&gt;Node45 -->
<g id="edge125" class="edge">
<title>Node44&#45;&gt;Node45</title>
<path fill="none" stroke="#191970" d="M926.0446,-788.9005C920.2503,-780.0773 911.4249,-766.6387 903.7699,-754.9822"/>
<polygon fill="#191970" stroke="#191970" points="906.6287,-752.9592 898.2138,-746.5218 900.7776,-756.8017 906.6287,-752.9592"/>
</g>
<!-- Node46 -->
<g id="node46" class="node">
<title>Node46</title>
<g id="a_node46"><a xlink:href="_s_base_extension_point_8h.html" target="_top" xlink:title="Implementation of SBaseExtensionPoint_t. ">
<polygon fill="#ffffff" stroke="#000000" points="520.8488,-649.5 520.8488,-679.5 679.8488,-679.5 679.8488,-649.5 520.8488,-649.5"/>
<text text-anchor="start" x="528.8488" y="-667.5" font-family="Helvetica,sans-Serif" font-size="10.00" fill="#000000">sbml/extension/SBaseExtension</text>
<text text-anchor="middle" x="600.3488" y="-656.5" font-family="Helvetica,sans-Serif" font-size="10.00" fill="#000000">Point.h</text>
</a>
</g>
</g>
<!-- Node44&#45;&gt;Node46 -->
<g id="edge131" class="edge">
<title>Node44&#45;&gt;Node46</title>
<path fill="none" stroke="#191970" d="M898.9257,-788.9597C866.6411,-779.4285 816.5657,-763.809 774.3488,-747 726.5097,-727.9525 673.2517,-701.962 638.4115,-684.2774"/>
<polygon fill="#191970" stroke="#191970" points="639.5911,-680.9501 629.0929,-679.5224 636.4095,-687.1852 639.5911,-680.9501"/>
</g>
<!-- Node44&#45;&gt;Node47 -->
<g id="edge132" class="edge">
<title>Node44&#45;&gt;Node47</title>
<path fill="none" stroke="#191970" d="M950.688,-788.9005C972.2644,-777.6067 1008.2878,-758.7506 1033.1254,-745.7497"/>
<polygon fill="#191970" stroke="#191970" points="1034.807,-748.8201 1042.0435,-741.0817 1031.5607,-742.6183 1034.807,-748.8201"/>
</g>
<!-- Node45&#45;&gt;Node13 -->
<g id="edge127" class="edge">
<title>Node45&#45;&gt;Node13</title>
<path fill="none" stroke="#191970" d="M909.8596,-716.4453C962.5456,-680.2431 1103.2541,-587.576 1233.3488,-537 1299.2653,-511.3741 1319.8019,-518.4072 1388.3488,-501 1479.0617,-477.9638 1503.7567,-477.9717 1591.3488,-445 1676.9264,-412.7866 1772.8098,-362.0378 1817.6417,-337.3896"/>
<polygon fill="#191970" stroke="#191970" points="1819.3526,-340.4431 1826.4114,-332.5422 1815.9662,-334.3167 1819.3526,-340.4431"/>
</g>
<!-- Node45&#45;&gt;Node42 -->
<g id="edge126" class="edge">
<title>Node45&#45;&gt;Node42</title>
<path fill="none" stroke="#191970" d="M959.8848,-717.7127C963.082,-717.1275 966.248,-716.5542 969.3488,-716 1051.5102,-701.3164 1146.1795,-685.791 1209.0664,-675.6736"/>
<polygon fill="#191970" stroke="#191970" points="1209.9477,-679.0769 1219.266,-674.0352 1208.8374,-672.1655 1209.9477,-679.0769"/>
</g>
<!-- Node45&#45;&gt;Node46 -->
<g id="edge128" class="edge">
<title>Node45&#45;&gt;Node46</title>
<path fill="none" stroke="#191970" d="M823.7159,-716.4639C779.6815,-706.2198 721.2475,-692.6257 675.1912,-681.9113"/>
<polygon fill="#191970" stroke="#191970" points="675.7965,-678.4587 665.2635,-679.6017 674.2103,-685.2766 675.7965,-678.4587"/>
</g>
<!-- Node46&#45;&gt;Node2 -->
<g id="edge130" class="edge">
<title>Node46&#45;&gt;Node2</title>
<path fill="none" stroke="#191970" d="M599.9246,-649.2913C599.3375,-626.8951 598.3488,-583.7241 598.3488,-547 598.3488,-547 598.3488,-547 598.3488,-435 598.3488,-376.195 652.2199,-226.4713 698.3488,-190 727.8243,-166.6955 767.4939,-153.9347 801.8069,-146.9482"/>
<polygon fill="#191970" stroke="#191970" points="802.6292,-150.3545 811.7967,-145.0434 801.3181,-143.4784 802.6292,-150.3545"/>
</g>
<!-- Node46&#45;&gt;Node4 -->
<g id="edge129" class="edge">
<title>Node46&#45;&gt;Node4</title>
<path fill="none" stroke="#191970" d="M568.6074,-649.3185C454.89,-592.8314 81.066,-387.8732 205.3488,-190 241.8251,-131.9252 277.8279,-139.6788 344.3488,-123 442.7975,-98.3159 1140.5444,-82.7186 1364.9913,-78.2966"/>
<polygon fill="#191970" stroke="#191970" points="1365.3876,-81.7896 1375.3172,-78.0945 1365.2506,-74.791 1365.3876,-81.7896"/>
</g>
<!-- Node48&#45;&gt;Node2 -->
<g id="edge136" class="edge">
<title>Node48&#45;&gt;Node2</title>
<path fill="none" stroke="#191970" d="M157.9272,-196.3199C173.2846,-194.0325 189.9298,-191.7394 205.3488,-190 421.2792,-165.6415 677.6827,-149.4655 801.352,-142.4601"/>
<polygon fill="#191970" stroke="#191970" points="801.6758,-145.9475 811.4634,-141.8911 801.2825,-138.9586 801.6758,-145.9475"/>
</g>
<!-- Node48&#45;&gt;Node4 -->
<g id="edge135" class="edge">
<title>Node48&#45;&gt;Node4</title>
<path fill="none" stroke="#191970" d="M115.4273,-190.2814C135.9602,-168.5089 173.6026,-130.2836 191.3488,-123 245.8743,-100.6209 1111.6432,-82.9531 1365.1324,-78.2402"/>
<polygon fill="#191970" stroke="#191970" points="1365.3833,-81.7362 1375.3168,-78.0517 1365.2537,-74.7374 1365.3833,-81.7362"/>
</g>
<!-- Node49 -->
<g id="node49" class="node">
<title>Node49</title>
<g id="a_node49"><a xlink:href="layoutfwd_8h.html" target="_top" xlink:title="C Structure declarations for SBML Layout_t. ">
<polygon fill="#ffffff" stroke="#000000" points="25.8488,-123.5 25.8488,-153.5 138.8488,-153.5 138.8488,-123.5 25.8488,-123.5"/>
<text text-anchor="start" x="33.8488" y="-141.5" font-family="Helvetica,sans-Serif" font-size="10.00" fill="#000000">sbml/packages/layout</text>
<text text-anchor="middle" x="82.3488" y="-130.5" font-family="Helvetica,sans-Serif" font-size="10.00" fill="#000000">/common/layoutfwd.h</text>
</a>
</g>
</g>
<!-- Node48&#45;&gt;Node49 -->
<g id="edge137" class="edge">
<title>Node48&#45;&gt;Node49</title>
<path fill="none" stroke="#191970" d="M97.0374,-190.2967C94.7782,-182.3299 91.9542,-172.3718 89.3876,-163.3213"/>
<polygon fill="#191970" stroke="#191970" points="92.7386,-162.3089 86.6431,-153.6432 86.0042,-164.2187 92.7386,-162.3089"/>
</g>
<!-- Node50&#45;&gt;Node44 -->
<g id="edge139" class="edge">
<title>Node50&#45;&gt;Node44</title>
<path fill="none" stroke="#191970" d="M955.4901,-984.3966C948.07,-974.6849 939.4236,-961.4118 935.3488,-948 921.7576,-903.2666 925.8042,-847.4848 929.3989,-818.338"/>
<polygon fill="#191970" stroke="#191970" points="932.8945,-818.6055 930.7642,-808.227 925.9574,-817.6687 932.8945,-818.6055"/>
</g>
<!-- Node51 -->
<g id="node51" class="node">
<title>Node51</title>
<g id="a_node51"><a xlink:href="_s_b_m_l_extension_namespaces_8h.html" target="_top" xlink:title="Class to store the SBML Level, Version and namespace of a package. ">
<polygon fill="#ffffff" stroke="#000000" points="2064.8488,-917.5 2064.8488,-947.5 2221.8488,-947.5 2221.8488,-917.5 2064.8488,-917.5"/>
<text text-anchor="start" x="2072.8488" y="-935.5" font-family="Helvetica,sans-Serif" font-size="10.00" fill="#000000">sbml/extension/SBMLExtension</text>
<text text-anchor="middle" x="2143.3488" y="-924.5" font-family="Helvetica,sans-Serif" font-size="10.00" fill="#000000">Namespaces.h</text>
</a>
</g>
</g>
<!-- Node50&#45;&gt;Node51 -->
<g id="edge140" class="edge">
<title>Node50&#45;&gt;Node51</title>
<path fill="none" stroke="#191970" d="M1041.8503,-995.3088C1247.9384,-983.5574 1830.8166,-950.321 2054.464,-937.5683"/>
<polygon fill="#191970" stroke="#191970" points="2054.7342,-941.0587 2064.5187,-936.995 2054.3356,-934.07 2054.7342,-941.0587"/>
</g>
<!-- Node55 -->
<g id="node55" class="node">
<title>Node55</title>
<g id="a_node55"><a xlink:href="_s_b_m_l_extension_register_8h.html" target="_top" xlink:title="Template class for registering extension packages. ">
<polygon fill="#ffffff" stroke="#000000" points="943.8488,-917.5 943.8488,-947.5 1100.8488,-947.5 1100.8488,-917.5 943.8488,-917.5"/>
<text text-anchor="start" x="951.8488" y="-935.5" font-family="Helvetica,sans-Serif" font-size="10.00" fill="#000000">sbml/extension/SBMLExtension</text>
<text text-anchor="middle" x="1022.3488" y="-924.5" font-family="Helvetica,sans-Serif" font-size="10.00" fill="#000000">Register.h</text>
</a>
</g>
</g>
<!-- Node50&#45;&gt;Node55 -->
<g id="edge149" class="edge">
<title>Node50&#45;&gt;Node55</title>
<path fill="none" stroke="#191970" d="M980.6022,-984.2967C987.4374,-975.816 996.0914,-965.0785 1003.7456,-955.5817"/>
<polygon fill="#191970" stroke="#191970" points="1006.5936,-957.6255 1010.1438,-947.6432 1001.1434,-953.2328 1006.5936,-957.6255"/>
</g>
<!-- Node51&#45;&gt;Node13 -->
<g id="edge141" class="edge">
<title>Node51&#45;&gt;Node13</title>
<path fill="none" stroke="#191970" d="M2156.0101,-917.1615C2163.5124,-907.3613 2172.6394,-894.0777 2178.3488,-881 2193.4034,-846.5165 2197.3488,-836.1265 2197.3488,-798.5 2197.3488,-798.5 2197.3488,-798.5 2197.3488,-664.5 2197.3488,-524.9726 2030.6608,-596.9363 1929.3488,-501 1885.4869,-459.4654 1874.1313,-445.3428 1852.3488,-389 1846.6149,-374.1688 1844.4441,-356.2294 1843.663,-342.7994"/>
<polygon fill="#191970" stroke="#191970" points="1847.1583,-342.6077 1843.286,-332.7459 1840.1633,-342.8701 1847.1583,-342.6077"/>
</g>
<!-- Node51&#45;&gt;Node16 -->
<g id="edge142" class="edge">
<title>Node51&#45;&gt;Node16</title>
<path fill="none" stroke="#191970" d="M2175.0602,-917.4866C2213.83,-896.6698 2274.3488,-855.109 2274.3488,-798.5 2274.3488,-798.5 2274.3488,-798.5 2274.3488,-664.5 2274.3488,-544.3197 2131.3488,-555.1803 2131.3488,-435 2131.3488,-435 2131.3488,-435 2131.3488,-379 2131.3488,-345.4397 2144.0724,-308.0899 2152.9472,-286.12"/>
<polygon fill="#191970" stroke="#191970" points="2156.2774,-287.2294 2156.9222,-276.6542 2149.8233,-284.5191 2156.2774,-287.2294"/>
</g>
<!-- Node52 -->
<g id="node52" class="node">
<title>Node52</title>
<g id="a_node52"><a xlink:href="_s_b_m_l_extension_registry_8h.html" target="_top" xlink:title="The registry class for tracking package extensions. ">
<polygon fill="#ffffff" stroke="#000000" points="981.8488,-850.5 981.8488,-880.5 1138.8488,-880.5 1138.8488,-850.5 981.8488,-850.5"/>
<text text-anchor="start" x="989.8488" y="-868.5" font-family="Helvetica,sans-Serif" font-size="10.00" fill="#000000">sbml/extension/SBMLExtension</text>
<text text-anchor="middle" x="1060.3488" y="-857.5" font-family="Helvetica,sans-Serif" font-size="10.00" fill="#000000">Registry.h</text>
</a>
</g>
</g>
<!-- Node51&#45;&gt;Node52 -->
<g id="edge143" class="edge">
<title>Node51&#45;&gt;Node52</title>
<path fill="none" stroke="#191970" d="M2064.7743,-931.0871C1897.8356,-927.4916 1495.6482,-915.6787 1160.3488,-881 1156.6353,-880.6159 1152.8493,-880.1888 1149.0284,-879.7285"/>
<polygon fill="#191970" stroke="#191970" points="1149.2193,-876.2247 1138.8585,-878.439 1148.3387,-883.1691 1149.2193,-876.2247"/>
</g>
<!-- Node53 -->
<g id="node53" class="node">
<title>Node53</title>
<g id="a_node53"><a xlink:href="_s_b_m_l_extension_exception_8h.html" target="_top" xlink:title="Class of exceptions thrown in some situations. ">
<polygon fill="#ffffff" stroke="#000000" points="2302.8488,-783.5 2302.8488,-813.5 2459.8488,-813.5 2459.8488,-783.5 2302.8488,-783.5"/>
<text text-anchor="start" x="2310.8488" y="-801.5" font-family="Helvetica,sans-Serif" font-size="10.00" fill="#000000">sbml/extension/SBMLExtension</text>
<text text-anchor="middle" x="2381.3488" y="-790.5" font-family="Helvetica,sans-Serif" font-size="10.00" fill="#000000">Exception.h</text>
</a>
</g>
</g>
<!-- Node51&#45;&gt;Node53 -->
<g id="edge146" class="edge">
<title>Node51&#45;&gt;Node53</title>
<path fill="none" stroke="#191970" d="M2201.3685,-917.4962C2228.8359,-909.017 2261.4359,-896.8939 2288.3488,-881 2316.1555,-864.5781 2343.2273,-839.1699 2360.9242,-820.8896"/>
<polygon fill="#191970" stroke="#191970" points="2363.5581,-823.1987 2367.9094,-813.5386 2358.4838,-818.3768 2363.5581,-823.1987"/>
</g>
<!-- Node54 -->
<g id="node54" class="node">
<title>Node54</title>
<g id="a_node54"><a xlink:href="_i_s_b_m_l_extension_namespaces_8h.html" target="_top" xlink:title="sbml/extension/ISBMLExtension\lNamespaces.h">
<polygon fill="#ffffff" stroke="#000000" points="2009.3488,-850.5 2009.3488,-880.5 2169.3488,-880.5 2169.3488,-850.5 2009.3488,-850.5"/>
<text text-anchor="start" x="2017.3488" y="-868.5" font-family="Helvetica,sans-Serif" font-size="10.00" fill="#000000">sbml/extension/ISBMLExtension</text>
<text text-anchor="middle" x="2089.3488" y="-857.5" font-family="Helvetica,sans-Serif" font-size="10.00" fill="#000000">Namespaces.h</text>
</a>
</g>
</g>
<!-- Node51&#45;&gt;Node54 -->
<g id="edge148" class="edge">
<title>Node51&#45;&gt;Node54</title>
<path fill="none" stroke="#191970" d="M2131.0953,-917.2967C2124.2601,-908.816 2115.6061,-898.0785 2107.9519,-888.5817"/>
<polygon fill="#191970" stroke="#191970" points="2110.5541,-886.2328 2101.5537,-880.6432 2105.1039,-890.6255 2110.5541,-886.2328"/>
</g>
<!-- Node52&#45;&gt;Node44 -->
<g id="edge144" class="edge">
<title>Node52&#45;&gt;Node44</title>
<path fill="none" stroke="#191970" d="M1031.6231,-850.4639C1010.1463,-839.2222 980.9625,-823.9463 959.7993,-812.8686"/>
<polygon fill="#191970" stroke="#191970" points="961.1794,-809.6406 950.6966,-808.1039 957.9331,-815.8423 961.1794,-809.6406"/>
</g>
<!-- Node52&#45;&gt;Node47 -->
<g id="edge145" class="edge">
<title>Node52&#45;&gt;Node47</title>
<path fill="none" stroke="#191970" d="M1060.3488,-850.389C1060.3488,-826.0735 1060.3488,-778.2644 1060.3488,-751.2698"/>
<polygon fill="#191970" stroke="#191970" points="1063.8489,-751.1041 1060.3488,-741.1042 1056.8489,-751.1042 1063.8489,-751.1041"/>
</g>
<!-- Node53&#45;&gt;Node16 -->
<g id="edge147" class="edge">
<title>Node53&#45;&gt;Node16</title>
<path fill="none" stroke="#191970" d="M2381.3488,-783.2271C2381.3488,-758.3518 2381.3488,-707.5382 2381.3488,-664.5 2381.3488,-664.5 2381.3488,-664.5 2381.3488,-547 2381.3488,-436.1443 2246.4138,-483.4322 2188.3488,-389 2168.6418,-356.9502 2163.2446,-312.3301 2161.813,-286.8828"/>
<polygon fill="#191970" stroke="#191970" points="2165.3006,-286.5036 2161.3972,-276.654 2158.3064,-286.788 2165.3006,-286.5036"/>
</g>
<!-- Node55&#45;&gt;Node44 -->
<g id="edge150" class="edge">
<title>Node55&#45;&gt;Node44</title>
<path fill="none" stroke="#191970" d="M1005.5737,-917.3492C995.4284,-907.6196 982.6928,-894.3444 973.3488,-881 959.218,-860.8195 947.2487,-835.0566 939.9556,-817.7348"/>
<polygon fill="#191970" stroke="#191970" points="943.0669,-816.0962 936.0414,-808.1657 936.588,-818.7465 943.0669,-816.0962"/>
</g>
<!-- Node55&#45;&gt;Node52 -->
<g id="edge151" class="edge">
<title>Node55&#45;&gt;Node52</title>
<path fill="none" stroke="#191970" d="M1030.9716,-917.2967C1035.6358,-909.0729 1041.5035,-898.7272 1046.7661,-889.4483"/>
<polygon fill="#191970" stroke="#191970" points="1049.8711,-891.0683 1051.7601,-880.6432 1043.7822,-887.6148 1049.8711,-891.0683"/>
</g>
</g>
</svg>
