<?xml version="1.0" encoding="UTF-8" standalone="no"?>
<!DOCTYPE svg PUBLIC "-//W3C//DTD SVG 1.1//EN"
 "http://www.w3.org/Graphics/SVG/1.1/DTD/svg11.dtd">
<!-- Generated by graphviz version 2.40.1 (20161225.0304)
 -->
<!-- Title: ListOfLineEndings.h Pages: 1 -->
<svg width="1397pt" height="196pt"
 viewBox="0.00 0.00 1396.50 196.00" xmlns="http://www.w3.org/2000/svg" xmlns:xlink="http://www.w3.org/1999/xlink">
<g id="graph0" class="graph" transform="scale(1 1) rotate(0) translate(4 192)">
<title>ListOfLineEndings.h</title>
<polygon fill="#ffffff" stroke="transparent" points="-4,4 -4,-192 1392.5,-192 1392.5,4 -4,4"/>
<!-- Node1 -->
<g id="node1" class="node">
<title>Node1</title>
<polygon fill="#bfbfbf" stroke="#000000" points="777,-168.5 777,-187.5 883,-187.5 883,-168.5 777,-168.5"/>
<text text-anchor="middle" x="830" y="-175.5" font-family="Helvetica,sans-Serif" font-size="10.00" fill="#000000">ListOfLineEndings.h</text>
</g>
<!-- Node2 -->
<g id="node2" class="node">
<title>Node2</title>
<g id="a_node2"><a xlink:href="_render_extension_types_8h.html" target="_top" xlink:title="Definition of RenderExtensionTypes. ">
<polygon fill="#ffffff" stroke="#000000" points="231.5,-112.5 231.5,-131.5 360.5,-131.5 360.5,-112.5 231.5,-112.5"/>
<text text-anchor="middle" x="296" y="-119.5" font-family="Helvetica,sans-Serif" font-size="10.00" fill="#000000">RenderExtensionTypes.h</text>
</a>
</g>
</g>
<!-- Node1&#45;&gt;Node2 -->
<g id="edge1" class="edge">
<title>Node1&#45;&gt;Node2</title>
<path fill="none" stroke="#191970" d="M766.638,-172.3639C677.8644,-164.308 511.4652,-148.6267 370,-132 366.9099,-131.6368 363.7488,-131.2538 360.5572,-130.858"/>
<polygon fill="#191970" stroke="#191970" points="766.5365,-175.8689 776.8113,-173.2845 767.1674,-168.8974 766.5365,-175.8689"/>
</g>
<!-- Node9 -->
<g id="node9" class="node">
<title>Node9</title>
<g id="a_node9"><a xlink:href="_graphical_primitive1_d_8cpp.html" target="_top" xlink:title="abstract base class for graphical 1D objects ">
<polygon fill="#ffffff" stroke="#000000" points="378.5,-112.5 378.5,-131.5 507.5,-131.5 507.5,-112.5 378.5,-112.5"/>
<text text-anchor="middle" x="443" y="-119.5" font-family="Helvetica,sans-Serif" font-size="10.00" fill="#000000">GraphicalPrimitive1D.cpp</text>
</a>
</g>
</g>
<!-- Node1&#45;&gt;Node9 -->
<g id="edge10" class="edge">
<title>Node1&#45;&gt;Node9</title>
<path fill="none" stroke="#191970" d="M766.3863,-168.7949C694.9624,-158.4597 579.6769,-141.7775 507.7798,-131.3738"/>
<polygon fill="#191970" stroke="#191970" points="766.1974,-172.304 776.5956,-170.2722 767.2,-165.3761 766.1974,-172.304"/>
</g>
<!-- Node10 -->
<g id="node10" class="node">
<title>Node10</title>
<g id="a_node10"><a xlink:href="_graphical_primitive2_d_8cpp.html" target="_top" xlink:title="Implementation of the GraphicalPrimitive2D_t class. ">
<polygon fill="#ffffff" stroke="#000000" points="525.5,-112.5 525.5,-131.5 654.5,-131.5 654.5,-112.5 525.5,-112.5"/>
<text text-anchor="middle" x="590" y="-119.5" font-family="Helvetica,sans-Serif" font-size="10.00" fill="#000000">GraphicalPrimitive2D.cpp</text>
</a>
</g>
</g>
<!-- Node1&#45;&gt;Node10 -->
<g id="edge11" class="edge">
<title>Node1&#45;&gt;Node10</title>
<path fill="none" stroke="#191970" d="M779.0534,-166.1125C734.866,-155.8021 671.7426,-141.0733 630.8157,-131.5237"/>
<polygon fill="#191970" stroke="#191970" points="778.4815,-169.573 789.0152,-168.4369 780.0721,-162.7561 778.4815,-169.573"/>
</g>
<!-- Node11 -->
<g id="node11" class="node">
<title>Node11</title>
<g id="a_node11"><a xlink:href="_line_ending_8cpp.html" target="_top" xlink:title="class representing line endings,e.g. ">
<polygon fill="#ffffff" stroke="#000000" points="672.5,-112.5 672.5,-131.5 757.5,-131.5 757.5,-112.5 672.5,-112.5"/>
<text text-anchor="middle" x="715" y="-119.5" font-family="Helvetica,sans-Serif" font-size="10.00" fill="#000000">LineEnding.cpp</text>
</a>
</g>
</g>
<!-- Node1&#45;&gt;Node11 -->
<g id="edge12" class="edge">
<title>Node1&#45;&gt;Node11</title>
<path fill="none" stroke="#191970" d="M801.1967,-163.9741C780.375,-153.8348 752.8022,-140.408 734.5112,-131.5011"/>
<polygon fill="#191970" stroke="#191970" points="799.7078,-167.1419 810.2308,-168.3733 802.7724,-160.8484 799.7078,-167.1419"/>
</g>
<!-- Node12 -->
<g id="node12" class="node">
<title>Node12</title>
<g id="a_node12"><a xlink:href="_list_of_drawables_8cpp.html" target="_top" xlink:title="Implementation of the ListOfDrawables_t class. ">
<polygon fill="#ffffff" stroke="#000000" points="775.5,-112.5 775.5,-131.5 884.5,-131.5 884.5,-112.5 775.5,-112.5"/>
<text text-anchor="middle" x="830" y="-119.5" font-family="Helvetica,sans-Serif" font-size="10.00" fill="#000000">ListOfDrawables.cpp</text>
</a>
</g>
</g>
<!-- Node1&#45;&gt;Node12 -->
<g id="edge13" class="edge">
<title>Node1&#45;&gt;Node12</title>
<path fill="none" stroke="#191970" d="M830,-158.1575C830,-149.155 830,-138.9199 830,-131.6427"/>
<polygon fill="#191970" stroke="#191970" points="826.5001,-158.2455 830,-168.2455 833.5001,-158.2456 826.5001,-158.2455"/>
</g>
<!-- Node13 -->
<g id="node13" class="node">
<title>Node13</title>
<g id="a_node13"><a xlink:href="_list_of_line_endings_8cpp.html" target="_top" xlink:title="Implementation of the ListOfLineEndings_t class. ">
<polygon fill="#ffffff" stroke="#000000" points="902.5,-112.5 902.5,-131.5 1019.5,-131.5 1019.5,-112.5 902.5,-112.5"/>
<text text-anchor="middle" x="961" y="-119.5" font-family="Helvetica,sans-Serif" font-size="10.00" fill="#000000">ListOfLineEndings.cpp</text>
</a>
</g>
</g>
<!-- Node1&#45;&gt;Node13 -->
<g id="edge14" class="edge">
<title>Node1&#45;&gt;Node13</title>
<path fill="none" stroke="#191970" d="M861.8534,-164.3833C885.6785,-154.1985 917.6568,-140.5284 938.7742,-131.5011"/>
<polygon fill="#191970" stroke="#191970" points="860.339,-161.2242 852.5197,-168.3733 863.0906,-167.6608 860.339,-161.2242"/>
</g>
<!-- Node14 -->
<g id="node14" class="node">
<title>Node14</title>
<g id="a_node14"><a xlink:href="_render_group_8cpp.html" target="_top" xlink:title="Implementation of the RenderGroup_t class. ">
<polygon fill="#ffffff" stroke="#000000" points="1038,-112.5 1038,-131.5 1134,-131.5 1134,-112.5 1038,-112.5"/>
<text text-anchor="middle" x="1086" y="-119.5" font-family="Helvetica,sans-Serif" font-size="10.00" fill="#000000">RenderGroup.cpp</text>
</a>
</g>
</g>
<!-- Node1&#45;&gt;Node14 -->
<g id="edge15" class="edge">
<title>Node1&#45;&gt;Node14</title>
<path fill="none" stroke="#191970" d="M883.7487,-166.2425C930.9089,-155.9262 998.6241,-141.1135 1042.4632,-131.5237"/>
<polygon fill="#191970" stroke="#191970" points="882.7381,-162.8807 873.7171,-168.4369 884.2341,-169.719 882.7381,-162.8807"/>
</g>
<!-- Node15 -->
<g id="node15" class="node">
<title>Node15</title>
<g id="a_node15"><a xlink:href="_transformation_8cpp.html" target="_top" xlink:title="class representing a 3D affine transformation ">
<polygon fill="#ffffff" stroke="#000000" points="1152.5,-112.5 1152.5,-131.5 1255.5,-131.5 1255.5,-112.5 1152.5,-112.5"/>
<text text-anchor="middle" x="1204" y="-119.5" font-family="Helvetica,sans-Serif" font-size="10.00" fill="#000000">Transformation.cpp</text>
</a>
</g>
</g>
<!-- Node1&#45;&gt;Node15 -->
<g id="edge16" class="edge">
<title>Node1&#45;&gt;Node15</title>
<path fill="none" stroke="#191970" d="M893.4231,-168.9934C956.6875,-159.9352 1056.6308,-145.4251 1143,-132 1146.0752,-131.522 1149.2365,-131.0239 1152.4249,-130.5166"/>
<polygon fill="#191970" stroke="#191970" points="892.6107,-165.5738 883.207,-170.4543 893.6018,-172.5033 892.6107,-165.5738"/>
</g>
<!-- Node16 -->
<g id="node16" class="node">
<title>Node16</title>
<g id="a_node16"><a xlink:href="_transformation2_d_8cpp.html" target="_top" xlink:title="class representing a 2D affine transformation ">
<polygon fill="#ffffff" stroke="#000000" points="1273.5,-112.5 1273.5,-131.5 1388.5,-131.5 1388.5,-112.5 1273.5,-112.5"/>
<text text-anchor="middle" x="1331" y="-119.5" font-family="Helvetica,sans-Serif" font-size="10.00" fill="#000000">Transformation2D.cpp</text>
</a>
</g>
</g>
<!-- Node1&#45;&gt;Node16 -->
<g id="edge17" class="edge">
<title>Node1&#45;&gt;Node16</title>
<path fill="none" stroke="#191970" d="M893.3101,-172.2062C978.0795,-164.2427 1133.088,-148.9593 1265,-132 1267.7587,-131.6453 1270.5802,-131.2693 1273.4285,-130.8789"/>
<polygon fill="#191970" stroke="#191970" points="892.9571,-168.7239 883.3268,-173.1407 893.6095,-175.6934 892.9571,-168.7239"/>
</g>
<!-- Node3 -->
<g id="node3" class="node">
<title>Node3</title>
<g id="a_node3"><a xlink:href="_render_layout_plugin_8cpp.html" target="_top" xlink:title="Implementation of RenderLayoutPlugin_t, the plugin class of the fbc package for the Model_t element...">
<polygon fill="#ffffff" stroke="#000000" points="0,-.5 0,-19.5 126,-19.5 126,-.5 0,-.5"/>
<text text-anchor="middle" x="63" y="-7.5" font-family="Helvetica,sans-Serif" font-size="10.00" fill="#000000">RenderLayoutPlugin.cpp</text>
</a>
</g>
</g>
<!-- Node2&#45;&gt;Node3 -->
<g id="edge2" class="edge">
<title>Node2&#45;&gt;Node3</title>
<path fill="none" stroke="#191970" d="M221.1904,-114.1121C167.8231,-107.0078 102.0928,-94.7602 82,-76 66.138,-61.19 63.2266,-34.0795 62.8688,-19.6436"/>
<polygon fill="#191970" stroke="#191970" points="220.9735,-117.613 231.3393,-115.422 221.8696,-110.6706 220.9735,-117.613"/>
</g>
<!-- Node4 -->
<g id="node4" class="node">
<title>Node4</title>
<g id="a_node4"><a xlink:href="_render_layout_converter_8cpp.html" target="_top" xlink:title="Simple converter to convert Layout_t + Render from l2 to L3 and vice versa. ">
<polygon fill="#ffffff" stroke="#000000" points="91,-56.5 91,-75.5 233,-75.5 233,-56.5 91,-56.5"/>
<text text-anchor="middle" x="162" y="-63.5" font-family="Helvetica,sans-Serif" font-size="10.00" fill="#000000">RenderLayoutConverter.cpp</text>
</a>
</g>
</g>
<!-- Node2&#45;&gt;Node4 -->
<g id="edge3" class="edge">
<title>Node2&#45;&gt;Node4</title>
<path fill="none" stroke="#191970" d="M263.4172,-108.3833C239.0464,-98.1985 206.3358,-84.5284 184.7348,-75.5011"/>
<polygon fill="#191970" stroke="#191970" points="262.3883,-111.7466 272.9646,-112.3733 265.0875,-105.2879 262.3883,-111.7466"/>
</g>
<!-- Node5 -->
<g id="node5" class="node">
<title>Node5</title>
<g id="a_node5"><a xlink:href="_render_utilities_8cpp.html" target="_top" xlink:title="implementation of RenderUtilities, a class of utility functions for the render package ...">
<polygon fill="#ffffff" stroke="#000000" points="320,-.5 320,-19.5 420,-19.5 420,-.5 320,-.5"/>
<text text-anchor="middle" x="370" y="-7.5" font-family="Helvetica,sans-Serif" font-size="10.00" fill="#000000">RenderUtilities.cpp</text>
</a>
</g>
</g>
<!-- Node2&#45;&gt;Node5 -->
<g id="edge4" class="edge">
<title>Node2&#45;&gt;Node5</title>
<path fill="none" stroke="#191970" d="M319.5506,-106.6593C330.1937,-98.6592 342.1215,-88.0322 350,-76 361.6745,-58.1704 366.7834,-33.2268 368.8128,-19.6819"/>
<polygon fill="#191970" stroke="#191970" points="317.4939,-103.8271 311.3922,-112.4886 321.5635,-109.5226 317.4939,-103.8271"/>
</g>
<!-- Node6 -->
<g id="node6" class="node">
<title>Node6</title>
<g id="a_node6"><a xlink:href="_render_utilities_8h.html" target="_top" xlink:title="Definition of RenderUtilities, a class of utility functions for the render package. ">
<polygon fill="#ffffff" stroke="#000000" points="251,-56.5 251,-75.5 341,-75.5 341,-56.5 251,-56.5"/>
<text text-anchor="middle" x="296" y="-63.5" font-family="Helvetica,sans-Serif" font-size="10.00" fill="#000000">RenderUtilities.h</text>
</a>
</g>
</g>
<!-- Node2&#45;&gt;Node6 -->
<g id="edge5" class="edge">
<title>Node2&#45;&gt;Node6</title>
<path fill="none" stroke="#191970" d="M296,-102.1575C296,-93.155 296,-82.9199 296,-75.6427"/>
<polygon fill="#191970" stroke="#191970" points="292.5001,-102.2455 296,-112.2455 299.5001,-102.2456 292.5001,-102.2455"/>
</g>
<!-- Node8 -->
<g id="node8" class="node">
<title>Node8</title>
<g id="a_node8"><a xlink:href="_render_validator_8cpp.html" target="_top" xlink:title="Definition of RenderValidator_t. ">
<polygon fill="#ffffff" stroke="#000000" points="397,-56.5 397,-75.5 505,-75.5 505,-56.5 397,-56.5"/>
<text text-anchor="middle" x="451" y="-63.5" font-family="Helvetica,sans-Serif" font-size="10.00" fill="#000000">RenderValidator.cpp</text>
</a>
</g>
</g>
<!-- Node2&#45;&gt;Node8 -->
<g id="edge9" class="edge">
<title>Node2&#45;&gt;Node8</title>
<path fill="none" stroke="#191970" d="M332.1949,-108.9231C360.5297,-98.686 399.2718,-84.6889 424.7022,-75.5011"/>
<polygon fill="#191970" stroke="#191970" points="330.8612,-105.6835 322.6454,-112.3733 333.2398,-112.267 330.8612,-105.6835"/>
</g>
<!-- Node6&#45;&gt;Node3 -->
<g id="edge6" class="edge">
<title>Node6&#45;&gt;Node3</title>
<path fill="none" stroke="#191970" d="M246.2682,-54.0473C203.3828,-43.7401 142.2748,-29.0532 102.6253,-19.5237"/>
<polygon fill="#191970" stroke="#191970" points="245.6696,-57.503 256.2106,-56.4369 247.3054,-50.6968 245.6696,-57.503"/>
</g>
<!-- Node6&#45;&gt;Node5 -->
<g id="edge8" class="edge">
<title>Node6&#45;&gt;Node5</title>
<path fill="none" stroke="#191970" d="M316.8657,-50.2097C329.8625,-40.3743 346.1622,-28.0394 357.2579,-19.6427"/>
<polygon fill="#191970" stroke="#191970" points="314.7518,-47.4201 308.8898,-56.2455 318.976,-53.002 314.7518,-47.4201"/>
</g>
<!-- Node7 -->
<g id="node7" class="node">
<title>Node7</title>
<g id="a_node7"><a xlink:href="_render_list_of_layouts_plugin_8cpp.html" target="_top" xlink:title="Implementation of RenderListOfLayoutsPlugin_t, the plugin class of the fbc package for the Model_t el...">
<polygon fill="#ffffff" stroke="#000000" points="144.5,-.5 144.5,-19.5 301.5,-19.5 301.5,-.5 144.5,-.5"/>
<text text-anchor="middle" x="223" y="-7.5" font-family="Helvetica,sans-Serif" font-size="10.00" fill="#000000">RenderListOfLayoutsPlugin.cpp</text>
</a>
</g>
</g>
<!-- Node6&#45;&gt;Node7 -->
<g id="edge7" class="edge">
<title>Node6&#45;&gt;Node7</title>
<path fill="none" stroke="#191970" d="M275.049,-49.928C262.2893,-40.1397 246.4115,-27.9595 235.5699,-19.6427"/>
<polygon fill="#191970" stroke="#191970" points="273.2197,-52.9359 283.2844,-56.2455 277.4804,-47.3819 273.2197,-52.9359"/>
</g>
</g>
</svg>
