<?xml version="1.0" encoding="UTF-8" standalone="no"?>
<!DOCTYPE svg PUBLIC "-//W3C//DTD SVG 1.1//EN"
 "http://www.w3.org/Graphics/SVG/1.1/DTD/svg11.dtd">
<!-- Generated by graphviz version 2.40.1 (20161225.0304)
 -->
<!-- Title: LocalStyle.h Pages: 1 -->
<!--zoomable 252 -->
<svg id="main" version="1.1" xmlns="http://www.w3.org/2000/svg" xmlns:xlink="http://www.w3.org/1999/xlink" xml:space="preserve" onload="init(evt)">
<style type="text/css"><![CDATA[
.edge:hover path { stroke: red; }
.edge:hover polygon { stroke: red; fill: red; }
]]></style>
<script type="text/javascript"><![CDATA[
var edges = document.getElementsByTagName('g');
if (edges && edges.length) {
  for (var i=0;i<edges.length;i++) {
    if (edges[i].id.substr(0,4)=='edge') {
      edges[i].setAttribute('class','edge');
    }
  }
}
]]></script>
        <defs>
                <circle id="rim" cx="0" cy="0" r="7"/>
                <circle id="rim2" cx="0" cy="0" r="3.5"/>
                <g id="zoomPlus">
                        <use xlink:href="#rim" fill="#404040">
                                <set attributeName="fill" to="#808080" begin="zoomplus.mouseover" end="zoomplus.mouseout"/>
                        </use>
                        <path d="M-4,0h8M0,-4v8" fill="none" stroke="white" stroke-width="1.5" pointer-events="none"/>
                </g>
                <g id="zoomMin">
                        <use xlink:href="#rim" fill="#404040">
                                <set attributeName="fill" to="#808080" begin="zoomminus.mouseover" end="zoomminus.mouseout"/>
                        </use>
                        <path d="M-4,0h8" fill="none" stroke="white" stroke-width="1.5" pointer-events="none"/>
                </g>
                <g id="dirArrow">
                        <path fill="none" stroke="white" stroke-width="1.5" d="M0,-3.0v7 M-2.5,-0.5L0,-3.0L2.5,-0.5"/>
                </g>
               <g id="resetDef">
                       <use xlink:href="#rim2" fill="#404040">
                               <set attributeName="fill" to="#808080" begin="reset.mouseover" end="reset.mouseout"/>
                       </use>
               </g>
        </defs>

<script type="text/javascript">
var viewWidth = 688;
var viewHeight = 252;
var sectionId = 'dynsection-1';
</script>
<script xlink:href="svgpan.js"/>
<svg id="graph" class="graph">
<g id="viewport">
<title>LocalStyle.h</title>
<polygon fill="#ffffff" stroke="transparent" points="-4,4 -4,-248 684,-248 684,4 -4,4"/>
<!-- Node1 -->
<g id="node1" class="node">
<title>Node1</title>
<polygon fill="#bfbfbf" stroke="#000000" points="460.5,-224.5 460.5,-243.5 531.5,-243.5 531.5,-224.5 460.5,-224.5"/>
<text text-anchor="middle" x="496" y="-231.5" font-family="Helvetica,sans-Serif" font-size="10.00" fill="#000000">LocalStyle.h</text>
</g>
<!-- Node2 -->
<g id="node2" class="node">
<title>Node2</title>
<g id="a_node2"><a xlink:href="_render_extension_types_8h.html" target="_top" xlink:title="Definition of RenderExtensionTypes. ">
<polygon fill="#ffffff" stroke="#000000" points="231.5,-112.5 231.5,-131.5 360.5,-131.5 360.5,-112.5 231.5,-112.5"/>
<text text-anchor="middle" x="296" y="-119.5" font-family="Helvetica,sans-Serif" font-size="10.00" fill="#000000">RenderExtensionTypes.h</text>
</a>
</g>
</g>
<!-- Node1&#45;&gt;Node2 -->
<g id="edge1" class="edge">
<title>Node1&#45;&gt;Node2</title>
<path fill="none" stroke="#191970" d="M450.5449,-224.6259C422.638,-217.4886 387.003,-205.803 359,-188 334.9381,-172.7026 313.567,-146.2878 302.9986,-131.9522"/>
<polygon fill="#191970" stroke="#191970" points="449.9026,-228.072 460.4482,-227.0526 451.5686,-221.2731 449.9026,-228.072"/>
</g>
<!-- Node9 -->
<g id="node9" class="node">
<title>Node9</title>
<g id="a_node9"><a xlink:href="_local_render_information_8h.html" target="_top" xlink:title="Definition of the LocalRenderInformation_t class. ">
<polygon fill="#ffffff" stroke="#000000" points="368,-168.5 368,-187.5 500,-187.5 500,-168.5 368,-168.5"/>
<text text-anchor="middle" x="434" y="-175.5" font-family="Helvetica,sans-Serif" font-size="10.00" fill="#000000">LocalRenderInformation.h</text>
</a>
</g>
</g>
<!-- Node1&#45;&gt;Node9 -->
<g id="edge10" class="edge">
<title>Node1&#45;&gt;Node9</title>
<path fill="none" stroke="#191970" d="M477.5779,-217.3607C466.8519,-207.6727 453.7066,-195.7995 444.6758,-187.6427"/>
<polygon fill="#191970" stroke="#191970" points="475.4334,-220.14 485.2004,-224.2455 480.1254,-214.9453 475.4334,-220.14"/>
</g>
<!-- Node12 -->
<g id="node12" class="node">
<title>Node12</title>
<g id="a_node12"><a xlink:href="_local_style_8cpp.html" target="_top" xlink:title="class for representing a local style ">
<polygon fill="#ffffff" stroke="#000000" points="518,-168.5 518,-187.5 600,-187.5 600,-168.5 518,-168.5"/>
<text text-anchor="middle" x="559" y="-175.5" font-family="Helvetica,sans-Serif" font-size="10.00" fill="#000000">LocalStyle.cpp</text>
</a>
</g>
</g>
<!-- Node1&#45;&gt;Node12 -->
<g id="edge14" class="edge">
<title>Node1&#45;&gt;Node12</title>
<path fill="none" stroke="#191970" d="M514.7192,-217.3607C525.6182,-207.6727 538.9755,-195.7995 548.152,-187.6427"/>
<polygon fill="#191970" stroke="#191970" points="512.1226,-214.9859 506.9738,-224.2455 516.7732,-220.2178 512.1226,-214.9859"/>
</g>
<!-- Node13 -->
<g id="node13" class="node">
<title>Node13</title>
<g id="a_node13"><a xlink:href="_style_8cpp.html" target="_top" xlink:title="Implementation of the Style_t class. ">
<polygon fill="#ffffff" stroke="#000000" points="618,-168.5 618,-187.5 676,-187.5 676,-168.5 618,-168.5"/>
<text text-anchor="middle" x="647" y="-175.5" font-family="Helvetica,sans-Serif" font-size="10.00" fill="#000000">Style.cpp</text>
</a>
</g>
</g>
<!-- Node1&#45;&gt;Node13 -->
<g id="edge15" class="edge">
<title>Node1&#45;&gt;Node13</title>
<path fill="none" stroke="#191970" d="M531.623,-220.7888C559.1938,-210.5639 596.7149,-196.6488 621.3809,-187.5011"/>
<polygon fill="#191970" stroke="#191970" points="530.1168,-217.6144 521.9578,-224.3733 532.5509,-224.1776 530.1168,-217.6144"/>
</g>
<!-- Node3 -->
<g id="node3" class="node">
<title>Node3</title>
<g id="a_node3"><a xlink:href="_render_layout_plugin_8cpp.html" target="_top" xlink:title="Implementation of RenderLayoutPlugin_t, the plugin class of the fbc package for the Model_t element...">
<polygon fill="#ffffff" stroke="#000000" points="0,-.5 0,-19.5 126,-19.5 126,-.5 0,-.5"/>
<text text-anchor="middle" x="63" y="-7.5" font-family="Helvetica,sans-Serif" font-size="10.00" fill="#000000">RenderLayoutPlugin.cpp</text>
</a>
</g>
</g>
<!-- Node2&#45;&gt;Node3 -->
<g id="edge2" class="edge">
<title>Node2&#45;&gt;Node3</title>
<path fill="none" stroke="#191970" d="M221.1904,-114.1121C167.8231,-107.0078 102.0928,-94.7602 82,-76 66.138,-61.19 63.2266,-34.0795 62.8688,-19.6436"/>
<polygon fill="#191970" stroke="#191970" points="220.9735,-117.613 231.3393,-115.422 221.8696,-110.6706 220.9735,-117.613"/>
</g>
<!-- Node4 -->
<g id="node4" class="node">
<title>Node4</title>
<g id="a_node4"><a xlink:href="_render_layout_converter_8cpp.html" target="_top" xlink:title="Simple converter to convert Layout_t + Render from l2 to L3 and vice versa. ">
<polygon fill="#ffffff" stroke="#000000" points="91,-56.5 91,-75.5 233,-75.5 233,-56.5 91,-56.5"/>
<text text-anchor="middle" x="162" y="-63.5" font-family="Helvetica,sans-Serif" font-size="10.00" fill="#000000">RenderLayoutConverter.cpp</text>
</a>
</g>
</g>
<!-- Node2&#45;&gt;Node4 -->
<g id="edge3" class="edge">
<title>Node2&#45;&gt;Node4</title>
<path fill="none" stroke="#191970" d="M263.4172,-108.3833C239.0464,-98.1985 206.3358,-84.5284 184.7348,-75.5011"/>
<polygon fill="#191970" stroke="#191970" points="262.3883,-111.7466 272.9646,-112.3733 265.0875,-105.2879 262.3883,-111.7466"/>
</g>
<!-- Node5 -->
<g id="node5" class="node">
<title>Node5</title>
<g id="a_node5"><a xlink:href="_render_utilities_8cpp.html" target="_top" xlink:title="implementation of RenderUtilities, a class of utility functions for the render package ...">
<polygon fill="#ffffff" stroke="#000000" points="320,-.5 320,-19.5 420,-19.5 420,-.5 320,-.5"/>
<text text-anchor="middle" x="370" y="-7.5" font-family="Helvetica,sans-Serif" font-size="10.00" fill="#000000">RenderUtilities.cpp</text>
</a>
</g>
</g>
<!-- Node2&#45;&gt;Node5 -->
<g id="edge4" class="edge">
<title>Node2&#45;&gt;Node5</title>
<path fill="none" stroke="#191970" d="M319.5506,-106.6593C330.1937,-98.6592 342.1215,-88.0322 350,-76 361.6745,-58.1704 366.7834,-33.2268 368.8128,-19.6819"/>
<polygon fill="#191970" stroke="#191970" points="317.4939,-103.8271 311.3922,-112.4886 321.5635,-109.5226 317.4939,-103.8271"/>
</g>
<!-- Node6 -->
<g id="node6" class="node">
<title>Node6</title>
<g id="a_node6"><a xlink:href="_render_utilities_8h.html" target="_top" xlink:title="Definition of RenderUtilities, a class of utility functions for the render package. ">
<polygon fill="#ffffff" stroke="#000000" points="251,-56.5 251,-75.5 341,-75.5 341,-56.5 251,-56.5"/>
<text text-anchor="middle" x="296" y="-63.5" font-family="Helvetica,sans-Serif" font-size="10.00" fill="#000000">RenderUtilities.h</text>
</a>
</g>
</g>
<!-- Node2&#45;&gt;Node6 -->
<g id="edge5" class="edge">
<title>Node2&#45;&gt;Node6</title>
<path fill="none" stroke="#191970" d="M296,-102.1575C296,-93.155 296,-82.9199 296,-75.6427"/>
<polygon fill="#191970" stroke="#191970" points="292.5001,-102.2455 296,-112.2455 299.5001,-102.2456 292.5001,-102.2455"/>
</g>
<!-- Node8 -->
<g id="node8" class="node">
<title>Node8</title>
<g id="a_node8"><a xlink:href="_render_validator_8cpp.html" target="_top" xlink:title="Definition of RenderValidator_t. ">
<polygon fill="#ffffff" stroke="#000000" points="397,-56.5 397,-75.5 505,-75.5 505,-56.5 397,-56.5"/>
<text text-anchor="middle" x="451" y="-63.5" font-family="Helvetica,sans-Serif" font-size="10.00" fill="#000000">RenderValidator.cpp</text>
</a>
</g>
</g>
<!-- Node2&#45;&gt;Node8 -->
<g id="edge9" class="edge">
<title>Node2&#45;&gt;Node8</title>
<path fill="none" stroke="#191970" d="M332.1949,-108.9231C360.5297,-98.686 399.2718,-84.6889 424.7022,-75.5011"/>
<polygon fill="#191970" stroke="#191970" points="330.8612,-105.6835 322.6454,-112.3733 333.2398,-112.267 330.8612,-105.6835"/>
</g>
<!-- Node6&#45;&gt;Node3 -->
<g id="edge6" class="edge">
<title>Node6&#45;&gt;Node3</title>
<path fill="none" stroke="#191970" d="M246.2682,-54.0473C203.3828,-43.7401 142.2748,-29.0532 102.6253,-19.5237"/>
<polygon fill="#191970" stroke="#191970" points="245.6696,-57.503 256.2106,-56.4369 247.3054,-50.6968 245.6696,-57.503"/>
</g>
<!-- Node6&#45;&gt;Node5 -->
<g id="edge8" class="edge">
<title>Node6&#45;&gt;Node5</title>
<path fill="none" stroke="#191970" d="M316.8657,-50.2097C329.8625,-40.3743 346.1622,-28.0394 357.2579,-19.6427"/>
<polygon fill="#191970" stroke="#191970" points="314.7518,-47.4201 308.8898,-56.2455 318.976,-53.002 314.7518,-47.4201"/>
</g>
<!-- Node7 -->
<g id="node7" class="node">
<title>Node7</title>
<g id="a_node7"><a xlink:href="_render_list_of_layouts_plugin_8cpp.html" target="_top" xlink:title="Implementation of RenderListOfLayoutsPlugin_t, the plugin class of the fbc package for the Model_t el...">
<polygon fill="#ffffff" stroke="#000000" points="144.5,-.5 144.5,-19.5 301.5,-19.5 301.5,-.5 144.5,-.5"/>
<text text-anchor="middle" x="223" y="-7.5" font-family="Helvetica,sans-Serif" font-size="10.00" fill="#000000">RenderListOfLayoutsPlugin.cpp</text>
</a>
</g>
</g>
<!-- Node6&#45;&gt;Node7 -->
<g id="edge7" class="edge">
<title>Node6&#45;&gt;Node7</title>
<path fill="none" stroke="#191970" d="M275.049,-49.928C262.2893,-40.1397 246.4115,-27.9595 235.5699,-19.6427"/>
<polygon fill="#191970" stroke="#191970" points="273.2197,-52.9359 283.2844,-56.2455 277.4804,-47.3819 273.2197,-52.9359"/>
</g>
<!-- Node9&#45;&gt;Node2 -->
<g id="edge11" class="edge">
<title>Node9&#45;&gt;Node2</title>
<path fill="none" stroke="#191970" d="M400.7787,-164.5189C375.646,-154.3201 341.7582,-140.5685 319.4135,-131.5011"/>
<polygon fill="#191970" stroke="#191970" points="399.6947,-167.8562 410.277,-168.3733 402.3269,-161.3699 399.6947,-167.8562"/>
</g>
<!-- Node10 -->
<g id="node10" class="node">
<title>Node10</title>
<g id="a_node10"><a xlink:href="_local_render_information_8cpp.html" target="_top" xlink:title="Implementation of the LocalRenderInformation_t class. ">
<polygon fill="#ffffff" stroke="#000000" points="538,-112.5 538,-131.5 680,-131.5 680,-112.5 538,-112.5"/>
<text text-anchor="middle" x="609" y="-119.5" font-family="Helvetica,sans-Serif" font-size="10.00" fill="#000000">LocalRenderInformation.cpp</text>
</a>
</g>
</g>
<!-- Node9&#45;&gt;Node10 -->
<g id="edge12" class="edge">
<title>Node9&#45;&gt;Node10</title>
<path fill="none" stroke="#191970" d="M473.614,-165.3235C505.7075,-155.0536 550.2211,-140.8093 579.309,-131.5011"/>
<polygon fill="#191970" stroke="#191970" points="472.5411,-161.9919 464.0836,-168.3733 474.6746,-168.6589 472.5411,-161.9919"/>
</g>
<!-- Node11 -->
<g id="node11" class="node">
<title>Node11</title>
<g id="a_node11"><a xlink:href="_render_information_base_8cpp.html" target="_top" xlink:title="Implementation of the RenderInformationBase_t class. ">
<polygon fill="#ffffff" stroke="#000000" points="378.5,-112.5 378.5,-131.5 519.5,-131.5 519.5,-112.5 378.5,-112.5"/>
<text text-anchor="middle" x="449" y="-119.5" font-family="Helvetica,sans-Serif" font-size="10.00" fill="#000000">RenderInformationBase.cpp</text>
</a>
</g>
</g>
<!-- Node9&#45;&gt;Node11 -->
<g id="edge13" class="edge">
<title>Node9&#45;&gt;Node11</title>
<path fill="none" stroke="#191970" d="M439.2356,-158.4538C441.666,-149.3803 444.4465,-138.9998 446.4171,-131.6427"/>
<polygon fill="#191970" stroke="#191970" points="435.8194,-157.6805 436.6128,-168.2455 442.5811,-159.4917 435.8194,-157.6805"/>
</g>
</g>
</svg>
        <g id="navigator" transform="translate(0 0)" fill="#404254">
                <rect fill="#f2f5e9" fill-opacity="0.5" stroke="#606060" stroke-width=".5" x="0" y="0" width="60" height="60"/>
                <use id="zoomplus" xlink:href="#zoomPlus" x="17" y="9" onmousedown="handleZoom(evt,'in')"/>
                <use id="zoomminus" xlink:href="#zoomMin" x="42" y="9" onmousedown="handleZoom(evt,'out')"/>
                <use id="reset" xlink:href="#resetDef" x="30" y="36" onmousedown="handleReset()"/>
                <g id="arrowUp" xlink:href="#dirArrow" transform="translate(30 24)" onmousedown="handlePan(0,-1)">
                  <use xlink:href="#rim" fill="#404040">
                        <set attributeName="fill" to="#808080" begin="arrowUp.mouseover" end="arrowUp.mouseout"/>
                  </use>
                  <path fill="none" stroke="white" stroke-width="1.5" d="M0,-3.0v7 M-2.5,-0.5L0,-3.0L2.5,-0.5"/>
                </g>
                <g id="arrowRight" xlink:href="#dirArrow" transform="rotate(90) translate(36 -43)" onmousedown="handlePan(1,0)">
                  <use xlink:href="#rim" fill="#404040">
                        <set attributeName="fill" to="#808080" begin="arrowRight.mouseover" end="arrowRight.mouseout"/>
                  </use>
                  <path fill="none" stroke="white" stroke-width="1.5" d="M0,-3.0v7 M-2.5,-0.5L0,-3.0L2.5,-0.5"/>
                </g>
                <g id="arrowDown" xlink:href="#dirArrow" transform="rotate(180) translate(-30 -48)" onmousedown="handlePan(0,1)">
                  <use xlink:href="#rim" fill="#404040">
                        <set attributeName="fill" to="#808080" begin="arrowDown.mouseover" end="arrowDown.mouseout"/>
                  </use>
                  <path fill="none" stroke="white" stroke-width="1.5" d="M0,-3.0v7 M-2.5,-0.5L0,-3.0L2.5,-0.5"/>
                </g>
                <g id="arrowLeft" xlink:href="#dirArrow" transform="rotate(270) translate(-36 17)" onmousedown="handlePan(-1,0)">
                  <use xlink:href="#rim" fill="#404040">
                        <set attributeName="fill" to="#808080" begin="arrowLeft.mouseover" end="arrowLeft.mouseout"/>
                  </use>
                  <path fill="none" stroke="white" stroke-width="1.5" d="M0,-3.0v7 M-2.5,-0.5L0,-3.0L2.5,-0.5"/>
                </g>
        </g>
        <svg viewBox="0 0 15 15" width="100%" height="30px" preserveAspectRatio="xMaxYMin meet">
         <g id="arrow_out" transform="scale(0.3 0.3)">
          <a xlink:href="_local_style_8h__dep__incl_org.svg" target="_base">
           <rect id="button" ry="5" rx="5" y="6" x="6" height="38" width="38"
                fill="#f2f5e9" fill-opacity="0.5" stroke="#606060" stroke-width="1.0"/>
           <path id="arrow"
             d="M 11.500037,31.436501 C 11.940474,20.09759 22.043105,11.32322 32.158766,21.979434 L 37.068811,17.246167 C 37.068811,17.246167 37.088388,32 37.088388,32 L 22.160133,31.978069 C 22.160133,31.978069 26.997745,27.140456 26.997745,27.140456 C 18.528582,18.264221 13.291696,25.230495 11.500037,31.436501 z"
             style="fill:#404040;"/>
          </a>
         </g>
        </svg>
</svg>
