<?xml version="1.0" encoding="UTF-8" standalone="no"?>
<!DOCTYPE svg PUBLIC "-//W3C//DTD SVG 1.1//EN"
 "http://www.w3.org/Graphics/SVG/1.1/DTD/svg11.dtd">
<!-- Generated by graphviz version 2.40.1 (20161225.0304)
 -->
<!-- Title: ModelDefinition.h Pages: 1 -->
<svg width="339pt" height="140pt"
 viewBox="0.00 0.00 339.00 140.00" xmlns="http://www.w3.org/2000/svg" xmlns:xlink="http://www.w3.org/1999/xlink">
<g id="graph0" class="graph" transform="scale(1 1) rotate(0) translate(4 136)">
<title>ModelDefinition.h</title>
<polygon fill="#ffffff" stroke="transparent" points="-4,4 -4,-136 335,-136 335,4 -4,4"/>
<!-- Node1 -->
<g id="node1" class="node">
<title>Node1</title>
<polygon fill="#bfbfbf" stroke="#000000" points="166,-112.5 166,-131.5 260,-131.5 260,-112.5 166,-112.5"/>
<text text-anchor="middle" x="213" y="-119.5" font-family="Helvetica,sans-Serif" font-size="10.00" fill="#000000">ModelDefinition.h</text>
</g>
<!-- Node2 -->
<g id="node2" class="node">
<title>Node2</title>
<g id="a_node2"><a xlink:href="_comp_extension_types_8h.html" target="_top" xlink:title="Include all SBML types of Comp extension in a single header file. ">
<polygon fill="#ffffff" stroke="#000000" points="85.5,-56.5 85.5,-75.5 208.5,-75.5 208.5,-56.5 85.5,-56.5"/>
<text text-anchor="middle" x="147" y="-63.5" font-family="Helvetica,sans-Serif" font-size="10.00" fill="#000000">CompExtensionTypes.h</text>
</a>
</g>
</g>
<!-- Node1&#45;&gt;Node2 -->
<g id="edge1" class="edge">
<title>Node1&#45;&gt;Node2</title>
<path fill="none" stroke="#191970" d="M193.7245,-105.645C182.2462,-95.9058 168.0723,-83.8795 158.3646,-75.6427"/>
<polygon fill="#191970" stroke="#191970" points="191.6141,-108.4445 201.5037,-112.2455 196.143,-103.1069 191.6141,-108.4445"/>
</g>
<!-- Node5 -->
<g id="node5" class="node">
<title>Node5</title>
<g id="a_node5"><a xlink:href="_model_definition_8cpp.html" target="_top" xlink:title="Implementation of ModelDefinition_t, the Subelement derived class of modelDefinitions package...">
<polygon fill="#ffffff" stroke="#000000" points="227,-56.5 227,-75.5 331,-75.5 331,-56.5 227,-56.5"/>
<text text-anchor="middle" x="279" y="-63.5" font-family="Helvetica,sans-Serif" font-size="10.00" fill="#000000">ModelDefinition.cpp</text>
</a>
</g>
</g>
<!-- Node1&#45;&gt;Node5 -->
<g id="edge4" class="edge">
<title>Node1&#45;&gt;Node5</title>
<path fill="none" stroke="#191970" d="M232.2755,-105.645C243.7538,-95.9058 257.9277,-83.8795 267.6354,-75.6427"/>
<polygon fill="#191970" stroke="#191970" points="229.857,-103.1069 224.4963,-112.2455 234.3859,-108.4445 229.857,-103.1069"/>
</g>
<!-- Node3 -->
<g id="node3" class="node">
<title>Node3</title>
<g id="a_node3"><a xlink:href="_comp_flattening_converter_8cpp.html" target="_top" xlink:title="Implementation of a first flattening converter. ">
<polygon fill="#ffffff" stroke="#000000" points="0,-.5 0,-19.5 150,-19.5 150,-.5 0,-.5"/>
<text text-anchor="middle" x="75" y="-7.5" font-family="Helvetica,sans-Serif" font-size="10.00" fill="#000000">CompFlatteningConverter.cpp</text>
</a>
</g>
</g>
<!-- Node2&#45;&gt;Node3 -->
<g id="edge2" class="edge">
<title>Node2&#45;&gt;Node3</title>
<path fill="none" stroke="#191970" d="M126.336,-49.928C113.7511,-40.1397 98.0908,-27.9595 87.3977,-19.6427"/>
<polygon fill="#191970" stroke="#191970" points="124.4162,-52.8688 134.4586,-56.2455 128.7138,-47.3434 124.4162,-52.8688"/>
</g>
<!-- Node4 -->
<g id="node4" class="node">
<title>Node4</title>
<g id="a_node4"><a xlink:href="_comp_validator_8cpp.html" target="_top" xlink:title="CompValidator.cpp">
<polygon fill="#ffffff" stroke="#000000" points="168,-.5 168,-19.5 270,-19.5 270,-.5 168,-.5"/>
<text text-anchor="middle" x="219" y="-7.5" font-family="Helvetica,sans-Serif" font-size="10.00" fill="#000000">CompValidator.cpp</text>
</a>
</g>
</g>
<!-- Node2&#45;&gt;Node4 -->
<g id="edge3" class="edge">
<title>Node2&#45;&gt;Node4</title>
<path fill="none" stroke="#191970" d="M167.664,-49.928C180.2489,-40.1397 195.9092,-27.9595 206.6023,-19.6427"/>
<polygon fill="#191970" stroke="#191970" points="165.2862,-47.3434 159.5414,-56.2455 169.5838,-52.8688 165.2862,-47.3434"/>
</g>
</g>
</svg>
