<?xml version="1.0" encoding="UTF-8" standalone="no"?>
<!DOCTYPE svg PUBLIC "-//W3C//DTD SVG 1.1//EN"
 "http://www.w3.org/Graphics/SVG/1.1/DTD/svg11.dtd">
<!-- Generated by graphviz version 2.40.1 (20161225.0304)
 -->
<!-- Title: MultiSpeciesPlugin.cpp Pages: 1 -->
<!--zoomable 419 -->
<svg id="main" version="1.1" xmlns="http://www.w3.org/2000/svg" xmlns:xlink="http://www.w3.org/1999/xlink" xml:space="preserve" onload="init(evt)">
<style type="text/css"><![CDATA[
.edge:hover path { stroke: red; }
.edge:hover polygon { stroke: red; fill: red; }
]]></style>
<script type="text/javascript"><![CDATA[
var edges = document.getElementsByTagName('g');
if (edges && edges.length) {
  for (var i=0;i<edges.length;i++) {
    if (edges[i].id.substr(0,4)=='edge') {
      edges[i].setAttribute('class','edge');
    }
  }
}
]]></script>
        <defs>
                <circle id="rim" cx="0" cy="0" r="7"/>
                <circle id="rim2" cx="0" cy="0" r="3.5"/>
                <g id="zoomPlus">
                        <use xlink:href="#rim" fill="#404040">
                                <set attributeName="fill" to="#808080" begin="zoomplus.mouseover" end="zoomplus.mouseout"/>
                        </use>
                        <path d="M-4,0h8M0,-4v8" fill="none" stroke="white" stroke-width="1.5" pointer-events="none"/>
                </g>
                <g id="zoomMin">
                        <use xlink:href="#rim" fill="#404040">
                                <set attributeName="fill" to="#808080" begin="zoomminus.mouseover" end="zoomminus.mouseout"/>
                        </use>
                        <path d="M-4,0h8" fill="none" stroke="white" stroke-width="1.5" pointer-events="none"/>
                </g>
                <g id="dirArrow">
                        <path fill="none" stroke="white" stroke-width="1.5" d="M0,-3.0v7 M-2.5,-0.5L0,-3.0L2.5,-0.5"/>
                </g>
               <g id="resetDef">
                       <use xlink:href="#rim2" fill="#404040">
                               <set attributeName="fill" to="#808080" begin="reset.mouseover" end="reset.mouseout"/>
                       </use>
               </g>
        </defs>

<script type="text/javascript">
var viewWidth = 609;
var viewHeight = 419;
var sectionId = 'dynsection-0';
</script>
<script xlink:href="svgpan.js"/>
<svg id="graph" class="graph">
<g id="viewport">
<title>MultiSpeciesPlugin.cpp</title>
<polygon fill="#ffffff" stroke="transparent" points="-4,4 -4,-415 604.5003,-415 604.5003,4 -4,4"/>
<!-- Node1 -->
<g id="node1" class="node">
<title>Node1</title>
<polygon fill="#bfbfbf" stroke="#000000" points="260,-391.5 260,-410.5 380,-410.5 380,-391.5 260,-391.5"/>
<text text-anchor="middle" x="320" y="-398.5" font-family="Helvetica,sans-Serif" font-size="10.00" fill="#000000">MultiSpeciesPlugin.cpp</text>
</g>
<!-- Node2 -->
<g id="node2" class="node">
<title>Node2</title>
<g id="a_node2"><a xlink:href="_multi_species_plugin_8h.html" target="_top" xlink:title=": Implementation of the MultiSpeciesPlugin_t class ">
<polygon fill="#ffffff" stroke="#000000" points="0,-324.5 0,-354.5 158,-354.5 158,-324.5 0,-324.5"/>
<text text-anchor="start" x="8" y="-342.5" font-family="Helvetica,sans-Serif" font-size="10.00" fill="#000000">sbml/packages/multi</text>
<text text-anchor="middle" x="79" y="-331.5" font-family="Helvetica,sans-Serif" font-size="10.00" fill="#000000">/extension/MultiSpeciesPlugin.h</text>
</a>
</g>
</g>
<!-- Node1&#45;&gt;Node2 -->
<g id="edge1" class="edge">
<title>Node1&#45;&gt;Node2</title>
<path fill="none" stroke="#191970" d="M282.6082,-391.4581C246.7168,-382.2991 191.6462,-368.2458 147.8244,-357.0631"/>
<polygon fill="#191970" stroke="#191970" points="148.6427,-353.6598 138.0878,-354.5784 146.9118,-360.4424 148.6427,-353.6598"/>
</g>
<!-- Node6 -->
<g id="node6" class="node">
<title>Node6</title>
<g id="a_node6"><a xlink:href="_multi_s_b_m_l_error_8h.html" target="_top" xlink:title=": Implementation of the MultiSBMLError class ">
<polygon fill="#ffffff" stroke="#000000" points="176.5,-324.5 176.5,-354.5 315.5,-354.5 315.5,-324.5 176.5,-324.5"/>
<text text-anchor="start" x="184.5" y="-342.5" font-family="Helvetica,sans-Serif" font-size="10.00" fill="#000000">sbml/packages/multi</text>
<text text-anchor="middle" x="246" y="-331.5" font-family="Helvetica,sans-Serif" font-size="10.00" fill="#000000">/validator/MultiSBMLError.h</text>
</a>
</g>
</g>
<!-- Node1&#45;&gt;Node6 -->
<g id="edge5" class="edge">
<title>Node1&#45;&gt;Node6</title>
<path fill="none" stroke="#191970" d="M308.4375,-391.3906C298.7007,-383.2986 284.4087,-371.4207 271.9547,-361.0705"/>
<polygon fill="#191970" stroke="#191970" points="274.0303,-358.2445 264.1024,-354.5446 269.5561,-363.628 274.0303,-358.2445"/>
</g>
<!-- Node7 -->
<g id="node7" class="node">
<title>Node7</title>
<g id="a_node7"><a xlink:href="_element_filter_8h.html" target="_top" xlink:title="Base class of element filters. ">
<polygon fill="#ffffff" stroke="#000000" points="333.5,-330 333.5,-349 456.5,-349 456.5,-330 333.5,-330"/>
<text text-anchor="middle" x="395" y="-337" font-family="Helvetica,sans-Serif" font-size="10.00" fill="#000000">sbml/util/ElementFilter.h</text>
</a>
</g>
</g>
<!-- Node1&#45;&gt;Node7 -->
<g id="edge6" class="edge">
<title>Node1&#45;&gt;Node7</title>
<path fill="none" stroke="#191970" d="M331.7188,-391.3906C343.3188,-381.8786 361.2979,-367.1357 375.1321,-355.7917"/>
<polygon fill="#191970" stroke="#191970" points="377.6026,-358.2921 383.116,-349.2449 373.164,-352.8792 377.6026,-358.2921"/>
</g>
<!-- Node8 -->
<g id="node8" class="node">
<title>Node8</title>
<g id="a_node8"><a xlink:href="_model_8h.html" target="_top" xlink:title="Definition of Model_t. ">
<polygon fill="#ffffff" stroke="#000000" points="475,-330 475,-349 551,-349 551,-330 475,-330"/>
<text text-anchor="middle" x="513" y="-337" font-family="Helvetica,sans-Serif" font-size="10.00" fill="#000000">sbml/Model.h</text>
</a>
</g>
</g>
<!-- Node1&#45;&gt;Node8 -->
<g id="edge7" class="edge">
<title>Node1&#45;&gt;Node8</title>
<path fill="none" stroke="#191970" d="M350.7995,-391.4269C380.3736,-382.2037 426.2893,-367.8032 466,-355 468.7599,-354.1102 471.609,-353.1856 474.4758,-352.2508"/>
<polygon fill="#191970" stroke="#191970" points="475.7736,-355.5088 484.187,-349.0695 473.5943,-348.8566 475.7736,-355.5088"/>
</g>
<!-- Node3 -->
<g id="node3" class="node">
<title>Node3</title>
<g id="a_node3"><a xlink:href="extern_8h.html" target="_top" xlink:title="Definitions of LIBSBML_EXTERN and related things. ">
<polygon fill="#ffffff" stroke="#000000" points="255,-67.5 255,-86.5 373,-86.5 373,-67.5 255,-67.5"/>
<text text-anchor="middle" x="314" y="-74.5" font-family="Helvetica,sans-Serif" font-size="10.00" fill="#000000">sbml/common/extern.h</text>
</a>
</g>
</g>
<!-- Node2&#45;&gt;Node3 -->
<g id="edge2" class="edge">
<title>Node2&#45;&gt;Node3</title>
<path fill="none" stroke="#191970" d="M99.0999,-324.4008C111.6602,-314.5865 127.8824,-301.2017 141,-288 175.2045,-253.5763 265.4708,-139.1015 300.1539,-94.7598"/>
<polygon fill="#191970" stroke="#191970" points="303.0966,-96.6782 306.4943,-86.643 297.5801,-92.3691 303.0966,-96.6782"/>
</g>
<!-- Node5 -->
<g id="node5" class="node">
<title>Node5</title>
<g id="a_node5"><a xlink:href="multifwd_8h.html" target="_top" xlink:title=": Implementation of the multifwd class ">
<polygon fill="#ffffff" stroke="#000000" points="25.5,-257.5 25.5,-287.5 132.5,-287.5 132.5,-257.5 25.5,-257.5"/>
<text text-anchor="start" x="33.5" y="-275.5" font-family="Helvetica,sans-Serif" font-size="10.00" fill="#000000">sbml/packages/multi</text>
<text text-anchor="middle" x="79" y="-264.5" font-family="Helvetica,sans-Serif" font-size="10.00" fill="#000000">/common/multifwd.h</text>
</a>
</g>
</g>
<!-- Node2&#45;&gt;Node5 -->
<g id="edge4" class="edge">
<title>Node2&#45;&gt;Node5</title>
<path fill="none" stroke="#191970" d="M79,-324.2967C79,-316.5013 79,-306.7991 79,-297.9064"/>
<polygon fill="#191970" stroke="#191970" points="82.5001,-297.6431 79,-287.6432 75.5001,-297.6432 82.5001,-297.6431"/>
</g>
<!-- Node4 -->
<g id="node4" class="node">
<title>Node4</title>
<g id="a_node4"><a xlink:href="libsbml-namespace_8h.html" target="_top" xlink:title="Defines C++ namespace of libSBML. ">
<polygon fill="#ffffff" stroke="#000000" points="407.5,-.5 407.5,-30.5 520.5,-30.5 520.5,-.5 407.5,-.5"/>
<text text-anchor="start" x="415.5" y="-18.5" font-family="Helvetica,sans-Serif" font-size="10.00" fill="#000000">sbml/common/libsbml</text>
<text text-anchor="middle" x="464" y="-7.5" font-family="Helvetica,sans-Serif" font-size="10.00" fill="#000000">&#45;namespace.h</text>
</a>
</g>
</g>
<!-- Node3&#45;&gt;Node4 -->
<g id="edge3" class="edge">
<title>Node3&#45;&gt;Node4</title>
<path fill="none" stroke="#191970" d="M337.4375,-67.3906C358.866,-58.6049 391.1788,-45.3567 417.7903,-34.446"/>
<polygon fill="#191970" stroke="#191970" points="419.3811,-37.5766 427.3059,-30.5446 416.7256,-31.0998 419.3811,-37.5766"/>
</g>
<!-- Node8&#45;&gt;Node3 -->
<g id="edge13" class="edge">
<title>Node8&#45;&gt;Node3</title>
<path fill="none" stroke="#191970" d="M485.8166,-329.9672C479.3623,-327.8621 472.4713,-325.7425 466,-324 391.0052,-303.8066 343.9354,-348.3103 295,-288 249.1652,-231.511 285.4945,-136.3626 304.3881,-96.0087"/>
<polygon fill="#191970" stroke="#191970" points="307.65,-97.3032 308.86,-86.7777 301.3503,-94.2513 307.65,-97.3032"/>
</g>
<!-- Node9 -->
<g id="node9" class="node">
<title>Node9</title>
<g id="a_node9"><a xlink:href="libsbml-config_8h.html" target="_top" xlink:title="Decides whether to #include Unix or Windows configuration variables. ">
<polygon fill="#ffffff" stroke="#000000" points="473.5,-190.5 473.5,-220.5 586.5,-220.5 586.5,-190.5 473.5,-190.5"/>
<text text-anchor="start" x="481.5" y="-208.5" font-family="Helvetica,sans-Serif" font-size="10.00" fill="#000000">sbml/common/libsbml</text>
<text text-anchor="middle" x="530" y="-197.5" font-family="Helvetica,sans-Serif" font-size="10.00" fill="#000000">&#45;config.h</text>
</a>
</g>
</g>
<!-- Node8&#45;&gt;Node9 -->
<g id="edge8" class="edge">
<title>Node8&#45;&gt;Node9</title>
<path fill="none" stroke="#191970" d="M536.7901,-329.9392C553.9091,-321.6454 575.7221,-307.8291 586,-288 592.3403,-275.7678 591.5376,-269.6159 586,-257 580.8986,-245.3778 571.7366,-235.2245 562.2812,-227.0748"/>
<polygon fill="#191970" stroke="#191970" points="564.3422,-224.2411 554.3524,-220.7121 559.9611,-229.7006 564.3422,-224.2411"/>
</g>
<!-- Node12 -->
<g id="node12" class="node">
<title>Node12</title>
<polygon fill="#ffffff" stroke="#bfbfbf" points="304.5,-263 304.5,-282 431.5,-282 431.5,-263 304.5,-263"/>
<text text-anchor="middle" x="368" y="-270" font-family="Helvetica,sans-Serif" font-size="10.00" fill="#000000">sbml/common/sbmlfwd.h</text>
</g>
<!-- Node8&#45;&gt;Node12 -->
<g id="edge14" class="edge">
<title>Node8&#45;&gt;Node12</title>
<path fill="none" stroke="#191970" d="M492.225,-329.9005C467.5677,-318.5072 426.2549,-299.4178 398.0982,-286.4075"/>
<polygon fill="#191970" stroke="#191970" points="399.2823,-283.099 388.7364,-282.0817 396.3461,-289.4535 399.2823,-283.099"/>
</g>
<!-- Node13 -->
<g id="node13" class="node">
<title>Node13</title>
<g id="a_node13"><a xlink:href="_s_b_m_l_type_codes_8h.html" target="_top" xlink:title="Enumeration to identify SBML objects at runtime. ">
<polygon fill="#ffffff" stroke="#000000" points="449.5,-263 449.5,-282 576.5,-282 576.5,-263 449.5,-263"/>
<text text-anchor="middle" x="513" y="-270" font-family="Helvetica,sans-Serif" font-size="10.00" fill="#000000">sbml/SBMLTypeCodes.h</text>
</a>
</g>
</g>
<!-- Node8&#45;&gt;Node13 -->
<g id="edge15" class="edge">
<title>Node8&#45;&gt;Node13</title>
<path fill="none" stroke="#191970" d="M513,-329.9005C513,-320.149 513,-304.7597 513,-292.3695"/>
<polygon fill="#191970" stroke="#191970" points="516.5001,-292.0816 513,-282.0817 509.5001,-292.0817 516.5001,-292.0816"/>
</g>
<!-- Node9&#45;&gt;Node4 -->
<g id="edge9" class="edge">
<title>Node9&#45;&gt;Node4</title>
<path fill="none" stroke="#191970" d="M559.9566,-190.3925C573.6188,-181.7636 588.4135,-169.5426 596,-154 602.0436,-141.6185 601.9142,-135.4438 596,-123 577.1787,-83.3989 535.8415,-53.5942 504.4057,-35.531"/>
<polygon fill="#191970" stroke="#191970" points="505.8568,-32.3331 495.4171,-30.527 502.4519,-38.4492 505.8568,-32.3331"/>
</g>
<!-- Node10 -->
<g id="node10" class="node">
<title>Node10</title>
<g id="a_node10"><a xlink:href="libsbml-config-common_8h.html" target="_top" xlink:title="Configuration variables. ">
<polygon fill="#ffffff" stroke="#000000" points="473.5,-123.5 473.5,-153.5 586.5,-153.5 586.5,-123.5 473.5,-123.5"/>
<text text-anchor="start" x="481.5" y="-141.5" font-family="Helvetica,sans-Serif" font-size="10.00" fill="#000000">sbml/common/libsbml</text>
<text text-anchor="middle" x="530" y="-130.5" font-family="Helvetica,sans-Serif" font-size="10.00" fill="#000000">&#45;config&#45;common.h</text>
</a>
</g>
</g>
<!-- Node9&#45;&gt;Node10 -->
<g id="edge10" class="edge">
<title>Node9&#45;&gt;Node10</title>
<path fill="none" stroke="#191970" d="M530,-190.2967C530,-182.5013 530,-172.7991 530,-163.9064"/>
<polygon fill="#191970" stroke="#191970" points="533.5001,-163.6431 530,-153.6432 526.5001,-163.6432 533.5001,-163.6431"/>
</g>
<!-- Node11 -->
<g id="node11" class="node">
<title>Node11</title>
<g id="a_node11"><a xlink:href="libsbml-version_8h.html" target="_top" xlink:title="Define libSBML version numbers for access from client software. ">
<polygon fill="#ffffff" stroke="#000000" points="342.5,-123.5 342.5,-153.5 455.5,-153.5 455.5,-123.5 342.5,-123.5"/>
<text text-anchor="start" x="350.5" y="-141.5" font-family="Helvetica,sans-Serif" font-size="10.00" fill="#000000">sbml/common/libsbml</text>
<text text-anchor="middle" x="399" y="-130.5" font-family="Helvetica,sans-Serif" font-size="10.00" fill="#000000">&#45;version.h</text>
</a>
</g>
</g>
<!-- Node9&#45;&gt;Node11 -->
<g id="edge11" class="edge">
<title>Node9&#45;&gt;Node11</title>
<path fill="none" stroke="#191970" d="M500.601,-190.4639C482.0226,-180.9619 457.809,-168.5779 437.6801,-158.283"/>
<polygon fill="#191970" stroke="#191970" points="439.251,-155.1552 428.7541,-153.7177 436.0635,-161.3874 439.251,-155.1552"/>
</g>
<!-- Node11&#45;&gt;Node3 -->
<g id="edge12" class="edge">
<title>Node11&#45;&gt;Node3</title>
<path fill="none" stroke="#191970" d="M377.9888,-123.2977C365.2066,-114.0495 348.9054,-102.2551 335.9552,-92.8853"/>
<polygon fill="#191970" stroke="#191970" points="337.763,-89.8732 327.6096,-86.8469 333.6597,-95.5445 337.763,-89.8732"/>
</g>
<!-- Node13&#45;&gt;Node3 -->
<g id="edge17" class="edge">
<title>Node13&#45;&gt;Node3</title>
<path fill="none" stroke="#191970" d="M487.723,-262.9928C448.3381,-246.84 372.7331,-210.2181 333,-154 321.1192,-137.19 316.6351,-113.7536 314.9604,-97.1632"/>
<polygon fill="#191970" stroke="#191970" points="318.4316,-96.6469 314.1934,-86.9367 311.4512,-97.1705 318.4316,-96.6469"/>
</g>
<!-- Node13&#45;&gt;Node9 -->
<g id="edge16" class="edge">
<title>Node13&#45;&gt;Node9</title>
<path fill="none" stroke="#191970" d="M515.4357,-262.9005C517.5866,-254.4234 520.8186,-241.6856 523.6919,-230.3614"/>
<polygon fill="#191970" stroke="#191970" points="527.1216,-231.0754 526.1885,-220.5218 520.3366,-229.3538 527.1216,-231.0754"/>
</g>
</g>
</svg>
        <g id="navigator" transform="translate(0 0)" fill="#404254">
                <rect fill="#f2f5e9" fill-opacity="0.5" stroke="#606060" stroke-width=".5" x="0" y="0" width="60" height="60"/>
                <use id="zoomplus" xlink:href="#zoomPlus" x="17" y="9" onmousedown="handleZoom(evt,'in')"/>
                <use id="zoomminus" xlink:href="#zoomMin" x="42" y="9" onmousedown="handleZoom(evt,'out')"/>
                <use id="reset" xlink:href="#resetDef" x="30" y="36" onmousedown="handleReset()"/>
                <g id="arrowUp" xlink:href="#dirArrow" transform="translate(30 24)" onmousedown="handlePan(0,-1)">
                  <use xlink:href="#rim" fill="#404040">
                        <set attributeName="fill" to="#808080" begin="arrowUp.mouseover" end="arrowUp.mouseout"/>
                  </use>
                  <path fill="none" stroke="white" stroke-width="1.5" d="M0,-3.0v7 M-2.5,-0.5L0,-3.0L2.5,-0.5"/>
                </g>
                <g id="arrowRight" xlink:href="#dirArrow" transform="rotate(90) translate(36 -43)" onmousedown="handlePan(1,0)">
                  <use xlink:href="#rim" fill="#404040">
                        <set attributeName="fill" to="#808080" begin="arrowRight.mouseover" end="arrowRight.mouseout"/>
                  </use>
                  <path fill="none" stroke="white" stroke-width="1.5" d="M0,-3.0v7 M-2.5,-0.5L0,-3.0L2.5,-0.5"/>
                </g>
                <g id="arrowDown" xlink:href="#dirArrow" transform="rotate(180) translate(-30 -48)" onmousedown="handlePan(0,1)">
                  <use xlink:href="#rim" fill="#404040">
                        <set attributeName="fill" to="#808080" begin="arrowDown.mouseover" end="arrowDown.mouseout"/>
                  </use>
                  <path fill="none" stroke="white" stroke-width="1.5" d="M0,-3.0v7 M-2.5,-0.5L0,-3.0L2.5,-0.5"/>
                </g>
                <g id="arrowLeft" xlink:href="#dirArrow" transform="rotate(270) translate(-36 17)" onmousedown="handlePan(-1,0)">
                  <use xlink:href="#rim" fill="#404040">
                        <set attributeName="fill" to="#808080" begin="arrowLeft.mouseover" end="arrowLeft.mouseout"/>
                  </use>
                  <path fill="none" stroke="white" stroke-width="1.5" d="M0,-3.0v7 M-2.5,-0.5L0,-3.0L2.5,-0.5"/>
                </g>
        </g>
        <svg viewBox="0 0 15 15" width="100%" height="30px" preserveAspectRatio="xMaxYMin meet">
         <g id="arrow_out" transform="scale(0.3 0.3)">
          <a xlink:href="_multi_species_plugin_8cpp__incl_org.svg" target="_base">
           <rect id="button" ry="5" rx="5" y="6" x="6" height="38" width="38"
                fill="#f2f5e9" fill-opacity="0.5" stroke="#606060" stroke-width="1.0"/>
           <path id="arrow"
             d="M 11.500037,31.436501 C 11.940474,20.09759 22.043105,11.32322 32.158766,21.979434 L 37.068811,17.246167 C 37.068811,17.246167 37.088388,32 37.088388,32 L 22.160133,31.978069 C 22.160133,31.978069 26.997745,27.140456 26.997745,27.140456 C 18.528582,18.264221 13.291696,25.230495 11.500037,31.436501 z"
             style="fill:#404040;"/>
          </a>
         </g>
        </svg>
</svg>
