<?xml version="1.0" encoding="UTF-8" standalone="no"?>
<!DOCTYPE svg PUBLIC "-//W3C//DTD SVG 1.1//EN"
 "http://www.w3.org/Graphics/SVG/1.1/DTD/svg11.dtd">
<!-- Generated by graphviz version 2.40.1 (20161225.0304)
 -->
<!-- Title: MultiSimpleSpeciesReferencePlugin.cpp Pages: 1 -->
<svg width="506pt" height="441pt"
 viewBox="0.00 0.00 506.00 441.00" xmlns="http://www.w3.org/2000/svg" xmlns:xlink="http://www.w3.org/1999/xlink">
<g id="graph0" class="graph" transform="scale(1 1) rotate(0) translate(4 437)">
<title>MultiSimpleSpeciesReferencePlugin.cpp</title>
<polygon fill="#ffffff" stroke="transparent" points="-4,4 -4,-437 502.0003,-437 502.0003,4 -4,4"/>
<!-- Node1 -->
<g id="node1" class="node">
<title>Node1</title>
<polygon fill="#bfbfbf" stroke="#000000" points="175.5,-402.5 175.5,-432.5 325.5,-432.5 325.5,-402.5 175.5,-402.5"/>
<text text-anchor="start" x="183.5" y="-420.5" font-family="Helvetica,sans-Serif" font-size="10.00" fill="#000000">MultiSimpleSpeciesReference</text>
<text text-anchor="middle" x="250.5" y="-409.5" font-family="Helvetica,sans-Serif" font-size="10.00" fill="#000000">Plugin.cpp</text>
</g>
<!-- Node2 -->
<g id="node2" class="node">
<title>Node2</title>
<g id="a_node2"><a xlink:href="_multi_simple_species_reference_plugin_8h.html" target="_top" xlink:title=": Implementation of the MultiSimpleSpeciesReferencePlugin_t class ">
<polygon fill="#ffffff" stroke="#000000" points="10.5,-324.5 10.5,-365.5 162.5,-365.5 162.5,-324.5 10.5,-324.5"/>
<text text-anchor="start" x="18.5" y="-353.5" font-family="Helvetica,sans-Serif" font-size="10.00" fill="#000000">sbml/packages/multi</text>
<text text-anchor="start" x="18.5" y="-342.5" font-family="Helvetica,sans-Serif" font-size="10.00" fill="#000000">/extension/MultiSimpleSpecies</text>
<text text-anchor="middle" x="86.5" y="-331.5" font-family="Helvetica,sans-Serif" font-size="10.00" fill="#000000">ReferencePlugin.h</text>
</a>
</g>
</g>
<!-- Node1&#45;&gt;Node2 -->
<g id="edge1" class="edge">
<title>Node1&#45;&gt;Node2</title>
<path fill="none" stroke="#191970" d="M216.5191,-402.478C195.0552,-392.9894 166.814,-380.5047 142.1373,-369.5958"/>
<polygon fill="#191970" stroke="#191970" points="143.4371,-366.3437 132.8758,-365.5015 140.6068,-372.746 143.4371,-366.3437"/>
</g>
<!-- Node6 -->
<g id="node6" class="node">
<title>Node6</title>
<g id="a_node6"><a xlink:href="_multi_s_b_m_l_error_8h.html" target="_top" xlink:title=": Implementation of the MultiSBMLError class ">
<polygon fill="#ffffff" stroke="#000000" points="181,-330 181,-360 320,-360 320,-330 181,-330"/>
<text text-anchor="start" x="189" y="-348" font-family="Helvetica,sans-Serif" font-size="10.00" fill="#000000">sbml/packages/multi</text>
<text text-anchor="middle" x="250.5" y="-337" font-family="Helvetica,sans-Serif" font-size="10.00" fill="#000000">/validator/MultiSBMLError.h</text>
</a>
</g>
</g>
<!-- Node1&#45;&gt;Node6 -->
<g id="edge5" class="edge">
<title>Node1&#45;&gt;Node6</title>
<path fill="none" stroke="#191970" d="M250.5,-402.478C250.5,-393.1459 250.5,-380.9157 250.5,-370.1368"/>
<polygon fill="#191970" stroke="#191970" points="254.0001,-370.0028 250.5,-360.0028 247.0001,-370.0028 254.0001,-370.0028"/>
</g>
<!-- Node7 -->
<g id="node7" class="node">
<title>Node7</title>
<g id="a_node7"><a xlink:href="_model_8h.html" target="_top" xlink:title="Definition of Model_t. ">
<polygon fill="#ffffff" stroke="#000000" points="338.5,-335.5 338.5,-354.5 414.5,-354.5 414.5,-335.5 338.5,-335.5"/>
<text text-anchor="middle" x="376.5" y="-342.5" font-family="Helvetica,sans-Serif" font-size="10.00" fill="#000000">sbml/Model.h</text>
</a>
</g>
</g>
<!-- Node1&#45;&gt;Node7 -->
<g id="edge6" class="edge">
<title>Node1&#45;&gt;Node7</title>
<path fill="none" stroke="#191970" d="M276.6073,-402.478C298.3328,-389.9772 329.096,-372.2761 350.7279,-359.8292"/>
<polygon fill="#191970" stroke="#191970" points="352.7505,-362.7035 359.6725,-354.6825 349.2593,-356.6362 352.7505,-362.7035"/>
</g>
<!-- Node3 -->
<g id="node3" class="node">
<title>Node3</title>
<g id="a_node3"><a xlink:href="extern_8h.html" target="_top" xlink:title="Definitions of LIBSBML_EXTERN and related things. ">
<polygon fill="#ffffff" stroke="#000000" points="152.5,-67.5 152.5,-86.5 270.5,-86.5 270.5,-67.5 152.5,-67.5"/>
<text text-anchor="middle" x="211.5" y="-74.5" font-family="Helvetica,sans-Serif" font-size="10.00" fill="#000000">sbml/common/extern.h</text>
</a>
</g>
</g>
<!-- Node2&#45;&gt;Node3 -->
<g id="edge2" class="edge">
<title>Node2&#45;&gt;Node3</title>
<path fill="none" stroke="#191970" d="M98.3244,-324.3668C104.0666,-313.745 110.7364,-300.4429 115.5,-288 142.6351,-217.1206 119.5991,-187.561 159.5,-123 166.8268,-111.1449 178.143,-100.6149 188.3503,-92.6314"/>
<polygon fill="#191970" stroke="#191970" points="190.603,-95.3183 196.5516,-86.551 186.434,-89.6951 190.603,-95.3183"/>
</g>
<!-- Node5 -->
<g id="node5" class="node">
<title>Node5</title>
<g id="a_node5"><a xlink:href="multifwd_8h.html" target="_top" xlink:title=": Implementation of the multifwd class ">
<polygon fill="#ffffff" stroke="#000000" points="0,-257.5 0,-287.5 107,-287.5 107,-257.5 0,-257.5"/>
<text text-anchor="start" x="8" y="-275.5" font-family="Helvetica,sans-Serif" font-size="10.00" fill="#000000">sbml/packages/multi</text>
<text text-anchor="middle" x="53.5" y="-264.5" font-family="Helvetica,sans-Serif" font-size="10.00" fill="#000000">/common/multifwd.h</text>
</a>
</g>
</g>
<!-- Node2&#45;&gt;Node5 -->
<g id="edge4" class="edge">
<title>Node2&#45;&gt;Node5</title>
<path fill="none" stroke="#191970" d="M77.1318,-324.4183C73.2136,-315.8101 68.6309,-305.7422 64.5496,-296.7755"/>
<polygon fill="#191970" stroke="#191970" points="67.701,-295.2506 60.3727,-287.5991 61.33,-298.1506 67.701,-295.2506"/>
</g>
<!-- Node4 -->
<g id="node4" class="node">
<title>Node4</title>
<g id="a_node4"><a xlink:href="libsbml-namespace_8h.html" target="_top" xlink:title="Defines C++ namespace of libSBML. ">
<polygon fill="#ffffff" stroke="#000000" points="305,-.5 305,-30.5 418,-30.5 418,-.5 305,-.5"/>
<text text-anchor="start" x="313" y="-18.5" font-family="Helvetica,sans-Serif" font-size="10.00" fill="#000000">sbml/common/libsbml</text>
<text text-anchor="middle" x="361.5" y="-7.5" font-family="Helvetica,sans-Serif" font-size="10.00" fill="#000000">&#45;namespace.h</text>
</a>
</g>
</g>
<!-- Node3&#45;&gt;Node4 -->
<g id="edge3" class="edge">
<title>Node3&#45;&gt;Node4</title>
<path fill="none" stroke="#191970" d="M234.9375,-67.3906C256.366,-58.6049 288.6788,-45.3567 315.2903,-34.446"/>
<polygon fill="#191970" stroke="#191970" points="316.8811,-37.5766 324.8059,-30.5446 314.2256,-31.0998 316.8811,-37.5766"/>
</g>
<!-- Node7&#45;&gt;Node3 -->
<g id="edge12" class="edge">
<title>Node7&#45;&gt;Node3</title>
<path fill="none" stroke="#191970" d="M357.1237,-335.486C348.7544,-331.6018 338.7728,-327.2653 329.5,-324 270.1182,-303.0893 230.9458,-337.8535 192.5,-288 148.0763,-230.3948 183.6363,-135.8549 202.107,-95.8355"/>
<polygon fill="#191970" stroke="#191970" points="205.3262,-97.2163 206.4781,-86.6843 199.0097,-94.1993 205.3262,-97.2163"/>
</g>
<!-- Node8 -->
<g id="node8" class="node">
<title>Node8</title>
<g id="a_node8"><a xlink:href="libsbml-config_8h.html" target="_top" xlink:title="Decides whether to #include Unix or Windows configuration variables. ">
<polygon fill="#ffffff" stroke="#000000" points="371,-190.5 371,-220.5 484,-220.5 484,-190.5 371,-190.5"/>
<text text-anchor="start" x="379" y="-208.5" font-family="Helvetica,sans-Serif" font-size="10.00" fill="#000000">sbml/common/libsbml</text>
<text text-anchor="middle" x="427.5" y="-197.5" font-family="Helvetica,sans-Serif" font-size="10.00" fill="#000000">&#45;config.h</text>
</a>
</g>
</g>
<!-- Node7&#45;&gt;Node8 -->
<g id="edge7" class="edge">
<title>Node7&#45;&gt;Node8</title>
<path fill="none" stroke="#191970" d="M414.7457,-335.5271C439.0579,-327.3087 468.6583,-312.7226 483.5,-288 490.5915,-276.1874 489.0376,-269.6159 483.5,-257 478.3986,-245.3778 469.2366,-235.2245 459.7812,-227.0748"/>
<polygon fill="#191970" stroke="#191970" points="461.8422,-224.2411 451.8524,-220.7121 457.4611,-229.7006 461.8422,-224.2411"/>
</g>
<!-- Node11 -->
<g id="node11" class="node">
<title>Node11</title>
<polygon fill="#ffffff" stroke="#bfbfbf" points="202,-263 202,-282 329,-282 329,-263 202,-263"/>
<text text-anchor="middle" x="265.5" y="-270" font-family="Helvetica,sans-Serif" font-size="10.00" fill="#000000">sbml/common/sbmlfwd.h</text>
</g>
<!-- Node7&#45;&gt;Node11 -->
<g id="edge13" class="edge">
<title>Node7&#45;&gt;Node11</title>
<path fill="none" stroke="#191970" d="M361.53,-335.2223C342.8063,-322.9929 310.5505,-301.9249 288.6383,-287.6129"/>
<polygon fill="#191970" stroke="#191970" points="290.5191,-284.6609 280.2328,-282.1228 286.6912,-290.5216 290.5191,-284.6609"/>
</g>
<!-- Node12 -->
<g id="node12" class="node">
<title>Node12</title>
<g id="a_node12"><a xlink:href="_s_b_m_l_type_codes_8h.html" target="_top" xlink:title="Enumeration to identify SBML objects at runtime. ">
<polygon fill="#ffffff" stroke="#000000" points="347,-263 347,-282 474,-282 474,-263 347,-263"/>
<text text-anchor="middle" x="410.5" y="-270" font-family="Helvetica,sans-Serif" font-size="10.00" fill="#000000">sbml/SBMLTypeCodes.h</text>
</a>
</g>
</g>
<!-- Node7&#45;&gt;Node12 -->
<g id="edge14" class="edge">
<title>Node7&#45;&gt;Node12</title>
<path fill="none" stroke="#191970" d="M381.0854,-335.2223C386.3363,-324.0256 395.0617,-305.42 401.6489,-291.3737"/>
<polygon fill="#191970" stroke="#191970" points="404.9101,-292.6627 405.9873,-282.1228 398.5724,-289.6905 404.9101,-292.6627"/>
</g>
<!-- Node8&#45;&gt;Node4 -->
<g id="edge8" class="edge">
<title>Node8&#45;&gt;Node4</title>
<path fill="none" stroke="#191970" d="M457.4566,-190.3925C471.1188,-181.7636 485.9135,-169.5426 493.5,-154 499.5436,-141.6185 499.4142,-135.4438 493.5,-123 474.6787,-83.3989 433.3415,-53.5942 401.9057,-35.531"/>
<polygon fill="#191970" stroke="#191970" points="403.3568,-32.3331 392.9171,-30.527 399.9519,-38.4492 403.3568,-32.3331"/>
</g>
<!-- Node9 -->
<g id="node9" class="node">
<title>Node9</title>
<g id="a_node9"><a xlink:href="libsbml-config-common_8h.html" target="_top" xlink:title="Configuration variables. ">
<polygon fill="#ffffff" stroke="#000000" points="371,-123.5 371,-153.5 484,-153.5 484,-123.5 371,-123.5"/>
<text text-anchor="start" x="379" y="-141.5" font-family="Helvetica,sans-Serif" font-size="10.00" fill="#000000">sbml/common/libsbml</text>
<text text-anchor="middle" x="427.5" y="-130.5" font-family="Helvetica,sans-Serif" font-size="10.00" fill="#000000">&#45;config&#45;common.h</text>
</a>
</g>
</g>
<!-- Node8&#45;&gt;Node9 -->
<g id="edge9" class="edge">
<title>Node8&#45;&gt;Node9</title>
<path fill="none" stroke="#191970" d="M427.5,-190.2967C427.5,-182.5013 427.5,-172.7991 427.5,-163.9064"/>
<polygon fill="#191970" stroke="#191970" points="431.0001,-163.6431 427.5,-153.6432 424.0001,-163.6432 431.0001,-163.6431"/>
</g>
<!-- Node10 -->
<g id="node10" class="node">
<title>Node10</title>
<g id="a_node10"><a xlink:href="libsbml-version_8h.html" target="_top" xlink:title="Define libSBML version numbers for access from client software. ">
<polygon fill="#ffffff" stroke="#000000" points="240,-123.5 240,-153.5 353,-153.5 353,-123.5 240,-123.5"/>
<text text-anchor="start" x="248" y="-141.5" font-family="Helvetica,sans-Serif" font-size="10.00" fill="#000000">sbml/common/libsbml</text>
<text text-anchor="middle" x="296.5" y="-130.5" font-family="Helvetica,sans-Serif" font-size="10.00" fill="#000000">&#45;version.h</text>
</a>
</g>
</g>
<!-- Node8&#45;&gt;Node10 -->
<g id="edge10" class="edge">
<title>Node8&#45;&gt;Node10</title>
<path fill="none" stroke="#191970" d="M398.101,-190.4639C379.5226,-180.9619 355.309,-168.5779 335.1801,-158.283"/>
<polygon fill="#191970" stroke="#191970" points="336.751,-155.1552 326.2541,-153.7177 333.5635,-161.3874 336.751,-155.1552"/>
</g>
<!-- Node10&#45;&gt;Node3 -->
<g id="edge11" class="edge">
<title>Node10&#45;&gt;Node3</title>
<path fill="none" stroke="#191970" d="M275.4888,-123.2977C262.7066,-114.0495 246.4054,-102.2551 233.4552,-92.8853"/>
<polygon fill="#191970" stroke="#191970" points="235.263,-89.8732 225.1096,-86.8469 231.1597,-95.5445 235.263,-89.8732"/>
</g>
<!-- Node12&#45;&gt;Node3 -->
<g id="edge16" class="edge">
<title>Node12&#45;&gt;Node3</title>
<path fill="none" stroke="#191970" d="M385.223,-262.9928C345.8381,-246.84 270.2331,-210.2181 230.5,-154 218.6192,-137.19 214.1351,-113.7536 212.4604,-97.1632"/>
<polygon fill="#191970" stroke="#191970" points="215.9316,-96.6469 211.6934,-86.9367 208.9512,-97.1705 215.9316,-96.6469"/>
</g>
<!-- Node12&#45;&gt;Node8 -->
<g id="edge15" class="edge">
<title>Node12&#45;&gt;Node8</title>
<path fill="none" stroke="#191970" d="M412.9357,-262.9005C415.0866,-254.4234 418.3186,-241.6856 421.1919,-230.3614"/>
<polygon fill="#191970" stroke="#191970" points="424.6216,-231.0754 423.6885,-220.5218 417.8366,-229.3538 424.6216,-231.0754"/>
</g>
</g>
</svg>
