<?xml version="1.0" encoding="UTF-8" standalone="no"?>
<!DOCTYPE svg PUBLIC "-//W3C//DTD SVG 1.1//EN"
 "http://www.w3.org/Graphics/SVG/1.1/DTD/svg11.dtd">
<!-- Generated by graphviz version 2.40.1 (20161225.0304)
 -->
<!-- Title: MultiSpeciesReferencePlugin.cpp Pages: 1 -->
<svg width="568pt" height="408pt"
 viewBox="0.00 0.00 568.33 408.00" xmlns="http://www.w3.org/2000/svg" xmlns:xlink="http://www.w3.org/1999/xlink">
<g id="graph0" class="graph" transform="scale(1 1) rotate(0) translate(4 404)">
<title>MultiSpeciesReferencePlugin.cpp</title>
<polygon fill="#ffffff" stroke="transparent" points="-4,4 -4,-404 564.3262,-404 564.3262,4 -4,4"/>
<!-- Node1 -->
<g id="node1" class="node">
<title>Node1</title>
<polygon fill="#bfbfbf" stroke="#000000" points="149,-380.5 149,-399.5 315,-399.5 315,-380.5 149,-380.5"/>
<text text-anchor="middle" x="232" y="-387.5" font-family="Helvetica,sans-Serif" font-size="10.00" fill="#000000">MultiSpeciesReferencePlugin.cpp</text>
</g>
<!-- Node2 -->
<g id="node2" class="node">
<title>Node2</title>
<g id="a_node2"><a xlink:href="_multi_species_reference_plugin_8h.html" target="_top" xlink:title=": Implementation of the MultiSpeciesReferencePlugin_t class ">
<polygon fill="#ffffff" stroke="#000000" points="0,-190.5 0,-231.5 168,-231.5 168,-190.5 0,-190.5"/>
<text text-anchor="start" x="8" y="-219.5" font-family="Helvetica,sans-Serif" font-size="10.00" fill="#000000">sbml/packages/multi</text>
<text text-anchor="start" x="8" y="-208.5" font-family="Helvetica,sans-Serif" font-size="10.00" fill="#000000">/extension/MultiSpeciesReference</text>
<text text-anchor="middle" x="84" y="-197.5" font-family="Helvetica,sans-Serif" font-size="10.00" fill="#000000">Plugin.h</text>
</a>
</g>
</g>
<!-- Node1&#45;&gt;Node2 -->
<g id="edge1" class="edge">
<title>Node1&#45;&gt;Node2</title>
<path fill="none" stroke="#191970" d="M199.1287,-380.4862C159.6167,-367.0804 95.1228,-338.4475 67,-288 59.0165,-273.679 62.2237,-255.9048 67.8982,-241.0429"/>
<polygon fill="#191970" stroke="#191970" points="71.1538,-242.3318 71.8905,-231.7626 64.7235,-239.5655 71.1538,-242.3318"/>
</g>
<!-- Node5 -->
<g id="node5" class="node">
<title>Node5</title>
<g id="a_node5"><a xlink:href="_element_filter_8h.html" target="_top" xlink:title="Base class of element filters. ">
<polygon fill="#ffffff" stroke="#000000" points="288.5,-324.5 288.5,-343.5 411.5,-343.5 411.5,-324.5 288.5,-324.5"/>
<text text-anchor="middle" x="350" y="-331.5" font-family="Helvetica,sans-Serif" font-size="10.00" fill="#000000">sbml/util/ElementFilter.h</text>
</a>
</g>
</g>
<!-- Node1&#45;&gt;Node5 -->
<g id="edge4" class="edge">
<title>Node1&#45;&gt;Node5</title>
<path fill="none" stroke="#191970" d="M252.2849,-380.3733C271.1421,-371.4241 299.446,-357.9917 320.7455,-347.8835"/>
<polygon fill="#191970" stroke="#191970" points="322.4461,-350.9506 329.9798,-343.5011 319.4449,-344.6266 322.4461,-350.9506"/>
</g>
<!-- Node6 -->
<g id="node6" class="node">
<title>Node6</title>
<g id="a_node6"><a xlink:href="_model_8h.html" target="_top" xlink:title="Definition of Model_t. ">
<polygon fill="#ffffff" stroke="#000000" points="194,-324.5 194,-343.5 270,-343.5 270,-324.5 194,-324.5"/>
<text text-anchor="middle" x="232" y="-331.5" font-family="Helvetica,sans-Serif" font-size="10.00" fill="#000000">sbml/Model.h</text>
</a>
</g>
</g>
<!-- Node1&#45;&gt;Node6 -->
<g id="edge5" class="edge">
<title>Node1&#45;&gt;Node6</title>
<path fill="none" stroke="#191970" d="M232,-380.2455C232,-372.9382 232,-362.6944 232,-353.7046"/>
<polygon fill="#191970" stroke="#191970" points="235.5001,-353.6426 232,-343.6427 228.5001,-353.6427 235.5001,-353.6426"/>
</g>
<!-- Node3 -->
<g id="node3" class="node">
<title>Node3</title>
<g id="a_node3"><a xlink:href="extern_8h.html" target="_top" xlink:title="Definitions of LIBSBML_EXTERN and related things. ">
<polygon fill="#ffffff" stroke="#000000" points="211,-67.5 211,-86.5 329,-86.5 329,-67.5 211,-67.5"/>
<text text-anchor="middle" x="270" y="-74.5" font-family="Helvetica,sans-Serif" font-size="10.00" fill="#000000">sbml/common/extern.h</text>
</a>
</g>
</g>
<!-- Node2&#45;&gt;Node3 -->
<g id="edge2" class="edge">
<title>Node2&#45;&gt;Node3</title>
<path fill="none" stroke="#191970" d="M112.6549,-190.3562C150.0725,-163.3994 214.7472,-116.8057 248.3388,-92.6054"/>
<polygon fill="#191970" stroke="#191970" points="250.4901,-95.3693 256.5579,-86.6841 246.3983,-89.6897 250.4901,-95.3693"/>
</g>
<!-- Node4 -->
<g id="node4" class="node">
<title>Node4</title>
<g id="a_node4"><a xlink:href="libsbml-namespace_8h.html" target="_top" xlink:title="Defines C++ namespace of libSBML. ">
<polygon fill="#ffffff" stroke="#000000" points="363.5,-.5 363.5,-30.5 476.5,-30.5 476.5,-.5 363.5,-.5"/>
<text text-anchor="start" x="371.5" y="-18.5" font-family="Helvetica,sans-Serif" font-size="10.00" fill="#000000">sbml/common/libsbml</text>
<text text-anchor="middle" x="420" y="-7.5" font-family="Helvetica,sans-Serif" font-size="10.00" fill="#000000">&#45;namespace.h</text>
</a>
</g>
</g>
<!-- Node3&#45;&gt;Node4 -->
<g id="edge3" class="edge">
<title>Node3&#45;&gt;Node4</title>
<path fill="none" stroke="#191970" d="M293.4375,-67.3906C314.866,-58.6049 347.1788,-45.3567 373.7903,-34.446"/>
<polygon fill="#191970" stroke="#191970" points="375.3811,-37.5766 383.3059,-30.5446 372.7256,-31.0998 375.3811,-37.5766"/>
</g>
<!-- Node6&#45;&gt;Node3 -->
<g id="edge11" class="edge">
<title>Node6&#45;&gt;Node3</title>
<path fill="none" stroke="#191970" d="M233.4432,-324.2391C239.0511,-286.3126 259.4588,-148.2919 267.0922,-96.6658"/>
<polygon fill="#191970" stroke="#191970" points="270.5549,-97.175 268.5553,-86.7706 263.6302,-96.1511 270.5549,-97.175"/>
</g>
<!-- Node7 -->
<g id="node7" class="node">
<title>Node7</title>
<g id="a_node7"><a xlink:href="libsbml-config_8h.html" target="_top" xlink:title="Decides whether to #include Unix or Windows configuration variables. ">
<polygon fill="#ffffff" stroke="#000000" points="359.5,-196 359.5,-226 472.5,-226 472.5,-196 359.5,-196"/>
<text text-anchor="start" x="367.5" y="-214" font-family="Helvetica,sans-Serif" font-size="10.00" fill="#000000">sbml/common/libsbml</text>
<text text-anchor="middle" x="416" y="-203" font-family="Helvetica,sans-Serif" font-size="10.00" fill="#000000">&#45;config.h</text>
</a>
</g>
</g>
<!-- Node6&#45;&gt;Node7 -->
<g id="edge6" class="edge">
<title>Node6&#45;&gt;Node7</title>
<path fill="none" stroke="#191970" d="M270.3602,-325.4483C316.2563,-314.8897 388.0685,-297.2032 397,-288 410.2151,-274.3828 414.7082,-253.1122 416.0403,-236.3745"/>
<polygon fill="#191970" stroke="#191970" points="419.5471,-236.3089 416.519,-226.156 412.5547,-235.9812 419.5471,-236.3089"/>
</g>
<!-- Node10 -->
<g id="node10" class="node">
<title>Node10</title>
<polygon fill="#ffffff" stroke="#bfbfbf" points="76.5,-268.5 76.5,-287.5 203.5,-287.5 203.5,-268.5 76.5,-268.5"/>
<text text-anchor="middle" x="140" y="-275.5" font-family="Helvetica,sans-Serif" font-size="10.00" fill="#000000">sbml/common/sbmlfwd.h</text>
</g>
<!-- Node6&#45;&gt;Node10 -->
<g id="edge12" class="edge">
<title>Node6&#45;&gt;Node10</title>
<path fill="none" stroke="#191970" d="M215.9748,-324.2455C201.8592,-315.6534 181.0737,-303.0014 164.8101,-293.1018"/>
<polygon fill="#191970" stroke="#191970" points="166.2034,-289.8525 155.8415,-287.6427 162.5637,-295.8319 166.2034,-289.8525"/>
</g>
<!-- Node11 -->
<g id="node11" class="node">
<title>Node11</title>
<g id="a_node11"><a xlink:href="_s_b_m_l_type_codes_8h.html" target="_top" xlink:title="Enumeration to identify SBML objects at runtime. ">
<polygon fill="#ffffff" stroke="#000000" points="260.5,-268.5 260.5,-287.5 387.5,-287.5 387.5,-268.5 260.5,-268.5"/>
<text text-anchor="middle" x="324" y="-275.5" font-family="Helvetica,sans-Serif" font-size="10.00" fill="#000000">sbml/SBMLTypeCodes.h</text>
</a>
</g>
</g>
<!-- Node6&#45;&gt;Node11 -->
<g id="edge13" class="edge">
<title>Node6&#45;&gt;Node11</title>
<path fill="none" stroke="#191970" d="M248.0252,-324.2455C262.1408,-315.6534 282.9263,-303.0014 299.1899,-293.1018"/>
<polygon fill="#191970" stroke="#191970" points="301.4363,-295.8319 308.1585,-287.6427 297.7966,-289.8525 301.4363,-295.8319"/>
</g>
<!-- Node7&#45;&gt;Node4 -->
<g id="edge7" class="edge">
<title>Node7&#45;&gt;Node4</title>
<path fill="none" stroke="#191970" d="M472.8151,-202.3387C501.6988,-194.7456 534.3476,-180.5386 552,-154 583.6928,-106.3531 512.9505,-60.1121 463.2894,-34.9627"/>
<polygon fill="#191970" stroke="#191970" points="464.8071,-31.8087 454.2914,-30.5166 461.7062,-38.0844 464.8071,-31.8087"/>
</g>
<!-- Node8 -->
<g id="node8" class="node">
<title>Node8</title>
<g id="a_node8"><a xlink:href="libsbml-config-common_8h.html" target="_top" xlink:title="Configuration variables. ">
<polygon fill="#ffffff" stroke="#000000" points="429.5,-123.5 429.5,-153.5 542.5,-153.5 542.5,-123.5 429.5,-123.5"/>
<text text-anchor="start" x="437.5" y="-141.5" font-family="Helvetica,sans-Serif" font-size="10.00" fill="#000000">sbml/common/libsbml</text>
<text text-anchor="middle" x="486" y="-130.5" font-family="Helvetica,sans-Serif" font-size="10.00" fill="#000000">&#45;config&#45;common.h</text>
</a>
</g>
</g>
<!-- Node7&#45;&gt;Node8 -->
<g id="edge8" class="edge">
<title>Node7&#45;&gt;Node8</title>
<path fill="none" stroke="#191970" d="M430.504,-195.978C440.2652,-185.8682 453.3103,-172.3572 464.3001,-160.9749"/>
<polygon fill="#191970" stroke="#191970" points="467.0865,-163.1279 471.5145,-153.5028 462.0506,-158.2658 467.0865,-163.1279"/>
</g>
<!-- Node9 -->
<g id="node9" class="node">
<title>Node9</title>
<g id="a_node9"><a xlink:href="libsbml-version_8h.html" target="_top" xlink:title="Define libSBML version numbers for access from client software. ">
<polygon fill="#ffffff" stroke="#000000" points="298.5,-123.5 298.5,-153.5 411.5,-153.5 411.5,-123.5 298.5,-123.5"/>
<text text-anchor="start" x="306.5" y="-141.5" font-family="Helvetica,sans-Serif" font-size="10.00" fill="#000000">sbml/common/libsbml</text>
<text text-anchor="middle" x="355" y="-130.5" font-family="Helvetica,sans-Serif" font-size="10.00" fill="#000000">&#45;version.h</text>
</a>
</g>
</g>
<!-- Node7&#45;&gt;Node9 -->
<g id="edge9" class="edge">
<title>Node7&#45;&gt;Node9</title>
<path fill="none" stroke="#191970" d="M403.3608,-195.978C394.9364,-185.9654 383.7051,-172.6167 374.1866,-161.3038"/>
<polygon fill="#191970" stroke="#191970" points="376.7393,-158.9013 367.623,-153.5028 371.383,-163.408 376.7393,-158.9013"/>
</g>
<!-- Node9&#45;&gt;Node3 -->
<g id="edge10" class="edge">
<title>Node9&#45;&gt;Node3</title>
<path fill="none" stroke="#191970" d="M333.9888,-123.2977C321.2066,-114.0495 304.9054,-102.2551 291.9552,-92.8853"/>
<polygon fill="#191970" stroke="#191970" points="293.763,-89.8732 283.6096,-86.8469 289.6597,-95.5445 293.763,-89.8732"/>
</g>
<!-- Node11&#45;&gt;Node3 -->
<g id="edge15" class="edge">
<title>Node11&#45;&gt;Node3</title>
<path fill="none" stroke="#191970" d="M321.1679,-268.3829C315.0677,-247.5797 300.3225,-196.8187 289,-154 283.845,-134.5049 278.3698,-112.115 274.628,-96.5227"/>
<polygon fill="#191970" stroke="#191970" points="277.9642,-95.4239 272.2391,-86.5091 271.1553,-97.0484 277.9642,-95.4239"/>
</g>
<!-- Node11&#45;&gt;Node7 -->
<g id="edge14" class="edge">
<title>Node11&#45;&gt;Node7</title>
<path fill="none" stroke="#191970" d="M337.1814,-268.4005C350.1282,-258.9718 370.3124,-244.2725 387.0137,-232.1096"/>
<polygon fill="#191970" stroke="#191970" points="389.35,-234.738 395.3731,-226.0218 385.2291,-229.0795 389.35,-234.738"/>
</g>
</g>
</svg>
