<?xml version="1.0" encoding="UTF-8" standalone="no"?>
<!DOCTYPE svg PUBLIC "-//W3C//DTD SVG 1.1//EN"
 "http://www.w3.org/Graphics/SVG/1.1/DTD/svg11.dtd">
<!-- Generated by graphviz version 2.40.1 (20161225.0304)
 -->
<!-- Title: Objective.cpp Pages: 1 -->
<svg width="1586pt" height="542pt"
 viewBox="0.00 0.00 1586.00 542.00" xmlns="http://www.w3.org/2000/svg" xmlns:xlink="http://www.w3.org/1999/xlink">
<g id="graph0" class="graph" transform="scale(1 1) rotate(0) translate(4 538)">
<title>Objective.cpp</title>
<polygon fill="#ffffff" stroke="transparent" points="-4,4 -4,-538 1582,-538 1582,4 -4,4"/>
<!-- Node1 -->
<g id="node1" class="node">
<title>Node1</title>
<polygon fill="#bfbfbf" stroke="#000000" points="412,-514.5 412,-533.5 489,-533.5 489,-514.5 412,-514.5"/>
<text text-anchor="middle" x="450.5" y="-521.5" font-family="Helvetica,sans-Serif" font-size="10.00" fill="#000000">Objective.cpp</text>
</g>
<!-- Node2 -->
<g id="node2" class="node">
<title>Node2</title>
<polygon fill="#ffffff" stroke="#bfbfbf" points="0,-453 0,-472 55,-472 55,-453 0,-453"/>
<text text-anchor="middle" x="27.5" y="-460" font-family="Helvetica,sans-Serif" font-size="10.00" fill="#000000">iostream</text>
</g>
<!-- Node1&#45;&gt;Node2 -->
<g id="edge1" class="edge">
<title>Node1&#45;&gt;Node2</title>
<path fill="none" stroke="#191970" d="M411.9073,-523.0742C341.4981,-520.5839 187.9799,-511.4394 63.5,-478 61.1712,-477.3744 58.7972,-476.625 56.4353,-475.798"/>
<polygon fill="#191970" stroke="#191970" points="57.5277,-472.4671 46.9399,-472.0805 54.9757,-478.9853 57.5277,-472.4671"/>
</g>
<!-- Node3 -->
<g id="node3" class="node">
<title>Node3</title>
<polygon fill="#ffffff" stroke="#bfbfbf" points="73,-453 73,-472 112,-472 112,-453 73,-453"/>
<text text-anchor="middle" x="92.5" y="-460" font-family="Helvetica,sans-Serif" font-size="10.00" fill="#000000">limits</text>
</g>
<!-- Node1&#45;&gt;Node3 -->
<g id="edge2" class="edge">
<title>Node1&#45;&gt;Node3</title>
<path fill="none" stroke="#191970" d="M411.7746,-522.9624C349.2453,-520.3269 222.8131,-510.9999 121.5,-478 120.0751,-477.5359 118.6376,-477.004 117.2049,-476.4231"/>
<polygon fill="#191970" stroke="#191970" points="118.5441,-473.1849 108.0073,-472.0774 115.5537,-479.514 118.5441,-473.1849"/>
</g>
<!-- Node4 -->
<g id="node4" class="node">
<title>Node4</title>
<g id="a_node4"><a xlink:href="_s_b_m_l_visitor_8h.html" target="_top" xlink:title="Visitor Design Pattern for the SBML object tree. ">
<polygon fill="#ffffff" stroke="#000000" points="130.5,-453 130.5,-472 234.5,-472 234.5,-453 130.5,-453"/>
<text text-anchor="middle" x="182.5" y="-460" font-family="Helvetica,sans-Serif" font-size="10.00" fill="#000000">sbml/SBMLVisitor.h</text>
</a>
</g>
</g>
<!-- Node1&#45;&gt;Node4 -->
<g id="edge3" class="edge">
<title>Node1&#45;&gt;Node4</title>
<path fill="none" stroke="#191970" d="M411.7574,-515.2592C371.0805,-506.0628 305.2684,-491.1296 248.5,-478 243.4687,-476.8363 238.2233,-475.6163 232.9851,-474.3933"/>
<polygon fill="#191970" stroke="#191970" points="233.513,-470.9224 222.9786,-472.052 231.9182,-477.7383 233.513,-470.9224"/>
</g>
<!-- Node5 -->
<g id="node5" class="node">
<title>Node5</title>
<g id="a_node5"><a xlink:href="_x_m_l_node_8h.html" target="_top" xlink:title="Class definition of XMLNode_t, a node in an XML document tree. ">
<polygon fill="#ffffff" stroke="#000000" points="276.5,-391.5 276.5,-410.5 388.5,-410.5 388.5,-391.5 276.5,-391.5"/>
<text text-anchor="middle" x="332.5" y="-398.5" font-family="Helvetica,sans-Serif" font-size="10.00" fill="#000000">sbml/xml/XMLNode.h</text>
</a>
</g>
</g>
<!-- Node1&#45;&gt;Node5 -->
<g id="edge4" class="edge">
<title>Node1&#45;&gt;Node5</title>
<path fill="none" stroke="#191970" d="M440.0005,-514.3309C430.1394,-505.1584 415.0635,-490.8984 402.5,-478 383.1423,-458.1262 361.8205,-434.3887 347.8563,-418.5738"/>
<polygon fill="#191970" stroke="#191970" points="350.1458,-415.8772 340.9145,-410.6778 344.8886,-420.4991 350.1458,-415.8772"/>
</g>
<!-- Node8 -->
<g id="node8" class="node">
<title>Node8</title>
<g id="a_node8"><a xlink:href="_x_m_l_token_8h.html" target="_top" xlink:title="A unit of XML syntax, either an XML element or text. ">
<polygon fill="#ffffff" stroke="#000000" points="278,-330 278,-349 393,-349 393,-330 278,-330"/>
<text text-anchor="middle" x="335.5" y="-337" font-family="Helvetica,sans-Serif" font-size="10.00" fill="#000000">sbml/xml/XMLToken.h</text>
</a>
</g>
</g>
<!-- Node1&#45;&gt;Node8 -->
<g id="edge18" class="edge">
<title>Node1&#45;&gt;Node8</title>
<path fill="none" stroke="#191970" d="M448.3602,-514.1649C442.9512,-490.9437 427.0168,-431.617 397.5,-391 387.1403,-376.7443 371.9688,-364.0512 359.227,-354.8332"/>
<polygon fill="#191970" stroke="#191970" points="361.0911,-351.8664 350.8829,-349.0303 357.0944,-357.6133 361.0911,-351.8664"/>
</g>
<!-- Node9 -->
<g id="node9" class="node">
<title>Node9</title>
<g id="a_node9"><a xlink:href="_x_m_l_attributes_8h.html" target="_top" xlink:title="XMLAttributes_t are a list of name/value pairs for XML elements. ">
<polygon fill="#ffffff" stroke="#000000" points="270.5,-263 270.5,-282 400.5,-282 400.5,-263 270.5,-263"/>
<text text-anchor="middle" x="335.5" y="-270" font-family="Helvetica,sans-Serif" font-size="10.00" fill="#000000">sbml/xml/XMLAttributes.h</text>
</a>
</g>
</g>
<!-- Node1&#45;&gt;Node9 -->
<g id="edge19" class="edge">
<title>Node1&#45;&gt;Node9</title>
<path fill="none" stroke="#191970" d="M416.5275,-514.4507C372.8132,-500.1087 298.7844,-468.3689 267.5,-411 260.181,-397.5786 245.4447,-369.9331 268.5,-324 276.4363,-308.1886 291.7617,-295.8461 305.7544,-287.2127"/>
<polygon fill="#191970" stroke="#191970" points="307.7502,-290.1021 314.666,-282.0757 304.2543,-284.0375 307.7502,-290.1021"/>
</g>
<!-- Node13 -->
<g id="node13" class="node">
<title>Node13</title>
<g id="a_node13"><a xlink:href="_x_m_l_input_stream_8h.html" target="_top" xlink:title="XMLInputStream_t. ">
<polygon fill="#ffffff" stroke="#000000" points="444.5,-391.5 444.5,-410.5 586.5,-410.5 586.5,-391.5 444.5,-391.5"/>
<text text-anchor="middle" x="515.5" y="-398.5" font-family="Helvetica,sans-Serif" font-size="10.00" fill="#000000">sbml/xml/XMLInputStream.h</text>
</a>
</g>
</g>
<!-- Node1&#45;&gt;Node13 -->
<g id="edge20" class="edge">
<title>Node1&#45;&gt;Node13</title>
<path fill="none" stroke="#191970" d="M455.6004,-514.3484C466.3748,-493.9601 491.6121,-446.2033 505.6465,-419.6459"/>
<polygon fill="#191970" stroke="#191970" points="508.8454,-421.0835 510.4233,-410.6068 502.6564,-417.8128 508.8454,-421.0835"/>
</g>
<!-- Node24 -->
<g id="node24" class="node">
<title>Node24</title>
<g id="a_node24"><a xlink:href="_x_m_l_output_stream_8h.html" target="_top" xlink:title="XMLOutputStream_t. ">
<polygon fill="#ffffff" stroke="#000000" points="604.5,-391.5 604.5,-410.5 754.5,-410.5 754.5,-391.5 604.5,-391.5"/>
<text text-anchor="middle" x="679.5" y="-398.5" font-family="Helvetica,sans-Serif" font-size="10.00" fill="#000000">sbml/xml/XMLOutputStream.h</text>
</a>
</g>
</g>
<!-- Node1&#45;&gt;Node24 -->
<g id="edge43" class="edge">
<title>Node1&#45;&gt;Node24</title>
<path fill="none" stroke="#191970" d="M468.4692,-514.3484C508.5182,-492.8374 605.2877,-440.8608 652.5792,-415.4596"/>
<polygon fill="#191970" stroke="#191970" points="654.4607,-418.422 661.6142,-410.6068 651.1484,-412.2553 654.4607,-418.422"/>
</g>
<!-- Node25 -->
<g id="node25" class="node">
<title>Node25</title>
<g id="a_node25"><a xlink:href="_objective_8h.html" target="_top" xlink:title="Definition of Objective_t, the SBase_t derived class of the fbc package. ">
<polygon fill="#ffffff" stroke="#000000" points="773,-257.5 773,-287.5 896,-287.5 896,-257.5 773,-257.5"/>
<text text-anchor="start" x="781" y="-275.5" font-family="Helvetica,sans-Serif" font-size="10.00" fill="#000000">sbml/packages/fbc/sbml</text>
<text text-anchor="middle" x="834.5" y="-264.5" font-family="Helvetica,sans-Serif" font-size="10.00" fill="#000000">/Objective.h</text>
</a>
</g>
</g>
<!-- Node1&#45;&gt;Node25 -->
<g id="edge45" class="edge">
<title>Node1&#45;&gt;Node25</title>
<path fill="none" stroke="#191970" d="M489.0229,-519.938C553.6548,-511.1998 684.5843,-484.995 763.5,-411 794.28,-382.1393 781.6112,-361.2127 801.5,-324 806.4781,-314.6859 812.5688,-304.836 818.1563,-296.2725"/>
<polygon fill="#191970" stroke="#191970" points="821.1072,-298.1556 823.7292,-287.8903 815.278,-294.28 821.1072,-298.1556"/>
</g>
<!-- Node27 -->
<g id="node27" class="node">
<title>Node27</title>
<g id="a_node27"><a xlink:href="_fbc_extension_8h.html" target="_top" xlink:title="Definition of FbcExtension_t, the core module of fbc package. ">
<polygon fill="#ffffff" stroke="#000000" points="1417,-324.5 1417,-354.5 1562,-354.5 1562,-324.5 1417,-324.5"/>
<text text-anchor="start" x="1425" y="-342.5" font-family="Helvetica,sans-Serif" font-size="10.00" fill="#000000">sbml/packages/fbc/extension</text>
<text text-anchor="middle" x="1489.5" y="-331.5" font-family="Helvetica,sans-Serif" font-size="10.00" fill="#000000">/FbcExtension.h</text>
</a>
</g>
</g>
<!-- Node1&#45;&gt;Node27 -->
<g id="edge49" class="edge">
<title>Node1&#45;&gt;Node27</title>
<path fill="none" stroke="#191970" d="M489.0971,-522.5315C645.908,-516.0937 1234.8896,-487.2082 1402.5,-411 1428.0419,-399.3868 1452.2883,-378.3234 1468.6644,-362.0553"/>
<polygon fill="#191970" stroke="#191970" points="1471.5492,-364.1116 1476.0425,-354.5168 1466.5465,-359.2153 1471.5492,-364.1116"/>
</g>
<!-- Node29 -->
<g id="node29" class="node">
<title>Node29</title>
<g id="a_node29"><a xlink:href="_fbc_s_b_m_l_error_8h.html" target="_top" xlink:title="Represents SBML errors and other diagnostics. ">
<polygon fill="#ffffff" stroke="#000000" points="852.5,-447.5 852.5,-477.5 992.5,-477.5 992.5,-447.5 852.5,-447.5"/>
<text text-anchor="start" x="860.5" y="-465.5" font-family="Helvetica,sans-Serif" font-size="10.00" fill="#000000">sbml/packages/fbc/validator</text>
<text text-anchor="middle" x="922.5" y="-454.5" font-family="Helvetica,sans-Serif" font-size="10.00" fill="#000000">/FbcSBMLError.h</text>
</a>
</g>
</g>
<!-- Node1&#45;&gt;Node29 -->
<g id="edge54" class="edge">
<title>Node1&#45;&gt;Node29</title>
<path fill="none" stroke="#191970" d="M489.1257,-518.9672C566.046,-508.9448 739.7754,-486.3084 842.3827,-472.939"/>
<polygon fill="#191970" stroke="#191970" points="842.9263,-476.3979 852.3902,-471.6351 842.0218,-469.4565 842.9263,-476.3979"/>
</g>
<!-- Node32 -->
<g id="node32" class="node">
<title>Node32</title>
<g id="a_node32"><a xlink:href="_element_filter_8h.html" target="_top" xlink:title="Base class of element filters. ">
<polygon fill="#ffffff" stroke="#000000" points="1455,-453 1455,-472 1578,-472 1578,-453 1455,-453"/>
<text text-anchor="middle" x="1516.5" y="-460" font-family="Helvetica,sans-Serif" font-size="10.00" fill="#000000">sbml/util/ElementFilter.h</text>
</a>
</g>
</g>
<!-- Node1&#45;&gt;Node32 -->
<g id="edge65" class="edge">
<title>Node1&#45;&gt;Node32</title>
<path fill="none" stroke="#191970" d="M489.0222,-523.0082C647.7071,-518.7992 1251.295,-501.5459 1440.5,-478 1448.6702,-476.9832 1457.2729,-475.568 1465.6354,-474.0027"/>
<polygon fill="#191970" stroke="#191970" points="1466.5315,-477.3937 1475.6715,-472.0356 1465.185,-470.5244 1466.5315,-477.3937"/>
</g>
<!-- Node6 -->
<g id="node6" class="node">
<title>Node6</title>
<g id="a_node6"><a xlink:href="_x_m_l_extern_8h.html" target="_top" xlink:title="Defines LIBLAX_EXTERN. ">
<polygon fill="#ffffff" stroke="#000000" points="261,-196 261,-215 378,-215 378,-196 261,-196"/>
<text text-anchor="middle" x="319.5" y="-203" font-family="Helvetica,sans-Serif" font-size="10.00" fill="#000000">sbml/xml/XMLExtern.h</text>
</a>
</g>
</g>
<!-- Node5&#45;&gt;Node6 -->
<g id="edge5" class="edge">
<title>Node5&#45;&gt;Node6</title>
<path fill="none" stroke="#191970" d="M315.3682,-391.2769C287.9147,-374.478 235.5234,-337.0533 219.5,-288 215.2219,-274.9032 212.3266,-268.7631 219.5,-257 230.7714,-238.5169 251.0335,-226.3841 270.3859,-218.5678"/>
<polygon fill="#191970" stroke="#191970" points="271.6229,-221.8421 279.7697,-215.0686 269.177,-215.2832 271.6229,-221.8421"/>
</g>
<!-- Node5&#45;&gt;Node8 -->
<g id="edge7" class="edge">
<title>Node5&#45;&gt;Node8</title>
<path fill="none" stroke="#191970" d="M332.9688,-391.3906C333.3846,-382.8657 334.0054,-370.1392 334.5281,-359.4235"/>
<polygon fill="#191970" stroke="#191970" points="338.0332,-359.4035 335.0246,-349.2449 331.0415,-359.0624 338.0332,-359.4035"/>
</g>
<!-- Node10 -->
<g id="node10" class="node">
<title>Node10</title>
<polygon fill="#ffffff" stroke="#bfbfbf" points="567,-196 567,-215 694,-215 694,-196 567,-196"/>
<text text-anchor="middle" x="630.5" y="-203" font-family="Helvetica,sans-Serif" font-size="10.00" fill="#000000">sbml/common/sbmlfwd.h</text>
</g>
<!-- Node5&#45;&gt;Node10 -->
<g id="edge17" class="edge">
<title>Node5&#45;&gt;Node10</title>
<path fill="none" stroke="#191970" d="M374.3984,-391.4617C449.7321,-373.3705 603.0655,-331.934 633.5,-288 646.2664,-269.5709 642.3116,-242.8617 637.3034,-224.8716"/>
<polygon fill="#191970" stroke="#191970" points="640.5979,-223.6798 634.2703,-215.182 633.9175,-225.771 640.5979,-223.6798"/>
</g>
<!-- Node7 -->
<g id="node7" class="node">
<title>Node7</title>
<g id="a_node7"><a xlink:href="libsbml-namespace_8h.html" target="_top" xlink:title="Defines C++ namespace of libSBML. ">
<polygon fill="#ffffff" stroke="#000000" points="938,-.5 938,-30.5 1051,-30.5 1051,-.5 938,-.5"/>
<text text-anchor="start" x="946" y="-18.5" font-family="Helvetica,sans-Serif" font-size="10.00" fill="#000000">sbml/common/libsbml</text>
<text text-anchor="middle" x="994.5" y="-7.5" font-family="Helvetica,sans-Serif" font-size="10.00" fill="#000000">&#45;namespace.h</text>
</a>
</g>
</g>
<!-- Node6&#45;&gt;Node7 -->
<g id="edge6" class="edge">
<title>Node6&#45;&gt;Node7</title>
<path fill="none" stroke="#191970" d="M353.4359,-195.9477C460.3462,-165.8544 791.3334,-72.6876 931.1418,-33.3342"/>
<polygon fill="#191970" stroke="#191970" points="932.1943,-36.674 940.8719,-30.5953 930.2976,-29.9358 932.1943,-36.674"/>
</g>
<!-- Node8&#45;&gt;Node6 -->
<g id="edge8" class="edge">
<title>Node8&#45;&gt;Node6</title>
<path fill="none" stroke="#191970" d="M290.8919,-329.985C268.0451,-322.6086 242.2129,-309.8187 228.5,-288 221.1685,-276.3348 221.5598,-268.9022 228.5,-257 238.9343,-239.1055 258.1469,-226.9313 276.2389,-218.9333"/>
<polygon fill="#191970" stroke="#191970" points="277.6169,-222.1512 285.5454,-215.1234 274.9648,-215.6731 277.6169,-222.1512"/>
</g>
<!-- Node8&#45;&gt;Node8 -->
<g id="edge15" class="edge">
<title>Node8&#45;&gt;Node8</title>
<path fill="none" stroke="#191970" d="M363.3774,-349.0334C386.6659,-353.1075 411,-349.9297 411,-339.5 411,-330.5777 393.1916,-326.9626 373.464,-328.6546"/>
<polygon fill="#191970" stroke="#191970" points="372.8423,-325.2059 363.3774,-329.9666 373.7453,-332.1474 372.8423,-325.2059"/>
</g>
<!-- Node8&#45;&gt;Node9 -->
<g id="edge9" class="edge">
<title>Node8&#45;&gt;Node9</title>
<path fill="none" stroke="#191970" d="M335.5,-329.9005C335.5,-320.149 335.5,-304.7597 335.5,-292.3695"/>
<polygon fill="#191970" stroke="#191970" points="339.0001,-292.0816 335.5,-282.0817 332.0001,-292.0817 339.0001,-292.0816"/>
</g>
<!-- Node8&#45;&gt;Node10 -->
<g id="edge16" class="edge">
<title>Node8&#45;&gt;Node10</title>
<path fill="none" stroke="#191970" d="M390.6768,-329.9833C470.0655,-316.1814 607.5036,-291.8324 611.5,-288 628.2702,-271.9179 631.5738,-244.2378 631.6476,-225.4164"/>
<polygon fill="#191970" stroke="#191970" points="635.1425,-225.1738 631.3816,-215.269 628.1449,-225.3573 635.1425,-225.1738"/>
</g>
<!-- Node9&#45;&gt;Node6 -->
<g id="edge10" class="edge">
<title>Node9&#45;&gt;Node6</title>
<path fill="none" stroke="#191970" d="M333.2076,-262.9005C330.8551,-253.0495 327.1287,-237.4451 324.1546,-224.9912"/>
<polygon fill="#191970" stroke="#191970" points="327.5153,-223.9952 321.7882,-215.0817 320.7067,-225.6212 327.5153,-223.9952"/>
</g>
<!-- Node9&#45;&gt;Node10 -->
<g id="edge11" class="edge">
<title>Node9&#45;&gt;Node10</title>
<path fill="none" stroke="#191970" d="M377.453,-262.9717C430.2745,-250.975 521.0192,-230.3651 578.278,-217.3606"/>
<polygon fill="#191970" stroke="#191970" points="579.2376,-220.7319 588.2141,-215.1039 577.6872,-213.9057 579.2376,-220.7319"/>
</g>
<!-- Node11 -->
<g id="node11" class="node">
<title>Node11</title>
<g id="a_node11"><a xlink:href="operation_return_values_8h.html" target="_top" xlink:title="Enumeration of values returned by operations within libSBML. ">
<polygon fill="#ffffff" stroke="#000000" points="396,-190.5 396,-220.5 549,-220.5 549,-190.5 396,-190.5"/>
<text text-anchor="start" x="404" y="-208.5" font-family="Helvetica,sans-Serif" font-size="10.00" fill="#000000">sbml/common/operationReturn</text>
<text text-anchor="middle" x="472.5" y="-197.5" font-family="Helvetica,sans-Serif" font-size="10.00" fill="#000000">Values.h</text>
</a>
</g>
</g>
<!-- Node9&#45;&gt;Node11 -->
<g id="edge12" class="edge">
<title>Node9&#45;&gt;Node11</title>
<path fill="none" stroke="#191970" d="M355.1288,-262.9005C375.2927,-253.0393 407.2454,-237.4128 432.7238,-224.9526"/>
<polygon fill="#191970" stroke="#191970" points="434.3382,-228.0592 441.7839,-220.5218 431.2629,-221.7709 434.3382,-228.0592"/>
</g>
<!-- Node12 -->
<g id="node12" class="node">
<title>Node12</title>
<g id="a_node12"><a xlink:href="extern_8h.html" target="_top" xlink:title="Definitions of LIBSBML_EXTERN and related things. ">
<polygon fill="#ffffff" stroke="#000000" points="935.5,-67.5 935.5,-86.5 1053.5,-86.5 1053.5,-67.5 935.5,-67.5"/>
<text text-anchor="middle" x="994.5" y="-74.5" font-family="Helvetica,sans-Serif" font-size="10.00" fill="#000000">sbml/common/extern.h</text>
</a>
</g>
</g>
<!-- Node11&#45;&gt;Node12 -->
<g id="edge13" class="edge">
<title>Node11&#45;&gt;Node12</title>
<path fill="none" stroke="#191970" d="M533.6581,-190.4448C638.4708,-164.6432 850.337,-112.4884 945.8537,-88.9752"/>
<polygon fill="#191970" stroke="#191970" points="946.9471,-92.3106 955.8205,-86.5217 945.2738,-85.5135 946.9471,-92.3106"/>
</g>
<!-- Node12&#45;&gt;Node7 -->
<g id="edge14" class="edge">
<title>Node12&#45;&gt;Node7</title>
<path fill="none" stroke="#191970" d="M994.5,-67.3906C994.5,-60.2234 994.5,-50.0862 994.5,-40.671"/>
<polygon fill="#191970" stroke="#191970" points="998.0001,-40.5446 994.5,-30.5446 991.0001,-40.5446 998.0001,-40.5446"/>
</g>
<!-- Node13&#45;&gt;Node6 -->
<g id="edge21" class="edge">
<title>Node13&#45;&gt;Node6</title>
<path fill="none" stroke="#191970" d="M506.5526,-391.2768C490.8095,-374.7857 456.4066,-341.4288 420.5,-324 355.3176,-292.3609 306.7244,-344.6086 261.5,-288 243.5732,-265.5605 272.4368,-238.0034 295.486,-221.1013"/>
<polygon fill="#191970" stroke="#191970" points="297.7509,-223.7877 303.9254,-215.178 293.7295,-218.0581 297.7509,-223.7877"/>
</g>
<!-- Node13&#45;&gt;Node8 -->
<g id="edge22" class="edge">
<title>Node13&#45;&gt;Node8</title>
<path fill="none" stroke="#191970" d="M487.375,-391.3906C456.5972,-380.8749 407.1079,-363.966 373.0345,-352.3243"/>
<polygon fill="#191970" stroke="#191970" points="374.022,-348.9631 363.4275,-349.0419 371.7588,-355.5871 374.022,-348.9631"/>
</g>
<!-- Node13&#45;&gt;Node10 -->
<g id="edge23" class="edge">
<title>Node13&#45;&gt;Node10</title>
<path fill="none" stroke="#191970" d="M544.0943,-391.377C583.5707,-376.3566 653.2047,-343.1941 682.5,-288 688.9593,-275.8302 687.8033,-269.7162 682.5,-257 676.5761,-242.7957 664.6169,-230.5036 653.6597,-221.4942"/>
<polygon fill="#191970" stroke="#191970" points="655.6472,-218.607 645.5926,-215.2672 651.37,-224.1482 655.6472,-218.607"/>
</g>
<!-- Node13&#45;&gt;Node11 -->
<g id="edge24" class="edge">
<title>Node13&#45;&gt;Node11</title>
<path fill="none" stroke="#191970" d="M514.2924,-391.2217C512.0048,-375.7915 505.9114,-345.3568 491.5,-324 477.3668,-303.0555 458.3201,-310.833 447.5,-288 438.5235,-269.0574 446.8529,-246.147 456.2385,-229.2808"/>
<polygon fill="#191970" stroke="#191970" points="459.3066,-230.9702 461.4581,-220.5961 453.3068,-227.3642 459.3066,-230.9702"/>
</g>
<!-- Node14 -->
<g id="node14" class="node">
<title>Node14</title>
<g id="a_node14"><a xlink:href="_s_b_m_l_namespaces_8h.html" target="_top" xlink:title="SBMLNamespaces_t class to store level/version and namespace. ">
<polygon fill="#ffffff" stroke="#000000" points="810.5,-330 810.5,-349 944.5,-349 944.5,-330 810.5,-330"/>
<text text-anchor="middle" x="877.5" y="-337" font-family="Helvetica,sans-Serif" font-size="10.00" fill="#000000">sbml/SBMLNamespaces.h</text>
</a>
</g>
</g>
<!-- Node13&#45;&gt;Node14 -->
<g id="edge25" class="edge">
<title>Node13&#45;&gt;Node14</title>
<path fill="none" stroke="#191970" d="M571.6653,-391.4581C636.3619,-380.4668 742.5465,-362.4272 811.2303,-350.7585"/>
<polygon fill="#191970" stroke="#191970" points="812.2283,-354.1392 821.5008,-349.0137 811.0558,-347.2381 812.2283,-354.1392"/>
</g>
<!-- Node15 -->
<g id="node15" class="node">
<title>Node15</title>
<g id="a_node15"><a xlink:href="_x_m_l_namespaces_8h.html" target="_top" xlink:title="A list of XMLNamespace declarations (URI/prefix pairs) ">
<polygon fill="#ffffff" stroke="#000000" points="456.5,-263 456.5,-282 602.5,-282 602.5,-263 456.5,-263"/>
<text text-anchor="middle" x="529.5" y="-270" font-family="Helvetica,sans-Serif" font-size="10.00" fill="#000000">sbml/xml/XMLNamespaces.h</text>
</a>
</g>
</g>
<!-- Node14&#45;&gt;Node15 -->
<g id="edge26" class="edge">
<title>Node14&#45;&gt;Node15</title>
<path fill="none" stroke="#191970" d="M828.0097,-329.9717C765.093,-317.8584 656.5663,-296.9639 589.1471,-283.9838"/>
<polygon fill="#191970" stroke="#191970" points="589.5824,-280.5034 579.101,-282.0496 588.259,-287.3772 589.5824,-280.5034"/>
</g>
<!-- Node16 -->
<g id="node16" class="node">
<title>Node16</title>
<g id="a_node16"><a xlink:href="common_8h.html" target="_top" xlink:title="Common functions and macros for C and C++. ">
<polygon fill="#ffffff" stroke="#000000" points="1094.5,-263 1094.5,-282 1222.5,-282 1222.5,-263 1094.5,-263"/>
<text text-anchor="middle" x="1158.5" y="-270" font-family="Helvetica,sans-Serif" font-size="10.00" fill="#000000">sbml/common/common.h</text>
</a>
</g>
</g>
<!-- Node14&#45;&gt;Node16 -->
<g id="edge30" class="edge">
<title>Node14&#45;&gt;Node16</title>
<path fill="none" stroke="#191970" d="M917.462,-329.9717C967.6725,-317.9998 1053.8572,-297.4504 1108.4172,-284.4415"/>
<polygon fill="#191970" stroke="#191970" points="1109.3053,-287.8279 1118.2209,-282.1039 1107.6818,-281.0188 1109.3053,-287.8279"/>
</g>
<!-- Node15&#45;&gt;Node6 -->
<g id="edge27" class="edge">
<title>Node15&#45;&gt;Node6</title>
<path fill="none" stroke="#191970" d="M499.4121,-262.9005C462.532,-251.134 399.9242,-231.1591 359.1468,-218.1492"/>
<polygon fill="#191970" stroke="#191970" points="360.1228,-214.7868 349.5321,-215.0817 357.9951,-221.4557 360.1228,-214.7868"/>
</g>
<!-- Node15&#45;&gt;Node10 -->
<g id="edge28" class="edge">
<title>Node15&#45;&gt;Node10</title>
<path fill="none" stroke="#191970" d="M543.9708,-262.9005C560.6209,-251.8554 588.174,-233.5776 607.7114,-220.6172"/>
<polygon fill="#191970" stroke="#191970" points="609.6576,-223.5263 616.056,-215.0817 605.788,-217.693 609.6576,-223.5263"/>
</g>
<!-- Node15&#45;&gt;Node11 -->
<g id="edge29" class="edge">
<title>Node15&#45;&gt;Node11</title>
<path fill="none" stroke="#191970" d="M521.3333,-262.9005C513.6798,-253.9043 501.9443,-240.1099 491.8959,-228.2986"/>
<polygon fill="#191970" stroke="#191970" points="494.4253,-225.8704 485.2797,-220.5218 489.0937,-230.4063 494.4253,-225.8704"/>
</g>
<!-- Node16&#45;&gt;Node12 -->
<g id="edge37" class="edge">
<title>Node16&#45;&gt;Node12</title>
<path fill="none" stroke="#191970" d="M1114.4311,-262.9406C1063.3284,-251.4136 984.968,-232.1966 976.5,-221 948.4949,-183.9707 970.1334,-125.6382 984.4573,-95.8577"/>
<polygon fill="#191970" stroke="#191970" points="987.7498,-97.1016 989.1255,-86.5964 981.499,-93.9508 987.7498,-97.1016"/>
</g>
<!-- Node17 -->
<g id="node17" class="node">
<title>Node17</title>
<g id="a_node17"><a xlink:href="libsbml-config_8h.html" target="_top" xlink:title="Decides whether to #include Unix or Windows configuration variables. ">
<polygon fill="#ffffff" stroke="#000000" points="1290,-190.5 1290,-220.5 1403,-220.5 1403,-190.5 1290,-190.5"/>
<text text-anchor="start" x="1298" y="-208.5" font-family="Helvetica,sans-Serif" font-size="10.00" fill="#000000">sbml/common/libsbml</text>
<text text-anchor="middle" x="1346.5" y="-197.5" font-family="Helvetica,sans-Serif" font-size="10.00" fill="#000000">&#45;config.h</text>
</a>
</g>
</g>
<!-- Node16&#45;&gt;Node17 -->
<g id="edge31" class="edge">
<title>Node16&#45;&gt;Node17</title>
<path fill="none" stroke="#191970" d="M1185.4358,-262.9005C1213.8342,-252.7798 1259.2726,-236.5864 1294.658,-223.9756"/>
<polygon fill="#191970" stroke="#191970" points="1296.1047,-227.1757 1304.3494,-220.5218 1293.7547,-220.582 1296.1047,-227.1757"/>
</g>
<!-- Node20 -->
<g id="node20" class="node">
<title>Node20</title>
<polygon fill="#ffffff" stroke="#bfbfbf" points="1094.5,-129 1094.5,-148 1140.5,-148 1140.5,-129 1094.5,-129"/>
<text text-anchor="middle" x="1117.5" y="-136" font-family="Helvetica,sans-Serif" font-size="10.00" fill="#000000">stdio.h</text>
</g>
<!-- Node16&#45;&gt;Node20 -->
<g id="edge36" class="edge">
<title>Node16&#45;&gt;Node20</title>
<path fill="none" stroke="#191970" d="M1180.3521,-262.9516C1196.6503,-254.5159 1217.7173,-240.5086 1227.5,-221 1233.6759,-208.6839 1234.897,-201.6238 1227.5,-190 1207.218,-158.1283 1184.708,-170.0304 1150.5,-154 1149.3394,-153.4561 1148.1559,-152.9013 1146.9604,-152.3406"/>
<polygon fill="#191970" stroke="#191970" points="1148.2813,-149.0943 1137.7417,-148.0144 1145.3074,-155.4312 1148.2813,-149.0943"/>
</g>
<!-- Node21 -->
<g id="node21" class="node">
<title>Node21</title>
<g id="a_node21"><a xlink:href="memory_8h.html" target="_top" xlink:title="sbml/util/memory.h">
<polygon fill="#ffffff" stroke="#000000" points="1118.5,-196 1118.5,-215 1218.5,-215 1218.5,-196 1118.5,-196"/>
<text text-anchor="middle" x="1168.5" y="-203" font-family="Helvetica,sans-Serif" font-size="10.00" fill="#000000">sbml/util/memory.h</text>
</a>
</g>
</g>
<!-- Node16&#45;&gt;Node21 -->
<g id="edge38" class="edge">
<title>Node16&#45;&gt;Node21</title>
<path fill="none" stroke="#191970" d="M1159.9328,-262.9005C1161.4031,-253.0495 1163.7321,-237.4451 1165.5909,-224.9912"/>
<polygon fill="#191970" stroke="#191970" points="1169.0553,-225.4888 1167.0699,-215.0817 1162.132,-224.4554 1169.0553,-225.4888"/>
</g>
<!-- Node22 -->
<g id="node22" class="node">
<title>Node22</title>
<g id="a_node22"><a xlink:href="util_8h.html" target="_top" xlink:title="Utility functions. ">
<polygon fill="#ffffff" stroke="#000000" points="985,-196 985,-215 1062,-215 1062,-196 985,-196"/>
<text text-anchor="middle" x="1023.5" y="-203" font-family="Helvetica,sans-Serif" font-size="10.00" fill="#000000">sbml/util/util.h</text>
</a>
</g>
</g>
<!-- Node16&#45;&gt;Node22 -->
<g id="edge39" class="edge">
<title>Node16&#45;&gt;Node22</title>
<path fill="none" stroke="#191970" d="M1139.1578,-262.9005C1116.3013,-251.5569 1078.073,-232.5844 1051.8666,-219.5783"/>
<polygon fill="#191970" stroke="#191970" points="1053.3198,-216.3922 1042.8063,-215.0817 1050.2079,-222.6624 1053.3198,-216.3922"/>
</g>
<!-- Node17&#45;&gt;Node7 -->
<g id="edge32" class="edge">
<title>Node17&#45;&gt;Node7</title>
<path fill="none" stroke="#191970" d="M1373.0869,-190.4042C1398.6618,-173.9446 1430.9324,-146.7726 1412.5,-123 1369.7444,-67.8573 1167.9646,-36.0518 1061.1728,-22.8128"/>
<polygon fill="#191970" stroke="#191970" points="1061.4934,-19.326 1051.1431,-21.5894 1060.6457,-26.2745 1061.4934,-19.326"/>
</g>
<!-- Node18 -->
<g id="node18" class="node">
<title>Node18</title>
<g id="a_node18"><a xlink:href="libsbml-config-common_8h.html" target="_top" xlink:title="Configuration variables. ">
<polygon fill="#ffffff" stroke="#000000" points="1290,-123.5 1290,-153.5 1403,-153.5 1403,-123.5 1290,-123.5"/>
<text text-anchor="start" x="1298" y="-141.5" font-family="Helvetica,sans-Serif" font-size="10.00" fill="#000000">sbml/common/libsbml</text>
<text text-anchor="middle" x="1346.5" y="-130.5" font-family="Helvetica,sans-Serif" font-size="10.00" fill="#000000">&#45;config&#45;common.h</text>
</a>
</g>
</g>
<!-- Node17&#45;&gt;Node18 -->
<g id="edge33" class="edge">
<title>Node17&#45;&gt;Node18</title>
<path fill="none" stroke="#191970" d="M1346.5,-190.2967C1346.5,-182.5013 1346.5,-172.7991 1346.5,-163.9064"/>
<polygon fill="#191970" stroke="#191970" points="1350.0001,-163.6431 1346.5,-153.6432 1343.0001,-163.6432 1350.0001,-163.6431"/>
</g>
<!-- Node19 -->
<g id="node19" class="node">
<title>Node19</title>
<g id="a_node19"><a xlink:href="libsbml-version_8h.html" target="_top" xlink:title="Define libSBML version numbers for access from client software. ">
<polygon fill="#ffffff" stroke="#000000" points="1159,-123.5 1159,-153.5 1272,-153.5 1272,-123.5 1159,-123.5"/>
<text text-anchor="start" x="1167" y="-141.5" font-family="Helvetica,sans-Serif" font-size="10.00" fill="#000000">sbml/common/libsbml</text>
<text text-anchor="middle" x="1215.5" y="-130.5" font-family="Helvetica,sans-Serif" font-size="10.00" fill="#000000">&#45;version.h</text>
</a>
</g>
</g>
<!-- Node17&#45;&gt;Node19 -->
<g id="edge34" class="edge">
<title>Node17&#45;&gt;Node19</title>
<path fill="none" stroke="#191970" d="M1317.101,-190.4639C1298.5226,-180.9619 1274.309,-168.5779 1254.1801,-158.283"/>
<polygon fill="#191970" stroke="#191970" points="1255.751,-155.1552 1245.2541,-153.7177 1252.5635,-161.3874 1255.751,-155.1552"/>
</g>
<!-- Node19&#45;&gt;Node12 -->
<g id="edge35" class="edge">
<title>Node19&#45;&gt;Node12</title>
<path fill="none" stroke="#191970" d="M1161.4373,-123.4554C1123.7542,-112.9689 1074.1012,-99.1515 1038.767,-89.3187"/>
<polygon fill="#191970" stroke="#191970" points="1039.3194,-85.8394 1028.7472,-86.5303 1037.4427,-92.5832 1039.3194,-85.8394"/>
</g>
<!-- Node22&#45;&gt;Node12 -->
<g id="edge42" class="edge">
<title>Node22&#45;&gt;Node12</title>
<path fill="none" stroke="#191970" d="M1021.3203,-195.8416C1016.5757,-174.8184 1005.2333,-124.5598 998.9242,-96.6038"/>
<polygon fill="#191970" stroke="#191970" points="1002.3207,-95.7546 996.705,-86.7705 995.4924,-97.2957 1002.3207,-95.7546"/>
</g>
<!-- Node22&#45;&gt;Node20 -->
<g id="edge40" class="edge">
<title>Node22&#45;&gt;Node20</title>
<path fill="none" stroke="#191970" d="M1036.9679,-195.9005C1052.3244,-184.9549 1077.6463,-166.9064 1095.7976,-153.9688"/>
<polygon fill="#191970" stroke="#191970" points="1097.9454,-156.736 1104.0571,-148.0817 1093.8824,-151.0358 1097.9454,-156.736"/>
</g>
<!-- Node23 -->
<g id="node23" class="node">
<title>Node23</title>
<polygon fill="#ffffff" stroke="#bfbfbf" points="1023,-129 1023,-148 1076,-148 1076,-129 1023,-129"/>
<text text-anchor="middle" x="1049.5" y="-136" font-family="Helvetica,sans-Serif" font-size="10.00" fill="#000000">stdarg.h</text>
</g>
<!-- Node22&#45;&gt;Node23 -->
<g id="edge41" class="edge">
<title>Node22&#45;&gt;Node23</title>
<path fill="none" stroke="#191970" d="M1027.2252,-195.9005C1031.0866,-185.95 1037.226,-170.1292 1042.0823,-157.6147"/>
<polygon fill="#191970" stroke="#191970" points="1045.4269,-158.6706 1045.7817,-148.0817 1038.901,-156.1381 1045.4269,-158.6706"/>
</g>
<!-- Node24&#45;&gt;Node10 -->
<g id="edge44" class="edge">
<title>Node24&#45;&gt;Node10</title>
<path fill="none" stroke="#191970" d="M692.2248,-391.2466C702.0407,-382.8582 714.8633,-369.7955 720.5,-355 736.0062,-314.2981 742.3504,-294.6782 720.5,-257 710.1177,-239.0971 690.9106,-226.8878 672.8983,-218.8689"/>
<polygon fill="#191970" stroke="#191970" points="674.22,-215.6281 663.641,-215.0495 671.5502,-222.099 674.22,-215.6281"/>
</g>
<!-- Node25&#45;&gt;Node10 -->
<g id="edge47" class="edge">
<title>Node25&#45;&gt;Node10</title>
<path fill="none" stroke="#191970" d="M788.7184,-257.4639C752.6869,-245.63 703.0443,-229.3258 669.0295,-218.1543"/>
<polygon fill="#191970" stroke="#191970" points="670.0343,-214.8004 659.4415,-215.0053 667.85,-221.4509 670.0343,-214.8004"/>
</g>
<!-- Node25&#45;&gt;Node12 -->
<g id="edge46" class="edge">
<title>Node25&#45;&gt;Node12</title>
<path fill="none" stroke="#191970" d="M842.8143,-257.3173C848.3024,-247.1349 855.5507,-233.3736 861.5,-221 882.1106,-178.1336 871.8742,-157.6104 904.5,-123 918.2104,-108.4556 937.5379,-97.7472 954.7697,-90.3407"/>
<polygon fill="#191970" stroke="#191970" points="956.1289,-93.5664 964.0782,-86.5622 953.4961,-87.0803 956.1289,-93.5664"/>
</g>
<!-- Node26 -->
<g id="node26" class="node">
<title>Node26</title>
<g id="a_node26"><a xlink:href="fbcfwd_8h.html" target="_top" xlink:title="Implementation of the fbcfwd class. ">
<polygon fill="#ffffff" stroke="#000000" points="712.5,-190.5 712.5,-220.5 852.5,-220.5 852.5,-190.5 712.5,-190.5"/>
<text text-anchor="start" x="720.5" y="-208.5" font-family="Helvetica,sans-Serif" font-size="10.00" fill="#000000">sbml/packages/fbc/common</text>
<text text-anchor="middle" x="782.5" y="-197.5" font-family="Helvetica,sans-Serif" font-size="10.00" fill="#000000">/fbcfwd.h</text>
</a>
</g>
</g>
<!-- Node25&#45;&gt;Node26 -->
<g id="edge48" class="edge">
<title>Node25&#45;&gt;Node26</title>
<path fill="none" stroke="#191970" d="M822.7004,-257.2967C816.1184,-248.816 807.7848,-238.0785 800.4141,-228.5817"/>
<polygon fill="#191970" stroke="#191970" points="803.1491,-226.3971 794.2529,-220.6432 797.6192,-230.689 803.1491,-226.3971"/>
</g>
<!-- Node27&#45;&gt;Node12 -->
<g id="edge50" class="edge">
<title>Node27&#45;&gt;Node12</title>
<path fill="none" stroke="#191970" d="M1518.2377,-324.4081C1531.5839,-315.7162 1546.1084,-303.4356 1553.5,-288 1559.4507,-275.5735 1557.2716,-270.2515 1553.5,-257 1534.3231,-189.6212 1529.992,-159.9914 1470.5,-123 1436.7683,-102.026 1187.472,-86.7043 1063.7471,-80.3048"/>
<polygon fill="#191970" stroke="#191970" points="1063.7836,-76.8022 1053.6178,-79.7864 1063.4257,-83.7931 1063.7836,-76.8022"/>
</g>
<!-- Node28 -->
<g id="node28" class="node">
<title>Node28</title>
<g id="a_node28"><a xlink:href="_s_b_m_l_type_codes_8h.html" target="_top" xlink:title="Enumeration to identify SBML objects at runtime. ">
<polygon fill="#ffffff" stroke="#000000" points="1417,-263 1417,-282 1544,-282 1544,-263 1417,-263"/>
<text text-anchor="middle" x="1480.5" y="-270" font-family="Helvetica,sans-Serif" font-size="10.00" fill="#000000">sbml/SBMLTypeCodes.h</text>
</a>
</g>
</g>
<!-- Node27&#45;&gt;Node28 -->
<g id="edge51" class="edge">
<title>Node27&#45;&gt;Node28</title>
<path fill="none" stroke="#191970" d="M1487.4578,-324.2967C1486.178,-314.7699 1484.5158,-302.3954 1483.137,-292.1306"/>
<polygon fill="#191970" stroke="#191970" points="1486.5838,-291.5 1481.7835,-282.055 1479.6461,-292.4319 1486.5838,-291.5"/>
</g>
<!-- Node28&#45;&gt;Node12 -->
<g id="edge53" class="edge">
<title>Node28&#45;&gt;Node12</title>
<path fill="none" stroke="#191970" d="M1481.6248,-262.9528C1484.1911,-236.1526 1487.3395,-159.7876 1445.5,-123 1417.4657,-98.3507 1183.2842,-84.9721 1063.9021,-79.6969"/>
<polygon fill="#191970" stroke="#191970" points="1063.9068,-76.1939 1053.7642,-79.2562 1063.6027,-83.1873 1063.9068,-76.1939"/>
</g>
<!-- Node28&#45;&gt;Node17 -->
<g id="edge52" class="edge">
<title>Node28&#45;&gt;Node17</title>
<path fill="none" stroke="#191970" d="M1461.3011,-262.9005C1441.6651,-253.0826 1410.5996,-237.5498 1385.7334,-225.1167"/>
<polygon fill="#191970" stroke="#191970" points="1387.0531,-221.8635 1376.5435,-220.5218 1383.9225,-228.1245 1387.0531,-221.8635"/>
</g>
<!-- Node29&#45;&gt;Node12 -->
<g id="edge55" class="edge">
<title>Node29&#45;&gt;Node12</title>
<path fill="none" stroke="#191970" d="M992.8278,-451.5432C1104.6235,-429.9209 1319.7055,-370.187 1412.5,-221 1435.5046,-184.0152 1441.5652,-155.4392 1412.5,-123 1389.7048,-97.5586 1176.8264,-84.7306 1063.9816,-79.671"/>
<polygon fill="#191970" stroke="#191970" points="1063.8584,-76.1623 1053.7143,-79.2198 1063.551,-83.1556 1063.8584,-76.1623"/>
</g>
<!-- Node29&#45;&gt;Node14 -->
<g id="edge64" class="edge">
<title>Node29&#45;&gt;Node14</title>
<path fill="none" stroke="#191970" d="M916.9821,-447.4178C908.8045,-425.0657 893.4717,-383.1559 884.5098,-358.6602"/>
<polygon fill="#191970" stroke="#191970" points="887.7164,-357.2379 880.9936,-349.0493 881.1426,-359.643 887.7164,-357.2379"/>
</g>
<!-- Node30 -->
<g id="node30" class="node">
<title>Node30</title>
<g id="a_node30"><a xlink:href="_s_b_m_l_error_8h.html" target="_top" xlink:title="Represents SBML errors and other diagnostics. ">
<polygon fill="#ffffff" stroke="#000000" points="914.5,-391.5 914.5,-410.5 1012.5,-410.5 1012.5,-391.5 914.5,-391.5"/>
<text text-anchor="middle" x="963.5" y="-398.5" font-family="Helvetica,sans-Serif" font-size="10.00" fill="#000000">sbml/SBMLError.h</text>
</a>
</g>
</g>
<!-- Node29&#45;&gt;Node30 -->
<g id="edge56" class="edge">
<title>Node29&#45;&gt;Node30</title>
<path fill="none" stroke="#191970" d="M932.6348,-447.2977C938.2668,-438.8498 945.3151,-428.2773 951.254,-419.369"/>
<polygon fill="#191970" stroke="#191970" points="954.3005,-421.1089 956.9354,-410.8469 948.4762,-417.226 954.3005,-421.1089"/>
</g>
<!-- Node30&#45;&gt;Node12 -->
<g id="edge57" class="edge">
<title>Node30&#45;&gt;Node12</title>
<path fill="none" stroke="#191970" d="M962.4598,-391.4888C960.8224,-376.9196 957.4232,-348.2185 953.5,-324 950.8936,-307.9101 948.0628,-304.2246 946.5,-288 941.1857,-232.8266 957.5017,-130.7232 960.5,-123 964.5544,-112.5562 971.6381,-102.3841 978.2938,-94.2724"/>
<polygon fill="#191970" stroke="#191970" points="981.0098,-96.4829 984.9299,-86.6399 975.7273,-91.8899 981.0098,-96.4829"/>
</g>
<!-- Node30&#45;&gt;Node14 -->
<g id="edge63" class="edge">
<title>Node30&#45;&gt;Node14</title>
<path fill="none" stroke="#191970" d="M950.0625,-391.3906C936.4305,-381.6421 915.1154,-366.3994 899.1078,-354.9521"/>
<polygon fill="#191970" stroke="#191970" points="901.0132,-352.0118 890.8431,-349.0419 896.9414,-357.7057 901.0132,-352.0118"/>
</g>
<!-- Node31 -->
<g id="node31" class="node">
<title>Node31</title>
<g id="a_node31"><a xlink:href="_x_m_l_error_8h.html" target="_top" xlink:title="Represents errors (and messages) encountered during an XML parse. ">
<polygon fill="#ffffff" stroke="#000000" points="955.5,-263 955.5,-282 1065.5,-282 1065.5,-263 955.5,-263"/>
<text text-anchor="middle" x="1010.5" y="-270" font-family="Helvetica,sans-Serif" font-size="10.00" fill="#000000">sbml/xml/XMLError.h</text>
</a>
</g>
</g>
<!-- Node30&#45;&gt;Node31 -->
<g id="edge58" class="edge">
<title>Node30&#45;&gt;Node31</title>
<path fill="none" stroke="#191970" d="M968.961,-391.3633C973.99,-382.2137 981.4194,-367.9692 986.5,-355 994.7124,-334.0364 1001.5838,-309.1137 1005.8407,-292.1881"/>
<polygon fill="#191970" stroke="#191970" points="1009.2727,-292.8875 1008.2483,-282.3423 1002.4731,-291.2247 1009.2727,-292.8875"/>
</g>
<!-- Node31&#45;&gt;Node6 -->
<g id="edge60" class="edge">
<title>Node31&#45;&gt;Node6</title>
<path fill="none" stroke="#191970" d="M955.292,-263.5321C939.2646,-261.1507 921.7128,-258.7563 905.5,-257 675.6239,-232.0981 615.183,-255.1642 386.5,-221 379.7565,-219.9925 372.6873,-218.6632 365.7735,-217.2057"/>
<polygon fill="#191970" stroke="#191970" points="366.331,-213.7445 355.811,-215.0013 364.8186,-220.5792 366.331,-213.7445"/>
</g>
<!-- Node31&#45;&gt;Node10 -->
<g id="edge61" class="edge">
<title>Node31&#45;&gt;Node10</title>
<path fill="none" stroke="#191970" d="M955.4705,-263.9999C893.9354,-254.3251 791.3706,-237.691 703.5,-221 697.2352,-219.81 690.6809,-218.5046 684.1801,-217.1722"/>
<polygon fill="#191970" stroke="#191970" points="684.5607,-213.6767 674.0578,-215.069 683.1366,-220.5303 684.5607,-213.6767"/>
</g>
<!-- Node31&#45;&gt;Node20 -->
<g id="edge59" class="edge">
<title>Node31&#45;&gt;Node20</title>
<path fill="none" stroke="#191970" d="M1024.6043,-262.886C1037.8553,-253.3591 1057.6634,-237.7941 1071.5,-221 1087.8005,-201.2153 1101.3458,-174.8314 1109.4227,-157.2846"/>
<polygon fill="#191970" stroke="#191970" points="1112.6463,-158.6494 1113.5259,-148.0912 1106.2541,-155.7964 1112.6463,-158.6494"/>
</g>
<!-- Node31&#45;&gt;Node22 -->
<g id="edge62" class="edge">
<title>Node31&#45;&gt;Node22</title>
<path fill="none" stroke="#191970" d="M1012.3626,-262.9005C1014.274,-253.0495 1017.3017,-237.4451 1019.7181,-224.9912"/>
<polygon fill="#191970" stroke="#191970" points="1023.1719,-225.5653 1021.6409,-215.0817 1016.3001,-224.2319 1023.1719,-225.5653"/>
</g>
</g>
</svg>
