<?xml version="1.0" encoding="UTF-8" standalone="no"?>
<!DOCTYPE svg PUBLIC "-//W3C//DTD SVG 1.1//EN"
 "http://www.w3.org/Graphics/SVG/1.1/DTD/svg11.dtd">
<!-- Generated by graphviz version 2.40.1 (20161225.0304)
 -->
<!-- Title: PossibleSpeciesFeatureValue.h Pages: 1 -->
<svg width="312pt" height="140pt"
 viewBox="0.00 0.00 312.00 140.00" xmlns="http://www.w3.org/2000/svg" xmlns:xlink="http://www.w3.org/1999/xlink">
<g id="graph0" class="graph" transform="scale(1 1) rotate(0) translate(4 136)">
<title>PossibleSpeciesFeatureValue.h</title>
<polygon fill="#ffffff" stroke="transparent" points="-4,4 -4,-136 308,-136 308,4 -4,4"/>
<!-- Node1 -->
<g id="node1" class="node">
<title>Node1</title>
<polygon fill="#bfbfbf" stroke="#000000" points="59.5,-112.5 59.5,-131.5 217.5,-131.5 217.5,-112.5 59.5,-112.5"/>
<text text-anchor="middle" x="138.5" y="-119.5" font-family="Helvetica,sans-Serif" font-size="10.00" fill="#000000">PossibleSpeciesFeatureValue.h</text>
</g>
<!-- Node2 -->
<g id="node2" class="node">
<title>Node2</title>
<g id="a_node2"><a xlink:href="_multi_extension_types_8h.html" target="_top" xlink:title=": Implementation of the MultiExtensionTypes class ">
<polygon fill="#ffffff" stroke="#000000" points="0,-56.5 0,-75.5 117,-75.5 117,-56.5 0,-56.5"/>
<text text-anchor="middle" x="58.5" y="-63.5" font-family="Helvetica,sans-Serif" font-size="10.00" fill="#000000">MultiExtensionTypes.h</text>
</a>
</g>
</g>
<!-- Node1&#45;&gt;Node2 -->
<g id="edge1" class="edge">
<title>Node1&#45;&gt;Node2</title>
<path fill="none" stroke="#191970" d="M116.3429,-106.49C102.228,-96.6096 84.3849,-84.1194 72.2752,-75.6427"/>
<polygon fill="#191970" stroke="#191970" points="114.3656,-109.3782 124.5651,-112.2455 118.3799,-103.6436 114.3656,-109.3782"/>
</g>
<!-- Node4 -->
<g id="node4" class="node">
<title>Node4</title>
<g id="a_node4"><a xlink:href="_possible_species_feature_value_8cpp.html" target="_top" xlink:title=": Implementation of the PossibleSpeciesFeatureValue_t class ">
<polygon fill="#ffffff" stroke="#000000" points="135,-56.5 135,-75.5 304,-75.5 304,-56.5 135,-56.5"/>
<text text-anchor="middle" x="219.5" y="-63.5" font-family="Helvetica,sans-Serif" font-size="10.00" fill="#000000">PossibleSpeciesFeatureValue.cpp</text>
</a>
</g>
</g>
<!-- Node1&#45;&gt;Node4 -->
<g id="edge3" class="edge">
<title>Node1&#45;&gt;Node4</title>
<path fill="none" stroke="#191970" d="M160.934,-106.49C175.2254,-96.6096 193.2916,-84.1194 205.5526,-75.6427"/>
<polygon fill="#191970" stroke="#191970" points="158.8443,-103.6797 152.6091,-112.2455 162.8251,-109.4376 158.8443,-103.6797"/>
</g>
<!-- Node3 -->
<g id="node3" class="node">
<title>Node3</title>
<g id="a_node3"><a xlink:href="_multi_validator_8cpp.html" target="_top" xlink:title=": Implementation of the MultiValidator_t class ">
<polygon fill="#ffffff" stroke="#000000" points="10.5,-.5 10.5,-19.5 106.5,-19.5 106.5,-.5 10.5,-.5"/>
<text text-anchor="middle" x="58.5" y="-7.5" font-family="Helvetica,sans-Serif" font-size="10.00" fill="#000000">MultiValidator.cpp</text>
</a>
</g>
</g>
<!-- Node2&#45;&gt;Node3 -->
<g id="edge2" class="edge">
<title>Node2&#45;&gt;Node3</title>
<path fill="none" stroke="#191970" d="M58.5,-46.1575C58.5,-37.155 58.5,-26.9199 58.5,-19.6427"/>
<polygon fill="#191970" stroke="#191970" points="55.0001,-46.2455 58.5,-56.2455 62.0001,-46.2456 55.0001,-46.2455"/>
</g>
</g>
</svg>
