<?xml version="1.0" encoding="UTF-8" standalone="no"?>
<!DOCTYPE svg PUBLIC "-//W3C//DTD SVG 1.1//EN"
 "http://www.w3.org/Graphics/SVG/1.1/DTD/svg11.dtd">
<!-- Generated by graphviz version 2.40.1 (20161225.0304)
 -->
<!-- Title: QualSBMLDocumentPlugin.cpp Pages: 1 -->
<svg width="846pt" height="229pt"
 viewBox="0.00 0.00 846.00 229.00" xmlns="http://www.w3.org/2000/svg" xmlns:xlink="http://www.w3.org/1999/xlink">
<g id="graph0" class="graph" transform="scale(1 1) rotate(0) translate(4 225)">
<title>QualSBMLDocumentPlugin.cpp</title>
<polygon fill="#ffffff" stroke="transparent" points="-4,4 -4,-225 842,-225 842,4 -4,4"/>
<!-- Node1 -->
<g id="node1" class="node">
<title>Node1</title>
<polygon fill="#bfbfbf" stroke="#000000" points="339,-201.5 339,-220.5 496,-220.5 496,-201.5 339,-201.5"/>
<text text-anchor="middle" x="417.5" y="-208.5" font-family="Helvetica,sans-Serif" font-size="10.00" fill="#000000">QualSBMLDocumentPlugin.cpp</text>
</g>
<!-- Node2 -->
<g id="node2" class="node">
<title>Node2</title>
<g id="a_node2"><a xlink:href="_qual_s_b_m_l_document_plugin_8h.html" target="_top" xlink:title="Implementation of the QualSBMLDocumentPlugin_t class. ">
<polygon fill="#ffffff" stroke="#000000" points="0,-123.5 0,-164.5 159,-164.5 159,-123.5 0,-123.5"/>
<text text-anchor="start" x="8" y="-152.5" font-family="Helvetica,sans-Serif" font-size="10.00" fill="#000000">sbml/packages/qual</text>
<text text-anchor="start" x="8" y="-141.5" font-family="Helvetica,sans-Serif" font-size="10.00" fill="#000000">/extension/QualSBMLDocument</text>
<text text-anchor="middle" x="79.5" y="-130.5" font-family="Helvetica,sans-Serif" font-size="10.00" fill="#000000">Plugin.h</text>
</a>
</g>
</g>
<!-- Node1&#45;&gt;Node2 -->
<g id="edge1" class="edge">
<title>Node1&#45;&gt;Node2</title>
<path fill="none" stroke="#191970" d="M361.4713,-201.4584C313.1755,-193.0502 241.3454,-180.1092 169.2112,-165.1013"/>
<polygon fill="#191970" stroke="#191970" points="169.5382,-161.594 159.0332,-162.9702 168.1036,-168.4454 169.5382,-161.594"/>
</g>
<!-- Node5 -->
<g id="node5" class="node">
<title>Node5</title>
<g id="a_node5"><a xlink:href="_qual_consistency_validator_8h.html" target="_top" xlink:title="sbml/packages/qual\l/validator/QualConsistency\lValidator.h">
<polygon fill="#ffffff" stroke="#000000" points="177,-123.5 177,-164.5 312,-164.5 312,-123.5 177,-123.5"/>
<text text-anchor="start" x="185" y="-152.5" font-family="Helvetica,sans-Serif" font-size="10.00" fill="#000000">sbml/packages/qual</text>
<text text-anchor="start" x="185" y="-141.5" font-family="Helvetica,sans-Serif" font-size="10.00" fill="#000000">/validator/QualConsistency</text>
<text text-anchor="middle" x="244.5" y="-130.5" font-family="Helvetica,sans-Serif" font-size="10.00" fill="#000000">Validator.h</text>
</a>
</g>
</g>
<!-- Node1&#45;&gt;Node5 -->
<g id="edge4" class="edge">
<title>Node1&#45;&gt;Node5</title>
<path fill="none" stroke="#191970" d="M392.7133,-201.4005C370.4566,-192.7809 336.8259,-179.7563 307.2233,-168.2917"/>
<polygon fill="#191970" stroke="#191970" points="308.3622,-164.9795 297.7731,-164.6318 305.8341,-171.5071 308.3622,-164.9795"/>
</g>
<!-- Node6 -->
<g id="node6" class="node">
<title>Node6</title>
<g id="a_node6"><a xlink:href="_qual_identifier_consistency_validator_8h.html" target="_top" xlink:title="sbml/packages/qual\l/validator/QualIdentifierConsistency\lValidator.h">
<polygon fill="#ffffff" stroke="#000000" points="330.5,-123.5 330.5,-164.5 504.5,-164.5 504.5,-123.5 330.5,-123.5"/>
<text text-anchor="start" x="338.5" y="-152.5" font-family="Helvetica,sans-Serif" font-size="10.00" fill="#000000">sbml/packages/qual</text>
<text text-anchor="start" x="338.5" y="-141.5" font-family="Helvetica,sans-Serif" font-size="10.00" fill="#000000">/validator/QualIdentifierConsistency</text>
<text text-anchor="middle" x="417.5" y="-130.5" font-family="Helvetica,sans-Serif" font-size="10.00" fill="#000000">Validator.h</text>
</a>
</g>
</g>
<!-- Node1&#45;&gt;Node6 -->
<g id="edge5" class="edge">
<title>Node1&#45;&gt;Node6</title>
<path fill="none" stroke="#191970" d="M417.5,-201.4005C417.5,-194.3854 417.5,-184.4526 417.5,-174.8177"/>
<polygon fill="#191970" stroke="#191970" points="421.0001,-174.6317 417.5,-164.6318 414.0001,-174.6318 421.0001,-174.6317"/>
</g>
<!-- Node7 -->
<g id="node7" class="node">
<title>Node7</title>
<g id="a_node7"><a xlink:href="_qual_math_consistency_validator_8h.html" target="_top" xlink:title="sbml/packages/qual\l/validator/QualMathConsistency\lValidator.h">
<polygon fill="#ffffff" stroke="#000000" points="522.5,-123.5 522.5,-164.5 680.5,-164.5 680.5,-123.5 522.5,-123.5"/>
<text text-anchor="start" x="530.5" y="-152.5" font-family="Helvetica,sans-Serif" font-size="10.00" fill="#000000">sbml/packages/qual</text>
<text text-anchor="start" x="530.5" y="-141.5" font-family="Helvetica,sans-Serif" font-size="10.00" fill="#000000">/validator/QualMathConsistency</text>
<text text-anchor="middle" x="601.5" y="-130.5" font-family="Helvetica,sans-Serif" font-size="10.00" fill="#000000">Validator.h</text>
</a>
</g>
</g>
<!-- Node1&#45;&gt;Node7 -->
<g id="edge6" class="edge">
<title>Node1&#45;&gt;Node7</title>
<path fill="none" stroke="#191970" d="M443.8627,-201.4005C467.6371,-192.7436 503.6136,-179.6434 535.1972,-168.1429"/>
<polygon fill="#191970" stroke="#191970" points="536.6407,-171.3421 544.8396,-164.6318 534.2456,-164.7646 536.6407,-171.3421"/>
</g>
<!-- Node8 -->
<g id="node8" class="node">
<title>Node8</title>
<g id="a_node8"><a xlink:href="_qual_s_b_m_l_error_8h.html" target="_top" xlink:title="Represents SBML errors and other diagnostics. ">
<polygon fill="#ffffff" stroke="#000000" points="699,-129 699,-159 838,-159 838,-129 699,-129"/>
<text text-anchor="start" x="707" y="-147" font-family="Helvetica,sans-Serif" font-size="10.00" fill="#000000">sbml/packages/qual</text>
<text text-anchor="middle" x="768.5" y="-136" font-family="Helvetica,sans-Serif" font-size="10.00" fill="#000000">/validator/QualSBMLError.h</text>
</a>
</g>
</g>
<!-- Node1&#45;&gt;Node8 -->
<g id="edge7" class="edge">
<title>Node1&#45;&gt;Node8</title>
<path fill="none" stroke="#191970" d="M484.0611,-201.4981C539.3319,-193.1884 619.8796,-180.1066 689.5,-165 694.4863,-163.918 699.6302,-162.7258 704.7891,-161.4756"/>
<polygon fill="#191970" stroke="#191970" points="705.831,-164.8232 714.691,-159.0136 704.1419,-158.03 705.831,-164.8232"/>
</g>
<!-- Node3 -->
<g id="node3" class="node">
<title>Node3</title>
<g id="a_node3"><a xlink:href="extern_8h.html" target="_top" xlink:title="Definitions of LIBSBML_EXTERN and related things. ">
<polygon fill="#ffffff" stroke="#000000" points="20.5,-67.5 20.5,-86.5 138.5,-86.5 138.5,-67.5 20.5,-67.5"/>
<text text-anchor="middle" x="79.5" y="-74.5" font-family="Helvetica,sans-Serif" font-size="10.00" fill="#000000">sbml/common/extern.h</text>
</a>
</g>
</g>
<!-- Node2&#45;&gt;Node3 -->
<g id="edge2" class="edge">
<title>Node2&#45;&gt;Node3</title>
<path fill="none" stroke="#191970" d="M79.5,-123.168C79.5,-114.8226 79.5,-105.2471 79.5,-96.9879"/>
<polygon fill="#191970" stroke="#191970" points="83.0001,-96.7804 79.5,-86.7805 76.0001,-96.7805 83.0001,-96.7804"/>
</g>
<!-- Node4 -->
<g id="node4" class="node">
<title>Node4</title>
<g id="a_node4"><a xlink:href="libsbml-namespace_8h.html" target="_top" xlink:title="Defines C++ namespace of libSBML. ">
<polygon fill="#ffffff" stroke="#000000" points="23,-.5 23,-30.5 136,-30.5 136,-.5 23,-.5"/>
<text text-anchor="start" x="31" y="-18.5" font-family="Helvetica,sans-Serif" font-size="10.00" fill="#000000">sbml/common/libsbml</text>
<text text-anchor="middle" x="79.5" y="-7.5" font-family="Helvetica,sans-Serif" font-size="10.00" fill="#000000">&#45;namespace.h</text>
</a>
</g>
</g>
<!-- Node3&#45;&gt;Node4 -->
<g id="edge3" class="edge">
<title>Node3&#45;&gt;Node4</title>
<path fill="none" stroke="#191970" d="M79.5,-67.3906C79.5,-60.2234 79.5,-50.0862 79.5,-40.671"/>
<polygon fill="#191970" stroke="#191970" points="83.0001,-40.5446 79.5,-30.5446 76.0001,-40.5446 83.0001,-40.5446"/>
</g>
</g>
</svg>
