<?xml version="1.0" encoding="UTF-8" standalone="no"?>
<!DOCTYPE svg PUBLIC "-//W3C//DTD SVG 1.1//EN"
 "http://www.w3.org/Graphics/SVG/1.1/DTD/svg11.dtd">
<!-- Generated by graphviz version 2.40.1 (20161225.0304)
 -->
<!-- Title: RDFAnnotation.h Pages: 1 -->
<!--zoomable 554 -->
<svg id="main" version="1.1" xmlns="http://www.w3.org/2000/svg" xmlns:xlink="http://www.w3.org/1999/xlink" xml:space="preserve" onload="init(evt)">
<style type="text/css"><![CDATA[
.edge:hover path { stroke: red; }
.edge:hover polygon { stroke: red; fill: red; }
]]></style>
<script type="text/javascript"><![CDATA[
var edges = document.getElementsByTagName('g');
if (edges && edges.length) {
  for (var i=0;i<edges.length;i++) {
    if (edges[i].id.substr(0,4)=='edge') {
      edges[i].setAttribute('class','edge');
    }
  }
}
]]></script>
        <defs>
                <circle id="rim" cx="0" cy="0" r="7"/>
                <circle id="rim2" cx="0" cy="0" r="3.5"/>
                <g id="zoomPlus">
                        <use xlink:href="#rim" fill="#404040">
                                <set attributeName="fill" to="#808080" begin="zoomplus.mouseover" end="zoomplus.mouseout"/>
                        </use>
                        <path d="M-4,0h8M0,-4v8" fill="none" stroke="white" stroke-width="1.5" pointer-events="none"/>
                </g>
                <g id="zoomMin">
                        <use xlink:href="#rim" fill="#404040">
                                <set attributeName="fill" to="#808080" begin="zoomminus.mouseover" end="zoomminus.mouseout"/>
                        </use>
                        <path d="M-4,0h8" fill="none" stroke="white" stroke-width="1.5" pointer-events="none"/>
                </g>
                <g id="dirArrow">
                        <path fill="none" stroke="white" stroke-width="1.5" d="M0,-3.0v7 M-2.5,-0.5L0,-3.0L2.5,-0.5"/>
                </g>
               <g id="resetDef">
                       <use xlink:href="#rim2" fill="#404040">
                               <set attributeName="fill" to="#808080" begin="reset.mouseover" end="reset.mouseout"/>
                       </use>
               </g>
        </defs>

<script type="text/javascript">
var viewWidth = 832;
var viewHeight = 554;
var sectionId = 'dynsection-0';
</script>
<script xlink:href="svgpan.js"/>
<svg id="graph" class="graph">
<g id="viewport">
<title>RDFAnnotation.h</title>
<polygon fill="#ffffff" stroke="transparent" points="-4,4 -4,-550 828,-550 828,4 -4,4"/>
<!-- Node1 -->
<g id="node1" class="node">
<title>Node1</title>
<polygon fill="#bfbfbf" stroke="#000000" points="522.5,-526.5 522.5,-545.5 615.5,-545.5 615.5,-526.5 522.5,-526.5"/>
<text text-anchor="middle" x="569" y="-533.5" font-family="Helvetica,sans-Serif" font-size="10.00" fill="#000000">RDFAnnotation.h</text>
</g>
<!-- Node2 -->
<g id="node2" class="node">
<title>Node2</title>
<g id="a_node2"><a xlink:href="_r_d_f_annotation_parser_8h.html" target="_top" xlink:title="RDFAnnotationParser.h">
<polygon fill="#ffffff" stroke="#000000" points="507.5,-470.5 507.5,-489.5 630.5,-489.5 630.5,-470.5 507.5,-470.5"/>
<text text-anchor="middle" x="569" y="-477.5" font-family="Helvetica,sans-Serif" font-size="10.00" fill="#000000">RDFAnnotationParser.h</text>
</a>
</g>
</g>
<!-- Node1&#45;&gt;Node2 -->
<g id="edge1" class="edge">
<title>Node1&#45;&gt;Node2</title>
<path fill="none" stroke="#191970" d="M569,-526.2455C569,-518.9382 569,-508.6944 569,-499.7046"/>
<polygon fill="#191970" stroke="#191970" points="572.5001,-499.6426 569,-489.6427 565.5001,-499.6427 572.5001,-499.6426"/>
</g>
<!-- Node3 -->
<g id="node3" class="node">
<title>Node3</title>
<g id="a_node3"><a xlink:href="extern_8h.html" target="_top" xlink:title="Definitions of LIBSBML_EXTERN and related things. ">
<polygon fill="#ffffff" stroke="#000000" points="122,-67.5 122,-86.5 240,-86.5 240,-67.5 122,-67.5"/>
<text text-anchor="middle" x="181" y="-74.5" font-family="Helvetica,sans-Serif" font-size="10.00" fill="#000000">sbml/common/extern.h</text>
</a>
</g>
</g>
<!-- Node2&#45;&gt;Node3 -->
<g id="edge2" class="edge">
<title>Node2&#45;&gt;Node3</title>
<path fill="none" stroke="#191970" d="M507.2954,-474.2901C359.9934,-459.8314 0,-419.2525 0,-368 0,-368 0,-368 0,-200 0,-137.945 73.6804,-105.005 127.0215,-89.2889"/>
<polygon fill="#191970" stroke="#191970" points="128.0487,-92.6358 136.7224,-86.5516 126.1477,-85.8988 128.0487,-92.6358"/>
</g>
<!-- Node5 -->
<g id="node5" class="node">
<title>Node5</title>
<polygon fill="#ffffff" stroke="#bfbfbf" points="452.5,-129 452.5,-148 579.5,-148 579.5,-129 452.5,-129"/>
<text text-anchor="middle" x="516" y="-136" font-family="Helvetica,sans-Serif" font-size="10.00" fill="#000000">sbml/common/sbmlfwd.h</text>
</g>
<!-- Node2&#45;&gt;Node5 -->
<g id="edge4" class="edge">
<title>Node2&#45;&gt;Node5</title>
<path fill="none" stroke="#191970" d="M611.9689,-470.4593C684.642,-453.0681 824,-413.7538 824,-368 824,-368 824,-368 824,-256 824,-204.5883 775.897,-211.0673 729,-190 701.6953,-177.7341 627.4795,-161.089 574.34,-150.0828"/>
<polygon fill="#191970" stroke="#191970" points="574.8465,-146.6138 564.3465,-148.0278 573.4365,-153.4704 574.8465,-146.6138"/>
</g>
<!-- Node6 -->
<g id="node6" class="node">
<title>Node6</title>
<g id="a_node6"><a xlink:href="_x_m_l_attributes_8h.html" target="_top" xlink:title="XMLAttributes_t are a list of name/value pairs for XML elements. ">
<polygon fill="#ffffff" stroke="#000000" points="590,-190.5 590,-209.5 720,-209.5 720,-190.5 590,-190.5"/>
<text text-anchor="middle" x="655" y="-197.5" font-family="Helvetica,sans-Serif" font-size="10.00" fill="#000000">sbml/xml/XMLAttributes.h</text>
</a>
</g>
</g>
<!-- Node2&#45;&gt;Node6 -->
<g id="edge5" class="edge">
<title>Node2&#45;&gt;Node6</title>
<path fill="none" stroke="#191970" d="M602.6304,-470.4248C645.4648,-455.9271 714,-423.9834 714,-368 714,-368 714,-368 714,-312 714,-274.9131 688.3634,-238.0541 670.8885,-217.2374"/>
<polygon fill="#191970" stroke="#191970" points="673.4288,-214.8251 664.2188,-209.5881 668.1528,-219.4255 673.4288,-214.8251"/>
</g>
<!-- Node9 -->
<g id="node9" class="node">
<title>Node9</title>
<g id="a_node9"><a xlink:href="_model_history_8h.html" target="_top" xlink:title="ModelHistory_t I/O. ">
<polygon fill="#ffffff" stroke="#000000" points="260.5,-414.5 260.5,-433.5 417.5,-433.5 417.5,-414.5 260.5,-414.5"/>
<text text-anchor="middle" x="339" y="-421.5" font-family="Helvetica,sans-Serif" font-size="10.00" fill="#000000">sbml/annotation/ModelHistory.h</text>
</a>
</g>
</g>
<!-- Node2&#45;&gt;Node9 -->
<g id="edge11" class="edge">
<title>Node2&#45;&gt;Node9</title>
<path fill="none" stroke="#191970" d="M529.7229,-470.4369C490.5256,-460.8932 430.2,-446.2052 387.9165,-435.9101"/>
<polygon fill="#191970" stroke="#191970" points="388.6592,-432.4888 378.1151,-433.5237 387.0032,-439.2901 388.6592,-432.4888"/>
</g>
<!-- Node4 -->
<g id="node4" class="node">
<title>Node4</title>
<g id="a_node4"><a xlink:href="libsbml-namespace_8h.html" target="_top" xlink:title="Defines C++ namespace of libSBML. ">
<polygon fill="#ffffff" stroke="#000000" points="167.5,-.5 167.5,-30.5 280.5,-30.5 280.5,-.5 167.5,-.5"/>
<text text-anchor="start" x="175.5" y="-18.5" font-family="Helvetica,sans-Serif" font-size="10.00" fill="#000000">sbml/common/libsbml</text>
<text text-anchor="middle" x="224" y="-7.5" font-family="Helvetica,sans-Serif" font-size="10.00" fill="#000000">&#45;namespace.h</text>
</a>
</g>
</g>
<!-- Node3&#45;&gt;Node4 -->
<g id="edge3" class="edge">
<title>Node3&#45;&gt;Node4</title>
<path fill="none" stroke="#191970" d="M187.7188,-67.3906C193.0533,-59.761 200.741,-48.7658 207.6679,-38.8588"/>
<polygon fill="#191970" stroke="#191970" points="210.6192,-40.7456 213.481,-30.5446 204.8824,-36.7345 210.6192,-40.7456"/>
</g>
<!-- Node6&#45;&gt;Node5 -->
<g id="edge8" class="edge">
<title>Node6&#45;&gt;Node5</title>
<path fill="none" stroke="#191970" d="M633.2813,-190.3906C610.126,-180.1457 573.2559,-163.8326 547.0409,-152.2339"/>
<polygon fill="#191970" stroke="#191970" points="548.1273,-148.8874 537.5662,-148.0419 545.295,-155.2888 548.1273,-148.8874"/>
</g>
<!-- Node7 -->
<g id="node7" class="node">
<title>Node7</title>
<g id="a_node7"><a xlink:href="_x_m_l_extern_8h.html" target="_top" xlink:title="Defines LIBLAX_EXTERN. ">
<polygon fill="#ffffff" stroke="#000000" points="603.5,-129 603.5,-148 720.5,-148 720.5,-129 603.5,-129"/>
<text text-anchor="middle" x="662" y="-136" font-family="Helvetica,sans-Serif" font-size="10.00" fill="#000000">sbml/xml/XMLExtern.h</text>
</a>
</g>
</g>
<!-- Node6&#45;&gt;Node7 -->
<g id="edge6" class="edge">
<title>Node6&#45;&gt;Node7</title>
<path fill="none" stroke="#191970" d="M656.0938,-190.3906C657.0641,-181.8657 658.5126,-169.1392 659.7323,-158.4235"/>
<polygon fill="#191970" stroke="#191970" points="663.2374,-158.5766 660.8908,-148.2449 656.2823,-157.7849 663.2374,-158.5766"/>
</g>
<!-- Node8 -->
<g id="node8" class="node">
<title>Node8</title>
<g id="a_node8"><a xlink:href="operation_return_values_8h.html" target="_top" xlink:title="Enumeration of values returned by operations within libSBML. ">
<polygon fill="#ffffff" stroke="#000000" points="104.5,-123.5 104.5,-153.5 257.5,-153.5 257.5,-123.5 104.5,-123.5"/>
<text text-anchor="start" x="112.5" y="-141.5" font-family="Helvetica,sans-Serif" font-size="10.00" fill="#000000">sbml/common/operationReturn</text>
<text text-anchor="middle" x="181" y="-130.5" font-family="Helvetica,sans-Serif" font-size="10.00" fill="#000000">Values.h</text>
</a>
</g>
</g>
<!-- Node6&#45;&gt;Node8 -->
<g id="edge9" class="edge">
<title>Node6&#45;&gt;Node8</title>
<path fill="none" stroke="#191970" d="M589.59,-191.5133C505.9096,-180.656 360.7165,-161.8176 267.8388,-149.7671"/>
<polygon fill="#191970" stroke="#191970" points="268.2673,-146.2934 257.9001,-148.4775 267.3666,-153.2352 268.2673,-146.2934"/>
</g>
<!-- Node7&#45;&gt;Node4 -->
<g id="edge7" class="edge">
<title>Node7&#45;&gt;Node4</title>
<path fill="none" stroke="#191970" d="M627.9953,-128.9507C554.8098,-108.3986 381.3972,-59.7006 287.3261,-33.2834"/>
<polygon fill="#191970" stroke="#191970" points="288.2188,-29.8987 277.6449,-30.5647 286.3262,-36.638 288.2188,-29.8987"/>
</g>
<!-- Node8&#45;&gt;Node3 -->
<g id="edge10" class="edge">
<title>Node8&#45;&gt;Node3</title>
<path fill="none" stroke="#191970" d="M181,-123.2977C181,-115.3834 181,-105.6043 181,-97.0759"/>
<polygon fill="#191970" stroke="#191970" points="184.5001,-96.8469 181,-86.8469 177.5001,-96.847 184.5001,-96.8469"/>
</g>
<!-- Node9&#45;&gt;Node3 -->
<g id="edge12" class="edge">
<title>Node9&#45;&gt;Node3</title>
<path fill="none" stroke="#191970" d="M280.2496,-414.4485C192.6531,-398.5212 38,-363.1573 38,-312 38,-312 38,-312 38,-200 38,-144.2522 101.2376,-108.2554 143.6072,-90.3938"/>
<polygon fill="#191970" stroke="#191970" points="145.1368,-93.5504 153.0887,-86.5492 142.5063,-87.0635 145.1368,-93.5504"/>
</g>
<!-- Node9&#45;&gt;Node5 -->
<g id="edge13" class="edge">
<title>Node9&#45;&gt;Node5</title>
<path fill="none" stroke="#191970" d="M411.1673,-414.4739C491.4468,-399.3018 615.2251,-360.919 656,-266 672.4195,-227.7774 614.361,-234.8517 581,-210 560.5319,-194.7526 541.4347,-172.3751 529.3081,-156.7275"/>
<polygon fill="#191970" stroke="#191970" points="531.836,-154.2671 523.016,-148.3969 526.2502,-158.486 531.836,-154.2671"/>
</g>
<!-- Node9&#45;&gt;Node8 -->
<g id="edge14" class="edge">
<title>Node9&#45;&gt;Node8</title>
<path fill="none" stroke="#191970" d="M270.9263,-414.4828C227.8353,-406.9462 177.7403,-394.8656 164,-378 112.8731,-315.2441 149.0919,-209.8885 169.5631,-162.67"/>
<polygon fill="#191970" stroke="#191970" points="172.7707,-164.0706 173.6553,-153.5127 166.3799,-161.2146 172.7707,-164.0706"/>
</g>
<!-- Node10 -->
<g id="node10" class="node">
<title>Node10</title>
<g id="a_node10"><a xlink:href="_list_8h.html" target="_top" xlink:title="Simple, generic list utility class. ">
<polygon fill="#ffffff" stroke="#000000" points="188,-302.5 188,-321.5 268,-321.5 268,-302.5 188,-302.5"/>
<text text-anchor="middle" x="228" y="-309.5" font-family="Helvetica,sans-Serif" font-size="10.00" fill="#000000">sbml/util/List.h</text>
</a>
</g>
</g>
<!-- Node9&#45;&gt;Node10 -->
<g id="edge15" class="edge">
<title>Node9&#45;&gt;Node10</title>
<path fill="none" stroke="#191970" d="M274.6199,-414.4579C233.158,-406.8458 184.7111,-394.6857 172,-378 158.1976,-359.8817 180.37,-340.0819 200.7562,-326.943"/>
<polygon fill="#191970" stroke="#191970" points="202.8483,-329.7668 209.5669,-321.5747 199.206,-323.789 202.8483,-329.7668"/>
</g>
<!-- Node12 -->
<g id="node12" class="node">
<title>Node12</title>
<g id="a_node12"><a xlink:href="_x_m_l_node_8h.html" target="_top" xlink:title="Class definition of XMLNode_t, a node in an XML document tree. ">
<polygon fill="#ffffff" stroke="#000000" points="476,-302.5 476,-321.5 588,-321.5 588,-302.5 476,-302.5"/>
<text text-anchor="middle" x="532" y="-309.5" font-family="Helvetica,sans-Serif" font-size="10.00" fill="#000000">sbml/xml/XMLNode.h</text>
</a>
</g>
</g>
<!-- Node9&#45;&gt;Node12 -->
<g id="edge19" class="edge">
<title>Node9&#45;&gt;Node12</title>
<path fill="none" stroke="#191970" d="M399.2736,-414.491C427.6143,-407.7945 460.6609,-396.5797 486,-378 502.6557,-365.7873 515.4181,-345.6618 523.2276,-330.8398"/>
<polygon fill="#191970" stroke="#191970" points="526.5096,-332.1005 527.8298,-321.5882 520.2422,-328.9827 526.5096,-332.1005"/>
</g>
<!-- Node14 -->
<g id="node14" class="node">
<title>Node14</title>
<g id="a_node14"><a xlink:href="_date_8h.html" target="_top" xlink:title="Date_t I/O. ">
<polygon fill="#ffffff" stroke="#000000" points="358.5,-358.5 358.5,-377.5 477.5,-377.5 477.5,-358.5 358.5,-358.5"/>
<text text-anchor="middle" x="418" y="-365.5" font-family="Helvetica,sans-Serif" font-size="10.00" fill="#000000">sbml/annotation/Date.h</text>
</a>
</g>
</g>
<!-- Node9&#45;&gt;Node14 -->
<g id="edge27" class="edge">
<title>Node9&#45;&gt;Node14</title>
<path fill="none" stroke="#191970" d="M352.7607,-414.2455C364.6552,-405.814 382.065,-393.4729 395.9085,-383.6598"/>
<polygon fill="#191970" stroke="#191970" points="398.2628,-386.2811 404.3969,-377.6427 394.2146,-380.5704 398.2628,-386.2811"/>
</g>
<!-- Node15 -->
<g id="node15" class="node">
<title>Node15</title>
<g id="a_node15"><a xlink:href="_model_creator_8h.html" target="_top" xlink:title="ModelCreator_t I/O. ">
<polygon fill="#ffffff" stroke="#000000" points="181.5,-358.5 181.5,-377.5 340.5,-377.5 340.5,-358.5 181.5,-358.5"/>
<text text-anchor="middle" x="261" y="-365.5" font-family="Helvetica,sans-Serif" font-size="10.00" fill="#000000">sbml/annotation/ModelCreator.h</text>
</a>
</g>
</g>
<!-- Node9&#45;&gt;Node15 -->
<g id="edge33" class="edge">
<title>Node9&#45;&gt;Node15</title>
<path fill="none" stroke="#191970" d="M325.4134,-414.2455C313.6695,-405.814 296.4801,-393.4729 282.8118,-383.6598"/>
<polygon fill="#191970" stroke="#191970" points="284.5954,-380.6316 274.4309,-377.6427 280.5129,-386.3179 284.5954,-380.6316"/>
</g>
<!-- Node10&#45;&gt;Node3 -->
<g id="edge16" class="edge">
<title>Node10&#45;&gt;Node3</title>
<path fill="none" stroke="#191970" d="M221.6522,-302.1652C214.1384,-289.2736 203.3194,-265.9544 209,-246 225.4968,-188.0511 296.8417,-174.7592 266,-123 257.109,-108.0789 241.5103,-97.7035 226.0823,-90.6373"/>
<polygon fill="#191970" stroke="#191970" points="227.1358,-87.2841 216.5598,-86.6541 224.4346,-93.742 227.1358,-87.2841"/>
</g>
<!-- Node10&#45;&gt;Node5 -->
<g id="edge18" class="edge">
<title>Node10&#45;&gt;Node5</title>
<path fill="none" stroke="#191970" d="M237.9872,-302.4016C267.2164,-274.3407 350.9746,-194.1577 358,-190 389.2536,-171.5037 427.9726,-158.7455 459.259,-150.5544"/>
<polygon fill="#191970" stroke="#191970" points="460.3015,-153.901 469.1368,-148.0539 458.5837,-147.115 460.3015,-153.901"/>
</g>
<!-- Node11 -->
<g id="node11" class="node">
<title>Node11</title>
<polygon fill="#ffffff" stroke="#bfbfbf" points="218.5,-246.5 218.5,-265.5 267.5,-265.5 267.5,-246.5 218.5,-246.5"/>
<text text-anchor="middle" x="243" y="-253.5" font-family="Helvetica,sans-Serif" font-size="10.00" fill="#000000">string.h</text>
</g>
<!-- Node10&#45;&gt;Node11 -->
<g id="edge17" class="edge">
<title>Node10&#45;&gt;Node11</title>
<path fill="none" stroke="#191970" d="M230.6128,-302.2455C232.5916,-294.8579 235.3744,-284.4689 237.8012,-275.4087"/>
<polygon fill="#191970" stroke="#191970" points="241.2105,-276.2078 240.4171,-265.6427 234.4489,-274.3966 241.2105,-276.2078"/>
</g>
<!-- Node12&#45;&gt;Node5 -->
<g id="edge26" class="edge">
<title>Node12&#45;&gt;Node5</title>
<path fill="none" stroke="#191970" d="M524.3381,-302.4654C517.7513,-293.6125 508.7403,-279.7614 505,-266 494.8985,-228.8346 503.5209,-183.5405 510.1416,-158.1672"/>
<polygon fill="#191970" stroke="#191970" points="513.5776,-158.8745 512.8822,-148.3025 506.8331,-157.0007 513.5776,-158.8745"/>
</g>
<!-- Node12&#45;&gt;Node7 -->
<g id="edge20" class="edge">
<title>Node12&#45;&gt;Node7</title>
<path fill="none" stroke="#191970" d="M588.1876,-303.5925C640.3042,-292.3758 714.4194,-266.845 746,-210 760.038,-184.7316 728.3217,-164.4043 699.9245,-151.9755"/>
<polygon fill="#191970" stroke="#191970" points="701.0704,-148.6619 690.4923,-148.0676 698.3911,-155.1288 701.0704,-148.6619"/>
</g>
<!-- Node13 -->
<g id="node13" class="node">
<title>Node13</title>
<g id="a_node13"><a xlink:href="_x_m_l_token_8h.html" target="_top" xlink:title="A unit of XML syntax, either an XML element or text. ">
<polygon fill="#ffffff" stroke="#000000" points="514.5,-246.5 514.5,-265.5 629.5,-265.5 629.5,-246.5 514.5,-246.5"/>
<text text-anchor="middle" x="572" y="-253.5" font-family="Helvetica,sans-Serif" font-size="10.00" fill="#000000">sbml/xml/XMLToken.h</text>
</a>
</g>
</g>
<!-- Node12&#45;&gt;Node13 -->
<g id="edge21" class="edge">
<title>Node12&#45;&gt;Node13</title>
<path fill="none" stroke="#191970" d="M538.9675,-302.2455C544.5311,-294.4564 552.478,-283.3308 559.1829,-273.9439"/>
<polygon fill="#191970" stroke="#191970" points="562.148,-275.8144 565.1124,-265.6427 556.4519,-271.7457 562.148,-275.8144"/>
</g>
<!-- Node13&#45;&gt;Node5 -->
<g id="edge25" class="edge">
<title>Node13&#45;&gt;Node5</title>
<path fill="none" stroke="#191970" d="M566.6776,-246.2163C561.6957,-236.9627 554.1229,-222.6479 548,-210 539.5122,-192.467 530.5048,-172.1707 524.2163,-157.6919"/>
<polygon fill="#191970" stroke="#191970" points="527.3394,-156.0953 520.1642,-148.3 520.9121,-158.8684 527.3394,-156.0953"/>
</g>
<!-- Node13&#45;&gt;Node6 -->
<g id="edge23" class="edge">
<title>Node13&#45;&gt;Node6</title>
<path fill="none" stroke="#191970" d="M586.4575,-246.2455C599.0732,-237.7337 617.5944,-225.2375 632.2045,-215.3801"/>
<polygon fill="#191970" stroke="#191970" points="634.3761,-218.1371 640.7082,-209.6427 630.4609,-212.3343 634.3761,-218.1371"/>
</g>
<!-- Node13&#45;&gt;Node7 -->
<g id="edge22" class="edge">
<title>Node13&#45;&gt;Node7</title>
<path fill="none" stroke="#191970" d="M629.6479,-246.5251C669.2636,-238.7023 716.8251,-226.2538 729,-210 744.9161,-188.7515 716.5271,-166.838 691.9365,-152.9671"/>
<polygon fill="#191970" stroke="#191970" points="693.2646,-149.7076 682.7982,-148.0628 689.9544,-155.8756 693.2646,-149.7076"/>
</g>
<!-- Node13&#45;&gt;Node13 -->
<g id="edge24" class="edge">
<title>Node13&#45;&gt;Node13</title>
<path fill="none" stroke="#191970" d="M604.2009,-265.5252C626.0805,-268.3079 647.5,-265.1328 647.5,-256 647.5,-248.2942 632.2512,-244.8298 614.3433,-245.6068"/>
<polygon fill="#191970" stroke="#191970" points="613.866,-242.1347 604.2009,-246.4748 614.4629,-249.1092 613.866,-242.1347"/>
</g>
<!-- Node14&#45;&gt;Node3 -->
<g id="edge28" class="edge">
<title>Node14&#45;&gt;Node3</title>
<path fill="none" stroke="#191970" d="M416.8538,-358.4281C414.6417,-339.0998 410,-294.0133 410,-256 410,-256 410,-256 410,-200 410,-126.705 317.8289,-96.9035 250.4378,-84.9096"/>
<polygon fill="#191970" stroke="#191970" points="250.713,-81.4068 240.271,-83.1998 249.552,-88.3099 250.713,-81.4068"/>
</g>
<!-- Node14&#45;&gt;Node5 -->
<g id="edge29" class="edge">
<title>Node14&#45;&gt;Node5</title>
<path fill="none" stroke="#191970" d="M422.0862,-358.4309C436.9045,-323.7288 487.9918,-204.0906 507.935,-157.3868"/>
<polygon fill="#191970" stroke="#191970" points="511.188,-158.6811 511.8964,-148.11 504.7504,-155.9321 511.188,-158.6811"/>
</g>
<!-- Node14&#45;&gt;Node8 -->
<g id="edge30" class="edge">
<title>Node14&#45;&gt;Node8</title>
<path fill="none" stroke="#191970" d="M408.1181,-358.4309C373.1204,-324.5406 254.467,-209.6421 204.0107,-160.7826"/>
<polygon fill="#191970" stroke="#191970" points="206.4186,-158.2421 196.8,-153.8 201.549,-163.2708 206.4186,-158.2421"/>
</g>
<!-- Node14&#45;&gt;Node10 -->
<g id="edge31" class="edge">
<title>Node14&#45;&gt;Node10</title>
<path fill="none" stroke="#191970" d="M385.3378,-358.3733C353.4702,-348.9807 304.8469,-334.6496 270.093,-324.4064"/>
<polygon fill="#191970" stroke="#191970" points="270.8175,-320.9711 260.236,-321.5011 268.8385,-327.6855 270.8175,-320.9711"/>
</g>
<!-- Node14&#45;&gt;Node12 -->
<g id="edge32" class="edge">
<title>Node14&#45;&gt;Node12</title>
<path fill="none" stroke="#191970" d="M437.5973,-358.3733C455.7331,-349.4644 482.9135,-336.1127 503.4587,-326.0203"/>
<polygon fill="#191970" stroke="#191970" points="505.2261,-329.0517 512.6584,-321.5011 502.1397,-322.7688 505.2261,-329.0517"/>
</g>
<!-- Node15&#45;&gt;Node3 -->
<g id="edge34" class="edge">
<title>Node15&#45;&gt;Node3</title>
<path fill="none" stroke="#191970" d="M227.4532,-358.4201C207.3985,-351.2173 182.6616,-339.5353 166,-322 110.1639,-263.2361 111.0984,-233.4462 95,-154 92.2638,-140.4967 87.9185,-134.8186 95,-123 104.0087,-107.9649 119.7934,-97.5677 135.4013,-90.5159"/>
<polygon fill="#191970" stroke="#191970" points="137.1223,-93.5923 145.0343,-86.546 134.4551,-87.1203 137.1223,-93.5923"/>
</g>
<!-- Node15&#45;&gt;Node5 -->
<g id="edge35" class="edge">
<title>Node15&#45;&gt;Node5</title>
<path fill="none" stroke="#191970" d="M271.6324,-358.4309C310.9193,-323.0726 448.1821,-199.5361 497.8701,-154.8169"/>
<polygon fill="#191970" stroke="#191970" points="500.2307,-157.4012 505.3222,-148.11 495.5479,-152.1981 500.2307,-157.4012"/>
</g>
<!-- Node15&#45;&gt;Node8 -->
<g id="edge36" class="edge">
<title>Node15&#45;&gt;Node8</title>
<path fill="none" stroke="#191970" d="M227.4998,-358.3574C209.7388,-351.3494 189.476,-339.8886 179,-322 149.8394,-272.206 162.9424,-201.0177 173.1024,-163.6333"/>
<polygon fill="#191970" stroke="#191970" points="176.5864,-164.1812 175.9816,-153.6036 169.8581,-162.2496 176.5864,-164.1812"/>
</g>
<!-- Node15&#45;&gt;Node10 -->
<g id="edge37" class="edge">
<title>Node15&#45;&gt;Node10</title>
<path fill="none" stroke="#191970" d="M255.2518,-358.2455C250.7565,-350.617 244.3752,-339.7881 238.9175,-330.5267"/>
<polygon fill="#191970" stroke="#191970" points="241.7747,-328.4811 233.6823,-321.6427 235.7439,-332.035 241.7747,-328.4811"/>
</g>
<!-- Node15&#45;&gt;Node12 -->
<g id="edge38" class="edge">
<title>Node15&#45;&gt;Node12</title>
<path fill="none" stroke="#191970" d="M307.2786,-358.4369C353.9505,-348.7925 426.0449,-333.8948 475.9331,-323.5858"/>
<polygon fill="#191970" stroke="#191970" points="476.8274,-326.975 485.9122,-321.5237 475.4108,-320.1198 476.8274,-326.975"/>
</g>
</g>
</svg>
        <g id="navigator" transform="translate(0 0)" fill="#404254">
                <rect fill="#f2f5e9" fill-opacity="0.5" stroke="#606060" stroke-width=".5" x="0" y="0" width="60" height="60"/>
                <use id="zoomplus" xlink:href="#zoomPlus" x="17" y="9" onmousedown="handleZoom(evt,'in')"/>
                <use id="zoomminus" xlink:href="#zoomMin" x="42" y="9" onmousedown="handleZoom(evt,'out')"/>
                <use id="reset" xlink:href="#resetDef" x="30" y="36" onmousedown="handleReset()"/>
                <g id="arrowUp" xlink:href="#dirArrow" transform="translate(30 24)" onmousedown="handlePan(0,-1)">
                  <use xlink:href="#rim" fill="#404040">
                        <set attributeName="fill" to="#808080" begin="arrowUp.mouseover" end="arrowUp.mouseout"/>
                  </use>
                  <path fill="none" stroke="white" stroke-width="1.5" d="M0,-3.0v7 M-2.5,-0.5L0,-3.0L2.5,-0.5"/>
                </g>
                <g id="arrowRight" xlink:href="#dirArrow" transform="rotate(90) translate(36 -43)" onmousedown="handlePan(1,0)">
                  <use xlink:href="#rim" fill="#404040">
                        <set attributeName="fill" to="#808080" begin="arrowRight.mouseover" end="arrowRight.mouseout"/>
                  </use>
                  <path fill="none" stroke="white" stroke-width="1.5" d="M0,-3.0v7 M-2.5,-0.5L0,-3.0L2.5,-0.5"/>
                </g>
                <g id="arrowDown" xlink:href="#dirArrow" transform="rotate(180) translate(-30 -48)" onmousedown="handlePan(0,1)">
                  <use xlink:href="#rim" fill="#404040">
                        <set attributeName="fill" to="#808080" begin="arrowDown.mouseover" end="arrowDown.mouseout"/>
                  </use>
                  <path fill="none" stroke="white" stroke-width="1.5" d="M0,-3.0v7 M-2.5,-0.5L0,-3.0L2.5,-0.5"/>
                </g>
                <g id="arrowLeft" xlink:href="#dirArrow" transform="rotate(270) translate(-36 17)" onmousedown="handlePan(-1,0)">
                  <use xlink:href="#rim" fill="#404040">
                        <set attributeName="fill" to="#808080" begin="arrowLeft.mouseover" end="arrowLeft.mouseout"/>
                  </use>
                  <path fill="none" stroke="white" stroke-width="1.5" d="M0,-3.0v7 M-2.5,-0.5L0,-3.0L2.5,-0.5"/>
                </g>
        </g>
        <svg viewBox="0 0 15 15" width="100%" height="30px" preserveAspectRatio="xMaxYMin meet">
         <g id="arrow_out" transform="scale(0.3 0.3)">
          <a xlink:href="_r_d_f_annotation_8h__incl_org.svg" target="_base">
           <rect id="button" ry="5" rx="5" y="6" x="6" height="38" width="38"
                fill="#f2f5e9" fill-opacity="0.5" stroke="#606060" stroke-width="1.0"/>
           <path id="arrow"
             d="M 11.500037,31.436501 C 11.940474,20.09759 22.043105,11.32322 32.158766,21.979434 L 37.068811,17.246167 C 37.068811,17.246167 37.088388,32 37.088388,32 L 22.160133,31.978069 C 22.160133,31.978069 26.997745,27.140456 26.997745,27.140456 C 18.528582,18.264221 13.291696,25.230495 11.500037,31.436501 z"
             style="fill:#404040;"/>
          </a>
         </g>
        </svg>
</svg>
