<?xml version="1.0" encoding="UTF-8" standalone="no"?>
<!DOCTYPE svg PUBLIC "-//W3C//DTD SVG 1.1//EN"
 "http://www.w3.org/Graphics/SVG/1.1/DTD/svg11.dtd">
<!-- Generated by graphviz version 2.40.1 (20161225.0304)
 -->
<!-- Title: RenderExtensionTypes.h Pages: 1 -->
<svg width="513pt" height="140pt"
 viewBox="0.00 0.00 513.00 140.00" xmlns="http://www.w3.org/2000/svg" xmlns:xlink="http://www.w3.org/1999/xlink">
<g id="graph0" class="graph" transform="scale(1 1) rotate(0) translate(4 136)">
<title>RenderExtensionTypes.h</title>
<polygon fill="#ffffff" stroke="transparent" points="-4,4 -4,-136 509,-136 509,4 -4,4"/>
<!-- Node1 -->
<g id="node1" class="node">
<title>Node1</title>
<polygon fill="#bfbfbf" stroke="#000000" points="231.5,-112.5 231.5,-131.5 360.5,-131.5 360.5,-112.5 231.5,-112.5"/>
<text text-anchor="middle" x="296" y="-119.5" font-family="Helvetica,sans-Serif" font-size="10.00" fill="#000000">RenderExtensionTypes.h</text>
</g>
<!-- Node2 -->
<g id="node2" class="node">
<title>Node2</title>
<g id="a_node2"><a xlink:href="_render_layout_plugin_8cpp.html" target="_top" xlink:title="Implementation of RenderLayoutPlugin_t, the plugin class of the fbc package for the Model_t element...">
<polygon fill="#ffffff" stroke="#000000" points="0,-.5 0,-19.5 126,-19.5 126,-.5 0,-.5"/>
<text text-anchor="middle" x="63" y="-7.5" font-family="Helvetica,sans-Serif" font-size="10.00" fill="#000000">RenderLayoutPlugin.cpp</text>
</a>
</g>
</g>
<!-- Node1&#45;&gt;Node2 -->
<g id="edge1" class="edge">
<title>Node1&#45;&gt;Node2</title>
<path fill="none" stroke="#191970" d="M221.1904,-114.1121C167.8231,-107.0078 102.0928,-94.7602 82,-76 66.138,-61.19 63.2266,-34.0795 62.8688,-19.6436"/>
<polygon fill="#191970" stroke="#191970" points="220.9735,-117.613 231.3393,-115.422 221.8696,-110.6706 220.9735,-117.613"/>
</g>
<!-- Node3 -->
<g id="node3" class="node">
<title>Node3</title>
<g id="a_node3"><a xlink:href="_render_layout_converter_8cpp.html" target="_top" xlink:title="Simple converter to convert Layout_t + Render from l2 to L3 and vice versa. ">
<polygon fill="#ffffff" stroke="#000000" points="91,-56.5 91,-75.5 233,-75.5 233,-56.5 91,-56.5"/>
<text text-anchor="middle" x="162" y="-63.5" font-family="Helvetica,sans-Serif" font-size="10.00" fill="#000000">RenderLayoutConverter.cpp</text>
</a>
</g>
</g>
<!-- Node1&#45;&gt;Node3 -->
<g id="edge2" class="edge">
<title>Node1&#45;&gt;Node3</title>
<path fill="none" stroke="#191970" d="M263.4172,-108.3833C239.0464,-98.1985 206.3358,-84.5284 184.7348,-75.5011"/>
<polygon fill="#191970" stroke="#191970" points="262.3883,-111.7466 272.9646,-112.3733 265.0875,-105.2879 262.3883,-111.7466"/>
</g>
<!-- Node4 -->
<g id="node4" class="node">
<title>Node4</title>
<g id="a_node4"><a xlink:href="_render_utilities_8cpp.html" target="_top" xlink:title="implementation of RenderUtilities, a class of utility functions for the render package ...">
<polygon fill="#ffffff" stroke="#000000" points="320,-.5 320,-19.5 420,-19.5 420,-.5 320,-.5"/>
<text text-anchor="middle" x="370" y="-7.5" font-family="Helvetica,sans-Serif" font-size="10.00" fill="#000000">RenderUtilities.cpp</text>
</a>
</g>
</g>
<!-- Node1&#45;&gt;Node4 -->
<g id="edge3" class="edge">
<title>Node1&#45;&gt;Node4</title>
<path fill="none" stroke="#191970" d="M319.5506,-106.6593C330.1937,-98.6592 342.1215,-88.0322 350,-76 361.6745,-58.1704 366.7834,-33.2268 368.8128,-19.6819"/>
<polygon fill="#191970" stroke="#191970" points="317.4939,-103.8271 311.3922,-112.4886 321.5635,-109.5226 317.4939,-103.8271"/>
</g>
<!-- Node5 -->
<g id="node5" class="node">
<title>Node5</title>
<g id="a_node5"><a xlink:href="_render_utilities_8h.html" target="_top" xlink:title="Definition of RenderUtilities, a class of utility functions for the render package. ">
<polygon fill="#ffffff" stroke="#000000" points="251,-56.5 251,-75.5 341,-75.5 341,-56.5 251,-56.5"/>
<text text-anchor="middle" x="296" y="-63.5" font-family="Helvetica,sans-Serif" font-size="10.00" fill="#000000">RenderUtilities.h</text>
</a>
</g>
</g>
<!-- Node1&#45;&gt;Node5 -->
<g id="edge4" class="edge">
<title>Node1&#45;&gt;Node5</title>
<path fill="none" stroke="#191970" d="M296,-102.1575C296,-93.155 296,-82.9199 296,-75.6427"/>
<polygon fill="#191970" stroke="#191970" points="292.5001,-102.2455 296,-112.2455 299.5001,-102.2456 292.5001,-102.2455"/>
</g>
<!-- Node7 -->
<g id="node7" class="node">
<title>Node7</title>
<g id="a_node7"><a xlink:href="_render_validator_8cpp.html" target="_top" xlink:title="Definition of RenderValidator_t. ">
<polygon fill="#ffffff" stroke="#000000" points="397,-56.5 397,-75.5 505,-75.5 505,-56.5 397,-56.5"/>
<text text-anchor="middle" x="451" y="-63.5" font-family="Helvetica,sans-Serif" font-size="10.00" fill="#000000">RenderValidator.cpp</text>
</a>
</g>
</g>
<!-- Node1&#45;&gt;Node7 -->
<g id="edge8" class="edge">
<title>Node1&#45;&gt;Node7</title>
<path fill="none" stroke="#191970" d="M332.1949,-108.9231C360.5297,-98.686 399.2718,-84.6889 424.7022,-75.5011"/>
<polygon fill="#191970" stroke="#191970" points="330.8612,-105.6835 322.6454,-112.3733 333.2398,-112.267 330.8612,-105.6835"/>
</g>
<!-- Node5&#45;&gt;Node2 -->
<g id="edge5" class="edge">
<title>Node5&#45;&gt;Node2</title>
<path fill="none" stroke="#191970" d="M246.2682,-54.0473C203.3828,-43.7401 142.2748,-29.0532 102.6253,-19.5237"/>
<polygon fill="#191970" stroke="#191970" points="245.6696,-57.503 256.2106,-56.4369 247.3054,-50.6968 245.6696,-57.503"/>
</g>
<!-- Node5&#45;&gt;Node4 -->
<g id="edge7" class="edge">
<title>Node5&#45;&gt;Node4</title>
<path fill="none" stroke="#191970" d="M316.8657,-50.2097C329.8625,-40.3743 346.1622,-28.0394 357.2579,-19.6427"/>
<polygon fill="#191970" stroke="#191970" points="314.7518,-47.4201 308.8898,-56.2455 318.976,-53.002 314.7518,-47.4201"/>
</g>
<!-- Node6 -->
<g id="node6" class="node">
<title>Node6</title>
<g id="a_node6"><a xlink:href="_render_list_of_layouts_plugin_8cpp.html" target="_top" xlink:title="Implementation of RenderListOfLayoutsPlugin_t, the plugin class of the fbc package for the Model_t el...">
<polygon fill="#ffffff" stroke="#000000" points="144.5,-.5 144.5,-19.5 301.5,-19.5 301.5,-.5 144.5,-.5"/>
<text text-anchor="middle" x="223" y="-7.5" font-family="Helvetica,sans-Serif" font-size="10.00" fill="#000000">RenderListOfLayoutsPlugin.cpp</text>
</a>
</g>
</g>
<!-- Node5&#45;&gt;Node6 -->
<g id="edge6" class="edge">
<title>Node5&#45;&gt;Node6</title>
<path fill="none" stroke="#191970" d="M275.049,-49.928C262.2893,-40.1397 246.4115,-27.9595 235.5699,-19.6427"/>
<polygon fill="#191970" stroke="#191970" points="273.2197,-52.9359 283.2844,-56.2455 277.4804,-47.3819 273.2197,-52.9359"/>
</g>
</g>
</svg>
