<?xml version="1.0" encoding="UTF-8" standalone="no"?>
<!DOCTYPE svg PUBLIC "-//W3C//DTD SVG 1.1//EN"
 "http://www.w3.org/Graphics/SVG/1.1/DTD/svg11.dtd">
<!-- Generated by graphviz version 2.40.1 (20161225.0304)
 -->
<!-- Title: ReplacedElement.cpp Pages: 1 -->
<svg width="1580pt" height="486pt"
 viewBox="0.00 0.00 1579.94 486.00" xmlns="http://www.w3.org/2000/svg" xmlns:xlink="http://www.w3.org/1999/xlink">
<g id="graph0" class="graph" transform="scale(1 1) rotate(0) translate(4 482)">
<title>ReplacedElement.cpp</title>
<polygon fill="#ffffff" stroke="transparent" points="-4,4 -4,-482 1575.9426,-482 1575.9426,4 -4,4"/>
<!-- Node1 -->
<g id="node1" class="node">
<title>Node1</title>
<polygon fill="#bfbfbf" stroke="#000000" points="764.5,-458.5 764.5,-477.5 878.5,-477.5 878.5,-458.5 764.5,-458.5"/>
<text text-anchor="middle" x="821.5" y="-465.5" font-family="Helvetica,sans-Serif" font-size="10.00" fill="#000000">ReplacedElement.cpp</text>
</g>
<!-- Node2 -->
<g id="node2" class="node">
<title>Node2</title>
<polygon fill="#ffffff" stroke="#bfbfbf" points="0,-397 0,-416 55,-416 55,-397 0,-397"/>
<text text-anchor="middle" x="27.5" y="-404" font-family="Helvetica,sans-Serif" font-size="10.00" fill="#000000">iostream</text>
</g>
<!-- Node1&#45;&gt;Node2 -->
<g id="edge1" class="edge">
<title>Node1&#45;&gt;Node2</title>
<path fill="none" stroke="#191970" d="M764.3338,-467.0016C611.7512,-463.9427 197.4665,-452.951 64.5,-422 61.8567,-421.3847 59.1608,-420.5976 56.4895,-419.7052"/>
<polygon fill="#191970" stroke="#191970" points="57.6527,-416.4031 47.0613,-416.1312 55.1714,-422.9486 57.6527,-416.4031"/>
</g>
<!-- Node3 -->
<g id="node3" class="node">
<title>Node3</title>
<g id="a_node3"><a xlink:href="_s_b_m_l_visitor_8h.html" target="_top" xlink:title="Visitor Design Pattern for the SBML object tree. ">
<polygon fill="#ffffff" stroke="#000000" points="73.5,-397 73.5,-416 177.5,-416 177.5,-397 73.5,-397"/>
<text text-anchor="middle" x="125.5" y="-404" font-family="Helvetica,sans-Serif" font-size="10.00" fill="#000000">sbml/SBMLVisitor.h</text>
</a>
</g>
</g>
<!-- Node1&#45;&gt;Node3 -->
<g id="edge2" class="edge">
<title>Node1&#45;&gt;Node3</title>
<path fill="none" stroke="#191970" d="M764.2612,-466.8392C653.2052,-463.9215 400.9935,-454.0428 191.5,-422 185.0863,-421.019 178.3745,-419.7418 171.7904,-418.3414"/>
<polygon fill="#191970" stroke="#191970" points="172.1329,-414.8316 161.6101,-416.0643 170.6049,-421.6628 172.1329,-414.8316"/>
</g>
<!-- Node4 -->
<g id="node4" class="node">
<title>Node4</title>
<g id="a_node4"><a xlink:href="_x_m_l_node_8h.html" target="_top" xlink:title="Class definition of XMLNode_t, a node in an XML document tree. ">
<polygon fill="#ffffff" stroke="#000000" points="284.5,-397 284.5,-416 396.5,-416 396.5,-397 284.5,-397"/>
<text text-anchor="middle" x="340.5" y="-404" font-family="Helvetica,sans-Serif" font-size="10.00" fill="#000000">sbml/xml/XMLNode.h</text>
</a>
</g>
</g>
<!-- Node1&#45;&gt;Node4 -->
<g id="edge3" class="edge">
<title>Node1&#45;&gt;Node4</title>
<path fill="none" stroke="#191970" d="M764.1738,-462.7006C686.5155,-455.2231 543.6591,-440.4107 422.5,-422 414.4552,-420.7776 405.9934,-419.3454 397.6849,-417.8545"/>
<polygon fill="#191970" stroke="#191970" points="398.132,-414.3782 387.6646,-416.0168 396.8692,-421.2634 398.132,-414.3782"/>
</g>
<!-- Node7 -->
<g id="node7" class="node">
<title>Node7</title>
<g id="a_node7"><a xlink:href="_x_m_l_token_8h.html" target="_top" xlink:title="A unit of XML syntax, either an XML element or text. ">
<polygon fill="#ffffff" stroke="#000000" points="272,-330 272,-349 387,-349 387,-330 272,-330"/>
<text text-anchor="middle" x="329.5" y="-337" font-family="Helvetica,sans-Serif" font-size="10.00" fill="#000000">sbml/xml/XMLToken.h</text>
</a>
</g>
</g>
<!-- Node1&#45;&gt;Node7 -->
<g id="edge17" class="edge">
<title>Node1&#45;&gt;Node7</title>
<path fill="none" stroke="#191970" d="M764.4131,-462.9312C681.0408,-455.0898 530.2649,-439.1253 478.5,-422 429.8648,-405.9101 378.8159,-373.813 350.8953,-354.744"/>
<polygon fill="#191970" stroke="#191970" points="352.8881,-351.8667 342.6752,-349.0473 348.9008,-357.6201 352.8881,-351.8667"/>
</g>
<!-- Node8 -->
<g id="node8" class="node">
<title>Node8</title>
<g id="a_node8"><a xlink:href="_x_m_l_attributes_8h.html" target="_top" xlink:title="XMLAttributes_t are a list of name/value pairs for XML elements. ">
<polygon fill="#ffffff" stroke="#000000" points="299.5,-263 299.5,-282 429.5,-282 429.5,-263 299.5,-263"/>
<text text-anchor="middle" x="364.5" y="-270" font-family="Helvetica,sans-Serif" font-size="10.00" fill="#000000">sbml/xml/XMLAttributes.h</text>
</a>
</g>
</g>
<!-- Node1&#45;&gt;Node8 -->
<g id="edge18" class="edge">
<title>Node1&#45;&gt;Node8</title>
<path fill="none" stroke="#191970" d="M764.1318,-467.0176C631.3216,-464.2048 311.2907,-454.1329 275.5,-422 242.8061,-392.6474 239.4741,-361.4203 262.5,-324 273.9358,-305.4153 294.3763,-293.2933 313.9718,-285.5115"/>
<polygon fill="#191970" stroke="#191970" points="315.2929,-288.7551 323.4803,-282.0307 312.8865,-282.1817 315.2929,-288.7551"/>
</g>
<!-- Node12 -->
<g id="node12" class="node">
<title>Node12</title>
<g id="a_node12"><a xlink:href="_x_m_l_input_stream_8h.html" target="_top" xlink:title="XMLInputStream_t. ">
<polygon fill="#ffffff" stroke="#000000" points="487.5,-397 487.5,-416 629.5,-416 629.5,-397 487.5,-397"/>
<text text-anchor="middle" x="558.5" y="-404" font-family="Helvetica,sans-Serif" font-size="10.00" fill="#000000">sbml/xml/XMLInputStream.h</text>
</a>
</g>
</g>
<!-- Node1&#45;&gt;Node12 -->
<g id="edge19" class="edge">
<title>Node1&#45;&gt;Node12</title>
<path fill="none" stroke="#191970" d="M780.6948,-458.4581C734.5311,-447.6632 659.2928,-430.0694 609.346,-418.3899"/>
<polygon fill="#191970" stroke="#191970" points="609.9352,-414.9333 599.4009,-416.0643 608.3413,-421.7494 609.9352,-414.9333"/>
</g>
<!-- Node23 -->
<g id="node23" class="node">
<title>Node23</title>
<g id="a_node23"><a xlink:href="_x_m_l_output_stream_8h.html" target="_top" xlink:title="XMLOutputStream_t. ">
<polygon fill="#ffffff" stroke="#000000" points="727.5,-330 727.5,-349 877.5,-349 877.5,-330 727.5,-330"/>
<text text-anchor="middle" x="802.5" y="-337" font-family="Helvetica,sans-Serif" font-size="10.00" fill="#000000">sbml/xml/XMLOutputStream.h</text>
</a>
</g>
</g>
<!-- Node1&#45;&gt;Node23 -->
<g id="edge42" class="edge">
<title>Node1&#45;&gt;Node23</title>
<path fill="none" stroke="#191970" d="M820.0719,-458.3416C816.9772,-437.4114 809.5979,-387.504 805.4537,-359.4762"/>
<polygon fill="#191970" stroke="#191970" points="808.8698,-358.6509 803.9447,-349.2705 801.9451,-359.6749 808.8698,-358.6509"/>
</g>
<!-- Node24 -->
<g id="node24" class="node">
<title>Node24</title>
<g id="a_node24"><a xlink:href="_comp_extension_8h.html" target="_top" xlink:title="Definition of CompExtension_t, the core module of comp package. ">
<polygon fill="#ffffff" stroke="#000000" points="1393.5,-324.5 1393.5,-354.5 1537.5,-354.5 1537.5,-324.5 1393.5,-324.5"/>
<text text-anchor="start" x="1401.5" y="-342.5" font-family="Helvetica,sans-Serif" font-size="10.00" fill="#000000">sbml/packages/comp</text>
<text text-anchor="middle" x="1465.5" y="-331.5" font-family="Helvetica,sans-Serif" font-size="10.00" fill="#000000">/extension/CompExtension.h</text>
</a>
</g>
</g>
<!-- Node1&#45;&gt;Node24 -->
<g id="edge44" class="edge">
<title>Node1&#45;&gt;Node24</title>
<path fill="none" stroke="#191970" d="M878.5789,-467.5987C1024.7253,-466.0449 1403.9433,-458.5014 1446.5,-422 1462.6339,-408.1617 1466.6028,-383.6305 1467.0022,-364.9036"/>
<polygon fill="#191970" stroke="#191970" points="1470.4995,-364.6338 1466.8898,-354.6728 1463.4999,-364.7107 1470.4995,-364.6338"/>
</g>
<!-- Node26 -->
<g id="node26" class="node">
<title>Node26</title>
<g id="a_node26"><a xlink:href="_comp_s_base_plugin_8h.html" target="_top" xlink:title="Definition of CompSBasePlugin_t, the plugin class of comp package for the Model_t element...">
<polygon fill="#ffffff" stroke="#000000" points="869,-391.5 869,-421.5 1026,-421.5 1026,-391.5 869,-391.5"/>
<text text-anchor="start" x="877" y="-409.5" font-family="Helvetica,sans-Serif" font-size="10.00" fill="#000000">sbml/packages/comp</text>
<text text-anchor="middle" x="947.5" y="-398.5" font-family="Helvetica,sans-Serif" font-size="10.00" fill="#000000">/extension/CompSBasePlugin.h</text>
</a>
</g>
</g>
<!-- Node1&#45;&gt;Node26 -->
<g id="edge49" class="edge">
<title>Node1&#45;&gt;Node26</title>
<path fill="none" stroke="#191970" d="M841.1875,-458.3906C858.8716,-449.7591 885.3806,-436.8202 907.503,-426.0224"/>
<polygon fill="#191970" stroke="#191970" points="909.2255,-429.0763 916.6769,-421.5446 906.155,-422.7857 909.2255,-429.0763"/>
</g>
<!-- Node27 -->
<g id="node27" class="node">
<title>Node27</title>
<g id="a_node27"><a xlink:href="_comp_model_plugin_8h.html" target="_top" xlink:title="Definition of CompModelPlugin_t, the plugin class of comp package for the Model_t element...">
<polygon fill="#ffffff" stroke="#000000" points="1044,-391.5 1044,-421.5 1199,-421.5 1199,-391.5 1044,-391.5"/>
<text text-anchor="start" x="1052" y="-409.5" font-family="Helvetica,sans-Serif" font-size="10.00" fill="#000000">sbml/packages/comp</text>
<text text-anchor="middle" x="1121.5" y="-398.5" font-family="Helvetica,sans-Serif" font-size="10.00" fill="#000000">/extension/CompModelPlugin.h</text>
</a>
</g>
</g>
<!-- Node1&#45;&gt;Node27 -->
<g id="edge50" class="edge">
<title>Node1&#45;&gt;Node27</title>
<path fill="none" stroke="#191970" d="M868.0458,-458.4581C913.3645,-449.1678 983.2474,-434.8418 1038.1643,-423.5838"/>
<polygon fill="#191970" stroke="#191970" points="1039.1417,-426.9563 1048.2351,-421.5193 1037.7359,-420.0989 1039.1417,-426.9563"/>
</g>
<!-- Node28 -->
<g id="node28" class="node">
<title>Node28</title>
<g id="a_node28"><a xlink:href="_replaced_element_8h.html" target="_top" xlink:title="Definition of ReplacedElement_t, the SBase_t derived class of replacedElements package. ">
<polygon fill="#ffffff" stroke="#000000" points="1165.5,-257.5 1165.5,-287.5 1295.5,-287.5 1295.5,-257.5 1165.5,-257.5"/>
<text text-anchor="start" x="1173.5" y="-275.5" font-family="Helvetica,sans-Serif" font-size="10.00" fill="#000000">sbml/packages/comp</text>
<text text-anchor="middle" x="1230.5" y="-264.5" font-family="Helvetica,sans-Serif" font-size="10.00" fill="#000000">/sbml/ReplacedElement.h</text>
</a>
</g>
</g>
<!-- Node1&#45;&gt;Node28 -->
<g id="edge51" class="edge">
<title>Node1&#45;&gt;Node28</title>
<path fill="none" stroke="#191970" d="M878.7984,-464.989C980.7786,-459.0828 1185.3092,-444.5548 1208.5,-422 1241.5915,-389.8159 1239.5866,-331.2465 1235.0979,-297.7674"/>
<polygon fill="#191970" stroke="#191970" points="1238.5531,-297.2073 1233.5946,-287.8444 1231.632,-298.2558 1238.5531,-297.2073"/>
</g>
<!-- Node30 -->
<g id="node30" class="node">
<title>Node30</title>
<g id="a_node30"><a xlink:href="_list_of_replaced_elements_8h.html" target="_top" xlink:title="Definition of ListOfReplacedElements_t, the SBase_t derived class of replacedElements package...">
<polygon fill="#ffffff" stroke="#000000" points="985.5,-257.5 985.5,-287.5 1147.5,-287.5 1147.5,-257.5 985.5,-257.5"/>
<text text-anchor="start" x="993.5" y="-275.5" font-family="Helvetica,sans-Serif" font-size="10.00" fill="#000000">sbml/packages/comp</text>
<text text-anchor="middle" x="1066.5" y="-264.5" font-family="Helvetica,sans-Serif" font-size="10.00" fill="#000000">/sbml/ListOfReplacedElements.h</text>
</a>
</g>
</g>
<!-- Node1&#45;&gt;Node30 -->
<g id="edge55" class="edge">
<title>Node1&#45;&gt;Node30</title>
<path fill="none" stroke="#191970" d="M824.2093,-458.4079C829.0525,-442.6945 840.5055,-411.1998 859.5,-391 903.4623,-344.2479 970.0587,-310.6731 1015.7736,-291.4548"/>
<polygon fill="#191970" stroke="#191970" points="1017.2836,-294.6182 1025.196,-287.5722 1014.6167,-288.1461 1017.2836,-294.6182"/>
</g>
<!-- Node31 -->
<g id="node31" class="node">
<title>Node31</title>
<g id="a_node31"><a xlink:href="_comp_s_b_m_l_error_8h.html" target="_top" xlink:title="Represents SBML errors and other diagnostics. ">
<polygon fill="#ffffff" stroke="#000000" points="1293.5,-391.5 1293.5,-421.5 1437.5,-421.5 1437.5,-391.5 1293.5,-391.5"/>
<text text-anchor="start" x="1301.5" y="-409.5" font-family="Helvetica,sans-Serif" font-size="10.00" fill="#000000">sbml/packages/comp</text>
<text text-anchor="middle" x="1365.5" y="-398.5" font-family="Helvetica,sans-Serif" font-size="10.00" fill="#000000">/validator/CompSBMLError.h</text>
</a>
</g>
</g>
<!-- Node1&#45;&gt;Node31 -->
<g id="edge59" class="edge">
<title>Node1&#45;&gt;Node31</title>
<path fill="none" stroke="#191970" d="M878.7935,-463.6937C965.6789,-456.8365 1135.8594,-442.1263 1279.5,-422 1280.7677,-421.8224 1282.0452,-421.6396 1283.3306,-421.4523"/>
<polygon fill="#191970" stroke="#191970" points="1283.945,-424.8992 1293.3047,-419.9347 1282.892,-417.9788 1283.945,-424.8992"/>
</g>
<!-- Node32 -->
<g id="node32" class="node">
<title>Node32</title>
<g id="a_node32"><a xlink:href="_model_8h.html" target="_top" xlink:title="Definition of Model_t. ">
<polygon fill="#ffffff" stroke="#000000" points="1285.5,-330 1285.5,-349 1361.5,-349 1361.5,-330 1285.5,-330"/>
<text text-anchor="middle" x="1323.5" y="-337" font-family="Helvetica,sans-Serif" font-size="10.00" fill="#000000">sbml/Model.h</text>
</a>
</g>
</g>
<!-- Node1&#45;&gt;Node32 -->
<g id="edge60" class="edge">
<title>Node1&#45;&gt;Node32</title>
<path fill="none" stroke="#191970" d="M878.728,-466.4187C978.3012,-462.8994 1178.7975,-452.1932 1241.5,-422 1271.6579,-407.478 1297.1385,-377.1764 1311.3562,-357.6162"/>
<polygon fill="#191970" stroke="#191970" points="1314.3576,-359.4324 1317.2376,-349.2365 1308.6279,-355.411 1314.3576,-359.4324"/>
</g>
<!-- Node5 -->
<g id="node5" class="node">
<title>Node5</title>
<g id="a_node5"><a xlink:href="_x_m_l_extern_8h.html" target="_top" xlink:title="Defines LIBLAX_EXTERN. ">
<polygon fill="#ffffff" stroke="#000000" points="260,-196 260,-215 377,-215 377,-196 260,-196"/>
<text text-anchor="middle" x="318.5" y="-203" font-family="Helvetica,sans-Serif" font-size="10.00" fill="#000000">sbml/xml/XMLExtern.h</text>
</a>
</g>
</g>
<!-- Node4&#45;&gt;Node5 -->
<g id="edge4" class="edge">
<title>Node4&#45;&gt;Node5</title>
<path fill="none" stroke="#191970" d="M316.6011,-396.881C298.8664,-388.483 275.5799,-374.5587 262.5,-355 245.6378,-329.7856 252.4022,-318.194 249.5,-288 248.1818,-274.2854 243.3241,-269.3161 249.5,-257 257.5248,-240.9968 273.1431,-228.6956 287.4934,-220.135"/>
<polygon fill="#191970" stroke="#191970" points="289.6066,-222.9649 296.6479,-215.0484 286.2067,-216.846 289.6066,-222.9649"/>
</g>
<!-- Node4&#45;&gt;Node7 -->
<g id="edge6" class="edge">
<title>Node4&#45;&gt;Node7</title>
<path fill="none" stroke="#191970" d="M338.924,-396.9005C337.3066,-387.0495 334.7447,-371.4451 332.7,-358.9912"/>
<polygon fill="#191970" stroke="#191970" points="336.1471,-358.3825 331.0731,-349.0817 329.2395,-359.5166 336.1471,-358.3825"/>
</g>
<!-- Node9 -->
<g id="node9" class="node">
<title>Node9</title>
<polygon fill="#ffffff" stroke="#bfbfbf" points="628,-196 628,-215 755,-215 755,-196 628,-196"/>
<text text-anchor="middle" x="691.5" y="-203" font-family="Helvetica,sans-Serif" font-size="10.00" fill="#000000">sbml/common/sbmlfwd.h</text>
</g>
<!-- Node4&#45;&gt;Node9 -->
<g id="edge16" class="edge">
<title>Node4&#45;&gt;Node9</title>
<path fill="none" stroke="#191970" d="M359.5692,-396.8819C393.0713,-380.2696 464.976,-345.883 528.5,-324 589.6503,-302.9347 623.5242,-333.49 669.5,-288 686.158,-271.5181 690.6319,-243.932 691.6174,-225.241"/>
<polygon fill="#191970" stroke="#191970" points="695.118,-225.2544 691.8593,-215.1732 688.1201,-225.0862 695.118,-225.2544"/>
</g>
<!-- Node6 -->
<g id="node6" class="node">
<title>Node6</title>
<g id="a_node6"><a xlink:href="libsbml-namespace_8h.html" target="_top" xlink:title="Defines C++ namespace of libSBML. ">
<polygon fill="#ffffff" stroke="#000000" points="1136,-.5 1136,-30.5 1249,-30.5 1249,-.5 1136,-.5"/>
<text text-anchor="start" x="1144" y="-18.5" font-family="Helvetica,sans-Serif" font-size="10.00" fill="#000000">sbml/common/libsbml</text>
<text text-anchor="middle" x="1192.5" y="-7.5" font-family="Helvetica,sans-Serif" font-size="10.00" fill="#000000">&#45;namespace.h</text>
</a>
</g>
</g>
<!-- Node5&#45;&gt;Node6 -->
<g id="edge5" class="edge">
<title>Node5&#45;&gt;Node6</title>
<path fill="none" stroke="#191970" d="M359.0503,-195.9809C425.7903,-180.3706 563.0046,-148.5152 679.5,-123 839.3986,-87.9785 1027.8774,-49.0964 1125.8217,-29.0709"/>
<polygon fill="#191970" stroke="#191970" points="1126.778,-32.4479 1135.8748,-27.0167 1125.3766,-25.5896 1126.778,-32.4479"/>
</g>
<!-- Node7&#45;&gt;Node5 -->
<g id="edge7" class="edge">
<title>Node7&#45;&gt;Node5</title>
<path fill="none" stroke="#191970" d="M306.026,-329.8543C289.1364,-321.516 267.6201,-307.6812 257.5,-288 251.1996,-275.7472 251.6961,-269.4957 257.5,-257 264.5682,-241.7823 278.593,-229.4403 291.4141,-220.6574"/>
<polygon fill="#191970" stroke="#191970" points="293.4686,-223.4979 299.9977,-215.1539 289.6903,-217.6051 293.4686,-223.4979"/>
</g>
<!-- Node7&#45;&gt;Node7 -->
<g id="edge14" class="edge">
<title>Node7&#45;&gt;Node7</title>
<path fill="none" stroke="#191970" d="M353.0778,-349.0645C377.5654,-354.8698 405,-351.6816 405,-339.5 405,-328.9362 384.3688,-325.1357 362.9193,-328.0984"/>
<polygon fill="#191970" stroke="#191970" points="362.2657,-324.6598 353.0778,-329.9355 363.5503,-331.541 362.2657,-324.6598"/>
</g>
<!-- Node7&#45;&gt;Node8 -->
<g id="edge8" class="edge">
<title>Node7&#45;&gt;Node8</title>
<path fill="none" stroke="#191970" d="M334.5146,-329.9005C339.7647,-319.8505 348.1429,-303.8122 354.7103,-291.2403"/>
<polygon fill="#191970" stroke="#191970" points="357.9666,-292.5657 359.4947,-282.0817 351.7622,-289.3246 357.9666,-292.5657"/>
</g>
<!-- Node7&#45;&gt;Node9 -->
<g id="edge15" class="edge">
<title>Node7&#45;&gt;Node9</title>
<path fill="none" stroke="#191970" d="M384.2196,-329.9944C395.8618,-327.9949 408.085,-325.9127 419.5,-324 517.6486,-307.5547 557.7685,-343.3091 640.5,-288 663.1777,-272.8391 677.5769,-243.829 685.0939,-224.5687"/>
<polygon fill="#191970" stroke="#191970" points="688.4375,-225.6155 688.5707,-215.0215 681.86,-223.2202 688.4375,-225.6155"/>
</g>
<!-- Node8&#45;&gt;Node5 -->
<g id="edge9" class="edge">
<title>Node8&#45;&gt;Node5</title>
<path fill="none" stroke="#191970" d="M357.9093,-262.9005C350.8727,-252.6515 339.5602,-236.1747 330.8566,-223.4976"/>
<polygon fill="#191970" stroke="#191970" points="333.624,-221.3446 325.0785,-215.0817 327.8532,-225.3067 333.624,-221.3446"/>
</g>
<!-- Node8&#45;&gt;Node9 -->
<g id="edge10" class="edge">
<title>Node8&#45;&gt;Node9</title>
<path fill="none" stroke="#191970" d="M411.0039,-262.9717C470.0025,-250.8833 571.6829,-230.0497 635.0615,-217.0638"/>
<polygon fill="#191970" stroke="#191970" points="635.7982,-220.4857 644.8921,-215.0496 634.3931,-213.6282 635.7982,-220.4857"/>
</g>
<!-- Node10 -->
<g id="node10" class="node">
<title>Node10</title>
<g id="a_node10"><a xlink:href="operation_return_values_8h.html" target="_top" xlink:title="Enumeration of values returned by operations within libSBML. ">
<polygon fill="#ffffff" stroke="#000000" points="446,-190.5 446,-220.5 599,-220.5 599,-190.5 446,-190.5"/>
<text text-anchor="start" x="454" y="-208.5" font-family="Helvetica,sans-Serif" font-size="10.00" fill="#000000">sbml/common/operationReturn</text>
<text text-anchor="middle" x="522.5" y="-197.5" font-family="Helvetica,sans-Serif" font-size="10.00" fill="#000000">Values.h</text>
</a>
</g>
</g>
<!-- Node8&#45;&gt;Node10 -->
<g id="edge11" class="edge">
<title>Node8&#45;&gt;Node10</title>
<path fill="none" stroke="#191970" d="M387.1375,-262.9005C410.6983,-252.9096 448.215,-237.0006 477.7827,-224.4624"/>
<polygon fill="#191970" stroke="#191970" points="479.2355,-227.6481 487.0755,-220.5218 476.5027,-221.2036 479.2355,-227.6481"/>
</g>
<!-- Node11 -->
<g id="node11" class="node">
<title>Node11</title>
<g id="a_node11"><a xlink:href="extern_8h.html" target="_top" xlink:title="Definitions of LIBSBML_EXTERN and related things. ">
<polygon fill="#ffffff" stroke="#000000" points="1133.5,-67.5 1133.5,-86.5 1251.5,-86.5 1251.5,-67.5 1133.5,-67.5"/>
<text text-anchor="middle" x="1192.5" y="-74.5" font-family="Helvetica,sans-Serif" font-size="10.00" fill="#000000">sbml/common/extern.h</text>
</a>
</g>
</g>
<!-- Node10&#45;&gt;Node11 -->
<g id="edge12" class="edge">
<title>Node10&#45;&gt;Node11</title>
<path fill="none" stroke="#191970" d="M564.3094,-190.4459C617.707,-171.8052 713.2946,-140.3935 797.5,-123 910.2524,-99.7099 1043.723,-87.2431 1123.0737,-81.3817"/>
<polygon fill="#191970" stroke="#191970" points="1123.7066,-84.8451 1133.4276,-80.6317 1123.2009,-77.8634 1123.7066,-84.8451"/>
</g>
<!-- Node11&#45;&gt;Node6 -->
<g id="edge13" class="edge">
<title>Node11&#45;&gt;Node6</title>
<path fill="none" stroke="#191970" d="M1192.5,-67.3906C1192.5,-60.2234 1192.5,-50.0862 1192.5,-40.671"/>
<polygon fill="#191970" stroke="#191970" points="1196.0001,-40.5446 1192.5,-30.5446 1189.0001,-40.5446 1196.0001,-40.5446"/>
</g>
<!-- Node12&#45;&gt;Node5 -->
<g id="edge20" class="edge">
<title>Node12&#45;&gt;Node5</title>
<path fill="none" stroke="#191970" d="M544.2589,-396.8958C518.9135,-380.152 463.8974,-345.3677 413.5,-324 361.0587,-301.7658 324.6547,-333.584 290.5,-288 275.9802,-268.6214 290.5711,-241.2159 303.5415,-223.4017"/>
<polygon fill="#191970" stroke="#191970" points="306.6526,-225.1011 310.0136,-215.0535 301.1204,-220.8121 306.6526,-225.1011"/>
</g>
<!-- Node12&#45;&gt;Node7 -->
<g id="edge21" class="edge">
<title>Node12&#45;&gt;Node7</title>
<path fill="none" stroke="#191970" d="M525.6899,-396.9005C485.2179,-385.0594 416.3335,-364.9054 371.8906,-351.9025"/>
<polygon fill="#191970" stroke="#191970" points="372.8297,-348.5306 362.2493,-349.0817 370.8641,-355.249 372.8297,-348.5306"/>
</g>
<!-- Node12&#45;&gt;Node9 -->
<g id="edge22" class="edge">
<title>Node12&#45;&gt;Node9</title>
<path fill="none" stroke="#191970" d="M600.702,-396.9758C626.4446,-389.322 658.5151,-376.2516 680.5,-355 713.3457,-323.2498 719.9127,-301.9015 711.5,-257 709.3986,-245.7842 704.931,-233.8706 700.7503,-224.33"/>
<polygon fill="#191970" stroke="#191970" points="703.8321,-222.6557 696.4519,-215.0541 697.4808,-225.5989 703.8321,-222.6557"/>
</g>
<!-- Node12&#45;&gt;Node10 -->
<g id="edge23" class="edge">
<title>Node12&#45;&gt;Node10</title>
<path fill="none" stroke="#191970" d="M548.6608,-396.8764C530.1903,-378.0375 490.892,-334.0904 476.5,-288 472.3934,-274.8485 471.5882,-269.8725 476.5,-257 480.623,-246.1949 488.1707,-236.2202 495.9766,-227.9842"/>
<polygon fill="#191970" stroke="#191970" points="498.4625,-230.4484 503.127,-220.9356 493.5483,-225.4633 498.4625,-230.4484"/>
</g>
<!-- Node13 -->
<g id="node13" class="node">
<title>Node13</title>
<g id="a_node13"><a xlink:href="_s_b_m_l_namespaces_8h.html" target="_top" xlink:title="SBMLNamespaces_t class to store level/version and namespace. ">
<polygon fill="#ffffff" stroke="#000000" points="537.5,-330 537.5,-349 671.5,-349 671.5,-330 537.5,-330"/>
<text text-anchor="middle" x="604.5" y="-337" font-family="Helvetica,sans-Serif" font-size="10.00" fill="#000000">sbml/SBMLNamespaces.h</text>
</a>
</g>
</g>
<!-- Node12&#45;&gt;Node13 -->
<g id="edge24" class="edge">
<title>Node12&#45;&gt;Node13</title>
<path fill="none" stroke="#191970" d="M565.0907,-396.9005C572.1273,-386.6515 583.4398,-370.1747 592.1434,-357.4976"/>
<polygon fill="#191970" stroke="#191970" points="595.1468,-359.3067 597.9215,-349.0817 589.376,-355.3446 595.1468,-359.3067"/>
</g>
<!-- Node14 -->
<g id="node14" class="node">
<title>Node14</title>
<g id="a_node14"><a xlink:href="_x_m_l_namespaces_8h.html" target="_top" xlink:title="A list of XMLNamespace declarations (URI/prefix pairs) ">
<polygon fill="#ffffff" stroke="#000000" points="485.5,-263 485.5,-282 631.5,-282 631.5,-263 485.5,-263"/>
<text text-anchor="middle" x="558.5" y="-270" font-family="Helvetica,sans-Serif" font-size="10.00" fill="#000000">sbml/xml/XMLNamespaces.h</text>
</a>
</g>
</g>
<!-- Node13&#45;&gt;Node14 -->
<g id="edge25" class="edge">
<title>Node13&#45;&gt;Node14</title>
<path fill="none" stroke="#191970" d="M597.9093,-329.9005C590.8727,-319.6515 579.5602,-303.1747 570.8566,-290.4976"/>
<polygon fill="#191970" stroke="#191970" points="573.624,-288.3446 565.0785,-282.0817 567.8532,-292.3067 573.624,-288.3446"/>
</g>
<!-- Node15 -->
<g id="node15" class="node">
<title>Node15</title>
<g id="a_node15"><a xlink:href="common_8h.html" target="_top" xlink:title="Common functions and macros for C and C++. ">
<polygon fill="#ffffff" stroke="#000000" points="839.5,-263 839.5,-282 967.5,-282 967.5,-263 839.5,-263"/>
<text text-anchor="middle" x="903.5" y="-270" font-family="Helvetica,sans-Serif" font-size="10.00" fill="#000000">sbml/common/common.h</text>
</a>
</g>
</g>
<!-- Node13&#45;&gt;Node15 -->
<g id="edge29" class="edge">
<title>Node13&#45;&gt;Node15</title>
<path fill="none" stroke="#191970" d="M647.0219,-329.9717C700.5596,-317.975 792.5348,-297.3651 850.5699,-284.3606"/>
<polygon fill="#191970" stroke="#191970" points="851.648,-287.7059 860.6407,-282.1039 850.1174,-280.8753 851.648,-287.7059"/>
</g>
<!-- Node14&#45;&gt;Node5 -->
<g id="edge26" class="edge">
<title>Node14&#45;&gt;Node5</title>
<path fill="none" stroke="#191970" d="M524.3687,-262.9717C481.9292,-251.124 409.3985,-230.8758 362.7342,-217.8487"/>
<polygon fill="#191970" stroke="#191970" points="363.475,-214.4217 352.9021,-215.1039 361.5927,-221.164 363.475,-214.4217"/>
</g>
<!-- Node14&#45;&gt;Node9 -->
<g id="edge27" class="edge">
<title>Node14&#45;&gt;Node9</title>
<path fill="none" stroke="#191970" d="M577.5557,-262.9005C599.9748,-251.6067 637.4054,-232.7506 663.2132,-219.7497"/>
<polygon fill="#191970" stroke="#191970" points="665.1235,-222.7065 672.4797,-215.0817 661.9742,-216.4549 665.1235,-222.7065"/>
</g>
<!-- Node14&#45;&gt;Node10 -->
<g id="edge28" class="edge">
<title>Node14&#45;&gt;Node10</title>
<path fill="none" stroke="#191970" d="M553.3421,-262.9005C548.6942,-254.2503 541.6627,-241.164 535.4868,-229.6699"/>
<polygon fill="#191970" stroke="#191970" points="538.3877,-227.6741 530.5714,-220.5218 532.2215,-230.9873 538.3877,-227.6741"/>
</g>
<!-- Node15&#45;&gt;Node11 -->
<g id="edge36" class="edge">
<title>Node15&#45;&gt;Node11</title>
<path fill="none" stroke="#191970" d="M931.9594,-262.8748C955.7793,-254.0596 990.0242,-239.5702 1016.5,-221 1066.4169,-185.9881 1064.287,-160.3234 1112.5,-123 1128.2369,-110.8175 1147.5376,-99.627 1163.2384,-91.3342"/>
<polygon fill="#191970" stroke="#191970" points="1165.2038,-94.2586 1172.485,-86.5622 1161.9935,-88.0381 1165.2038,-94.2586"/>
</g>
<!-- Node16 -->
<g id="node16" class="node">
<title>Node16</title>
<g id="a_node16"><a xlink:href="libsbml-config_8h.html" target="_top" xlink:title="Decides whether to #include Unix or Windows configuration variables. ">
<polygon fill="#ffffff" stroke="#000000" points="1364,-190.5 1364,-220.5 1477,-220.5 1477,-190.5 1364,-190.5"/>
<text text-anchor="start" x="1372" y="-208.5" font-family="Helvetica,sans-Serif" font-size="10.00" fill="#000000">sbml/common/libsbml</text>
<text text-anchor="middle" x="1420.5" y="-197.5" font-family="Helvetica,sans-Serif" font-size="10.00" fill="#000000">&#45;config.h</text>
</a>
</g>
</g>
<!-- Node15&#45;&gt;Node16 -->
<g id="edge30" class="edge">
<title>Node15&#45;&gt;Node16</title>
<path fill="none" stroke="#191970" d="M945.065,-262.9706C955.3067,-260.8173 966.2714,-258.6753 976.5,-257 1109.6461,-235.192 1266.7372,-219.2514 1353.8327,-211.2675"/>
<polygon fill="#191970" stroke="#191970" points="1354.2013,-214.7485 1363.843,-210.3567 1353.567,-207.7773 1354.2013,-214.7485"/>
</g>
<!-- Node19 -->
<g id="node19" class="node">
<title>Node19</title>
<polygon fill="#ffffff" stroke="#bfbfbf" points="806.5,-129 806.5,-148 852.5,-148 852.5,-129 806.5,-129"/>
<text text-anchor="middle" x="829.5" y="-136" font-family="Helvetica,sans-Serif" font-size="10.00" fill="#000000">stdio.h</text>
</g>
<!-- Node15&#45;&gt;Node19 -->
<g id="edge35" class="edge">
<title>Node15&#45;&gt;Node19</title>
<path fill="none" stroke="#191970" d="M863.1276,-262.9501C841.108,-255.4587 815.7119,-242.5671 802.5,-221 789.9639,-200.536 803.4709,-173.6089 815.4719,-156.1774"/>
<polygon fill="#191970" stroke="#191970" points="818.3696,-158.1447 821.4646,-148.012 812.7262,-154.003 818.3696,-158.1447"/>
</g>
<!-- Node20 -->
<g id="node20" class="node">
<title>Node20</title>
<g id="a_node20"><a xlink:href="memory_8h.html" target="_top" xlink:title="sbml/util/memory.h">
<polygon fill="#ffffff" stroke="#000000" points="811.5,-196 811.5,-215 911.5,-215 911.5,-196 811.5,-196"/>
<text text-anchor="middle" x="861.5" y="-203" font-family="Helvetica,sans-Serif" font-size="10.00" fill="#000000">sbml/util/memory.h</text>
</a>
</g>
</g>
<!-- Node15&#45;&gt;Node20 -->
<g id="edge37" class="edge">
<title>Node15&#45;&gt;Node20</title>
<path fill="none" stroke="#191970" d="M897.4824,-262.9005C891.12,-252.751 880.9291,-236.4941 873.0142,-223.8679"/>
<polygon fill="#191970" stroke="#191970" points="875.7833,-221.6956 867.5064,-215.0817 869.8523,-225.4135 875.7833,-221.6956"/>
</g>
<!-- Node21 -->
<g id="node21" class="node">
<title>Node21</title>
<g id="a_node21"><a xlink:href="util_8h.html" target="_top" xlink:title="Utility functions. ">
<polygon fill="#ffffff" stroke="#000000" points="930,-196 930,-215 1007,-215 1007,-196 930,-196"/>
<text text-anchor="middle" x="968.5" y="-203" font-family="Helvetica,sans-Serif" font-size="10.00" fill="#000000">sbml/util/util.h</text>
</a>
</g>
</g>
<!-- Node15&#45;&gt;Node21 -->
<g id="edge38" class="edge">
<title>Node15&#45;&gt;Node21</title>
<path fill="none" stroke="#191970" d="M912.8129,-262.9005C923.0456,-252.353 939.6772,-235.2096 952.1046,-222.3998"/>
<polygon fill="#191970" stroke="#191970" points="954.7533,-224.6962 959.2044,-215.0817 949.7291,-219.822 954.7533,-224.6962"/>
</g>
<!-- Node16&#45;&gt;Node6 -->
<g id="edge31" class="edge">
<title>Node16&#45;&gt;Node6</title>
<path fill="none" stroke="#191970" d="M1468.1358,-190.4168C1485.2276,-182.445 1502.6873,-170.7385 1512.5,-154 1519.4679,-142.1141 1520.5429,-134.1865 1512.5,-123 1482.5419,-81.3326 1343.8129,-46.365 1259.1548,-28.4308"/>
<polygon fill="#191970" stroke="#191970" points="1259.6145,-24.9513 1249.1097,-26.3288 1258.1808,-31.8029 1259.6145,-24.9513"/>
</g>
<!-- Node17 -->
<g id="node17" class="node">
<title>Node17</title>
<g id="a_node17"><a xlink:href="libsbml-config-common_8h.html" target="_top" xlink:title="Configuration variables. ">
<polygon fill="#ffffff" stroke="#000000" points="1390,-123.5 1390,-153.5 1503,-153.5 1503,-123.5 1390,-123.5"/>
<text text-anchor="start" x="1398" y="-141.5" font-family="Helvetica,sans-Serif" font-size="10.00" fill="#000000">sbml/common/libsbml</text>
<text text-anchor="middle" x="1446.5" y="-130.5" font-family="Helvetica,sans-Serif" font-size="10.00" fill="#000000">&#45;config&#45;common.h</text>
</a>
</g>
</g>
<!-- Node16&#45;&gt;Node17 -->
<g id="edge32" class="edge">
<title>Node16&#45;&gt;Node17</title>
<path fill="none" stroke="#191970" d="M1426.3998,-190.2967C1429.5246,-182.2443 1433.4389,-172.1574 1436.981,-163.0296"/>
<polygon fill="#191970" stroke="#191970" points="1440.2687,-164.2321 1440.6235,-153.6432 1433.7428,-161.6996 1440.2687,-164.2321"/>
</g>
<!-- Node18 -->
<g id="node18" class="node">
<title>Node18</title>
<g id="a_node18"><a xlink:href="libsbml-version_8h.html" target="_top" xlink:title="Define libSBML version numbers for access from client software. ">
<polygon fill="#ffffff" stroke="#000000" points="1259,-123.5 1259,-153.5 1372,-153.5 1372,-123.5 1259,-123.5"/>
<text text-anchor="start" x="1267" y="-141.5" font-family="Helvetica,sans-Serif" font-size="10.00" fill="#000000">sbml/common/libsbml</text>
<text text-anchor="middle" x="1315.5" y="-130.5" font-family="Helvetica,sans-Serif" font-size="10.00" fill="#000000">&#45;version.h</text>
</a>
</g>
</g>
<!-- Node16&#45;&gt;Node18 -->
<g id="edge33" class="edge">
<title>Node16&#45;&gt;Node18</title>
<path fill="none" stroke="#191970" d="M1396.936,-190.4639C1382.4473,-181.2188 1363.6828,-169.2452 1347.8183,-159.1222"/>
<polygon fill="#191970" stroke="#191970" points="1349.6614,-156.1464 1339.3487,-153.7177 1345.896,-162.0474 1349.6614,-156.1464"/>
</g>
<!-- Node18&#45;&gt;Node11 -->
<g id="edge34" class="edge">
<title>Node18&#45;&gt;Node11</title>
<path fill="none" stroke="#191970" d="M1285.4108,-123.4554C1265.6981,-113.599 1240.0998,-100.7999 1220.7653,-91.1327"/>
<polygon fill="#191970" stroke="#191970" points="1222.0702,-87.872 1211.5606,-86.5303 1218.9397,-94.133 1222.0702,-87.872"/>
</g>
<!-- Node21&#45;&gt;Node11 -->
<g id="edge41" class="edge">
<title>Node21&#45;&gt;Node11</title>
<path fill="none" stroke="#191970" d="M971.9387,-195.9564C978.6677,-178.669 995.251,-142.1899 1021.5,-123 1039.1341,-110.1082 1089.8832,-97.3545 1131.5487,-88.558"/>
<polygon fill="#191970" stroke="#191970" points="1132.2917,-91.9785 1141.3726,-86.5207 1130.8702,-85.1243 1132.2917,-91.9785"/>
</g>
<!-- Node21&#45;&gt;Node19 -->
<g id="edge39" class="edge">
<title>Node21&#45;&gt;Node19</title>
<path fill="none" stroke="#191970" d="M948.5847,-195.9005C925.0509,-184.5569 885.6899,-165.5844 858.7071,-152.5783"/>
<polygon fill="#191970" stroke="#191970" points="859.9063,-149.2709 849.3784,-148.0817 856.8668,-155.5766 859.9063,-149.2709"/>
</g>
<!-- Node22 -->
<g id="node22" class="node">
<title>Node22</title>
<polygon fill="#ffffff" stroke="#bfbfbf" points="916,-129 916,-148 969,-148 969,-129 916,-129"/>
<text text-anchor="middle" x="942.5" y="-136" font-family="Helvetica,sans-Serif" font-size="10.00" fill="#000000">stdarg.h</text>
</g>
<!-- Node21&#45;&gt;Node22 -->
<g id="edge40" class="edge">
<title>Node21&#45;&gt;Node22</title>
<path fill="none" stroke="#191970" d="M964.7748,-195.9005C960.9134,-185.95 954.774,-170.1292 949.9177,-157.6147"/>
<polygon fill="#191970" stroke="#191970" points="953.099,-156.1381 946.2183,-148.0817 946.5731,-158.6706 953.099,-156.1381"/>
</g>
<!-- Node23&#45;&gt;Node9 -->
<g id="edge43" class="edge">
<title>Node23&#45;&gt;Node9</title>
<path fill="none" stroke="#191970" d="M797.3971,-329.7643C788.7377,-313.7074 770.0885,-281.0572 749.5,-257 738.3679,-243.9924 723.9872,-231.2023 712.3305,-221.6222"/>
<polygon fill="#191970" stroke="#191970" points="714.3967,-218.7925 704.4094,-215.2564 710.0117,-224.2489 714.3967,-218.7925"/>
</g>
<!-- Node24&#45;&gt;Node11 -->
<g id="edge45" class="edge">
<title>Node24&#45;&gt;Node11</title>
<path fill="none" stroke="#191970" d="M1497.9543,-324.3708C1512.227,-315.8631 1527.5331,-303.7522 1535.5,-288 1554.0751,-251.2734 1608.5042,-208.0396 1532.5,-123 1514.7631,-103.1546 1356.053,-88.5973 1261.8688,-81.6179"/>
<polygon fill="#191970" stroke="#191970" points="1262.0688,-78.1233 1251.8403,-80.8853 1261.5587,-85.1047 1262.0688,-78.1233"/>
</g>
<!-- Node25 -->
<g id="node25" class="node">
<title>Node25</title>
<g id="a_node25"><a xlink:href="_s_b_m_l_type_codes_8h.html" target="_top" xlink:title="Enumeration to identify SBML objects at runtime. ">
<polygon fill="#ffffff" stroke="#000000" points="1399,-263 1399,-282 1526,-282 1526,-263 1399,-263"/>
<text text-anchor="middle" x="1462.5" y="-270" font-family="Helvetica,sans-Serif" font-size="10.00" fill="#000000">sbml/SBMLTypeCodes.h</text>
</a>
</g>
</g>
<!-- Node24&#45;&gt;Node25 -->
<g id="edge46" class="edge">
<title>Node24&#45;&gt;Node25</title>
<path fill="none" stroke="#191970" d="M1464.8193,-324.2967C1464.3927,-314.7699 1463.8386,-302.3954 1463.379,-292.1306"/>
<polygon fill="#191970" stroke="#191970" points="1466.8717,-291.8884 1462.9278,-282.055 1459.8787,-292.2016 1466.8717,-291.8884"/>
</g>
<!-- Node25&#45;&gt;Node11 -->
<g id="edge48" class="edge">
<title>Node25&#45;&gt;Node11</title>
<path fill="none" stroke="#191970" d="M1471.3718,-262.871C1494.011,-237.1364 1549.5996,-165.814 1512.5,-123 1496.3083,-104.3143 1350.7972,-89.5581 1261.6633,-82.1748"/>
<polygon fill="#191970" stroke="#191970" points="1261.8715,-78.6802 1251.6196,-81.3542 1261.3014,-85.657 1261.8715,-78.6802"/>
</g>
<!-- Node25&#45;&gt;Node16 -->
<g id="edge47" class="edge">
<title>Node25&#45;&gt;Node16</title>
<path fill="none" stroke="#191970" d="M1456.4824,-262.9005C1451.0057,-254.1638 1442.6922,-240.9018 1435.4354,-229.3256"/>
<polygon fill="#191970" stroke="#191970" points="1438.1935,-227.1357 1429.9166,-220.5218 1432.2625,-230.8536 1438.1935,-227.1357"/>
</g>
<!-- Node28&#45;&gt;Node9 -->
<g id="edge53" class="edge">
<title>Node28&#45;&gt;Node9</title>
<path fill="none" stroke="#191970" d="M1165.1982,-258.4334C1162.2632,-257.9238 1159.3536,-257.4427 1156.5,-257 1000.2246,-232.7558 959.5067,-239.9388 802.5,-221 790.3819,-219.5383 777.5376,-217.8622 765.0507,-216.1646"/>
<polygon fill="#191970" stroke="#191970" points="765.5171,-212.6959 755.1338,-214.8022 764.5644,-219.6308 765.5171,-212.6959"/>
</g>
<!-- Node28&#45;&gt;Node11 -->
<g id="edge52" class="edge">
<title>Node28&#45;&gt;Node11</title>
<path fill="none" stroke="#191970" d="M1229.2109,-257.2102C1227.6781,-240.5846 1224.7771,-213.2717 1220.5,-190 1214.4055,-156.8396 1204.3644,-118.9138 1198.1079,-96.5137"/>
<polygon fill="#191970" stroke="#191970" points="1201.3896,-95.2562 1195.2982,-86.5875 1194.6542,-97.1628 1201.3896,-95.2562"/>
</g>
<!-- Node29 -->
<g id="node29" class="node">
<title>Node29</title>
<polygon fill="#ffffff" stroke="#bfbfbf" points="1101.5,-190.5 1101.5,-220.5 1211.5,-220.5 1211.5,-190.5 1101.5,-190.5"/>
<text text-anchor="start" x="1109.5" y="-208.5" font-family="Helvetica,sans-Serif" font-size="10.00" fill="#000000">sbml/packages/comp</text>
<text text-anchor="middle" x="1156.5" y="-197.5" font-family="Helvetica,sans-Serif" font-size="10.00" fill="#000000">/common/compfwd.h</text>
</g>
<!-- Node28&#45;&gt;Node29 -->
<g id="edge54" class="edge">
<title>Node28&#45;&gt;Node29</title>
<path fill="none" stroke="#191970" d="M1213.7083,-257.2967C1203.963,-248.4733 1191.5199,-237.2072 1180.7287,-227.4368"/>
<polygon fill="#191970" stroke="#191970" points="1182.9874,-224.7604 1173.2253,-220.6432 1178.2892,-229.9495 1182.9874,-224.7604"/>
</g>
<!-- Node30&#45;&gt;Node9 -->
<g id="edge57" class="edge">
<title>Node30&#45;&gt;Node9</title>
<path fill="none" stroke="#191970" d="M985.1306,-257.962C915.9167,-245.5958 817.9336,-228.0895 754.5487,-216.7647"/>
<polygon fill="#191970" stroke="#191970" points="755.1423,-213.3154 744.6826,-215.002 753.9111,-220.2063 755.1423,-213.3154"/>
</g>
<!-- Node30&#45;&gt;Node11 -->
<g id="edge56" class="edge">
<title>Node30&#45;&gt;Node11</title>
<path fill="none" stroke="#191970" d="M1069.2646,-257.4337C1072.8489,-240.2851 1080.1506,-211.8277 1092.5,-190 1114.4439,-151.214 1151.3795,-114.079 1173.6938,-93.5267"/>
<polygon fill="#191970" stroke="#191970" points="1176.1341,-96.0388 1181.1985,-86.7328 1171.4362,-90.8494 1176.1341,-96.0388"/>
</g>
<!-- Node30&#45;&gt;Node29 -->
<g id="edge58" class="edge">
<title>Node30&#45;&gt;Node29</title>
<path fill="none" stroke="#191970" d="M1086.9224,-257.2967C1099.0048,-248.302 1114.4972,-236.7687 1127.7948,-226.8694"/>
<polygon fill="#191970" stroke="#191970" points="1130.2271,-229.4221 1136.1584,-220.6432 1126.0471,-223.8072 1130.2271,-229.4221"/>
</g>
<!-- Node32&#45;&gt;Node9 -->
<g id="edge63" class="edge">
<title>Node32&#45;&gt;Node9</title>
<path fill="none" stroke="#191970" d="M1285.1577,-337.6211C1184.5498,-332.3535 914.9481,-315.9726 830.5,-288 824.3452,-285.9613 754.6166,-243.8588 716.3252,-220.6086"/>
<polygon fill="#191970" stroke="#191970" points="717.6887,-217.3417 707.3253,-215.1396 714.0535,-223.3238 717.6887,-217.3417"/>
</g>
<!-- Node32&#45;&gt;Node11 -->
<g id="edge62" class="edge">
<title>Node32&#45;&gt;Node11</title>
<path fill="none" stroke="#191970" d="M1322.2853,-329.5253C1320.1197,-313.681 1314.8188,-281.9981 1304.5,-257 1278.042,-192.9035 1229.8662,-125.6591 1206.269,-94.6159"/>
<polygon fill="#191970" stroke="#191970" points="1208.9138,-92.3136 1200.044,-86.519 1203.3643,-96.5801 1208.9138,-92.3136"/>
</g>
<!-- Node32&#45;&gt;Node16 -->
<g id="edge61" class="edge">
<title>Node32&#45;&gt;Node16</title>
<path fill="none" stroke="#191970" d="M1330.476,-329.8631C1345.6582,-308.8896 1382.0613,-258.6009 1403.6394,-228.792"/>
<polygon fill="#191970" stroke="#191970" points="1406.5328,-230.7638 1409.5614,-220.611 1400.8625,-226.6591 1406.5328,-230.7638"/>
</g>
<!-- Node32&#45;&gt;Node25 -->
<g id="edge64" class="edge">
<title>Node32&#45;&gt;Node25</title>
<path fill="none" stroke="#191970" d="M1343.4153,-329.9005C1366.9491,-318.5569 1406.3101,-299.5844 1433.2929,-286.5783"/>
<polygon fill="#191970" stroke="#191970" points="1435.1332,-289.5766 1442.6216,-282.0817 1432.0937,-283.2709 1435.1332,-289.5766"/>
</g>
</g>
</svg>
