<?xml version="1.0" encoding="UTF-8" standalone="no"?>
<!DOCTYPE svg PUBLIC "-//W3C//DTD SVG 1.1//EN"
 "http://www.w3.org/Graphics/SVG/1.1/DTD/svg11.dtd">
<!-- Generated by graphviz version 2.40.1 (20161225.0304)
 -->
<!-- Title: ReplacedBy.cpp Pages: 1 -->
<svg width="1437pt" height="486pt"
 viewBox="0.00 0.00 1436.50 486.00" xmlns="http://www.w3.org/2000/svg" xmlns:xlink="http://www.w3.org/1999/xlink">
<g id="graph0" class="graph" transform="scale(1 1) rotate(0) translate(4 482)">
<title>ReplacedBy.cpp</title>
<polygon fill="#ffffff" stroke="transparent" points="-4,4 -4,-482 1432.5,-482 1432.5,4 -4,4"/>
<!-- Node1 -->
<g id="node1" class="node">
<title>Node1</title>
<polygon fill="#bfbfbf" stroke="#000000" points="538,-458.5 538,-477.5 627,-477.5 627,-458.5 538,-458.5"/>
<text text-anchor="middle" x="582.5" y="-465.5" font-family="Helvetica,sans-Serif" font-size="10.00" fill="#000000">ReplacedBy.cpp</text>
</g>
<!-- Node2 -->
<g id="node2" class="node">
<title>Node2</title>
<polygon fill="#ffffff" stroke="#bfbfbf" points="0,-397 0,-416 55,-416 55,-397 0,-397"/>
<text text-anchor="middle" x="27.5" y="-404" font-family="Helvetica,sans-Serif" font-size="10.00" fill="#000000">iostream</text>
</g>
<!-- Node1&#45;&gt;Node2 -->
<g id="edge1" class="edge">
<title>Node1&#45;&gt;Node2</title>
<path fill="none" stroke="#191970" d="M537.7307,-465.7953C429.0749,-460.1598 153.783,-444.099 64.5,-422 61.8655,-421.3479 59.1758,-420.5352 56.5086,-419.6259"/>
<polygon fill="#191970" stroke="#191970" points="57.6776,-416.3258 47.0871,-416.0238 55.1778,-422.8642 57.6776,-416.3258"/>
</g>
<!-- Node3 -->
<g id="node3" class="node">
<title>Node3</title>
<g id="a_node3"><a xlink:href="_s_b_m_l_visitor_8h.html" target="_top" xlink:title="Visitor Design Pattern for the SBML object tree. ">
<polygon fill="#ffffff" stroke="#000000" points="73.5,-397 73.5,-416 177.5,-416 177.5,-397 73.5,-397"/>
<text text-anchor="middle" x="125.5" y="-404" font-family="Helvetica,sans-Serif" font-size="10.00" fill="#000000">sbml/SBMLVisitor.h</text>
</a>
</g>
</g>
<!-- Node1&#45;&gt;Node3 -->
<g id="edge2" class="edge">
<title>Node1&#45;&gt;Node3</title>
<path fill="none" stroke="#191970" d="M537.9684,-464.7728C464.374,-459.0052 312.9329,-445.2994 186.5,-422 181.0599,-420.9975 175.3859,-419.7853 169.7833,-418.4856"/>
<polygon fill="#191970" stroke="#191970" points="170.3844,-415.0301 159.8415,-416.078 168.7367,-421.8334 170.3844,-415.0301"/>
</g>
<!-- Node4 -->
<g id="node4" class="node">
<title>Node4</title>
<g id="a_node4"><a xlink:href="_x_m_l_node_8h.html" target="_top" xlink:title="Class definition of XMLNode_t, a node in an XML document tree. ">
<polygon fill="#ffffff" stroke="#000000" points="195.5,-397 195.5,-416 307.5,-416 307.5,-397 195.5,-397"/>
<text text-anchor="middle" x="251.5" y="-404" font-family="Helvetica,sans-Serif" font-size="10.00" fill="#000000">sbml/xml/XMLNode.h</text>
</a>
</g>
</g>
<!-- Node1&#45;&gt;Node4 -->
<g id="edge3" class="edge">
<title>Node1&#45;&gt;Node4</title>
<path fill="none" stroke="#191970" d="M537.5869,-459.9104C487.3458,-450.8281 403.5511,-435.5819 331.5,-422 324.6813,-420.7147 317.5389,-419.3529 310.4471,-417.9911"/>
<polygon fill="#191970" stroke="#191970" points="310.6181,-414.4598 300.1366,-416.005 309.294,-421.3334 310.6181,-414.4598"/>
</g>
<!-- Node7 -->
<g id="node7" class="node">
<title>Node7</title>
<g id="a_node7"><a xlink:href="_x_m_l_token_8h.html" target="_top" xlink:title="A unit of XML syntax, either an XML element or text. ">
<polygon fill="#ffffff" stroke="#000000" points="189,-330 189,-349 304,-349 304,-330 189,-330"/>
<text text-anchor="middle" x="246.5" y="-337" font-family="Helvetica,sans-Serif" font-size="10.00" fill="#000000">sbml/xml/XMLToken.h</text>
</a>
</g>
</g>
<!-- Node1&#45;&gt;Node7 -->
<g id="edge17" class="edge">
<title>Node1&#45;&gt;Node7</title>
<path fill="none" stroke="#191970" d="M537.6941,-462.7676C494.6023,-456.664 428.2619,-444.4194 374.5,-422 333.2083,-404.7808 290.5774,-374.2786 266.4195,-355.5775"/>
<polygon fill="#191970" stroke="#191970" points="268.4169,-352.6957 258.3918,-349.268 264.0913,-358.1992 268.4169,-352.6957"/>
</g>
<!-- Node8 -->
<g id="node8" class="node">
<title>Node8</title>
<g id="a_node8"><a xlink:href="_x_m_l_attributes_8h.html" target="_top" xlink:title="XMLAttributes_t are a list of name/value pairs for XML elements. ">
<polygon fill="#ffffff" stroke="#000000" points="264.5,-263 264.5,-282 394.5,-282 394.5,-263 264.5,-263"/>
<text text-anchor="middle" x="329.5" y="-270" font-family="Helvetica,sans-Serif" font-size="10.00" fill="#000000">sbml/xml/XMLAttributes.h</text>
</a>
</g>
</g>
<!-- Node1&#45;&gt;Node8 -->
<g id="edge18" class="edge">
<title>Node1&#45;&gt;Node8</title>
<path fill="none" stroke="#191970" d="M537.8302,-463.5834C503.917,-458.3265 457.6278,-446.8724 424.5,-422 378.5436,-387.496 349.059,-323.7022 336.4868,-291.7668"/>
<polygon fill="#191970" stroke="#191970" points="339.6938,-290.3527 332.8722,-282.2462 333.1496,-292.8374 339.6938,-290.3527"/>
</g>
<!-- Node12 -->
<g id="node12" class="node">
<title>Node12</title>
<g id="a_node12"><a xlink:href="_x_m_l_input_stream_8h.html" target="_top" xlink:title="XMLInputStream_t. ">
<polygon fill="#ffffff" stroke="#000000" points="433.5,-397 433.5,-416 575.5,-416 575.5,-397 433.5,-397"/>
<text text-anchor="middle" x="504.5" y="-404" font-family="Helvetica,sans-Serif" font-size="10.00" fill="#000000">sbml/xml/XMLInputStream.h</text>
</a>
</g>
</g>
<!-- Node1&#45;&gt;Node12 -->
<g id="edge19" class="edge">
<title>Node1&#45;&gt;Node12</title>
<path fill="none" stroke="#191970" d="M570.3125,-458.3906C558.063,-448.7324 538.9737,-433.6812 524.5023,-422.271"/>
<polygon fill="#191970" stroke="#191970" points="526.6217,-419.485 516.6019,-416.0419 522.2876,-424.9819 526.6217,-419.485"/>
</g>
<!-- Node23 -->
<g id="node23" class="node">
<title>Node23</title>
<g id="a_node23"><a xlink:href="_x_m_l_output_stream_8h.html" target="_top" xlink:title="XMLOutputStream_t. ">
<polygon fill="#ffffff" stroke="#000000" points="645.5,-330 645.5,-349 795.5,-349 795.5,-330 645.5,-330"/>
<text text-anchor="middle" x="720.5" y="-337" font-family="Helvetica,sans-Serif" font-size="10.00" fill="#000000">sbml/xml/XMLOutputStream.h</text>
</a>
</g>
</g>
<!-- Node1&#45;&gt;Node23 -->
<g id="edge42" class="edge">
<title>Node1&#45;&gt;Node23</title>
<path fill="none" stroke="#191970" d="M592.8724,-458.3416C616.2491,-436.5742 673.2847,-383.465 702.5426,-356.2212"/>
<polygon fill="#191970" stroke="#191970" points="705.0738,-358.6466 710.0072,-349.2705 700.3035,-353.5237 705.0738,-358.6466"/>
</g>
<!-- Node24 -->
<g id="node24" class="node">
<title>Node24</title>
<g id="a_node24"><a xlink:href="_replaced_by_8h.html" target="_top" xlink:title="Definition of ReplacedBy_t, the Replacing_t&#45;derived class of the comp package. ">
<polygon fill="#ffffff" stroke="#000000" points="1155.5,-257.5 1155.5,-287.5 1265.5,-287.5 1265.5,-257.5 1155.5,-257.5"/>
<text text-anchor="start" x="1163.5" y="-275.5" font-family="Helvetica,sans-Serif" font-size="10.00" fill="#000000">sbml/packages/comp</text>
<text text-anchor="middle" x="1210.5" y="-264.5" font-family="Helvetica,sans-Serif" font-size="10.00" fill="#000000">/sbml/ReplacedBy.h</text>
</a>
</g>
</g>
<!-- Node1&#45;&gt;Node24 -->
<g id="edge44" class="edge">
<title>Node1&#45;&gt;Node24</title>
<path fill="none" stroke="#191970" d="M616.4607,-458.4414C649.071,-449.2288 699.7024,-434.8356 743.5,-422 842.8108,-392.8953 867.9122,-386.4671 966.5,-355 1032.7958,-333.8398 1108.6592,-307.9183 1157.9577,-290.8443"/>
<polygon fill="#191970" stroke="#191970" points="1159.1514,-294.1349 1167.4526,-287.5515 1156.8578,-287.5213 1159.1514,-294.1349"/>
</g>
<!-- Node26 -->
<g id="node26" class="node">
<title>Node26</title>
<g id="a_node26"><a xlink:href="_comp_extension_8h.html" target="_top" xlink:title="Definition of CompExtension_t, the core module of comp package. ">
<polygon fill="#ffffff" stroke="#000000" points="813.5,-324.5 813.5,-354.5 957.5,-354.5 957.5,-324.5 813.5,-324.5"/>
<text text-anchor="start" x="821.5" y="-342.5" font-family="Helvetica,sans-Serif" font-size="10.00" fill="#000000">sbml/packages/comp</text>
<text text-anchor="middle" x="885.5" y="-331.5" font-family="Helvetica,sans-Serif" font-size="10.00" fill="#000000">/extension/CompExtension.h</text>
</a>
</g>
</g>
<!-- Node1&#45;&gt;Node26 -->
<g id="edge48" class="edge">
<title>Node1&#45;&gt;Node26</title>
<path fill="none" stroke="#191970" d="M605.2742,-458.3416C655.1218,-437.2016 774.6734,-386.5007 840.3678,-358.6402"/>
<polygon fill="#191970" stroke="#191970" points="841.8152,-361.8282 849.6549,-354.7016 839.0821,-355.3838 841.8152,-361.8282"/>
</g>
<!-- Node28 -->
<g id="node28" class="node">
<title>Node28</title>
<g id="a_node28"><a xlink:href="_comp_s_base_plugin_8h.html" target="_top" xlink:title="Definition of CompSBasePlugin_t, the plugin class of comp package for the Model_t element...">
<polygon fill="#ffffff" stroke="#000000" points="936,-391.5 936,-421.5 1093,-421.5 1093,-391.5 936,-391.5"/>
<text text-anchor="start" x="944" y="-409.5" font-family="Helvetica,sans-Serif" font-size="10.00" fill="#000000">sbml/packages/comp</text>
<text text-anchor="middle" x="1014.5" y="-398.5" font-family="Helvetica,sans-Serif" font-size="10.00" fill="#000000">/extension/CompSBasePlugin.h</text>
</a>
</g>
</g>
<!-- Node1&#45;&gt;Node28 -->
<g id="edge53" class="edge">
<title>Node1&#45;&gt;Node28</title>
<path fill="none" stroke="#191970" d="M627.2554,-462.3656C692.178,-454.0927 816.2327,-437.9106 921.5,-422 922.9667,-421.7783 924.4462,-421.5529 925.9356,-421.3243"/>
<polygon fill="#191970" stroke="#191970" points="926.5391,-424.7726 935.8812,-419.775 925.4616,-417.856 926.5391,-424.7726"/>
</g>
<!-- Node29 -->
<g id="node29" class="node">
<title>Node29</title>
<g id="a_node29"><a xlink:href="_comp_model_plugin_8h.html" target="_top" xlink:title="Definition of CompModelPlugin_t, the plugin class of comp package for the Model_t element...">
<polygon fill="#ffffff" stroke="#000000" points="1111,-391.5 1111,-421.5 1266,-421.5 1266,-391.5 1111,-391.5"/>
<text text-anchor="start" x="1119" y="-409.5" font-family="Helvetica,sans-Serif" font-size="10.00" fill="#000000">sbml/packages/comp</text>
<text text-anchor="middle" x="1188.5" y="-398.5" font-family="Helvetica,sans-Serif" font-size="10.00" fill="#000000">/extension/CompModelPlugin.h</text>
</a>
</g>
</g>
<!-- Node1&#45;&gt;Node29 -->
<g id="edge54" class="edge">
<title>Node1&#45;&gt;Node29</title>
<path fill="none" stroke="#191970" d="M627.1673,-465.4094C715.6838,-459.9813 919.7884,-446.0012 1100.7687,-422.1656"/>
<polygon fill="#191970" stroke="#191970" points="1101.2827,-425.6282 1110.7338,-420.84 1100.3595,-418.6893 1101.2827,-425.6282"/>
</g>
<!-- Node30 -->
<g id="node30" class="node">
<title>Node30</title>
<g id="a_node30"><a xlink:href="_comp_s_b_m_l_error_8h.html" target="_top" xlink:title="Represents SBML errors and other diagnostics. ">
<polygon fill="#ffffff" stroke="#000000" points="1284.5,-391.5 1284.5,-421.5 1428.5,-421.5 1428.5,-391.5 1284.5,-391.5"/>
<text text-anchor="start" x="1292.5" y="-409.5" font-family="Helvetica,sans-Serif" font-size="10.00" fill="#000000">sbml/packages/comp</text>
<text text-anchor="middle" x="1356.5" y="-398.5" font-family="Helvetica,sans-Serif" font-size="10.00" fill="#000000">/validator/CompSBMLError.h</text>
</a>
</g>
</g>
<!-- Node1&#45;&gt;Node30 -->
<g id="edge55" class="edge">
<title>Node1&#45;&gt;Node30</title>
<path fill="none" stroke="#191970" d="M627.2752,-466.9317C736.3132,-463.9224 1024.3932,-453.5228 1274.1579,-422.0731"/>
<polygon fill="#191970" stroke="#191970" points="1274.6694,-425.5364 1284.1472,-420.8014 1273.7852,-418.5924 1274.6694,-425.5364"/>
</g>
<!-- Node5 -->
<g id="node5" class="node">
<title>Node5</title>
<g id="a_node5"><a xlink:href="_x_m_l_extern_8h.html" target="_top" xlink:title="Defines LIBLAX_EXTERN. ">
<polygon fill="#ffffff" stroke="#000000" points="129,-196 129,-215 246,-215 246,-196 129,-196"/>
<text text-anchor="middle" x="187.5" y="-203" font-family="Helvetica,sans-Serif" font-size="10.00" fill="#000000">sbml/xml/XMLExtern.h</text>
</a>
</g>
</g>
<!-- Node4&#45;&gt;Node5 -->
<g id="edge4" class="edge">
<title>Node4&#45;&gt;Node5</title>
<path fill="none" stroke="#191970" d="M208.2389,-396.9422C185.6803,-389.5254 160.0328,-376.7104 146.5,-355 120.0511,-312.5685 153.5833,-252.9883 173.9684,-223.4959"/>
<polygon fill="#191970" stroke="#191970" points="176.8167,-225.5299 179.7918,-215.3613 171.1249,-221.4552 176.8167,-225.5299"/>
</g>
<!-- Node4&#45;&gt;Node7 -->
<g id="edge6" class="edge">
<title>Node4&#45;&gt;Node7</title>
<path fill="none" stroke="#191970" d="M250.7836,-396.9005C250.0559,-387.149 248.9074,-371.7597 247.9828,-359.3695"/>
<polygon fill="#191970" stroke="#191970" points="251.4496,-358.7934 247.215,-349.0817 244.469,-359.3144 251.4496,-358.7934"/>
</g>
<!-- Node9 -->
<g id="node9" class="node">
<title>Node9</title>
<polygon fill="#ffffff" stroke="#bfbfbf" points="264,-196 264,-215 391,-215 391,-196 264,-196"/>
<text text-anchor="middle" x="327.5" y="-203" font-family="Helvetica,sans-Serif" font-size="10.00" fill="#000000">sbml/common/sbmlfwd.h</text>
</g>
<!-- Node4&#45;&gt;Node9 -->
<g id="edge16" class="edge">
<title>Node4&#45;&gt;Node9</title>
<path fill="none" stroke="#191970" d="M228.026,-396.8543C211.1364,-388.516 189.6201,-374.6812 179.5,-355 173.1996,-342.7472 174.4239,-336.8086 179.5,-324 199.9279,-272.4545 257.5509,-237.4368 294.576,-219.5136"/>
<polygon fill="#191970" stroke="#191970" points="296.3935,-222.5274 303.9672,-215.1185 293.4264,-216.1873 296.3935,-222.5274"/>
</g>
<!-- Node6 -->
<g id="node6" class="node">
<title>Node6</title>
<g id="a_node6"><a xlink:href="libsbml-namespace_8h.html" target="_top" xlink:title="Defines C++ namespace of libSBML. ">
<polygon fill="#ffffff" stroke="#000000" points="732,-.5 732,-30.5 845,-30.5 845,-.5 732,-.5"/>
<text text-anchor="start" x="740" y="-18.5" font-family="Helvetica,sans-Serif" font-size="10.00" fill="#000000">sbml/common/libsbml</text>
<text text-anchor="middle" x="788.5" y="-7.5" font-family="Helvetica,sans-Serif" font-size="10.00" fill="#000000">&#45;namespace.h</text>
</a>
</g>
</g>
<!-- Node5&#45;&gt;Node6 -->
<g id="edge5" class="edge">
<title>Node5&#45;&gt;Node6</title>
<path fill="none" stroke="#191970" d="M217.7156,-195.9477C312.6197,-165.9447 605.84,-73.2461 730.9628,-33.6898"/>
<polygon fill="#191970" stroke="#191970" points="732.2713,-36.9469 740.7511,-30.5953 730.1612,-30.2725 732.2713,-36.9469"/>
</g>
<!-- Node7&#45;&gt;Node5 -->
<g id="edge7" class="edge">
<title>Node7&#45;&gt;Node5</title>
<path fill="none" stroke="#191970" d="M227.7031,-329.9218C212.9082,-321.2237 193.3584,-306.874 184.5,-288 175.2088,-268.2039 178.0585,-242.6989 181.8775,-225.3223"/>
<polygon fill="#191970" stroke="#191970" points="185.3735,-225.7696 184.4092,-215.2188 178.5835,-224.0681 185.3735,-225.7696"/>
</g>
<!-- Node7&#45;&gt;Node7 -->
<g id="edge14" class="edge">
<title>Node7&#45;&gt;Node7</title>
<path fill="none" stroke="#191970" d="M270.0778,-349.0645C294.5654,-354.8698 322,-351.6816 322,-339.5 322,-328.9362 301.3688,-325.1357 279.9193,-328.0984"/>
<polygon fill="#191970" stroke="#191970" points="279.2657,-324.6598 270.0778,-329.9355 280.5503,-331.541 279.2657,-324.6598"/>
</g>
<!-- Node7&#45;&gt;Node8 -->
<g id="edge8" class="edge">
<title>Node7&#45;&gt;Node8</title>
<path fill="none" stroke="#191970" d="M258.3919,-329.9005C271.7048,-319.1539 293.4999,-301.5603 309.4568,-288.6794"/>
<polygon fill="#191970" stroke="#191970" points="312.0474,-291.0863 317.6302,-282.0817 307.6506,-285.6395 312.0474,-291.0863"/>
</g>
<!-- Node7&#45;&gt;Node9 -->
<g id="edge15" class="edge">
<title>Node7&#45;&gt;Node9</title>
<path fill="none" stroke="#191970" d="M245.1442,-329.8192C243.3645,-313.5573 241.8964,-280.2563 255.5,-257 264.8819,-240.961 281.4621,-228.5846 296.3484,-219.9889"/>
<polygon fill="#191970" stroke="#191970" points="298.1952,-222.9689 305.3188,-215.1264 294.8594,-216.8149 298.1952,-222.9689"/>
</g>
<!-- Node8&#45;&gt;Node5 -->
<g id="edge9" class="edge">
<title>Node8&#45;&gt;Node5</title>
<path fill="none" stroke="#191970" d="M309.1549,-262.9005C285.0077,-251.5072 244.5496,-232.4178 216.9755,-219.4075"/>
<polygon fill="#191970" stroke="#191970" points="218.3448,-216.1835 207.8074,-215.0817 215.3577,-222.5142 218.3448,-216.1835"/>
</g>
<!-- Node8&#45;&gt;Node9 -->
<g id="edge10" class="edge">
<title>Node8&#45;&gt;Node9</title>
<path fill="none" stroke="#191970" d="M329.2134,-262.9005C328.9224,-253.149 328.463,-237.7597 328.0931,-225.3695"/>
<polygon fill="#191970" stroke="#191970" points="331.5829,-224.9727 327.786,-215.0817 324.586,-225.1817 331.5829,-224.9727"/>
</g>
<!-- Node10 -->
<g id="node10" class="node">
<title>Node10</title>
<g id="a_node10"><a xlink:href="operation_return_values_8h.html" target="_top" xlink:title="Enumeration of values returned by operations within libSBML. ">
<polygon fill="#ffffff" stroke="#000000" points="409,-190.5 409,-220.5 562,-220.5 562,-190.5 409,-190.5"/>
<text text-anchor="start" x="417" y="-208.5" font-family="Helvetica,sans-Serif" font-size="10.00" fill="#000000">sbml/common/operationReturn</text>
<text text-anchor="middle" x="485.5" y="-197.5" font-family="Helvetica,sans-Serif" font-size="10.00" fill="#000000">Values.h</text>
</a>
</g>
</g>
<!-- Node8&#45;&gt;Node10 -->
<g id="edge11" class="edge">
<title>Node8&#45;&gt;Node10</title>
<path fill="none" stroke="#191970" d="M351.851,-262.9005C375.0128,-252.9528 411.8349,-237.1382 440.9692,-224.6254"/>
<polygon fill="#191970" stroke="#191970" points="442.7168,-227.6841 450.524,-220.5218 439.9543,-221.2522 442.7168,-227.6841"/>
</g>
<!-- Node11 -->
<g id="node11" class="node">
<title>Node11</title>
<g id="a_node11"><a xlink:href="extern_8h.html" target="_top" xlink:title="Definitions of LIBSBML_EXTERN and related things. ">
<polygon fill="#ffffff" stroke="#000000" points="880.5,-67.5 880.5,-86.5 998.5,-86.5 998.5,-67.5 880.5,-67.5"/>
<text text-anchor="middle" x="939.5" y="-74.5" font-family="Helvetica,sans-Serif" font-size="10.00" fill="#000000">sbml/common/extern.h</text>
</a>
</g>
</g>
<!-- Node10&#45;&gt;Node11 -->
<g id="edge12" class="edge">
<title>Node10&#45;&gt;Node11</title>
<path fill="none" stroke="#191970" d="M493.9293,-190.2897C505.5063,-171.0212 528.2605,-138.4666 557.5,-123 610.198,-95.1247 775.121,-83.7583 870.1516,-79.4309"/>
<polygon fill="#191970" stroke="#191970" points="870.4163,-82.9227 880.2523,-78.9854 870.1078,-75.9295 870.4163,-82.9227"/>
</g>
<!-- Node11&#45;&gt;Node6 -->
<g id="edge13" class="edge">
<title>Node11&#45;&gt;Node6</title>
<path fill="none" stroke="#191970" d="M915.9063,-67.3906C894.3349,-58.6049 861.8067,-45.3567 835.0178,-34.446"/>
<polygon fill="#191970" stroke="#191970" points="836.0203,-31.0752 825.4388,-30.5446 833.3799,-37.5581 836.0203,-31.0752"/>
</g>
<!-- Node12&#45;&gt;Node5 -->
<g id="edge20" class="edge">
<title>Node12&#45;&gt;Node5</title>
<path fill="none" stroke="#191970" d="M484.2386,-396.8927C425.0922,-368.8428 256.7442,-288.9712 255.5,-288 231.952,-269.6178 211.1356,-241.7406 198.9236,-223.5729"/>
<polygon fill="#191970" stroke="#191970" points="201.757,-221.5108 193.3529,-215.0592 195.8994,-225.3435 201.757,-221.5108"/>
</g>
<!-- Node12&#45;&gt;Node7 -->
<g id="edge21" class="edge">
<title>Node12&#45;&gt;Node7</title>
<path fill="none" stroke="#191970" d="M467.8089,-396.9717C421.9951,-385.0743 343.5615,-364.7059 293.4223,-351.6852"/>
<polygon fill="#191970" stroke="#191970" points="294.041,-348.2299 283.4823,-349.1039 292.2815,-355.0052 294.041,-348.2299"/>
</g>
<!-- Node12&#45;&gt;Node9 -->
<g id="edge22" class="edge">
<title>Node12&#45;&gt;Node9</title>
<path fill="none" stroke="#191970" d="M490.5221,-396.8398C477.6944,-387.3939 458.8607,-371.9856 446.5,-355 418.5132,-316.5415 433.9358,-293.5511 403.5,-257 390.6262,-241.5396 371.9707,-228.8047 356.365,-219.8663"/>
<polygon fill="#191970" stroke="#191970" points="358.0457,-216.7963 347.5957,-215.0503 354.676,-222.9319 358.0457,-216.7963"/>
</g>
<!-- Node12&#45;&gt;Node10 -->
<g id="edge23" class="edge">
<title>Node12&#45;&gt;Node10</title>
<path fill="none" stroke="#191970" d="M538.3254,-396.8798C559.2097,-389.0959 584.5896,-375.9181 598.5,-355 622.6797,-318.6392 629.5289,-293.4607 605.5,-257 595.9578,-242.521 581.4052,-232.0967 565.688,-224.5967"/>
<polygon fill="#191970" stroke="#191970" points="566.8936,-221.304 556.3285,-220.5101 564.0926,-227.7192 566.8936,-221.304"/>
</g>
<!-- Node13 -->
<g id="node13" class="node">
<title>Node13</title>
<g id="a_node13"><a xlink:href="_s_b_m_l_namespaces_8h.html" target="_top" xlink:title="SBMLNamespaces_t class to store level/version and namespace. ">
<polygon fill="#ffffff" stroke="#000000" points="455.5,-330 455.5,-349 589.5,-349 589.5,-330 455.5,-330"/>
<text text-anchor="middle" x="522.5" y="-337" font-family="Helvetica,sans-Serif" font-size="10.00" fill="#000000">sbml/SBMLNamespaces.h</text>
</a>
</g>
</g>
<!-- Node12&#45;&gt;Node13 -->
<g id="edge24" class="edge">
<title>Node12&#45;&gt;Node13</title>
<path fill="none" stroke="#191970" d="M507.079,-396.9005C509.7255,-387.0495 513.9177,-371.4451 517.2636,-358.9912"/>
<polygon fill="#191970" stroke="#191970" points="520.7113,-359.6473 519.9258,-349.0817 513.951,-357.8311 520.7113,-359.6473"/>
</g>
<!-- Node14 -->
<g id="node14" class="node">
<title>Node14</title>
<g id="a_node14"><a xlink:href="_x_m_l_namespaces_8h.html" target="_top" xlink:title="A list of XMLNamespace declarations (URI/prefix pairs) ">
<polygon fill="#ffffff" stroke="#000000" points="450.5,-263 450.5,-282 596.5,-282 596.5,-263 450.5,-263"/>
<text text-anchor="middle" x="523.5" y="-270" font-family="Helvetica,sans-Serif" font-size="10.00" fill="#000000">sbml/xml/XMLNamespaces.h</text>
</a>
</g>
</g>
<!-- Node13&#45;&gt;Node14 -->
<g id="edge25" class="edge">
<title>Node13&#45;&gt;Node14</title>
<path fill="none" stroke="#191970" d="M522.6433,-329.9005C522.7888,-320.149 523.0185,-304.7597 523.2034,-292.3695"/>
<polygon fill="#191970" stroke="#191970" points="526.7073,-292.1328 523.357,-282.0817 519.708,-292.0283 526.7073,-292.1328"/>
</g>
<!-- Node15 -->
<g id="node15" class="node">
<title>Node15</title>
<g id="a_node15"><a xlink:href="common_8h.html" target="_top" xlink:title="Common functions and macros for C and C++. ">
<polygon fill="#ffffff" stroke="#000000" points="699.5,-263 699.5,-282 827.5,-282 827.5,-263 699.5,-263"/>
<text text-anchor="middle" x="763.5" y="-270" font-family="Helvetica,sans-Serif" font-size="10.00" fill="#000000">sbml/common/common.h</text>
</a>
</g>
</g>
<!-- Node13&#45;&gt;Node15 -->
<g id="edge29" class="edge">
<title>Node13&#45;&gt;Node15</title>
<path fill="none" stroke="#191970" d="M556.7735,-329.9717C599.3899,-318.124 672.2227,-297.8758 719.0815,-284.8487"/>
<polygon fill="#191970" stroke="#191970" points="720.2574,-288.1546 728.9546,-282.1039 718.3824,-281.4104 720.2574,-288.1546"/>
</g>
<!-- Node14&#45;&gt;Node5 -->
<g id="edge26" class="edge">
<title>Node14&#45;&gt;Node5</title>
<path fill="none" stroke="#191970" d="M470.5519,-262.9801C416.2157,-253.066 329.2844,-236.8032 254.5,-221 249.0244,-219.8429 243.3077,-218.5899 237.6218,-217.3149"/>
<polygon fill="#191970" stroke="#191970" points="238.0058,-213.813 227.479,-215.012 236.4559,-220.6393 238.0058,-213.813"/>
</g>
<!-- Node14&#45;&gt;Node9 -->
<g id="edge27" class="edge">
<title>Node14&#45;&gt;Node9</title>
<path fill="none" stroke="#191970" d="M495.418,-262.9005C461.2149,-251.2086 403.3028,-231.4122 365.2303,-218.3976"/>
<polygon fill="#191970" stroke="#191970" points="366.1245,-215.0045 355.5299,-215.0817 363.8602,-221.6282 366.1245,-215.0045"/>
</g>
<!-- Node14&#45;&gt;Node10 -->
<g id="edge28" class="edge">
<title>Node14&#45;&gt;Node10</title>
<path fill="none" stroke="#191970" d="M518.0555,-262.9005C513.1004,-254.1638 505.5786,-240.9018 499.013,-229.3256"/>
<polygon fill="#191970" stroke="#191970" points="501.9977,-227.4934 494.0198,-220.5218 495.9088,-230.9468 501.9977,-227.4934"/>
</g>
<!-- Node15&#45;&gt;Node11 -->
<g id="edge36" class="edge">
<title>Node15&#45;&gt;Node11</title>
<path fill="none" stroke="#191970" d="M781.4195,-262.9469C795.7805,-254.1758 814.9021,-239.7105 823.5,-221 841.8982,-180.9621 783.0218,-158.9499 808.5,-123 817.9733,-109.6331 854.3236,-97.4915 886.336,-89.043"/>
<polygon fill="#191970" stroke="#191970" points="887.2785,-92.4146 896.097,-86.5423 885.5412,-85.6336 887.2785,-92.4146"/>
</g>
<!-- Node16 -->
<g id="node16" class="node">
<title>Node16</title>
<g id="a_node16"><a xlink:href="libsbml-config_8h.html" target="_top" xlink:title="Decides whether to #include Unix or Windows configuration variables. ">
<polygon fill="#ffffff" stroke="#000000" points="871,-190.5 871,-220.5 984,-220.5 984,-190.5 871,-190.5"/>
<text text-anchor="start" x="879" y="-208.5" font-family="Helvetica,sans-Serif" font-size="10.00" fill="#000000">sbml/common/libsbml</text>
<text text-anchor="middle" x="927.5" y="-197.5" font-family="Helvetica,sans-Serif" font-size="10.00" fill="#000000">&#45;config.h</text>
</a>
</g>
</g>
<!-- Node15&#45;&gt;Node16 -->
<g id="edge30" class="edge">
<title>Node15&#45;&gt;Node16</title>
<path fill="none" stroke="#191970" d="M786.9972,-262.9005C811.4527,-252.9096 850.3941,-237.0006 881.0846,-224.4624"/>
<polygon fill="#191970" stroke="#191970" points="882.7967,-227.5438 890.7303,-220.5218 880.1493,-221.0637 882.7967,-227.5438"/>
</g>
<!-- Node19 -->
<g id="node19" class="node">
<title>Node19</title>
<polygon fill="#ffffff" stroke="#bfbfbf" points="566.5,-129 566.5,-148 612.5,-148 612.5,-129 566.5,-129"/>
<text text-anchor="middle" x="589.5" y="-136" font-family="Helvetica,sans-Serif" font-size="10.00" fill="#000000">stdio.h</text>
</g>
<!-- Node15&#45;&gt;Node19 -->
<g id="edge35" class="edge">
<title>Node15&#45;&gt;Node19</title>
<path fill="none" stroke="#191970" d="M720.7729,-262.9586C681.0017,-253.2478 625.65,-237.3382 610.5,-221 594.6881,-203.9479 590.3799,-176.6917 589.4077,-158.2163"/>
<polygon fill="#191970" stroke="#191970" points="592.9019,-157.9295 589.1604,-148.0173 585.9039,-158.0992 592.9019,-157.9295"/>
</g>
<!-- Node20 -->
<g id="node20" class="node">
<title>Node20</title>
<g id="a_node20"><a xlink:href="memory_8h.html" target="_top" xlink:title="sbml/util/memory.h">
<polygon fill="#ffffff" stroke="#000000" points="714.5,-196 714.5,-215 814.5,-215 814.5,-196 714.5,-196"/>
<text text-anchor="middle" x="764.5" y="-203" font-family="Helvetica,sans-Serif" font-size="10.00" fill="#000000">sbml/util/memory.h</text>
</a>
</g>
</g>
<!-- Node15&#45;&gt;Node20 -->
<g id="edge37" class="edge">
<title>Node15&#45;&gt;Node20</title>
<path fill="none" stroke="#191970" d="M763.6433,-262.9005C763.7888,-253.149 764.0185,-237.7597 764.2034,-225.3695"/>
<polygon fill="#191970" stroke="#191970" points="767.7073,-225.1328 764.357,-215.0817 760.708,-225.0283 767.7073,-225.1328"/>
</g>
<!-- Node21 -->
<g id="node21" class="node">
<title>Node21</title>
<g id="a_node21"><a xlink:href="util_8h.html" target="_top" xlink:title="Utility functions. ">
<polygon fill="#ffffff" stroke="#000000" points="619,-196 619,-215 696,-215 696,-196 619,-196"/>
<text text-anchor="middle" x="657.5" y="-203" font-family="Helvetica,sans-Serif" font-size="10.00" fill="#000000">sbml/util/util.h</text>
</a>
</g>
</g>
<!-- Node15&#45;&gt;Node21 -->
<g id="edge38" class="edge">
<title>Node15&#45;&gt;Node21</title>
<path fill="none" stroke="#191970" d="M748.3128,-262.9005C730.7597,-251.8057 701.6606,-233.4128 681.1402,-220.4424"/>
<polygon fill="#191970" stroke="#191970" points="682.9821,-217.4661 672.659,-215.0817 679.242,-223.3832 682.9821,-217.4661"/>
</g>
<!-- Node16&#45;&gt;Node6 -->
<g id="edge31" class="edge">
<title>Node16&#45;&gt;Node6</title>
<path fill="none" stroke="#191970" d="M870.8257,-193.7535C848.068,-186.1669 823.6796,-173.8486 808.5,-154 783.3944,-121.1723 782.8227,-70.8178 785.2651,-40.7241"/>
<polygon fill="#191970" stroke="#191970" points="788.7628,-40.919 786.2615,-30.6237 781.7966,-40.2318 788.7628,-40.919"/>
</g>
<!-- Node17 -->
<g id="node17" class="node">
<title>Node17</title>
<g id="a_node17"><a xlink:href="libsbml-config-common_8h.html" target="_top" xlink:title="Configuration variables. ">
<polygon fill="#ffffff" stroke="#000000" points="817,-123.5 817,-153.5 930,-153.5 930,-123.5 817,-123.5"/>
<text text-anchor="start" x="825" y="-141.5" font-family="Helvetica,sans-Serif" font-size="10.00" fill="#000000">sbml/common/libsbml</text>
<text text-anchor="middle" x="873.5" y="-130.5" font-family="Helvetica,sans-Serif" font-size="10.00" fill="#000000">&#45;config&#45;common.h</text>
</a>
</g>
</g>
<!-- Node16&#45;&gt;Node17 -->
<g id="edge32" class="edge">
<title>Node16&#45;&gt;Node17</title>
<path fill="none" stroke="#191970" d="M915.2466,-190.2967C908.4114,-181.816 899.7573,-171.0785 892.1031,-161.5817"/>
<polygon fill="#191970" stroke="#191970" points="894.7053,-159.2328 885.7049,-153.6432 889.2551,-163.6255 894.7053,-159.2328"/>
</g>
<!-- Node18 -->
<g id="node18" class="node">
<title>Node18</title>
<g id="a_node18"><a xlink:href="libsbml-version_8h.html" target="_top" xlink:title="Define libSBML version numbers for access from client software. ">
<polygon fill="#ffffff" stroke="#000000" points="948,-123.5 948,-153.5 1061,-153.5 1061,-123.5 948,-123.5"/>
<text text-anchor="start" x="956" y="-141.5" font-family="Helvetica,sans-Serif" font-size="10.00" fill="#000000">sbml/common/libsbml</text>
<text text-anchor="middle" x="1004.5" y="-130.5" font-family="Helvetica,sans-Serif" font-size="10.00" fill="#000000">&#45;version.h</text>
</a>
</g>
</g>
<!-- Node16&#45;&gt;Node18 -->
<g id="edge33" class="edge">
<title>Node16&#45;&gt;Node18</title>
<path fill="none" stroke="#191970" d="M944.9725,-190.2967C955.1128,-181.4733 968.0604,-170.2072 979.289,-160.4368"/>
<polygon fill="#191970" stroke="#191970" points="981.8502,-162.8478 987.0967,-153.6432 977.2552,-157.567 981.8502,-162.8478"/>
</g>
<!-- Node18&#45;&gt;Node11 -->
<g id="edge34" class="edge">
<title>Node18&#45;&gt;Node11</title>
<path fill="none" stroke="#191970" d="M988.4326,-123.2977C979.034,-114.4052 967.1473,-103.1586 957.443,-93.9769"/>
<polygon fill="#191970" stroke="#191970" points="959.5768,-91.1774 949.9073,-86.8469 954.7658,-96.2621 959.5768,-91.1774"/>
</g>
<!-- Node21&#45;&gt;Node11 -->
<g id="edge41" class="edge">
<title>Node21&#45;&gt;Node11</title>
<path fill="none" stroke="#191970" d="M663.8172,-195.8527C675.7844,-178.3968 703.5354,-141.6539 736.5,-123 777.467,-99.8177 829.3015,-88.3173 870.3376,-82.6127"/>
<polygon fill="#191970" stroke="#191970" points="870.7936,-86.083 880.2558,-81.3166 869.8865,-79.142 870.7936,-86.083"/>
</g>
<!-- Node21&#45;&gt;Node19 -->
<g id="edge39" class="edge">
<title>Node21&#45;&gt;Node19</title>
<path fill="none" stroke="#191970" d="M647.7573,-195.9005C637.0523,-185.353 619.653,-168.2096 606.6521,-155.3998"/>
<polygon fill="#191970" stroke="#191970" points="608.8044,-152.607 599.2247,-148.0817 603.8915,-157.5933 608.8044,-152.607"/>
</g>
<!-- Node22 -->
<g id="node22" class="node">
<title>Node22</title>
<polygon fill="#ffffff" stroke="#bfbfbf" points="631,-129 631,-148 684,-148 684,-129 631,-129"/>
<text text-anchor="middle" x="657.5" y="-136" font-family="Helvetica,sans-Serif" font-size="10.00" fill="#000000">stdarg.h</text>
</g>
<!-- Node21&#45;&gt;Node22 -->
<g id="edge40" class="edge">
<title>Node21&#45;&gt;Node22</title>
<path fill="none" stroke="#191970" d="M657.5,-195.9005C657.5,-186.149 657.5,-170.7597 657.5,-158.3695"/>
<polygon fill="#191970" stroke="#191970" points="661.0001,-158.0816 657.5,-148.0817 654.0001,-158.0817 661.0001,-158.0816"/>
</g>
<!-- Node23&#45;&gt;Node9 -->
<g id="edge43" class="edge">
<title>Node23&#45;&gt;Node9</title>
<path fill="none" stroke="#191970" d="M710.3904,-329.7635C691.4844,-312.1625 648.762,-275.1925 605.5,-257 520.2276,-221.1412 491.3138,-238.6094 400.5,-221 394.2398,-219.7861 387.6883,-218.466 381.1891,-217.1255"/>
<polygon fill="#191970" stroke="#191970" points="381.5723,-213.6301 371.0683,-215.0144 380.1429,-220.4827 381.5723,-213.6301"/>
</g>
<!-- Node24&#45;&gt;Node9 -->
<g id="edge46" class="edge">
<title>Node24&#45;&gt;Node9</title>
<path fill="none" stroke="#191970" d="M1155.246,-268.2134C1112.905,-264.9791 1053.0254,-260.514 1000.5,-257 733.9496,-239.1674 665.2308,-256.8427 400.5,-221 392.8267,-219.9611 384.7574,-218.5625 376.8954,-217.0287"/>
<polygon fill="#191970" stroke="#191970" points="377.5905,-213.5985 367.0929,-215.0306 376.1923,-220.4575 377.5905,-213.5985"/>
</g>
<!-- Node24&#45;&gt;Node11 -->
<g id="edge45" class="edge">
<title>Node24&#45;&gt;Node11</title>
<path fill="none" stroke="#191970" d="M1202.5458,-257.2828C1197.283,-247.0857 1190.3081,-233.3211 1184.5,-221 1164.2191,-177.9767 1178.165,-153.2985 1141.5,-123 1121.3976,-106.3881 1059.2554,-93.8361 1009.1499,-86.0747"/>
<polygon fill="#191970" stroke="#191970" points="1009.3937,-82.5719 998.9831,-84.539 1008.3482,-89.4934 1009.3937,-82.5719"/>
</g>
<!-- Node25 -->
<g id="node25" class="node">
<title>Node25</title>
<polygon fill="#ffffff" stroke="#bfbfbf" points="1193.5,-190.5 1193.5,-220.5 1303.5,-220.5 1303.5,-190.5 1193.5,-190.5"/>
<text text-anchor="start" x="1201.5" y="-208.5" font-family="Helvetica,sans-Serif" font-size="10.00" fill="#000000">sbml/packages/comp</text>
<text text-anchor="middle" x="1248.5" y="-197.5" font-family="Helvetica,sans-Serif" font-size="10.00" fill="#000000">/common/compfwd.h</text>
</g>
<!-- Node24&#45;&gt;Node25 -->
<g id="edge47" class="edge">
<title>Node24&#45;&gt;Node25</title>
<path fill="none" stroke="#191970" d="M1219.1228,-257.2967C1223.787,-249.0729 1229.6547,-238.7272 1234.9174,-229.4483"/>
<polygon fill="#191970" stroke="#191970" points="1238.0223,-231.0683 1239.9113,-220.6432 1231.9335,-227.6148 1238.0223,-231.0683"/>
</g>
<!-- Node26&#45;&gt;Node11 -->
<g id="edge49" class="edge">
<title>Node26&#45;&gt;Node11</title>
<path fill="none" stroke="#191970" d="M934.87,-324.466C956.6311,-316.1492 981.5127,-304.1682 1000.5,-288 1054.3787,-242.1209 1066.9455,-222.0105 1086.5,-154 1090.3072,-140.7587 1094.6589,-134.1022 1086.5,-123 1075.9696,-108.6709 1036.7058,-96.8149 1001.4056,-88.7298"/>
<polygon fill="#191970" stroke="#191970" points="1002.1021,-85.2993 991.5814,-86.5505 1000.5861,-92.1332 1002.1021,-85.2993"/>
</g>
<!-- Node27 -->
<g id="node27" class="node">
<title>Node27</title>
<g id="a_node27"><a xlink:href="_s_b_m_l_type_codes_8h.html" target="_top" xlink:title="Enumeration to identify SBML objects at runtime. ">
<polygon fill="#ffffff" stroke="#000000" points="864,-263 864,-282 991,-282 991,-263 864,-263"/>
<text text-anchor="middle" x="927.5" y="-270" font-family="Helvetica,sans-Serif" font-size="10.00" fill="#000000">sbml/SBMLTypeCodes.h</text>
</a>
</g>
</g>
<!-- Node26&#45;&gt;Node27 -->
<g id="edge50" class="edge">
<title>Node26&#45;&gt;Node27</title>
<path fill="none" stroke="#191970" d="M895.0305,-324.2967C901.2566,-314.3645 909.423,-301.3371 916.0082,-290.8321"/>
<polygon fill="#191970" stroke="#191970" points="919.1644,-292.3868 921.5103,-282.055 913.2334,-288.6689 919.1644,-292.3868"/>
</g>
<!-- Node27&#45;&gt;Node11 -->
<g id="edge52" class="edge">
<title>Node27&#45;&gt;Node11</title>
<path fill="none" stroke="#191970" d="M948.4219,-262.8729C981.7628,-246.199 1045.7101,-208.431 1070.5,-154 1076.2105,-141.4614 1078.4666,-134.241 1070.5,-123 1061.0267,-109.6331 1024.6764,-97.4915 992.664,-89.043"/>
<polygon fill="#191970" stroke="#191970" points="993.4588,-85.6336 982.903,-86.5423 991.7215,-92.4146 993.4588,-85.6336"/>
</g>
<!-- Node27&#45;&gt;Node16 -->
<g id="edge51" class="edge">
<title>Node27&#45;&gt;Node16</title>
<path fill="none" stroke="#191970" d="M927.5,-262.9005C927.5,-254.5099 927.5,-241.9451 927.5,-230.7085"/>
<polygon fill="#191970" stroke="#191970" points="931.0001,-230.5217 927.5,-220.5218 924.0001,-230.5218 931.0001,-230.5217"/>
</g>
</g>
</svg>
