<?xml version="1.0" encoding="UTF-8" standalone="no"?>
<!DOCTYPE svg PUBLIC "-//W3C//DTD SVG 1.1//EN"
 "http://www.w3.org/Graphics/SVG/1.1/DTD/svg11.dtd">
<!-- Generated by graphviz version 2.40.1 (20161225.0304)
 -->
<!-- Title: SBMLExtension.h Pages: 1 -->
<svg width="2283pt" height="811pt"
 viewBox="0.00 0.00 2283.49 811.00" xmlns="http://www.w3.org/2000/svg" xmlns:xlink="http://www.w3.org/1999/xlink">
<g id="graph0" class="graph" transform="scale(1 1) rotate(0) translate(4 807)">
<title>SBMLExtension.h</title>
<polygon fill="#ffffff" stroke="transparent" points="-4,4 -4,-807 2279.4873,-807 2279.4873,4 -4,4"/>
<!-- Node1 -->
<g id="node1" class="node">
<title>Node1</title>
<polygon fill="#bfbfbf" stroke="#000000" points="661.4873,-783.5 661.4873,-802.5 757.4873,-802.5 757.4873,-783.5 661.4873,-783.5"/>
<text text-anchor="middle" x="709.4873" y="-790.5" font-family="Helvetica,sans-Serif" font-size="10.00" fill="#000000">SBMLExtension.h</text>
</g>
<!-- Node2 -->
<g id="node2" class="node">
<title>Node2</title>
<g id="a_node2"><a xlink:href="libsbml-config-common_8h.html" target="_top" xlink:title="Configuration variables. ">
<polygon fill="#ffffff" stroke="#000000" points="31.9873,-123.5 31.9873,-153.5 144.9873,-153.5 144.9873,-123.5 31.9873,-123.5"/>
<text text-anchor="start" x="39.9873" y="-141.5" font-family="Helvetica,sans-Serif" font-size="10.00" fill="#000000">sbml/common/libsbml</text>
<text text-anchor="middle" x="88.4873" y="-130.5" font-family="Helvetica,sans-Serif" font-size="10.00" fill="#000000">&#45;config&#45;common.h</text>
</a>
</g>
</g>
<!-- Node1&#45;&gt;Node2 -->
<g id="edge1" class="edge">
<title>Node1&#45;&gt;Node2</title>
<path fill="none" stroke="#191970" d="M661.4464,-788.8606C508.28,-775.0265 41.4873,-727.6827 41.4873,-664.5 41.4873,-664.5 41.4873,-664.5 41.4873,-267 41.4873,-228.6644 60.1654,-187.5958 73.9721,-162.4747"/>
<polygon fill="#191970" stroke="#191970" points="77.0796,-164.0903 78.9761,-153.6666 70.9933,-160.6326 77.0796,-164.0903"/>
</g>
<!-- Node3 -->
<g id="node3" class="node">
<title>Node3</title>
<g id="a_node3"><a xlink:href="_s_base_plugin_creator_base_8h.html" target="_top" xlink:title="Definition of SBasePluginCreatorBase_t, the base class of SBasePlugin_t creator classes. ">
<polygon fill="#ffffff" stroke="#000000" points="587.9873,-716.5 587.9873,-746.5 730.9873,-746.5 730.9873,-716.5 587.9873,-716.5"/>
<text text-anchor="start" x="595.9873" y="-734.5" font-family="Helvetica,sans-Serif" font-size="10.00" fill="#000000">sbml/extension/SBasePlugin</text>
<text text-anchor="middle" x="659.4873" y="-723.5" font-family="Helvetica,sans-Serif" font-size="10.00" fill="#000000">CreatorBase.h</text>
</a>
</g>
</g>
<!-- Node1&#45;&gt;Node3 -->
<g id="edge2" class="edge">
<title>Node1&#45;&gt;Node3</title>
<path fill="none" stroke="#191970" d="M701.6748,-783.3906C695.4091,-775.6839 686.3518,-764.5434 678.2343,-754.5589"/>
<polygon fill="#191970" stroke="#191970" points="680.7427,-752.0959 671.7186,-746.5446 675.3113,-756.5117 680.7427,-752.0959"/>
</g>
<!-- Node40 -->
<g id="node40" class="node">
<title>Node40</title>
<g id="a_node40"><a xlink:href="_s_base_extension_point_8h.html" target="_top" xlink:title="Implementation of SBaseExtensionPoint_t. ">
<polygon fill="#ffffff" stroke="#000000" points="1468.9873,-649.5 1468.9873,-679.5 1627.9873,-679.5 1627.9873,-649.5 1468.9873,-649.5"/>
<text text-anchor="start" x="1476.9873" y="-667.5" font-family="Helvetica,sans-Serif" font-size="10.00" fill="#000000">sbml/extension/SBaseExtension</text>
<text text-anchor="middle" x="1548.4873" y="-656.5" font-family="Helvetica,sans-Serif" font-size="10.00" fill="#000000">Point.h</text>
</a>
</g>
</g>
<!-- Node1&#45;&gt;Node40 -->
<g id="edge108" class="edge">
<title>Node1&#45;&gt;Node40</title>
<path fill="none" stroke="#191970" d="M716.6935,-783.2737C730.9548,-764.3304 762.7547,-723.667 778.4873,-716 838.284,-686.8592 1268.7,-671.9379 1458.7213,-666.7114"/>
<polygon fill="#191970" stroke="#191970" points="1459.0607,-670.2036 1468.9618,-666.4328 1458.8703,-663.2062 1459.0607,-670.2036"/>
</g>
<!-- Node41 -->
<g id="node41" class="node">
<title>Node41</title>
<g id="a_node41"><a xlink:href="_a_s_t_base_plugin_8h.html" target="_top" xlink:title="sbml/extension/ASTBasePlugin.h">
<polygon fill="#ffffff" stroke="#000000" points="787.4873,-722 787.4873,-741 951.4873,-741 951.4873,-722 787.4873,-722"/>
<text text-anchor="middle" x="869.4873" y="-729" font-family="Helvetica,sans-Serif" font-size="10.00" fill="#000000">sbml/extension/ASTBasePlugin.h</text>
</a>
</g>
</g>
<!-- Node1&#45;&gt;Node41 -->
<g id="edge109" class="edge">
<title>Node1&#45;&gt;Node41</title>
<path fill="none" stroke="#191970" d="M734.4873,-783.3906C761.493,-773.0103 804.7057,-756.4004 834.9466,-744.7766"/>
<polygon fill="#191970" stroke="#191970" points="836.5844,-747.8968 844.6628,-741.0419 834.0728,-741.3628 836.5844,-747.8968"/>
</g>
<!-- Node4 -->
<g id="node4" class="node">
<title>Node4</title>
<g id="a_node4"><a xlink:href="_s_b_m_l_document_8h.html" target="_top" xlink:title="Top&#45;level container for an SBML Model_t and associated data. ">
<polygon fill="#ffffff" stroke="#000000" points="598.4873,-655 598.4873,-674 720.4873,-674 720.4873,-655 598.4873,-655"/>
<text text-anchor="middle" x="659.4873" y="-662" font-family="Helvetica,sans-Serif" font-size="10.00" fill="#000000">sbml/SBMLDocument.h</text>
</a>
</g>
</g>
<!-- Node3&#45;&gt;Node4 -->
<g id="edge3" class="edge">
<title>Node3&#45;&gt;Node4</title>
<path fill="none" stroke="#191970" d="M659.4873,-716.2967C659.4873,-706.7699 659.4873,-694.3954 659.4873,-684.1306"/>
<polygon fill="#191970" stroke="#191970" points="662.9874,-684.0549 659.4873,-674.055 655.9874,-684.055 662.9874,-684.0549"/>
</g>
<!-- Node14 -->
<g id="node14" class="node">
<title>Node14</title>
<g id="a_node14"><a xlink:href="_s_b_m_l_namespaces_8h.html" target="_top" xlink:title="SBMLNamespaces_t class to store level/version and namespace. ">
<polygon fill="#ffffff" stroke="#000000" points="661.4873,-313.5 661.4873,-332.5 795.4873,-332.5 795.4873,-313.5 661.4873,-313.5"/>
<text text-anchor="middle" x="728.4873" y="-320.5" font-family="Helvetica,sans-Serif" font-size="10.00" fill="#000000">sbml/SBMLNamespaces.h</text>
</a>
</g>
</g>
<!-- Node3&#45;&gt;Node14 -->
<g id="edge104" class="edge">
<title>Node3&#45;&gt;Node14</title>
<path fill="none" stroke="#191970" d="M624.6302,-716.4637C584.9266,-696.7082 525.4873,-657.9555 525.4873,-603 525.4873,-603 525.4873,-603 525.4873,-491 525.4873,-407.5814 628.4835,-357.7626 687.7476,-336.0015"/>
<polygon fill="#191970" stroke="#191970" points="688.9693,-339.2818 697.2134,-332.6271 686.6187,-332.6882 688.9693,-339.2818"/>
</g>
<!-- Node3&#45;&gt;Node40 -->
<g id="edge105" class="edge">
<title>Node3&#45;&gt;Node40</title>
<path fill="none" stroke="#191970" d="M731.1904,-717.9444C736.0197,-717.2267 740.8187,-716.5685 745.4873,-716 1003.215,-684.6141 1309.9605,-671.6562 1458.7105,-666.9115"/>
<polygon fill="#191970" stroke="#191970" points="1458.8261,-670.4097 1468.7113,-666.5974 1458.6063,-663.4132 1458.8261,-670.4097"/>
</g>
<!-- Node5 -->
<g id="node5" class="node">
<title>Node5</title>
<g id="a_node5"><a xlink:href="extern_8h.html" target="_top" xlink:title="Definitions of LIBSBML_EXTERN and related things. ">
<polygon fill="#ffffff" stroke="#000000" points="878.4873,-67.5 878.4873,-86.5 996.4873,-86.5 996.4873,-67.5 878.4873,-67.5"/>
<text text-anchor="middle" x="937.4873" y="-74.5" font-family="Helvetica,sans-Serif" font-size="10.00" fill="#000000">sbml/common/extern.h</text>
</a>
</g>
</g>
<!-- Node4&#45;&gt;Node5 -->
<g id="edge4" class="edge">
<title>Node4&#45;&gt;Node5</title>
<path fill="none" stroke="#191970" d="M720.575,-663.2789C937.2099,-658.7431 1668.1444,-641.6346 1900.4873,-613 2035.5532,-596.3541 2199.4873,-683.0878 2199.4873,-547 2199.4873,-547 2199.4873,-547 2199.4873,-379 2199.4873,-260.3142 2220.1041,-191.9313 2123.4873,-123 2077.8822,-90.463 1253.6656,-80.009 1006.7941,-77.6005"/>
<polygon fill="#191970" stroke="#191970" points="1006.5508,-74.0981 996.5176,-77.5017 1006.4834,-81.0978 1006.5508,-74.0981"/>
</g>
<!-- Node7 -->
<g id="node7" class="node">
<title>Node7</title>
<polygon fill="#ffffff" stroke="#bfbfbf" points="1755.9873,-129 1755.9873,-148 1882.9873,-148 1882.9873,-129 1755.9873,-129"/>
<text text-anchor="middle" x="1819.4873" y="-136" font-family="Helvetica,sans-Serif" font-size="10.00" fill="#000000">sbml/common/sbmlfwd.h</text>
</g>
<!-- Node4&#45;&gt;Node7 -->
<g id="edge6" class="edge">
<title>Node4&#45;&gt;Node7</title>
<path fill="none" stroke="#191970" d="M720.6969,-662.9721C1002.5168,-655.5433 2161.4873,-620.523 2161.4873,-547 2161.4873,-547 2161.4873,-547 2161.4873,-267 2161.4873,-209.1276 1987.711,-168.4677 1887.9021,-149.8873"/>
<polygon fill="#191970" stroke="#191970" points="1888.3579,-146.4126 1877.8906,-148.0513 1887.0952,-153.2978 1888.3579,-146.4126"/>
</g>
<!-- Node8 -->
<g id="node8" class="node">
<title>Node8</title>
<g id="a_node8"><a xlink:href="_s_b_m_l_error_8h.html" target="_top" xlink:title="Represents SBML errors and other diagnostics. ">
<polygon fill="#ffffff" stroke="#000000" points="285.4873,-369.5 285.4873,-388.5 383.4873,-388.5 383.4873,-369.5 285.4873,-369.5"/>
<text text-anchor="middle" x="334.4873" y="-376.5" font-family="Helvetica,sans-Serif" font-size="10.00" fill="#000000">sbml/SBMLError.h</text>
</a>
</g>
</g>
<!-- Node4&#45;&gt;Node8 -->
<g id="edge7" class="edge">
<title>Node4&#45;&gt;Node8</title>
<path fill="none" stroke="#191970" d="M598.3197,-657.4847C494.8675,-643.9005 296.4873,-609.6797 296.4873,-547 296.4873,-547 296.4873,-547 296.4873,-491 296.4873,-456.6118 312.7507,-419.2832 323.9983,-397.5791"/>
<polygon fill="#191970" stroke="#191970" points="327.2189,-398.9804 328.8802,-388.5166 321.0562,-395.6605 327.2189,-398.9804"/>
</g>
<!-- Node10 -->
<g id="node10" class="node">
<title>Node10</title>
<polygon fill="#ffffff" stroke="#bfbfbf" points="409.4873,-129 409.4873,-148 455.4873,-148 455.4873,-129 409.4873,-129"/>
<text text-anchor="middle" x="432.4873" y="-136" font-family="Helvetica,sans-Serif" font-size="10.00" fill="#000000">stdio.h</text>
</g>
<!-- Node4&#45;&gt;Node10 -->
<g id="edge103" class="edge">
<title>Node4&#45;&gt;Node10</title>
<path fill="none" stroke="#191970" d="M598.3072,-660.9312C477.4072,-652.1972 219.4873,-624.4844 219.4873,-547 219.4873,-547 219.4873,-547 219.4873,-379 219.4873,-309.6781 291.2789,-328.6752 337.4873,-277 372.627,-237.703 405.516,-184.8321 421.8067,-157.1604"/>
<polygon fill="#191970" stroke="#191970" points="425.0291,-158.5815 427.031,-148.1775 418.978,-155.0623 425.0291,-158.5815"/>
</g>
<!-- Node21 -->
<g id="node21" class="node">
<title>Node21</title>
<g id="a_node21"><a xlink:href="_s_b_m_l_error_log_8h.html" target="_top" xlink:title="Stores errors (and messages) encountered while processing SBML. ">
<polygon fill="#ffffff" stroke="#000000" points="324.9873,-425.5 324.9873,-444.5 439.9873,-444.5 439.9873,-425.5 324.9873,-425.5"/>
<text text-anchor="middle" x="382.4873" y="-432.5" font-family="Helvetica,sans-Serif" font-size="10.00" fill="#000000">sbml/SBMLErrorLog.h</text>
</a>
</g>
</g>
<!-- Node4&#45;&gt;Node21 -->
<g id="edge34" class="edge">
<title>Node4&#45;&gt;Node21</title>
<path fill="none" stroke="#191970" d="M629.8713,-654.8826C586.9586,-639.7448 506.9041,-606.85 454.4873,-557 423.0038,-527.0583 400.6855,-480.3434 389.8756,-454.2634"/>
<polygon fill="#191970" stroke="#191970" points="393.0355,-452.7392 386.0691,-444.7567 386.5371,-455.3412 393.0355,-452.7392"/>
</g>
<!-- Node23 -->
<g id="node23" class="node">
<title>Node23</title>
<g id="a_node23"><a xlink:href="_s_base_8h.html" target="_top" xlink:title="Definition of SBase_t, the base object of all SBML objects. ">
<polygon fill="#ffffff" stroke="#000000" points="860.4873,-593.5 860.4873,-612.5 938.4873,-612.5 938.4873,-593.5 860.4873,-593.5"/>
<text text-anchor="middle" x="899.4873" y="-600.5" font-family="Helvetica,sans-Serif" font-size="10.00" fill="#000000">sbml/SBase.h</text>
</a>
</g>
</g>
<!-- Node4&#45;&gt;Node23 -->
<g id="edge42" class="edge">
<title>Node4&#45;&gt;Node23</title>
<path fill="none" stroke="#191970" d="M696.7239,-654.9581C738.5867,-644.2308 806.6501,-626.7895 852.2288,-615.11"/>
<polygon fill="#191970" stroke="#191970" points="853.3451,-618.4371 862.1632,-612.5643 851.6074,-611.6562 853.3451,-618.4371"/>
</g>
<!-- Node39 -->
<g id="node39" class="node">
<title>Node39</title>
<g id="a_node39"><a xlink:href="_s_b_m_l_transforms_8h.html" target="_top" xlink:title="sbml/SBMLTransforms.h">
<polygon fill="#ffffff" stroke="#000000" points="595.9873,-593.5 595.9873,-612.5 722.9873,-612.5 722.9873,-593.5 595.9873,-593.5"/>
<text text-anchor="middle" x="659.4873" y="-600.5" font-family="Helvetica,sans-Serif" font-size="10.00" fill="#000000">sbml/SBMLTransforms.h</text>
</a>
</g>
</g>
<!-- Node4&#45;&gt;Node39 -->
<g id="edge102" class="edge">
<title>Node4&#45;&gt;Node39</title>
<path fill="none" stroke="#191970" d="M659.4873,-654.8906C659.4873,-646.3657 659.4873,-633.6392 659.4873,-622.9235"/>
<polygon fill="#191970" stroke="#191970" points="662.9874,-622.7448 659.4873,-612.7449 655.9874,-622.7449 662.9874,-622.7448"/>
</g>
<!-- Node6 -->
<g id="node6" class="node">
<title>Node6</title>
<g id="a_node6"><a xlink:href="libsbml-namespace_8h.html" target="_top" xlink:title="Defines C++ namespace of libSBML. ">
<polygon fill="#ffffff" stroke="#000000" points="880.9873,-.5 880.9873,-30.5 993.9873,-30.5 993.9873,-.5 880.9873,-.5"/>
<text text-anchor="start" x="888.9873" y="-18.5" font-family="Helvetica,sans-Serif" font-size="10.00" fill="#000000">sbml/common/libsbml</text>
<text text-anchor="middle" x="937.4873" y="-7.5" font-family="Helvetica,sans-Serif" font-size="10.00" fill="#000000">&#45;namespace.h</text>
</a>
</g>
</g>
<!-- Node5&#45;&gt;Node6 -->
<g id="edge5" class="edge">
<title>Node5&#45;&gt;Node6</title>
<path fill="none" stroke="#191970" d="M937.4873,-67.3906C937.4873,-60.2234 937.4873,-50.0862 937.4873,-40.671"/>
<polygon fill="#191970" stroke="#191970" points="940.9874,-40.5446 937.4873,-30.5446 933.9874,-40.5446 940.9874,-40.5446"/>
</g>
<!-- Node8&#45;&gt;Node5 -->
<g id="edge8" class="edge">
<title>Node8&#45;&gt;Node5</title>
<path fill="none" stroke="#191970" d="M304.0447,-369.4741C207.2774,-337.7903 -80.9629,-231.7816 22.4873,-123 51.523,-92.4679 659.5252,-80.9628 868.0339,-77.9061"/>
<polygon fill="#191970" stroke="#191970" points="868.2994,-81.4027 878.2477,-77.7584 868.1981,-74.4034 868.2994,-81.4027"/>
</g>
<!-- Node9 -->
<g id="node9" class="node">
<title>Node9</title>
<g id="a_node9"><a xlink:href="_x_m_l_error_8h.html" target="_top" xlink:title="Represents errors (and messages) encountered during an XML parse. ">
<polygon fill="#ffffff" stroke="#000000" points="385.4873,-257.5 385.4873,-276.5 495.4873,-276.5 495.4873,-257.5 385.4873,-257.5"/>
<text text-anchor="middle" x="440.4873" y="-264.5" font-family="Helvetica,sans-Serif" font-size="10.00" fill="#000000">sbml/xml/XMLError.h</text>
</a>
</g>
</g>
<!-- Node8&#45;&gt;Node9 -->
<g id="edge9" class="edge">
<title>Node8&#45;&gt;Node9</title>
<path fill="none" stroke="#191970" d="M343.5248,-369.4509C361.5172,-350.4401 402.0222,-307.6423 424.5721,-283.816"/>
<polygon fill="#191970" stroke="#191970" points="427.1408,-286.1937 431.4726,-276.5249 422.0567,-281.382 427.1408,-286.1937"/>
</g>
<!-- Node8&#45;&gt;Node14 -->
<g id="edge18" class="edge">
<title>Node8&#45;&gt;Node14</title>
<path fill="none" stroke="#191970" d="M383.591,-372.0208C450.8517,-362.4609 572.3173,-345.1968 651.6723,-333.9179"/>
<polygon fill="#191970" stroke="#191970" points="652.2077,-337.377 661.6157,-332.5046 651.2226,-330.4467 652.2077,-337.377"/>
</g>
<!-- Node9&#45;&gt;Node7 -->
<g id="edge13" class="edge">
<title>Node9&#45;&gt;Node7</title>
<path fill="none" stroke="#191970" d="M468.2592,-257.3799C494.446,-248.2421 534.7497,-234.0055 569.4873,-221 604.8104,-207.7753 611.59,-197.8237 648.4873,-190 661.9555,-187.1442 1490.1514,-152.2855 1745.4131,-141.5961"/>
<polygon fill="#191970" stroke="#191970" points="1745.8492,-145.081 1755.694,-141.1656 1745.5563,-138.0871 1745.8492,-145.081"/>
</g>
<!-- Node9&#45;&gt;Node10 -->
<g id="edge10" class="edge">
<title>Node9&#45;&gt;Node10</title>
<path fill="none" stroke="#191970" d="M439.886,-257.3416C438.5829,-236.4114 435.4758,-186.504 433.7309,-158.4762"/>
<polygon fill="#191970" stroke="#191970" points="437.2102,-158.0336 433.0955,-148.2705 430.2238,-158.4686 437.2102,-158.0336"/>
</g>
<!-- Node11 -->
<g id="node11" class="node">
<title>Node11</title>
<g id="a_node11"><a xlink:href="_x_m_l_extern_8h.html" target="_top" xlink:title="Defines LIBLAX_EXTERN. ">
<polygon fill="#ffffff" stroke="#000000" points="1321.9873,-129 1321.9873,-148 1438.9873,-148 1438.9873,-129 1321.9873,-129"/>
<text text-anchor="middle" x="1380.4873" y="-136" font-family="Helvetica,sans-Serif" font-size="10.00" fill="#000000">sbml/xml/XMLExtern.h</text>
</a>
</g>
</g>
<!-- Node9&#45;&gt;Node11 -->
<g id="edge11" class="edge">
<title>Node9&#45;&gt;Node11</title>
<path fill="none" stroke="#191970" d="M462.6947,-257.4214C482.1015,-248.7506 510.7985,-235.1955 534.4873,-221 554.6963,-208.8898 555.2656,-197.8268 577.4873,-190 720.8435,-139.5076 1109.1216,-167.7449 1260.4873,-154 1277.0323,-152.4976 1294.8073,-150.4442 1311.4734,-148.3236"/>
<polygon fill="#191970" stroke="#191970" points="1312.2195,-151.7563 1321.6861,-146.9989 1311.319,-144.8144 1312.2195,-151.7563"/>
</g>
<!-- Node12 -->
<g id="node12" class="node">
<title>Node12</title>
<g id="a_node12"><a xlink:href="util_8h.html" target="_top" xlink:title="Utility functions. ">
<polygon fill="#ffffff" stroke="#000000" points="447.9873,-196 447.9873,-215 524.9873,-215 524.9873,-196 447.9873,-196"/>
<text text-anchor="middle" x="486.4873" y="-203" font-family="Helvetica,sans-Serif" font-size="10.00" fill="#000000">sbml/util/util.h</text>
</a>
</g>
</g>
<!-- Node9&#45;&gt;Node12 -->
<g id="edge14" class="edge">
<title>Node9&#45;&gt;Node12</title>
<path fill="none" stroke="#191970" d="M447.6748,-257.3906C454.4539,-248.3273 464.7851,-234.5149 473.0846,-223.4188"/>
<polygon fill="#191970" stroke="#191970" points="476.0116,-225.349 479.1984,-215.2449 470.4061,-221.1563 476.0116,-225.349"/>
</g>
<!-- Node11&#45;&gt;Node6 -->
<g id="edge12" class="edge">
<title>Node11&#45;&gt;Node6</title>
<path fill="none" stroke="#191970" d="M1346.0944,-128.9507C1272.0734,-108.3986 1096.6812,-59.7006 1001.5363,-33.2834"/>
<polygon fill="#191970" stroke="#191970" points="1002.3164,-29.8676 991.7445,-30.5647 1000.4436,-36.6125 1002.3164,-29.8676"/>
</g>
<!-- Node12&#45;&gt;Node5 -->
<g id="edge17" class="edge">
<title>Node12&#45;&gt;Node5</title>
<path fill="none" stroke="#191970" d="M518.9958,-195.974C525.7668,-193.9952 532.859,-191.9263 539.4873,-190 642.548,-160.0483 668.2166,-152.2196 771.4873,-123 812.4299,-111.4156 859.1389,-98.4988 892.5575,-89.309"/>
<polygon fill="#191970" stroke="#191970" points="893.7658,-92.6068 902.481,-86.5823 891.911,-85.857 893.7658,-92.6068"/>
</g>
<!-- Node12&#45;&gt;Node10 -->
<g id="edge15" class="edge">
<title>Node12&#45;&gt;Node10</title>
<path fill="none" stroke="#191970" d="M478.7504,-195.9005C470.4098,-185.552 456.9518,-168.8542 446.6961,-156.1295"/>
<polygon fill="#191970" stroke="#191970" points="449.2102,-153.6713 440.2098,-148.0817 443.76,-158.064 449.2102,-153.6713"/>
</g>
<!-- Node13 -->
<g id="node13" class="node">
<title>Node13</title>
<polygon fill="#ffffff" stroke="#bfbfbf" points="473.9873,-129 473.9873,-148 526.9873,-148 526.9873,-129 473.9873,-129"/>
<text text-anchor="middle" x="500.4873" y="-136" font-family="Helvetica,sans-Serif" font-size="10.00" fill="#000000">stdarg.h</text>
</g>
<!-- Node12&#45;&gt;Node13 -->
<g id="edge16" class="edge">
<title>Node12&#45;&gt;Node13</title>
<path fill="none" stroke="#191970" d="M488.4931,-195.9005C490.5516,-186.0495 493.8122,-170.4451 496.4145,-157.9912"/>
<polygon fill="#191970" stroke="#191970" points="499.8657,-158.5862 498.4851,-148.0817 493.0137,-157.1543 499.8657,-158.5862"/>
</g>
<!-- Node15 -->
<g id="node15" class="node">
<title>Node15</title>
<g id="a_node15"><a xlink:href="_x_m_l_namespaces_8h.html" target="_top" xlink:title="A list of XMLNamespace declarations (URI/prefix pairs) ">
<polygon fill="#ffffff" stroke="#000000" points="1307.4873,-196 1307.4873,-215 1453.4873,-215 1453.4873,-196 1307.4873,-196"/>
<text text-anchor="middle" x="1380.4873" y="-203" font-family="Helvetica,sans-Serif" font-size="10.00" fill="#000000">sbml/xml/XMLNamespaces.h</text>
</a>
</g>
</g>
<!-- Node14&#45;&gt;Node15 -->
<g id="edge19" class="edge">
<title>Node14&#45;&gt;Node15</title>
<path fill="none" stroke="#191970" d="M768.7737,-313.3969C826.978,-299.7248 938.0812,-274.383 1033.4873,-257 1123.2895,-240.638 1226.8804,-225.7821 1297.3331,-216.2772"/>
<polygon fill="#191970" stroke="#191970" points="1298.0366,-219.7143 1307.4817,-214.9142 1297.1047,-212.7766 1298.0366,-219.7143"/>
</g>
<!-- Node17 -->
<g id="node17" class="node">
<title>Node17</title>
<g id="a_node17"><a xlink:href="common_8h.html" target="_top" xlink:title="Common functions and macros for C and C++. ">
<polygon fill="#ffffff" stroke="#000000" points="578.4873,-257.5 578.4873,-276.5 706.4873,-276.5 706.4873,-257.5 578.4873,-257.5"/>
<text text-anchor="middle" x="642.4873" y="-264.5" font-family="Helvetica,sans-Serif" font-size="10.00" fill="#000000">sbml/common/common.h</text>
</a>
</g>
</g>
<!-- Node14&#45;&gt;Node17 -->
<g id="edge24" class="edge">
<title>Node14&#45;&gt;Node17</title>
<path fill="none" stroke="#191970" d="M713.5072,-313.2455C700.3122,-304.6534 680.8822,-292.0014 665.6793,-282.1018"/>
<polygon fill="#191970" stroke="#191970" points="667.5855,-279.1665 657.2957,-276.6427 663.7658,-285.0325 667.5855,-279.1665"/>
</g>
<!-- Node15&#45;&gt;Node7 -->
<g id="edge21" class="edge">
<title>Node15&#45;&gt;Node7</title>
<path fill="none" stroke="#191970" d="M1432.4273,-195.9743C1443.959,-193.9354 1456.1292,-191.8422 1467.4873,-190 1563.3643,-174.4493 1674.2836,-158.5693 1745.5809,-148.6333"/>
<polygon fill="#191970" stroke="#191970" points="1746.3837,-152.0554 1755.8062,-147.2112 1745.4194,-145.1221 1746.3837,-152.0554"/>
</g>
<!-- Node15&#45;&gt;Node11 -->
<g id="edge20" class="edge">
<title>Node15&#45;&gt;Node11</title>
<path fill="none" stroke="#191970" d="M1380.4873,-195.9005C1380.4873,-186.149 1380.4873,-170.7597 1380.4873,-158.3695"/>
<polygon fill="#191970" stroke="#191970" points="1383.9874,-158.0816 1380.4873,-148.0817 1376.9874,-158.0817 1383.9874,-158.0816"/>
</g>
<!-- Node16 -->
<g id="node16" class="node">
<title>Node16</title>
<g id="a_node16"><a xlink:href="operation_return_values_8h.html" target="_top" xlink:title="Enumeration of values returned by operations within libSBML. ">
<polygon fill="#ffffff" stroke="#000000" points="1097.9873,-123.5 1097.9873,-153.5 1250.9873,-153.5 1250.9873,-123.5 1097.9873,-123.5"/>
<text text-anchor="start" x="1105.9873" y="-141.5" font-family="Helvetica,sans-Serif" font-size="10.00" fill="#000000">sbml/common/operationReturn</text>
<text text-anchor="middle" x="1174.4873" y="-130.5" font-family="Helvetica,sans-Serif" font-size="10.00" fill="#000000">Values.h</text>
</a>
</g>
</g>
<!-- Node15&#45;&gt;Node16 -->
<g id="edge22" class="edge">
<title>Node15&#45;&gt;Node16</title>
<path fill="none" stroke="#191970" d="M1350.9725,-195.9005C1319.5891,-185.6933 1269.2138,-169.3091 1230.3011,-156.6531"/>
<polygon fill="#191970" stroke="#191970" points="1231.2658,-153.2864 1220.6736,-153.5218 1229.1007,-159.9432 1231.2658,-153.2864"/>
</g>
<!-- Node16&#45;&gt;Node5 -->
<g id="edge23" class="edge">
<title>Node16&#45;&gt;Node5</title>
<path fill="none" stroke="#191970" d="M1116.5105,-123.4554C1075.7524,-112.8789 1021.9363,-98.914 983.9868,-89.0663"/>
<polygon fill="#191970" stroke="#191970" points="984.7724,-85.6543 974.2139,-86.5303 983.0141,-92.4299 984.7724,-85.6543"/>
</g>
<!-- Node17&#45;&gt;Node5 -->
<g id="edge31" class="edge">
<title>Node17&#45;&gt;Node5</title>
<path fill="none" stroke="#191970" d="M694.8666,-257.4331C719.1299,-250.7232 746.8624,-239.5138 766.4873,-221 801.0851,-188.3609 774.7229,-155.4617 809.4873,-123 826.852,-106.7855 850.3383,-96.2109 872.4525,-89.3475"/>
<polygon fill="#191970" stroke="#191970" points="873.5234,-92.6813 882.1555,-86.5381 871.5766,-85.9574 873.5234,-92.6813"/>
</g>
<!-- Node17&#45;&gt;Node10 -->
<g id="edge30" class="edge">
<title>Node17&#45;&gt;Node10</title>
<path fill="none" stroke="#191970" d="M630.2699,-257.353C610.6798,-242.1028 570.7532,-211.9102 534.4873,-190 521.3134,-182.041 486.633,-164.8084 461.3592,-152.469"/>
<polygon fill="#191970" stroke="#191970" points="462.7209,-149.2393 452.1977,-148.009 459.6569,-155.5331 462.7209,-149.2393"/>
</g>
<!-- Node17&#45;&gt;Node12 -->
<g id="edge33" class="edge">
<title>Node17&#45;&gt;Node12</title>
<path fill="none" stroke="#191970" d="M618.1123,-257.3906C591.7816,-247.0103 549.6493,-230.4004 520.1644,-218.7766"/>
<polygon fill="#191970" stroke="#191970" points="521.278,-215.4534 510.6911,-215.0419 518.7106,-221.9657 521.278,-215.4534"/>
</g>
<!-- Node18 -->
<g id="node18" class="node">
<title>Node18</title>
<g id="a_node18"><a xlink:href="libsbml-config_8h.html" target="_top" xlink:title="Decides whether to #include Unix or Windows configuration variables. ">
<polygon fill="#ffffff" stroke="#000000" points="201.9873,-190.5 201.9873,-220.5 314.9873,-220.5 314.9873,-190.5 201.9873,-190.5"/>
<text text-anchor="start" x="209.9873" y="-208.5" font-family="Helvetica,sans-Serif" font-size="10.00" fill="#000000">sbml/common/libsbml</text>
<text text-anchor="middle" x="258.4873" y="-197.5" font-family="Helvetica,sans-Serif" font-size="10.00" fill="#000000">&#45;config.h</text>
</a>
</g>
</g>
<!-- Node17&#45;&gt;Node18 -->
<g id="edge25" class="edge">
<title>Node17&#45;&gt;Node18</title>
<path fill="none" stroke="#191970" d="M582.9086,-257.4581C513.093,-246.2767 397.732,-227.8009 325.0393,-216.1587"/>
<polygon fill="#191970" stroke="#191970" points="325.5021,-212.6883 315.0744,-214.5628 324.3951,-219.6002 325.5021,-212.6883"/>
</g>
<!-- Node20 -->
<g id="node20" class="node">
<title>Node20</title>
<g id="a_node20"><a xlink:href="memory_8h.html" target="_top" xlink:title="sbml/util/memory.h">
<polygon fill="#ffffff" stroke="#000000" points="657.4873,-196 657.4873,-215 757.4873,-215 757.4873,-196 657.4873,-196"/>
<text text-anchor="middle" x="707.4873" y="-203" font-family="Helvetica,sans-Serif" font-size="10.00" fill="#000000">sbml/util/memory.h</text>
</a>
</g>
</g>
<!-- Node17&#45;&gt;Node20 -->
<g id="edge32" class="edge">
<title>Node17&#45;&gt;Node20</title>
<path fill="none" stroke="#191970" d="M652.6435,-257.3906C662.5072,-248.0581 677.6928,-233.6902 689.586,-222.4374"/>
<polygon fill="#191970" stroke="#191970" points="692.3294,-224.6601 697.1878,-215.2449 687.5184,-219.5753 692.3294,-224.6601"/>
</g>
<!-- Node18&#45;&gt;Node2 -->
<g id="edge27" class="edge">
<title>Node18&#45;&gt;Node2</title>
<path fill="none" stroke="#191970" d="M220.336,-190.4639C195.4877,-180.6708 162.8717,-167.8162 136.2968,-157.3426"/>
<polygon fill="#191970" stroke="#191970" points="137.3919,-154.0122 126.805,-153.6017 134.8252,-160.5247 137.3919,-154.0122"/>
</g>
<!-- Node18&#45;&gt;Node6 -->
<g id="edge26" class="edge">
<title>Node18&#45;&gt;Node6</title>
<path fill="none" stroke="#191970" d="M245.4564,-190.4263C231.5743,-172.4828 213.7276,-142.5007 230.4873,-123 272.0718,-74.6146 702.6813,-34.6242 870.784,-20.7418"/>
<polygon fill="#191970" stroke="#191970" points="871.0718,-24.23 880.752,-19.9238 870.4992,-17.2535 871.0718,-24.23"/>
</g>
<!-- Node19 -->
<g id="node19" class="node">
<title>Node19</title>
<g id="a_node19"><a xlink:href="libsbml-version_8h.html" target="_top" xlink:title="Define libSBML version numbers for access from client software. ">
<polygon fill="#ffffff" stroke="#000000" points="239.9873,-123.5 239.9873,-153.5 352.9873,-153.5 352.9873,-123.5 239.9873,-123.5"/>
<text text-anchor="start" x="247.9873" y="-141.5" font-family="Helvetica,sans-Serif" font-size="10.00" fill="#000000">sbml/common/libsbml</text>
<text text-anchor="middle" x="296.4873" y="-130.5" font-family="Helvetica,sans-Serif" font-size="10.00" fill="#000000">&#45;version.h</text>
</a>
</g>
</g>
<!-- Node18&#45;&gt;Node19 -->
<g id="edge28" class="edge">
<title>Node18&#45;&gt;Node19</title>
<path fill="none" stroke="#191970" d="M267.1101,-190.2967C271.7743,-182.0729 277.642,-171.7272 282.9046,-162.4483"/>
<polygon fill="#191970" stroke="#191970" points="286.0096,-164.0683 287.8986,-153.6432 279.9207,-160.6148 286.0096,-164.0683"/>
</g>
<!-- Node19&#45;&gt;Node5 -->
<g id="edge29" class="edge">
<title>Node19&#45;&gt;Node5</title>
<path fill="none" stroke="#191970" d="M353.3293,-125.3864C358.1042,-124.4994 362.8699,-123.6871 367.4873,-123 546.8072,-96.3142 760.3317,-84.2935 868.0213,-79.5945"/>
<polygon fill="#191970" stroke="#191970" points="868.2668,-83.0872 878.1077,-79.1623 867.9671,-76.0937 868.2668,-83.0872"/>
</g>
<!-- Node21&#45;&gt;Node5 -->
<g id="edge35" class="edge">
<title>Node21&#45;&gt;Node5</title>
<path fill="none" stroke="#191970" d="M349.0504,-425.4623C326.8982,-418.0081 298.0572,-406.0316 276.4873,-389 227.6531,-350.4406 212.1637,-336.0292 192.4873,-277 170.1941,-210.1203 170.7551,-160.4425 230.4873,-123 283.602,-89.7056 700.4464,-80.2674 868.0522,-77.8039"/>
<polygon fill="#191970" stroke="#191970" points="868.2975,-81.3009 878.2464,-77.6582 868.1973,-74.3016 868.2975,-81.3009"/>
</g>
<!-- Node21&#45;&gt;Node8 -->
<g id="edge41" class="edge">
<title>Node21&#45;&gt;Node8</title>
<path fill="none" stroke="#191970" d="M374.1263,-425.2455C367.3123,-417.2958 357.5192,-405.8706 349.3721,-396.3656"/>
<polygon fill="#191970" stroke="#191970" points="351.9178,-393.9575 342.7524,-388.6427 346.603,-398.513 351.9178,-393.9575"/>
</g>
<!-- Node21&#45;&gt;Node9 -->
<g id="edge36" class="edge">
<title>Node21&#45;&gt;Node9</title>
<path fill="none" stroke="#191970" d="M385.7718,-425.4862C394.9799,-398.8144 421.1844,-322.9117 433.6878,-286.695"/>
<polygon fill="#191970" stroke="#191970" points="437.1393,-287.4226 437.0943,-276.8279 430.5225,-285.1382 437.1393,-287.4226"/>
</g>
<!-- Node22 -->
<g id="node22" class="node">
<title>Node22</title>
<g id="a_node22"><a xlink:href="_x_m_l_error_log_8h.html" target="_top" xlink:title="Stores errors (and messages) encountered while processing XML. ">
<polygon fill="#ffffff" stroke="#000000" points="515.9873,-313.5 515.9873,-332.5 642.9873,-332.5 642.9873,-313.5 515.9873,-313.5"/>
<text text-anchor="middle" x="579.4873" y="-320.5" font-family="Helvetica,sans-Serif" font-size="10.00" fill="#000000">sbml/xml/XMLErrorLog.h</text>
</a>
</g>
</g>
<!-- Node21&#45;&gt;Node22 -->
<g id="edge37" class="edge">
<title>Node21&#45;&gt;Node22</title>
<path fill="none" stroke="#191970" d="M399.2834,-425.4509C433.8126,-405.8201 512.9542,-360.8259 553.8998,-337.5472"/>
<polygon fill="#191970" stroke="#191970" points="555.7702,-340.51 562.7337,-332.5249 552.3105,-334.4247 555.7702,-340.51"/>
</g>
<!-- Node22&#45;&gt;Node7 -->
<g id="edge40" class="edge">
<title>Node22&#45;&gt;Node7</title>
<path fill="none" stroke="#191970" d="M637.0333,-313.4911C723.0771,-299.5329 890.4587,-273.3823 1033.4873,-257 1128.5342,-246.1135 1375.0922,-259.9171 1462.4873,-221 1480.8701,-212.8141 1477.4194,-198.8595 1495.4873,-190 1538.3373,-168.9886 1663.929,-153.417 1745.5714,-145.1672"/>
<polygon fill="#191970" stroke="#191970" points="1746.1919,-148.6228 1755.7958,-144.149 1745.4981,-141.6573 1746.1919,-148.6228"/>
</g>
<!-- Node22&#45;&gt;Node9 -->
<g id="edge39" class="edge">
<title>Node22&#45;&gt;Node9</title>
<path fill="none" stroke="#191970" d="M555.5923,-313.3733C532.979,-304.2629 498.8331,-290.5062 473.6,-280.3404"/>
<polygon fill="#191970" stroke="#191970" points="474.6539,-276.9917 464.0704,-276.5011 472.038,-283.4845 474.6539,-276.9917"/>
</g>
<!-- Node22&#45;&gt;Node11 -->
<g id="edge38" class="edge">
<title>Node22&#45;&gt;Node11</title>
<path fill="none" stroke="#191970" d="M610.1682,-313.4026C654.0776,-299.8488 737.4961,-274.7729 809.4873,-257 993.0266,-211.6884 1212.605,-169.4324 1318.001,-149.8814"/>
<polygon fill="#191970" stroke="#191970" points="1318.6429,-153.3222 1327.8391,-148.061 1317.3692,-146.439 1318.6429,-153.3222"/>
</g>
<!-- Node23&#45;&gt;Node5 -->
<g id="edge43" class="edge">
<title>Node23&#45;&gt;Node5</title>
<path fill="none" stroke="#191970" d="M938.7745,-601.6507C1083.2211,-596.5665 1584.7073,-577.794 1743.4873,-557 1823.4949,-546.5221 2085.4873,-515.6908 2085.4873,-435 2085.4873,-435 2085.4873,-435 2085.4873,-205.5 2085.4873,-112.214 1983.4001,-143.9074 1892.4873,-123 1807.0301,-103.3472 1211.989,-84.7974 1006.83,-78.9195"/>
<polygon fill="#191970" stroke="#191970" points="1006.8731,-75.4194 996.7773,-78.6327 1006.6734,-82.4166 1006.8731,-75.4194"/>
</g>
<!-- Node23&#45;&gt;Node7 -->
<g id="edge44" class="edge">
<title>Node23&#45;&gt;Node7</title>
<path fill="none" stroke="#191970" d="M938.8455,-602.621C1075.6601,-600.9974 1529.8578,-592.9619 1670.4873,-557 1850.0035,-511.094 2047.4873,-564.2928 2047.4873,-379 2047.4873,-379 2047.4873,-379 2047.4873,-267 2047.4873,-194.8251 1959.7052,-162.7443 1893.077,-148.7895"/>
<polygon fill="#191970" stroke="#191970" points="1893.4892,-145.3029 1882.998,-146.7807 1892.121,-152.1679 1893.4892,-145.3029"/>
</g>
<!-- Node23&#45;&gt;Node9 -->
<g id="edge101" class="edge">
<title>Node23&#45;&gt;Node9</title>
<path fill="none" stroke="#191970" d="M860.4665,-599.8984C797.0085,-592.9047 670.7789,-570.6106 593.4873,-501 521.1835,-435.8816 468.2964,-329.2548 448.7547,-286.0616"/>
<polygon fill="#191970" stroke="#191970" points="451.8676,-284.4476 444.6088,-276.73 445.4705,-287.2897 451.8676,-284.4476"/>
</g>
<!-- Node23&#45;&gt;Node14 -->
<g id="edge90" class="edge">
<title>Node23&#45;&gt;Node14</title>
<path fill="none" stroke="#191970" d="M887.6363,-593.4941C854.5328,-566.0775 761.3607,-482.8007 728.4873,-389 723.2764,-374.1315 723.6632,-356.1949 725.1377,-342.7754"/>
<polygon fill="#191970" stroke="#191970" points="728.6236,-343.1185 726.5332,-332.7319 721.6902,-342.1551 728.6236,-343.1185"/>
</g>
<!-- Node24 -->
<g id="node24" class="node">
<title>Node24</title>
<g id="a_node24"><a xlink:href="_s_b_m_l_type_codes_8h.html" target="_top" xlink:title="Enumeration to identify SBML objects at runtime. ">
<polygon fill="#ffffff" stroke="#000000" points="201.9873,-257.5 201.9873,-276.5 328.9873,-276.5 328.9873,-257.5 201.9873,-257.5"/>
<text text-anchor="middle" x="265.4873" y="-264.5" font-family="Helvetica,sans-Serif" font-size="10.00" fill="#000000">sbml/SBMLTypeCodes.h</text>
</a>
</g>
</g>
<!-- Node23&#45;&gt;Node24 -->
<g id="edge45" class="edge">
<title>Node23&#45;&gt;Node24</title>
<path fill="none" stroke="#191970" d="M860.4416,-598.3903C798.1279,-590.6466 679.2673,-574.1797 640.4873,-557 619.9247,-547.8907 361.0146,-342.8584 285.8297,-283.1661"/>
<polygon fill="#191970" stroke="#191970" points="287.6075,-280.1085 277.6,-276.63 283.254,-285.5901 287.6075,-280.1085"/>
</g>
<!-- Node25 -->
<g id="node25" class="node">
<title>Node25</title>
<g id="a_node25"><a xlink:href="_r_d_f_annotation_8h.html" target="_top" xlink:title="RDFAnnotation I/O. ">
<polygon fill="#ffffff" stroke="#000000" points="1409.9873,-537.5 1409.9873,-556.5 1576.9873,-556.5 1576.9873,-537.5 1409.9873,-537.5"/>
<text text-anchor="middle" x="1493.4873" y="-544.5" font-family="Helvetica,sans-Serif" font-size="10.00" fill="#000000">sbml/annotation/RDFAnnotation.h</text>
</a>
</g>
</g>
<!-- Node23&#45;&gt;Node25 -->
<g id="edge48" class="edge">
<title>Node23&#45;&gt;Node25</title>
<path fill="none" stroke="#191970" d="M938.7211,-599.4851C1022.5809,-591.9451 1225.4923,-573.5557 1395.4873,-557 1396.8038,-556.8718 1398.1302,-556.7422 1399.4647,-556.6114"/>
<polygon fill="#191970" stroke="#191970" points="1400.2169,-560.0543 1409.8248,-555.589 1399.5294,-553.0881 1400.2169,-560.0543"/>
</g>
<!-- Node29 -->
<g id="node29" class="node">
<title>Node29</title>
<g id="a_node29"><a xlink:href="_list_8h.html" target="_top" xlink:title="Simple, generic list utility class. ">
<polygon fill="#ffffff" stroke="#000000" points="1360.4873,-313.5 1360.4873,-332.5 1440.4873,-332.5 1440.4873,-313.5 1360.4873,-313.5"/>
<text text-anchor="middle" x="1400.4873" y="-320.5" font-family="Helvetica,sans-Serif" font-size="10.00" fill="#000000">sbml/util/List.h</text>
</a>
</g>
</g>
<!-- Node23&#45;&gt;Node29 -->
<g id="edge89" class="edge">
<title>Node23&#45;&gt;Node29</title>
<path fill="none" stroke="#191970" d="M938.5231,-602.2478C1053.2707,-598.9905 1381.4873,-581.7424 1381.4873,-491 1381.4873,-491 1381.4873,-491 1381.4873,-435 1381.4873,-402.2688 1389.4725,-364.9052 1395.0895,-342.6716"/>
<polygon fill="#191970" stroke="#191970" points="1398.5288,-343.3545 1397.6838,-332.7934 1391.7584,-341.5763 1398.5288,-343.3545"/>
</g>
<!-- Node31 -->
<g id="node31" class="node">
<title>Node31</title>
<g id="a_node31"><a xlink:href="_x_m_l_node_8h.html" target="_top" xlink:title="Class definition of XMLNode_t, a node in an XML document tree. ">
<polygon fill="#ffffff" stroke="#000000" points="1694.4873,-313.5 1694.4873,-332.5 1806.4873,-332.5 1806.4873,-313.5 1694.4873,-313.5"/>
<text text-anchor="middle" x="1750.4873" y="-320.5" font-family="Helvetica,sans-Serif" font-size="10.00" fill="#000000">sbml/xml/XMLNode.h</text>
</a>
</g>
</g>
<!-- Node23&#45;&gt;Node31 -->
<g id="edge100" class="edge">
<title>Node23&#45;&gt;Node31</title>
<path fill="none" stroke="#191970" d="M938.826,-601.9934C1065.5039,-598.497 1461.7981,-585.5032 1586.4873,-557 1663.0815,-539.491 1750.4873,-569.5699 1750.4873,-491 1750.4873,-491 1750.4873,-491 1750.4873,-435 1750.4873,-402.7116 1750.4873,-365.1872 1750.4873,-342.8048"/>
<polygon fill="#191970" stroke="#191970" points="1753.9874,-342.5883 1750.4873,-332.5884 1746.9874,-342.5884 1753.9874,-342.5883"/>
</g>
<!-- Node35 -->
<g id="node35" class="node">
<title>Node35</title>
<g id="a_node35"><a xlink:href="_c_v_term_8h.html" target="_top" xlink:title="Definition of a CVTerm_t class for adding annotations to a Model_t. ">
<polygon fill="#ffffff" stroke="#000000" points="1041.9873,-257.5 1041.9873,-276.5 1176.9873,-276.5 1176.9873,-257.5 1041.9873,-257.5"/>
<text text-anchor="middle" x="1109.4873" y="-264.5" font-family="Helvetica,sans-Serif" font-size="10.00" fill="#000000">sbml/annotation/CVTerm.h</text>
</a>
</g>
</g>
<!-- Node23&#45;&gt;Node35 -->
<g id="edge84" class="edge">
<title>Node23&#45;&gt;Node35</title>
<path fill="none" stroke="#191970" d="M905.5457,-593.3065C934.5265,-546.9372 1059.2024,-347.4558 1097.951,-285.4581"/>
<polygon fill="#191970" stroke="#191970" points="1101.0722,-287.0678 1103.4043,-276.7328 1095.1362,-283.3578 1101.0722,-287.0678"/>
</g>
<!-- Node36 -->
<g id="node36" class="node">
<title>Node36</title>
<g id="a_node36"><a xlink:href="_syntax_checker_8h.html" target="_top" xlink:title="Syntax checking functions. ">
<polygon fill="#ffffff" stroke="#000000" points="601.9873,-481.5 601.9873,-500.5 718.9873,-500.5 718.9873,-481.5 601.9873,-481.5"/>
<text text-anchor="middle" x="660.4873" y="-488.5" font-family="Helvetica,sans-Serif" font-size="10.00" fill="#000000">sbml/SyntaxChecker.h</text>
</a>
</g>
</g>
<!-- Node23&#45;&gt;Node36 -->
<g id="edge91" class="edge">
<title>Node23&#45;&gt;Node36</title>
<path fill="none" stroke="#191970" d="M860.2577,-598.5499C823.1621,-592.7876 767.3336,-580.5576 724.4873,-557 701.9221,-544.5933 680.6239,-523.9184 668.759,-509.0114"/>
<polygon fill="#191970" stroke="#191970" points="671.3657,-506.6439 662.6635,-500.6006 665.6977,-510.7517 671.3657,-506.6439"/>
</g>
<!-- Node37 -->
<g id="node37" class="node">
<title>Node37</title>
<g id="a_node37"><a xlink:href="_s_b_m_l_constructor_exception_8h.html" target="_top" xlink:title="Definition of SBMLConstructorException_t, the exception class for constructor exceptions. ">
<polygon fill="#ffffff" stroke="#000000" points="737.4873,-369.5 737.4873,-388.5 909.4873,-388.5 909.4873,-369.5 737.4873,-369.5"/>
<text text-anchor="middle" x="823.4873" y="-376.5" font-family="Helvetica,sans-Serif" font-size="10.00" fill="#000000">sbml/SBMLConstructorException.h</text>
</a>
</g>
</g>
<!-- Node23&#45;&gt;Node37 -->
<g id="edge95" class="edge">
<title>Node23&#45;&gt;Node37</title>
<path fill="none" stroke="#191970" d="M896.2216,-593.375C884.6746,-559.3415 845.6297,-444.262 830.0175,-398.247"/>
<polygon fill="#191970" stroke="#191970" points="833.2682,-396.9344 826.7407,-388.5891 826.6393,-399.1835 833.2682,-396.9344"/>
</g>
<!-- Node38 -->
<g id="node38" class="node">
<title>Node38</title>
<g id="a_node38"><a xlink:href="_expected_attributes_8h.html" target="_top" xlink:title="Definition of ExpectedAttributes, the class allowing the specification of attributes to expect...">
<polygon fill="#ffffff" stroke="#000000" points="1999.9873,-537.5 1999.9873,-556.5 2132.9873,-556.5 2132.9873,-537.5 1999.9873,-537.5"/>
<text text-anchor="middle" x="2066.4873" y="-544.5" font-family="Helvetica,sans-Serif" font-size="10.00" fill="#000000">sbml/ExpectedAttributes.h</text>
</a>
</g>
</g>
<!-- Node23&#45;&gt;Node38 -->
<g id="edge98" class="edge">
<title>Node23&#45;&gt;Node38</title>
<path fill="none" stroke="#191970" d="M938.5179,-602.4818C1079.6841,-600.3662 1576.9104,-590.8187 1985.4873,-557 1986.7979,-556.8915 1988.1199,-556.7778 1989.4508,-556.6592"/>
<polygon fill="#191970" stroke="#191970" points="1990.1666,-560.1067 1999.7861,-555.6663 1989.4971,-553.1388 1990.1666,-560.1067"/>
</g>
<!-- Node24&#45;&gt;Node5 -->
<g id="edge47" class="edge">
<title>Node24&#45;&gt;Node5</title>
<path fill="none" stroke="#191970" d="M279.603,-257.2477C291.8423,-248.4656 309.7055,-234.8447 323.4873,-221 362.5659,-181.7431 351.7479,-149.3197 400.4873,-123 440.6587,-101.3071 731.6844,-85.9548 867.7315,-79.8833"/>
<polygon fill="#191970" stroke="#191970" points="868.206,-83.3659 878.0417,-79.4277 867.8969,-76.3727 868.206,-83.3659"/>
</g>
<!-- Node24&#45;&gt;Node18 -->
<g id="edge46" class="edge">
<title>Node24&#45;&gt;Node18</title>
<path fill="none" stroke="#191970" d="M264.3935,-257.3906C263.5777,-250.2234 262.4239,-240.0862 261.3523,-230.671"/>
<polygon fill="#191970" stroke="#191970" points="264.8082,-230.0846 260.1997,-220.5446 257.8531,-230.8763 264.8082,-230.0846"/>
</g>
<!-- Node26 -->
<g id="node26" class="node">
<title>Node26</title>
<g id="a_node26"><a xlink:href="_r_d_f_annotation_parser_8h.html" target="_top" xlink:title="RDFAnnotationParser.h">
<polygon fill="#ffffff" stroke="#000000" points="1431.9873,-481.5 1431.9873,-500.5 1554.9873,-500.5 1554.9873,-481.5 1431.9873,-481.5"/>
<text text-anchor="middle" x="1493.4873" y="-488.5" font-family="Helvetica,sans-Serif" font-size="10.00" fill="#000000">RDFAnnotationParser.h</text>
</a>
</g>
</g>
<!-- Node25&#45;&gt;Node26 -->
<g id="edge49" class="edge">
<title>Node25&#45;&gt;Node26</title>
<path fill="none" stroke="#191970" d="M1493.4873,-537.2455C1493.4873,-529.9382 1493.4873,-519.6944 1493.4873,-510.7046"/>
<polygon fill="#191970" stroke="#191970" points="1496.9874,-510.6426 1493.4873,-500.6427 1489.9874,-510.6427 1496.9874,-510.6426"/>
</g>
<!-- Node26&#45;&gt;Node5 -->
<g id="edge50" class="edge">
<title>Node26&#45;&gt;Node5</title>
<path fill="none" stroke="#191970" d="M1432.9867,-481.4627C1281.785,-455.9281 899.4873,-380.1759 899.4873,-267 899.4873,-267 899.4873,-267 899.4873,-205.5 899.4873,-165.195 916.8913,-120.5903 928.1428,-95.9654"/>
<polygon fill="#191970" stroke="#191970" points="931.4103,-97.2425 932.5194,-86.7058 925.0817,-94.2511 931.4103,-97.2425"/>
</g>
<!-- Node26&#45;&gt;Node7 -->
<g id="edge51" class="edge">
<title>Node26&#45;&gt;Node7</title>
<path fill="none" stroke="#191970" d="M1555.2164,-484.0302C1692.1794,-467.7313 2009.4873,-425.0065 2009.4873,-379 2009.4873,-379 2009.4873,-379 2009.4873,-267 2009.4873,-201.259 1930.4733,-166.869 1874.3535,-150.7343"/>
<polygon fill="#191970" stroke="#191970" points="1875.0852,-147.3055 1864.5146,-148.0227 1873.2252,-154.0539 1875.0852,-147.3055"/>
</g>
<!-- Node27 -->
<g id="node27" class="node">
<title>Node27</title>
<g id="a_node27"><a xlink:href="_x_m_l_attributes_8h.html" target="_top" xlink:title="XMLAttributes_t are a list of name/value pairs for XML elements. ">
<polygon fill="#ffffff" stroke="#000000" points="1547.4873,-196 1547.4873,-215 1677.4873,-215 1677.4873,-196 1547.4873,-196"/>
<text text-anchor="middle" x="1612.4873" y="-203" font-family="Helvetica,sans-Serif" font-size="10.00" fill="#000000">sbml/xml/XMLAttributes.h</text>
</a>
</g>
</g>
<!-- Node26&#45;&gt;Node27 -->
<g id="edge52" class="edge">
<title>Node26&#45;&gt;Node27</title>
<path fill="none" stroke="#191970" d="M1518.1495,-481.4329C1536.2556,-473.563 1560.6926,-461.0961 1578.4873,-445 1600.7937,-424.8229 1607.6532,-417.7515 1616.4873,-389 1634.0609,-331.8045 1623.7023,-259.7893 1616.9328,-225.4662"/>
<polygon fill="#191970" stroke="#191970" points="1620.2901,-224.4206 1614.8202,-215.347 1613.4378,-225.8513 1620.2901,-224.4206"/>
</g>
<!-- Node28 -->
<g id="node28" class="node">
<title>Node28</title>
<g id="a_node28"><a xlink:href="_model_history_8h.html" target="_top" xlink:title="ModelHistory_t I/O. ">
<polygon fill="#ffffff" stroke="#000000" points="1411.9873,-425.5 1411.9873,-444.5 1568.9873,-444.5 1568.9873,-425.5 1411.9873,-425.5"/>
<text text-anchor="middle" x="1490.4873" y="-432.5" font-family="Helvetica,sans-Serif" font-size="10.00" fill="#000000">sbml/annotation/ModelHistory.h</text>
</a>
</g>
</g>
<!-- Node26&#45;&gt;Node28 -->
<g id="edge56" class="edge">
<title>Node26&#45;&gt;Node28</title>
<path fill="none" stroke="#191970" d="M1492.9647,-481.2455C1492.5732,-473.9382 1492.0245,-463.6944 1491.5429,-454.7046"/>
<polygon fill="#191970" stroke="#191970" points="1495.0339,-454.4411 1491.0038,-444.6427 1488.0439,-454.8156 1495.0339,-454.4411"/>
</g>
<!-- Node27&#45;&gt;Node7 -->
<g id="edge54" class="edge">
<title>Node27&#45;&gt;Node7</title>
<path fill="none" stroke="#191970" d="M1642.1453,-195.9005C1678.4217,-184.1589 1739.9512,-164.2436 1780.1517,-151.2318"/>
<polygon fill="#191970" stroke="#191970" points="1781.448,-154.4911 1789.8842,-148.0817 1779.2924,-147.8312 1781.448,-154.4911"/>
</g>
<!-- Node27&#45;&gt;Node11 -->
<g id="edge53" class="edge">
<title>Node27&#45;&gt;Node11</title>
<path fill="none" stroke="#191970" d="M1579.2473,-195.9005C1538.2452,-184.0594 1468.4583,-163.9054 1423.4333,-150.9025"/>
<polygon fill="#191970" stroke="#191970" points="1424.2441,-147.4937 1413.6656,-148.0817 1422.3018,-154.2189 1424.2441,-147.4937"/>
</g>
<!-- Node27&#45;&gt;Node16 -->
<g id="edge55" class="edge">
<title>Node27&#45;&gt;Node16</title>
<path fill="none" stroke="#191970" d="M1550.1977,-195.9717C1474.5452,-184.3993 1346.499,-164.8123 1261.2265,-151.7683"/>
<polygon fill="#191970" stroke="#191970" points="1261.7191,-148.303 1251.3048,-150.2506 1260.6606,-155.2226 1261.7191,-148.303"/>
</g>
<!-- Node28&#45;&gt;Node5 -->
<g id="edge57" class="edge">
<title>Node28&#45;&gt;Node5</title>
<path fill="none" stroke="#191970" d="M1411.8431,-427.6569C1259.1697,-411.2174 937.4873,-364.9565 937.4873,-267 937.4873,-267 937.4873,-267 937.4873,-205.5 937.4873,-167.0012 937.4873,-122.0145 937.4873,-96.7812"/>
<polygon fill="#191970" stroke="#191970" points="940.9874,-96.6718 937.4873,-86.6719 933.9874,-96.6719 940.9874,-96.6718"/>
</g>
<!-- Node28&#45;&gt;Node7 -->
<g id="edge58" class="edge">
<title>Node28&#45;&gt;Node7</title>
<path fill="none" stroke="#191970" d="M1562.45,-425.4974C1638.4286,-413.0745 1759.6777,-386.2957 1851.4873,-333 1910.8019,-298.5677 1943.8938,-249.3295 1909.4873,-190 1899.105,-172.0971 1879.8979,-159.8878 1861.8856,-151.8689"/>
<polygon fill="#191970" stroke="#191970" points="1863.2073,-148.6281 1852.6283,-148.0495 1860.5375,-155.099 1863.2073,-148.6281"/>
</g>
<!-- Node28&#45;&gt;Node16 -->
<g id="edge59" class="edge">
<title>Node28&#45;&gt;Node16</title>
<path fill="none" stroke="#191970" d="M1411.7407,-430.9693C1343.412,-425.7973 1251.4864,-414.2565 1225.4873,-389 1209.3042,-373.2791 1186.6524,-224.4846 1178.0187,-163.9391"/>
<polygon fill="#191970" stroke="#191970" points="1181.4386,-163.1252 1176.5745,-153.7129 1174.5074,-164.1041 1181.4386,-163.1252"/>
</g>
<!-- Node28&#45;&gt;Node29 -->
<g id="edge60" class="edge">
<title>Node28&#45;&gt;Node29</title>
<path fill="none" stroke="#191970" d="M1477.7545,-425.3405C1466.7868,-416.6179 1450.9581,-403.0321 1439.4873,-389 1427.4218,-374.2405 1416.6489,-355.3358 1409.4992,-341.545"/>
<polygon fill="#191970" stroke="#191970" points="1412.5888,-339.8983 1404.9668,-332.5393 1406.336,-343.0453 1412.5888,-339.8983"/>
</g>
<!-- Node28&#45;&gt;Node31 -->
<g id="edge64" class="edge">
<title>Node28&#45;&gt;Node31</title>
<path fill="none" stroke="#191970" d="M1519.3538,-425.4521C1545.1168,-416.6974 1583.7241,-403.0011 1616.4873,-389 1636.8348,-380.3047 1689.6012,-353.8732 1722.5224,-337.2161"/>
<polygon fill="#191970" stroke="#191970" points="1724.303,-340.2376 1731.6412,-332.5955 1721.139,-333.9934 1724.303,-340.2376"/>
</g>
<!-- Node33 -->
<g id="node33" class="node">
<title>Node33</title>
<g id="a_node33"><a xlink:href="_date_8h.html" target="_top" xlink:title="Date_t I/O. ">
<polygon fill="#ffffff" stroke="#000000" points="1233.9873,-369.5 1233.9873,-388.5 1352.9873,-388.5 1352.9873,-369.5 1233.9873,-369.5"/>
<text text-anchor="middle" x="1293.4873" y="-376.5" font-family="Helvetica,sans-Serif" font-size="10.00" fill="#000000">sbml/annotation/Date.h</text>
</a>
</g>
</g>
<!-- Node28&#45;&gt;Node33 -->
<g id="edge72" class="edge">
<title>Node28&#45;&gt;Node33</title>
<path fill="none" stroke="#191970" d="M1456.6218,-425.3733C1423.4382,-415.9404 1372.7323,-401.5265 1336.6679,-391.2747"/>
<polygon fill="#191970" stroke="#191970" points="1337.4868,-387.8689 1326.9109,-388.5011 1335.5727,-394.6021 1337.4868,-387.8689"/>
</g>
<!-- Node34 -->
<g id="node34" class="node">
<title>Node34</title>
<g id="a_node34"><a xlink:href="_model_creator_8h.html" target="_top" xlink:title="ModelCreator_t I/O. ">
<polygon fill="#ffffff" stroke="#000000" points="1447.9873,-369.5 1447.9873,-388.5 1606.9873,-388.5 1606.9873,-369.5 1447.9873,-369.5"/>
<text text-anchor="middle" x="1527.4873" y="-376.5" font-family="Helvetica,sans-Serif" font-size="10.00" fill="#000000">sbml/annotation/ModelCreator.h</text>
</a>
</g>
</g>
<!-- Node28&#45;&gt;Node34 -->
<g id="edge78" class="edge">
<title>Node28&#45;&gt;Node34</title>
<path fill="none" stroke="#191970" d="M1496.9322,-425.2455C1502.0255,-417.5367 1509.2781,-406.5598 1515.4393,-397.2348"/>
<polygon fill="#191970" stroke="#191970" points="1518.5238,-398.9155 1521.1162,-388.6427 1512.6834,-395.0566 1518.5238,-398.9155"/>
</g>
<!-- Node29&#45;&gt;Node5 -->
<g id="edge61" class="edge">
<title>Node29&#45;&gt;Node5</title>
<path fill="none" stroke="#191970" d="M1382.3371,-313.3565C1311.0198,-275.4644 1049.7653,-136.6553 964.5581,-91.3832"/>
<polygon fill="#191970" stroke="#191970" points="965.9851,-88.1781 955.5119,-86.5768 962.7006,-94.3597 965.9851,-88.1781"/>
</g>
<!-- Node29&#45;&gt;Node7 -->
<g id="edge63" class="edge">
<title>Node29&#45;&gt;Node7</title>
<path fill="none" stroke="#191970" d="M1394.6846,-313.1098C1387.163,-298.8516 1376.5621,-272.5321 1390.4873,-257 1439.5834,-202.2386 1651.7282,-249.5997 1719.4873,-221 1754.3227,-206.2967 1786.5031,-175.3617 1804.5107,-155.8313"/>
<polygon fill="#191970" stroke="#191970" points="1807.2502,-158.019 1811.327,-148.2399 1802.0417,-153.3423 1807.2502,-158.019"/>
</g>
<!-- Node30 -->
<g id="node30" class="node">
<title>Node30</title>
<polygon fill="#ffffff" stroke="#bfbfbf" points="1398.9873,-257.5 1398.9873,-276.5 1447.9873,-276.5 1447.9873,-257.5 1398.9873,-257.5"/>
<text text-anchor="middle" x="1423.4873" y="-264.5" font-family="Helvetica,sans-Serif" font-size="10.00" fill="#000000">string.h</text>
</g>
<!-- Node29&#45;&gt;Node30 -->
<g id="edge62" class="edge">
<title>Node29&#45;&gt;Node30</title>
<path fill="none" stroke="#191970" d="M1404.4936,-313.2455C1407.5607,-305.7776 1411.8876,-295.2427 1415.637,-286.1137"/>
<polygon fill="#191970" stroke="#191970" points="1418.9652,-287.2226 1419.5269,-276.6427 1412.4901,-284.5631 1418.9652,-287.2226"/>
</g>
<!-- Node31&#45;&gt;Node7 -->
<g id="edge71" class="edge">
<title>Node31&#45;&gt;Node7</title>
<path fill="none" stroke="#191970" d="M1789.0586,-313.4404C1820.6823,-304.7303 1861.7584,-291.1067 1871.4873,-277 1893.4397,-245.1692 1886.3706,-225.6875 1871.4873,-190 1865.5634,-175.7957 1853.6042,-163.5036 1842.647,-154.4942"/>
<polygon fill="#191970" stroke="#191970" points="1844.6345,-151.607 1834.5798,-148.2672 1840.3572,-157.1482 1844.6345,-151.607"/>
</g>
<!-- Node31&#45;&gt;Node11 -->
<g id="edge65" class="edge">
<title>Node31&#45;&gt;Node11</title>
<path fill="none" stroke="#191970" d="M1783.6361,-313.4536C1814.3056,-302.7615 1852.9866,-283.4054 1837.4873,-257 1806.5661,-204.3213 1775.266,-209.8186 1717.4873,-190 1628.0261,-159.3141 1518.9428,-146.8707 1449.591,-141.852"/>
<polygon fill="#191970" stroke="#191970" points="1449.4502,-138.334 1439.2327,-141.1363 1448.9676,-145.3173 1449.4502,-138.334"/>
</g>
<!-- Node32 -->
<g id="node32" class="node">
<title>Node32</title>
<g id="a_node32"><a xlink:href="_x_m_l_token_8h.html" target="_top" xlink:title="A unit of XML syntax, either an XML element or text. ">
<polygon fill="#ffffff" stroke="#000000" points="1694.9873,-257.5 1694.9873,-276.5 1809.9873,-276.5 1809.9873,-257.5 1694.9873,-257.5"/>
<text text-anchor="middle" x="1752.4873" y="-264.5" font-family="Helvetica,sans-Serif" font-size="10.00" fill="#000000">sbml/xml/XMLToken.h</text>
</a>
</g>
</g>
<!-- Node31&#45;&gt;Node32 -->
<g id="edge66" class="edge">
<title>Node31&#45;&gt;Node32</title>
<path fill="none" stroke="#191970" d="M1750.8356,-313.2455C1751.0966,-305.9382 1751.4625,-295.6944 1751.7835,-286.7046"/>
<polygon fill="#191970" stroke="#191970" points="1755.2836,-286.7613 1752.1429,-276.6427 1748.2881,-286.5113 1755.2836,-286.7613"/>
</g>
<!-- Node32&#45;&gt;Node7 -->
<g id="edge70" class="edge">
<title>Node32&#45;&gt;Node7</title>
<path fill="none" stroke="#191970" d="M1764.3272,-257.2015C1774.0076,-248.595 1787.3765,-235.2516 1795.4873,-221 1806.7446,-201.2195 1813.1085,-175.7115 1816.413,-158.3299"/>
<polygon fill="#191970" stroke="#191970" points="1819.9055,-158.6737 1818.1635,-148.223 1813.0082,-157.479 1819.9055,-158.6737"/>
</g>
<!-- Node32&#45;&gt;Node11 -->
<g id="edge67" class="edge">
<title>Node32&#45;&gt;Node11</title>
<path fill="none" stroke="#191970" d="M1747.2442,-257.3027C1737.6249,-240.5404 1715.4568,-206.3742 1686.4873,-190 1646.9334,-167.6433 1526.656,-152.3897 1449.2035,-144.5848"/>
<polygon fill="#191970" stroke="#191970" points="1449.3375,-141.0811 1439.0413,-143.5786 1448.6478,-148.047 1449.3375,-141.0811"/>
</g>
<!-- Node32&#45;&gt;Node27 -->
<g id="edge68" class="edge">
<title>Node32&#45;&gt;Node27</title>
<path fill="none" stroke="#191970" d="M1730.6123,-257.3906C1707.1877,-247.1005 1669.8276,-230.6888 1643.4032,-219.0809"/>
<polygon fill="#191970" stroke="#191970" points="1644.7719,-215.8594 1634.2087,-215.0419 1641.9565,-222.2683 1644.7719,-215.8594"/>
</g>
<!-- Node32&#45;&gt;Node32 -->
<g id="edge69" class="edge">
<title>Node32&#45;&gt;Node32</title>
<path fill="none" stroke="#191970" d="M1784.6881,-276.5252C1806.5678,-279.3079 1827.9873,-276.1328 1827.9873,-267 1827.9873,-259.2942 1812.7385,-255.8298 1794.8306,-256.6068"/>
<polygon fill="#191970" stroke="#191970" points="1794.3532,-253.1347 1784.6881,-257.4748 1794.9502,-260.1092 1794.3532,-253.1347"/>
</g>
<!-- Node33&#45;&gt;Node5 -->
<g id="edge73" class="edge">
<title>Node33&#45;&gt;Node5</title>
<path fill="none" stroke="#191970" d="M1237.3444,-369.4663C1179.8691,-357.1064 1091.0387,-330.4609 1033.4873,-277 1004.8812,-250.4271 961.372,-140.499 944.508,-95.9137"/>
<polygon fill="#191970" stroke="#191970" points="947.7763,-94.661 940.9873,-86.5271 941.2222,-97.1194 947.7763,-94.661"/>
</g>
<!-- Node33&#45;&gt;Node7 -->
<g id="edge74" class="edge">
<title>Node33&#45;&gt;Node7</title>
<path fill="none" stroke="#191970" d="M1297.0674,-369.2899C1306.4203,-345.4531 1334.0568,-284.0323 1379.4873,-257 1497.5474,-186.7512 1561.9278,-278.9485 1686.4873,-221 1704.7325,-212.5118 1703.0497,-201.608 1719.4873,-190 1740.8319,-174.9267 1767.1837,-161.5407 1787.4769,-152.1962"/>
<polygon fill="#191970" stroke="#191970" points="1788.944,-155.3741 1796.6186,-148.07 1786.0641,-148.9939 1788.944,-155.3741"/>
</g>
<!-- Node33&#45;&gt;Node16 -->
<g id="edge75" class="edge">
<title>Node33&#45;&gt;Node16</title>
<path fill="none" stroke="#191970" d="M1288.6749,-369.2742C1271.3955,-334.3524 1212.1513,-214.6194 1186.4935,-162.7647"/>
<polygon fill="#191970" stroke="#191970" points="1189.5433,-161.0361 1181.9714,-153.6255 1183.2693,-164.1405 1189.5433,-161.0361"/>
</g>
<!-- Node33&#45;&gt;Node29 -->
<g id="edge76" class="edge">
<title>Node33&#45;&gt;Node29</title>
<path fill="none" stroke="#191970" d="M1312.1252,-369.2455C1328.9259,-360.4527 1353.8507,-347.4079 1372.9491,-337.4125"/>
<polygon fill="#191970" stroke="#191970" points="1374.8259,-340.3807 1382.0629,-332.6427 1371.58,-334.1787 1374.8259,-340.3807"/>
</g>
<!-- Node33&#45;&gt;Node31 -->
<g id="edge77" class="edge">
<title>Node33&#45;&gt;Node31</title>
<path fill="none" stroke="#191970" d="M1353.232,-371.679C1438.7304,-361.2022 1595.4486,-341.9982 1684.3461,-331.1048"/>
<polygon fill="#191970" stroke="#191970" points="1684.8142,-334.5737 1694.3142,-329.8834 1683.9627,-327.6257 1684.8142,-334.5737"/>
</g>
<!-- Node34&#45;&gt;Node5 -->
<g id="edge79" class="edge">
<title>Node34&#45;&gt;Node5</title>
<path fill="none" stroke="#191970" d="M1526.8126,-369.2909C1524.6431,-345.9924 1515.7532,-286.6545 1480.4873,-257 1417.3777,-203.9322 1361.6548,-273.9989 1298.4873,-221 1262.6999,-190.9736 1297.0696,-152.0526 1260.4873,-123 1222.3782,-92.7348 1089.9041,-82.3742 1006.9145,-78.833"/>
<polygon fill="#191970" stroke="#191970" points="1006.932,-75.3309 996.7989,-78.4245 1006.6496,-82.3252 1006.932,-75.3309"/>
</g>
<!-- Node34&#45;&gt;Node7 -->
<g id="edge80" class="edge">
<title>Node34&#45;&gt;Node7</title>
<path fill="none" stroke="#191970" d="M1607.3047,-370.5851C1679.1679,-362.2253 1778.9338,-348.4492 1815.4873,-333 1853.8055,-316.805 1871.8434,-314.1884 1890.4873,-277 1907.8165,-242.434 1908.055,-224.4454 1890.4873,-190 1882.1797,-173.7111 1866.0446,-161.3724 1851.2529,-152.8618"/>
<polygon fill="#191970" stroke="#191970" points="1852.7649,-149.7012 1842.2985,-148.0564 1849.4549,-155.8691 1852.7649,-149.7012"/>
</g>
<!-- Node34&#45;&gt;Node16 -->
<g id="edge81" class="edge">
<title>Node34&#45;&gt;Node16</title>
<path fill="none" stroke="#191970" d="M1521.6483,-369.1559C1516.1488,-359.8597 1507.7006,-345.516 1500.4873,-333 1481.1084,-299.3751 1489.0592,-279.5695 1457.4873,-257 1386.8578,-206.5098 1343.2483,-259.6135 1265.4873,-221 1236.5753,-206.6433 1210.0374,-180.4193 1193.1748,-161.3822"/>
<polygon fill="#191970" stroke="#191970" points="1195.7448,-159.0031 1186.5617,-153.7191 1190.4453,-163.5765 1195.7448,-159.0031"/>
</g>
<!-- Node34&#45;&gt;Node29 -->
<g id="edge82" class="edge">
<title>Node34&#45;&gt;Node29</title>
<path fill="none" stroke="#191970" d="M1505.6552,-369.3733C1485.177,-360.3435 1454.3474,-346.7494 1431.3553,-336.6111"/>
<polygon fill="#191970" stroke="#191970" points="1432.5966,-333.3333 1422.0345,-332.5011 1429.7723,-339.7383 1432.5966,-333.3333"/>
</g>
<!-- Node34&#45;&gt;Node31 -->
<g id="edge83" class="edge">
<title>Node34&#45;&gt;Node31</title>
<path fill="none" stroke="#191970" d="M1565.569,-369.4369C1603.4931,-359.9133 1661.8162,-345.2672 1702.7998,-334.9753"/>
<polygon fill="#191970" stroke="#191970" points="1703.7163,-338.3539 1712.5627,-332.5237 1702.0113,-331.5647 1703.7163,-338.3539"/>
</g>
<!-- Node35&#45;&gt;Node5 -->
<g id="edge85" class="edge">
<title>Node35&#45;&gt;Node5</title>
<path fill="none" stroke="#191970" d="M1100.0112,-257.3527C1091.1277,-248.1956 1077.5885,-233.946 1066.4873,-221 1030.43,-178.951 1027.4973,-163.2925 989.4873,-123 979.5363,-112.4515 967.4533,-101.6578 957.4401,-93.1793"/>
<polygon fill="#191970" stroke="#191970" points="959.5326,-90.3671 949.6081,-86.6581 955.0534,-95.7465 959.5326,-90.3671"/>
</g>
<!-- Node35&#45;&gt;Node7 -->
<g id="edge86" class="edge">
<title>Node35&#45;&gt;Node7</title>
<path fill="none" stroke="#191970" d="M1177.1751,-263.0242C1271.9842,-256.7609 1439.0513,-242.9949 1495.4873,-221 1517.4388,-212.4448 1516.8145,-199.2385 1538.4873,-190 1605.2004,-161.5619 1687.3774,-148.8087 1745.5886,-143.1004"/>
<polygon fill="#191970" stroke="#191970" points="1746.1748,-146.561 1755.8061,-142.1465 1745.5241,-139.5913 1746.1748,-146.561"/>
</g>
<!-- Node35&#45;&gt;Node16 -->
<g id="edge87" class="edge">
<title>Node35&#45;&gt;Node16</title>
<path fill="none" stroke="#191970" d="M1099.3849,-257.3639C1084.9474,-242.3846 1061.6108,-212.8603 1075.4873,-190 1084.0206,-175.942 1097.7792,-165.5446 1112.3599,-157.9258"/>
<polygon fill="#191970" stroke="#191970" points="1114.0065,-161.0178 1121.5052,-153.5332 1110.9757,-154.7079 1114.0065,-161.0178"/>
</g>
<!-- Node35&#45;&gt;Node27 -->
<g id="edge88" class="edge">
<title>Node35&#45;&gt;Node27</title>
<path fill="none" stroke="#191970" d="M1177.2782,-261.4491C1261.1822,-254.1643 1408.3126,-240.0342 1533.4873,-221 1541.2599,-219.8181 1549.4309,-218.4072 1557.4499,-216.9251"/>
<polygon fill="#191970" stroke="#191970" points="1558.3123,-220.324 1567.4847,-215.0215 1557.0076,-213.4467 1558.3123,-220.324"/>
</g>
<!-- Node36&#45;&gt;Node5 -->
<g id="edge92" class="edge">
<title>Node36&#45;&gt;Node5</title>
<path fill="none" stroke="#191970" d="M663.5142,-481.473C671.0624,-459.0805 692.726,-402.4717 728.4873,-369 755.7749,-343.4594 780.3133,-361.5054 804.4873,-333 867.2694,-258.9688 806.2538,-200.6601 864.4873,-123 870.8009,-114.5802 892.1749,-101.5457 910.1753,-91.4985"/>
<polygon fill="#191970" stroke="#191970" points="912.099,-94.4352 919.1831,-86.557 908.7323,-88.298 912.099,-94.4352"/>
</g>
<!-- Node36&#45;&gt;Node12 -->
<g id="edge94" class="edge">
<title>Node36&#45;&gt;Node12</title>
<path fill="none" stroke="#191970" d="M650.7456,-481.3274C617.6777,-448.4443 511.5437,-342.4781 507.4873,-333 494.1869,-301.9224 510.8,-290.2094 504.4873,-257 502.383,-245.9303 498.3472,-234.027 494.6295,-224.4555"/>
<polygon fill="#191970" stroke="#191970" points="497.8449,-223.0715 490.8267,-215.1345 491.3636,-225.7158 497.8449,-223.0715"/>
</g>
<!-- Node36&#45;&gt;Node23 -->
<g id="edge93" class="edge">
<title>Node36&#45;&gt;Node23</title>
<path fill="none" stroke="#191970" d="M674.1955,-500.6006C689.8377,-514.9802 715.2387,-542.0183 742.4873,-557 776.3018,-575.5918 818.2023,-587.1282 850.294,-593.9983"/>
<polygon fill="#191970" stroke="#191970" points="849.8456,-597.4793 860.346,-596.0678 851.2572,-590.6231 849.8456,-597.4793"/>
</g>
<!-- Node37&#45;&gt;Node5 -->
<g id="edge96" class="edge">
<title>Node37&#45;&gt;Node5</title>
<path fill="none" stroke="#191970" d="M829.0943,-369.4834C839.6646,-350.6141 861.4873,-306.8343 861.4873,-267 861.4873,-267 861.4873,-267 861.4873,-205.5 861.4873,-167.3133 865.0473,-155.2557 885.4873,-123 892.947,-111.2281 904.276,-100.7061 914.4574,-92.7064"/>
<polygon fill="#191970" stroke="#191970" points="916.7085,-95.3937 922.6297,-86.6079 912.522,-89.7836 916.7085,-95.3937"/>
</g>
<!-- Node37&#45;&gt;Node14 -->
<g id="edge97" class="edge">
<title>Node37&#45;&gt;Node14</title>
<path fill="none" stroke="#191970" d="M806.9395,-369.2455C792.2274,-360.5731 770.4985,-347.7645 753.6368,-337.825"/>
<polygon fill="#191970" stroke="#191970" points="755.2374,-334.7057 744.8454,-332.6427 751.6827,-340.736 755.2374,-334.7057"/>
</g>
<!-- Node38&#45;&gt;Node5 -->
<g id="edge99" class="edge">
<title>Node38&#45;&gt;Node5</title>
<path fill="none" stroke="#191970" d="M2075.3935,-537.3544C2091.4248,-518.945 2123.4873,-476.8901 2123.4873,-435 2123.4873,-435 2123.4873,-435 2123.4873,-205.5 2123.4873,-167.3133 2129.5692,-146.5223 2099.4873,-123 2056.3205,-89.246 1250.4475,-79.6582 1006.7294,-77.5249"/>
<polygon fill="#191970" stroke="#191970" points="1006.6091,-74.0238 996.5793,-77.4375 1006.5487,-81.0236 1006.6091,-74.0238"/>
</g>
<!-- Node40&#45;&gt;Node5 -->
<g id="edge106" class="edge">
<title>Node40&#45;&gt;Node5</title>
<path fill="none" stroke="#191970" d="M1628.2736,-662.5973C1798.2597,-657.9607 2184.8025,-644.1015 2235.4873,-613 2264.7221,-595.0607 2275.4873,-581.3001 2275.4873,-547 2275.4873,-547 2275.4873,-547 2275.4873,-205.5 2275.4873,-140.4116 2216.3102,-143.3572 2154.4873,-123 2045.6577,-87.1644 1248.6061,-79.0352 1006.8263,-77.3851"/>
<polygon fill="#191970" stroke="#191970" points="1006.7784,-73.8848 996.7552,-77.3179 1006.7316,-80.8846 1006.7784,-73.8848"/>
</g>
<!-- Node40&#45;&gt;Node7 -->
<g id="edge107" class="edge">
<title>Node40&#45;&gt;Node7</title>
<path fill="none" stroke="#191970" d="M1628.0805,-663.1135C1794.5277,-659.5339 2167.8154,-647.6953 2213.4873,-613 2238.3415,-594.1191 2237.4873,-578.2125 2237.4873,-547 2237.4873,-547 2237.4873,-547 2237.4873,-379 2237.4873,-290.5958 2243.1742,-246.8664 2175.4873,-190 2133.9518,-155.1045 1984.8268,-143.8535 1893.2762,-140.226"/>
<polygon fill="#191970" stroke="#191970" points="1893.3559,-136.7266 1883.2317,-139.8494 1893.0935,-143.7217 1893.3559,-136.7266"/>
</g>
</g>
</svg>
