<?xml version="1.0" encoding="UTF-8" standalone="no"?>
<!DOCTYPE svg PUBLIC "-//W3C//DTD SVG 1.1//EN"
 "http://www.w3.org/Graphics/SVG/1.1/DTD/svg11.dtd">
<!-- Generated by graphviz version 2.40.1 (20161225.0304)
 -->
<!-- Title: SBMLFileResolver.cpp Pages: 1 -->
<!--zoomable 755 -->
<svg id="main" version="1.1" xmlns="http://www.w3.org/2000/svg" xmlns:xlink="http://www.w3.org/1999/xlink" xml:space="preserve" onload="init(evt)">
<style type="text/css"><![CDATA[
.edge:hover path { stroke: red; }
.edge:hover polygon { stroke: red; fill: red; }
]]></style>
<script type="text/javascript"><![CDATA[
var edges = document.getElementsByTagName('g');
if (edges && edges.length) {
  for (var i=0;i<edges.length;i++) {
    if (edges[i].id.substr(0,4)=='edge') {
      edges[i].setAttribute('class','edge');
    }
  }
}
]]></script>
        <defs>
                <circle id="rim" cx="0" cy="0" r="7"/>
                <circle id="rim2" cx="0" cy="0" r="3.5"/>
                <g id="zoomPlus">
                        <use xlink:href="#rim" fill="#404040">
                                <set attributeName="fill" to="#808080" begin="zoomplus.mouseover" end="zoomplus.mouseout"/>
                        </use>
                        <path d="M-4,0h8M0,-4v8" fill="none" stroke="white" stroke-width="1.5" pointer-events="none"/>
                </g>
                <g id="zoomMin">
                        <use xlink:href="#rim" fill="#404040">
                                <set attributeName="fill" to="#808080" begin="zoomminus.mouseover" end="zoomminus.mouseout"/>
                        </use>
                        <path d="M-4,0h8" fill="none" stroke="white" stroke-width="1.5" pointer-events="none"/>
                </g>
                <g id="dirArrow">
                        <path fill="none" stroke="white" stroke-width="1.5" d="M0,-3.0v7 M-2.5,-0.5L0,-3.0L2.5,-0.5"/>
                </g>
               <g id="resetDef">
                       <use xlink:href="#rim2" fill="#404040">
                               <set attributeName="fill" to="#808080" begin="reset.mouseover" end="reset.mouseout"/>
                       </use>
               </g>
        </defs>

<script type="text/javascript">
var viewWidth = 2351;
var viewHeight = 755;
var sectionId = 'dynsection-0';
</script>
<script xlink:href="svgpan.js"/>
<svg id="graph" class="graph">
<g id="viewport">
<title>SBMLFileResolver.cpp</title>
<polygon fill="#ffffff" stroke="transparent" points="-4,4 -4,-751 2346.7484,-751 2346.7484,4 -4,4"/>
<!-- Node1 -->
<g id="node1" class="node">
<title>Node1</title>
<polygon fill="#bfbfbf" stroke="#000000" points="1839.7484,-727.5 1839.7484,-746.5 1957.7484,-746.5 1957.7484,-727.5 1839.7484,-727.5"/>
<text text-anchor="middle" x="1898.7484" y="-734.5" font-family="Helvetica,sans-Serif" font-size="10.00" fill="#000000">SBMLFileResolver.cpp</text>
</g>
<!-- Node2 -->
<g id="node2" class="node">
<title>Node2</title>
<g id="a_node2"><a xlink:href="_s_b_m_l_file_resolver_8h.html" target="_top" xlink:title="A file&#45;based resolver for SBML Documents. ">
<polygon fill="#ffffff" stroke="#000000" points="29.7484,-481.5 29.7484,-511.5 155.7484,-511.5 155.7484,-481.5 29.7484,-481.5"/>
<text text-anchor="start" x="37.7484" y="-499.5" font-family="Helvetica,sans-Serif" font-size="10.00" fill="#000000">sbml/packages/comp</text>
<text text-anchor="middle" x="92.7484" y="-488.5" font-family="Helvetica,sans-Serif" font-size="10.00" fill="#000000">/util/SBMLFileResolver.h</text>
</a>
</g>
</g>
<!-- Node1&#45;&gt;Node2 -->
<g id="edge1" class="edge">
<title>Node1&#45;&gt;Node2</title>
<path fill="none" stroke="#191970" d="M1839.4934,-736.4283C1552.3939,-733.221 313.8996,-714.2153 169.7484,-624 132.2969,-600.5614 110.538,-551.6167 100.2071,-521.6519"/>
<polygon fill="#191970" stroke="#191970" points="103.4584,-520.3335 97.0225,-511.9175 96.8053,-522.5101 103.4584,-520.3335"/>
</g>
<!-- Node4 -->
<g id="node4" class="node">
<title>Node4</title>
<g id="a_node4"><a xlink:href="_s_b_m_l_uri_8h.html" target="_top" xlink:title="Definition of SBMLUri_t, the utility class for handling URIs. ">
<polygon fill="#ffffff" stroke="#000000" points="913.7484,-660.5 913.7484,-690.5 1023.7484,-690.5 1023.7484,-660.5 913.7484,-660.5"/>
<text text-anchor="start" x="921.7484" y="-678.5" font-family="Helvetica,sans-Serif" font-size="10.00" fill="#000000">sbml/packages/comp</text>
<text text-anchor="middle" x="968.7484" y="-667.5" font-family="Helvetica,sans-Serif" font-size="10.00" fill="#000000">/util/SBMLUri.h</text>
</a>
</g>
</g>
<!-- Node1&#45;&gt;Node4 -->
<g id="edge3" class="edge">
<title>Node1&#45;&gt;Node4</title>
<path fill="none" stroke="#191970" d="M1839.5131,-733.0828C1673.8579,-722.1282 1206.6837,-691.2344 1033.9836,-679.8139"/>
<polygon fill="#191970" stroke="#191970" points="1033.9825,-676.3063 1023.7733,-679.1387 1033.5206,-683.2911 1033.9825,-676.3063"/>
</g>
<!-- Node5 -->
<g id="node5" class="node">
<title>Node5</title>
<g id="a_node5"><a xlink:href="_s_b_m_l_document_8h.html" target="_top" xlink:title="Top&#45;level container for an SBML Model_t and associated data. ">
<polygon fill="#ffffff" stroke="#000000" points="1837.7484,-666 1837.7484,-685 1959.7484,-685 1959.7484,-666 1837.7484,-666"/>
<text text-anchor="middle" x="1898.7484" y="-673" font-family="Helvetica,sans-Serif" font-size="10.00" fill="#000000">sbml/SBMLDocument.h</text>
</a>
</g>
</g>
<!-- Node1&#45;&gt;Node5 -->
<g id="edge5" class="edge">
<title>Node1&#45;&gt;Node5</title>
<path fill="none" stroke="#191970" d="M1898.7484,-727.3906C1898.7484,-718.8657 1898.7484,-706.1392 1898.7484,-695.4235"/>
<polygon fill="#191970" stroke="#191970" points="1902.2485,-695.2448 1898.7484,-685.2449 1895.2485,-695.2449 1902.2485,-695.2448"/>
</g>
<!-- Node38 -->
<g id="node38" class="node">
<title>Node38</title>
<g id="a_node38"><a xlink:href="_s_b_m_l_constructor_exception_8h.html" target="_top" xlink:title="Definition of SBMLConstructorException_t, the exception class for constructor exceptions. ">
<polygon fill="#ffffff" stroke="#000000" points="1869.7484,-487 1869.7484,-506 2041.7484,-506 2041.7484,-487 1869.7484,-487"/>
<text text-anchor="middle" x="1955.7484" y="-494" font-family="Helvetica,sans-Serif" font-size="10.00" fill="#000000">sbml/SBMLConstructorException.h</text>
</a>
</g>
</g>
<!-- Node1&#45;&gt;Node38 -->
<g id="edge106" class="edge">
<title>Node1&#45;&gt;Node38</title>
<path fill="none" stroke="#191970" d="M1924.4614,-727.3702C1940.2285,-719.992 1959.1711,-708.1369 1968.7484,-691 2000.6055,-633.9975 1977.0545,-552.428 1963.5221,-515.708"/>
<polygon fill="#191970" stroke="#191970" points="1966.7265,-514.2892 1959.8705,-506.2117 1960.1929,-516.8016 1966.7265,-514.2892"/>
</g>
<!-- Node41 -->
<g id="node41" class="node">
<title>Node41</title>
<g id="a_node41"><a xlink:href="_s_b_m_l_reader_8h.html" target="_top" xlink:title="Reads an SBML Document into memory. ">
<polygon fill="#ffffff" stroke="#000000" points="2072.2484,-257.5 2072.2484,-276.5 2181.2484,-276.5 2181.2484,-257.5 2072.2484,-257.5"/>
<text text-anchor="middle" x="2126.7484" y="-264.5" font-family="Helvetica,sans-Serif" font-size="10.00" fill="#000000">sbml/SBMLReader.h</text>
</a>
</g>
</g>
<!-- Node1&#45;&gt;Node41 -->
<g id="edge107" class="edge">
<title>Node1&#45;&gt;Node41</title>
<path fill="none" stroke="#191970" d="M1958.1676,-733.0034C2079.1535,-723.2307 2342.7484,-692.8867 2342.7484,-614 2342.7484,-614 2342.7484,-614 2342.7484,-496.5 2342.7484,-389.2119 2216.0247,-311.6351 2156.7061,-281.1989"/>
<polygon fill="#191970" stroke="#191970" points="2157.9668,-277.9156 2147.4594,-276.557 2154.8263,-284.1715 2157.9668,-277.9156"/>
</g>
<!-- Node3 -->
<g id="node3" class="node">
<title>Node3</title>
<polygon fill="#ffffff" stroke="#bfbfbf" points="424.2484,-129 424.2484,-148 551.2484,-148 551.2484,-129 424.2484,-129"/>
<text text-anchor="middle" x="487.7484" y="-136" font-family="Helvetica,sans-Serif" font-size="10.00" fill="#000000">sbml/common/sbmlfwd.h</text>
</g>
<!-- Node2&#45;&gt;Node3 -->
<g id="edge2" class="edge">
<title>Node2&#45;&gt;Node3</title>
<path fill="none" stroke="#191970" d="M104.775,-481.1536C120.4122,-459.6168 145.7484,-418.6099 145.7484,-379 145.7484,-379 145.7484,-379 145.7484,-267 145.7484,-231.154 142.672,-213.4905 169.7484,-190 205.3343,-159.127 331.8058,-146.5846 414.1277,-141.6171"/>
<polygon fill="#191970" stroke="#191970" points="414.4073,-145.1068 424.1881,-141.0342 414.0024,-138.1185 414.4073,-145.1068"/>
</g>
<!-- Node4&#45;&gt;Node3 -->
<g id="edge4" class="edge">
<title>Node4&#45;&gt;Node3</title>
<path fill="none" stroke="#191970" d="M913.6353,-673.411C743.4403,-666.7456 235.91,-645.1783 207.7484,-624 182.8027,-605.2401 183.7484,-589.2125 183.7484,-558 183.7484,-558 183.7484,-558 183.7484,-267 183.7484,-223.0629 208.3206,-213.0136 245.7484,-190 273.5642,-172.8966 353.6959,-157.944 414.1928,-148.6199"/>
<polygon fill="#191970" stroke="#191970" points="414.7401,-152.077 424.1015,-147.1156 413.6894,-145.1563 414.7401,-152.077"/>
</g>
<!-- Node5&#45;&gt;Node3 -->
<g id="edge8" class="edge">
<title>Node5&#45;&gt;Node3</title>
<path fill="none" stroke="#191970" d="M1837.5743,-674.4796C1535.9705,-669.0558 221.7484,-640.6784 221.7484,-558 221.7484,-558 221.7484,-558 221.7484,-435 221.7484,-307.0911 276.5648,-274.3173 372.7484,-190 393.0436,-172.2087 420.4868,-159.6044 443.4746,-151.3198"/>
<polygon fill="#191970" stroke="#191970" points="444.7053,-154.5978 453.0199,-148.0312 442.4251,-147.9796 444.7053,-154.5978"/>
</g>
<!-- Node6 -->
<g id="node6" class="node">
<title>Node6</title>
<g id="a_node6"><a xlink:href="extern_8h.html" target="_top" xlink:title="Definitions of LIBSBML_EXTERN and related things. ">
<polygon fill="#ffffff" stroke="#000000" points="1424.7484,-67.5 1424.7484,-86.5 1542.7484,-86.5 1542.7484,-67.5 1424.7484,-67.5"/>
<text text-anchor="middle" x="1483.7484" y="-74.5" font-family="Helvetica,sans-Serif" font-size="10.00" fill="#000000">sbml/common/extern.h</text>
</a>
</g>
</g>
<!-- Node5&#45;&gt;Node6 -->
<g id="edge6" class="edge">
<title>Node5&#45;&gt;Node6</title>
<path fill="none" stroke="#191970" d="M1959.9703,-670.5618C2073.3901,-659.7158 2304.7484,-628.9021 2304.7484,-558 2304.7484,-558 2304.7484,-558 2304.7484,-496.5 2304.7484,-417.561 2342.7484,-401.939 2342.7484,-323 2342.7484,-323 2342.7484,-323 2342.7484,-205.5 2342.7484,-152.2125 2304.6368,-144.2011 2255.7484,-123 2192.272,-95.4726 1730.5273,-82.4519 1553.0136,-78.4232"/>
<polygon fill="#191970" stroke="#191970" points="1553.0779,-74.9239 1543.0019,-78.1987 1552.9209,-81.9221 1553.0779,-74.9239"/>
</g>
<!-- Node8 -->
<g id="node8" class="node">
<title>Node8</title>
<g id="a_node8"><a xlink:href="_s_b_m_l_error_8h.html" target="_top" xlink:title="Represents SBML errors and other diagnostics. ">
<polygon fill="#ffffff" stroke="#000000" points="1754.7484,-369.5 1754.7484,-388.5 1852.7484,-388.5 1852.7484,-369.5 1754.7484,-369.5"/>
<text text-anchor="middle" x="1803.7484" y="-376.5" font-family="Helvetica,sans-Serif" font-size="10.00" fill="#000000">sbml/SBMLError.h</text>
</a>
</g>
</g>
<!-- Node5&#45;&gt;Node8 -->
<g id="edge9" class="edge">
<title>Node5&#45;&gt;Node8</title>
<path fill="none" stroke="#191970" d="M1878.7033,-665.928C1862.3025,-657.1452 1839.625,-642.6736 1825.7484,-624 1807.306,-599.1821 1803.7484,-588.92 1803.7484,-558 1803.7484,-558 1803.7484,-558 1803.7484,-496.5 1803.7484,-462.1399 1803.7484,-422.128 1803.7484,-398.7764"/>
<polygon fill="#191970" stroke="#191970" points="1807.2485,-398.7489 1803.7484,-388.7489 1800.2485,-398.749 1807.2485,-398.7489"/>
</g>
<!-- Node10 -->
<g id="node10" class="node">
<title>Node10</title>
<polygon fill="#ffffff" stroke="#bfbfbf" points="2097.7484,-129 2097.7484,-148 2143.7484,-148 2143.7484,-129 2097.7484,-129"/>
<text text-anchor="middle" x="2120.7484" y="-136" font-family="Helvetica,sans-Serif" font-size="10.00" fill="#000000">stdio.h</text>
</g>
<!-- Node5&#45;&gt;Node10 -->
<g id="edge105" class="edge">
<title>Node5&#45;&gt;Node10</title>
<path fill="none" stroke="#191970" d="M1960.0455,-666.508C2055.4791,-650.7617 2228.7484,-614.4059 2228.7484,-558 2228.7484,-558 2228.7484,-558 2228.7484,-379 2228.7484,-288.745 2164.6688,-194.8373 2135.228,-156.455"/>
<polygon fill="#191970" stroke="#191970" points="2137.7851,-154.0434 2128.866,-148.3249 2132.2723,-158.3573 2137.7851,-154.0434"/>
</g>
<!-- Node22 -->
<g id="node22" class="node">
<title>Node22</title>
<g id="a_node22"><a xlink:href="_s_b_m_l_error_log_8h.html" target="_top" xlink:title="Stores errors (and messages) encountered while processing SBML. ">
<polygon fill="#ffffff" stroke="#000000" points="1948.2484,-425.5 1948.2484,-444.5 2063.2484,-444.5 2063.2484,-425.5 1948.2484,-425.5"/>
<text text-anchor="middle" x="2005.7484" y="-432.5" font-family="Helvetica,sans-Serif" font-size="10.00" fill="#000000">sbml/SBMLErrorLog.h</text>
</a>
</g>
</g>
<!-- Node5&#45;&gt;Node22 -->
<g id="edge36" class="edge">
<title>Node5&#45;&gt;Node22</title>
<path fill="none" stroke="#191970" d="M1915.3665,-665.8274C1930.7721,-656.3726 1953.8012,-640.9584 1970.7484,-624 2013.9894,-580.7306 2032.0801,-570.2539 2050.7484,-512 2054.9531,-498.8795 2055.951,-493.7578 2050.7484,-481 2046.0329,-469.4363 2036.8557,-459.2008 2028.0123,-451.3383"/>
<polygon fill="#191970" stroke="#191970" points="2030.0593,-448.4894 2020.1222,-444.8147 2025.5988,-453.8842 2030.0593,-448.4894"/>
</g>
<!-- Node24 -->
<g id="node24" class="node">
<title>Node24</title>
<g id="a_node24"><a xlink:href="_s_base_8h.html" target="_top" xlink:title="Definition of SBase_t, the base object of all SBML objects. ">
<polygon fill="#ffffff" stroke="#000000" points="1425.7484,-604.5 1425.7484,-623.5 1503.7484,-623.5 1503.7484,-604.5 1425.7484,-604.5"/>
<text text-anchor="middle" x="1464.7484" y="-611.5" font-family="Helvetica,sans-Serif" font-size="10.00" fill="#000000">sbml/SBase.h</text>
</a>
</g>
</g>
<!-- Node5&#45;&gt;Node24 -->
<g id="edge44" class="edge">
<title>Node5&#45;&gt;Node24</title>
<path fill="none" stroke="#191970" d="M1837.4873,-666.819C1750.7239,-654.5242 1593.7547,-632.2808 1514.0498,-620.9862"/>
<polygon fill="#191970" stroke="#191970" points="1514.1868,-617.4708 1503.7946,-619.533 1513.2046,-624.4015 1514.1868,-617.4708"/>
</g>
<!-- Node40 -->
<g id="node40" class="node">
<title>Node40</title>
<g id="a_node40"><a xlink:href="_s_b_m_l_transforms_8h.html" target="_top" xlink:title="sbml/SBMLTransforms.h">
<polygon fill="#ffffff" stroke="#000000" points="1835.2484,-604.5 1835.2484,-623.5 1962.2484,-623.5 1962.2484,-604.5 1835.2484,-604.5"/>
<text text-anchor="middle" x="1898.7484" y="-611.5" font-family="Helvetica,sans-Serif" font-size="10.00" fill="#000000">sbml/SBMLTransforms.h</text>
</a>
</g>
</g>
<!-- Node5&#45;&gt;Node40 -->
<g id="edge104" class="edge">
<title>Node5&#45;&gt;Node40</title>
<path fill="none" stroke="#191970" d="M1898.7484,-665.8906C1898.7484,-657.3657 1898.7484,-644.6392 1898.7484,-633.9235"/>
<polygon fill="#191970" stroke="#191970" points="1902.2485,-633.7448 1898.7484,-623.7449 1895.2485,-633.7449 1902.2485,-633.7448"/>
</g>
<!-- Node7 -->
<g id="node7" class="node">
<title>Node7</title>
<g id="a_node7"><a xlink:href="libsbml-namespace_8h.html" target="_top" xlink:title="Defines C++ namespace of libSBML. ">
<polygon fill="#ffffff" stroke="#000000" points="1427.2484,-.5 1427.2484,-30.5 1540.2484,-30.5 1540.2484,-.5 1427.2484,-.5"/>
<text text-anchor="start" x="1435.2484" y="-18.5" font-family="Helvetica,sans-Serif" font-size="10.00" fill="#000000">sbml/common/libsbml</text>
<text text-anchor="middle" x="1483.7484" y="-7.5" font-family="Helvetica,sans-Serif" font-size="10.00" fill="#000000">&#45;namespace.h</text>
</a>
</g>
</g>
<!-- Node6&#45;&gt;Node7 -->
<g id="edge7" class="edge">
<title>Node6&#45;&gt;Node7</title>
<path fill="none" stroke="#191970" d="M1483.7484,-67.3906C1483.7484,-60.2234 1483.7484,-50.0862 1483.7484,-40.671"/>
<polygon fill="#191970" stroke="#191970" points="1487.2485,-40.5446 1483.7484,-30.5446 1480.2485,-40.5446 1487.2485,-40.5446"/>
</g>
<!-- Node8&#45;&gt;Node6 -->
<g id="edge10" class="edge">
<title>Node8&#45;&gt;Node6</title>
<path fill="none" stroke="#191970" d="M1790.8138,-369.3465C1774.8851,-356.2575 1751.4733,-332.2995 1764.7484,-313 1790.1019,-276.141 1820.6132,-300.3899 1858.7484,-277 1890.4008,-257.5863 1905.672,-254.9333 1920.7484,-221 1941.2982,-174.7476 1907.4283,-146.7759 1862.7484,-123 1810.5976,-95.2485 1647.3166,-83.8413 1552.9522,-79.4723"/>
<polygon fill="#191970" stroke="#191970" points="1553.0671,-75.974 1542.9203,-79.0223 1552.7534,-82.967 1553.0671,-75.974"/>
</g>
<!-- Node9 -->
<g id="node9" class="node">
<title>Node9</title>
<g id="a_node9"><a xlink:href="_x_m_l_error_8h.html" target="_top" xlink:title="Represents errors (and messages) encountered during an XML parse. ">
<polygon fill="#ffffff" stroke="#000000" points="1905.7484,-257.5 1905.7484,-276.5 2015.7484,-276.5 2015.7484,-257.5 1905.7484,-257.5"/>
<text text-anchor="middle" x="1960.7484" y="-264.5" font-family="Helvetica,sans-Serif" font-size="10.00" fill="#000000">sbml/xml/XMLError.h</text>
</a>
</g>
</g>
<!-- Node8&#45;&gt;Node9 -->
<g id="edge11" class="edge">
<title>Node8&#45;&gt;Node9</title>
<path fill="none" stroke="#191970" d="M1837.1063,-369.3615C1859.2241,-361.8635 1888.0565,-349.876 1909.7484,-333 1926.6244,-319.8708 1940.9994,-299.9302 1950.1442,-285.4035"/>
<polygon fill="#191970" stroke="#191970" points="1953.1888,-287.1325 1955.3721,-276.7651 1947.2001,-283.5082 1953.1888,-287.1325"/>
</g>
<!-- Node14 -->
<g id="node14" class="node">
<title>Node14</title>
<g id="a_node14"><a xlink:href="_s_b_m_l_namespaces_8h.html" target="_top" xlink:title="SBMLNamespaces_t class to store level/version and namespace. ">
<polygon fill="#ffffff" stroke="#000000" points="1583.7484,-313.5 1583.7484,-332.5 1717.7484,-332.5 1717.7484,-313.5 1583.7484,-313.5"/>
<text text-anchor="middle" x="1650.7484" y="-320.5" font-family="Helvetica,sans-Serif" font-size="10.00" fill="#000000">sbml/SBMLNamespaces.h</text>
</a>
</g>
</g>
<!-- Node8&#45;&gt;Node14 -->
<g id="edge20" class="edge">
<title>Node8&#45;&gt;Node14</title>
<path fill="none" stroke="#191970" d="M1777.4468,-369.3733C1752.3356,-360.1822 1714.3046,-346.2624 1686.4612,-336.0713"/>
<polygon fill="#191970" stroke="#191970" points="1687.3006,-332.6516 1676.7069,-332.5011 1684.8946,-339.2251 1687.3006,-332.6516"/>
</g>
<!-- Node9&#45;&gt;Node3 -->
<g id="edge15" class="edge">
<title>Node9&#45;&gt;Node3</title>
<path fill="none" stroke="#191970" d="M1905.532,-261.3545C1838.0696,-253.805 1728.3863,-239.2327 1691.7484,-221 1673.7329,-212.0346 1677.2904,-197.8188 1658.7484,-190 1633.4055,-179.3134 815.2777,-149.9322 561.8372,-141.0661"/>
<polygon fill="#191970" stroke="#191970" points="561.7433,-137.5608 551.6272,-140.7094 561.4988,-144.5565 561.7433,-137.5608"/>
</g>
<!-- Node9&#45;&gt;Node10 -->
<g id="edge12" class="edge">
<title>Node9&#45;&gt;Node10</title>
<path fill="none" stroke="#191970" d="M2014.5509,-257.4454C2053.3481,-249.3862 2101.0337,-236.6689 2113.7484,-221 2127.9916,-203.4476 2127.3777,-176.3293 2124.7849,-158.0203"/>
<polygon fill="#191970" stroke="#191970" points="2128.2326,-157.4168 2123.0787,-148.16 2121.3351,-158.6104 2128.2326,-157.4168"/>
</g>
<!-- Node11 -->
<g id="node11" class="node">
<title>Node11</title>
<g id="a_node11"><a xlink:href="_x_m_l_extern_8h.html" target="_top" xlink:title="Defines LIBLAX_EXTERN. ">
<polygon fill="#ffffff" stroke="#000000" points="975.2484,-129 975.2484,-148 1092.2484,-148 1092.2484,-129 975.2484,-129"/>
<text text-anchor="middle" x="1033.7484" y="-136" font-family="Helvetica,sans-Serif" font-size="10.00" fill="#000000">sbml/xml/XMLExtern.h</text>
</a>
</g>
</g>
<!-- Node9&#45;&gt;Node11 -->
<g id="edge13" class="edge">
<title>Node9&#45;&gt;Node11</title>
<path fill="none" stroke="#191970" d="M1914.72,-257.4324C1876.3846,-249.0608 1820.5381,-235.9268 1772.7484,-221 1735.955,-209.5078 1729.4223,-198.1552 1691.7484,-190 1434.5518,-134.3253 1361.1749,-191.787 1100.7484,-154 1094.0007,-153.0209 1086.9293,-151.7073 1080.0144,-150.2571"/>
<polygon fill="#191970" stroke="#191970" points="1080.5705,-146.7957 1070.0511,-148.0578 1079.0616,-153.6311 1080.5705,-146.7957"/>
</g>
<!-- Node12 -->
<g id="node12" class="node">
<title>Node12</title>
<g id="a_node12"><a xlink:href="util_8h.html" target="_top" xlink:title="Utility functions. ">
<polygon fill="#ffffff" stroke="#000000" points="2028.2484,-196 2028.2484,-215 2105.2484,-215 2105.2484,-196 2028.2484,-196"/>
<text text-anchor="middle" x="2066.7484" y="-203" font-family="Helvetica,sans-Serif" font-size="10.00" fill="#000000">sbml/util/util.h</text>
</a>
</g>
</g>
<!-- Node9&#45;&gt;Node12 -->
<g id="edge16" class="edge">
<title>Node9&#45;&gt;Node12</title>
<path fill="none" stroke="#191970" d="M1977.3109,-257.3906C1994.5022,-247.4165 2021.6066,-231.6908 2041.4751,-220.1633"/>
<polygon fill="#191970" stroke="#191970" points="2043.4091,-223.0877 2050.3023,-215.0419 2039.8962,-217.033 2043.4091,-223.0877"/>
</g>
<!-- Node11&#45;&gt;Node7 -->
<g id="edge14" class="edge">
<title>Node11&#45;&gt;Node7</title>
<path fill="none" stroke="#191970" d="M1068.6847,-128.9507C1143.9514,-108.3779 1322.3994,-59.6021 1418.9803,-33.2033"/>
<polygon fill="#191970" stroke="#191970" points="1419.9105,-36.5775 1428.6338,-30.5647 1418.0648,-29.8252 1419.9105,-36.5775"/>
</g>
<!-- Node12&#45;&gt;Node6 -->
<g id="edge19" class="edge">
<title>Node12&#45;&gt;Node6</title>
<path fill="none" stroke="#191970" d="M2057.3134,-195.7229C2037.8096,-175.7574 1993.2491,-131.4668 1973.7484,-123 1900.0472,-91.0003 1670.1695,-81.191 1553.3683,-78.2384"/>
<polygon fill="#191970" stroke="#191970" points="1553.1911,-74.7331 1543.1091,-77.9894 1553.0212,-81.7311 1553.1911,-74.7331"/>
</g>
<!-- Node12&#45;&gt;Node10 -->
<g id="edge17" class="edge">
<title>Node12&#45;&gt;Node10</title>
<path fill="none" stroke="#191970" d="M2074.4853,-195.9005C2082.826,-185.552 2096.2839,-168.8542 2106.5396,-156.1295"/>
<polygon fill="#191970" stroke="#191970" points="2109.4757,-158.064 2113.0259,-148.0817 2104.0255,-153.6713 2109.4757,-158.064"/>
</g>
<!-- Node13 -->
<g id="node13" class="node">
<title>Node13</title>
<polygon fill="#ffffff" stroke="#bfbfbf" points="2026.2484,-129 2026.2484,-148 2079.2484,-148 2079.2484,-129 2026.2484,-129"/>
<text text-anchor="middle" x="2052.7484" y="-136" font-family="Helvetica,sans-Serif" font-size="10.00" fill="#000000">stdarg.h</text>
</g>
<!-- Node12&#45;&gt;Node13 -->
<g id="edge18" class="edge">
<title>Node12&#45;&gt;Node13</title>
<path fill="none" stroke="#191970" d="M2064.7426,-195.9005C2062.6842,-186.0495 2059.4235,-170.4451 2056.8212,-157.9912"/>
<polygon fill="#191970" stroke="#191970" points="2060.222,-157.1543 2054.7506,-148.0817 2053.37,-158.5862 2060.222,-157.1543"/>
</g>
<!-- Node15 -->
<g id="node15" class="node">
<title>Node15</title>
<g id="a_node15"><a xlink:href="_x_m_l_namespaces_8h.html" target="_top" xlink:title="A list of XMLNamespace declarations (URI/prefix pairs) ">
<polygon fill="#ffffff" stroke="#000000" points="967.7484,-196 967.7484,-215 1113.7484,-215 1113.7484,-196 967.7484,-196"/>
<text text-anchor="middle" x="1040.7484" y="-203" font-family="Helvetica,sans-Serif" font-size="10.00" fill="#000000">sbml/xml/XMLNamespaces.h</text>
</a>
</g>
</g>
<!-- Node14&#45;&gt;Node15 -->
<g id="edge21" class="edge">
<title>Node14&#45;&gt;Node15</title>
<path fill="none" stroke="#191970" d="M1583.6817,-314.1894C1523.7033,-305.9191 1433.5215,-292.5193 1355.7484,-277 1318.9609,-269.6592 1310.2872,-265.493 1273.7484,-257 1212.8469,-242.8442 1142.7701,-227.4796 1095.5045,-217.2516"/>
<polygon fill="#191970" stroke="#191970" points="1095.9949,-213.7769 1085.4812,-215.0857 1094.5163,-220.619 1095.9949,-213.7769"/>
</g>
<!-- Node17 -->
<g id="node17" class="node">
<title>Node17</title>
<g id="a_node17"><a xlink:href="common_8h.html" target="_top" xlink:title="Common functions and macros for C and C++. ">
<polygon fill="#ffffff" stroke="#000000" points="1721.7484,-257.5 1721.7484,-276.5 1849.7484,-276.5 1849.7484,-257.5 1721.7484,-257.5"/>
<text text-anchor="middle" x="1785.7484" y="-264.5" font-family="Helvetica,sans-Serif" font-size="10.00" fill="#000000">sbml/common/common.h</text>
</a>
</g>
</g>
<!-- Node14&#45;&gt;Node17 -->
<g id="edge26" class="edge">
<title>Node14&#45;&gt;Node17</title>
<path fill="none" stroke="#191970" d="M1673.9558,-313.3733C1695.9183,-304.2629 1729.0816,-290.5062 1753.5886,-280.3404"/>
<polygon fill="#191970" stroke="#191970" points="1754.9482,-283.5657 1762.844,-276.5011 1752.266,-277.0999 1754.9482,-283.5657"/>
</g>
<!-- Node15&#45;&gt;Node3 -->
<g id="edge23" class="edge">
<title>Node15&#45;&gt;Node3</title>
<path fill="none" stroke="#191970" d="M993.591,-195.9355C982.2118,-193.8078 970.0692,-191.6863 958.7484,-190 818.9634,-169.1788 654.6605,-153.1086 561.7104,-144.7906"/>
<polygon fill="#191970" stroke="#191970" points="561.8338,-141.2878 551.5629,-143.888 561.2135,-148.2603 561.8338,-141.2878"/>
</g>
<!-- Node15&#45;&gt;Node11 -->
<g id="edge22" class="edge">
<title>Node15&#45;&gt;Node11</title>
<path fill="none" stroke="#191970" d="M1039.7455,-195.9005C1038.7267,-186.149 1037.1189,-170.7597 1035.8244,-158.3695"/>
<polygon fill="#191970" stroke="#191970" points="1039.2698,-157.6638 1034.7495,-148.0817 1032.3077,-158.3912 1039.2698,-157.6638"/>
</g>
<!-- Node16 -->
<g id="node16" class="node">
<title>Node16</title>
<g id="a_node16"><a xlink:href="operation_return_values_8h.html" target="_top" xlink:title="Enumeration of values returned by operations within libSBML. ">
<polygon fill="#ffffff" stroke="#000000" points="1110.2484,-123.5 1110.2484,-153.5 1263.2484,-153.5 1263.2484,-123.5 1110.2484,-123.5"/>
<text text-anchor="start" x="1118.2484" y="-141.5" font-family="Helvetica,sans-Serif" font-size="10.00" fill="#000000">sbml/common/operationReturn</text>
<text text-anchor="middle" x="1186.7484" y="-130.5" font-family="Helvetica,sans-Serif" font-size="10.00" fill="#000000">Values.h</text>
</a>
</g>
</g>
<!-- Node15&#45;&gt;Node16 -->
<g id="edge24" class="edge">
<title>Node15&#45;&gt;Node16</title>
<path fill="none" stroke="#191970" d="M1061.6667,-195.9005C1083.2495,-185.9961 1117.506,-170.2756 1144.7161,-157.7888"/>
<polygon fill="#191970" stroke="#191970" points="1146.3856,-160.8737 1154.0145,-153.5218 1143.466,-154.5116 1146.3856,-160.8737"/>
</g>
<!-- Node16&#45;&gt;Node6 -->
<g id="edge25" class="edge">
<title>Node16&#45;&gt;Node6</title>
<path fill="none" stroke="#191970" d="M1259.4028,-123.4554C1311.3489,-112.6989 1380.2205,-98.4376 1427.8878,-88.5671"/>
<polygon fill="#191970" stroke="#191970" points="1428.6414,-91.9854 1437.724,-86.5303 1427.222,-85.1308 1428.6414,-91.9854"/>
</g>
<!-- Node17&#45;&gt;Node6 -->
<g id="edge33" class="edge">
<title>Node17&#45;&gt;Node6</title>
<path fill="none" stroke="#191970" d="M1822.7712,-257.4827C1853.6985,-248.6952 1894.2261,-234.9323 1903.7484,-221 1911.5228,-209.6252 1909.7616,-202.3963 1903.7484,-190 1882.7546,-146.7203 1863.0166,-141.8204 1818.7484,-123 1772.2667,-103.2385 1636.9185,-89.26 1553.1693,-82.2186"/>
<polygon fill="#191970" stroke="#191970" points="1553.2243,-78.7112 1542.9695,-81.3738 1552.6465,-85.6873 1553.2243,-78.7112"/>
</g>
<!-- Node17&#45;&gt;Node10 -->
<g id="edge32" class="edge">
<title>Node17&#45;&gt;Node10</title>
<path fill="none" stroke="#191970" d="M1821.7981,-257.4746C1852.867,-248.9379 1898.741,-235.5479 1937.7484,-221 2006.1603,-195.4857 2021.3682,-184.4109 2087.7484,-154 2088.9137,-153.4661 2090.1012,-152.9198 2091.2999,-152.3662"/>
<polygon fill="#191970" stroke="#191970" points="2092.9428,-155.4621 2100.5324,-148.0697 2089.9893,-149.1157 2092.9428,-155.4621"/>
</g>
<!-- Node17&#45;&gt;Node12 -->
<g id="edge35" class="edge">
<title>Node17&#45;&gt;Node12</title>
<path fill="none" stroke="#191970" d="M1829.3464,-257.4581C1880.4685,-246.2694 1964.9627,-227.777 2018.151,-216.1361"/>
<polygon fill="#191970" stroke="#191970" points="2019.007,-219.5317 2028.0274,-213.9745 2017.5103,-212.6935 2019.007,-219.5317"/>
</g>
<!-- Node18 -->
<g id="node18" class="node">
<title>Node18</title>
<g id="a_node18"><a xlink:href="libsbml-config_8h.html" target="_top" xlink:title="Decides whether to #include Unix or Windows configuration variables. ">
<polygon fill="#ffffff" stroke="#000000" points="1782.2484,-190.5 1782.2484,-220.5 1895.2484,-220.5 1895.2484,-190.5 1782.2484,-190.5"/>
<text text-anchor="start" x="1790.2484" y="-208.5" font-family="Helvetica,sans-Serif" font-size="10.00" fill="#000000">sbml/common/libsbml</text>
<text text-anchor="middle" x="1838.7484" y="-197.5" font-family="Helvetica,sans-Serif" font-size="10.00" fill="#000000">&#45;config.h</text>
</a>
</g>
</g>
<!-- Node17&#45;&gt;Node18 -->
<g id="edge27" class="edge">
<title>Node17&#45;&gt;Node18</title>
<path fill="none" stroke="#191970" d="M1794.0297,-257.3906C1800.7377,-249.6068 1810.4644,-238.3202 1819.1344,-228.2597"/>
<polygon fill="#191970" stroke="#191970" points="1821.9063,-230.4046 1825.7832,-220.5446 1816.6037,-225.8349 1821.9063,-230.4046"/>
</g>
<!-- Node21 -->
<g id="node21" class="node">
<title>Node21</title>
<g id="a_node21"><a xlink:href="memory_8h.html" target="_top" xlink:title="sbml/util/memory.h">
<polygon fill="#ffffff" stroke="#000000" points="1549.7484,-196 1549.7484,-215 1649.7484,-215 1649.7484,-196 1549.7484,-196"/>
<text text-anchor="middle" x="1599.7484" y="-203" font-family="Helvetica,sans-Serif" font-size="10.00" fill="#000000">sbml/util/memory.h</text>
</a>
</g>
</g>
<!-- Node17&#45;&gt;Node21 -->
<g id="edge34" class="edge">
<title>Node17&#45;&gt;Node21</title>
<path fill="none" stroke="#191970" d="M1756.6859,-257.3906C1724.8823,-246.8749 1673.7433,-229.966 1638.5341,-218.3243"/>
<polygon fill="#191970" stroke="#191970" points="1639.2001,-214.8582 1628.6069,-215.0419 1637.0026,-221.5043 1639.2001,-214.8582"/>
</g>
<!-- Node18&#45;&gt;Node7 -->
<g id="edge28" class="edge">
<title>Node18&#45;&gt;Node7</title>
<path fill="none" stroke="#191970" d="M1839.2737,-190.3582C1839.0681,-172.0659 1835.9095,-141.4559 1818.7484,-123 1782.0903,-83.5759 1637.0873,-47.4763 1550.3228,-28.8144"/>
<polygon fill="#191970" stroke="#191970" points="1550.8107,-25.3399 1540.301,-26.6806 1549.3529,-32.1865 1550.8107,-25.3399"/>
</g>
<!-- Node19 -->
<g id="node19" class="node">
<title>Node19</title>
<g id="a_node19"><a xlink:href="libsbml-config-common_8h.html" target="_top" xlink:title="Configuration variables. ">
<polygon fill="#ffffff" stroke="#000000" points="1697.2484,-123.5 1697.2484,-153.5 1810.2484,-153.5 1810.2484,-123.5 1697.2484,-123.5"/>
<text text-anchor="start" x="1705.2484" y="-141.5" font-family="Helvetica,sans-Serif" font-size="10.00" fill="#000000">sbml/common/libsbml</text>
<text text-anchor="middle" x="1753.7484" y="-130.5" font-family="Helvetica,sans-Serif" font-size="10.00" fill="#000000">&#45;config&#45;common.h</text>
</a>
</g>
</g>
<!-- Node18&#45;&gt;Node19 -->
<g id="edge29" class="edge">
<title>Node18&#45;&gt;Node19</title>
<path fill="none" stroke="#191970" d="M1819.4606,-190.2967C1808.0495,-181.302 1793.4178,-169.7687 1780.8589,-159.8694"/>
<polygon fill="#191970" stroke="#191970" points="1782.9802,-157.0849 1772.9599,-153.6432 1778.6468,-162.5824 1782.9802,-157.0849"/>
</g>
<!-- Node20 -->
<g id="node20" class="node">
<title>Node20</title>
<g id="a_node20"><a xlink:href="libsbml-version_8h.html" target="_top" xlink:title="Define libSBML version numbers for access from client software. ">
<polygon fill="#ffffff" stroke="#000000" points="1558.2484,-123.5 1558.2484,-153.5 1671.2484,-153.5 1671.2484,-123.5 1558.2484,-123.5"/>
<text text-anchor="start" x="1566.2484" y="-141.5" font-family="Helvetica,sans-Serif" font-size="10.00" fill="#000000">sbml/common/libsbml</text>
<text text-anchor="middle" x="1614.7484" y="-130.5" font-family="Helvetica,sans-Serif" font-size="10.00" fill="#000000">&#45;version.h</text>
</a>
</g>
</g>
<!-- Node18&#45;&gt;Node20 -->
<g id="edge30" class="edge">
<title>Node18&#45;&gt;Node20</title>
<path fill="none" stroke="#191970" d="M1788.4785,-190.4639C1754.8757,-180.4131 1710.4918,-167.1375 1674.997,-156.5208"/>
<polygon fill="#191970" stroke="#191970" points="1675.8213,-153.1142 1665.2377,-153.6017 1673.8153,-159.8206 1675.8213,-153.1142"/>
</g>
<!-- Node20&#45;&gt;Node6 -->
<g id="edge31" class="edge">
<title>Node20&#45;&gt;Node6</title>
<path fill="none" stroke="#191970" d="M1582.7022,-123.4554C1561.5156,-113.509 1533.9457,-100.5659 1513.2897,-90.8686"/>
<polygon fill="#191970" stroke="#191970" points="1514.5883,-87.6118 1504.0488,-86.5303 1511.6135,-93.9483 1514.5883,-87.6118"/>
</g>
<!-- Node22&#45;&gt;Node6 -->
<g id="edge37" class="edge">
<title>Node22&#45;&gt;Node6</title>
<path fill="none" stroke="#191970" d="M2025.6555,-425.3891C2065.7421,-404.7693 2155.2975,-351.9923 2189.7484,-277 2209.4623,-234.0871 2286.6676,-229.9924 2174.7484,-123 2152.4984,-101.7295 1723.5425,-85.0498 1552.9029,-79.2304"/>
<polygon fill="#191970" stroke="#191970" points="1552.887,-75.7279 1542.7742,-78.8874 1552.65,-82.7239 1552.887,-75.7279"/>
</g>
<!-- Node22&#45;&gt;Node8 -->
<g id="edge43" class="edge">
<title>Node22&#45;&gt;Node8</title>
<path fill="none" stroke="#191970" d="M1971.0234,-425.3733C1936.9976,-415.9404 1885.0047,-401.5265 1848.025,-391.2747"/>
<polygon fill="#191970" stroke="#191970" points="1848.592,-387.7999 1838.0204,-388.5011 1846.7218,-394.5455 1848.592,-387.7999"/>
</g>
<!-- Node22&#45;&gt;Node9 -->
<g id="edge38" class="edge">
<title>Node22&#45;&gt;Node9</title>
<path fill="none" stroke="#191970" d="M2004.6266,-425.3162C2002.0366,-404.4176 1994.838,-353.6876 1981.7484,-313 1978.7667,-303.7314 1974.427,-293.8601 1970.4657,-285.6478"/>
<polygon fill="#191970" stroke="#191970" points="1973.5451,-283.9802 1965.9382,-276.6056 1967.2859,-287.1144 1973.5451,-283.9802"/>
</g>
<!-- Node23 -->
<g id="node23" class="node">
<title>Node23</title>
<g id="a_node23"><a xlink:href="_x_m_l_error_log_8h.html" target="_top" xlink:title="Stores errors (and messages) encountered while processing XML. ">
<polygon fill="#ffffff" stroke="#000000" points="1774.2484,-313.5 1774.2484,-332.5 1901.2484,-332.5 1901.2484,-313.5 1774.2484,-313.5"/>
<text text-anchor="middle" x="1837.7484" y="-320.5" font-family="Helvetica,sans-Serif" font-size="10.00" fill="#000000">sbml/xml/XMLErrorLog.h</text>
</a>
</g>
</g>
<!-- Node22&#45;&gt;Node23 -->
<g id="edge39" class="edge">
<title>Node22&#45;&gt;Node23</title>
<path fill="none" stroke="#191970" d="M1991.4249,-425.4509C1962.2886,-406.0268 1895.9039,-361.7703 1860.6827,-338.2895"/>
<polygon fill="#191970" stroke="#191970" points="1862.2978,-335.1598 1852.0358,-332.5249 1858.4148,-340.9841 1862.2978,-335.1598"/>
</g>
<!-- Node23&#45;&gt;Node3 -->
<g id="edge42" class="edge">
<title>Node23&#45;&gt;Node3</title>
<path fill="none" stroke="#191970" d="M1774.2169,-317.2801C1675.3371,-308.1508 1489.1837,-289.993 1423.7484,-277 1406.6751,-273.6099 1139.8704,-193.136 1122.7484,-190 921.8915,-153.2121 680.4846,-142.7004 561.477,-139.6986"/>
<polygon fill="#191970" stroke="#191970" points="561.4689,-136.1975 551.3872,-139.4548 561.2997,-143.1954 561.4689,-136.1975"/>
</g>
<!-- Node23&#45;&gt;Node9 -->
<g id="edge41" class="edge">
<title>Node23&#45;&gt;Node9</title>
<path fill="none" stroke="#191970" d="M1858.8929,-313.3733C1878.6376,-304.3838 1908.3183,-290.8706 1930.5539,-280.7471"/>
<polygon fill="#191970" stroke="#191970" points="1932.2291,-283.8302 1939.8799,-276.5011 1929.3285,-277.4594 1932.2291,-283.8302"/>
</g>
<!-- Node23&#45;&gt;Node11 -->
<g id="edge40" class="edge">
<title>Node23&#45;&gt;Node11</title>
<path fill="none" stroke="#191970" d="M1774.1802,-317.5974C1706.3557,-311.062 1596.0573,-298.2137 1502.7484,-277 1379.3973,-248.9561 1353.2313,-225.2687 1231.7484,-190 1181.2785,-175.3476 1123.0067,-160.4289 1082.8112,-150.4464"/>
<polygon fill="#191970" stroke="#191970" points="1083.5451,-147.0225 1072.9972,-148.018 1081.8637,-153.8176 1083.5451,-147.0225"/>
</g>
<!-- Node24&#45;&gt;Node3 -->
<g id="edge46" class="edge">
<title>Node24&#45;&gt;Node3</title>
<path fill="none" stroke="#191970" d="M1425.6195,-611.535C1320.6547,-603.8587 1040.7484,-575.9408 1040.7484,-496.5 1040.7484,-496.5 1040.7484,-496.5 1040.7484,-435 1040.7484,-245.8003 850.7477,-285.1312 672.7484,-221 615.8938,-200.5159 552.0079,-170.3581 516.1489,-152.7439"/>
<polygon fill="#191970" stroke="#191970" points="517.3228,-149.42 506.8071,-148.1269 514.2212,-155.6954 517.3228,-149.42"/>
</g>
<!-- Node24&#45;&gt;Node6 -->
<g id="edge45" class="edge">
<title>Node24&#45;&gt;Node6</title>
<path fill="none" stroke="#191970" d="M1462.1066,-604.3367C1456.8859,-584.3617 1445.7484,-537.002 1445.7484,-496.5 1445.7484,-496.5 1445.7484,-496.5 1445.7484,-205.5 1445.7484,-165.195 1463.1525,-120.5903 1474.4039,-95.9654"/>
<polygon fill="#191970" stroke="#191970" points="1477.6715,-97.2425 1478.7806,-86.7058 1471.3429,-94.2511 1477.6715,-97.2425"/>
</g>
<!-- Node24&#45;&gt;Node9 -->
<g id="edge103" class="edge">
<title>Node24&#45;&gt;Node9</title>
<path fill="none" stroke="#191970" d="M1492.0631,-604.4808C1553.6237,-582.2933 1706.5013,-523.0432 1817.7484,-445 1876.4161,-403.8429 1893.5425,-392.3236 1933.7484,-333 1943.5037,-318.6061 1950.682,-300.1398 1955.1744,-286.4023"/>
<polygon fill="#191970" stroke="#191970" points="1958.6049,-287.1542 1958.1995,-276.5672 1951.9142,-285.0963 1958.6049,-287.1542"/>
</g>
<!-- Node24&#45;&gt;Node14 -->
<g id="edge92" class="edge">
<title>Node24&#45;&gt;Node14</title>
<path fill="none" stroke="#191970" d="M1473.159,-604.4023C1489.0145,-585.2833 1521.7484,-540.4854 1521.7484,-496.5 1521.7484,-496.5 1521.7484,-496.5 1521.7484,-435 1521.7484,-385.6478 1576.2499,-353.1337 1614.4016,-336.4194"/>
<polygon fill="#191970" stroke="#191970" points="1615.8425,-339.6104 1623.7058,-332.5097 1613.1308,-333.157 1615.8425,-339.6104"/>
</g>
<!-- Node25 -->
<g id="node25" class="node">
<title>Node25</title>
<g id="a_node25"><a xlink:href="_s_b_m_l_type_codes_8h.html" target="_top" xlink:title="Enumeration to identify SBML objects at runtime. ">
<polygon fill="#ffffff" stroke="#000000" points="1512.2484,-257.5 1512.2484,-276.5 1639.2484,-276.5 1639.2484,-257.5 1512.2484,-257.5"/>
<text text-anchor="middle" x="1575.7484" y="-264.5" font-family="Helvetica,sans-Serif" font-size="10.00" fill="#000000">sbml/SBMLTypeCodes.h</text>
</a>
</g>
</g>
<!-- Node24&#45;&gt;Node25 -->
<g id="edge47" class="edge">
<title>Node24&#45;&gt;Node25</title>
<path fill="none" stroke="#191970" d="M1467.3903,-604.3367C1472.611,-584.3617 1483.7484,-537.002 1483.7484,-496.5 1483.7484,-496.5 1483.7484,-496.5 1483.7484,-435 1483.7484,-373.2573 1532.1434,-312.7028 1558.7335,-284.0916"/>
<polygon fill="#191970" stroke="#191970" points="1561.529,-286.232 1565.9028,-276.5821 1556.4659,-281.3982 1561.529,-286.232"/>
</g>
<!-- Node26 -->
<g id="node26" class="node">
<title>Node26</title>
<g id="a_node26"><a xlink:href="_r_d_f_annotation_8h.html" target="_top" xlink:title="RDFAnnotation I/O. ">
<polygon fill="#ffffff" stroke="#000000" points="731.2484,-548.5 731.2484,-567.5 898.2484,-567.5 898.2484,-548.5 731.2484,-548.5"/>
<text text-anchor="middle" x="814.7484" y="-555.5" font-family="Helvetica,sans-Serif" font-size="10.00" fill="#000000">sbml/annotation/RDFAnnotation.h</text>
</a>
</g>
</g>
<!-- Node24&#45;&gt;Node26 -->
<g id="edge50" class="edge">
<title>Node24&#45;&gt;Node26</title>
<path fill="none" stroke="#191970" d="M1425.5518,-610.6231C1324.5674,-601.9229 1053.3118,-578.5532 908.6426,-566.0893"/>
<polygon fill="#191970" stroke="#191970" points="908.7128,-562.5825 898.4493,-565.2111 908.1119,-569.5567 908.7128,-562.5825"/>
</g>
<!-- Node30 -->
<g id="node30" class="node">
<title>Node30</title>
<g id="a_node30"><a xlink:href="_list_8h.html" target="_top" xlink:title="Simple, generic list utility class. ">
<polygon fill="#ffffff" stroke="#000000" points="751.7484,-313.5 751.7484,-332.5 831.7484,-332.5 831.7484,-313.5 751.7484,-313.5"/>
<text text-anchor="middle" x="791.7484" y="-320.5" font-family="Helvetica,sans-Serif" font-size="10.00" fill="#000000">sbml/util/List.h</text>
</a>
</g>
</g>
<!-- Node24&#45;&gt;Node30 -->
<g id="edge91" class="edge">
<title>Node24&#45;&gt;Node30</title>
<path fill="none" stroke="#191970" d="M1425.408,-612.275C1323.6512,-607.4791 1057.5452,-592.6907 1026.7484,-568 1000.5956,-547.0325 1002.7484,-530.0202 1002.7484,-496.5 1002.7484,-496.5 1002.7484,-496.5 1002.7484,-435 1002.7484,-362.5179 904.4065,-336.802 841.9982,-327.7801"/>
<polygon fill="#191970" stroke="#191970" points="842.3105,-324.2907 831.9326,-326.4234 841.3754,-331.2279 842.3105,-324.2907"/>
</g>
<!-- Node32 -->
<g id="node32" class="node">
<title>Node32</title>
<g id="a_node32"><a xlink:href="_x_m_l_node_8h.html" target="_top" xlink:title="Class definition of XMLNode_t, a node in an XML document tree. ">
<polygon fill="#ffffff" stroke="#000000" points="505.7484,-313.5 505.7484,-332.5 617.7484,-332.5 617.7484,-313.5 505.7484,-313.5"/>
<text text-anchor="middle" x="561.7484" y="-320.5" font-family="Helvetica,sans-Serif" font-size="10.00" fill="#000000">sbml/xml/XMLNode.h</text>
</a>
</g>
</g>
<!-- Node24&#45;&gt;Node32 -->
<g id="edge102" class="edge">
<title>Node24&#45;&gt;Node32</title>
<path fill="none" stroke="#191970" d="M1425.7245,-613.2147C1281.8319,-610.0972 785.9743,-597.3093 721.7484,-568 681.0422,-549.4238 575.5991,-414.0978 565.7484,-389 559.9816,-374.3071 559.2557,-356.3575 559.8193,-342.8883"/>
<polygon fill="#191970" stroke="#191970" points="563.3188,-343.0145 560.5136,-332.7978 556.3353,-342.5339 563.3188,-343.0145"/>
</g>
<!-- Node36 -->
<g id="node36" class="node">
<title>Node36</title>
<g id="a_node36"><a xlink:href="_c_v_term_8h.html" target="_top" xlink:title="Definition of a CVTerm_t class for adding annotations to a Model_t. ">
<polygon fill="#ffffff" stroke="#000000" points="1130.2484,-257.5 1130.2484,-276.5 1265.2484,-276.5 1265.2484,-257.5 1130.2484,-257.5"/>
<text text-anchor="middle" x="1197.7484" y="-264.5" font-family="Helvetica,sans-Serif" font-size="10.00" fill="#000000">sbml/annotation/CVTerm.h</text>
</a>
</g>
</g>
<!-- Node24&#45;&gt;Node36 -->
<g id="edge86" class="edge">
<title>Node24&#45;&gt;Node36</title>
<path fill="none" stroke="#191970" d="M1452.8734,-604.3867C1431.4984,-585.9165 1388.7484,-543.1455 1388.7484,-496.5 1388.7484,-496.5 1388.7484,-496.5 1388.7484,-379 1388.7484,-321.1898 1322.8327,-292.6498 1268.4468,-278.9406"/>
<polygon fill="#191970" stroke="#191970" points="1268.9842,-275.4705 1258.4445,-276.5496 1267.3567,-282.2787 1268.9842,-275.4705"/>
</g>
<!-- Node37 -->
<g id="node37" class="node">
<title>Node37</title>
<g id="a_node37"><a xlink:href="_syntax_checker_8h.html" target="_top" xlink:title="Syntax checking functions. ">
<polygon fill="#ffffff" stroke="#000000" points="1550.2484,-425.5 1550.2484,-444.5 1667.2484,-444.5 1667.2484,-425.5 1550.2484,-425.5"/>
<text text-anchor="middle" x="1608.7484" y="-432.5" font-family="Helvetica,sans-Serif" font-size="10.00" fill="#000000">sbml/SyntaxChecker.h</text>
</a>
</g>
</g>
<!-- Node24&#45;&gt;Node37 -->
<g id="edge93" class="edge">
<title>Node24&#45;&gt;Node37</title>
<path fill="none" stroke="#191970" d="M1477.675,-604.3524C1491.3962,-596.2838 1512.2483,-583.5979 1526.7484,-568 1559.1722,-533.1216 1582.2085,-481.1715 1596.1152,-453.6593"/>
<polygon fill="#191970" stroke="#191970" points="1599.2671,-455.1854 1600.8261,-444.7059 1593.0722,-451.9259 1599.2671,-455.1854"/>
</g>
<!-- Node24&#45;&gt;Node38 -->
<g id="edge97" class="edge">
<title>Node24&#45;&gt;Node38</title>
<path fill="none" stroke="#191970" d="M1503.8627,-611.8788C1589.7165,-606.8238 1792.0767,-592.6165 1855.7484,-568 1888.1749,-555.4634 1919.8236,-529.9317 1938.5554,-513.0185"/>
<polygon fill="#191970" stroke="#191970" points="1941.0199,-515.5065 1945.9833,-506.1462 1936.2661,-510.3683 1941.0199,-515.5065"/>
</g>
<!-- Node39 -->
<g id="node39" class="node">
<title>Node39</title>
<g id="a_node39"><a xlink:href="_expected_attributes_8h.html" target="_top" xlink:title="Definition of ExpectedAttributes, the class allowing the specification of attributes to expect...">
<polygon fill="#ffffff" stroke="#000000" points="250.2484,-548.5 250.2484,-567.5 383.2484,-567.5 383.2484,-548.5 250.2484,-548.5"/>
<text text-anchor="middle" x="316.7484" y="-555.5" font-family="Helvetica,sans-Serif" font-size="10.00" fill="#000000">sbml/ExpectedAttributes.h</text>
</a>
</g>
</g>
<!-- Node24&#45;&gt;Node39 -->
<g id="edge100" class="edge">
<title>Node24&#45;&gt;Node39</title>
<path fill="none" stroke="#191970" d="M1425.4375,-613.4361C1285.4561,-611.1877 798.2535,-601.3024 397.7484,-568 396.4379,-567.891 395.1159,-567.7768 393.785,-567.6579"/>
<polygon fill="#191970" stroke="#191970" points="393.7395,-564.1374 383.45,-566.6623 393.0683,-571.1051 393.7395,-564.1374"/>
</g>
<!-- Node25&#45;&gt;Node6 -->
<g id="edge49" class="edge">
<title>Node25&#45;&gt;Node6</title>
<path fill="none" stroke="#191970" d="M1567.1237,-257.3216C1559.4653,-248.3719 1548.342,-234.4595 1540.7484,-221 1517.0716,-179.0333 1498.611,-125.255 1489.6665,-96.7685"/>
<polygon fill="#191970" stroke="#191970" points="1492.9009,-95.3786 1486.6176,-86.8481 1486.2098,-97.4351 1492.9009,-95.3786"/>
</g>
<!-- Node25&#45;&gt;Node18 -->
<g id="edge48" class="edge">
<title>Node25&#45;&gt;Node18</title>
<path fill="none" stroke="#191970" d="M1616.5536,-257.4581C1658.1279,-247.7364 1723.2834,-232.5004 1772.3095,-221.0361"/>
<polygon fill="#191970" stroke="#191970" points="1773.2593,-224.4085 1782.1996,-218.7234 1771.6654,-217.5924 1773.2593,-224.4085"/>
</g>
<!-- Node27 -->
<g id="node27" class="node">
<title>Node27</title>
<g id="a_node27"><a xlink:href="_r_d_f_annotation_parser_8h.html" target="_top" xlink:title="RDFAnnotationParser.h">
<polygon fill="#ffffff" stroke="#000000" points="676.2484,-487 676.2484,-506 799.2484,-506 799.2484,-487 676.2484,-487"/>
<text text-anchor="middle" x="737.7484" y="-494" font-family="Helvetica,sans-Serif" font-size="10.00" fill="#000000">RDFAnnotationParser.h</text>
</a>
</g>
</g>
<!-- Node26&#45;&gt;Node27 -->
<g id="edge51" class="edge">
<title>Node26&#45;&gt;Node27</title>
<path fill="none" stroke="#191970" d="M802.7172,-548.3906C790.7378,-538.8227 772.1318,-523.9621 757.896,-512.5919"/>
<polygon fill="#191970" stroke="#191970" points="759.6931,-509.5479 749.6952,-506.0419 755.3246,-515.0175 759.6931,-509.5479"/>
</g>
<!-- Node27&#45;&gt;Node3 -->
<g id="edge53" class="edge">
<title>Node27&#45;&gt;Node3</title>
<path fill="none" stroke="#191970" d="M701.2606,-486.9316C636.417,-468.135 500.6214,-420.4128 422.7484,-333 379.361,-284.2973 356.0193,-245.828 389.7484,-190 400.8017,-171.7049 420.7459,-159.5862 439.7704,-151.7303"/>
<polygon fill="#191970" stroke="#191970" points="441.1884,-154.9355 449.2868,-148.1043 438.696,-148.3942 441.1884,-154.9355"/>
</g>
<!-- Node27&#45;&gt;Node6 -->
<g id="edge52" class="edge">
<title>Node27&#45;&gt;Node6</title>
<path fill="none" stroke="#191970" d="M682.6799,-486.9963C531.2448,-458.3985 127.4243,-364.1931 245.7484,-190 291.1489,-123.1629 335.7288,-139.8609 414.7484,-123 511.8775,-102.275 1192.728,-84.0752 1414.2685,-78.6445"/>
<polygon fill="#191970" stroke="#191970" points="1414.5551,-82.1387 1424.4667,-78.3956 1414.3842,-75.1408 1414.5551,-82.1387"/>
</g>
<!-- Node28 -->
<g id="node28" class="node">
<title>Node28</title>
<g id="a_node28"><a xlink:href="_x_m_l_attributes_8h.html" target="_top" xlink:title="XMLAttributes_t are a list of name/value pairs for XML elements. ">
<polygon fill="#ffffff" stroke="#000000" points="819.7484,-196 819.7484,-215 949.7484,-215 949.7484,-196 819.7484,-196"/>
<text text-anchor="middle" x="884.7484" y="-203" font-family="Helvetica,sans-Serif" font-size="10.00" fill="#000000">sbml/xml/XMLAttributes.h</text>
</a>
</g>
</g>
<!-- Node27&#45;&gt;Node28 -->
<g id="edge54" class="edge">
<title>Node27&#45;&gt;Node28</title>
<path fill="none" stroke="#191970" d="M779.9511,-486.896C826.9416,-473.6967 900.6298,-444.9375 933.7484,-389 966.1326,-334.303 921.9598,-257.93 898.165,-223.5414"/>
<polygon fill="#191970" stroke="#191970" points="900.9976,-221.4853 892.3433,-215.3736 895.2973,-225.5483 900.9976,-221.4853"/>
</g>
<!-- Node29 -->
<g id="node29" class="node">
<title>Node29</title>
<g id="a_node29"><a xlink:href="_model_history_8h.html" target="_top" xlink:title="ModelHistory_t I/O. ">
<polygon fill="#ffffff" stroke="#000000" points="659.2484,-425.5 659.2484,-444.5 816.2484,-444.5 816.2484,-425.5 659.2484,-425.5"/>
<text text-anchor="middle" x="737.7484" y="-432.5" font-family="Helvetica,sans-Serif" font-size="10.00" fill="#000000">sbml/annotation/ModelHistory.h</text>
</a>
</g>
</g>
<!-- Node27&#45;&gt;Node29 -->
<g id="edge58" class="edge">
<title>Node27&#45;&gt;Node29</title>
<path fill="none" stroke="#191970" d="M737.7484,-486.8906C737.7484,-478.3657 737.7484,-465.6392 737.7484,-454.9235"/>
<polygon fill="#191970" stroke="#191970" points="741.2485,-454.7448 737.7484,-444.7449 734.2485,-454.7449 741.2485,-454.7448"/>
</g>
<!-- Node28&#45;&gt;Node3 -->
<g id="edge56" class="edge">
<title>Node28&#45;&gt;Node3</title>
<path fill="none" stroke="#191970" d="M837.5918,-195.9819C827.1201,-193.9425 816.067,-191.8473 805.7484,-190 721.7457,-174.9614 624.9066,-159.5538 560.3765,-149.5599"/>
<polygon fill="#191970" stroke="#191970" points="560.7214,-146.0717 550.3041,-148.0033 559.6522,-152.9896 560.7214,-146.0717"/>
</g>
<!-- Node28&#45;&gt;Node11 -->
<g id="edge55" class="edge">
<title>Node28&#45;&gt;Node11</title>
<path fill="none" stroke="#191970" d="M906.0965,-195.9005C931.5447,-184.4574 974.2576,-165.2509 1003.1982,-152.2374"/>
<polygon fill="#191970" stroke="#191970" points="1004.755,-155.3749 1012.44,-148.0817 1001.8842,-148.9907 1004.755,-155.3749"/>
</g>
<!-- Node28&#45;&gt;Node16 -->
<g id="edge57" class="edge">
<title>Node28&#45;&gt;Node16</title>
<path fill="none" stroke="#191970" d="M927.697,-195.9717C974.8025,-185.5211 1051.3689,-168.5345 1109.0713,-155.733"/>
<polygon fill="#191970" stroke="#191970" points="1109.8825,-159.1382 1118.887,-153.5553 1108.3663,-152.3044 1109.8825,-159.1382"/>
</g>
<!-- Node29&#45;&gt;Node3 -->
<g id="edge60" class="edge">
<title>Node29&#45;&gt;Node3</title>
<path fill="none" stroke="#191970" d="M668.1365,-425.4848C604.143,-413.5727 509.8975,-387.6511 446.7484,-333 396.7545,-289.7338 373.7607,-247.8631 405.7484,-190 415.199,-172.9048 432.9637,-160.7185 449.5483,-152.5067"/>
<polygon fill="#191970" stroke="#191970" points="451.4742,-155.474 459.1049,-148.124 448.5561,-149.1113 451.4742,-155.474"/>
</g>
<!-- Node29&#45;&gt;Node6 -->
<g id="edge59" class="edge">
<title>Node29&#45;&gt;Node6</title>
<path fill="none" stroke="#191970" d="M816.4495,-425.4619C926.0917,-409.2763 1127.7551,-368.7742 1273.7484,-277 1356.768,-224.8123 1359.893,-189.7278 1431.7484,-123 1442.5127,-113.0039 1454.8134,-102.0999 1464.7479,-93.4179"/>
<polygon fill="#191970" stroke="#191970" points="1467.2036,-95.9207 1472.4508,-86.7164 1462.609,-90.6396 1467.2036,-95.9207"/>
</g>
<!-- Node29&#45;&gt;Node16 -->
<g id="edge61" class="edge">
<title>Node29&#45;&gt;Node16</title>
<path fill="none" stroke="#191970" d="M806.9721,-425.4341C845.4744,-418.4876 893.5827,-407.0619 933.7484,-389 1026.5302,-347.2774 1035.7246,-312.8586 1120.7484,-257 1146.4217,-240.1333 1163.5933,-247.127 1179.7484,-221 1190.2659,-203.9906 1191.4192,-181.103 1190.2801,-163.7499"/>
<polygon fill="#191970" stroke="#191970" points="1193.7617,-163.3894 1189.3378,-153.7624 1186.7926,-164.0469 1193.7617,-163.3894"/>
</g>
<!-- Node29&#45;&gt;Node30 -->
<g id="edge62" class="edge">
<title>Node29&#45;&gt;Node30</title>
<path fill="none" stroke="#191970" d="M739.3962,-425.1867C741.8822,-411.9166 747.3312,-387.7541 756.7484,-369 761.8954,-358.75 769.4232,-348.4832 776.1799,-340.2578"/>
<polygon fill="#191970" stroke="#191970" points="778.9667,-342.3844 782.8099,-332.5112 773.6485,-337.8328 778.9667,-342.3844"/>
</g>
<!-- Node29&#45;&gt;Node32 -->
<g id="edge66" class="edge">
<title>Node29&#45;&gt;Node32</title>
<path fill="none" stroke="#191970" d="M686.2167,-425.4696C646.412,-417.1201 595.6756,-403.9977 580.7484,-389 568.5493,-376.7431 564.0743,-357.191 562.487,-342.5435"/>
<polygon fill="#191970" stroke="#191970" points="565.9728,-342.2199 561.7559,-332.5005 558.9913,-342.7282 565.9728,-342.2199"/>
</g>
<!-- Node34 -->
<g id="node34" class="node">
<title>Node34</title>
<g id="a_node34"><a xlink:href="_date_8h.html" target="_top" xlink:title="Date_t I/O. ">
<polygon fill="#ffffff" stroke="#000000" points="590.2484,-369.5 590.2484,-388.5 709.2484,-388.5 709.2484,-369.5 590.2484,-369.5"/>
<text text-anchor="middle" x="649.7484" y="-376.5" font-family="Helvetica,sans-Serif" font-size="10.00" fill="#000000">sbml/annotation/Date.h</text>
</a>
</g>
</g>
<!-- Node29&#45;&gt;Node34 -->
<g id="edge74" class="edge">
<title>Node29&#45;&gt;Node34</title>
<path fill="none" stroke="#191970" d="M722.42,-425.2455C708.9181,-416.6534 689.0363,-404.0014 673.4799,-394.1018"/>
<polygon fill="#191970" stroke="#191970" points="675.2169,-391.0587 664.9012,-388.6427 671.4588,-396.9643 675.2169,-391.0587"/>
</g>
<!-- Node35 -->
<g id="node35" class="node">
<title>Node35</title>
<g id="a_node35"><a xlink:href="_model_creator_8h.html" target="_top" xlink:title="ModelCreator_t I/O. ">
<polygon fill="#ffffff" stroke="#000000" points="766.2484,-369.5 766.2484,-388.5 925.2484,-388.5 925.2484,-369.5 766.2484,-369.5"/>
<text text-anchor="middle" x="845.7484" y="-376.5" font-family="Helvetica,sans-Serif" font-size="10.00" fill="#000000">sbml/annotation/ModelCreator.h</text>
</a>
</g>
</g>
<!-- Node29&#45;&gt;Node35 -->
<g id="edge80" class="edge">
<title>Node29&#45;&gt;Node35</title>
<path fill="none" stroke="#191970" d="M756.5606,-425.2455C773.5957,-416.4125 798.906,-403.2887 818.2166,-393.2758"/>
<polygon fill="#191970" stroke="#191970" points="819.8854,-396.353 827.1519,-388.6427 816.6632,-390.1388 819.8854,-396.353"/>
</g>
<!-- Node30&#45;&gt;Node3 -->
<g id="edge65" class="edge">
<title>Node30&#45;&gt;Node3</title>
<path fill="none" stroke="#191970" d="M751.6033,-320.0258C690.0769,-314.7373 576.2647,-301.8419 544.7484,-277 507.2659,-247.4553 494.2303,-189.077 489.8541,-158.4007"/>
<polygon fill="#191970" stroke="#191970" points="493.282,-157.6061 488.5679,-148.1179 486.3362,-158.475 493.282,-157.6061"/>
</g>
<!-- Node30&#45;&gt;Node6 -->
<g id="edge63" class="edge">
<title>Node30&#45;&gt;Node6</title>
<path fill="none" stroke="#191970" d="M797.2713,-313.0528C804.1421,-299.1929 813.6102,-273.8772 801.7484,-257 774.5867,-218.3535 728.9102,-259.6465 701.7484,-221 676.7034,-185.3653 671.868,-154.6898 701.7484,-123 726.014,-97.2651 1227.4073,-82.9762 1414.319,-78.5275"/>
<polygon fill="#191970" stroke="#191970" points="1414.6626,-82.0205 1424.5774,-78.2857 1414.4976,-75.0224 1414.6626,-82.0205"/>
</g>
<!-- Node31 -->
<g id="node31" class="node">
<title>Node31</title>
<polygon fill="#ffffff" stroke="#bfbfbf" points="744.2484,-257.5 744.2484,-276.5 793.2484,-276.5 793.2484,-257.5 744.2484,-257.5"/>
<text text-anchor="middle" x="768.7484" y="-264.5" font-family="Helvetica,sans-Serif" font-size="10.00" fill="#000000">string.h</text>
</g>
<!-- Node30&#45;&gt;Node31 -->
<g id="edge64" class="edge">
<title>Node30&#45;&gt;Node31</title>
<path fill="none" stroke="#191970" d="M787.7422,-313.2455C784.675,-305.7776 780.3481,-295.2427 776.5987,-286.1137"/>
<polygon fill="#191970" stroke="#191970" points="779.7457,-284.5631 772.7088,-276.6427 773.2705,-287.2226 779.7457,-284.5631"/>
</g>
<!-- Node32&#45;&gt;Node3 -->
<g id="edge73" class="edge">
<title>Node32&#45;&gt;Node3</title>
<path fill="none" stroke="#191970" d="M520.9574,-313.4886C488.1312,-304.9113 445.8593,-291.4548 435.7484,-277 413.5857,-245.3153 420.8651,-225.6875 435.7484,-190 441.6723,-175.7957 453.6315,-163.5036 464.5887,-154.4942"/>
<polygon fill="#191970" stroke="#191970" points="466.8785,-157.1482 472.6559,-148.2672 462.6012,-151.607 466.8785,-157.1482"/>
</g>
<!-- Node32&#45;&gt;Node11 -->
<g id="edge67" class="edge">
<title>Node32&#45;&gt;Node11</title>
<path fill="none" stroke="#191970" d="M554.6557,-313.1883C545.7033,-299.4893 532.8281,-274.3636 544.7484,-257 591.6501,-188.6816 638.7687,-211.6887 718.7484,-190 802.1318,-167.3884 900.7861,-153.217 965.1834,-145.592"/>
<polygon fill="#191970" stroke="#191970" points="965.6888,-149.0569 975.2171,-144.4242 964.8794,-142.1039 965.6888,-149.0569"/>
</g>
<!-- Node33 -->
<g id="node33" class="node">
<title>Node33</title>
<g id="a_node33"><a xlink:href="_x_m_l_token_8h.html" target="_top" xlink:title="A unit of XML syntax, either an XML element or text. ">
<polygon fill="#ffffff" stroke="#000000" points="554.2484,-257.5 554.2484,-276.5 669.2484,-276.5 669.2484,-257.5 554.2484,-257.5"/>
<text text-anchor="middle" x="611.7484" y="-264.5" font-family="Helvetica,sans-Serif" font-size="10.00" fill="#000000">sbml/xml/XMLToken.h</text>
</a>
</g>
</g>
<!-- Node32&#45;&gt;Node33 -->
<g id="edge68" class="edge">
<title>Node32&#45;&gt;Node33</title>
<path fill="none" stroke="#191970" d="M570.4578,-313.2455C577.5557,-305.2958 587.7569,-293.8706 596.2435,-284.3656"/>
<polygon fill="#191970" stroke="#191970" points="599.0895,-286.4331 603.1389,-276.6427 593.8679,-281.771 599.0895,-286.4331"/>
</g>
<!-- Node33&#45;&gt;Node3 -->
<g id="edge72" class="edge">
<title>Node33&#45;&gt;Node3</title>
<path fill="none" stroke="#191970" d="M596.2586,-257.3327C583.0946,-248.7073 564.1031,-235.2667 549.7484,-221 529.6978,-201.0723 510.8112,-174.3698 499.2703,-156.8134"/>
<polygon fill="#191970" stroke="#191970" points="502.0141,-154.61 493.6537,-148.102 496.1309,-158.4032 502.0141,-154.61"/>
</g>
<!-- Node33&#45;&gt;Node11 -->
<g id="edge69" class="edge">
<title>Node33&#45;&gt;Node11</title>
<path fill="none" stroke="#191970" d="M633.4744,-257.416C669.6779,-241.7142 744.8837,-210.2357 810.7484,-190 864.9516,-173.3471 928.0209,-159.2569 973.2279,-150.0471"/>
<polygon fill="#191970" stroke="#191970" points="974.0564,-153.4506 983.1669,-148.0422 972.6722,-146.5888 974.0564,-153.4506"/>
</g>
<!-- Node33&#45;&gt;Node28 -->
<g id="edge70" class="edge">
<title>Node33&#45;&gt;Node28</title>
<path fill="none" stroke="#191970" d="M654.1052,-257.4581C702.1242,-246.6406 780.4495,-228.9959 832.2935,-217.3168"/>
<polygon fill="#191970" stroke="#191970" points="833.3061,-220.6765 842.2924,-215.0643 831.7676,-213.8476 833.3061,-220.6765"/>
</g>
<!-- Node33&#45;&gt;Node33 -->
<g id="edge71" class="edge">
<title>Node33&#45;&gt;Node33</title>
<path fill="none" stroke="#191970" d="M643.9493,-276.5252C665.829,-279.3079 687.2484,-276.1328 687.2484,-267 687.2484,-259.2942 671.9996,-255.8298 654.0918,-256.6068"/>
<polygon fill="#191970" stroke="#191970" points="653.6144,-253.1347 643.9493,-257.4748 654.2114,-260.1092 653.6144,-253.1347"/>
</g>
<!-- Node34&#45;&gt;Node3 -->
<g id="edge76" class="edge">
<title>Node34&#45;&gt;Node3</title>
<path fill="none" stroke="#191970" d="M590.1642,-372.6385C533.7868,-362.9222 453.2475,-338.4546 421.7484,-277 404.1102,-242.5878 403.66,-224.6885 420.7484,-190 428.5665,-174.1298 443.8851,-161.7839 457.9036,-153.1633"/>
<polygon fill="#191970" stroke="#191970" points="459.9052,-156.0501 466.836,-148.0368 456.4207,-149.9789 459.9052,-156.0501"/>
</g>
<!-- Node34&#45;&gt;Node6 -->
<g id="edge75" class="edge">
<title>Node34&#45;&gt;Node6</title>
<path fill="none" stroke="#191970" d="M655.797,-369.352C666.4083,-351.7918 687.9882,-313.0841 695.7484,-277 697.6174,-268.3098 697.3874,-265.7365 695.7484,-257 692.5831,-240.1271 685.1652,-237.8238 681.7484,-221 675.8192,-191.805 680.1929,-183.7877 679.7484,-154 679.5429,-140.2238 670.2884,-133.0167 679.7484,-123 704.8016,-96.4725 1223.7624,-82.6181 1414.3434,-78.41"/>
<polygon fill="#191970" stroke="#191970" points="1414.603,-81.9053 1424.5241,-78.1875 1414.45,-74.9069 1414.603,-81.9053"/>
</g>
<!-- Node34&#45;&gt;Node16 -->
<g id="edge77" class="edge">
<title>Node34&#45;&gt;Node16</title>
<path fill="none" stroke="#191970" d="M660.3482,-369.3876C676.7851,-354.9927 709.9559,-327.9348 742.7484,-313 821.8183,-276.989 1049.8017,-268.1976 1122.7484,-221 1145.2728,-206.4264 1163.1435,-181.1307 1174.2134,-162.3806"/>
<polygon fill="#191970" stroke="#191970" points="1177.3485,-163.9472 1179.2314,-153.521 1171.2576,-160.4973 1177.3485,-163.9472"/>
</g>
<!-- Node34&#45;&gt;Node30 -->
<g id="edge78" class="edge">
<title>Node34&#45;&gt;Node30</title>
<path fill="none" stroke="#191970" d="M674.1591,-369.3733C697.3627,-360.2226 732.4523,-346.3844 758.2627,-336.2057"/>
<polygon fill="#191970" stroke="#191970" points="759.6376,-339.4258 767.6563,-332.5011 757.0695,-332.9139 759.6376,-339.4258"/>
</g>
<!-- Node34&#45;&gt;Node32 -->
<g id="edge79" class="edge">
<title>Node34&#45;&gt;Node32</title>
<path fill="none" stroke="#191970" d="M634.42,-369.2455C620.9181,-360.6534 601.0363,-348.0014 585.4799,-338.1018"/>
<polygon fill="#191970" stroke="#191970" points="587.2169,-335.0587 576.9012,-332.6427 583.4588,-340.9643 587.2169,-335.0587"/>
</g>
<!-- Node35&#45;&gt;Node3 -->
<g id="edge82" class="edge">
<title>Node35&#45;&gt;Node3</title>
<path fill="none" stroke="#191970" d="M812.876,-369.4842C739.1132,-347.9027 565.2451,-295.6711 544.7484,-277 509.6364,-245.0154 495.6112,-188.1607 490.4571,-158.2114"/>
<polygon fill="#191970" stroke="#191970" points="493.8886,-157.5002 488.8906,-148.1583 486.9721,-158.578 493.8886,-157.5002"/>
</g>
<!-- Node35&#45;&gt;Node6 -->
<g id="edge81" class="edge">
<title>Node35&#45;&gt;Node6</title>
<path fill="none" stroke="#191970" d="M845.7331,-369.0605C845.5455,-356.0556 844.6309,-332.6141 840.7484,-313 835.2855,-285.4009 795.2972,-213.512 810.7484,-190 851.9649,-127.2816 893.0006,-141.4429 965.7484,-123 1048.7662,-101.9535 1293.2331,-86.8377 1414.2554,-80.4214"/>
<polygon fill="#191970" stroke="#191970" points="1414.713,-83.9023 1424.5156,-79.8826 1414.3458,-76.9119 1414.713,-83.9023"/>
</g>
<!-- Node35&#45;&gt;Node16 -->
<g id="edge83" class="edge">
<title>Node35&#45;&gt;Node16</title>
<path fill="none" stroke="#191970" d="M864.9503,-369.329C932.1751,-335.4569 1153.0185,-224.054 1155.7484,-221 1170.1718,-204.8647 1178.1204,-181.3741 1182.346,-163.5818"/>
<polygon fill="#191970" stroke="#191970" points="1185.8098,-164.1204 1184.4726,-153.6103 1178.9637,-162.6603 1185.8098,-164.1204"/>
</g>
<!-- Node35&#45;&gt;Node30 -->
<g id="edge84" class="edge">
<title>Node35&#45;&gt;Node30</title>
<path fill="none" stroke="#191970" d="M836.3424,-369.2455C828.5991,-361.2155 817.4364,-349.6394 808.2167,-340.0781"/>
<polygon fill="#191970" stroke="#191970" points="810.5076,-337.4117 801.0467,-332.6427 805.4687,-342.2706 810.5076,-337.4117"/>
</g>
<!-- Node35&#45;&gt;Node32 -->
<g id="edge85" class="edge">
<title>Node35&#45;&gt;Node32</title>
<path fill="none" stroke="#191970" d="M797.2498,-369.4369C748.237,-359.7724 672.4707,-344.8326 620.1778,-334.5213"/>
<polygon fill="#191970" stroke="#191970" points="620.5353,-331.0244 610.0471,-332.5237 619.181,-337.8922 620.5353,-331.0244"/>
</g>
<!-- Node36&#45;&gt;Node3 -->
<g id="edge88" class="edge">
<title>Node36&#45;&gt;Node3</title>
<path fill="none" stroke="#191970" d="M1130.225,-261.6902C1052.6737,-254.9647 921.8301,-241.6947 810.7484,-221 708.3438,-201.9219 590.2784,-168.8916 529.1891,-150.9571"/>
<polygon fill="#191970" stroke="#191970" points="530.1106,-147.5798 519.5289,-148.1072 528.1298,-154.2938 530.1106,-147.5798"/>
</g>
<!-- Node36&#45;&gt;Node6 -->
<g id="edge87" class="edge">
<title>Node36&#45;&gt;Node6</title>
<path fill="none" stroke="#191970" d="M1220.2572,-257.3823C1238.833,-248.9808 1265.4959,-235.8311 1286.7484,-221 1339.6319,-184.0953 1340.7813,-159.7845 1393.7484,-123 1411.8681,-110.4163 1433.8962,-99.0983 1451.624,-90.8376"/>
<polygon fill="#191970" stroke="#191970" points="1453.3303,-93.9064 1460.9783,-86.5743 1450.4273,-87.5367 1453.3303,-93.9064"/>
</g>
<!-- Node36&#45;&gt;Node16 -->
<g id="edge89" class="edge">
<title>Node36&#45;&gt;Node16</title>
<path fill="none" stroke="#191970" d="M1224.7128,-257.4934C1240.9198,-250.2188 1260.1993,-238.4326 1269.7484,-221 1276.3676,-208.9164 1276.4471,-202.0397 1269.7484,-190 1262.3125,-176.6351 1249.8146,-166.2953 1236.7442,-158.5077"/>
<polygon fill="#191970" stroke="#191970" points="1238.1092,-155.2643 1227.6592,-153.5184 1234.7395,-161.3999 1238.1092,-155.2643"/>
</g>
<!-- Node36&#45;&gt;Node28 -->
<g id="edge90" class="edge">
<title>Node36&#45;&gt;Node28</title>
<path fill="none" stroke="#191970" d="M1146.8819,-257.459C1098.4651,-248.3185 1023.5809,-234.0281 958.7484,-221 952.5835,-219.7612 946.1345,-218.4432 939.7236,-217.1191"/>
<polygon fill="#191970" stroke="#191970" points="940.2298,-213.6496 929.7271,-215.0437 938.8068,-220.5034 940.2298,-213.6496"/>
</g>
<!-- Node37&#45;&gt;Node6 -->
<g id="edge94" class="edge">
<title>Node37&#45;&gt;Node6</title>
<path fill="none" stroke="#191970" d="M1593.9184,-425.1871C1560.8072,-401.9653 1483.7484,-340.0724 1483.7484,-267 1483.7484,-267 1483.7484,-267 1483.7484,-205.5 1483.7484,-167.0012 1483.7484,-122.0145 1483.7484,-96.7812"/>
<polygon fill="#191970" stroke="#191970" points="1487.2485,-96.6718 1483.7484,-86.6719 1480.2485,-96.6719 1487.2485,-96.6718"/>
</g>
<!-- Node37&#45;&gt;Node12 -->
<g id="edge96" class="edge">
<title>Node37&#45;&gt;Node12</title>
<path fill="none" stroke="#191970" d="M1667.4756,-431.3409C1720.0513,-426.4494 1798.3907,-415.1132 1861.7484,-389 1943.0145,-355.5058 1964.8377,-341.3174 2024.7484,-277 2039.2587,-261.4225 2051.0195,-239.9843 2058.3657,-224.6537"/>
<polygon fill="#191970" stroke="#191970" points="2061.7315,-225.7112 2062.7258,-215.1631 2055.3707,-222.7889 2061.7315,-225.7112"/>
</g>
<!-- Node37&#45;&gt;Node24 -->
<g id="edge95" class="edge">
<title>Node37&#45;&gt;Node24</title>
<path fill="none" stroke="#191970" d="M1609.8509,-444.7059C1605.725,-468.1543 1581.154,-528.8383 1544.7484,-568 1532.7405,-580.917 1516.3765,-591.837 1501.4559,-599.7915"/>
<polygon fill="#191970" stroke="#191970" points="1499.7596,-596.727 1492.4041,-604.3524 1502.9095,-602.9783 1499.7596,-596.727"/>
</g>
<!-- Node38&#45;&gt;Node6 -->
<g id="edge98" class="edge">
<title>Node38&#45;&gt;Node6</title>
<path fill="none" stroke="#191970" d="M2009.1339,-486.9915C2106.8993,-466.1735 2304.7484,-406.7764 2304.7484,-267 2304.7484,-267 2304.7484,-267 2304.7484,-205.5 2304.7484,-147.5392 2257.695,-144.195 2203.7484,-123 2144.2334,-99.6172 1721.5457,-84.2692 1552.937,-79.0157"/>
<polygon fill="#191970" stroke="#191970" points="1553.0305,-75.517 1542.9271,-78.7063 1552.8142,-82.5136 1553.0305,-75.517"/>
</g>
<!-- Node38&#45;&gt;Node14 -->
<g id="edge99" class="edge">
<title>Node38&#45;&gt;Node14</title>
<path fill="none" stroke="#191970" d="M1934.6827,-486.8693C1896.277,-469.0606 1812.6643,-429.1255 1745.7484,-389 1719.2821,-373.1297 1690.3601,-352.5319 1671.4663,-338.6"/>
<polygon fill="#191970" stroke="#191970" points="1673.408,-335.6824 1663.2937,-332.5276 1669.2331,-341.3011 1673.408,-335.6824"/>
</g>
<!-- Node39&#45;&gt;Node6 -->
<g id="edge101" class="edge">
<title>Node39&#45;&gt;Node6</title>
<path fill="none" stroke="#191970" d="M250.0145,-556.0223C173.1803,-552.3449 53.3469,-541.8565 20.7484,-512 -5.2453,-488.1926 1.7484,-470.2487 1.7484,-435 1.7484,-435 1.7484,-435 1.7484,-205.5 1.7484,-77.8963 150.8731,-143.9309 276.7484,-123 497.9396,-86.2198 1191.879,-78.789 1414.3667,-77.3391"/>
<polygon fill="#191970" stroke="#191970" points="1414.6235,-80.8377 1424.6012,-77.2745 1414.5793,-73.8378 1414.6235,-80.8377"/>
</g>
<!-- Node41&#45;&gt;Node3 -->
<g id="edge109" class="edge">
<title>Node41&#45;&gt;Node3</title>
<path fill="none" stroke="#191970" d="M2071.971,-261.427C1987.184,-252.5394 1828.1609,-234.7564 1772.7484,-221 1734.5306,-211.5123 1728.3403,-197.8284 1689.7484,-190 1634.4141,-178.7754 814.8435,-149.7651 561.678,-141.0272"/>
<polygon fill="#191970" stroke="#191970" points="561.5951,-137.5224 551.4804,-140.6757 561.3538,-144.5182 561.5951,-137.5224"/>
</g>
<!-- Node41&#45;&gt;Node6 -->
<g id="edge108" class="edge">
<title>Node41&#45;&gt;Node6</title>
<path fill="none" stroke="#191970" d="M2133.1857,-257.4174C2149.4868,-231.8654 2188.6349,-161.4387 2152.7484,-123 2132.5035,-101.3152 1720.2759,-84.9968 1553.1872,-79.2489"/>
<polygon fill="#191970" stroke="#191970" points="1553.134,-75.7451 1543.0204,-78.9018 1552.8951,-82.7411 1553.134,-75.7451"/>
</g>
<!-- Node41&#45;&gt;Node12 -->
<g id="edge110" class="edge">
<title>Node41&#45;&gt;Node12</title>
<path fill="none" stroke="#191970" d="M2117.3734,-257.3906C2108.2685,-248.0581 2094.251,-233.6902 2083.2727,-222.4374"/>
<polygon fill="#191970" stroke="#191970" points="2085.7441,-219.9586 2076.2556,-215.2449 2080.7336,-224.8468 2085.7441,-219.9586"/>
</g>
</g>
</svg>
        <g id="navigator" transform="translate(0 0)" fill="#404254">
                <rect fill="#f2f5e9" fill-opacity="0.5" stroke="#606060" stroke-width=".5" x="0" y="0" width="60" height="60"/>
                <use id="zoomplus" xlink:href="#zoomPlus" x="17" y="9" onmousedown="handleZoom(evt,'in')"/>
                <use id="zoomminus" xlink:href="#zoomMin" x="42" y="9" onmousedown="handleZoom(evt,'out')"/>
                <use id="reset" xlink:href="#resetDef" x="30" y="36" onmousedown="handleReset()"/>
                <g id="arrowUp" xlink:href="#dirArrow" transform="translate(30 24)" onmousedown="handlePan(0,-1)">
                  <use xlink:href="#rim" fill="#404040">
                        <set attributeName="fill" to="#808080" begin="arrowUp.mouseover" end="arrowUp.mouseout"/>
                  </use>
                  <path fill="none" stroke="white" stroke-width="1.5" d="M0,-3.0v7 M-2.5,-0.5L0,-3.0L2.5,-0.5"/>
                </g>
                <g id="arrowRight" xlink:href="#dirArrow" transform="rotate(90) translate(36 -43)" onmousedown="handlePan(1,0)">
                  <use xlink:href="#rim" fill="#404040">
                        <set attributeName="fill" to="#808080" begin="arrowRight.mouseover" end="arrowRight.mouseout"/>
                  </use>
                  <path fill="none" stroke="white" stroke-width="1.5" d="M0,-3.0v7 M-2.5,-0.5L0,-3.0L2.5,-0.5"/>
                </g>
                <g id="arrowDown" xlink:href="#dirArrow" transform="rotate(180) translate(-30 -48)" onmousedown="handlePan(0,1)">
                  <use xlink:href="#rim" fill="#404040">
                        <set attributeName="fill" to="#808080" begin="arrowDown.mouseover" end="arrowDown.mouseout"/>
                  </use>
                  <path fill="none" stroke="white" stroke-width="1.5" d="M0,-3.0v7 M-2.5,-0.5L0,-3.0L2.5,-0.5"/>
                </g>
                <g id="arrowLeft" xlink:href="#dirArrow" transform="rotate(270) translate(-36 17)" onmousedown="handlePan(-1,0)">
                  <use xlink:href="#rim" fill="#404040">
                        <set attributeName="fill" to="#808080" begin="arrowLeft.mouseover" end="arrowLeft.mouseout"/>
                  </use>
                  <path fill="none" stroke="white" stroke-width="1.5" d="M0,-3.0v7 M-2.5,-0.5L0,-3.0L2.5,-0.5"/>
                </g>
        </g>
        <svg viewBox="0 0 15 15" width="100%" height="30px" preserveAspectRatio="xMaxYMin meet">
         <g id="arrow_out" transform="scale(0.3 0.3)">
          <a xlink:href="_s_b_m_l_file_resolver_8cpp__incl_org.svg" target="_base">
           <rect id="button" ry="5" rx="5" y="6" x="6" height="38" width="38"
                fill="#f2f5e9" fill-opacity="0.5" stroke="#606060" stroke-width="1.0"/>
           <path id="arrow"
             d="M 11.500037,31.436501 C 11.940474,20.09759 22.043105,11.32322 32.158766,21.979434 L 37.068811,17.246167 C 37.068811,17.246167 37.088388,32 37.088388,32 L 22.160133,31.978069 C 22.160133,31.978069 26.997745,27.140456 26.997745,27.140456 C 18.528582,18.264221 13.291696,25.230495 11.500037,31.436501 z"
             style="fill:#404040;"/>
          </a>
         </g>
        </svg>
</svg>
