<?xml version="1.0" encoding="UTF-8" standalone="no"?>
<!DOCTYPE svg PUBLIC "-//W3C//DTD SVG 1.1//EN"
 "http://www.w3.org/Graphics/SVG/1.1/DTD/svg11.dtd">
<!-- Generated by graphviz version 2.40.1 (20161225.0304)
 -->
<!-- Title: SBMLFileResolver.h Pages: 1 -->
<svg width="294pt" height="84pt"
 viewBox="0.00 0.00 294.00 84.00" xmlns="http://www.w3.org/2000/svg" xmlns:xlink="http://www.w3.org/1999/xlink">
<g id="graph0" class="graph" transform="scale(1 1) rotate(0) translate(4 80)">
<title>SBMLFileResolver.h</title>
<polygon fill="#ffffff" stroke="transparent" points="-4,4 -4,-80 290,-80 290,4 -4,4"/>
<!-- Node1 -->
<g id="node1" class="node">
<title>Node1</title>
<polygon fill="#bfbfbf" stroke="#000000" points="97,-56.5 97,-75.5 205,-75.5 205,-56.5 97,-56.5"/>
<text text-anchor="middle" x="151" y="-63.5" font-family="Helvetica,sans-Serif" font-size="10.00" fill="#000000">SBMLFileResolver.h</text>
</g>
<!-- Node2 -->
<g id="node2" class="node">
<title>Node2</title>
<g id="a_node2"><a xlink:href="_comp_flattening_converter_8cpp.html" target="_top" xlink:title="Implementation of a first flattening converter. ">
<polygon fill="#ffffff" stroke="#000000" points="0,-.5 0,-19.5 150,-19.5 150,-.5 0,-.5"/>
<text text-anchor="middle" x="75" y="-7.5" font-family="Helvetica,sans-Serif" font-size="10.00" fill="#000000">CompFlatteningConverter.cpp</text>
</a>
</g>
</g>
<!-- Node1&#45;&gt;Node2 -->
<g id="edge1" class="edge">
<title>Node1&#45;&gt;Node2</title>
<path fill="none" stroke="#191970" d="M129.5703,-50.2097C116.2223,-40.3743 99.4821,-28.0394 88.0865,-19.6427"/>
<polygon fill="#191970" stroke="#191970" points="127.635,-53.1312 137.7618,-56.2455 131.7874,-47.4958 127.635,-53.1312"/>
</g>
<!-- Node3 -->
<g id="node3" class="node">
<title>Node3</title>
<g id="a_node3"><a xlink:href="_s_b_m_l_file_resolver_8cpp.html" target="_top" xlink:title="Implementation of SBMLFileResolver_t, the file system based resolver for SBML Documents. ">
<polygon fill="#ffffff" stroke="#000000" points="168,-.5 168,-19.5 286,-19.5 286,-.5 168,-.5"/>
<text text-anchor="middle" x="227" y="-7.5" font-family="Helvetica,sans-Serif" font-size="10.00" fill="#000000">SBMLFileResolver.cpp</text>
</a>
</g>
</g>
<!-- Node1&#45;&gt;Node3 -->
<g id="edge2" class="edge">
<title>Node1&#45;&gt;Node3</title>
<path fill="none" stroke="#191970" d="M172.4297,-50.2097C185.7777,-40.3743 202.5179,-28.0394 213.9135,-19.6427"/>
<polygon fill="#191970" stroke="#191970" points="170.2126,-47.4958 164.2382,-56.2455 174.365,-53.1312 170.2126,-47.4958"/>
</g>
</g>
</svg>
