<?xml version="1.0" encoding="UTF-8" standalone="no"?>
<!DOCTYPE svg PUBLIC "-//W3C//DTD SVG 1.1//EN"
 "http://www.w3.org/Graphics/SVG/1.1/DTD/svg11.dtd">
<!-- Generated by graphviz version 2.40.1 (20161225.0304)
 -->
<!-- Title: SpeciesFeatureType.cpp Pages: 1 -->
<svg width="579pt" height="229pt"
 viewBox="0.00 0.00 578.50 229.00" xmlns="http://www.w3.org/2000/svg" xmlns:xlink="http://www.w3.org/1999/xlink">
<g id="graph0" class="graph" transform="scale(1 1) rotate(0) translate(4 225)">
<title>SpeciesFeatureType.cpp</title>
<polygon fill="#ffffff" stroke="transparent" points="-4,4 -4,-225 574.5,-225 574.5,4 -4,4"/>
<!-- Node1 -->
<g id="node1" class="node">
<title>Node1</title>
<polygon fill="#bfbfbf" stroke="#000000" points="296,-201.5 296,-220.5 424,-220.5 424,-201.5 296,-201.5"/>
<text text-anchor="middle" x="360" y="-208.5" font-family="Helvetica,sans-Serif" font-size="10.00" fill="#000000">SpeciesFeatureType.cpp</text>
</g>
<!-- Node2 -->
<g id="node2" class="node">
<title>Node2</title>
<g id="a_node2"><a xlink:href="_species_feature_type_8h.html" target="_top" xlink:title=": Implementation of the SpeciesFeatureType_t class ">
<polygon fill="#ffffff" stroke="#000000" points="128,-134.5 128,-164.5 272,-164.5 272,-134.5 128,-134.5"/>
<text text-anchor="start" x="136" y="-152.5" font-family="Helvetica,sans-Serif" font-size="10.00" fill="#000000">sbml/packages/multi</text>
<text text-anchor="middle" x="200" y="-141.5" font-family="Helvetica,sans-Serif" font-size="10.00" fill="#000000">/sbml/SpeciesFeatureType.h</text>
</a>
</g>
</g>
<!-- Node1&#45;&gt;Node2 -->
<g id="edge1" class="edge">
<title>Node1&#45;&gt;Node2</title>
<path fill="none" stroke="#191970" d="M335,-201.3906C311.9424,-192.5279 277.0704,-179.1239 248.5448,-168.1594"/>
<polygon fill="#191970" stroke="#191970" points="249.7304,-164.8655 239.1404,-164.5446 247.2189,-171.3995 249.7304,-164.8655"/>
</g>
<!-- Node7 -->
<g id="node7" class="node">
<title>Node7</title>
<g id="a_node7"><a xlink:href="_multi_s_b_m_l_error_8h.html" target="_top" xlink:title=": Implementation of the MultiSBMLError class ">
<polygon fill="#ffffff" stroke="#000000" points="290.5,-134.5 290.5,-164.5 429.5,-164.5 429.5,-134.5 290.5,-134.5"/>
<text text-anchor="start" x="298.5" y="-152.5" font-family="Helvetica,sans-Serif" font-size="10.00" fill="#000000">sbml/packages/multi</text>
<text text-anchor="middle" x="360" y="-141.5" font-family="Helvetica,sans-Serif" font-size="10.00" fill="#000000">/validator/MultiSBMLError.h</text>
</a>
</g>
</g>
<!-- Node1&#45;&gt;Node7 -->
<g id="edge6" class="edge">
<title>Node1&#45;&gt;Node7</title>
<path fill="none" stroke="#191970" d="M360,-201.3906C360,-194.2234 360,-184.0862 360,-174.671"/>
<polygon fill="#191970" stroke="#191970" points="363.5001,-174.5446 360,-164.5446 356.5001,-174.5446 363.5001,-174.5446"/>
</g>
<!-- Node8 -->
<g id="node8" class="node">
<title>Node8</title>
<g id="a_node8"><a xlink:href="_element_filter_8h.html" target="_top" xlink:title="Base class of element filters. ">
<polygon fill="#ffffff" stroke="#000000" points="447.5,-140 447.5,-159 570.5,-159 570.5,-140 447.5,-140"/>
<text text-anchor="middle" x="509" y="-147" font-family="Helvetica,sans-Serif" font-size="10.00" fill="#000000">sbml/util/ElementFilter.h</text>
</a>
</g>
</g>
<!-- Node1&#45;&gt;Node8 -->
<g id="edge7" class="edge">
<title>Node1&#45;&gt;Node8</title>
<path fill="none" stroke="#191970" d="M383.2813,-201.3906C408.321,-191.0554 448.3225,-174.5447 476.466,-162.9284"/>
<polygon fill="#191970" stroke="#191970" points="477.974,-166.0925 485.8822,-159.0419 475.3033,-159.622 477.974,-166.0925"/>
</g>
<!-- Node3 -->
<g id="node3" class="node">
<title>Node3</title>
<g id="a_node3"><a xlink:href="extern_8h.html" target="_top" xlink:title="Definitions of LIBSBML_EXTERN and related things. ">
<polygon fill="#ffffff" stroke="#000000" points="0,-73 0,-92 118,-92 118,-73 0,-73"/>
<text text-anchor="middle" x="59" y="-80" font-family="Helvetica,sans-Serif" font-size="10.00" fill="#000000">sbml/common/extern.h</text>
</a>
</g>
</g>
<!-- Node2&#45;&gt;Node3 -->
<g id="edge2" class="edge">
<title>Node2&#45;&gt;Node3</title>
<path fill="none" stroke="#191970" d="M168.3568,-134.4639C144.3792,-123.0702 111.6807,-107.5327 88.2983,-96.4219"/>
<polygon fill="#191970" stroke="#191970" points="89.7456,-93.2346 79.2112,-92.1039 86.7412,-99.5571 89.7456,-93.2346"/>
</g>
<!-- Node5 -->
<g id="node5" class="node">
<title>Node5</title>
<polygon fill="#ffffff" stroke="#bfbfbf" points="136.5,-73 136.5,-92 263.5,-92 263.5,-73 136.5,-73"/>
<text text-anchor="middle" x="200" y="-80" font-family="Helvetica,sans-Serif" font-size="10.00" fill="#000000">sbml/common/sbmlfwd.h</text>
</g>
<!-- Node2&#45;&gt;Node5 -->
<g id="edge4" class="edge">
<title>Node2&#45;&gt;Node5</title>
<path fill="none" stroke="#191970" d="M200,-134.2967C200,-124.7699 200,-112.3954 200,-102.1306"/>
<polygon fill="#191970" stroke="#191970" points="203.5001,-102.0549 200,-92.055 196.5001,-102.055 203.5001,-102.0549"/>
</g>
<!-- Node6 -->
<g id="node6" class="node">
<title>Node6</title>
<g id="a_node6"><a xlink:href="multifwd_8h.html" target="_top" xlink:title=": Implementation of the multifwd class ">
<polygon fill="#ffffff" stroke="#000000" points="281.5,-67.5 281.5,-97.5 388.5,-97.5 388.5,-67.5 281.5,-67.5"/>
<text text-anchor="start" x="289.5" y="-85.5" font-family="Helvetica,sans-Serif" font-size="10.00" fill="#000000">sbml/packages/multi</text>
<text text-anchor="middle" x="335" y="-74.5" font-family="Helvetica,sans-Serif" font-size="10.00" fill="#000000">/common/multifwd.h</text>
</a>
</g>
</g>
<!-- Node2&#45;&gt;Node6 -->
<g id="edge5" class="edge">
<title>Node2&#45;&gt;Node6</title>
<path fill="none" stroke="#191970" d="M230.2966,-134.4639C249.4424,-124.9619 274.3953,-112.5779 295.1388,-102.283"/>
<polygon fill="#191970" stroke="#191970" points="296.9359,-105.2985 304.3374,-97.7177 293.8239,-99.0282 296.9359,-105.2985"/>
</g>
<!-- Node4 -->
<g id="node4" class="node">
<title>Node4</title>
<g id="a_node4"><a xlink:href="libsbml-namespace_8h.html" target="_top" xlink:title="Defines C++ namespace of libSBML. ">
<polygon fill="#ffffff" stroke="#000000" points="2.5,-.5 2.5,-30.5 115.5,-30.5 115.5,-.5 2.5,-.5"/>
<text text-anchor="start" x="10.5" y="-18.5" font-family="Helvetica,sans-Serif" font-size="10.00" fill="#000000">sbml/common/libsbml</text>
<text text-anchor="middle" x="59" y="-7.5" font-family="Helvetica,sans-Serif" font-size="10.00" fill="#000000">&#45;namespace.h</text>
</a>
</g>
</g>
<!-- Node3&#45;&gt;Node4 -->
<g id="edge3" class="edge">
<title>Node3&#45;&gt;Node4</title>
<path fill="none" stroke="#191970" d="M59,-72.9005C59,-64.5099 59,-51.9451 59,-40.7085"/>
<polygon fill="#191970" stroke="#191970" points="62.5001,-40.5217 59,-30.5218 55.5001,-40.5218 62.5001,-40.5217"/>
</g>
</g>
</svg>
