<?xml version="1.0" encoding="UTF-8" standalone="no"?>
<!DOCTYPE svg PUBLIC "-//W3C//DTD SVG 1.1//EN"
 "http://www.w3.org/Graphics/SVG/1.1/DTD/svg11.dtd">
<!-- Generated by graphviz version 2.40.1 (20161225.0304)
 -->
<!-- Title: SpeciesFeature.cpp Pages: 1 -->
<svg width="671pt" height="229pt"
 viewBox="0.00 0.00 670.50 229.00" xmlns="http://www.w3.org/2000/svg" xmlns:xlink="http://www.w3.org/1999/xlink">
<g id="graph0" class="graph" transform="scale(1 1) rotate(0) translate(4 225)">
<title>SpeciesFeature.cpp</title>
<polygon fill="#ffffff" stroke="transparent" points="-4,4 -4,-225 666.5,-225 666.5,4 -4,4"/>
<!-- Node1 -->
<g id="node1" class="node">
<title>Node1</title>
<polygon fill="#bfbfbf" stroke="#000000" points="312.5,-201.5 312.5,-220.5 417.5,-220.5 417.5,-201.5 312.5,-201.5"/>
<text text-anchor="middle" x="365" y="-208.5" font-family="Helvetica,sans-Serif" font-size="10.00" fill="#000000">SpeciesFeature.cpp</text>
</g>
<!-- Node2 -->
<g id="node2" class="node">
<title>Node2</title>
<g id="a_node2"><a xlink:href="_species_feature_8h.html" target="_top" xlink:title=": Implementation of the SpeciesFeature_t class ">
<polygon fill="#ffffff" stroke="#000000" points="54,-134.5 54,-164.5 176,-164.5 176,-134.5 54,-134.5"/>
<text text-anchor="start" x="62" y="-152.5" font-family="Helvetica,sans-Serif" font-size="10.00" fill="#000000">sbml/packages/multi</text>
<text text-anchor="middle" x="115" y="-141.5" font-family="Helvetica,sans-Serif" font-size="10.00" fill="#000000">/sbml/SpeciesFeature.h</text>
</a>
</g>
</g>
<!-- Node1&#45;&gt;Node2 -->
<g id="edge1" class="edge">
<title>Node1&#45;&gt;Node2</title>
<path fill="none" stroke="#191970" d="M326.2118,-201.4581C288.9019,-192.2799 231.6127,-178.1867 186.1082,-166.9926"/>
<polygon fill="#191970" stroke="#191970" points="186.841,-163.5686 176.2944,-164.5784 185.1688,-170.366 186.841,-163.5686"/>
</g>
<!-- Node7 -->
<g id="node7" class="node">
<title>Node7</title>
<g id="a_node7"><a xlink:href="_sub_list_of_species_features_8h.html" target="_top" xlink:title=": Implementation of the SubListOfSpeciesFeatures_t class ">
<polygon fill="#ffffff" stroke="#000000" points="194,-134.5 194,-164.5 364,-164.5 364,-134.5 194,-134.5"/>
<text text-anchor="start" x="202" y="-152.5" font-family="Helvetica,sans-Serif" font-size="10.00" fill="#000000">sbml/packages/multi</text>
<text text-anchor="middle" x="279" y="-141.5" font-family="Helvetica,sans-Serif" font-size="10.00" fill="#000000">/sbml/SubListOfSpeciesFeatures.h</text>
</a>
</g>
</g>
<!-- Node1&#45;&gt;Node7 -->
<g id="edge6" class="edge">
<title>Node1&#45;&gt;Node7</title>
<path fill="none" stroke="#191970" d="M351.5625,-201.3906C340.0312,-193.1444 323.0024,-180.9669 308.3389,-170.4807"/>
<polygon fill="#191970" stroke="#191970" points="310.208,-167.5145 300.038,-164.5446 306.1362,-173.2084 310.208,-167.5145"/>
</g>
<!-- Node8 -->
<g id="node8" class="node">
<title>Node8</title>
<g id="a_node8"><a xlink:href="_multi_s_b_m_l_error_8h.html" target="_top" xlink:title=": Implementation of the MultiSBMLError class ">
<polygon fill="#ffffff" stroke="#000000" points="382.5,-134.5 382.5,-164.5 521.5,-164.5 521.5,-134.5 382.5,-134.5"/>
<text text-anchor="start" x="390.5" y="-152.5" font-family="Helvetica,sans-Serif" font-size="10.00" fill="#000000">sbml/packages/multi</text>
<text text-anchor="middle" x="452" y="-141.5" font-family="Helvetica,sans-Serif" font-size="10.00" fill="#000000">/validator/MultiSBMLError.h</text>
</a>
</g>
</g>
<!-- Node1&#45;&gt;Node8 -->
<g id="edge10" class="edge">
<title>Node1&#45;&gt;Node8</title>
<path fill="none" stroke="#191970" d="M378.5938,-201.3906C390.2591,-193.1444 407.4859,-180.9669 422.32,-170.4807"/>
<polygon fill="#191970" stroke="#191970" points="424.572,-173.175 430.7174,-164.5446 420.5313,-167.459 424.572,-173.175"/>
</g>
<!-- Node9 -->
<g id="node9" class="node">
<title>Node9</title>
<g id="a_node9"><a xlink:href="_element_filter_8h.html" target="_top" xlink:title="Base class of element filters. ">
<polygon fill="#ffffff" stroke="#000000" points="539.5,-140 539.5,-159 662.5,-159 662.5,-140 539.5,-140"/>
<text text-anchor="middle" x="601" y="-147" font-family="Helvetica,sans-Serif" font-size="10.00" fill="#000000">sbml/util/ElementFilter.h</text>
</a>
</g>
</g>
<!-- Node1&#45;&gt;Node9 -->
<g id="edge11" class="edge">
<title>Node1&#45;&gt;Node9</title>
<path fill="none" stroke="#191970" d="M401.6161,-201.4581C442.7811,-190.7308 509.7101,-173.2895 554.5291,-161.61"/>
<polygon fill="#191970" stroke="#191970" points="555.5038,-164.973 564.298,-159.0643 553.7386,-158.1992 555.5038,-164.973"/>
</g>
<!-- Node3 -->
<g id="node3" class="node">
<title>Node3</title>
<g id="a_node3"><a xlink:href="extern_8h.html" target="_top" xlink:title="Definitions of LIBSBML_EXTERN and related things. ">
<polygon fill="#ffffff" stroke="#000000" points="0,-73 0,-92 118,-92 118,-73 0,-73"/>
<text text-anchor="middle" x="59" y="-80" font-family="Helvetica,sans-Serif" font-size="10.00" fill="#000000">sbml/common/extern.h</text>
</a>
</g>
</g>
<!-- Node2&#45;&gt;Node3 -->
<g id="edge2" class="edge">
<title>Node2&#45;&gt;Node3</title>
<path fill="none" stroke="#191970" d="M102.2927,-134.2967C93.7371,-124.0605 82.4335,-110.5366 73.5221,-99.8746"/>
<polygon fill="#191970" stroke="#191970" points="76.0849,-97.4832 66.9862,-92.055 70.7139,-101.9724 76.0849,-97.4832"/>
</g>
<!-- Node5 -->
<g id="node5" class="node">
<title>Node5</title>
<polygon fill="#ffffff" stroke="#bfbfbf" points="136.5,-73 136.5,-92 263.5,-92 263.5,-73 136.5,-73"/>
<text text-anchor="middle" x="200" y="-80" font-family="Helvetica,sans-Serif" font-size="10.00" fill="#000000">sbml/common/sbmlfwd.h</text>
</g>
<!-- Node2&#45;&gt;Node5 -->
<g id="edge4" class="edge">
<title>Node2&#45;&gt;Node5</title>
<path fill="none" stroke="#191970" d="M134.2878,-134.2967C147.9169,-123.5537 166.1402,-109.1895 179.9388,-98.3129"/>
<polygon fill="#191970" stroke="#191970" points="182.1911,-100.9942 187.878,-92.055 177.8578,-95.4967 182.1911,-100.9942"/>
</g>
<!-- Node6 -->
<g id="node6" class="node">
<title>Node6</title>
<g id="a_node6"><a xlink:href="multifwd_8h.html" target="_top" xlink:title=": Implementation of the multifwd class ">
<polygon fill="#ffffff" stroke="#000000" points="281.5,-67.5 281.5,-97.5 388.5,-97.5 388.5,-67.5 281.5,-67.5"/>
<text text-anchor="start" x="289.5" y="-85.5" font-family="Helvetica,sans-Serif" font-size="10.00" fill="#000000">sbml/packages/multi</text>
<text text-anchor="middle" x="335" y="-74.5" font-family="Helvetica,sans-Serif" font-size="10.00" fill="#000000">/common/multifwd.h</text>
</a>
</g>
</g>
<!-- Node2&#45;&gt;Node6 -->
<g id="edge5" class="edge">
<title>Node2&#45;&gt;Node6</title>
<path fill="none" stroke="#191970" d="M164.3723,-134.4639C197.375,-124.4131 240.9663,-111.1375 275.8273,-100.5208"/>
<polygon fill="#191970" stroke="#191970" points="276.8658,-103.8633 285.4124,-97.6017 274.8265,-97.1669 276.8658,-103.8633"/>
</g>
<!-- Node4 -->
<g id="node4" class="node">
<title>Node4</title>
<g id="a_node4"><a xlink:href="libsbml-namespace_8h.html" target="_top" xlink:title="Defines C++ namespace of libSBML. ">
<polygon fill="#ffffff" stroke="#000000" points="2.5,-.5 2.5,-30.5 115.5,-30.5 115.5,-.5 2.5,-.5"/>
<text text-anchor="start" x="10.5" y="-18.5" font-family="Helvetica,sans-Serif" font-size="10.00" fill="#000000">sbml/common/libsbml</text>
<text text-anchor="middle" x="59" y="-7.5" font-family="Helvetica,sans-Serif" font-size="10.00" fill="#000000">&#45;namespace.h</text>
</a>
</g>
</g>
<!-- Node3&#45;&gt;Node4 -->
<g id="edge3" class="edge">
<title>Node3&#45;&gt;Node4</title>
<path fill="none" stroke="#191970" d="M59,-72.9005C59,-64.5099 59,-51.9451 59,-40.7085"/>
<polygon fill="#191970" stroke="#191970" points="62.5001,-40.5217 59,-30.5218 55.5001,-40.5218 62.5001,-40.5217"/>
</g>
<!-- Node7&#45;&gt;Node3 -->
<g id="edge7" class="edge">
<title>Node7&#45;&gt;Node3</title>
<path fill="none" stroke="#191970" d="M229.6277,-134.4639C190.6034,-122.5792 136.7742,-106.1858 100.0801,-95.0108"/>
<polygon fill="#191970" stroke="#191970" points="100.7973,-91.5705 90.2114,-92.0053 98.7579,-98.2669 100.7973,-91.5705"/>
</g>
<!-- Node7&#45;&gt;Node5 -->
<g id="edge8" class="edge">
<title>Node7&#45;&gt;Node5</title>
<path fill="none" stroke="#191970" d="M261.0737,-134.2967C248.5261,-123.6551 231.7889,-109.4602 219.0091,-98.6217"/>
<polygon fill="#191970" stroke="#191970" points="221.1567,-95.8538 211.2663,-92.055 216.629,-101.1924 221.1567,-95.8538"/>
</g>
<!-- Node7&#45;&gt;Node6 -->
<g id="edge9" class="edge">
<title>Node7&#45;&gt;Node6</title>
<path fill="none" stroke="#191970" d="M291.7073,-134.2967C298.7956,-125.816 307.7702,-115.0785 315.7079,-105.5817"/>
<polygon fill="#191970" stroke="#191970" points="318.6154,-107.5606 322.343,-97.6432 313.2444,-103.0714 318.6154,-107.5606"/>
</g>
</g>
</svg>
