<?xml version="1.0" encoding="UTF-8" standalone="no"?>
<!DOCTYPE svg PUBLIC "-//W3C//DTD SVG 1.1//EN"
 "http://www.w3.org/Graphics/SVG/1.1/DTD/svg11.dtd">
<!-- Generated by graphviz version 2.40.1 (20161225.0304)
 -->
<!-- Title: SpeciesTypeComponentIndex.cpp Pages: 1 -->
<!--zoomable 240 -->
<svg id="main" version="1.1" xmlns="http://www.w3.org/2000/svg" xmlns:xlink="http://www.w3.org/1999/xlink" xml:space="preserve" onload="init(evt)">
<style type="text/css"><![CDATA[
.edge:hover path { stroke: red; }
.edge:hover polygon { stroke: red; fill: red; }
]]></style>
<script type="text/javascript"><![CDATA[
var edges = document.getElementsByTagName('g');
if (edges && edges.length) {
  for (var i=0;i<edges.length;i++) {
    if (edges[i].id.substr(0,4)=='edge') {
      edges[i].setAttribute('class','edge');
    }
  }
}
]]></script>
        <defs>
                <circle id="rim" cx="0" cy="0" r="7"/>
                <circle id="rim2" cx="0" cy="0" r="3.5"/>
                <g id="zoomPlus">
                        <use xlink:href="#rim" fill="#404040">
                                <set attributeName="fill" to="#808080" begin="zoomplus.mouseover" end="zoomplus.mouseout"/>
                        </use>
                        <path d="M-4,0h8M0,-4v8" fill="none" stroke="white" stroke-width="1.5" pointer-events="none"/>
                </g>
                <g id="zoomMin">
                        <use xlink:href="#rim" fill="#404040">
                                <set attributeName="fill" to="#808080" begin="zoomminus.mouseover" end="zoomminus.mouseout"/>
                        </use>
                        <path d="M-4,0h8" fill="none" stroke="white" stroke-width="1.5" pointer-events="none"/>
                </g>
                <g id="dirArrow">
                        <path fill="none" stroke="white" stroke-width="1.5" d="M0,-3.0v7 M-2.5,-0.5L0,-3.0L2.5,-0.5"/>
                </g>
               <g id="resetDef">
                       <use xlink:href="#rim2" fill="#404040">
                               <set attributeName="fill" to="#808080" begin="reset.mouseover" end="reset.mouseout"/>
                       </use>
               </g>
        </defs>

<script type="text/javascript">
var viewWidth = 583;
var viewHeight = 240;
var sectionId = 'dynsection-0';
</script>
<script xlink:href="svgpan.js"/>
<svg id="graph" class="graph">
<g id="viewport">
<title>SpeciesTypeComponentIndex.cpp</title>
<polygon fill="#ffffff" stroke="transparent" points="-4,4 -4,-236 578.5,-236 578.5,4 -4,4"/>
<!-- Node1 -->
<g id="node1" class="node">
<title>Node1</title>
<polygon fill="#bfbfbf" stroke="#000000" points="279.5,-212.5 279.5,-231.5 448.5,-231.5 448.5,-212.5 279.5,-212.5"/>
<text text-anchor="middle" x="364" y="-219.5" font-family="Helvetica,sans-Serif" font-size="10.00" fill="#000000">SpeciesTypeComponentIndex.cpp</text>
</g>
<!-- Node2 -->
<g id="node2" class="node">
<title>Node2</title>
<g id="a_node2"><a xlink:href="_species_type_component_index_8h.html" target="_top" xlink:title=": Implementation of the SpeciesTypeComponentIndex_t class ">
<polygon fill="#ffffff" stroke="#000000" points="123.5,-134.5 123.5,-175.5 276.5,-175.5 276.5,-134.5 123.5,-134.5"/>
<text text-anchor="start" x="131.5" y="-163.5" font-family="Helvetica,sans-Serif" font-size="10.00" fill="#000000">sbml/packages/multi</text>
<text text-anchor="start" x="131.5" y="-152.5" font-family="Helvetica,sans-Serif" font-size="10.00" fill="#000000">/sbml/SpeciesTypeComponent</text>
<text text-anchor="middle" x="200" y="-141.5" font-family="Helvetica,sans-Serif" font-size="10.00" fill="#000000">Index.h</text>
</a>
</g>
</g>
<!-- Node1&#45;&gt;Node2 -->
<g id="edge1" class="edge">
<title>Node1&#45;&gt;Node2</title>
<path fill="none" stroke="#191970" d="M340.5028,-212.4005C319.4953,-203.8182 287.7986,-190.869 259.8249,-179.4406"/>
<polygon fill="#191970" stroke="#191970" points="261.0826,-176.1737 250.5016,-175.6318 258.4352,-182.6538 261.0826,-176.1737"/>
</g>
<!-- Node7 -->
<g id="node7" class="node">
<title>Node7</title>
<g id="a_node7"><a xlink:href="_multi_s_b_m_l_error_8h.html" target="_top" xlink:title=": Implementation of the MultiSBMLError class ">
<polygon fill="#ffffff" stroke="#000000" points="294.5,-140 294.5,-170 433.5,-170 433.5,-140 294.5,-140"/>
<text text-anchor="start" x="302.5" y="-158" font-family="Helvetica,sans-Serif" font-size="10.00" fill="#000000">sbml/packages/multi</text>
<text text-anchor="middle" x="364" y="-147" font-family="Helvetica,sans-Serif" font-size="10.00" fill="#000000">/validator/MultiSBMLError.h</text>
</a>
</g>
</g>
<!-- Node1&#45;&gt;Node7 -->
<g id="edge6" class="edge">
<title>Node1&#45;&gt;Node7</title>
<path fill="none" stroke="#191970" d="M364,-212.4005C364,-204.0099 364,-191.4451 364,-180.2085"/>
<polygon fill="#191970" stroke="#191970" points="367.5001,-180.0217 364,-170.0218 360.5001,-180.0218 367.5001,-180.0217"/>
</g>
<!-- Node8 -->
<g id="node8" class="node">
<title>Node8</title>
<g id="a_node8"><a xlink:href="_element_filter_8h.html" target="_top" xlink:title="Base class of element filters. ">
<polygon fill="#ffffff" stroke="#000000" points="451.5,-145.5 451.5,-164.5 574.5,-164.5 574.5,-145.5 451.5,-145.5"/>
<text text-anchor="middle" x="513" y="-152.5" font-family="Helvetica,sans-Serif" font-size="10.00" fill="#000000">sbml/util/ElementFilter.h</text>
</a>
</g>
</g>
<!-- Node1&#45;&gt;Node8 -->
<g id="edge7" class="edge">
<title>Node1&#45;&gt;Node8</title>
<path fill="none" stroke="#191970" d="M385.3481,-212.4005C410.7962,-200.9574 453.5091,-181.7509 482.4497,-168.7374"/>
<polygon fill="#191970" stroke="#191970" points="484.0066,-171.8749 491.6915,-164.5817 481.1358,-165.4907 484.0066,-171.8749"/>
</g>
<!-- Node3 -->
<g id="node3" class="node">
<title>Node3</title>
<g id="a_node3"><a xlink:href="extern_8h.html" target="_top" xlink:title="Definitions of LIBSBML_EXTERN and related things. ">
<polygon fill="#ffffff" stroke="#000000" points="0,-73 0,-92 118,-92 118,-73 0,-73"/>
<text text-anchor="middle" x="59" y="-80" font-family="Helvetica,sans-Serif" font-size="10.00" fill="#000000">sbml/common/extern.h</text>
</a>
</g>
</g>
<!-- Node2&#45;&gt;Node3 -->
<g id="edge2" class="edge">
<title>Node2&#45;&gt;Node3</title>
<path fill="none" stroke="#191970" d="M159.9722,-134.4183C136.5316,-122.3655 107.5256,-107.4511 86.6253,-96.7045"/>
<polygon fill="#191970" stroke="#191970" points="88.1356,-93.5455 77.6419,-92.0853 84.9346,-99.7708 88.1356,-93.5455"/>
</g>
<!-- Node5 -->
<g id="node5" class="node">
<title>Node5</title>
<polygon fill="#ffffff" stroke="#bfbfbf" points="136.5,-73 136.5,-92 263.5,-92 263.5,-73 136.5,-73"/>
<text text-anchor="middle" x="200" y="-80" font-family="Helvetica,sans-Serif" font-size="10.00" fill="#000000">sbml/common/sbmlfwd.h</text>
</g>
<!-- Node2&#45;&gt;Node5 -->
<g id="edge4" class="edge">
<title>Node2&#45;&gt;Node5</title>
<path fill="none" stroke="#191970" d="M200,-134.4183C200,-124.32 200,-112.213 200,-102.2314"/>
<polygon fill="#191970" stroke="#191970" points="203.5001,-102.0853 200,-92.0853 196.5001,-102.0854 203.5001,-102.0853"/>
</g>
<!-- Node6 -->
<g id="node6" class="node">
<title>Node6</title>
<g id="a_node6"><a xlink:href="multifwd_8h.html" target="_top" xlink:title=": Implementation of the multifwd class ">
<polygon fill="#ffffff" stroke="#000000" points="281.5,-67.5 281.5,-97.5 388.5,-97.5 388.5,-67.5 281.5,-67.5"/>
<text text-anchor="start" x="289.5" y="-85.5" font-family="Helvetica,sans-Serif" font-size="10.00" fill="#000000">sbml/packages/multi</text>
<text text-anchor="middle" x="335" y="-74.5" font-family="Helvetica,sans-Serif" font-size="10.00" fill="#000000">/common/multifwd.h</text>
</a>
</g>
</g>
<!-- Node2&#45;&gt;Node6 -->
<g id="edge5" class="edge">
<title>Node2&#45;&gt;Node6</title>
<path fill="none" stroke="#191970" d="M238.3245,-134.4183C256.9966,-124.3907 279.3571,-112.3823 297.8681,-102.4412"/>
<polygon fill="#191970" stroke="#191970" points="299.7304,-105.4139 306.8844,-97.5991 296.4185,-99.2469 299.7304,-105.4139"/>
</g>
<!-- Node4 -->
<g id="node4" class="node">
<title>Node4</title>
<g id="a_node4"><a xlink:href="libsbml-namespace_8h.html" target="_top" xlink:title="Defines C++ namespace of libSBML. ">
<polygon fill="#ffffff" stroke="#000000" points="2.5,-.5 2.5,-30.5 115.5,-30.5 115.5,-.5 2.5,-.5"/>
<text text-anchor="start" x="10.5" y="-18.5" font-family="Helvetica,sans-Serif" font-size="10.00" fill="#000000">sbml/common/libsbml</text>
<text text-anchor="middle" x="59" y="-7.5" font-family="Helvetica,sans-Serif" font-size="10.00" fill="#000000">&#45;namespace.h</text>
</a>
</g>
</g>
<!-- Node3&#45;&gt;Node4 -->
<g id="edge3" class="edge">
<title>Node3&#45;&gt;Node4</title>
<path fill="none" stroke="#191970" d="M59,-72.9005C59,-64.5099 59,-51.9451 59,-40.7085"/>
<polygon fill="#191970" stroke="#191970" points="62.5001,-40.5217 59,-30.5218 55.5001,-40.5218 62.5001,-40.5217"/>
</g>
</g>
</svg>
        <g id="navigator" transform="translate(0 0)" fill="#404254">
                <rect fill="#f2f5e9" fill-opacity="0.5" stroke="#606060" stroke-width=".5" x="0" y="0" width="60" height="60"/>
                <use id="zoomplus" xlink:href="#zoomPlus" x="17" y="9" onmousedown="handleZoom(evt,'in')"/>
                <use id="zoomminus" xlink:href="#zoomMin" x="42" y="9" onmousedown="handleZoom(evt,'out')"/>
                <use id="reset" xlink:href="#resetDef" x="30" y="36" onmousedown="handleReset()"/>
                <g id="arrowUp" xlink:href="#dirArrow" transform="translate(30 24)" onmousedown="handlePan(0,-1)">
                  <use xlink:href="#rim" fill="#404040">
                        <set attributeName="fill" to="#808080" begin="arrowUp.mouseover" end="arrowUp.mouseout"/>
                  </use>
                  <path fill="none" stroke="white" stroke-width="1.5" d="M0,-3.0v7 M-2.5,-0.5L0,-3.0L2.5,-0.5"/>
                </g>
                <g id="arrowRight" xlink:href="#dirArrow" transform="rotate(90) translate(36 -43)" onmousedown="handlePan(1,0)">
                  <use xlink:href="#rim" fill="#404040">
                        <set attributeName="fill" to="#808080" begin="arrowRight.mouseover" end="arrowRight.mouseout"/>
                  </use>
                  <path fill="none" stroke="white" stroke-width="1.5" d="M0,-3.0v7 M-2.5,-0.5L0,-3.0L2.5,-0.5"/>
                </g>
                <g id="arrowDown" xlink:href="#dirArrow" transform="rotate(180) translate(-30 -48)" onmousedown="handlePan(0,1)">
                  <use xlink:href="#rim" fill="#404040">
                        <set attributeName="fill" to="#808080" begin="arrowDown.mouseover" end="arrowDown.mouseout"/>
                  </use>
                  <path fill="none" stroke="white" stroke-width="1.5" d="M0,-3.0v7 M-2.5,-0.5L0,-3.0L2.5,-0.5"/>
                </g>
                <g id="arrowLeft" xlink:href="#dirArrow" transform="rotate(270) translate(-36 17)" onmousedown="handlePan(-1,0)">
                  <use xlink:href="#rim" fill="#404040">
                        <set attributeName="fill" to="#808080" begin="arrowLeft.mouseover" end="arrowLeft.mouseout"/>
                  </use>
                  <path fill="none" stroke="white" stroke-width="1.5" d="M0,-3.0v7 M-2.5,-0.5L0,-3.0L2.5,-0.5"/>
                </g>
        </g>
        <svg viewBox="0 0 15 15" width="100%" height="30px" preserveAspectRatio="xMaxYMin meet">
         <g id="arrow_out" transform="scale(0.3 0.3)">
          <a xlink:href="_species_type_component_index_8cpp__incl_org.svg" target="_base">
           <rect id="button" ry="5" rx="5" y="6" x="6" height="38" width="38"
                fill="#f2f5e9" fill-opacity="0.5" stroke="#606060" stroke-width="1.0"/>
           <path id="arrow"
             d="M 11.500037,31.436501 C 11.940474,20.09759 22.043105,11.32322 32.158766,21.979434 L 37.068811,17.246167 C 37.068811,17.246167 37.088388,32 37.088388,32 L 22.160133,31.978069 C 22.160133,31.978069 26.997745,27.140456 26.997745,27.140456 C 18.528582,18.264221 13.291696,25.230495 11.500037,31.436501 z"
             style="fill:#404040;"/>
          </a>
         </g>
        </svg>
</svg>
