<?xml version="1.0" encoding="UTF-8" standalone="no"?>
<!DOCTYPE svg PUBLIC "-//W3C//DTD SVG 1.1//EN"
 "http://www.w3.org/Graphics/SVG/1.1/DTD/svg11.dtd">
<!-- Generated by graphviz version 2.40.1 (20161225.0304)
 -->
<!-- Title: Submodel.h Pages: 1 -->
<svg width="405pt" height="140pt"
 viewBox="0.00 0.00 405.00 140.00" xmlns="http://www.w3.org/2000/svg" xmlns:xlink="http://www.w3.org/1999/xlink">
<g id="graph0" class="graph" transform="scale(1 1) rotate(0) translate(4 136)">
<title>Submodel.h</title>
<polygon fill="#ffffff" stroke="transparent" points="-4,4 -4,-136 401,-136 401,4 -4,4"/>
<!-- Node1 -->
<g id="node1" class="node">
<title>Node1</title>
<polygon fill="#bfbfbf" stroke="#000000" points="228,-112.5 228,-131.5 298,-131.5 298,-112.5 228,-112.5"/>
<text text-anchor="middle" x="263" y="-119.5" font-family="Helvetica,sans-Serif" font-size="10.00" fill="#000000">Submodel.h</text>
</g>
<!-- Node2 -->
<g id="node2" class="node">
<title>Node2</title>
<g id="a_node2"><a xlink:href="_comp_extension_types_8h.html" target="_top" xlink:title="Include all SBML types of Comp extension in a single header file. ">
<polygon fill="#ffffff" stroke="#000000" points="85.5,-56.5 85.5,-75.5 208.5,-75.5 208.5,-56.5 85.5,-56.5"/>
<text text-anchor="middle" x="147" y="-63.5" font-family="Helvetica,sans-Serif" font-size="10.00" fill="#000000">CompExtensionTypes.h</text>
</a>
</g>
</g>
<!-- Node1&#45;&gt;Node2 -->
<g id="edge1" class="edge">
<title>Node1&#45;&gt;Node2</title>
<path fill="none" stroke="#191970" d="M233.9463,-107.9741C212.9435,-97.8348 185.1309,-84.408 166.6809,-75.5011"/>
<polygon fill="#191970" stroke="#191970" points="232.5317,-111.1776 243.0589,-112.3733 235.575,-104.8738 232.5317,-111.1776"/>
</g>
<!-- Node5 -->
<g id="node5" class="node">
<title>Node5</title>
<g id="a_node5"><a xlink:href="_deletion_8cpp.html" target="_top" xlink:title="Implementation of Deletion_t, the SBaseRef_t derived class of deletions package. ">
<polygon fill="#ffffff" stroke="#000000" points="227,-56.5 227,-75.5 299,-75.5 299,-56.5 227,-56.5"/>
<text text-anchor="middle" x="263" y="-63.5" font-family="Helvetica,sans-Serif" font-size="10.00" fill="#000000">Deletion.cpp</text>
</a>
</g>
</g>
<!-- Node1&#45;&gt;Node5 -->
<g id="edge4" class="edge">
<title>Node1&#45;&gt;Node5</title>
<path fill="none" stroke="#191970" d="M263,-102.1575C263,-93.155 263,-82.9199 263,-75.6427"/>
<polygon fill="#191970" stroke="#191970" points="259.5001,-102.2455 263,-112.2455 266.5001,-102.2456 259.5001,-102.2455"/>
</g>
<!-- Node6 -->
<g id="node6" class="node">
<title>Node6</title>
<g id="a_node6"><a xlink:href="_submodel_8cpp.html" target="_top" xlink:title="Implementation of Submodel_t, the SBase_t&#45;derived class of the comp package. ">
<polygon fill="#ffffff" stroke="#000000" points="317,-56.5 317,-75.5 397,-75.5 397,-56.5 317,-56.5"/>
<text text-anchor="middle" x="357" y="-63.5" font-family="Helvetica,sans-Serif" font-size="10.00" fill="#000000">Submodel.cpp</text>
</a>
</g>
</g>
<!-- Node1&#45;&gt;Node6 -->
<g id="edge5" class="edge">
<title>Node1&#45;&gt;Node6</title>
<path fill="none" stroke="#191970" d="M288.1005,-107.0465C304.826,-97.0824 326.3168,-84.2794 340.8141,-75.6427"/>
<polygon fill="#191970" stroke="#191970" points="286.1732,-104.1206 279.3736,-112.2455 289.7559,-110.1343 286.1732,-104.1206"/>
</g>
<!-- Node3 -->
<g id="node3" class="node">
<title>Node3</title>
<g id="a_node3"><a xlink:href="_comp_flattening_converter_8cpp.html" target="_top" xlink:title="Implementation of a first flattening converter. ">
<polygon fill="#ffffff" stroke="#000000" points="0,-.5 0,-19.5 150,-19.5 150,-.5 0,-.5"/>
<text text-anchor="middle" x="75" y="-7.5" font-family="Helvetica,sans-Serif" font-size="10.00" fill="#000000">CompFlatteningConverter.cpp</text>
</a>
</g>
</g>
<!-- Node2&#45;&gt;Node3 -->
<g id="edge2" class="edge">
<title>Node2&#45;&gt;Node3</title>
<path fill="none" stroke="#191970" d="M126.336,-49.928C113.7511,-40.1397 98.0908,-27.9595 87.3977,-19.6427"/>
<polygon fill="#191970" stroke="#191970" points="124.4162,-52.8688 134.4586,-56.2455 128.7138,-47.3434 124.4162,-52.8688"/>
</g>
<!-- Node4 -->
<g id="node4" class="node">
<title>Node4</title>
<g id="a_node4"><a xlink:href="_comp_validator_8cpp.html" target="_top" xlink:title="CompValidator.cpp">
<polygon fill="#ffffff" stroke="#000000" points="168,-.5 168,-19.5 270,-19.5 270,-.5 168,-.5"/>
<text text-anchor="middle" x="219" y="-7.5" font-family="Helvetica,sans-Serif" font-size="10.00" fill="#000000">CompValidator.cpp</text>
</a>
</g>
</g>
<!-- Node2&#45;&gt;Node4 -->
<g id="edge3" class="edge">
<title>Node2&#45;&gt;Node4</title>
<path fill="none" stroke="#191970" d="M167.664,-49.928C180.2489,-40.1397 195.9092,-27.9595 206.6023,-19.6427"/>
<polygon fill="#191970" stroke="#191970" points="165.2862,-47.3434 159.5414,-56.2455 169.5838,-52.8688 165.2862,-47.3434"/>
</g>
</g>
</svg>
