<?xml version="1.0" encoding="UTF-8" standalone="no"?>
<!DOCTYPE svg PUBLIC "-//W3C//DTD SVG 1.1//EN"
 "http://www.w3.org/Graphics/SVG/1.1/DTD/svg11.dtd">
<!-- Generated by graphviz version 2.40.1 (20161225.0304)
 -->
<!-- Title: Transformation2D.cpp Pages: 1 -->
<svg width="1872pt" height="229pt"
 viewBox="0.00 0.00 1871.50 229.00" xmlns="http://www.w3.org/2000/svg" xmlns:xlink="http://www.w3.org/1999/xlink">
<g id="graph0" class="graph" transform="scale(1 1) rotate(0) translate(4 225)">
<title>Transformation2D.cpp</title>
<polygon fill="#ffffff" stroke="transparent" points="-4,4 -4,-225 1867.5,-225 1867.5,4 -4,4"/>
<!-- Node1 -->
<g id="node1" class="node">
<title>Node1</title>
<polygon fill="#bfbfbf" stroke="#000000" points="959,-201.5 959,-220.5 1074,-220.5 1074,-201.5 959,-201.5"/>
<text text-anchor="middle" x="1016.5" y="-208.5" font-family="Helvetica,sans-Serif" font-size="10.00" fill="#000000">Transformation2D.cpp</text>
</g>
<!-- Node2 -->
<g id="node2" class="node">
<title>Node2</title>
<g id="a_node2"><a xlink:href="_transformation2_d_8h.html" target="_top" xlink:title="abstract base class for representing 2D affine transformations ">
<polygon fill="#ffffff" stroke="#000000" points="1225.5,-134.5 1225.5,-164.5 1357.5,-164.5 1357.5,-134.5 1225.5,-134.5"/>
<text text-anchor="start" x="1233.5" y="-152.5" font-family="Helvetica,sans-Serif" font-size="10.00" fill="#000000">sbml/packages/render</text>
<text text-anchor="middle" x="1291.5" y="-141.5" font-family="Helvetica,sans-Serif" font-size="10.00" fill="#000000">/sbml/Transformation2D.h</text>
</a>
</g>
</g>
<!-- Node1&#45;&gt;Node2 -->
<g id="edge1" class="edge">
<title>Node1&#45;&gt;Node2</title>
<path fill="none" stroke="#191970" d="M1059.167,-201.4581C1100.8196,-192.1431 1165.1094,-177.7655 1215.5104,-166.494"/>
<polygon fill="#191970" stroke="#191970" points="1216.3995,-169.8817 1225.3946,-164.2836 1214.8717,-163.0505 1216.3995,-169.8817"/>
</g>
<!-- Node7 -->
<g id="node7" class="node">
<title>Node7</title>
<g id="a_node7"><a xlink:href="_list_of_drawables_8h.html" target="_top" xlink:title="Definition of the ListOfDrawables_t class. ">
<polygon fill="#ffffff" stroke="#000000" points="0,-134.5 0,-164.5 125,-164.5 125,-134.5 0,-134.5"/>
<text text-anchor="start" x="8" y="-152.5" font-family="Helvetica,sans-Serif" font-size="10.00" fill="#000000">sbml/packages/render</text>
<text text-anchor="middle" x="62.5" y="-141.5" font-family="Helvetica,sans-Serif" font-size="10.00" fill="#000000">/sbml/ListOfDrawables.h</text>
</a>
</g>
</g>
<!-- Node1&#45;&gt;Node7 -->
<g id="edge6" class="edge">
<title>Node1&#45;&gt;Node7</title>
<path fill="none" stroke="#191970" d="M958.8178,-209.2241C792.4258,-203.9101 312.6586,-187.1954 135.1152,-165.0463"/>
<polygon fill="#191970" stroke="#191970" points="135.4888,-161.5655 125.1216,-163.7503 134.5884,-168.5074 135.4888,-161.5655"/>
</g>
<!-- Node8 -->
<g id="node8" class="node">
<title>Node8</title>
<g id="a_node8"><a xlink:href="_render_s_b_m_l_error_8h.html" target="_top" xlink:title="Definition of the RenderSBMLError class. ">
<polygon fill="#ffffff" stroke="#000000" points="1509.5,-134.5 1509.5,-164.5 1659.5,-164.5 1659.5,-134.5 1509.5,-134.5"/>
<text text-anchor="start" x="1517.5" y="-152.5" font-family="Helvetica,sans-Serif" font-size="10.00" fill="#000000">sbml/packages/render</text>
<text text-anchor="middle" x="1584.5" y="-141.5" font-family="Helvetica,sans-Serif" font-size="10.00" fill="#000000">/validator/RenderSBMLError.h</text>
</a>
</g>
</g>
<!-- Node1&#45;&gt;Node8 -->
<g id="edge10" class="edge">
<title>Node1&#45;&gt;Node8</title>
<path fill="none" stroke="#191970" d="M1074.0591,-207.1708C1163.0714,-200.8877 1339.6666,-186.9861 1499.435,-165.0731"/>
<polygon fill="#191970" stroke="#191970" points="1500.0221,-168.5253 1509.4472,-163.6862 1499.0615,-161.5915 1500.0221,-168.5253"/>
</g>
<!-- Node9 -->
<g id="node9" class="node">
<title>Node9</title>
<g id="a_node9"><a xlink:href="_image_8h.html" target="_top" xlink:title="Definition of the Image_t class. ">
<polygon fill="#ffffff" stroke="#000000" points="143,-134.5 143,-164.5 258,-164.5 258,-134.5 143,-134.5"/>
<text text-anchor="start" x="151" y="-152.5" font-family="Helvetica,sans-Serif" font-size="10.00" fill="#000000">sbml/packages/render</text>
<text text-anchor="middle" x="200.5" y="-141.5" font-family="Helvetica,sans-Serif" font-size="10.00" fill="#000000">/sbml/Image.h</text>
</a>
</g>
</g>
<!-- Node1&#45;&gt;Node9 -->
<g id="edge11" class="edge">
<title>Node1&#45;&gt;Node9</title>
<path fill="none" stroke="#191970" d="M958.9945,-208.7365C810.915,-202.7103 418.1794,-185.4261 268.2834,-165.0761"/>
<polygon fill="#191970" stroke="#191970" points="268.7333,-161.605 258.3414,-163.6686 267.7521,-168.5359 268.7333,-161.605"/>
</g>
<!-- Node10 -->
<g id="node10" class="node">
<title>Node10</title>
<g id="a_node10"><a xlink:href="_ellipse_8h.html" target="_top" xlink:title="Definition of the Ellipse_t class. ">
<polygon fill="#ffffff" stroke="#000000" points="276,-134.5 276,-164.5 391,-164.5 391,-134.5 276,-134.5"/>
<text text-anchor="start" x="284" y="-152.5" font-family="Helvetica,sans-Serif" font-size="10.00" fill="#000000">sbml/packages/render</text>
<text text-anchor="middle" x="333.5" y="-141.5" font-family="Helvetica,sans-Serif" font-size="10.00" fill="#000000">/sbml/Ellipse.h</text>
</a>
</g>
</g>
<!-- Node1&#45;&gt;Node10 -->
<g id="edge15" class="edge">
<title>Node1&#45;&gt;Node10</title>
<path fill="none" stroke="#191970" d="M958.7426,-209.7006C850.8351,-206.6195 611.2472,-196.6957 401.3214,-165.1437"/>
<polygon fill="#191970" stroke="#191970" points="401.761,-161.6704 391.348,-163.6249 400.707,-168.5906 401.761,-161.6704"/>
</g>
<!-- Node11 -->
<g id="node11" class="node">
<title>Node11</title>
<g id="a_node11"><a xlink:href="_rectangle_8h.html" target="_top" xlink:title="Definition of the Rectangle_t class. ">
<polygon fill="#ffffff" stroke="#000000" points="409,-134.5 409,-164.5 524,-164.5 524,-134.5 409,-134.5"/>
<text text-anchor="start" x="417" y="-152.5" font-family="Helvetica,sans-Serif" font-size="10.00" fill="#000000">sbml/packages/render</text>
<text text-anchor="middle" x="466.5" y="-141.5" font-family="Helvetica,sans-Serif" font-size="10.00" fill="#000000">/sbml/Rectangle.h</text>
</a>
</g>
</g>
<!-- Node1&#45;&gt;Node11 -->
<g id="edge19" class="edge">
<title>Node1&#45;&gt;Node11</title>
<path fill="none" stroke="#191970" d="M958.8061,-208.0587C869.6151,-202.9532 692.7831,-190.6108 533.9523,-165.1086"/>
<polygon fill="#191970" stroke="#191970" points="534.4328,-161.6408 524.0005,-163.4894 533.3086,-168.5499 534.4328,-161.6408"/>
</g>
<!-- Node12 -->
<g id="node12" class="node">
<title>Node12</title>
<g id="a_node12"><a xlink:href="_polygon_8h.html" target="_top" xlink:title="class representing a polygon ">
<polygon fill="#ffffff" stroke="#000000" points="542,-134.5 542,-164.5 657,-164.5 657,-134.5 542,-134.5"/>
<text text-anchor="start" x="550" y="-152.5" font-family="Helvetica,sans-Serif" font-size="10.00" fill="#000000">sbml/packages/render</text>
<text text-anchor="middle" x="599.5" y="-141.5" font-family="Helvetica,sans-Serif" font-size="10.00" fill="#000000">/sbml/Polygon.h</text>
</a>
</g>
</g>
<!-- Node1&#45;&gt;Node12 -->
<g id="edge23" class="edge">
<title>Node1&#45;&gt;Node12</title>
<path fill="none" stroke="#191970" d="M958.7691,-205.2313C891.0972,-198.0683 775.4017,-184.5763 667.1377,-165.1994"/>
<polygon fill="#191970" stroke="#191970" points="667.4853,-161.7055 657.0216,-163.3675 666.2379,-168.5935 667.4853,-161.7055"/>
</g>
<!-- Node13 -->
<g id="node13" class="node">
<title>Node13</title>
<g id="a_node13"><a xlink:href="_render_group_8h.html" target="_top" xlink:title="Definition of the RenderGroup_t class. ">
<polygon fill="#ffffff" stroke="#000000" points="675,-134.5 675,-164.5 790,-164.5 790,-134.5 675,-134.5"/>
<text text-anchor="start" x="683" y="-152.5" font-family="Helvetica,sans-Serif" font-size="10.00" fill="#000000">sbml/packages/render</text>
<text text-anchor="middle" x="732.5" y="-141.5" font-family="Helvetica,sans-Serif" font-size="10.00" fill="#000000">/sbml/RenderGroup.h</text>
</a>
</g>
</g>
<!-- Node1&#45;&gt;Node13 -->
<g id="edge27" class="edge">
<title>Node1&#45;&gt;Node13</title>
<path fill="none" stroke="#191970" d="M970.3052,-201.4652C928.4845,-192.7752 864.9243,-179.4247 800.2021,-165.134"/>
<polygon fill="#191970" stroke="#191970" points="800.7483,-161.6702 790.2282,-162.9262 799.2354,-168.5048 800.7483,-161.6702"/>
</g>
<!-- Node14 -->
<g id="node14" class="node">
<title>Node14</title>
<g id="a_node14"><a xlink:href="_line_ending_8h.html" target="_top" xlink:title="class representing line endings, e.g. ">
<polygon fill="#ffffff" stroke="#000000" points="1376,-134.5 1376,-164.5 1491,-164.5 1491,-134.5 1376,-134.5"/>
<text text-anchor="start" x="1384" y="-152.5" font-family="Helvetica,sans-Serif" font-size="10.00" fill="#000000">sbml/packages/render</text>
<text text-anchor="middle" x="1433.5" y="-141.5" font-family="Helvetica,sans-Serif" font-size="10.00" fill="#000000">/sbml/LineEnding.h</text>
</a>
</g>
</g>
<!-- Node1&#45;&gt;Node14 -->
<g id="edge31" class="edge">
<title>Node1&#45;&gt;Node14</title>
<path fill="none" stroke="#191970" d="M1074.0554,-205.1619C1141.524,-197.933 1256.8796,-184.3765 1365.6625,-165.042"/>
<polygon fill="#191970" stroke="#191970" points="1366.6068,-168.4285 1375.8298,-163.2144 1365.3683,-161.5389 1366.6068,-168.4285"/>
</g>
<!-- Node16 -->
<g id="node16" class="node">
<title>Node16</title>
<g id="a_node16"><a xlink:href="_list_of_line_endings_8h.html" target="_top" xlink:title="Definition of the ListOfLineEndings_t class. ">
<polygon fill="#ffffff" stroke="#000000" points="808,-134.5 808,-164.5 941,-164.5 941,-134.5 808,-134.5"/>
<text text-anchor="start" x="816" y="-152.5" font-family="Helvetica,sans-Serif" font-size="10.00" fill="#000000">sbml/packages/render</text>
<text text-anchor="middle" x="874.5" y="-141.5" font-family="Helvetica,sans-Serif" font-size="10.00" fill="#000000">/sbml/ListOfLineEndings.h</text>
</a>
</g>
</g>
<!-- Node1&#45;&gt;Node16 -->
<g id="edge36" class="edge">
<title>Node1&#45;&gt;Node16</title>
<path fill="none" stroke="#191970" d="M994.3125,-201.3906C974.1158,-192.6435 943.7056,-179.4728 918.577,-168.5897"/>
<polygon fill="#191970" stroke="#191970" points="919.8045,-165.3072 909.2371,-164.5446 917.0224,-171.7306 919.8045,-165.3072"/>
</g>
<!-- Node17 -->
<g id="node17" class="node">
<title>Node17</title>
<g id="a_node17"><a xlink:href="_text_8h.html" target="_top" xlink:title="Definition of the Text_t class. ">
<polygon fill="#ffffff" stroke="#000000" points="959,-134.5 959,-164.5 1074,-164.5 1074,-134.5 959,-134.5"/>
<text text-anchor="start" x="967" y="-152.5" font-family="Helvetica,sans-Serif" font-size="10.00" fill="#000000">sbml/packages/render</text>
<text text-anchor="middle" x="1016.5" y="-141.5" font-family="Helvetica,sans-Serif" font-size="10.00" fill="#000000">/sbml/Text.h</text>
</a>
</g>
</g>
<!-- Node1&#45;&gt;Node17 -->
<g id="edge40" class="edge">
<title>Node1&#45;&gt;Node17</title>
<path fill="none" stroke="#191970" d="M1016.5,-201.3906C1016.5,-194.2234 1016.5,-184.0862 1016.5,-174.671"/>
<polygon fill="#191970" stroke="#191970" points="1020.0001,-174.5446 1016.5,-164.5446 1013.0001,-174.5446 1020.0001,-174.5446"/>
</g>
<!-- Node18 -->
<g id="node18" class="node">
<title>Node18</title>
<g id="a_node18"><a xlink:href="_render_curve_8h.html" target="_top" xlink:title="Definition of the RenderCurve_t class. ">
<polygon fill="#ffffff" stroke="#000000" points="1092,-134.5 1092,-164.5 1207,-164.5 1207,-134.5 1092,-134.5"/>
<text text-anchor="start" x="1100" y="-152.5" font-family="Helvetica,sans-Serif" font-size="10.00" fill="#000000">sbml/packages/render</text>
<text text-anchor="middle" x="1149.5" y="-141.5" font-family="Helvetica,sans-Serif" font-size="10.00" fill="#000000">/sbml/RenderCurve.h</text>
</a>
</g>
</g>
<!-- Node1&#45;&gt;Node18 -->
<g id="edge44" class="edge">
<title>Node1&#45;&gt;Node18</title>
<path fill="none" stroke="#191970" d="M1037.2813,-201.3906C1056.0312,-192.7205 1084.1795,-179.7046 1107.5934,-168.8779"/>
<polygon fill="#191970" stroke="#191970" points="1109.3569,-171.9185 1116.9645,-164.5446 1106.4189,-165.5649 1109.3569,-171.9185"/>
</g>
<!-- Node19 -->
<g id="node19" class="node">
<title>Node19</title>
<polygon fill="#ffffff" stroke="#bfbfbf" points="1678,-140 1678,-159 1727,-159 1727,-140 1678,-140"/>
<text text-anchor="middle" x="1702.5" y="-147" font-family="Helvetica,sans-Serif" font-size="10.00" fill="#000000">string.h</text>
</g>
<!-- Node1&#45;&gt;Node19 -->
<g id="edge48" class="edge">
<title>Node1&#45;&gt;Node19</title>
<path fill="none" stroke="#191970" d="M1074.1589,-209.5596C1211.8793,-205.6965 1556.8079,-193.4109 1668.5,-165 1670.6965,-164.4413 1672.9268,-163.7464 1675.1406,-162.9628"/>
<polygon fill="#191970" stroke="#191970" points="1676.6499,-166.1272 1684.586,-159.1081 1674.0048,-159.6462 1676.6499,-166.1272"/>
</g>
<!-- Node20 -->
<g id="node20" class="node">
<title>Node20</title>
<polygon fill="#ffffff" stroke="#bfbfbf" points="1745.5,-140 1745.5,-159 1793.5,-159 1793.5,-140 1745.5,-140"/>
<text text-anchor="middle" x="1769.5" y="-147" font-family="Helvetica,sans-Serif" font-size="10.00" fill="#000000">stdlib.h</text>
</g>
<!-- Node1&#45;&gt;Node20 -->
<g id="edge49" class="edge">
<title>Node1&#45;&gt;Node20</title>
<path fill="none" stroke="#191970" d="M1074.1376,-210.0897C1221.9469,-207.3128 1611.6207,-197.0809 1736.5,-165 1738.4771,-164.4921 1740.4798,-163.8662 1742.4703,-163.16"/>
<polygon fill="#191970" stroke="#191970" points="1744.2563,-166.2079 1752.1453,-159.1357 1741.568,-159.7447 1744.2563,-166.2079"/>
</g>
<!-- Node21 -->
<g id="node21" class="node">
<title>Node21</title>
<polygon fill="#ffffff" stroke="#bfbfbf" points="1811.5,-140 1811.5,-159 1863.5,-159 1863.5,-140 1811.5,-140"/>
<text text-anchor="middle" x="1837.5" y="-147" font-family="Helvetica,sans-Serif" font-size="10.00" fill="#000000">sstream</text>
</g>
<!-- Node1&#45;&gt;Node21 -->
<g id="edge50" class="edge">
<title>Node1&#45;&gt;Node21</title>
<path fill="none" stroke="#191970" d="M1074.1809,-210.2893C1231.2861,-207.9301 1664.254,-198.491 1802.5,-165 1804.8433,-164.4323 1807.2254,-163.7142 1809.5883,-162.8997"/>
<polygon fill="#191970" stroke="#191970" points="1811.0402,-166.0891 1819.0441,-159.1474 1808.4582,-159.5827 1811.0402,-166.0891"/>
</g>
<!-- Node3 -->
<g id="node3" class="node">
<title>Node3</title>
<g id="a_node3"><a xlink:href="extern_8h.html" target="_top" xlink:title="Definitions of LIBSBML_EXTERN and related things. ">
<polygon fill="#ffffff" stroke="#000000" points="535.5,-73 535.5,-92 653.5,-92 653.5,-73 535.5,-73"/>
<text text-anchor="middle" x="594.5" y="-80" font-family="Helvetica,sans-Serif" font-size="10.00" fill="#000000">sbml/common/extern.h</text>
</a>
</g>
</g>
<!-- Node2&#45;&gt;Node3 -->
<g id="edge2" class="edge">
<title>Node2&#45;&gt;Node3</title>
<path fill="none" stroke="#191970" d="M1225.3323,-135.3058C1222.3532,-134.8307 1219.3988,-134.3918 1216.5,-134 971.9818,-100.9513 906.6699,-133.5305 662.5,-98 655.6571,-97.0042 648.4831,-95.6814 641.4664,-94.2269"/>
<polygon fill="#191970" stroke="#191970" points="641.8712,-90.7331 631.3554,-92.0246 640.3814,-97.5727 641.8712,-90.7331"/>
</g>
<!-- Node5 -->
<g id="node5" class="node">
<title>Node5</title>
<polygon fill="#ffffff" stroke="#bfbfbf" points="672,-73 672,-92 799,-92 799,-73 672,-73"/>
<text text-anchor="middle" x="735.5" y="-80" font-family="Helvetica,sans-Serif" font-size="10.00" fill="#000000">sbml/common/sbmlfwd.h</text>
</g>
<!-- Node2&#45;&gt;Node5 -->
<g id="edge4" class="edge">
<title>Node2&#45;&gt;Node5</title>
<path fill="none" stroke="#191970" d="M1225.3205,-135.3897C1222.3446,-134.8919 1219.394,-134.4253 1216.5,-134 1036.3963,-107.5344 988.5313,-124.954 808.5,-98 801.2765,-96.9185 793.6943,-95.5617 786.2618,-94.1032"/>
<polygon fill="#191970" stroke="#191970" points="786.7643,-90.6338 776.2669,-92.0677 785.3673,-97.493 786.7643,-90.6338"/>
</g>
<!-- Node6 -->
<g id="node6" class="node">
<title>Node6</title>
<g id="a_node6"><a xlink:href="renderfwd_8h.html" target="_top" xlink:title="Definition of renderfwd. ">
<polygon fill="#ffffff" stroke="#000000" points="817,-67.5 817,-97.5 932,-97.5 932,-67.5 817,-67.5"/>
<text text-anchor="start" x="825" y="-85.5" font-family="Helvetica,sans-Serif" font-size="10.00" fill="#000000">sbml/packages/render</text>
<text text-anchor="middle" x="874.5" y="-74.5" font-family="Helvetica,sans-Serif" font-size="10.00" fill="#000000">/common/renderfwd.h</text>
</a>
</g>
</g>
<!-- Node2&#45;&gt;Node6 -->
<g id="edge5" class="edge">
<title>Node2&#45;&gt;Node6</title>
<path fill="none" stroke="#191970" d="M1225.2843,-135.612C1222.3182,-135.0541 1219.3796,-134.514 1216.5,-134 1121.7626,-117.0903 1011.5995,-101.168 942.4586,-91.6246"/>
<polygon fill="#191970" stroke="#191970" points="942.5261,-88.101 932.1425,-90.206 941.5725,-95.0357 942.5261,-88.101"/>
</g>
<!-- Node4 -->
<g id="node4" class="node">
<title>Node4</title>
<g id="a_node4"><a xlink:href="libsbml-namespace_8h.html" target="_top" xlink:title="Defines C++ namespace of libSBML. ">
<polygon fill="#ffffff" stroke="#000000" points="538,-.5 538,-30.5 651,-30.5 651,-.5 538,-.5"/>
<text text-anchor="start" x="546" y="-18.5" font-family="Helvetica,sans-Serif" font-size="10.00" fill="#000000">sbml/common/libsbml</text>
<text text-anchor="middle" x="594.5" y="-7.5" font-family="Helvetica,sans-Serif" font-size="10.00" fill="#000000">&#45;namespace.h</text>
</a>
</g>
</g>
<!-- Node3&#45;&gt;Node4 -->
<g id="edge3" class="edge">
<title>Node3&#45;&gt;Node4</title>
<path fill="none" stroke="#191970" d="M594.5,-72.9005C594.5,-64.5099 594.5,-51.9451 594.5,-40.7085"/>
<polygon fill="#191970" stroke="#191970" points="598.0001,-40.5217 594.5,-30.5218 591.0001,-40.5218 598.0001,-40.5217"/>
</g>
<!-- Node7&#45;&gt;Node3 -->
<g id="edge7" class="edge">
<title>Node7&#45;&gt;Node3</title>
<path fill="none" stroke="#191970" d="M125.1521,-135.4534C127.9687,-134.9384 130.7612,-134.4507 133.5,-134 271.6096,-111.2731 434.6759,-95.6679 525.1541,-87.9896"/>
<polygon fill="#191970" stroke="#191970" points="525.6147,-91.4634 535.286,-87.1373 525.0278,-84.488 525.6147,-91.4634"/>
</g>
<!-- Node7&#45;&gt;Node5 -->
<g id="edge8" class="edge">
<title>Node7&#45;&gt;Node5</title>
<path fill="none" stroke="#191970" d="M125.1292,-135.3045C127.952,-134.8298 130.752,-134.3913 133.5,-134 366.8016,-100.7793 429.1044,-130.5538 662.5,-98 669.9946,-96.9547 677.8693,-95.5795 685.5605,-94.0794"/>
<polygon fill="#191970" stroke="#191970" points="686.4172,-97.4769 695.5182,-92.0527 685.021,-90.6175 686.4172,-97.4769"/>
</g>
<!-- Node7&#45;&gt;Node6 -->
<g id="edge9" class="edge">
<title>Node7&#45;&gt;Node6</title>
<path fill="none" stroke="#191970" d="M125.1222,-135.254C127.9469,-134.7929 130.7492,-134.3711 133.5,-134 427.8851,-94.2815 509.275,-139.4726 806.4522,-98.1374"/>
<polygon fill="#191970" stroke="#191970" points="807.2503,-101.5595 816.6624,-96.6952 806.2712,-94.6283 807.2503,-101.5595"/>
</g>
<!-- Node9&#45;&gt;Node3 -->
<g id="edge12" class="edge">
<title>Node9&#45;&gt;Node3</title>
<path fill="none" stroke="#191970" d="M258.038,-135.7195C260.8952,-135.1193 263.7277,-134.5424 266.5,-134 355.4168,-116.6039 458.7959,-101.1552 525.3579,-91.8206"/>
<polygon fill="#191970" stroke="#191970" points="525.8904,-95.2803 535.3107,-90.4319 524.923,-88.3475 525.8904,-95.2803"/>
</g>
<!-- Node9&#45;&gt;Node5 -->
<g id="edge13" class="edge">
<title>Node9&#45;&gt;Node5</title>
<path fill="none" stroke="#191970" d="M258.3565,-135.4291C261.1029,-134.9134 263.8277,-134.4331 266.5,-134 440.9498,-105.7285 487.7571,-124.3992 662.5,-98 669.7221,-96.9089 677.3034,-95.5467 684.7356,-94.0857"/>
<polygon fill="#191970" stroke="#191970" points="685.6308,-97.4753 694.7302,-92.0484 684.2326,-90.6164 685.6308,-97.4753"/>
</g>
<!-- Node9&#45;&gt;Node6 -->
<g id="edge14" class="edge">
<title>Node9&#45;&gt;Node6</title>
<path fill="none" stroke="#191970" d="M258.3439,-135.3482C261.0937,-134.8542 263.8227,-134.4005 266.5,-134 501.9984,-98.7701 567.9417,-132.7625 806.6299,-98.1318"/>
<polygon fill="#191970" stroke="#191970" points="807.2744,-101.5747 816.6561,-96.6518 806.2521,-94.6497 807.2744,-101.5747"/>
</g>
<!-- Node10&#45;&gt;Node3 -->
<g id="edge16" class="edge">
<title>Node10&#45;&gt;Node3</title>
<path fill="none" stroke="#191970" d="M391.1007,-134.7136C438.0353,-122.6653 503.4931,-105.8619 547.3512,-94.6033"/>
<polygon fill="#191970" stroke="#191970" points="548.3723,-97.9548 557.188,-92.0782 546.6317,-91.1746 548.3723,-97.9548"/>
</g>
<!-- Node10&#45;&gt;Node5 -->
<g id="edge17" class="edge">
<title>Node10&#45;&gt;Node5</title>
<path fill="none" stroke="#191970" d="M391.0252,-135.6521C393.8858,-135.0697 396.7225,-134.515 399.5,-134 515.5013,-112.4893 546.2747,-118.2656 662.5,-98 669.1889,-96.8337 676.1984,-95.4953 683.117,-94.1043"/>
<polygon fill="#191970" stroke="#191970" points="684.0508,-97.4855 693.1404,-92.0423 682.6403,-90.6291 684.0508,-97.4855"/>
</g>
<!-- Node10&#45;&gt;Node6 -->
<g id="edge18" class="edge">
<title>Node10&#45;&gt;Node6</title>
<path fill="none" stroke="#191970" d="M391.355,-135.4196C394.1018,-134.9065 396.8271,-134.4292 399.5,-134 576.417,-105.5888 626.5269,-126.1603 806.5735,-98.175"/>
<polygon fill="#191970" stroke="#191970" points="807.3154,-101.6013 816.645,-96.5804 806.2207,-94.6874 807.3154,-101.6013"/>
</g>
<!-- Node11&#45;&gt;Node3 -->
<g id="edge20" class="edge">
<title>Node11&#45;&gt;Node3</title>
<path fill="none" stroke="#191970" d="M495.2257,-134.4639C516.7025,-123.2222 545.8862,-107.9463 567.0495,-96.8686"/>
<polygon fill="#191970" stroke="#191970" points="568.9157,-99.8423 576.1522,-92.1039 565.6694,-93.6406 568.9157,-99.8423"/>
</g>
<!-- Node11&#45;&gt;Node5 -->
<g id="edge21" class="edge">
<title>Node11&#45;&gt;Node5</title>
<path fill="none" stroke="#191970" d="M524.2072,-135.1268C572.8613,-123.0085 641.6774,-105.8685 687.3984,-94.4807"/>
<polygon fill="#191970" stroke="#191970" points="688.4994,-97.8135 697.357,-92.0003 686.8075,-91.021 688.4994,-97.8135"/>
</g>
<!-- Node11&#45;&gt;Node6 -->
<g id="edge22" class="edge">
<title>Node11&#45;&gt;Node6</title>
<path fill="none" stroke="#191970" d="M524.0212,-135.6305C526.8828,-135.0538 529.7209,-134.5062 532.5,-134 650.994,-112.415 685.0162,-119.751 806.8813,-98.1863"/>
<polygon fill="#191970" stroke="#191970" points="807.7566,-101.5851 816.9788,-96.3695 806.517,-94.6957 807.7566,-101.5851"/>
</g>
<!-- Node12&#45;&gt;Node3 -->
<g id="edge24" class="edge">
<title>Node12&#45;&gt;Node3</title>
<path fill="none" stroke="#191970" d="M598.3654,-134.2967C597.6545,-124.7699 596.731,-112.3954 595.965,-102.1306"/>
<polygon fill="#191970" stroke="#191970" points="599.4476,-101.7667 595.2131,-92.055 592.4671,-102.2877 599.4476,-101.7667"/>
</g>
<!-- Node12&#45;&gt;Node5 -->
<g id="edge25" class="edge">
<title>Node12&#45;&gt;Node5</title>
<path fill="none" stroke="#191970" d="M630.0211,-134.4639C653.0457,-123.1209 684.4072,-107.6707 706.9394,-96.5703"/>
<polygon fill="#191970" stroke="#191970" points="708.5817,-99.6629 716.0055,-92.1039 705.4882,-93.3836 708.5817,-99.6629"/>
</g>
<!-- Node12&#45;&gt;Node6 -->
<g id="edge26" class="edge">
<title>Node12&#45;&gt;Node6</title>
<path fill="none" stroke="#191970" d="M657.149,-135.4546C700.8749,-124.8014 761.088,-110.1313 807.0514,-98.9329"/>
<polygon fill="#191970" stroke="#191970" points="808.0396,-102.2946 816.9269,-96.5269 806.3826,-95.4936 808.0396,-102.2946"/>
</g>
<!-- Node13&#45;&gt;Node3 -->
<g id="edge28" class="edge">
<title>Node13&#45;&gt;Node3</title>
<path fill="none" stroke="#191970" d="M701.5301,-134.4639C678.1669,-123.1209 646.3441,-107.6707 623.4806,-96.5703"/>
<polygon fill="#191970" stroke="#191970" points="624.8057,-93.323 614.2812,-92.1039 621.7484,-99.62 624.8057,-93.323"/>
</g>
<!-- Node13&#45;&gt;Node5 -->
<g id="edge29" class="edge">
<title>Node13&#45;&gt;Node5</title>
<path fill="none" stroke="#191970" d="M733.1807,-134.2967C733.6073,-124.7699 734.1614,-112.3954 734.621,-102.1306"/>
<polygon fill="#191970" stroke="#191970" points="738.1213,-102.2016 735.0722,-92.055 731.1283,-101.8884 738.1213,-102.2016"/>
</g>
<!-- Node13&#45;&gt;Node6 -->
<g id="edge30" class="edge">
<title>Node13&#45;&gt;Node6</title>
<path fill="none" stroke="#191970" d="M764.3676,-134.4639C784.6875,-124.8763 811.2262,-112.3545 833.1605,-102.0052"/>
<polygon fill="#191970" stroke="#191970" points="834.6972,-105.1503 842.2475,-97.7177 831.7101,-98.8196 834.6972,-105.1503"/>
</g>
<!-- Node14&#45;&gt;Node3 -->
<g id="edge32" class="edge">
<title>Node14&#45;&gt;Node3</title>
<path fill="none" stroke="#191970" d="M1375.8772,-135.4903C1372.715,-134.9339 1369.5741,-134.4308 1366.5,-134 1056.2335,-90.5241 972.8364,-140.9745 662.5,-98 655.5698,-97.0403 648.3038,-95.7242 641.2066,-94.2615"/>
<polygon fill="#191970" stroke="#191970" points="641.5036,-90.7443 630.988,-92.0379 640.0151,-97.5842 641.5036,-90.7443"/>
</g>
<!-- Node14&#45;&gt;Node5 -->
<g id="edge33" class="edge">
<title>Node14&#45;&gt;Node5</title>
<path fill="none" stroke="#191970" d="M1375.8701,-135.5399C1372.7097,-134.9707 1369.5712,-134.4512 1366.5,-134 1120.6242,-97.8737 1054.693,-131.897 808.5,-98 801.0035,-96.9679 793.1279,-95.5999 785.4363,-94.103"/>
<polygon fill="#191970" stroke="#191970" points="785.9751,-90.641 775.4783,-92.0784 784.5804,-97.5007 785.9751,-90.641"/>
</g>
<!-- Node14&#45;&gt;Node6 -->
<g id="edge34" class="edge">
<title>Node14&#45;&gt;Node6</title>
<path fill="none" stroke="#191970" d="M1375.8468,-135.6879C1372.6924,-135.0806 1369.5616,-134.5124 1366.5,-134 1215.9173,-108.7991 1037.2166,-93.7638 942.0642,-86.9282"/>
<polygon fill="#191970" stroke="#191970" points="942.224,-83.4308 932.0011,-86.2135 941.728,-90.4132 942.224,-83.4308"/>
</g>
<!-- Node15 -->
<g id="node15" class="node">
<title>Node15</title>
<g id="a_node15"><a xlink:href="_element_filter_8h.html" target="_top" xlink:title="Base class of element filters. ">
<polygon fill="#ffffff" stroke="#000000" points="1372,-73 1372,-92 1495,-92 1495,-73 1372,-73"/>
<text text-anchor="middle" x="1433.5" y="-80" font-family="Helvetica,sans-Serif" font-size="10.00" fill="#000000">sbml/util/ElementFilter.h</text>
</a>
</g>
</g>
<!-- Node14&#45;&gt;Node15 -->
<g id="edge35" class="edge">
<title>Node14&#45;&gt;Node15</title>
<path fill="none" stroke="#191970" d="M1433.5,-134.2967C1433.5,-124.7699 1433.5,-112.3954 1433.5,-102.1306"/>
<polygon fill="#191970" stroke="#191970" points="1437.0001,-102.0549 1433.5,-92.055 1430.0001,-102.055 1437.0001,-102.0549"/>
</g>
<!-- Node16&#45;&gt;Node3 -->
<g id="edge37" class="edge">
<title>Node16&#45;&gt;Node3</title>
<path fill="none" stroke="#191970" d="M811.6625,-134.4639C761.0401,-122.3507 690.8434,-105.5536 644.1139,-94.3719"/>
<polygon fill="#191970" stroke="#191970" points="644.7636,-90.9286 634.2236,-92.0053 643.1345,-97.7364 644.7636,-90.9286"/>
</g>
<!-- Node16&#45;&gt;Node5 -->
<g id="edge38" class="edge">
<title>Node16&#45;&gt;Node5</title>
<path fill="none" stroke="#191970" d="M843.3057,-134.4639C819.7732,-123.1209 787.7198,-107.6707 764.6906,-96.5703"/>
<polygon fill="#191970" stroke="#191970" points="765.9524,-93.2932 755.4246,-92.1039 762.913,-99.5989 765.9524,-93.2932"/>
</g>
<!-- Node16&#45;&gt;Node6 -->
<g id="edge39" class="edge">
<title>Node16&#45;&gt;Node6</title>
<path fill="none" stroke="#191970" d="M874.5,-134.2967C874.5,-126.5013 874.5,-116.7991 874.5,-107.9064"/>
<polygon fill="#191970" stroke="#191970" points="878.0001,-107.6431 874.5,-97.6432 871.0001,-107.6432 878.0001,-107.6431"/>
</g>
<!-- Node17&#45;&gt;Node3 -->
<g id="edge41" class="edge">
<title>Node17&#45;&gt;Node3</title>
<path fill="none" stroke="#191970" d="M958.9821,-135.6121C956.1196,-135.0403 953.2804,-134.4988 950.5,-134 823.5309,-111.2217 789.5431,-120.3619 662.5,-98 656.2394,-96.898 649.6867,-95.5961 643.225,-94.2227"/>
<polygon fill="#191970" stroke="#191970" points="643.7187,-90.7478 633.201,-92.0239 642.2189,-97.5853 643.7187,-90.7478"/>
</g>
<!-- Node17&#45;&gt;Node5 -->
<g id="edge42" class="edge">
<title>Node17&#45;&gt;Node5</title>
<path fill="none" stroke="#191970" d="M958.9574,-135.7799C907.9899,-123.6275 834.3313,-106.0648 785.7066,-94.471"/>
<polygon fill="#191970" stroke="#191970" points="786.2669,-91.0065 775.7278,-92.0917 784.6433,-97.8156 786.2669,-91.0065"/>
</g>
<!-- Node17&#45;&gt;Node6 -->
<g id="edge43" class="edge">
<title>Node17&#45;&gt;Node6</title>
<path fill="none" stroke="#191970" d="M984.6324,-134.4639C964.3125,-124.8763 937.7738,-112.3545 915.8395,-102.0052"/>
<polygon fill="#191970" stroke="#191970" points="917.2899,-98.8196 906.7525,-97.7177 914.3028,-105.1503 917.2899,-98.8196"/>
</g>
<!-- Node18&#45;&gt;Node3 -->
<g id="edge45" class="edge">
<title>Node18&#45;&gt;Node3</title>
<path fill="none" stroke="#191970" d="M1091.6463,-135.4113C1088.8992,-134.9004 1086.1734,-134.4259 1083.5,-134 898.0448,-104.4545 848.0511,-126.9374 662.5,-98 655.8283,-96.9595 648.8366,-95.6369 641.9808,-94.2043"/>
<polygon fill="#191970" stroke="#191970" points="642.6027,-90.7577 632.0866,-92.0469 641.1114,-97.597 642.6027,-90.7577"/>
</g>
<!-- Node18&#45;&gt;Node5 -->
<g id="edge46" class="edge">
<title>Node18&#45;&gt;Node5</title>
<path fill="none" stroke="#191970" d="M1091.9785,-135.6321C1089.117,-135.055 1086.279,-134.5069 1083.5,-134 962.2357,-111.8811 929.9945,-118.8172 808.5,-98 801.7219,-96.8386 794.6163,-95.4925 787.6105,-94.0882"/>
<polygon fill="#191970" stroke="#191970" points="787.9671,-90.5884 777.4672,-92.0038 786.558,-97.4451 787.9671,-90.5884"/>
</g>
<!-- Node18&#45;&gt;Node6 -->
<g id="edge47" class="edge">
<title>Node18&#45;&gt;Node6</title>
<path fill="none" stroke="#191970" d="M1091.851,-135.4546C1048.1251,-124.8014 987.912,-110.1313 941.9486,-98.9329"/>
<polygon fill="#191970" stroke="#191970" points="942.6174,-95.4936 932.0731,-96.5269 940.9604,-102.2946 942.6174,-95.4936"/>
</g>
</g>
</svg>
