<?xml version="1.0" encoding="UTF-8" standalone="no"?>
<!DOCTYPE svg PUBLIC "-//W3C//DTD SVG 1.1//EN"
 "http://www.w3.org/Graphics/SVG/1.1/DTD/svg11.dtd">
<!-- Generated by graphviz version 2.40.1 (20161225.0304)
 -->
<!-- Title: Unit.h Pages: 1 -->
<svg width="752pt" height="341pt"
 viewBox="0.00 0.00 751.55 341.00" xmlns="http://www.w3.org/2000/svg" xmlns:xlink="http://www.w3.org/1999/xlink">
<g id="graph0" class="graph" transform="scale(1 1) rotate(0) translate(4 337)">
<title>Unit.h</title>
<polygon fill="#ffffff" stroke="transparent" points="-4,4 -4,-337 747.5498,-337 747.5498,4 -4,4"/>
<!-- Node1 -->
<g id="node1" class="node">
<title>Node1</title>
<polygon fill="#bfbfbf" stroke="#000000" points="550.5498,-313.5 550.5498,-332.5 593.5498,-332.5 593.5498,-313.5 550.5498,-313.5"/>
<text text-anchor="middle" x="572.0498" y="-320.5" font-family="Helvetica,sans-Serif" font-size="10.00" fill="#000000">Unit.h</text>
</g>
<!-- Node2 -->
<g id="node2" class="node">
<title>Node2</title>
<polygon fill="#ffffff" stroke="#bfbfbf" points="268.5498,-257.5 268.5498,-276.5 315.5498,-276.5 315.5498,-257.5 268.5498,-257.5"/>
<text text-anchor="middle" x="292.0498" y="-264.5" font-family="Helvetica,sans-Serif" font-size="10.00" fill="#000000">math.h</text>
</g>
<!-- Node1&#45;&gt;Node2 -->
<g id="edge1" class="edge">
<title>Node1&#45;&gt;Node2</title>
<path fill="none" stroke="#191970" d="M550.4047,-319.7911C508.7913,-313.4479 414.6093,-298.2508 325.7273,-276.9464"/>
<polygon fill="#191970" stroke="#191970" points="326.3004,-273.484 315.7568,-274.5249 324.6483,-280.2862 326.3004,-273.484"/>
</g>
<!-- Node3 -->
<g id="node3" class="node">
<title>Node3</title>
<g id="a_node3"><a xlink:href="common_8h.html" target="_top" xlink:title="Common functions and macros for C and C++. ">
<polygon fill="#ffffff" stroke="#000000" points="334.0498,-257.5 334.0498,-276.5 462.0498,-276.5 462.0498,-257.5 334.0498,-257.5"/>
<text text-anchor="middle" x="398.0498" y="-264.5" font-family="Helvetica,sans-Serif" font-size="10.00" fill="#000000">sbml/common/common.h</text>
</a>
</g>
</g>
<!-- Node1&#45;&gt;Node3 -->
<g id="edge2" class="edge">
<title>Node1&#45;&gt;Node3</title>
<path fill="none" stroke="#191970" d="M550.3644,-316.0208C522.1729,-306.9477 472.4188,-290.9348 437.4653,-279.6855"/>
<polygon fill="#191970" stroke="#191970" points="438.1734,-276.2366 427.582,-276.5046 436.0288,-282.9 438.1734,-276.2366"/>
</g>
<!-- Node8 -->
<g id="node8" class="node">
<title>Node8</title>
<g id="a_node8"><a xlink:href="extern_8h.html" target="_top" xlink:title="Definitions of LIBSBML_EXTERN and related things. ">
<polygon fill="#ffffff" stroke="#000000" points="307.0498,-67.5 307.0498,-86.5 425.0498,-86.5 425.0498,-67.5 307.0498,-67.5"/>
<text text-anchor="middle" x="366.0498" y="-74.5" font-family="Helvetica,sans-Serif" font-size="10.00" fill="#000000">sbml/common/extern.h</text>
</a>
</g>
</g>
<!-- Node1&#45;&gt;Node8 -->
<g id="edge16" class="edge">
<title>Node1&#45;&gt;Node8</title>
<path fill="none" stroke="#191970" d="M573.8672,-313.0841C579.1475,-280.9124 591.0557,-178.3269 540.0498,-123 525.6386,-107.3679 477.3771,-95.3563 435.3276,-87.5335"/>
<polygon fill="#191970" stroke="#191970" points="435.8176,-84.0654 425.3548,-85.7331 434.5739,-90.9541 435.8176,-84.0654"/>
</g>
<!-- Node13 -->
<g id="node13" class="node">
<title>Node13</title>
<polygon fill="#ffffff" stroke="#bfbfbf" points="600.5498,-257.5 600.5498,-276.5 727.5498,-276.5 727.5498,-257.5 600.5498,-257.5"/>
<text text-anchor="middle" x="664.0498" y="-264.5" font-family="Helvetica,sans-Serif" font-size="10.00" fill="#000000">sbml/common/sbmlfwd.h</text>
</g>
<!-- Node1&#45;&gt;Node13 -->
<g id="edge17" class="edge">
<title>Node1&#45;&gt;Node13</title>
<path fill="none" stroke="#191970" d="M588.075,-313.2455C602.1906,-304.6534 622.9762,-292.0014 639.2397,-282.1018"/>
<polygon fill="#191970" stroke="#191970" points="641.4861,-284.8319 648.2083,-276.6427 637.8465,-278.8525 641.4861,-284.8319"/>
</g>
<!-- Node14 -->
<g id="node14" class="node">
<title>Node14</title>
<g id="a_node14"><a xlink:href="_unit_kind_8h.html" target="_top" xlink:title="Definition of SBML&#39;s UnitKind enumeration. ">
<polygon fill="#ffffff" stroke="#000000" points="656.5498,-196 656.5498,-215 743.5498,-215 743.5498,-196 656.5498,-196"/>
<text text-anchor="middle" x="700.0498" y="-203" font-family="Helvetica,sans-Serif" font-size="10.00" fill="#000000">sbml/UnitKind.h</text>
</a>
</g>
</g>
<!-- Node1&#45;&gt;Node14 -->
<g id="edge18" class="edge">
<title>Node1&#45;&gt;Node14</title>
<path fill="none" stroke="#191970" d="M593.6407,-320.2107C634.2855,-314.4694 719.65,-299.9142 737.0498,-277 750.0779,-259.843 734.0055,-237.427 719.1516,-222.304"/>
<polygon fill="#191970" stroke="#191970" points="721.2992,-219.5147 711.6556,-215.127 716.4582,-224.5708 721.2992,-219.5147"/>
</g>
<!-- Node4 -->
<g id="node4" class="node">
<title>Node4</title>
<g id="a_node4"><a xlink:href="libsbml-config_8h.html" target="_top" xlink:title="Decides whether to #include Unix or Windows configuration variables. ">
<polygon fill="#ffffff" stroke="#000000" points="108.5498,-190.5 108.5498,-220.5 221.5498,-220.5 221.5498,-190.5 108.5498,-190.5"/>
<text text-anchor="start" x="116.5498" y="-208.5" font-family="Helvetica,sans-Serif" font-size="10.00" fill="#000000">sbml/common/libsbml</text>
<text text-anchor="middle" x="165.0498" y="-197.5" font-family="Helvetica,sans-Serif" font-size="10.00" fill="#000000">&#45;config.h</text>
</a>
</g>
</g>
<!-- Node3&#45;&gt;Node4 -->
<g id="edge3" class="edge">
<title>Node3&#45;&gt;Node4</title>
<path fill="none" stroke="#191970" d="M361.8992,-257.4581C327.1536,-248.287 273.8165,-234.2088 231.4223,-223.0189"/>
<polygon fill="#191970" stroke="#191970" points="232.2907,-219.6283 221.7286,-220.4603 230.5042,-226.3965 232.2907,-219.6283"/>
</g>
<!-- Node3&#45;&gt;Node8 -->
<g id="edge10" class="edge">
<title>Node3&#45;&gt;Node8</title>
<path fill="none" stroke="#191970" d="M374.2639,-257.4178C359.183,-249.9442 340.9036,-237.9629 332.0498,-221 310.2652,-179.263 337.1012,-123.478 354.1048,-95.1534"/>
<polygon fill="#191970" stroke="#191970" points="357.0806,-96.996 359.4099,-86.6603 351.1436,-93.2875 357.0806,-96.996"/>
</g>
<!-- Node9 -->
<g id="node9" class="node">
<title>Node9</title>
<polygon fill="#ffffff" stroke="#bfbfbf" points="352.0498,-129 352.0498,-148 398.0498,-148 398.0498,-129 352.0498,-129"/>
<text text-anchor="middle" x="375.0498" y="-136" font-family="Helvetica,sans-Serif" font-size="10.00" fill="#000000">stdio.h</text>
</g>
<!-- Node3&#45;&gt;Node9 -->
<g id="edge9" class="edge">
<title>Node3&#45;&gt;Node9</title>
<path fill="none" stroke="#191970" d="M377.8937,-257.4543C364.1683,-249.7394 347.0863,-237.4561 339.0498,-221 328.3049,-198.9977 344.1993,-173.0229 358.1485,-156.1809"/>
<polygon fill="#191970" stroke="#191970" points="361.1292,-158.0922 365.1144,-148.2755 355.8772,-153.4644 361.1292,-158.0922"/>
</g>
<!-- Node10 -->
<g id="node10" class="node">
<title>Node10</title>
<g id="a_node10"><a xlink:href="memory_8h.html" target="_top" xlink:title="sbml/util/memory.h">
<polygon fill="#ffffff" stroke="#000000" points="348.0498,-196 348.0498,-215 448.0498,-215 448.0498,-196 348.0498,-196"/>
<text text-anchor="middle" x="398.0498" y="-203" font-family="Helvetica,sans-Serif" font-size="10.00" fill="#000000">sbml/util/memory.h</text>
</a>
</g>
</g>
<!-- Node3&#45;&gt;Node10 -->
<g id="edge11" class="edge">
<title>Node3&#45;&gt;Node10</title>
<path fill="none" stroke="#191970" d="M398.0498,-257.3906C398.0498,-248.8657 398.0498,-236.1392 398.0498,-225.4235"/>
<polygon fill="#191970" stroke="#191970" points="401.5499,-225.2448 398.0498,-215.2449 394.5499,-225.2449 401.5499,-225.2448"/>
</g>
<!-- Node11 -->
<g id="node11" class="node">
<title>Node11</title>
<g id="a_node11"><a xlink:href="util_8h.html" target="_top" xlink:title="Utility functions. ">
<polygon fill="#ffffff" stroke="#000000" points="466.5498,-196 466.5498,-215 543.5498,-215 543.5498,-196 466.5498,-196"/>
<text text-anchor="middle" x="505.0498" y="-203" font-family="Helvetica,sans-Serif" font-size="10.00" fill="#000000">sbml/util/util.h</text>
</a>
</g>
</g>
<!-- Node3&#45;&gt;Node11 -->
<g id="edge12" class="edge">
<title>Node3&#45;&gt;Node11</title>
<path fill="none" stroke="#191970" d="M414.7686,-257.3906C432.122,-247.4165 459.4822,-231.6908 479.538,-220.1633"/>
<polygon fill="#191970" stroke="#191970" points="481.5227,-223.0596 488.4485,-215.0419 478.0344,-216.9907 481.5227,-223.0596"/>
</g>
<!-- Node5 -->
<g id="node5" class="node">
<title>Node5</title>
<g id="a_node5"><a xlink:href="libsbml-namespace_8h.html" target="_top" xlink:title="Defines C++ namespace of libSBML. ">
<polygon fill="#ffffff" stroke="#000000" points="83.5498,-.5 83.5498,-30.5 196.5498,-30.5 196.5498,-.5 83.5498,-.5"/>
<text text-anchor="start" x="91.5498" y="-18.5" font-family="Helvetica,sans-Serif" font-size="10.00" fill="#000000">sbml/common/libsbml</text>
<text text-anchor="middle" x="140.0498" y="-7.5" font-family="Helvetica,sans-Serif" font-size="10.00" fill="#000000">&#45;namespace.h</text>
</a>
</g>
</g>
<!-- Node4&#45;&gt;Node5 -->
<g id="edge4" class="edge">
<title>Node4&#45;&gt;Node5</title>
<path fill="none" stroke="#191970" d="M108.5072,-194.1089C68.9365,-184.8563 21.081,-170.6416 9.0498,-154 -24.4476,-107.6659 46.9139,-60.7979 96.8704,-35.2148"/>
<polygon fill="#191970" stroke="#191970" points="98.5401,-38.2932 105.9192,-30.6906 95.4096,-32.0322 98.5401,-38.2932"/>
</g>
<!-- Node6 -->
<g id="node6" class="node">
<title>Node6</title>
<g id="a_node6"><a xlink:href="libsbml-config-common_8h.html" target="_top" xlink:title="Configuration variables. ">
<polygon fill="#ffffff" stroke="#000000" points="18.5498,-123.5 18.5498,-153.5 131.5498,-153.5 131.5498,-123.5 18.5498,-123.5"/>
<text text-anchor="start" x="26.5498" y="-141.5" font-family="Helvetica,sans-Serif" font-size="10.00" fill="#000000">sbml/common/libsbml</text>
<text text-anchor="middle" x="75.0498" y="-130.5" font-family="Helvetica,sans-Serif" font-size="10.00" fill="#000000">&#45;config&#45;common.h</text>
</a>
</g>
</g>
<!-- Node4&#45;&gt;Node6 -->
<g id="edge5" class="edge">
<title>Node4&#45;&gt;Node6</title>
<path fill="none" stroke="#191970" d="M144.6274,-190.2967C132.545,-181.302 117.0526,-169.7687 103.755,-159.8694"/>
<polygon fill="#191970" stroke="#191970" points="105.5028,-156.8072 95.3914,-153.6432 101.3228,-162.4221 105.5028,-156.8072"/>
</g>
<!-- Node7 -->
<g id="node7" class="node">
<title>Node7</title>
<g id="a_node7"><a xlink:href="libsbml-version_8h.html" target="_top" xlink:title="Define libSBML version numbers for access from client software. ">
<polygon fill="#ffffff" stroke="#000000" points="149.5498,-123.5 149.5498,-153.5 262.5498,-153.5 262.5498,-123.5 149.5498,-123.5"/>
<text text-anchor="start" x="157.5498" y="-141.5" font-family="Helvetica,sans-Serif" font-size="10.00" fill="#000000">sbml/common/libsbml</text>
<text text-anchor="middle" x="206.0498" y="-130.5" font-family="Helvetica,sans-Serif" font-size="10.00" fill="#000000">&#45;version.h</text>
</a>
</g>
</g>
<!-- Node4&#45;&gt;Node7 -->
<g id="edge6" class="edge">
<title>Node4&#45;&gt;Node7</title>
<path fill="none" stroke="#191970" d="M174.3534,-190.2967C179.3858,-182.0729 185.7168,-171.7272 191.3949,-162.4483"/>
<polygon fill="#191970" stroke="#191970" points="194.5488,-163.9997 196.7831,-153.6432 188.578,-160.346 194.5488,-163.9997"/>
</g>
<!-- Node7&#45;&gt;Node8 -->
<g id="edge7" class="edge">
<title>Node7&#45;&gt;Node8</title>
<path fill="none" stroke="#191970" d="M245.1902,-123.4554C271.6525,-113.284 306.2679,-99.9787 331.6681,-90.2155"/>
<polygon fill="#191970" stroke="#191970" points="333.1771,-93.3852 341.2555,-86.5303 330.6655,-86.8512 333.1771,-93.3852"/>
</g>
<!-- Node8&#45;&gt;Node5 -->
<g id="edge8" class="edge">
<title>Node8&#45;&gt;Node5</title>
<path fill="none" stroke="#191970" d="M330.7373,-67.3906C297.2481,-58.2774 246.1144,-44.3627 205.2253,-33.2358"/>
<polygon fill="#191970" stroke="#191970" points="205.9038,-29.7932 195.3357,-30.5446 204.0657,-36.5476 205.9038,-29.7932"/>
</g>
<!-- Node11&#45;&gt;Node8 -->
<g id="edge15" class="edge">
<title>Node11&#45;&gt;Node8</title>
<path fill="none" stroke="#191970" d="M494.6022,-195.8416C471.0562,-174.0742 413.6073,-120.965 384.1373,-93.7212"/>
<polygon fill="#191970" stroke="#191970" points="386.3376,-90.9887 376.6187,-86.7705 381.5858,-96.1288 386.3376,-90.9887"/>
</g>
<!-- Node11&#45;&gt;Node9 -->
<g id="edge13" class="edge">
<title>Node11&#45;&gt;Node9</title>
<path fill="none" stroke="#191970" d="M486.424,-195.9005C464.5105,-184.6067 427.9242,-165.7506 402.6986,-152.7497"/>
<polygon fill="#191970" stroke="#191970" points="404.1335,-149.5518 393.6411,-148.0817 400.9266,-155.774 404.1335,-149.5518"/>
</g>
<!-- Node12 -->
<g id="node12" class="node">
<title>Node12</title>
<polygon fill="#ffffff" stroke="#bfbfbf" points="478.5498,-129 478.5498,-148 531.5498,-148 531.5498,-129 478.5498,-129"/>
<text text-anchor="middle" x="505.0498" y="-136" font-family="Helvetica,sans-Serif" font-size="10.00" fill="#000000">stdarg.h</text>
</g>
<!-- Node11&#45;&gt;Node12 -->
<g id="edge14" class="edge">
<title>Node11&#45;&gt;Node12</title>
<path fill="none" stroke="#191970" d="M505.0498,-195.9005C505.0498,-186.149 505.0498,-170.7597 505.0498,-158.3695"/>
<polygon fill="#191970" stroke="#191970" points="508.5499,-158.0816 505.0498,-148.0817 501.5499,-158.0817 508.5499,-158.0816"/>
</g>
<!-- Node14&#45;&gt;Node8 -->
<g id="edge19" class="edge">
<title>Node14&#45;&gt;Node8</title>
<path fill="none" stroke="#191970" d="M689.9878,-195.8942C671.1808,-178.5058 628.7273,-141.8686 586.0498,-123 538.0418,-101.7746 479.7406,-90.1543 435.22,-83.9055"/>
<polygon fill="#191970" stroke="#191970" points="435.4559,-80.4058 425.0784,-82.541 434.5224,-87.3433 435.4559,-80.4058"/>
</g>
</g>
</svg>
