<?xml version="1.0" encoding="UTF-8" standalone="no"?>
<!DOCTYPE svg PUBLIC "-//W3C//DTD SVG 1.1//EN"
 "http://www.w3.org/Graphics/SVG/1.1/DTD/svg11.dtd">
<!-- Generated by graphviz version 2.40.1 (20161225.0304)
 -->
<!-- Title: UnitKind.c Pages: 1 -->
<!--zoomable 341 -->
<svg id="main" version="1.1" xmlns="http://www.w3.org/2000/svg" xmlns:xlink="http://www.w3.org/1999/xlink" xml:space="preserve" onload="init(evt)">
<style type="text/css"><![CDATA[
.edge:hover path { stroke: red; }
.edge:hover polygon { stroke: red; fill: red; }
]]></style>
<script type="text/javascript"><![CDATA[
var edges = document.getElementsByTagName('g');
if (edges && edges.length) {
  for (var i=0;i<edges.length;i++) {
    if (edges[i].id.substr(0,4)=='edge') {
      edges[i].setAttribute('class','edge');
    }
  }
}
]]></script>
        <defs>
                <circle id="rim" cx="0" cy="0" r="7"/>
                <circle id="rim2" cx="0" cy="0" r="3.5"/>
                <g id="zoomPlus">
                        <use xlink:href="#rim" fill="#404040">
                                <set attributeName="fill" to="#808080" begin="zoomplus.mouseover" end="zoomplus.mouseout"/>
                        </use>
                        <path d="M-4,0h8M0,-4v8" fill="none" stroke="white" stroke-width="1.5" pointer-events="none"/>
                </g>
                <g id="zoomMin">
                        <use xlink:href="#rim" fill="#404040">
                                <set attributeName="fill" to="#808080" begin="zoomminus.mouseover" end="zoomminus.mouseout"/>
                        </use>
                        <path d="M-4,0h8" fill="none" stroke="white" stroke-width="1.5" pointer-events="none"/>
                </g>
                <g id="dirArrow">
                        <path fill="none" stroke="white" stroke-width="1.5" d="M0,-3.0v7 M-2.5,-0.5L0,-3.0L2.5,-0.5"/>
                </g>
               <g id="resetDef">
                       <use xlink:href="#rim2" fill="#404040">
                               <set attributeName="fill" to="#808080" begin="reset.mouseover" end="reset.mouseout"/>
                       </use>
               </g>
        </defs>

<script type="text/javascript">
var viewWidth = 588;
var viewHeight = 341;
var sectionId = 'dynsection-0';
</script>
<script xlink:href="svgpan.js"/>
<svg id="graph" class="graph">
<g id="viewport">
<title>UnitKind.c</title>
<polygon fill="#ffffff" stroke="transparent" points="-4,4 -4,-337 584.049,-337 584.049,4 -4,4"/>
<!-- Node1 -->
<g id="node1" class="node">
<title>Node1</title>
<polygon fill="#bfbfbf" stroke="#000000" points="399.549,-313.5 399.549,-332.5 461.549,-332.5 461.549,-313.5 399.549,-313.5"/>
<text text-anchor="middle" x="430.549" y="-320.5" font-family="Helvetica,sans-Serif" font-size="10.00" fill="#000000">UnitKind.c</text>
</g>
<!-- Node2 -->
<g id="node2" class="node">
<title>Node2</title>
<g id="a_node2"><a xlink:href="common_8h.html" target="_top" xlink:title="Common functions and macros for C and C++. ">
<polygon fill="#ffffff" stroke="#000000" points="303.549,-257.5 303.549,-276.5 431.549,-276.5 431.549,-257.5 303.549,-257.5"/>
<text text-anchor="middle" x="367.549" y="-264.5" font-family="Helvetica,sans-Serif" font-size="10.00" fill="#000000">sbml/common/common.h</text>
</a>
</g>
</g>
<!-- Node1&#45;&gt;Node2 -->
<g id="edge1" class="edge">
<title>Node1&#45;&gt;Node2</title>
<path fill="none" stroke="#191970" d="M419.5752,-313.2455C410.3608,-305.0549 396.9958,-293.1749 386.1193,-283.5069"/>
<polygon fill="#191970" stroke="#191970" points="388.1964,-280.6704 378.397,-276.6427 383.5458,-285.9023 388.1964,-280.6704"/>
</g>
<!-- Node12 -->
<g id="node12" class="node">
<title>Node12</title>
<g id="a_node12"><a xlink:href="_unit_kind_8h.html" target="_top" xlink:title="Definition of SBML&#39;s UnitKind enumeration. ">
<polygon fill="#ffffff" stroke="#000000" points="493.049,-257.5 493.049,-276.5 580.049,-276.5 580.049,-257.5 493.049,-257.5"/>
<text text-anchor="middle" x="536.549" y="-264.5" font-family="Helvetica,sans-Serif" font-size="10.00" fill="#000000">sbml/UnitKind.h</text>
</a>
</g>
</g>
<!-- Node1&#45;&gt;Node12 -->
<g id="edge15" class="edge">
<title>Node1&#45;&gt;Node12</title>
<path fill="none" stroke="#191970" d="M449.0128,-313.2455C465.6564,-304.4527 490.3483,-291.4079 509.2681,-281.4125"/>
<polygon fill="#191970" stroke="#191970" points="511.0898,-284.4086 518.2968,-276.6427 507.8199,-278.2193 511.0898,-284.4086"/>
</g>
<!-- Node3 -->
<g id="node3" class="node">
<title>Node3</title>
<g id="a_node3"><a xlink:href="libsbml-config_8h.html" target="_top" xlink:title="Decides whether to #include Unix or Windows configuration variables. ">
<polygon fill="#ffffff" stroke="#000000" points="84.049,-190.5 84.049,-220.5 197.049,-220.5 197.049,-190.5 84.049,-190.5"/>
<text text-anchor="start" x="92.049" y="-208.5" font-family="Helvetica,sans-Serif" font-size="10.00" fill="#000000">sbml/common/libsbml</text>
<text text-anchor="middle" x="140.549" y="-197.5" font-family="Helvetica,sans-Serif" font-size="10.00" fill="#000000">&#45;config.h</text>
</a>
</g>
</g>
<!-- Node2&#45;&gt;Node3 -->
<g id="edge2" class="edge">
<title>Node2&#45;&gt;Node3</title>
<path fill="none" stroke="#191970" d="M332.0802,-257.3906C298.3717,-248.2581 246.8656,-234.3038 205.7525,-223.1653"/>
<polygon fill="#191970" stroke="#191970" points="206.6467,-219.7814 196.0794,-220.5446 204.8162,-226.5379 206.6467,-219.7814"/>
</g>
<!-- Node7 -->
<g id="node7" class="node">
<title>Node7</title>
<g id="a_node7"><a xlink:href="extern_8h.html" target="_top" xlink:title="Definitions of LIBSBML_EXTERN and related things. ">
<polygon fill="#ffffff" stroke="#000000" points="231.549,-67.5 231.549,-86.5 349.549,-86.5 349.549,-67.5 231.549,-67.5"/>
<text text-anchor="middle" x="290.549" y="-74.5" font-family="Helvetica,sans-Serif" font-size="10.00" fill="#000000">sbml/common/extern.h</text>
</a>
</g>
</g>
<!-- Node2&#45;&gt;Node7 -->
<g id="edge9" class="edge">
<title>Node2&#45;&gt;Node7</title>
<path fill="none" stroke="#191970" d="M361.7447,-257.3474C356.3715,-248.1865 348.359,-233.9344 342.549,-221 323.0307,-177.548 305.3566,-124.3639 296.5097,-96.3676"/>
<polygon fill="#191970" stroke="#191970" points="299.7913,-95.1339 293.4696,-86.6317 293.1095,-97.2204 299.7913,-95.1339"/>
</g>
<!-- Node8 -->
<g id="node8" class="node">
<title>Node8</title>
<polygon fill="#ffffff" stroke="#bfbfbf" points="335.549,-129 335.549,-148 381.549,-148 381.549,-129 335.549,-129"/>
<text text-anchor="middle" x="358.549" y="-136" font-family="Helvetica,sans-Serif" font-size="10.00" fill="#000000">stdio.h</text>
</g>
<!-- Node2&#45;&gt;Node8 -->
<g id="edge8" class="edge">
<title>Node2&#45;&gt;Node8</title>
<path fill="none" stroke="#191970" d="M361.8545,-257.1646C356.9626,-248.1092 350.2798,-234.1298 347.549,-221 343.1078,-199.647 347.7276,-174.7941 352.2675,-157.9914"/>
<polygon fill="#191970" stroke="#191970" points="355.6746,-158.8112 355.1433,-148.2297 348.9599,-156.833 355.6746,-158.8112"/>
</g>
<!-- Node9 -->
<g id="node9" class="node">
<title>Node9</title>
<g id="a_node9"><a xlink:href="memory_8h.html" target="_top" xlink:title="sbml/util/memory.h">
<polygon fill="#ffffff" stroke="#000000" points="356.549,-196 356.549,-215 456.549,-215 456.549,-196 356.549,-196"/>
<text text-anchor="middle" x="406.549" y="-203" font-family="Helvetica,sans-Serif" font-size="10.00" fill="#000000">sbml/util/memory.h</text>
</a>
</g>
</g>
<!-- Node2&#45;&gt;Node9 -->
<g id="edge10" class="edge">
<title>Node2&#45;&gt;Node9</title>
<path fill="none" stroke="#191970" d="M373.6427,-257.3906C379.3333,-248.417 387.9761,-234.7879 394.9763,-223.7491"/>
<polygon fill="#191970" stroke="#191970" points="397.9696,-225.5644 400.3693,-215.2449 392.058,-221.8155 397.9696,-225.5644"/>
</g>
<!-- Node10 -->
<g id="node10" class="node">
<title>Node10</title>
<g id="a_node10"><a xlink:href="util_8h.html" target="_top" xlink:title="Utility functions. ">
<polygon fill="#ffffff" stroke="#000000" points="475.049,-196 475.049,-215 552.049,-215 552.049,-196 475.049,-196"/>
<text text-anchor="middle" x="513.549" y="-203" font-family="Helvetica,sans-Serif" font-size="10.00" fill="#000000">sbml/util/util.h</text>
</a>
</g>
</g>
<!-- Node2&#45;&gt;Node10 -->
<g id="edge11" class="edge">
<title>Node2&#45;&gt;Node10</title>
<path fill="none" stroke="#191970" d="M390.3615,-257.3906C414.8971,-247.0554 454.0932,-230.5447 481.67,-218.9284"/>
<polygon fill="#191970" stroke="#191970" points="483.0396,-222.1495 490.8967,-215.0419 480.3222,-215.6984 483.0396,-222.1495"/>
</g>
<!-- Node4 -->
<g id="node4" class="node">
<title>Node4</title>
<g id="a_node4"><a xlink:href="libsbml-namespace_8h.html" target="_top" xlink:title="Defines C++ namespace of libSBML. ">
<polygon fill="#ffffff" stroke="#000000" points="83.049,-.5 83.049,-30.5 196.049,-30.5 196.049,-.5 83.049,-.5"/>
<text text-anchor="start" x="91.049" y="-18.5" font-family="Helvetica,sans-Serif" font-size="10.00" fill="#000000">sbml/common/libsbml</text>
<text text-anchor="middle" x="139.549" y="-7.5" font-family="Helvetica,sans-Serif" font-size="10.00" fill="#000000">&#45;namespace.h</text>
</a>
</g>
</g>
<!-- Node3&#45;&gt;Node4 -->
<g id="edge3" class="edge">
<title>Node3&#45;&gt;Node4</title>
<path fill="none" stroke="#191970" d="M84.0885,-190.3919C52.5167,-180.6785 17.7082,-167.4051 8.549,-154 -23.6182,-106.9212 46.8353,-60.4837 96.3583,-35.145"/>
<polygon fill="#191970" stroke="#191970" points="97.9493,-38.2627 105.3322,-30.6638 94.822,-32.0001 97.9493,-38.2627"/>
</g>
<!-- Node5 -->
<g id="node5" class="node">
<title>Node5</title>
<g id="a_node5"><a xlink:href="libsbml-config-common_8h.html" target="_top" xlink:title="Configuration variables. ">
<polygon fill="#ffffff" stroke="#000000" points="18.049,-123.5 18.049,-153.5 131.049,-153.5 131.049,-123.5 18.049,-123.5"/>
<text text-anchor="start" x="26.049" y="-141.5" font-family="Helvetica,sans-Serif" font-size="10.00" fill="#000000">sbml/common/libsbml</text>
<text text-anchor="middle" x="74.549" y="-130.5" font-family="Helvetica,sans-Serif" font-size="10.00" fill="#000000">&#45;config&#45;common.h</text>
</a>
</g>
</g>
<!-- Node3&#45;&gt;Node5 -->
<g id="edge4" class="edge">
<title>Node3&#45;&gt;Node5</title>
<path fill="none" stroke="#191970" d="M125.5725,-190.2967C117.0496,-181.6446 106.213,-170.6438 96.7207,-161.0076"/>
<polygon fill="#191970" stroke="#191970" points="98.9773,-158.311 89.4661,-153.6432 93.9904,-163.2234 98.9773,-158.311"/>
</g>
<!-- Node6 -->
<g id="node6" class="node">
<title>Node6</title>
<g id="a_node6"><a xlink:href="libsbml-version_8h.html" target="_top" xlink:title="Define libSBML version numbers for access from client software. ">
<polygon fill="#ffffff" stroke="#000000" points="149.049,-123.5 149.049,-153.5 262.049,-153.5 262.049,-123.5 149.049,-123.5"/>
<text text-anchor="start" x="157.049" y="-141.5" font-family="Helvetica,sans-Serif" font-size="10.00" fill="#000000">sbml/common/libsbml</text>
<text text-anchor="middle" x="205.549" y="-130.5" font-family="Helvetica,sans-Serif" font-size="10.00" fill="#000000">&#45;version.h</text>
</a>
</g>
</g>
<!-- Node3&#45;&gt;Node6 -->
<g id="edge5" class="edge">
<title>Node3&#45;&gt;Node6</title>
<path fill="none" stroke="#191970" d="M155.2985,-190.2967C163.6922,-181.6446 174.3647,-170.6438 183.7132,-161.0076"/>
<polygon fill="#191970" stroke="#191970" points="186.4068,-163.2577 190.8578,-153.6432 181.3826,-158.3835 186.4068,-163.2577"/>
</g>
<!-- Node6&#45;&gt;Node7 -->
<g id="edge6" class="edge">
<title>Node6&#45;&gt;Node7</title>
<path fill="none" stroke="#191970" d="M226.5602,-123.2977C239.3423,-114.0495 255.6436,-102.2551 268.5937,-92.8853"/>
<polygon fill="#191970" stroke="#191970" points="270.8893,-95.5445 276.9394,-86.8469 266.7859,-89.8732 270.8893,-95.5445"/>
</g>
<!-- Node7&#45;&gt;Node4 -->
<g id="edge7" class="edge">
<title>Node7&#45;&gt;Node4</title>
<path fill="none" stroke="#191970" d="M266.9552,-67.3906C245.3839,-58.6049 212.8557,-45.3567 186.0667,-34.446"/>
<polygon fill="#191970" stroke="#191970" points="187.0693,-31.0752 176.4877,-30.5446 184.4288,-37.5581 187.0693,-31.0752"/>
</g>
<!-- Node10&#45;&gt;Node7 -->
<g id="edge14" class="edge">
<title>Node10&#45;&gt;Node7</title>
<path fill="none" stroke="#191970" d="M500.6997,-195.8753C478.7888,-179.6962 432.4901,-146.5139 390.549,-123 368.7752,-110.7928 343.1858,-99.0666 323.3437,-90.5088"/>
<polygon fill="#191970" stroke="#191970" points="324.6784,-87.2731 314.1066,-86.574 321.935,-93.7131 324.6784,-87.2731"/>
</g>
<!-- Node10&#45;&gt;Node8 -->
<g id="edge12" class="edge">
<title>Node10&#45;&gt;Node8</title>
<path fill="none" stroke="#191970" d="M491.3412,-195.9005C464.7532,-184.4077 420.0487,-165.0838 389.9376,-152.068"/>
<polygon fill="#191970" stroke="#191970" points="391.2834,-148.8368 380.7155,-148.0817 388.5059,-155.2622 391.2834,-148.8368"/>
</g>
<!-- Node11 -->
<g id="node11" class="node">
<title>Node11</title>
<polygon fill="#ffffff" stroke="#bfbfbf" points="487.049,-129 487.049,-148 540.049,-148 540.049,-129 487.049,-129"/>
<text text-anchor="middle" x="513.549" y="-136" font-family="Helvetica,sans-Serif" font-size="10.00" fill="#000000">stdarg.h</text>
</g>
<!-- Node10&#45;&gt;Node11 -->
<g id="edge13" class="edge">
<title>Node10&#45;&gt;Node11</title>
<path fill="none" stroke="#191970" d="M513.549,-195.9005C513.549,-186.149 513.549,-170.7597 513.549,-158.3695"/>
<polygon fill="#191970" stroke="#191970" points="517.0491,-158.0816 513.549,-148.0817 510.0491,-158.0817 517.0491,-158.0816"/>
</g>
<!-- Node12&#45;&gt;Node7 -->
<g id="edge16" class="edge">
<title>Node12&#45;&gt;Node7</title>
<path fill="none" stroke="#191970" d="M543.3697,-257.328C549.2315,-248.3825 557.2456,-234.4728 560.549,-221 570.9985,-178.3815 579.5896,-154.0163 548.549,-123 522.6044,-97.0758 427.0099,-85.56 359.7839,-80.5865"/>
<polygon fill="#191970" stroke="#191970" points="359.8904,-77.0854 349.6684,-79.8713 359.3966,-84.068 359.8904,-77.0854"/>
</g>
</g>
</svg>
        <g id="navigator" transform="translate(0 0)" fill="#404254">
                <rect fill="#f2f5e9" fill-opacity="0.5" stroke="#606060" stroke-width=".5" x="0" y="0" width="60" height="60"/>
                <use id="zoomplus" xlink:href="#zoomPlus" x="17" y="9" onmousedown="handleZoom(evt,'in')"/>
                <use id="zoomminus" xlink:href="#zoomMin" x="42" y="9" onmousedown="handleZoom(evt,'out')"/>
                <use id="reset" xlink:href="#resetDef" x="30" y="36" onmousedown="handleReset()"/>
                <g id="arrowUp" xlink:href="#dirArrow" transform="translate(30 24)" onmousedown="handlePan(0,-1)">
                  <use xlink:href="#rim" fill="#404040">
                        <set attributeName="fill" to="#808080" begin="arrowUp.mouseover" end="arrowUp.mouseout"/>
                  </use>
                  <path fill="none" stroke="white" stroke-width="1.5" d="M0,-3.0v7 M-2.5,-0.5L0,-3.0L2.5,-0.5"/>
                </g>
                <g id="arrowRight" xlink:href="#dirArrow" transform="rotate(90) translate(36 -43)" onmousedown="handlePan(1,0)">
                  <use xlink:href="#rim" fill="#404040">
                        <set attributeName="fill" to="#808080" begin="arrowRight.mouseover" end="arrowRight.mouseout"/>
                  </use>
                  <path fill="none" stroke="white" stroke-width="1.5" d="M0,-3.0v7 M-2.5,-0.5L0,-3.0L2.5,-0.5"/>
                </g>
                <g id="arrowDown" xlink:href="#dirArrow" transform="rotate(180) translate(-30 -48)" onmousedown="handlePan(0,1)">
                  <use xlink:href="#rim" fill="#404040">
                        <set attributeName="fill" to="#808080" begin="arrowDown.mouseover" end="arrowDown.mouseout"/>
                  </use>
                  <path fill="none" stroke="white" stroke-width="1.5" d="M0,-3.0v7 M-2.5,-0.5L0,-3.0L2.5,-0.5"/>
                </g>
                <g id="arrowLeft" xlink:href="#dirArrow" transform="rotate(270) translate(-36 17)" onmousedown="handlePan(-1,0)">
                  <use xlink:href="#rim" fill="#404040">
                        <set attributeName="fill" to="#808080" begin="arrowLeft.mouseover" end="arrowLeft.mouseout"/>
                  </use>
                  <path fill="none" stroke="white" stroke-width="1.5" d="M0,-3.0v7 M-2.5,-0.5L0,-3.0L2.5,-0.5"/>
                </g>
        </g>
        <svg viewBox="0 0 15 15" width="100%" height="30px" preserveAspectRatio="xMaxYMin meet">
         <g id="arrow_out" transform="scale(0.3 0.3)">
          <a xlink:href="_unit_kind_8c__incl_org.svg" target="_base">
           <rect id="button" ry="5" rx="5" y="6" x="6" height="38" width="38"
                fill="#f2f5e9" fill-opacity="0.5" stroke="#606060" stroke-width="1.0"/>
           <path id="arrow"
             d="M 11.500037,31.436501 C 11.940474,20.09759 22.043105,11.32322 32.158766,21.979434 L 37.068811,17.246167 C 37.068811,17.246167 37.088388,32 37.088388,32 L 22.160133,31.978069 C 22.160133,31.978069 26.997745,27.140456 26.997745,27.140456 C 18.528582,18.264221 13.291696,25.230495 11.500037,31.436501 z"
             style="fill:#404040;"/>
          </a>
         </g>
        </svg>
</svg>
