<?xml version="1.0" encoding="UTF-8" standalone="no"?>
<!DOCTYPE svg PUBLIC "-//W3C//DTD SVG 1.1//EN"
 "http://www.w3.org/Graphics/SVG/1.1/DTD/svg11.dtd">
<!-- Generated by graphviz version 2.40.1 (20161225.0304)
 -->
<!-- Title: Validator.h Pages: 1 -->
<svg width="314pt" height="84pt"
 viewBox="0.00 0.00 313.50 84.00" xmlns="http://www.w3.org/2000/svg" xmlns:xlink="http://www.w3.org/1999/xlink">
<g id="graph0" class="graph" transform="scale(1 1) rotate(0) translate(4 80)">
<title>Validator.h</title>
<polygon fill="#ffffff" stroke="transparent" points="-4,4 -4,-80 309.5,-80 309.5,4 -4,4"/>
<!-- Node1 -->
<g id="node1" class="node">
<title>Node1</title>
<polygon fill="#bfbfbf" stroke="#000000" points="112.5,-56.5 112.5,-75.5 176.5,-75.5 176.5,-56.5 112.5,-56.5"/>
<text text-anchor="middle" x="144.5" y="-63.5" font-family="Helvetica,sans-Serif" font-size="10.00" fill="#000000">Validator.h</text>
</g>
<!-- Node2 -->
<g id="node2" class="node">
<title>Node2</title>
<g id="a_node2"><a xlink:href="_validator_8cpp.html" target="_top" xlink:title="Base class for SBML Validators. ">
<polygon fill="#ffffff" stroke="#000000" points="0,-.5 0,-19.5 75,-19.5 75,-.5 0,-.5"/>
<text text-anchor="middle" x="37.5" y="-7.5" font-family="Helvetica,sans-Serif" font-size="10.00" fill="#000000">Validator.cpp</text>
</a>
</g>
</g>
<!-- Node1&#45;&gt;Node2 -->
<g id="edge1" class="edge">
<title>Node1&#45;&gt;Node2</title>
<path fill="none" stroke="#191970" d="M116.9801,-51.5971C97.7983,-41.558 72.7322,-28.4393 55.9244,-19.6427"/>
<polygon fill="#191970" stroke="#191970" points="115.3791,-54.7095 125.862,-56.2455 118.625,-48.5075 115.3791,-54.7095"/>
</g>
<!-- Node3 -->
<g id="node3" class="node">
<title>Node3</title>
<g id="a_node3"><a xlink:href="_comp_validator_8cpp.html" target="_top" xlink:title="CompValidator.cpp">
<polygon fill="#ffffff" stroke="#000000" points="93.5,-.5 93.5,-19.5 195.5,-19.5 195.5,-.5 93.5,-.5"/>
<text text-anchor="middle" x="144.5" y="-7.5" font-family="Helvetica,sans-Serif" font-size="10.00" fill="#000000">CompValidator.cpp</text>
</a>
</g>
</g>
<!-- Node1&#45;&gt;Node3 -->
<g id="edge2" class="edge">
<title>Node1&#45;&gt;Node3</title>
<path fill="none" stroke="#191970" d="M144.5,-46.1575C144.5,-37.155 144.5,-26.9199 144.5,-19.6427"/>
<polygon fill="#191970" stroke="#191970" points="141.0001,-46.2455 144.5,-56.2455 148.0001,-46.2456 141.0001,-46.2455"/>
</g>
<!-- Node4 -->
<g id="node4" class="node">
<title>Node4</title>
<g id="a_node4"><a xlink:href="_fbc_validator_8cpp.html" target="_top" xlink:title="Base class for SBML Validators. ">
<polygon fill="#ffffff" stroke="#000000" points="213.5,-.5 213.5,-19.5 305.5,-19.5 305.5,-.5 213.5,-.5"/>
<text text-anchor="middle" x="259.5" y="-7.5" font-family="Helvetica,sans-Serif" font-size="10.00" fill="#000000">FbcValidator.cpp</text>
</a>
</g>
</g>
<!-- Node1&#45;&gt;Node4 -->
<g id="edge3" class="edge">
<title>Node1&#45;&gt;Node4</title>
<path fill="none" stroke="#191970" d="M173.3033,-51.9741C194.125,-41.8348 221.6978,-28.408 239.9888,-19.5011"/>
<polygon fill="#191970" stroke="#191970" points="171.7276,-48.8484 164.2692,-56.3733 174.7922,-55.1419 171.7276,-48.8484"/>
</g>
</g>
</svg>
