<?xml version="1.0" encoding="UTF-8" standalone="no"?>
<!DOCTYPE svg PUBLIC "-//W3C//DTD SVG 1.1//EN"
 "http://www.w3.org/Graphics/SVG/1.1/DTD/svg11.dtd">
<!-- Generated by graphviz version 2.40.1 (20161225.0304)
 -->
<!-- Title: XMLNode.cpp Pages: 1 -->
<svg width="738pt" height="386pt"
 viewBox="0.00 0.00 737.50 386.00" xmlns="http://www.w3.org/2000/svg" xmlns:xlink="http://www.w3.org/1999/xlink">
<g id="graph0" class="graph" transform="scale(1 1) rotate(0) translate(4 382)">
<title>XMLNode.cpp</title>
<polygon fill="#ffffff" stroke="transparent" points="-4,4 -4,-382 733.5,-382 733.5,4 -4,4"/>
<!-- Node1 -->
<g id="node1" class="node">
<title>Node1</title>
<polygon fill="#bfbfbf" stroke="#000000" points="133,-358.5 133,-377.5 213,-377.5 213,-358.5 133,-358.5"/>
<text text-anchor="middle" x="173" y="-365.5" font-family="Helvetica,sans-Serif" font-size="10.00" fill="#000000">XMLNode.cpp</text>
</g>
<!-- Node2 -->
<g id="node2" class="node">
<title>Node2</title>
<polygon fill="#ffffff" stroke="#bfbfbf" points="0,-302.5 0,-321.5 52,-321.5 52,-302.5 0,-302.5"/>
<text text-anchor="middle" x="26" y="-309.5" font-family="Helvetica,sans-Serif" font-size="10.00" fill="#000000">sstream</text>
</g>
<!-- Node1&#45;&gt;Node2 -->
<g id="edge1" class="edge">
<title>Node1&#45;&gt;Node2</title>
<path fill="none" stroke="#191970" d="M147.7298,-358.3733C123.6034,-349.1822 87.0638,-335.2624 60.3123,-325.0713"/>
<polygon fill="#191970" stroke="#191970" points="61.5313,-321.7904 50.9404,-321.5011 59.0393,-328.3318 61.5313,-321.7904"/>
</g>
<!-- Node3 -->
<g id="node3" class="node">
<title>Node3</title>
<g id="a_node3"><a xlink:href="memory_8h.html" target="_top" xlink:title="sbml/util/memory.h">
<polygon fill="#ffffff" stroke="#000000" points="70,-302.5 70,-321.5 170,-321.5 170,-302.5 70,-302.5"/>
<text text-anchor="middle" x="120" y="-309.5" font-family="Helvetica,sans-Serif" font-size="10.00" fill="#000000">sbml/util/memory.h</text>
</a>
</g>
</g>
<!-- Node1&#45;&gt;Node3 -->
<g id="edge2" class="edge">
<title>Node1&#45;&gt;Node3</title>
<path fill="none" stroke="#191970" d="M163.7681,-358.2455C156.1683,-350.2155 145.2123,-338.6394 136.1632,-329.0781"/>
<polygon fill="#191970" stroke="#191970" points="138.542,-326.4998 129.1261,-321.6427 133.4579,-331.3115 138.542,-326.4998"/>
</g>
<!-- Node4 -->
<g id="node4" class="node">
<title>Node4</title>
<g id="a_node4"><a xlink:href="util_8h.html" target="_top" xlink:title="Utility functions. ">
<polygon fill="#ffffff" stroke="#000000" points="188.5,-302.5 188.5,-321.5 265.5,-321.5 265.5,-302.5 188.5,-302.5"/>
<text text-anchor="middle" x="227" y="-309.5" font-family="Helvetica,sans-Serif" font-size="10.00" fill="#000000">sbml/util/util.h</text>
</a>
</g>
</g>
<!-- Node1&#45;&gt;Node4 -->
<g id="edge3" class="edge">
<title>Node1&#45;&gt;Node4</title>
<path fill="none" stroke="#191970" d="M182.4061,-358.2455C190.1493,-350.2155 201.312,-338.6394 210.5318,-329.0781"/>
<polygon fill="#191970" stroke="#191970" points="213.2798,-331.2706 217.7017,-321.6427 208.2409,-326.4117 213.2798,-331.2706"/>
</g>
<!-- Node9 -->
<g id="node9" class="node">
<title>Node9</title>
<g id="a_node9"><a xlink:href="_x_m_l_node_8h.html" target="_top" xlink:title="Class definition of XMLNode_t, a node in an XML document tree. ">
<polygon fill="#ffffff" stroke="#000000" points="360,-302.5 360,-321.5 472,-321.5 472,-302.5 360,-302.5"/>
<text text-anchor="middle" x="416" y="-309.5" font-family="Helvetica,sans-Serif" font-size="10.00" fill="#000000">sbml/xml/XMLNode.h</text>
</a>
</g>
</g>
<!-- Node1&#45;&gt;Node9 -->
<g id="edge8" class="edge">
<title>Node1&#45;&gt;Node9</title>
<path fill="none" stroke="#191970" d="M213.1265,-358.7527C254.6088,-349.193 319.512,-334.2359 364.6981,-323.8227"/>
<polygon fill="#191970" stroke="#191970" points="365.6348,-327.1986 374.5934,-321.5423 364.0628,-320.3774 365.6348,-327.1986"/>
</g>
<!-- Node5 -->
<g id="node5" class="node">
<title>Node5</title>
<polygon fill="#ffffff" stroke="#bfbfbf" points="122,-246.5 122,-265.5 168,-265.5 168,-246.5 122,-246.5"/>
<text text-anchor="middle" x="145" y="-253.5" font-family="Helvetica,sans-Serif" font-size="10.00" fill="#000000">stdio.h</text>
</g>
<!-- Node4&#45;&gt;Node5 -->
<g id="edge4" class="edge">
<title>Node4&#45;&gt;Node5</title>
<path fill="none" stroke="#191970" d="M212.7167,-302.2455C200.253,-293.7337 181.9549,-281.2375 167.5208,-271.3801"/>
<polygon fill="#191970" stroke="#191970" points="169.3515,-268.392 159.1196,-265.6427 165.4038,-274.1726 169.3515,-268.392"/>
</g>
<!-- Node6 -->
<g id="node6" class="node">
<title>Node6</title>
<polygon fill="#ffffff" stroke="#bfbfbf" points="186.5,-246.5 186.5,-265.5 239.5,-265.5 239.5,-246.5 186.5,-246.5"/>
<text text-anchor="middle" x="213" y="-253.5" font-family="Helvetica,sans-Serif" font-size="10.00" fill="#000000">stdarg.h</text>
</g>
<!-- Node4&#45;&gt;Node6 -->
<g id="edge5" class="edge">
<title>Node4&#45;&gt;Node6</title>
<path fill="none" stroke="#191970" d="M224.5614,-302.2455C222.7145,-294.8579 220.1172,-284.4689 217.8522,-275.4087"/>
<polygon fill="#191970" stroke="#191970" points="221.2316,-274.4952 215.4107,-265.6427 214.4406,-276.193 221.2316,-274.4952"/>
</g>
<!-- Node7 -->
<g id="node7" class="node">
<title>Node7</title>
<g id="a_node7"><a xlink:href="extern_8h.html" target="_top" xlink:title="Definitions of LIBSBML_EXTERN and related things. ">
<polygon fill="#ffffff" stroke="#000000" points="383,-67.5 383,-86.5 501,-86.5 501,-67.5 383,-67.5"/>
<text text-anchor="middle" x="442" y="-74.5" font-family="Helvetica,sans-Serif" font-size="10.00" fill="#000000">sbml/common/extern.h</text>
</a>
</g>
</g>
<!-- Node4&#45;&gt;Node7 -->
<g id="edge6" class="edge">
<title>Node4&#45;&gt;Node7</title>
<path fill="none" stroke="#191970" d="M231.9761,-302.3214C236.5607,-293.1422 243.3392,-278.8777 248,-266 270.4192,-204.0554 240.939,-170.0971 287,-123 300.4222,-109.2759 343.7484,-97.0857 381.1925,-88.7081"/>
<polygon fill="#191970" stroke="#191970" points="382.0397,-92.1057 391.0643,-86.5552 380.5481,-85.2664 382.0397,-92.1057"/>
</g>
<!-- Node8 -->
<g id="node8" class="node">
<title>Node8</title>
<g id="a_node8"><a xlink:href="libsbml-namespace_8h.html" target="_top" xlink:title="Defines C++ namespace of libSBML. ">
<polygon fill="#ffffff" stroke="#000000" points="341.5,-.5 341.5,-30.5 454.5,-30.5 454.5,-.5 341.5,-.5"/>
<text text-anchor="start" x="349.5" y="-18.5" font-family="Helvetica,sans-Serif" font-size="10.00" fill="#000000">sbml/common/libsbml</text>
<text text-anchor="middle" x="398" y="-7.5" font-family="Helvetica,sans-Serif" font-size="10.00" fill="#000000">&#45;namespace.h</text>
</a>
</g>
</g>
<!-- Node7&#45;&gt;Node8 -->
<g id="edge7" class="edge">
<title>Node7&#45;&gt;Node8</title>
<path fill="none" stroke="#191970" d="M435.125,-67.3906C429.6664,-59.761 421.7999,-48.7658 414.712,-38.8588"/>
<polygon fill="#191970" stroke="#191970" points="417.4288,-36.6409 408.7636,-30.5446 411.7358,-40.714 417.4288,-36.6409"/>
</g>
<!-- Node10 -->
<g id="node10" class="node">
<title>Node10</title>
<g id="a_node10"><a xlink:href="_x_m_l_extern_8h.html" target="_top" xlink:title="Defines LIBLAX_EXTERN. ">
<polygon fill="#ffffff" stroke="#000000" points="296.5,-129 296.5,-148 413.5,-148 413.5,-129 296.5,-129"/>
<text text-anchor="middle" x="355" y="-136" font-family="Helvetica,sans-Serif" font-size="10.00" fill="#000000">sbml/xml/XMLExtern.h</text>
</a>
</g>
</g>
<!-- Node9&#45;&gt;Node10 -->
<g id="edge9" class="edge">
<title>Node9&#45;&gt;Node10</title>
<path fill="none" stroke="#191970" d="M412.6335,-302.4248C402.9494,-274.8807 374.8813,-195.0477 361.8264,-157.916"/>
<polygon fill="#191970" stroke="#191970" points="365.0501,-156.5325 358.4313,-148.2595 358.4463,-158.8544 365.0501,-156.5325"/>
</g>
<!-- Node11 -->
<g id="node11" class="node">
<title>Node11</title>
<g id="a_node11"><a xlink:href="_x_m_l_token_8h.html" target="_top" xlink:title="A unit of XML syntax, either an XML element or text. ">
<polygon fill="#ffffff" stroke="#000000" points="417.5,-246.5 417.5,-265.5 532.5,-265.5 532.5,-246.5 417.5,-246.5"/>
<text text-anchor="middle" x="475" y="-253.5" font-family="Helvetica,sans-Serif" font-size="10.00" fill="#000000">sbml/xml/XMLToken.h</text>
</a>
</g>
</g>
<!-- Node9&#45;&gt;Node11 -->
<g id="edge11" class="edge">
<title>Node9&#45;&gt;Node11</title>
<path fill="none" stroke="#191970" d="M426.277,-302.2455C434.8218,-294.1352 447.1778,-282.4075 457.3085,-272.7919"/>
<polygon fill="#191970" stroke="#191970" points="459.9972,-275.0655 464.8408,-265.6427 455.1782,-269.9884 459.9972,-275.0655"/>
</g>
<!-- Node13 -->
<g id="node13" class="node">
<title>Node13</title>
<polygon fill="#ffffff" stroke="#bfbfbf" points="602.5,-129 602.5,-148 729.5,-148 729.5,-129 602.5,-129"/>
<text text-anchor="middle" x="666" y="-136" font-family="Helvetica,sans-Serif" font-size="10.00" fill="#000000">sbml/common/sbmlfwd.h</text>
</g>
<!-- Node9&#45;&gt;Node13 -->
<g id="edge20" class="edge">
<title>Node9&#45;&gt;Node13</title>
<path fill="none" stroke="#191970" d="M468.346,-302.4519C496.8443,-295.5285 531.7438,-284.1195 559,-266 602.9148,-236.8062 638.5916,-184.4467 655.4607,-156.7821"/>
<polygon fill="#191970" stroke="#191970" points="658.5182,-158.4882 660.6258,-148.1051 652.5032,-154.9077 658.5182,-158.4882"/>
</g>
<!-- Node10&#45;&gt;Node8 -->
<g id="edge10" class="edge">
<title>Node10&#45;&gt;Node8</title>
<path fill="none" stroke="#191970" d="M357.0459,-128.6176C360.0644,-114.6644 366.2054,-88.4925 374,-67 377.3231,-57.8369 381.6565,-48.0748 385.7252,-39.5411"/>
<polygon fill="#191970" stroke="#191970" points="388.8852,-41.0463 390.1385,-30.5258 382.5981,-37.9685 388.8852,-41.0463"/>
</g>
<!-- Node11&#45;&gt;Node10 -->
<g id="edge12" class="edge">
<title>Node11&#45;&gt;Node10</title>
<path fill="none" stroke="#191970" d="M465.1799,-246.3845C444.7873,-226.4167 397.6312,-180.243 372.1234,-155.2667"/>
<polygon fill="#191970" stroke="#191970" points="374.5496,-152.7439 364.9558,-148.2484 369.6522,-157.7455 374.5496,-152.7439"/>
</g>
<!-- Node11&#45;&gt;Node11 -->
<g id="edge18" class="edge">
<title>Node11&#45;&gt;Node11</title>
<path fill="none" stroke="#191970" d="M507.2009,-265.5252C529.0805,-268.3079 550.5,-265.1328 550.5,-256 550.5,-248.2942 535.2512,-244.8298 517.3433,-245.6068"/>
<polygon fill="#191970" stroke="#191970" points="516.866,-242.1347 507.2009,-246.4748 517.4629,-249.1092 516.866,-242.1347"/>
</g>
<!-- Node12 -->
<g id="node12" class="node">
<title>Node12</title>
<g id="a_node12"><a xlink:href="_x_m_l_attributes_8h.html" target="_top" xlink:title="XMLAttributes_t are a list of name/value pairs for XML elements. ">
<polygon fill="#ffffff" stroke="#000000" points="440,-190.5 440,-209.5 570,-209.5 570,-190.5 440,-190.5"/>
<text text-anchor="middle" x="505" y="-197.5" font-family="Helvetica,sans-Serif" font-size="10.00" fill="#000000">sbml/xml/XMLAttributes.h</text>
</a>
</g>
</g>
<!-- Node11&#45;&gt;Node12 -->
<g id="edge13" class="edge">
<title>Node11&#45;&gt;Node12</title>
<path fill="none" stroke="#191970" d="M480.2256,-246.2455C484.3123,-238.617 490.1135,-227.7881 495.075,-218.5267"/>
<polygon fill="#191970" stroke="#191970" points="498.1972,-220.1103 499.8343,-209.6427 492.0268,-216.8047 498.1972,-220.1103"/>
</g>
<!-- Node11&#45;&gt;Node13 -->
<g id="edge19" class="edge">
<title>Node11&#45;&gt;Node13</title>
<path fill="none" stroke="#191970" d="M502.0685,-246.363C523.6672,-238.131 554.2911,-225.2233 579,-210 605.1769,-193.8723 632.0246,-170.5765 648.8401,-155.006"/>
<polygon fill="#191970" stroke="#191970" points="651.353,-157.4474 656.2422,-148.0481 646.5586,-152.3469 651.353,-157.4474"/>
</g>
<!-- Node12&#45;&gt;Node10 -->
<g id="edge14" class="edge">
<title>Node12&#45;&gt;Node10</title>
<path fill="none" stroke="#191970" d="M481.5625,-190.3906C456.3547,-180.0554 416.0847,-163.5447 387.7523,-151.9284"/>
<polygon fill="#191970" stroke="#191970" points="388.8532,-148.5971 378.2729,-148.0419 386.1977,-155.0739 388.8532,-148.5971"/>
</g>
<!-- Node12&#45;&gt;Node13 -->
<g id="edge15" class="edge">
<title>Node12&#45;&gt;Node13</title>
<path fill="none" stroke="#191970" d="M530.1563,-190.3906C557.449,-179.9652 601.192,-163.2559 631.6397,-151.6252"/>
<polygon fill="#191970" stroke="#191970" points="632.9277,-154.8799 641.0204,-148.0419 630.4298,-148.3408 632.9277,-154.8799"/>
</g>
<!-- Node14 -->
<g id="node14" class="node">
<title>Node14</title>
<g id="a_node14"><a xlink:href="operation_return_values_8h.html" target="_top" xlink:title="Enumeration of values returned by operations within libSBML. ">
<polygon fill="#ffffff" stroke="#000000" points="431.5,-123.5 431.5,-153.5 584.5,-153.5 584.5,-123.5 431.5,-123.5"/>
<text text-anchor="start" x="439.5" y="-141.5" font-family="Helvetica,sans-Serif" font-size="10.00" fill="#000000">sbml/common/operationReturn</text>
<text text-anchor="middle" x="508" y="-130.5" font-family="Helvetica,sans-Serif" font-size="10.00" fill="#000000">Values.h</text>
</a>
</g>
</g>
<!-- Node12&#45;&gt;Node14 -->
<g id="edge16" class="edge">
<title>Node12&#45;&gt;Node14</title>
<path fill="none" stroke="#191970" d="M505.4688,-190.3906C505.8184,-183.2234 506.3129,-173.0862 506.7721,-163.671"/>
<polygon fill="#191970" stroke="#191970" points="510.2746,-163.7033 507.2661,-153.5446 503.283,-163.3622 510.2746,-163.7033"/>
</g>
<!-- Node14&#45;&gt;Node7 -->
<g id="edge17" class="edge">
<title>Node14&#45;&gt;Node7</title>
<path fill="none" stroke="#191970" d="M491.6854,-123.2977C482.0467,-114.3163 469.8309,-102.9334 459.9241,-93.702"/>
<polygon fill="#191970" stroke="#191970" points="462.2696,-91.1036 452.5674,-86.8469 457.4975,-96.2249 462.2696,-91.1036"/>
</g>
</g>
</svg>
