<?xml version="1.0" encoding="UTF-8" standalone="no"?>
<!DOCTYPE svg PUBLIC "-//W3C//DTD SVG 1.1//EN"
 "http://www.w3.org/Graphics/SVG/1.1/DTD/svg11.dtd">
<!-- Generated by graphviz version 2.40.1 (20161225.0304)
 -->
<!-- Title: sbml Pages: 1 -->
<svg width="187pt" height="223pt"
 viewBox="0.00 0.00 186.50 223.00" xmlns="http://www.w3.org/2000/svg" xmlns:xlink="http://www.w3.org/1999/xlink">
<g id="graph0" class="graph" transform="scale(1 1) rotate(0) translate(4 219)">
<title>sbml</title>
<polygon fill="#ffffff" stroke="transparent" points="-4,4 -4,-219 182.5,-219 182.5,4 -4,4"/>
<g id="clust1" class="cluster">
<title>clusterdir_29063129b3eccaffa9adb8cada31bc79</title>
<g id="a_clust1"><a xlink:href="dir_29063129b3eccaffa9adb8cada31bc79.html" target="_top" xlink:title="groups">
<polygon fill="#ddddee" stroke="#000000" points="44.5,-136 44.5,-207 114.5,-207 114.5,-136 44.5,-136"/>
<text text-anchor="middle" x="79.5" y="-195" font-family="Helvetica,sans-Serif" font-size="10.00" fill="#000000">groups</text>
</a>
</g>
</g>
<!-- dir_1a2a11cbb6a63f53ae2e16947db16deb -->
<g id="node1" class="node">
<title>dir_1a2a11cbb6a63f53ae2e16947db16deb</title>
<g id="a_node1"><a xlink:href="dir_1a2a11cbb6a63f53ae2e16947db16deb.html" target="_top" xlink:title="sbml">
<polygon fill="#eeeeff" stroke="#000000" points="106.5,-180 52.5,-180 52.5,-144 106.5,-144 106.5,-180"/>
<text text-anchor="middle" x="79.5" y="-159.5" font-family="Helvetica,sans-Serif" font-size="10.00" fill="#000000">sbml</text>
</a>
</g>
</g>
<!-- dir_fd1e11fb0964f7346e999e146b0dfd59 -->
<g id="node2" class="node">
<title>dir_fd1e11fb0964f7346e999e146b0dfd59</title>
<g id="a_node2"><a xlink:href="dir_fd1e11fb0964f7346e999e146b0dfd59.html" target="_top" xlink:title="common">
<polygon fill="none" stroke="#000000" points="55,-108 0,-108 0,-72 55,-72 55,-108"/>
<text text-anchor="middle" x="27.5" y="-87.5" font-family="Helvetica,sans-Serif" font-size="10.00" fill="#000000">common</text>
</a>
</g>
</g>
<!-- dir_1a2a11cbb6a63f53ae2e16947db16deb&#45;&gt;dir_fd1e11fb0964f7346e999e146b0dfd59 -->
<g id="edge4" class="edge">
<title>dir_1a2a11cbb6a63f53ae2e16947db16deb&#45;&gt;dir_fd1e11fb0964f7346e999e146b0dfd59</title>
<path fill="none" stroke="#000000" d="M66.3782,-143.8314C60.4501,-135.6232 53.3271,-125.7606 46.8067,-116.7323"/>
<polygon fill="#000000" stroke="#000000" points="49.4908,-114.4708 40.7985,-108.4133 43.816,-118.5693 49.4908,-114.4708"/>
<g id="a_edge4&#45;headlabel"><a xlink:href="dir_000032_000015.html" target="_top" xlink:title="4">
<text text-anchor="middle" x="53.8971" y="-113.2226" font-family="Helvetica,sans-Serif" font-size="10.00" fill="#000000">4</text>
</a>
</g>
</g>
<!-- dir_c541d4b187fc5f863b4735b323978e0f -->
<g id="node3" class="node">
<title>dir_c541d4b187fc5f863b4735b323978e0f</title>
<g id="a_node3"><a xlink:href="dir_c541d4b187fc5f863b4735b323978e0f.html" target="_top" xlink:title="util">
<polygon fill="none" stroke="#000000" points="54.5,-36 .5,-36 .5,0 54.5,0 54.5,-36"/>
<text text-anchor="middle" x="27.5" y="-15.5" font-family="Helvetica,sans-Serif" font-size="10.00" fill="#000000">util</text>
</a>
</g>
</g>
<!-- dir_1a2a11cbb6a63f53ae2e16947db16deb&#45;&gt;dir_c541d4b187fc5f863b4735b323978e0f -->
<g id="edge5" class="edge">
<title>dir_1a2a11cbb6a63f53ae2e16947db16deb&#45;&gt;dir_c541d4b187fc5f863b4735b323978e0f</title>
<path fill="none" stroke="#000000" d="M78.4599,-143.8118C76.897,-125.1938 73.024,-95.7093 63.5,-72 59.6971,-62.533 54.0807,-53.0074 48.4093,-44.649"/>
<polygon fill="#000000" stroke="#000000" points="51.2003,-42.5343 42.5531,-36.4125 45.4954,-46.5906 51.2003,-42.5343"/>
<g id="a_edge5&#45;headlabel"><a xlink:href="dir_000032_000011.html" target="_top" xlink:title="1">
<text text-anchor="middle" x="55.5972" y="-41.3186" font-family="Helvetica,sans-Serif" font-size="10.00" fill="#000000">1</text>
</a>
</g>
</g>
<!-- dir_57fdbdaf356605263ec8ba5b7b6a3875 -->
<g id="node4" class="node">
<title>dir_57fdbdaf356605263ec8ba5b7b6a3875</title>
<g id="a_node4"><a xlink:href="dir_57fdbdaf356605263ec8ba5b7b6a3875.html" target="_top" xlink:title="validator">
<polygon fill="none" stroke="#000000" points="178.5,-180 124.5,-180 124.5,-144 178.5,-144 178.5,-180"/>
<text text-anchor="middle" x="151.5" y="-159.5" font-family="Helvetica,sans-Serif" font-size="10.00" fill="#000000">validator</text>
</a>
</g>
</g>
<!-- dir_1a2a11cbb6a63f53ae2e16947db16deb&#45;&gt;dir_57fdbdaf356605263ec8ba5b7b6a3875 -->
<g id="edge6" class="edge">
<title>dir_1a2a11cbb6a63f53ae2e16947db16deb&#45;&gt;dir_57fdbdaf356605263ec8ba5b7b6a3875</title>
<path fill="none" stroke="#000000" d="M106.7813,-162C109.2377,-162 111.6942,-162 114.1507,-162"/>
<polygon fill="#000000" stroke="#000000" points="114.2495,-165.5001 124.2495,-162 114.2495,-158.5001 114.2495,-165.5001"/>
<g id="a_edge6&#45;headlabel"><a xlink:href="dir_000032_000033.html" target="_top" xlink:title="4">
<text text-anchor="middle" x="110.6549" y="-165.8393" font-family="Helvetica,sans-Serif" font-size="10.00" fill="#000000">4</text>
</a>
</g>
</g>
<!-- dir_7ecdb64354f87c6a5936bdfa7adc7cda -->
<g id="node5" class="node">
<title>dir_7ecdb64354f87c6a5936bdfa7adc7cda</title>
<g id="a_node5"><a xlink:href="dir_7ecdb64354f87c6a5936bdfa7adc7cda.html" target="_top" xlink:title="common">
<polygon fill="none" stroke="#000000" points="175,-108 120,-108 120,-72 175,-72 175,-108"/>
<text text-anchor="middle" x="147.5" y="-87.5" font-family="Helvetica,sans-Serif" font-size="10.00" fill="#000000">common</text>
</a>
</g>
</g>
<!-- dir_1a2a11cbb6a63f53ae2e16947db16deb&#45;&gt;dir_7ecdb64354f87c6a5936bdfa7adc7cda -->
<g id="edge7" class="edge">
<title>dir_1a2a11cbb6a63f53ae2e16947db16deb&#45;&gt;dir_7ecdb64354f87c6a5936bdfa7adc7cda</title>
<path fill="none" stroke="#000000" d="M90.7069,-143.8314C98.0015,-135.219 107.6788,-124.7851 117.0234,-115.4048"/>
<polygon fill="#000000" stroke="#000000" points="119.7141,-117.6679 124.3944,-108.1628 114.8082,-112.6746 119.7141,-117.6679"/>
<g id="a_edge7&#45;headlabel"><a xlink:href="dir_000032_000035.html" target="_top" xlink:title="4">
<text text-anchor="middle" x="119.1399" y="-119.7124" font-family="Helvetica,sans-Serif" font-size="10.00" fill="#000000">4</text>
</a>
</g>
</g>
<!-- dir_fd1e11fb0964f7346e999e146b0dfd59&#45;&gt;dir_c541d4b187fc5f863b4735b323978e0f -->
<g id="edge1" class="edge">
<title>dir_fd1e11fb0964f7346e999e146b0dfd59&#45;&gt;dir_c541d4b187fc5f863b4735b323978e0f</title>
<path fill="none" stroke="#000000" d="M21.5476,-71.8314C20.7972,-64.131 20.5763,-54.9743 20.8849,-46.4166"/>
<polygon fill="#000000" stroke="#000000" points="24.3792,-46.6161 21.524,-36.4133 17.3935,-46.1697 24.3792,-46.6161"/>
<g id="a_edge1&#45;headlabel"><a xlink:href="dir_000015_000011.html" target="_top" xlink:title="2">
<text text-anchor="middle" x="26.9836" y="-47.8844" font-family="Helvetica,sans-Serif" font-size="10.00" fill="#000000">2</text>
</a>
</g>
</g>
<!-- dir_c541d4b187fc5f863b4735b323978e0f&#45;&gt;dir_fd1e11fb0964f7346e999e146b0dfd59 -->
<g id="edge2" class="edge">
<title>dir_c541d4b187fc5f863b4735b323978e0f&#45;&gt;dir_fd1e11fb0964f7346e999e146b0dfd59</title>
<path fill="none" stroke="#000000" d="M33.476,-36.4133C34.2071,-44.0593 34.4203,-53.1084 34.1155,-61.5726"/>
<polygon fill="#000000" stroke="#000000" points="30.6048,-61.6264 33.4524,-71.8314 37.5902,-62.078 30.6048,-61.6264"/>
<g id="a_edge2&#45;headlabel"><a xlink:href="dir_000011_000015.html" target="_top" xlink:title="4">
<text text-anchor="middle" x="28.0032" y="-55.3562" font-family="Helvetica,sans-Serif" font-size="10.00" fill="#000000">4</text>
</a>
</g>
</g>
<!-- dir_57fdbdaf356605263ec8ba5b7b6a3875&#45;&gt;dir_7ecdb64354f87c6a5936bdfa7adc7cda -->
<g id="edge3" class="edge">
<title>dir_57fdbdaf356605263ec8ba5b7b6a3875&#45;&gt;dir_7ecdb64354f87c6a5936bdfa7adc7cda</title>
<path fill="none" stroke="#000000" d="M150.4906,-143.8314C150.0628,-136.131 149.5541,-126.9743 149.0787,-118.4166"/>
<polygon fill="#000000" stroke="#000000" points="152.5724,-118.2037 148.523,-108.4133 145.5831,-118.592 152.5724,-118.2037"/>
<g id="a_edge3&#45;headlabel"><a xlink:href="dir_000033_000035.html" target="_top" xlink:title="1">
<text text-anchor="middle" x="155.6066" y="-119.1353" font-family="Helvetica,sans-Serif" font-size="10.00" fill="#000000">1</text>
</a>
</g>
</g>
<!-- dir_7ecdb64354f87c6a5936bdfa7adc7cda&#45;&gt;dir_1a2a11cbb6a63f53ae2e16947db16deb -->
<g id="edge8" class="edge">
<title>dir_7ecdb64354f87c6a5936bdfa7adc7cda&#45;&gt;dir_1a2a11cbb6a63f53ae2e16947db16deb</title>
<path fill="none" stroke="#000000" d="M136.0857,-108.4133C128.8024,-116.9938 119.1978,-127.3414 109.9257,-136.6463"/>
<polygon fill="#000000" stroke="#000000" points="107.2926,-134.3266 102.6117,-143.8314 112.1981,-139.3202 107.2926,-134.3266"/>
<g id="a_edge8&#45;headlabel"><a xlink:href="dir_000035_000032.html" target="_top" xlink:title="2">
<text text-anchor="middle" x="107.8671" y="-127.2822" font-family="Helvetica,sans-Serif" font-size="10.00" fill="#000000">2</text>
</a>
</g>
</g>
</g>
</svg>
