<?xml version="1.0" encoding="UTF-8" standalone="no"?>
<!DOCTYPE svg PUBLIC "-//W3C//DTD SVG 1.1//EN"
 "http://www.w3.org/Graphics/SVG/1.1/DTD/svg11.dtd">
<!-- Generated by graphviz version 2.40.1 (20161225.0304)
 -->
<!-- Title: common Pages: 1 -->
<svg width="140pt" height="151pt"
 viewBox="0.00 0.00 139.50 151.00" xmlns="http://www.w3.org/2000/svg" xmlns:xlink="http://www.w3.org/1999/xlink">
<g id="graph0" class="graph" transform="scale(1 1) rotate(0) translate(4 147)">
<title>common</title>
<polygon fill="#ffffff" stroke="transparent" points="-4,4 -4,-147 135.5,-147 135.5,4 -4,4"/>
<g id="clust1" class="cluster">
<title>clusterdir_0a90ca78c76a6bb683a2fd4a8c3281f8</title>
<g id="a_clust1"><a xlink:href="dir_0a90ca78c76a6bb683a2fd4a8c3281f8.html" target="_top" xlink:title="qual">
<polygon fill="#ddddee" stroke="#000000" points="28,-64 28,-135 100,-135 100,-64 28,-64"/>
<text text-anchor="middle" x="64" y="-123" font-family="Helvetica,sans-Serif" font-size="10.00" fill="#000000">qual</text>
</a>
</g>
</g>
<!-- dir_fd5d7134f4fc3905912ada7aa4b1e1cf -->
<g id="node1" class="node">
<title>dir_fd5d7134f4fc3905912ada7aa4b1e1cf</title>
<g id="a_node1"><a xlink:href="dir_fd5d7134f4fc3905912ada7aa4b1e1cf.html" target="_top" xlink:title="common">
<polygon fill="#eeeeff" stroke="#000000" points="91.5,-108 36.5,-108 36.5,-72 91.5,-72 91.5,-108"/>
<text text-anchor="middle" x="64" y="-87.5" font-family="Helvetica,sans-Serif" font-size="10.00" fill="#000000">common</text>
</a>
</g>
</g>
<!-- dir_aa5aa98f6df5b802bb45e20a57604d12 -->
<g id="node2" class="node">
<title>dir_aa5aa98f6df5b802bb45e20a57604d12</title>
<g id="a_node2"><a xlink:href="dir_aa5aa98f6df5b802bb45e20a57604d12.html" target="_top" xlink:title="sbml">
<polygon fill="none" stroke="#000000" points="54,-36 0,-36 0,0 54,0 54,-36"/>
<text text-anchor="middle" x="27" y="-15.5" font-family="Helvetica,sans-Serif" font-size="10.00" fill="#000000">sbml</text>
</a>
</g>
</g>
<!-- dir_fd5d7134f4fc3905912ada7aa4b1e1cf&#45;&gt;dir_aa5aa98f6df5b802bb45e20a57604d12 -->
<g id="edge2" class="edge">
<title>dir_fd5d7134f4fc3905912ada7aa4b1e1cf&#45;&gt;dir_aa5aa98f6df5b802bb45e20a57604d12</title>
<path fill="none" stroke="#000000" d="M48.7109,-71.8314C43.8482,-63.8771 38.7519,-54.369 34.5863,-45.5723"/>
<polygon fill="#000000" stroke="#000000" points="37.7667,-44.1105 30.4864,-36.4133 31.3776,-46.9706 37.7667,-44.1105"/>
<g id="a_edge2&#45;headlabel"><a xlink:href="dir_000045_000026.html" target="_top" xlink:title="6">
<text text-anchor="middle" x="41.8267" y="-43.7314" font-family="Helvetica,sans-Serif" font-size="10.00" fill="#000000">6</text>
</a>
</g>
</g>
<!-- dir_eda3612caf036758c7e7b2fe6230660c -->
<g id="node3" class="node">
<title>dir_eda3612caf036758c7e7b2fe6230660c</title>
<g id="a_node3"><a xlink:href="dir_eda3612caf036758c7e7b2fe6230660c.html" target="_top" xlink:title="extension">
<polygon fill="none" stroke="#000000" points="131.5,-36 72.5,-36 72.5,0 131.5,0 131.5,-36"/>
<text text-anchor="middle" x="102" y="-15.5" font-family="Helvetica,sans-Serif" font-size="10.00" fill="#000000">extension</text>
</a>
</g>
</g>
<!-- dir_fd5d7134f4fc3905912ada7aa4b1e1cf&#45;&gt;dir_eda3612caf036758c7e7b2fe6230660c -->
<g id="edge3" class="edge">
<title>dir_fd5d7134f4fc3905912ada7aa4b1e1cf&#45;&gt;dir_eda3612caf036758c7e7b2fe6230660c</title>
<path fill="none" stroke="#000000" d="M73.589,-71.8314C77.8317,-63.7925 82.9121,-54.1666 87.596,-45.2918"/>
<polygon fill="#000000" stroke="#000000" points="90.7096,-46.8908 92.2819,-36.4133 84.5189,-43.6235 90.7096,-46.8908"/>
<g id="a_edge3&#45;headlabel"><a xlink:href="dir_000045_000044.html" target="_top" xlink:title="3">
<text text-anchor="middle" x="91.5428" y="-48.895" font-family="Helvetica,sans-Serif" font-size="10.00" fill="#000000">3</text>
</a>
</g>
</g>
<!-- dir_aa5aa98f6df5b802bb45e20a57604d12&#45;&gt;dir_fd5d7134f4fc3905912ada7aa4b1e1cf -->
<g id="edge1" class="edge">
<title>dir_aa5aa98f6df5b802bb45e20a57604d12&#45;&gt;dir_fd5d7134f4fc3905912ada7aa4b1e1cf</title>
<path fill="none" stroke="#000000" d="M42.4384,-36.4133C47.3058,-44.3991 52.3948,-53.9155 56.5413,-62.6975"/>
<polygon fill="#000000" stroke="#000000" points="53.3454,-64.1246 60.6157,-71.8314 59.7382,-61.2729 53.3454,-64.1246"/>
<g id="a_edge1&#45;headlabel"><a xlink:href="dir_000026_000045.html" target="_top" xlink:title="6">
<text text-anchor="middle" x="49.2881" y="-59.4985" font-family="Helvetica,sans-Serif" font-size="10.00" fill="#000000">6</text>
</a>
</g>
</g>
</g>
</svg>
