<?xml version="1.0" encoding="UTF-8" standalone="no"?>
<!DOCTYPE svg PUBLIC "-//W3C//DTD SVG 1.1//EN"
 "http://www.w3.org/Graphics/SVG/1.1/DTD/svg11.dtd">
<!-- Generated by graphviz version 2.40.1 (20161225.0304)
 -->
<!-- Title: util Pages: 1 -->
<svg width="306pt" height="367pt"
 viewBox="0.00 0.00 305.93 367.00" xmlns="http://www.w3.org/2000/svg" xmlns:xlink="http://www.w3.org/1999/xlink">
<g id="graph0" class="graph" transform="scale(1 1) rotate(0) translate(4 363)">
<title>util</title>
<polygon fill="#ffffff" stroke="transparent" points="-4,4 -4,-363 301.9291,-363 301.9291,4 -4,4"/>
<g id="clust1" class="cluster">
<title>clusterdir_56d603006930d6f32ca38bb932b49787</title>
<g id="a_clust1"><a xlink:href="dir_56d603006930d6f32ca38bb932b49787.html" target="_top" xlink:title="layout">
<polygon fill="#ddddee" stroke="#000000" points="102.1301,-280 102.1301,-351 172.1301,-351 172.1301,-280 102.1301,-280"/>
<text text-anchor="middle" x="137.1301" y="-339" font-family="Helvetica,sans-Serif" font-size="10.00" fill="#000000">layout</text>
</a>
</g>
</g>
<!-- dir_4843a4f4b536048b06467fd8eed65856 -->
<g id="node1" class="node">
<title>dir_4843a4f4b536048b06467fd8eed65856</title>
<g id="a_node1"><a xlink:href="dir_4843a4f4b536048b06467fd8eed65856.html" target="_top" xlink:title="util">
<polygon fill="#eeeeff" stroke="#000000" points="164.1301,-324 110.1301,-324 110.1301,-288 164.1301,-288 164.1301,-324"/>
<text text-anchor="middle" x="137.1301" y="-303.5" font-family="Helvetica,sans-Serif" font-size="10.00" fill="#000000">util</text>
</a>
</g>
</g>
<!-- dir_fd1e11fb0964f7346e999e146b0dfd59 -->
<g id="node2" class="node">
<title>dir_fd1e11fb0964f7346e999e146b0dfd59</title>
<g id="a_node2"><a xlink:href="dir_fd1e11fb0964f7346e999e146b0dfd59.html" target="_top" xlink:title="common">
<polygon fill="none" stroke="#000000" points="209.6301,-108 154.6301,-108 154.6301,-72 209.6301,-72 209.6301,-108"/>
<text text-anchor="middle" x="182.1301" y="-87.5" font-family="Helvetica,sans-Serif" font-size="10.00" fill="#000000">common</text>
</a>
</g>
</g>
<!-- dir_4843a4f4b536048b06467fd8eed65856&#45;&gt;dir_fd1e11fb0964f7346e999e146b0dfd59 -->
<g id="edge18" class="edge">
<title>dir_4843a4f4b536048b06467fd8eed65856&#45;&gt;dir_fd1e11fb0964f7346e999e146b0dfd59</title>
<path fill="none" stroke="#000000" d="M140.8894,-287.9555C148.7313,-250.3144 166.8829,-163.1867 176.2708,-118.1246"/>
<polygon fill="#000000" stroke="#000000" points="179.7367,-118.6487 178.3499,-108.1451 172.8838,-117.221 179.7367,-118.6487"/>
<g id="a_edge18&#45;headlabel"><a xlink:href="dir_000036_000015.html" target="_top" xlink:title="3">
<text text-anchor="middle" x="181.7832" y="-120.2469" font-family="Helvetica,sans-Serif" font-size="10.00" fill="#000000">3</text>
</a>
</g>
</g>
<!-- dir_c541d4b187fc5f863b4735b323978e0f -->
<g id="node3" class="node">
<title>dir_c541d4b187fc5f863b4735b323978e0f</title>
<g id="a_node3"><a xlink:href="dir_c541d4b187fc5f863b4735b323978e0f.html" target="_top" xlink:title="util">
<polygon fill="none" stroke="#000000" points="209.1301,-36 155.1301,-36 155.1301,0 209.1301,0 209.1301,-36"/>
<text text-anchor="middle" x="182.1301" y="-15.5" font-family="Helvetica,sans-Serif" font-size="10.00" fill="#000000">util</text>
</a>
</g>
</g>
<!-- dir_4843a4f4b536048b06467fd8eed65856&#45;&gt;dir_c541d4b187fc5f863b4735b323978e0f -->
<g id="edge19" class="edge">
<title>dir_4843a4f4b536048b06467fd8eed65856&#45;&gt;dir_c541d4b187fc5f863b4735b323978e0f</title>
<path fill="none" stroke="#000000" d="M110.1153,-303.6053C78.8058,-299.2201 28.5229,-286.8443 5.1301,-252 -3.7882,-238.716 1.1994,-231.5097 5.1301,-216 23.0114,-145.4448 31.738,-123.5425 83.1301,-72 100.7918,-54.2866 125.4836,-40.8035 145.789,-31.7404"/>
<polygon fill="#000000" stroke="#000000" points="147.2476,-34.9232 155.0609,-27.7677 144.4907,-28.489 147.2476,-34.9232"/>
<g id="a_edge19&#45;headlabel"><a xlink:href="dir_000036_000011.html" target="_top" xlink:title="2">
<text text-anchor="middle" x="145.0616" y="-36.4487" font-family="Helvetica,sans-Serif" font-size="10.00" fill="#000000">2</text>
</a>
</g>
</g>
<!-- dir_88ac4bf79705bb8559b852278d35d8da -->
<g id="node4" class="node">
<title>dir_88ac4bf79705bb8559b852278d35d8da</title>
<g id="a_node4"><a xlink:href="dir_88ac4bf79705bb8559b852278d35d8da.html" target="_top" xlink:title="sbml">
<polygon fill="none" stroke="#000000" points="267.1301,-324 213.1301,-324 213.1301,-288 267.1301,-288 267.1301,-324"/>
<text text-anchor="middle" x="240.1301" y="-303.5" font-family="Helvetica,sans-Serif" font-size="10.00" fill="#000000">sbml</text>
</a>
</g>
</g>
<!-- dir_4843a4f4b536048b06467fd8eed65856&#45;&gt;dir_88ac4bf79705bb8559b852278d35d8da -->
<g id="edge20" class="edge">
<title>dir_4843a4f4b536048b06467fd8eed65856&#45;&gt;dir_88ac4bf79705bb8559b852278d35d8da</title>
<path fill="none" stroke="#000000" d="M164.4895,-306C177.2347,-306 189.98,-306 202.7253,-306"/>
<polygon fill="#000000" stroke="#000000" points="202.9468,-309.5001 212.9467,-306 202.9467,-302.5001 202.9468,-309.5001"/>
<g id="a_edge20&#45;headlabel"><a xlink:href="dir_000036_000010.html" target="_top" xlink:title="3">
<text text-anchor="middle" x="199.3521" y="-309.8393" font-family="Helvetica,sans-Serif" font-size="10.00" fill="#000000">3</text>
</a>
</g>
</g>
<!-- dir_909df41e089bc57b29bc62cc6d76d6dc -->
<g id="node5" class="node">
<title>dir_909df41e089bc57b29bc62cc6d76d6dc</title>
<g id="a_node5"><a xlink:href="dir_909df41e089bc57b29bc62cc6d76d6dc.html" target="_top" xlink:title="annotation">
<polygon fill="none" stroke="#000000" points="77.6301,-252 14.6301,-252 14.6301,-216 77.6301,-216 77.6301,-252"/>
<text text-anchor="middle" x="46.1301" y="-231.5" font-family="Helvetica,sans-Serif" font-size="10.00" fill="#000000">annotation</text>
</a>
</g>
</g>
<!-- dir_4843a4f4b536048b06467fd8eed65856&#45;&gt;dir_909df41e089bc57b29bc62cc6d76d6dc -->
<g id="edge21" class="edge">
<title>dir_4843a4f4b536048b06467fd8eed65856&#45;&gt;dir_909df41e089bc57b29bc62cc6d76d6dc</title>
<path fill="none" stroke="#000000" d="M114.1669,-287.8314C102.9586,-278.9632 89.3092,-268.1637 77.1861,-258.5718"/>
<polygon fill="#000000" stroke="#000000" points="79.0998,-255.6229 69.0859,-252.1628 74.7564,-261.1125 79.0998,-255.6229"/>
<g id="a_edge21&#45;headlabel"><a xlink:href="dir_000036_000024.html" target="_top" xlink:title="1">
<text text-anchor="middle" x="83.6805" y="-253.1267" font-family="Helvetica,sans-Serif" font-size="10.00" fill="#000000">1</text>
</a>
</g>
</g>
<!-- dir_469dd4fe8a06b7a018d55910fd20ec61 -->
<g id="node6" class="node">
<title>dir_469dd4fe8a06b7a018d55910fd20ec61</title>
<g id="a_node6"><a xlink:href="dir_469dd4fe8a06b7a018d55910fd20ec61.html" target="_top" xlink:title="extension">
<polygon fill="none" stroke="#000000" points="269.6301,-252 210.6301,-252 210.6301,-216 269.6301,-216 269.6301,-252"/>
<text text-anchor="middle" x="240.1301" y="-231.5" font-family="Helvetica,sans-Serif" font-size="10.00" fill="#000000">extension</text>
</a>
</g>
</g>
<!-- dir_4843a4f4b536048b06467fd8eed65856&#45;&gt;dir_469dd4fe8a06b7a018d55910fd20ec61 -->
<g id="edge22" class="edge">
<title>dir_4843a4f4b536048b06467fd8eed65856&#45;&gt;dir_469dd4fe8a06b7a018d55910fd20ec61</title>
<path fill="none" stroke="#000000" d="M157.1689,-287.8314C169.8892,-278.2895 186.6212,-266.5117 201.7713,-256.4081"/>
<polygon fill="#000000" stroke="#000000" points="204.0395,-259.1052 210.4663,-250.6822 200.1896,-253.2589 204.0395,-259.1052"/>
<g id="a_edge22&#45;headlabel"><a xlink:href="dir_000036_000038.html" target="_top" xlink:title="2">
<text text-anchor="middle" x="202.5989" y="-260.9534" font-family="Helvetica,sans-Serif" font-size="10.00" fill="#000000">2</text>
</a>
</g>
</g>
<!-- dir_5cbb9a0bf548abf0d2e32772c73d2ad6 -->
<g id="node7" class="node">
<title>dir_5cbb9a0bf548abf0d2e32772c73d2ad6</title>
<g id="a_node7"><a xlink:href="dir_5cbb9a0bf548abf0d2e32772c73d2ad6.html" target="_top" xlink:title="xml">
<polygon fill="none" stroke="#000000" points="154.1301,-180 100.1301,-180 100.1301,-144 154.1301,-144 154.1301,-180"/>
<text text-anchor="middle" x="127.1301" y="-159.5" font-family="Helvetica,sans-Serif" font-size="10.00" fill="#000000">xml</text>
</a>
</g>
</g>
<!-- dir_4843a4f4b536048b06467fd8eed65856&#45;&gt;dir_5cbb9a0bf548abf0d2e32772c73d2ad6 -->
<g id="edge23" class="edge">
<title>dir_4843a4f4b536048b06467fd8eed65856&#45;&gt;dir_5cbb9a0bf548abf0d2e32772c73d2ad6</title>
<path fill="none" stroke="#000000" d="M134.2947,-287.5518C132.806,-277.1391 131.0952,-263.8722 130.1301,-252 128.4621,-231.4825 127.7163,-208.2617 127.3853,-190.5463"/>
<polygon fill="#000000" stroke="#000000" points="130.8812,-190.2459 127.2283,-180.3008 123.8821,-190.3533 130.8812,-190.2459"/>
<g id="a_edge23&#45;headlabel"><a xlink:href="dir_000036_000027.html" target="_top" xlink:title="6">
<text text-anchor="middle" x="133.7752" y="-191.2967" font-family="Helvetica,sans-Serif" font-size="10.00" fill="#000000">6</text>
</a>
</g>
</g>
<!-- dir_fd1e11fb0964f7346e999e146b0dfd59&#45;&gt;dir_c541d4b187fc5f863b4735b323978e0f -->
<g id="edge1" class="edge">
<title>dir_fd1e11fb0964f7346e999e146b0dfd59&#45;&gt;dir_c541d4b187fc5f863b4735b323978e0f</title>
<path fill="none" stroke="#000000" d="M176.1777,-71.8314C175.4273,-64.131 175.2064,-54.9743 175.515,-46.4166"/>
<polygon fill="#000000" stroke="#000000" points="179.0093,-46.6161 176.1541,-36.4133 172.0235,-46.1697 179.0093,-46.6161"/>
<g id="a_edge1&#45;headlabel"><a xlink:href="dir_000015_000011.html" target="_top" xlink:title="2">
<text text-anchor="middle" x="181.6137" y="-47.8844" font-family="Helvetica,sans-Serif" font-size="10.00" fill="#000000">2</text>
</a>
</g>
</g>
<!-- dir_c541d4b187fc5f863b4735b323978e0f&#45;&gt;dir_fd1e11fb0964f7346e999e146b0dfd59 -->
<g id="edge2" class="edge">
<title>dir_c541d4b187fc5f863b4735b323978e0f&#45;&gt;dir_fd1e11fb0964f7346e999e146b0dfd59</title>
<path fill="none" stroke="#000000" d="M188.1061,-36.4133C188.8372,-44.0593 189.0504,-53.1084 188.7456,-61.5726"/>
<polygon fill="#000000" stroke="#000000" points="185.2349,-61.6264 188.0825,-71.8314 192.2203,-62.078 185.2349,-61.6264"/>
<g id="a_edge2&#45;headlabel"><a xlink:href="dir_000011_000015.html" target="_top" xlink:title="4">
<text text-anchor="middle" x="182.6333" y="-55.3562" font-family="Helvetica,sans-Serif" font-size="10.00" fill="#000000">4</text>
</a>
</g>
</g>
<!-- dir_88ac4bf79705bb8559b852278d35d8da&#45;&gt;dir_4843a4f4b536048b06467fd8eed65856 -->
<g id="edge7" class="edge">
<title>dir_88ac4bf79705bb8559b852278d35d8da&#45;&gt;dir_4843a4f4b536048b06467fd8eed65856</title>
<path fill="none" stroke="#000000" d="M212.9467,-306C200.2015,-306 187.4562,-306 174.7109,-306"/>
<polygon fill="#000000" stroke="#000000" points="174.4895,-302.5001 164.4895,-306 174.4894,-309.5001 174.4895,-302.5001"/>
<g id="a_edge7&#45;headlabel"><a xlink:href="dir_000010_000036.html" target="_top" xlink:title="15">
<text text-anchor="middle" x="178.0841" y="-297.1607" font-family="Helvetica,sans-Serif" font-size="10.00" fill="#000000">15</text>
</a>
</g>
</g>
<!-- dir_88ac4bf79705bb8559b852278d35d8da&#45;&gt;dir_fd1e11fb0964f7346e999e146b0dfd59 -->
<g id="edge3" class="edge">
<title>dir_88ac4bf79705bb8559b852278d35d8da&#45;&gt;dir_fd1e11fb0964f7346e999e146b0dfd59</title>
<path fill="none" stroke="#000000" d="M257.8408,-287.6517C266.0243,-277.8946 274.8605,-265.2041 279.1301,-252 284.0528,-236.7761 284.1897,-231.1789 279.1301,-216 265.7386,-175.8254 233.5674,-138.5561 209.9308,-115.1351"/>
<polygon fill="#000000" stroke="#000000" points="212.2109,-112.4711 202.5912,-108.0314 207.3427,-117.501 212.2109,-112.4711"/>
<g id="a_edge3&#45;headlabel"><a xlink:href="dir_000010_000015.html" target="_top" xlink:title="16">
<text text-anchor="middle" x="216.7685" y="-110.4308" font-family="Helvetica,sans-Serif" font-size="10.00" fill="#000000">16</text>
</a>
</g>
</g>
<!-- dir_88ac4bf79705bb8559b852278d35d8da&#45;&gt;dir_c541d4b187fc5f863b4735b323978e0f -->
<g id="edge4" class="edge">
<title>dir_88ac4bf79705bb8559b852278d35d8da&#45;&gt;dir_c541d4b187fc5f863b4735b323978e0f</title>
<path fill="none" stroke="#000000" d="M265.6353,-287.9627C276.6054,-278.6284 288.2446,-266.2089 294.1301,-252 300.253,-237.2179 297.0802,-231.7257 294.1301,-216 281.4685,-148.5082 276.177,-129.1655 238.1301,-72 231.1146,-61.4593 221.7273,-51.3969 212.6461,-42.876"/>
<polygon fill="#000000" stroke="#000000" points="214.9158,-40.2098 205.1487,-36.1045 210.2239,-45.4046 214.9158,-40.2098"/>
<g id="a_edge4&#45;headlabel"><a xlink:href="dir_000010_000011.html" target="_top" xlink:title="10">
<text text-anchor="middle" x="219.4865" y="-38.0121" font-family="Helvetica,sans-Serif" font-size="10.00" fill="#000000">10</text>
</a>
</g>
</g>
<!-- dir_88ac4bf79705bb8559b852278d35d8da&#45;&gt;dir_469dd4fe8a06b7a018d55910fd20ec61 -->
<g id="edge5" class="edge">
<title>dir_88ac4bf79705bb8559b852278d35d8da&#45;&gt;dir_469dd4fe8a06b7a018d55910fd20ec61</title>
<path fill="none" stroke="#000000" d="M234.1777,-287.8314C233.4273,-280.131 233.2064,-270.9743 233.515,-262.4166"/>
<polygon fill="#000000" stroke="#000000" points="237.0093,-262.6161 234.1541,-252.4133 230.0235,-262.1697 237.0093,-262.6161"/>
<g id="a_edge5&#45;headlabel"><a xlink:href="dir_000010_000038.html" target="_top" xlink:title="15">
<text text-anchor="middle" x="239.6137" y="-263.8844" font-family="Helvetica,sans-Serif" font-size="10.00" fill="#000000">15</text>
</a>
</g>
</g>
<!-- dir_88ac4bf79705bb8559b852278d35d8da&#45;&gt;dir_5cbb9a0bf548abf0d2e32772c73d2ad6 -->
<g id="edge6" class="edge">
<title>dir_88ac4bf79705bb8559b852278d35d8da&#45;&gt;dir_5cbb9a0bf548abf0d2e32772c73d2ad6</title>
<path fill="none" stroke="#000000" d="M225.8186,-287.7623C206.0354,-262.5518 170.2194,-216.9103 147.6075,-188.0952"/>
<polygon fill="#000000" stroke="#000000" points="150.2523,-185.7959 141.3254,-180.0896 144.7454,-190.1173 150.2523,-185.7959"/>
<g id="a_edge6&#45;headlabel"><a xlink:href="dir_000010_000027.html" target="_top" xlink:title="76">
<text text-anchor="middle" x="154.705" y="-184.371" font-family="Helvetica,sans-Serif" font-size="10.00" fill="#000000">76</text>
</a>
</g>
</g>
<!-- dir_909df41e089bc57b29bc62cc6d76d6dc&#45;&gt;dir_fd1e11fb0964f7346e999e146b0dfd59 -->
<g id="edge8" class="edge">
<title>dir_909df41e089bc57b29bc62cc6d76d6dc&#45;&gt;dir_fd1e11fb0964f7346e999e146b0dfd59</title>
<path fill="none" stroke="#000000" d="M51.7024,-215.9673C58.4762,-196.3896 71.4941,-165.1014 91.1301,-144 106.1566,-127.8521 127.1061,-114.9726 145.1169,-105.8478"/>
<polygon fill="#000000" stroke="#000000" points="146.758,-108.9417 154.2205,-101.421 143.6968,-102.6465 146.758,-108.9417"/>
<g id="a_edge8&#45;headlabel"><a xlink:href="dir_000024_000015.html" target="_top" xlink:title="13">
<text text-anchor="middle" x="144.7669" y="-110.567" font-family="Helvetica,sans-Serif" font-size="10.00" fill="#000000">13</text>
</a>
</g>
</g>
<!-- dir_909df41e089bc57b29bc62cc6d76d6dc&#45;&gt;dir_c541d4b187fc5f863b4735b323978e0f -->
<g id="edge9" class="edge">
<title>dir_909df41e089bc57b29bc62cc6d76d6dc&#45;&gt;dir_c541d4b187fc5f863b4735b323978e0f</title>
<path fill="none" stroke="#000000" d="M46.868,-215.8008C48.2789,-196.9127 52.3608,-166.9746 64.1301,-144 85.1479,-102.9715 123.5086,-65.7587 150.7836,-42.5882"/>
<polygon fill="#000000" stroke="#000000" points="153.07,-45.2388 158.5094,-36.1468 148.5874,-39.8624 153.07,-45.2388"/>
<g id="a_edge9&#45;headlabel"><a xlink:href="dir_000024_000011.html" target="_top" xlink:title="7">
<text text-anchor="middle" x="152.1273" y="-47.2214" font-family="Helvetica,sans-Serif" font-size="10.00" fill="#000000">7</text>
</a>
</g>
</g>
<!-- dir_909df41e089bc57b29bc62cc6d76d6dc&#45;&gt;dir_5cbb9a0bf548abf0d2e32772c73d2ad6 -->
<g id="edge10" class="edge">
<title>dir_909df41e089bc57b29bc62cc6d76d6dc&#45;&gt;dir_5cbb9a0bf548abf0d2e32772c73d2ad6</title>
<path fill="none" stroke="#000000" d="M66.5698,-215.8314C76.4506,-207.0485 88.4625,-196.3712 99.1751,-186.8489"/>
<polygon fill="#000000" stroke="#000000" points="101.5481,-189.4224 106.6969,-180.1628 96.8975,-184.1906 101.5481,-189.4224"/>
<g id="a_edge10&#45;headlabel"><a xlink:href="dir_000024_000027.html" target="_top" xlink:title="12">
<text text-anchor="middle" x="100.7477" y="-191.4326" font-family="Helvetica,sans-Serif" font-size="10.00" fill="#000000">12</text>
</a>
</g>
</g>
<!-- dir_469dd4fe8a06b7a018d55910fd20ec61&#45;&gt;dir_4843a4f4b536048b06467fd8eed65856 -->
<g id="edge15" class="edge">
<title>dir_469dd4fe8a06b7a018d55910fd20ec61&#45;&gt;dir_4843a4f4b536048b06467fd8eed65856</title>
<path fill="none" stroke="#000000" d="M220.1387,-252.133C206.6756,-262.2341 188.7037,-274.8493 172.8706,-285.3318"/>
<polygon fill="#000000" stroke="#000000" points="170.7946,-282.5073 164.3367,-290.9064 174.6229,-288.3677 170.7946,-282.5073"/>
<g id="a_edge15&#45;headlabel"><a xlink:href="dir_000038_000036.html" target="_top" xlink:title="2">
<text text-anchor="middle" x="172.2513" y="-275.6644" font-family="Helvetica,sans-Serif" font-size="10.00" fill="#000000">2</text>
</a>
</g>
</g>
<!-- dir_469dd4fe8a06b7a018d55910fd20ec61&#45;&gt;dir_fd1e11fb0964f7346e999e146b0dfd59 -->
<g id="edge11" class="edge">
<title>dir_469dd4fe8a06b7a018d55910fd20ec61&#45;&gt;dir_fd1e11fb0964f7346e999e146b0dfd59</title>
<path fill="none" stroke="#000000" d="M232.7843,-215.7623C222.8045,-190.9846 204.8755,-146.4714 193.2443,-117.5939"/>
<polygon fill="#000000" stroke="#000000" points="196.3989,-116.0578 189.4162,-108.0896 189.9058,-118.6731 196.3989,-116.0578"/>
<g id="a_edge11&#45;headlabel"><a xlink:href="dir_000038_000015.html" target="_top" xlink:title="2">
<text text-anchor="middle" x="200.3755" y="-115.8314" font-family="Helvetica,sans-Serif" font-size="10.00" fill="#000000">2</text>
</a>
</g>
</g>
<!-- dir_469dd4fe8a06b7a018d55910fd20ec61&#45;&gt;dir_c541d4b187fc5f863b4735b323978e0f -->
<g id="edge12" class="edge">
<title>dir_469dd4fe8a06b7a018d55910fd20ec61&#45;&gt;dir_c541d4b187fc5f863b4735b323978e0f</title>
<path fill="none" stroke="#000000" d="M240.4994,-215.8353C240.535,-185.1478 238.0512,-121.5437 219.1301,-72 215.4588,-62.3869 209.7558,-52.8186 203.9175,-44.4659"/>
<polygon fill="#000000" stroke="#000000" points="206.6138,-42.225 197.864,-36.2507 200.9785,-46.3775 206.6138,-42.225"/>
<g id="a_edge12&#45;headlabel"><a xlink:href="dir_000038_000011.html" target="_top" xlink:title="3">
<text text-anchor="middle" x="211.0319" y="-40.9345" font-family="Helvetica,sans-Serif" font-size="10.00" fill="#000000">3</text>
</a>
</g>
</g>
<!-- dir_469dd4fe8a06b7a018d55910fd20ec61&#45;&gt;dir_88ac4bf79705bb8559b852278d35d8da -->
<g id="edge13" class="edge">
<title>dir_469dd4fe8a06b7a018d55910fd20ec61&#45;&gt;dir_88ac4bf79705bb8559b852278d35d8da</title>
<path fill="none" stroke="#000000" d="M246.1061,-252.4133C246.8372,-260.0593 247.0504,-269.1084 246.7456,-277.5726"/>
<polygon fill="#000000" stroke="#000000" points="243.2349,-277.6264 246.0825,-287.8314 250.2203,-278.078 243.2349,-277.6264"/>
<g id="a_edge13&#45;headlabel"><a xlink:href="dir_000038_000010.html" target="_top" xlink:title="1">
<text text-anchor="middle" x="240.6333" y="-271.3562" font-family="Helvetica,sans-Serif" font-size="10.00" fill="#000000">1</text>
</a>
</g>
</g>
<!-- dir_469dd4fe8a06b7a018d55910fd20ec61&#45;&gt;dir_5cbb9a0bf548abf0d2e32772c73d2ad6 -->
<g id="edge14" class="edge">
<title>dir_469dd4fe8a06b7a018d55910fd20ec61&#45;&gt;dir_5cbb9a0bf548abf0d2e32772c73d2ad6</title>
<path fill="none" stroke="#000000" d="M211.6154,-215.8314C196.831,-206.4112 178.6264,-194.8118 162.9064,-184.7955"/>
<polygon fill="#000000" stroke="#000000" points="164.7805,-181.8396 154.4662,-179.4177 161.019,-187.7431 164.7805,-181.8396"/>
<g id="a_edge14&#45;headlabel"><a xlink:href="dir_000038_000027.html" target="_top" xlink:title="2">
<text text-anchor="middle" x="169.3378" y="-178.8766" font-family="Helvetica,sans-Serif" font-size="10.00" fill="#000000">2</text>
</a>
</g>
</g>
<!-- dir_5cbb9a0bf548abf0d2e32772c73d2ad6&#45;&gt;dir_fd1e11fb0964f7346e999e146b0dfd59 -->
<g id="edge16" class="edge">
<title>dir_5cbb9a0bf548abf0d2e32772c73d2ad6&#45;&gt;dir_fd1e11fb0964f7346e999e146b0dfd59</title>
<path fill="none" stroke="#000000" d="M141.0089,-143.8314C147.3436,-135.5386 154.9685,-125.557 161.9227,-116.4533"/>
<polygon fill="#000000" stroke="#000000" points="164.7753,-118.4847 168.0644,-108.4133 159.2126,-114.2353 164.7753,-118.4847"/>
<g id="a_edge16&#45;headlabel"><a xlink:href="dir_000027_000015.html" target="_top" xlink:title="5">
<text text-anchor="middle" x="164.8495" y="-120.5647" font-family="Helvetica,sans-Serif" font-size="10.00" fill="#000000">5</text>
</a>
</g>
</g>
<!-- dir_5cbb9a0bf548abf0d2e32772c73d2ad6&#45;&gt;dir_c541d4b187fc5f863b4735b323978e0f -->
<g id="edge17" class="edge">
<title>dir_5cbb9a0bf548abf0d2e32772c73d2ad6&#45;&gt;dir_c541d4b187fc5f863b4735b323978e0f</title>
<path fill="none" stroke="#000000" d="M128.9206,-143.8083C131.2188,-125.1875 136.1645,-95.7008 146.1301,-72 150.0845,-62.5953 155.7453,-53.0879 161.4106,-44.727"/>
<polygon fill="#000000" stroke="#000000" points="164.3259,-46.6664 167.2448,-36.4815 158.6117,-42.6231 164.3259,-46.6664"/>
<g id="a_edge17&#45;headlabel"><a xlink:href="dir_000027_000011.html" target="_top" xlink:title="5">
<text text-anchor="middle" x="164.5675" y="-48.7406" font-family="Helvetica,sans-Serif" font-size="10.00" fill="#000000">5</text>
</a>
</g>
</g>
</g>
</svg>
