<?xml version="1.0" encoding="UTF-8" standalone="no"?>
<!DOCTYPE svg PUBLIC "-//W3C//DTD SVG 1.1//EN"
 "http://www.w3.org/Graphics/SVG/1.1/DTD/svg11.dtd">
<!-- Generated by graphviz version 2.40.1 (20161225.0304)
 -->
<!-- Title: extension Pages: 1 -->
<!--zoomable 476 -->
<svg id="main" version="1.1" xmlns="http://www.w3.org/2000/svg" xmlns:xlink="http://www.w3.org/1999/xlink" xml:space="preserve" onload="init(evt)">
<style type="text/css"><![CDATA[
.edge:hover path { stroke: red; }
.edge:hover polygon { stroke: red; fill: red; }
]]></style>
<script type="text/javascript"><![CDATA[
var edges = document.getElementsByTagName('g');
if (edges && edges.length) {
  for (var i=0;i<edges.length;i++) {
    if (edges[i].id.substr(0,4)=='edge') {
      edges[i].setAttribute('class','edge');
    }
  }
}
]]></script>
        <defs>
                <circle id="rim" cx="0" cy="0" r="7"/>
                <circle id="rim2" cx="0" cy="0" r="3.5"/>
                <g id="zoomPlus">
                        <use xlink:href="#rim" fill="#404040">
                                <set attributeName="fill" to="#808080" begin="zoomplus.mouseover" end="zoomplus.mouseout"/>
                        </use>
                        <path d="M-4,0h8M0,-4v8" fill="none" stroke="white" stroke-width="1.5" pointer-events="none"/>
                </g>
                <g id="zoomMin">
                        <use xlink:href="#rim" fill="#404040">
                                <set attributeName="fill" to="#808080" begin="zoomminus.mouseover" end="zoomminus.mouseout"/>
                        </use>
                        <path d="M-4,0h8" fill="none" stroke="white" stroke-width="1.5" pointer-events="none"/>
                </g>
                <g id="dirArrow">
                        <path fill="none" stroke="white" stroke-width="1.5" d="M0,-3.0v7 M-2.5,-0.5L0,-3.0L2.5,-0.5"/>
                </g>
               <g id="resetDef">
                       <use xlink:href="#rim2" fill="#404040">
                               <set attributeName="fill" to="#808080" begin="reset.mouseover" end="reset.mouseout"/>
                       </use>
               </g>
        </defs>

<script type="text/javascript">
var viewWidth = 474;
var viewHeight = 476;
var sectionId = 'dynsection-0';
</script>
<script xlink:href="svgpan.js"/>
<svg id="graph" class="graph">
<g id="viewport">
<title>extension</title>
<polygon fill="#ffffff" stroke="transparent" points="-4,4 -4,-472 470.1362,-472 470.1362,4 -4,4"/>
<g id="clust1" class="cluster">
<title>clusterdir_8c25a664b4b6cfdfb5234e8b61efda61</title>
<g id="a_clust1"><a xlink:href="dir_8c25a664b4b6cfdfb5234e8b61efda61.html" target="_top" xlink:title="render">
<polygon fill="#ddddee" stroke="#000000" points="228.1362,-352 228.1362,-423 304.1362,-423 304.1362,-352 228.1362,-352"/>
<text text-anchor="middle" x="266.1362" y="-411" font-family="Helvetica,sans-Serif" font-size="10.00" fill="#000000">render</text>
</a>
</g>
</g>
<!-- dir_6b5446d9575188b5a170aae88d74d865 -->
<g id="node1" class="node">
<title>dir_6b5446d9575188b5a170aae88d74d865</title>
<g id="a_node1"><a xlink:href="dir_6b5446d9575188b5a170aae88d74d865.html" target="_top" xlink:title="extension">
<polygon fill="#eeeeff" stroke="#000000" points="295.6362,-396 236.6362,-396 236.6362,-360 295.6362,-360 295.6362,-396"/>
<text text-anchor="middle" x="266.1362" y="-375.5" font-family="Helvetica,sans-Serif" font-size="10.00" fill="#000000">extension</text>
</a>
</g>
</g>
<!-- dir_fd1e11fb0964f7346e999e146b0dfd59 -->
<g id="node2" class="node">
<title>dir_fd1e11fb0964f7346e999e146b0dfd59</title>
<g id="a_node2"><a xlink:href="dir_fd1e11fb0964f7346e999e146b0dfd59.html" target="_top" xlink:title="common">
<polygon fill="none" stroke="#000000" points="201.6362,-108 146.6362,-108 146.6362,-72 201.6362,-72 201.6362,-108"/>
<text text-anchor="middle" x="174.1362" y="-87.5" font-family="Helvetica,sans-Serif" font-size="10.00" fill="#000000">common</text>
</a>
</g>
</g>
<!-- dir_6b5446d9575188b5a170aae88d74d865&#45;&gt;dir_fd1e11fb0964f7346e999e146b0dfd59 -->
<g id="edge7" class="edge">
<title>dir_6b5446d9575188b5a170aae88d74d865&#45;&gt;dir_fd1e11fb0964f7346e999e146b0dfd59</title>
<path fill="none" stroke="#000000" d="M248.2495,-359.8216C217.5832,-327.174 156.2356,-254.9894 135.1362,-180 130.8026,-164.598 130.2135,-159.2239 135.1362,-144 138.305,-134.2001 143.9893,-124.6831 150.0553,-116.4383"/>
<polygon fill="#000000" stroke="#000000" points="152.9888,-118.3703 156.4254,-108.3483 147.4891,-114.0398 152.9888,-118.3703"/>
<g id="a_edge7&#45;headlabel"><a xlink:href="dir_000047_000015.html" target="_top" xlink:title="5">
<text text-anchor="middle" x="152.9958" y="-120.451" font-family="Helvetica,sans-Serif" font-size="10.00" fill="#000000">5</text>
</a>
</g>
</g>
<!-- dir_c541d4b187fc5f863b4735b323978e0f -->
<g id="node3" class="node">
<title>dir_c541d4b187fc5f863b4735b323978e0f</title>
<g id="a_node3"><a xlink:href="dir_c541d4b187fc5f863b4735b323978e0f.html" target="_top" xlink:title="util">
<polygon fill="none" stroke="#000000" points="257.1362,-36 203.1362,-36 203.1362,0 257.1362,0 257.1362,-36"/>
<text text-anchor="middle" x="230.1362" y="-15.5" font-family="Helvetica,sans-Serif" font-size="10.00" fill="#000000">util</text>
</a>
</g>
</g>
<!-- dir_6b5446d9575188b5a170aae88d74d865&#45;&gt;dir_c541d4b187fc5f863b4735b323978e0f -->
<g id="edge8" class="edge">
<title>dir_6b5446d9575188b5a170aae88d74d865&#45;&gt;dir_c541d4b187fc5f863b4735b323978e0f</title>
<path fill="none" stroke="#000000" d="M270.5332,-359.7795C276.1682,-335.4047 285.628,-290.7553 289.1362,-252 296.0569,-175.5468 262.8467,-88.6618 243.4063,-45.4426"/>
<polygon fill="#000000" stroke="#000000" points="246.4973,-43.7867 239.1395,-36.1634 240.1374,-46.7112 246.4973,-43.7867"/>
<g id="a_edge8&#45;headlabel"><a xlink:href="dir_000047_000011.html" target="_top" xlink:title="2">
<text text-anchor="middle" x="250.5786" y="-43.3665" font-family="Helvetica,sans-Serif" font-size="10.00" fill="#000000">2</text>
</a>
</g>
</g>
<!-- dir_b1a5b7ba9091facbdf32a321b74a0f11 -->
<g id="node4" class="node">
<title>dir_b1a5b7ba9091facbdf32a321b74a0f11</title>
<g id="a_node4"><a xlink:href="dir_b1a5b7ba9091facbdf32a321b74a0f11.html" target="_top" xlink:title="validator">
<polygon fill="none" stroke="#000000" points="466.1362,-252 412.1362,-252 412.1362,-216 466.1362,-216 466.1362,-252"/>
<text text-anchor="middle" x="439.1362" y="-231.5" font-family="Helvetica,sans-Serif" font-size="10.00" fill="#000000">validator</text>
</a>
</g>
</g>
<!-- dir_6b5446d9575188b5a170aae88d74d865&#45;&gt;dir_b1a5b7ba9091facbdf32a321b74a0f11 -->
<g id="edge9" class="edge">
<title>dir_6b5446d9575188b5a170aae88d74d865&#45;&gt;dir_b1a5b7ba9091facbdf32a321b74a0f11</title>
<path fill="none" stroke="#000000" d="M295.8729,-364.0484C304.6113,-360.054 314.2179,-355.7645 323.1362,-352 354.7682,-338.6478 369.862,-347.2396 395.1362,-324 413.2341,-307.359 424.7611,-281.6541 431.4558,-261.9691"/>
<polygon fill="#000000" stroke="#000000" points="434.8343,-262.8941 434.5254,-252.3038 428.1626,-260.7753 434.8343,-262.8941"/>
<g id="a_edge9&#45;headlabel"><a xlink:href="dir_000047_000046.html" target="_top" xlink:title="4">
<text text-anchor="middle" x="436.4524" y="-264.6795" font-family="Helvetica,sans-Serif" font-size="10.00" fill="#000000">4</text>
</a>
</g>
</g>
<!-- dir_d3b86ce335ad818909ececff0fac1eca -->
<g id="node5" class="node">
<title>dir_d3b86ce335ad818909ececff0fac1eca</title>
<g id="a_node5"><a xlink:href="dir_d3b86ce335ad818909ececff0fac1eca.html" target="_top" xlink:title="conversion">
<polygon fill="none" stroke="#000000" points="93.6362,-252 28.6362,-252 28.6362,-216 93.6362,-216 93.6362,-252"/>
<text text-anchor="middle" x="61.1362" y="-231.5" font-family="Helvetica,sans-Serif" font-size="10.00" fill="#000000">conversion</text>
</a>
</g>
</g>
<!-- dir_6b5446d9575188b5a170aae88d74d865&#45;&gt;dir_d3b86ce335ad818909ececff0fac1eca -->
<g id="edge10" class="edge">
<title>dir_6b5446d9575188b5a170aae88d74d865&#45;&gt;dir_d3b86ce335ad818909ececff0fac1eca</title>
<path fill="none" stroke="#000000" d="M236.4436,-369.7995C209.1373,-361.3 168.4156,-346.1307 138.1362,-324 114.1299,-306.4542 92.6763,-280.0149 78.5509,-260.3272"/>
<polygon fill="#000000" stroke="#000000" points="81.3797,-258.2651 72.7768,-252.0811 75.6457,-262.2802 81.3797,-258.2651"/>
<g id="a_edge10&#45;headlabel"><a xlink:href="dir_000047_000023.html" target="_top" xlink:title="2">
<text text-anchor="middle" x="85.7673" y="-257.0811" font-family="Helvetica,sans-Serif" font-size="10.00" fill="#000000">2</text>
</a>
</g>
</g>
<!-- dir_224c4a10832b4053571db2c932d86b0d -->
<g id="node6" class="node">
<title>dir_224c4a10832b4053571db2c932d86b0d</title>
<g id="a_node6"><a xlink:href="dir_224c4a10832b4053571db2c932d86b0d.html" target="_top" xlink:title="sbml">
<polygon fill="none" stroke="#000000" points="386.1362,-324 332.1362,-324 332.1362,-288 386.1362,-288 386.1362,-324"/>
<text text-anchor="middle" x="359.1362" y="-303.5" font-family="Helvetica,sans-Serif" font-size="10.00" fill="#000000">sbml</text>
</a>
</g>
</g>
<!-- dir_6b5446d9575188b5a170aae88d74d865&#45;&gt;dir_224c4a10832b4053571db2c932d86b0d -->
<g id="edge11" class="edge">
<title>dir_6b5446d9575188b5a170aae88d74d865&#45;&gt;dir_224c4a10832b4053571db2c932d86b0d</title>
<path fill="none" stroke="#000000" d="M283.6516,-359.8314C295.0225,-350.3097 310.079,-338.5615 323.8024,-328.4722"/>
<polygon fill="#000000" stroke="#000000" points="326.0851,-331.1404 332.13,-322.4393 321.9783,-325.4717 326.0851,-331.1404"/>
<g id="a_edge11&#45;headlabel"><a xlink:href="dir_000047_000014.html" target="_top" xlink:title="2">
<text text-anchor="middle" x="324.8398" y="-333.0486" font-family="Helvetica,sans-Serif" font-size="10.00" fill="#000000">2</text>
</a>
</g>
</g>
<!-- dir_b14b741173403ad069a896263b3f14b4 -->
<g id="node7" class="node">
<title>dir_b14b741173403ad069a896263b3f14b4</title>
<g id="a_node7"><a xlink:href="dir_b14b741173403ad069a896263b3f14b4.html" target="_top" xlink:title="util">
<polygon fill="none" stroke="#000000" points="160.1362,-468 106.1362,-468 106.1362,-432 160.1362,-432 160.1362,-468"/>
<text text-anchor="middle" x="133.1362" y="-447.5" font-family="Helvetica,sans-Serif" font-size="10.00" fill="#000000">util</text>
</a>
</g>
</g>
<!-- dir_6b5446d9575188b5a170aae88d74d865&#45;&gt;dir_b14b741173403ad069a896263b3f14b4 -->
<g id="edge12" class="edge">
<title>dir_6b5446d9575188b5a170aae88d74d865&#45;&gt;dir_b14b741173403ad069a896263b3f14b4</title>
<path fill="none" stroke="#000000" d="M236.3568,-395.9587C223.9183,-404.8747 209.2931,-415.3465 195.1362,-423 187.1289,-427.3289 178.2781,-431.2863 169.797,-434.7578"/>
<polygon fill="#000000" stroke="#000000" points="168.4506,-431.5265 160.4435,-438.4646 171.0296,-438.0341 168.4506,-431.5265"/>
<g id="a_edge12&#45;headlabel"><a xlink:href="dir_000047_000049.html" target="_top" xlink:title="3">
<text text-anchor="middle" x="170.7463" y="-425.0626" font-family="Helvetica,sans-Serif" font-size="10.00" fill="#000000">3</text>
</a>
</g>
</g>
<!-- dir_0f865acc0217e49aeb49ab1c50c8f73a -->
<g id="node8" class="node">
<title>dir_0f865acc0217e49aeb49ab1c50c8f73a</title>
<g id="a_node8"><a xlink:href="dir_0f865acc0217e49aeb49ab1c50c8f73a.html" target="_top" xlink:title="common">
<polygon fill="none" stroke="#000000" points="386.6362,-396 331.6362,-396 331.6362,-360 386.6362,-360 386.6362,-396"/>
<text text-anchor="middle" x="359.1362" y="-375.5" font-family="Helvetica,sans-Serif" font-size="10.00" fill="#000000">common</text>
</a>
</g>
</g>
<!-- dir_6b5446d9575188b5a170aae88d74d865&#45;&gt;dir_0f865acc0217e49aeb49ab1c50c8f73a -->
<g id="edge13" class="edge">
<title>dir_6b5446d9575188b5a170aae88d74d865&#45;&gt;dir_0f865acc0217e49aeb49ab1c50c8f73a</title>
<path fill="none" stroke="#000000" d="M295.9252,-378C304.4439,-378 312.9626,-378 321.4812,-378"/>
<polygon fill="#000000" stroke="#000000" points="321.4814,-381.5001 331.4814,-378 321.4813,-374.5001 321.4814,-381.5001"/>
<g id="a_edge13&#45;headlabel"><a xlink:href="dir_000047_000048.html" target="_top" xlink:title="3">
<text text-anchor="middle" x="317.8868" y="-381.8393" font-family="Helvetica,sans-Serif" font-size="10.00" fill="#000000">3</text>
</a>
</g>
</g>
<!-- dir_3f96c34ad80e9031c68706862fabf1a4 -->
<g id="node9" class="node">
<title>dir_3f96c34ad80e9031c68706862fabf1a4</title>
<g id="a_node9"><a xlink:href="dir_3f96c34ad80e9031c68706862fabf1a4.html" target="_top" xlink:title="extension">
<polygon fill="none" stroke="#000000" points="203.6362,-180 144.6362,-180 144.6362,-144 203.6362,-144 203.6362,-180"/>
<text text-anchor="middle" x="174.1362" y="-159.5" font-family="Helvetica,sans-Serif" font-size="10.00" fill="#000000">extension</text>
</a>
</g>
</g>
<!-- dir_6b5446d9575188b5a170aae88d74d865&#45;&gt;dir_3f96c34ad80e9031c68706862fabf1a4 -->
<g id="edge14" class="edge">
<title>dir_6b5446d9575188b5a170aae88d74d865&#45;&gt;dir_3f96c34ad80e9031c68706862fabf1a4</title>
<path fill="none" stroke="#000000" d="M258.4505,-359.9555C242.3506,-322.1556 204.9947,-234.4506 185.8732,-189.5564"/>
<polygon fill="#000000" stroke="#000000" points="189.0034,-187.9738 181.8646,-180.1451 182.5632,-190.7169 189.0034,-187.9738"/>
<g id="a_edge14&#45;headlabel"><a xlink:href="dir_000047_000005.html" target="_top" xlink:title="3">
<text text-anchor="middle" x="193.0241" y="-187.6683" font-family="Helvetica,sans-Serif" font-size="10.00" fill="#000000">3</text>
</a>
</g>
</g>
<!-- dir_56d603006930d6f32ca38bb932b49787 -->
<g id="node10" class="node">
<title>dir_56d603006930d6f32ca38bb932b49787</title>
<g id="a_node10"><a xlink:href="dir_56d603006930d6f32ca38bb932b49787.html" target="_top" xlink:title="layout">
<polygon fill="#ffffff" stroke="#ff0000" points="280.1362,-252 226.1362,-252 226.1362,-216 280.1362,-216 280.1362,-252"/>
<text text-anchor="middle" x="253.1362" y="-231.5" font-family="Helvetica,sans-Serif" font-size="10.00" fill="#000000">layout</text>
</a>
</g>
</g>
<!-- dir_6b5446d9575188b5a170aae88d74d865&#45;&gt;dir_56d603006930d6f32ca38bb932b49787 -->
<g id="edge15" class="edge">
<title>dir_6b5446d9575188b5a170aae88d74d865&#45;&gt;dir_56d603006930d6f32ca38bb932b49787</title>
<path fill="none" stroke="#000000" d="M264.4897,-359.7623C262.2724,-335.201 258.3043,-291.2474 255.6959,-262.3541"/>
<polygon fill="#000000" stroke="#000000" points="259.1543,-261.7344 254.7693,-252.0896 252.1826,-262.3638 259.1543,-261.7344"/>
<g id="a_edge15&#45;headlabel"><a xlink:href="dir_000047_000009.html" target="_top" xlink:title="4">
<text text-anchor="middle" x="262.3052" y="-262.5592" font-family="Helvetica,sans-Serif" font-size="10.00" fill="#000000">4</text>
</a>
</g>
</g>
<!-- dir_fd1e11fb0964f7346e999e146b0dfd59&#45;&gt;dir_c541d4b187fc5f863b4735b323978e0f -->
<g id="edge1" class="edge">
<title>dir_fd1e11fb0964f7346e999e146b0dfd59&#45;&gt;dir_c541d4b187fc5f863b4735b323978e0f</title>
<path fill="none" stroke="#000000" d="M182.3149,-71.8314C188.0143,-63.454 195.6808,-53.3531 203.2565,-44.1749"/>
<polygon fill="#000000" stroke="#000000" points="206.0402,-46.3038 209.8387,-36.4133 200.7015,-41.7763 206.0402,-46.3038"/>
<g id="a_edge1&#45;headlabel"><a xlink:href="dir_000015_000011.html" target="_top" xlink:title="2">
<text text-anchor="middle" x="205.8808" y="-48.3817" font-family="Helvetica,sans-Serif" font-size="10.00" fill="#000000">2</text>
</a>
</g>
</g>
<!-- dir_c541d4b187fc5f863b4735b323978e0f&#45;&gt;dir_fd1e11fb0964f7346e999e146b0dfd59 -->
<g id="edge2" class="edge">
<title>dir_c541d4b187fc5f863b4735b323978e0f&#45;&gt;dir_fd1e11fb0964f7346e999e146b0dfd59</title>
<path fill="none" stroke="#000000" d="M221.7907,-36.4133C216.0534,-44.8239 208.3688,-54.9323 200.7951,-64.0923"/>
<polygon fill="#000000" stroke="#000000" points="198.0274,-61.9444 194.2197,-71.8314 203.3619,-66.4768 198.0274,-61.9444"/>
<g id="a_edge2&#45;headlabel"><a xlink:href="dir_000011_000015.html" target="_top" xlink:title="4">
<text text-anchor="middle" x="198.1911" y="-54.8666" font-family="Helvetica,sans-Serif" font-size="10.00" fill="#000000">4</text>
</a>
</g>
</g>
<!-- dir_b1a5b7ba9091facbdf32a321b74a0f11&#45;&gt;dir_0f865acc0217e49aeb49ab1c50c8f73a -->
<g id="edge3" class="edge">
<title>dir_b1a5b7ba9091facbdf32a321b74a0f11&#45;&gt;dir_0f865acc0217e49aeb49ab1c50c8f73a</title>
<path fill="none" stroke="#000000" d="M440.8321,-252.1579C441.7645,-271.2813 440.7556,-301.6595 428.1362,-324 420.4163,-337.6668 407.7093,-349.0894 395.2899,-357.8567"/>
<polygon fill="#000000" stroke="#000000" points="393.194,-355.0471 386.8026,-363.497 397.0685,-360.8771 393.194,-355.0471"/>
<g id="a_edge3&#45;headlabel"><a xlink:href="dir_000046_000048.html" target="_top" xlink:title="1">
<text text-anchor="middle" x="394.6163" y="-348.1928" font-family="Helvetica,sans-Serif" font-size="10.00" fill="#000000">1</text>
</a>
</g>
</g>
<!-- dir_d3b86ce335ad818909ececff0fac1eca&#45;&gt;dir_fd1e11fb0964f7346e999e146b0dfd59 -->
<g id="edge4" class="edge">
<title>dir_d3b86ce335ad818909ececff0fac1eca&#45;&gt;dir_fd1e11fb0964f7346e999e146b0dfd59</title>
<path fill="none" stroke="#000000" d="M66.3778,-215.9852C72.6248,-196.7067 84.4876,-165.9418 102.1362,-144 112.0822,-131.6345 125.4688,-120.5812 138.0006,-111.7453"/>
<polygon fill="#000000" stroke="#000000" points="140.1729,-114.5011 146.4871,-105.9934 136.2456,-108.7066 140.1729,-114.5011"/>
<g id="a_edge4&#45;headlabel"><a xlink:href="dir_000023_000015.html" target="_top" xlink:title="3">
<text text-anchor="middle" x="138.7903" y="-116.3681" font-family="Helvetica,sans-Serif" font-size="10.00" fill="#000000">3</text>
</a>
</g>
</g>
<!-- dir_d3b86ce335ad818909ececff0fac1eca&#45;&gt;dir_c541d4b187fc5f863b4735b323978e0f -->
<g id="edge5" class="edge">
<title>dir_d3b86ce335ad818909ececff0fac1eca&#45;&gt;dir_c541d4b187fc5f863b4735b323978e0f</title>
<path fill="none" stroke="#000000" d="M61.6382,-215.937C62.7668,-197.16 66.2941,-167.3114 77.1362,-144 94.7027,-106.2306 105.3054,-98.8685 137.1362,-72 154.2666,-57.5401 175.7864,-44.7651 193.8096,-35.2755"/>
<polygon fill="#000000" stroke="#000000" points="195.5772,-38.3025 202.8742,-30.621 192.3796,-32.0754 195.5772,-38.3025"/>
<g id="a_edge5&#45;headlabel"><a xlink:href="dir_000023_000011.html" target="_top" xlink:title="9">
<text text-anchor="middle" x="193.6764" y="-39.9701" font-family="Helvetica,sans-Serif" font-size="10.00" fill="#000000">9</text>
</a>
</g>
</g>
<!-- dir_d3b86ce335ad818909ececff0fac1eca&#45;&gt;dir_3f96c34ad80e9031c68706862fabf1a4 -->
<g id="edge6" class="edge">
<title>dir_d3b86ce335ad818909ececff0fac1eca&#45;&gt;dir_3f96c34ad80e9031c68706862fabf1a4</title>
<path fill="none" stroke="#000000" d="M89.6508,-215.8314C103.9704,-206.7074 121.4985,-195.539 136.8699,-185.7449"/>
<polygon fill="#000000" stroke="#000000" points="139.0778,-188.4882 145.6306,-180.1628 135.3163,-182.5847 139.0778,-188.4882"/>
<g id="a_edge6&#45;headlabel"><a xlink:href="dir_000023_000005.html" target="_top" xlink:title="5">
<text text-anchor="middle" x="137.572" y="-190.3143" font-family="Helvetica,sans-Serif" font-size="10.00" fill="#000000">5</text>
</a>
</g>
</g>
<!-- dir_224c4a10832b4053571db2c932d86b0d&#45;&gt;dir_6b5446d9575188b5a170aae88d74d865 -->
<g id="edge19" class="edge">
<title>dir_224c4a10832b4053571db2c932d86b0d&#45;&gt;dir_6b5446d9575188b5a170aae88d74d865</title>
<path fill="none" stroke="#000000" d="M341.6277,-324.1628C330.9368,-333.1154 316.9862,-344.0374 303.9487,-353.6982"/>
<polygon fill="#000000" stroke="#000000" points="301.565,-351.1051 295.5564,-359.8314 305.6953,-356.7568 301.565,-351.1051"/>
<g id="a_edge19&#45;headlabel"><a xlink:href="dir_000014_000047.html" target="_top" xlink:title="21">
<text text-anchor="middle" x="302.792" y="-344.1919" font-family="Helvetica,sans-Serif" font-size="10.00" fill="#000000">21</text>
</a>
</g>
</g>
<!-- dir_224c4a10832b4053571db2c932d86b0d&#45;&gt;dir_fd1e11fb0964f7346e999e146b0dfd59 -->
<g id="edge16" class="edge">
<title>dir_224c4a10832b4053571db2c932d86b0d&#45;&gt;dir_fd1e11fb0964f7346e999e146b0dfd59</title>
<path fill="none" stroke="#000000" d="M346.6317,-287.6548C325.1803,-256.7014 279.3,-192.7155 234.1362,-144 224.8138,-133.9445 213.8528,-123.6872 203.8675,-114.8513"/>
<polygon fill="#000000" stroke="#000000" points="205.9578,-112.0305 196.1186,-108.1008 201.3597,-117.3085 205.9578,-112.0305"/>
<g id="a_edge16&#45;headlabel"><a xlink:href="dir_000014_000015.html" target="_top" xlink:title="36">
<text text-anchor="middle" x="210.5332" y="-109.7508" font-family="Helvetica,sans-Serif" font-size="10.00" fill="#000000">36</text>
</a>
</g>
</g>
<!-- dir_224c4a10832b4053571db2c932d86b0d&#45;&gt;dir_c541d4b187fc5f863b4735b323978e0f -->
<g id="edge17" class="edge">
<title>dir_224c4a10832b4053571db2c932d86b0d&#45;&gt;dir_c541d4b187fc5f863b4735b323978e0f</title>
<path fill="none" stroke="#000000" d="M365.4319,-287.9569C378.8663,-245.9628 405.5812,-140.0869 360.1362,-72 339.5968,-41.2274 297.8885,-27.966 267.2306,-22.2664"/>
<polygon fill="#000000" stroke="#000000" points="267.7436,-18.8036 257.3037,-20.609 266.5908,-25.7081 267.7436,-18.8036"/>
<g id="a_edge17&#45;headlabel"><a xlink:href="dir_000014_000011.html" target="_top" xlink:title="11">
<text text-anchor="middle" x="271.7567" y="-14.095" font-family="Helvetica,sans-Serif" font-size="10.00" fill="#000000">11</text>
</a>
</g>
</g>
<!-- dir_224c4a10832b4053571db2c932d86b0d&#45;&gt;dir_b1a5b7ba9091facbdf32a321b74a0f11 -->
<g id="edge18" class="edge">
<title>dir_224c4a10832b4053571db2c932d86b0d&#45;&gt;dir_b1a5b7ba9091facbdf32a321b74a0f11</title>
<path fill="none" stroke="#000000" d="M379.3235,-287.8314C388.9876,-279.1337 400.7158,-268.5783 411.2178,-259.1265"/>
<polygon fill="#000000" stroke="#000000" points="413.8637,-261.454 418.9553,-252.1628 409.1809,-256.251 413.8637,-261.454"/>
<g id="a_edge18&#45;headlabel"><a xlink:href="dir_000014_000046.html" target="_top" xlink:title="35">
<text text-anchor="middle" x="413.0912" y="-263.4691" font-family="Helvetica,sans-Serif" font-size="10.00" fill="#000000">35</text>
</a>
</g>
</g>
<!-- dir_224c4a10832b4053571db2c932d86b0d&#45;&gt;dir_0f865acc0217e49aeb49ab1c50c8f73a -->
<g id="edge20" class="edge">
<title>dir_224c4a10832b4053571db2c932d86b0d&#45;&gt;dir_0f865acc0217e49aeb49ab1c50c8f73a</title>
<path fill="none" stroke="#000000" d="M365.1122,-324.4133C365.8433,-332.0593 366.0564,-341.1084 365.7516,-349.5726"/>
<polygon fill="#000000" stroke="#000000" points="362.241,-349.6264 365.0886,-359.8314 369.2264,-350.078 362.241,-349.6264"/>
<g id="a_edge20&#45;headlabel"><a xlink:href="dir_000014_000048.html" target="_top" xlink:title="36">
<text text-anchor="middle" x="359.6394" y="-343.3562" font-family="Helvetica,sans-Serif" font-size="10.00" fill="#000000">36</text>
</a>
</g>
</g>
<!-- dir_224c4a10832b4053571db2c932d86b0d&#45;&gt;dir_56d603006930d6f32ca38bb932b49787 -->
<g id="edge21" class="edge">
<title>dir_224c4a10832b4053571db2c932d86b0d&#45;&gt;dir_56d603006930d6f32ca38bb932b49787</title>
<path fill="none" stroke="#000000" d="M332.3879,-287.8314C319.0809,-278.7927 302.8201,-267.7476 288.4987,-258.0198"/>
<polygon fill="#000000" stroke="#000000" points="290.1147,-254.8864 279.8759,-252.1628 286.1815,-260.677 290.1147,-254.8864"/>
<g id="a_edge21&#45;headlabel"><a xlink:href="dir_000014_000009.html" target="_top" xlink:title="41">
<text text-anchor="middle" x="294.6835" y="-252.0575" font-family="Helvetica,sans-Serif" font-size="10.00" fill="#000000">41</text>
</a>
</g>
</g>
<!-- dir_b14b741173403ad069a896263b3f14b4&#45;&gt;dir_6b5446d9575188b5a170aae88d74d865 -->
<g id="edge24" class="edge">
<title>dir_b14b741173403ad069a896263b3f14b4&#45;&gt;dir_6b5446d9575188b5a170aae88d74d865</title>
<path fill="none" stroke="#000000" d="M160.1592,-444.1044C176.3371,-439.3422 196.547,-431.9685 213.1362,-423 223.8855,-417.1887 234.9048,-409.7526 244.1998,-402.6064"/>
<polygon fill="#000000" stroke="#000000" points="246.5929,-405.1734 252.194,-396.1801 242.2072,-399.7176 246.5929,-405.1734"/>
<g id="a_edge24&#45;headlabel"><a xlink:href="dir_000049_000047.html" target="_top" xlink:title="2">
<text text-anchor="middle" x="245.5702" y="-407.1384" font-family="Helvetica,sans-Serif" font-size="10.00" fill="#000000">2</text>
</a>
</g>
</g>
<!-- dir_b14b741173403ad069a896263b3f14b4&#45;&gt;dir_fd1e11fb0964f7346e999e146b0dfd59 -->
<g id="edge22" class="edge">
<title>dir_b14b741173403ad069a896263b3f14b4&#45;&gt;dir_fd1e11fb0964f7346e999e146b0dfd59</title>
<path fill="none" stroke="#000000" d="M106.0218,-445.3423C81.2272,-440.5697 46.9617,-432.5149 37.1362,-423 -2.0425,-385.0599 .1362,-360.5382 .1362,-306 .1362,-306 .1362,-306 .1362,-234 .1362,-163.4564 86.0686,-120.946 137.1546,-101.9069"/>
<polygon fill="#000000" stroke="#000000" points="138.3433,-105.1989 146.5654,-98.517 135.9709,-98.6132 138.3433,-105.1989"/>
<g id="a_edge22&#45;headlabel"><a xlink:href="dir_000049_000015.html" target="_top" xlink:title="2">
<text text-anchor="middle" x="135.9236" y="-106.5883" font-family="Helvetica,sans-Serif" font-size="10.00" fill="#000000">2</text>
</a>
</g>
</g>
<!-- dir_b14b741173403ad069a896263b3f14b4&#45;&gt;dir_d3b86ce335ad818909ececff0fac1eca -->
<g id="edge23" class="edge">
<title>dir_b14b741173403ad069a896263b3f14b4&#45;&gt;dir_d3b86ce335ad818909ececff0fac1eca</title>
<path fill="none" stroke="#000000" d="M105.8541,-443.0654C88.1378,-437.9495 67.3968,-430.5857 62.1362,-423 28.664,-374.7342 41.5127,-301.5591 52.2695,-261.9081"/>
<polygon fill="#000000" stroke="#000000" points="55.6832,-262.7001 55.0685,-252.1231 48.9532,-260.7749 55.6832,-262.7001"/>
<g id="a_edge23&#45;headlabel"><a xlink:href="dir_000049_000023.html" target="_top" xlink:title="6">
<text text-anchor="middle" x="57.4245" y="-264.4369" font-family="Helvetica,sans-Serif" font-size="10.00" fill="#000000">6</text>
</a>
</g>
</g>
<!-- dir_b14b741173403ad069a896263b3f14b4&#45;&gt;dir_0f865acc0217e49aeb49ab1c50c8f73a -->
<g id="edge25" class="edge">
<title>dir_b14b741173403ad069a896263b3f14b4&#45;&gt;dir_0f865acc0217e49aeb49ab1c50c8f73a</title>
<path fill="none" stroke="#000000" d="M160.4542,-447.6729C202.8933,-443.7433 282.4546,-435.0286 308.1362,-423 318.2413,-418.267 327.8356,-410.8964 335.9191,-403.4804"/>
<polygon fill="#000000" stroke="#000000" points="338.7329,-405.6261 343.462,-396.1452 333.8527,-400.6077 338.7329,-405.6261"/>
<g id="a_edge25&#45;headlabel"><a xlink:href="dir_000049_000048.html" target="_top" xlink:title="3">
<text text-anchor="middle" x="338.1353" y="-407.6676" font-family="Helvetica,sans-Serif" font-size="10.00" fill="#000000">3</text>
</a>
</g>
</g>
<!-- dir_b14b741173403ad069a896263b3f14b4&#45;&gt;dir_3f96c34ad80e9031c68706862fabf1a4 -->
<g id="edge26" class="edge">
<title>dir_b14b741173403ad069a896263b3f14b4&#45;&gt;dir_3f96c34ad80e9031c68706862fabf1a4</title>
<path fill="none" stroke="#000000" d="M135.1879,-431.917C137.4589,-412.2358 141.3066,-379.8491 145.1362,-352 153.059,-294.3832 163.6362,-227.1489 169.5808,-190.1009"/>
<polygon fill="#000000" stroke="#000000" points="173.0649,-190.4795 171.1988,-180.0503 166.1538,-189.3669 173.0649,-190.4795"/>
<g id="a_edge26&#45;headlabel"><a xlink:href="dir_000049_000005.html" target="_top" xlink:title="2">
<text text-anchor="middle" x="175.2968" y="-191.9797" font-family="Helvetica,sans-Serif" font-size="10.00" fill="#000000">2</text>
</a>
</g>
</g>
<!-- dir_b14b741173403ad069a896263b3f14b4&#45;&gt;dir_56d603006930d6f32ca38bb932b49787 -->
<g id="edge27" class="edge">
<title>dir_b14b741173403ad069a896263b3f14b4&#45;&gt;dir_56d603006930d6f32ca38bb932b49787</title>
<path fill="none" stroke="#000000" d="M143.1609,-431.9555C164.2491,-393.9967 213.2958,-305.7127 238.1402,-260.9928"/>
<polygon fill="#000000" stroke="#000000" points="241.2587,-262.5864 243.0556,-252.1451 235.1395,-259.1869 241.2587,-262.5864"/>
<g id="a_edge27&#45;headlabel"><a xlink:href="dir_000049_000009.html" target="_top" xlink:title="2">
<text text-anchor="middle" x="241.995" y="-264.6075" font-family="Helvetica,sans-Serif" font-size="10.00" fill="#000000">2</text>
</a>
</g>
</g>
<!-- dir_0f865acc0217e49aeb49ab1c50c8f73a&#45;&gt;dir_6b5446d9575188b5a170aae88d74d865 -->
<g id="edge28" class="edge">
<title>dir_0f865acc0217e49aeb49ab1c50c8f73a&#45;&gt;dir_6b5446d9575188b5a170aae88d74d865</title>
<path fill="none" stroke="#000000" d="M331.4814,-378C322.9627,-378 314.4441,-378 305.9254,-378"/>
<polygon fill="#000000" stroke="#000000" points="305.9253,-374.5001 295.9252,-378 305.9252,-381.5001 305.9253,-374.5001"/>
<g id="a_edge28&#45;headlabel"><a xlink:href="dir_000048_000047.html" target="_top" xlink:title="5">
<text text-anchor="middle" x="309.5198" y="-369.1607" font-family="Helvetica,sans-Serif" font-size="10.00" fill="#000000">5</text>
</a>
</g>
</g>
<!-- dir_0f865acc0217e49aeb49ab1c50c8f73a&#45;&gt;dir_224c4a10832b4053571db2c932d86b0d -->
<g id="edge29" class="edge">
<title>dir_0f865acc0217e49aeb49ab1c50c8f73a&#45;&gt;dir_224c4a10832b4053571db2c932d86b0d</title>
<path fill="none" stroke="#000000" d="M353.1838,-359.8314C352.4333,-352.131 352.2125,-342.9743 352.5211,-334.4166"/>
<polygon fill="#000000" stroke="#000000" points="356.0154,-334.6161 353.1602,-324.4133 349.0296,-334.1697 356.0154,-334.6161"/>
<g id="a_edge29&#45;headlabel"><a xlink:href="dir_000048_000014.html" target="_top" xlink:title="34">
<text text-anchor="middle" x="358.6198" y="-335.8844" font-family="Helvetica,sans-Serif" font-size="10.00" fill="#000000">34</text>
</a>
</g>
</g>
<!-- dir_3f96c34ad80e9031c68706862fabf1a4&#45;&gt;dir_fd1e11fb0964f7346e999e146b0dfd59 -->
<g id="edge30" class="edge">
<title>dir_3f96c34ad80e9031c68706862fabf1a4&#45;&gt;dir_fd1e11fb0964f7346e999e146b0dfd59</title>
<path fill="none" stroke="#000000" d="M174.1362,-143.8314C174.1362,-136.131 174.1362,-126.9743 174.1362,-118.4166"/>
<polygon fill="#000000" stroke="#000000" points="177.6363,-118.4132 174.1362,-108.4133 170.6363,-118.4133 177.6363,-118.4132"/>
<g id="a_edge30&#45;headlabel"><a xlink:href="dir_000005_000015.html" target="_top" xlink:title="8">
<text text-anchor="middle" x="180.4754" y="-119.5079" font-family="Helvetica,sans-Serif" font-size="10.00" fill="#000000">8</text>
</a>
</g>
</g>
<!-- dir_3f96c34ad80e9031c68706862fabf1a4&#45;&gt;dir_c541d4b187fc5f863b4735b323978e0f -->
<g id="edge31" class="edge">
<title>dir_3f96c34ad80e9031c68706862fabf1a4&#45;&gt;dir_c541d4b187fc5f863b4735b323978e0f</title>
<path fill="none" stroke="#000000" d="M188.6058,-143.9844C196.0349,-133.9214 204.6525,-120.8504 210.1362,-108 218.5912,-88.1866 223.6839,-64.3311 226.6128,-46.1598"/>
<polygon fill="#000000" stroke="#000000" points="230.0861,-46.5974 228.0963,-36.1912 223.1623,-45.567 230.0861,-46.5974"/>
<g id="a_edge31&#45;headlabel"><a xlink:href="dir_000005_000011.html" target="_top" xlink:title="3">
<text text-anchor="middle" x="232.3654" y="-48.0708" font-family="Helvetica,sans-Serif" font-size="10.00" fill="#000000">3</text>
</a>
</g>
</g>
<!-- dir_56d603006930d6f32ca38bb932b49787&#45;&gt;dir_fd1e11fb0964f7346e999e146b0dfd59 -->
<g id="edge32" class="edge">
<title>dir_56d603006930d6f32ca38bb932b49787&#45;&gt;dir_fd1e11fb0964f7346e999e146b0dfd59</title>
<path fill="none" stroke="#000000" d="M246.0662,-215.9258C238.553,-197.3985 225.8798,-167.9851 212.1362,-144 206.8358,-134.7498 200.3714,-125.0939 194.2884,-116.5479"/>
<polygon fill="#000000" stroke="#000000" points="197.0987,-114.4614 188.3896,-108.4279 191.4353,-118.5755 197.0987,-114.4614"/>
<g id="a_edge32&#45;headlabel"><a xlink:href="dir_000009_000015.html" target="_top" xlink:title="21">
<text text-anchor="middle" x="201.5085" y="-113.2008" font-family="Helvetica,sans-Serif" font-size="10.00" fill="#000000">21</text>
</a>
</g>
</g>
<!-- dir_56d603006930d6f32ca38bb932b49787&#45;&gt;dir_c541d4b187fc5f863b4735b323978e0f -->
<g id="edge33" class="edge">
<title>dir_56d603006930d6f32ca38bb932b49787&#45;&gt;dir_c541d4b187fc5f863b4735b323978e0f</title>
<path fill="none" stroke="#000000" d="M251.2148,-215.9555C247.2067,-178.3144 237.9292,-91.1867 233.1309,-46.1246"/>
<polygon fill="#000000" stroke="#000000" points="236.6075,-45.7182 232.0683,-36.1451 229.6469,-46.4595 236.6075,-45.7182"/>
<g id="a_edge33&#45;headlabel"><a xlink:href="dir_000009_000011.html" target="_top" xlink:title="15">
<text text-anchor="middle" x="239.8114" y="-46.492" font-family="Helvetica,sans-Serif" font-size="10.00" fill="#000000">15</text>
</a>
</g>
</g>
<!-- dir_56d603006930d6f32ca38bb932b49787&#45;&gt;dir_3f96c34ad80e9031c68706862fabf1a4 -->
<g id="edge34" class="edge">
<title>dir_56d603006930d6f32ca38bb932b49787&#45;&gt;dir_3f96c34ad80e9031c68706862fabf1a4</title>
<path fill="none" stroke="#000000" d="M233.2011,-215.8314C223.6579,-207.1337 212.0763,-196.5783 201.7056,-187.1265"/>
<polygon fill="#000000" stroke="#000000" points="203.8134,-184.3121 194.0648,-180.1628 199.0982,-189.4857 203.8134,-184.3121"/>
<g id="a_edge34&#45;headlabel"><a xlink:href="dir_000009_000005.html" target="_top" xlink:title="8">
<text text-anchor="middle" x="208.3827" y="-182.1349" font-family="Helvetica,sans-Serif" font-size="10.00" fill="#000000">8</text>
</a>
</g>
</g>
</g>
</svg>
        <g id="navigator" transform="translate(0 0)" fill="#404254">
                <rect fill="#f2f5e9" fill-opacity="0.5" stroke="#606060" stroke-width=".5" x="0" y="0" width="60" height="60"/>
                <use id="zoomplus" xlink:href="#zoomPlus" x="17" y="9" onmousedown="handleZoom(evt,'in')"/>
                <use id="zoomminus" xlink:href="#zoomMin" x="42" y="9" onmousedown="handleZoom(evt,'out')"/>
                <use id="reset" xlink:href="#resetDef" x="30" y="36" onmousedown="handleReset()"/>
                <g id="arrowUp" xlink:href="#dirArrow" transform="translate(30 24)" onmousedown="handlePan(0,-1)">
                  <use xlink:href="#rim" fill="#404040">
                        <set attributeName="fill" to="#808080" begin="arrowUp.mouseover" end="arrowUp.mouseout"/>
                  </use>
                  <path fill="none" stroke="white" stroke-width="1.5" d="M0,-3.0v7 M-2.5,-0.5L0,-3.0L2.5,-0.5"/>
                </g>
                <g id="arrowRight" xlink:href="#dirArrow" transform="rotate(90) translate(36 -43)" onmousedown="handlePan(1,0)">
                  <use xlink:href="#rim" fill="#404040">
                        <set attributeName="fill" to="#808080" begin="arrowRight.mouseover" end="arrowRight.mouseout"/>
                  </use>
                  <path fill="none" stroke="white" stroke-width="1.5" d="M0,-3.0v7 M-2.5,-0.5L0,-3.0L2.5,-0.5"/>
                </g>
                <g id="arrowDown" xlink:href="#dirArrow" transform="rotate(180) translate(-30 -48)" onmousedown="handlePan(0,1)">
                  <use xlink:href="#rim" fill="#404040">
                        <set attributeName="fill" to="#808080" begin="arrowDown.mouseover" end="arrowDown.mouseout"/>
                  </use>
                  <path fill="none" stroke="white" stroke-width="1.5" d="M0,-3.0v7 M-2.5,-0.5L0,-3.0L2.5,-0.5"/>
                </g>
                <g id="arrowLeft" xlink:href="#dirArrow" transform="rotate(270) translate(-36 17)" onmousedown="handlePan(-1,0)">
                  <use xlink:href="#rim" fill="#404040">
                        <set attributeName="fill" to="#808080" begin="arrowLeft.mouseover" end="arrowLeft.mouseout"/>
                  </use>
                  <path fill="none" stroke="white" stroke-width="1.5" d="M0,-3.0v7 M-2.5,-0.5L0,-3.0L2.5,-0.5"/>
                </g>
        </g>
        <svg viewBox="0 0 15 15" width="100%" height="30px" preserveAspectRatio="xMaxYMin meet">
         <g id="arrow_out" transform="scale(0.3 0.3)">
          <a xlink:href="dir_6b5446d9575188b5a170aae88d74d865_dep_org.svg" target="_base">
           <rect id="button" ry="5" rx="5" y="6" x="6" height="38" width="38"
                fill="#f2f5e9" fill-opacity="0.5" stroke="#606060" stroke-width="1.0"/>
           <path id="arrow"
             d="M 11.500037,31.436501 C 11.940474,20.09759 22.043105,11.32322 32.158766,21.979434 L 37.068811,17.246167 C 37.068811,17.246167 37.088388,32 37.088388,32 L 22.160133,31.978069 C 22.160133,31.978069 26.997745,27.140456 26.997745,27.140456 C 18.528582,18.264221 13.291696,25.230495 11.500037,31.436501 z"
             style="fill:#404040;"/>
          </a>
         </g>
        </svg>
</svg>
