<?xml version="1.0" encoding="UTF-8" standalone="no"?>
<!DOCTYPE svg PUBLIC "-//W3C//DTD SVG 1.1//EN"
 "http://www.w3.org/Graphics/SVG/1.1/DTD/svg11.dtd">
<!-- Generated by graphviz version 2.40.1 (20161225.0304)
 -->
<!-- Title: render Pages: 1 -->
<!--zoomable 663 -->
<svg id="main" version="1.1" xmlns="http://www.w3.org/2000/svg" xmlns:xlink="http://www.w3.org/1999/xlink" xml:space="preserve" onload="init(evt)">
<style type="text/css"><![CDATA[
.edge:hover path { stroke: red; }
.edge:hover polygon { stroke: red; fill: red; }
]]></style>
<script type="text/javascript"><![CDATA[
var edges = document.getElementsByTagName('g');
if (edges && edges.length) {
  for (var i=0;i<edges.length;i++) {
    if (edges[i].id.substr(0,4)=='edge') {
      edges[i].setAttribute('class','edge');
    }
  }
}
]]></script>
        <defs>
                <circle id="rim" cx="0" cy="0" r="7"/>
                <circle id="rim2" cx="0" cy="0" r="3.5"/>
                <g id="zoomPlus">
                        <use xlink:href="#rim" fill="#404040">
                                <set attributeName="fill" to="#808080" begin="zoomplus.mouseover" end="zoomplus.mouseout"/>
                        </use>
                        <path d="M-4,0h8M0,-4v8" fill="none" stroke="white" stroke-width="1.5" pointer-events="none"/>
                </g>
                <g id="zoomMin">
                        <use xlink:href="#rim" fill="#404040">
                                <set attributeName="fill" to="#808080" begin="zoomminus.mouseover" end="zoomminus.mouseout"/>
                        </use>
                        <path d="M-4,0h8" fill="none" stroke="white" stroke-width="1.5" pointer-events="none"/>
                </g>
                <g id="dirArrow">
                        <path fill="none" stroke="white" stroke-width="1.5" d="M0,-3.0v7 M-2.5,-0.5L0,-3.0L2.5,-0.5"/>
                </g>
               <g id="resetDef">
                       <use xlink:href="#rim2" fill="#404040">
                               <set attributeName="fill" to="#808080" begin="reset.mouseover" end="reset.mouseout"/>
                       </use>
               </g>
        </defs>

<script type="text/javascript">
var viewWidth = 619;
var viewHeight = 663;
var sectionId = 'dynsection-0';
</script>
<script xlink:href="svgpan.js"/>
<svg id="graph" class="graph">
<g id="viewport">
<title>render</title>
<polygon fill="#ffffff" stroke="transparent" points="-4,4 -4,-659 615.4308,-659 615.4308,4 -4,4"/>
<g id="clust1" class="cluster">
<title>clusterdir_d29d847ea07fb74c2c88b7147de27d35</title>
<g id="a_clust1"><a xlink:href="dir_d29d847ea07fb74c2c88b7147de27d35.html" target="_top" xlink:title="packages">
<polygon fill="#ddddee" stroke="#000000" points="135.4308,-344 135.4308,-647 333.4308,-647 333.4308,-344 135.4308,-344"/>
<text text-anchor="middle" x="234.4308" y="-635" font-family="Helvetica,sans-Serif" font-size="10.00" fill="#000000">packages</text>
</a>
</g>
</g>
<g id="clust2" class="cluster">
<title>clusterdir_8c25a664b4b6cfdfb5234e8b61efda61</title>
<g id="a_clust2"><a xlink:href="dir_8c25a664b4b6cfdfb5234e8b61efda61.html" target="_top">
<polygon fill="#eeeeff" stroke="#000000" points="143.4308,-352 143.4308,-620 325.4308,-620 325.4308,-352 143.4308,-352"/>
</a>
</g>
</g>
<!-- dir_8c25a664b4b6cfdfb5234e8b61efda61 -->
<g id="node1" class="node">
<title>dir_8c25a664b4b6cfdfb5234e8b61efda61</title>
<text text-anchor="middle" x="288.4308" y="-591.5" font-family="Helvetica,sans-Serif" font-size="10.00" fill="#000000">render</text>
</g>
<!-- dir_0f865acc0217e49aeb49ab1c50c8f73a -->
<g id="node2" class="node">
<title>dir_0f865acc0217e49aeb49ab1c50c8f73a</title>
<g id="a_node2"><a xlink:href="dir_0f865acc0217e49aeb49ab1c50c8f73a.html" target="_top" xlink:title="common">
<polygon fill="#ffffff" stroke="#000000" points="234.9308,-612 179.9308,-612 179.9308,-576 234.9308,-576 234.9308,-612"/>
<text text-anchor="middle" x="207.4308" y="-591.5" font-family="Helvetica,sans-Serif" font-size="10.00" fill="#000000">common</text>
</a>
</g>
</g>
<!-- dir_6b5446d9575188b5a170aae88d74d865 -->
<g id="node3" class="node">
<title>dir_6b5446d9575188b5a170aae88d74d865</title>
<g id="a_node3"><a xlink:href="dir_6b5446d9575188b5a170aae88d74d865.html" target="_top" xlink:title="extension">
<polygon fill="#ffffff" stroke="#000000" points="281.9308,-540 222.9308,-540 222.9308,-504 281.9308,-504 281.9308,-540"/>
<text text-anchor="middle" x="252.4308" y="-519.5" font-family="Helvetica,sans-Serif" font-size="10.00" fill="#000000">extension</text>
</a>
</g>
</g>
<!-- dir_0f865acc0217e49aeb49ab1c50c8f73a&#45;&gt;dir_6b5446d9575188b5a170aae88d74d865 -->
<g id="edge32" class="edge">
<title>dir_0f865acc0217e49aeb49ab1c50c8f73a&#45;&gt;dir_6b5446d9575188b5a170aae88d74d865</title>
<path fill="none" stroke="#000000" d="M212.8339,-575.8314C217.164,-567.6232 223.13,-557.7606 229.176,-548.7323"/>
<polygon fill="#000000" stroke="#000000" points="232.1228,-550.6249 234.9465,-540.4133 226.3711,-546.6352 232.1228,-550.6249"/>
<g id="a_edge32&#45;headlabel"><a xlink:href="dir_000048_000047.html" target="_top" xlink:title="5">
<text text-anchor="middle" x="232.407" y="-552.6967" font-family="Helvetica,sans-Serif" font-size="10.00" fill="#000000">5</text>
</a>
</g>
</g>
<!-- dir_224c4a10832b4053571db2c932d86b0d -->
<g id="node4" class="node">
<title>dir_224c4a10832b4053571db2c932d86b0d</title>
<g id="a_node4"><a xlink:href="dir_224c4a10832b4053571db2c932d86b0d.html" target="_top" xlink:title="sbml">
<polygon fill="#ffffff" stroke="#000000" points="205.4308,-468 151.4308,-468 151.4308,-432 205.4308,-432 205.4308,-468"/>
<text text-anchor="middle" x="178.4308" y="-447.5" font-family="Helvetica,sans-Serif" font-size="10.00" fill="#000000">sbml</text>
</a>
</g>
</g>
<!-- dir_0f865acc0217e49aeb49ab1c50c8f73a&#45;&gt;dir_224c4a10832b4053571db2c932d86b0d -->
<g id="edge33" class="edge">
<title>dir_0f865acc0217e49aeb49ab1c50c8f73a&#45;&gt;dir_224c4a10832b4053571db2c932d86b0d</title>
<path fill="none" stroke="#000000" d="M199.0848,-575.7623C191.6786,-551.201 182.5521,-507.2474 178.6436,-478.3541"/>
<polygon fill="#000000" stroke="#000000" points="182.0788,-477.603 177.4156,-468.0896 175.1284,-478.4346 182.0788,-477.603"/>
<g id="a_edge33&#45;headlabel"><a xlink:href="dir_000048_000014.html" target="_top" xlink:title="34">
<text text-anchor="middle" x="185.3249" y="-478.3349" font-family="Helvetica,sans-Serif" font-size="10.00" fill="#000000">34</text>
</a>
</g>
</g>
<!-- dir_6b5446d9575188b5a170aae88d74d865&#45;&gt;dir_0f865acc0217e49aeb49ab1c50c8f73a -->
<g id="edge15" class="edge">
<title>dir_6b5446d9575188b5a170aae88d74d865&#45;&gt;dir_0f865acc0217e49aeb49ab1c50c8f73a</title>
<path fill="none" stroke="#000000" d="M246.8986,-540.4133C242.5361,-548.654 236.5533,-558.5245 230.5058,-567.536"/>
<polygon fill="#000000" stroke="#000000" points="227.5732,-565.6227 224.7386,-575.8314 233.3207,-569.6186 227.5732,-565.6227"/>
<g id="a_edge15&#45;headlabel"><a xlink:href="dir_000047_000048.html" target="_top" xlink:title="3">
<text text-anchor="middle" x="227.2939" y="-558.5506" font-family="Helvetica,sans-Serif" font-size="10.00" fill="#000000">3</text>
</a>
</g>
</g>
<!-- dir_6b5446d9575188b5a170aae88d74d865&#45;&gt;dir_224c4a10832b4053571db2c932d86b0d -->
<g id="edge13" class="edge">
<title>dir_6b5446d9575188b5a170aae88d74d865&#45;&gt;dir_224c4a10832b4053571db2c932d86b0d</title>
<path fill="none" stroke="#000000" d="M227.8051,-503.8314C218.2834,-495.3694 207.5939,-485.1489 198.5393,-475.8971"/>
<polygon fill="#000000" stroke="#000000" points="200.8215,-473.2196 191.3796,-468.4133 195.7635,-478.0586 200.8215,-473.2196"/>
<g id="a_edge13&#45;headlabel"><a xlink:href="dir_000047_000014.html" target="_top" xlink:title="2">
<text text-anchor="middle" x="205.358" y="-471.3542" font-family="Helvetica,sans-Serif" font-size="10.00" fill="#000000">2</text>
</a>
</g>
</g>
<!-- dir_b14b741173403ad069a896263b3f14b4 -->
<g id="node5" class="node">
<title>dir_b14b741173403ad069a896263b3f14b4</title>
<g id="a_node5"><a xlink:href="dir_b14b741173403ad069a896263b3f14b4.html" target="_top" xlink:title="util">
<polygon fill="#ffffff" stroke="#000000" points="277.4308,-468 223.4308,-468 223.4308,-432 277.4308,-432 277.4308,-468"/>
<text text-anchor="middle" x="250.4308" y="-447.5" font-family="Helvetica,sans-Serif" font-size="10.00" fill="#000000">util</text>
</a>
</g>
</g>
<!-- dir_6b5446d9575188b5a170aae88d74d865&#45;&gt;dir_b14b741173403ad069a896263b3f14b4 -->
<g id="edge14" class="edge">
<title>dir_6b5446d9575188b5a170aae88d74d865&#45;&gt;dir_b14b741173403ad069a896263b3f14b4</title>
<path fill="none" stroke="#000000" d="M245.9738,-503.8314C245.0094,-496.131 244.5342,-486.9743 244.6051,-478.4166"/>
<polygon fill="#000000" stroke="#000000" points="248.1031,-478.5331 244.9663,-468.4133 241.1077,-478.2804 248.1031,-478.5331"/>
<g id="a_edge14&#45;headlabel"><a xlink:href="dir_000047_000049.html" target="_top" xlink:title="3">
<text text-anchor="middle" x="250.8109" y="-479.7278" font-family="Helvetica,sans-Serif" font-size="10.00" fill="#000000">3</text>
</a>
</g>
</g>
<!-- dir_b1a5b7ba9091facbdf32a321b74a0f11 -->
<g id="node6" class="node">
<title>dir_b1a5b7ba9091facbdf32a321b74a0f11</title>
<g id="a_node6"><a xlink:href="dir_b1a5b7ba9091facbdf32a321b74a0f11.html" target="_top" xlink:title="validator">
<polygon fill="#ffffff" stroke="#000000" points="317.4308,-396 263.4308,-396 263.4308,-360 317.4308,-360 317.4308,-396"/>
<text text-anchor="middle" x="290.4308" y="-375.5" font-family="Helvetica,sans-Serif" font-size="10.00" fill="#000000">validator</text>
</a>
</g>
</g>
<!-- dir_6b5446d9575188b5a170aae88d74d865&#45;&gt;dir_b1a5b7ba9091facbdf32a321b74a0f11 -->
<g id="edge11" class="edge">
<title>dir_6b5446d9575188b5a170aae88d74d865&#45;&gt;dir_b1a5b7ba9091facbdf32a321b74a0f11</title>
<path fill="none" stroke="#000000" d="M267.3086,-503.7058C274.4848,-493.7681 282.3958,-480.8994 286.4308,-468 292.6858,-448.004 293.49,-424.2916 292.8351,-406.2273"/>
<polygon fill="#000000" stroke="#000000" points="296.3203,-405.8541 292.293,-396.0545 289.3302,-406.2267 296.3203,-405.8541"/>
<g id="a_edge11&#45;headlabel"><a xlink:href="dir_000047_000046.html" target="_top" xlink:title="4">
<text text-anchor="middle" x="299.3467" y="-406.7925" font-family="Helvetica,sans-Serif" font-size="10.00" fill="#000000">4</text>
</a>
</g>
</g>
<!-- dir_fd1e11fb0964f7346e999e146b0dfd59 -->
<g id="node7" class="node">
<title>dir_fd1e11fb0964f7346e999e146b0dfd59</title>
<g id="a_node7"><a xlink:href="dir_fd1e11fb0964f7346e999e146b0dfd59.html" target="_top" xlink:title="common">
<polygon fill="none" stroke="#000000" points="300.9308,-108 245.9308,-108 245.9308,-72 300.9308,-72 300.9308,-108"/>
<text text-anchor="middle" x="273.4308" y="-87.5" font-family="Helvetica,sans-Serif" font-size="10.00" fill="#000000">common</text>
</a>
</g>
</g>
<!-- dir_6b5446d9575188b5a170aae88d74d865&#45;&gt;dir_fd1e11fb0964f7346e999e146b0dfd59 -->
<g id="edge9" class="edge">
<title>dir_6b5446d9575188b5a170aae88d74d865&#45;&gt;dir_fd1e11fb0964f7346e999e146b0dfd59</title>
<path fill="none" stroke="#000000" d="M222.8121,-513.5001C176.48,-498.4348 88.2539,-462.2177 50.4308,-396 10.5316,-326.1476 16.1237,-294.9747 31.4308,-216 37.9952,-182.1321 34.4516,-166.6981 60.4308,-144 86.3539,-121.351 181.5808,-103.7991 235.5165,-95.4135"/>
<polygon fill="#000000" stroke="#000000" points="236.3611,-98.8254 245.7203,-93.8599 235.3074,-91.9051 236.3611,-98.8254"/>
<g id="a_edge9&#45;headlabel"><a xlink:href="dir_000047_000015.html" target="_top" xlink:title="5">
<text text-anchor="middle" x="233.2349" y="-99.6733" font-family="Helvetica,sans-Serif" font-size="10.00" fill="#000000">5</text>
</a>
</g>
</g>
<!-- dir_c541d4b187fc5f863b4735b323978e0f -->
<g id="node8" class="node">
<title>dir_c541d4b187fc5f863b4735b323978e0f</title>
<g id="a_node8"><a xlink:href="dir_c541d4b187fc5f863b4735b323978e0f.html" target="_top" xlink:title="util">
<polygon fill="none" stroke="#000000" points="415.4308,-36 361.4308,-36 361.4308,0 415.4308,0 415.4308,-36"/>
<text text-anchor="middle" x="388.4308" y="-15.5" font-family="Helvetica,sans-Serif" font-size="10.00" fill="#000000">util</text>
</a>
</g>
</g>
<!-- dir_6b5446d9575188b5a170aae88d74d865&#45;&gt;dir_c541d4b187fc5f863b4735b323978e0f -->
<g id="edge10" class="edge">
<title>dir_6b5446d9575188b5a170aae88d74d865&#45;&gt;dir_c541d4b187fc5f863b4735b323978e0f</title>
<path fill="none" stroke="#000000" d="M282.1148,-516.726C368.1266,-500.6086 611.4308,-448.7629 611.4308,-378 611.4308,-378 611.4308,-378 611.4308,-162 611.4308,-74.6896 489.2991,-37.7422 425.8032,-24.4332"/>
<polygon fill="#000000" stroke="#000000" points="426.2675,-20.9568 415.775,-22.4256 424.8934,-27.8206 426.2675,-20.9568"/>
<g id="a_edge10&#45;headlabel"><a xlink:href="dir_000047_000011.html" target="_top" xlink:title="2">
<text text-anchor="middle" x="430.3495" y="-16.3783" font-family="Helvetica,sans-Serif" font-size="10.00" fill="#000000">2</text>
</a>
</g>
</g>
<!-- dir_d3b86ce335ad818909ececff0fac1eca -->
<g id="node9" class="node">
<title>dir_d3b86ce335ad818909ececff0fac1eca</title>
<g id="a_node9"><a xlink:href="dir_d3b86ce335ad818909ececff0fac1eca.html" target="_top" xlink:title="conversion">
<polygon fill="none" stroke="#000000" points="478.9308,-396 413.9308,-396 413.9308,-360 478.9308,-360 478.9308,-396"/>
<text text-anchor="middle" x="446.4308" y="-375.5" font-family="Helvetica,sans-Serif" font-size="10.00" fill="#000000">conversion</text>
</a>
</g>
</g>
<!-- dir_6b5446d9575188b5a170aae88d74d865&#45;&gt;dir_d3b86ce335ad818909ececff0fac1eca -->
<g id="edge12" class="edge">
<title>dir_6b5446d9575188b5a170aae88d74d865&#45;&gt;dir_d3b86ce335ad818909ececff0fac1eca</title>
<path fill="none" stroke="#000000" d="M277.0011,-503.7623C311.694,-478.0108 375.1062,-430.942 413.7422,-402.2637"/>
<polygon fill="#000000" stroke="#000000" points="416.1165,-404.8602 422.0601,-396.0896 411.9443,-399.2394 416.1165,-404.8602"/>
<g id="a_edge12&#45;headlabel"><a xlink:href="dir_000047_000023.html" target="_top" xlink:title="2">
<text text-anchor="middle" x="414.9224" y="-406.7825" font-family="Helvetica,sans-Serif" font-size="10.00" fill="#000000">2</text>
</a>
</g>
</g>
<!-- dir_3f96c34ad80e9031c68706862fabf1a4 -->
<g id="node11" class="node">
<title>dir_3f96c34ad80e9031c68706862fabf1a4</title>
<g id="a_node11"><a xlink:href="dir_3f96c34ad80e9031c68706862fabf1a4.html" target="_top" xlink:title="extension">
<polygon fill="none" stroke="#000000" points="367.9308,-252 308.9308,-252 308.9308,-216 367.9308,-216 367.9308,-252"/>
<text text-anchor="middle" x="338.4308" y="-231.5" font-family="Helvetica,sans-Serif" font-size="10.00" fill="#000000">extension</text>
</a>
</g>
</g>
<!-- dir_6b5446d9575188b5a170aae88d74d865&#45;&gt;dir_3f96c34ad80e9031c68706862fabf1a4 -->
<g id="edge16" class="edge">
<title>dir_6b5446d9575188b5a170aae88d74d865&#45;&gt;dir_3f96c34ad80e9031c68706862fabf1a4</title>
<path fill="none" stroke="#000000" d="M282.1776,-516.5198C335.0887,-504.9713 444.1521,-472.6033 488.4308,-396 523.4271,-335.4556 432.355,-278.9272 377.1317,-251.4416"/>
<polygon fill="#000000" stroke="#000000" points="378.4621,-248.1967 367.9388,-246.9678 375.399,-254.4909 378.4621,-248.1967"/>
<g id="a_edge16&#45;headlabel"><a xlink:href="dir_000047_000005.html" target="_top" xlink:title="3">
<text text-anchor="middle" x="382.9367" y="-244.7166" font-family="Helvetica,sans-Serif" font-size="10.00" fill="#000000">3</text>
</a>
</g>
</g>
<!-- dir_56d603006930d6f32ca38bb932b49787 -->
<g id="node13" class="node">
<title>dir_56d603006930d6f32ca38bb932b49787</title>
<g id="a_node13"><a xlink:href="dir_56d603006930d6f32ca38bb932b49787.html" target="_top" xlink:title="layout">
<polygon fill="#ffffff" stroke="#ff0000" points="395.4308,-396 341.4308,-396 341.4308,-360 395.4308,-360 395.4308,-396"/>
<text text-anchor="middle" x="368.4308" y="-375.5" font-family="Helvetica,sans-Serif" font-size="10.00" fill="#000000">layout</text>
</a>
</g>
</g>
<!-- dir_6b5446d9575188b5a170aae88d74d865&#45;&gt;dir_56d603006930d6f32ca38bb932b49787 -->
<g id="edge17" class="edge">
<title>dir_6b5446d9575188b5a170aae88d74d865&#45;&gt;dir_56d603006930d6f32ca38bb932b49787</title>
<path fill="none" stroke="#000000" d="M267.1223,-503.7623C287.4308,-478.5518 324.1975,-432.9103 347.4098,-404.0952"/>
<polygon fill="#000000" stroke="#000000" points="350.311,-406.0728 353.8587,-396.0896 344.8597,-401.6815 350.311,-406.0728"/>
<g id="a_edge17&#45;headlabel"><a xlink:href="dir_000047_000009.html" target="_top" xlink:title="4">
<text text-anchor="middle" x="350.2671" y="-408.1533" font-family="Helvetica,sans-Serif" font-size="10.00" fill="#000000">4</text>
</a>
</g>
</g>
<!-- dir_224c4a10832b4053571db2c932d86b0d&#45;&gt;dir_0f865acc0217e49aeb49ab1c50c8f73a -->
<g id="edge22" class="edge">
<title>dir_224c4a10832b4053571db2c932d86b0d&#45;&gt;dir_0f865acc0217e49aeb49ab1c50c8f73a</title>
<path fill="none" stroke="#000000" d="M186.7322,-468.0896C194.1314,-492.5727 203.2649,-536.5174 207.1944,-565.4713"/>
<polygon fill="#000000" stroke="#000000" points="203.7629,-566.2514 208.4312,-575.7623 210.7129,-565.4161 203.7629,-566.2514"/>
<g id="a_edge22&#45;headlabel"><a xlink:href="dir_000014_000048.html" target="_top" xlink:title="36">
<text text-anchor="middle" x="200.5151" y="-560.5212" font-family="Helvetica,sans-Serif" font-size="10.00" fill="#000000">36</text>
</a>
</g>
</g>
<!-- dir_224c4a10832b4053571db2c932d86b0d&#45;&gt;dir_6b5446d9575188b5a170aae88d74d865 -->
<g id="edge21" class="edge">
<title>dir_224c4a10832b4053571db2c932d86b0d&#45;&gt;dir_6b5446d9575188b5a170aae88d74d865</title>
<path fill="none" stroke="#000000" d="M203.05,-468.1628C212.7404,-476.7744 223.6411,-487.2081 232.7973,-496.5888"/>
<polygon fill="#000000" stroke="#000000" points="230.2736,-499.014 239.7099,-503.8314 235.3374,-494.1809 230.2736,-499.014"/>
<g id="a_edge21&#45;headlabel"><a xlink:href="dir_000014_000047.html" target="_top" xlink:title="21">
<text text-anchor="middle" x="225.7379" y="-495.874" font-family="Helvetica,sans-Serif" font-size="10.00" fill="#000000">21</text>
</a>
</g>
</g>
<!-- dir_224c4a10832b4053571db2c932d86b0d&#45;&gt;dir_b1a5b7ba9091facbdf32a321b74a0f11 -->
<g id="edge20" class="edge">
<title>dir_224c4a10832b4053571db2c932d86b0d&#45;&gt;dir_b1a5b7ba9091facbdf32a321b74a0f11</title>
<path fill="none" stroke="#000000" d="M205.5429,-432.5708C220.2914,-423.0896 238.7212,-411.2419 254.6365,-401.0107"/>
<polygon fill="#000000" stroke="#000000" points="256.6611,-403.87 263.1803,-395.5182 252.8758,-397.9817 256.6611,-403.87"/>
<g id="a_edge20&#45;headlabel"><a xlink:href="dir_000014_000046.html" target="_top" xlink:title="35">
<text text-anchor="middle" x="255.1728" y="-405.7021" font-family="Helvetica,sans-Serif" font-size="10.00" fill="#000000">35</text>
</a>
</g>
</g>
<!-- dir_224c4a10832b4053571db2c932d86b0d&#45;&gt;dir_fd1e11fb0964f7346e999e146b0dfd59 -->
<g id="edge18" class="edge">
<title>dir_224c4a10832b4053571db2c932d86b0d&#45;&gt;dir_fd1e11fb0964f7346e999e146b0dfd59</title>
<path fill="none" stroke="#000000" d="M151.1954,-436.2053C112.2845,-414.3336 45.4308,-367.7677 45.4308,-306 45.4308,-306 45.4308,-306 45.4308,-234 45.4308,-145.0818 170.9261,-108.8405 235.7064,-96.0562"/>
<polygon fill="#000000" stroke="#000000" points="236.7477,-99.4218 245.9287,-94.1341 235.4541,-92.5423 236.7477,-99.4218"/>
<g id="a_edge18&#45;headlabel"><a xlink:href="dir_000014_000015.html" target="_top" xlink:title="36">
<text text-anchor="middle" x="233.7397" y="-100.3763" font-family="Helvetica,sans-Serif" font-size="10.00" fill="#000000">36</text>
</a>
</g>
</g>
<!-- dir_224c4a10832b4053571db2c932d86b0d&#45;&gt;dir_c541d4b187fc5f863b4735b323978e0f -->
<g id="edge19" class="edge">
<title>dir_224c4a10832b4053571db2c932d86b0d&#45;&gt;dir_c541d4b187fc5f863b4735b323978e0f</title>
<path fill="none" stroke="#000000" d="M151.3614,-442.0644C117.7136,-431.6367 63.1528,-412.687 50.4308,-396 -17.5265,-306.8622 -18.6911,-223.3944 60.4308,-144 142.3826,-61.7659 283.7657,-32.1637 350.9199,-22.3869"/>
<polygon fill="#000000" stroke="#000000" points="351.6158,-25.824 361.04,-20.983 350.6539,-18.8904 351.6158,-25.824"/>
<g id="a_edge19&#45;headlabel"><a xlink:href="dir_000014_000011.html" target="_top" xlink:title="11">
<text text-anchor="middle" x="348.4454" y="-26.6302" font-family="Helvetica,sans-Serif" font-size="10.00" fill="#000000">11</text>
</a>
</g>
</g>
<!-- dir_5cbb9a0bf548abf0d2e32772c73d2ad6 -->
<g id="node10" class="node">
<title>dir_5cbb9a0bf548abf0d2e32772c73d2ad6</title>
<g id="a_node10"><a xlink:href="dir_5cbb9a0bf548abf0d2e32772c73d2ad6.html" target="_top" xlink:title="xml">
<polygon fill="none" stroke="#000000" points="300.4308,-180 246.4308,-180 246.4308,-144 300.4308,-144 300.4308,-180"/>
<text text-anchor="middle" x="273.4308" y="-159.5" font-family="Helvetica,sans-Serif" font-size="10.00" fill="#000000">xml</text>
</a>
</g>
</g>
<!-- dir_224c4a10832b4053571db2c932d86b0d&#45;&gt;dir_5cbb9a0bf548abf0d2e32772c73d2ad6 -->
<g id="edge23" class="edge">
<title>dir_224c4a10832b4053571db2c932d86b0d&#45;&gt;dir_5cbb9a0bf548abf0d2e32772c73d2ad6</title>
<path fill="none" stroke="#000000" d="M182.9258,-431.8006C192.9495,-392.0471 218.6119,-294.7126 248.4308,-216 251.7814,-207.1557 255.9326,-197.7313 259.8834,-189.2728"/>
<polygon fill="#000000" stroke="#000000" points="263.0574,-190.7481 264.2054,-180.2156 256.7399,-187.7334 263.0574,-190.7481"/>
<g id="a_edge23&#45;headlabel"><a xlink:href="dir_000014_000027.html" target="_top" xlink:title="28">
<text text-anchor="middle" x="264.0718" y="-192.715" font-family="Helvetica,sans-Serif" font-size="10.00" fill="#000000">28</text>
</a>
</g>
</g>
<!-- dir_224c4a10832b4053571db2c932d86b0d&#45;&gt;dir_56d603006930d6f32ca38bb932b49787 -->
<g id="edge24" class="edge">
<title>dir_224c4a10832b4053571db2c932d86b0d&#45;&gt;dir_56d603006930d6f32ca38bb932b49787</title>
<path fill="none" stroke="#000000" d="M205.7399,-435.7793C208.645,-434.4372 211.5796,-433.1505 214.4308,-432 264.0972,-411.96 279.4576,-415.2618 329.4308,-396 330.2832,-395.6715 331.1433,-395.3331 332.0085,-394.9867"/>
<polygon fill="#000000" stroke="#000000" points="333.4973,-398.1574 341.3479,-391.0428 330.774,-391.7088 333.4973,-398.1574"/>
<g id="a_edge24&#45;headlabel"><a xlink:href="dir_000014_000009.html" target="_top" xlink:title="41">
<text text-anchor="middle" x="331.2903" y="-399.6713" font-family="Helvetica,sans-Serif" font-size="10.00" fill="#000000">41</text>
</a>
</g>
</g>
<!-- dir_b14b741173403ad069a896263b3f14b4&#45;&gt;dir_0f865acc0217e49aeb49ab1c50c8f73a -->
<g id="edge28" class="edge">
<title>dir_b14b741173403ad069a896263b3f14b4&#45;&gt;dir_0f865acc0217e49aeb49ab1c50c8f73a</title>
<path fill="none" stroke="#000000" d="M234.8575,-468.2182C227.3083,-478.1351 218.9217,-491.0081 214.4308,-504 207.5721,-523.842 205.9746,-547.5616 206.0103,-565.6677"/>
<polygon fill="#000000" stroke="#000000" points="202.5146,-565.9365 206.2017,-575.869 209.5134,-565.8051 202.5146,-565.9365"/>
<g id="a_edge28&#45;headlabel"><a xlink:href="dir_000049_000048.html" target="_top" xlink:title="3">
<text text-anchor="middle" x="199.6085" y="-559.8957" font-family="Helvetica,sans-Serif" font-size="10.00" fill="#000000">3</text>
</a>
</g>
</g>
<!-- dir_b14b741173403ad069a896263b3f14b4&#45;&gt;dir_6b5446d9575188b5a170aae88d74d865 -->
<g id="edge27" class="edge">
<title>dir_b14b741173403ad069a896263b3f14b4&#45;&gt;dir_6b5446d9575188b5a170aae88d74d865</title>
<path fill="none" stroke="#000000" d="M256.9183,-468.4133C257.8618,-476.0593 258.3264,-485.1084 258.2567,-493.5726"/>
<polygon fill="#000000" stroke="#000000" points="254.7494,-493.7092 257.8786,-503.8314 261.7446,-493.9671 254.7494,-493.7092"/>
<g id="a_edge27&#45;headlabel"><a xlink:href="dir_000049_000047.html" target="_top" xlink:title="2">
<text text-anchor="middle" x="252.0443" y="-487.5125" font-family="Helvetica,sans-Serif" font-size="10.00" fill="#000000">2</text>
</a>
</g>
</g>
<!-- dir_b14b741173403ad069a896263b3f14b4&#45;&gt;dir_fd1e11fb0964f7346e999e146b0dfd59 -->
<g id="edge25" class="edge">
<title>dir_b14b741173403ad069a896263b3f14b4&#45;&gt;dir_fd1e11fb0964f7346e999e146b0dfd59</title>
<path fill="none" stroke="#000000" d="M243.1794,-431.8172C224.8566,-382.9327 181.1365,-245.5186 224.4308,-144 228.9174,-133.4798 236.3398,-123.6596 244.0672,-115.3555"/>
<polygon fill="#000000" stroke="#000000" points="246.6245,-117.7473 251.1741,-108.179 241.6506,-112.8217 246.6245,-117.7473"/>
<g id="a_edge25&#45;headlabel"><a xlink:href="dir_000049_000015.html" target="_top" xlink:title="2">
<text text-anchor="middle" x="246.1126" y="-119.7993" font-family="Helvetica,sans-Serif" font-size="10.00" fill="#000000">2</text>
</a>
</g>
</g>
<!-- dir_b14b741173403ad069a896263b3f14b4&#45;&gt;dir_d3b86ce335ad818909ececff0fac1eca -->
<g id="edge26" class="edge">
<title>dir_b14b741173403ad069a896263b3f14b4&#45;&gt;dir_d3b86ce335ad818909ececff0fac1eca</title>
<path fill="none" stroke="#000000" d="M277.6181,-441.0866C306.6756,-431.4257 354.2582,-415.2215 403.8861,-396.095"/>
<polygon fill="#000000" stroke="#000000" points="405.4472,-399.2435 413.5025,-392.3614 402.9137,-392.718 405.4472,-399.2435"/>
<g id="a_edge26&#45;headlabel"><a xlink:href="dir_000049_000023.html" target="_top" xlink:title="6">
<text text-anchor="middle" x="403.1238" y="-400.6912" font-family="Helvetica,sans-Serif" font-size="10.00" fill="#000000">6</text>
</a>
</g>
</g>
<!-- dir_b14b741173403ad069a896263b3f14b4&#45;&gt;dir_5cbb9a0bf548abf0d2e32772c73d2ad6 -->
<g id="edge29" class="edge">
<title>dir_b14b741173403ad069a896263b3f14b4&#45;&gt;dir_5cbb9a0bf548abf0d2e32772c73d2ad6</title>
<path fill="none" stroke="#000000" d="M247.0159,-431.5804C245.2599,-421.1767 243.3082,-407.9092 242.4308,-396 236.9233,-321.2429 255.1132,-233.85 265.9476,-190.0452"/>
<polygon fill="#000000" stroke="#000000" points="269.3963,-190.6836 268.4601,-180.1303 262.6108,-188.9641 269.3963,-190.6836"/>
<g id="a_edge29&#45;headlabel"><a xlink:href="dir_000049_000027.html" target="_top" xlink:title="1">
<text text-anchor="middle" x="271.2657" y="-192.3655" font-family="Helvetica,sans-Serif" font-size="10.00" fill="#000000">1</text>
</a>
</g>
</g>
<!-- dir_b14b741173403ad069a896263b3f14b4&#45;&gt;dir_3f96c34ad80e9031c68706862fabf1a4 -->
<g id="edge30" class="edge">
<title>dir_b14b741173403ad069a896263b3f14b4&#45;&gt;dir_3f96c34ad80e9031c68706862fabf1a4</title>
<path fill="none" stroke="#000000" d="M248.1418,-431.8403C246.0944,-410.2955 244.7305,-373.5725 254.4308,-344 265.3031,-310.8547 290.857,-279.9278 310.945,-259.3621"/>
<polygon fill="#000000" stroke="#000000" points="313.4494,-261.8076 318.0612,-252.2692 308.5077,-256.8497 313.4494,-261.8076"/>
<g id="a_edge30&#45;headlabel"><a xlink:href="dir_000049_000005.html" target="_top" xlink:title="2">
<text text-anchor="middle" x="312.9079" y="-263.8561" font-family="Helvetica,sans-Serif" font-size="10.00" fill="#000000">2</text>
</a>
</g>
</g>
<!-- dir_b14b741173403ad069a896263b3f14b4&#45;&gt;dir_56d603006930d6f32ca38bb932b49787 -->
<g id="edge31" class="edge">
<title>dir_b14b741173403ad069a896263b3f14b4&#45;&gt;dir_56d603006930d6f32ca38bb932b49787</title>
<path fill="none" stroke="#000000" d="M277.5024,-433.4817C293.7263,-423.5825 314.5594,-410.8707 332.1901,-400.113"/>
<polygon fill="#000000" stroke="#000000" points="334.3632,-402.8872 341.0766,-394.6907 330.7172,-396.9117 334.3632,-402.8872"/>
<g id="a_edge31&#45;headlabel"><a xlink:href="dir_000049_000009.html" target="_top" xlink:title="2">
<text text-anchor="middle" x="332.7736" y="-404.6831" font-family="Helvetica,sans-Serif" font-size="10.00" fill="#000000">2</text>
</a>
</g>
</g>
<!-- dir_b1a5b7ba9091facbdf32a321b74a0f11&#45;&gt;dir_0f865acc0217e49aeb49ab1c50c8f73a -->
<g id="edge3" class="edge">
<title>dir_b1a5b7ba9091facbdf32a321b74a0f11&#45;&gt;dir_0f865acc0217e49aeb49ab1c50c8f73a</title>
<path fill="none" stroke="#000000" d="M296.1041,-396.4701C304.6932,-428.1663 317.4104,-493.9464 291.4308,-540 281.1533,-558.219 261.9042,-571.2596 244.4233,-579.9561"/>
<polygon fill="#000000" stroke="#000000" points="242.5601,-576.9621 234.9619,-584.3458 245.5062,-583.312 242.5601,-576.9621"/>
<g id="a_edge3&#45;headlabel"><a xlink:href="dir_000046_000048.html" target="_top" xlink:title="1">
<text text-anchor="middle" x="244.6259" y="-570.3738" font-family="Helvetica,sans-Serif" font-size="10.00" fill="#000000">1</text>
</a>
</g>
</g>
<!-- dir_a0a785b8d726fb513b94381e63693443 -->
<g id="node12" class="node">
<title>dir_a0a785b8d726fb513b94381e63693443</title>
<g id="a_node12"><a xlink:href="dir_a0a785b8d726fb513b94381e63693443.html" target="_top" xlink:title="validator">
<polygon fill="none" stroke="#000000" points="355.4308,-324 301.4308,-324 301.4308,-288 355.4308,-288 355.4308,-324"/>
<text text-anchor="middle" x="328.4308" y="-303.5" font-family="Helvetica,sans-Serif" font-size="10.00" fill="#000000">validator</text>
</a>
</g>
</g>
<!-- dir_b1a5b7ba9091facbdf32a321b74a0f11&#45;&gt;dir_a0a785b8d726fb513b94381e63693443 -->
<g id="edge4" class="edge">
<title>dir_b1a5b7ba9091facbdf32a321b74a0f11&#45;&gt;dir_a0a785b8d726fb513b94381e63693443</title>
<path fill="none" stroke="#000000" d="M300.0199,-359.8314C304.2626,-351.7925 309.3429,-342.1666 314.0268,-333.2918"/>
<polygon fill="#000000" stroke="#000000" points="317.1404,-334.8908 318.7127,-324.4133 310.9497,-331.6235 317.1404,-334.8908"/>
<g id="a_edge4&#45;headlabel"><a xlink:href="dir_000046_000022.html" target="_top" xlink:title="1">
<text text-anchor="middle" x="317.9737" y="-336.895" font-family="Helvetica,sans-Serif" font-size="10.00" fill="#000000">1</text>
</a>
</g>
</g>
<!-- dir_fd1e11fb0964f7346e999e146b0dfd59&#45;&gt;dir_c541d4b187fc5f863b4735b323978e0f -->
<g id="edge1" class="edge">
<title>dir_fd1e11fb0964f7346e999e146b0dfd59&#45;&gt;dir_c541d4b187fc5f863b4735b323978e0f</title>
<path fill="none" stroke="#000000" d="M296.4978,-71.8314C312.6056,-61.0911 334.2683,-47.5181 352.5794,-36.6883"/>
<polygon fill="#000000" stroke="#000000" points="354.3914,-39.6833 361.2602,-31.6167 350.8602,-33.6392 354.3914,-39.6833"/>
<g id="a_edge1&#45;headlabel"><a xlink:href="dir_000015_000011.html" target="_top" xlink:title="2">
<text text-anchor="middle" x="352.7199" y="-41.4481" font-family="Helvetica,sans-Serif" font-size="10.00" fill="#000000">2</text>
</a>
</g>
</g>
<!-- dir_c541d4b187fc5f863b4735b323978e0f&#45;&gt;dir_fd1e11fb0964f7346e999e146b0dfd59 -->
<g id="edge2" class="edge">
<title>dir_c541d4b187fc5f863b4735b323978e0f&#45;&gt;dir_fd1e11fb0964f7346e999e146b0dfd59</title>
<path fill="none" stroke="#000000" d="M365.3116,-36.2035C349.3317,-46.8566 327.9025,-60.2875 309.7004,-71.0643"/>
<polygon fill="#000000" stroke="#000000" points="307.9263,-68.0472 301.062,-76.1177 311.4609,-74.0893 307.9263,-68.0472"/>
<g id="a_edge2&#45;headlabel"><a xlink:href="dir_000011_000015.html" target="_top" xlink:title="4">
<text text-anchor="middle" x="309.5953" y="-61.2814" font-family="Helvetica,sans-Serif" font-size="10.00" fill="#000000">4</text>
</a>
</g>
</g>
<!-- dir_d3b86ce335ad818909ececff0fac1eca&#45;&gt;dir_fd1e11fb0964f7346e999e146b0dfd59 -->
<g id="edge5" class="edge">
<title>dir_d3b86ce335ad818909ececff0fac1eca&#45;&gt;dir_fd1e11fb0964f7346e999e146b0dfd59</title>
<path fill="none" stroke="#000000" d="M440.6533,-359.9415C426.7028,-318.3635 387.9499,-214.0728 329.4308,-144 321.0441,-133.9575 310.9856,-123.7827 301.7215,-115.0138"/>
<polygon fill="#000000" stroke="#000000" points="303.8904,-112.2516 294.1806,-108.0124 299.1275,-117.3814 303.8904,-112.2516"/>
<g id="a_edge5&#45;headlabel"><a xlink:href="dir_000023_000015.html" target="_top" xlink:title="3">
<text text-anchor="middle" x="308.4565" y="-110.1167" font-family="Helvetica,sans-Serif" font-size="10.00" fill="#000000">3</text>
</a>
</g>
</g>
<!-- dir_d3b86ce335ad818909ececff0fac1eca&#45;&gt;dir_c541d4b187fc5f863b4735b323978e0f -->
<g id="edge6" class="edge">
<title>dir_d3b86ce335ad818909ececff0fac1eca&#45;&gt;dir_c541d4b187fc5f863b4735b323978e0f</title>
<path fill="none" stroke="#000000" d="M478.8069,-359.9756C516.4338,-336.366 573.4308,-291.1674 573.4308,-234 573.4308,-234 573.4308,-234 573.4308,-162 573.4308,-87.6667 479.2745,-46.1043 425.3059,-28.3868"/>
<polygon fill="#000000" stroke="#000000" points="426.3183,-25.0362 415.7282,-25.3536 424.2048,-31.7095 426.3183,-25.0362"/>
<g id="a_edge6&#45;headlabel"><a xlink:href="dir_000023_000011.html" target="_top" xlink:title="9">
<text text-anchor="middle" x="430.6024" y="-20.9147" font-family="Helvetica,sans-Serif" font-size="10.00" fill="#000000">9</text>
</a>
</g>
</g>
<!-- dir_d3b86ce335ad818909ececff0fac1eca&#45;&gt;dir_3f96c34ad80e9031c68706862fabf1a4 -->
<g id="edge7" class="edge">
<title>dir_d3b86ce335ad818909ececff0fac1eca&#45;&gt;dir_3f96c34ad80e9031c68706862fabf1a4</title>
<path fill="none" stroke="#000000" d="M433.4308,-359.9598C420.226,-341.7099 399.116,-312.7381 380.4308,-288 373.5958,-278.9507 366.0165,-269.1396 359.1991,-260.3938"/>
<polygon fill="#000000" stroke="#000000" points="361.8619,-258.1171 352.9453,-252.3947 356.3472,-262.4286 361.8619,-258.1171"/>
<g id="a_edge7&#45;headlabel"><a xlink:href="dir_000023_000005.html" target="_top" xlink:title="5">
<text text-anchor="middle" x="366.3126" y="-256.7003" font-family="Helvetica,sans-Serif" font-size="10.00" fill="#000000">5</text>
</a>
</g>
</g>
<!-- dir_d3b86ce335ad818909ececff0fac1eca&#45;&gt;dir_a0a785b8d726fb513b94381e63693443 -->
<g id="edge8" class="edge">
<title>dir_d3b86ce335ad818909ececff0fac1eca&#45;&gt;dir_a0a785b8d726fb513b94381e63693443</title>
<path fill="none" stroke="#000000" d="M425.7395,-359.7702C419.1527,-354.378 411.6875,-348.6727 404.4308,-344 391.9552,-335.9668 377.5503,-328.3798 364.6582,-322.1286"/>
<polygon fill="#000000" stroke="#000000" points="366.1224,-318.9493 355.5873,-317.8255 363.1221,-325.2738 366.1224,-318.9493"/>
<g id="a_edge8&#45;headlabel"><a xlink:href="dir_000023_000022.html" target="_top" xlink:title="14">
<text text-anchor="middle" x="370.587" y="-315.4247" font-family="Helvetica,sans-Serif" font-size="10.00" fill="#000000">14</text>
</a>
</g>
</g>
<!-- dir_5cbb9a0bf548abf0d2e32772c73d2ad6&#45;&gt;dir_fd1e11fb0964f7346e999e146b0dfd59 -->
<g id="edge34" class="edge">
<title>dir_5cbb9a0bf548abf0d2e32772c73d2ad6&#45;&gt;dir_fd1e11fb0964f7346e999e146b0dfd59</title>
<path fill="none" stroke="#000000" d="M273.4308,-143.8314C273.4308,-136.131 273.4308,-126.9743 273.4308,-118.4166"/>
<polygon fill="#000000" stroke="#000000" points="276.9309,-118.4132 273.4308,-108.4133 269.9309,-118.4133 276.9309,-118.4132"/>
<g id="a_edge34&#45;headlabel"><a xlink:href="dir_000027_000015.html" target="_top" xlink:title="5">
<text text-anchor="middle" x="279.7701" y="-119.5079" font-family="Helvetica,sans-Serif" font-size="10.00" fill="#000000">5</text>
</a>
</g>
</g>
<!-- dir_5cbb9a0bf548abf0d2e32772c73d2ad6&#45;&gt;dir_c541d4b187fc5f863b4735b323978e0f -->
<g id="edge35" class="edge">
<title>dir_5cbb9a0bf548abf0d2e32772c73d2ad6&#45;&gt;dir_c541d4b187fc5f863b4735b323978e0f</title>
<path fill="none" stroke="#000000" d="M287.9957,-143.7623C308.129,-118.5518 344.5789,-72.9103 367.591,-44.0952"/>
<polygon fill="#000000" stroke="#000000" points="370.4788,-46.0877 373.9843,-36.0896 365.009,-41.7195 370.4788,-46.0877"/>
<g id="a_edge35&#45;headlabel"><a xlink:href="dir_000027_000011.html" target="_top" xlink:title="5">
<text text-anchor="middle" x="370.4543" y="-48.1683" font-family="Helvetica,sans-Serif" font-size="10.00" fill="#000000">5</text>
</a>
</g>
</g>
<!-- dir_3f96c34ad80e9031c68706862fabf1a4&#45;&gt;dir_fd1e11fb0964f7346e999e146b0dfd59 -->
<g id="edge36" class="edge">
<title>dir_3f96c34ad80e9031c68706862fabf1a4&#45;&gt;dir_fd1e11fb0964f7346e999e146b0dfd59</title>
<path fill="none" stroke="#000000" d="M334.1621,-215.8495C329.4308,-197.2614 320.9236,-167.8004 309.4308,-144 304.9218,-134.6622 299.0021,-125.0594 293.2689,-116.5889"/>
<polygon fill="#000000" stroke="#000000" points="296.0252,-114.4228 287.4286,-108.2301 290.2871,-118.4321 296.0252,-114.4228"/>
<g id="a_edge36&#45;headlabel"><a xlink:href="dir_000005_000015.html" target="_top" xlink:title="8">
<text text-anchor="middle" x="300.4114" y="-113.2432" font-family="Helvetica,sans-Serif" font-size="10.00" fill="#000000">8</text>
</a>
</g>
</g>
<!-- dir_3f96c34ad80e9031c68706862fabf1a4&#45;&gt;dir_c541d4b187fc5f863b4735b323978e0f -->
<g id="edge37" class="edge">
<title>dir_3f96c34ad80e9031c68706862fabf1a4&#45;&gt;dir_c541d4b187fc5f863b4735b323978e0f</title>
<path fill="none" stroke="#000000" d="M342.6078,-215.9555C351.321,-178.3144 371.4895,-91.1867 381.9205,-46.1246"/>
<polygon fill="#000000" stroke="#000000" points="385.3852,-46.6768 384.2306,-36.1451 378.5655,-45.0981 385.3852,-46.6768"/>
<g id="a_edge37&#45;headlabel"><a xlink:href="dir_000005_000011.html" target="_top" xlink:title="3">
<text text-anchor="middle" x="387.3407" y="-48.3191" font-family="Helvetica,sans-Serif" font-size="10.00" fill="#000000">3</text>
</a>
</g>
</g>
<!-- dir_3f96c34ad80e9031c68706862fabf1a4&#45;&gt;dir_5cbb9a0bf548abf0d2e32772c73d2ad6 -->
<g id="edge38" class="edge">
<title>dir_3f96c34ad80e9031c68706862fabf1a4&#45;&gt;dir_5cbb9a0bf548abf0d2e32772c73d2ad6</title>
<path fill="none" stroke="#000000" d="M322.0286,-215.8314C314.3893,-207.3694 305.1625,-197.1489 296.8102,-187.8971"/>
<polygon fill="#000000" stroke="#000000" points="299.3529,-185.4906 290.0539,-180.4133 294.1571,-190.1813 299.3529,-185.4906"/>
<g id="a_edge38&#45;headlabel"><a xlink:href="dir_000005_000027.html" target="_top" xlink:title="2">
<text text-anchor="middle" x="303.8692" y="-183.7561" font-family="Helvetica,sans-Serif" font-size="10.00" fill="#000000">2</text>
</a>
</g>
</g>
<!-- dir_a0a785b8d726fb513b94381e63693443&#45;&gt;dir_3f96c34ad80e9031c68706862fabf1a4 -->
<g id="edge39" class="edge">
<title>dir_a0a785b8d726fb513b94381e63693443&#45;&gt;dir_3f96c34ad80e9031c68706862fabf1a4</title>
<path fill="none" stroke="#000000" d="M330.9543,-287.8314C332.0238,-280.131 333.2955,-270.9743 334.4841,-262.4166"/>
<polygon fill="#000000" stroke="#000000" points="337.9644,-262.7997 335.8735,-252.4133 331.031,-261.8367 337.9644,-262.7997"/>
<g id="a_edge39&#45;headlabel"><a xlink:href="dir_000022_000005.html" target="_top" xlink:title="1">
<text text-anchor="middle" x="340.2823" y="-264.2507" font-family="Helvetica,sans-Serif" font-size="10.00" fill="#000000">1</text>
</a>
</g>
</g>
<!-- dir_56d603006930d6f32ca38bb932b49787&#45;&gt;dir_fd1e11fb0964f7346e999e146b0dfd59 -->
<g id="edge40" class="edge">
<title>dir_56d603006930d6f32ca38bb932b49787&#45;&gt;dir_fd1e11fb0964f7346e999e146b0dfd59</title>
<path fill="none" stroke="#000000" d="M350.5038,-359.8423C344.2306,-354.2047 336.8831,-348.3388 329.4308,-344 306.2292,-330.4918 290.4521,-343.9004 272.4308,-324 217.7256,-263.5905 213.8139,-222.0014 237.4308,-144 240.3873,-134.2355 245.7561,-124.6229 251.4608,-116.2762"/>
<polygon fill="#000000" stroke="#000000" points="254.3723,-118.2239 257.4404,-108.0831 248.718,-114.0973 254.3723,-118.2239"/>
<g id="a_edge40&#45;headlabel"><a xlink:href="dir_000009_000015.html" target="_top" xlink:title="21">
<text text-anchor="middle" x="254.5467" y="-120.3013" font-family="Helvetica,sans-Serif" font-size="10.00" fill="#000000">21</text>
</a>
</g>
</g>
<!-- dir_56d603006930d6f32ca38bb932b49787&#45;&gt;dir_c541d4b187fc5f863b4735b323978e0f -->
<g id="edge41" class="edge">
<title>dir_56d603006930d6f32ca38bb932b49787&#45;&gt;dir_c541d4b187fc5f863b4735b323978e0f</title>
<path fill="none" stroke="#000000" d="M389.5368,-359.8504C416.4191,-334.5934 459.4308,-286.0495 459.4308,-234 459.4308,-234 459.4308,-234 459.4308,-162 459.4308,-117.0363 431.2396,-71.5617 410.3852,-44.0733"/>
<polygon fill="#000000" stroke="#000000" points="413.1024,-41.8661 404.188,-36.1403 407.5861,-46.1755 413.1024,-41.8661"/>
<g id="a_edge41&#45;headlabel"><a xlink:href="dir_000009_000011.html" target="_top" xlink:title="15">
<text text-anchor="middle" x="417.5528" y="-40.4509" font-family="Helvetica,sans-Serif" font-size="10.00" fill="#000000">15</text>
</a>
</g>
</g>
<!-- dir_56d603006930d6f32ca38bb932b49787&#45;&gt;dir_5cbb9a0bf548abf0d2e32772c73d2ad6 -->
<g id="edge42" class="edge">
<title>dir_56d603006930d6f32ca38bb932b49787&#45;&gt;dir_5cbb9a0bf548abf0d2e32772c73d2ad6</title>
<path fill="none" stroke="#000000" d="M349.2824,-359.8149C343.1688,-354.4245 336.222,-348.7089 329.4308,-344 314.0694,-333.3484 302.9239,-339.4702 292.4308,-324 265.25,-283.9267 265.903,-225.1104 269.3335,-190.4685"/>
<polygon fill="#000000" stroke="#000000" points="272.8574,-190.4572 270.5132,-180.125 265.9025,-189.664 272.8574,-190.4572"/>
<g id="a_edge42&#45;headlabel"><a xlink:href="dir_000009_000027.html" target="_top" xlink:title="84">
<text text-anchor="middle" x="275.2712" y="-191.8504" font-family="Helvetica,sans-Serif" font-size="10.00" fill="#000000">84</text>
</a>
</g>
</g>
<!-- dir_56d603006930d6f32ca38bb932b49787&#45;&gt;dir_3f96c34ad80e9031c68706862fabf1a4 -->
<g id="edge43" class="edge">
<title>dir_56d603006930d6f32ca38bb932b49787&#45;&gt;dir_3f96c34ad80e9031c68706862fabf1a4</title>
<path fill="none" stroke="#000000" d="M369.742,-359.7614C370.5743,-341.3571 370.5388,-312.2678 364.4308,-288 362.1428,-278.9092 358.245,-269.5289 354.1539,-261.1888"/>
<polygon fill="#000000" stroke="#000000" points="357.2444,-259.5457 349.5282,-252.2855 351.0327,-262.773 357.2444,-259.5457"/>
<g id="a_edge43&#45;headlabel"><a xlink:href="dir_000009_000005.html" target="_top" xlink:title="8">
<text text-anchor="middle" x="361.4211" y="-258.9265" font-family="Helvetica,sans-Serif" font-size="10.00" fill="#000000">8</text>
</a>
</g>
</g>
<!-- dir_56d603006930d6f32ca38bb932b49787&#45;&gt;dir_a0a785b8d726fb513b94381e63693443 -->
<g id="edge44" class="edge">
<title>dir_56d603006930d6f32ca38bb932b49787&#45;&gt;dir_a0a785b8d726fb513b94381e63693443</title>
<path fill="none" stroke="#000000" d="M358.3372,-359.8314C353.8711,-351.7925 348.5234,-342.1666 343.593,-333.2918"/>
<polygon fill="#000000" stroke="#000000" points="346.5765,-331.4551 338.6604,-324.4133 340.4574,-334.8546 346.5765,-331.4551"/>
<g id="a_edge44&#45;headlabel"><a xlink:href="dir_000009_000022.html" target="_top" xlink:title="1">
<text text-anchor="middle" x="350.8041" y="-330.7185" font-family="Helvetica,sans-Serif" font-size="10.00" fill="#000000">1</text>
</a>
</g>
</g>
</g>
</svg>
        <g id="navigator" transform="translate(0 0)" fill="#404254">
                <rect fill="#f2f5e9" fill-opacity="0.5" stroke="#606060" stroke-width=".5" x="0" y="0" width="60" height="60"/>
                <use id="zoomplus" xlink:href="#zoomPlus" x="17" y="9" onmousedown="handleZoom(evt,'in')"/>
                <use id="zoomminus" xlink:href="#zoomMin" x="42" y="9" onmousedown="handleZoom(evt,'out')"/>
                <use id="reset" xlink:href="#resetDef" x="30" y="36" onmousedown="handleReset()"/>
                <g id="arrowUp" xlink:href="#dirArrow" transform="translate(30 24)" onmousedown="handlePan(0,-1)">
                  <use xlink:href="#rim" fill="#404040">
                        <set attributeName="fill" to="#808080" begin="arrowUp.mouseover" end="arrowUp.mouseout"/>
                  </use>
                  <path fill="none" stroke="white" stroke-width="1.5" d="M0,-3.0v7 M-2.5,-0.5L0,-3.0L2.5,-0.5"/>
                </g>
                <g id="arrowRight" xlink:href="#dirArrow" transform="rotate(90) translate(36 -43)" onmousedown="handlePan(1,0)">
                  <use xlink:href="#rim" fill="#404040">
                        <set attributeName="fill" to="#808080" begin="arrowRight.mouseover" end="arrowRight.mouseout"/>
                  </use>
                  <path fill="none" stroke="white" stroke-width="1.5" d="M0,-3.0v7 M-2.5,-0.5L0,-3.0L2.5,-0.5"/>
                </g>
                <g id="arrowDown" xlink:href="#dirArrow" transform="rotate(180) translate(-30 -48)" onmousedown="handlePan(0,1)">
                  <use xlink:href="#rim" fill="#404040">
                        <set attributeName="fill" to="#808080" begin="arrowDown.mouseover" end="arrowDown.mouseout"/>
                  </use>
                  <path fill="none" stroke="white" stroke-width="1.5" d="M0,-3.0v7 M-2.5,-0.5L0,-3.0L2.5,-0.5"/>
                </g>
                <g id="arrowLeft" xlink:href="#dirArrow" transform="rotate(270) translate(-36 17)" onmousedown="handlePan(-1,0)">
                  <use xlink:href="#rim" fill="#404040">
                        <set attributeName="fill" to="#808080" begin="arrowLeft.mouseover" end="arrowLeft.mouseout"/>
                  </use>
                  <path fill="none" stroke="white" stroke-width="1.5" d="M0,-3.0v7 M-2.5,-0.5L0,-3.0L2.5,-0.5"/>
                </g>
        </g>
        <svg viewBox="0 0 15 15" width="100%" height="30px" preserveAspectRatio="xMaxYMin meet">
         <g id="arrow_out" transform="scale(0.3 0.3)">
          <a xlink:href="dir_8c25a664b4b6cfdfb5234e8b61efda61_dep_org.svg" target="_base">
           <rect id="button" ry="5" rx="5" y="6" x="6" height="38" width="38"
                fill="#f2f5e9" fill-opacity="0.5" stroke="#606060" stroke-width="1.0"/>
           <path id="arrow"
             d="M 11.500037,31.436501 C 11.940474,20.09759 22.043105,11.32322 32.158766,21.979434 L 37.068811,17.246167 C 37.068811,17.246167 37.088388,32 37.088388,32 L 22.160133,31.978069 C 22.160133,31.978069 26.997745,27.140456 26.997745,27.140456 C 18.528582,18.264221 13.291696,25.230495 11.500037,31.436501 z"
             style="fill:#404040;"/>
          </a>
         </g>
        </svg>
</svg>
