<?xml version="1.0" encoding="UTF-8" standalone="no"?>
<!DOCTYPE svg PUBLIC "-//W3C//DTD SVG 1.1//EN"
 "http://www.w3.org/Graphics/SVG/1.1/DTD/svg11.dtd">
<!-- Generated by graphviz version 2.40.1 (20161225.0304)
 -->
<!-- Title: libsbmlcs.RenderPoint Pages: 1 -->
<svg width="155pt" height="196pt"
 viewBox="0.00 0.00 155.00 196.00" xmlns="http://www.w3.org/2000/svg" xmlns:xlink="http://www.w3.org/1999/xlink">
<g id="graph0" class="graph" transform="scale(1 1) rotate(0) translate(4 192)">
<title>libsbmlcs.RenderPoint</title>
<polygon fill="#ffffff" stroke="transparent" points="-4,4 -4,-192 151,-192 151,4 -4,4"/>
<!-- Node1 -->
<g id="node1" class="node">
<title>Node1</title>
<polygon fill="#bfbfbf" stroke="#000000" points="15.5,-56.5 15.5,-75.5 131.5,-75.5 131.5,-56.5 15.5,-56.5"/>
<text text-anchor="middle" x="73.5" y="-63.5" font-family="Helvetica,sans-Serif" font-size="10.00" fill="#000000">libsbmlcs.RenderPoint</text>
</g>
<!-- Node4 -->
<g id="node4" class="node">
<title>Node4</title>
<g id="a_node4"><a xlink:href="classlibsbmlcs_1_1_render_cubic_bezier.html" target="_top" xlink:title=" Representation of cubic Bezier curves. ">
<polygon fill="#ffffff" stroke="#000000" points="0,-.5 0,-19.5 147,-19.5 147,-.5 0,-.5"/>
<text text-anchor="middle" x="73.5" y="-7.5" font-family="Helvetica,sans-Serif" font-size="10.00" fill="#000000">libsbmlcs.RenderCubicBezier</text>
</a>
</g>
</g>
<!-- Node1&#45;&gt;Node4 -->
<g id="edge3" class="edge">
<title>Node1&#45;&gt;Node4</title>
<path fill="none" stroke="#191970" d="M73.5,-46.1575C73.5,-37.155 73.5,-26.9199 73.5,-19.6427"/>
<polygon fill="#191970" stroke="#191970" points="70.0001,-46.2455 73.5,-56.2455 77.0001,-46.2456 70.0001,-46.2455"/>
</g>
<!-- Node2 -->
<g id="node2" class="node">
<title>Node2</title>
<g id="a_node2"><a xlink:href="classlibsbmlcs_1_1_s_base.html" target="_top" xlink:title=" SBML&#39;s SBase class, base class of most SBML objects. ">
<polygon fill="#ffffff" stroke="#000000" points="50.5,-112.5 50.5,-131.5 96.5,-131.5 96.5,-112.5 50.5,-112.5"/>
<text text-anchor="middle" x="73.5" y="-119.5" font-family="Helvetica,sans-Serif" font-size="10.00" fill="#000000">SBase</text>
</a>
</g>
</g>
<!-- Node2&#45;&gt;Node1 -->
<g id="edge1" class="edge">
<title>Node2&#45;&gt;Node1</title>
<path fill="none" stroke="#191970" d="M73.5,-102.1575C73.5,-93.155 73.5,-82.9199 73.5,-75.6427"/>
<polygon fill="#191970" stroke="#191970" points="70.0001,-102.2455 73.5,-112.2455 77.0001,-102.2456 70.0001,-102.2455"/>
</g>
<!-- Node3 -->
<g id="node3" class="node">
<title>Node3</title>
<polygon fill="#ffffff" stroke="#bfbfbf" points="6.5,-168.5 6.5,-187.5 140.5,-187.5 140.5,-168.5 6.5,-168.5"/>
<text text-anchor="middle" x="73.5" y="-175.5" font-family="Helvetica,sans-Serif" font-size="10.00" fill="#000000">global::SystemIDisposable</text>
</g>
<!-- Node3&#45;&gt;Node2 -->
<g id="edge2" class="edge">
<title>Node3&#45;&gt;Node2</title>
<path fill="none" stroke="#191970" d="M73.5,-158.1575C73.5,-149.155 73.5,-138.9199 73.5,-131.6427"/>
<polygon fill="#191970" stroke="#191970" points="70.0001,-158.2455 73.5,-168.2455 77.0001,-158.2456 70.0001,-158.2455"/>
</g>
</g>
</svg>
