<?xml version="1.0" encoding="UTF-8" standalone="no"?>
<!DOCTYPE svg PUBLIC "-//W3C//DTD SVG 1.1//EN"
 "http://www.w3.org/Graphics/SVG/1.1/DTD/svg11.dtd">
<!-- Generated by graphviz version 2.40.1 (20161225.0304)
 -->
<!-- Title: libsbmlcs.FbcAssociation Pages: 1 -->
<svg width="363pt" height="196pt"
 viewBox="0.00 0.00 363.00 196.00" xmlns="http://www.w3.org/2000/svg" xmlns:xlink="http://www.w3.org/1999/xlink">
<g id="graph0" class="graph" transform="scale(1 1) rotate(0) translate(4 192)">
<title>libsbmlcs.FbcAssociation</title>
<polygon fill="#ffffff" stroke="transparent" points="-4,4 -4,-192 359,-192 359,4 -4,4"/>
<!-- Node1 -->
<g id="node1" class="node">
<title>Node1</title>
<polygon fill="#bfbfbf" stroke="#000000" points="93.5,-56.5 93.5,-75.5 221.5,-75.5 221.5,-56.5 93.5,-56.5"/>
<text text-anchor="middle" x="157.5" y="-63.5" font-family="Helvetica,sans-Serif" font-size="10.00" fill="#000000">libsbmlcs.FbcAssociation</text>
</g>
<!-- Node4 -->
<g id="node4" class="node">
<title>Node4</title>
<g id="a_node4"><a xlink:href="classlibsbmlcs_1_1_fbc_and.html" target="_top" xlink:title=" An “and” relationship for gene products ">
<polygon fill="#ffffff" stroke="#000000" points="0,-.5 0,-19.5 95,-19.5 95,-.5 0,-.5"/>
<text text-anchor="middle" x="47.5" y="-7.5" font-family="Helvetica,sans-Serif" font-size="10.00" fill="#000000">libsbmlcs.FbcAnd</text>
</a>
</g>
</g>
<!-- Node1&#45;&gt;Node4 -->
<g id="edge3" class="edge">
<title>Node1&#45;&gt;Node4</title>
<path fill="none" stroke="#191970" d="M129.2086,-51.5971C109.4889,-41.558 83.72,-28.4393 66.441,-19.6427"/>
<polygon fill="#191970" stroke="#191970" points="127.8399,-54.8277 138.3395,-56.2455 131.0157,-48.5896 127.8399,-54.8277"/>
</g>
<!-- Node5 -->
<g id="node5" class="node">
<title>Node5</title>
<g id="a_node5"><a xlink:href="classlibsbmlcs_1_1_fbc_or.html" target="_top" xlink:title=" An “or” relationship for gene products ">
<polygon fill="#ffffff" stroke="#000000" points="113.5,-.5 113.5,-19.5 201.5,-19.5 201.5,-.5 113.5,-.5"/>
<text text-anchor="middle" x="157.5" y="-7.5" font-family="Helvetica,sans-Serif" font-size="10.00" fill="#000000">libsbmlcs.FbcOr</text>
</a>
</g>
</g>
<!-- Node1&#45;&gt;Node5 -->
<g id="edge4" class="edge">
<title>Node1&#45;&gt;Node5</title>
<path fill="none" stroke="#191970" d="M157.5,-46.1575C157.5,-37.155 157.5,-26.9199 157.5,-19.6427"/>
<polygon fill="#191970" stroke="#191970" points="154.0001,-46.2455 157.5,-56.2455 161.0001,-46.2456 154.0001,-46.2455"/>
</g>
<!-- Node6 -->
<g id="node6" class="node">
<title>Node6</title>
<g id="a_node6"><a xlink:href="classlibsbmlcs_1_1_gene_product_ref.html" target="_top" xlink:title=" Reference to a gene product of a reaction ">
<polygon fill="#ffffff" stroke="#000000" points="220,-.5 220,-19.5 355,-19.5 355,-.5 220,-.5"/>
<text text-anchor="middle" x="287.5" y="-7.5" font-family="Helvetica,sans-Serif" font-size="10.00" fill="#000000">libsbmlcs.GeneProductRef</text>
</a>
</g>
</g>
<!-- Node1&#45;&gt;Node6 -->
<g id="edge5" class="edge">
<title>Node1&#45;&gt;Node6</title>
<path fill="none" stroke="#191970" d="M189.1102,-52.3833C212.7535,-42.1985 244.4876,-28.5284 265.4438,-19.5011"/>
<polygon fill="#191970" stroke="#191970" points="187.6472,-49.2025 179.8478,-56.3733 190.4166,-55.6314 187.6472,-49.2025"/>
</g>
<!-- Node2 -->
<g id="node2" class="node">
<title>Node2</title>
<g id="a_node2"><a xlink:href="classlibsbmlcs_1_1_s_base.html" target="_top" xlink:title=" SBML&#39;s SBase class, base class of most SBML objects. ">
<polygon fill="#ffffff" stroke="#000000" points="134.5,-112.5 134.5,-131.5 180.5,-131.5 180.5,-112.5 134.5,-112.5"/>
<text text-anchor="middle" x="157.5" y="-119.5" font-family="Helvetica,sans-Serif" font-size="10.00" fill="#000000">SBase</text>
</a>
</g>
</g>
<!-- Node2&#45;&gt;Node1 -->
<g id="edge1" class="edge">
<title>Node2&#45;&gt;Node1</title>
<path fill="none" stroke="#191970" d="M157.5,-102.1575C157.5,-93.155 157.5,-82.9199 157.5,-75.6427"/>
<polygon fill="#191970" stroke="#191970" points="154.0001,-102.2455 157.5,-112.2455 161.0001,-102.2456 154.0001,-102.2455"/>
</g>
<!-- Node3 -->
<g id="node3" class="node">
<title>Node3</title>
<polygon fill="#ffffff" stroke="#bfbfbf" points="90.5,-168.5 90.5,-187.5 224.5,-187.5 224.5,-168.5 90.5,-168.5"/>
<text text-anchor="middle" x="157.5" y="-175.5" font-family="Helvetica,sans-Serif" font-size="10.00" fill="#000000">global::SystemIDisposable</text>
</g>
<!-- Node3&#45;&gt;Node2 -->
<g id="edge2" class="edge">
<title>Node3&#45;&gt;Node2</title>
<path fill="none" stroke="#191970" d="M157.5,-158.1575C157.5,-149.155 157.5,-138.9199 157.5,-131.6427"/>
<polygon fill="#191970" stroke="#191970" points="154.0001,-158.2455 157.5,-168.2455 161.0001,-158.2456 154.0001,-158.2455"/>
</g>
</g>
</svg>
