<?xml version="1.0" encoding="UTF-8" standalone="no"?>
<!DOCTYPE svg PUBLIC "-//W3C//DTD SVG 1.1//EN"
 "http://www.w3.org/Graphics/SVG/1.1/DTD/svg11.dtd">
<!-- Generated by graphviz version 2.40.1 (20161225.0304)
 -->
<!-- Title: libsbmlcs.Transformation2D Pages: 1 -->
<svg width="1057pt" height="180pt"
 viewBox="0.00 0.00 1057.00 180.00" xmlns="http://www.w3.org/2000/svg" xmlns:xlink="http://www.w3.org/1999/xlink">
<g id="graph0" class="graph" transform="scale(1 1) rotate(0) translate(4 176)">
<title>libsbmlcs.Transformation2D</title>
<polygon fill="#ffffff" stroke="transparent" points="-4,4 -4,-176 1053,-176 1053,4 -4,4"/>
<!-- Node1 -->
<g id="node1" class="node">
<title>Node1</title>
<polygon fill="#bfbfbf" stroke="#000000" points="372,-19.5 372,-38.5 512,-38.5 512,-19.5 372,-19.5"/>
<text text-anchor="middle" x="442" y="-26.5" font-family="Helvetica,sans-Serif" font-size="10.00" fill="#000000">libsbmlcs.Transformation2D</text>
</g>
<!-- Node5 -->
<g id="node5" class="node">
<title>Node5</title>
<g id="a_node5"><a xlink:href="classlibsbmlcs_1_1_graphical_primitive1_d.html" target="_top" xlink:title=" Base class for graphical primitives implementing 1D attributes. ">
<polygon fill="#ffffff" stroke="#000000" points="548,-38.5 548,-57.5 702,-57.5 702,-38.5 548,-38.5"/>
<text text-anchor="middle" x="625" y="-45.5" font-family="Helvetica,sans-Serif" font-size="10.00" fill="#000000">libsbmlcs.GraphicalPrimitive1D</text>
</a>
</g>
</g>
<!-- Node1&#45;&gt;Node5 -->
<g id="edge4" class="edge">
<title>Node1&#45;&gt;Node5</title>
<path fill="none" stroke="#191970" d="M522.1926,-37.326C530.748,-38.2143 539.4372,-39.1164 547.955,-40.0008"/>
<polygon fill="#191970" stroke="#191970" points="522.5372,-33.8431 512.2292,-36.2916 521.8143,-40.8056 522.5372,-33.8431"/>
</g>
<!-- Node14 -->
<g id="node14" class="node">
<title>Node14</title>
<g id="a_node14"><a xlink:href="classlibsbmlcs_1_1_image.html" target="_top" xlink:title=" Representation of images. ">
<polygon fill="#ffffff" stroke="#000000" points="581,-.5 581,-19.5 669,-19.5 669,-.5 581,-.5"/>
<text text-anchor="middle" x="625" y="-7.5" font-family="Helvetica,sans-Serif" font-size="10.00" fill="#000000">libsbmlcs.Image</text>
</a>
</g>
</g>
<!-- Node1&#45;&gt;Node14 -->
<g id="edge13" class="edge">
<title>Node1&#45;&gt;Node14</title>
<path fill="none" stroke="#191970" d="M522.3381,-20.6589C542.4438,-18.5714 563.2792,-16.4082 580.8831,-14.5804"/>
<polygon fill="#191970" stroke="#191970" points="521.8143,-17.1944 512.2292,-21.7084 522.5372,-24.1569 521.8143,-17.1944"/>
</g>
<!-- Node2 -->
<g id="node2" class="node">
<title>Node2</title>
<g id="a_node2"><a xlink:href="classlibsbmlcs_1_1_transformation.html" target="_top" xlink:title=" Implementation of a 3D transformation matrix. ">
<polygon fill="#ffffff" stroke="#000000" points="252,-19.5 252,-38.5 336,-38.5 336,-19.5 252,-19.5"/>
<text text-anchor="middle" x="294" y="-26.5" font-family="Helvetica,sans-Serif" font-size="10.00" fill="#000000">Transformation</text>
</a>
</g>
</g>
<!-- Node2&#45;&gt;Node1 -->
<g id="edge1" class="edge">
<title>Node2&#45;&gt;Node1</title>
<path fill="none" stroke="#191970" d="M346.2701,-29C354.5629,-29 363.2552,-29 371.8771,-29"/>
<polygon fill="#191970" stroke="#191970" points="346.015,-25.5001 336.015,-29 346.0149,-32.5001 346.015,-25.5001"/>
</g>
<!-- Node3 -->
<g id="node3" class="node">
<title>Node3</title>
<g id="a_node3"><a xlink:href="classlibsbmlcs_1_1_s_base.html" target="_top" xlink:title=" SBML&#39;s SBase class, base class of most SBML objects. ">
<polygon fill="#ffffff" stroke="#000000" points="170,-19.5 170,-38.5 216,-38.5 216,-19.5 170,-19.5"/>
<text text-anchor="middle" x="193" y="-26.5" font-family="Helvetica,sans-Serif" font-size="10.00" fill="#000000">SBase</text>
</a>
</g>
</g>
<!-- Node3&#45;&gt;Node2 -->
<g id="edge2" class="edge">
<title>Node3&#45;&gt;Node2</title>
<path fill="none" stroke="#191970" d="M226.4162,-29C234.5682,-29 243.3935,-29 251.8926,-29"/>
<polygon fill="#191970" stroke="#191970" points="226.1715,-25.5001 216.1714,-29 226.1714,-32.5001 226.1715,-25.5001"/>
</g>
<!-- Node4 -->
<g id="node4" class="node">
<title>Node4</title>
<polygon fill="#ffffff" stroke="#bfbfbf" points="0,-19.5 0,-38.5 134,-38.5 134,-19.5 0,-19.5"/>
<text text-anchor="middle" x="67" y="-26.5" font-family="Helvetica,sans-Serif" font-size="10.00" fill="#000000">global::SystemIDisposable</text>
</g>
<!-- Node4&#45;&gt;Node3 -->
<g id="edge3" class="edge">
<title>Node4&#45;&gt;Node3</title>
<path fill="none" stroke="#191970" d="M144.2719,-29C153.5643,-29 162.4194,-29 169.9698,-29"/>
<polygon fill="#191970" stroke="#191970" points="144.0581,-25.5001 134.058,-29 144.058,-32.5001 144.0581,-25.5001"/>
</g>
<!-- Node6 -->
<g id="node6" class="node">
<title>Node6</title>
<g id="a_node6"><a xlink:href="classlibsbmlcs_1_1_graphical_primitive2_d.html" target="_top" xlink:title=" Base class for graphical primitives implementing 2D attributes. ">
<polygon fill="#ffffff" stroke="#000000" points="738,-76.5 738,-95.5 892,-95.5 892,-76.5 738,-76.5"/>
<text text-anchor="middle" x="815" y="-83.5" font-family="Helvetica,sans-Serif" font-size="10.00" fill="#000000">libsbmlcs.GraphicalPrimitive2D</text>
</a>
</g>
</g>
<!-- Node5&#45;&gt;Node6 -->
<g id="edge5" class="edge">
<title>Node5&#45;&gt;Node6</title>
<path fill="none" stroke="#191970" d="M683.0475,-59.6095C710.0699,-65.014 741.8176,-71.3635 767.3997,-76.4799"/>
<polygon fill="#191970" stroke="#191970" points="683.4373,-56.1182 672.945,-57.589 682.0644,-62.9823 683.4373,-56.1182"/>
</g>
<!-- Node12 -->
<g id="node12" class="node">
<title>Node12</title>
<g id="a_node12"><a xlink:href="classlibsbmlcs_1_1_render_curve.html" target="_top" xlink:title=" Representation of curves. ">
<polygon fill="#ffffff" stroke="#000000" points="755,-38.5 755,-57.5 875,-57.5 875,-38.5 755,-38.5"/>
<text text-anchor="middle" x="815" y="-45.5" font-family="Helvetica,sans-Serif" font-size="10.00" fill="#000000">libsbmlcs.RenderCurve</text>
</a>
</g>
</g>
<!-- Node5&#45;&gt;Node12 -->
<g id="edge11" class="edge">
<title>Node5&#45;&gt;Node12</title>
<path fill="none" stroke="#191970" d="M712.392,-48C726.7373,-48 741.3155,-48 754.8069,-48"/>
<polygon fill="#191970" stroke="#191970" points="712.0064,-44.5001 702.0064,-48 712.0063,-51.5001 712.0064,-44.5001"/>
</g>
<!-- Node13 -->
<g id="node13" class="node">
<title>Node13</title>
<g id="a_node13"><a xlink:href="classlibsbmlcs_1_1_text.html" target="_top" xlink:title=" Representation of text elements. ">
<polygon fill="#ffffff" stroke="#000000" points="775,-.5 775,-19.5 855,-19.5 855,-.5 775,-.5"/>
<text text-anchor="middle" x="815" y="-7.5" font-family="Helvetica,sans-Serif" font-size="10.00" fill="#000000">libsbmlcs.Text</text>
</a>
</g>
</g>
<!-- Node5&#45;&gt;Node13 -->
<g id="edge12" class="edge">
<title>Node5&#45;&gt;Node13</title>
<path fill="none" stroke="#191970" d="M682.7883,-36.4423C712.5288,-30.4942 748.0482,-23.3904 774.7785,-18.0443"/>
<polygon fill="#191970" stroke="#191970" points="682.0644,-33.0177 672.945,-38.411 683.4373,-39.8818 682.0644,-33.0177"/>
</g>
<!-- Node7 -->
<g id="node7" class="node">
<title>Node7</title>
<g id="a_node7"><a xlink:href="classlibsbmlcs_1_1_ellipse.html" target="_top" xlink:title=" Graphical representation of an ellipse. ">
<polygon fill="#ffffff" stroke="#000000" points="943.5,-152.5 943.5,-171.5 1033.5,-171.5 1033.5,-152.5 943.5,-152.5"/>
<text text-anchor="middle" x="988.5" y="-159.5" font-family="Helvetica,sans-Serif" font-size="10.00" fill="#000000">libsbmlcs.Ellipse</text>
</a>
</g>
</g>
<!-- Node6&#45;&gt;Node7 -->
<g id="edge6" class="edge">
<title>Node6&#45;&gt;Node7</title>
<path fill="none" stroke="#191970" d="M840.7532,-100.5092C863.3007,-112.8413 897.183,-130.4857 928,-143 936.4663,-146.438 945.8023,-149.6439 954.5542,-152.4068"/>
<polygon fill="#191970" stroke="#191970" points="842.272,-97.3497 831.826,-95.5797 838.8882,-103.4775 842.272,-97.3497"/>
</g>
<!-- Node8 -->
<g id="node8" class="node">
<title>Node8</title>
<g id="a_node8"><a xlink:href="classlibsbmlcs_1_1_line_ending.html" target="_top" xlink:title=" Decoration element for the start and/or end of curves. ">
<polygon fill="#ffffff" stroke="#000000" points="933.5,-114.5 933.5,-133.5 1043.5,-133.5 1043.5,-114.5 933.5,-114.5"/>
<text text-anchor="middle" x="988.5" y="-121.5" font-family="Helvetica,sans-Serif" font-size="10.00" fill="#000000">libsbmlcs.LineEnding</text>
</a>
</g>
</g>
<!-- Node6&#45;&gt;Node8 -->
<g id="edge7" class="edge">
<title>Node6&#45;&gt;Node8</title>
<path fill="none" stroke="#191970" d="M868.6598,-97.7526C893.1927,-103.1258 921.8787,-109.4086 945.0335,-114.4799"/>
<polygon fill="#191970" stroke="#191970" points="869.2987,-94.3096 858.7814,-95.589 867.801,-101.1475 869.2987,-94.3096"/>
</g>
<!-- Node9 -->
<g id="node9" class="node">
<title>Node9</title>
<g id="a_node9"><a xlink:href="classlibsbmlcs_1_1_polygon.html" target="_top" xlink:title=" Representation of a Polygon ">
<polygon fill="#ffffff" stroke="#000000" points="940,-76.5 940,-95.5 1037,-95.5 1037,-76.5 940,-76.5"/>
<text text-anchor="middle" x="988.5" y="-83.5" font-family="Helvetica,sans-Serif" font-size="10.00" fill="#000000">libsbmlcs.Polygon</text>
</a>
</g>
</g>
<!-- Node6&#45;&gt;Node9 -->
<g id="edge8" class="edge">
<title>Node6&#45;&gt;Node9</title>
<path fill="none" stroke="#191970" d="M902.3431,-86C915.1247,-86 927.8891,-86 939.5264,-86"/>
<polygon fill="#191970" stroke="#191970" points="902.1101,-82.5001 892.11,-86 902.11,-89.5001 902.1101,-82.5001"/>
</g>
<!-- Node10 -->
<g id="node10" class="node">
<title>Node10</title>
<g id="a_node10"><a xlink:href="classlibsbmlcs_1_1_rectangle.html" target="_top" xlink:title=" Representation of a rectangle. ">
<polygon fill="#ffffff" stroke="#000000" points="936,-38.5 936,-57.5 1041,-57.5 1041,-38.5 936,-38.5"/>
<text text-anchor="middle" x="988.5" y="-45.5" font-family="Helvetica,sans-Serif" font-size="10.00" fill="#000000">libsbmlcs.Rectangle</text>
</a>
</g>
</g>
<!-- Node6&#45;&gt;Node10 -->
<g id="edge9" class="edge">
<title>Node6&#45;&gt;Node10</title>
<path fill="none" stroke="#191970" d="M868.6598,-74.2474C893.1927,-68.8742 921.8787,-62.5914 945.0335,-57.5201"/>
<polygon fill="#191970" stroke="#191970" points="867.801,-70.8525 858.7814,-76.411 869.2987,-77.6904 867.801,-70.8525"/>
</g>
<!-- Node11 -->
<g id="node11" class="node">
<title>Node11</title>
<g id="a_node11"><a xlink:href="classlibsbmlcs_1_1_render_group.html" target="_top" xlink:title=" A group of graphical primitives creating a composite. ">
<polygon fill="#ffffff" stroke="#000000" points="928,-.5 928,-19.5 1049,-19.5 1049,-.5 928,-.5"/>
<text text-anchor="middle" x="988.5" y="-7.5" font-family="Helvetica,sans-Serif" font-size="10.00" fill="#000000">libsbmlcs.RenderGroup</text>
</a>
</g>
</g>
<!-- Node6&#45;&gt;Node11 -->
<g id="edge10" class="edge">
<title>Node6&#45;&gt;Node11</title>
<path fill="none" stroke="#191970" d="M879.7979,-72.9686C884.0379,-71.2219 888.1475,-69.2426 892,-67 912.1059,-55.2959 908.2688,-41.3254 928,-29 934.1626,-25.1505 941.1689,-22.023 948.1742,-19.5011"/>
<polygon fill="#191970" stroke="#191970" points="878.5389,-69.7023 870.3565,-76.4327 880.9501,-76.2739 878.5389,-69.7023"/>
</g>
</g>
</svg>
