<?xml version="1.0" encoding="UTF-8" standalone="no"?>
<!DOCTYPE svg PUBLIC "-//W3C//DTD SVG 1.1//EN"
 "http://www.w3.org/Graphics/SVG/1.1/DTD/svg11.dtd">
<!-- Generated by graphviz version 2.40.1 (20161225.0304)
 -->
<!-- Title: libsbmlcs.CompBase Pages: 1 -->
<svg width="498pt" height="308pt"
 viewBox="0.00 0.00 497.50 308.00" xmlns="http://www.w3.org/2000/svg" xmlns:xlink="http://www.w3.org/1999/xlink">
<g id="graph0" class="graph" transform="scale(1 1) rotate(0) translate(4 304)">
<title>libsbmlcs.CompBase</title>
<polygon fill="#ffffff" stroke="transparent" points="-4,4 -4,-304 493.5,-304 493.5,4 -4,4"/>
<!-- Node1 -->
<g id="node1" class="node">
<title>Node1</title>
<polygon fill="#bfbfbf" stroke="#000000" points="182,-168.5 182,-187.5 292,-187.5 292,-168.5 182,-168.5"/>
<text text-anchor="middle" x="237" y="-175.5" font-family="Helvetica,sans-Serif" font-size="10.00" fill="#000000">libsbmlcs.CompBase</text>
</g>
<!-- Node4 -->
<g id="node4" class="node">
<title>Node4</title>
<g id="a_node4"><a xlink:href="classlibsbmlcs_1_1_external_model_definition.html" target="_top" xlink:title=" A reference to an externally&#45;defined model. ">
<polygon fill="#ffffff" stroke="#000000" points="0,-112.5 0,-131.5 166,-131.5 166,-112.5 0,-112.5"/>
<text text-anchor="middle" x="83" y="-119.5" font-family="Helvetica,sans-Serif" font-size="10.00" fill="#000000">libsbmlcs.ExternalModelDefinition</text>
</a>
</g>
</g>
<!-- Node1&#45;&gt;Node4 -->
<g id="edge3" class="edge">
<title>Node1&#45;&gt;Node4</title>
<path fill="none" stroke="#191970" d="M201.0386,-164.9231C172.8866,-154.686 134.3945,-140.6889 109.1281,-131.5011"/>
<polygon fill="#191970" stroke="#191970" points="199.9324,-168.245 210.5265,-168.3733 202.3246,-161.6665 199.9324,-168.245"/>
</g>
<!-- Node5 -->
<g id="node5" class="node">
<title>Node5</title>
<g id="a_node5"><a xlink:href="classlibsbmlcs_1_1_s_base_ref.html" target="_top" xlink:title=" Base class for references to objects. ">
<polygon fill="#ffffff" stroke="#000000" points="184.5,-112.5 184.5,-131.5 289.5,-131.5 289.5,-112.5 184.5,-112.5"/>
<text text-anchor="middle" x="237" y="-119.5" font-family="Helvetica,sans-Serif" font-size="10.00" fill="#000000">libsbmlcs.SBaseRef</text>
</a>
</g>
</g>
<!-- Node1&#45;&gt;Node5 -->
<g id="edge4" class="edge">
<title>Node1&#45;&gt;Node5</title>
<path fill="none" stroke="#191970" d="M237,-158.1575C237,-149.155 237,-138.9199 237,-131.6427"/>
<polygon fill="#191970" stroke="#191970" points="233.5001,-158.2455 237,-168.2455 240.5001,-158.2456 233.5001,-158.2455"/>
</g>
<!-- Node11 -->
<g id="node11" class="node">
<title>Node11</title>
<g id="a_node11"><a xlink:href="classlibsbmlcs_1_1_submodel.html" target="_top" xlink:title=" A model instance inside another model. ">
<polygon fill="#ffffff" stroke="#000000" points="307.5,-112.5 307.5,-131.5 412.5,-131.5 412.5,-112.5 307.5,-112.5"/>
<text text-anchor="middle" x="360" y="-119.5" font-family="Helvetica,sans-Serif" font-size="10.00" fill="#000000">libsbmlcs.Submodel</text>
</a>
</g>
</g>
<!-- Node1&#45;&gt;Node11 -->
<g id="edge10" class="edge">
<title>Node1&#45;&gt;Node11</title>
<path fill="none" stroke="#191970" d="M267.5065,-164.1109C289.8112,-153.9559 319.4799,-140.4482 339.1315,-131.5011"/>
<polygon fill="#191970" stroke="#191970" points="265.7953,-161.0442 258.1445,-168.3733 268.6959,-167.415 265.7953,-161.0442"/>
</g>
<!-- Node2 -->
<g id="node2" class="node">
<title>Node2</title>
<g id="a_node2"><a xlink:href="classlibsbmlcs_1_1_s_base.html" target="_top" xlink:title=" SBML&#39;s SBase class, base class of most SBML objects. ">
<polygon fill="#ffffff" stroke="#000000" points="214,-224.5 214,-243.5 260,-243.5 260,-224.5 214,-224.5"/>
<text text-anchor="middle" x="237" y="-231.5" font-family="Helvetica,sans-Serif" font-size="10.00" fill="#000000">SBase</text>
</a>
</g>
</g>
<!-- Node2&#45;&gt;Node1 -->
<g id="edge1" class="edge">
<title>Node2&#45;&gt;Node1</title>
<path fill="none" stroke="#191970" d="M237,-214.1575C237,-205.155 237,-194.9199 237,-187.6427"/>
<polygon fill="#191970" stroke="#191970" points="233.5001,-214.2455 237,-224.2455 240.5001,-214.2456 233.5001,-214.2455"/>
</g>
<!-- Node3 -->
<g id="node3" class="node">
<title>Node3</title>
<polygon fill="#ffffff" stroke="#bfbfbf" points="170,-280.5 170,-299.5 304,-299.5 304,-280.5 170,-280.5"/>
<text text-anchor="middle" x="237" y="-287.5" font-family="Helvetica,sans-Serif" font-size="10.00" fill="#000000">global::SystemIDisposable</text>
</g>
<!-- Node3&#45;&gt;Node2 -->
<g id="edge2" class="edge">
<title>Node3&#45;&gt;Node2</title>
<path fill="none" stroke="#191970" d="M237,-270.1575C237,-261.155 237,-250.9199 237,-243.6427"/>
<polygon fill="#191970" stroke="#191970" points="233.5001,-270.2455 237,-280.2455 240.5001,-270.2456 233.5001,-270.2455"/>
</g>
<!-- Node6 -->
<g id="node6" class="node">
<title>Node6</title>
<g id="a_node6"><a xlink:href="classlibsbmlcs_1_1_deletion.html" target="_top" xlink:title=" Deletion of an object from a submodel. ">
<polygon fill="#ffffff" stroke="#000000" points="82.5,-56.5 82.5,-75.5 179.5,-75.5 179.5,-56.5 82.5,-56.5"/>
<text text-anchor="middle" x="131" y="-63.5" font-family="Helvetica,sans-Serif" font-size="10.00" fill="#000000">libsbmlcs.Deletion</text>
</a>
</g>
</g>
<!-- Node5&#45;&gt;Node6 -->
<g id="edge5" class="edge">
<title>Node5&#45;&gt;Node6</title>
<path fill="none" stroke="#191970" d="M209.4778,-107.46C190.5092,-97.4388 165.8273,-84.3993 149.2522,-75.6427"/>
<polygon fill="#191970" stroke="#191970" points="208.0593,-110.669 218.5362,-112.2455 211.3292,-104.4796 208.0593,-110.669"/>
</g>
<!-- Node7 -->
<g id="node7" class="node">
<title>Node7</title>
<g id="a_node7"><a xlink:href="classlibsbmlcs_1_1_port.html" target="_top" xlink:title=" An interface to be used in composition. ">
<polygon fill="#ffffff" stroke="#000000" points="197.5,-56.5 197.5,-75.5 276.5,-75.5 276.5,-56.5 197.5,-56.5"/>
<text text-anchor="middle" x="237" y="-63.5" font-family="Helvetica,sans-Serif" font-size="10.00" fill="#000000">libsbmlcs.Port</text>
</a>
</g>
</g>
<!-- Node5&#45;&gt;Node7 -->
<g id="edge6" class="edge">
<title>Node5&#45;&gt;Node7</title>
<path fill="none" stroke="#191970" d="M237,-102.1575C237,-93.155 237,-82.9199 237,-75.6427"/>
<polygon fill="#191970" stroke="#191970" points="233.5001,-102.2455 237,-112.2455 240.5001,-102.2456 233.5001,-102.2455"/>
</g>
<!-- Node8 -->
<g id="node8" class="node">
<title>Node8</title>
<g id="a_node8"><a xlink:href="classlibsbmlcs_1_1_replacing.html" target="_top" xlink:title=" Convenience class. ">
<polygon fill="#ffffff" stroke="#000000" points="294.5,-56.5 294.5,-75.5 399.5,-75.5 399.5,-56.5 294.5,-56.5"/>
<text text-anchor="middle" x="347" y="-63.5" font-family="Helvetica,sans-Serif" font-size="10.00" fill="#000000">libsbmlcs.Replacing</text>
</a>
</g>
</g>
<!-- Node5&#45;&gt;Node8 -->
<g id="edge7" class="edge">
<title>Node5&#45;&gt;Node8</title>
<path fill="none" stroke="#191970" d="M265.2914,-107.5971C285.0111,-97.558 310.78,-84.4393 328.059,-75.6427"/>
<polygon fill="#191970" stroke="#191970" points="263.4843,-104.5896 256.1605,-112.2455 266.6601,-110.8277 263.4843,-104.5896"/>
</g>
<!-- Node9 -->
<g id="node9" class="node">
<title>Node9</title>
<g id="a_node9"><a xlink:href="classlibsbmlcs_1_1_replaced_by.html" target="_top" xlink:title=" Indicates an object replaced by another. ">
<polygon fill="#ffffff" stroke="#000000" points="218,-.5 218,-19.5 332,-19.5 332,-.5 218,-.5"/>
<text text-anchor="middle" x="275" y="-7.5" font-family="Helvetica,sans-Serif" font-size="10.00" fill="#000000">libsbmlcs.ReplacedBy</text>
</a>
</g>
</g>
<!-- Node8&#45;&gt;Node9 -->
<g id="edge8" class="edge">
<title>Node8&#45;&gt;Node9</title>
<path fill="none" stroke="#191970" d="M326.336,-49.928C313.7511,-40.1397 298.0908,-27.9595 287.3977,-19.6427"/>
<polygon fill="#191970" stroke="#191970" points="324.4162,-52.8688 334.4586,-56.2455 328.7138,-47.3434 324.4162,-52.8688"/>
</g>
<!-- Node10 -->
<g id="node10" class="node">
<title>Node10</title>
<g id="a_node10"><a xlink:href="classlibsbmlcs_1_1_replaced_element.html" target="_top" xlink:title=" Indicates an object replaces another. ">
<polygon fill="#ffffff" stroke="#000000" points="350.5,-.5 350.5,-19.5 489.5,-19.5 489.5,-.5 350.5,-.5"/>
<text text-anchor="middle" x="420" y="-7.5" font-family="Helvetica,sans-Serif" font-size="10.00" fill="#000000">libsbmlcs.ReplacedElement</text>
</a>
</g>
</g>
<!-- Node8&#45;&gt;Node10 -->
<g id="edge9" class="edge">
<title>Node8&#45;&gt;Node10</title>
<path fill="none" stroke="#191970" d="M367.951,-49.928C380.7107,-40.1397 396.5885,-27.9595 407.4301,-19.6427"/>
<polygon fill="#191970" stroke="#191970" points="365.5196,-47.3819 359.7156,-56.2455 369.7803,-52.9359 365.5196,-47.3819"/>
</g>
</g>
</svg>
