<?xml version="1.0" encoding="UTF-8" standalone="no"?>
<!DOCTYPE svg PUBLIC "-//W3C//DTD SVG 1.1//EN"
 "http://www.w3.org/Graphics/SVG/1.1/DTD/svg11.dtd">
<!-- Generated by graphviz version 2.40.1 (20161225.0304)
 -->
<!-- Title: libsbmlcs.Transformation Pages: 1 -->
<!--zoomable 180 -->
<svg id="main" version="1.1" xmlns="http://www.w3.org/2000/svg" xmlns:xlink="http://www.w3.org/1999/xlink" xml:space="preserve" onload="init(evt)">
<style type="text/css"><![CDATA[
.edge:hover path { stroke: red; }
.edge:hover polygon { stroke: red; fill: red; }
]]></style>
<script type="text/javascript"><![CDATA[
var edges = document.getElementsByTagName('g');
if (edges && edges.length) {
  for (var i=0;i<edges.length;i++) {
    if (edges[i].id.substr(0,4)=='edge') {
      edges[i].setAttribute('class','edge');
    }
  }
}
]]></script>
        <defs>
                <circle id="rim" cx="0" cy="0" r="7"/>
                <circle id="rim2" cx="0" cy="0" r="3.5"/>
                <g id="zoomPlus">
                        <use xlink:href="#rim" fill="#404040">
                                <set attributeName="fill" to="#808080" begin="zoomplus.mouseover" end="zoomplus.mouseout"/>
                        </use>
                        <path d="M-4,0h8M0,-4v8" fill="none" stroke="white" stroke-width="1.5" pointer-events="none"/>
                </g>
                <g id="zoomMin">
                        <use xlink:href="#rim" fill="#404040">
                                <set attributeName="fill" to="#808080" begin="zoomminus.mouseover" end="zoomminus.mouseout"/>
                        </use>
                        <path d="M-4,0h8" fill="none" stroke="white" stroke-width="1.5" pointer-events="none"/>
                </g>
                <g id="dirArrow">
                        <path fill="none" stroke="white" stroke-width="1.5" d="M0,-3.0v7 M-2.5,-0.5L0,-3.0L2.5,-0.5"/>
                </g>
               <g id="resetDef">
                       <use xlink:href="#rim2" fill="#404040">
                               <set attributeName="fill" to="#808080" begin="reset.mouseover" end="reset.mouseout"/>
                       </use>
               </g>
        </defs>

<script type="text/javascript">
var viewWidth = 1101;
var viewHeight = 180;
var sectionId = 'dynsection-0';
</script>
<script xlink:href="svgpan.js"/>
<svg id="graph" class="graph">
<g id="viewport">
<title>libsbmlcs.Transformation</title>
<polygon fill="#ffffff" stroke="transparent" points="-4,4 -4,-176 1097,-176 1097,4 -4,4"/>
<!-- Node1 -->
<g id="node1" class="node">
<title>Node1</title>
<polygon fill="#bfbfbf" stroke="#000000" points="252,-19.5 252,-38.5 380,-38.5 380,-19.5 252,-19.5"/>
<text text-anchor="middle" x="316" y="-26.5" font-family="Helvetica,sans-Serif" font-size="10.00" fill="#000000">libsbmlcs.Transformation</text>
</g>
<!-- Node4 -->
<g id="node4" class="node">
<title>Node4</title>
<g id="a_node4"><a xlink:href="classlibsbmlcs_1_1_transformation2_d.html" target="_top" xlink:title=" Implementation of a 2D transformation matrix. ">
<polygon fill="#ffffff" stroke="#000000" points="416,-19.5 416,-38.5 556,-38.5 556,-19.5 416,-19.5"/>
<text text-anchor="middle" x="486" y="-26.5" font-family="Helvetica,sans-Serif" font-size="10.00" fill="#000000">libsbmlcs.Transformation2D</text>
</a>
</g>
</g>
<!-- Node1&#45;&gt;Node4 -->
<g id="edge3" class="edge">
<title>Node1&#45;&gt;Node4</title>
<path fill="none" stroke="#191970" d="M390.4963,-29C398.9564,-29 407.5575,-29 415.9574,-29"/>
<polygon fill="#191970" stroke="#191970" points="390.2697,-25.5001 380.2697,-29 390.2697,-32.5001 390.2697,-25.5001"/>
</g>
<!-- Node2 -->
<g id="node2" class="node">
<title>Node2</title>
<g id="a_node2"><a xlink:href="classlibsbmlcs_1_1_s_base.html" target="_top" xlink:title=" SBML&#39;s SBase class, base class of most SBML objects. ">
<polygon fill="#ffffff" stroke="#000000" points="170,-19.5 170,-38.5 216,-38.5 216,-19.5 170,-19.5"/>
<text text-anchor="middle" x="193" y="-26.5" font-family="Helvetica,sans-Serif" font-size="10.00" fill="#000000">SBase</text>
</a>
</g>
</g>
<!-- Node2&#45;&gt;Node1 -->
<g id="edge1" class="edge">
<title>Node2&#45;&gt;Node1</title>
<path fill="none" stroke="#191970" d="M226.1518,-29C234.181,-29 243.0354,-29 251.9613,-29"/>
<polygon fill="#191970" stroke="#191970" points="226.1354,-25.5001 216.1354,-29 226.1353,-32.5001 226.1354,-25.5001"/>
</g>
<!-- Node3 -->
<g id="node3" class="node">
<title>Node3</title>
<polygon fill="#ffffff" stroke="#bfbfbf" points="0,-19.5 0,-38.5 134,-38.5 134,-19.5 0,-19.5"/>
<text text-anchor="middle" x="67" y="-26.5" font-family="Helvetica,sans-Serif" font-size="10.00" fill="#000000">global::SystemIDisposable</text>
</g>
<!-- Node3&#45;&gt;Node2 -->
<g id="edge2" class="edge">
<title>Node3&#45;&gt;Node2</title>
<path fill="none" stroke="#191970" d="M144.2719,-29C153.5643,-29 162.4194,-29 169.9698,-29"/>
<polygon fill="#191970" stroke="#191970" points="144.0581,-25.5001 134.058,-29 144.058,-32.5001 144.0581,-25.5001"/>
</g>
<!-- Node5 -->
<g id="node5" class="node">
<title>Node5</title>
<g id="a_node5"><a xlink:href="classlibsbmlcs_1_1_graphical_primitive1_d.html" target="_top" xlink:title=" Base class for graphical primitives implementing 1D attributes. ">
<polygon fill="#ffffff" stroke="#000000" points="592,-38.5 592,-57.5 746,-57.5 746,-38.5 592,-38.5"/>
<text text-anchor="middle" x="669" y="-45.5" font-family="Helvetica,sans-Serif" font-size="10.00" fill="#000000">libsbmlcs.GraphicalPrimitive1D</text>
</a>
</g>
</g>
<!-- Node4&#45;&gt;Node5 -->
<g id="edge4" class="edge">
<title>Node4&#45;&gt;Node5</title>
<path fill="none" stroke="#191970" d="M566.1926,-37.326C574.748,-38.2143 583.4372,-39.1164 591.955,-40.0008"/>
<polygon fill="#191970" stroke="#191970" points="566.5372,-33.8431 556.2292,-36.2916 565.8143,-40.8056 566.5372,-33.8431"/>
</g>
<!-- Node14 -->
<g id="node14" class="node">
<title>Node14</title>
<g id="a_node14"><a xlink:href="classlibsbmlcs_1_1_image.html" target="_top" xlink:title=" Representation of images. ">
<polygon fill="#ffffff" stroke="#000000" points="625,-.5 625,-19.5 713,-19.5 713,-.5 625,-.5"/>
<text text-anchor="middle" x="669" y="-7.5" font-family="Helvetica,sans-Serif" font-size="10.00" fill="#000000">libsbmlcs.Image</text>
</a>
</g>
</g>
<!-- Node4&#45;&gt;Node14 -->
<g id="edge13" class="edge">
<title>Node4&#45;&gt;Node14</title>
<path fill="none" stroke="#191970" d="M566.3381,-20.6589C586.4438,-18.5714 607.2792,-16.4082 624.8831,-14.5804"/>
<polygon fill="#191970" stroke="#191970" points="565.8143,-17.1944 556.2292,-21.7084 566.5372,-24.1569 565.8143,-17.1944"/>
</g>
<!-- Node6 -->
<g id="node6" class="node">
<title>Node6</title>
<g id="a_node6"><a xlink:href="classlibsbmlcs_1_1_graphical_primitive2_d.html" target="_top" xlink:title=" Base class for graphical primitives implementing 2D attributes. ">
<polygon fill="#ffffff" stroke="#000000" points="782,-76.5 782,-95.5 936,-95.5 936,-76.5 782,-76.5"/>
<text text-anchor="middle" x="859" y="-83.5" font-family="Helvetica,sans-Serif" font-size="10.00" fill="#000000">libsbmlcs.GraphicalPrimitive2D</text>
</a>
</g>
</g>
<!-- Node5&#45;&gt;Node6 -->
<g id="edge5" class="edge">
<title>Node5&#45;&gt;Node6</title>
<path fill="none" stroke="#191970" d="M727.0475,-59.6095C754.0699,-65.014 785.8176,-71.3635 811.3997,-76.4799"/>
<polygon fill="#191970" stroke="#191970" points="727.4373,-56.1182 716.945,-57.589 726.0644,-62.9823 727.4373,-56.1182"/>
</g>
<!-- Node12 -->
<g id="node12" class="node">
<title>Node12</title>
<g id="a_node12"><a xlink:href="classlibsbmlcs_1_1_render_curve.html" target="_top" xlink:title=" Representation of curves. ">
<polygon fill="#ffffff" stroke="#000000" points="799,-38.5 799,-57.5 919,-57.5 919,-38.5 799,-38.5"/>
<text text-anchor="middle" x="859" y="-45.5" font-family="Helvetica,sans-Serif" font-size="10.00" fill="#000000">libsbmlcs.RenderCurve</text>
</a>
</g>
</g>
<!-- Node5&#45;&gt;Node12 -->
<g id="edge11" class="edge">
<title>Node5&#45;&gt;Node12</title>
<path fill="none" stroke="#191970" d="M756.392,-48C770.7373,-48 785.3155,-48 798.8069,-48"/>
<polygon fill="#191970" stroke="#191970" points="756.0064,-44.5001 746.0064,-48 756.0063,-51.5001 756.0064,-44.5001"/>
</g>
<!-- Node13 -->
<g id="node13" class="node">
<title>Node13</title>
<g id="a_node13"><a xlink:href="classlibsbmlcs_1_1_text.html" target="_top" xlink:title=" Representation of text elements. ">
<polygon fill="#ffffff" stroke="#000000" points="819,-.5 819,-19.5 899,-19.5 899,-.5 819,-.5"/>
<text text-anchor="middle" x="859" y="-7.5" font-family="Helvetica,sans-Serif" font-size="10.00" fill="#000000">libsbmlcs.Text</text>
</a>
</g>
</g>
<!-- Node5&#45;&gt;Node13 -->
<g id="edge12" class="edge">
<title>Node5&#45;&gt;Node13</title>
<path fill="none" stroke="#191970" d="M726.7883,-36.4423C756.5288,-30.4942 792.0482,-23.3904 818.7785,-18.0443"/>
<polygon fill="#191970" stroke="#191970" points="726.0644,-33.0177 716.945,-38.411 727.4373,-39.8818 726.0644,-33.0177"/>
</g>
<!-- Node7 -->
<g id="node7" class="node">
<title>Node7</title>
<g id="a_node7"><a xlink:href="classlibsbmlcs_1_1_ellipse.html" target="_top" xlink:title=" Graphical representation of an ellipse. ">
<polygon fill="#ffffff" stroke="#000000" points="987.5,-152.5 987.5,-171.5 1077.5,-171.5 1077.5,-152.5 987.5,-152.5"/>
<text text-anchor="middle" x="1032.5" y="-159.5" font-family="Helvetica,sans-Serif" font-size="10.00" fill="#000000">libsbmlcs.Ellipse</text>
</a>
</g>
</g>
<!-- Node6&#45;&gt;Node7 -->
<g id="edge6" class="edge">
<title>Node6&#45;&gt;Node7</title>
<path fill="none" stroke="#191970" d="M884.7532,-100.5092C907.3007,-112.8413 941.183,-130.4857 972,-143 980.4663,-146.438 989.8023,-149.6439 998.5542,-152.4068"/>
<polygon fill="#191970" stroke="#191970" points="886.272,-97.3497 875.826,-95.5797 882.8882,-103.4775 886.272,-97.3497"/>
</g>
<!-- Node8 -->
<g id="node8" class="node">
<title>Node8</title>
<g id="a_node8"><a xlink:href="classlibsbmlcs_1_1_line_ending.html" target="_top" xlink:title=" Decoration element for the start and/or end of curves. ">
<polygon fill="#ffffff" stroke="#000000" points="977.5,-114.5 977.5,-133.5 1087.5,-133.5 1087.5,-114.5 977.5,-114.5"/>
<text text-anchor="middle" x="1032.5" y="-121.5" font-family="Helvetica,sans-Serif" font-size="10.00" fill="#000000">libsbmlcs.LineEnding</text>
</a>
</g>
</g>
<!-- Node6&#45;&gt;Node8 -->
<g id="edge7" class="edge">
<title>Node6&#45;&gt;Node8</title>
<path fill="none" stroke="#191970" d="M912.6598,-97.7526C937.1927,-103.1258 965.8787,-109.4086 989.0335,-114.4799"/>
<polygon fill="#191970" stroke="#191970" points="913.2987,-94.3096 902.7814,-95.589 911.801,-101.1475 913.2987,-94.3096"/>
</g>
<!-- Node9 -->
<g id="node9" class="node">
<title>Node9</title>
<g id="a_node9"><a xlink:href="classlibsbmlcs_1_1_polygon.html" target="_top" xlink:title=" Representation of a Polygon ">
<polygon fill="#ffffff" stroke="#000000" points="984,-76.5 984,-95.5 1081,-95.5 1081,-76.5 984,-76.5"/>
<text text-anchor="middle" x="1032.5" y="-83.5" font-family="Helvetica,sans-Serif" font-size="10.00" fill="#000000">libsbmlcs.Polygon</text>
</a>
</g>
</g>
<!-- Node6&#45;&gt;Node9 -->
<g id="edge8" class="edge">
<title>Node6&#45;&gt;Node9</title>
<path fill="none" stroke="#191970" d="M946.3431,-86C959.1247,-86 971.8891,-86 983.5264,-86"/>
<polygon fill="#191970" stroke="#191970" points="946.1101,-82.5001 936.11,-86 946.11,-89.5001 946.1101,-82.5001"/>
</g>
<!-- Node10 -->
<g id="node10" class="node">
<title>Node10</title>
<g id="a_node10"><a xlink:href="classlibsbmlcs_1_1_rectangle.html" target="_top" xlink:title=" Representation of a rectangle. ">
<polygon fill="#ffffff" stroke="#000000" points="980,-38.5 980,-57.5 1085,-57.5 1085,-38.5 980,-38.5"/>
<text text-anchor="middle" x="1032.5" y="-45.5" font-family="Helvetica,sans-Serif" font-size="10.00" fill="#000000">libsbmlcs.Rectangle</text>
</a>
</g>
</g>
<!-- Node6&#45;&gt;Node10 -->
<g id="edge9" class="edge">
<title>Node6&#45;&gt;Node10</title>
<path fill="none" stroke="#191970" d="M912.6598,-74.2474C937.1927,-68.8742 965.8787,-62.5914 989.0335,-57.5201"/>
<polygon fill="#191970" stroke="#191970" points="911.801,-70.8525 902.7814,-76.411 913.2987,-77.6904 911.801,-70.8525"/>
</g>
<!-- Node11 -->
<g id="node11" class="node">
<title>Node11</title>
<g id="a_node11"><a xlink:href="classlibsbmlcs_1_1_render_group.html" target="_top" xlink:title=" A group of graphical primitives creating a composite. ">
<polygon fill="#ffffff" stroke="#000000" points="972,-.5 972,-19.5 1093,-19.5 1093,-.5 972,-.5"/>
<text text-anchor="middle" x="1032.5" y="-7.5" font-family="Helvetica,sans-Serif" font-size="10.00" fill="#000000">libsbmlcs.RenderGroup</text>
</a>
</g>
</g>
<!-- Node6&#45;&gt;Node11 -->
<g id="edge10" class="edge">
<title>Node6&#45;&gt;Node11</title>
<path fill="none" stroke="#191970" d="M923.7979,-72.9686C928.0379,-71.2219 932.1475,-69.2426 936,-67 956.1059,-55.2959 952.2688,-41.3254 972,-29 978.1626,-25.1505 985.1689,-22.023 992.1742,-19.5011"/>
<polygon fill="#191970" stroke="#191970" points="922.5389,-69.7023 914.3565,-76.4327 924.9501,-76.2739 922.5389,-69.7023"/>
</g>
</g>
</svg>
        <g id="navigator" transform="translate(0 0)" fill="#404254">
                <rect fill="#f2f5e9" fill-opacity="0.5" stroke="#606060" stroke-width=".5" x="0" y="0" width="60" height="60"/>
                <use id="zoomplus" xlink:href="#zoomPlus" x="17" y="9" onmousedown="handleZoom(evt,'in')"/>
                <use id="zoomminus" xlink:href="#zoomMin" x="42" y="9" onmousedown="handleZoom(evt,'out')"/>
                <use id="reset" xlink:href="#resetDef" x="30" y="36" onmousedown="handleReset()"/>
                <g id="arrowUp" xlink:href="#dirArrow" transform="translate(30 24)" onmousedown="handlePan(0,-1)">
                  <use xlink:href="#rim" fill="#404040">
                        <set attributeName="fill" to="#808080" begin="arrowUp.mouseover" end="arrowUp.mouseout"/>
                  </use>
                  <path fill="none" stroke="white" stroke-width="1.5" d="M0,-3.0v7 M-2.5,-0.5L0,-3.0L2.5,-0.5"/>
                </g>
                <g id="arrowRight" xlink:href="#dirArrow" transform="rotate(90) translate(36 -43)" onmousedown="handlePan(1,0)">
                  <use xlink:href="#rim" fill="#404040">
                        <set attributeName="fill" to="#808080" begin="arrowRight.mouseover" end="arrowRight.mouseout"/>
                  </use>
                  <path fill="none" stroke="white" stroke-width="1.5" d="M0,-3.0v7 M-2.5,-0.5L0,-3.0L2.5,-0.5"/>
                </g>
                <g id="arrowDown" xlink:href="#dirArrow" transform="rotate(180) translate(-30 -48)" onmousedown="handlePan(0,1)">
                  <use xlink:href="#rim" fill="#404040">
                        <set attributeName="fill" to="#808080" begin="arrowDown.mouseover" end="arrowDown.mouseout"/>
                  </use>
                  <path fill="none" stroke="white" stroke-width="1.5" d="M0,-3.0v7 M-2.5,-0.5L0,-3.0L2.5,-0.5"/>
                </g>
                <g id="arrowLeft" xlink:href="#dirArrow" transform="rotate(270) translate(-36 17)" onmousedown="handlePan(-1,0)">
                  <use xlink:href="#rim" fill="#404040">
                        <set attributeName="fill" to="#808080" begin="arrowLeft.mouseover" end="arrowLeft.mouseout"/>
                  </use>
                  <path fill="none" stroke="white" stroke-width="1.5" d="M0,-3.0v7 M-2.5,-0.5L0,-3.0L2.5,-0.5"/>
                </g>
        </g>
        <svg viewBox="0 0 15 15" width="100%" height="30px" preserveAspectRatio="xMaxYMin meet">
         <g id="arrow_out" transform="scale(0.3 0.3)">
          <a xlink:href="classlibsbmlcs_1_1_transformation__inherit__graph_org.svg" target="_base">
           <rect id="button" ry="5" rx="5" y="6" x="6" height="38" width="38"
                fill="#f2f5e9" fill-opacity="0.5" stroke="#606060" stroke-width="1.0"/>
           <path id="arrow"
             d="M 11.500037,31.436501 C 11.940474,20.09759 22.043105,11.32322 32.158766,21.979434 L 37.068811,17.246167 C 37.068811,17.246167 37.088388,32 37.088388,32 L 22.160133,31.978069 C 22.160133,31.978069 26.997745,27.140456 26.997745,27.140456 C 18.528582,18.264221 13.291696,25.230495 11.500037,31.436501 z"
             style="fill:#404040;"/>
          </a>
         </g>
        </svg>
</svg>
