<?xml version="1.0" encoding="UTF-8" standalone="no"?>
<!DOCTYPE svg PUBLIC "-//W3C//DTD SVG 1.1//EN"
 "http://www.w3.org/Graphics/SVG/1.1/DTD/svg11.dtd">
<!-- Generated by graphviz version 2.40.1 (20161225.0304)
 -->
<!-- Title: libsbmlcs.GroupsPkgNamespaces Pages: 1 -->
<svg width="177pt" height="140pt"
 viewBox="0.00 0.00 177.00 140.00" xmlns="http://www.w3.org/2000/svg" xmlns:xlink="http://www.w3.org/1999/xlink">
<g id="graph0" class="graph" transform="scale(1 1) rotate(0) translate(4 136)">
<title>libsbmlcs.GroupsPkgNamespaces</title>
<polygon fill="#ffffff" stroke="transparent" points="-4,4 -4,-136 173,-136 173,4 -4,4"/>
<!-- Node1 -->
<g id="node1" class="node">
<title>Node1</title>
<polygon fill="#bfbfbf" stroke="#000000" points="0,-.5 0,-19.5 169,-19.5 169,-.5 0,-.5"/>
<text text-anchor="middle" x="84.5" y="-7.5" font-family="Helvetica,sans-Serif" font-size="10.00" fill="#000000">libsbmlcs.GroupsPkgNamespaces</text>
</g>
<!-- Node2 -->
<g id="node2" class="node">
<title>Node2</title>
<g id="a_node2"><a xlink:href="classlibsbmlcs_1_1_s_b_m_l_namespaces.html" target="_top" xlink:title=" Set of SBML Level + Version + namespace triples. ">
<polygon fill="#ffffff" stroke="#000000" points="33.5,-56.5 33.5,-75.5 135.5,-75.5 135.5,-56.5 33.5,-56.5"/>
<text text-anchor="middle" x="84.5" y="-63.5" font-family="Helvetica,sans-Serif" font-size="10.00" fill="#000000">SBMLNamespaces</text>
</a>
</g>
</g>
<!-- Node2&#45;&gt;Node1 -->
<g id="edge1" class="edge">
<title>Node2&#45;&gt;Node1</title>
<path fill="none" stroke="#191970" d="M84.5,-46.1575C84.5,-37.155 84.5,-26.9199 84.5,-19.6427"/>
<polygon fill="#191970" stroke="#191970" points="81.0001,-46.2455 84.5,-56.2455 88.0001,-46.2456 81.0001,-46.2455"/>
</g>
<!-- Node3 -->
<g id="node3" class="node">
<title>Node3</title>
<polygon fill="#ffffff" stroke="#bfbfbf" points="17.5,-112.5 17.5,-131.5 151.5,-131.5 151.5,-112.5 17.5,-112.5"/>
<text text-anchor="middle" x="84.5" y="-119.5" font-family="Helvetica,sans-Serif" font-size="10.00" fill="#000000">global::SystemIDisposable</text>
</g>
<!-- Node3&#45;&gt;Node2 -->
<g id="edge2" class="edge">
<title>Node3&#45;&gt;Node2</title>
<path fill="none" stroke="#191970" d="M84.5,-102.1575C84.5,-93.155 84.5,-82.9199 84.5,-75.6427"/>
<polygon fill="#191970" stroke="#191970" points="81.0001,-102.2455 84.5,-112.2455 88.0001,-102.2456 81.0001,-102.2455"/>
</g>
</g>
</svg>
