<?xml version="1.0" encoding="UTF-8" standalone="no"?>
<!DOCTYPE svg PUBLIC "-//W3C//DTD SVG 1.1//EN"
 "http://www.w3.org/Graphics/SVG/1.1/DTD/svg11.dtd">
<!-- Generated by graphviz version 2.40.1 (20161225.0304)
 -->
<!-- Title: libsbmlcs.ListOfSpeciesTypeComponentIndexes Pages: 1 -->
<svg width="152pt" height="207pt"
 viewBox="0.00 0.00 152.00 207.00" xmlns="http://www.w3.org/2000/svg" xmlns:xlink="http://www.w3.org/1999/xlink">
<g id="graph0" class="graph" transform="scale(1 1) rotate(0) translate(4 203)">
<title>libsbmlcs.ListOfSpeciesTypeComponentIndexes</title>
<polygon fill="#ffffff" stroke="transparent" points="-4,4 -4,-203 148,-203 148,4 -4,4"/>
<!-- Node1 -->
<g id="node1" class="node">
<title>Node1</title>
<polygon fill="#bfbfbf" stroke="#000000" points="0,-.5 0,-30.5 144,-30.5 144,-.5 0,-.5"/>
<text text-anchor="start" x="8" y="-18.5" font-family="Helvetica,sans-Serif" font-size="10.00" fill="#000000">libsbmlcs.ListOfSpeciesType</text>
<text text-anchor="middle" x="72" y="-7.5" font-family="Helvetica,sans-Serif" font-size="10.00" fill="#000000">ComponentIndexes</text>
</g>
<!-- Node2 -->
<g id="node2" class="node">
<title>Node2</title>
<g id="a_node2"><a xlink:href="classlibsbmlcs_1_1_list_of.html" target="_top" xlink:title=" Parent class for libSBML&#39;s &#39;ListOfXYZ&#39; classes. ">
<polygon fill="#ffffff" stroke="#000000" points="50.5,-67.5 50.5,-86.5 93.5,-86.5 93.5,-67.5 50.5,-67.5"/>
<text text-anchor="middle" x="72" y="-74.5" font-family="Helvetica,sans-Serif" font-size="10.00" fill="#000000">ListOf</text>
</a>
</g>
</g>
<!-- Node2&#45;&gt;Node1 -->
<g id="edge1" class="edge">
<title>Node2&#45;&gt;Node1</title>
<path fill="none" stroke="#191970" d="M72,-57.3693C72,-48.681 72,-38.6241 72,-30.5446"/>
<polygon fill="#191970" stroke="#191970" points="68.5001,-57.3906 72,-67.3906 75.5001,-57.3907 68.5001,-57.3906"/>
</g>
<!-- Node3 -->
<g id="node3" class="node">
<title>Node3</title>
<g id="a_node3"><a xlink:href="classlibsbmlcs_1_1_s_base.html" target="_top" xlink:title=" SBML&#39;s SBase class, base class of most SBML objects. ">
<polygon fill="#ffffff" stroke="#000000" points="49,-123.5 49,-142.5 95,-142.5 95,-123.5 49,-123.5"/>
<text text-anchor="middle" x="72" y="-130.5" font-family="Helvetica,sans-Serif" font-size="10.00" fill="#000000">SBase</text>
</a>
</g>
</g>
<!-- Node3&#45;&gt;Node2 -->
<g id="edge2" class="edge">
<title>Node3&#45;&gt;Node2</title>
<path fill="none" stroke="#191970" d="M72,-113.1575C72,-104.155 72,-93.9199 72,-86.6427"/>
<polygon fill="#191970" stroke="#191970" points="68.5001,-113.2455 72,-123.2455 75.5001,-113.2456 68.5001,-113.2455"/>
</g>
<!-- Node4 -->
<g id="node4" class="node">
<title>Node4</title>
<polygon fill="#ffffff" stroke="#bfbfbf" points="5,-179.5 5,-198.5 139,-198.5 139,-179.5 5,-179.5"/>
<text text-anchor="middle" x="72" y="-186.5" font-family="Helvetica,sans-Serif" font-size="10.00" fill="#000000">global::SystemIDisposable</text>
</g>
<!-- Node4&#45;&gt;Node3 -->
<g id="edge3" class="edge">
<title>Node4&#45;&gt;Node3</title>
<path fill="none" stroke="#191970" d="M72,-169.1575C72,-160.155 72,-149.9199 72,-142.6427"/>
<polygon fill="#191970" stroke="#191970" points="68.5001,-169.2455 72,-179.2455 75.5001,-169.2456 68.5001,-169.2455"/>
</g>
</g>
</svg>
