<?xml version="1.0" encoding="UTF-8" standalone="no"?>
<!DOCTYPE svg PUBLIC "-//W3C//DTD SVG 1.1//EN"
 "http://www.w3.org/Graphics/SVG/1.1/DTD/svg11.dtd">
<!-- Generated by graphviz version 2.40.1 (20161225.0304)
 -->
<!-- Title: libsbmlcs.CompSBasePlugin Pages: 1 -->
<svg width="152pt" height="196pt"
 viewBox="0.00 0.00 152.00 196.00" xmlns="http://www.w3.org/2000/svg" xmlns:xlink="http://www.w3.org/1999/xlink">
<g id="graph0" class="graph" transform="scale(1 1) rotate(0) translate(4 192)">
<title>libsbmlcs.CompSBasePlugin</title>
<polygon fill="#ffffff" stroke="transparent" points="-4,4 -4,-192 148,-192 148,4 -4,4"/>
<!-- Node1 -->
<g id="node1" class="node">
<title>Node1</title>
<polygon fill="#bfbfbf" stroke="#000000" points="0,-56.5 0,-75.5 144,-75.5 144,-56.5 0,-56.5"/>
<text text-anchor="middle" x="72" y="-63.5" font-family="Helvetica,sans-Serif" font-size="10.00" fill="#000000">libsbmlcs.CompSBasePlugin</text>
</g>
<!-- Node4 -->
<g id="node4" class="node">
<title>Node4</title>
<g id="a_node4"><a xlink:href="classlibsbmlcs_1_1_comp_model_plugin.html" target="_top" xlink:title=" Extension of Model. ">
<polygon fill="#ffffff" stroke="#000000" points="1,-.5 1,-19.5 143,-19.5 143,-.5 1,-.5"/>
<text text-anchor="middle" x="72" y="-7.5" font-family="Helvetica,sans-Serif" font-size="10.00" fill="#000000">libsbmlcs.CompModelPlugin</text>
</a>
</g>
</g>
<!-- Node1&#45;&gt;Node4 -->
<g id="edge3" class="edge">
<title>Node1&#45;&gt;Node4</title>
<path fill="none" stroke="#191970" d="M72,-46.1575C72,-37.155 72,-26.9199 72,-19.6427"/>
<polygon fill="#191970" stroke="#191970" points="68.5001,-46.2455 72,-56.2455 75.5001,-46.2456 68.5001,-46.2455"/>
</g>
<!-- Node2 -->
<g id="node2" class="node">
<title>Node2</title>
<g id="a_node2"><a xlink:href="classlibsbmlcs_1_1_s_base_plugin.html" target="_top" xlink:title=" Base class for extending SBML objects in packages. ">
<polygon fill="#ffffff" stroke="#000000" points="35,-112.5 35,-131.5 109,-131.5 109,-112.5 35,-112.5"/>
<text text-anchor="middle" x="72" y="-119.5" font-family="Helvetica,sans-Serif" font-size="10.00" fill="#000000">SBasePlugin</text>
</a>
</g>
</g>
<!-- Node2&#45;&gt;Node1 -->
<g id="edge1" class="edge">
<title>Node2&#45;&gt;Node1</title>
<path fill="none" stroke="#191970" d="M72,-102.1575C72,-93.155 72,-82.9199 72,-75.6427"/>
<polygon fill="#191970" stroke="#191970" points="68.5001,-102.2455 72,-112.2455 75.5001,-102.2456 68.5001,-102.2455"/>
</g>
<!-- Node3 -->
<g id="node3" class="node">
<title>Node3</title>
<polygon fill="#ffffff" stroke="#bfbfbf" points="5,-168.5 5,-187.5 139,-187.5 139,-168.5 5,-168.5"/>
<text text-anchor="middle" x="72" y="-175.5" font-family="Helvetica,sans-Serif" font-size="10.00" fill="#000000">global::SystemIDisposable</text>
</g>
<!-- Node3&#45;&gt;Node2 -->
<g id="edge2" class="edge">
<title>Node3&#45;&gt;Node2</title>
<path fill="none" stroke="#191970" d="M72,-158.1575C72,-149.155 72,-138.9199 72,-131.6427"/>
<polygon fill="#191970" stroke="#191970" points="68.5001,-158.2455 72,-168.2455 75.5001,-158.2456 68.5001,-158.2455"/>
</g>
</g>
</svg>
