<?xml version="1.0" encoding="UTF-8" standalone="no"?>
<!DOCTYPE svg PUBLIC "-//W3C//DTD SVG 1.1//EN"
 "http://www.w3.org/Graphics/SVG/1.1/DTD/svg11.dtd">
<!-- Generated by graphviz version 2.40.1 (20161225.0304)
 -->
<!-- Title: libsbmlcs.SpeciesReferenceGlyph Pages: 1 -->
<svg width="150pt" height="207pt"
 viewBox="0.00 0.00 150.00 207.00" xmlns="http://www.w3.org/2000/svg" xmlns:xlink="http://www.w3.org/1999/xlink">
<g id="graph0" class="graph" transform="scale(1 1) rotate(0) translate(4 203)">
<title>libsbmlcs.SpeciesReferenceGlyph</title>
<polygon fill="#ffffff" stroke="transparent" points="-4,4 -4,-203 146,-203 146,4 -4,4"/>
<!-- Node1 -->
<g id="node1" class="node">
<title>Node1</title>
<polygon fill="#bfbfbf" stroke="#000000" points="0,-.5 0,-30.5 142,-30.5 142,-.5 0,-.5"/>
<text text-anchor="start" x="8" y="-18.5" font-family="Helvetica,sans-Serif" font-size="10.00" fill="#000000">libsbmlcs.SpeciesReference</text>
<text text-anchor="middle" x="71" y="-7.5" font-family="Helvetica,sans-Serif" font-size="10.00" fill="#000000">Glyph</text>
</g>
<!-- Node2 -->
<g id="node2" class="node">
<title>Node2</title>
<g id="a_node2"><a xlink:href="classlibsbmlcs_1_1_graphical_object.html" target="_top" xlink:title=" Base class of objects that store layouts. ">
<polygon fill="#ffffff" stroke="#000000" points="27,-67.5 27,-86.5 115,-86.5 115,-67.5 27,-67.5"/>
<text text-anchor="middle" x="71" y="-74.5" font-family="Helvetica,sans-Serif" font-size="10.00" fill="#000000">GraphicalObject</text>
</a>
</g>
</g>
<!-- Node2&#45;&gt;Node1 -->
<g id="edge1" class="edge">
<title>Node2&#45;&gt;Node1</title>
<path fill="none" stroke="#191970" d="M71,-57.3693C71,-48.681 71,-38.6241 71,-30.5446"/>
<polygon fill="#191970" stroke="#191970" points="67.5001,-57.3906 71,-67.3906 74.5001,-57.3907 67.5001,-57.3906"/>
</g>
<!-- Node3 -->
<g id="node3" class="node">
<title>Node3</title>
<g id="a_node3"><a xlink:href="classlibsbmlcs_1_1_s_base.html" target="_top" xlink:title=" SBML&#39;s SBase class, base class of most SBML objects. ">
<polygon fill="#ffffff" stroke="#000000" points="48,-123.5 48,-142.5 94,-142.5 94,-123.5 48,-123.5"/>
<text text-anchor="middle" x="71" y="-130.5" font-family="Helvetica,sans-Serif" font-size="10.00" fill="#000000">SBase</text>
</a>
</g>
</g>
<!-- Node3&#45;&gt;Node2 -->
<g id="edge2" class="edge">
<title>Node3&#45;&gt;Node2</title>
<path fill="none" stroke="#191970" d="M71,-113.1575C71,-104.155 71,-93.9199 71,-86.6427"/>
<polygon fill="#191970" stroke="#191970" points="67.5001,-113.2455 71,-123.2455 74.5001,-113.2456 67.5001,-113.2455"/>
</g>
<!-- Node4 -->
<g id="node4" class="node">
<title>Node4</title>
<polygon fill="#ffffff" stroke="#bfbfbf" points="4,-179.5 4,-198.5 138,-198.5 138,-179.5 4,-179.5"/>
<text text-anchor="middle" x="71" y="-186.5" font-family="Helvetica,sans-Serif" font-size="10.00" fill="#000000">global::SystemIDisposable</text>
</g>
<!-- Node4&#45;&gt;Node3 -->
<g id="edge3" class="edge">
<title>Node4&#45;&gt;Node3</title>
<path fill="none" stroke="#191970" d="M71,-169.1575C71,-160.155 71,-149.9199 71,-142.6427"/>
<polygon fill="#191970" stroke="#191970" points="67.5001,-169.2455 71,-179.2455 74.5001,-169.2456 67.5001,-169.2455"/>
</g>
</g>
</svg>
