<?xml version="1.0" encoding="UTF-8" standalone="no"?>
<!DOCTYPE svg PUBLIC "-//W3C//DTD SVG 1.1//EN"
 "http://www.w3.org/Graphics/SVG/1.1/DTD/svg11.dtd">
<!-- Generated by graphviz version 2.40.1 (20161225.0304)
 -->
<!-- Title: ASTNode.h Pages: 1 -->
<!--zoomable 912 -->
<svg id="main" version="1.1" xmlns="http://www.w3.org/2000/svg" xmlns:xlink="http://www.w3.org/1999/xlink" xml:space="preserve" onload="init(evt)">
<style type="text/css"><![CDATA[
.edge:hover path { stroke: red; }
.edge:hover polygon { stroke: red; fill: red; }
]]></style>
<script type="text/javascript"><![CDATA[
var edges = document.getElementsByTagName('g');
if (edges && edges.length) {
  for (var i=0;i<edges.length;i++) {
    if (edges[i].id.substr(0,4)=='edge') {
      edges[i].setAttribute('class','edge');
    }
  }
}
]]></script>
        <defs>
                <circle id="rim" cx="0" cy="0" r="7"/>
                <circle id="rim2" cx="0" cy="0" r="3.5"/>
                <g id="zoomPlus">
                        <use xlink:href="#rim" fill="#404040">
                                <set attributeName="fill" to="#808080" begin="zoomplus.mouseover" end="zoomplus.mouseout"/>
                        </use>
                        <path d="M-4,0h8M0,-4v8" fill="none" stroke="white" stroke-width="1.5" pointer-events="none"/>
                </g>
                <g id="zoomMin">
                        <use xlink:href="#rim" fill="#404040">
                                <set attributeName="fill" to="#808080" begin="zoomminus.mouseover" end="zoomminus.mouseout"/>
                        </use>
                        <path d="M-4,0h8" fill="none" stroke="white" stroke-width="1.5" pointer-events="none"/>
                </g>
                <g id="dirArrow">
                        <path fill="none" stroke="white" stroke-width="1.5" d="M0,-3.0v7 M-2.5,-0.5L0,-3.0L2.5,-0.5"/>
                </g>
               <g id="resetDef">
                       <use xlink:href="#rim2" fill="#404040">
                               <set attributeName="fill" to="#808080" begin="reset.mouseover" end="reset.mouseout"/>
                       </use>
               </g>
        </defs>

<script type="text/javascript">
var viewWidth = 3306;
var viewHeight = 912;
var sectionId = 'dynsection-0';
</script>
<script xlink:href="svgpan.js"/>
<svg id="graph" class="graph">
<g id="viewport">
<title>ASTNode.h</title>
<polygon fill="#ffffff" stroke="transparent" points="-4,4 -4,-908 3302,-908 3302,4 -4,4"/>
<!-- Node1 -->
<g id="node1" class="node">
<title>Node1</title>
<polygon fill="#bfbfbf" stroke="#000000" points="442,-884.5 442,-903.5 510,-903.5 510,-884.5 442,-884.5"/>
<text text-anchor="middle" x="476" y="-891.5" font-family="Helvetica,sans-Serif" font-size="10.00" fill="#000000">ASTNode.h</text>
</g>
<!-- Node2 -->
<g id="node2" class="node">
<title>Node2</title>
<g id="a_node2"><a xlink:href="extern_8h.html" target="_top" xlink:title="Definitions of LIBSBML_EXTERN and related things. ">
<polygon fill="#ffffff" stroke="#000000" points="835,-67.5 835,-86.5 953,-86.5 953,-67.5 835,-67.5"/>
<text text-anchor="middle" x="894" y="-74.5" font-family="Helvetica,sans-Serif" font-size="10.00" fill="#000000">sbml/common/extern.h</text>
</a>
</g>
</g>
<!-- Node1&#45;&gt;Node2 -->
<g id="edge1" class="edge">
<title>Node1&#45;&gt;Node2</title>
<path fill="none" stroke="#191970" d="M441.8817,-893.1763C355.3388,-890.6197 129.4303,-880.8951 63,-848 26.6597,-830.0049 0,-822.5518 0,-782 0,-782 0,-782 0,-390 0,-260.0807 2.7346,-180.9772 119,-123 181.2306,-91.9679 646.7577,-81.0747 824.9237,-78.0174"/>
<polygon fill="#191970" stroke="#191970" points="825.0302,-81.5162 834.9698,-77.8481 824.9122,-74.5172 825.0302,-81.5162"/>
</g>
<!-- Node4 -->
<g id="node4" class="node">
<title>Node4</title>
<g id="a_node4"><a xlink:href="sbmlfwd_8h.html" target="_top" xlink:title="Forward declarations for all opaque C types. ">
<polygon fill="#ffffff" stroke="#000000" points="2534.5,-263 2534.5,-282 2661.5,-282 2661.5,-263 2534.5,-263"/>
<text text-anchor="middle" x="2598" y="-270" font-family="Helvetica,sans-Serif" font-size="10.00" fill="#000000">sbml/common/sbmlfwd.h</text>
</a>
</g>
</g>
<!-- Node1&#45;&gt;Node4 -->
<g id="edge3" class="edge">
<title>Node1&#45;&gt;Node4</title>
<path fill="none" stroke="#191970" d="M510.2148,-893.4718C818.4922,-888.6051 3106,-850.1946 3106,-782 3106,-782 3106,-782 3106,-558 3106,-361.2199 2812.7377,-298.649 2671.8514,-279.9433"/>
<polygon fill="#191970" stroke="#191970" points="2671.9325,-276.4249 2661.5676,-278.6199 2671.0391,-283.3677 2671.9325,-276.4249"/>
</g>
<!-- Node8 -->
<g id="node8" class="node">
<title>Node8</title>
<g id="a_node8"><a xlink:href="_a_s_t_node_type_8h.html" target="_top" xlink:title="Enumeration for Abstract Syntax Tree (AST). ">
<polygon fill="#ffffff" stroke="#000000" points="333.5,-716.5 333.5,-735.5 472.5,-735.5 472.5,-716.5 333.5,-716.5"/>
<text text-anchor="middle" x="403" y="-723.5" font-family="Helvetica,sans-Serif" font-size="10.00" fill="#000000">sbml/math/ASTNodeType.h</text>
</a>
</g>
</g>
<!-- Node1&#45;&gt;Node8 -->
<g id="edge10" class="edge">
<title>Node1&#45;&gt;Node8</title>
<path fill="none" stroke="#191970" d="M444.4968,-884.3744C427.1841,-877.2912 407.204,-865.7494 397,-848 378.5039,-815.827 388.0992,-770.6299 396.023,-745.2495"/>
<polygon fill="#191970" stroke="#191970" points="399.3705,-746.2751 399.2298,-735.6812 392.7334,-744.0506 399.3705,-746.2751"/>
</g>
<!-- Node9 -->
<g id="node9" class="node">
<title>Node9</title>
<g id="a_node9"><a xlink:href="_formula_tokenizer_8h.html" target="_top" xlink:title="Tokenizes an SBML formula string. ">
<polygon fill="#ffffff" stroke="#000000" points="202,-772.5 202,-791.5 356,-791.5 356,-772.5 202,-772.5"/>
<text text-anchor="middle" x="279" y="-779.5" font-family="Helvetica,sans-Serif" font-size="10.00" fill="#000000">sbml/math/FormulaTokenizer.h</text>
</a>
</g>
</g>
<!-- Node1&#45;&gt;Node9 -->
<g id="edge13" class="edge">
<title>Node1&#45;&gt;Node9</title>
<path fill="none" stroke="#191970" d="M446.4446,-884.3392C423.2514,-876.1802 390.5573,-863.3814 364,-848 339.2186,-833.6471 313.64,-812.8205 297.1032,-798.4181"/>
<polygon fill="#191970" stroke="#191970" points="299.14,-795.5468 289.3319,-791.5404 294.5009,-800.7888 299.14,-795.5468"/>
</g>
<!-- Node10 -->
<g id="node10" class="node">
<title>Node10</title>
<g id="a_node10"><a xlink:href="_formula_formatter_8h.html" target="_top" xlink:title="Formats an AST formula tree as an SBML formula string. ">
<polygon fill="#ffffff" stroke="#000000" points="72,-828.5 72,-847.5 226,-847.5 226,-828.5 72,-828.5"/>
<text text-anchor="middle" x="149" y="-835.5" font-family="Helvetica,sans-Serif" font-size="10.00" fill="#000000">sbml/math/FormulaFormatter.h</text>
</a>
</g>
</g>
<!-- Node1&#45;&gt;Node10 -->
<g id="edge15" class="edge">
<title>Node1&#45;&gt;Node10</title>
<path fill="none" stroke="#191970" d="M441.7095,-888.832C386.5784,-879.8952 277.8489,-861.3565 209.4939,-849.3094"/>
<polygon fill="#191970" stroke="#191970" points="209.7554,-845.8014 199.2988,-847.5076 208.537,-852.6946 209.7554,-845.8014"/>
</g>
<!-- Node12 -->
<g id="node12" class="node">
<title>Node12</title>
<g id="a_node12"><a xlink:href="_formula_parser_8h.html" target="_top" xlink:title="Parses an SBML formula string into an AST. ">
<polygon fill="#ffffff" stroke="#000000" points="406,-828.5 406,-847.5 546,-847.5 546,-828.5 406,-828.5"/>
<text text-anchor="middle" x="476" y="-835.5" font-family="Helvetica,sans-Serif" font-size="10.00" fill="#000000">sbml/math/FormulaParser.h</text>
</a>
</g>
</g>
<!-- Node1&#45;&gt;Node12 -->
<g id="edge19" class="edge">
<title>Node1&#45;&gt;Node12</title>
<path fill="none" stroke="#191970" d="M470.7332,-884.2455C469.3221,-876.9382 468.9179,-866.6944 469.5205,-857.7046"/>
<polygon fill="#191970" stroke="#191970" points="473.0111,-857.9945 470.7549,-847.6427 466.0632,-857.1421 473.0111,-857.9945"/>
</g>
<!-- Node14 -->
<g id="node14" class="node">
<title>Node14</title>
<g id="a_node14"><a xlink:href="_x_m_l_attributes_8h.html" target="_top" xlink:title="XMLAttributes are a list of name/value pairs for XML elements. ">
<polygon fill="#ffffff" stroke="#000000" points="2022,-380.5 2022,-399.5 2152,-399.5 2152,-380.5 2022,-380.5"/>
<text text-anchor="middle" x="2087" y="-387.5" font-family="Helvetica,sans-Serif" font-size="10.00" fill="#000000">sbml/xml/XMLAttributes.h</text>
</a>
</g>
</g>
<!-- Node1&#45;&gt;Node14 -->
<g id="edge25" class="edge">
<title>Node1&#45;&gt;Node14</title>
<path fill="none" stroke="#191970" d="M510.2828,-893.039C722.9039,-886.7342 1855.6871,-848.0052 1955,-736 1960.8973,-729.3491 1958.9007,-723.9873 1955,-716 1925.8179,-656.2444 1873.7297,-679.4369 1837,-624 1790.7715,-554.2264 1764.7665,-493.0604 1826,-436 1852.3746,-411.4228 1944.2577,-399.6981 2011.567,-394.3003"/>
<polygon fill="#191970" stroke="#191970" points="2012.0246,-397.7755 2021.7264,-393.5182 2011.4872,-390.7962 2012.0246,-397.7755"/>
</g>
<!-- Node16 -->
<g id="node16" class="node">
<title>Node16</title>
<g id="a_node16"><a xlink:href="operation_return_values_8h.html" target="_top" xlink:title="Enumeration of values returned by operations within libSBML. ">
<polygon fill="#ffffff" stroke="#000000" points="1313.5,-257.5 1313.5,-287.5 1466.5,-287.5 1466.5,-257.5 1313.5,-257.5"/>
<text text-anchor="start" x="1321.5" y="-275.5" font-family="Helvetica,sans-Serif" font-size="10.00" fill="#000000">sbml/common/operationReturn</text>
<text text-anchor="middle" x="1390" y="-264.5" font-family="Helvetica,sans-Serif" font-size="10.00" fill="#000000">Values.h</text>
</a>
</g>
</g>
<!-- Node1&#45;&gt;Node16 -->
<g id="edge145" class="edge">
<title>Node1&#45;&gt;Node16</title>
<path fill="none" stroke="#191970" d="M505.6815,-884.4854C523.0302,-877.3071 543.6801,-865.628 555,-848 586.8532,-798.3962 546.3258,-770.8214 568,-716 639.5576,-535.0065 1004.8344,-327.4435 1013,-324 1039.1767,-312.9611 1200.4008,-293.5038 1303.3599,-281.9261"/>
<polygon fill="#191970" stroke="#191970" points="1303.8964,-285.388 1313.4445,-280.7964 1303.117,-278.4316 1303.8964,-285.388"/>
</g>
<!-- Node21 -->
<g id="node21" class="node">
<title>Node21</title>
<g id="a_node21"><a xlink:href="_syntax_checker_8h.html" target="_top" xlink:title="Syntax checking functions. ">
<polygon fill="#ffffff" stroke="#000000" points="899.5,-828.5 899.5,-847.5 1016.5,-847.5 1016.5,-828.5 899.5,-828.5"/>
<text text-anchor="middle" x="958" y="-835.5" font-family="Helvetica,sans-Serif" font-size="10.00" fill="#000000">sbml/SyntaxChecker.h</text>
</a>
</g>
</g>
<!-- Node1&#45;&gt;Node21 -->
<g id="edge38" class="edge">
<title>Node1&#45;&gt;Node21</title>
<path fill="none" stroke="#191970" d="M510.2778,-890.0175C589.0595,-880.8645 784.2797,-858.1833 889.0062,-846.0159"/>
<polygon fill="#191970" stroke="#191970" points="889.6304,-849.467 899.1596,-844.8362 888.8225,-842.5138 889.6304,-849.467"/>
</g>
<!-- Node50 -->
<g id="node50" class="node">
<title>Node50</title>
<g id="a_node50"><a xlink:href="_a_s_t_base_plugin_8h.html" target="_top" xlink:title="sbml/extension/ASTBasePlugin.h">
<polygon fill="#ffffff" stroke="#000000" points="3134,-828.5 3134,-847.5 3298,-847.5 3298,-828.5 3134,-828.5"/>
<text text-anchor="middle" x="3216" y="-835.5" font-family="Helvetica,sans-Serif" font-size="10.00" fill="#000000">sbml/extension/ASTBasePlugin.h</text>
</a>
</g>
</g>
<!-- Node1&#45;&gt;Node50 -->
<g id="edge146" class="edge">
<title>Node1&#45;&gt;Node50</title>
<path fill="none" stroke="#191970" d="M510.2533,-893.8122C780.903,-892.2675 2578.1138,-880.8754 3120,-848 3121.2701,-847.9229 3122.5494,-847.8417 3123.8361,-847.7565"/>
<polygon fill="#191970" stroke="#191970" points="3124.0989,-851.2467 3133.8194,-847.032 3123.5923,-844.265 3124.0989,-851.2467"/>
</g>
<!-- Node3 -->
<g id="node3" class="node">
<title>Node3</title>
<g id="a_node3"><a xlink:href="libsbml-namespace_8h.html" target="_top" xlink:title="Defines C++ namespace of libSBML. ">
<polygon fill="#ffffff" stroke="#000000" points="2465.5,-.5 2465.5,-30.5 2578.5,-30.5 2578.5,-.5 2465.5,-.5"/>
<text text-anchor="start" x="2473.5" y="-18.5" font-family="Helvetica,sans-Serif" font-size="10.00" fill="#000000">sbml/common/libsbml</text>
<text text-anchor="middle" x="2522" y="-7.5" font-family="Helvetica,sans-Serif" font-size="10.00" fill="#000000">&#45;namespace.h</text>
</a>
</g>
</g>
<!-- Node2&#45;&gt;Node3 -->
<g id="edge2" class="edge">
<title>Node2&#45;&gt;Node3</title>
<path fill="none" stroke="#191970" d="M953.3868,-74.7566C1205.7783,-65.2221 2188.6369,-28.0933 2455.0636,-18.0286"/>
<polygon fill="#191970" stroke="#191970" points="2455.494,-21.5149 2465.3547,-17.6399 2455.2297,-14.5199 2455.494,-21.5149"/>
</g>
<!-- Node4&#45;&gt;Node3 -->
<g id="edge4" class="edge">
<title>Node4&#45;&gt;Node3</title>
<path fill="none" stroke="#191970" d="M2661.7617,-269.0159C2770.8161,-262.3999 2983.6308,-246.3703 3006,-221 3051.2657,-169.6614 3051.7655,-117.8936 3006,-67 2978.6243,-36.5568 2715.3138,-22.6919 2588.981,-17.7517"/>
<polygon fill="#191970" stroke="#191970" points="2588.7863,-14.2418 2578.6595,-17.3561 2588.5181,-21.2367 2588.7863,-14.2418"/>
</g>
<!-- Node5 -->
<g id="node5" class="node">
<title>Node5</title>
<g id="a_node5"><a xlink:href="libsbml-config_8h.html" target="_top" xlink:title="Decides whether to #include Unix or Windows configuration variables. ">
<polygon fill="#ffffff" stroke="#000000" points="968.5,-190.5 968.5,-220.5 1081.5,-220.5 1081.5,-190.5 968.5,-190.5"/>
<text text-anchor="start" x="976.5" y="-208.5" font-family="Helvetica,sans-Serif" font-size="10.00" fill="#000000">sbml/common/libsbml</text>
<text text-anchor="middle" x="1025" y="-197.5" font-family="Helvetica,sans-Serif" font-size="10.00" fill="#000000">&#45;config.h</text>
</a>
</g>
</g>
<!-- Node4&#45;&gt;Node5 -->
<g id="edge5" class="edge">
<title>Node4&#45;&gt;Node5</title>
<path fill="none" stroke="#191970" d="M2534.2292,-268.7369C2476.8807,-265.4172 2390.3232,-260.5661 2315,-257 1846.7384,-234.8307 1282.5561,-214.5104 1091.7465,-207.8155"/>
<polygon fill="#191970" stroke="#191970" points="1091.713,-204.3123 1081.5965,-207.4599 1091.4678,-211.308 1091.713,-204.3123"/>
</g>
<!-- Node5&#45;&gt;Node3 -->
<g id="edge6" class="edge">
<title>Node5&#45;&gt;Node3</title>
<path fill="none" stroke="#191970" d="M1081.8562,-198.2838C1315.874,-168.5821 2204.1251,-55.8448 2455.4084,-23.9518"/>
<polygon fill="#191970" stroke="#191970" points="2456.0075,-27.404 2465.4872,-22.6726 2455.1261,-20.4597 2456.0075,-27.404"/>
</g>
<!-- Node6 -->
<g id="node6" class="node">
<title>Node6</title>
<g id="a_node6"><a xlink:href="libsbml-config-common_8h.html" target="_top" xlink:title="Configuration variables. ">
<polygon fill="#ffffff" stroke="#000000" points="968.5,-123.5 968.5,-153.5 1081.5,-153.5 1081.5,-123.5 968.5,-123.5"/>
<text text-anchor="start" x="976.5" y="-141.5" font-family="Helvetica,sans-Serif" font-size="10.00" fill="#000000">sbml/common/libsbml</text>
<text text-anchor="middle" x="1025" y="-130.5" font-family="Helvetica,sans-Serif" font-size="10.00" fill="#000000">&#45;config&#45;common.h</text>
</a>
</g>
</g>
<!-- Node5&#45;&gt;Node6 -->
<g id="edge7" class="edge">
<title>Node5&#45;&gt;Node6</title>
<path fill="none" stroke="#191970" d="M1025,-190.2967C1025,-182.5013 1025,-172.7991 1025,-163.9064"/>
<polygon fill="#191970" stroke="#191970" points="1028.5001,-163.6431 1025,-153.6432 1021.5001,-163.6432 1028.5001,-163.6431"/>
</g>
<!-- Node7 -->
<g id="node7" class="node">
<title>Node7</title>
<g id="a_node7"><a xlink:href="libsbml-version_8h.html" target="_top" xlink:title="Define libSBML version numbers for access from client software. ">
<polygon fill="#ffffff" stroke="#000000" points="837.5,-123.5 837.5,-153.5 950.5,-153.5 950.5,-123.5 837.5,-123.5"/>
<text text-anchor="start" x="845.5" y="-141.5" font-family="Helvetica,sans-Serif" font-size="10.00" fill="#000000">sbml/common/libsbml</text>
<text text-anchor="middle" x="894" y="-130.5" font-family="Helvetica,sans-Serif" font-size="10.00" fill="#000000">&#45;version.h</text>
</a>
</g>
</g>
<!-- Node5&#45;&gt;Node7 -->
<g id="edge8" class="edge">
<title>Node5&#45;&gt;Node7</title>
<path fill="none" stroke="#191970" d="M995.601,-190.4639C977.0226,-180.9619 952.809,-168.5779 932.6801,-158.283"/>
<polygon fill="#191970" stroke="#191970" points="934.251,-155.1552 923.7541,-153.7177 931.0635,-161.3874 934.251,-155.1552"/>
</g>
<!-- Node7&#45;&gt;Node2 -->
<g id="edge9" class="edge">
<title>Node7&#45;&gt;Node2</title>
<path fill="none" stroke="#191970" d="M894,-123.2977C894,-115.3834 894,-105.6043 894,-97.0759"/>
<polygon fill="#191970" stroke="#191970" points="897.5001,-96.8469 894,-86.8469 890.5001,-96.847 897.5001,-96.8469"/>
</g>
<!-- Node8&#45;&gt;Node2 -->
<g id="edge12" class="edge">
<title>Node8&#45;&gt;Node2</title>
<path fill="none" stroke="#191970" d="M411.4375,-716.2711C426.625,-697.723 457,-655.4461 457,-614 457,-614 457,-614 457,-205.5 457,-165.6701 460.0943,-146.8421 492,-123 518.0299,-103.5487 716.4403,-88.1846 824.4472,-81.1609"/>
<polygon fill="#191970" stroke="#191970" points="824.8538,-84.6421 834.6085,-80.5074 824.4044,-77.6565 824.8538,-84.6421"/>
</g>
<!-- Node8&#45;&gt;Node3 -->
<g id="edge11" class="edge">
<title>Node8&#45;&gt;Node3</title>
<path fill="none" stroke="#191970" d="M361.2707,-716.4756C289.8978,-698.964 152,-659.2723 152,-614 152,-614 152,-614 152,-502 152,-353.9151 0,-353.5849 0,-205.5 0,-205.5 0,-205.5 0,-138.5 0,45.742 641.9886,-76.2146 826,-67 1459.4837,-35.2776 2227.1186,-20.4855 2455.1086,-16.5851"/>
<polygon fill="#191970" stroke="#191970" points="2455.2969,-20.0825 2465.2359,-16.413 2455.1779,-13.0835 2455.2969,-20.0825"/>
</g>
<!-- Node9&#45;&gt;Node2 -->
<g id="edge14" class="edge">
<title>Node9&#45;&gt;Node2</title>
<path fill="none" stroke="#191970" d="M235.2162,-772.38C186.3342,-758.7571 114,-728.684 114,-670 114,-670 114,-670 114,-205.5 114,-133.8232 633.4193,-93.5577 824.5235,-81.169"/>
<polygon fill="#191970" stroke="#191970" points="824.9779,-84.6471 834.733,-80.5134 824.5293,-77.6615 824.9779,-84.6471"/>
</g>
<!-- Node10&#45;&gt;Node1 -->
<g id="edge18" class="edge">
<title>Node10&#45;&gt;Node1</title>
<path fill="none" stroke="#191970" d="M209.8886,-847.5328C274.4163,-858.2219 374.5954,-875.3915 431.9151,-885.5963"/>
<polygon fill="#191970" stroke="#191970" points="431.2993,-889.0416 441.7592,-887.3562 432.5313,-882.1508 431.2993,-889.0416"/>
</g>
<!-- Node10&#45;&gt;Node2 -->
<g id="edge16" class="edge">
<title>Node10&#45;&gt;Node2</title>
<path fill="none" stroke="#191970" d="M115.3214,-828.3469C96.0343,-821.2104 72.799,-809.6236 58,-792 38.2896,-768.5275 38,-756.6506 38,-726 38,-726 38,-726 38,-446 38,-367.061 76,-351.439 76,-272.5 76,-272.5 76,-272.5 76,-205.5 76,-184.6773 -15.0944,-192.3972 223,-123 334.2533,-90.5731 676.3591,-80.777 824.4607,-78.012"/>
<polygon fill="#191970" stroke="#191970" points="824.848,-81.5057 834.7829,-77.8249 824.7211,-74.5068 824.848,-81.5057"/>
</g>
<!-- Node11 -->
<g id="node11" class="node">
<title>Node11</title>
<g id="a_node11"><a xlink:href="_string_buffer_8h.html" target="_top" xlink:title="sbml/util/StringBuffer.h">
<polygon fill="#ffffff" stroke="#000000" points="66.5,-772.5 66.5,-791.5 183.5,-791.5 183.5,-772.5 66.5,-772.5"/>
<text text-anchor="middle" x="125" y="-779.5" font-family="Helvetica,sans-Serif" font-size="10.00" fill="#000000">sbml/util/StringBuffer.h</text>
</a>
</g>
</g>
<!-- Node10&#45;&gt;Node11 -->
<g id="edge17" class="edge">
<title>Node10&#45;&gt;Node11</title>
<path fill="none" stroke="#191970" d="M144.8195,-828.2455C141.619,-820.7776 137.104,-810.2427 133.1916,-801.1137"/>
<polygon fill="#191970" stroke="#191970" points="136.2888,-799.4554 129.1326,-791.6427 129.8548,-802.2129 136.2888,-799.4554"/>
</g>
<!-- Node12&#45;&gt;Node1 -->
<g id="edge23" class="edge">
<title>Node12&#45;&gt;Node1</title>
<path fill="none" stroke="#191970" d="M481.2451,-847.6427C482.6665,-854.9199 483.081,-865.155 482.4887,-874.1575"/>
<polygon fill="#191970" stroke="#191970" points="478.9947,-873.8972 481.2668,-884.2455 485.9439,-874.739 478.9947,-873.8972"/>
</g>
<!-- Node12&#45;&gt;Node2 -->
<g id="edge21" class="edge">
<title>Node12&#45;&gt;Node2</title>
<path fill="none" stroke="#191970" d="M546.0004,-835.9144C959.8142,-823.4733 3068,-758.4971 3068,-726 3068,-726 3068,-726 3068,-558 3068,-481.4471 3106,-466.5529 3106,-390 3106,-390 3106,-390 3106,-272.5 3106,-143.4187 2984.304,-144.3463 2857,-123 2667.5813,-91.2384 1290.3672,-79.749 963.4661,-77.454"/>
<polygon fill="#191970" stroke="#191970" points="963.2153,-73.9523 953.1912,-77.3825 963.1665,-80.9521 963.2153,-73.9523"/>
</g>
<!-- Node12&#45;&gt;Node8 -->
<g id="edge20" class="edge">
<title>Node12&#45;&gt;Node8</title>
<path fill="none" stroke="#191970" d="M468.4058,-828.3385C461.3099,-819.1714 450.5561,-804.915 442,-792 431.5897,-776.2862 420.7617,-757.7592 413.1643,-744.341"/>
<polygon fill="#191970" stroke="#191970" points="416.1991,-742.597 408.2553,-735.5866 410.0935,-746.0207 416.1991,-742.597"/>
</g>
<!-- Node12&#45;&gt;Node9 -->
<g id="edge24" class="edge">
<title>Node12&#45;&gt;Node9</title>
<path fill="none" stroke="#191970" d="M442.1345,-828.3733C408.951,-818.9404 358.245,-804.5265 322.1806,-794.2747"/>
<polygon fill="#191970" stroke="#191970" points="322.9995,-790.8689 312.4236,-791.5011 321.0855,-797.6021 322.9995,-790.8689"/>
</g>
<!-- Node13 -->
<g id="node13" class="node">
<title>Node13</title>
<g id="a_node13"><a xlink:href="_stack_8h.html" target="_top" xlink:title="sbml/util/Stack.h">
<polygon fill="#ffffff" stroke="#000000" points="450.5,-772.5 450.5,-791.5 539.5,-791.5 539.5,-772.5 450.5,-772.5"/>
<text text-anchor="middle" x="495" y="-779.5" font-family="Helvetica,sans-Serif" font-size="10.00" fill="#000000">sbml/util/Stack.h</text>
</a>
</g>
</g>
<!-- Node12&#45;&gt;Node13 -->
<g id="edge22" class="edge">
<title>Node12&#45;&gt;Node13</title>
<path fill="none" stroke="#191970" d="M479.3095,-828.2455C481.8433,-820.7776 485.4177,-810.2427 488.515,-801.1137"/>
<polygon fill="#191970" stroke="#191970" points="491.8298,-802.237 491.7284,-791.6427 485.2009,-799.9879 491.8298,-802.237"/>
</g>
<!-- Node14&#45;&gt;Node4 -->
<g id="edge28" class="edge">
<title>Node14&#45;&gt;Node4</title>
<path fill="none" stroke="#191970" d="M2137.4057,-380.4148C2183.2984,-371.5278 2252.8684,-357.6551 2313,-344 2397.7644,-324.7511 2495.9528,-299.4499 2552.1421,-284.6812"/>
<polygon fill="#191970" stroke="#191970" points="2553.3537,-287.9815 2562.1324,-282.0499 2551.5708,-281.2123 2553.3537,-287.9815"/>
</g>
<!-- Node15 -->
<g id="node15" class="node">
<title>Node15</title>
<g id="a_node15"><a xlink:href="_x_m_l_extern_8h.html" target="_top" xlink:title="Defines LIBLAX_EXTERN. ">
<polygon fill="#ffffff" stroke="#000000" points="2188.5,-263 2188.5,-282 2305.5,-282 2305.5,-263 2188.5,-263"/>
<text text-anchor="middle" x="2247" y="-270" font-family="Helvetica,sans-Serif" font-size="10.00" fill="#000000">sbml/xml/XMLExtern.h</text>
</a>
</g>
</g>
<!-- Node14&#45;&gt;Node15 -->
<g id="edge26" class="edge">
<title>Node14&#45;&gt;Node15</title>
<path fill="none" stroke="#191970" d="M2100.0935,-380.3845C2127.6352,-360.1585 2191.7905,-313.0445 2225.4736,-288.3085"/>
<polygon fill="#191970" stroke="#191970" points="2227.7372,-290.9885 2233.7256,-282.2484 2223.5938,-285.3465 2227.7372,-290.9885"/>
</g>
<!-- Node14&#45;&gt;Node16 -->
<g id="edge29" class="edge">
<title>Node14&#45;&gt;Node16</title>
<path fill="none" stroke="#191970" d="M2021.9253,-381.5688C2017.2151,-381.0181 2012.5359,-380.489 2008,-380 1828.7715,-360.6777 1780.468,-380.8134 1604,-344 1544.5897,-331.6063 1478.7083,-308.0257 1435.9485,-291.3383"/>
<polygon fill="#191970" stroke="#191970" points="1436.978,-287.9822 1426.3911,-287.5728 1434.412,-294.4949 1436.978,-287.9822"/>
</g>
<!-- Node17 -->
<g id="node17" class="node">
<title>Node17</title>
<polygon fill="#ffffff" stroke="#bfbfbf" points="1875.5,-263 1875.5,-282 1916.5,-282 1916.5,-263 1875.5,-263"/>
<text text-anchor="middle" x="1896" y="-270" font-family="Helvetica,sans-Serif" font-size="10.00" fill="#000000">string</text>
</g>
<!-- Node14&#45;&gt;Node17 -->
<g id="edge31" class="edge">
<title>Node14&#45;&gt;Node17</title>
<path fill="none" stroke="#191970" d="M2079.8802,-380.2324C2069.1609,-366.1268 2047.6036,-339.9956 2024,-324 1993.5817,-303.3861 1953.6569,-288.9848 1926.5411,-280.7524"/>
<polygon fill="#191970" stroke="#191970" points="1927.4034,-277.3579 1916.8225,-277.8992 1925.4316,-284.0744 1927.4034,-277.3579"/>
</g>
<!-- Node18 -->
<g id="node18" class="node">
<title>Node18</title>
<polygon fill="#ffffff" stroke="#bfbfbf" points="1541,-263 1541,-282 1585,-282 1585,-263 1541,-263"/>
<text text-anchor="middle" x="1563" y="-270" font-family="Helvetica,sans-Serif" font-size="10.00" fill="#000000">vector</text>
</g>
<!-- Node14&#45;&gt;Node18 -->
<g id="edge32" class="edge">
<title>Node14&#45;&gt;Node18</title>
<path fill="none" stroke="#191970" d="M2021.9208,-381.6094C2017.2117,-381.0491 2012.5339,-380.5068 2008,-380 1925.681,-370.798 1712.2055,-378.7163 1637,-344 1611.1714,-332.077 1588.8426,-307.3214 1575.6534,-290.3114"/>
<polygon fill="#191970" stroke="#191970" points="1578.4072,-288.1495 1569.6194,-282.2313 1572.7986,-292.3379 1578.4072,-288.1495"/>
</g>
<!-- Node19 -->
<g id="node19" class="node">
<title>Node19</title>
<polygon fill="#ffffff" stroke="#bfbfbf" points="1264.5,-324.5 1264.5,-343.5 1323.5,-343.5 1323.5,-324.5 1264.5,-324.5"/>
<text text-anchor="middle" x="1294" y="-331.5" font-family="Helvetica,sans-Serif" font-size="10.00" fill="#000000">stdexcept</text>
</g>
<!-- Node14&#45;&gt;Node19 -->
<g id="edge33" class="edge">
<title>Node14&#45;&gt;Node19</title>
<path fill="none" stroke="#191970" d="M2021.7685,-385.3935C1863.389,-374.2091 1462.1508,-345.8745 1333.999,-336.8246"/>
<polygon fill="#191970" stroke="#191970" points="1334.0717,-333.3212 1323.85,-336.1079 1333.5786,-340.3038 1334.0717,-333.3212"/>
</g>
<!-- Node20 -->
<g id="node20" class="node">
<title>Node20</title>
<g id="a_node20"><a xlink:href="_x_m_l_triple_8h.html" target="_top" xlink:title="Stores an XML namespace triple. ">
<polygon fill="#ffffff" stroke="#000000" points="2190.5,-324.5 2190.5,-343.5 2303.5,-343.5 2303.5,-324.5 2190.5,-324.5"/>
<text text-anchor="middle" x="2247" y="-331.5" font-family="Helvetica,sans-Serif" font-size="10.00" fill="#000000">sbml/xml/XMLTriple.h</text>
</a>
</g>
</g>
<!-- Node14&#45;&gt;Node20 -->
<g id="edge34" class="edge">
<title>Node14&#45;&gt;Node20</title>
<path fill="none" stroke="#191970" d="M2114.505,-380.3733C2140.8802,-371.1419 2180.8851,-357.1402 2210.0358,-346.9375"/>
<polygon fill="#191970" stroke="#191970" points="2211.5716,-350.1082 2219.8539,-343.5011 2209.2591,-343.5012 2211.5716,-350.1082"/>
</g>
<!-- Node15&#45;&gt;Node3 -->
<g id="edge27" class="edge">
<title>Node15&#45;&gt;Node3</title>
<path fill="none" stroke="#191970" d="M2257.4445,-262.7391C2297.3617,-225.4347 2440.8986,-91.2929 2498.1647,-37.7752"/>
<polygon fill="#191970" stroke="#191970" points="2500.7365,-40.1622 2505.6529,-30.7771 2495.9569,-35.0479 2500.7365,-40.1622"/>
</g>
<!-- Node16&#45;&gt;Node2 -->
<g id="edge30" class="edge">
<title>Node16&#45;&gt;Node2</title>
<path fill="none" stroke="#191970" d="M1372.5229,-257.3151C1336.1125,-226.5699 1248.3212,-156.9962 1162,-123 1097.3894,-97.5542 1018.5471,-86.1631 963.1591,-81.0764"/>
<polygon fill="#191970" stroke="#191970" points="963.3652,-77.5812 953.0986,-80.198 962.7562,-84.5546 963.3652,-77.5812"/>
</g>
<!-- Node20&#45;&gt;Node4 -->
<g id="edge36" class="edge">
<title>Node20&#45;&gt;Node4</title>
<path fill="none" stroke="#191970" d="M2301.4586,-324.4581C2364.1893,-313.4668 2467.1473,-295.4272 2533.7441,-283.7585"/>
<polygon fill="#191970" stroke="#191970" points="2534.4565,-287.1871 2543.7024,-282.0137 2533.2484,-280.2921 2534.4565,-287.1871"/>
</g>
<!-- Node20&#45;&gt;Node15 -->
<g id="edge35" class="edge">
<title>Node20&#45;&gt;Node15</title>
<path fill="none" stroke="#191970" d="M2247,-324.3906C2247,-315.8657 2247,-303.1392 2247,-292.4235"/>
<polygon fill="#191970" stroke="#191970" points="2250.5001,-292.2448 2247,-282.2449 2243.5001,-292.2449 2250.5001,-292.2448"/>
</g>
<!-- Node20&#45;&gt;Node17 -->
<g id="edge37" class="edge">
<title>Node20&#45;&gt;Node17</title>
<path fill="none" stroke="#191970" d="M2192.5414,-324.4581C2117.8829,-311.3769 1986.2446,-288.3121 1926.7375,-277.8856"/>
<polygon fill="#191970" stroke="#191970" points="1927.2809,-274.4276 1916.8269,-276.1492 1926.0727,-281.3226 1927.2809,-274.4276"/>
</g>
<!-- Node21&#45;&gt;Node2 -->
<g id="edge39" class="edge">
<title>Node21&#45;&gt;Node2</title>
<path fill="none" stroke="#191970" d="M899.2053,-829.4299C862.0435,-822.5492 813.7118,-810.8496 774,-792 615.4551,-716.745 506,-677.4987 506,-502 506,-502 506,-502 506,-205.5 506,-153.172 543.1879,-146.3847 590,-123 630.0447,-102.9959 748.1038,-89.4589 824.7659,-82.5014"/>
<polygon fill="#191970" stroke="#191970" points="825.1811,-85.9783 834.8307,-81.604 824.5594,-79.006 825.1811,-85.9783"/>
</g>
<!-- Node21&#45;&gt;Node17 -->
<g id="edge144" class="edge">
<title>Node21&#45;&gt;Node17</title>
<path fill="none" stroke="#191970" d="M1016.5709,-834.7574C1085.9267,-829.8761 1204.4662,-818.243 1303,-792 1477.7935,-745.4463 1636,-738.8867 1636,-558 1636,-558 1636,-558 1636,-502 1636,-390.1094 1750.8651,-421.0496 1832,-344 1850.1772,-326.7381 1869.0966,-305.067 1881.606,-290.1333"/>
<polygon fill="#191970" stroke="#191970" points="1884.4914,-292.1367 1888.1766,-282.2034 1879.1013,-287.6705 1884.4914,-292.1367"/>
</g>
<!-- Node22 -->
<g id="node22" class="node">
<title>Node22</title>
<g id="a_node22"><a xlink:href="_s_base_8h.html" target="_top" xlink:title="Definition of SBase, the base object of all SBML objects. ">
<polygon fill="#ffffff" stroke="#000000" points="1216,-772.5 1216,-791.5 1294,-791.5 1294,-772.5 1216,-772.5"/>
<text text-anchor="middle" x="1255" y="-779.5" font-family="Helvetica,sans-Serif" font-size="10.00" fill="#000000">sbml/SBase.h</text>
</a>
</g>
</g>
<!-- Node21&#45;&gt;Node22 -->
<g id="edge40" class="edge">
<title>Node21&#45;&gt;Node22</title>
<path fill="none" stroke="#191970" d="M1003.4891,-828.4369C1058.1542,-817.7322 1149.3353,-800.5556 1205.6564,-790.3652"/>
<polygon fill="#191970" stroke="#191970" points="1206.5293,-793.7643 1215.7504,-788.5468 1205.2883,-786.8752 1206.5293,-793.7643"/>
</g>
<!-- Node43 -->
<g id="node43" class="node">
<title>Node43</title>
<g id="a_node43"><a xlink:href="util_8h.html" target="_top" xlink:title="Utility functions. ">
<polygon fill="#ffffff" stroke="#000000" points="810.5,-263 810.5,-282 887.5,-282 887.5,-263 810.5,-263"/>
<text text-anchor="middle" x="849" y="-270" font-family="Helvetica,sans-Serif" font-size="10.00" fill="#000000">sbml/util/util.h</text>
</a>
</g>
</g>
<!-- Node21&#45;&gt;Node43 -->
<g id="edge143" class="edge">
<title>Node21&#45;&gt;Node43</title>
<path fill="none" stroke="#191970" d="M918.4717,-828.4503C837.0088,-806.1546 658,-742.5378 658,-614 658,-614 658,-614 658,-390 658,-359.4754 655.5308,-345.6985 677,-324 694.2885,-306.5268 755.5571,-291.0365 800.054,-281.7178"/>
<polygon fill="#191970" stroke="#191970" points="801.0249,-285.0916 810.1182,-279.6545 799.619,-278.2342 801.0249,-285.0916"/>
</g>
<!-- Node22&#45;&gt;Node2 -->
<g id="edge41" class="edge">
<title>Node22&#45;&gt;Node2</title>
<path fill="none" stroke="#191970" d="M1215.853,-778.2526C1158.3067,-772.2333 1047.7654,-758.7227 956,-736 853.7946,-710.6922 544,-607.2921 544,-502 544,-502 544,-502 544,-205.5 544,-146.3017 722.6731,-106.0979 824.6993,-87.9663"/>
<polygon fill="#191970" stroke="#191970" points="825.3805,-91.4004 834.6273,-86.2285 824.1735,-84.5052 825.3805,-91.4004"/>
</g>
<!-- Node22&#45;&gt;Node4 -->
<g id="edge42" class="edge">
<title>Node22&#45;&gt;Node4</title>
<path fill="none" stroke="#191970" d="M1294.1282,-781.5864C1551.552,-778.6159 2992,-758.0597 2992,-670 2992,-670 2992,-670 2992,-502 2992,-355.4242 2785.8809,-300.8196 2671.8095,-281.8233"/>
<polygon fill="#191970" stroke="#191970" points="2672.1706,-278.3363 2661.7408,-280.199 2671.0558,-285.247 2672.1706,-278.3363"/>
</g>
<!-- Node22&#45;&gt;Node17 -->
<g id="edge140" class="edge">
<title>Node22&#45;&gt;Node17</title>
<path fill="none" stroke="#191970" d="M1294.316,-777.5703C1352.3107,-768.6081 1454,-742.5496 1454,-670 1454,-670 1454,-670 1454,-614 1454,-485.4518 1515.8849,-449.5397 1624,-380 1691.517,-336.573 1727.7955,-376.9477 1801,-344 1831.362,-330.3347 1861.1773,-305.5052 1879.0816,-289.0048"/>
<polygon fill="#191970" stroke="#191970" points="1881.5525,-291.4855 1886.4289,-282.0796 1876.7512,-286.3916 1881.5525,-291.4855"/>
</g>
<!-- Node22&#45;&gt;Node19 -->
<g id="edge141" class="edge">
<title>Node22&#45;&gt;Node19</title>
<path fill="none" stroke="#191970" d="M1263.9063,-772.3544C1279.9375,-753.945 1312,-711.8901 1312,-670 1312,-670 1312,-670 1312,-446 1312,-413.1472 1304.3569,-375.5528 1299.0316,-353.3462"/>
<polygon fill="#191970" stroke="#191970" points="1302.3935,-352.3622 1296.579,-343.5055 1295.6013,-354.0551 1302.3935,-352.3622"/>
</g>
<!-- Node22&#45;&gt;Node21 -->
<g id="edge118" class="edge">
<title>Node22&#45;&gt;Node21</title>
<path fill="none" stroke="#191970" d="M1215.7616,-790.3359C1166.8467,-799.9656 1082.735,-815.8618 1023.8947,-826.623"/>
<polygon fill="#191970" stroke="#191970" points="1023.158,-823.1995 1013.9482,-828.4369 1024.4139,-830.086 1023.158,-823.1995"/>
</g>
<!-- Node23 -->
<g id="node23" class="node">
<title>Node23</title>
<g id="a_node23"><a xlink:href="_s_b_m_l_type_codes_8h.html" target="_top" xlink:title="Enumeration to identify SBML objects at runtime. ">
<polygon fill="#ffffff" stroke="#000000" points="572.5,-263 572.5,-282 699.5,-282 699.5,-263 572.5,-263"/>
<text text-anchor="middle" x="636" y="-270" font-family="Helvetica,sans-Serif" font-size="10.00" fill="#000000">sbml/SBMLTypeCodes.h</text>
</a>
</g>
</g>
<!-- Node22&#45;&gt;Node23 -->
<g id="edge43" class="edge">
<title>Node22&#45;&gt;Node23</title>
<path fill="none" stroke="#191970" d="M1215.6274,-777.9729C1167.9875,-772.2778 1085.8523,-759.8032 1019,-736 915.2249,-699.0502 582,-612.157 582,-502 582,-502 582,-502 582,-390 582,-351.7202 605.9553,-312.3076 621.9553,-290.2528"/>
<polygon fill="#191970" stroke="#191970" points="624.8181,-292.2692 628.0321,-282.1736 619.2239,-288.0615 624.8181,-292.2692"/>
</g>
<!-- Node24 -->
<g id="node24" class="node">
<title>Node24</title>
<g id="a_node24"><a xlink:href="_r_d_f_annotation_8h.html" target="_top" xlink:title="RDFAnnotation I/O. ">
<polygon fill="#ffffff" stroke="#000000" points="1778.5,-716.5 1778.5,-735.5 1945.5,-735.5 1945.5,-716.5 1778.5,-716.5"/>
<text text-anchor="middle" x="1862" y="-723.5" font-family="Helvetica,sans-Serif" font-size="10.00" fill="#000000">sbml/annotation/RDFAnnotation.h</text>
</a>
</g>
</g>
<!-- Node22&#45;&gt;Node24 -->
<g id="edge46" class="edge">
<title>Node22&#45;&gt;Node24</title>
<path fill="none" stroke="#191970" d="M1294.3593,-778.3688C1389.2863,-769.6111 1632.947,-747.1317 1768.1287,-734.6603"/>
<polygon fill="#191970" stroke="#191970" points="1768.8324,-738.1103 1778.4685,-733.7064 1768.1893,-731.1399 1768.8324,-738.1103"/>
</g>
<!-- Node27 -->
<g id="node27" class="node">
<title>Node27</title>
<g id="a_node27"><a xlink:href="_list_8h.html" target="_top" xlink:title="Simple, generic list utility class. ">
<polygon fill="#ffffff" stroke="#000000" points="1915,-492.5 1915,-511.5 1995,-511.5 1995,-492.5 1915,-492.5"/>
<text text-anchor="middle" x="1955" y="-499.5" font-family="Helvetica,sans-Serif" font-size="10.00" fill="#000000">sbml/util/List.h</text>
</a>
</g>
</g>
<!-- Node22&#45;&gt;Node27 -->
<g id="edge99" class="edge">
<title>Node22&#45;&gt;Node27</title>
<path fill="none" stroke="#191970" d="M1294.2249,-776.3695C1337.5361,-769.5028 1408.9521,-756.2457 1468,-736 1652.7452,-672.6565 1859.1171,-557.5644 1929.7337,-516.7988"/>
<polygon fill="#191970" stroke="#191970" points="1931.8854,-519.597 1938.7806,-511.553 1928.374,-513.5414 1931.8854,-519.597"/>
</g>
<!-- Node29 -->
<g id="node29" class="node">
<title>Node29</title>
<g id="a_node29"><a xlink:href="_x_m_l_node_8h.html" target="_top" xlink:title="Class definition of XMLNode, a node in an XML document tree. ">
<polygon fill="#ffffff" stroke="#000000" points="2237,-492.5 2237,-511.5 2349,-511.5 2349,-492.5 2237,-492.5"/>
<text text-anchor="middle" x="2293" y="-499.5" font-family="Helvetica,sans-Serif" font-size="10.00" fill="#000000">sbml/xml/XMLNode.h</text>
</a>
</g>
</g>
<!-- Node22&#45;&gt;Node29 -->
<g id="edge131" class="edge">
<title>Node22&#45;&gt;Node29</title>
<path fill="none" stroke="#191970" d="M1294.1581,-777.0592C1476.3889,-753.9228 2234.2112,-656.0709 2273,-624 2302.6584,-599.4782 2300.5832,-549.4608 2296.6771,-521.6897"/>
<polygon fill="#191970" stroke="#191970" points="2300.0966,-520.9111 2295.0365,-511.6026 2293.1873,-522.0348 2300.0966,-520.9111"/>
</g>
<!-- Node37 -->
<g id="node37" class="node">
<title>Node37</title>
<g id="a_node37"><a xlink:href="_c_v_term_8h.html" target="_top" xlink:title="Definition of a CVTerm class for adding annotations to a Model. ">
<polygon fill="#ffffff" stroke="#000000" points="2606.5,-492.5 2606.5,-511.5 2741.5,-511.5 2741.5,-492.5 2606.5,-492.5"/>
<text text-anchor="middle" x="2674" y="-499.5" font-family="Helvetica,sans-Serif" font-size="10.00" fill="#000000">sbml/annotation/CVTerm.h</text>
</a>
</g>
</g>
<!-- Node22&#45;&gt;Node37 -->
<g id="edge89" class="edge">
<title>Node22&#45;&gt;Node37</title>
<path fill="none" stroke="#191970" d="M1294.1748,-780.7113C1465.1101,-774.7278 2146.1071,-747.0528 2348,-680 2471.0008,-639.1489 2601.8111,-552.7226 2652.3492,-517.466"/>
<polygon fill="#191970" stroke="#191970" points="2654.6651,-520.1162 2660.8316,-511.5008 2650.6384,-514.3903 2654.6651,-520.1162"/>
</g>
<!-- Node38 -->
<g id="node38" class="node">
<title>Node38</title>
<g id="a_node38"><a xlink:href="_s_b_m_l_namespaces_8h.html" target="_top" xlink:title="SBMLNamespaces class to store level/version and namespace. ">
<polygon fill="#ffffff" stroke="#000000" points="1340,-380.5 1340,-399.5 1474,-399.5 1474,-380.5 1340,-380.5"/>
<text text-anchor="middle" x="1407" y="-387.5" font-family="Helvetica,sans-Serif" font-size="10.00" fill="#000000">sbml/SBMLNamespaces.h</text>
</a>
</g>
</g>
<!-- Node22&#45;&gt;Node38 -->
<g id="edge100" class="edge">
<title>Node22&#45;&gt;Node38</title>
<path fill="none" stroke="#191970" d="M1289.465,-772.4443C1332.9137,-758.0495 1402,-726.3079 1402,-670 1402,-670 1402,-670 1402,-502 1402,-469.6794 1404.1037,-432.1646 1405.582,-409.7929"/>
<polygon fill="#191970" stroke="#191970" points="1409.0898,-409.7984 1406.2836,-399.5819 1402.1063,-409.3185 1409.0898,-409.7984"/>
</g>
<!-- Node45 -->
<g id="node45" class="node">
<title>Node45</title>
<g id="a_node45"><a xlink:href="_s_b_m_l_constructor_exception_8h.html" target="_top" xlink:title="Definition of SBMLConstructorException, the exception class for constructor exceptions. ">
<polygon fill="#ffffff" stroke="#000000" points="1112,-436.5 1112,-455.5 1284,-455.5 1284,-436.5 1112,-436.5"/>
<text text-anchor="middle" x="1198" y="-443.5" font-family="Helvetica,sans-Serif" font-size="10.00" fill="#000000">sbml/SBMLConstructorException.h</text>
</a>
</g>
</g>
<!-- Node22&#45;&gt;Node45 -->
<g id="edge119" class="edge">
<title>Node22&#45;&gt;Node45</title>
<path fill="none" stroke="#191970" d="M1250.721,-772.3307C1242.6541,-753.1936 1226,-708.9662 1226,-670 1226,-670 1226,-670 1226,-558 1226,-524.5848 1214.1246,-487.1911 1205.8415,-465.1729"/>
<polygon fill="#191970" stroke="#191970" points="1209.0326,-463.7229 1202.1315,-455.6839 1202.5132,-466.2719 1209.0326,-463.7229"/>
</g>
<!-- Node46 -->
<g id="node46" class="node">
<title>Node46</title>
<polygon fill="#ffffff" stroke="#bfbfbf" points="686,-324.5 686,-343.5 744,-343.5 744,-324.5 686,-324.5"/>
<text text-anchor="middle" x="715" y="-331.5" font-family="Helvetica,sans-Serif" font-size="10.00" fill="#000000">algorithm</text>
</g>
<!-- Node22&#45;&gt;Node46 -->
<g id="edge142" class="edge">
<title>Node22&#45;&gt;Node46</title>
<path fill="none" stroke="#191970" d="M1215.6791,-776.2009C1164.4748,-768.1311 1078.2846,-752.6222 1051,-736 882.8843,-633.5813 758.8795,-417.0232 724.555,-352.5106"/>
<polygon fill="#191970" stroke="#191970" points="727.5722,-350.7281 719.8231,-343.5029 721.3752,-353.9835 727.5722,-350.7281"/>
</g>
<!-- Node47 -->
<g id="node47" class="node">
<title>Node47</title>
<g id="a_node47"><a xlink:href="_expected_attributes_8h.html" target="_top" xlink:title="Definition of ExpectedAttributes, the class allowing the specification of attributes to expect...">
<polygon fill="#ffffff" stroke="#000000" points="1074.5,-380.5 1074.5,-399.5 1207.5,-399.5 1207.5,-380.5 1074.5,-380.5"/>
<text text-anchor="middle" x="1141" y="-387.5" font-family="Helvetica,sans-Serif" font-size="10.00" fill="#000000">sbml/ExpectedAttributes.h</text>
</a>
</g>
</g>
<!-- Node22&#45;&gt;Node47 -->
<g id="edge125" class="edge">
<title>Node22&#45;&gt;Node47</title>
<path fill="none" stroke="#191970" d="M1215.7691,-774.427C1165.2841,-762.1423 1084,-732.6372 1084,-670 1084,-670 1084,-670 1084,-502 1084,-471.4754 1088.7591,-462.9991 1103,-436 1108.5093,-425.5551 1116.6474,-415.2907 1123.9805,-407.1174"/>
<polygon fill="#191970" stroke="#191970" points="1126.6356,-409.4025 1130.9181,-399.7118 1121.5271,-404.6168 1126.6356,-409.4025"/>
</g>
<!-- Node48 -->
<g id="node48" class="node">
<title>Node48</title>
<g id="a_node48"><a xlink:href="_x_m_l_error_8h.html" target="_top" xlink:title="Represents errors (and messages) encountered during an XML parse. ">
<polygon fill="#ffffff" stroke="#000000" points="1022,-324.5 1022,-343.5 1132,-343.5 1132,-324.5 1022,-324.5"/>
<text text-anchor="middle" x="1077" y="-331.5" font-family="Helvetica,sans-Serif" font-size="10.00" fill="#000000">sbml/xml/XMLError.h</text>
</a>
</g>
</g>
<!-- Node22&#45;&gt;Node48 -->
<g id="edge132" class="edge">
<title>Node22&#45;&gt;Node48</title>
<path fill="none" stroke="#191970" d="M1215.8621,-772.839C1146.2148,-755.3901 1008,-715.0834 1008,-670 1008,-670 1008,-670 1008,-446 1008,-407.3203 1038.2001,-370.7993 1058.6409,-350.5101"/>
<polygon fill="#191970" stroke="#191970" points="1061.1035,-352.998 1065.914,-343.5582 1056.2667,-347.9378 1061.1035,-352.998"/>
</g>
<!-- Node23&#45;&gt;Node2 -->
<g id="edge45" class="edge">
<title>Node23&#45;&gt;Node2</title>
<path fill="none" stroke="#191970" d="M638.1646,-262.6918C644.6104,-235.8743 666.2734,-160.8158 714,-123 731.4729,-109.1554 782.5584,-96.85 825.8623,-88.4583"/>
<polygon fill="#191970" stroke="#191970" points="826.6478,-91.8717 835.8205,-86.5696 825.3434,-84.9943 826.6478,-91.8717"/>
</g>
<!-- Node23&#45;&gt;Node5 -->
<g id="edge44" class="edge">
<title>Node23&#45;&gt;Node5</title>
<path fill="none" stroke="#191970" d="M699.6746,-263.7399C762.8268,-254.7366 862.5453,-239.6744 958.3227,-221.0525"/>
<polygon fill="#191970" stroke="#191970" points="959.035,-224.4795 968.175,-219.1214 957.6885,-217.6102 959.035,-224.4795"/>
</g>
<!-- Node25 -->
<g id="node25" class="node">
<title>Node25</title>
<g id="a_node25"><a xlink:href="_r_d_f_annotation_parser_8h.html" target="_top" xlink:title="RDFAnnotationParser.h">
<polygon fill="#ffffff" stroke="#000000" points="2215.5,-660.5 2215.5,-679.5 2338.5,-679.5 2338.5,-660.5 2215.5,-660.5"/>
<text text-anchor="middle" x="2277" y="-667.5" font-family="Helvetica,sans-Serif" font-size="10.00" fill="#000000">RDFAnnotationParser.h</text>
</a>
</g>
</g>
<!-- Node24&#45;&gt;Node25 -->
<g id="edge47" class="edge">
<title>Node24&#45;&gt;Node25</title>
<path fill="none" stroke="#191970" d="M1932.8695,-716.4369C2008.8627,-706.1824 2128.8687,-689.9888 2205.2136,-679.6868"/>
<polygon fill="#191970" stroke="#191970" points="2205.7828,-683.1418 2215.2249,-678.3359 2204.8466,-676.2047 2205.7828,-683.1418"/>
</g>
<!-- Node25&#45;&gt;Node2 -->
<g id="edge48" class="edge">
<title>Node25&#45;&gt;Node2</title>
<path fill="none" stroke="#191970" d="M2215.4356,-667.995C2129.6991,-664.2038 1969.9018,-653.5036 1837,-624 1587.271,-568.5612 1541.1688,-498.0504 1293,-436 1193.901,-411.222 1156.3647,-447.6319 1066,-400 1029.5708,-380.7979 988.5749,-357.1545 1013,-324 1045.0178,-280.5392 1096.9822,-331.4608 1129,-288 1154.6725,-253.1523 1201.7927,-219.9906 1113,-123 1093.0471,-101.2049 1019.4818,-89.0696 963.0627,-82.8098"/>
<polygon fill="#191970" stroke="#191970" points="963.4164,-79.3277 953.101,-81.745 962.6723,-86.2881 963.4164,-79.3277"/>
</g>
<!-- Node25&#45;&gt;Node4 -->
<g id="edge49" class="edge">
<title>Node25&#45;&gt;Node4</title>
<path fill="none" stroke="#191970" d="M2338.56,-665.6451C2498.711,-653.4956 2916,-616.2501 2916,-558 2916,-558 2916,-558 2916,-502 2916,-372.7201 2741.05,-308.9596 2650.6798,-284.6479"/>
<polygon fill="#191970" stroke="#191970" points="2651.4478,-281.231 2640.8869,-282.0787 2649.6714,-288.0019 2651.4478,-281.231"/>
</g>
<!-- Node25&#45;&gt;Node14 -->
<g id="edge50" class="edge">
<title>Node25&#45;&gt;Node14</title>
<path fill="none" stroke="#191970" d="M2215.236,-667.5074C2091.7185,-660.8336 1826,-637.265 1826,-558 1826,-558 1826,-558 1826,-502 1826,-471.3494 1823.2128,-456.4988 1846,-436 1870.0357,-414.378 1950.3044,-402.2242 2011.6664,-395.9125"/>
<polygon fill="#191970" stroke="#191970" points="2012.1213,-399.3846 2021.7258,-394.9121 2011.4284,-392.419 2012.1213,-399.3846"/>
</g>
<!-- Node25&#45;&gt;Node17 -->
<g id="edge86" class="edge">
<title>Node25&#45;&gt;Node17</title>
<path fill="none" stroke="#191970" d="M2215.332,-667.2397C2105.5645,-661.7437 1885.3647,-647.8612 1860,-624 1798.4213,-566.0714 1813.4077,-518.6932 1831,-436 1840.315,-392.2144 1855.7479,-385.7111 1872,-344 1878.7429,-326.6944 1885.3816,-306.6155 1889.9616,-292.1494"/>
<polygon fill="#191970" stroke="#191970" points="1893.3911,-292.9087 1893.0302,-282.32 1886.7091,-290.8226 1893.3911,-292.9087"/>
</g>
<!-- Node26 -->
<g id="node26" class="node">
<title>Node26</title>
<g id="a_node26"><a xlink:href="_model_history_8h.html" target="_top" xlink:title="ModelHistory I/O. ">
<polygon fill="#ffffff" stroke="#000000" points="2106.5,-604.5 2106.5,-623.5 2263.5,-623.5 2263.5,-604.5 2106.5,-604.5"/>
<text text-anchor="middle" x="2185" y="-611.5" font-family="Helvetica,sans-Serif" font-size="10.00" fill="#000000">sbml/annotation/ModelHistory.h</text>
</a>
</g>
</g>
<!-- Node25&#45;&gt;Node26 -->
<g id="edge51" class="edge">
<title>Node25&#45;&gt;Node26</title>
<path fill="none" stroke="#191970" d="M2260.9748,-660.2455C2246.8592,-651.6534 2226.0737,-639.0014 2209.8101,-629.1018"/>
<polygon fill="#191970" stroke="#191970" points="2211.2034,-625.8525 2200.8415,-623.6427 2207.5637,-631.8319 2211.2034,-625.8525"/>
</g>
<!-- Node31 -->
<g id="node31" class="node">
<title>Node31</title>
<polygon fill="#ffffff" stroke="#bfbfbf" points="2530.5,-436.5 2530.5,-455.5 2575.5,-455.5 2575.5,-436.5 2530.5,-436.5"/>
<text text-anchor="middle" x="2553" y="-443.5" font-family="Helvetica,sans-Serif" font-size="10.00" fill="#000000">cstdlib</text>
</g>
<!-- Node25&#45;&gt;Node31 -->
<g id="edge88" class="edge">
<title>Node25&#45;&gt;Node31</title>
<path fill="none" stroke="#191970" d="M2297.9206,-660.4534C2342.6487,-639.2054 2448.9541,-584.1411 2516,-512 2528.8089,-498.2177 2538.8672,-479.1967 2545.2432,-465.1138"/>
<polygon fill="#191970" stroke="#191970" points="2548.48,-466.4463 2549.2217,-455.8775 2542.0511,-463.677 2548.48,-466.4463"/>
</g>
<!-- Node34 -->
<g id="node34" class="node">
<title>Node34</title>
<polygon fill="#ffffff" stroke="#bfbfbf" points="2848.5,-436.5 2848.5,-455.5 2887.5,-455.5 2887.5,-436.5 2848.5,-436.5"/>
<text text-anchor="middle" x="2868" y="-443.5" font-family="Helvetica,sans-Serif" font-size="10.00" fill="#000000">limits</text>
</g>
<!-- Node25&#45;&gt;Node34 -->
<g id="edge84" class="edge">
<title>Node25&#45;&gt;Node34</title>
<path fill="none" stroke="#191970" d="M2338.674,-663.268C2393.9385,-656.3481 2476.8597,-643.7618 2547,-624 2611.5041,-605.8262 2627.3614,-598.5663 2687,-568 2748.9599,-536.2439 2815.212,-487.2312 2847.6819,-462.0879"/>
<polygon fill="#191970" stroke="#191970" points="2850.1833,-464.5754 2855.9126,-455.6633 2845.8761,-459.0574 2850.1833,-464.5754"/>
</g>
<!-- Node35 -->
<g id="node35" class="node">
<title>Node35</title>
<polygon fill="#ffffff" stroke="#bfbfbf" points="2594,-436.5 2594,-455.5 2646,-455.5 2646,-436.5 2594,-436.5"/>
<text text-anchor="middle" x="2620" y="-443.5" font-family="Helvetica,sans-Serif" font-size="10.00" fill="#000000">iomanip</text>
</g>
<!-- Node25&#45;&gt;Node35 -->
<g id="edge85" class="edge">
<title>Node25&#45;&gt;Node35</title>
<path fill="none" stroke="#191970" d="M2308.2497,-660.492C2333.2412,-652.3331 2368.8045,-639.4605 2398,-624 2483.6843,-578.6257 2568.472,-498.2016 2603.3751,-463.1402"/>
<polygon fill="#191970" stroke="#191970" points="2606.2561,-465.2031 2610.7824,-455.6238 2601.2703,-460.2896 2606.2561,-465.2031"/>
</g>
<!-- Node36 -->
<g id="node36" class="node">
<title>Node36</title>
<polygon fill="#ffffff" stroke="#bfbfbf" points="2778,-436.5 2778,-455.5 2830,-455.5 2830,-436.5 2778,-436.5"/>
<text text-anchor="middle" x="2804" y="-443.5" font-family="Helvetica,sans-Serif" font-size="10.00" fill="#000000">sstream</text>
</g>
<!-- Node25&#45;&gt;Node36 -->
<g id="edge87" class="edge">
<title>Node25&#45;&gt;Node36</title>
<path fill="none" stroke="#191970" d="M2338.6044,-661.1604C2434.2796,-645.0097 2621.0762,-603.5806 2751,-512 2768.7357,-499.4985 2783.644,-479.4616 2793.0863,-464.7408"/>
<polygon fill="#191970" stroke="#191970" points="2796.2238,-466.32 2798.4766,-455.9674 2790.2596,-462.6555 2796.2238,-466.32"/>
</g>
<!-- Node26&#45;&gt;Node2 -->
<g id="edge52" class="edge">
<title>Node26&#45;&gt;Node2</title>
<path fill="none" stroke="#191970" d="M2263.7485,-610.8142C2480.1674,-599.9323 3068,-555.1725 3068,-390 3068,-390 3068,-390 3068,-272.5 3068,-95.5512 2872.5759,-157.384 2699,-123 2526.8365,-88.8958 1274.4864,-79.2573 963.6687,-77.3787"/>
<polygon fill="#191970" stroke="#191970" points="963.466,-73.8775 953.4452,-77.3177 963.4241,-80.8774 963.466,-73.8775"/>
</g>
<!-- Node26&#45;&gt;Node4 -->
<g id="edge53" class="edge">
<title>Node26&#45;&gt;Node4</title>
<path fill="none" stroke="#191970" d="M2210.6185,-604.33C2274.8754,-579.0677 2445.4959,-505.6526 2554,-400 2577.0765,-377.5299 2589.1423,-374.3239 2600,-344 2606.0045,-327.2304 2604.6524,-306.8063 2602.3026,-292.0875"/>
<polygon fill="#191970" stroke="#191970" points="2605.7113,-291.276 2600.4164,-282.0991 2598.8328,-292.575 2605.7113,-291.276"/>
</g>
<!-- Node26&#45;&gt;Node16 -->
<g id="edge54" class="edge">
<title>Node26&#45;&gt;Node16</title>
<path fill="none" stroke="#191970" d="M2106.3122,-606.8546C2048.601,-600.2722 1968.8123,-588.3555 1901,-568 1705.8972,-509.4353 1670.0229,-460.7302 1483,-380 1444.5803,-363.4158 1420.6903,-377.7861 1396,-344 1386.4188,-330.8892 1385.0396,-312.5908 1385.9936,-297.7877"/>
<polygon fill="#191970" stroke="#191970" points="1389.4845,-298.054 1387.0168,-287.7506 1382.5206,-297.3441 1389.4845,-298.054"/>
</g>
<!-- Node26&#45;&gt;Node17 -->
<g id="edge83" class="edge">
<title>Node26&#45;&gt;Node17</title>
<path fill="none" stroke="#191970" d="M2106.4896,-607.194C2058.8926,-601.0518 1997.7606,-589.5106 1947,-568 1907.0389,-551.0659 1895.3514,-544.8611 1867,-512 1843.4851,-484.7447 1827.3818,-470.0708 1839,-436 1855.6699,-387.1147 1893.3301,-392.8853 1910,-344 1915.8475,-326.852 1910.7688,-306.5098 1905.16,-291.916"/>
<polygon fill="#191970" stroke="#191970" points="1908.2628,-290.2682 1901.1309,-282.4332 1901.8202,-293.0056 1908.2628,-290.2682"/>
</g>
<!-- Node26&#45;&gt;Node27 -->
<g id="edge55" class="edge">
<title>Node26&#45;&gt;Node27</title>
<path fill="none" stroke="#191970" d="M2106.4399,-607.8826C2049.4789,-601.6864 1979.2106,-589.7987 1960,-568 1949.1022,-555.6341 1948.8469,-536.4055 1950.7292,-521.8867"/>
<polygon fill="#191970" stroke="#191970" points="1954.2022,-522.3419 1952.4445,-511.8939 1947.3031,-521.1576 1954.2022,-522.3419"/>
</g>
<!-- Node26&#45;&gt;Node29 -->
<g id="edge58" class="edge">
<title>Node26&#45;&gt;Node29</title>
<path fill="none" stroke="#191970" d="M2217.5995,-604.4083C2236.5822,-597.2484 2259.5487,-585.6159 2274,-568 2284.7411,-554.9067 2289.4121,-536.0263 2291.4423,-521.8105"/>
<polygon fill="#191970" stroke="#191970" points="2294.9499,-521.9335 2292.5698,-511.6095 2287.9923,-521.1645 2294.9499,-521.9335"/>
</g>
<!-- Node32 -->
<g id="node32" class="node">
<title>Node32</title>
<g id="a_node32"><a xlink:href="_date_8h.html" target="_top" xlink:title="Date I/O. ">
<polygon fill="#ffffff" stroke="#000000" points="1968.5,-548.5 1968.5,-567.5 2087.5,-567.5 2087.5,-548.5 1968.5,-548.5"/>
<text text-anchor="middle" x="2028" y="-555.5" font-family="Helvetica,sans-Serif" font-size="10.00" fill="#000000">sbml/annotation/Date.h</text>
</a>
</g>
</g>
<!-- Node26&#45;&gt;Node32 -->
<g id="edge69" class="edge">
<title>Node26&#45;&gt;Node32</title>
<path fill="none" stroke="#191970" d="M2158.0107,-604.3733C2132.1301,-595.1419 2092.8752,-581.1402 2064.2711,-570.9375"/>
<polygon fill="#191970" stroke="#191970" points="2065.2317,-567.5642 2054.6371,-567.5011 2062.88,-574.1573 2065.2317,-567.5642"/>
</g>
<!-- Node33 -->
<g id="node33" class="node">
<title>Node33</title>
<g id="a_node33"><a xlink:href="_model_creator_8h.html" target="_top" xlink:title="ModelCreator I/O. ">
<polygon fill="#ffffff" stroke="#000000" points="2105.5,-548.5 2105.5,-567.5 2264.5,-567.5 2264.5,-548.5 2105.5,-548.5"/>
<text text-anchor="middle" x="2185" y="-555.5" font-family="Helvetica,sans-Serif" font-size="10.00" fill="#000000">sbml/annotation/ModelCreator.h</text>
</a>
</g>
</g>
<!-- Node26&#45;&gt;Node33 -->
<g id="edge76" class="edge">
<title>Node26&#45;&gt;Node33</title>
<path fill="none" stroke="#191970" d="M2185,-604.2455C2185,-596.9382 2185,-586.6944 2185,-577.7046"/>
<polygon fill="#191970" stroke="#191970" points="2188.5001,-577.6426 2185,-567.6427 2181.5001,-577.6427 2188.5001,-577.6426"/>
</g>
<!-- Node27&#45;&gt;Node2 -->
<g id="edge56" class="edge">
<title>Node27&#45;&gt;Node2</title>
<path fill="none" stroke="#191970" d="M1963.4961,-492.427C1976.7393,-478.0835 2003.7321,-451.0918 2032,-436 2084.5092,-407.9662 2105.1617,-420.6202 2161,-400 2180.7721,-392.6985 2184.4044,-387.7626 2204,-380 2251.4321,-361.2102 2266.1318,-364.1552 2313,-344 2374.6523,-317.487 2446,-339.6115 2446,-272.5 2446,-272.5 2446,-272.5 2446,-205.5 2446,-130.0583 1265.926,-88.4787 963.7905,-79.0694"/>
<polygon fill="#191970" stroke="#191970" points="963.5199,-75.5594 953.4163,-78.7482 963.3032,-82.5561 963.5199,-75.5594"/>
</g>
<!-- Node28 -->
<g id="node28" class="node">
<title>Node28</title>
<polygon fill="#ffffff" stroke="#bfbfbf" points="1854.5,-436.5 1854.5,-455.5 1903.5,-455.5 1903.5,-436.5 1854.5,-436.5"/>
<text text-anchor="middle" x="1879" y="-443.5" font-family="Helvetica,sans-Serif" font-size="10.00" fill="#000000">string.h</text>
</g>
<!-- Node27&#45;&gt;Node28 -->
<g id="edge57" class="edge">
<title>Node27&#45;&gt;Node28</title>
<path fill="none" stroke="#191970" d="M1941.7618,-492.2455C1930.319,-483.814 1913.5704,-471.4729 1900.2525,-461.6598"/>
<polygon fill="#191970" stroke="#191970" points="1902.2133,-458.757 1892.0865,-455.6427 1898.0609,-464.3924 1902.2133,-458.757"/>
</g>
<!-- Node29&#45;&gt;Node4 -->
<g id="edge66" class="edge">
<title>Node29&#45;&gt;Node4</title>
<path fill="none" stroke="#191970" d="M2319.6772,-492.4316C2372.1867,-472.4075 2490.0027,-421.4305 2561,-344 2574.968,-328.7663 2585.1448,-307.2747 2591.2495,-291.8377"/>
<polygon fill="#191970" stroke="#191970" points="2594.6031,-292.8618 2594.8219,-282.2692 2588.0452,-290.4134 2594.6031,-292.8618"/>
</g>
<!-- Node29&#45;&gt;Node15 -->
<g id="edge59" class="edge">
<title>Node29&#45;&gt;Node15</title>
<path fill="none" stroke="#191970" d="M2322.5685,-492.3976C2339.4108,-485.2338 2359.0794,-473.6009 2369,-456 2373.3646,-448.2564 2370.5171,-444.7585 2369,-436 2359.9787,-383.9184 2362.0928,-365.2158 2329,-324 2316.0666,-307.8919 2296.6559,-295.3818 2279.9662,-286.727"/>
<polygon fill="#191970" stroke="#191970" points="2281.0412,-283.3551 2270.5235,-282.0786 2277.9496,-289.6354 2281.0412,-283.3551"/>
</g>
<!-- Node29&#45;&gt;Node18 -->
<g id="edge67" class="edge">
<title>Node29&#45;&gt;Node18</title>
<path fill="none" stroke="#191970" d="M2251.6952,-492.4832C2162.3738,-471.9091 1944.5692,-421.7721 1762,-380 1691.7923,-363.9364 1661.8937,-386.8426 1604,-344 1586.4501,-331.0127 1575.2557,-308.1078 1569.0751,-291.7207"/>
<polygon fill="#191970" stroke="#191970" points="1572.3082,-290.3613 1565.7212,-282.063 1565.6956,-292.6578 1572.3082,-290.3613"/>
</g>
<!-- Node30 -->
<g id="node30" class="node">
<title>Node30</title>
<g id="a_node30"><a xlink:href="_x_m_l_token_8h.html" target="_top" xlink:title="A unit of XML syntax, either an XML element or text. ">
<polygon fill="#ffffff" stroke="#000000" points="2226.5,-436.5 2226.5,-455.5 2341.5,-455.5 2341.5,-436.5 2226.5,-436.5"/>
<text text-anchor="middle" x="2284" y="-443.5" font-family="Helvetica,sans-Serif" font-size="10.00" fill="#000000">sbml/xml/XMLToken.h</text>
</a>
</g>
</g>
<!-- Node29&#45;&gt;Node30 -->
<g id="edge60" class="edge">
<title>Node29&#45;&gt;Node30</title>
<path fill="none" stroke="#191970" d="M2291.4323,-492.2455C2290.2579,-484.9382 2288.6116,-474.6944 2287.1668,-465.7046"/>
<polygon fill="#191970" stroke="#191970" points="2290.5922,-464.9606 2285.5497,-455.6427 2283.6809,-466.0714 2290.5922,-464.9606"/>
</g>
<!-- Node29&#45;&gt;Node31 -->
<g id="edge68" class="edge">
<title>Node29&#45;&gt;Node31</title>
<path fill="none" stroke="#191970" d="M2337.4002,-492.4369C2389.4482,-481.2265 2474.4505,-462.9184 2520.643,-452.9692"/>
<polygon fill="#191970" stroke="#191970" points="2521.3878,-456.3891 2530.4266,-450.862 2519.9138,-449.5461 2521.3878,-456.3891"/>
</g>
<!-- Node30&#45;&gt;Node4 -->
<g id="edge64" class="edge">
<title>Node30&#45;&gt;Node4</title>
<path fill="none" stroke="#191970" d="M2322.6477,-436.4934C2374.6516,-422.399 2468.4176,-392.301 2536,-344 2556.5603,-329.3056 2574.7959,-306.4576 2586.0781,-290.5585"/>
<polygon fill="#191970" stroke="#191970" points="2589.102,-292.338 2591.8824,-282.1145 2583.3334,-288.3727 2589.102,-292.338"/>
</g>
<!-- Node30&#45;&gt;Node14 -->
<g id="edge62" class="edge">
<title>Node30&#45;&gt;Node14</title>
<path fill="none" stroke="#191970" d="M2250.1345,-436.3733C2216.951,-426.9404 2166.245,-412.5265 2130.1806,-402.2747"/>
<polygon fill="#191970" stroke="#191970" points="2130.9995,-398.8689 2120.4236,-399.5011 2129.0855,-405.6021 2130.9995,-398.8689"/>
</g>
<!-- Node30&#45;&gt;Node15 -->
<g id="edge61" class="edge">
<title>Node30&#45;&gt;Node15</title>
<path fill="none" stroke="#191970" d="M2290.4993,-436.3391C2303.939,-415.0576 2332.0038,-362.9333 2313,-324 2305.3124,-308.2502 2290.2232,-295.9113 2276.411,-287.2644"/>
<polygon fill="#191970" stroke="#191970" points="2278.0084,-284.1441 2267.6094,-282.1166 2274.4744,-290.1865 2278.0084,-284.1441"/>
</g>
<!-- Node30&#45;&gt;Node17 -->
<g id="edge65" class="edge">
<title>Node30&#45;&gt;Node17</title>
<path fill="none" stroke="#191970" d="M2266.567,-436.4412C2242.8056,-423.4595 2198.8702,-399.6227 2161,-380 2111.5863,-354.396 2100.3856,-345.3731 2049,-324 2007.3834,-306.6902 1957.6742,-290.8046 1926.4637,-281.3849"/>
<polygon fill="#191970" stroke="#191970" points="1927.2103,-277.9552 1916.6268,-278.4456 1925.2061,-284.6622 1927.2103,-277.9552"/>
</g>
<!-- Node30&#45;&gt;Node30 -->
<g id="edge63" class="edge">
<title>Node30&#45;&gt;Node30</title>
<path fill="none" stroke="#191970" d="M2316.2009,-455.5252C2338.0805,-458.3079 2359.5,-455.1328 2359.5,-446 2359.5,-438.2942 2344.2512,-434.8298 2326.3433,-435.6068"/>
<polygon fill="#191970" stroke="#191970" points="2325.866,-432.1347 2316.2009,-436.4748 2326.4629,-439.1092 2325.866,-432.1347"/>
</g>
<!-- Node32&#45;&gt;Node2 -->
<g id="edge70" class="edge">
<title>Node32&#45;&gt;Node2</title>
<path fill="none" stroke="#191970" d="M2035.2739,-548.2694C2045.7413,-534.6668 2066.1022,-509.655 2087,-492 2195.4256,-400.3994 2245.5385,-412.2356 2370,-344 2422.4431,-315.2483 2484,-332.3075 2484,-272.5 2484,-272.5 2484,-272.5 2484,-205.5 2484,-161.367 2949.4159,-217.3769 2096,-123 1874.18,-98.4695 1184.9034,-82.8356 963.3405,-78.3417"/>
<polygon fill="#191970" stroke="#191970" points="963.2158,-74.8386 953.1472,-78.1362 963.0746,-81.8372 963.2158,-74.8386"/>
</g>
<!-- Node32&#45;&gt;Node4 -->
<g id="edge71" class="edge">
<title>Node32&#45;&gt;Node4</title>
<path fill="none" stroke="#191970" d="M2040.6893,-548.214C2070.2987,-525.7567 2146.8507,-469.8555 2218,-436 2336.2817,-379.7171 2381.1598,-403.2172 2498,-344 2528.5126,-328.5355 2560.0174,-304.4077 2579.311,-288.5267"/>
<polygon fill="#191970" stroke="#191970" points="2581.6037,-291.1721 2587.0313,-282.0731 2577.1141,-285.8014 2581.6037,-291.1721"/>
</g>
<!-- Node32&#45;&gt;Node16 -->
<g id="edge72" class="edge">
<title>Node32&#45;&gt;Node16</title>
<path fill="none" stroke="#191970" d="M1989.8586,-548.4931C1956.9768,-539.9681 1908.4018,-526.5846 1867,-512 1724.6014,-461.8371 1697.0534,-428.2639 1554,-380 1493.1249,-359.4617 1461.0382,-387.7609 1414,-344 1401.1479,-332.0433 1395.1748,-313.0013 1392.4004,-297.5739"/>
<polygon fill="#191970" stroke="#191970" points="1395.8527,-296.9922 1390.9456,-287.6023 1388.9261,-298.0029 1395.8527,-296.9922"/>
</g>
<!-- Node32&#45;&gt;Node17 -->
<g id="edge75" class="edge">
<title>Node32&#45;&gt;Node17</title>
<path fill="none" stroke="#191970" d="M1981.4395,-548.4964C1935.6452,-536.2035 1869.3139,-509.6505 1846,-456 1842.4573,-447.8476 1842.1935,-444.0326 1846,-436 1856.8201,-413.167 1871.1178,-416.7893 1890,-400 1916.7778,-376.1903 1933.9978,-376.9831 1948,-344 1957.0203,-322.7521 1937.4965,-301.7934 1919.8528,-288.1169"/>
<polygon fill="#191970" stroke="#191970" points="1921.6203,-285.0745 1911.4757,-282.0187 1917.5006,-290.7338 1921.6203,-285.0745"/>
</g>
<!-- Node32&#45;&gt;Node27 -->
<g id="edge73" class="edge">
<title>Node32&#45;&gt;Node27</title>
<path fill="none" stroke="#191970" d="M2015.2844,-548.2455C2004.398,-539.8943 1988.5117,-527.7076 1975.78,-517.9408"/>
<polygon fill="#191970" stroke="#191970" points="1977.6346,-514.9523 1967.5699,-511.6427 1973.3739,-520.5063 1977.6346,-514.9523"/>
</g>
<!-- Node32&#45;&gt;Node29 -->
<g id="edge74" class="edge">
<title>Node32&#45;&gt;Node29</title>
<path fill="none" stroke="#191970" d="M2073.254,-548.4369C2118.7973,-538.8127 2189.0965,-523.957 2237.8686,-513.6504"/>
<polygon fill="#191970" stroke="#191970" points="2238.8724,-517.0157 2247.9326,-511.5237 2237.425,-510.1669 2238.8724,-517.0157"/>
</g>
<!-- Node33&#45;&gt;Node2 -->
<g id="edge77" class="edge">
<title>Node33&#45;&gt;Node2</title>
<path fill="none" stroke="#191970" d="M2264.7598,-554.6515C2461.4795,-545.3328 2954,-515.102 2954,-446 2954,-446 2954,-446 2954,-390 2954,-203.4048 2811.0198,-168.2724 2630,-123 2547.9843,-102.4882 1276.6962,-82.6028 963.3782,-77.9962"/>
<polygon fill="#191970" stroke="#191970" points="963.1264,-74.4923 953.0761,-77.8452 963.0237,-81.4915 963.1264,-74.4923"/>
</g>
<!-- Node33&#45;&gt;Node4 -->
<g id="edge78" class="edge">
<title>Node33&#45;&gt;Node4</title>
<path fill="none" stroke="#191970" d="M2239.6257,-548.4322C2274.513,-541.1332 2320.138,-529.3427 2358,-512 2414.5701,-486.088 2551.0826,-397.9974 2582,-344 2591.066,-328.1663 2594.9956,-307.6292 2596.6985,-292.6303"/>
<polygon fill="#191970" stroke="#191970" points="2600.2078,-292.6823 2597.6149,-282.4096 2593.2358,-292.0571 2600.2078,-292.6823"/>
</g>
<!-- Node33&#45;&gt;Node16 -->
<g id="edge79" class="edge">
<title>Node33&#45;&gt;Node16</title>
<path fill="none" stroke="#191970" d="M2167.0099,-548.4985C2124.1083,-526.1611 2011.9767,-469.6628 1913,-436 1847.6824,-413.7849 1828.5466,-418.2059 1762,-400 1680.7781,-377.7792 1660.687,-371.2168 1581,-344 1531.7323,-327.1728 1476.0491,-306.0877 1437.5738,-291.1873"/>
<polygon fill="#191970" stroke="#191970" points="1438.7659,-287.8956 1428.177,-287.5386 1436.2321,-294.421 1438.7659,-287.8956"/>
</g>
<!-- Node33&#45;&gt;Node17 -->
<g id="edge82" class="edge">
<title>Node33&#45;&gt;Node17</title>
<path fill="none" stroke="#191970" d="M2177.225,-548.1361C2166.5253,-534.8087 2146.378,-510.5813 2127,-492 2080.0061,-446.938 2056.7496,-448.2181 2013,-400 1985.8313,-370.0563 1990.5212,-353.6201 1963,-324 1950.1387,-310.1579 1933.2609,-297.209 1919.6629,-287.7579"/>
<polygon fill="#191970" stroke="#191970" points="1921.5184,-284.7875 1911.2758,-282.0781 1917.5932,-290.5834 1921.5184,-284.7875"/>
</g>
<!-- Node33&#45;&gt;Node27 -->
<g id="edge80" class="edge">
<title>Node33&#45;&gt;Node27</title>
<path fill="none" stroke="#191970" d="M2145.7229,-548.4369C2106.5256,-538.8932 2046.2,-524.2052 2003.9165,-513.9101"/>
<polygon fill="#191970" stroke="#191970" points="2004.6592,-510.4888 1994.1151,-511.5237 2003.0032,-517.2901 2004.6592,-510.4888"/>
</g>
<!-- Node33&#45;&gt;Node29 -->
<g id="edge81" class="edge">
<title>Node33&#45;&gt;Node29</title>
<path fill="none" stroke="#191970" d="M2203.8122,-548.2455C2220.8473,-539.4125 2246.1575,-526.2887 2265.4681,-516.2758"/>
<polygon fill="#191970" stroke="#191970" points="2267.137,-519.353 2274.4034,-511.6427 2263.9147,-513.1388 2267.137,-519.353"/>
</g>
<!-- Node37&#45;&gt;Node2 -->
<g id="edge90" class="edge">
<title>Node37&#45;&gt;Node2</title>
<path fill="none" stroke="#191970" d="M2686.5499,-492.4082C2708.136,-474.7155 2750,-434.6472 2750,-390 2750,-390 2750,-390 2750,-205.5 2750,-87.6508 2614.0997,-143.2315 2498,-123 2421.5034,-109.6697 1261.3526,-84.6623 963.3512,-78.4331"/>
<polygon fill="#191970" stroke="#191970" points="963.1882,-74.929 953.1173,-78.2195 963.042,-81.9275 963.1882,-74.929"/>
</g>
<!-- Node37&#45;&gt;Node4 -->
<g id="edge91" class="edge">
<title>Node37&#45;&gt;Node4</title>
<path fill="none" stroke="#191970" d="M2678.3569,-492.2784C2690.3152,-464.0156 2720.6567,-380.3122 2688,-324 2677.6177,-306.0971 2658.4106,-293.8878 2640.3983,-285.8689"/>
<polygon fill="#191970" stroke="#191970" points="2641.72,-282.6281 2631.141,-282.0495 2639.0502,-289.099 2641.72,-282.6281"/>
</g>
<!-- Node37&#45;&gt;Node14 -->
<g id="edge93" class="edge">
<title>Node37&#45;&gt;Node14</title>
<path fill="none" stroke="#191970" d="M2606.2977,-498.2076C2497.5705,-491.6072 2289.0424,-476.707 2218,-456 2207.245,-452.8652 2149.3868,-422.8596 2114.2574,-404.4025"/>
<polygon fill="#191970" stroke="#191970" points="2115.4891,-401.0956 2105.0099,-399.5348 2112.2285,-407.2899 2115.4891,-401.0956"/>
</g>
<!-- Node37&#45;&gt;Node16 -->
<g id="edge92" class="edge">
<title>Node37&#45;&gt;Node16</title>
<path fill="none" stroke="#191970" d="M2606.2487,-497.7238C2509.9077,-491.1992 2327.9268,-477.2332 2174,-456 2162.4716,-454.4097 1773.4746,-381.9406 1762,-380 1658.2496,-362.454 1628.035,-376.6342 1528,-344 1489.7416,-331.519 1449.2231,-309.3133 1422.0629,-292.9497"/>
<polygon fill="#191970" stroke="#191970" points="1423.7445,-289.8756 1413.3867,-287.6468 1420.0939,-295.8483 1423.7445,-289.8756"/>
</g>
<!-- Node37&#45;&gt;Node17 -->
<g id="edge96" class="edge">
<title>Node37&#45;&gt;Node17</title>
<path fill="none" stroke="#191970" d="M2674.1674,-492.3172C2673.857,-477.8301 2671.0065,-450.6536 2655,-436 2497.0362,-291.3877 2391.0679,-390.4316 2182,-344 2088.5135,-323.2377 1978.9011,-294.6296 1926.6768,-280.7361"/>
<polygon fill="#191970" stroke="#191970" points="1927.2885,-277.2769 1916.7242,-278.0814 1925.4844,-284.0405 1927.2885,-277.2769"/>
</g>
<!-- Node37&#45;&gt;Node31 -->
<g id="edge98" class="edge">
<title>Node37&#45;&gt;Node31</title>
<path fill="none" stroke="#191970" d="M2653.1994,-492.3733C2633.7757,-483.3838 2604.5776,-469.8706 2582.7036,-459.7471"/>
<polygon fill="#191970" stroke="#191970" points="2584.0745,-456.5249 2573.5292,-455.5011 2581.1344,-462.8776 2584.0745,-456.5249"/>
</g>
<!-- Node37&#45;&gt;Node34 -->
<g id="edge94" class="edge">
<title>Node37&#45;&gt;Node34</title>
<path fill="none" stroke="#191970" d="M2710.5585,-492.4846C2742.0852,-484.1286 2789.0196,-471.3322 2838.7505,-455.9452"/>
<polygon fill="#191970" stroke="#191970" points="2839.8918,-459.2556 2848.3973,-452.9384 2837.8088,-452.5727 2839.8918,-459.2556"/>
</g>
<!-- Node37&#45;&gt;Node35 -->
<g id="edge95" class="edge">
<title>Node37&#45;&gt;Node35</title>
<path fill="none" stroke="#191970" d="M2664.5939,-492.2455C2656.8507,-484.2155 2645.688,-472.6394 2636.4682,-463.0781"/>
<polygon fill="#191970" stroke="#191970" points="2638.7591,-460.4117 2629.2983,-455.6427 2633.7202,-465.2706 2638.7591,-460.4117"/>
</g>
<!-- Node37&#45;&gt;Node36 -->
<g id="edge97" class="edge">
<title>Node37&#45;&gt;Node36</title>
<path fill="none" stroke="#191970" d="M2696.3478,-492.3733C2717.4033,-483.3032 2749.1495,-469.6279 2772.7175,-459.4755"/>
<polygon fill="#191970" stroke="#191970" points="2774.1444,-462.6719 2781.9438,-455.5011 2771.375,-456.243 2774.1444,-462.6719"/>
</g>
<!-- Node38&#45;&gt;Node17 -->
<g id="edge116" class="edge">
<title>Node38&#45;&gt;Node17</title>
<path fill="none" stroke="#191970" d="M1437.2928,-380.4344C1481.0786,-366.808 1564.7335,-341.5214 1637,-324 1718.9803,-304.1235 1816.9129,-286.2146 1865.5158,-277.713"/>
<polygon fill="#191970" stroke="#191970" points="1866.1391,-281.1573 1875.392,-275.9965 1864.9404,-274.2607 1866.1391,-281.1573"/>
</g>
<!-- Node38&#45;&gt;Node19 -->
<g id="edge117" class="edge">
<title>Node38&#45;&gt;Node19</title>
<path fill="none" stroke="#191970" d="M1387.5746,-380.3733C1369.5979,-371.4644 1342.6559,-358.1127 1322.291,-348.0203"/>
<polygon fill="#191970" stroke="#191970" points="1323.6861,-344.8055 1313.1719,-343.5011 1320.5778,-351.0776 1323.6861,-344.8055"/>
</g>
<!-- Node39 -->
<g id="node39" class="node">
<title>Node39</title>
<g id="a_node39"><a xlink:href="_x_m_l_namespaces_8h.html" target="_top" xlink:title="A list of XMLNamespace declarations (URI/prefix pairs) ">
<polygon fill="#ffffff" stroke="#000000" points="1646,-324.5 1646,-343.5 1792,-343.5 1792,-324.5 1646,-324.5"/>
<text text-anchor="middle" x="1719" y="-331.5" font-family="Helvetica,sans-Serif" font-size="10.00" fill="#000000">sbml/xml/XMLNamespaces.h</text>
</a>
</g>
</g>
<!-- Node38&#45;&gt;Node39 -->
<g id="edge101" class="edge">
<title>Node38&#45;&gt;Node39</title>
<path fill="none" stroke="#191970" d="M1460.2802,-380.4369C1514.4618,-370.712 1598.4031,-355.6456 1655.8841,-345.3285"/>
<polygon fill="#191970" stroke="#191970" points="1656.7152,-348.7353 1665.9395,-343.5237 1655.4785,-341.8454 1656.7152,-348.7353"/>
</g>
<!-- Node40 -->
<g id="node40" class="node">
<title>Node40</title>
<g id="a_node40"><a xlink:href="common_8h.html" target="_top" xlink:title="Common functions and macros for C and C++. ">
<polygon fill="#ffffff" stroke="#000000" points="800,-324.5 800,-343.5 928,-343.5 928,-324.5 800,-324.5"/>
<text text-anchor="middle" x="864" y="-331.5" font-family="Helvetica,sans-Serif" font-size="10.00" fill="#000000">sbml/common/common.h</text>
</a>
</g>
</g>
<!-- Node38&#45;&gt;Node40 -->
<g id="edge107" class="edge">
<title>Node38&#45;&gt;Node40</title>
<path fill="none" stroke="#191970" d="M1339.8729,-383.0771C1237.7539,-372.5455 1044.0747,-352.5712 938.0082,-341.6325"/>
<polygon fill="#191970" stroke="#191970" points="938.3295,-338.1472 928.0232,-340.6028 937.6113,-345.1103 938.3295,-338.1472"/>
</g>
<!-- Node39&#45;&gt;Node4 -->
<g id="edge103" class="edge">
<title>Node39&#45;&gt;Node4</title>
<path fill="none" stroke="#191970" d="M1792.0552,-328.8886C1957.2972,-317.3273 2358.2612,-289.2735 2524.2046,-277.6632"/>
<polygon fill="#191970" stroke="#191970" points="2524.583,-281.1453 2534.3143,-276.9558 2524.0944,-274.1624 2524.583,-281.1453"/>
</g>
<!-- Node39&#45;&gt;Node15 -->
<g id="edge102" class="edge">
<title>Node39&#45;&gt;Node15</title>
<path fill="none" stroke="#191970" d="M1792.1388,-325.481C1894.3765,-313.5726 2078.6548,-292.1084 2178.3982,-280.4905"/>
<polygon fill="#191970" stroke="#191970" points="2178.8411,-283.9627 2188.369,-279.3292 2178.0312,-277.0097 2178.8411,-283.9627"/>
</g>
<!-- Node39&#45;&gt;Node16 -->
<g id="edge104" class="edge">
<title>Node39&#45;&gt;Node16</title>
<path fill="none" stroke="#191970" d="M1667.9547,-324.4581C1616.9201,-314.9182 1537.4798,-300.0684 1476.574,-288.6833"/>
<polygon fill="#191970" stroke="#191970" points="1477.0554,-285.2127 1466.5826,-286.8156 1475.7691,-292.0935 1477.0554,-285.2127"/>
</g>
<!-- Node39&#45;&gt;Node17 -->
<g id="edge105" class="edge">
<title>Node39&#45;&gt;Node17</title>
<path fill="none" stroke="#191970" d="M1746.6563,-324.3906C1778.994,-313.1546 1832.3383,-294.6197 1865.7518,-283.01"/>
<polygon fill="#191970" stroke="#191970" points="1867.139,-286.2333 1875.4363,-279.645 1864.8415,-279.6211 1867.139,-286.2333"/>
</g>
<!-- Node39&#45;&gt;Node18 -->
<g id="edge106" class="edge">
<title>Node39&#45;&gt;Node18</title>
<path fill="none" stroke="#191970" d="M1694.625,-324.3906C1667.6785,-313.7675 1624.1823,-296.6199 1594.6291,-284.9692"/>
<polygon fill="#191970" stroke="#191970" points="1595.7722,-281.6577 1585.1853,-281.2461 1593.2048,-288.1699 1595.7722,-281.6577"/>
</g>
<!-- Node40&#45;&gt;Node2 -->
<g id="edge110" class="edge">
<title>Node40&#45;&gt;Node2</title>
<path fill="none" stroke="#191970" d="M883.886,-324.4106C902.6181,-315.2944 931.4,-301.0724 956,-288 980.7786,-274.8327 985.958,-269.6592 1011,-257 1045.7963,-239.4098 1069.8297,-253.7417 1091,-221 1114.6494,-184.4242 1118.0713,-157.1208 1091,-123 1075.1217,-102.9869 1013.672,-90.8647 963.5725,-84.1279"/>
<polygon fill="#191970" stroke="#191970" points="963.7646,-80.6236 953.3981,-82.8114 962.8662,-87.5658 963.7646,-80.6236"/>
</g>
<!-- Node40&#45;&gt;Node5 -->
<g id="edge108" class="edge">
<title>Node40&#45;&gt;Node5</title>
<path fill="none" stroke="#191970" d="M876.1012,-324.3416C901.828,-303.8081 962.4976,-255.3855 997.9455,-227.0932"/>
<polygon fill="#191970" stroke="#191970" points="1000.3211,-229.6752 1005.9536,-220.7016 995.9545,-224.2042 1000.3211,-229.6752"/>
</g>
<!-- Node41 -->
<g id="node41" class="node">
<title>Node41</title>
<polygon fill="#ffffff" stroke="#bfbfbf" points="904,-196 904,-215 950,-215 950,-196 904,-196"/>
<text text-anchor="middle" x="927" y="-203" font-family="Helvetica,sans-Serif" font-size="10.00" fill="#000000">stdio.h</text>
</g>
<!-- Node40&#45;&gt;Node41 -->
<g id="edge109" class="edge">
<title>Node40&#45;&gt;Node41</title>
<path fill="none" stroke="#191970" d="M872.1776,-324.2869C879.4291,-315.3139 889.9363,-301.3867 897,-288 907.8521,-267.4339 916.4251,-242.0768 921.5808,-224.9453"/>
<polygon fill="#191970" stroke="#191970" points="925.0387,-225.5875 924.4649,-215.0082 918.3162,-223.6363 925.0387,-225.5875"/>
</g>
<!-- Node42 -->
<g id="node42" class="node">
<title>Node42</title>
<g id="a_node42"><a xlink:href="memory_8h.html" target="_top" xlink:title="sbml/util/memory.h">
<polygon fill="#ffffff" stroke="#000000" points="1020,-263 1020,-282 1120,-282 1120,-263 1020,-263"/>
<text text-anchor="middle" x="1070" y="-270" font-family="Helvetica,sans-Serif" font-size="10.00" fill="#000000">sbml/util/memory.h</text>
</a>
</g>
</g>
<!-- Node40&#45;&gt;Node42 -->
<g id="edge111" class="edge">
<title>Node40&#45;&gt;Node42</title>
<path fill="none" stroke="#191970" d="M896.1875,-324.3906C931.7133,-313.7846 989.0226,-296.6753 1028.0441,-285.0257"/>
<polygon fill="#191970" stroke="#191970" points="1029.4577,-288.2564 1038.0385,-282.0419 1027.4552,-281.5489 1029.4577,-288.2564"/>
</g>
<!-- Node40&#45;&gt;Node43 -->
<g id="edge112" class="edge">
<title>Node40&#45;&gt;Node43</title>
<path fill="none" stroke="#191970" d="M861.6563,-324.3906C859.5551,-315.776 856.4075,-302.8708 853.777,-292.0858"/>
<polygon fill="#191970" stroke="#191970" points="857.1468,-291.1307 851.3768,-282.2449 850.3461,-292.7894 857.1468,-291.1307"/>
</g>
<!-- Node43&#45;&gt;Node2 -->
<g id="edge115" class="edge">
<title>Node43&#45;&gt;Node2</title>
<path fill="none" stroke="#191970" d="M842.5929,-262.7432C836.4377,-252.7405 827.5628,-236.4978 824,-221 819.111,-199.7334 826.0961,-128.1346 829,-123 836.6122,-109.5403 849.981,-99.0609 862.6229,-91.5269"/>
<polygon fill="#191970" stroke="#191970" points="864.5481,-94.4618 871.607,-86.561 861.1618,-88.3354 864.5481,-94.4618"/>
</g>
<!-- Node43&#45;&gt;Node41 -->
<g id="edge113" class="edge">
<title>Node43&#45;&gt;Node41</title>
<path fill="none" stroke="#191970" d="M860.1755,-262.9005C872.6864,-252.1539 893.1686,-234.5603 908.1642,-221.6794"/>
<polygon fill="#191970" stroke="#191970" points="910.5401,-224.2526 915.8452,-215.0817 905.9789,-218.9426 910.5401,-224.2526"/>
</g>
<!-- Node44 -->
<g id="node44" class="node">
<title>Node44</title>
<polygon fill="#ffffff" stroke="#bfbfbf" points="832.5,-196 832.5,-215 885.5,-215 885.5,-196 832.5,-196"/>
<text text-anchor="middle" x="859" y="-203" font-family="Helvetica,sans-Serif" font-size="10.00" fill="#000000">stdarg.h</text>
</g>
<!-- Node43&#45;&gt;Node44 -->
<g id="edge114" class="edge">
<title>Node43&#45;&gt;Node44</title>
<path fill="none" stroke="#191970" d="M850.4328,-262.9005C851.9031,-253.0495 854.2321,-237.4451 856.0909,-224.9912"/>
<polygon fill="#191970" stroke="#191970" points="859.5553,-225.4888 857.5699,-215.0817 852.632,-224.4554 859.5553,-225.4888"/>
</g>
<!-- Node45&#45;&gt;Node2 -->
<g id="edge120" class="edge">
<title>Node45&#45;&gt;Node2</title>
<path fill="none" stroke="#191970" d="M1111.9178,-442.2442C978.0377,-434.3633 729.7699,-410.8886 677,-344 659.2451,-321.4947 692.563,-311.4851 709,-288 756.7766,-219.7371 737.6913,-180.4915 798,-123 813.3782,-108.3402 834.3042,-97.5704 852.6941,-90.1533"/>
<polygon fill="#191970" stroke="#191970" points="853.9487,-93.4207 862.0368,-86.5773 851.4464,-86.8832 853.9487,-93.4207"/>
</g>
<!-- Node45&#45;&gt;Node17 -->
<g id="edge122" class="edge">
<title>Node45&#45;&gt;Node17</title>
<path fill="none" stroke="#191970" d="M1201.9632,-436.2753C1213.3283,-408.6071 1245.8636,-330.9892 1256,-324 1281.3603,-306.5137 1740.2171,-280.8216 1864.9356,-274.1374"/>
<polygon fill="#191970" stroke="#191970" points="1865.4944,-277.6127 1875.2938,-273.5849 1865.1215,-270.6226 1865.4944,-277.6127"/>
</g>
<!-- Node45&#45;&gt;Node19 -->
<g id="edge123" class="edge">
<title>Node45&#45;&gt;Node19</title>
<path fill="none" stroke="#191970" d="M1210.8106,-436.2288C1221.8831,-427.4346 1237.9571,-413.8066 1250,-400 1262.966,-385.1352 1275.197,-366.243 1283.4565,-352.4836"/>
<polygon fill="#191970" stroke="#191970" points="1286.6835,-353.8996 1288.7225,-343.5028 1280.645,-350.3588 1286.6835,-353.8996"/>
</g>
<!-- Node45&#45;&gt;Node38 -->
<g id="edge121" class="edge">
<title>Node45&#45;&gt;Node38</title>
<path fill="none" stroke="#191970" d="M1233.9284,-436.3733C1269.2837,-426.9001 1323.388,-412.4032 1361.6788,-402.1435"/>
<polygon fill="#191970" stroke="#191970" points="1362.787,-405.4701 1371.5405,-399.5011 1360.9753,-398.7086 1362.787,-405.4701"/>
</g>
<!-- Node45&#45;&gt;Node46 -->
<g id="edge124" class="edge">
<title>Node45&#45;&gt;Node46</title>
<path fill="none" stroke="#191970" d="M1156.7478,-436.4472C1078.8274,-418.4007 904.6547,-378.0515 758,-344 756.7401,-343.7075 755.4595,-343.4101 754.1664,-343.1097"/>
<polygon fill="#191970" stroke="#191970" points="754.6763,-339.635 744.1436,-340.7805 753.0917,-346.4533 754.6763,-339.635"/>
</g>
<!-- Node47&#45;&gt;Node2 -->
<g id="edge126" class="edge">
<title>Node47&#45;&gt;Node2</title>
<path fill="none" stroke="#191970" d="M1074.3847,-385.919C978.0676,-379.3297 809.3631,-364.9345 791,-344 782.0404,-333.7858 739.0079,-246.9012 820,-123 829.166,-108.978 844.2495,-98.4794 858.4156,-91.0798"/>
<polygon fill="#191970" stroke="#191970" points="860.0539,-94.1752 867.5209,-86.6589 856.9965,-87.8782 860.0539,-94.1752"/>
</g>
<!-- Node47&#45;&gt;Node17 -->
<g id="edge127" class="edge">
<title>Node47&#45;&gt;Node17</title>
<path fill="none" stroke="#191970" d="M1149.2621,-380.2123C1162.7199,-365.0593 1191.0038,-336.3797 1222,-324 1252.247,-311.9195 1737.0167,-282.055 1865.1419,-274.3418"/>
<polygon fill="#191970" stroke="#191970" points="1865.6436,-277.818 1875.4158,-273.7248 1865.2239,-270.8306 1865.6436,-277.818"/>
</g>
<!-- Node47&#45;&gt;Node18 -->
<g id="edge128" class="edge">
<title>Node47&#45;&gt;Node18</title>
<path fill="none" stroke="#191970" d="M1144.2253,-380.4364C1149.7789,-365.5904 1162.6538,-337.324 1184,-324 1239.4626,-289.3811 1411.349,-297.7373 1476,-288 1494.1695,-285.2634 1514.38,-281.6949 1530.745,-278.6718"/>
<polygon fill="#191970" stroke="#191970" points="1531.6964,-282.0547 1540.8838,-276.7782 1530.4111,-275.1737 1531.6964,-282.0547"/>
</g>
<!-- Node47&#45;&gt;Node19 -->
<g id="edge129" class="edge">
<title>Node47&#45;&gt;Node19</title>
<path fill="none" stroke="#191970" d="M1167.3016,-380.3733C1192.4128,-371.1822 1230.4438,-357.2624 1258.2872,-347.0713"/>
<polygon fill="#191970" stroke="#191970" points="1259.8538,-350.2251 1268.0416,-343.5011 1257.4478,-343.6516 1259.8538,-350.2251"/>
</g>
<!-- Node47&#45;&gt;Node46 -->
<g id="edge130" class="edge">
<title>Node47&#45;&gt;Node46</title>
<path fill="none" stroke="#191970" d="M1074.2538,-384.2077C997.5769,-377.0394 868.1524,-363.3639 758,-344 756.7261,-343.7761 755.4334,-343.5382 754.1298,-343.2892"/>
<polygon fill="#191970" stroke="#191970" points="754.5573,-339.8037 744.0562,-341.2094 753.1419,-346.6592 754.5573,-339.8037"/>
</g>
<!-- Node48&#45;&gt;Node4 -->
<g id="edge135" class="edge">
<title>Node48&#45;&gt;Node4</title>
<path fill="none" stroke="#191970" d="M1132.2206,-330.6031C1167.5955,-328.5041 1214.4902,-325.8648 1256,-324 1726.464,-302.8645 1844.5245,-308.8785 2315,-288 2386.0665,-284.8462 2467.1198,-280.3113 2524.2162,-276.961"/>
<polygon fill="#191970" stroke="#191970" points="2524.4573,-280.4529 2534.2342,-276.3709 2524.0456,-273.465 2524.4573,-280.4529"/>
</g>
<!-- Node48&#45;&gt;Node15 -->
<g id="edge134" class="edge">
<title>Node48&#45;&gt;Node15</title>
<path fill="none" stroke="#191970" d="M1132.2332,-330.8588C1167.6131,-328.8604 1214.5086,-326.2371 1256,-324 1602.3491,-305.326 2016.8573,-284.1717 2178.1033,-275.9881"/>
<polygon fill="#191970" stroke="#191970" points="2178.5449,-279.4702 2188.3546,-275.4679 2178.1901,-272.4792 2178.5449,-279.4702"/>
</g>
<!-- Node48&#45;&gt;Node16 -->
<g id="edge139" class="edge">
<title>Node48&#45;&gt;Node16</title>
<path fill="none" stroke="#191970" d="M1125.5628,-324.4581C1172.9434,-315.1485 1246.0591,-300.7823 1303.4095,-289.5138"/>
<polygon fill="#191970" stroke="#191970" points="1304.4227,-292.8817 1313.5602,-287.5193 1303.073,-286.013 1304.4227,-292.8817"/>
</g>
<!-- Node48&#45;&gt;Node17 -->
<g id="edge138" class="edge">
<title>Node48&#45;&gt;Node17</title>
<path fill="none" stroke="#191970" d="M1132.2397,-328.6143C1148.8708,-327.0531 1167.1728,-325.3947 1184,-324 1447.3931,-302.1685 1766.0419,-280.9718 1865.1085,-274.5019"/>
<polygon fill="#191970" stroke="#191970" points="1865.5583,-277.9801 1875.3095,-273.8372 1865.103,-270.995 1865.5583,-277.9801"/>
</g>
<!-- Node48&#45;&gt;Node41 -->
<g id="edge133" class="edge">
<title>Node48&#45;&gt;Node41</title>
<path fill="none" stroke="#191970" d="M1132.0781,-326.1206C1188.5613,-315.8131 1263.843,-294.4944 1231,-257 1190.9706,-211.3014 1018.2906,-238.1151 960,-221 958.0869,-220.4383 956.145,-219.7801 954.2103,-219.0578"/>
<polygon fill="#191970" stroke="#191970" points="955.3373,-215.7342 944.7639,-215.0602 952.6092,-222.1808 955.3373,-215.7342"/>
</g>
<!-- Node48&#45;&gt;Node43 -->
<g id="edge136" class="edge">
<title>Node48&#45;&gt;Node43</title>
<path fill="none" stroke="#191970" d="M1041.375,-324.3906C1001.6369,-313.6718 937.2732,-296.3105 894.0651,-284.6557"/>
<polygon fill="#191970" stroke="#191970" points="894.9413,-281.267 884.3748,-282.0419 893.1182,-288.0255 894.9413,-281.267"/>
</g>
<!-- Node49 -->
<g id="node49" class="node">
<title>Node49</title>
<polygon fill="#ffffff" stroke="#bfbfbf" points="1176.5,-263 1176.5,-282 1221.5,-282 1221.5,-263 1176.5,-263"/>
<text text-anchor="middle" x="1199" y="-270" font-family="Helvetica,sans-Serif" font-size="10.00" fill="#000000">iosfwd</text>
</g>
<!-- Node48&#45;&gt;Node49 -->
<g id="edge137" class="edge">
<title>Node48&#45;&gt;Node49</title>
<path fill="none" stroke="#191970" d="M1096.0625,-324.3906C1116.1172,-314.2811 1147.8934,-298.2628 1170.8384,-286.6962"/>
<polygon fill="#191970" stroke="#191970" points="1172.7173,-289.6687 1180.0714,-282.0419 1169.5663,-283.418 1172.7173,-289.6687"/>
</g>
</g>
</svg>
        <g id="navigator" transform="translate(0 0)" fill="#404254">
                <rect fill="#f2f5e9" fill-opacity="0.5" stroke="#606060" stroke-width=".5" x="0" y="0" width="60" height="60"/>
                <use id="zoomplus" xlink:href="#zoomPlus" x="17" y="9" onmousedown="handleZoom(evt,'in')"/>
                <use id="zoomminus" xlink:href="#zoomMin" x="42" y="9" onmousedown="handleZoom(evt,'out')"/>
                <use id="reset" xlink:href="#resetDef" x="30" y="36" onmousedown="handleReset()"/>
                <g id="arrowUp" xlink:href="#dirArrow" transform="translate(30 24)" onmousedown="handlePan(0,-1)">
                  <use xlink:href="#rim" fill="#404040">
                        <set attributeName="fill" to="#808080" begin="arrowUp.mouseover" end="arrowUp.mouseout"/>
                  </use>
                  <path fill="none" stroke="white" stroke-width="1.5" d="M0,-3.0v7 M-2.5,-0.5L0,-3.0L2.5,-0.5"/>
                </g>
                <g id="arrowRight" xlink:href="#dirArrow" transform="rotate(90) translate(36 -43)" onmousedown="handlePan(1,0)">
                  <use xlink:href="#rim" fill="#404040">
                        <set attributeName="fill" to="#808080" begin="arrowRight.mouseover" end="arrowRight.mouseout"/>
                  </use>
                  <path fill="none" stroke="white" stroke-width="1.5" d="M0,-3.0v7 M-2.5,-0.5L0,-3.0L2.5,-0.5"/>
                </g>
                <g id="arrowDown" xlink:href="#dirArrow" transform="rotate(180) translate(-30 -48)" onmousedown="handlePan(0,1)">
                  <use xlink:href="#rim" fill="#404040">
                        <set attributeName="fill" to="#808080" begin="arrowDown.mouseover" end="arrowDown.mouseout"/>
                  </use>
                  <path fill="none" stroke="white" stroke-width="1.5" d="M0,-3.0v7 M-2.5,-0.5L0,-3.0L2.5,-0.5"/>
                </g>
                <g id="arrowLeft" xlink:href="#dirArrow" transform="rotate(270) translate(-36 17)" onmousedown="handlePan(-1,0)">
                  <use xlink:href="#rim" fill="#404040">
                        <set attributeName="fill" to="#808080" begin="arrowLeft.mouseover" end="arrowLeft.mouseout"/>
                  </use>
                  <path fill="none" stroke="white" stroke-width="1.5" d="M0,-3.0v7 M-2.5,-0.5L0,-3.0L2.5,-0.5"/>
                </g>
        </g>
        <svg viewBox="0 0 15 15" width="100%" height="30px" preserveAspectRatio="xMaxYMin meet">
         <g id="arrow_out" transform="scale(0.3 0.3)">
          <a xlink:href="_a_s_t_node_8h__incl_org.svg" target="_base">
           <rect id="button" ry="5" rx="5" y="6" x="6" height="38" width="38"
                fill="#f2f5e9" fill-opacity="0.5" stroke="#606060" stroke-width="1.0"/>
           <path id="arrow"
             d="M 11.500037,31.436501 C 11.940474,20.09759 22.043105,11.32322 32.158766,21.979434 L 37.068811,17.246167 C 37.068811,17.246167 37.088388,32 37.088388,32 L 22.160133,31.978069 C 22.160133,31.978069 26.997745,27.140456 26.997745,27.140456 C 18.528582,18.264221 13.291696,25.230495 11.500037,31.436501 z"
             style="fill:#404040;"/>
          </a>
         </g>
        </svg>
</svg>
