<?xml version="1.0" encoding="UTF-8" standalone="no"?>
<!DOCTYPE svg PUBLIC "-//W3C//DTD SVG 1.1//EN"
 "http://www.w3.org/Graphics/SVG/1.1/DTD/svg11.dtd">
<!-- Generated by graphviz version 2.40.1 (20161225.0304)
 -->
<!-- Title: CompSBMLErrorTable.h Pages: 1 -->
<svg width="302pt" height="84pt"
 viewBox="0.00 0.00 302.00 84.00" xmlns="http://www.w3.org/2000/svg" xmlns:xlink="http://www.w3.org/1999/xlink">
<g id="graph0" class="graph" transform="scale(1 1) rotate(0) translate(4 80)">
<title>CompSBMLErrorTable.h</title>
<polygon fill="#ffffff" stroke="transparent" points="-4,4 -4,-80 298,-80 298,4 -4,4"/>
<!-- Node1 -->
<g id="node1" class="node">
<title>Node1</title>
<polygon fill="#bfbfbf" stroke="#000000" points="107.5,-56.5 107.5,-75.5 206.5,-75.5 206.5,-56.5 107.5,-56.5"/>
<text text-anchor="middle" x="157" y="-63.5" font-family="Helvetica,sans-Serif" font-size="10.00" fill="#000000">CompSBMLErrorTable.h</text>
</g>
<!-- Node2 -->
<g id="node2" class="node">
<title>Node2</title>
<g id="a_node2"><a xlink:href="_comp_extension_8cpp.html" target="_top" xlink:title="Implementation of CompExtension, the core module of comp package. ">
<polygon fill="#ffffff" stroke="#000000" points="0,-.5 0,-19.5 84,-19.5 84,-.5 0,-.5"/>
<text text-anchor="middle" x="42" y="-7.5" font-family="Helvetica,sans-Serif" font-size="10.00" fill="#000000">CompExtension.cpp</text>
</a>
</g>
</g>
<!-- Node1&#45;&gt;Node2 -->
<g id="edge1" class="edge">
<title>Node1&#45;&gt;Node2</title>
<path fill="none" stroke="#191970" d="M128.1967,-51.9741C107.375,-41.8348 79.8022,-28.408 61.5112,-19.5011"/>
<polygon fill="#191970" stroke="#191970" points="126.7078,-55.1419 137.2308,-56.3733 129.7724,-48.8484 126.7078,-55.1419"/>
</g>
<!-- Node3 -->
<g id="node3" class="node">
<title>Node3</title>
<g id="a_node3"><a xlink:href="_external_model_definition_8cpp.html" target="_top" xlink:title="Implementation of ExternalModelDefinition, the SBase&#45;derived class of the comp package. ">
<polygon fill="#ffffff" stroke="#000000" points="102,-.5 102,-19.5 212,-19.5 212,-.5 102,-.5"/>
<text text-anchor="middle" x="157" y="-7.5" font-family="Helvetica,sans-Serif" font-size="10.00" fill="#000000">ExternalModelDefinition.cpp</text>
</a>
</g>
</g>
<!-- Node1&#45;&gt;Node3 -->
<g id="edge2" class="edge">
<title>Node1&#45;&gt;Node3</title>
<path fill="none" stroke="#191970" d="M157,-46.1575C157,-37.155 157,-26.9199 157,-19.6427"/>
<polygon fill="#191970" stroke="#191970" points="153.5001,-46.2455 157,-56.2455 160.5001,-46.2456 153.5001,-46.2455"/>
</g>
<!-- Node4 -->
<g id="node4" class="node">
<title>Node4</title>
<g id="a_node4"><a xlink:href="_s_base_ref_8cpp.html" target="_top" xlink:title="Implementation of SBaseRef, the SBase&#45;derived class of the comp package. ">
<polygon fill="#ffffff" stroke="#000000" points="230,-.5 230,-19.5 294,-19.5 294,-.5 230,-.5"/>
<text text-anchor="middle" x="262" y="-7.5" font-family="Helvetica,sans-Serif" font-size="10.00" fill="#000000">SBaseRef.cpp</text>
</a>
</g>
</g>
<!-- Node1&#45;&gt;Node4 -->
<g id="edge3" class="edge">
<title>Node1&#45;&gt;Node4</title>
<path fill="none" stroke="#191970" d="M184.2625,-51.46C203.0522,-41.4388 227.5013,-28.3993 243.92,-19.6427"/>
<polygon fill="#191970" stroke="#191970" points="182.4661,-48.4514 175.2896,-56.2455 185.7602,-54.6278 182.4661,-48.4514"/>
</g>
</g>
</svg>
