<?xml version="1.0" encoding="UTF-8" standalone="no"?>
<!DOCTYPE svg PUBLIC "-//W3C//DTD SVG 1.1//EN"
 "http://www.w3.org/Graphics/SVG/1.1/DTD/svg11.dtd">
<!-- Generated by graphviz version 2.40.1 (20161225.0304)
 -->
<!-- Title: CompartmentReference.h Pages: 1 -->
<svg width="429pt" height="196pt"
 viewBox="0.00 0.00 428.50 196.00" xmlns="http://www.w3.org/2000/svg" xmlns:xlink="http://www.w3.org/1999/xlink">
<g id="graph0" class="graph" transform="scale(1 1) rotate(0) translate(4 192)">
<title>CompartmentReference.h</title>
<polygon fill="#ffffff" stroke="transparent" points="-4,4 -4,-192 424.5,-192 424.5,4 -4,4"/>
<!-- Node1 -->
<g id="node1" class="node">
<title>Node1</title>
<polygon fill="#bfbfbf" stroke="#000000" points="127.5,-168.5 127.5,-187.5 259.5,-187.5 259.5,-168.5 127.5,-168.5"/>
<text text-anchor="middle" x="193.5" y="-175.5" font-family="Helvetica,sans-Serif" font-size="10.00" fill="#000000">CompartmentReference.h</text>
</g>
<!-- Node2 -->
<g id="node2" class="node">
<title>Node2</title>
<g id="a_node2"><a xlink:href="_multi_extension_types_8h.html" target="_top" xlink:title=": Implementation of the MultiExtensionTypes class ">
<polygon fill="#ffffff" stroke="#000000" points="0,-56.5 0,-75.5 117,-75.5 117,-56.5 0,-56.5"/>
<text text-anchor="middle" x="58.5" y="-63.5" font-family="Helvetica,sans-Serif" font-size="10.00" fill="#000000">MultiExtensionTypes.h</text>
</a>
</g>
</g>
<!-- Node1&#45;&gt;Node2 -->
<g id="edge1" class="edge">
<title>Node1&#45;&gt;Node2</title>
<path fill="none" stroke="#191970" d="M165.5356,-163.7087C150.571,-155.4285 132.2415,-144.2365 117.5,-132 96.4498,-114.5269 76.1485,-89.444 65.7315,-75.7812"/>
<polygon fill="#191970" stroke="#191970" points="163.8941,-166.7999 174.3562,-168.4713 167.2198,-160.6404 163.8941,-166.7999"/>
</g>
<!-- Node4 -->
<g id="node4" class="node">
<title>Node4</title>
<g id="a_node4"><a xlink:href="_multi_compartment_plugin_8h.html" target="_top" xlink:title=": Implementation of the MultiCompartmentPlugin class ">
<polygon fill="#ffffff" stroke="#000000" points="126.5,-112.5 126.5,-131.5 260.5,-131.5 260.5,-112.5 126.5,-112.5"/>
<text text-anchor="middle" x="193.5" y="-119.5" font-family="Helvetica,sans-Serif" font-size="10.00" fill="#000000">MultiCompartmentPlugin.h</text>
</a>
</g>
</g>
<!-- Node1&#45;&gt;Node4 -->
<g id="edge3" class="edge">
<title>Node1&#45;&gt;Node4</title>
<path fill="none" stroke="#191970" d="M193.5,-158.1575C193.5,-149.155 193.5,-138.9199 193.5,-131.6427"/>
<polygon fill="#191970" stroke="#191970" points="190.0001,-158.2455 193.5,-168.2455 197.0001,-158.2456 190.0001,-158.2455"/>
</g>
<!-- Node7 -->
<g id="node7" class="node">
<title>Node7</title>
<g id="a_node7"><a xlink:href="_compartment_reference_8cpp.html" target="_top" xlink:title=": Implementation of the CompartmentReference class ">
<polygon fill="#ffffff" stroke="#000000" points="278.5,-112.5 278.5,-131.5 420.5,-131.5 420.5,-112.5 278.5,-112.5"/>
<text text-anchor="middle" x="349.5" y="-119.5" font-family="Helvetica,sans-Serif" font-size="10.00" fill="#000000">CompartmentReference.cpp</text>
</a>
</g>
</g>
<!-- Node1&#45;&gt;Node7 -->
<g id="edge7" class="edge">
<title>Node1&#45;&gt;Node7</title>
<path fill="none" stroke="#191970" d="M229.9284,-164.9231C258.4461,-154.686 297.4381,-140.6889 323.0326,-131.5011"/>
<polygon fill="#191970" stroke="#191970" points="228.5468,-161.7004 220.3174,-168.3733 230.9119,-168.2887 228.5468,-161.7004"/>
</g>
<!-- Node3 -->
<g id="node3" class="node">
<title>Node3</title>
<g id="a_node3"><a xlink:href="_multi_validator_8cpp.html" target="_top" xlink:title=": Implementation of the MultiValidator class ">
<polygon fill="#ffffff" stroke="#000000" points="10.5,-.5 10.5,-19.5 106.5,-19.5 106.5,-.5 10.5,-.5"/>
<text text-anchor="middle" x="58.5" y="-7.5" font-family="Helvetica,sans-Serif" font-size="10.00" fill="#000000">MultiValidator.cpp</text>
</a>
</g>
</g>
<!-- Node2&#45;&gt;Node3 -->
<g id="edge2" class="edge">
<title>Node2&#45;&gt;Node3</title>
<path fill="none" stroke="#191970" d="M58.5,-46.1575C58.5,-37.155 58.5,-26.9199 58.5,-19.6427"/>
<polygon fill="#191970" stroke="#191970" points="55.0001,-46.2455 58.5,-56.2455 62.0001,-46.2456 55.0001,-46.2455"/>
</g>
<!-- Node4&#45;&gt;Node2 -->
<g id="edge4" class="edge">
<title>Node4&#45;&gt;Node2</title>
<path fill="none" stroke="#191970" d="M161.0009,-108.5189C136.4146,-98.3201 103.2634,-84.5685 81.4045,-75.5011"/>
<polygon fill="#191970" stroke="#191970" points="159.7148,-111.7745 170.2927,-112.3733 162.3969,-105.3087 159.7148,-111.7745"/>
</g>
<!-- Node5 -->
<g id="node5" class="node">
<title>Node5</title>
<g id="a_node5"><a xlink:href="_multi_compartment_plugin_8cpp.html" target="_top" xlink:title=": Implementation of the MultiCompartmentPlugin class ">
<polygon fill="#ffffff" stroke="#000000" points="135,-56.5 135,-75.5 280,-75.5 280,-56.5 135,-56.5"/>
<text text-anchor="middle" x="207.5" y="-63.5" font-family="Helvetica,sans-Serif" font-size="10.00" fill="#000000">MultiCompartmentPlugin.cpp</text>
</a>
</g>
</g>
<!-- Node4&#45;&gt;Node5 -->
<g id="edge5" class="edge">
<title>Node4&#45;&gt;Node5</title>
<path fill="none" stroke="#191970" d="M198.3865,-102.4538C200.6549,-93.3803 203.25,-82.9998 205.0893,-75.6427"/>
<polygon fill="#191970" stroke="#191970" points="194.9685,-101.6952 195.9386,-112.2455 201.7595,-103.393 194.9685,-101.6952"/>
</g>
<!-- Node6 -->
<g id="node6" class="node">
<title>Node6</title>
<g id="a_node6"><a xlink:href="_multi_extension_8cpp.html" target="_top" xlink:title=": Implementation of the MultiExtension class ">
<polygon fill="#ffffff" stroke="#000000" points="298.5,-56.5 298.5,-75.5 398.5,-75.5 398.5,-56.5 298.5,-56.5"/>
<text text-anchor="middle" x="348.5" y="-63.5" font-family="Helvetica,sans-Serif" font-size="10.00" fill="#000000">MultiExtension.cpp</text>
</a>
</g>
</g>
<!-- Node4&#45;&gt;Node6 -->
<g id="edge6" class="edge">
<title>Node4&#45;&gt;Node6</title>
<path fill="none" stroke="#191970" d="M229.6949,-108.9231C258.0297,-98.686 296.7718,-84.6889 322.2022,-75.5011"/>
<polygon fill="#191970" stroke="#191970" points="228.3612,-105.6835 220.1454,-112.3733 230.7398,-112.267 228.3612,-105.6835"/>
</g>
</g>
</svg>
