<?xml version="1.0" encoding="UTF-8" standalone="no"?>
<!DOCTYPE svg PUBLIC "-//W3C//DTD SVG 1.1//EN"
 "http://www.w3.org/Graphics/SVG/1.1/DTD/svg11.dtd">
<!-- Generated by graphviz version 2.40.1 (20161225.0304)
 -->
<!-- Title: CompSBasePlugin.h Pages: 1 -->
<!--zoomable 196 -->
<svg id="main" version="1.1" xmlns="http://www.w3.org/2000/svg" xmlns:xlink="http://www.w3.org/1999/xlink" xml:space="preserve" onload="init(evt)">
<style type="text/css"><![CDATA[
.edge:hover path { stroke: red; }
.edge:hover polygon { stroke: red; fill: red; }
]]></style>
<script type="text/javascript"><![CDATA[
var edges = document.getElementsByTagName('g');
if (edges && edges.length) {
  for (var i=0;i<edges.length;i++) {
    if (edges[i].id.substr(0,4)=='edge') {
      edges[i].setAttribute('class','edge');
    }
  }
}
]]></script>
        <defs>
                <circle id="rim" cx="0" cy="0" r="7"/>
                <circle id="rim2" cx="0" cy="0" r="3.5"/>
                <g id="zoomPlus">
                        <use xlink:href="#rim" fill="#404040">
                                <set attributeName="fill" to="#808080" begin="zoomplus.mouseover" end="zoomplus.mouseout"/>
                        </use>
                        <path d="M-4,0h8M0,-4v8" fill="none" stroke="white" stroke-width="1.5" pointer-events="none"/>
                </g>
                <g id="zoomMin">
                        <use xlink:href="#rim" fill="#404040">
                                <set attributeName="fill" to="#808080" begin="zoomminus.mouseover" end="zoomminus.mouseout"/>
                        </use>
                        <path d="M-4,0h8" fill="none" stroke="white" stroke-width="1.5" pointer-events="none"/>
                </g>
                <g id="dirArrow">
                        <path fill="none" stroke="white" stroke-width="1.5" d="M0,-3.0v7 M-2.5,-0.5L0,-3.0L2.5,-0.5"/>
                </g>
               <g id="resetDef">
                       <use xlink:href="#rim2" fill="#404040">
                               <set attributeName="fill" to="#808080" begin="reset.mouseover" end="reset.mouseout"/>
                       </use>
               </g>
        </defs>

<script type="text/javascript">
var viewWidth = 1204;
var viewHeight = 196;
var sectionId = 'dynsection-1';
</script>
<script xlink:href="svgpan.js"/>
<svg id="graph" class="graph">
<g id="viewport">
<title>CompSBasePlugin.h</title>
<polygon fill="#ffffff" stroke="transparent" points="-4,4 -4,-192 1200,-192 1200,4 -4,4"/>
<!-- Node1 -->
<g id="node1" class="node">
<title>Node1</title>
<polygon fill="#bfbfbf" stroke="#000000" points="920,-168.5 920,-187.5 1006,-187.5 1006,-168.5 920,-168.5"/>
<text text-anchor="middle" x="963" y="-175.5" font-family="Helvetica,sans-Serif" font-size="10.00" fill="#000000">CompSBasePlugin.h</text>
</g>
<!-- Node2 -->
<g id="node2" class="node">
<title>Node2</title>
<g id="a_node2"><a xlink:href="_comp_extension_types_8h.html" target="_top" xlink:title="Include all SBML types of Comp extension in a single header file. ">
<polygon fill="#ffffff" stroke="#000000" points="0,-56.5 0,-75.5 96,-75.5 96,-56.5 0,-56.5"/>
<text text-anchor="middle" x="48" y="-63.5" font-family="Helvetica,sans-Serif" font-size="10.00" fill="#000000">CompExtensionTypes.h</text>
</a>
</g>
</g>
<!-- Node1&#45;&gt;Node2 -->
<g id="edge1" class="edge">
<title>Node1&#45;&gt;Node2</title>
<path fill="none" stroke="#191970" d="M909.746,-174.008C819.6455,-167.0286 631.46,-151.4784 473,-132 308.7975,-111.8158 268.2631,-102.74 105,-76 102.1247,-75.5291 99.1694,-75.0365 96.189,-74.5333"/>
<polygon fill="#191970" stroke="#191970" points="909.7397,-177.5178 919.9791,-174.7965 910.2775,-170.5385 909.7397,-177.5178"/>
</g>
<!-- Node5 -->
<g id="node5" class="node">
<title>Node5</title>
<g id="a_node5"><a xlink:href="_comp_extension_8cpp.html" target="_top" xlink:title="Implementation of CompExtension, the core module of comp package. ">
<polygon fill="#ffffff" stroke="#000000" points="542,-.5 542,-19.5 626,-19.5 626,-.5 542,-.5"/>
<text text-anchor="middle" x="584" y="-7.5" font-family="Helvetica,sans-Serif" font-size="10.00" fill="#000000">CompExtension.cpp</text>
</a>
</g>
</g>
<!-- Node1&#45;&gt;Node5 -->
<g id="edge4" class="edge">
<title>Node1&#45;&gt;Node5</title>
<path fill="none" stroke="#191970" d="M988.8549,-162.8446C1026.2865,-139.0811 1087.697,-92.0459 1055,-56 1026.4339,-24.5081 736.1135,-13.8686 626.0218,-10.9494"/>
<polygon fill="#191970" stroke="#191970" points="986.5924,-160.1285 979.9269,-168.364 990.2732,-166.0826 986.5924,-160.1285"/>
</g>
<!-- Node6 -->
<g id="node6" class="node">
<title>Node6</title>
<g id="a_node6"><a xlink:href="_comp_model_plugin_8h.html" target="_top" xlink:title="Definition of CompModelPlugin, the plugin class of comp package for the Model element. ">
<polygon fill="#ffffff" stroke="#000000" points="482,-112.5 482,-131.5 566,-131.5 566,-112.5 482,-112.5"/>
<text text-anchor="middle" x="524" y="-119.5" font-family="Helvetica,sans-Serif" font-size="10.00" fill="#000000">CompModelPlugin.h</text>
</a>
</g>
</g>
<!-- Node1&#45;&gt;Node6 -->
<g id="edge5" class="edge">
<title>Node1&#45;&gt;Node6</title>
<path fill="none" stroke="#191970" d="M909.6244,-171.1913C821.2302,-159.9155 646.254,-137.595 566.0042,-127.3582"/>
<polygon fill="#191970" stroke="#191970" points="909.343,-174.6837 919.7056,-172.4772 910.2288,-167.7399 909.343,-174.6837"/>
</g>
<!-- Node10 -->
<g id="node10" class="node">
<title>Node10</title>
<g id="a_node10"><a xlink:href="_replaced_by_8cpp.html" target="_top" xlink:title="Implementation of ReplacedBy, the SBaseRef derived class of the comp package. ">
<polygon fill="#ffffff" stroke="#000000" points="866.5,-56.5 866.5,-75.5 937.5,-75.5 937.5,-56.5 866.5,-56.5"/>
<text text-anchor="middle" x="902" y="-63.5" font-family="Helvetica,sans-Serif" font-size="10.00" fill="#000000">ReplacedBy.cpp</text>
</a>
</g>
</g>
<!-- Node1&#45;&gt;Node10 -->
<g id="edge21" class="edge">
<title>Node1&#45;&gt;Node10</title>
<path fill="none" stroke="#191970" d="M952.9635,-159.5723C939.8319,-135.4618 917.306,-94.1028 907.1877,-75.5249"/>
<polygon fill="#191970" stroke="#191970" points="949.9424,-161.3431 957.7992,-168.4509 956.0898,-157.9949 949.9424,-161.3431"/>
</g>
<!-- Node11 -->
<g id="node11" class="node">
<title>Node11</title>
<g id="a_node11"><a xlink:href="_replaced_element_8cpp.html" target="_top" xlink:title="Implementation of ReplacedElement, the Subelement derived class of replacedElements package...">
<polygon fill="#ffffff" stroke="#000000" points="956,-56.5 956,-75.5 1046,-75.5 1046,-56.5 956,-56.5"/>
<text text-anchor="middle" x="1001" y="-63.5" font-family="Helvetica,sans-Serif" font-size="10.00" fill="#000000">ReplacedElement.cpp</text>
</a>
</g>
</g>
<!-- Node1&#45;&gt;Node11 -->
<g id="edge22" class="edge">
<title>Node1&#45;&gt;Node11</title>
<path fill="none" stroke="#191970" d="M969.4718,-158.9253C977.6815,-134.7284 991.5212,-93.9376 997.7683,-75.5249"/>
<polygon fill="#191970" stroke="#191970" points="966.1385,-157.8566 966.2399,-168.4509 972.7673,-160.1057 966.1385,-157.8566"/>
</g>
<!-- Node16 -->
<g id="node16" class="node">
<title>Node16</title>
<g id="a_node16"><a xlink:href="_comp_s_base_plugin_8cpp.html" target="_top" xlink:title="Implementation of CompSBasePlugin, the plugin class of comp package for the SBase element...">
<polygon fill="#ffffff" stroke="#000000" points="1102,-112.5 1102,-131.5 1196,-131.5 1196,-112.5 1102,-112.5"/>
<text text-anchor="middle" x="1149" y="-119.5" font-family="Helvetica,sans-Serif" font-size="10.00" fill="#000000">CompSBasePlugin.cpp</text>
</a>
</g>
</g>
<!-- Node1&#45;&gt;Node16 -->
<g id="edge20" class="edge">
<title>Node1&#45;&gt;Node16</title>
<path fill="none" stroke="#191970" d="M1004.6637,-165.4561C1038.8067,-155.1765 1086.3931,-140.8494 1117.4427,-131.5011"/>
<polygon fill="#191970" stroke="#191970" points="1003.5409,-162.1389 994.9745,-168.3733 1005.559,-168.8417 1003.5409,-162.1389"/>
</g>
<!-- Node3 -->
<g id="node3" class="node">
<title>Node3</title>
<g id="a_node3"><a xlink:href="_comp_flattening_converter_8cpp.html" target="_top" xlink:title="Implementation of a first flattening converter. ">
<polygon fill="#ffffff" stroke="#000000" points="108.5,-.5 108.5,-19.5 225.5,-19.5 225.5,-.5 108.5,-.5"/>
<text text-anchor="middle" x="167" y="-7.5" font-family="Helvetica,sans-Serif" font-size="10.00" fill="#000000">CompFlatteningConverter.cpp</text>
</a>
</g>
</g>
<!-- Node2&#45;&gt;Node3 -->
<g id="edge2" class="edge">
<title>Node2&#45;&gt;Node3</title>
<path fill="none" stroke="#191970" d="M77.5144,-52.1109C99.0938,-41.9559 127.7976,-28.4482 146.8101,-19.5011"/>
<polygon fill="#191970" stroke="#191970" points="76.0147,-48.9484 68.4568,-56.3733 78.9953,-55.2821 76.0147,-48.9484"/>
</g>
<!-- Node4 -->
<g id="node4" class="node">
<title>Node4</title>
<g id="a_node4"><a xlink:href="_comp_validator_8cpp.html" target="_top" xlink:title="CompValidator.cpp">
<polygon fill="#ffffff" stroke="#000000" points="8,-.5 8,-19.5 88,-19.5 88,-.5 8,-.5"/>
<text text-anchor="middle" x="48" y="-7.5" font-family="Helvetica,sans-Serif" font-size="10.00" fill="#000000">CompValidator.cpp</text>
</a>
</g>
</g>
<!-- Node2&#45;&gt;Node4 -->
<g id="edge3" class="edge">
<title>Node2&#45;&gt;Node4</title>
<path fill="none" stroke="#191970" d="M48,-46.1575C48,-37.155 48,-26.9199 48,-19.6427"/>
<polygon fill="#191970" stroke="#191970" points="44.5001,-46.2455 48,-56.2455 51.5001,-46.2456 44.5001,-46.2455"/>
</g>
<!-- Node6&#45;&gt;Node2 -->
<g id="edge6" class="edge">
<title>Node6&#45;&gt;Node2</title>
<path fill="none" stroke="#191970" d="M471.7337,-117.3514C392.3137,-110.0417 236.5643,-94.7428 105,-76 102.1155,-75.5891 99.1531,-75.1429 96.1674,-74.6748"/>
<polygon fill="#191970" stroke="#191970" points="471.683,-120.8613 481.9604,-118.2872 472.321,-113.8904 471.683,-120.8613"/>
</g>
<!-- Node6&#45;&gt;Node5 -->
<g id="edge7" class="edge">
<title>Node6&#45;&gt;Node5</title>
<path fill="none" stroke="#191970" d="M542.4121,-105.0981C550.334,-96.9682 559.1088,-86.6783 565,-76 575.1373,-57.6252 580.3163,-33.3204 582.5632,-19.9244"/>
<polygon fill="#191970" stroke="#191970" points="539.6085,-102.9448 534.9128,-112.4423 544.5063,-107.946 539.6085,-102.9448"/>
</g>
<!-- Node7 -->
<g id="node7" class="node">
<title>Node7</title>
<g id="a_node7"><a xlink:href="_comp_model_plugin_8cpp.html" target="_top" xlink:title="Implementation of CompModelPlugin, the plugin class of comp package for the SBase element...">
<polygon fill="#ffffff" stroke="#000000" points="612,-56.5 612,-75.5 704,-75.5 704,-56.5 612,-56.5"/>
<text text-anchor="middle" x="658" y="-63.5" font-family="Helvetica,sans-Serif" font-size="10.00" fill="#000000">CompModelPlugin.cpp</text>
</a>
</g>
</g>
<!-- Node6&#45;&gt;Node7 -->
<g id="edge8" class="edge">
<title>Node6&#45;&gt;Node7</title>
<path fill="none" stroke="#191970" d="M556.5828,-108.3833C580.9536,-98.1985 613.6642,-84.5284 635.2652,-75.5011"/>
<polygon fill="#191970" stroke="#191970" points="554.9125,-105.2879 547.0354,-112.3733 557.6117,-111.7466 554.9125,-105.2879"/>
</g>
<!-- Node8 -->
<g id="node8" class="node">
<title>Node8</title>
<g id="a_node8"><a xlink:href="_comp_s_b_m_l_document_plugin_8cpp.html" target="_top" xlink:title="Implementation of CompSBMLDocumentPlugin, the plugin class of comp package for the SBase element...">
<polygon fill="#ffffff" stroke="#000000" points="722,-56.5 722,-75.5 848,-75.5 848,-56.5 722,-56.5"/>
<text text-anchor="middle" x="785" y="-63.5" font-family="Helvetica,sans-Serif" font-size="10.00" fill="#000000">CompSBMLDocumentPlugin.cpp</text>
</a>
</g>
</g>
<!-- Node6&#45;&gt;Node8 -->
<g id="edge9" class="edge">
<title>Node6&#45;&gt;Node8</title>
<path fill="none" stroke="#191970" d="M576.1446,-110.8119C624.3242,-100.4745 695.1303,-85.2824 740.6533,-75.515"/>
<polygon fill="#191970" stroke="#191970" points="575.2674,-107.4203 566.2242,-112.9404 576.736,-114.2646 575.2674,-107.4203"/>
</g>
<!-- Node9 -->
<g id="node9" class="node">
<title>Node9</title>
<g id="a_node9"><a xlink:href="_comp_base_8cpp.html" target="_top" xlink:title="Implementation of CompBase, the base class of extension entities plugged in SBase derived classes in ...">
<polygon fill="#ffffff" stroke="#000000" points="242,-56.5 242,-75.5 310,-75.5 310,-56.5 242,-56.5"/>
<text text-anchor="middle" x="276" y="-63.5" font-family="Helvetica,sans-Serif" font-size="10.00" fill="#000000">CompBase.cpp</text>
</a>
</g>
</g>
<!-- Node6&#45;&gt;Node9 -->
<g id="edge10" class="edge">
<title>Node6&#45;&gt;Node9</title>
<path fill="none" stroke="#191970" d="M472.0976,-110.4704C430.6402,-101.2328 371.0679,-87.896 319,-76 316.1607,-75.3513 313.2168,-74.6748 310.262,-73.9932"/>
<polygon fill="#191970" stroke="#191970" points="471.4468,-113.9111 481.9685,-112.6686 472.9685,-107.0785 471.4468,-113.9111"/>
</g>
<!-- Node6&#45;&gt;Node10 -->
<g id="edge11" class="edge">
<title>Node6&#45;&gt;Node10</title>
<path fill="none" stroke="#191970" d="M576.3386,-116.1064C642.1024,-108.3945 758.3137,-93.7509 857,-76 859.9931,-75.4616 863.0892,-74.8627 866.1917,-74.2332"/>
<polygon fill="#191970" stroke="#191970" points="575.7554,-112.6506 566.2274,-117.284 576.5652,-119.6036 575.7554,-112.6506"/>
</g>
<!-- Node6&#45;&gt;Node11 -->
<g id="edge12" class="edge">
<title>Node6&#45;&gt;Node11</title>
<path fill="none" stroke="#191970" d="M576.4729,-117.5656C656.5846,-110.5086 814.1005,-95.5038 947,-76 949.9243,-75.5708 952.9323,-75.099 955.9607,-74.601"/>
<polygon fill="#191970" stroke="#191970" points="575.8166,-114.1096 566.1596,-118.4677 576.4266,-121.0829 575.8166,-114.1096"/>
</g>
<!-- Node12 -->
<g id="node12" class="node">
<title>Node12</title>
<g id="a_node12"><a xlink:href="_replacing_8cpp.html" target="_top" xlink:title="Implementation of Replacing, the SBaseRef derived class of Replacings package. ">
<polygon fill="#ffffff" stroke="#000000" points="328,-56.5 328,-75.5 392,-75.5 392,-56.5 328,-56.5"/>
<text text-anchor="middle" x="360" y="-63.5" font-family="Helvetica,sans-Serif" font-size="10.00" fill="#000000">Replacing.cpp</text>
</a>
</g>
</g>
<!-- Node6&#45;&gt;Node12 -->
<g id="edge13" class="edge">
<title>Node6&#45;&gt;Node12</title>
<path fill="none" stroke="#191970" d="M486.0956,-109.057C456.0816,-98.8084 414.8493,-84.729 387.8247,-75.5011"/>
<polygon fill="#191970" stroke="#191970" points="485.2129,-112.454 495.8074,-112.3733 487.4749,-105.8295 485.2129,-112.454"/>
</g>
<!-- Node13 -->
<g id="node13" class="node">
<title>Node13</title>
<g id="a_node13"><a xlink:href="_s_base_ref_8cpp.html" target="_top" xlink:title="Implementation of SBaseRef, the SBase&#45;derived class of the comp package. ">
<polygon fill="#ffffff" stroke="#000000" points="410,-56.5 410,-75.5 474,-75.5 474,-56.5 410,-56.5"/>
<text text-anchor="middle" x="442" y="-63.5" font-family="Helvetica,sans-Serif" font-size="10.00" fill="#000000">SBaseRef.cpp</text>
</a>
</g>
</g>
<!-- Node6&#45;&gt;Node13 -->
<g id="edge14" class="edge">
<title>Node6&#45;&gt;Node13</title>
<path fill="none" stroke="#191970" d="M501.289,-106.49C486.8212,-96.6096 468.532,-84.1194 456.1196,-75.6427"/>
<polygon fill="#191970" stroke="#191970" points="499.4848,-109.4962 509.7167,-112.2455 503.4325,-103.7156 499.4848,-109.4962"/>
</g>
<!-- Node14 -->
<g id="node14" class="node">
<title>Node14</title>
<g id="a_node14"><a xlink:href="_submodel_8cpp.html" target="_top" xlink:title="Implementation of Submodel, the SBase&#45;derived class of the comp package. ">
<polygon fill="#ffffff" stroke="#000000" points="492,-56.5 492,-75.5 556,-75.5 556,-56.5 492,-56.5"/>
<text text-anchor="middle" x="524" y="-63.5" font-family="Helvetica,sans-Serif" font-size="10.00" fill="#000000">Submodel.cpp</text>
</a>
</g>
</g>
<!-- Node6&#45;&gt;Node14 -->
<g id="edge15" class="edge">
<title>Node6&#45;&gt;Node14</title>
<path fill="none" stroke="#191970" d="M524,-102.1575C524,-93.155 524,-82.9199 524,-75.6427"/>
<polygon fill="#191970" stroke="#191970" points="520.5001,-102.2455 524,-112.2455 527.5001,-102.2456 520.5001,-102.2455"/>
</g>
<!-- Node15 -->
<g id="node15" class="node">
<title>Node15</title>
<g id="a_node15"><a xlink:href="_comp_flattening_converter_8h.html" target="_top" xlink:title="Definition of a first flattening converter. ">
<polygon fill="#ffffff" stroke="#000000" points="114.5,-56.5 114.5,-75.5 223.5,-75.5 223.5,-56.5 114.5,-56.5"/>
<text text-anchor="middle" x="169" y="-63.5" font-family="Helvetica,sans-Serif" font-size="10.00" fill="#000000">CompFlatteningConverter.h</text>
</a>
</g>
</g>
<!-- Node6&#45;&gt;Node15 -->
<g id="edge16" class="edge">
<title>Node6&#45;&gt;Node15</title>
<path fill="none" stroke="#191970" d="M471.7495,-114.5106C405.3086,-104.4213 291.3179,-86.4625 223.724,-75.454"/>
<polygon fill="#191970" stroke="#191970" points="471.5791,-118.0246 481.9902,-116.06 472.6263,-111.1034 471.5791,-118.0246"/>
</g>
<!-- Node15&#45;&gt;Node3 -->
<g id="edge19" class="edge">
<title>Node15&#45;&gt;Node3</title>
<path fill="none" stroke="#191970" d="M168.2913,-46.1575C167.9698,-37.155 167.6043,-26.9199 167.3444,-19.6427"/>
<polygon fill="#191970" stroke="#191970" points="164.7968,-46.3769 168.6516,-56.2455 171.7924,-46.127 164.7968,-46.3769"/>
</g>
<!-- Node15&#45;&gt;Node5 -->
<g id="edge17" class="edge">
<title>Node15&#45;&gt;Node5</title>
<path fill="none" stroke="#191970" d="M233.7095,-55.9261C351.4705,-39.1067 477.6561,-23.1509 541.811,-15.1875"/>
<polygon fill="#191970" stroke="#191970" points="233.2017,-52.4631 223.7994,-57.3465 234.1949,-59.3923 233.2017,-52.4631"/>
</g>
<!-- Node15&#45;&gt;Node6 -->
<g id="edge18" class="edge">
<title>Node15&#45;&gt;Node6</title>
<path fill="none" stroke="#191970" d="M233.493,-75.3551C305.6983,-86.3949 420.4707,-104.5231 481.9706,-114.6214"/>
<polygon fill="#191970" stroke="#191970" points="234.0104,-71.8937 223.597,-73.846 232.955,-78.8136 234.0104,-71.8937"/>
</g>
</g>
</svg>
        <g id="navigator" transform="translate(0 0)" fill="#404254">
                <rect fill="#f2f5e9" fill-opacity="0.5" stroke="#606060" stroke-width=".5" x="0" y="0" width="60" height="60"/>
                <use id="zoomplus" xlink:href="#zoomPlus" x="17" y="9" onmousedown="handleZoom(evt,'in')"/>
                <use id="zoomminus" xlink:href="#zoomMin" x="42" y="9" onmousedown="handleZoom(evt,'out')"/>
                <use id="reset" xlink:href="#resetDef" x="30" y="36" onmousedown="handleReset()"/>
                <g id="arrowUp" xlink:href="#dirArrow" transform="translate(30 24)" onmousedown="handlePan(0,-1)">
                  <use xlink:href="#rim" fill="#404040">
                        <set attributeName="fill" to="#808080" begin="arrowUp.mouseover" end="arrowUp.mouseout"/>
                  </use>
                  <path fill="none" stroke="white" stroke-width="1.5" d="M0,-3.0v7 M-2.5,-0.5L0,-3.0L2.5,-0.5"/>
                </g>
                <g id="arrowRight" xlink:href="#dirArrow" transform="rotate(90) translate(36 -43)" onmousedown="handlePan(1,0)">
                  <use xlink:href="#rim" fill="#404040">
                        <set attributeName="fill" to="#808080" begin="arrowRight.mouseover" end="arrowRight.mouseout"/>
                  </use>
                  <path fill="none" stroke="white" stroke-width="1.5" d="M0,-3.0v7 M-2.5,-0.5L0,-3.0L2.5,-0.5"/>
                </g>
                <g id="arrowDown" xlink:href="#dirArrow" transform="rotate(180) translate(-30 -48)" onmousedown="handlePan(0,1)">
                  <use xlink:href="#rim" fill="#404040">
                        <set attributeName="fill" to="#808080" begin="arrowDown.mouseover" end="arrowDown.mouseout"/>
                  </use>
                  <path fill="none" stroke="white" stroke-width="1.5" d="M0,-3.0v7 M-2.5,-0.5L0,-3.0L2.5,-0.5"/>
                </g>
                <g id="arrowLeft" xlink:href="#dirArrow" transform="rotate(270) translate(-36 17)" onmousedown="handlePan(-1,0)">
                  <use xlink:href="#rim" fill="#404040">
                        <set attributeName="fill" to="#808080" begin="arrowLeft.mouseover" end="arrowLeft.mouseout"/>
                  </use>
                  <path fill="none" stroke="white" stroke-width="1.5" d="M0,-3.0v7 M-2.5,-0.5L0,-3.0L2.5,-0.5"/>
                </g>
        </g>
        <svg viewBox="0 0 15 15" width="100%" height="30px" preserveAspectRatio="xMaxYMin meet">
         <g id="arrow_out" transform="scale(0.3 0.3)">
          <a xlink:href="_comp_s_base_plugin_8h__dep__incl_org.svg" target="_base">
           <rect id="button" ry="5" rx="5" y="6" x="6" height="38" width="38"
                fill="#f2f5e9" fill-opacity="0.5" stroke="#606060" stroke-width="1.0"/>
           <path id="arrow"
             d="M 11.500037,31.436501 C 11.940474,20.09759 22.043105,11.32322 32.158766,21.979434 L 37.068811,17.246167 C 37.068811,17.246167 37.088388,32 37.088388,32 L 22.160133,31.978069 C 22.160133,31.978069 26.997745,27.140456 26.997745,27.140456 C 18.528582,18.264221 13.291696,25.230495 11.500037,31.436501 z"
             style="fill:#404040;"/>
          </a>
         </g>
        </svg>
</svg>
