<?xml version="1.0" encoding="UTF-8" standalone="no"?>
<!DOCTYPE svg PUBLIC "-//W3C//DTD SVG 1.1//EN"
 "http://www.w3.org/Graphics/SVG/1.1/DTD/svg11.dtd">
<!-- Generated by graphviz version 2.40.1 (20161225.0304)
 -->
<!-- Title: ConversionOption.cpp Pages: 1 -->
<svg width="2785pt" height="867pt"
 viewBox="0.00 0.00 2784.64 867.00" xmlns="http://www.w3.org/2000/svg" xmlns:xlink="http://www.w3.org/1999/xlink">
<g id="graph0" class="graph" transform="scale(1 1) rotate(0) translate(4 863)">
<title>ConversionOption.cpp</title>
<polygon fill="#ffffff" stroke="transparent" points="-4,4 -4,-863 2780.6359,-863 2780.6359,4 -4,4"/>
<!-- Node1 -->
<g id="node1" class="node">
<title>Node1</title>
<polygon fill="#bfbfbf" stroke="#000000" points="1820.5,-839.5 1820.5,-858.5 1935.5,-858.5 1935.5,-839.5 1820.5,-839.5"/>
<text text-anchor="middle" x="1878" y="-846.5" font-family="Helvetica,sans-Serif" font-size="10.00" fill="#000000">ConversionOption.cpp</text>
</g>
<!-- Node2 -->
<g id="node2" class="node">
<title>Node2</title>
<g id="a_node2"><a xlink:href="_conversion_option_8h.html" target="_top" xlink:title="Definition of ConversionOption, the class encapsulating conversion options. ">
<polygon fill="#ffffff" stroke="#000000" points="1818,-324.5 1818,-354.5 1960,-354.5 1960,-324.5 1818,-324.5"/>
<text text-anchor="start" x="1826" y="-342.5" font-family="Helvetica,sans-Serif" font-size="10.00" fill="#000000">sbml/conversion/Conversion</text>
<text text-anchor="middle" x="1889" y="-331.5" font-family="Helvetica,sans-Serif" font-size="10.00" fill="#000000">Option.h</text>
</a>
</g>
</g>
<!-- Node1&#45;&gt;Node2 -->
<g id="edge1" class="edge">
<title>Node1&#45;&gt;Node2</title>
<path fill="none" stroke="#191970" d="M1878,-839.4116C1878,-820.0538 1878,-774.9167 1878,-737 1878,-737 1878,-737 1878,-513 1878,-460.3937 1883.0991,-398.9947 1886.3539,-365.1617"/>
<polygon fill="#191970" stroke="#191970" points="1889.8776,-365.0927 1887.3769,-354.7973 1882.9114,-364.4051 1889.8776,-365.0927"/>
</g>
<!-- Node9 -->
<g id="node9" class="node">
<title>Node9</title>
<polygon fill="#ffffff" stroke="#bfbfbf" points="1565.5,-263 1565.5,-282 1606.5,-282 1606.5,-263 1565.5,-263"/>
<text text-anchor="middle" x="1586" y="-270" font-family="Helvetica,sans-Serif" font-size="10.00" fill="#000000">string</text>
</g>
<!-- Node1&#45;&gt;Node9 -->
<g id="edge132" class="edge">
<title>Node1&#45;&gt;Node9</title>
<path fill="none" stroke="#191970" d="M1820.3306,-842.6892C1762.6391,-832.9639 1676.7817,-808.4451 1636,-747 1631.0845,-739.5939 1633.542,-735.5423 1636,-727 1650.7993,-675.5687 1700,-678.5182 1700,-625 1700,-625 1700,-625 1700,-569 1700,-456.758 1627.9467,-335.5821 1598.4068,-290.6195"/>
<polygon fill="#191970" stroke="#191970" points="1601.2555,-288.583 1592.7898,-282.2124 1595.435,-292.4718 1601.2555,-288.583"/>
</g>
<!-- Node10 -->
<g id="node10" class="node">
<title>Node10</title>
<g id="a_node10"><a xlink:href="_s_base_8h.html" target="_top" xlink:title="Definition of SBase, the base object of all SBML objects. ">
<polygon fill="#ffffff" stroke="#000000" points="2025,-783.5 2025,-802.5 2103,-802.5 2103,-783.5 2025,-783.5"/>
<text text-anchor="middle" x="2064" y="-790.5" font-family="Helvetica,sans-Serif" font-size="10.00" fill="#000000">sbml/SBase.h</text>
</a>
</g>
</g>
<!-- Node1&#45;&gt;Node10 -->
<g id="edge12" class="edge">
<title>Node1&#45;&gt;Node10</title>
<path fill="none" stroke="#191970" d="M1909.9745,-839.3733C1941.1713,-829.9807 1988.771,-815.6496 2022.7932,-805.4064"/>
<polygon fill="#191970" stroke="#191970" points="2023.8763,-808.7355 2032.4427,-802.5011 2021.8582,-802.0327 2023.8763,-808.7355"/>
</g>
<!-- Node30 -->
<g id="node30" class="node">
<title>Node30</title>
<polygon fill="#ffffff" stroke="#bfbfbf" points="28,-447.5 28,-466.5 80,-466.5 80,-447.5 28,-447.5"/>
<text text-anchor="middle" x="54" y="-454.5" font-family="Helvetica,sans-Serif" font-size="10.00" fill="#000000">sstream</text>
</g>
<!-- Node1&#45;&gt;Node30 -->
<g id="edge133" class="edge">
<title>Node1&#45;&gt;Node30</title>
<path fill="none" stroke="#191970" d="M1820.4052,-848.578C1508.7356,-845.9259 38,-828.5602 38,-737 38,-737 38,-737 38,-569 38,-536.2342 44.7939,-498.6134 49.5275,-476.3778"/>
<polygon fill="#191970" stroke="#191970" points="52.9649,-477.0428 51.7076,-466.5228 46.1302,-475.5307 52.9649,-477.0428"/>
</g>
<!-- Node41 -->
<g id="node41" class="node">
<title>Node41</title>
<polygon fill="#ffffff" stroke="#bfbfbf" points="2358,-391.5 2358,-410.5 2416,-410.5 2416,-391.5 2358,-391.5"/>
<text text-anchor="middle" x="2387" y="-398.5" font-family="Helvetica,sans-Serif" font-size="10.00" fill="#000000">algorithm</text>
</g>
<!-- Node1&#45;&gt;Node41 -->
<g id="edge131" class="edge">
<title>Node1&#45;&gt;Node41</title>
<path fill="none" stroke="#191970" d="M1935.5799,-847.8138C2132.3561,-843.0071 2766,-821.0067 2766,-737 2766,-737 2766,-737 2766,-681 2766,-502.4484 2550.4715,-595.0138 2426,-467 2412.7105,-453.3323 2402.0832,-434.2977 2395.2994,-420.1805"/>
<polygon fill="#191970" stroke="#191970" points="2398.4027,-418.5509 2391.0558,-410.9171 2392.0387,-421.4663 2398.4027,-418.5509"/>
</g>
<!-- Node3 -->
<g id="node3" class="node">
<title>Node3</title>
<g id="a_node3"><a xlink:href="extern_8h.html" target="_top" xlink:title="Definitions of LIBSBML_EXTERN and related things. ">
<polygon fill="#ffffff" stroke="#000000" points="2081,-67.5 2081,-86.5 2199,-86.5 2199,-67.5 2081,-67.5"/>
<text text-anchor="middle" x="2140" y="-74.5" font-family="Helvetica,sans-Serif" font-size="10.00" fill="#000000">sbml/common/extern.h</text>
</a>
</g>
</g>
<!-- Node2&#45;&gt;Node3 -->
<g id="edge2" class="edge">
<title>Node2&#45;&gt;Node3</title>
<path fill="none" stroke="#191970" d="M1960.1599,-335.4322C2167.1122,-323.5817 2754.2963,-289.8079 2756,-288 2789.4131,-252.5433 2743.3534,-177.5259 2634,-123 2596.8965,-104.4994 2336.1753,-87.8075 2209.1865,-80.6685"/>
<polygon fill="#191970" stroke="#191970" points="2209.3503,-77.1722 2199.1708,-80.1096 2208.9603,-84.1614 2209.3503,-77.1722"/>
</g>
<!-- Node5 -->
<g id="node5" class="node">
<title>Node5</title>
<g id="a_node5"><a xlink:href="sbmlfwd_8h.html" target="_top" xlink:title="Forward declarations for all opaque C types. ">
<polygon fill="#ffffff" stroke="#000000" points="694.5,-263 694.5,-282 821.5,-282 821.5,-263 694.5,-263"/>
<text text-anchor="middle" x="758" y="-270" font-family="Helvetica,sans-Serif" font-size="10.00" fill="#000000">sbml/common/sbmlfwd.h</text>
</a>
</g>
</g>
<!-- Node2&#45;&gt;Node5 -->
<g id="edge4" class="edge">
<title>Node2&#45;&gt;Node5</title>
<path fill="none" stroke="#191970" d="M1817.9767,-329.1371C1802.5191,-327.171 1786.2329,-325.3193 1771,-324 1392.9666,-291.2588 1296.5358,-314.3036 918,-288 889.857,-286.0444 858.9923,-283.2164 831.9433,-280.51"/>
<polygon fill="#191970" stroke="#191970" points="832.0788,-277.0059 821.777,-279.4807 831.3736,-283.9703 832.0788,-277.0059"/>
</g>
<!-- Node2&#45;&gt;Node9 -->
<g id="edge11" class="edge">
<title>Node2&#45;&gt;Node9</title>
<path fill="none" stroke="#191970" d="M1821.0009,-324.4639C1757.0889,-310.3315 1664.3445,-289.8237 1616.7346,-279.2961"/>
<polygon fill="#191970" stroke="#191970" points="1617.2587,-275.8275 1606.7388,-277.0858 1615.7473,-282.6624 1617.2587,-275.8275"/>
</g>
<!-- Node4 -->
<g id="node4" class="node">
<title>Node4</title>
<g id="a_node4"><a xlink:href="libsbml-namespace_8h.html" target="_top" xlink:title="Defines C++ namespace of libSBML. ">
<polygon fill="#ffffff" stroke="#000000" points="1169.5,-.5 1169.5,-30.5 1282.5,-30.5 1282.5,-.5 1169.5,-.5"/>
<text text-anchor="start" x="1177.5" y="-18.5" font-family="Helvetica,sans-Serif" font-size="10.00" fill="#000000">sbml/common/libsbml</text>
<text text-anchor="middle" x="1226" y="-7.5" font-family="Helvetica,sans-Serif" font-size="10.00" fill="#000000">&#45;namespace.h</text>
</a>
</g>
</g>
<!-- Node3&#45;&gt;Node4 -->
<g id="edge3" class="edge">
<title>Node3&#45;&gt;Node4</title>
<path fill="none" stroke="#191970" d="M2080.7342,-73.0122C1917.9162,-62.0567 1464.5108,-31.5486 1292.9382,-20.004"/>
<polygon fill="#191970" stroke="#191970" points="1292.9934,-16.4999 1282.781,-19.3206 1292.5234,-23.4841 1292.9934,-16.4999"/>
</g>
<!-- Node5&#45;&gt;Node4 -->
<g id="edge5" class="edge">
<title>Node5&#45;&gt;Node4</title>
<path fill="none" stroke="#191970" d="M775.492,-262.8943C843.9845,-225.282 1094.8293,-87.5318 1189.5019,-35.5428"/>
<polygon fill="#191970" stroke="#191970" points="1191.347,-38.5226 1198.4276,-30.6413 1187.9775,-32.3869 1191.347,-38.5226"/>
</g>
<!-- Node6 -->
<g id="node6" class="node">
<title>Node6</title>
<g id="a_node6"><a xlink:href="libsbml-config_8h.html" target="_top" xlink:title="Decides whether to #include Unix or Windows configuration variables. ">
<polygon fill="#ffffff" stroke="#000000" points="2411.5,-190.5 2411.5,-220.5 2524.5,-220.5 2524.5,-190.5 2411.5,-190.5"/>
<text text-anchor="start" x="2419.5" y="-208.5" font-family="Helvetica,sans-Serif" font-size="10.00" fill="#000000">sbml/common/libsbml</text>
<text text-anchor="middle" x="2468" y="-197.5" font-family="Helvetica,sans-Serif" font-size="10.00" fill="#000000">&#45;config.h</text>
</a>
</g>
</g>
<!-- Node5&#45;&gt;Node6 -->
<g id="edge6" class="edge">
<title>Node5&#45;&gt;Node6</title>
<path fill="none" stroke="#191970" d="M821.761,-265.274C851.0425,-262.2255 886.2443,-258.9397 918,-257 1545.9221,-218.6461 1705.4428,-264.9222 2333,-221 2355.2464,-219.443 2379.4708,-216.9224 2401.1791,-214.3622"/>
<polygon fill="#191970" stroke="#191970" points="2401.7754,-217.8158 2411.2858,-213.1465 2400.9394,-210.8659 2401.7754,-217.8158"/>
</g>
<!-- Node6&#45;&gt;Node4 -->
<g id="edge7" class="edge">
<title>Node6&#45;&gt;Node4</title>
<path fill="none" stroke="#191970" d="M2494.4838,-190.4098C2520.449,-173.7241 2553.5049,-146.1412 2534,-123 2439.2548,-10.5918 2354.1021,-83.3223 2208,-67 1865.1692,-28.6994 1451.7415,-18.7759 1292.75,-16.2945"/>
<polygon fill="#191970" stroke="#191970" points="1292.7007,-12.7934 1282.6489,-16.1416 1292.5947,-19.7926 1292.7007,-12.7934"/>
</g>
<!-- Node7 -->
<g id="node7" class="node">
<title>Node7</title>
<g id="a_node7"><a xlink:href="libsbml-config-common_8h.html" target="_top" xlink:title="Configuration variables. ">
<polygon fill="#ffffff" stroke="#000000" points="2411.5,-123.5 2411.5,-153.5 2524.5,-153.5 2524.5,-123.5 2411.5,-123.5"/>
<text text-anchor="start" x="2419.5" y="-141.5" font-family="Helvetica,sans-Serif" font-size="10.00" fill="#000000">sbml/common/libsbml</text>
<text text-anchor="middle" x="2468" y="-130.5" font-family="Helvetica,sans-Serif" font-size="10.00" fill="#000000">&#45;config&#45;common.h</text>
</a>
</g>
</g>
<!-- Node6&#45;&gt;Node7 -->
<g id="edge8" class="edge">
<title>Node6&#45;&gt;Node7</title>
<path fill="none" stroke="#191970" d="M2468,-190.2967C2468,-182.5013 2468,-172.7991 2468,-163.9064"/>
<polygon fill="#191970" stroke="#191970" points="2471.5001,-163.6431 2468,-153.6432 2464.5001,-163.6432 2471.5001,-163.6431"/>
</g>
<!-- Node8 -->
<g id="node8" class="node">
<title>Node8</title>
<g id="a_node8"><a xlink:href="libsbml-version_8h.html" target="_top" xlink:title="Define libSBML version numbers for access from client software. ">
<polygon fill="#ffffff" stroke="#000000" points="2280.5,-123.5 2280.5,-153.5 2393.5,-153.5 2393.5,-123.5 2280.5,-123.5"/>
<text text-anchor="start" x="2288.5" y="-141.5" font-family="Helvetica,sans-Serif" font-size="10.00" fill="#000000">sbml/common/libsbml</text>
<text text-anchor="middle" x="2337" y="-130.5" font-family="Helvetica,sans-Serif" font-size="10.00" fill="#000000">&#45;version.h</text>
</a>
</g>
</g>
<!-- Node6&#45;&gt;Node8 -->
<g id="edge9" class="edge">
<title>Node6&#45;&gt;Node8</title>
<path fill="none" stroke="#191970" d="M2438.601,-190.4639C2420.0226,-180.9619 2395.809,-168.5779 2375.6801,-158.283"/>
<polygon fill="#191970" stroke="#191970" points="2377.251,-155.1552 2366.7541,-153.7177 2374.0635,-161.3874 2377.251,-155.1552"/>
</g>
<!-- Node8&#45;&gt;Node3 -->
<g id="edge10" class="edge">
<title>Node8&#45;&gt;Node3</title>
<path fill="none" stroke="#191970" d="M2288.8084,-123.4554C2255.5059,-113.059 2211.7157,-99.3884 2180.2736,-89.5727"/>
<polygon fill="#191970" stroke="#191970" points="2181.1167,-86.1694 2170.528,-86.5303 2179.0307,-92.8514 2181.1167,-86.1694"/>
</g>
<!-- Node10&#45;&gt;Node3 -->
<g id="edge13" class="edge">
<title>Node10&#45;&gt;Node3</title>
<path fill="none" stroke="#191970" d="M2103.0054,-790.7914C2204.0389,-784.8445 2472.3993,-767.5473 2559,-747 2625.4114,-731.2429 2658.6388,-743.7122 2702,-691 2817.6375,-550.4248 2758.7124,-469.2957 2775,-288 2782.6936,-202.3636 2753.5736,-155.5704 2674,-123 2591.7036,-89.3152 2334.6409,-80.2876 2209.6411,-77.8754"/>
<polygon fill="#191970" stroke="#191970" points="2209.4816,-74.372 2199.4189,-77.6872 2209.3527,-81.3708 2209.4816,-74.372"/>
</g>
<!-- Node10&#45;&gt;Node5 -->
<g id="edge14" class="edge">
<title>Node10&#45;&gt;Node5</title>
<path fill="none" stroke="#191970" d="M2024.6908,-791.2081C1822.6967,-781.6171 900.6522,-733.0817 634,-635 552.824,-605.1413 469.9446,-586.8913 491,-503 515.1919,-406.6117 544.0707,-381.675 625,-324 650.2109,-306.0333 682.5199,-293.3321 708.9804,-285.0387"/>
<polygon fill="#191970" stroke="#191970" points="710.2452,-288.313 718.8083,-282.0741 708.2236,-281.6112 710.2452,-288.313"/>
</g>
<!-- Node10&#45;&gt;Node9 -->
<g id="edge128" class="edge">
<title>Node10&#45;&gt;Node9</title>
<path fill="none" stroke="#191970" d="M2052.1107,-783.2632C2031.6606,-765.3405 1992,-724.9199 1992,-681 1992,-681 1992,-681 1992,-513 1992,-428.3803 2028.8006,-383.8698 1969,-324 1922.6401,-277.5865 1740.899,-297.5698 1676,-288 1656.256,-285.0886 1634.1691,-281.2929 1616.8167,-278.1863"/>
<polygon fill="#191970" stroke="#191970" points="1617.1507,-274.6901 1606.6876,-276.3552 1615.9054,-281.5784 1617.1507,-274.6901"/>
</g>
<!-- Node11 -->
<g id="node11" class="node">
<title>Node11</title>
<g id="a_node11"><a xlink:href="_s_b_m_l_type_codes_8h.html" target="_top" xlink:title="Enumeration to identify SBML objects at runtime. ">
<polygon fill="#ffffff" stroke="#000000" points="2619.5,-263 2619.5,-282 2746.5,-282 2746.5,-263 2619.5,-263"/>
<text text-anchor="middle" x="2683" y="-270" font-family="Helvetica,sans-Serif" font-size="10.00" fill="#000000">sbml/SBMLTypeCodes.h</text>
</a>
</g>
</g>
<!-- Node10&#45;&gt;Node11 -->
<g id="edge15" class="edge">
<title>Node10&#45;&gt;Node11</title>
<path fill="none" stroke="#191970" d="M2103.1591,-790.1642C2240.2058,-779.7237 2690,-740.8954 2690,-681 2690,-681 2690,-681 2690,-401 2690,-362.4442 2686.8191,-317.4772 2684.7458,-292.263"/>
<polygon fill="#191970" stroke="#191970" points="2688.2216,-291.8294 2683.8866,-282.1621 2681.2468,-292.4228 2688.2216,-291.8294"/>
</g>
<!-- Node12 -->
<g id="node12" class="node">
<title>Node12</title>
<g id="a_node12"><a xlink:href="_r_d_f_annotation_8h.html" target="_top" xlink:title="RDFAnnotation I/O. ">
<polygon fill="#ffffff" stroke="#000000" points="1644.5,-727.5 1644.5,-746.5 1811.5,-746.5 1811.5,-727.5 1644.5,-727.5"/>
<text text-anchor="middle" x="1728" y="-734.5" font-family="Helvetica,sans-Serif" font-size="10.00" fill="#000000">sbml/annotation/RDFAnnotation.h</text>
</a>
</g>
</g>
<!-- Node10&#45;&gt;Node12 -->
<g id="edge18" class="edge">
<title>Node10&#45;&gt;Node12</title>
<path fill="none" stroke="#191970" d="M2024.7989,-786.4665C1968.4525,-777.0754 1863.797,-759.6328 1795.0276,-748.1713"/>
<polygon fill="#191970" stroke="#191970" points="1795.5911,-744.717 1785.1517,-746.5253 1794.4402,-751.6217 1795.5911,-744.717"/>
</g>
<!-- Node18 -->
<g id="node18" class="node">
<title>Node18</title>
<polygon fill="#ffffff" stroke="#bfbfbf" points="2168.5,-330 2168.5,-349 2227.5,-349 2227.5,-330 2168.5,-330"/>
<text text-anchor="middle" x="2198" y="-337" font-family="Helvetica,sans-Serif" font-size="10.00" fill="#000000">stdexcept</text>
</g>
<!-- Node10&#45;&gt;Node18 -->
<g id="edge129" class="edge">
<title>Node10&#45;&gt;Node18</title>
<path fill="none" stroke="#191970" d="M2099.625,-783.4382C2163.75,-765.1686 2292,-723.3373 2292,-681 2292,-681 2292,-681 2292,-457 2292,-412.2119 2249.8401,-374.7139 2221.99,-354.8294"/>
<polygon fill="#191970" stroke="#191970" points="2223.745,-351.7885 2213.5222,-349.0054 2219.7781,-357.556 2223.745,-351.7885"/>
</g>
<!-- Node21 -->
<g id="node21" class="node">
<title>Node21</title>
<g id="a_node21"><a xlink:href="_list_8h.html" target="_top" xlink:title="Simple, generic list utility class. ">
<polygon fill="#ffffff" stroke="#000000" points="500,-503.5 500,-522.5 580,-522.5 580,-503.5 500,-503.5"/>
<text text-anchor="middle" x="540" y="-510.5" font-family="Helvetica,sans-Serif" font-size="10.00" fill="#000000">sbml/util/List.h</text>
</a>
</g>
</g>
<!-- Node10&#45;&gt;Node21 -->
<g id="edge83" class="edge">
<title>Node10&#45;&gt;Node21</title>
<path fill="none" stroke="#191970" d="M2024.6908,-791.2081C1822.6967,-781.6171 900.6522,-733.0817 634,-635 591.1927,-619.2543 572.1165,-617.7142 548,-579 539.4284,-565.24 537.8543,-546.712 538.1795,-532.7897"/>
<polygon fill="#191970" stroke="#191970" points="541.6745,-532.9741 538.7501,-522.7909 534.6859,-532.5752 541.6745,-532.9741"/>
</g>
<!-- Node23 -->
<g id="node23" class="node">
<title>Node23</title>
<g id="a_node23"><a xlink:href="_x_m_l_node_8h.html" target="_top" xlink:title="Class definition of XMLNode, a node in an XML document tree. ">
<polygon fill="#ffffff" stroke="#000000" points="967,-503.5 967,-522.5 1079,-522.5 1079,-503.5 967,-503.5"/>
<text text-anchor="middle" x="1023" y="-510.5" font-family="Helvetica,sans-Serif" font-size="10.00" fill="#000000">sbml/xml/XMLNode.h</text>
</a>
</g>
</g>
<!-- Node10&#45;&gt;Node23 -->
<g id="edge119" class="edge">
<title>Node10&#45;&gt;Node23</title>
<path fill="none" stroke="#191970" d="M2028.9999,-783.4561C1981.7876,-770.5907 1895.0712,-746.9908 1821,-727 1534.7723,-649.7509 1190.5469,-557.7418 1068.5577,-525.1625"/>
<polygon fill="#191970" stroke="#191970" points="1069.367,-521.7561 1058.8025,-522.5574 1067.5609,-528.5191 1069.367,-521.7561"/>
</g>
<!-- Node31 -->
<g id="node31" class="node">
<title>Node31</title>
<g id="a_node31"><a xlink:href="_c_v_term_8h.html" target="_top" xlink:title="Definition of a CVTerm class for adding annotations to a Model. ">
<polygon fill="#ffffff" stroke="#000000" points="264.5,-503.5 264.5,-522.5 399.5,-522.5 399.5,-503.5 264.5,-503.5"/>
<text text-anchor="middle" x="332" y="-510.5" font-family="Helvetica,sans-Serif" font-size="10.00" fill="#000000">sbml/annotation/CVTerm.h</text>
</a>
</g>
</g>
<!-- Node10&#45;&gt;Node31 -->
<g id="edge73" class="edge">
<title>Node10&#45;&gt;Node31</title>
<path fill="none" stroke="#191970" d="M2024.5954,-792.7609C1755.3969,-790.8769 198,-775.8776 198,-681 198,-681 198,-681 198,-625 198,-574.8615 253.9131,-542.7644 293.5042,-526.3216"/>
<polygon fill="#191970" stroke="#191970" points="294.9273,-529.5223 302.924,-522.5723 292.3386,-523.0186 294.9273,-529.5223"/>
</g>
<!-- Node32 -->
<g id="node32" class="node">
<title>Node32</title>
<g id="a_node32"><a xlink:href="_s_b_m_l_namespaces_8h.html" target="_top" xlink:title="SBMLNamespaces class to store level/version and namespace. ">
<polygon fill="#ffffff" stroke="#000000" points="2092,-391.5 2092,-410.5 2226,-410.5 2226,-391.5 2092,-391.5"/>
<text text-anchor="middle" x="2159" y="-398.5" font-family="Helvetica,sans-Serif" font-size="10.00" fill="#000000">sbml/SBMLNamespaces.h</text>
</a>
</g>
</g>
<!-- Node10&#45;&gt;Node32 -->
<g id="edge84" class="edge">
<title>Node10&#45;&gt;Node32</title>
<path fill="none" stroke="#191970" d="M2064,-783.4116C2064,-764.0538 2064,-718.9167 2064,-681 2064,-681 2064,-681 2064,-513 2064,-482.4754 2064.4442,-471.2371 2083,-447 2093.6135,-433.1369 2109.7015,-422.5395 2124.347,-415.0303"/>
<polygon fill="#191970" stroke="#191970" points="2126.1946,-418.0256 2133.6908,-410.5384 2123.1617,-411.7168 2126.1946,-418.0256"/>
</g>
<!-- Node39 -->
<g id="node39" class="node">
<title>Node39</title>
<g id="a_node39"><a xlink:href="_syntax_checker_8h.html" target="_top" xlink:title="Syntax checking functions. ">
<polygon fill="#ffffff" stroke="#000000" points="2322.5,-330 2322.5,-349 2439.5,-349 2439.5,-330 2322.5,-330"/>
<text text-anchor="middle" x="2381" y="-337" font-family="Helvetica,sans-Serif" font-size="10.00" fill="#000000">sbml/SyntaxChecker.h</text>
</a>
</g>
</g>
<!-- Node10&#45;&gt;Node39 -->
<g id="edge102" class="edge">
<title>Node10&#45;&gt;Node39</title>
<path fill="none" stroke="#191970" d="M2103.433,-788.6212C2226.7351,-775.0782 2596,-731.7152 2596,-681 2596,-681 2596,-681 2596,-457 2596,-416.4413 2479.3779,-373.2383 2417.812,-352.3233"/>
<polygon fill="#191970" stroke="#191970" points="2418.6655,-348.9176 2408.0714,-349.0418 2416.4306,-355.5513 2418.6655,-348.9176"/>
</g>
<!-- Node40 -->
<g id="node40" class="node">
<title>Node40</title>
<g id="a_node40"><a xlink:href="_s_b_m_l_constructor_exception_8h.html" target="_top" xlink:title="Definition of SBMLConstructorException, the exception class for constructor exceptions. ">
<polygon fill="#ffffff" stroke="#000000" points="2092,-447.5 2092,-466.5 2264,-466.5 2264,-447.5 2092,-447.5"/>
<text text-anchor="middle" x="2178" y="-454.5" font-family="Helvetica,sans-Serif" font-size="10.00" fill="#000000">sbml/SBMLConstructorException.h</text>
</a>
</g>
</g>
<!-- Node10&#45;&gt;Node40 -->
<g id="edge107" class="edge">
<title>Node10&#45;&gt;Node40</title>
<path fill="none" stroke="#191970" d="M2076.5499,-783.4082C2098.136,-765.7155 2140,-725.6472 2140,-681 2140,-681 2140,-681 2140,-569 2140,-534.6118 2156.2634,-497.2832 2167.511,-475.5791"/>
<polygon fill="#191970" stroke="#191970" points="2170.7317,-476.9804 2172.393,-466.5166 2164.569,-473.6605 2170.7317,-476.9804"/>
</g>
<!-- Node10&#45;&gt;Node41 -->
<g id="edge130" class="edge">
<title>Node10&#45;&gt;Node41</title>
<path fill="none" stroke="#191970" d="M2103.3927,-789.2789C2163.201,-783.0107 2273.4087,-768.85 2306,-747 2335.0793,-727.5045 2349,-716.0097 2349,-681 2349,-681 2349,-681 2349,-513 2349,-478.6118 2365.2634,-441.2832 2376.511,-419.5791"/>
<polygon fill="#191970" stroke="#191970" points="2379.7317,-420.9804 2381.393,-410.5166 2373.569,-417.6605 2379.7317,-420.9804"/>
</g>
<!-- Node42 -->
<g id="node42" class="node">
<title>Node42</title>
<g id="a_node42"><a xlink:href="_expected_attributes_8h.html" target="_top" xlink:title="Definition of ExpectedAttributes, the class allowing the specification of attributes to expect...">
<polygon fill="#ffffff" stroke="#000000" points="2434.5,-447.5 2434.5,-466.5 2567.5,-466.5 2567.5,-447.5 2434.5,-447.5"/>
<text text-anchor="middle" x="2501" y="-454.5" font-family="Helvetica,sans-Serif" font-size="10.00" fill="#000000">sbml/ExpectedAttributes.h</text>
</a>
</g>
</g>
<!-- Node10&#45;&gt;Node42 -->
<g id="edge113" class="edge">
<title>Node10&#45;&gt;Node42</title>
<path fill="none" stroke="#191970" d="M2103.1748,-789.5487C2173.2843,-782.9496 2317.165,-767.3686 2363,-747 2405.436,-728.1418 2444,-727.4375 2444,-681 2444,-681 2444,-681 2444,-569 2444,-532.1826 2468.7675,-495.2377 2485.6501,-474.3313"/>
<polygon fill="#191970" stroke="#191970" points="2488.3511,-476.5574 2492.0938,-466.6456 2482.9869,-472.06 2488.3511,-476.5574"/>
</g>
<!-- Node43 -->
<g id="node43" class="node">
<title>Node43</title>
<g id="a_node43"><a xlink:href="_x_m_l_error_8h.html" target="_top" xlink:title="Represents errors (and messages) encountered during an XML parse. ">
<polygon fill="#ffffff" stroke="#000000" points="1652,-330 1652,-349 1762,-349 1762,-330 1652,-330"/>
<text text-anchor="middle" x="1707" y="-337" font-family="Helvetica,sans-Serif" font-size="10.00" fill="#000000">sbml/xml/XMLError.h</text>
</a>
</g>
</g>
<!-- Node10&#45;&gt;Node43 -->
<g id="edge120" class="edge">
<title>Node10&#45;&gt;Node43</title>
<path fill="none" stroke="#191970" d="M2034.5587,-783.4609C2016.0697,-776.1199 1992.9726,-764.2722 1978,-747 1957.5553,-723.4153 1954,-712.2125 1954,-681 1954,-681 1954,-681 1954,-513 1954,-419.1566 1833.1359,-371.7054 1760.5014,-351.6621"/>
<polygon fill="#191970" stroke="#191970" points="1761.1547,-348.2139 1750.5901,-349.0138 1759.3476,-354.9767 1761.1547,-348.2139"/>
</g>
<!-- Node11&#45;&gt;Node3 -->
<g id="edge17" class="edge">
<title>Node11&#45;&gt;Node3</title>
<path fill="none" stroke="#191970" d="M2681.2044,-262.6969C2675.6033,-235.2234 2655.6957,-157.257 2605,-123 2572.997,-101.3743 2331.2565,-86.4665 2209.5557,-80.2498"/>
<polygon fill="#191970" stroke="#191970" points="2209.3924,-76.7372 2199.2286,-79.7284 2209.0394,-83.7283 2209.3924,-76.7372"/>
</g>
<!-- Node11&#45;&gt;Node6 -->
<g id="edge16" class="edge">
<title>Node11&#45;&gt;Node6</title>
<path fill="none" stroke="#191970" d="M2652.1957,-262.9005C2619.3718,-252.6717 2566.6422,-236.2397 2525.9944,-223.5727"/>
<polygon fill="#191970" stroke="#191970" points="2526.7927,-220.1555 2516.2042,-220.5218 2524.71,-226.8385 2526.7927,-220.1555"/>
</g>
<!-- Node13 -->
<g id="node13" class="node">
<title>Node13</title>
<g id="a_node13"><a xlink:href="_r_d_f_annotation_parser_8h.html" target="_top" xlink:title="RDFAnnotationParser.h">
<polygon fill="#ffffff" stroke="#000000" points="1079.5,-671.5 1079.5,-690.5 1202.5,-690.5 1202.5,-671.5 1079.5,-671.5"/>
<text text-anchor="middle" x="1141" y="-678.5" font-family="Helvetica,sans-Serif" font-size="10.00" fill="#000000">RDFAnnotationParser.h</text>
</a>
</g>
</g>
<!-- Node12&#45;&gt;Node13 -->
<g id="edge19" class="edge">
<title>Node12&#45;&gt;Node13</title>
<path fill="none" stroke="#191970" d="M1644.2091,-729.0063C1528.5191,-717.9694 1321.8325,-698.2515 1212.834,-687.853"/>
<polygon fill="#191970" stroke="#191970" points="1212.8843,-684.342 1202.5971,-686.8764 1212.2194,-691.3103 1212.8843,-684.342"/>
</g>
<!-- Node13&#45;&gt;Node3 -->
<g id="edge20" class="edge">
<title>Node13&#45;&gt;Node3</title>
<path fill="none" stroke="#191970" d="M1202.8472,-677.1303C1298.5067,-670.591 1477.6219,-655.9843 1538,-635 1819.463,-537.178 2102,-570.4775 2102,-272.5 2102,-272.5 2102,-272.5 2102,-205.5 2102,-165.195 2119.404,-120.5903 2130.6555,-95.9654"/>
<polygon fill="#191970" stroke="#191970" points="2133.9231,-97.2425 2135.0322,-86.7058 2127.5944,-94.2511 2133.9231,-97.2425"/>
</g>
<!-- Node13&#45;&gt;Node5 -->
<g id="edge21" class="edge">
<title>Node13&#45;&gt;Node5</title>
<path fill="none" stroke="#191970" d="M1141.17,-671.2706C1141.1374,-641.5089 1136.845,-550.8201 1088,-503 1044.8541,-460.7595 1010.0065,-495.916 957,-467 891.5161,-431.2774 884.76,-407.7317 832,-355 810.6768,-333.6883 787.734,-307.5587 773.1423,-290.4926"/>
<polygon fill="#191970" stroke="#191970" points="775.4674,-287.8235 766.3258,-282.4679 770.1323,-292.3553 775.4674,-287.8235"/>
</g>
<!-- Node13&#45;&gt;Node9 -->
<g id="edge70" class="edge">
<title>Node13&#45;&gt;Node9</title>
<path fill="none" stroke="#191970" d="M1202.8753,-678.2929C1325.1492,-671.2491 1586,-647.073 1586,-569 1586,-569 1586,-569 1586,-401 1586,-362.5012 1586,-317.5145 1586,-292.2812"/>
<polygon fill="#191970" stroke="#191970" points="1589.5001,-292.1718 1586,-282.1719 1582.5001,-292.1719 1589.5001,-292.1718"/>
</g>
<!-- Node14 -->
<g id="node14" class="node">
<title>Node14</title>
<g id="a_node14"><a xlink:href="_x_m_l_attributes_8h.html" target="_top" xlink:title="XMLAttributes are a list of name/value pairs for XML elements. ">
<polygon fill="#ffffff" stroke="#000000" points="982,-391.5 982,-410.5 1112,-410.5 1112,-391.5 982,-391.5"/>
<text text-anchor="middle" x="1047" y="-398.5" font-family="Helvetica,sans-Serif" font-size="10.00" fill="#000000">sbml/xml/XMLAttributes.h</text>
</a>
</g>
</g>
<!-- Node13&#45;&gt;Node14 -->
<g id="edge22" class="edge">
<title>Node13&#45;&gt;Node14</title>
<path fill="none" stroke="#191970" d="M1202.7367,-674.5452C1258.196,-667.5794 1334.2918,-654.7536 1357,-635 1380.5494,-614.5147 1381,-600.2125 1381,-569 1381,-569 1381,-569 1381,-513 1381,-458.7494 1220.5982,-425.9024 1122.1106,-410.8473"/>
<polygon fill="#191970" stroke="#191970" points="1122.6001,-407.3816 1112.1914,-409.359 1121.5614,-414.3041 1122.6001,-407.3816"/>
</g>
<!-- Node20 -->
<g id="node20" class="node">
<title>Node20</title>
<g id="a_node20"><a xlink:href="_model_history_8h.html" target="_top" xlink:title="ModelHistory I/O. ">
<polygon fill="#ffffff" stroke="#000000" points="643.5,-615.5 643.5,-634.5 800.5,-634.5 800.5,-615.5 643.5,-615.5"/>
<text text-anchor="middle" x="722" y="-622.5" font-family="Helvetica,sans-Serif" font-size="10.00" fill="#000000">sbml/annotation/ModelHistory.h</text>
</a>
</g>
</g>
<!-- Node13&#45;&gt;Node20 -->
<g id="edge35" class="edge">
<title>Node13&#45;&gt;Node20</title>
<path fill="none" stroke="#191970" d="M1079.1751,-672.737C1006.0434,-662.9628 884.064,-646.6601 803.3293,-635.8698"/>
<polygon fill="#191970" stroke="#191970" points="803.5792,-632.3722 793.2037,-634.5165 802.6519,-639.3105 803.5792,-632.3722"/>
</g>
<!-- Node25 -->
<g id="node25" class="node">
<title>Node25</title>
<polygon fill="#ffffff" stroke="#bfbfbf" points="788.5,-447.5 788.5,-466.5 833.5,-466.5 833.5,-447.5 788.5,-447.5"/>
<text text-anchor="middle" x="811" y="-454.5" font-family="Helvetica,sans-Serif" font-size="10.00" fill="#000000">cstdlib</text>
</g>
<!-- Node13&#45;&gt;Node25 -->
<g id="edge72" class="edge">
<title>Node13&#45;&gt;Node25</title>
<path fill="none" stroke="#191970" d="M1126.8203,-671.375C1075.2007,-636.3363 897.0259,-515.3933 833.6203,-472.3544"/>
<polygon fill="#191970" stroke="#191970" points="835.3665,-469.3095 825.1269,-466.5891 831.4351,-475.1013 835.3665,-469.3095"/>
</g>
<!-- Node28 -->
<g id="node28" class="node">
<title>Node28</title>
<polygon fill="#ffffff" stroke="#bfbfbf" points="98.5,-447.5 98.5,-466.5 137.5,-466.5 137.5,-447.5 98.5,-447.5"/>
<text text-anchor="middle" x="118" y="-454.5" font-family="Helvetica,sans-Serif" font-size="10.00" fill="#000000">limits</text>
</g>
<!-- Node13&#45;&gt;Node28 -->
<g id="edge68" class="edge">
<title>Node13&#45;&gt;Node28</title>
<path fill="none" stroke="#191970" d="M1079.4941,-679.0751C909.6109,-673.5091 442.0942,-656.4194 376,-635 272.5751,-601.4827 173.4424,-511.8674 134.8949,-474.129"/>
<polygon fill="#191970" stroke="#191970" points="137.1738,-471.4596 127.6092,-466.9023 132.2442,-476.4295 137.1738,-471.4596"/>
</g>
<!-- Node29 -->
<g id="node29" class="node">
<title>Node29</title>
<polygon fill="#ffffff" stroke="#bfbfbf" points="156,-447.5 156,-466.5 208,-466.5 208,-447.5 156,-447.5"/>
<text text-anchor="middle" x="182" y="-454.5" font-family="Helvetica,sans-Serif" font-size="10.00" fill="#000000">iomanip</text>
</g>
<!-- Node13&#45;&gt;Node29 -->
<g id="edge69" class="edge">
<title>Node13&#45;&gt;Node29</title>
<path fill="none" stroke="#191970" d="M1079.3275,-678.5634C983.4717,-674.0676 793.1941,-662.305 634,-635 534.5564,-617.9434 511.3334,-605.5738 414,-579 328.2496,-555.5885 292.5006,-577.1378 222,-523 206.2857,-510.9329 195.3792,-490.7848 188.9694,-475.9178"/>
<polygon fill="#191970" stroke="#191970" points="192.2168,-474.6122 185.2464,-466.6332 185.7197,-477.2174 192.2168,-474.6122"/>
</g>
<!-- Node13&#45;&gt;Node30 -->
<g id="edge71" class="edge">
<title>Node13&#45;&gt;Node30</title>
<path fill="none" stroke="#191970" d="M1079.2527,-679.3548C969.4138,-675.751 733.0912,-664.9375 536,-635 425.9979,-618.2911 396.532,-617.1146 292,-579 209.8756,-549.0556 119.8267,-497.1746 77.9223,-471.8154"/>
<polygon fill="#191970" stroke="#191970" points="79.6253,-468.7545 69.265,-466.5377 75.9816,-474.7314 79.6253,-468.7545"/>
</g>
<!-- Node14&#45;&gt;Node5 -->
<g id="edge25" class="edge">
<title>Node14&#45;&gt;Node5</title>
<path fill="none" stroke="#191970" d="M1033.9935,-391.2594C1012.2235,-375.3325 966.5923,-343.5377 924,-324 886.8412,-306.9547 842.5189,-293.5267 809.0233,-284.6614"/>
<polygon fill="#191970" stroke="#191970" points="809.5543,-281.1833 798.9956,-282.0577 807.795,-287.9586 809.5543,-281.1833"/>
</g>
<!-- Node14&#45;&gt;Node9 -->
<g id="edge28" class="edge">
<title>Node14&#45;&gt;Node9</title>
<path fill="none" stroke="#191970" d="M1112.0064,-394.3191C1185.1644,-386.1777 1299.0172,-371.4558 1339,-355 1360.7867,-346.0332 1360.6439,-333.9488 1382,-324 1440.178,-296.8975 1514.5943,-282.7382 1555.5525,-276.5223"/>
<polygon fill="#191970" stroke="#191970" points="1556.0659,-279.9845 1565.4553,-275.0763 1555.0545,-273.058 1556.0659,-279.9845"/>
</g>
<!-- Node15 -->
<g id="node15" class="node">
<title>Node15</title>
<g id="a_node15"><a xlink:href="_x_m_l_extern_8h.html" target="_top" xlink:title="Defines LIBLAX_EXTERN. ">
<polygon fill="#ffffff" stroke="#000000" points="927.5,-263 927.5,-282 1044.5,-282 1044.5,-263 927.5,-263"/>
<text text-anchor="middle" x="986" y="-270" font-family="Helvetica,sans-Serif" font-size="10.00" fill="#000000">sbml/xml/XMLExtern.h</text>
</a>
</g>
</g>
<!-- Node14&#45;&gt;Node15 -->
<g id="edge23" class="edge">
<title>Node14&#45;&gt;Node15</title>
<path fill="none" stroke="#191970" d="M1035.2369,-391.2595C1025.6604,-382.6884 1012.5361,-369.3644 1005,-355 994.5814,-335.1414 989.8326,-309.6484 987.6961,-292.2917"/>
<polygon fill="#191970" stroke="#191970" points="991.1619,-291.7812 986.636,-282.2017 984.2002,-292.5127 991.1619,-291.7812"/>
</g>
<!-- Node16 -->
<g id="node16" class="node">
<title>Node16</title>
<g id="a_node16"><a xlink:href="operation_return_values_8h.html" target="_top" xlink:title="Enumeration of values returned by operations within libSBML. ">
<polygon fill="#ffffff" stroke="#000000" points="488.5,-257.5 488.5,-287.5 641.5,-287.5 641.5,-257.5 488.5,-257.5"/>
<text text-anchor="start" x="496.5" y="-275.5" font-family="Helvetica,sans-Serif" font-size="10.00" fill="#000000">sbml/common/operationReturn</text>
<text text-anchor="middle" x="565" y="-264.5" font-family="Helvetica,sans-Serif" font-size="10.00" fill="#000000">Values.h</text>
</a>
</g>
</g>
<!-- Node14&#45;&gt;Node16 -->
<g id="edge26" class="edge">
<title>Node14&#45;&gt;Node16</title>
<path fill="none" stroke="#191970" d="M1011.1654,-391.4466C930.6391,-369.9785 734.3515,-317.6487 631.0517,-290.1092"/>
<polygon fill="#191970" stroke="#191970" points="631.9164,-286.7176 621.3523,-287.5234 630.1132,-293.4813 631.9164,-286.7176"/>
</g>
<!-- Node17 -->
<g id="node17" class="node">
<title>Node17</title>
<polygon fill="#ffffff" stroke="#bfbfbf" points="1969,-263 1969,-282 2013,-282 2013,-263 1969,-263"/>
<text text-anchor="middle" x="1991" y="-270" font-family="Helvetica,sans-Serif" font-size="10.00" fill="#000000">vector</text>
</g>
<!-- Node14&#45;&gt;Node17 -->
<g id="edge29" class="edge">
<title>Node14&#45;&gt;Node17</title>
<path fill="none" stroke="#191970" d="M1112.1566,-399.1322C1278.6072,-394.0397 1710.6176,-378.6895 1771,-355 1791.2902,-347.0396 1789.6674,-334.0654 1809,-324 1835.1436,-310.3885 1914.1169,-290.5425 1958.972,-279.899"/>
<polygon fill="#191970" stroke="#191970" points="1959.8603,-283.2856 1968.7917,-277.5866 1958.2557,-276.472 1959.8603,-283.2856"/>
</g>
<!-- Node14&#45;&gt;Node18 -->
<g id="edge30" class="edge">
<title>Node14&#45;&gt;Node18</title>
<path fill="none" stroke="#191970" d="M1112.1364,-398.1478C1262.9123,-391.4586 1647.6154,-373.8923 1969,-355 2035.4282,-351.0951 2112.6348,-345.6892 2158.292,-342.4021"/>
<polygon fill="#191970" stroke="#191970" points="2158.6453,-345.8858 2168.367,-341.6743 2158.1408,-338.904 2158.6453,-345.8858"/>
</g>
<!-- Node19 -->
<g id="node19" class="node">
<title>Node19</title>
<g id="a_node19"><a xlink:href="_x_m_l_triple_8h.html" target="_top" xlink:title="Stores an XML namespace triple. ">
<polygon fill="#ffffff" stroke="#000000" points="1014.5,-330 1014.5,-349 1127.5,-349 1127.5,-330 1014.5,-330"/>
<text text-anchor="middle" x="1071" y="-337" font-family="Helvetica,sans-Serif" font-size="10.00" fill="#000000">sbml/xml/XMLTriple.h</text>
</a>
</g>
</g>
<!-- Node14&#45;&gt;Node19 -->
<g id="edge31" class="edge">
<title>Node14&#45;&gt;Node19</title>
<path fill="none" stroke="#191970" d="M1050.75,-391.3906C1054.1468,-382.6862 1059.2531,-369.6015 1063.488,-358.7494"/>
<polygon fill="#191970" stroke="#191970" points="1066.8222,-359.8331 1067.1971,-349.2449 1060.3011,-357.2882 1066.8222,-359.8331"/>
</g>
<!-- Node15&#45;&gt;Node4 -->
<g id="edge24" class="edge">
<title>Node15&#45;&gt;Node4</title>
<path fill="none" stroke="#191970" d="M995.1152,-262.7391C1029.8808,-225.511 1154.7087,-91.8412 1204.8907,-38.1045"/>
<polygon fill="#191970" stroke="#191970" points="1207.4662,-40.4747 1211.7334,-30.7771 1202.3501,-35.697 1207.4662,-40.4747"/>
</g>
<!-- Node16&#45;&gt;Node3 -->
<g id="edge27" class="edge">
<title>Node16&#45;&gt;Node3</title>
<path fill="none" stroke="#191970" d="M609.9625,-257.4255C706.2162,-225.9198 939.9127,-153.4994 1142,-123 1321.5481,-95.9022 1874.9953,-82.3591 2070.6221,-78.325"/>
<polygon fill="#191970" stroke="#191970" points="2070.8487,-81.8212 2080.7751,-78.1176 2070.7057,-74.8227 2070.8487,-81.8212"/>
</g>
<!-- Node19&#45;&gt;Node5 -->
<g id="edge33" class="edge">
<title>Node19&#45;&gt;Node5</title>
<path fill="none" stroke="#191970" d="M1026.4871,-329.9717C970.1307,-317.9082 873.0877,-297.1354 812.3971,-284.1441"/>
<polygon fill="#191970" stroke="#191970" points="813.1235,-280.7204 802.6124,-282.0496 811.6583,-287.5653 813.1235,-280.7204"/>
</g>
<!-- Node19&#45;&gt;Node9 -->
<g id="edge34" class="edge">
<title>Node19&#45;&gt;Node9</title>
<path fill="none" stroke="#191970" d="M1127.6402,-330.8139C1142.9974,-328.5255 1159.6272,-326.1084 1175,-324 1317.0173,-304.522 1487.0608,-284.1526 1555.3791,-276.0896"/>
<polygon fill="#191970" stroke="#191970" points="1555.9286,-279.5492 1565.4505,-274.9032 1555.1097,-272.5972 1555.9286,-279.5492"/>
</g>
<!-- Node19&#45;&gt;Node15 -->
<g id="edge32" class="edge">
<title>Node19&#45;&gt;Node15</title>
<path fill="none" stroke="#191970" d="M1058.8216,-329.9005C1045.0616,-319.0544 1022.4535,-301.2339 1006.0738,-288.3229"/>
<polygon fill="#191970" stroke="#191970" points="1008.1761,-285.5234 998.1558,-282.0817 1003.8427,-291.0209 1008.1761,-285.5234"/>
</g>
<!-- Node20&#45;&gt;Node3 -->
<g id="edge36" class="edge">
<title>Node20&#45;&gt;Node3</title>
<path fill="none" stroke="#191970" d="M643.3589,-623.2231C456.2324,-616.8685 0,-587.948 0,-457 0,-457 0,-457 0,-205.5 0,-91.4454 130.7028,-142.9443 243,-123 425.2982,-90.6234 1750.321,-79.6369 2070.4976,-77.4403"/>
<polygon fill="#191970" stroke="#191970" points="2070.5937,-80.9398 2080.5696,-77.3719 2070.546,-73.94 2070.5937,-80.9398"/>
</g>
<!-- Node20&#45;&gt;Node5 -->
<g id="edge37" class="edge">
<title>Node20&#45;&gt;Node5</title>
<path fill="none" stroke="#191970" d="M719.5734,-615.2695C710.4699,-576.8862 680.7229,-432.7647 718,-324 722.4287,-311.0783 731.5682,-298.8969 739.9943,-289.6284"/>
<polygon fill="#191970" stroke="#191970" points="742.6528,-291.9138 747.079,-282.2878 737.616,-287.0526 742.6528,-291.9138"/>
</g>
<!-- Node20&#45;&gt;Node9 -->
<g id="edge67" class="edge">
<title>Node20&#45;&gt;Node9</title>
<path fill="none" stroke="#191970" d="M800.8262,-622.5058C1007.2891,-614.9297 1548,-587.9353 1548,-513 1548,-513 1548,-513 1548,-401 1548,-360.695 1565.404,-316.0903 1576.6555,-291.4654"/>
<polygon fill="#191970" stroke="#191970" points="1579.9231,-292.7425 1581.0322,-282.2058 1573.5944,-289.7511 1579.9231,-292.7425"/>
</g>
<!-- Node20&#45;&gt;Node16 -->
<g id="edge38" class="edge">
<title>Node20&#45;&gt;Node16</title>
<path fill="none" stroke="#191970" d="M654.0238,-615.4675C620.5192,-608.7221 580.4499,-597.4721 548,-579 517.1364,-561.4309 504.7356,-555.7501 491,-523 471.693,-476.966 360.2204,-621.4994 509,-324 514.7695,-312.4634 524.2863,-302.2343 533.8518,-293.9939"/>
<polygon fill="#191970" stroke="#191970" points="536.2408,-296.5633 541.8172,-287.5547 531.8401,-291.1196 536.2408,-296.5633"/>
</g>
<!-- Node20&#45;&gt;Node21 -->
<g id="edge39" class="edge">
<title>Node20&#45;&gt;Node21</title>
<path fill="none" stroke="#191970" d="M672.3723,-615.4847C632.5314,-606.9543 580.7362,-593.5678 565,-579 551.9597,-566.9279 545.6709,-547.3511 542.6692,-532.6476"/>
<polygon fill="#191970" stroke="#191970" points="546.0809,-531.832 540.957,-522.5586 539.1795,-533.0032 546.0809,-531.832"/>
</g>
<!-- Node20&#45;&gt;Node23 -->
<g id="edge42" class="edge">
<title>Node20&#45;&gt;Node23</title>
<path fill="none" stroke="#191970" d="M786.338,-615.4363C825.4194,-608.2866 875.7531,-596.655 918,-579 949.4959,-565.8378 982.2514,-543.6656 1002.627,-528.691"/>
<polygon fill="#191970" stroke="#191970" points="1004.9023,-531.3599 1010.8151,-522.5685 1000.7105,-525.7538 1004.9023,-531.3599"/>
</g>
<!-- Node26 -->
<g id="node26" class="node">
<title>Node26</title>
<g id="a_node26"><a xlink:href="_date_8h.html" target="_top" xlink:title="Date I/O. ">
<polygon fill="#ffffff" stroke="#000000" points="574.5,-559.5 574.5,-578.5 693.5,-578.5 693.5,-559.5 574.5,-559.5"/>
<text text-anchor="middle" x="634" y="-566.5" font-family="Helvetica,sans-Serif" font-size="10.00" fill="#000000">sbml/annotation/Date.h</text>
</a>
</g>
</g>
<!-- Node20&#45;&gt;Node26 -->
<g id="edge53" class="edge">
<title>Node20&#45;&gt;Node26</title>
<path fill="none" stroke="#191970" d="M706.6716,-615.2455C693.1697,-606.6534 673.2878,-594.0014 657.7314,-584.1018"/>
<polygon fill="#191970" stroke="#191970" points="659.4685,-581.0587 649.1528,-578.6427 655.7103,-586.9643 659.4685,-581.0587"/>
</g>
<!-- Node27 -->
<g id="node27" class="node">
<title>Node27</title>
<g id="a_node27"><a xlink:href="_model_creator_8h.html" target="_top" xlink:title="ModelCreator I/O. ">
<polygon fill="#ffffff" stroke="#000000" points="750.5,-559.5 750.5,-578.5 909.5,-578.5 909.5,-559.5 750.5,-559.5"/>
<text text-anchor="middle" x="830" y="-566.5" font-family="Helvetica,sans-Serif" font-size="10.00" fill="#000000">sbml/annotation/ModelCreator.h</text>
</a>
</g>
</g>
<!-- Node20&#45;&gt;Node27 -->
<g id="edge60" class="edge">
<title>Node20&#45;&gt;Node27</title>
<path fill="none" stroke="#191970" d="M740.8122,-615.2455C757.8473,-606.4125 783.1575,-593.2887 802.4681,-583.2758"/>
<polygon fill="#191970" stroke="#191970" points="804.137,-586.353 811.4034,-578.6427 800.9147,-580.1388 804.137,-586.353"/>
</g>
<!-- Node21&#45;&gt;Node3 -->
<g id="edge40" class="edge">
<title>Node21&#45;&gt;Node3</title>
<path fill="none" stroke="#191970" d="M532.7412,-503.4873C506.0932,-467.3391 418.2927,-336.538 479,-257 547.4908,-167.2642 614.9777,-219.2854 724,-190 836.7532,-159.7124 862.5388,-140.301 978,-123 1190.6547,-91.1353 1853.931,-80.4502 2070.6944,-77.7601"/>
<polygon fill="#191970" stroke="#191970" points="2071.0247,-81.2565 2080.9811,-77.6344 2070.939,-74.257 2071.0247,-81.2565"/>
</g>
<!-- Node22 -->
<g id="node22" class="node">
<title>Node22</title>
<polygon fill="#ffffff" stroke="#bfbfbf" points="530.5,-447.5 530.5,-466.5 579.5,-466.5 579.5,-447.5 530.5,-447.5"/>
<text text-anchor="middle" x="555" y="-454.5" font-family="Helvetica,sans-Serif" font-size="10.00" fill="#000000">string.h</text>
</g>
<!-- Node21&#45;&gt;Node22 -->
<g id="edge41" class="edge">
<title>Node21&#45;&gt;Node22</title>
<path fill="none" stroke="#191970" d="M542.6128,-503.2455C544.5916,-495.8579 547.3744,-485.4689 549.8012,-476.4087"/>
<polygon fill="#191970" stroke="#191970" points="553.2105,-477.2078 552.4171,-466.6427 546.4489,-475.3966 553.2105,-477.2078"/>
</g>
<!-- Node23&#45;&gt;Node5 -->
<g id="edge50" class="edge">
<title>Node23&#45;&gt;Node5</title>
<path fill="none" stroke="#191970" d="M996.7781,-503.441C927.3899,-478.1424 744.2395,-411.3426 744,-411 718.8402,-375.0133 736.4448,-320.3452 748.7856,-291.6391"/>
<polygon fill="#191970" stroke="#191970" points="752.0685,-292.8739 753.005,-282.3205 745.6918,-289.9864 752.0685,-292.8739"/>
</g>
<!-- Node23&#45;&gt;Node15 -->
<g id="edge43" class="edge">
<title>Node23&#45;&gt;Node15</title>
<path fill="none" stroke="#191970" d="M999.2141,-503.4178C984.1331,-495.9442 965.8538,-483.9629 957,-467 947.4476,-448.6987 907.844,-539.1454 961,-324 963.8309,-312.5423 969.4148,-300.6329 974.5885,-291.1562"/>
<polygon fill="#191970" stroke="#191970" points="977.7414,-292.6945 979.699,-282.2821 971.6754,-289.2012 977.7414,-292.6945"/>
</g>
<!-- Node23&#45;&gt;Node17 -->
<g id="edge51" class="edge">
<title>Node23&#45;&gt;Node17</title>
<path fill="none" stroke="#191970" d="M1079.1034,-511.3607C1262.0091,-504.8745 1836.8625,-475.1317 1969,-355 1986.4304,-339.1533 1990.6981,-311.1889 1991.4282,-292.2581"/>
<polygon fill="#191970" stroke="#191970" points="1994.9296,-292.1017 1991.517,-282.0715 1987.9298,-292.0406 1994.9296,-292.1017"/>
</g>
<!-- Node24 -->
<g id="node24" class="node">
<title>Node24</title>
<g id="a_node24"><a xlink:href="_x_m_l_token_8h.html" target="_top" xlink:title="A unit of XML syntax, either an XML element or text. ">
<polygon fill="#ffffff" stroke="#000000" points="966.5,-447.5 966.5,-466.5 1081.5,-466.5 1081.5,-447.5 966.5,-447.5"/>
<text text-anchor="middle" x="1024" y="-454.5" font-family="Helvetica,sans-Serif" font-size="10.00" fill="#000000">sbml/xml/XMLToken.h</text>
</a>
</g>
</g>
<!-- Node23&#45;&gt;Node24 -->
<g id="edge44" class="edge">
<title>Node23&#45;&gt;Node24</title>
<path fill="none" stroke="#191970" d="M1023.1742,-503.2455C1023.3047,-495.9382 1023.4876,-485.6944 1023.6481,-476.7046"/>
<polygon fill="#191970" stroke="#191970" points="1027.1486,-476.7036 1023.8278,-466.6427 1020.1497,-476.5786 1027.1486,-476.7036"/>
</g>
<!-- Node23&#45;&gt;Node25 -->
<g id="edge52" class="edge">
<title>Node23&#45;&gt;Node25</title>
<path fill="none" stroke="#191970" d="M986.4465,-503.4703C951.0294,-494.2182 895.8077,-479.7436 848,-467 846.5533,-466.6144 845.0752,-466.2193 843.5822,-465.8194"/>
<polygon fill="#191970" stroke="#191970" points="844.2574,-462.3767 833.6915,-463.1595 842.4394,-469.1365 844.2574,-462.3767"/>
</g>
<!-- Node24&#45;&gt;Node5 -->
<g id="edge48" class="edge">
<title>Node24&#45;&gt;Node5</title>
<path fill="none" stroke="#191970" d="M1010.0732,-447.3402C966.6211,-417.2015 833.2816,-324.716 780.1685,-287.8763"/>
<polygon fill="#191970" stroke="#191970" points="782.0006,-284.8876 771.7889,-282.0641 778.0111,-290.6394 782.0006,-284.8876"/>
</g>
<!-- Node24&#45;&gt;Node9 -->
<g id="edge49" class="edge">
<title>Node24&#45;&gt;Node9</title>
<path fill="none" stroke="#191970" d="M1074.146,-447.4978C1143.7162,-433.1895 1272.4193,-402.61 1374,-355 1396.3234,-344.5372 1397.7677,-334.6549 1420,-324 1465.1276,-302.3724 1521.4523,-287.1532 1555.5274,-279.1159"/>
<polygon fill="#191970" stroke="#191970" points="1556.392,-282.5085 1565.3511,-276.8531 1554.8206,-275.6872 1556.392,-282.5085"/>
</g>
<!-- Node24&#45;&gt;Node14 -->
<g id="edge46" class="edge">
<title>Node24&#45;&gt;Node14</title>
<path fill="none" stroke="#191970" d="M1028.0063,-447.2455C1031.0735,-439.7776 1035.4003,-429.2427 1039.1497,-420.1137"/>
<polygon fill="#191970" stroke="#191970" points="1042.4779,-421.2226 1043.0396,-410.6427 1036.0028,-418.5631 1042.4779,-421.2226"/>
</g>
<!-- Node24&#45;&gt;Node15 -->
<g id="edge45" class="edge">
<title>Node24&#45;&gt;Node15</title>
<path fill="none" stroke="#191970" d="M1007.2627,-447.2988C995.2416,-439.2823 979.977,-426.6887 973,-411 955.413,-371.4533 968.8201,-319.4021 978.4456,-291.734"/>
<polygon fill="#191970" stroke="#191970" points="981.8253,-292.6844 981.9975,-282.0909 975.2568,-290.2649 981.8253,-292.6844"/>
</g>
<!-- Node24&#45;&gt;Node24 -->
<g id="edge47" class="edge">
<title>Node24&#45;&gt;Node24</title>
<path fill="none" stroke="#191970" d="M1056.2009,-466.5252C1078.0805,-469.3079 1099.5,-466.1328 1099.5,-457 1099.5,-449.2942 1084.2512,-445.8298 1066.3433,-446.6068"/>
<polygon fill="#191970" stroke="#191970" points="1065.866,-443.1347 1056.2009,-447.4748 1066.4629,-450.1092 1065.866,-443.1347"/>
</g>
<!-- Node26&#45;&gt;Node3 -->
<g id="edge54" class="edge">
<title>Node26&#45;&gt;Node3</title>
<path fill="none" stroke="#191970" d="M574.207,-565.3438C473.5396,-558.6632 278.8076,-543.2835 255,-523 231.7647,-503.2042 236,-487.5246 236,-457 236,-457 236,-457 236,-205.5 236,-46.114 426.9765,-143.7963 585,-123 878.3111,-84.3994 1808.3694,-78.1776 2070.5793,-77.1858"/>
<polygon fill="#191970" stroke="#191970" points="2070.7406,-80.6853 2080.7278,-77.1487 2070.715,-73.6853 2070.7406,-80.6853"/>
</g>
<!-- Node26&#45;&gt;Node5 -->
<g id="edge55" class="edge">
<title>Node26&#45;&gt;Node5</title>
<path fill="none" stroke="#191970" d="M633.6909,-559.3103C632.2789,-514.4572 626.6512,-328.9571 630,-324 643.0237,-304.7216 664.5901,-292.6586 686.3422,-285.1108"/>
<polygon fill="#191970" stroke="#191970" points="687.513,-288.4113 695.984,-282.0479 685.3937,-281.7398 687.513,-288.4113"/>
</g>
<!-- Node26&#45;&gt;Node9 -->
<g id="edge59" class="edge">
<title>Node26&#45;&gt;Node9</title>
<path fill="none" stroke="#191970" d="M679.0122,-559.4922C741.5264,-546.3649 858.2122,-522.1419 958,-503 1046.7002,-485.985 1070.8482,-490.7022 1158,-467 1227.4711,-448.1063 1242.8578,-436.9834 1310,-411 1371.7297,-387.1111 1388.9936,-384.9914 1448,-355 1471.3087,-343.1528 1475.6039,-337.4932 1498,-324 1518.8532,-311.4364 1542.6987,-297.5081 1560.3029,-287.3075"/>
<polygon fill="#191970" stroke="#191970" points="1562.4781,-290.0928 1569.3822,-282.0564 1558.9734,-284.0332 1562.4781,-290.0928"/>
</g>
<!-- Node26&#45;&gt;Node16 -->
<g id="edge56" class="edge">
<title>Node26&#45;&gt;Node16</title>
<path fill="none" stroke="#191970" d="M631.7254,-559.2295C626.4293,-537.7295 611.8781,-485.1964 588,-447 576.334,-428.3386 567.7787,-428.1608 554,-411 535.1687,-387.5464 524.8341,-383.7515 516,-355 511.9534,-341.8299 510.8862,-336.7936 516,-324 520.4189,-312.9449 528.4656,-302.9085 536.7783,-294.6929"/>
<polygon fill="#191970" stroke="#191970" points="539.4056,-297.0316 544.3909,-287.6829 534.6638,-291.8822 539.4056,-297.0316"/>
</g>
<!-- Node26&#45;&gt;Node21 -->
<g id="edge57" class="edge">
<title>Node26&#45;&gt;Node21</title>
<path fill="none" stroke="#191970" d="M617.6264,-559.2455C603.0692,-550.5731 581.569,-537.7645 564.8848,-527.825"/>
<polygon fill="#191970" stroke="#191970" points="566.5683,-524.7539 556.1859,-522.6427 562.9856,-530.7676 566.5683,-524.7539"/>
</g>
<!-- Node26&#45;&gt;Node23 -->
<g id="edge58" class="edge">
<title>Node26&#45;&gt;Node23</title>
<path fill="none" stroke="#191970" d="M693.5042,-560.4338C764.5478,-550.2065 883.0069,-533.1532 956.8597,-522.5215"/>
<polygon fill="#191970" stroke="#191970" points="957.5758,-525.9546 966.975,-521.0653 956.5783,-519.026 957.5758,-525.9546"/>
</g>
<!-- Node27&#45;&gt;Node3 -->
<g id="edge61" class="edge">
<title>Node27&#45;&gt;Node3</title>
<path fill="none" stroke="#191970" d="M909.7496,-563.4798C975.3118,-557.4009 1061.5565,-545.3685 1088,-523 1176.0773,-448.4958 1156,-387.8624 1156,-272.5 1156,-272.5 1156,-272.5 1156,-205.5 1156,-113.1326 1846.5313,-85.3435 2070.6628,-78.7565"/>
<polygon fill="#191970" stroke="#191970" points="2070.7676,-82.255 2080.6624,-78.4676 2070.5654,-75.2579 2070.7676,-82.255"/>
</g>
<!-- Node27&#45;&gt;Node5 -->
<g id="edge62" class="edge">
<title>Node27&#45;&gt;Node5</title>
<path fill="none" stroke="#191970" d="M821.4401,-559.1554C801.493,-535.5428 752.0919,-473.0299 732,-411 720.0725,-374.176 717.9094,-361.3691 728,-324 731.2706,-311.8876 738.173,-299.696 744.5331,-290.2173"/>
<polygon fill="#191970" stroke="#191970" points="747.3948,-292.2325 750.3286,-282.052 741.6864,-288.1809 747.3948,-292.2325"/>
</g>
<!-- Node27&#45;&gt;Node9 -->
<g id="edge66" class="edge">
<title>Node27&#45;&gt;Node9</title>
<path fill="none" stroke="#191970" d="M909.9519,-565.7116C1020.81,-560.3243 1215.0168,-547.6601 1281,-523 1361.9685,-492.7394 1373.1348,-465.7782 1440,-411 1466.1608,-389.5683 1536.2487,-321.346 1568.8654,-289.3579"/>
<polygon fill="#191970" stroke="#191970" points="1571.618,-291.5603 1576.3009,-282.0566 1566.7135,-286.5657 1571.618,-291.5603"/>
</g>
<!-- Node27&#45;&gt;Node16 -->
<g id="edge63" class="edge">
<title>Node27&#45;&gt;Node16</title>
<path fill="none" stroke="#191970" d="M813.09,-559.4161C775.6736,-537.4852 684.8539,-480.168 630,-411 602.2182,-375.9686 582.8686,-327.1255 572.8738,-297.7797"/>
<polygon fill="#191970" stroke="#191970" points="576.0747,-296.3108 569.6164,-287.912 569.4275,-298.5051 576.0747,-296.3108"/>
</g>
<!-- Node27&#45;&gt;Node21 -->
<g id="edge64" class="edge">
<title>Node27&#45;&gt;Node21</title>
<path fill="none" stroke="#191970" d="M780.4767,-559.4369C727.4366,-549.1946 643.714,-533.0275 590.3555,-522.7238"/>
<polygon fill="#191970" stroke="#191970" points="590.9157,-519.2674 580.4335,-520.8078 589.5885,-526.1404 590.9157,-519.2674"/>
</g>
<!-- Node27&#45;&gt;Node23 -->
<g id="edge65" class="edge">
<title>Node27&#45;&gt;Node23</title>
<path fill="none" stroke="#191970" d="M863.1779,-559.3733C895.5487,-549.9807 944.9398,-535.6496 980.2424,-525.4064"/>
<polygon fill="#191970" stroke="#191970" points="981.6265,-528.6492 990.2551,-522.5011 979.6758,-521.9264 981.6265,-528.6492"/>
</g>
<!-- Node31&#45;&gt;Node3 -->
<g id="edge74" class="edge">
<title>Node31&#45;&gt;Node3</title>
<path fill="none" stroke="#191970" d="M330.5567,-503.4704C327.7767,-482.0114 323.5498,-428.8252 343,-391 396.6353,-286.6942 413.0763,-249.7565 514,-190 640.9051,-114.86 692.5668,-140.5564 839,-123 1080.8445,-94.0044 1837.7427,-81.2255 2070.9208,-77.9108"/>
<polygon fill="#191970" stroke="#191970" points="2071.0199,-81.4099 2080.9695,-77.7693 2070.9212,-74.4106 2071.0199,-81.4099"/>
</g>
<!-- Node31&#45;&gt;Node5 -->
<g id="edge75" class="edge">
<title>Node31&#45;&gt;Node5</title>
<path fill="none" stroke="#191970" d="M340.1923,-503.4178C367.2811,-472.3672 457.7343,-373.6628 554,-324 594.5502,-303.0804 644.0984,-290.3144 684.2088,-282.7257"/>
<polygon fill="#191970" stroke="#191970" points="684.9815,-286.1426 694.1918,-280.9061 683.7263,-279.2561 684.9815,-286.1426"/>
</g>
<!-- Node31&#45;&gt;Node9 -->
<g id="edge80" class="edge">
<title>Node31&#45;&gt;Node9</title>
<path fill="none" stroke="#191970" d="M399.6939,-508.6747C427.9207,-506.8888 461.0453,-504.8158 491,-503 765.1853,-486.379 838.6501,-520.893 1108,-467 1181.8766,-452.2184 1197.3559,-437.1852 1268,-411 1332.0001,-387.2775 1350.4003,-386.4076 1411,-355 1433.2168,-343.4855 1435.8368,-335.6174 1458,-324 1490.357,-307.0392 1529.5914,-292.0086 1556.0239,-282.6282"/>
<polygon fill="#191970" stroke="#191970" points="1557.2035,-285.9236 1565.4866,-279.3175 1554.8918,-279.3163 1557.2035,-285.9236"/>
</g>
<!-- Node31&#45;&gt;Node14 -->
<g id="edge77" class="edge">
<title>Node31&#45;&gt;Node14</title>
<path fill="none" stroke="#191970" d="M353.6039,-503.4618C388.1925,-488.6507 458.476,-460.4311 521,-447 604.9038,-428.9762 847.4498,-412.7104 971.6958,-405.2725"/>
<polygon fill="#191970" stroke="#191970" points="972.1132,-408.754 981.8877,-404.6663 971.6975,-401.7663 972.1132,-408.754"/>
</g>
<!-- Node31&#45;&gt;Node16 -->
<g id="edge76" class="edge">
<title>Node31&#45;&gt;Node16</title>
<path fill="none" stroke="#191970" d="M331.3118,-503.3866C330.6621,-490.343 330.4844,-466.4362 336,-447 352.9367,-387.3172 354.2381,-363.594 402,-324 423.7731,-305.9504 451.9233,-294.2024 478.6856,-286.5655"/>
<polygon fill="#191970" stroke="#191970" points="479.7208,-289.9115 488.4683,-283.9339 477.9024,-283.1518 479.7208,-289.9115"/>
</g>
<!-- Node31&#45;&gt;Node25 -->
<g id="edge82" class="edge">
<title>Node31&#45;&gt;Node25</title>
<path fill="none" stroke="#191970" d="M399.6131,-505.0953C504.044,-492.8863 700.6286,-469.9035 778.2659,-460.827"/>
<polygon fill="#191970" stroke="#191970" points="778.8835,-464.2787 788.4095,-459.6411 778.0707,-457.326 778.8835,-464.2787"/>
</g>
<!-- Node31&#45;&gt;Node28 -->
<g id="edge78" class="edge">
<title>Node31&#45;&gt;Node28</title>
<path fill="none" stroke="#191970" d="M289.0931,-503.4647C253.5456,-495.3113 201.54,-482.801 147.3594,-466.9124"/>
<polygon fill="#191970" stroke="#191970" points="148.162,-463.4998 137.5797,-464.0141 146.173,-470.2113 148.162,-463.4998"/>
</g>
<!-- Node31&#45;&gt;Node29 -->
<g id="edge79" class="edge">
<title>Node31&#45;&gt;Node29</title>
<path fill="none" stroke="#191970" d="M306.2141,-503.3733C281.5953,-494.1822 244.31,-480.2624 217.0125,-470.0713"/>
<polygon fill="#191970" stroke="#191970" points="218.042,-466.7198 207.4494,-466.5011 215.5937,-473.2777 218.042,-466.7198"/>
</g>
<!-- Node31&#45;&gt;Node30 -->
<g id="edge81" class="edge">
<title>Node31&#45;&gt;Node30</title>
<path fill="none" stroke="#191970" d="M273.2543,-503.4259C226.1574,-495.3985 158.1956,-483.0294 90.3174,-467.1607"/>
<polygon fill="#191970" stroke="#191970" points="90.8426,-463.6885 80.3056,-464.7941 89.2323,-470.5008 90.8426,-463.6885"/>
</g>
<!-- Node32&#45;&gt;Node9 -->
<g id="edge100" class="edge">
<title>Node32&#45;&gt;Node9</title>
<path fill="none" stroke="#191970" d="M2148.1498,-391.3628C2128.3063,-374.3735 2084.133,-339.435 2040,-324 1886.5473,-270.3315 1837.0974,-309.8099 1676,-288 1656.2229,-285.3225 1634.1354,-281.5307 1616.7911,-278.3676"/>
<polygon fill="#191970" stroke="#191970" points="1617.1376,-274.8724 1606.6678,-276.495 1615.8643,-281.7557 1617.1376,-274.8724"/>
</g>
<!-- Node32&#45;&gt;Node18 -->
<g id="edge101" class="edge">
<title>Node32&#45;&gt;Node18</title>
<path fill="none" stroke="#191970" d="M2165.0938,-391.3906C2170.7843,-382.417 2179.4272,-368.7879 2186.4274,-357.7491"/>
<polygon fill="#191970" stroke="#191970" points="2189.4207,-359.5644 2191.8203,-349.2449 2183.5091,-355.8155 2189.4207,-359.5644"/>
</g>
<!-- Node33 -->
<g id="node33" class="node">
<title>Node33</title>
<g id="a_node33"><a xlink:href="_x_m_l_namespaces_8h.html" target="_top" xlink:title="A list of XMLNamespace declarations (URI/prefix pairs) ">
<polygon fill="#ffffff" stroke="#000000" points="1184,-330 1184,-349 1330,-349 1330,-330 1184,-330"/>
<text text-anchor="middle" x="1257" y="-337" font-family="Helvetica,sans-Serif" font-size="10.00" fill="#000000">sbml/xml/XMLNamespaces.h</text>
</a>
</g>
</g>
<!-- Node32&#45;&gt;Node33 -->
<g id="edge85" class="edge">
<title>Node32&#45;&gt;Node33</title>
<path fill="none" stroke="#191970" d="M2091.9403,-396.4277C1929.935,-385.3819 1517.5573,-357.2653 1340.1847,-345.1717"/>
<polygon fill="#191970" stroke="#191970" points="1340.3391,-341.6742 1330.1241,-344.4857 1339.8628,-348.658 1340.3391,-341.6742"/>
</g>
<!-- Node34 -->
<g id="node34" class="node">
<title>Node34</title>
<g id="a_node34"><a xlink:href="common_8h.html" target="_top" xlink:title="Common functions and macros for C and C++. ">
<polygon fill="#ffffff" stroke="#000000" points="2458,-330 2458,-349 2586,-349 2586,-330 2458,-330"/>
<text text-anchor="middle" x="2522" y="-337" font-family="Helvetica,sans-Serif" font-size="10.00" fill="#000000">sbml/common/common.h</text>
</a>
</g>
</g>
<!-- Node32&#45;&gt;Node34 -->
<g id="edge91" class="edge">
<title>Node32&#45;&gt;Node34</title>
<path fill="none" stroke="#191970" d="M2225.395,-391.4701C2284.283,-382.7793 2372.5624,-369.1674 2449,-355 2455.3537,-353.8224 2462.0025,-352.5153 2468.5902,-351.1739"/>
<polygon fill="#191970" stroke="#191970" points="2469.7584,-354.5063 2478.841,-349.0514 2468.339,-347.6517 2469.7584,-354.5063"/>
</g>
<!-- Node33&#45;&gt;Node5 -->
<g id="edge87" class="edge">
<title>Node33&#45;&gt;Node5</title>
<path fill="none" stroke="#191970" d="M1186.0354,-329.9717C1092.0556,-317.3532 927.1055,-295.2056 831.7481,-282.4021"/>
<polygon fill="#191970" stroke="#191970" points="831.9853,-278.9026 821.6084,-281.0406 831.0537,-285.8403 831.9853,-278.9026"/>
</g>
<!-- Node33&#45;&gt;Node9 -->
<g id="edge89" class="edge">
<title>Node33&#45;&gt;Node9</title>
<path fill="none" stroke="#191970" d="M1303.7883,-329.9717C1372.0952,-316.0612 1497.2666,-290.5703 1555.1458,-278.7834"/>
<polygon fill="#191970" stroke="#191970" points="1556.0407,-282.1731 1565.1411,-276.7479 1554.6438,-275.3138 1556.0407,-282.1731"/>
</g>
<!-- Node33&#45;&gt;Node15 -->
<g id="edge86" class="edge">
<title>Node33&#45;&gt;Node15</title>
<path fill="none" stroke="#191970" d="M1218.4601,-329.9717C1170.1369,-318.0246 1087.2636,-297.5357 1034.6284,-284.5225"/>
<polygon fill="#191970" stroke="#191970" points="1035.3935,-281.1064 1024.8457,-282.1039 1033.7134,-287.9018 1035.3935,-281.1064"/>
</g>
<!-- Node33&#45;&gt;Node16 -->
<g id="edge88" class="edge">
<title>Node33&#45;&gt;Node16</title>
<path fill="none" stroke="#191970" d="M1187.3228,-329.9969C1170.5349,-327.867 1152.6415,-325.7291 1136,-324 935.9947,-303.2192 884.9944,-308.8858 685,-288 674.2827,-286.8808 663.0422,-285.5877 651.9185,-284.2355"/>
<polygon fill="#191970" stroke="#191970" points="652.1078,-280.7323 641.7541,-282.9802 651.2498,-287.6796 652.1078,-280.7323"/>
</g>
<!-- Node33&#45;&gt;Node17 -->
<g id="edge90" class="edge">
<title>Node33&#45;&gt;Node17</title>
<path fill="none" stroke="#191970" d="M1330.0622,-332.8308C1486.5747,-318.5443 1848.9191,-285.4692 1958.8229,-275.4372"/>
<polygon fill="#191970" stroke="#191970" points="1959.305,-278.9078 1968.9455,-274.5132 1958.6687,-271.9368 1959.305,-278.9078"/>
</g>
<!-- Node34&#45;&gt;Node3 -->
<g id="edge94" class="edge">
<title>Node34&#45;&gt;Node3</title>
<path fill="none" stroke="#191970" d="M2513.3658,-329.9644C2498.5857,-313.9166 2467.1096,-280.9227 2437,-257 2393.9501,-222.7959 2379.8463,-218.786 2333,-190 2316.917,-180.1174 2213.8984,-120.0429 2165.3037,-91.7343"/>
<polygon fill="#191970" stroke="#191970" points="2167.0267,-88.6875 2156.6241,-86.6787 2163.5035,-94.7363 2167.0267,-88.6875"/>
</g>
<!-- Node34&#45;&gt;Node6 -->
<g id="edge92" class="edge">
<title>Node34&#45;&gt;Node6</title>
<path fill="none" stroke="#191970" d="M2518.1165,-329.8631C2509.7733,-309.1597 2489.9188,-259.891 2477.8544,-229.9535"/>
<polygon fill="#191970" stroke="#191970" points="2481.0737,-228.578 2474.0895,-220.611 2474.581,-231.1945 2481.0737,-228.578"/>
</g>
<!-- Node35 -->
<g id="node35" class="node">
<title>Node35</title>
<polygon fill="#ffffff" stroke="#bfbfbf" points="2278,-196 2278,-215 2324,-215 2324,-196 2278,-196"/>
<text text-anchor="middle" x="2301" y="-203" font-family="Helvetica,sans-Serif" font-size="10.00" fill="#000000">stdio.h</text>
</g>
<!-- Node34&#45;&gt;Node35 -->
<g id="edge93" class="edge">
<title>Node34&#45;&gt;Node35</title>
<path fill="none" stroke="#191970" d="M2479.4869,-329.9126C2421.65,-316.697 2324.6551,-293.8486 2319,-288 2302.8906,-271.3394 2299.813,-243.7953 2299.8154,-225.1626"/>
<polygon fill="#191970" stroke="#191970" points="2303.3149,-225.2293 2300.1116,-215.1304 2296.318,-225.0227 2303.3149,-225.2293"/>
</g>
<!-- Node36 -->
<g id="node36" class="node">
<title>Node36</title>
<g id="a_node36"><a xlink:href="memory_8h.html" target="_top" xlink:title="sbml/util/memory.h">
<polygon fill="#ffffff" stroke="#000000" points="2328,-263 2328,-282 2428,-282 2428,-263 2328,-263"/>
<text text-anchor="middle" x="2378" y="-270" font-family="Helvetica,sans-Serif" font-size="10.00" fill="#000000">sbml/util/memory.h</text>
</a>
</g>
</g>
<!-- Node34&#45;&gt;Node36 -->
<g id="edge95" class="edge">
<title>Node34&#45;&gt;Node36</title>
<path fill="none" stroke="#191970" d="M2501.3683,-329.9005C2476.8811,-318.5072 2435.8532,-299.4178 2407.8907,-286.4075"/>
<polygon fill="#191970" stroke="#191970" points="2409.1366,-283.1269 2398.5934,-282.0817 2406.1836,-289.4736 2409.1366,-283.1269"/>
</g>
<!-- Node37 -->
<g id="node37" class="node">
<title>Node37</title>
<g id="a_node37"><a xlink:href="util_8h.html" target="_top" xlink:title="Utility functions. ">
<polygon fill="#ffffff" stroke="#000000" points="2194.5,-263 2194.5,-282 2271.5,-282 2271.5,-263 2194.5,-263"/>
<text text-anchor="middle" x="2233" y="-270" font-family="Helvetica,sans-Serif" font-size="10.00" fill="#000000">sbml/util/util.h</text>
</a>
</g>
</g>
<!-- Node34&#45;&gt;Node37 -->
<g id="edge96" class="edge">
<title>Node34&#45;&gt;Node37</title>
<path fill="none" stroke="#191970" d="M2477.5737,-329.9804C2414.4442,-316.4262 2304.3624,-292.6825 2286,-288 2282.139,-287.0154 2278.1348,-285.942 2274.1354,-284.8345"/>
<polygon fill="#191970" stroke="#191970" points="2274.8645,-281.4033 2264.2889,-282.0426 2272.9549,-288.1378 2274.8645,-281.4033"/>
</g>
<!-- Node37&#45;&gt;Node3 -->
<g id="edge99" class="edge">
<title>Node37&#45;&gt;Node3</title>
<path fill="none" stroke="#191970" d="M2225.3593,-262.6438C2217.7759,-252.5638 2206.1388,-236.2621 2198,-221 2175.2726,-178.3808 2155.9421,-124.8635 2146.3902,-96.5923"/>
<polygon fill="#191970" stroke="#191970" points="2149.595,-95.1377 2143.1183,-86.753 2142.9527,-97.3466 2149.595,-95.1377"/>
</g>
<!-- Node37&#45;&gt;Node35 -->
<g id="edge97" class="edge">
<title>Node37&#45;&gt;Node35</title>
<path fill="none" stroke="#191970" d="M2242.7427,-262.9005C2253.4477,-252.353 2270.847,-235.2096 2283.8479,-222.3998"/>
<polygon fill="#191970" stroke="#191970" points="2286.6085,-224.5933 2291.2753,-215.0817 2281.6956,-219.607 2286.6085,-224.5933"/>
</g>
<!-- Node38 -->
<g id="node38" class="node">
<title>Node38</title>
<polygon fill="#ffffff" stroke="#bfbfbf" points="2206.5,-196 2206.5,-215 2259.5,-215 2259.5,-196 2206.5,-196"/>
<text text-anchor="middle" x="2233" y="-203" font-family="Helvetica,sans-Serif" font-size="10.00" fill="#000000">stdarg.h</text>
</g>
<!-- Node37&#45;&gt;Node38 -->
<g id="edge98" class="edge">
<title>Node37&#45;&gt;Node38</title>
<path fill="none" stroke="#191970" d="M2233,-262.9005C2233,-253.149 2233,-237.7597 2233,-225.3695"/>
<polygon fill="#191970" stroke="#191970" points="2236.5001,-225.0816 2233,-215.0817 2229.5001,-225.0817 2236.5001,-225.0816"/>
</g>
<!-- Node39&#45;&gt;Node3 -->
<g id="edge103" class="edge">
<title>Node39&#45;&gt;Node3</title>
<path fill="none" stroke="#191970" d="M2335.1909,-329.9838C2280.9293,-318.3173 2196.5191,-298.7724 2186,-288 2134.2835,-235.0382 2134.9774,-138.2637 2138.0012,-96.759"/>
<polygon fill="#191970" stroke="#191970" points="2141.505,-96.8636 2138.8742,-86.6006 2134.5307,-96.2641 2141.505,-96.8636"/>
</g>
<!-- Node39&#45;&gt;Node9 -->
<g id="edge106" class="edge">
<title>Node39&#45;&gt;Node9</title>
<path fill="none" stroke="#191970" d="M2322.3441,-330.436C2305.4785,-328.0671 2287.0379,-325.7033 2270,-324 2006.8274,-297.6911 1938.721,-318.4907 1676,-288 1656.1755,-285.6992 1634.0873,-281.9136 1616.7544,-278.6596"/>
<polygon fill="#191970" stroke="#191970" points="1617.1197,-275.166 1606.6395,-276.7203 1615.8015,-282.0408 1617.1197,-275.166"/>
</g>
<!-- Node39&#45;&gt;Node10 -->
<g id="edge104" class="edge">
<title>Node39&#45;&gt;Node10</title>
<path fill="none" stroke="#191970" d="M2418.1161,-349.0418C2484.0317,-368.4199 2614,-414.1834 2614,-457 2614,-681 2614,-681 2614,-681 2614,-731.4791 2248.1644,-774.6744 2113.1612,-788.4301"/>
<polygon fill="#191970" stroke="#191970" points="2112.6891,-784.9599 2103.0904,-789.4449 2113.391,-791.9246 2112.6891,-784.9599"/>
</g>
<!-- Node39&#45;&gt;Node37 -->
<g id="edge105" class="edge">
<title>Node39&#45;&gt;Node37</title>
<path fill="none" stroke="#191970" d="M2359.7952,-329.9005C2334.5179,-318.4574 2292.0916,-299.2509 2263.3452,-286.2374"/>
<polygon fill="#191970" stroke="#191970" points="2264.7189,-283.0173 2254.1655,-282.0817 2261.832,-289.3943 2264.7189,-283.0173"/>
</g>
<!-- Node40&#45;&gt;Node3 -->
<g id="edge108" class="edge">
<title>Node40&#45;&gt;Node3</title>
<path fill="none" stroke="#191970" d="M2198.3028,-447.4506C2229.8415,-433.0129 2292.8297,-405.752 2349,-391 2458.5992,-362.216 2621.0347,-434.2846 2595,-324 2590.8901,-306.59 2583.2898,-304.7463 2577,-288 2550.354,-217.0564 2591.1711,-172.7441 2534,-123 2510.03,-102.144 2315.8666,-87.4524 2209.3466,-80.876"/>
<polygon fill="#191970" stroke="#191970" points="2209.5149,-77.3799 2199.3204,-80.265 2209.089,-84.3669 2209.5149,-77.3799"/>
</g>
<!-- Node40&#45;&gt;Node9 -->
<g id="edge110" class="edge">
<title>Node40&#45;&gt;Node9</title>
<path fill="none" stroke="#191970" d="M2151.9633,-447.4569C2132.0141,-439.4444 2104.3755,-426.7831 2083,-411 2040.4992,-379.6186 2049.2086,-347.7161 2002,-324 1871.7433,-258.5631 1820.338,-308.3796 1676,-288 1656.2385,-285.2098 1634.1513,-281.4161 1616.8032,-278.2803"/>
<polygon fill="#191970" stroke="#191970" points="1617.1437,-274.7846 1606.6771,-276.4277 1615.8839,-281.6703 1617.1437,-274.7846"/>
</g>
<!-- Node40&#45;&gt;Node18 -->
<g id="edge111" class="edge">
<title>Node40&#45;&gt;Node18</title>
<path fill="none" stroke="#191970" d="M2197.21,-447.4505C2210.5266,-439.663 2227.2125,-427.2917 2235,-411 2244.0529,-392.0611 2229.7489,-370.735 2216.3778,-356.3411"/>
<polygon fill="#191970" stroke="#191970" points="2218.7309,-353.7436 2209.1997,-349.1168 2213.7653,-358.6775 2218.7309,-353.7436"/>
</g>
<!-- Node40&#45;&gt;Node32 -->
<g id="edge109" class="edge">
<title>Node40&#45;&gt;Node32</title>
<path fill="none" stroke="#191970" d="M2174.6905,-447.2455C2172.1567,-439.7776 2168.5823,-429.2427 2165.485,-420.1137"/>
<polygon fill="#191970" stroke="#191970" points="2168.7991,-418.9879 2162.2716,-410.6427 2162.1702,-421.237 2168.7991,-418.9879"/>
</g>
<!-- Node40&#45;&gt;Node41 -->
<g id="edge112" class="edge">
<title>Node40&#45;&gt;Node41</title>
<path fill="none" stroke="#191970" d="M2213.9284,-447.3733C2251.3193,-437.3546 2309.6804,-421.7172 2348.1288,-411.4153"/>
<polygon fill="#191970" stroke="#191970" points="2349.1766,-414.758 2357.93,-408.7891 2347.3649,-407.9965 2349.1766,-414.758"/>
</g>
<!-- Node42&#45;&gt;Node3 -->
<g id="edge114" class="edge">
<title>Node42&#45;&gt;Node3</title>
<path fill="none" stroke="#191970" d="M2517.9307,-447.4622C2543.5368,-431.9369 2591.126,-398.5108 2610,-355 2620.4938,-330.8083 2579.8994,-140.3023 2560,-123 2534.1336,-100.5095 2322.1378,-86.3387 2209.6015,-80.3282"/>
<polygon fill="#191970" stroke="#191970" points="2209.5315,-76.8198 2199.3613,-79.7892 2209.1635,-83.8101 2209.5315,-76.8198"/>
</g>
<!-- Node42&#45;&gt;Node9 -->
<g id="edge115" class="edge">
<title>Node42&#45;&gt;Node9</title>
<path fill="none" stroke="#191970" d="M2496.7349,-447.1218C2489.8266,-432.3795 2474.7355,-404.8742 2453,-391 2383.1291,-346.4 2343.7457,-392.8508 2270,-355 2252.0973,-345.8113 2255.4623,-332.005 2237,-324 2122.3867,-274.3052 1800.0644,-302.6219 1676,-288 1656.1797,-285.664 1634.0915,-281.8778 1616.7576,-278.6323"/>
<polygon fill="#191970" stroke="#191970" points="1617.1212,-275.1386 1606.6419,-276.6992 1615.8072,-282.0141 1617.1212,-275.1386"/>
</g>
<!-- Node42&#45;&gt;Node17 -->
<g id="edge116" class="edge">
<title>Node42&#45;&gt;Node17</title>
<path fill="none" stroke="#191970" d="M2503.5686,-447.0946C2506.6212,-432.8173 2509.7251,-406.4743 2496,-391 2441.2856,-329.3125 2389.801,-387.4533 2314,-355 2292.0091,-345.5848 2292.0505,-333.2748 2270,-324 2225.6851,-305.3604 2086.7288,-285.2027 2023.2313,-276.68"/>
<polygon fill="#191970" stroke="#191970" points="2023.3756,-273.1684 2013.0016,-275.3202 2022.4532,-280.1074 2023.3756,-273.1684"/>
</g>
<!-- Node42&#45;&gt;Node18 -->
<g id="edge117" class="edge">
<title>Node42&#45;&gt;Node18</title>
<path fill="none" stroke="#191970" d="M2492.7829,-447.1452C2479.9321,-432.4335 2453.5739,-404.9676 2425,-391 2350.529,-354.5969 2321.9666,-376.8278 2242,-355 2239.0481,-354.1942 2236.0091,-353.2887 2232.9731,-352.3304"/>
<polygon fill="#191970" stroke="#191970" points="2233.9895,-348.98 2223.396,-349.1473 2231.7817,-355.6228 2233.9895,-348.98"/>
</g>
<!-- Node42&#45;&gt;Node41 -->
<g id="edge118" class="edge">
<title>Node42&#45;&gt;Node41</title>
<path fill="none" stroke="#191970" d="M2481.4027,-447.3733C2463.2669,-438.4644 2436.0865,-425.1127 2415.5413,-415.0203"/>
<polygon fill="#191970" stroke="#191970" points="2416.8603,-411.7688 2406.3416,-410.5011 2413.7739,-418.0517 2416.8603,-411.7688"/>
</g>
<!-- Node43&#45;&gt;Node5 -->
<g id="edge123" class="edge">
<title>Node43&#45;&gt;Node5</title>
<path fill="none" stroke="#191970" d="M1651.955,-336.5033C1523.3842,-329.3736 1193.3542,-310.3185 918,-288 889.8813,-285.7209 859.0217,-282.8249 831.9701,-280.1546"/>
<polygon fill="#191970" stroke="#191970" points="832.0996,-276.6503 821.8024,-279.144 831.4071,-283.616 832.0996,-276.6503"/>
</g>
<!-- Node43&#45;&gt;Node9 -->
<g id="edge126" class="edge">
<title>Node43&#45;&gt;Node9</title>
<path fill="none" stroke="#191970" d="M1689.6637,-329.9005C1669.447,-318.7062 1635.8128,-300.0823 1612.3576,-287.0947"/>
<polygon fill="#191970" stroke="#191970" points="1613.7481,-283.8639 1603.3042,-282.0817 1610.3571,-289.9878 1613.7481,-283.8639"/>
</g>
<!-- Node43&#45;&gt;Node15 -->
<g id="edge122" class="edge">
<title>Node43&#45;&gt;Node15</title>
<path fill="none" stroke="#191970" d="M1651.9191,-334.3815C1522.1742,-322.3248 1197.5675,-292.1602 1054.993,-278.9113"/>
<polygon fill="#191970" stroke="#191970" points="1054.9181,-275.3893 1044.6371,-277.9489 1054.2703,-282.3593 1054.9181,-275.3893"/>
</g>
<!-- Node43&#45;&gt;Node16 -->
<g id="edge127" class="edge">
<title>Node43&#45;&gt;Node16</title>
<path fill="none" stroke="#191970" d="M1651.7126,-337.2853C1467.4719,-329.8154 875.3277,-305.0612 685,-288 674.2674,-287.0379 663.0178,-285.839 651.8893,-284.5369"/>
<polygon fill="#191970" stroke="#191970" points="652.0676,-281.0333 641.7216,-283.3159 651.2329,-287.9833 652.0676,-281.0333"/>
</g>
<!-- Node43&#45;&gt;Node35 -->
<g id="edge121" class="edge">
<title>Node43&#45;&gt;Node35</title>
<path fill="none" stroke="#191970" d="M1730.9775,-329.896C1775.3932,-312.5105 1873.8011,-275.8777 1960,-257 2095.0613,-227.4213 2136.2579,-259.6778 2269,-221 2270.7113,-220.5014 2272.4436,-219.918 2274.1705,-219.2754"/>
<polygon fill="#191970" stroke="#191970" points="2276.0147,-222.2922 2283.8168,-215.1243 2273.2477,-215.8623 2276.0147,-222.2922"/>
</g>
<!-- Node43&#45;&gt;Node37 -->
<g id="edge124" class="edge">
<title>Node43&#45;&gt;Node37</title>
<path fill="none" stroke="#191970" d="M1762.0099,-330.8321C1777.2189,-328.5197 1793.7379,-326.086 1809,-324 1944.7025,-305.4521 2105.3087,-286.8594 2184.2381,-277.9422"/>
<polygon fill="#191970" stroke="#191970" points="2184.8208,-281.3988 2194.3658,-276.8005 2184.0366,-274.4429 2184.8208,-281.3988"/>
</g>
<!-- Node44 -->
<g id="node44" class="node">
<title>Node44</title>
<polygon fill="#ffffff" stroke="#bfbfbf" points="1684.5,-263 1684.5,-282 1729.5,-282 1729.5,-263 1684.5,-263"/>
<text text-anchor="middle" x="1707" y="-270" font-family="Helvetica,sans-Serif" font-size="10.00" fill="#000000">iosfwd</text>
</g>
<!-- Node43&#45;&gt;Node44 -->
<g id="edge125" class="edge">
<title>Node43&#45;&gt;Node44</title>
<path fill="none" stroke="#191970" d="M1707,-329.9005C1707,-320.149 1707,-304.7597 1707,-292.3695"/>
<polygon fill="#191970" stroke="#191970" points="1710.5001,-292.0816 1707,-282.0817 1703.5001,-292.0817 1710.5001,-292.0816"/>
</g>
</g>
</svg>
