<?xml version="1.0" encoding="UTF-8" standalone="no"?>
<!DOCTYPE svg PUBLIC "-//W3C//DTD SVG 1.1//EN"
 "http://www.w3.org/Graphics/SVG/1.1/DTD/svg11.dtd">
<!-- Generated by graphviz version 2.40.1 (20161225.0304)
 -->
<!-- Title: ConversionProperties.h Pages: 1 -->
<svg width="812pt" height="464pt"
 viewBox="0.00 0.00 812.00 464.00" xmlns="http://www.w3.org/2000/svg" xmlns:xlink="http://www.w3.org/1999/xlink">
<g id="graph0" class="graph" transform="scale(1 1) rotate(0) translate(4 460)">
<title>ConversionProperties.h</title>
<polygon fill="#ffffff" stroke="transparent" points="-4,4 -4,-460 808,-460 808,4 -4,4"/>
<!-- Node1 -->
<g id="node1" class="node">
<title>Node1</title>
<polygon fill="#bfbfbf" stroke="#000000" points="315.5,-436.5 315.5,-455.5 436.5,-455.5 436.5,-436.5 315.5,-436.5"/>
<text text-anchor="middle" x="376" y="-443.5" font-family="Helvetica,sans-Serif" font-size="10.00" fill="#000000">ConversionProperties.h</text>
</g>
<!-- Node2 -->
<g id="node2" class="node">
<title>Node2</title>
<g id="a_node2"><a xlink:href="extern_8h.html" target="_top" xlink:title="Definitions of LIBSBML_EXTERN and related things. ">
<polygon fill="#ffffff" stroke="#000000" points="127,-67.5 127,-86.5 245,-86.5 245,-67.5 127,-67.5"/>
<text text-anchor="middle" x="186" y="-74.5" font-family="Helvetica,sans-Serif" font-size="10.00" fill="#000000">sbml/common/extern.h</text>
</a>
</g>
</g>
<!-- Node1&#45;&gt;Node2 -->
<g id="edge1" class="edge">
<title>Node1&#45;&gt;Node2</title>
<path fill="none" stroke="#191970" d="M315.1712,-439.7036C208.7551,-426.9869 0,-393.7279 0,-328.5 0,-328.5 0,-328.5 0,-205.5 0,-140.3352 78.2371,-105.646 133.2284,-89.3122"/>
<polygon fill="#191970" stroke="#191970" points="134.2033,-92.6738 142.8604,-86.566 132.2839,-85.9421 134.2033,-92.6738"/>
</g>
<!-- Node4 -->
<g id="node4" class="node">
<title>Node4</title>
<g id="a_node4"><a xlink:href="_s_b_m_l_namespaces_8h.html" target="_top" xlink:title="SBMLNamespaces class to store level/version and namespace. ">
<polygon fill="#ffffff" stroke="#000000" points="372,-380.5 372,-399.5 506,-399.5 506,-380.5 372,-380.5"/>
<text text-anchor="middle" x="439" y="-387.5" font-family="Helvetica,sans-Serif" font-size="10.00" fill="#000000">sbml/SBMLNamespaces.h</text>
</a>
</g>
</g>
<!-- Node1&#45;&gt;Node4 -->
<g id="edge3" class="edge">
<title>Node1&#45;&gt;Node4</title>
<path fill="none" stroke="#191970" d="M386.9738,-436.2455C396.1882,-428.0549 409.5532,-416.1749 420.4297,-406.5069"/>
<polygon fill="#191970" stroke="#191970" points="423.0032,-408.9023 428.152,-399.6427 418.3526,-403.6704 423.0032,-408.9023"/>
</g>
<!-- Node20 -->
<g id="node20" class="node">
<title>Node20</title>
<g id="a_node20"><a xlink:href="_conversion_option_8h.html" target="_top" xlink:title="Definition of ConversionOption, the class encapsulating conversion options. ">
<polygon fill="#ffffff" stroke="#000000" points="240,-313.5 240,-343.5 382,-343.5 382,-313.5 240,-313.5"/>
<text text-anchor="start" x="248" y="-331.5" font-family="Helvetica,sans-Serif" font-size="10.00" fill="#000000">sbml/conversion/Conversion</text>
<text text-anchor="middle" x="311" y="-320.5" font-family="Helvetica,sans-Serif" font-size="10.00" fill="#000000">Option.h</text>
</a>
</g>
</g>
<!-- Node1&#45;&gt;Node20 -->
<g id="edge29" class="edge">
<title>Node1&#45;&gt;Node20</title>
<path fill="none" stroke="#191970" d="M370.6808,-436.3845C360.6353,-418.2254 338.6004,-378.393 324.2989,-352.5404"/>
<polygon fill="#191970" stroke="#191970" points="327.3197,-350.7704 319.4164,-343.7143 321.1945,-354.1589 327.3197,-350.7704"/>
</g>
<!-- Node21 -->
<g id="node21" class="node">
<title>Node21</title>
<polygon fill="#ffffff" stroke="#bfbfbf" points="524,-380.5 524,-399.5 560,-399.5 560,-380.5 524,-380.5"/>
<text text-anchor="middle" x="542" y="-387.5" font-family="Helvetica,sans-Serif" font-size="10.00" fill="#000000">map</text>
</g>
<!-- Node1&#45;&gt;Node21 -->
<g id="edge33" class="edge">
<title>Node1&#45;&gt;Node21</title>
<path fill="none" stroke="#191970" d="M405.9289,-436.4311C432.1644,-427.9694 471.5465,-415.0907 514.0409,-400.2618"/>
<polygon fill="#191970" stroke="#191970" points="515.4524,-403.4759 523.7315,-396.8648 513.1367,-396.87 515.4524,-403.4759"/>
</g>
<!-- Node3 -->
<g id="node3" class="node">
<title>Node3</title>
<g id="a_node3"><a xlink:href="libsbml-namespace_8h.html" target="_top" xlink:title="Defines C++ namespace of libSBML. ">
<polygon fill="#ffffff" stroke="#000000" points="513.5,-.5 513.5,-30.5 626.5,-30.5 626.5,-.5 513.5,-.5"/>
<text text-anchor="start" x="521.5" y="-18.5" font-family="Helvetica,sans-Serif" font-size="10.00" fill="#000000">sbml/common/libsbml</text>
<text text-anchor="middle" x="570" y="-7.5" font-family="Helvetica,sans-Serif" font-size="10.00" fill="#000000">&#45;namespace.h</text>
</a>
</g>
</g>
<!-- Node2&#45;&gt;Node3 -->
<g id="edge2" class="edge">
<title>Node2&#45;&gt;Node3</title>
<path fill="none" stroke="#191970" d="M245.1585,-67.5254C314.8813,-56.3589 430.4456,-37.8505 503.2934,-26.1835"/>
<polygon fill="#191970" stroke="#191970" points="503.9591,-29.6215 513.2798,-24.5841 502.8521,-22.7096 503.9591,-29.6215"/>
</g>
<!-- Node5 -->
<g id="node5" class="node">
<title>Node5</title>
<g id="a_node5"><a xlink:href="_x_m_l_namespaces_8h.html" target="_top" xlink:title="A list of XMLNamespace declarations (URI/prefix pairs) ">
<polygon fill="#ffffff" stroke="#000000" points="554,-319 554,-338 700,-338 700,-319 554,-319"/>
<text text-anchor="middle" x="627" y="-326" font-family="Helvetica,sans-Serif" font-size="10.00" fill="#000000">sbml/xml/XMLNamespaces.h</text>
</a>
</g>
</g>
<!-- Node4&#45;&gt;Node5 -->
<g id="edge4" class="edge">
<title>Node4&#45;&gt;Node5</title>
<path fill="none" stroke="#191970" d="M468.375,-380.3906C500.6586,-369.8298 552.6535,-352.8208 588.2547,-341.1747"/>
<polygon fill="#191970" stroke="#191970" points="589.4151,-344.4776 597.8313,-338.0419 587.2387,-337.8246 589.4151,-344.4776"/>
</g>
<!-- Node12 -->
<g id="node12" class="node">
<title>Node12</title>
<polygon fill="#ffffff" stroke="#bfbfbf" points="512.5,-257.5 512.5,-276.5 553.5,-276.5 553.5,-257.5 512.5,-257.5"/>
<text text-anchor="middle" x="533" y="-264.5" font-family="Helvetica,sans-Serif" font-size="10.00" fill="#000000">string</text>
</g>
<!-- Node4&#45;&gt;Node12 -->
<g id="edge27" class="edge">
<title>Node4&#45;&gt;Node12</title>
<path fill="none" stroke="#191970" d="M459.4709,-380.3903C474.2692,-372.4987 493.738,-360.0232 506,-344 518.8707,-327.1814 525.9168,-303.7465 529.5519,-287.1587"/>
<polygon fill="#191970" stroke="#191970" points="533.067,-287.4203 531.5532,-276.9342 526.1974,-286.0756 533.067,-287.4203"/>
</g>
<!-- Node14 -->
<g id="node14" class="node">
<title>Node14</title>
<g id="a_node14"><a xlink:href="common_8h.html" target="_top" xlink:title="Common functions and macros for C and C++. ">
<polygon fill="#ffffff" stroke="#000000" points="209,-257.5 209,-276.5 337,-276.5 337,-257.5 209,-257.5"/>
<text text-anchor="middle" x="273" y="-264.5" font-family="Helvetica,sans-Serif" font-size="10.00" fill="#000000">sbml/common/common.h</text>
</a>
</g>
</g>
<!-- Node4&#45;&gt;Node14 -->
<g id="edge18" class="edge">
<title>Node4&#45;&gt;Node14</title>
<path fill="none" stroke="#191970" d="M435.3596,-380.3331C428.8334,-364.225 413.6715,-331.8085 391,-313 372.2162,-297.4167 347.537,-286.6989 325.6063,-279.557"/>
<polygon fill="#191970" stroke="#191970" points="326.3418,-276.1213 315.7545,-276.5226 324.2812,-282.8112 326.3418,-276.1213"/>
</g>
<!-- Node19 -->
<g id="node19" class="node">
<title>Node19</title>
<polygon fill="#ffffff" stroke="#bfbfbf" points="438.5,-319 438.5,-338 497.5,-338 497.5,-319 438.5,-319"/>
<text text-anchor="middle" x="468" y="-326" font-family="Helvetica,sans-Serif" font-size="10.00" fill="#000000">stdexcept</text>
</g>
<!-- Node4&#45;&gt;Node19 -->
<g id="edge28" class="edge">
<title>Node4&#45;&gt;Node19</title>
<path fill="none" stroke="#191970" d="M443.5313,-380.3906C447.6781,-371.5965 453.9332,-358.3312 459.081,-347.4145"/>
<polygon fill="#191970" stroke="#191970" points="462.3055,-348.7825 463.4049,-338.2449 455.9741,-345.7969 462.3055,-348.7825"/>
</g>
<!-- Node6 -->
<g id="node6" class="node">
<title>Node6</title>
<g id="a_node6"><a xlink:href="_x_m_l_extern_8h.html" target="_top" xlink:title="Defines LIBLAX_EXTERN. ">
<polygon fill="#ffffff" stroke="#000000" points="645.5,-67.5 645.5,-86.5 762.5,-86.5 762.5,-67.5 645.5,-67.5"/>
<text text-anchor="middle" x="704" y="-74.5" font-family="Helvetica,sans-Serif" font-size="10.00" fill="#000000">sbml/xml/XMLExtern.h</text>
</a>
</g>
</g>
<!-- Node5&#45;&gt;Node6 -->
<g id="edge5" class="edge">
<title>Node5&#45;&gt;Node6</title>
<path fill="none" stroke="#191970" d="M638.3853,-318.9923C657.9421,-301.8269 697.2363,-263.4751 712,-221 726.7322,-178.6155 716.9176,-125.0043 709.7041,-96.6557"/>
<polygon fill="#191970" stroke="#191970" points="713.0241,-95.5251 707.0325,-86.7872 706.2673,-97.3544 713.0241,-95.5251"/>
</g>
<!-- Node7 -->
<g id="node7" class="node">
<title>Node7</title>
<g id="a_node7"><a xlink:href="sbmlfwd_8h.html" target="_top" xlink:title="Forward declarations for all opaque C types. ">
<polygon fill="#ffffff" stroke="#000000" points="367.5,-257.5 367.5,-276.5 494.5,-276.5 494.5,-257.5 367.5,-257.5"/>
<text text-anchor="middle" x="431" y="-264.5" font-family="Helvetica,sans-Serif" font-size="10.00" fill="#000000">sbml/common/sbmlfwd.h</text>
</a>
</g>
</g>
<!-- Node5&#45;&gt;Node7 -->
<g id="edge7" class="edge">
<title>Node5&#45;&gt;Node7</title>
<path fill="none" stroke="#191970" d="M596.375,-318.8906C562.7176,-308.3298 508.5101,-291.3208 471.3941,-279.6747"/>
<polygon fill="#191970" stroke="#191970" points="471.9991,-276.1963 461.4099,-276.5419 469.9034,-282.8753 471.9991,-276.1963"/>
</g>
<!-- Node11 -->
<g id="node11" class="node">
<title>Node11</title>
<g id="a_node11"><a xlink:href="operation_return_values_8h.html" target="_top" xlink:title="Enumeration of values returned by operations within libSBML. ">
<polygon fill="#ffffff" stroke="#000000" points="550.5,-190.5 550.5,-220.5 703.5,-220.5 703.5,-190.5 550.5,-190.5"/>
<text text-anchor="start" x="558.5" y="-208.5" font-family="Helvetica,sans-Serif" font-size="10.00" fill="#000000">sbml/common/operationReturn</text>
<text text-anchor="middle" x="627" y="-197.5" font-family="Helvetica,sans-Serif" font-size="10.00" fill="#000000">Values.h</text>
</a>
</g>
</g>
<!-- Node5&#45;&gt;Node11 -->
<g id="edge14" class="edge">
<title>Node5&#45;&gt;Node11</title>
<path fill="none" stroke="#191970" d="M627,-318.8484C627,-300.133 627,-258.356 627,-231.0844"/>
<polygon fill="#191970" stroke="#191970" points="630.5001,-230.7364 627,-220.7365 623.5001,-230.7365 630.5001,-230.7364"/>
</g>
<!-- Node5&#45;&gt;Node12 -->
<g id="edge16" class="edge">
<title>Node5&#45;&gt;Node12</title>
<path fill="none" stroke="#191970" d="M612.3125,-318.8906C597.2744,-309.0519 573.6824,-293.6167 556.1333,-282.1351"/>
<polygon fill="#191970" stroke="#191970" points="557.8687,-279.088 547.5844,-276.5419 554.0363,-284.9457 557.8687,-279.088"/>
</g>
<!-- Node13 -->
<g id="node13" class="node">
<title>Node13</title>
<polygon fill="#ffffff" stroke="#bfbfbf" points="760,-257.5 760,-276.5 804,-276.5 804,-257.5 760,-257.5"/>
<text text-anchor="middle" x="782" y="-264.5" font-family="Helvetica,sans-Serif" font-size="10.00" fill="#000000">vector</text>
</g>
<!-- Node5&#45;&gt;Node13 -->
<g id="edge17" class="edge">
<title>Node5&#45;&gt;Node13</title>
<path fill="none" stroke="#191970" d="M651.2188,-318.8906C677.9926,-308.2675 721.2099,-291.1199 750.5736,-279.4692"/>
<polygon fill="#191970" stroke="#191970" points="751.9526,-282.6875 759.9569,-275.7461 749.371,-276.181 751.9526,-282.6875"/>
</g>
<!-- Node6&#45;&gt;Node3 -->
<g id="edge6" class="edge">
<title>Node6&#45;&gt;Node3</title>
<path fill="none" stroke="#191970" d="M683.0625,-67.3906C664.0876,-58.682 635.5593,-45.5888 611.9074,-34.7336"/>
<polygon fill="#191970" stroke="#191970" points="613.3285,-31.5349 602.7801,-30.5446 610.4087,-37.8968 613.3285,-31.5349"/>
</g>
<!-- Node7&#45;&gt;Node3 -->
<g id="edge8" class="edge">
<title>Node7&#45;&gt;Node3</title>
<path fill="none" stroke="#191970" d="M446.9811,-257.4546C474.0259,-240.3853 528.4586,-201.894 555,-154 574.2312,-119.2972 576.9192,-106.6288 575,-67 574.5891,-58.5154 573.7995,-49.272 572.9671,-40.9881"/>
<polygon fill="#191970" stroke="#191970" points="576.4206,-40.3662 571.8764,-30.7954 569.4604,-41.1111 576.4206,-40.3662"/>
</g>
<!-- Node8 -->
<g id="node8" class="node">
<title>Node8</title>
<g id="a_node8"><a xlink:href="libsbml-config_8h.html" target="_top" xlink:title="Decides whether to #include Unix or Windows configuration variables. ">
<polygon fill="#ffffff" stroke="#000000" points="374.5,-190.5 374.5,-220.5 487.5,-220.5 487.5,-190.5 374.5,-190.5"/>
<text text-anchor="start" x="382.5" y="-208.5" font-family="Helvetica,sans-Serif" font-size="10.00" fill="#000000">sbml/common/libsbml</text>
<text text-anchor="middle" x="431" y="-197.5" font-family="Helvetica,sans-Serif" font-size="10.00" fill="#000000">&#45;config.h</text>
</a>
</g>
</g>
<!-- Node7&#45;&gt;Node8 -->
<g id="edge9" class="edge">
<title>Node7&#45;&gt;Node8</title>
<path fill="none" stroke="#191970" d="M431,-257.3906C431,-250.2234 431,-240.0862 431,-230.671"/>
<polygon fill="#191970" stroke="#191970" points="434.5001,-230.5446 431,-220.5446 427.5001,-230.5446 434.5001,-230.5446"/>
</g>
<!-- Node8&#45;&gt;Node3 -->
<g id="edge10" class="edge">
<title>Node8&#45;&gt;Node3</title>
<path fill="none" stroke="#191970" d="M478.4754,-190.4776C497.2232,-182.3776 517.4738,-170.5617 531,-154 557.8797,-121.088 566.2572,-70.7612 568.8528,-40.6956"/>
<polygon fill="#191970" stroke="#191970" points="572.3521,-40.8287 569.5711,-30.6054 565.3698,-40.3316 572.3521,-40.8287"/>
</g>
<!-- Node9 -->
<g id="node9" class="node">
<title>Node9</title>
<g id="a_node9"><a xlink:href="libsbml-config-common_8h.html" target="_top" xlink:title="Configuration variables. ">
<polygon fill="#ffffff" stroke="#000000" points="278.5,-123.5 278.5,-153.5 391.5,-153.5 391.5,-123.5 278.5,-123.5"/>
<text text-anchor="start" x="286.5" y="-141.5" font-family="Helvetica,sans-Serif" font-size="10.00" fill="#000000">sbml/common/libsbml</text>
<text text-anchor="middle" x="335" y="-130.5" font-family="Helvetica,sans-Serif" font-size="10.00" fill="#000000">&#45;config&#45;common.h</text>
</a>
</g>
</g>
<!-- Node8&#45;&gt;Node9 -->
<g id="edge11" class="edge">
<title>Node8&#45;&gt;Node9</title>
<path fill="none" stroke="#191970" d="M409.2161,-190.2967C396.2055,-181.2163 379.4879,-169.5488 365.2142,-159.587"/>
<polygon fill="#191970" stroke="#191970" points="366.9012,-156.4962 356.6977,-153.6432 362.8949,-162.2365 366.9012,-156.4962"/>
</g>
<!-- Node10 -->
<g id="node10" class="node">
<title>Node10</title>
<g id="a_node10"><a xlink:href="libsbml-version_8h.html" target="_top" xlink:title="Define libSBML version numbers for access from client software. ">
<polygon fill="#ffffff" stroke="#000000" points="409.5,-123.5 409.5,-153.5 522.5,-153.5 522.5,-123.5 409.5,-123.5"/>
<text text-anchor="start" x="417.5" y="-141.5" font-family="Helvetica,sans-Serif" font-size="10.00" fill="#000000">sbml/common/libsbml</text>
<text text-anchor="middle" x="466" y="-130.5" font-family="Helvetica,sans-Serif" font-size="10.00" fill="#000000">&#45;version.h</text>
</a>
</g>
</g>
<!-- Node8&#45;&gt;Node10 -->
<g id="edge12" class="edge">
<title>Node8&#45;&gt;Node10</title>
<path fill="none" stroke="#191970" d="M438.942,-190.2967C443.1933,-182.1586 448.53,-171.9425 453.338,-162.7386"/>
<polygon fill="#191970" stroke="#191970" points="456.5614,-164.1273 458.0894,-153.6432 450.3569,-160.8861 456.5614,-164.1273"/>
</g>
<!-- Node10&#45;&gt;Node2 -->
<g id="edge13" class="edge">
<title>Node10&#45;&gt;Node2</title>
<path fill="none" stroke="#191970" d="M409.4905,-125.1546C406.2811,-124.4198 403.1005,-123.6972 400,-123 346.2833,-110.9202 284.8236,-97.7796 241.5911,-88.6481"/>
<polygon fill="#191970" stroke="#191970" points="242.0654,-85.1712 231.5583,-86.5319 240.6206,-92.0205 242.0654,-85.1712"/>
</g>
<!-- Node11&#45;&gt;Node2 -->
<g id="edge15" class="edge">
<title>Node11&#45;&gt;Node2</title>
<path fill="none" stroke="#191970" d="M614.5017,-190.3414C597.7042,-171.1289 565.8949,-138.6347 531,-123 483.1767,-101.5728 341.7834,-88.0644 255.5678,-81.5806"/>
<polygon fill="#191970" stroke="#191970" points="255.5679,-78.0712 245.3372,-80.8247 255.0521,-85.0521 255.5679,-78.0712"/>
</g>
<!-- Node14&#45;&gt;Node2 -->
<g id="edge21" class="edge">
<title>Node14&#45;&gt;Node2</title>
<path fill="none" stroke="#191970" d="M208.6804,-258.7233C163.6324,-251.453 109.071,-239.1696 95,-221 68.3315,-186.5635 72.1828,-160.1007 95,-123 104.3801,-107.7479 120.5542,-97.3672 136.689,-90.3894"/>
<polygon fill="#191970" stroke="#191970" points="138.1154,-93.5893 146.1328,-86.6631 135.5461,-87.0778 138.1154,-93.5893"/>
</g>
<!-- Node14&#45;&gt;Node8 -->
<g id="edge19" class="edge">
<title>Node14&#45;&gt;Node8</title>
<path fill="none" stroke="#191970" d="M297.6875,-257.3906C320.3578,-248.5664 354.5937,-235.2404 382.6942,-224.3026"/>
<polygon fill="#191970" stroke="#191970" points="384.2995,-227.4336 392.3489,-220.5446 381.7603,-220.9103 384.2995,-227.4336"/>
</g>
<!-- Node15 -->
<g id="node15" class="node">
<title>Node15</title>
<polygon fill="#ffffff" stroke="#bfbfbf" points="214,-129 214,-148 260,-148 260,-129 214,-129"/>
<text text-anchor="middle" x="237" y="-136" font-family="Helvetica,sans-Serif" font-size="10.00" fill="#000000">stdio.h</text>
</g>
<!-- Node14&#45;&gt;Node15 -->
<g id="edge20" class="edge">
<title>Node14&#45;&gt;Node15</title>
<path fill="none" stroke="#191970" d="M283.1265,-257.3858C297.3297,-242.6821 320.1423,-213.8077 308,-190 302.9463,-180.091 280.5378,-164.7195 262.2284,-153.3473"/>
<polygon fill="#191970" stroke="#191970" points="264.024,-150.3429 253.6634,-148.1272 260.381,-156.3202 264.024,-150.3429"/>
</g>
<!-- Node16 -->
<g id="node16" class="node">
<title>Node16</title>
<g id="a_node16"><a xlink:href="memory_8h.html" target="_top" xlink:title="sbml/util/memory.h">
<polygon fill="#ffffff" stroke="#000000" points="104,-196 104,-215 204,-215 204,-196 104,-196"/>
<text text-anchor="middle" x="154" y="-203" font-family="Helvetica,sans-Serif" font-size="10.00" fill="#000000">sbml/util/memory.h</text>
</a>
</g>
</g>
<!-- Node14&#45;&gt;Node16 -->
<g id="edge22" class="edge">
<title>Node14&#45;&gt;Node16</title>
<path fill="none" stroke="#191970" d="M254.4063,-257.3906C234.8447,-247.2811 203.8499,-231.2628 181.4691,-219.6962"/>
<polygon fill="#191970" stroke="#191970" points="182.9539,-216.5238 172.4632,-215.0419 179.74,-222.7425 182.9539,-216.5238"/>
</g>
<!-- Node17 -->
<g id="node17" class="node">
<title>Node17</title>
<g id="a_node17"><a xlink:href="util_8h.html" target="_top" xlink:title="Utility functions. ">
<polygon fill="#ffffff" stroke="#000000" points="222.5,-196 222.5,-215 299.5,-215 299.5,-196 222.5,-196"/>
<text text-anchor="middle" x="261" y="-203" font-family="Helvetica,sans-Serif" font-size="10.00" fill="#000000">sbml/util/util.h</text>
</a>
</g>
</g>
<!-- Node14&#45;&gt;Node17 -->
<g id="edge23" class="edge">
<title>Node14&#45;&gt;Node17</title>
<path fill="none" stroke="#191970" d="M271.125,-257.3906C269.4441,-248.776 266.926,-235.8708 264.8216,-225.0858"/>
<polygon fill="#191970" stroke="#191970" points="268.2518,-224.3895 262.9014,-215.2449 261.3814,-225.7301 268.2518,-224.3895"/>
</g>
<!-- Node17&#45;&gt;Node2 -->
<g id="edge26" class="edge">
<title>Node17&#45;&gt;Node2</title>
<path fill="none" stroke="#191970" d="M246.3495,-195.8238C233.5234,-186.5845 215.3633,-171.5031 205,-154 194.5126,-136.2872 189.7944,-113.0025 187.6838,-96.6944"/>
<polygon fill="#191970" stroke="#191970" points="191.155,-96.2389 186.6004,-86.673 184.1956,-96.9914 191.155,-96.2389"/>
</g>
<!-- Node17&#45;&gt;Node15 -->
<g id="edge24" class="edge">
<title>Node17&#45;&gt;Node15</title>
<path fill="none" stroke="#191970" d="M257.5614,-195.9005C253.997,-185.95 248.3299,-170.1292 243.8471,-157.6147"/>
<polygon fill="#191970" stroke="#191970" points="247.0995,-156.3156 240.4322,-148.0817 240.5096,-158.6762 247.0995,-156.3156"/>
</g>
<!-- Node18 -->
<g id="node18" class="node">
<title>Node18</title>
<polygon fill="#ffffff" stroke="#bfbfbf" points="104.5,-129 104.5,-148 157.5,-148 157.5,-129 104.5,-129"/>
<text text-anchor="middle" x="131" y="-136" font-family="Helvetica,sans-Serif" font-size="10.00" fill="#000000">stdarg.h</text>
</g>
<!-- Node17&#45;&gt;Node18 -->
<g id="edge25" class="edge">
<title>Node17&#45;&gt;Node18</title>
<path fill="none" stroke="#191970" d="M242.3742,-195.9005C220.4607,-184.6067 183.8744,-165.7506 158.6487,-152.7497"/>
<polygon fill="#191970" stroke="#191970" points="160.0836,-149.5518 149.5913,-148.0817 156.8768,-155.774 160.0836,-149.5518"/>
</g>
<!-- Node20&#45;&gt;Node2 -->
<g id="edge30" class="edge">
<title>Node20&#45;&gt;Node2</title>
<path fill="none" stroke="#191970" d="M239.9612,-317.2314C184.5444,-304.3035 111.113,-277.1328 75,-221 66.5336,-207.8401 61.7712,-145.2289 77,-123 87.8232,-107.2017 105.2205,-96.8094 122.9679,-89.9809"/>
<polygon fill="#191970" stroke="#191970" points="124.5351,-93.1411 132.824,-86.5422 122.2291,-86.5318 124.5351,-93.1411"/>
</g>
<!-- Node20&#45;&gt;Node7 -->
<g id="edge31" class="edge">
<title>Node20&#45;&gt;Node7</title>
<path fill="none" stroke="#191970" d="M340.3553,-313.4554C359.5873,-303.599 384.5612,-290.7999 403.4241,-281.1327"/>
<polygon fill="#191970" stroke="#191970" points="405.1013,-284.206 412.4043,-276.5303 401.9086,-277.9765 405.1013,-284.206"/>
</g>
<!-- Node20&#45;&gt;Node12 -->
<g id="edge32" class="edge">
<title>Node20&#45;&gt;Node12</title>
<path fill="none" stroke="#191970" d="M370.9342,-313.406C406.6343,-304.1878 453.0181,-291.8168 502.7412,-276.9529"/>
<polygon fill="#191970" stroke="#191970" points="503.8274,-280.2812 512.3947,-274.0482 501.8103,-273.5781 503.8274,-280.2812"/>
</g>
</g>
</svg>
