<?xml version="1.0" encoding="UTF-8" standalone="no"?>
<!DOCTYPE svg PUBLIC "-//W3C//DTD SVG 1.1//EN"
 "http://www.w3.org/Graphics/SVG/1.1/DTD/svg11.dtd">
<!-- Generated by graphviz version 2.40.1 (20161225.0304)
 -->
<!-- Title: ConversionProperties.cpp Pages: 1 -->
<!--zoomable 878 -->
<svg id="main" version="1.1" xmlns="http://www.w3.org/2000/svg" xmlns:xlink="http://www.w3.org/1999/xlink" xml:space="preserve" onload="init(evt)">
<style type="text/css"><![CDATA[
.edge:hover path { stroke: red; }
.edge:hover polygon { stroke: red; fill: red; }
]]></style>
<script type="text/javascript"><![CDATA[
var edges = document.getElementsByTagName('g');
if (edges && edges.length) {
  for (var i=0;i<edges.length;i++) {
    if (edges[i].id.substr(0,4)=='edge') {
      edges[i].setAttribute('class','edge');
    }
  }
}
]]></script>
        <defs>
                <circle id="rim" cx="0" cy="0" r="7"/>
                <circle id="rim2" cx="0" cy="0" r="3.5"/>
                <g id="zoomPlus">
                        <use xlink:href="#rim" fill="#404040">
                                <set attributeName="fill" to="#808080" begin="zoomplus.mouseover" end="zoomplus.mouseout"/>
                        </use>
                        <path d="M-4,0h8M0,-4v8" fill="none" stroke="white" stroke-width="1.5" pointer-events="none"/>
                </g>
                <g id="zoomMin">
                        <use xlink:href="#rim" fill="#404040">
                                <set attributeName="fill" to="#808080" begin="zoomminus.mouseover" end="zoomminus.mouseout"/>
                        </use>
                        <path d="M-4,0h8" fill="none" stroke="white" stroke-width="1.5" pointer-events="none"/>
                </g>
                <g id="dirArrow">
                        <path fill="none" stroke="white" stroke-width="1.5" d="M0,-3.0v7 M-2.5,-0.5L0,-3.0L2.5,-0.5"/>
                </g>
               <g id="resetDef">
                       <use xlink:href="#rim2" fill="#404040">
                               <set attributeName="fill" to="#808080" begin="reset.mouseover" end="reset.mouseout"/>
                       </use>
               </g>
        </defs>

<script type="text/javascript">
var viewWidth = 2494;
var viewHeight = 878;
var sectionId = 'dynsection-0';
</script>
<script xlink:href="svgpan.js"/>
<svg id="graph" class="graph">
<g id="viewport">
<title>ConversionProperties.cpp</title>
<polygon fill="#ffffff" stroke="transparent" points="-4,4 -4,-874 2490,-874 2490,4 -4,4"/>
<!-- Node1 -->
<g id="node1" class="node">
<title>Node1</title>
<polygon fill="#bfbfbf" stroke="#000000" points="2130.5,-850.5 2130.5,-869.5 2233.5,-869.5 2233.5,-850.5 2130.5,-850.5"/>
<text text-anchor="middle" x="2182" y="-857.5" font-family="Helvetica,sans-Serif" font-size="10.00" fill="#000000">ConversionProperties.cpp</text>
</g>
<!-- Node2 -->
<g id="node2" class="node">
<title>Node2</title>
<g id="a_node2"><a xlink:href="_conversion_properties_8h.html" target="_top" xlink:title="Definition of ConversionProperties, the class encapsulating conversion configuration. ">
<polygon fill="#ffffff" stroke="#000000" points="2362.5,-447.5 2362.5,-477.5 2473.5,-477.5 2473.5,-447.5 2362.5,-447.5"/>
<text text-anchor="start" x="2370.5" y="-465.5" font-family="Helvetica,sans-Serif" font-size="10.00" fill="#000000">sbml/conversion/Conversion</text>
<text text-anchor="middle" x="2418" y="-454.5" font-family="Helvetica,sans-Serif" font-size="10.00" fill="#000000">Properties.h</text>
</a>
</g>
</g>
<!-- Node1&#45;&gt;Node2 -->
<g id="edge1" class="edge">
<title>Node1&#45;&gt;Node2</title>
<path fill="none" stroke="#191970" d="M2233.5614,-855.264C2296.5993,-846.3125 2395,-820.6967 2395,-748 2395,-748 2395,-748 2395,-580 2395,-547.5537 2403.551,-510.9904 2410.2253,-487.3938"/>
<polygon fill="#191970" stroke="#191970" points="2413.6636,-488.1069 2413.1223,-477.5259 2406.947,-486.135 2413.6636,-488.1069"/>
</g>
<!-- Node13 -->
<g id="node13" class="node">
<title>Node13</title>
<polygon fill="#ffffff" stroke="#bfbfbf" points="1606.5,-263 1606.5,-282 1641.5,-282 1641.5,-263 1606.5,-263"/>
<text text-anchor="middle" x="1624" y="-270" font-family="Helvetica,sans-Serif" font-size="10.00" fill="#000000">string</text>
</g>
<!-- Node1&#45;&gt;Node13 -->
<g id="edge138" class="edge">
<title>Node1&#45;&gt;Node13</title>
<path fill="none" stroke="#191970" d="M2182,-850.4116C2182,-831.0538 2182,-785.9167 2182,-748 2182,-748 2182,-748 2182,-462.5 2182,-429.6194 2183.9679,-416.3275 2163,-391 2139.4215,-362.519 2120.2606,-373.0656 2088,-355 2065.8421,-342.5918 2063.8707,-332.6677 2040,-324 1968.1361,-297.9055 1733.9955,-279.9525 1652.3742,-274.3553"/>
<polygon fill="#191970" stroke="#191970" points="1652.1152,-270.8299 1641.902,-273.648 1651.6434,-277.814 1652.1152,-270.8299"/>
</g>
<!-- Node18 -->
<g id="node18" class="node">
<title>Node18</title>
<g id="a_node18"><a xlink:href="util_8h.html" target="_top" xlink:title="Utility functions. ">
<polygon fill="#ffffff" stroke="#000000" points="1900,-263 1900,-282 1962,-282 1962,-263 1900,-263"/>
<text text-anchor="middle" x="1931" y="-270" font-family="Helvetica,sans-Serif" font-size="10.00" fill="#000000">sbml/util/util.h</text>
</a>
</g>
</g>
<!-- Node1&#45;&gt;Node18 -->
<g id="edge36" class="edge">
<title>Node1&#45;&gt;Node18</title>
<path fill="none" stroke="#191970" d="M2218.795,-850.4434C2263.7798,-836.2795 2334,-805.0354 2334,-748 2334,-748 2334,-748 2334,-524 2334,-472.5091 2259.4331,-353.1675 2217,-324 2135.7121,-268.1247 2094.7676,-307.1261 1998,-288 1989.5816,-286.3361 1980.6089,-284.3847 1972.0568,-282.4384"/>
<polygon fill="#191970" stroke="#191970" points="1972.8005,-279.0181 1962.2689,-280.1735 1971.2224,-285.8379 1972.8005,-279.0181"/>
</g>
<!-- Node21 -->
<g id="node21" class="node">
<title>Node21</title>
<g id="a_node21"><a xlink:href="_conversion_option_8h.html" target="_top" xlink:title="Definition of ConversionOption, the class encapsulating conversion options. ">
<polygon fill="#ffffff" stroke="#000000" points="2096.5,-324.5 2096.5,-354.5 2207.5,-354.5 2207.5,-324.5 2096.5,-324.5"/>
<text text-anchor="start" x="2104.5" y="-342.5" font-family="Helvetica,sans-Serif" font-size="10.00" fill="#000000">sbml/conversion/Conversion</text>
<text text-anchor="middle" x="2152" y="-331.5" font-family="Helvetica,sans-Serif" font-size="10.00" fill="#000000">Option.h</text>
</a>
</g>
</g>
<!-- Node1&#45;&gt;Node21 -->
<g id="edge35" class="edge">
<title>Node1&#45;&gt;Node21</title>
<path fill="none" stroke="#191970" d="M2194.5499,-850.4082C2216.136,-832.7155 2258,-792.6472 2258,-748 2258,-748 2258,-748 2258,-462.5 2258,-417.9227 2217.5545,-381.4848 2186.6304,-360.1397"/>
<polygon fill="#191970" stroke="#191970" points="2188.4652,-357.1564 2178.2023,-354.5253 2184.5843,-362.9822 2188.4652,-357.1564"/>
</g>
<!-- Node23 -->
<g id="node23" class="node">
<title>Node23</title>
<g id="a_node23"><a xlink:href="_s_base_8h.html" target="_top" xlink:title="Definition of SBase, the base object of all SBML objects. ">
<polygon fill="#ffffff" stroke="#000000" points="1647.5,-794.5 1647.5,-813.5 1710.5,-813.5 1710.5,-794.5 1647.5,-794.5"/>
<text text-anchor="middle" x="1679" y="-801.5" font-family="Helvetica,sans-Serif" font-size="10.00" fill="#000000">sbml/SBase.h</text>
</a>
</g>
</g>
<!-- Node1&#45;&gt;Node23 -->
<g id="edge37" class="edge">
<title>Node1&#45;&gt;Node23</title>
<path fill="none" stroke="#191970" d="M2130.0647,-854.2179C2029.8832,-843.0645 1811.7947,-818.7843 1720.4994,-808.6202"/>
<polygon fill="#191970" stroke="#191970" points="1720.8488,-805.1376 1710.5229,-807.5095 1720.0742,-812.0946 1720.8488,-805.1376"/>
</g>
<!-- Node39 -->
<g id="node39" class="node">
<title>Node39</title>
<polygon fill="#ffffff" stroke="#bfbfbf" points="142.5,-453 142.5,-472 185.5,-472 185.5,-453 142.5,-453"/>
<text text-anchor="middle" x="164" y="-460" font-family="Helvetica,sans-Serif" font-size="10.00" fill="#000000">sstream</text>
</g>
<!-- Node1&#45;&gt;Node39 -->
<g id="edge139" class="edge">
<title>Node1&#45;&gt;Node39</title>
<path fill="none" stroke="#191970" d="M2130.4809,-858.742C1800.7532,-850.5264 0,-803.1345 0,-748 0,-748 0,-748 0,-692 0,-595.5877 96.994,-511.7333 141.797,-478.1425"/>
<polygon fill="#191970" stroke="#191970" points="144.029,-480.8458 150.0175,-472.1057 139.8857,-475.2037 144.029,-480.8458"/>
</g>
<!-- Node43 -->
<g id="node43" class="node">
<title>Node43</title>
<polygon fill="#ffffff" stroke="#bfbfbf" points="1906.5,-391.5 1906.5,-410.5 1953.5,-410.5 1953.5,-391.5 1906.5,-391.5"/>
<text text-anchor="middle" x="1930" y="-398.5" font-family="Helvetica,sans-Serif" font-size="10.00" fill="#000000">algorithm</text>
</g>
<!-- Node1&#45;&gt;Node43 -->
<g id="edge137" class="edge">
<title>Node1&#45;&gt;Node43</title>
<path fill="none" stroke="#191970" d="M2174.5748,-850.2568C2142.8478,-808.1827 2017.2237,-637.0175 1950,-478 1942.1238,-459.3688 1936.7137,-436.8544 1933.5258,-420.9973"/>
<polygon fill="#191970" stroke="#191970" points="1936.8906,-419.9539 1931.5937,-410.7782 1930.0125,-421.2544 1936.8906,-419.9539"/>
</g>
<!-- Node3 -->
<g id="node3" class="node">
<title>Node3</title>
<g id="a_node3"><a xlink:href="extern_8h.html" target="_top" xlink:title="Definitions of LIBSBML_EXTERN and related things. ">
<polygon fill="#ffffff" stroke="#000000" points="1477,-67.5 1477,-86.5 1569,-86.5 1569,-67.5 1477,-67.5"/>
<text text-anchor="middle" x="1523" y="-74.5" font-family="Helvetica,sans-Serif" font-size="10.00" fill="#000000">sbml/common/extern.h</text>
</a>
</g>
</g>
<!-- Node2&#45;&gt;Node3 -->
<g id="edge2" class="edge">
<title>Node2&#45;&gt;Node3</title>
<path fill="none" stroke="#191970" d="M2433.0914,-447.2984C2453.1248,-425.4321 2486,-382.9324 2486,-339.5 2486,-339.5 2486,-339.5 2486,-205.5 2486,-142.9576 2430.9562,-143.874 2372,-123 2297.7309,-96.7043 1756.8499,-82.2749 1579.2954,-78.2084"/>
<polygon fill="#191970" stroke="#191970" points="1579.2005,-74.7054 1569.1236,-77.9777 1579.0417,-81.7036 1579.2005,-74.7054"/>
</g>
<!-- Node5 -->
<g id="node5" class="node">
<title>Node5</title>
<g id="a_node5"><a xlink:href="_s_b_m_l_namespaces_8h.html" target="_top" xlink:title="SBMLNamespaces class to store level/version and namespace. ">
<polygon fill="#ffffff" stroke="#000000" points="2048.5,-391.5 2048.5,-410.5 2153.5,-410.5 2153.5,-391.5 2048.5,-391.5"/>
<text text-anchor="middle" x="2101" y="-398.5" font-family="Helvetica,sans-Serif" font-size="10.00" fill="#000000">sbml/SBMLNamespaces.h</text>
</a>
</g>
</g>
<!-- Node2&#45;&gt;Node5 -->
<g id="edge4" class="edge">
<title>Node2&#45;&gt;Node5</title>
<path fill="none" stroke="#191970" d="M2362.4201,-451.7171C2305.7181,-440.7166 2218.0564,-423.7097 2160.1093,-412.4676"/>
<polygon fill="#191970" stroke="#191970" points="2160.4897,-408.9762 2150.0061,-410.5075 2159.1565,-415.8481 2160.4897,-408.9762"/>
</g>
<!-- Node2&#45;&gt;Node21 -->
<g id="edge30" class="edge">
<title>Node2&#45;&gt;Node21</title>
<path fill="none" stroke="#191970" d="M2388.2893,-447.4081C2358.9343,-432.6255 2312.6546,-409.6645 2272,-391 2247.6623,-379.8266 2220.2351,-367.9995 2197.7513,-358.501"/>
<polygon fill="#191970" stroke="#191970" points="2199.016,-355.236 2188.4414,-354.5815 2196.2998,-361.6875 2199.016,-355.236"/>
</g>
<!-- Node22 -->
<g id="node22" class="node">
<title>Node22</title>
<polygon fill="#ffffff" stroke="#bfbfbf" points="2402.5,-391.5 2402.5,-410.5 2433.5,-410.5 2433.5,-391.5 2402.5,-391.5"/>
<text text-anchor="middle" x="2418" y="-398.5" font-family="Helvetica,sans-Serif" font-size="10.00" fill="#000000">map</text>
</g>
<!-- Node2&#45;&gt;Node22 -->
<g id="edge34" class="edge">
<title>Node2&#45;&gt;Node22</title>
<path fill="none" stroke="#191970" d="M2418,-447.2977C2418,-439.3834 2418,-429.6043 2418,-421.0759"/>
<polygon fill="#191970" stroke="#191970" points="2421.5001,-420.8469 2418,-410.8469 2414.5001,-420.847 2421.5001,-420.8469"/>
</g>
<!-- Node4 -->
<g id="node4" class="node">
<title>Node4</title>
<g id="a_node4"><a xlink:href="libsbml-namespace_8h.html" target="_top" xlink:title="Defines C++ namespace of libSBML. ">
<polygon fill="#ffffff" stroke="#000000" points="1073.5,-.5 1073.5,-30.5 1162.5,-30.5 1162.5,-.5 1073.5,-.5"/>
<text text-anchor="start" x="1081.5" y="-18.5" font-family="Helvetica,sans-Serif" font-size="10.00" fill="#000000">sbml/common/libsbml</text>
<text text-anchor="middle" x="1118" y="-7.5" font-family="Helvetica,sans-Serif" font-size="10.00" fill="#000000">&#45;namespace.h</text>
</a>
</g>
</g>
<!-- Node3&#45;&gt;Node4 -->
<g id="edge3" class="edge">
<title>Node3&#45;&gt;Node4</title>
<path fill="none" stroke="#191970" d="M1476.9357,-70.005C1401.7813,-58.5927 1253.1239,-36.0188 1172.716,-23.8087"/>
<polygon fill="#191970" stroke="#191970" points="1173.1967,-20.3417 1162.7846,-22.3006 1172.1457,-27.2623 1173.1967,-20.3417"/>
</g>
<!-- Node6 -->
<g id="node6" class="node">
<title>Node6</title>
<g id="a_node6"><a xlink:href="_x_m_l_namespaces_8h.html" target="_top" xlink:title="A list of XMLNamespace declarations (URI/prefix pairs) ">
<polygon fill="#ffffff" stroke="#000000" points="926,-330 926,-349 1040,-349 1040,-330 926,-330"/>
<text text-anchor="middle" x="983" y="-337" font-family="Helvetica,sans-Serif" font-size="10.00" fill="#000000">sbml/xml/XMLNamespaces.h</text>
</a>
</g>
</g>
<!-- Node5&#45;&gt;Node6 -->
<g id="edge5" class="edge">
<title>Node5&#45;&gt;Node6</title>
<path fill="none" stroke="#191970" d="M2048.2742,-396.7702C2022.5645,-394.8122 1991.1808,-392.5762 1963,-391 1557.5406,-368.3219 1452.4864,-409.003 1050,-355 1043.0832,-354.0719 1035.8319,-352.7596 1028.7596,-351.2868"/>
<polygon fill="#191970" stroke="#191970" points="1029.1051,-347.7789 1018.5856,-349.0404 1027.5957,-354.6142 1029.1051,-347.7789"/>
</g>
<!-- Node5&#45;&gt;Node13 -->
<g id="edge28" class="edge">
<title>Node5&#45;&gt;Node13</title>
<path fill="none" stroke="#191970" d="M2090.6258,-391.3653C2070.1771,-372.5867 2025.004,-332.2048 2006,-324 1942.0254,-296.3794 1729.3332,-279.6155 1652.227,-274.3235"/>
<polygon fill="#191970" stroke="#191970" points="1652.0809,-270.8058 1641.8683,-273.626 1651.6105,-277.79 1652.0809,-270.8058"/>
</g>
<!-- Node15 -->
<g id="node15" class="node">
<title>Node15</title>
<g id="a_node15"><a xlink:href="common_8h.html" target="_top" xlink:title="Common functions and macros for C and C++. ">
<polygon fill="#ffffff" stroke="#000000" points="2264,-330 2264,-349 2364,-349 2364,-330 2264,-330"/>
<text text-anchor="middle" x="2314" y="-337" font-family="Helvetica,sans-Serif" font-size="10.00" fill="#000000">sbml/common/common.h</text>
</a>
</g>
</g>
<!-- Node5&#45;&gt;Node15 -->
<g id="edge19" class="edge">
<title>Node5&#45;&gt;Node15</title>
<path fill="none" stroke="#191970" d="M2134.2813,-391.3906C2171.1705,-380.7395 2230.7757,-363.5296 2271.1325,-351.8772"/>
<polygon fill="#191970" stroke="#191970" points="2272.3158,-355.1786 2280.9525,-349.0419 2270.374,-348.4533 2272.3158,-355.1786"/>
</g>
<!-- Node20 -->
<g id="node20" class="node">
<title>Node20</title>
<polygon fill="#ffffff" stroke="#bfbfbf" points="1914.5,-330 1914.5,-349 1963.5,-349 1963.5,-330 1914.5,-330"/>
<text text-anchor="middle" x="1939" y="-337" font-family="Helvetica,sans-Serif" font-size="10.00" fill="#000000">stdexcept</text>
</g>
<!-- Node5&#45;&gt;Node20 -->
<g id="edge29" class="edge">
<title>Node5&#45;&gt;Node20</title>
<path fill="none" stroke="#191970" d="M2075.6875,-391.3906C2048.0647,-380.9042 2003.6952,-364.0602 1973.0376,-352.4217"/>
<polygon fill="#191970" stroke="#191970" points="1974.1955,-349.1176 1963.6043,-348.8405 1971.7111,-355.6619 1974.1955,-349.1176"/>
</g>
<!-- Node7 -->
<g id="node7" class="node">
<title>Node7</title>
<g id="a_node7"><a xlink:href="_x_m_l_extern_8h.html" target="_top" xlink:title="Defines LIBLAX_EXTERN. ">
<polygon fill="#ffffff" stroke="#000000" points="937,-263 937,-282 1029,-282 1029,-263 937,-263"/>
<text text-anchor="middle" x="983" y="-270" font-family="Helvetica,sans-Serif" font-size="10.00" fill="#000000">sbml/xml/XMLExtern.h</text>
</a>
</g>
</g>
<!-- Node6&#45;&gt;Node7 -->
<g id="edge6" class="edge">
<title>Node6&#45;&gt;Node7</title>
<path fill="none" stroke="#191970" d="M983,-329.9005C983,-320.149 983,-304.7597 983,-292.3695"/>
<polygon fill="#191970" stroke="#191970" points="986.5001,-292.0816 983,-282.0817 979.5001,-292.0817 986.5001,-292.0816"/>
</g>
<!-- Node8 -->
<g id="node8" class="node">
<title>Node8</title>
<g id="a_node8"><a xlink:href="sbmlfwd_8h.html" target="_top" xlink:title="Forward declarations for all opaque C types. ">
<polygon fill="#ffffff" stroke="#000000" points="696.5,-263 696.5,-282 795.5,-282 795.5,-263 696.5,-263"/>
<text text-anchor="middle" x="746" y="-270" font-family="Helvetica,sans-Serif" font-size="10.00" fill="#000000">sbml/common/sbmlfwd.h</text>
</a>
</g>
</g>
<!-- Node6&#45;&gt;Node8 -->
<g id="edge8" class="edge">
<title>Node6&#45;&gt;Node8</title>
<path fill="none" stroke="#191970" d="M949.2954,-329.9717C907.3863,-318.124 835.7623,-297.8758 789.6813,-284.8487"/>
<polygon fill="#191970" stroke="#191970" points="790.5471,-281.4564 779.9721,-282.1039 788.6428,-288.1924 790.5471,-281.4564"/>
</g>
<!-- Node12 -->
<g id="node12" class="node">
<title>Node12</title>
<g id="a_node12"><a xlink:href="operation_return_values_8h.html" target="_top" xlink:title="Enumeration of values returned by operations within libSBML. ">
<polygon fill="#ffffff" stroke="#000000" points="527.5,-257.5 527.5,-287.5 646.5,-287.5 646.5,-257.5 527.5,-257.5"/>
<text text-anchor="start" x="535.5" y="-275.5" font-family="Helvetica,sans-Serif" font-size="10.00" fill="#000000">sbml/common/operationReturn</text>
<text text-anchor="middle" x="587" y="-264.5" font-family="Helvetica,sans-Serif" font-size="10.00" fill="#000000">Values.h</text>
</a>
</g>
</g>
<!-- Node6&#45;&gt;Node12 -->
<g id="edge15" class="edge">
<title>Node6&#45;&gt;Node12</title>
<path fill="none" stroke="#191970" d="M926.6834,-329.9717C855.6693,-317.9567 733.5928,-297.3023 656.7504,-284.3012"/>
<polygon fill="#191970" stroke="#191970" points="657.1263,-280.8151 646.6825,-282.5978 655.9585,-287.717 657.1263,-280.8151"/>
</g>
<!-- Node6&#45;&gt;Node13 -->
<g id="edge17" class="edge">
<title>Node6&#45;&gt;Node13</title>
<path fill="none" stroke="#191970" d="M1020.0318,-329.9732C1029.7315,-327.7421 1040.2146,-325.5632 1050,-324 1258.0209,-290.7684 1512.1349,-277.3636 1595.8137,-273.6512"/>
<polygon fill="#191970" stroke="#191970" points="1596.1952,-277.1381 1606.0344,-273.2088 1595.8924,-270.1446 1596.1952,-277.1381"/>
</g>
<!-- Node14 -->
<g id="node14" class="node">
<title>Node14</title>
<polygon fill="#ffffff" stroke="#bfbfbf" points="1172.5,-263 1172.5,-282 1209.5,-282 1209.5,-263 1172.5,-263"/>
<text text-anchor="middle" x="1191" y="-270" font-family="Helvetica,sans-Serif" font-size="10.00" fill="#000000">vector</text>
</g>
<!-- Node6&#45;&gt;Node14 -->
<g id="edge18" class="edge">
<title>Node6&#45;&gt;Node14</title>
<path fill="none" stroke="#191970" d="M1012.8013,-329.9005C1052.8107,-317.0129 1123.3902,-294.2781 1162.6462,-281.6332"/>
<polygon fill="#191970" stroke="#191970" points="1163.9303,-284.8967 1172.3755,-278.4992 1161.784,-278.2339 1163.9303,-284.8967"/>
</g>
<!-- Node7&#45;&gt;Node4 -->
<g id="edge7" class="edge">
<title>Node7&#45;&gt;Node4</title>
<path fill="none" stroke="#191970" d="M1003.5144,-262.8543C1019.9718,-254.116 1042.4839,-239.7452 1056,-221 1096.5148,-164.811 1110.882,-81.8706 1115.7126,-40.6549"/>
<polygon fill="#191970" stroke="#191970" points="1119.1987,-40.9717 1116.7911,-30.654 1112.239,-40.2211 1119.1987,-40.9717"/>
</g>
<!-- Node8&#45;&gt;Node4 -->
<g id="edge9" class="edge">
<title>Node8&#45;&gt;Node4</title>
<path fill="none" stroke="#191970" d="M760.1286,-262.7391C814.5673,-225.1296 1011.4779,-89.0919 1087.6348,-36.4781"/>
<polygon fill="#191970" stroke="#191970" points="1089.6487,-39.3409 1095.8868,-30.7771 1085.6698,-33.5816 1089.6487,-39.3409"/>
</g>
<!-- Node9 -->
<g id="node9" class="node">
<title>Node9</title>
<g id="a_node9"><a xlink:href="libsbml-config_8h.html" target="_top" xlink:title="Decides whether to #include Unix or Windows configuration variables. ">
<polygon fill="#ffffff" stroke="#000000" points="2143.5,-190.5 2143.5,-220.5 2232.5,-220.5 2232.5,-190.5 2143.5,-190.5"/>
<text text-anchor="start" x="2151.5" y="-208.5" font-family="Helvetica,sans-Serif" font-size="10.00" fill="#000000">sbml/common/libsbml</text>
<text text-anchor="middle" x="2188" y="-197.5" font-family="Helvetica,sans-Serif" font-size="10.00" fill="#000000">&#45;config.h</text>
</a>
</g>
</g>
<!-- Node8&#45;&gt;Node9 -->
<g id="edge10" class="edge">
<title>Node8&#45;&gt;Node9</title>
<path fill="none" stroke="#191970" d="M795.7743,-267.5583C832.3266,-264.1006 883.206,-259.644 928,-257 1412.7533,-228.387 1535.3505,-251.3195 2020,-221 2057.8532,-218.6319 2100.3948,-214.6939 2133.1975,-211.38"/>
<polygon fill="#191970" stroke="#191970" points="2133.8948,-214.827 2143.4872,-210.3287 2133.1832,-207.8633 2133.8948,-214.827"/>
</g>
<!-- Node9&#45;&gt;Node4 -->
<g id="edge11" class="edge">
<title>Node9&#45;&gt;Node4</title>
<path fill="none" stroke="#191970" d="M2222.7411,-190.4083C2255.1929,-174.2846 2295.5085,-147.7007 2273,-123 2198.0967,-40.8015 1392.5955,-20.4187 1173.0117,-16.3734"/>
<polygon fill="#191970" stroke="#191970" points="1172.762,-12.8684 1162.7005,-16.1875 1172.6358,-19.8672 1172.762,-12.8684"/>
</g>
<!-- Node10 -->
<g id="node10" class="node">
<title>Node10</title>
<g id="a_node10"><a xlink:href="libsbml-config-common_8h.html" target="_top" xlink:title="Configuration variables. ">
<polygon fill="#ffffff" stroke="#000000" points="2174.5,-123.5 2174.5,-153.5 2263.5,-153.5 2263.5,-123.5 2174.5,-123.5"/>
<text text-anchor="start" x="2182.5" y="-141.5" font-family="Helvetica,sans-Serif" font-size="10.00" fill="#000000">sbml/common/libsbml</text>
<text text-anchor="middle" x="2219" y="-130.5" font-family="Helvetica,sans-Serif" font-size="10.00" fill="#000000">&#45;config&#45;common.h</text>
</a>
</g>
</g>
<!-- Node9&#45;&gt;Node10 -->
<g id="edge12" class="edge">
<title>Node9&#45;&gt;Node10</title>
<path fill="none" stroke="#191970" d="M2195.0344,-190.2967C2198.7997,-182.1586 2203.5266,-171.9425 2207.7851,-162.7386"/>
<polygon fill="#191970" stroke="#191970" points="2210.9707,-164.1885 2211.9935,-153.6432 2204.6178,-161.2491 2210.9707,-164.1885"/>
</g>
<!-- Node11 -->
<g id="node11" class="node">
<title>Node11</title>
<g id="a_node11"><a xlink:href="libsbml-version_8h.html" target="_top" xlink:title="Define libSBML version numbers for access from client software. ">
<polygon fill="#ffffff" stroke="#000000" points="2067.5,-123.5 2067.5,-153.5 2156.5,-153.5 2156.5,-123.5 2067.5,-123.5"/>
<text text-anchor="start" x="2075.5" y="-141.5" font-family="Helvetica,sans-Serif" font-size="10.00" fill="#000000">sbml/common/libsbml</text>
<text text-anchor="middle" x="2112" y="-130.5" font-family="Helvetica,sans-Serif" font-size="10.00" fill="#000000">&#45;version.h</text>
</a>
</g>
</g>
<!-- Node9&#45;&gt;Node11 -->
<g id="edge13" class="edge">
<title>Node9&#45;&gt;Node11</title>
<path fill="none" stroke="#191970" d="M2170.7544,-190.2967C2160.7458,-181.4733 2147.9664,-170.2072 2136.8836,-160.4368"/>
<polygon fill="#191970" stroke="#191970" points="2138.9932,-157.6307 2129.1773,-153.6432 2134.3641,-162.8816 2138.9932,-157.6307"/>
</g>
<!-- Node11&#45;&gt;Node3 -->
<g id="edge14" class="edge">
<title>Node11&#45;&gt;Node3</title>
<path fill="none" stroke="#191970" d="M2067.398,-125.9283C2062.5636,-124.8215 2057.6957,-123.8145 2053,-123 1882.006,-93.3411 1676.4916,-82.4387 1579.256,-78.7372"/>
<polygon fill="#191970" stroke="#191970" points="1579.1877,-75.2324 1569.0652,-78.3607 1578.9292,-82.2276 1579.1877,-75.2324"/>
</g>
<!-- Node12&#45;&gt;Node3 -->
<g id="edge16" class="edge">
<title>Node12&#45;&gt;Node3</title>
<path fill="none" stroke="#191970" d="M646.4074,-257.4777C760.5447,-228.9235 1018.6266,-165.845 1238,-123 1317.1188,-107.5476 1409.3222,-93.3539 1466.936,-84.9371"/>
<polygon fill="#191970" stroke="#191970" points="1467.5368,-88.3866 1476.9293,-83.4845 1466.5298,-81.4594 1467.5368,-88.3866"/>
</g>
<!-- Node15&#45;&gt;Node3 -->
<g id="edge22" class="edge">
<title>Node15&#45;&gt;Node3</title>
<path fill="none" stroke="#191970" d="M2277.451,-329.9209C2246.3833,-321.0885 2201.0545,-306.55 2164,-288 2094.7749,-253.3449 2086.9979,-228.7861 2020,-190 1960.9945,-155.8409 1947.3385,-142.4774 1882,-123 1777.9722,-91.9893 1650.8624,-81.8843 1579.1953,-78.5916"/>
<polygon fill="#191970" stroke="#191970" points="1579.1746,-75.0875 1569.0331,-78.1535 1578.8731,-82.081 1579.1746,-75.0875"/>
</g>
<!-- Node15&#45;&gt;Node9 -->
<g id="edge20" class="edge">
<title>Node15&#45;&gt;Node9</title>
<path fill="none" stroke="#191970" d="M2273.8783,-329.933C2237.3872,-320.3233 2187.5202,-304.5955 2176,-288 2164.3399,-271.203 2169.2035,-247.8205 2175.9045,-230.2362"/>
<polygon fill="#191970" stroke="#191970" points="2179.288,-231.2205 2179.9513,-220.6464 2172.8387,-228.4989 2179.288,-231.2205"/>
</g>
<!-- Node16 -->
<g id="node16" class="node">
<title>Node16</title>
<polygon fill="#ffffff" stroke="#bfbfbf" points="1971.5,-196 1971.5,-215 2010.5,-215 2010.5,-196 1971.5,-196"/>
<text text-anchor="middle" x="1991" y="-203" font-family="Helvetica,sans-Serif" font-size="10.00" fill="#000000">stdio.h</text>
</g>
<!-- Node15&#45;&gt;Node16 -->
<g id="edge21" class="edge">
<title>Node15&#45;&gt;Node16</title>
<path fill="none" stroke="#191970" d="M2276.884,-329.9858C2268.0993,-327.8798 2258.7428,-325.7553 2250,-324 2150.7094,-304.0656 2104.425,-350.8305 2025,-288 2005.6014,-272.6544 1997.1746,-244.3591 1993.5794,-225.2366"/>
<polygon fill="#191970" stroke="#191970" points="1997.0104,-224.5262 1991.9746,-215.2046 1990.0983,-225.632 1997.0104,-224.5262"/>
</g>
<!-- Node17 -->
<g id="node17" class="node">
<title>Node17</title>
<g id="a_node17"><a xlink:href="memory_8h.html" target="_top" xlink:title="sbml/util/memory.h">
<polygon fill="#ffffff" stroke="#000000" points="2184.5,-263 2184.5,-282 2263.5,-282 2263.5,-263 2184.5,-263"/>
<text text-anchor="middle" x="2224" y="-270" font-family="Helvetica,sans-Serif" font-size="10.00" fill="#000000">sbml/util/memory.h</text>
</a>
</g>
</g>
<!-- Node15&#45;&gt;Node17 -->
<g id="edge23" class="edge">
<title>Node15&#45;&gt;Node17</title>
<path fill="none" stroke="#191970" d="M2301.1052,-329.9005C2286.5358,-319.0544 2262.5978,-301.2339 2245.2546,-288.3229"/>
<polygon fill="#191970" stroke="#191970" points="2246.9823,-285.2457 2236.8709,-282.0817 2242.8022,-290.8606 2246.9823,-285.2457"/>
</g>
<!-- Node15&#45;&gt;Node18 -->
<g id="edge24" class="edge">
<title>Node15&#45;&gt;Node18</title>
<path fill="none" stroke="#191970" d="M2277.5896,-329.9878C2268.6097,-327.834 2258.9888,-325.6875 2250,-324 2131.8824,-301.8257 2099.4321,-313.5569 1982,-288 1977.8292,-287.0923 1973.5057,-286.0085 1969.22,-284.8416"/>
<polygon fill="#191970" stroke="#191970" points="1969.9558,-281.4114 1959.378,-282.0114 1968.0213,-288.1388 1969.9558,-281.4114"/>
</g>
<!-- Node18&#45;&gt;Node3 -->
<g id="edge27" class="edge">
<title>Node18&#45;&gt;Node3</title>
<path fill="none" stroke="#191970" d="M1924.6741,-262.8412C1918.1214,-252.649 1907.7718,-236.0138 1900,-221 1878.1346,-178.7599 1894.9484,-151.6747 1857,-123 1814.4109,-90.8187 1662.9654,-81.1436 1579.3964,-78.2404"/>
<polygon fill="#191970" stroke="#191970" points="1579.4156,-74.7392 1569.3068,-77.9113 1579.1873,-81.7355 1579.4156,-74.7392"/>
</g>
<!-- Node18&#45;&gt;Node16 -->
<g id="edge25" class="edge">
<title>Node18&#45;&gt;Node16</title>
<path fill="none" stroke="#191970" d="M1939.5965,-262.9005C1948.953,-252.4525 1964.1052,-235.5325 1975.5401,-222.7635"/>
<polygon fill="#191970" stroke="#191970" points="1978.3555,-224.8661 1982.4194,-215.0817 1973.1408,-220.1963 1978.3555,-224.8661"/>
</g>
<!-- Node19 -->
<g id="node19" class="node">
<title>Node19</title>
<polygon fill="#ffffff" stroke="#bfbfbf" points="1909,-196 1909,-215 1953,-215 1953,-196 1909,-196"/>
<text text-anchor="middle" x="1931" y="-203" font-family="Helvetica,sans-Serif" font-size="10.00" fill="#000000">stdarg.h</text>
</g>
<!-- Node18&#45;&gt;Node19 -->
<g id="edge26" class="edge">
<title>Node18&#45;&gt;Node19</title>
<path fill="none" stroke="#191970" d="M1931,-262.9005C1931,-253.149 1931,-237.7597 1931,-225.3695"/>
<polygon fill="#191970" stroke="#191970" points="1934.5001,-225.0816 1931,-215.0817 1927.5001,-225.0817 1934.5001,-225.0816"/>
</g>
<!-- Node21&#45;&gt;Node3 -->
<g id="edge31" class="edge">
<title>Node21&#45;&gt;Node3</title>
<path fill="none" stroke="#191970" d="M2207.573,-331.0206C2286.3845,-318.7312 2421.9258,-296.5107 2429,-288 2482.0244,-224.2086 2478.928,-203.2774 2333,-123 2267.3902,-86.907 1751.8502,-79.0361 1579.1554,-77.4055"/>
<polygon fill="#191970" stroke="#191970" points="1579.0391,-73.9044 1569.0077,-77.3132 1578.9754,-80.9041 1579.0391,-73.9044"/>
</g>
<!-- Node21&#45;&gt;Node8 -->
<g id="edge32" class="edge">
<title>Node21&#45;&gt;Node8</title>
<path fill="none" stroke="#191970" d="M2096.4204,-333.9384C2061.1074,-330.5903 2014.4106,-326.5045 1973,-324 1509.1276,-295.945 1391.8921,-315.7264 928,-288 887.2323,-285.5634 841.4217,-281.6555 805.9597,-278.3734"/>
<polygon fill="#191970" stroke="#191970" points="806.0577,-274.8674 795.7755,-277.4218 805.4064,-281.8371 806.0577,-274.8674"/>
</g>
<!-- Node21&#45;&gt;Node13 -->
<g id="edge33" class="edge">
<title>Node21&#45;&gt;Node13</title>
<path fill="none" stroke="#191970" d="M2096.3193,-326.6127C2091.4887,-325.6642 2086.6657,-324.7766 2082,-324 1919.8379,-297.0071 1722.97,-280.17 1651.5495,-274.5734"/>
<polygon fill="#191970" stroke="#191970" points="1651.8041,-271.0828 1641.5638,-273.8006 1651.2639,-278.0619 1651.8041,-271.0828"/>
</g>
<!-- Node23&#45;&gt;Node3 -->
<g id="edge38" class="edge">
<title>Node23&#45;&gt;Node3</title>
<path fill="none" stroke="#191970" d="M1647.2608,-803.4231C1451.4142,-799.8022 411.0348,-779.6637 271,-758 180.2004,-743.9531 140.4439,-763.2969 72,-702 8.4292,-645.0674 0,-609.338 0,-524 0,-524 0,-524 0,-205.5 0,-145.0976 51.1042,-143.2808 108,-123 172.9385,-99.8523 1211.1686,-81.9422 1466.5755,-77.8721"/>
<polygon fill="#191970" stroke="#191970" points="1466.7973,-81.3691 1476.7405,-77.7108 1466.6862,-74.37 1466.7973,-81.3691"/>
</g>
<!-- Node23&#45;&gt;Node5 -->
<g id="edge107" class="edge">
<title>Node23&#45;&gt;Node5</title>
<path fill="none" stroke="#191970" d="M1710.9384,-800.7954C1772.8062,-794.222 1906.5504,-778.1237 1948,-758 1981.4031,-741.7828 1988.6967,-732.4128 2010,-702 2071.6505,-613.9871 2080.3954,-583.4633 2101,-478 2104.754,-458.7853 2104.2128,-436.355 2103.0622,-420.6768"/>
<polygon fill="#191970" stroke="#191970" points="2106.5381,-420.2487 2102.1694,-410.5965 2099.5654,-420.8663 2106.5381,-420.2487"/>
</g>
<!-- Node23&#45;&gt;Node8 -->
<g id="edge39" class="edge">
<title>Node23&#45;&gt;Node8</title>
<path fill="none" stroke="#191970" d="M1647.3398,-803.4992C1422.487,-799.7408 76,-773.8187 76,-692 76,-692 76,-692 76,-524 76,-343.3641 312.783,-372.386 491,-324 527.0983,-314.1993 623.2374,-295.5211 686.6091,-283.5564"/>
<polygon fill="#191970" stroke="#191970" points="687.3051,-286.9869 696.4843,-281.6961 686.0092,-280.1079 687.3051,-286.9869"/>
</g>
<!-- Node23&#45;&gt;Node13 -->
<g id="edge134" class="edge">
<title>Node23&#45;&gt;Node13</title>
<path fill="none" stroke="#191970" d="M1671.8617,-794.3839C1658.7136,-775.6891 1632,-732.6982 1632,-692 1632,-692 1632,-692 1632,-462.5 1632,-400.506 1627.6959,-327.2345 1625.4018,-292.5826"/>
<polygon fill="#191970" stroke="#191970" points="1628.8788,-292.1239 1624.7099,-282.3837 1621.8949,-292.5977 1628.8788,-292.1239"/>
</g>
<!-- Node23&#45;&gt;Node20 -->
<g id="edge135" class="edge">
<title>Node23&#45;&gt;Node20</title>
<path fill="none" stroke="#191970" d="M1710.6912,-798.5925C1761.1214,-787.9696 1854,-759.2732 1854,-692 1854,-692 1854,-692 1854,-524 1854,-461.7381 1868.3726,-445.761 1898,-391 1904.7298,-378.5612 1914.5339,-366.114 1922.8674,-356.5731"/>
<polygon fill="#191970" stroke="#191970" points="1925.5929,-358.7773 1929.6981,-349.0101 1920.398,-354.0854 1925.5929,-358.7773"/>
</g>
<!-- Node24 -->
<g id="node24" class="node">
<title>Node24</title>
<g id="a_node24"><a xlink:href="_s_b_m_l_type_codes_8h.html" target="_top" xlink:title="Enumeration to identify SBML objects at runtime. ">
<polygon fill="#ffffff" stroke="#000000" points="2320.5,-263 2320.5,-282 2419.5,-282 2419.5,-263 2320.5,-263"/>
<text text-anchor="middle" x="2370" y="-270" font-family="Helvetica,sans-Serif" font-size="10.00" fill="#000000">sbml/SBMLTypeCodes.h</text>
</a>
</g>
</g>
<!-- Node23&#45;&gt;Node24 -->
<g id="edge40" class="edge">
<title>Node23&#45;&gt;Node24</title>
<path fill="none" stroke="#191970" d="M1710.7586,-802.4625C1766.2274,-799.0466 1883.828,-788.5425 1978,-758 2081.6146,-724.395 2114.8215,-718.6315 2196,-646 2253.8289,-594.2597 2366.6022,-429.2938 2389,-355 2395.4644,-333.5574 2387.5021,-308.4125 2379.9968,-291.5694"/>
<polygon fill="#191970" stroke="#191970" points="2383.0074,-289.7541 2375.5158,-282.2623 2376.7003,-292.7907 2383.0074,-289.7541"/>
</g>
<!-- Node25 -->
<g id="node25" class="node">
<title>Node25</title>
<g id="a_node25"><a xlink:href="_r_d_f_annotation_8h.html" target="_top" xlink:title="RDFAnnotation I/O. ">
<polygon fill="#ffffff" stroke="#000000" points="1147.5,-738.5 1147.5,-757.5 1276.5,-757.5 1276.5,-738.5 1147.5,-738.5"/>
<text text-anchor="middle" x="1212" y="-745.5" font-family="Helvetica,sans-Serif" font-size="10.00" fill="#000000">sbml/annotation/RDFAnnotation.h</text>
</a>
</g>
</g>
<!-- Node23&#45;&gt;Node25 -->
<g id="edge43" class="edge">
<title>Node23&#45;&gt;Node25</title>
<path fill="none" stroke="#191970" d="M1647.2683,-800.1949C1573.8577,-791.3919 1390.6691,-769.425 1286.8546,-756.9761"/>
<polygon fill="#191970" stroke="#191970" points="1287.1002,-753.4806 1276.7546,-755.765 1286.2668,-760.4308 1287.1002,-753.4806"/>
</g>
<!-- Node30 -->
<g id="node30" class="node">
<title>Node30</title>
<g id="a_node30"><a xlink:href="_list_8h.html" target="_top" xlink:title="Simple, generic list utility class. ">
<polygon fill="#ffffff" stroke="#000000" points="486,-514.5 486,-533.5 550,-533.5 550,-514.5 486,-514.5"/>
<text text-anchor="middle" x="518" y="-521.5" font-family="Helvetica,sans-Serif" font-size="10.00" fill="#000000">sbml/util/List.h</text>
</a>
</g>
</g>
<!-- Node23&#45;&gt;Node30 -->
<g id="edge106" class="edge">
<title>Node23&#45;&gt;Node30</title>
<path fill="none" stroke="#191970" d="M1647.3493,-802.442C1468.462,-793.4333 592,-746.5132 592,-692 592,-692 592,-692 592,-636 592,-596.563 559.6668,-560.3258 537.7456,-540.2897"/>
<polygon fill="#191970" stroke="#191970" points="540.0384,-537.6451 530.2196,-533.665 535.4133,-542.8995 540.0384,-537.6451"/>
</g>
<!-- Node32 -->
<g id="node32" class="node">
<title>Node32</title>
<g id="a_node32"><a xlink:href="_x_m_l_node_8h.html" target="_top" xlink:title="Class definition of XMLNode, a node in an XML document tree. ">
<polygon fill="#ffffff" stroke="#000000" points="736,-514.5 736,-533.5 824,-533.5 824,-514.5 736,-514.5"/>
<text text-anchor="middle" x="780" y="-521.5" font-family="Helvetica,sans-Serif" font-size="10.00" fill="#000000">sbml/xml/XMLNode.h</text>
</a>
</g>
</g>
<!-- Node23&#45;&gt;Node32 -->
<g id="edge125" class="edge">
<title>Node23&#45;&gt;Node32</title>
<path fill="none" stroke="#191970" d="M1647.3795,-802.6516C1505.1992,-796.1776 932,-765.5187 932,-692 932,-692 932,-692 932,-636 932,-582.8635 871.0521,-552.1127 826.3436,-536.7035"/>
<polygon fill="#191970" stroke="#191970" points="827.388,-533.3626 816.795,-533.5566 825.1969,-540.0108 827.388,-533.3626"/>
</g>
<!-- Node40 -->
<g id="node40" class="node">
<title>Node40</title>
<g id="a_node40"><a xlink:href="_c_v_term_8h.html" target="_top" xlink:title="Definition of a CVTerm class for adding annotations to a Model. ">
<polygon fill="#ffffff" stroke="#000000" points="1162,-514.5 1162,-533.5 1268,-533.5 1268,-514.5 1162,-514.5"/>
<text text-anchor="middle" x="1215" y="-521.5" font-family="Helvetica,sans-Serif" font-size="10.00" fill="#000000">sbml/annotation/CVTerm.h</text>
</a>
</g>
</g>
<!-- Node23&#45;&gt;Node40 -->
<g id="edge96" class="edge">
<title>Node23&#45;&gt;Node40</title>
<path fill="none" stroke="#191970" d="M1649.1018,-794.4192C1624.7529,-786.1309 1589.8165,-773.1187 1561,-758 1429.2727,-688.8887 1286.4913,-580.2881 1234.9508,-539.8588"/>
<polygon fill="#191970" stroke="#191970" points="1236.9623,-536.9878 1226.9416,-533.5474 1232.6297,-542.4859 1236.9623,-536.9878"/>
</g>
<!-- Node41 -->
<g id="node41" class="node">
<title>Node41</title>
<g id="a_node41"><a xlink:href="_syntax_checker_8h.html" target="_top" xlink:title="Syntax checking functions. ">
<polygon fill="#ffffff" stroke="#000000" points="1766,-330 1766,-349 1858,-349 1858,-330 1766,-330"/>
<text text-anchor="middle" x="1812" y="-337" font-family="Helvetica,sans-Serif" font-size="10.00" fill="#000000">sbml/SyntaxChecker.h</text>
</a>
</g>
</g>
<!-- Node23&#45;&gt;Node41 -->
<g id="edge108" class="edge">
<title>Node23&#45;&gt;Node41</title>
<path fill="none" stroke="#191970" d="M1673.9776,-794.4116C1670,-775.0538 1670,-729.9167 1670,-692 1670,-692 1670,-692 1670,-462.5 1670,-408.3746 1730.1045,-371.4349 1772.2377,-353.0349"/>
<polygon fill="#191970" stroke="#191970" points="1773.8419,-356.1579 1781.7196,-349.0732 1771.1432,-349.699 1773.8419,-356.1579"/>
</g>
<!-- Node42 -->
<g id="node42" class="node">
<title>Node42</title>
<g id="a_node42"><a xlink:href="_s_b_m_l_constructor_exception_8h.html" target="_top" xlink:title="Definition of SBMLConstructorException, the exception class for constructor exceptions. ">
<polygon fill="#ffffff" stroke="#000000" points="1958.5,-453 1958.5,-472 2091.5,-472 2091.5,-453 1958.5,-453"/>
<text text-anchor="middle" x="2025" y="-460" font-family="Helvetica,sans-Serif" font-size="10.00" fill="#000000">sbml/SBMLConstructorException.h</text>
</a>
</g>
</g>
<!-- Node23&#45;&gt;Node42 -->
<g id="edge113" class="edge">
<title>Node23&#45;&gt;Node42</title>
<path fill="none" stroke="#191970" d="M1710.7466,-801.8386C1755.8454,-797.8349 1840.2792,-786.8548 1906,-758 1951.7469,-737.9147 1997,-741.962 1997,-692 1997,-692 1997,-692 1997,-580 1997,-544.5173 2009.2319,-504.6087 2017.5264,-481.6256"/>
<polygon fill="#191970" stroke="#191970" points="2020.8776,-482.6568 2021.1067,-472.0644 2014.3221,-480.202 2020.8776,-482.6568"/>
</g>
<!-- Node23&#45;&gt;Node43 -->
<g id="edge136" class="edge">
<title>Node23&#45;&gt;Node43</title>
<path fill="none" stroke="#191970" d="M1710.7253,-799.9408C1758.2933,-793.2631 1844.9821,-778.6151 1868,-758 1891.2508,-737.1764 1892,-723.2125 1892,-692 1892,-692 1892,-692 1892,-524 1892,-485.6461 1909.0752,-443.4423 1920.3334,-419.7843"/>
<polygon fill="#191970" stroke="#191970" points="1923.5923,-421.0892 1924.8752,-410.5723 1917.3139,-417.9938 1923.5923,-421.0892"/>
</g>
<!-- Node44 -->
<g id="node44" class="node">
<title>Node44</title>
<g id="a_node44"><a xlink:href="_expected_attributes_8h.html" target="_top" xlink:title="Definition of ExpectedAttributes, the class allowing the specification of attributes to expect...">
<polygon fill="#ffffff" stroke="#000000" points="1719,-453 1719,-472 1823,-472 1823,-453 1719,-453"/>
<text text-anchor="middle" x="1771" y="-460" font-family="Helvetica,sans-Serif" font-size="10.00" fill="#000000">sbml/ExpectedAttributes.h</text>
</a>
</g>
</g>
<!-- Node23&#45;&gt;Node44 -->
<g id="edge119" class="edge">
<title>Node23&#45;&gt;Node44</title>
<path fill="none" stroke="#191970" d="M1690.2467,-794.4756C1710.0341,-776.5856 1749,-735.7959 1749,-692 1749,-692 1749,-692 1749,-580 1749,-544.8839 1758.6108,-504.8574 1765.1279,-481.7521"/>
<polygon fill="#191970" stroke="#191970" points="1768.4929,-482.7149 1767.941,-472.1344 1761.7744,-480.7497 1768.4929,-482.7149"/>
</g>
<!-- Node45 -->
<g id="node45" class="node">
<title>Node45</title>
<g id="a_node45"><a xlink:href="_x_m_l_error_8h.html" target="_top" xlink:title="Represents errors (and messages) encountered during an XML parse. ">
<polygon fill="#ffffff" stroke="#000000" points="1280.5,-330 1280.5,-349 1367.5,-349 1367.5,-330 1280.5,-330"/>
<text text-anchor="middle" x="1324" y="-337" font-family="Helvetica,sans-Serif" font-size="10.00" fill="#000000">sbml/xml/XMLError.h</text>
</a>
</g>
</g>
<!-- Node23&#45;&gt;Node45 -->
<g id="edge126" class="edge">
<title>Node23&#45;&gt;Node45</title>
<path fill="none" stroke="#191970" d="M1663.2039,-794.412C1650.0811,-785.9338 1631.4502,-772.6608 1618,-758 1507.7088,-637.7821 1522.0127,-576.6649 1423,-447 1396.7848,-412.6692 1361.6525,-376.4563 1341.0578,-356.0483"/>
<polygon fill="#191970" stroke="#191970" points="1343.5106,-353.5515 1333.9255,-349.0375 1338.6035,-358.5436 1343.5106,-353.5515"/>
</g>
<!-- Node24&#45;&gt;Node3 -->
<g id="edge42" class="edge">
<title>Node24&#45;&gt;Node3</title>
<path fill="none" stroke="#191970" d="M2369.2026,-262.6633C2366.3853,-235.1011 2354.2808,-156.9239 2306,-123 2276.3169,-102.1435 1753.3475,-84.1312 1579.0235,-78.6833"/>
<polygon fill="#191970" stroke="#191970" points="1579.1313,-75.1851 1569.0274,-78.3728 1578.9139,-82.1817 1579.1313,-75.1851"/>
</g>
<!-- Node24&#45;&gt;Node9 -->
<g id="edge41" class="edge">
<title>Node24&#45;&gt;Node9</title>
<path fill="none" stroke="#191970" d="M2343.9238,-262.9005C2316.5492,-252.8231 2272.8192,-236.7247 2238.6272,-224.1375"/>
<polygon fill="#191970" stroke="#191970" points="2239.3989,-220.692 2228.8054,-220.5218 2236.9806,-227.261 2239.3989,-220.692"/>
</g>
<!-- Node26 -->
<g id="node26" class="node">
<title>Node26</title>
<g id="a_node26"><a xlink:href="_r_d_f_annotation_parser_8h.html" target="_top" xlink:title="RDFAnnotationParser.h">
<polygon fill="#ffffff" stroke="#000000" points="1060,-682.5 1060,-701.5 1156,-701.5 1156,-682.5 1060,-682.5"/>
<text text-anchor="middle" x="1108" y="-689.5" font-family="Helvetica,sans-Serif" font-size="10.00" fill="#000000">RDFAnnotationParser.h</text>
</a>
</g>
</g>
<!-- Node25&#45;&gt;Node26 -->
<g id="edge44" class="edge">
<title>Node25&#45;&gt;Node26</title>
<path fill="none" stroke="#191970" d="M1193.8846,-738.2455C1177.555,-729.4527 1153.329,-716.4079 1134.7661,-706.4125"/>
<polygon fill="#191970" stroke="#191970" points="1136.3719,-703.3021 1125.9078,-701.6427 1133.0532,-709.4654 1136.3719,-703.3021"/>
</g>
<!-- Node26&#45;&gt;Node3 -->
<g id="edge45" class="edge">
<title>Node26&#45;&gt;Node3</title>
<path fill="none" stroke="#191970" d="M1059.8956,-691.6334C881.0531,-689.9958 260.6399,-681.7665 180,-646 142.079,-629.1808 114,-621.4836 114,-580 114,-580 114,-580 114,-524 114,-412.0492 100,-384.4508 100,-272.5 100,-272.5 100,-272.5 100,-205.5 100,-163.3006 110.8745,-144.8115 147,-123 204.2983,-88.405 1215.0018,-79.1316 1466.6273,-77.3546"/>
<polygon fill="#191970" stroke="#191970" points="1466.6734,-80.8545 1476.6488,-77.285 1466.6247,-73.8546 1466.6734,-80.8545"/>
</g>
<!-- Node26&#45;&gt;Node8 -->
<g id="edge46" class="edge">
<title>Node26&#45;&gt;Node8</title>
<path fill="none" stroke="#191970" d="M1059.6738,-690.8583C925.7812,-687.354 552.0776,-675.1689 433,-646 372.688,-631.2262 338.9877,-641.9677 305,-590 264.2476,-527.689 8.3091,-634.8823 547,-324 570.7117,-310.3158 637.4822,-294.5355 687.1808,-284.0871"/>
<polygon fill="#191970" stroke="#191970" points="688.1118,-287.4684 697.1898,-282.0059 686.6867,-280.615 688.1118,-287.4684"/>
</g>
<!-- Node26&#45;&gt;Node13 -->
<g id="edge93" class="edge">
<title>Node26&#45;&gt;Node13</title>
<path fill="none" stroke="#191970" d="M1156.3763,-685.8004C1279.3043,-668.7025 1594,-615.9522 1594,-524 1594,-524 1594,-524 1594,-462.5 1594,-445.6448 1612.6584,-337.2051 1620.5458,-292.1175"/>
<polygon fill="#191970" stroke="#191970" points="1624.0201,-292.5683 1622.3011,-282.1138 1617.1254,-291.3584 1624.0201,-292.5683"/>
</g>
<!-- Node27 -->
<g id="node27" class="node">
<title>Node27</title>
<g id="a_node27"><a xlink:href="_x_m_l_attributes_8h.html" target="_top" xlink:title="XMLAttributes are a list of name/value pairs for XML elements. ">
<polygon fill="#ffffff" stroke="#000000" points="1038,-391.5 1038,-410.5 1140,-410.5 1140,-391.5 1038,-391.5"/>
<text text-anchor="middle" x="1089" y="-398.5" font-family="Helvetica,sans-Serif" font-size="10.00" fill="#000000">sbml/xml/XMLAttributes.h</text>
</a>
</g>
</g>
<!-- Node26&#45;&gt;Node27 -->
<g id="edge47" class="edge">
<title>Node26&#45;&gt;Node27</title>
<path fill="none" stroke="#191970" d="M1107.3678,-682.3179C1104.663,-640.8919 1094.0329,-478.0833 1090.3025,-420.9482"/>
<polygon fill="#191970" stroke="#191970" points="1093.7787,-420.4691 1089.6345,-410.7185 1086.7936,-420.9253 1093.7787,-420.4691"/>
</g>
<!-- Node29 -->
<g id="node29" class="node">
<title>Node29</title>
<g id="a_node29"><a xlink:href="_model_history_8h.html" target="_top" xlink:title="ModelHistory I/O. ">
<polygon fill="#ffffff" stroke="#000000" points="442,-626.5 442,-645.5 564,-645.5 564,-626.5 442,-626.5"/>
<text text-anchor="middle" x="503" y="-633.5" font-family="Helvetica,sans-Serif" font-size="10.00" fill="#000000">sbml/annotation/ModelHistory.h</text>
</a>
</g>
</g>
<!-- Node26&#45;&gt;Node29 -->
<g id="edge58" class="edge">
<title>Node26&#45;&gt;Node29</title>
<path fill="none" stroke="#191970" d="M1059.7673,-687.5355C953.5753,-677.7061 699.1166,-654.1529 574.3807,-642.6071"/>
<polygon fill="#191970" stroke="#191970" points="574.4546,-639.0991 564.1746,-641.6624 573.8094,-646.0693 574.4546,-639.0991"/>
</g>
<!-- Node34 -->
<g id="node34" class="node">
<title>Node34</title>
<polygon fill="#ffffff" stroke="#bfbfbf" points="1110,-453 1110,-472 1148,-472 1148,-453 1110,-453"/>
<text text-anchor="middle" x="1129" y="-460" font-family="Helvetica,sans-Serif" font-size="10.00" fill="#000000">cstdlib</text>
</g>
<!-- Node26&#45;&gt;Node34 -->
<g id="edge95" class="edge">
<title>Node26&#45;&gt;Node34</title>
<path fill="none" stroke="#191970" d="M1108.8756,-682.4309C1112.031,-647.9475 1122.8606,-529.5953 1127.1902,-482.2785"/>
<polygon fill="#191970" stroke="#191970" points="1130.6948,-482.3873 1128.1207,-472.11 1123.7239,-481.7494 1130.6948,-482.3873"/>
</g>
<!-- Node37 -->
<g id="node37" class="node">
<title>Node37</title>
<polygon fill="#ffffff" stroke="#bfbfbf" points="1318,-453 1318,-472 1352,-472 1352,-453 1318,-453"/>
<text text-anchor="middle" x="1335" y="-460" font-family="Helvetica,sans-Serif" font-size="10.00" fill="#000000">limits</text>
</g>
<!-- Node26&#45;&gt;Node37 -->
<g id="edge91" class="edge">
<title>Node26&#45;&gt;Node37</title>
<path fill="none" stroke="#191970" d="M1119.583,-682.1569C1147.7132,-658.0467 1221.4052,-593.644 1277,-534 1293.2454,-516.5714 1310.2368,-495.1976 1321.5975,-480.3821"/>
<polygon fill="#191970" stroke="#191970" points="1324.6271,-482.1797 1327.8865,-472.0987 1319.0519,-477.9468 1324.6271,-482.1797"/>
</g>
<!-- Node38 -->
<g id="node38" class="node">
<title>Node38</title>
<polygon fill="#ffffff" stroke="#bfbfbf" points="1370.5,-453 1370.5,-472 1413.5,-472 1413.5,-453 1370.5,-453"/>
<text text-anchor="middle" x="1392" y="-460" font-family="Helvetica,sans-Serif" font-size="10.00" fill="#000000">iomanip</text>
</g>
<!-- Node26&#45;&gt;Node38 -->
<g id="edge92" class="edge">
<title>Node26&#45;&gt;Node38</title>
<path fill="none" stroke="#191970" d="M1126.6016,-682.3659C1142.8167,-673.6596 1166.695,-660.0835 1186,-646 1261.2249,-591.1213 1341.0009,-513.765 1375.0308,-479.7218"/>
<polygon fill="#191970" stroke="#191970" points="1377.7386,-481.9625 1382.3072,-472.4032 1372.7745,-477.027 1377.7386,-481.9625"/>
</g>
<!-- Node26&#45;&gt;Node39 -->
<g id="edge94" class="edge">
<title>Node26&#45;&gt;Node39</title>
<path fill="none" stroke="#191970" d="M1059.8849,-691.1906C876.8708,-687.9037 232.7341,-674.3554 200,-646 152.4104,-604.7762 156.2648,-520.6996 160.9306,-482.3569"/>
<polygon fill="#191970" stroke="#191970" points="164.4565,-482.4067 162.3487,-472.0237 157.5215,-481.455 164.4565,-482.4067"/>
</g>
<!-- Node27&#45;&gt;Node7 -->
<g id="edge48" class="edge">
<title>Node27&#45;&gt;Node7</title>
<path fill="none" stroke="#191970" d="M1037.9231,-394.2496C992.7297,-387.1052 931.729,-374.1858 917,-355 898.6157,-331.0528 931.1545,-303.7954 956.7346,-287.3836"/>
<polygon fill="#191970" stroke="#191970" points="958.7142,-290.275 965.3975,-282.054 955.0462,-284.313 958.7142,-290.275"/>
</g>
<!-- Node27&#45;&gt;Node8 -->
<g id="edge49" class="edge">
<title>Node27&#45;&gt;Node8</title>
<path fill="none" stroke="#191970" d="M1038.6318,-391.4713C1001.5645,-383.6942 950.3034,-371.3267 907,-355 856.6638,-336.0217 801.6124,-305.5077 770.6884,-287.39"/>
<polygon fill="#191970" stroke="#191970" points="772.287,-284.2692 761.8978,-282.1917 768.7239,-290.2945 772.287,-284.2692"/>
</g>
<!-- Node27&#45;&gt;Node12 -->
<g id="edge50" class="edge">
<title>Node27&#45;&gt;Node12</title>
<path fill="none" stroke="#191970" d="M1037.9411,-393.9337C986.3224,-386.2815 904.4715,-372.7503 835,-355 764.7278,-337.0451 685.5242,-309.3483 635.939,-291.0749"/>
<polygon fill="#191970" stroke="#191970" points="637.0214,-287.7435 626.4283,-287.5516 634.5896,-294.3076 637.0214,-287.7435"/>
</g>
<!-- Node27&#45;&gt;Node13 -->
<g id="edge51" class="edge">
<title>Node27&#45;&gt;Node13</title>
<path fill="none" stroke="#191970" d="M1140.0265,-393.4749C1219.8058,-381.6202 1366.1477,-359.4801 1377,-355 1398.7771,-346.01 1398.6439,-333.9488 1420,-324 1479.4475,-296.3061 1555.8497,-282.1264 1596.1854,-276.1267"/>
<polygon fill="#191970" stroke="#191970" points="1596.9245,-279.5568 1606.3295,-274.6786 1595.9352,-272.627 1596.9245,-279.5568"/>
</g>
<!-- Node27&#45;&gt;Node14 -->
<g id="edge52" class="edge">
<title>Node27&#45;&gt;Node14</title>
<path fill="none" stroke="#191970" d="M1109.2158,-391.4283C1124.1435,-383.4797 1144.039,-370.9143 1157,-355 1172.2306,-336.299 1181.511,-309.8314 1186.4455,-291.9604"/>
<polygon fill="#191970" stroke="#191970" points="1189.8828,-292.6459 1188.9706,-282.0904 1183.1012,-290.9109 1189.8828,-292.6459"/>
</g>
<!-- Node27&#45;&gt;Node20 -->
<g id="edge53" class="edge">
<title>Node27&#45;&gt;Node20</title>
<path fill="none" stroke="#191970" d="M1140.0877,-399.0024C1289.7866,-392.9867 1725.7298,-374.2672 1867,-355 1879.2484,-353.3295 1892.5144,-350.7101 1904.2824,-348.0967"/>
<polygon fill="#191970" stroke="#191970" points="1905.2118,-351.4745 1914.1751,-345.8257 1903.6455,-344.6519 1905.2118,-351.4745"/>
</g>
<!-- Node28 -->
<g id="node28" class="node">
<title>Node28</title>
<g id="a_node28"><a xlink:href="_x_m_l_triple_8h.html" target="_top" xlink:title="Stores an XML namespace triple. ">
<polygon fill="#ffffff" stroke="#000000" points="1058.5,-330 1058.5,-349 1147.5,-349 1147.5,-330 1058.5,-330"/>
<text text-anchor="middle" x="1103" y="-337" font-family="Helvetica,sans-Serif" font-size="10.00" fill="#000000">sbml/xml/XMLTriple.h</text>
</a>
</g>
</g>
<!-- Node27&#45;&gt;Node28 -->
<g id="edge54" class="edge">
<title>Node27&#45;&gt;Node28</title>
<path fill="none" stroke="#191970" d="M1091.1875,-391.3906C1093.1486,-382.776 1096.0863,-369.8708 1098.5415,-359.0858"/>
<polygon fill="#191970" stroke="#191970" points="1101.9746,-359.7723 1100.7817,-349.2449 1095.1493,-358.2185 1101.9746,-359.7723"/>
</g>
<!-- Node28&#45;&gt;Node7 -->
<g id="edge55" class="edge">
<title>Node28&#45;&gt;Node7</title>
<path fill="none" stroke="#191970" d="M1085.8069,-329.9005C1065.7573,-318.7062 1032.4012,-300.0823 1009.1398,-287.0947"/>
<polygon fill="#191970" stroke="#191970" points="1010.5987,-283.9007 1000.1612,-282.0817 1007.1862,-290.0126 1010.5987,-283.9007"/>
</g>
<!-- Node28&#45;&gt;Node8 -->
<g id="edge56" class="edge">
<title>Node28&#45;&gt;Node8</title>
<path fill="none" stroke="#191970" d="M1072.0279,-329.9712C1064.5314,-327.8423 1056.5129,-325.7111 1049,-324 965.3922,-304.9575 867.3515,-289.5283 805.9453,-280.68"/>
<polygon fill="#191970" stroke="#191970" points="806.0603,-277.1609 795.6657,-279.211 805.07,-284.0905 806.0603,-277.1609"/>
</g>
<!-- Node28&#45;&gt;Node13 -->
<g id="edge57" class="edge">
<title>Node28&#45;&gt;Node13</title>
<path fill="none" stroke="#191970" d="M1147.8711,-333.7296C1252.7308,-320.2448 1511.3813,-286.9826 1596.4142,-276.0475"/>
<polygon fill="#191970" stroke="#191970" points="1596.8745,-279.5172 1606.3464,-274.7702 1595.9816,-272.5744 1596.8745,-279.5172"/>
</g>
<!-- Node29&#45;&gt;Node3 -->
<g id="edge59" class="edge">
<title>Node29&#45;&gt;Node3</title>
<path fill="none" stroke="#191970" d="M441.5353,-627.4289C391.6199,-619.4469 326.1606,-606.3358 305,-590 241.896,-541.2844 138,-352.2203 138,-272.5 138,-272.5 138,-272.5 138,-205.5 138,-163.0788 149.5959,-144.7783 186,-123 241.6926,-89.6826 1219.5569,-79.4767 1466.648,-77.4242"/>
<polygon fill="#191970" stroke="#191970" points="1466.8671,-80.9226 1476.8381,-77.3407 1466.8097,-73.9228 1466.8671,-80.9226"/>
</g>
<!-- Node29&#45;&gt;Node8 -->
<g id="edge60" class="edge">
<title>Node29&#45;&gt;Node8</title>
<path fill="none" stroke="#191970" d="M471.11,-626.4777C453.5823,-619.43 433.3495,-607.8893 423,-590 399.036,-548.5775 393.5199,-578.9 478,-447 518.8581,-383.2075 531.4448,-363.6421 596,-324 625.7229,-305.7478 662.7598,-292.9487 692.594,-284.6754"/>
<polygon fill="#191970" stroke="#191970" points="693.6625,-288.0126 702.4146,-282.0418 691.8493,-281.2515 693.6625,-288.0126"/>
</g>
<!-- Node29&#45;&gt;Node12 -->
<g id="edge61" class="edge">
<title>Node29&#45;&gt;Node12</title>
<path fill="none" stroke="#191970" d="M441.9627,-629.8293C379.0217,-619.6975 290,-593.1454 290,-524 290,-524 290,-524 290,-462.5 290,-389.5701 318.7791,-366.5635 378,-324 400.2256,-308.0259 465.4464,-293.4706 517.1813,-283.9407"/>
<polygon fill="#191970" stroke="#191970" points="518.1153,-287.3286 527.3317,-282.1028 516.8681,-280.4406 518.1153,-287.3286"/>
</g>
<!-- Node29&#45;&gt;Node13 -->
<g id="edge90" class="edge">
<title>Node29&#45;&gt;Node13</title>
<path fill="none" stroke="#191970" d="M564.1736,-631.2818C734.8189,-617.7213 1213.4655,-576.8565 1365,-534 1487.2941,-499.4132 1521.366,-463.222 1588,-355 1600.6203,-334.503 1611.0866,-308.8045 1617.4221,-291.5841"/>
<polygon fill="#191970" stroke="#191970" points="1620.7491,-292.6746 1620.8154,-282.08 1614.1567,-290.3209 1620.7491,-292.6746"/>
</g>
<!-- Node29&#45;&gt;Node30 -->
<g id="edge62" class="edge">
<title>Node29&#45;&gt;Node30</title>
<path fill="none" stroke="#191970" d="M512.3618,-626.3788C520.1234,-617.6808 530.575,-604.1096 535,-590 539.9095,-574.3455 534.5137,-556.2871 528.5355,-543.0212"/>
<polygon fill="#191970" stroke="#191970" points="531.6002,-541.3235 524.0116,-533.9301 525.3333,-544.4422 531.6002,-541.3235"/>
</g>
<!-- Node29&#45;&gt;Node32 -->
<g id="edge65" class="edge">
<title>Node29&#45;&gt;Node32</title>
<path fill="none" stroke="#191970" d="M564.0129,-631.4511C628.4738,-625.5052 724.6551,-613.0257 753,-590 766.9362,-578.6791 773.7476,-559.0024 777.0342,-544.071"/>
<polygon fill="#191970" stroke="#191970" points="780.5575,-544.2624 778.92,-533.7949 773.6725,-542.9989 780.5575,-544.2624"/>
</g>
<!-- Node35 -->
<g id="node35" class="node">
<title>Node35</title>
<g id="a_node35"><a xlink:href="_date_8h.html" target="_top" xlink:title="Date I/O. ">
<polygon fill="#ffffff" stroke="#000000" points="432,-570.5 432,-589.5 526,-589.5 526,-570.5 432,-570.5"/>
<text text-anchor="middle" x="479" y="-577.5" font-family="Helvetica,sans-Serif" font-size="10.00" fill="#000000">sbml/annotation/Date.h</text>
</a>
</g>
</g>
<!-- Node29&#45;&gt;Node35 -->
<g id="edge76" class="edge">
<title>Node29&#45;&gt;Node35</title>
<path fill="none" stroke="#191970" d="M498.8195,-626.2455C495.619,-618.7776 491.104,-608.2427 487.1916,-599.1137"/>
<polygon fill="#191970" stroke="#191970" points="490.2888,-597.4554 483.1326,-589.6427 483.8548,-600.2129 490.2888,-597.4554"/>
</g>
<!-- Node36 -->
<g id="node36" class="node">
<title>Node36</title>
<g id="a_node36"><a xlink:href="_model_creator_8h.html" target="_top" xlink:title="ModelCreator I/O. ">
<polygon fill="#ffffff" stroke="#000000" points="620.5,-570.5 620.5,-589.5 743.5,-589.5 743.5,-570.5 620.5,-570.5"/>
<text text-anchor="middle" x="682" y="-577.5" font-family="Helvetica,sans-Serif" font-size="10.00" fill="#000000">sbml/annotation/ModelCreator.h</text>
</a>
</g>
</g>
<!-- Node29&#45;&gt;Node36 -->
<g id="edge83" class="edge">
<title>Node29&#45;&gt;Node36</title>
<path fill="none" stroke="#191970" d="M533.7712,-626.3733C563.665,-617.021 609.2093,-602.7725 641.9217,-592.5385"/>
<polygon fill="#191970" stroke="#191970" points="643.1315,-595.8273 651.6303,-589.5011 641.0414,-589.1466 643.1315,-595.8273"/>
</g>
<!-- Node30&#45;&gt;Node3 -->
<g id="edge63" class="edge">
<title>Node30&#45;&gt;Node3</title>
<path fill="none" stroke="#191970" d="M500.7846,-514.4581C436.4753,-478.2356 214,-347.5052 214,-272.5 214,-272.5 214,-272.5 214,-205.5 214,-159.6333 235.3504,-144.2453 276,-123 329.3564,-95.1135 1230.506,-80.9699 1466.6979,-77.7311"/>
<polygon fill="#191970" stroke="#191970" points="1466.8344,-81.2296 1476.7859,-77.5938 1466.7391,-74.2303 1466.8344,-81.2296"/>
</g>
<!-- Node31 -->
<g id="node31" class="node">
<title>Node31</title>
<polygon fill="#ffffff" stroke="#bfbfbf" points="508.5,-453 508.5,-472 549.5,-472 549.5,-453 508.5,-453"/>
<text text-anchor="middle" x="529" y="-460" font-family="Helvetica,sans-Serif" font-size="10.00" fill="#000000">string.h</text>
</g>
<!-- Node30&#45;&gt;Node31 -->
<g id="edge64" class="edge">
<title>Node30&#45;&gt;Node31</title>
<path fill="none" stroke="#191970" d="M519.7188,-514.3906C521.2435,-505.8657 523.5198,-493.1392 525.4364,-482.4235"/>
<polygon fill="#191970" stroke="#191970" points="528.9416,-482.7049 527.257,-472.2449 522.0509,-481.4724 528.9416,-482.7049"/>
</g>
<!-- Node32&#45;&gt;Node7 -->
<g id="edge66" class="edge">
<title>Node32&#45;&gt;Node7</title>
<path fill="none" stroke="#191970" d="M783.0758,-514.4656C793.4854,-483.4626 830.1219,-384.0511 890,-324 906.3878,-307.5649 929.1165,-294.8494 948.0021,-286.165"/>
<polygon fill="#191970" stroke="#191970" points="949.4589,-289.3478 957.1961,-282.11 946.6341,-282.9431 949.4589,-289.3478"/>
</g>
<!-- Node32&#45;&gt;Node8 -->
<g id="edge73" class="edge">
<title>Node32&#45;&gt;Node8</title>
<path fill="none" stroke="#191970" d="M775.43,-514.391C763.6636,-489.0524 732.5149,-418.0303 722,-355 719.7329,-341.41 719.0195,-337.4515 722,-324 724.534,-312.5636 729.8812,-300.6558 734.8866,-291.1747"/>
<polygon fill="#191970" stroke="#191970" points="738.0259,-292.7315 739.8466,-282.2943 731.9146,-289.318 738.0259,-292.7315"/>
</g>
<!-- Node32&#45;&gt;Node14 -->
<g id="edge74" class="edge">
<title>Node32&#45;&gt;Node14</title>
<path fill="none" stroke="#191970" d="M824.1272,-521.7785C899.429,-515.7669 1053.8153,-493.4945 1149,-411 1183.852,-380.7945 1190.318,-322.703 1191.1865,-292.2419"/>
<polygon fill="#191970" stroke="#191970" points="1194.6883,-292.0719 1191.2928,-282.036 1187.6887,-291.999 1194.6883,-292.0719"/>
</g>
<!-- Node33 -->
<g id="node33" class="node">
<title>Node33</title>
<g id="a_node33"><a xlink:href="_x_m_l_token_8h.html" target="_top" xlink:title="A unit of XML syntax, either an XML element or text. ">
<polygon fill="#ffffff" stroke="#000000" points="846.5,-453 846.5,-472 937.5,-472 937.5,-453 846.5,-453"/>
<text text-anchor="middle" x="892" y="-460" font-family="Helvetica,sans-Serif" font-size="10.00" fill="#000000">sbml/xml/XMLToken.h</text>
</a>
</g>
</g>
<!-- Node32&#45;&gt;Node33 -->
<g id="edge67" class="edge">
<title>Node32&#45;&gt;Node33</title>
<path fill="none" stroke="#191970" d="M797.5,-514.3906C815.7465,-504.3713 844.5624,-488.5483 865.5806,-477.0071"/>
<polygon fill="#191970" stroke="#191970" points="867.542,-479.923 874.6229,-472.0419 864.1728,-473.7872 867.542,-479.923"/>
</g>
<!-- Node32&#45;&gt;Node34 -->
<g id="edge75" class="edge">
<title>Node32&#45;&gt;Node34</title>
<path fill="none" stroke="#191970" d="M824.4199,-517.3643C879.4042,-508.9862 975.8434,-493.7543 1058,-478 1071.7462,-475.364 1086.9118,-472.1019 1099.6852,-469.2513"/>
<polygon fill="#191970" stroke="#191970" points="1100.784,-472.5914 1109.7685,-466.9763 1099.2434,-465.763 1100.784,-472.5914"/>
</g>
<!-- Node33&#45;&gt;Node7 -->
<g id="edge68" class="edge">
<title>Node33&#45;&gt;Node7</title>
<path fill="none" stroke="#191970" d="M890.4572,-452.9113C887.1427,-429.1246 881.567,-366.2788 907,-324 916.8899,-307.5595 934.2828,-295.1934 949.9359,-286.705"/>
<polygon fill="#191970" stroke="#191970" points="951.5557,-289.8079 958.8814,-282.1538 948.3815,-283.569 951.5557,-289.8079"/>
</g>
<!-- Node33&#45;&gt;Node8 -->
<g id="edge71" class="edge">
<title>Node33&#45;&gt;Node8</title>
<path fill="none" stroke="#191970" d="M863.3292,-452.9186C825.3075,-438.4755 759.7771,-407.1271 732,-355 721.3203,-334.9582 728.9033,-308.6312 736.4277,-291.1677"/>
<polygon fill="#191970" stroke="#191970" points="739.6384,-292.5644 740.7127,-282.0241 733.2999,-289.5939 739.6384,-292.5644"/>
</g>
<!-- Node33&#45;&gt;Node13 -->
<g id="edge72" class="edge">
<title>Node33&#45;&gt;Node13</title>
<path fill="none" stroke="#191970" d="M937.5292,-453.5482C988.925,-443.403 1075.0246,-426.2871 1149,-411 1266.0364,-386.8143 1301.9899,-401.693 1412,-355 1434.6941,-345.3677 1435.7677,-334.6549 1458,-324 1504.4063,-301.7596 1562.6533,-286.2958 1596.3696,-278.4501"/>
<polygon fill="#191970" stroke="#191970" points="1597.4312,-281.7982 1606.4084,-276.1715 1595.8817,-274.9718 1597.4312,-281.7982"/>
</g>
<!-- Node33&#45;&gt;Node27 -->
<g id="edge69" class="edge">
<title>Node33&#45;&gt;Node27</title>
<path fill="none" stroke="#191970" d="M922.7813,-452.8906C956.7549,-442.2846 1011.5604,-425.1753 1048.8772,-413.5257"/>
<polygon fill="#191970" stroke="#191970" points="1049.9323,-416.8629 1058.4349,-410.5419 1047.8462,-410.181 1049.9323,-416.8629"/>
</g>
<!-- Node33&#45;&gt;Node33 -->
<g id="edge70" class="edge">
<title>Node33&#45;&gt;Node33</title>
<path fill="none" stroke="#191970" d="M915.4465,-472.0334C935.0335,-476.1075 955.5,-472.9297 955.5,-462.5 955.5,-453.8629 941.4643,-450.1991 925.5156,-451.5086"/>
<polygon fill="#191970" stroke="#191970" points="924.8417,-448.0696 915.4465,-452.9666 925.8449,-454.9973 924.8417,-448.0696"/>
</g>
<!-- Node35&#45;&gt;Node3 -->
<g id="edge77" class="edge">
<title>Node35&#45;&gt;Node3</title>
<path fill="none" stroke="#191970" d="M451.1289,-570.3927C430.9291,-562.5765 403.6506,-550.1946 383,-534 324.6803,-488.2647 176,-346.6141 176,-272.5 176,-272.5 176,-272.5 176,-205.5 176,-162.1576 190.4286,-144.6093 228,-123 282.3443,-91.7437 1224.1237,-80.0411 1466.4921,-77.5396"/>
<polygon fill="#191970" stroke="#191970" points="1466.8687,-81.0361 1476.8324,-77.4341 1466.7972,-74.0364 1466.8687,-81.0361"/>
</g>
<!-- Node35&#45;&gt;Node8 -->
<g id="edge78" class="edge">
<title>Node35&#45;&gt;Node8</title>
<path fill="none" stroke="#191970" d="M478.4657,-570.4892C477.9719,-561.1899 477.2744,-546.627 477,-534 476.1312,-494.0144 476.043,-479.026 500,-447 558.7844,-368.4163 663.3485,-311.3668 715.1527,-286.4405"/>
<polygon fill="#191970" stroke="#191970" points="716.9432,-289.4654 724.4851,-282.0242 713.949,-283.1381 716.9432,-289.4654"/>
</g>
<!-- Node35&#45;&gt;Node12 -->
<g id="edge79" class="edge">
<title>Node35&#45;&gt;Node12</title>
<path fill="none" stroke="#191970" d="M458.5366,-570.3926C425.9731,-553.5209 366,-515.2831 366,-462.5 366,-462.5 366,-462.5 366,-401 366,-329.7616 452.8796,-297.3392 517.693,-283.0634"/>
<polygon fill="#191970" stroke="#191970" points="518.4189,-286.4873 527.4853,-281.0055 516.9793,-279.637 518.4189,-286.4873"/>
</g>
<!-- Node35&#45;&gt;Node13 -->
<g id="edge82" class="edge">
<title>Node35&#45;&gt;Node13</title>
<path fill="none" stroke="#191970" d="M526.071,-576.2192C551.5061,-574.2372 583.4626,-571.8451 612,-570 759.6858,-560.4514 1135.309,-576.7308 1277,-534 1293.785,-528.938 1295.0018,-521.1705 1311,-514 1358.7127,-492.6149 1379.2416,-506.6187 1423,-478 1442.1052,-465.5049 1542.4329,-339.7056 1559,-324 1572.5831,-311.1232 1589.1327,-298.0439 1602.1331,-288.2884"/>
<polygon fill="#191970" stroke="#191970" points="1604.5286,-290.8699 1610.4864,-282.1089 1600.3655,-285.2424 1604.5286,-290.8699"/>
</g>
<!-- Node35&#45;&gt;Node30 -->
<g id="edge80" class="edge">
<title>Node35&#45;&gt;Node30</title>
<path fill="none" stroke="#191970" d="M485.7933,-570.2455C491.2178,-562.4564 498.9661,-551.3308 505.5033,-541.9439"/>
<polygon fill="#191970" stroke="#191970" points="508.4417,-543.849 511.2846,-533.6427 502.6975,-539.8485 508.4417,-543.849"/>
</g>
<!-- Node35&#45;&gt;Node32 -->
<g id="edge81" class="edge">
<title>Node35&#45;&gt;Node32</title>
<path fill="none" stroke="#191970" d="M526.0313,-571.25C580.156,-561.1803 668.8852,-544.6725 725.8461,-534.0752"/>
<polygon fill="#191970" stroke="#191970" points="726.5571,-537.503 735.7481,-532.2329 725.2766,-530.6211 726.5571,-537.503"/>
</g>
<!-- Node36&#45;&gt;Node3 -->
<g id="edge84" class="edge">
<title>Node36&#45;&gt;Node3</title>
<path fill="none" stroke="#191970" d="M674.3767,-570.2061C656.0824,-547.0738 607.5931,-487.9253 559,-447 449.9997,-355.1995 290,-415.0075 290,-272.5 290,-272.5 290,-272.5 290,-205.5 290,-145.5242 1225.067,-92.5572 1466.608,-79.8756"/>
<polygon fill="#191970" stroke="#191970" points="1467.1116,-83.3541 1476.9153,-79.3368 1466.7462,-76.3636 1467.1116,-83.3541"/>
</g>
<!-- Node36&#45;&gt;Node8 -->
<g id="edge85" class="edge">
<title>Node36&#45;&gt;Node8</title>
<path fill="none" stroke="#191970" d="M681.9334,-570.3951C681.9714,-535.9877 684.496,-416.0494 716,-324 720.0207,-312.2522 726.8638,-300.202 732.9998,-290.7143"/>
<polygon fill="#191970" stroke="#191970" points="736.0645,-292.4305 738.7695,-282.1868 730.2668,-288.5078 736.0645,-292.4305"/>
</g>
<!-- Node36&#45;&gt;Node12 -->
<g id="edge86" class="edge">
<title>Node36&#45;&gt;Node12</title>
<path fill="none" stroke="#191970" d="M679.0527,-570.4599C666.1476,-528.6884 614.391,-361.1605 594.6776,-297.351"/>
<polygon fill="#191970" stroke="#191970" points="597.9913,-296.2194 591.6954,-287.6981 591.3031,-298.2857 597.9913,-296.2194"/>
</g>
<!-- Node36&#45;&gt;Node13 -->
<g id="edge89" class="edge">
<title>Node36&#45;&gt;Node13</title>
<path fill="none" stroke="#191970" d="M743.5352,-577.8115C879.9436,-572.5848 1204.098,-557.993 1311,-534 1378.4067,-518.8713 1400.0572,-518.5333 1456,-478 1494.3152,-450.2388 1579.2616,-334.7847 1611.3738,-290.1881"/>
<polygon fill="#191970" stroke="#191970" points="1614.2401,-292.197 1617.2259,-282.0316 1608.5526,-288.1163 1614.2401,-292.197"/>
</g>
<!-- Node36&#45;&gt;Node30 -->
<g id="edge87" class="edge">
<title>Node36&#45;&gt;Node30</title>
<path fill="none" stroke="#191970" d="M653.8074,-570.3733C626.6547,-561.1016 585.4093,-547.0178 555.4975,-536.804"/>
<polygon fill="#191970" stroke="#191970" points="556.4192,-533.4204 545.8247,-533.5011 554.1572,-540.0449 556.4192,-533.4204"/>
</g>
<!-- Node36&#45;&gt;Node32 -->
<g id="edge88" class="edge">
<title>Node36&#45;&gt;Node32</title>
<path fill="none" stroke="#191970" d="M699.0703,-570.2455C714.247,-561.5731 736.6621,-548.7645 754.0563,-538.825"/>
<polygon fill="#191970" stroke="#191970" points="756.1794,-541.643 763.1253,-533.6427 752.7064,-535.5653 756.1794,-541.643"/>
</g>
<!-- Node40&#45;&gt;Node3 -->
<g id="edge97" class="edge">
<title>Node40&#45;&gt;Node3</title>
<path fill="none" stroke="#191970" d="M1219.99,-514.4118C1230.0894,-494.0868 1252,-444.9298 1252,-401 1252,-401 1252,-401 1252,-205.5 1252,-156.7265 1397.126,-110.5228 1474.9737,-89.247"/>
<polygon fill="#191970" stroke="#191970" points="1476.2896,-92.5172 1485.0333,-86.534 1474.4668,-85.7587 1476.2896,-92.5172"/>
</g>
<!-- Node40&#45;&gt;Node8 -->
<g id="edge98" class="edge">
<title>Node40&#45;&gt;Node8</title>
<path fill="none" stroke="#191970" d="M1210.395,-514.3464C1202.0783,-497.9605 1182.9738,-464.7579 1157,-447 1108.2157,-413.6468 1085.8337,-427.1948 1029,-411 942.693,-386.4067 913.1346,-399.1442 835,-355 804.7761,-337.9243 776.5899,-308.654 760.3384,-289.9599"/>
<polygon fill="#191970" stroke="#191970" points="762.8873,-287.5543 753.7468,-282.1968 757.5513,-292.085 762.8873,-287.5543"/>
</g>
<!-- Node40&#45;&gt;Node12 -->
<g id="edge99" class="edge">
<title>Node40&#45;&gt;Node12</title>
<path fill="none" stroke="#191970" d="M1161.754,-521.1629C1072.0683,-515.7794 895.0731,-502.3818 838,-478 737.5631,-435.0931 645.256,-339.2644 606.3984,-295.3172"/>
<polygon fill="#191970" stroke="#191970" points="608.9914,-292.9653 599.775,-287.7395 603.7209,-297.5721 608.9914,-292.9653"/>
</g>
<!-- Node40&#45;&gt;Node13 -->
<g id="edge103" class="edge">
<title>Node40&#45;&gt;Node13</title>
<path fill="none" stroke="#191970" d="M1225.9832,-514.3647C1243.2255,-499.3866 1277.8936,-469.8638 1309,-447 1368.9924,-402.9044 1386.8125,-395.9416 1449,-355 1469.9006,-341.2399 1473.8368,-335.6174 1496,-324 1529.3382,-306.5249 1569.9773,-291.0987 1596.3928,-281.7905"/>
<polygon fill="#191970" stroke="#191970" points="1597.8112,-285.003 1606.11,-278.4166 1595.5152,-278.3903 1597.8112,-285.003"/>
</g>
<!-- Node40&#45;&gt;Node27 -->
<g id="edge100" class="edge">
<title>Node40&#45;&gt;Node27</title>
<path fill="none" stroke="#191970" d="M1214.3193,-514.2517C1212.7172,-498.3138 1207.4078,-466.5036 1190,-447 1176.2337,-431.5764 1156.2646,-421.0009 1137.7105,-413.9191"/>
<polygon fill="#191970" stroke="#191970" points="1138.7719,-410.5819 1128.1772,-410.5271 1136.4253,-417.1769 1138.7719,-410.5819"/>
</g>
<!-- Node40&#45;&gt;Node34 -->
<g id="edge105" class="edge">
<title>Node40&#45;&gt;Node34</title>
<path fill="none" stroke="#191970" d="M1201.5625,-514.3906C1187.9305,-504.6421 1166.6154,-489.3994 1150.6078,-477.9521"/>
<polygon fill="#191970" stroke="#191970" points="1152.5132,-475.0118 1142.3431,-472.0419 1148.4414,-480.7057 1152.5132,-475.0118"/>
</g>
<!-- Node40&#45;&gt;Node37 -->
<g id="edge101" class="edge">
<title>Node40&#45;&gt;Node37</title>
<path fill="none" stroke="#191970" d="M1233.75,-514.3906C1253.9374,-504.0446 1286.1997,-487.5101 1308.8693,-475.892"/>
<polygon fill="#191970" stroke="#191970" points="1310.6314,-478.9219 1317.9344,-471.2461 1307.4387,-472.6923 1310.6314,-478.9219"/>
</g>
<!-- Node40&#45;&gt;Node38 -->
<g id="edge102" class="edge">
<title>Node40&#45;&gt;Node38</title>
<path fill="none" stroke="#191970" d="M1250.6577,-514.4768C1280.5643,-506.0853 1324.1695,-492.9003 1361,-478 1362.3596,-477.4499 1363.7414,-476.8641 1365.1288,-476.2543"/>
<polygon fill="#191970" stroke="#191970" points="1366.621,-479.4203 1374.1903,-472.0071 1363.6501,-473.082 1366.621,-479.4203"/>
</g>
<!-- Node40&#45;&gt;Node39 -->
<g id="edge104" class="edge">
<title>Node40&#45;&gt;Node39</title>
<path fill="none" stroke="#191970" d="M1161.7987,-520.8869C973.9233,-509.8932 344.8947,-473.0852 195.8585,-464.3642"/>
<polygon fill="#191970" stroke="#191970" points="195.7732,-460.8533 185.5858,-463.7631 195.3642,-467.8414 195.7732,-460.8533"/>
</g>
<!-- Node41&#45;&gt;Node3 -->
<g id="edge109" class="edge">
<title>Node41&#45;&gt;Node3</title>
<path fill="none" stroke="#191970" d="M1801.3716,-329.8462C1758.2678,-290.6948 1596.1827,-143.4722 1541.2992,-93.6213"/>
<polygon fill="#191970" stroke="#191970" points="1543.4806,-90.8744 1533.725,-86.7416 1538.7741,-96.056 1543.4806,-90.8744"/>
</g>
<!-- Node41&#45;&gt;Node13 -->
<g id="edge112" class="edge">
<title>Node41&#45;&gt;Node13</title>
<path fill="none" stroke="#191970" d="M1785.0642,-329.9005C1749.4868,-317.2214 1687.1655,-295.0111 1651.3714,-282.2547"/>
<polygon fill="#191970" stroke="#191970" points="1652.1928,-278.8319 1641.5981,-278.7717 1649.8428,-285.4256 1652.1928,-278.8319"/>
</g>
<!-- Node41&#45;&gt;Node18 -->
<g id="edge111" class="edge">
<title>Node41&#45;&gt;Node18</title>
<path fill="none" stroke="#191970" d="M1829.0498,-329.9005C1848.9323,-318.7062 1882.0105,-300.0823 1905.078,-287.0947"/>
<polygon fill="#191970" stroke="#191970" points="1906.9852,-290.0376 1913.9818,-282.0817 1903.5509,-283.938 1906.9852,-290.0376"/>
</g>
<!-- Node41&#45;&gt;Node23 -->
<g id="edge110" class="edge">
<title>Node41&#45;&gt;Node23</title>
<path fill="none" stroke="#191970" d="M1792.8713,-349.0732C1757.8328,-365.7844 1688,-404.1585 1688,-462.5 1688,-692 1688,-692 1688,-692 1688,-724.4365 1688,-762.1572 1685.5098,-784.5023"/>
<polygon fill="#191970" stroke="#191970" points="1682.0456,-784.0028 1684.0224,-794.4116 1688.9681,-785.042 1682.0456,-784.0028"/>
</g>
<!-- Node42&#45;&gt;Node3 -->
<g id="edge114" class="edge">
<title>Node42&#45;&gt;Node3</title>
<path fill="none" stroke="#191970" d="M2083.5364,-452.9474C2173.3485,-436.963 2338.4172,-401.8781 2373,-355 2381.1793,-343.9128 2379.8318,-335.9647 2373,-324 2357.3903,-296.6623 2330.6702,-313.3463 2312,-288 2267.3095,-227.3289 2330.6351,-171.5429 2273,-123 2246.5513,-100.7237 1749.2859,-83.7887 1579.3635,-78.6315"/>
<polygon fill="#191970" stroke="#191970" points="1579.2291,-75.126 1569.1282,-78.3231 1579.0182,-82.1228 1579.2291,-75.126"/>
</g>
<!-- Node42&#45;&gt;Node5 -->
<g id="edge115" class="edge">
<title>Node42&#45;&gt;Node5</title>
<path fill="none" stroke="#191970" d="M2036.875,-452.8906C2048.6297,-443.3786 2066.8486,-428.6357 2080.8672,-417.2917"/>
<polygon fill="#191970" stroke="#191970" points="2083.3856,-419.7562 2088.9576,-410.7449 2078.9822,-414.3146 2083.3856,-419.7562"/>
</g>
<!-- Node42&#45;&gt;Node13 -->
<g id="edge116" class="edge">
<title>Node42&#45;&gt;Node13</title>
<path fill="none" stroke="#191970" d="M2024.5611,-452.8901C2022.8364,-427.3374 2014.3715,-357.3919 1973,-324 1923.7012,-284.2098 1726.1617,-275.0976 1652.1708,-273.0657"/>
<polygon fill="#191970" stroke="#191970" points="1651.874,-269.5573 1641.7894,-272.8056 1651.6986,-276.5551 1651.874,-269.5573"/>
</g>
<!-- Node42&#45;&gt;Node20 -->
<g id="edge117" class="edge">
<title>Node42&#45;&gt;Node20</title>
<path fill="none" stroke="#191970" d="M2018.2517,-452.8484C2003.8709,-432.2804 1970.0157,-383.8596 1951.5497,-357.4489"/>
<polygon fill="#191970" stroke="#191970" points="1954.3155,-355.2967 1945.7169,-349.1068 1948.5787,-359.3078 1954.3155,-355.2967"/>
</g>
<!-- Node42&#45;&gt;Node43 -->
<g id="edge118" class="edge">
<title>Node42&#45;&gt;Node43</title>
<path fill="none" stroke="#191970" d="M2010.1563,-452.8906C1994.9582,-443.0519 1971.1152,-427.6167 1953.3794,-416.1351"/>
<polygon fill="#191970" stroke="#191970" points="1955.0361,-413.0382 1944.7395,-410.5419 1951.232,-418.9144 1955.0361,-413.0382"/>
</g>
<!-- Node44&#45;&gt;Node3 -->
<g id="edge120" class="edge">
<title>Node44&#45;&gt;Node3</title>
<path fill="none" stroke="#191970" d="M1779.4994,-452.7319C1791.5465,-438.9145 1814.315,-412.903 1834,-391 1848.5087,-374.8566 1859.1314,-375.2286 1867,-355 1871.9948,-342.1595 1873.1057,-336.351 1867,-324 1803.1547,-194.8496 1635.5006,-118.6963 1560.3628,-90.0767"/>
<polygon fill="#191970" stroke="#191970" points="1561.4119,-86.7324 1550.8195,-86.5088 1558.9606,-93.2892 1561.4119,-86.7324"/>
</g>
<!-- Node44&#45;&gt;Node13 -->
<g id="edge121" class="edge">
<title>Node44&#45;&gt;Node13</title>
<path fill="none" stroke="#191970" d="M1769.303,-452.968C1764.5672,-428.7699 1749.1773,-364.0481 1714,-324 1696.9256,-304.5614 1670.657,-290.7172 1650.8987,-282.3125"/>
<polygon fill="#191970" stroke="#191970" points="1652.1003,-279.023 1641.5176,-278.5176 1649.4753,-285.5122 1652.1003,-279.023"/>
</g>
<!-- Node44&#45;&gt;Node14 -->
<g id="edge122" class="edge">
<title>Node44&#45;&gt;Node14</title>
<path fill="none" stroke="#191970" d="M1745.8475,-452.9884C1683.711,-429.638 1517.7807,-368.1776 1377,-324 1321.7153,-306.6514 1256.2474,-289.2411 1219.5809,-279.7687"/>
<polygon fill="#191970" stroke="#191970" points="1220.1586,-276.3035 1209.602,-277.2034 1218.4157,-283.083 1220.1586,-276.3035"/>
</g>
<!-- Node44&#45;&gt;Node20 -->
<g id="edge123" class="edge">
<title>Node44&#45;&gt;Node20</title>
<path fill="none" stroke="#191970" d="M1783.1765,-452.8033C1800.7932,-438.8516 1834.5127,-412.4355 1864,-391 1881.1399,-378.5404 1900.9125,-364.9964 1915.8514,-354.9263"/>
<polygon fill="#191970" stroke="#191970" points="1918.1099,-357.6257 1924.4616,-349.1459 1914.2082,-351.8139 1918.1099,-357.6257"/>
</g>
<!-- Node44&#45;&gt;Node43 -->
<g id="edge124" class="edge">
<title>Node44&#45;&gt;Node43</title>
<path fill="none" stroke="#191970" d="M1795.8438,-452.8906C1822.9946,-442.3889 1866.6301,-425.511 1896.7244,-413.8708"/>
<polygon fill="#191970" stroke="#191970" points="1898.3038,-417.0126 1906.3678,-410.1408 1895.7785,-410.484 1898.3038,-417.0126"/>
</g>
<!-- Node45&#45;&gt;Node7 -->
<g id="edge128" class="edge">
<title>Node45&#45;&gt;Node7</title>
<path fill="none" stroke="#191970" d="M1280.4658,-330.9463C1219.0695,-318.8831 1106.9996,-296.8636 1039.3277,-283.5673"/>
<polygon fill="#191970" stroke="#191970" points="1039.757,-280.0848 1029.2698,-281.5911 1038.4073,-286.9535 1039.757,-280.0848"/>
</g>
<!-- Node45&#45;&gt;Node8 -->
<g id="edge129" class="edge">
<title>Node45&#45;&gt;Node8</title>
<path fill="none" stroke="#191970" d="M1280.0816,-334.4091C1177.5344,-322.5222 922.217,-292.9265 805.6903,-279.4191"/>
<polygon fill="#191970" stroke="#191970" points="805.8634,-275.9158 795.5269,-278.241 805.0573,-282.8693 805.8634,-275.9158"/>
</g>
<!-- Node45&#45;&gt;Node12 -->
<g id="edge133" class="edge">
<title>Node45&#45;&gt;Node12</title>
<path fill="none" stroke="#191970" d="M1280.4155,-335.2631C1246.7277,-332.0347 1198.9246,-327.5544 1157,-324 948.6897,-306.3392 895.6901,-311.873 688,-288 677.8497,-286.8333 667.1545,-285.407 656.6734,-283.897"/>
<polygon fill="#191970" stroke="#191970" points="657.1183,-280.4249 646.7148,-282.4294 656.0976,-287.3501 657.1183,-280.4249"/>
</g>
<!-- Node45&#45;&gt;Node13 -->
<g id="edge132" class="edge">
<title>Node45&#45;&gt;Node13</title>
<path fill="none" stroke="#191970" d="M1358.5825,-329.9459C1366.2728,-327.9086 1374.3985,-325.8233 1382,-324 1459.3397,-305.4495 1551.3987,-286.7925 1596.4275,-277.8871"/>
<polygon fill="#191970" stroke="#191970" points="1597.1838,-281.3055 1606.3186,-275.9384 1595.8306,-274.4375 1597.1838,-281.3055"/>
</g>
<!-- Node45&#45;&gt;Node16 -->
<g id="edge127" class="edge">
<title>Node45&#45;&gt;Node16</title>
<path fill="none" stroke="#191970" d="M1353.7739,-329.993C1360.1137,-327.9935 1366.7735,-325.9117 1373,-324 1472.744,-293.3758 1495.6179,-277.115 1598,-257 1757.5175,-225.6597 1806.4421,-268.2206 1962,-221 1963.4681,-220.5544 1964.9475,-220.0315 1966.4198,-219.4524"/>
<polygon fill="#191970" stroke="#191970" points="1968.2642,-222.4534 1975.8344,-215.041 1965.2941,-216.1148 1968.2642,-222.4534"/>
</g>
<!-- Node45&#45;&gt;Node18 -->
<g id="edge130" class="edge">
<title>Node45&#45;&gt;Node18</title>
<path fill="none" stroke="#191970" d="M1367.6539,-334.6815C1480.3636,-322.2408 1779.9675,-289.1708 1889.8514,-277.0419"/>
<polygon fill="#191970" stroke="#191970" points="1890.3248,-280.511 1899.8804,-275.9349 1889.5567,-273.5533 1890.3248,-280.511"/>
</g>
<!-- Node46 -->
<g id="node46" class="node">
<title>Node46</title>
<polygon fill="#ffffff" stroke="#bfbfbf" points="1305,-263 1305,-282 1343,-282 1343,-263 1305,-263"/>
<text text-anchor="middle" x="1324" y="-270" font-family="Helvetica,sans-Serif" font-size="10.00" fill="#000000">iosfwd</text>
</g>
<!-- Node45&#45;&gt;Node46 -->
<g id="edge131" class="edge">
<title>Node45&#45;&gt;Node46</title>
<path fill="none" stroke="#191970" d="M1324,-329.9005C1324,-320.149 1324,-304.7597 1324,-292.3695"/>
<polygon fill="#191970" stroke="#191970" points="1327.5001,-292.0816 1324,-282.0817 1320.5001,-292.0817 1327.5001,-292.0816"/>
</g>
</g>
</svg>
        <g id="navigator" transform="translate(0 0)" fill="#404254">
                <rect fill="#f2f5e9" fill-opacity="0.5" stroke="#606060" stroke-width=".5" x="0" y="0" width="60" height="60"/>
                <use id="zoomplus" xlink:href="#zoomPlus" x="17" y="9" onmousedown="handleZoom(evt,'in')"/>
                <use id="zoomminus" xlink:href="#zoomMin" x="42" y="9" onmousedown="handleZoom(evt,'out')"/>
                <use id="reset" xlink:href="#resetDef" x="30" y="36" onmousedown="handleReset()"/>
                <g id="arrowUp" xlink:href="#dirArrow" transform="translate(30 24)" onmousedown="handlePan(0,-1)">
                  <use xlink:href="#rim" fill="#404040">
                        <set attributeName="fill" to="#808080" begin="arrowUp.mouseover" end="arrowUp.mouseout"/>
                  </use>
                  <path fill="none" stroke="white" stroke-width="1.5" d="M0,-3.0v7 M-2.5,-0.5L0,-3.0L2.5,-0.5"/>
                </g>
                <g id="arrowRight" xlink:href="#dirArrow" transform="rotate(90) translate(36 -43)" onmousedown="handlePan(1,0)">
                  <use xlink:href="#rim" fill="#404040">
                        <set attributeName="fill" to="#808080" begin="arrowRight.mouseover" end="arrowRight.mouseout"/>
                  </use>
                  <path fill="none" stroke="white" stroke-width="1.5" d="M0,-3.0v7 M-2.5,-0.5L0,-3.0L2.5,-0.5"/>
                </g>
                <g id="arrowDown" xlink:href="#dirArrow" transform="rotate(180) translate(-30 -48)" onmousedown="handlePan(0,1)">
                  <use xlink:href="#rim" fill="#404040">
                        <set attributeName="fill" to="#808080" begin="arrowDown.mouseover" end="arrowDown.mouseout"/>
                  </use>
                  <path fill="none" stroke="white" stroke-width="1.5" d="M0,-3.0v7 M-2.5,-0.5L0,-3.0L2.5,-0.5"/>
                </g>
                <g id="arrowLeft" xlink:href="#dirArrow" transform="rotate(270) translate(-36 17)" onmousedown="handlePan(-1,0)">
                  <use xlink:href="#rim" fill="#404040">
                        <set attributeName="fill" to="#808080" begin="arrowLeft.mouseover" end="arrowLeft.mouseout"/>
                  </use>
                  <path fill="none" stroke="white" stroke-width="1.5" d="M0,-3.0v7 M-2.5,-0.5L0,-3.0L2.5,-0.5"/>
                </g>
        </g>
        <svg viewBox="0 0 15 15" width="100%" height="30px" preserveAspectRatio="xMaxYMin meet">
         <g id="arrow_out" transform="scale(0.3 0.3)">
          <a xlink:href="_conversion_properties_8cpp__incl_org.svg" target="_base">
           <rect id="button" ry="5" rx="5" y="6" x="6" height="38" width="38"
                fill="#f2f5e9" fill-opacity="0.5" stroke="#606060" stroke-width="1.0"/>
           <path id="arrow"
             d="M 11.500037,31.436501 C 11.940474,20.09759 22.043105,11.32322 32.158766,21.979434 L 37.068811,17.246167 C 37.068811,17.246167 37.088388,32 37.088388,32 L 22.160133,31.978069 C 22.160133,31.978069 26.997745,27.140456 26.997745,27.140456 C 18.528582,18.264221 13.291696,25.230495 11.500037,31.436501 z"
             style="fill:#404040;"/>
          </a>
         </g>
        </svg>
</svg>
