<?xml version="1.0" encoding="UTF-8" standalone="no"?>
<!DOCTYPE svg PUBLIC "-//W3C//DTD SVG 1.1//EN"
 "http://www.w3.org/Graphics/SVG/1.1/DTD/svg11.dtd">
<!-- Generated by graphviz version 2.40.1 (20161225.0304)
 -->
<!-- Title: DefaultTerm.h Pages: 1 -->
<svg width="377pt" height="308pt"
 viewBox="0.00 0.00 377.20 308.00" xmlns="http://www.w3.org/2000/svg" xmlns:xlink="http://www.w3.org/1999/xlink">
<g id="graph0" class="graph" transform="scale(1 1) rotate(0) translate(4 304)">
<title>DefaultTerm.h</title>
<polygon fill="#ffffff" stroke="transparent" points="-4,4 -4,-304 373.1965,-304 373.1965,4 -4,4"/>
<!-- Node1 -->
<g id="node1" class="node">
<title>Node1</title>
<polygon fill="#bfbfbf" stroke="#000000" points="15.1965,-280.5 15.1965,-299.5 79.1965,-299.5 79.1965,-280.5 15.1965,-280.5"/>
<text text-anchor="middle" x="47.1965" y="-287.5" font-family="Helvetica,sans-Serif" font-size="10.00" fill="#000000">DefaultTerm.h</text>
</g>
<!-- Node2 -->
<g id="node2" class="node">
<title>Node2</title>
<g id="a_node2"><a xlink:href="_qual_extension_types_8h.html" target="_top" xlink:title="Include all SBML types of qual extension in a single header file. ">
<polygon fill="#ffffff" stroke="#000000" points="48.1965,-56.5 48.1965,-75.5 140.1965,-75.5 140.1965,-56.5 48.1965,-56.5"/>
<text text-anchor="middle" x="94.1965" y="-63.5" font-family="Helvetica,sans-Serif" font-size="10.00" fill="#000000">QualExtensionTypes.h</text>
</a>
</g>
</g>
<!-- Node1&#45;&gt;Node2 -->
<g id="edge1" class="edge">
<title>Node1&#45;&gt;Node2</title>
<path fill="none" stroke="#191970" d="M24.9326,-273.6617C16.0892,-265.7992 6.912,-255.5637 2.1965,-244 -1.16,-235.7692 .1235,-232.6438 2.1965,-224 17.1499,-161.6494 65.786,-99.322 85.639,-75.8018"/>
<polygon fill="#191970" stroke="#191970" points="22.8856,-276.5106 32.8228,-280.1853 27.3461,-271.1158 22.8856,-276.5106"/>
</g>
<!-- Node4 -->
<g id="node4" class="node">
<title>Node4</title>
<g id="a_node4"><a xlink:href="_default_term_8cpp.html" target="_top" xlink:title="Implementation of the DefaultTerm class. ">
<polygon fill="#ffffff" stroke="#000000" points="11.1965,-224.5 11.1965,-243.5 83.1965,-243.5 83.1965,-224.5 11.1965,-224.5"/>
<text text-anchor="middle" x="47.1965" y="-231.5" font-family="Helvetica,sans-Serif" font-size="10.00" fill="#000000">DefaultTerm.cpp</text>
</a>
</g>
</g>
<!-- Node1&#45;&gt;Node4 -->
<g id="edge3" class="edge">
<title>Node1&#45;&gt;Node4</title>
<path fill="none" stroke="#191970" d="M47.1965,-270.1575C47.1965,-261.155 47.1965,-250.9199 47.1965,-243.6427"/>
<polygon fill="#191970" stroke="#191970" points="43.6966,-270.2455 47.1965,-280.2455 50.6966,-270.2456 43.6966,-270.2455"/>
</g>
<!-- Node5 -->
<g id="node5" class="node">
<title>Node5</title>
<g id="a_node5"><a xlink:href="_function_term_8h.html" target="_top" xlink:title="Implementation of the FunctionTerm class. ">
<polygon fill="#ffffff" stroke="#000000" points="101.6965,-224.5 101.6965,-243.5 170.6965,-243.5 170.6965,-224.5 101.6965,-224.5"/>
<text text-anchor="middle" x="136.1965" y="-231.5" font-family="Helvetica,sans-Serif" font-size="10.00" fill="#000000">FunctionTerm.h</text>
</a>
</g>
</g>
<!-- Node1&#45;&gt;Node5 -->
<g id="edge4" class="edge">
<title>Node1&#45;&gt;Node5</title>
<path fill="none" stroke="#191970" d="M71.4029,-274.769C87.1739,-264.8456 107.2725,-252.1994 120.8715,-243.6427"/>
<polygon fill="#191970" stroke="#191970" points="69.2991,-271.9575 62.6991,-280.2455 73.027,-277.8823 69.2991,-271.9575"/>
</g>
<!-- Node3 -->
<g id="node3" class="node">
<title>Node3</title>
<g id="a_node3"><a xlink:href="_qual_validator_8cpp.html" target="_top" xlink:title="Base class for SBML Validators. ">
<polygon fill="#ffffff" stroke="#000000" points="56.1965,-.5 56.1965,-19.5 132.1965,-19.5 132.1965,-.5 56.1965,-.5"/>
<text text-anchor="middle" x="94.1965" y="-7.5" font-family="Helvetica,sans-Serif" font-size="10.00" fill="#000000">QualValidator.cpp</text>
</a>
</g>
</g>
<!-- Node2&#45;&gt;Node3 -->
<g id="edge2" class="edge">
<title>Node2&#45;&gt;Node3</title>
<path fill="none" stroke="#191970" d="M94.1965,-46.1575C94.1965,-37.155 94.1965,-26.9199 94.1965,-19.6427"/>
<polygon fill="#191970" stroke="#191970" points="90.6966,-46.2455 94.1965,-56.2455 97.6966,-46.2456 90.6966,-46.2455"/>
</g>
<!-- Node5&#45;&gt;Node2 -->
<g id="edge5" class="edge">
<title>Node5&#45;&gt;Node2</title>
<path fill="none" stroke="#191970" d="M119.3116,-217.2483C101.6365,-198.411 74.9832,-165.9858 64.1965,-132 57.5712,-111.1256 73.8114,-88.137 84.8951,-75.5516"/>
<polygon fill="#191970" stroke="#191970" points="116.8022,-219.6882 126.2644,-224.4544 121.8397,-214.8278 116.8022,-219.6882"/>
</g>
<!-- Node6 -->
<g id="node6" class="node">
<title>Node6</title>
<g id="a_node6"><a xlink:href="_function_term_8cpp.html" target="_top" xlink:title="Implementation of the FunctionTerm class. ">
<polygon fill="#ffffff" stroke="#000000" points="73.6965,-112.5 73.6965,-131.5 150.6965,-131.5 150.6965,-112.5 73.6965,-112.5"/>
<text text-anchor="middle" x="112.1965" y="-119.5" font-family="Helvetica,sans-Serif" font-size="10.00" fill="#000000">FunctionTerm.cpp</text>
</a>
</g>
</g>
<!-- Node5&#45;&gt;Node6 -->
<g id="edge6" class="edge">
<title>Node5&#45;&gt;Node6</title>
<path fill="none" stroke="#191970" d="M132.0391,-214.5987C126.8457,-190.363 118.1654,-149.8551 114.2375,-131.5249"/>
<polygon fill="#191970" stroke="#191970" points="128.6326,-215.4063 134.1503,-224.4509 135.4772,-213.9395 128.6326,-215.4063"/>
</g>
<!-- Node7 -->
<g id="node7" class="node">
<title>Node7</title>
<g id="a_node7"><a xlink:href="_transition_8h.html" target="_top" xlink:title="Implementation of the Transition class. ">
<polygon fill="#ffffff" stroke="#000000" points="151.1965,-168.5 151.1965,-187.5 207.1965,-187.5 207.1965,-168.5 151.1965,-168.5"/>
<text text-anchor="middle" x="179.1965" y="-175.5" font-family="Helvetica,sans-Serif" font-size="10.00" fill="#000000">Transition.h</text>
</a>
</g>
</g>
<!-- Node5&#45;&gt;Node7 -->
<g id="edge7" class="edge">
<title>Node5&#45;&gt;Node7</title>
<path fill="none" stroke="#191970" d="M149.8557,-216.2112C157.1228,-206.7472 165.7746,-195.4797 171.7923,-187.6427"/>
<polygon fill="#191970" stroke="#191970" points="147.0008,-214.1824 143.6865,-224.2455 152.5528,-218.4456 147.0008,-214.1824"/>
</g>
<!-- Node7&#45;&gt;Node2 -->
<g id="edge8" class="edge">
<title>Node7&#45;&gt;Node2</title>
<path fill="none" stroke="#191970" d="M177.0356,-158.1238C174.7145,-144.1603 169.9436,-125.6185 160.1965,-112 148.6535,-95.8723 129.6092,-83.4831 114.937,-75.6471"/>
<polygon fill="#191970" stroke="#191970" points="173.5862,-158.7313 178.4201,-168.1592 180.5205,-157.7746 173.5862,-158.7313"/>
</g>
<!-- Node7&#45;&gt;Node6 -->
<g id="edge13" class="edge">
<title>Node7&#45;&gt;Node6</title>
<path fill="none" stroke="#191970" d="M159.6289,-161.645C147.9767,-151.9058 133.588,-139.8795 123.7333,-131.6427"/>
<polygon fill="#191970" stroke="#191970" points="157.6085,-164.5179 167.526,-168.2455 162.0977,-159.1469 157.6085,-164.5179"/>
</g>
<!-- Node8 -->
<g id="node8" class="node">
<title>Node8</title>
<g id="a_node8"><a xlink:href="_qual_model_plugin_8h.html" target="_top" xlink:title="Definition of QualModelPlugin, the plugin class of qual package for the Model element. ">
<polygon fill="#ffffff" stroke="#000000" points="207.1965,-112.5 207.1965,-131.5 287.1965,-131.5 287.1965,-112.5 207.1965,-112.5"/>
<text text-anchor="middle" x="247.1965" y="-119.5" font-family="Helvetica,sans-Serif" font-size="10.00" fill="#000000">QualModelPlugin.h</text>
</a>
</g>
</g>
<!-- Node7&#45;&gt;Node8 -->
<g id="edge9" class="edge">
<title>Node7&#45;&gt;Node8</title>
<path fill="none" stroke="#191970" d="M199.0561,-161.645C210.8822,-151.9058 225.4857,-139.8795 235.4875,-131.6427"/>
<polygon fill="#191970" stroke="#191970" points="196.5355,-159.1867 191.0412,-168.2455 200.9855,-164.5902 196.5355,-159.1867"/>
</g>
<!-- Node11 -->
<g id="node11" class="node">
<title>Node11</title>
<g id="a_node11"><a xlink:href="_transition_8cpp.html" target="_top" xlink:title="Implementation of the Transition class. ">
<polygon fill="#ffffff" stroke="#000000" points="305.1965,-112.5 305.1965,-131.5 369.1965,-131.5 369.1965,-112.5 305.1965,-112.5"/>
<text text-anchor="middle" x="337.1965" y="-119.5" font-family="Helvetica,sans-Serif" font-size="10.00" fill="#000000">Transition.cpp</text>
</a>
</g>
</g>
<!-- Node7&#45;&gt;Node11 -->
<g id="edge14" class="edge">
<title>Node7&#45;&gt;Node11</title>
<path fill="none" stroke="#191970" d="M216.0919,-164.9231C244.9752,-154.686 284.4671,-140.6889 310.3897,-131.5011"/>
<polygon fill="#191970" stroke="#191970" points="214.6139,-161.7336 206.3577,-168.3733 216.9524,-168.3314 214.6139,-161.7336"/>
</g>
<!-- Node8&#45;&gt;Node2 -->
<g id="edge10" class="edge">
<title>Node8&#45;&gt;Node2</title>
<path fill="none" stroke="#191970" d="M211.4686,-108.9231C183.4994,-98.686 145.2572,-84.6889 120.1549,-75.5011"/>
<polygon fill="#191970" stroke="#191970" points="210.3011,-112.2228 220.8948,-112.3733 212.7071,-105.6493 210.3011,-112.2228"/>
</g>
<!-- Node9 -->
<g id="node9" class="node">
<title>Node9</title>
<g id="a_node9"><a xlink:href="_qual_extension_8cpp.html" target="_top" xlink:title="Implementation of QualExtension, the core module of qual package. ">
<polygon fill="#ffffff" stroke="#000000" points="182.6965,-56.5 182.6965,-75.5 261.6965,-75.5 261.6965,-56.5 182.6965,-56.5"/>
<text text-anchor="middle" x="222.1965" y="-63.5" font-family="Helvetica,sans-Serif" font-size="10.00" fill="#000000">QualExtension.cpp</text>
</a>
</g>
</g>
<!-- Node8&#45;&gt;Node9 -->
<g id="edge11" class="edge">
<title>Node8&#45;&gt;Node9</title>
<path fill="none" stroke="#191970" d="M238.7339,-103.0437C234.622,-93.8331 229.8571,-83.1598 226.5013,-75.6427"/>
<polygon fill="#191970" stroke="#191970" points="235.5693,-104.541 242.8418,-112.2455 241.9612,-101.6874 235.5693,-104.541"/>
</g>
<!-- Node10 -->
<g id="node10" class="node">
<title>Node10</title>
<g id="a_node10"><a xlink:href="_qual_model_plugin_8cpp.html" target="_top" xlink:title="Implementation of QualModelPlugin, the plugin class of qual package for the Model element...">
<polygon fill="#ffffff" stroke="#000000" points="280.1965,-56.5 280.1965,-75.5 368.1965,-75.5 368.1965,-56.5 280.1965,-56.5"/>
<text text-anchor="middle" x="324.1965" y="-63.5" font-family="Helvetica,sans-Serif" font-size="10.00" fill="#000000">QualModelPlugin.cpp</text>
</a>
</g>
</g>
<!-- Node8&#45;&gt;Node10 -->
<g id="edge12" class="edge">
<title>Node8&#45;&gt;Node10</title>
<path fill="none" stroke="#191970" d="M268.9081,-106.2097C282.4318,-96.3743 299.3922,-84.0394 310.9378,-75.6427"/>
<polygon fill="#191970" stroke="#191970" points="266.6376,-103.5332 260.6089,-112.2455 270.7549,-109.1944 266.6376,-103.5332"/>
</g>
</g>
</svg>
