<?xml version="1.0" encoding="UTF-8" standalone="no"?>
<!DOCTYPE svg PUBLIC "-//W3C//DTD SVG 1.1//EN"
 "http://www.w3.org/Graphics/SVG/1.1/DTD/svg11.dtd">
<!-- Generated by graphviz version 2.40.1 (20161225.0304)
 -->
<!-- Title: DefaultValues.h Pages: 1 -->
<!--zoomable 364 -->
<svg id="main" version="1.1" xmlns="http://www.w3.org/2000/svg" xmlns:xlink="http://www.w3.org/1999/xlink" xml:space="preserve" onload="init(evt)">
<style type="text/css"><![CDATA[
.edge:hover path { stroke: red; }
.edge:hover polygon { stroke: red; fill: red; }
]]></style>
<script type="text/javascript"><![CDATA[
var edges = document.getElementsByTagName('g');
if (edges && edges.length) {
  for (var i=0;i<edges.length;i++) {
    if (edges[i].id.substr(0,4)=='edge') {
      edges[i].setAttribute('class','edge');
    }
  }
}
]]></script>
        <defs>
                <circle id="rim" cx="0" cy="0" r="7"/>
                <circle id="rim2" cx="0" cy="0" r="3.5"/>
                <g id="zoomPlus">
                        <use xlink:href="#rim" fill="#404040">
                                <set attributeName="fill" to="#808080" begin="zoomplus.mouseover" end="zoomplus.mouseout"/>
                        </use>
                        <path d="M-4,0h8M0,-4v8" fill="none" stroke="white" stroke-width="1.5" pointer-events="none"/>
                </g>
                <g id="zoomMin">
                        <use xlink:href="#rim" fill="#404040">
                                <set attributeName="fill" to="#808080" begin="zoomminus.mouseover" end="zoomminus.mouseout"/>
                        </use>
                        <path d="M-4,0h8" fill="none" stroke="white" stroke-width="1.5" pointer-events="none"/>
                </g>
                <g id="dirArrow">
                        <path fill="none" stroke="white" stroke-width="1.5" d="M0,-3.0v7 M-2.5,-0.5L0,-3.0L2.5,-0.5"/>
                </g>
               <g id="resetDef">
                       <use xlink:href="#rim2" fill="#404040">
                               <set attributeName="fill" to="#808080" begin="reset.mouseover" end="reset.mouseout"/>
                       </use>
               </g>
        </defs>

<script type="text/javascript">
var viewWidth = 1382;
var viewHeight = 364;
var sectionId = 'dynsection-1';
</script>
<script xlink:href="svgpan.js"/>
<svg id="graph" class="graph">
<g id="viewport">
<title>DefaultValues.h</title>
<polygon fill="#ffffff" stroke="transparent" points="-4,4 -4,-360 1377.5,-360 1377.5,4 -4,4"/>
<!-- Node1 -->
<g id="node1" class="node">
<title>Node1</title>
<polygon fill="#bfbfbf" stroke="#000000" points="763,-336.5 763,-355.5 850,-355.5 850,-336.5 763,-336.5"/>
<text text-anchor="middle" x="806.5" y="-343.5" font-family="Helvetica,sans-Serif" font-size="10.00" fill="#000000">DefaultValues.h</text>
</g>
<!-- Node2 -->
<g id="node2" class="node">
<title>Node2</title>
<g id="a_node2"><a xlink:href="_render_extension_types_8h.html" target="_top" xlink:title="Definition of RenderExtensionTypes. ">
<polygon fill="#ffffff" stroke="#000000" points="721,-112.5 721,-131.5 850,-131.5 850,-112.5 721,-112.5"/>
<text text-anchor="middle" x="785.5" y="-119.5" font-family="Helvetica,sans-Serif" font-size="10.00" fill="#000000">RenderExtensionTypes.h</text>
</a>
</g>
</g>
<!-- Node1&#45;&gt;Node2 -->
<g id="edge1" class="edge">
<title>Node1&#45;&gt;Node2</title>
<path fill="none" stroke="#191970" d="M816.7469,-327.217C820.6196,-319.0983 824.5586,-309.3345 826.5,-300 828.31,-291.2974 827.3226,-288.8507 826.5,-280 821.8132,-229.5721 820.3572,-216.417 805.5,-168 801.5147,-155.0128 794.9598,-140.7722 790.4468,-131.6284"/>
<polygon fill="#191970" stroke="#191970" points="813.6097,-325.6647 812.1945,-336.1646 819.8486,-328.839 813.6097,-325.6647"/>
</g>
<!-- Node9 -->
<g id="node9" class="node">
<title>Node9</title>
<g id="a_node9"><a xlink:href="_default_values_8cpp.html" target="_top" xlink:title="Implementation of the DefaultValues class. ">
<polygon fill="#ffffff" stroke="#000000" points="719.5,-280.5 719.5,-299.5 817.5,-299.5 817.5,-280.5 719.5,-280.5"/>
<text text-anchor="middle" x="768.5" y="-287.5" font-family="Helvetica,sans-Serif" font-size="10.00" fill="#000000">DefaultValues.cpp</text>
</a>
</g>
</g>
<!-- Node1&#45;&gt;Node9 -->
<g id="edge10" class="edge">
<title>Node1&#45;&gt;Node9</title>
<path fill="none" stroke="#191970" d="M794.2321,-327.9209C787.8512,-318.5176 780.3069,-307.3997 775.0432,-299.6427"/>
<polygon fill="#191970" stroke="#191970" points="791.3697,-329.936 799.8809,-336.2455 797.162,-326.0055 791.3697,-329.936"/>
</g>
<!-- Node10 -->
<g id="node10" class="node">
<title>Node10</title>
<g id="a_node10"><a xlink:href="_list_of_global_render_information_8h.html" target="_top" xlink:title="Definition of the ListOfGlobalRenderInformation class. ">
<polygon fill="#ffffff" stroke="#000000" points="329,-280.5 329,-299.5 492,-299.5 492,-280.5 329,-280.5"/>
<text text-anchor="middle" x="410.5" y="-287.5" font-family="Helvetica,sans-Serif" font-size="10.00" fill="#000000">ListOfGlobalRenderInformation.h</text>
</a>
</g>
</g>
<!-- Node1&#45;&gt;Node10 -->
<g id="edge11" class="edge">
<title>Node1&#45;&gt;Node10</title>
<path fill="none" stroke="#191970" d="M752.8753,-338.4167C681.5554,-328.3311 555.48,-310.5022 477.8346,-299.5221"/>
<polygon fill="#191970" stroke="#191970" points="752.5967,-341.9121 762.9883,-339.8468 753.5769,-334.981 752.5967,-341.9121"/>
</g>
<!-- Node17 -->
<g id="node17" class="node">
<title>Node17</title>
<g id="a_node17"><a xlink:href="_list_of_local_render_information_8h.html" target="_top" xlink:title="Definition of the ListOfLocalRenderInformation class. ">
<polygon fill="#ffffff" stroke="#000000" points="881.5,-224.5 881.5,-243.5 1039.5,-243.5 1039.5,-224.5 881.5,-224.5"/>
<text text-anchor="middle" x="960.5" y="-231.5" font-family="Helvetica,sans-Serif" font-size="10.00" fill="#000000">ListOfLocalRenderInformation.h</text>
</a>
</g>
</g>
<!-- Node1&#45;&gt;Node17 -->
<g id="edge28" class="edge">
<title>Node1&#45;&gt;Node17</title>
<path fill="none" stroke="#191970" d="M827.9773,-330.3802C860.3904,-306.807 920.8369,-262.8459 947.4033,-243.5249"/>
<polygon fill="#191970" stroke="#191970" points="825.6587,-327.7386 819.63,-336.4509 829.7759,-333.3998 825.6587,-327.7386"/>
</g>
<!-- Node3 -->
<g id="node3" class="node">
<title>Node3</title>
<g id="a_node3"><a xlink:href="_render_layout_plugin_8cpp.html" target="_top" xlink:title="Implementation of RenderLayoutPlugin, the plugin class of the fbc package for the Model element...">
<polygon fill="#ffffff" stroke="#000000" points="907.5,-.5 907.5,-19.5 1033.5,-19.5 1033.5,-.5 907.5,-.5"/>
<text text-anchor="middle" x="970.5" y="-7.5" font-family="Helvetica,sans-Serif" font-size="10.00" fill="#000000">RenderLayoutPlugin.cpp</text>
</a>
</g>
</g>
<!-- Node2&#45;&gt;Node3 -->
<g id="edge2" class="edge">
<title>Node2&#45;&gt;Node3</title>
<path fill="none" stroke="#191970" d="M851.6296,-110.4971C891.4294,-102.3097 937.1004,-90.2567 951.5,-76 966.9213,-60.7317 970.0187,-33.8145 970.5208,-19.5288"/>
<polygon fill="#191970" stroke="#191970" points="850.7777,-107.0981 841.6601,-112.4944 852.1528,-113.9618 850.7777,-107.0981"/>
</g>
<!-- Node4 -->
<g id="node4" class="node">
<title>Node4</title>
<g id="a_node4"><a xlink:href="_render_layout_converter_8cpp.html" target="_top" xlink:title="Simple converter to convert Layout + Render from l2 to L3 and vice versa. ">
<polygon fill="#ffffff" stroke="#000000" points="566.5,-56.5 566.5,-75.5 708.5,-75.5 708.5,-56.5 566.5,-56.5"/>
<text text-anchor="middle" x="637.5" y="-63.5" font-family="Helvetica,sans-Serif" font-size="10.00" fill="#000000">RenderLayoutConverter.cpp</text>
</a>
</g>
</g>
<!-- Node2&#45;&gt;Node4 -->
<g id="edge3" class="edge">
<title>Node2&#45;&gt;Node4</title>
<path fill="none" stroke="#191970" d="M750.5847,-108.7888C723.5617,-98.5639 686.786,-84.6488 662.6101,-75.5011"/>
<polygon fill="#191970" stroke="#191970" points="749.4664,-112.1078 760.0579,-112.3733 751.9437,-105.5608 749.4664,-112.1078"/>
</g>
<!-- Node5 -->
<g id="node5" class="node">
<title>Node5</title>
<g id="a_node5"><a xlink:href="_render_utilities_8cpp.html" target="_top" xlink:title="implementation of RenderUtilities, a class of utility functions for the render package ...">
<polygon fill="#ffffff" stroke="#000000" points="658.5,-.5 658.5,-19.5 758.5,-19.5 758.5,-.5 658.5,-.5"/>
<text text-anchor="middle" x="708.5" y="-7.5" font-family="Helvetica,sans-Serif" font-size="10.00" fill="#000000">RenderUtilities.cpp</text>
</a>
</g>
</g>
<!-- Node2&#45;&gt;Node5 -->
<g id="edge4" class="edge">
<title>Node2&#45;&gt;Node5</title>
<path fill="none" stroke="#191970" d="M710.825,-116.961C651.9667,-111.2497 576.72,-99.485 557.5,-76 526.6964,-38.3609 603.3916,-21.6066 658.3976,-14.5976"/>
<polygon fill="#191970" stroke="#191970" points="710.5808,-120.4533 720.8615,-117.8925 711.2278,-113.4832 710.5808,-120.4533"/>
</g>
<!-- Node6 -->
<g id="node6" class="node">
<title>Node6</title>
<g id="a_node6"><a xlink:href="_render_utilities_8h.html" target="_top" xlink:title="Definition of RenderUtilities, a class of utility functions for the render package. ">
<polygon fill="#ffffff" stroke="#000000" points="852.5,-56.5 852.5,-75.5 942.5,-75.5 942.5,-56.5 852.5,-56.5"/>
<text text-anchor="middle" x="897.5" y="-63.5" font-family="Helvetica,sans-Serif" font-size="10.00" fill="#000000">RenderUtilities.h</text>
</a>
</g>
</g>
<!-- Node2&#45;&gt;Node6 -->
<g id="edge5" class="edge">
<title>Node2&#45;&gt;Node6</title>
<path fill="none" stroke="#191970" d="M813.8263,-107.8368C834.0721,-97.7139 860.7642,-84.3679 878.4978,-75.5011"/>
<polygon fill="#191970" stroke="#191970" points="812.1325,-104.7706 804.7535,-112.3733 815.263,-111.0316 812.1325,-104.7706"/>
</g>
<!-- Node8 -->
<g id="node8" class="node">
<title>Node8</title>
<g id="a_node8"><a xlink:href="_render_validator_8cpp.html" target="_top" xlink:title="Definition of RenderValidator. ">
<polygon fill="#ffffff" stroke="#000000" points="726.5,-56.5 726.5,-75.5 834.5,-75.5 834.5,-56.5 726.5,-56.5"/>
<text text-anchor="middle" x="780.5" y="-63.5" font-family="Helvetica,sans-Serif" font-size="10.00" fill="#000000">RenderValidator.cpp</text>
</a>
</g>
</g>
<!-- Node2&#45;&gt;Node8 -->
<g id="edge9" class="edge">
<title>Node2&#45;&gt;Node8</title>
<path fill="none" stroke="#191970" d="M783.7283,-102.1575C782.9246,-93.155 782.0107,-82.9199 781.361,-75.6427"/>
<polygon fill="#191970" stroke="#191970" points="780.2535,-102.5965 784.6291,-112.2455 787.2258,-101.9739 780.2535,-102.5965"/>
</g>
<!-- Node6&#45;&gt;Node3 -->
<g id="edge6" class="edge">
<title>Node6&#45;&gt;Node3</title>
<path fill="none" stroke="#191970" d="M918.451,-49.928C931.2107,-40.1397 947.0885,-27.9595 957.9301,-19.6427"/>
<polygon fill="#191970" stroke="#191970" points="916.0196,-47.3819 910.2156,-56.2455 920.2803,-52.9359 916.0196,-47.3819"/>
</g>
<!-- Node6&#45;&gt;Node5 -->
<g id="edge8" class="edge">
<title>Node6&#45;&gt;Node5</title>
<path fill="none" stroke="#191970" d="M855.1643,-53.4561C820.4706,-43.1765 772.1166,-28.8494 740.5663,-19.5011"/>
<polygon fill="#191970" stroke="#191970" points="854.4274,-56.8881 865.0097,-56.3733 856.4161,-50.1765 854.4274,-56.8881"/>
</g>
<!-- Node7 -->
<g id="node7" class="node">
<title>Node7</title>
<g id="a_node7"><a xlink:href="_render_list_of_layouts_plugin_8cpp.html" target="_top" xlink:title="Implementation of RenderListOfLayoutsPlugin, the plugin class of the fbc package for the Model elemen...">
<polygon fill="#ffffff" stroke="#000000" points="352,-.5 352,-19.5 509,-19.5 509,-.5 352,-.5"/>
<text text-anchor="middle" x="430.5" y="-7.5" font-family="Helvetica,sans-Serif" font-size="10.00" fill="#000000">RenderListOfLayoutsPlugin.cpp</text>
</a>
</g>
</g>
<!-- Node6&#45;&gt;Node7 -->
<g id="edge7" class="edge">
<title>Node6&#45;&gt;Node7</title>
<path fill="none" stroke="#191970" d="M842.5571,-55.9477C720.4384,-38.0973 590.1829,-24.7132 509.1243,-17.0537"/>
<polygon fill="#191970" stroke="#191970" points="842.0558,-59.4116 852.4594,-57.4078 843.0769,-52.4865 842.0558,-59.4116"/>
</g>
<!-- Node10&#45;&gt;Node2 -->
<g id="edge12" class="edge">
<title>Node10&#45;&gt;Node2</title>
<path fill="none" stroke="#191970" d="M495.7175,-278.9902C595.6654,-264.1245 752.2389,-234.069 787.5,-188 800.0416,-171.6143 793.9578,-145.6416 789.2402,-131.6645"/>
<polygon fill="#191970" stroke="#191970" points="495.0146,-275.5557 485.6274,-280.4681 496.0291,-282.4818 495.0146,-275.5557"/>
</g>
<!-- Node10&#45;&gt;Node7 -->
<g id="edge13" class="edge">
<title>Node10&#45;&gt;Node7</title>
<path fill="none" stroke="#191970" d="M324.8297,-278.3334C267.1258,-265.093 201.5,-237.0536 201.5,-178 201.5,-178 201.5,-178 201.5,-122 201.5,-79.5131 330.3125,-37.7565 394.7188,-19.5337"/>
<polygon fill="#191970" stroke="#191970" points="324.2359,-281.7859 334.7507,-280.4859 325.7202,-274.9451 324.2359,-281.7859"/>
</g>
<!-- Node11 -->
<g id="node11" class="node">
<title>Node11</title>
<g id="a_node11"><a xlink:href="_render_list_of_layouts_plugin_8h.html" target="_top" xlink:title="Definition of RenderListOfLayoutsPlugin, the plugin class of fbc package for the Model element...">
<polygon fill="#ffffff" stroke="#000000" points="434,-168.5 434,-187.5 581,-187.5 581,-168.5 434,-168.5"/>
<text text-anchor="middle" x="507.5" y="-175.5" font-family="Helvetica,sans-Serif" font-size="10.00" fill="#000000">RenderListOfLayoutsPlugin.h</text>
</a>
</g>
</g>
<!-- Node10&#45;&gt;Node11 -->
<g id="edge14" class="edge">
<title>Node10&#45;&gt;Node11</title>
<path fill="none" stroke="#191970" d="M445.5155,-275.9953C460.3354,-268.4911 476.6467,-257.8905 487.5,-244 500.7688,-227.0179 505.2661,-201.2875 506.7669,-187.5068"/>
<polygon fill="#191970" stroke="#191970" points="443.5965,-273.0319 436.0644,-280.4829 446.599,-279.3553 443.5965,-273.0319"/>
</g>
<!-- Node13 -->
<g id="node13" class="node">
<title>Node13</title>
<g id="a_node13"><a xlink:href="_global_render_information_8cpp.html" target="_top" xlink:title="class for the storage of global render information ">
<polygon fill="#ffffff" stroke="#000000" points="230,-168.5 230,-187.5 377,-187.5 377,-168.5 230,-168.5"/>
<text text-anchor="middle" x="303.5" y="-175.5" font-family="Helvetica,sans-Serif" font-size="10.00" fill="#000000">GlobalRenderInformation.cpp</text>
</a>
</g>
</g>
<!-- Node10&#45;&gt;Node13 -->
<g id="edge19" class="edge">
<title>Node10&#45;&gt;Node13</title>
<path fill="none" stroke="#191970" d="M376.8695,-275.9992C361.7383,-268.3501 344.6001,-257.6309 332.5,-244 317.5443,-227.1522 309.2829,-201.3673 305.6958,-187.5423"/>
<polygon fill="#191970" stroke="#191970" points="375.4383,-279.1945 385.9685,-280.3637 378.4658,-272.883 375.4383,-279.1945"/>
</g>
<!-- Node14 -->
<g id="node14" class="node">
<title>Node14</title>
<g id="a_node14"><a xlink:href="_global_render_information_8h.html" target="_top" xlink:title="Definition of the GlobalRenderInformation class. ">
<polygon fill="#ffffff" stroke="#000000" points="342,-224.5 342,-243.5 479,-243.5 479,-224.5 342,-224.5"/>
<text text-anchor="middle" x="410.5" y="-231.5" font-family="Helvetica,sans-Serif" font-size="10.00" fill="#000000">GlobalRenderInformation.h</text>
</a>
</g>
</g>
<!-- Node10&#45;&gt;Node14 -->
<g id="edge20" class="edge">
<title>Node10&#45;&gt;Node14</title>
<path fill="none" stroke="#191970" d="M404.0113,-270.1575C403.419,-261.155 403.8335,-250.9199 405.2549,-243.6427"/>
<polygon fill="#191970" stroke="#191970" points="400.5561,-270.739 405.2332,-280.2455 407.5053,-269.8972 400.5561,-270.739"/>
</g>
<!-- Node16 -->
<g id="node16" class="node">
<title>Node16</title>
<g id="a_node16"><a xlink:href="_list_of_global_render_information_8cpp.html" target="_top" xlink:title="Implementation of the ListOfGlobalRenderInformation class. ">
<polygon fill="#ffffff" stroke="#000000" points="0,-224.5 0,-243.5 173,-243.5 173,-224.5 0,-224.5"/>
<text text-anchor="middle" x="86.5" y="-231.5" font-family="Helvetica,sans-Serif" font-size="10.00" fill="#000000">ListOfGlobalRenderInformation.cpp</text>
</a>
</g>
</g>
<!-- Node10&#45;&gt;Node16 -->
<g id="edge27" class="edge">
<title>Node10&#45;&gt;Node16</title>
<path fill="none" stroke="#191970" d="M345.085,-278.6937C285.3091,-268.3621 197.8994,-253.2542 141.6012,-243.5237"/>
<polygon fill="#191970" stroke="#191970" points="344.7205,-282.1825 355.1706,-280.4369 345.9128,-275.2848 344.7205,-282.1825"/>
</g>
<!-- Node11&#45;&gt;Node2 -->
<g id="edge15" class="edge">
<title>Node11&#45;&gt;Node2</title>
<path fill="none" stroke="#191970" d="M564.9041,-166.4366C616.1547,-156.1127 690.3158,-141.1738 738.2218,-131.5237"/>
<polygon fill="#191970" stroke="#191970" points="564.0859,-163.031 554.974,-168.4369 565.4683,-169.8932 564.0859,-163.031"/>
</g>
<!-- Node11&#45;&gt;Node5 -->
<g id="edge18" class="edge">
<title>Node11&#45;&gt;Node5</title>
<path fill="none" stroke="#191970" d="M508.2787,-158.0219C510.4229,-131.0794 518.2575,-83.3328 546.5,-56 562.5195,-40.4965 616.941,-27.1403 658.3273,-18.8747"/>
<polygon fill="#191970" stroke="#191970" points="504.7749,-157.9818 507.6653,-168.1747 511.7621,-158.4041 504.7749,-157.9818"/>
</g>
<!-- Node11&#45;&gt;Node7 -->
<g id="edge17" class="edge">
<title>Node11&#45;&gt;Node7</title>
<path fill="none" stroke="#191970" d="M498.8782,-159.1887C482.5099,-123.4762 447.4578,-46.9988 435.0044,-19.8279"/>
<polygon fill="#191970" stroke="#191970" points="495.7912,-160.8539 503.1395,-168.4862 502.1547,-157.9373 495.7912,-160.8539"/>
</g>
<!-- Node12 -->
<g id="node12" class="node">
<title>Node12</title>
<g id="a_node12"><a xlink:href="_render_extension_8cpp.html" target="_top" xlink:title="Implementation of RenderExtension, the core module of the render package. ">
<polygon fill="#ffffff" stroke="#000000" points="868.5,-112.5 868.5,-131.5 980.5,-131.5 980.5,-112.5 868.5,-112.5"/>
<text text-anchor="middle" x="924.5" y="-119.5" font-family="Helvetica,sans-Serif" font-size="10.00" fill="#000000">RenderExtension.cpp</text>
</a>
</g>
</g>
<!-- Node11&#45;&gt;Node12 -->
<g id="edge16" class="edge">
<title>Node11&#45;&gt;Node12</title>
<path fill="none" stroke="#191970" d="M591.4218,-167.4821C662.5704,-158.4499 767.2922,-144.8849 858.5,-132 861.713,-131.5461 865.0128,-131.0718 868.3418,-130.5871"/>
<polygon fill="#191970" stroke="#191970" points="590.6541,-164.0513 581.1737,-168.7812 591.5345,-170.9957 590.6541,-164.0513"/>
</g>
<!-- Node14&#45;&gt;Node2 -->
<g id="edge21" class="edge">
<title>Node14&#45;&gt;Node2</title>
<path fill="none" stroke="#191970" d="M469.808,-222.2393C505.1637,-214.376 550.5925,-202.7648 589.5,-188 607.7124,-181.0887 610.4059,-175.2152 628.5,-168 667.2825,-152.5352 713.2929,-139.6633 745.4427,-131.5057"/>
<polygon fill="#191970" stroke="#191970" points="468.6714,-218.9049 459.6483,-224.4578 470.1648,-225.7438 468.6714,-218.9049"/>
</g>
<!-- Node14&#45;&gt;Node7 -->
<g id="edge22" class="edge">
<title>Node14&#45;&gt;Node7</title>
<path fill="none" stroke="#191970" d="M412.2489,-214.4119C416.379,-168.1557 426.6166,-53.494 429.6438,-19.5891"/>
<polygon fill="#191970" stroke="#191970" points="408.7627,-214.1033 411.3594,-224.375 415.7349,-214.7259 408.7627,-214.1033"/>
</g>
<!-- Node14&#45;&gt;Node10 -->
<g id="edge25" class="edge">
<title>Node14&#45;&gt;Node10</title>
<path fill="none" stroke="#191970" d="M416.9795,-253.7046C417.5821,-262.6944 417.1779,-272.9382 415.7668,-280.2455"/>
<polygon fill="#191970" stroke="#191970" points="420.4368,-253.1421 415.7451,-243.6427 413.4889,-253.9945 420.4368,-253.1421"/>
</g>
<!-- Node14&#45;&gt;Node11 -->
<g id="edge23" class="edge">
<title>Node14&#45;&gt;Node11</title>
<path fill="none" stroke="#191970" d="M436.4016,-219.0465C453.6609,-209.0824 475.8376,-196.2794 490.7975,-187.6427"/>
<polygon fill="#191970" stroke="#191970" points="434.3065,-216.2146 427.3961,-224.2455 437.8064,-222.2768 434.3065,-216.2146"/>
</g>
<!-- Node14&#45;&gt;Node13 -->
<g id="edge24" class="edge">
<title>Node14&#45;&gt;Node13</title>
<path fill="none" stroke="#191970" d="M382.9801,-219.5971C363.7983,-209.558 338.7322,-196.4393 321.9244,-187.6427"/>
<polygon fill="#191970" stroke="#191970" points="381.3791,-222.7095 391.862,-224.2455 384.625,-216.5075 381.3791,-222.7095"/>
</g>
<!-- Node15 -->
<g id="node15" class="node">
<title>Node15</title>
<g id="a_node15"><a xlink:href="_render_information_base_8cpp.html" target="_top" xlink:title="Implementation of the RenderInformationBase class. ">
<polygon fill="#ffffff" stroke="#000000" points="638,-168.5 638,-187.5 779,-187.5 779,-168.5 638,-168.5"/>
<text text-anchor="middle" x="708.5" y="-175.5" font-family="Helvetica,sans-Serif" font-size="10.00" fill="#000000">RenderInformationBase.cpp</text>
</a>
</g>
</g>
<!-- Node14&#45;&gt;Node15 -->
<g id="edge26" class="edge">
<title>Node14&#45;&gt;Node15</title>
<path fill="none" stroke="#191970" d="M471.3485,-222.5654C526.3086,-212.2373 606.2541,-197.214 657.8205,-187.5237"/>
<polygon fill="#191970" stroke="#191970" points="470.571,-219.1501 461.3894,-224.4369 471.8638,-226.0297 470.571,-219.1501"/>
</g>
<!-- Node17&#45;&gt;Node2 -->
<g id="edge29" class="edge">
<title>Node17&#45;&gt;Node2</title>
<path fill="none" stroke="#191970" d="M937.5809,-218.8117C917.1721,-205.3376 886.4586,-185.1842 859.5,-168 839.4731,-155.2343 816.178,-140.8253 801.1558,-131.5899"/>
<polygon fill="#191970" stroke="#191970" points="935.9102,-221.9029 946.1824,-224.4979 939.7705,-216.0635 935.9102,-221.9029"/>
</g>
<!-- Node17&#45;&gt;Node15 -->
<g id="edge37" class="edge">
<title>Node17&#45;&gt;Node15</title>
<path fill="none" stroke="#191970" d="M907.5911,-222.2425C861.1678,-211.9262 794.5107,-197.1135 751.3565,-187.5237"/>
<polygon fill="#191970" stroke="#191970" points="906.9448,-225.6842 917.466,-224.4369 908.4634,-218.8508 906.9448,-225.6842"/>
</g>
<!-- Node18 -->
<g id="node18" class="node">
<title>Node18</title>
<g id="a_node18"><a xlink:href="_render_layout_plugin_8h.html" target="_top" xlink:title="Definition of RenderLayoutPlugin, the plugin class of fbc package for the Model element. ">
<polygon fill="#ffffff" stroke="#000000" points="912,-168.5 912,-187.5 1027,-187.5 1027,-168.5 912,-168.5"/>
<text text-anchor="middle" x="969.5" y="-175.5" font-family="Helvetica,sans-Serif" font-size="10.00" fill="#000000">RenderLayoutPlugin.h</text>
</a>
</g>
</g>
<!-- Node17&#45;&gt;Node18 -->
<g id="edge30" class="edge">
<title>Node17&#45;&gt;Node18</title>
<path fill="none" stroke="#191970" d="M963.689,-214.1575C965.1358,-205.155 966.7807,-194.9199 967.9503,-187.6427"/>
<polygon fill="#191970" stroke="#191970" points="960.1989,-213.8168 962.0677,-224.2455 967.1102,-214.9276 960.1989,-213.8168"/>
</g>
<!-- Node19 -->
<g id="node19" class="node">
<title>Node19</title>
<g id="a_node19"><a xlink:href="_list_of_local_render_information_8cpp.html" target="_top" xlink:title="Implementation of the ListOfLocalRenderInformation class. ">
<polygon fill="#ffffff" stroke="#000000" points="1045.5,-168.5 1045.5,-187.5 1213.5,-187.5 1213.5,-168.5 1045.5,-168.5"/>
<text text-anchor="middle" x="1129.5" y="-175.5" font-family="Helvetica,sans-Serif" font-size="10.00" fill="#000000">ListOfLocalRenderInformation.cpp</text>
</a>
</g>
</g>
<!-- Node17&#45;&gt;Node19 -->
<g id="edge35" class="edge">
<title>Node17&#45;&gt;Node19</title>
<path fill="none" stroke="#191970" d="M999.1573,-221.1905C1030.1193,-210.9309 1072.8574,-196.7691 1100.827,-187.5011"/>
<polygon fill="#191970" stroke="#191970" points="997.9437,-217.9054 989.5521,-224.3733 1000.1455,-224.5501 997.9437,-217.9054"/>
</g>
<!-- Node20 -->
<g id="node20" class="node">
<title>Node20</title>
<g id="a_node20"><a xlink:href="_local_render_information_8cpp.html" target="_top" xlink:title="Implementation of the LocalRenderInformation class. ">
<polygon fill="#ffffff" stroke="#000000" points="1231.5,-168.5 1231.5,-187.5 1373.5,-187.5 1373.5,-168.5 1231.5,-168.5"/>
<text text-anchor="middle" x="1302.5" y="-175.5" font-family="Helvetica,sans-Serif" font-size="10.00" fill="#000000">LocalRenderInformation.cpp</text>
</a>
</g>
</g>
<!-- Node17&#45;&gt;Node20 -->
<g id="edge36" class="edge">
<title>Node17&#45;&gt;Node20</title>
<path fill="none" stroke="#191970" d="M1029.1584,-222.7577C1092.2645,-212.4245 1184.789,-197.2743 1244.3376,-187.5237"/>
<polygon fill="#191970" stroke="#191970" points="1028.2063,-219.3669 1018.9033,-224.4369 1029.3375,-226.2749 1028.2063,-219.3669"/>
</g>
<!-- Node18&#45;&gt;Node2 -->
<g id="edge31" class="edge">
<title>Node18&#45;&gt;Node2</title>
<path fill="none" stroke="#191970" d="M928.2843,-165.4561C894.5084,-155.1765 847.4337,-140.8494 816.718,-131.5011"/>
<polygon fill="#191970" stroke="#191970" points="927.2834,-168.8099 937.8693,-168.3733 929.3216,-162.1132 927.2834,-168.8099"/>
</g>
<!-- Node18&#45;&gt;Node3 -->
<g id="edge33" class="edge">
<title>Node18&#45;&gt;Node3</title>
<path fill="none" stroke="#191970" d="M995.4274,-162.5977C1005.8869,-154.8639 1016.8111,-144.4704 1022.5,-132 1036.5193,-101.269 1036.3741,-86.7969 1022.5,-56 1015.3708,-40.1752 999.8089,-27.5986 987.5567,-19.623"/>
<polygon fill="#191970" stroke="#191970" points="993.1477,-159.9168 986.8758,-168.4558 997.1037,-165.6918 993.1477,-159.9168"/>
</g>
<!-- Node18&#45;&gt;Node5 -->
<g id="edge34" class="edge">
<title>Node18&#45;&gt;Node5</title>
<path fill="none" stroke="#191970" d="M981.3274,-159.114C988.1027,-145.9095 994.3758,-127.869 989.5,-112 980.6659,-83.2485 976.6453,-72.5047 951.5,-56 920.4058,-35.5906 820.1038,-21.7376 758.509,-14.9143"/>
<polygon fill="#191970" stroke="#191970" points="978.093,-157.7239 976.2248,-168.1528 984.1887,-161.1652 978.093,-157.7239"/>
</g>
<!-- Node18&#45;&gt;Node12 -->
<g id="edge32" class="edge">
<title>Node18&#45;&gt;Node12</title>
<path fill="none" stroke="#191970" d="M955.2054,-160.2112C947.6004,-150.7472 938.5462,-139.4797 932.2486,-131.6427"/>
<polygon fill="#191970" stroke="#191970" points="952.6694,-162.6428 961.6616,-168.2455 958.1259,-158.2581 952.6694,-162.6428"/>
</g>
</g>
</svg>
        <g id="navigator" transform="translate(0 0)" fill="#404254">
                <rect fill="#f2f5e9" fill-opacity="0.5" stroke="#606060" stroke-width=".5" x="0" y="0" width="60" height="60"/>
                <use id="zoomplus" xlink:href="#zoomPlus" x="17" y="9" onmousedown="handleZoom(evt,'in')"/>
                <use id="zoomminus" xlink:href="#zoomMin" x="42" y="9" onmousedown="handleZoom(evt,'out')"/>
                <use id="reset" xlink:href="#resetDef" x="30" y="36" onmousedown="handleReset()"/>
                <g id="arrowUp" xlink:href="#dirArrow" transform="translate(30 24)" onmousedown="handlePan(0,-1)">
                  <use xlink:href="#rim" fill="#404040">
                        <set attributeName="fill" to="#808080" begin="arrowUp.mouseover" end="arrowUp.mouseout"/>
                  </use>
                  <path fill="none" stroke="white" stroke-width="1.5" d="M0,-3.0v7 M-2.5,-0.5L0,-3.0L2.5,-0.5"/>
                </g>
                <g id="arrowRight" xlink:href="#dirArrow" transform="rotate(90) translate(36 -43)" onmousedown="handlePan(1,0)">
                  <use xlink:href="#rim" fill="#404040">
                        <set attributeName="fill" to="#808080" begin="arrowRight.mouseover" end="arrowRight.mouseout"/>
                  </use>
                  <path fill="none" stroke="white" stroke-width="1.5" d="M0,-3.0v7 M-2.5,-0.5L0,-3.0L2.5,-0.5"/>
                </g>
                <g id="arrowDown" xlink:href="#dirArrow" transform="rotate(180) translate(-30 -48)" onmousedown="handlePan(0,1)">
                  <use xlink:href="#rim" fill="#404040">
                        <set attributeName="fill" to="#808080" begin="arrowDown.mouseover" end="arrowDown.mouseout"/>
                  </use>
                  <path fill="none" stroke="white" stroke-width="1.5" d="M0,-3.0v7 M-2.5,-0.5L0,-3.0L2.5,-0.5"/>
                </g>
                <g id="arrowLeft" xlink:href="#dirArrow" transform="rotate(270) translate(-36 17)" onmousedown="handlePan(-1,0)">
                  <use xlink:href="#rim" fill="#404040">
                        <set attributeName="fill" to="#808080" begin="arrowLeft.mouseover" end="arrowLeft.mouseout"/>
                  </use>
                  <path fill="none" stroke="white" stroke-width="1.5" d="M0,-3.0v7 M-2.5,-0.5L0,-3.0L2.5,-0.5"/>
                </g>
        </g>
        <svg viewBox="0 0 15 15" width="100%" height="30px" preserveAspectRatio="xMaxYMin meet">
         <g id="arrow_out" transform="scale(0.3 0.3)">
          <a xlink:href="_default_values_8h__dep__incl_org.svg" target="_base">
           <rect id="button" ry="5" rx="5" y="6" x="6" height="38" width="38"
                fill="#f2f5e9" fill-opacity="0.5" stroke="#606060" stroke-width="1.0"/>
           <path id="arrow"
             d="M 11.500037,31.436501 C 11.940474,20.09759 22.043105,11.32322 32.158766,21.979434 L 37.068811,17.246167 C 37.068811,17.246167 37.088388,32 37.088388,32 L 22.160133,31.978069 C 22.160133,31.978069 26.997745,27.140456 26.997745,27.140456 C 18.528582,18.264221 13.291696,25.230495 11.500037,31.436501 z"
             style="fill:#404040;"/>
          </a>
         </g>
        </svg>
</svg>
