<?xml version="1.0" encoding="UTF-8" standalone="no"?>
<!DOCTYPE svg PUBLIC "-//W3C//DTD SVG 1.1//EN"
 "http://www.w3.org/Graphics/SVG/1.1/DTD/svg11.dtd">
<!-- Generated by graphviz version 2.40.1 (20161225.0304)
 -->
<!-- Title: FbcSpeciesPlugin.h Pages: 1 -->
<svg width="707pt" height="140pt"
 viewBox="0.00 0.00 706.50 140.00" xmlns="http://www.w3.org/2000/svg" xmlns:xlink="http://www.w3.org/1999/xlink">
<g id="graph0" class="graph" transform="scale(1 1) rotate(0) translate(4 136)">
<title>FbcSpeciesPlugin.h</title>
<polygon fill="#ffffff" stroke="transparent" points="-4,4 -4,-136 702.5,-136 702.5,4 -4,4"/>
<!-- Node1 -->
<g id="node1" class="node">
<title>Node1</title>
<polygon fill="#bfbfbf" stroke="#000000" points="443,-112.5 443,-131.5 548,-131.5 548,-112.5 443,-112.5"/>
<text text-anchor="middle" x="495.5" y="-119.5" font-family="Helvetica,sans-Serif" font-size="10.00" fill="#000000">FbcSpeciesPlugin.h</text>
</g>
<!-- Node2 -->
<g id="node2" class="node">
<title>Node2</title>
<g id="a_node2"><a xlink:href="_fbc_extension_types_8h.html" target="_top" xlink:title="Includes all SBML types of the fbc package extension in a single header file. ">
<polygon fill="#ffffff" stroke="#000000" points="316,-56.5 316,-75.5 429,-75.5 429,-56.5 316,-56.5"/>
<text text-anchor="middle" x="372.5" y="-63.5" font-family="Helvetica,sans-Serif" font-size="10.00" fill="#000000">FbcExtensionTypes.h</text>
</a>
</g>
</g>
<!-- Node1&#45;&gt;Node2 -->
<g id="edge1" class="edge">
<title>Node1&#45;&gt;Node2</title>
<path fill="none" stroke="#191970" d="M464.9935,-108.1109C442.6888,-97.9559 413.0201,-84.4482 393.3685,-75.5011"/>
<polygon fill="#191970" stroke="#191970" points="463.8041,-111.415 474.3555,-112.3733 466.7047,-105.0442 463.8041,-111.415"/>
</g>
<!-- Node8 -->
<g id="node8" class="node">
<title>Node8</title>
<g id="a_node8"><a xlink:href="_fbc_extension_8cpp.html" target="_top" xlink:title="Implementation of FbcExtension, the core module of fbc package. ">
<polygon fill="#ffffff" stroke="#000000" points="447.5,-56.5 447.5,-75.5 543.5,-75.5 543.5,-56.5 447.5,-56.5"/>
<text text-anchor="middle" x="495.5" y="-63.5" font-family="Helvetica,sans-Serif" font-size="10.00" fill="#000000">FbcExtension.cpp</text>
</a>
</g>
</g>
<!-- Node1&#45;&gt;Node8 -->
<g id="edge7" class="edge">
<title>Node1&#45;&gt;Node8</title>
<path fill="none" stroke="#191970" d="M495.5,-102.1575C495.5,-93.155 495.5,-82.9199 495.5,-75.6427"/>
<polygon fill="#191970" stroke="#191970" points="492.0001,-102.2455 495.5,-112.2455 499.0001,-102.2456 492.0001,-102.2455"/>
</g>
<!-- Node9 -->
<g id="node9" class="node">
<title>Node9</title>
<g id="a_node9"><a xlink:href="_fbc_species_plugin_8cpp.html" target="_top" xlink:title="Implementation of FbcSpeciesPlugin, the plugin class of the fbc package for the Species element...">
<polygon fill="#ffffff" stroke="#000000" points="562,-56.5 562,-75.5 677,-75.5 677,-56.5 562,-56.5"/>
<text text-anchor="middle" x="619.5" y="-63.5" font-family="Helvetica,sans-Serif" font-size="10.00" fill="#000000">FbcSpeciesPlugin.cpp</text>
</a>
</g>
</g>
<!-- Node1&#45;&gt;Node9 -->
<g id="edge8" class="edge">
<title>Node1&#45;&gt;Node9</title>
<path fill="none" stroke="#191970" d="M525.9524,-108.2473C548.4722,-98.0771 578.5617,-84.4883 598.4618,-75.5011"/>
<polygon fill="#191970" stroke="#191970" points="524.4895,-105.0675 516.8164,-112.3733 527.3706,-111.4471 524.4895,-105.0675"/>
</g>
<!-- Node3 -->
<g id="node3" class="node">
<title>Node3</title>
<g id="a_node3"><a xlink:href="_cobra_to_fbc_converter_8cpp.html" target="_top" xlink:title="Implementation of a cobra 2 fbc converter. ">
<polygon fill="#ffffff" stroke="#000000" points="0,-.5 0,-19.5 135,-19.5 135,-.5 0,-.5"/>
<text text-anchor="middle" x="67.5" y="-7.5" font-family="Helvetica,sans-Serif" font-size="10.00" fill="#000000">CobraToFbcConverter.cpp</text>
</a>
</g>
</g>
<!-- Node2&#45;&gt;Node3 -->
<g id="edge2" class="edge">
<title>Node2&#45;&gt;Node3</title>
<path fill="none" stroke="#191970" d="M310.572,-54.6296C254.3107,-44.2997 172.2572,-29.2341 119.37,-19.5237"/>
<polygon fill="#191970" stroke="#191970" points="309.9475,-58.0734 320.4152,-56.4369 311.2117,-51.1885 309.9475,-58.0734"/>
</g>
<!-- Node4 -->
<g id="node4" class="node">
<title>Node4</title>
<g id="a_node4"><a xlink:href="_fbc_to_cobra_converter_8cpp.html" target="_top" xlink:title="Implementation of a fbc 2 cobra converter. ">
<polygon fill="#ffffff" stroke="#000000" points="153,-.5 153,-19.5 288,-19.5 288,-.5 153,-.5"/>
<text text-anchor="middle" x="220.5" y="-7.5" font-family="Helvetica,sans-Serif" font-size="10.00" fill="#000000">FbcToCobraConverter.cpp</text>
</a>
</g>
</g>
<!-- Node2&#45;&gt;Node4 -->
<g id="edge3" class="edge">
<title>Node2&#45;&gt;Node4</title>
<path fill="none" stroke="#191970" d="M336.641,-52.7888C308.8877,-42.5639 271.1181,-28.6488 246.2888,-19.5011"/>
<polygon fill="#191970" stroke="#191970" points="335.7768,-56.2003 346.3703,-56.3733 338.1968,-49.6319 335.7768,-56.2003"/>
</g>
<!-- Node5 -->
<g id="node5" class="node">
<title>Node5</title>
<g id="a_node5"><a xlink:href="_fbc_v1_to_v2_converter_8cpp.html" target="_top" xlink:title="Implementation of a fbc v1 to fbc v2 converter. ">
<polygon fill="#ffffff" stroke="#000000" points="306.5,-.5 306.5,-19.5 438.5,-19.5 438.5,-.5 306.5,-.5"/>
<text text-anchor="middle" x="372.5" y="-7.5" font-family="Helvetica,sans-Serif" font-size="10.00" fill="#000000">FbcV1ToV2Converter.cpp</text>
</a>
</g>
</g>
<!-- Node2&#45;&gt;Node5 -->
<g id="edge4" class="edge">
<title>Node2&#45;&gt;Node5</title>
<path fill="none" stroke="#191970" d="M372.5,-46.1575C372.5,-37.155 372.5,-26.9199 372.5,-19.6427"/>
<polygon fill="#191970" stroke="#191970" points="369.0001,-46.2455 372.5,-56.2455 376.0001,-46.2456 369.0001,-46.2455"/>
</g>
<!-- Node6 -->
<g id="node6" class="node">
<title>Node6</title>
<g id="a_node6"><a xlink:href="_fbc_v2_to_v1_converter_8cpp.html" target="_top" xlink:title="Implementation of a fbc v2 to fbc v1 converter. ">
<polygon fill="#ffffff" stroke="#000000" points="456.5,-.5 456.5,-19.5 588.5,-19.5 588.5,-.5 456.5,-.5"/>
<text text-anchor="middle" x="522.5" y="-7.5" font-family="Helvetica,sans-Serif" font-size="10.00" fill="#000000">FbcV2ToV1Converter.cpp</text>
</a>
</g>
</g>
<!-- Node2&#45;&gt;Node6 -->
<g id="edge5" class="edge">
<title>Node2&#45;&gt;Node6</title>
<path fill="none" stroke="#191970" d="M407.8871,-52.7888C435.2753,-42.5639 472.5479,-28.6488 497.0506,-19.5011"/>
<polygon fill="#191970" stroke="#191970" points="406.4302,-49.5967 398.2859,-56.3733 408.8785,-56.1546 406.4302,-49.5967"/>
</g>
<!-- Node7 -->
<g id="node7" class="node">
<title>Node7</title>
<g id="a_node7"><a xlink:href="_fbc_validator_8cpp.html" target="_top" xlink:title="Base class for SBML Validators. ">
<polygon fill="#ffffff" stroke="#000000" points="606.5,-.5 606.5,-19.5 698.5,-19.5 698.5,-.5 606.5,-.5"/>
<text text-anchor="middle" x="652.5" y="-7.5" font-family="Helvetica,sans-Serif" font-size="10.00" fill="#000000">FbcValidator.cpp</text>
</a>
</g>
</g>
<!-- Node2&#45;&gt;Node7 -->
<g id="edge6" class="edge">
<title>Node2&#45;&gt;Node7</title>
<path fill="none" stroke="#191970" d="M430.411,-54.4178C482.5278,-43.9944 558.1108,-28.8778 606.2778,-19.2444"/>
<polygon fill="#191970" stroke="#191970" points="429.4349,-51.0436 420.3156,-56.4369 430.8078,-57.9077 429.4349,-51.0436"/>
</g>
</g>
</svg>
