<?xml version="1.0" encoding="UTF-8" standalone="no"?>
<!DOCTYPE svg PUBLIC "-//W3C//DTD SVG 1.1//EN"
 "http://www.w3.org/Graphics/SVG/1.1/DTD/svg11.dtd">
<!-- Generated by graphviz version 2.40.1 (20161225.0304)
 -->
<!-- Title: FluxBound.h Pages: 1 -->
<!--zoomable 196 -->
<svg id="main" version="1.1" xmlns="http://www.w3.org/2000/svg" xmlns:xlink="http://www.w3.org/1999/xlink" xml:space="preserve" onload="init(evt)">
<style type="text/css"><![CDATA[
.edge:hover path { stroke: red; }
.edge:hover polygon { stroke: red; fill: red; }
]]></style>
<script type="text/javascript"><![CDATA[
var edges = document.getElementsByTagName('g');
if (edges && edges.length) {
  for (var i=0;i<edges.length;i++) {
    if (edges[i].id.substr(0,4)=='edge') {
      edges[i].setAttribute('class','edge');
    }
  }
}
]]></script>
        <defs>
                <circle id="rim" cx="0" cy="0" r="7"/>
                <circle id="rim2" cx="0" cy="0" r="3.5"/>
                <g id="zoomPlus">
                        <use xlink:href="#rim" fill="#404040">
                                <set attributeName="fill" to="#808080" begin="zoomplus.mouseover" end="zoomplus.mouseout"/>
                        </use>
                        <path d="M-4,0h8M0,-4v8" fill="none" stroke="white" stroke-width="1.5" pointer-events="none"/>
                </g>
                <g id="zoomMin">
                        <use xlink:href="#rim" fill="#404040">
                                <set attributeName="fill" to="#808080" begin="zoomminus.mouseover" end="zoomminus.mouseout"/>
                        </use>
                        <path d="M-4,0h8" fill="none" stroke="white" stroke-width="1.5" pointer-events="none"/>
                </g>
                <g id="dirArrow">
                        <path fill="none" stroke="white" stroke-width="1.5" d="M0,-3.0v7 M-2.5,-0.5L0,-3.0L2.5,-0.5"/>
                </g>
               <g id="resetDef">
                       <use xlink:href="#rim2" fill="#404040">
                               <set attributeName="fill" to="#808080" begin="reset.mouseover" end="reset.mouseout"/>
                       </use>
               </g>
        </defs>

<script type="text/javascript">
var viewWidth = 884;
var viewHeight = 196;
var sectionId = 'dynsection-1';
</script>
<script xlink:href="svgpan.js"/>
<svg id="graph" class="graph">
<g id="viewport">
<title>FluxBound.h</title>
<polygon fill="#ffffff" stroke="transparent" points="-4,4 -4,-192 879.5,-192 879.5,4 -4,4"/>
<!-- Node1 -->
<g id="node1" class="node">
<title>Node1</title>
<polygon fill="#bfbfbf" stroke="#000000" points="416,-168.5 416,-187.5 475,-187.5 475,-168.5 416,-168.5"/>
<text text-anchor="middle" x="445.5" y="-175.5" font-family="Helvetica,sans-Serif" font-size="10.00" fill="#000000">FluxBound.h</text>
</g>
<!-- Node2 -->
<g id="node2" class="node">
<title>Node2</title>
<g id="a_node2"><a xlink:href="_fbc_extension_types_8h.html" target="_top" xlink:title="Includes all SBML types of the fbc package extension in a single header file. ">
<polygon fill="#ffffff" stroke="#000000" points="253,-56.5 253,-75.5 342,-75.5 342,-56.5 253,-56.5"/>
<text text-anchor="middle" x="297.5" y="-63.5" font-family="Helvetica,sans-Serif" font-size="10.00" fill="#000000">FbcExtensionTypes.h</text>
</a>
</g>
</g>
<!-- Node1&#45;&gt;Node2 -->
<g id="edge1" class="edge">
<title>Node1&#45;&gt;Node2</title>
<path fill="none" stroke="#191970" d="M430.2893,-160.6782C417.3683,-146.5658 397.8824,-126.6485 378.5,-112 359.1474,-97.3739 334.6645,-84.0949 317.7075,-75.6059"/>
<polygon fill="#191970" stroke="#191970" points="427.797,-163.1409 437.088,-168.2328 433.0002,-158.4583 427.797,-163.1409"/>
</g>
<!-- Node8 -->
<g id="node8" class="node">
<title>Node8</title>
<g id="a_node8"><a xlink:href="_fbc_model_plugin_8h.html" target="_top" xlink:title="Definition of FbcModelPlugin, the plugin class of fbc package for the Model element. ">
<polygon fill="#ffffff" stroke="#000000" points="449,-112.5 449,-131.5 526,-131.5 526,-112.5 449,-112.5"/>
<text text-anchor="middle" x="487.5" y="-119.5" font-family="Helvetica,sans-Serif" font-size="10.00" fill="#000000">FbcModelPlugin.h</text>
</a>
</g>
</g>
<!-- Node1&#45;&gt;Node8 -->
<g id="edge7" class="edge">
<title>Node1&#45;&gt;Node8</title>
<path fill="none" stroke="#191970" d="M458.8416,-160.2112C465.9396,-150.7472 474.3903,-139.4797 480.268,-131.6427"/>
<polygon fill="#191970" stroke="#191970" points="456.0159,-158.1455 452.8158,-168.2455 461.6159,-162.3455 456.0159,-158.1455"/>
</g>
<!-- Node14 -->
<g id="node14" class="node">
<title>Node14</title>
<g id="a_node14"><a xlink:href="_fbc_species_plugin_8h.html" target="_top" xlink:title="Definition of FbcSpeciesPlugin, the plugin class of the fbc package for the Species element...">
<polygon fill="#ffffff" stroke="#000000" points="286,-112.5 286,-131.5 369,-131.5 369,-112.5 286,-112.5"/>
<text text-anchor="middle" x="327.5" y="-119.5" font-family="Helvetica,sans-Serif" font-size="10.00" fill="#000000">FbcSpeciesPlugin.h</text>
</a>
</g>
</g>
<!-- Node1&#45;&gt;Node14 -->
<g id="edge14" class="edge">
<title>Node1&#45;&gt;Node14</title>
<path fill="none" stroke="#191970" d="M415.9453,-163.9741C394.5805,-153.8348 366.2884,-140.408 347.5202,-131.5011"/>
<polygon fill="#191970" stroke="#191970" points="414.6802,-167.2478 425.2151,-168.3733 417.6814,-160.9238 414.6802,-167.2478"/>
</g>
<!-- Node16 -->
<g id="node16" class="node">
<title>Node16</title>
<g id="a_node16"><a xlink:href="_flux_bound_8cpp.html" target="_top" xlink:title="Implementation of FluxBound, the SBase derived class of the fbc package. ">
<polygon fill="#ffffff" stroke="#000000" points="544,-112.5 544,-131.5 611,-131.5 611,-112.5 544,-112.5"/>
<text text-anchor="middle" x="577.5" y="-119.5" font-family="Helvetica,sans-Serif" font-size="10.00" fill="#000000">FluxBound.cpp</text>
</a>
</g>
</g>
<!-- Node1&#45;&gt;Node16 -->
<g id="edge18" class="edge">
<title>Node1&#45;&gt;Node16</title>
<path fill="none" stroke="#191970" d="M477.5965,-164.3833C501.6035,-154.1985 533.8259,-140.5284 555.1045,-131.5011"/>
<polygon fill="#191970" stroke="#191970" points="476.0305,-161.2457 468.1916,-168.3733 478.7644,-167.6897 476.0305,-161.2457"/>
</g>
<!-- Node3 -->
<g id="node3" class="node">
<title>Node3</title>
<g id="a_node3"><a xlink:href="_cobra_to_fbc_converter_8cpp.html" target="_top" xlink:title="Implementation of a cobra 2 fbc converter. ">
<polygon fill="#ffffff" stroke="#000000" points="0,-.5 0,-19.5 105,-19.5 105,-.5 0,-.5"/>
<text text-anchor="middle" x="52.5" y="-7.5" font-family="Helvetica,sans-Serif" font-size="10.00" fill="#000000">CobraToFbcConverter.cpp</text>
</a>
</g>
</g>
<!-- Node2&#45;&gt;Node3 -->
<g id="edge2" class="edge">
<title>Node2&#45;&gt;Node3</title>
<path fill="none" stroke="#191970" d="M245.7767,-54.1775C200.6555,-43.8641 136.0335,-29.0934 94.1661,-19.5237"/>
<polygon fill="#191970" stroke="#191970" points="245.1329,-57.6206 255.6614,-56.4369 246.6927,-50.7966 245.1329,-57.6206"/>
</g>
<!-- Node4 -->
<g id="node4" class="node">
<title>Node4</title>
<g id="a_node4"><a xlink:href="_fbc_to_cobra_converter_8cpp.html" target="_top" xlink:title="Implementation of a fbc 2 cobra converter. ">
<polygon fill="#ffffff" stroke="#000000" points="123,-.5 123,-19.5 228,-19.5 228,-.5 123,-.5"/>
<text text-anchor="middle" x="175.5" y="-7.5" font-family="Helvetica,sans-Serif" font-size="10.00" fill="#000000">FbcToCobraConverter.cpp</text>
</a>
</g>
</g>
<!-- Node2&#45;&gt;Node4 -->
<g id="edge3" class="edge">
<title>Node2&#45;&gt;Node4</title>
<path fill="none" stroke="#191970" d="M267.2416,-52.1109C245.1181,-41.9559 215.6906,-28.4482 196.1989,-19.5011"/>
<polygon fill="#191970" stroke="#191970" points="265.979,-55.3824 276.5275,-56.3733 268.8993,-49.0206 265.979,-55.3824"/>
</g>
<!-- Node5 -->
<g id="node5" class="node">
<title>Node5</title>
<g id="a_node5"><a xlink:href="_fbc_v1_to_v2_converter_8cpp.html" target="_top" xlink:title="Implementation of a fbc v1 to fbc v2 converter. ">
<polygon fill="#ffffff" stroke="#000000" points="246,-.5 246,-19.5 349,-19.5 349,-.5 246,-.5"/>
<text text-anchor="middle" x="297.5" y="-7.5" font-family="Helvetica,sans-Serif" font-size="10.00" fill="#000000">FbcV1ToV2Converter.cpp</text>
</a>
</g>
</g>
<!-- Node2&#45;&gt;Node5 -->
<g id="edge4" class="edge">
<title>Node2&#45;&gt;Node5</title>
<path fill="none" stroke="#191970" d="M297.5,-46.1575C297.5,-37.155 297.5,-26.9199 297.5,-19.6427"/>
<polygon fill="#191970" stroke="#191970" points="294.0001,-46.2455 297.5,-56.2455 301.0001,-46.2456 294.0001,-46.2455"/>
</g>
<!-- Node6 -->
<g id="node6" class="node">
<title>Node6</title>
<g id="a_node6"><a xlink:href="_fbc_v2_to_v1_converter_8cpp.html" target="_top" xlink:title="Implementation of a fbc v2 to fbc v1 converter. ">
<polygon fill="#ffffff" stroke="#000000" points="367,-.5 367,-19.5 470,-19.5 470,-.5 367,-.5"/>
<text text-anchor="middle" x="418.5" y="-7.5" font-family="Helvetica,sans-Serif" font-size="10.00" fill="#000000">FbcV2ToV1Converter.cpp</text>
</a>
</g>
</g>
<!-- Node2&#45;&gt;Node6 -->
<g id="edge5" class="edge">
<title>Node2&#45;&gt;Node6</title>
<path fill="none" stroke="#191970" d="M327.5104,-52.1109C349.4525,-41.9559 378.6388,-28.4482 397.9708,-19.5011"/>
<polygon fill="#191970" stroke="#191970" points="325.9058,-48.9968 318.3006,-56.3733 328.8459,-55.3494 325.9058,-48.9968"/>
</g>
<!-- Node7 -->
<g id="node7" class="node">
<title>Node7</title>
<g id="a_node7"><a xlink:href="_fbc_validator_8cpp.html" target="_top" xlink:title="Base class for SBML Validators. ">
<polygon fill="#ffffff" stroke="#000000" points="488,-.5 488,-19.5 561,-19.5 561,-.5 488,-.5"/>
<text text-anchor="middle" x="524.5" y="-7.5" font-family="Helvetica,sans-Serif" font-size="10.00" fill="#000000">FbcValidator.cpp</text>
</a>
</g>
</g>
<!-- Node2&#45;&gt;Node7 -->
<g id="edge6" class="edge">
<title>Node2&#45;&gt;Node7</title>
<path fill="none" stroke="#191970" d="M346.1035,-54.0097C388.5613,-43.5355 449.2662,-28.5599 487.7748,-19.06"/>
<polygon fill="#191970" stroke="#191970" points="345.1354,-50.6435 336.2648,-56.4369 346.812,-57.4398 345.1354,-50.6435"/>
</g>
<!-- Node8&#45;&gt;Node2 -->
<g id="edge8" class="edge">
<title>Node8&#45;&gt;Node2</title>
<path fill="none" stroke="#191970" d="M444.9403,-109.4561C410.0631,-99.1765 361.4532,-84.8494 329.736,-75.5011"/>
<polygon fill="#191970" stroke="#191970" points="444.2563,-112.9033 454.8378,-112.3733 446.2353,-106.1888 444.2563,-112.9033"/>
</g>
<!-- Node9 -->
<g id="node9" class="node">
<title>Node9</title>
<g id="a_node9"><a xlink:href="_fbc_extension_8cpp.html" target="_top" xlink:title="Implementation of FbcExtension, the core module of fbc package. ">
<polygon fill="#ffffff" stroke="#000000" points="360.5,-56.5 360.5,-75.5 436.5,-75.5 436.5,-56.5 360.5,-56.5"/>
<text text-anchor="middle" x="398.5" y="-63.5" font-family="Helvetica,sans-Serif" font-size="10.00" fill="#000000">FbcExtension.cpp</text>
</a>
</g>
</g>
<!-- Node8&#45;&gt;Node9 -->
<g id="edge9" class="edge">
<title>Node8&#45;&gt;Node9</title>
<path fill="none" stroke="#191970" d="M463.2936,-106.769C447.5225,-96.8456 427.424,-84.1994 413.825,-75.6427"/>
<polygon fill="#191970" stroke="#191970" points="461.6695,-109.8823 471.9974,-112.2455 465.3974,-103.9575 461.6695,-109.8823"/>
</g>
<!-- Node10 -->
<g id="node10" class="node">
<title>Node10</title>
<g id="a_node10"><a xlink:href="_fbc_model_plugin_8cpp.html" target="_top" xlink:title="Implementation of FbcModelPlugin, the plugin class of the fbc package for the Model element...">
<polygon fill="#ffffff" stroke="#000000" points="791.5,-56.5 791.5,-75.5 875.5,-75.5 875.5,-56.5 791.5,-56.5"/>
<text text-anchor="middle" x="833.5" y="-63.5" font-family="Helvetica,sans-Serif" font-size="10.00" fill="#000000">FbcModelPlugin.cpp</text>
</a>
</g>
</g>
<!-- Node8&#45;&gt;Node10 -->
<g id="edge10" class="edge">
<title>Node8&#45;&gt;Node10</title>
<path fill="none" stroke="#191970" d="M536.0893,-111.9868C646.4158,-92.7747 676.2431,-94.1496 782.5,-76 785.3461,-75.5139 788.2775,-74.993 791.2285,-74.4537"/>
<polygon fill="#191970" stroke="#191970" points="535.4762,-108.5409 526.2336,-113.7202 536.6888,-115.4351 535.4762,-108.5409"/>
</g>
<!-- Node11 -->
<g id="node11" class="node">
<title>Node11</title>
<g id="a_node11"><a xlink:href="_fbc_association_8cpp.html" target="_top" xlink:title="Implementation of the FbcAssociation class. ">
<polygon fill="#ffffff" stroke="#000000" points="454.5,-56.5 454.5,-75.5 536.5,-75.5 536.5,-56.5 454.5,-56.5"/>
<text text-anchor="middle" x="495.5" y="-63.5" font-family="Helvetica,sans-Serif" font-size="10.00" fill="#000000">FbcAssociation.cpp</text>
</a>
</g>
</g>
<!-- Node8&#45;&gt;Node11 -->
<g id="edge11" class="edge">
<title>Node8&#45;&gt;Node11</title>
<path fill="none" stroke="#191970" d="M490.3346,-102.1575C491.6207,-93.155 493.0829,-82.9199 494.1225,-75.6427"/>
<polygon fill="#191970" stroke="#191970" points="486.843,-101.851 488.8935,-112.2455 493.7726,-102.8411 486.843,-101.851"/>
</g>
<!-- Node12 -->
<g id="node12" class="node">
<title>Node12</title>
<g id="a_node12"><a xlink:href="_gene_product_association_8cpp.html" target="_top" xlink:title="Implementation of the GeneProductAssociation class. ">
<polygon fill="#ffffff" stroke="#000000" points="555,-56.5 555,-75.5 668,-75.5 668,-56.5 555,-56.5"/>
<text text-anchor="middle" x="611.5" y="-63.5" font-family="Helvetica,sans-Serif" font-size="10.00" fill="#000000">GeneProductAssociation.cpp</text>
</a>
</g>
</g>
<!-- Node8&#45;&gt;Node12 -->
<g id="edge12" class="edge">
<title>Node8&#45;&gt;Node12</title>
<path fill="none" stroke="#191970" d="M517.9524,-108.2473C540.4722,-98.0771 570.5617,-84.4883 590.4618,-75.5011"/>
<polygon fill="#191970" stroke="#191970" points="516.4895,-105.0675 508.8164,-112.3733 519.3706,-111.4471 516.4895,-105.0675"/>
</g>
<!-- Node13 -->
<g id="node13" class="node">
<title>Node13</title>
<g id="a_node13"><a xlink:href="_gene_product_ref_8cpp.html" target="_top" xlink:title="Implementation of the GeneProductRef class. ">
<polygon fill="#ffffff" stroke="#000000" points="686,-56.5 686,-75.5 773,-75.5 773,-56.5 686,-56.5"/>
<text text-anchor="middle" x="729.5" y="-63.5" font-family="Helvetica,sans-Serif" font-size="10.00" fill="#000000">GeneProductRef.cpp</text>
</a>
</g>
</g>
<!-- Node8&#45;&gt;Node13 -->
<g id="edge13" class="edge">
<title>Node8&#45;&gt;Node13</title>
<path fill="none" stroke="#191970" d="M536.1369,-110.7452C580.7348,-100.425 646.0636,-85.3076 688.1887,-75.5596"/>
<polygon fill="#191970" stroke="#191970" points="535.0667,-107.4003 526.1132,-113.0647 536.6449,-114.2201 535.0667,-107.4003"/>
</g>
<!-- Node14&#45;&gt;Node2 -->
<g id="edge15" class="edge">
<title>Node14&#45;&gt;Node2</title>
<path fill="none" stroke="#191970" d="M317.502,-103.3372C312.5324,-94.0605 306.7356,-83.2398 302.6657,-75.6427"/>
<polygon fill="#191970" stroke="#191970" points="314.4669,-105.0835 322.2744,-112.2455 320.6373,-101.7779 314.4669,-105.0835"/>
</g>
<!-- Node14&#45;&gt;Node9 -->
<g id="edge16" class="edge">
<title>Node14&#45;&gt;Node9</title>
<path fill="none" stroke="#191970" d="M347.877,-105.928C360.2871,-96.1397 375.73,-83.9595 386.2745,-75.6427"/>
<polygon fill="#191970" stroke="#191970" points="345.5514,-103.3046 339.8673,-112.2455 349.8864,-108.8007 345.5514,-103.3046"/>
</g>
<!-- Node15 -->
<g id="node15" class="node">
<title>Node15</title>
<g id="a_node15"><a xlink:href="_fbc_species_plugin_8cpp.html" target="_top" xlink:title="Implementation of FbcSpeciesPlugin, the plugin class of the fbc package for the Species element...">
<polygon fill="#ffffff" stroke="#000000" points="144,-56.5 144,-75.5 235,-75.5 235,-56.5 144,-56.5"/>
<text text-anchor="middle" x="189.5" y="-63.5" font-family="Helvetica,sans-Serif" font-size="10.00" fill="#000000">FbcSpeciesPlugin.cpp</text>
</a>
</g>
</g>
<!-- Node14&#45;&gt;Node15 -->
<g id="edge17" class="edge">
<title>Node14&#45;&gt;Node15</title>
<path fill="none" stroke="#191970" d="M294.2787,-108.5189C269.146,-98.3201 235.2582,-84.5685 212.9135,-75.5011"/>
<polygon fill="#191970" stroke="#191970" points="293.1947,-111.8562 303.777,-112.3733 295.8269,-105.3699 293.1947,-111.8562"/>
</g>
</g>
</svg>
        <g id="navigator" transform="translate(0 0)" fill="#404254">
                <rect fill="#f2f5e9" fill-opacity="0.5" stroke="#606060" stroke-width=".5" x="0" y="0" width="60" height="60"/>
                <use id="zoomplus" xlink:href="#zoomPlus" x="17" y="9" onmousedown="handleZoom(evt,'in')"/>
                <use id="zoomminus" xlink:href="#zoomMin" x="42" y="9" onmousedown="handleZoom(evt,'out')"/>
                <use id="reset" xlink:href="#resetDef" x="30" y="36" onmousedown="handleReset()"/>
                <g id="arrowUp" xlink:href="#dirArrow" transform="translate(30 24)" onmousedown="handlePan(0,-1)">
                  <use xlink:href="#rim" fill="#404040">
                        <set attributeName="fill" to="#808080" begin="arrowUp.mouseover" end="arrowUp.mouseout"/>
                  </use>
                  <path fill="none" stroke="white" stroke-width="1.5" d="M0,-3.0v7 M-2.5,-0.5L0,-3.0L2.5,-0.5"/>
                </g>
                <g id="arrowRight" xlink:href="#dirArrow" transform="rotate(90) translate(36 -43)" onmousedown="handlePan(1,0)">
                  <use xlink:href="#rim" fill="#404040">
                        <set attributeName="fill" to="#808080" begin="arrowRight.mouseover" end="arrowRight.mouseout"/>
                  </use>
                  <path fill="none" stroke="white" stroke-width="1.5" d="M0,-3.0v7 M-2.5,-0.5L0,-3.0L2.5,-0.5"/>
                </g>
                <g id="arrowDown" xlink:href="#dirArrow" transform="rotate(180) translate(-30 -48)" onmousedown="handlePan(0,1)">
                  <use xlink:href="#rim" fill="#404040">
                        <set attributeName="fill" to="#808080" begin="arrowDown.mouseover" end="arrowDown.mouseout"/>
                  </use>
                  <path fill="none" stroke="white" stroke-width="1.5" d="M0,-3.0v7 M-2.5,-0.5L0,-3.0L2.5,-0.5"/>
                </g>
                <g id="arrowLeft" xlink:href="#dirArrow" transform="rotate(270) translate(-36 17)" onmousedown="handlePan(-1,0)">
                  <use xlink:href="#rim" fill="#404040">
                        <set attributeName="fill" to="#808080" begin="arrowLeft.mouseover" end="arrowLeft.mouseout"/>
                  </use>
                  <path fill="none" stroke="white" stroke-width="1.5" d="M0,-3.0v7 M-2.5,-0.5L0,-3.0L2.5,-0.5"/>
                </g>
        </g>
        <svg viewBox="0 0 15 15" width="100%" height="30px" preserveAspectRatio="xMaxYMin meet">
         <g id="arrow_out" transform="scale(0.3 0.3)">
          <a xlink:href="_flux_bound_8h__dep__incl_org.svg" target="_base">
           <rect id="button" ry="5" rx="5" y="6" x="6" height="38" width="38"
                fill="#f2f5e9" fill-opacity="0.5" stroke="#606060" stroke-width="1.0"/>
           <path id="arrow"
             d="M 11.500037,31.436501 C 11.940474,20.09759 22.043105,11.32322 32.158766,21.979434 L 37.068811,17.246167 C 37.068811,17.246167 37.088388,32 37.088388,32 L 22.160133,31.978069 C 22.160133,31.978069 26.997745,27.140456 26.997745,27.140456 C 18.528582,18.264221 13.291696,25.230495 11.500037,31.436501 z"
             style="fill:#404040;"/>
          </a>
         </g>
        </svg>
</svg>
