<?xml version="1.0" encoding="UTF-8" standalone="no"?>
<!DOCTYPE svg PUBLIC "-//W3C//DTD SVG 1.1//EN"
 "http://www.w3.org/Graphics/SVG/1.1/DTD/svg11.dtd">
<!-- Generated by graphviz version 2.40.1 (20161225.0304)
 -->
<!-- Title: FluxObjective.h Pages: 1 -->
<!--zoomable 252 -->
<svg id="main" version="1.1" xmlns="http://www.w3.org/2000/svg" xmlns:xlink="http://www.w3.org/1999/xlink" xml:space="preserve" onload="init(evt)">
<style type="text/css"><![CDATA[
.edge:hover path { stroke: red; }
.edge:hover polygon { stroke: red; fill: red; }
]]></style>
<script type="text/javascript"><![CDATA[
var edges = document.getElementsByTagName('g');
if (edges && edges.length) {
  for (var i=0;i<edges.length;i++) {
    if (edges[i].id.substr(0,4)=='edge') {
      edges[i].setAttribute('class','edge');
    }
  }
}
]]></script>
        <defs>
                <circle id="rim" cx="0" cy="0" r="7"/>
                <circle id="rim2" cx="0" cy="0" r="3.5"/>
                <g id="zoomPlus">
                        <use xlink:href="#rim" fill="#404040">
                                <set attributeName="fill" to="#808080" begin="zoomplus.mouseover" end="zoomplus.mouseout"/>
                        </use>
                        <path d="M-4,0h8M0,-4v8" fill="none" stroke="white" stroke-width="1.5" pointer-events="none"/>
                </g>
                <g id="zoomMin">
                        <use xlink:href="#rim" fill="#404040">
                                <set attributeName="fill" to="#808080" begin="zoomminus.mouseover" end="zoomminus.mouseout"/>
                        </use>
                        <path d="M-4,0h8" fill="none" stroke="white" stroke-width="1.5" pointer-events="none"/>
                </g>
                <g id="dirArrow">
                        <path fill="none" stroke="white" stroke-width="1.5" d="M0,-3.0v7 M-2.5,-0.5L0,-3.0L2.5,-0.5"/>
                </g>
               <g id="resetDef">
                       <use xlink:href="#rim2" fill="#404040">
                               <set attributeName="fill" to="#808080" begin="reset.mouseover" end="reset.mouseout"/>
                       </use>
               </g>
        </defs>

<script type="text/javascript">
var viewWidth = 993;
var viewHeight = 252;
var sectionId = 'dynsection-1';
</script>
<script xlink:href="svgpan.js"/>
<svg id="graph" class="graph">
<g id="viewport">
<title>FluxObjective.h</title>
<polygon fill="#ffffff" stroke="transparent" points="-4,4 -4,-248 988.5,-248 988.5,4 -4,4"/>
<!-- Node1 -->
<g id="node1" class="node">
<title>Node1</title>
<polygon fill="#bfbfbf" stroke="#000000" points="341.5,-224.5 341.5,-243.5 409.5,-243.5 409.5,-224.5 341.5,-224.5"/>
<text text-anchor="middle" x="375.5" y="-231.5" font-family="Helvetica,sans-Serif" font-size="10.00" fill="#000000">FluxObjective.h</text>
</g>
<!-- Node2 -->
<g id="node2" class="node">
<title>Node2</title>
<g id="a_node2"><a xlink:href="_fbc_extension_types_8h.html" target="_top" xlink:title="Includes all SBML types of the fbc package extension in a single header file. ">
<polygon fill="#ffffff" stroke="#000000" points="253,-56.5 253,-75.5 342,-75.5 342,-56.5 253,-56.5"/>
<text text-anchor="middle" x="297.5" y="-63.5" font-family="Helvetica,sans-Serif" font-size="10.00" fill="#000000">FbcExtensionTypes.h</text>
</a>
</g>
</g>
<!-- Node1&#45;&gt;Node2 -->
<g id="edge1" class="edge">
<title>Node1&#45;&gt;Node2</title>
<path fill="none" stroke="#191970" d="M352.1694,-218.4394C328.0053,-200.7701 291.6968,-169.4769 276.5,-132 268.5474,-112.3881 281.4554,-88.5473 290.2995,-75.562"/>
<polygon fill="#191970" stroke="#191970" points="350.2791,-221.3896 360.4609,-224.319 354.3282,-215.6795 350.2791,-221.3896"/>
</g>
<!-- Node8 -->
<g id="node8" class="node">
<title>Node8</title>
<g id="a_node8"><a xlink:href="_flux_objective_8cpp.html" target="_top" xlink:title="Implementation of the FluxObjective class. ">
<polygon fill="#ffffff" stroke="#000000" points="420.5,-168.5 420.5,-187.5 496.5,-187.5 496.5,-168.5 420.5,-168.5"/>
<text text-anchor="middle" x="458.5" y="-175.5" font-family="Helvetica,sans-Serif" font-size="10.00" fill="#000000">FluxObjective.cpp</text>
</a>
</g>
</g>
<!-- Node1&#45;&gt;Node8 -->
<g id="edge7" class="edge">
<title>Node1&#45;&gt;Node8</title>
<path fill="none" stroke="#191970" d="M398.488,-218.49C413.1322,-208.6096 431.6444,-196.1194 444.2082,-187.6427"/>
<polygon fill="#191970" stroke="#191970" points="396.2896,-215.7511 389.9575,-224.2455 400.2047,-221.5539 396.2896,-215.7511"/>
</g>
<!-- Node9 -->
<g id="node9" class="node">
<title>Node9</title>
<g id="a_node9"><a xlink:href="_objective_8h.html" target="_top" xlink:title="Definition of Objective, the SBase derived class of the fbc package. ">
<polygon fill="#ffffff" stroke="#000000" points="348.5,-168.5 348.5,-187.5 402.5,-187.5 402.5,-168.5 348.5,-168.5"/>
<text text-anchor="middle" x="375.5" y="-175.5" font-family="Helvetica,sans-Serif" font-size="10.00" fill="#000000">Objective.h</text>
</a>
</g>
</g>
<!-- Node1&#45;&gt;Node9 -->
<g id="edge8" class="edge">
<title>Node1&#45;&gt;Node9</title>
<path fill="none" stroke="#191970" d="M375.5,-214.1575C375.5,-205.155 375.5,-194.9199 375.5,-187.6427"/>
<polygon fill="#191970" stroke="#191970" points="372.0001,-214.2455 375.5,-224.2455 379.0001,-214.2456 372.0001,-214.2455"/>
</g>
<!-- Node3 -->
<g id="node3" class="node">
<title>Node3</title>
<g id="a_node3"><a xlink:href="_cobra_to_fbc_converter_8cpp.html" target="_top" xlink:title="Implementation of a cobra 2 fbc converter. ">
<polygon fill="#ffffff" stroke="#000000" points="0,-.5 0,-19.5 105,-19.5 105,-.5 0,-.5"/>
<text text-anchor="middle" x="52.5" y="-7.5" font-family="Helvetica,sans-Serif" font-size="10.00" fill="#000000">CobraToFbcConverter.cpp</text>
</a>
</g>
</g>
<!-- Node2&#45;&gt;Node3 -->
<g id="edge2" class="edge">
<title>Node2&#45;&gt;Node3</title>
<path fill="none" stroke="#191970" d="M245.7767,-54.1775C200.6555,-43.8641 136.0335,-29.0934 94.1661,-19.5237"/>
<polygon fill="#191970" stroke="#191970" points="245.1329,-57.6206 255.6614,-56.4369 246.6927,-50.7966 245.1329,-57.6206"/>
</g>
<!-- Node4 -->
<g id="node4" class="node">
<title>Node4</title>
<g id="a_node4"><a xlink:href="_fbc_to_cobra_converter_8cpp.html" target="_top" xlink:title="Implementation of a fbc 2 cobra converter. ">
<polygon fill="#ffffff" stroke="#000000" points="123,-.5 123,-19.5 228,-19.5 228,-.5 123,-.5"/>
<text text-anchor="middle" x="175.5" y="-7.5" font-family="Helvetica,sans-Serif" font-size="10.00" fill="#000000">FbcToCobraConverter.cpp</text>
</a>
</g>
</g>
<!-- Node2&#45;&gt;Node4 -->
<g id="edge3" class="edge">
<title>Node2&#45;&gt;Node4</title>
<path fill="none" stroke="#191970" d="M267.2416,-52.1109C245.1181,-41.9559 215.6906,-28.4482 196.1989,-19.5011"/>
<polygon fill="#191970" stroke="#191970" points="265.979,-55.3824 276.5275,-56.3733 268.8993,-49.0206 265.979,-55.3824"/>
</g>
<!-- Node5 -->
<g id="node5" class="node">
<title>Node5</title>
<g id="a_node5"><a xlink:href="_fbc_v1_to_v2_converter_8cpp.html" target="_top" xlink:title="Implementation of a fbc v1 to fbc v2 converter. ">
<polygon fill="#ffffff" stroke="#000000" points="246,-.5 246,-19.5 349,-19.5 349,-.5 246,-.5"/>
<text text-anchor="middle" x="297.5" y="-7.5" font-family="Helvetica,sans-Serif" font-size="10.00" fill="#000000">FbcV1ToV2Converter.cpp</text>
</a>
</g>
</g>
<!-- Node2&#45;&gt;Node5 -->
<g id="edge4" class="edge">
<title>Node2&#45;&gt;Node5</title>
<path fill="none" stroke="#191970" d="M297.5,-46.1575C297.5,-37.155 297.5,-26.9199 297.5,-19.6427"/>
<polygon fill="#191970" stroke="#191970" points="294.0001,-46.2455 297.5,-56.2455 301.0001,-46.2456 294.0001,-46.2455"/>
</g>
<!-- Node6 -->
<g id="node6" class="node">
<title>Node6</title>
<g id="a_node6"><a xlink:href="_fbc_v2_to_v1_converter_8cpp.html" target="_top" xlink:title="Implementation of a fbc v2 to fbc v1 converter. ">
<polygon fill="#ffffff" stroke="#000000" points="367,-.5 367,-19.5 470,-19.5 470,-.5 367,-.5"/>
<text text-anchor="middle" x="418.5" y="-7.5" font-family="Helvetica,sans-Serif" font-size="10.00" fill="#000000">FbcV2ToV1Converter.cpp</text>
</a>
</g>
</g>
<!-- Node2&#45;&gt;Node6 -->
<g id="edge5" class="edge">
<title>Node2&#45;&gt;Node6</title>
<path fill="none" stroke="#191970" d="M327.5104,-52.1109C349.4525,-41.9559 378.6388,-28.4482 397.9708,-19.5011"/>
<polygon fill="#191970" stroke="#191970" points="325.9058,-48.9968 318.3006,-56.3733 328.8459,-55.3494 325.9058,-48.9968"/>
</g>
<!-- Node7 -->
<g id="node7" class="node">
<title>Node7</title>
<g id="a_node7"><a xlink:href="_fbc_validator_8cpp.html" target="_top" xlink:title="Base class for SBML Validators. ">
<polygon fill="#ffffff" stroke="#000000" points="488,-.5 488,-19.5 561,-19.5 561,-.5 488,-.5"/>
<text text-anchor="middle" x="524.5" y="-7.5" font-family="Helvetica,sans-Serif" font-size="10.00" fill="#000000">FbcValidator.cpp</text>
</a>
</g>
</g>
<!-- Node2&#45;&gt;Node7 -->
<g id="edge6" class="edge">
<title>Node2&#45;&gt;Node7</title>
<path fill="none" stroke="#191970" d="M346.1035,-54.0097C388.5613,-43.5355 449.2662,-28.5599 487.7748,-19.06"/>
<polygon fill="#191970" stroke="#191970" points="345.1354,-50.6435 336.2648,-56.4369 346.812,-57.4398 345.1354,-50.6435"/>
</g>
<!-- Node9&#45;&gt;Node2 -->
<g id="edge9" class="edge">
<title>Node9&#45;&gt;Node2</title>
<path fill="none" stroke="#191970" d="M373.1142,-158.2802C370.6859,-144.3913 365.8792,-125.8744 356.5,-112 345.9526,-96.3974 328.4253,-83.7121 315.2087,-75.6449"/>
<polygon fill="#191970" stroke="#191970" points="369.6636,-158.8716 374.5937,-168.2495 376.5877,-157.844 369.6636,-158.8716"/>
</g>
<!-- Node10 -->
<g id="node10" class="node">
<title>Node10</title>
<g id="a_node10"><a xlink:href="_fbc_model_plugin_8h.html" target="_top" xlink:title="Definition of FbcModelPlugin, the plugin class of fbc package for the Model element. ">
<polygon fill="#ffffff" stroke="#000000" points="566,-112.5 566,-131.5 643,-131.5 643,-112.5 566,-112.5"/>
<text text-anchor="middle" x="604.5" y="-119.5" font-family="Helvetica,sans-Serif" font-size="10.00" fill="#000000">FbcModelPlugin.h</text>
</a>
</g>
</g>
<!-- Node9&#45;&gt;Node10 -->
<g id="edge10" class="edge">
<title>Node9&#45;&gt;Node10</title>
<path fill="none" stroke="#191970" d="M412.4438,-167.8203C471.346,-152.7168 528.9733,-139.2339 565.9473,-130.7469"/>
<polygon fill="#191970" stroke="#191970" points="411.4084,-164.4727 402.598,-170.3572 413.155,-171.2513 411.4084,-164.4727"/>
</g>
<!-- Node16 -->
<g id="node16" class="node">
<title>Node16</title>
<g id="a_node16"><a xlink:href="_fbc_species_plugin_8h.html" target="_top" xlink:title="Definition of FbcSpeciesPlugin, the plugin class of the fbc package for the Species element...">
<polygon fill="#ffffff" stroke="#000000" points="404,-112.5 404,-131.5 487,-131.5 487,-112.5 404,-112.5"/>
<text text-anchor="middle" x="445.5" y="-119.5" font-family="Helvetica,sans-Serif" font-size="10.00" fill="#000000">FbcSpeciesPlugin.h</text>
</a>
</g>
</g>
<!-- Node9&#45;&gt;Node16 -->
<g id="edge17" class="edge">
<title>Node9&#45;&gt;Node16</title>
<path fill="none" stroke="#191970" d="M395.59,-161.928C407.8253,-152.1397 423.0507,-139.9595 433.4467,-131.6427"/>
<polygon fill="#191970" stroke="#191970" points="393.3153,-159.2655 387.6931,-168.2455 397.6882,-164.7316 393.3153,-159.2655"/>
</g>
<!-- Node18 -->
<g id="node18" class="node">
<title>Node18</title>
<g id="a_node18"><a xlink:href="_objective_8cpp.html" target="_top" xlink:title="Implementation of the Objective class. ">
<polygon fill="#ffffff" stroke="#000000" points="285.5,-112.5 285.5,-131.5 347.5,-131.5 347.5,-112.5 285.5,-112.5"/>
<text text-anchor="middle" x="316.5" y="-119.5" font-family="Helvetica,sans-Serif" font-size="10.00" fill="#000000">Objective.cpp</text>
</a>
</g>
</g>
<!-- Node9&#45;&gt;Node18 -->
<g id="edge21" class="edge">
<title>Node9&#45;&gt;Node18</title>
<path fill="none" stroke="#191970" d="M357.9693,-161.3607C347.7623,-151.6727 335.2531,-139.7995 326.6592,-131.6427"/>
<polygon fill="#191970" stroke="#191970" points="355.5604,-163.8998 365.223,-168.2455 360.3794,-158.8227 355.5604,-163.8998"/>
</g>
<!-- Node10&#45;&gt;Node2 -->
<g id="edge11" class="edge">
<title>Node10&#45;&gt;Node2</title>
<path fill="none" stroke="#191970" d="M555.6446,-113.2617C504.4878,-104.0862 421.8234,-89.1868 350.5,-76 347.7377,-75.4893 344.895,-74.9609 342.0286,-74.4261"/>
<polygon fill="#191970" stroke="#191970" points="555.2944,-116.7547 565.7551,-115.0742 556.5296,-109.8645 555.2944,-116.7547"/>
</g>
<!-- Node11 -->
<g id="node11" class="node">
<title>Node11</title>
<g id="a_node11"><a xlink:href="_fbc_extension_8cpp.html" target="_top" xlink:title="Implementation of FbcExtension, the core module of fbc package. ">
<polygon fill="#ffffff" stroke="#000000" points="469.5,-56.5 469.5,-75.5 545.5,-75.5 545.5,-56.5 469.5,-56.5"/>
<text text-anchor="middle" x="507.5" y="-63.5" font-family="Helvetica,sans-Serif" font-size="10.00" fill="#000000">FbcExtension.cpp</text>
</a>
</g>
</g>
<!-- Node10&#45;&gt;Node11 -->
<g id="edge12" class="edge">
<title>Node10&#45;&gt;Node11</title>
<path fill="none" stroke="#191970" d="M578.5984,-107.0465C561.3391,-97.0824 539.1624,-84.2794 524.2025,-75.6427"/>
<polygon fill="#191970" stroke="#191970" points="577.1936,-110.2768 587.6039,-112.2455 580.6935,-104.2146 577.1936,-110.2768"/>
</g>
<!-- Node12 -->
<g id="node12" class="node">
<title>Node12</title>
<g id="a_node12"><a xlink:href="_fbc_model_plugin_8cpp.html" target="_top" xlink:title="Implementation of FbcModelPlugin, the plugin class of the fbc package for the Model element...">
<polygon fill="#ffffff" stroke="#000000" points="900.5,-56.5 900.5,-75.5 984.5,-75.5 984.5,-56.5 900.5,-56.5"/>
<text text-anchor="middle" x="942.5" y="-63.5" font-family="Helvetica,sans-Serif" font-size="10.00" fill="#000000">FbcModelPlugin.cpp</text>
</a>
</g>
</g>
<!-- Node10&#45;&gt;Node12 -->
<g id="edge13" class="edge">
<title>Node10&#45;&gt;Node12</title>
<path fill="none" stroke="#191970" d="M653.2952,-114.7068C710.471,-106.0388 808.0166,-90.8703 891.5,-76 894.4314,-75.4779 897.4545,-74.9242 900.4969,-74.3557"/>
<polygon fill="#191970" stroke="#191970" points="652.4658,-111.2923 643.1015,-116.2481 653.5124,-118.2136 652.4658,-111.2923"/>
</g>
<!-- Node13 -->
<g id="node13" class="node">
<title>Node13</title>
<g id="a_node13"><a xlink:href="_fbc_association_8cpp.html" target="_top" xlink:title="Implementation of the FbcAssociation class. ">
<polygon fill="#ffffff" stroke="#000000" points="563.5,-56.5 563.5,-75.5 645.5,-75.5 645.5,-56.5 563.5,-56.5"/>
<text text-anchor="middle" x="604.5" y="-63.5" font-family="Helvetica,sans-Serif" font-size="10.00" fill="#000000">FbcAssociation.cpp</text>
</a>
</g>
</g>
<!-- Node10&#45;&gt;Node13 -->
<g id="edge14" class="edge">
<title>Node10&#45;&gt;Node13</title>
<path fill="none" stroke="#191970" d="M604.5,-102.1575C604.5,-93.155 604.5,-82.9199 604.5,-75.6427"/>
<polygon fill="#191970" stroke="#191970" points="601.0001,-102.2455 604.5,-112.2455 608.0001,-102.2456 601.0001,-102.2455"/>
</g>
<!-- Node14 -->
<g id="node14" class="node">
<title>Node14</title>
<g id="a_node14"><a xlink:href="_gene_product_association_8cpp.html" target="_top" xlink:title="Implementation of the GeneProductAssociation class. ">
<polygon fill="#ffffff" stroke="#000000" points="664,-56.5 664,-75.5 777,-75.5 777,-56.5 664,-56.5"/>
<text text-anchor="middle" x="720.5" y="-63.5" font-family="Helvetica,sans-Serif" font-size="10.00" fill="#000000">GeneProductAssociation.cpp</text>
</a>
</g>
</g>
<!-- Node10&#45;&gt;Node14 -->
<g id="edge15" class="edge">
<title>Node10&#45;&gt;Node14</title>
<path fill="none" stroke="#191970" d="M633.5537,-107.9741C654.5565,-97.8348 682.3691,-84.408 700.8191,-75.5011"/>
<polygon fill="#191970" stroke="#191970" points="631.925,-104.8738 624.4411,-112.3733 634.9683,-111.1776 631.925,-104.8738"/>
</g>
<!-- Node15 -->
<g id="node15" class="node">
<title>Node15</title>
<g id="a_node15"><a xlink:href="_gene_product_ref_8cpp.html" target="_top" xlink:title="Implementation of the GeneProductRef class. ">
<polygon fill="#ffffff" stroke="#000000" points="795,-56.5 795,-75.5 882,-75.5 882,-56.5 795,-56.5"/>
<text text-anchor="middle" x="838.5" y="-63.5" font-family="Helvetica,sans-Serif" font-size="10.00" fill="#000000">GeneProductRef.cpp</text>
</a>
</g>
</g>
<!-- Node10&#45;&gt;Node15 -->
<g id="edge16" class="edge">
<title>Node10&#45;&gt;Node15</title>
<path fill="none" stroke="#191970" d="M653.1173,-110.3651C696.2176,-100.0505 758.3938,-85.1707 798.6269,-75.5423"/>
<polygon fill="#191970" stroke="#191970" points="652.0511,-107.0213 643.1403,-112.7527 653.6804,-113.8291 652.0511,-107.0213"/>
</g>
<!-- Node16&#45;&gt;Node2 -->
<g id="edge18" class="edge">
<title>Node16&#45;&gt;Node2</title>
<path fill="none" stroke="#191970" d="M410.5847,-108.7888C383.5617,-98.5639 346.786,-84.6488 322.6101,-75.5011"/>
<polygon fill="#191970" stroke="#191970" points="409.4664,-112.1078 420.0579,-112.3733 411.9437,-105.5608 409.4664,-112.1078"/>
</g>
<!-- Node16&#45;&gt;Node11 -->
<g id="edge19" class="edge">
<title>Node16&#45;&gt;Node11</title>
<path fill="none" stroke="#191970" d="M463.9221,-105.3607C474.6481,-95.6727 487.7934,-83.7995 496.8242,-75.6427"/>
<polygon fill="#191970" stroke="#191970" points="461.3746,-102.9453 456.2996,-112.2455 466.0666,-108.14 461.3746,-102.9453"/>
</g>
<!-- Node17 -->
<g id="node17" class="node">
<title>Node17</title>
<g id="a_node17"><a xlink:href="_fbc_species_plugin_8cpp.html" target="_top" xlink:title="Implementation of FbcSpeciesPlugin, the plugin class of the fbc package for the Species element...">
<polygon fill="#ffffff" stroke="#000000" points="360,-56.5 360,-75.5 451,-75.5 451,-56.5 360,-56.5"/>
<text text-anchor="middle" x="405.5" y="-63.5" font-family="Helvetica,sans-Serif" font-size="10.00" fill="#000000">FbcSpeciesPlugin.cpp</text>
</a>
</g>
</g>
<!-- Node16&#45;&gt;Node17 -->
<g id="edge20" class="edge">
<title>Node16&#45;&gt;Node17</title>
<path fill="none" stroke="#191970" d="M432.5864,-103.9209C425.8697,-94.5176 417.9283,-83.3997 412.3876,-75.6427"/>
<polygon fill="#191970" stroke="#191970" points="429.872,-106.1425 438.5325,-112.2455 435.5682,-102.0738 429.872,-106.1425"/>
</g>
</g>
</svg>
        <g id="navigator" transform="translate(0 0)" fill="#404254">
                <rect fill="#f2f5e9" fill-opacity="0.5" stroke="#606060" stroke-width=".5" x="0" y="0" width="60" height="60"/>
                <use id="zoomplus" xlink:href="#zoomPlus" x="17" y="9" onmousedown="handleZoom(evt,'in')"/>
                <use id="zoomminus" xlink:href="#zoomMin" x="42" y="9" onmousedown="handleZoom(evt,'out')"/>
                <use id="reset" xlink:href="#resetDef" x="30" y="36" onmousedown="handleReset()"/>
                <g id="arrowUp" xlink:href="#dirArrow" transform="translate(30 24)" onmousedown="handlePan(0,-1)">
                  <use xlink:href="#rim" fill="#404040">
                        <set attributeName="fill" to="#808080" begin="arrowUp.mouseover" end="arrowUp.mouseout"/>
                  </use>
                  <path fill="none" stroke="white" stroke-width="1.5" d="M0,-3.0v7 M-2.5,-0.5L0,-3.0L2.5,-0.5"/>
                </g>
                <g id="arrowRight" xlink:href="#dirArrow" transform="rotate(90) translate(36 -43)" onmousedown="handlePan(1,0)">
                  <use xlink:href="#rim" fill="#404040">
                        <set attributeName="fill" to="#808080" begin="arrowRight.mouseover" end="arrowRight.mouseout"/>
                  </use>
                  <path fill="none" stroke="white" stroke-width="1.5" d="M0,-3.0v7 M-2.5,-0.5L0,-3.0L2.5,-0.5"/>
                </g>
                <g id="arrowDown" xlink:href="#dirArrow" transform="rotate(180) translate(-30 -48)" onmousedown="handlePan(0,1)">
                  <use xlink:href="#rim" fill="#404040">
                        <set attributeName="fill" to="#808080" begin="arrowDown.mouseover" end="arrowDown.mouseout"/>
                  </use>
                  <path fill="none" stroke="white" stroke-width="1.5" d="M0,-3.0v7 M-2.5,-0.5L0,-3.0L2.5,-0.5"/>
                </g>
                <g id="arrowLeft" xlink:href="#dirArrow" transform="rotate(270) translate(-36 17)" onmousedown="handlePan(-1,0)">
                  <use xlink:href="#rim" fill="#404040">
                        <set attributeName="fill" to="#808080" begin="arrowLeft.mouseover" end="arrowLeft.mouseout"/>
                  </use>
                  <path fill="none" stroke="white" stroke-width="1.5" d="M0,-3.0v7 M-2.5,-0.5L0,-3.0L2.5,-0.5"/>
                </g>
        </g>
        <svg viewBox="0 0 15 15" width="100%" height="30px" preserveAspectRatio="xMaxYMin meet">
         <g id="arrow_out" transform="scale(0.3 0.3)">
          <a xlink:href="_flux_objective_8h__dep__incl_org.svg" target="_base">
           <rect id="button" ry="5" rx="5" y="6" x="6" height="38" width="38"
                fill="#f2f5e9" fill-opacity="0.5" stroke="#606060" stroke-width="1.0"/>
           <path id="arrow"
             d="M 11.500037,31.436501 C 11.940474,20.09759 22.043105,11.32322 32.158766,21.979434 L 37.068811,17.246167 C 37.068811,17.246167 37.088388,32 37.088388,32 L 22.160133,31.978069 C 22.160133,31.978069 26.997745,27.140456 26.997745,27.140456 C 18.528582,18.264221 13.291696,25.230495 11.500037,31.436501 z"
             style="fill:#404040;"/>
          </a>
         </g>
        </svg>
</svg>
