<?xml version="1.0" encoding="UTF-8" standalone="no"?>
<!DOCTYPE svg PUBLIC "-//W3C//DTD SVG 1.1//EN"
 "http://www.w3.org/Graphics/SVG/1.1/DTD/svg11.dtd">
<!-- Generated by graphviz version 2.40.1 (20161225.0304)
 -->
<!-- Title: FormulaParser.cpp Pages: 1 -->
<svg width="2808pt" height="1024pt"
 viewBox="0.00 0.00 2807.50 1024.00" xmlns="http://www.w3.org/2000/svg" xmlns:xlink="http://www.w3.org/1999/xlink">
<g id="graph0" class="graph" transform="scale(1 1) rotate(0) translate(4 1020)">
<title>FormulaParser.cpp</title>
<polygon fill="#ffffff" stroke="transparent" points="-4,4 -4,-1020 2803.5,-1020 2803.5,4 -4,4"/>
<!-- Node1 -->
<g id="node1" class="node">
<title>Node1</title>
<polygon fill="#bfbfbf" stroke="#000000" points="2651.5,-996.5 2651.5,-1015.5 2753.5,-1015.5 2753.5,-996.5 2651.5,-996.5"/>
<text text-anchor="middle" x="2702.5" y="-1003.5" font-family="Helvetica,sans-Serif" font-size="10.00" fill="#000000">FormulaParser.cpp</text>
</g>
<!-- Node2 -->
<g id="node2" class="node">
<title>Node2</title>
<g id="a_node2"><a xlink:href="_formula_parser_8h.html" target="_top" xlink:title="Parses an SBML formula string into an AST. ">
<polygon fill="#ffffff" stroke="#000000" points="1763.5,-940.5 1763.5,-959.5 1903.5,-959.5 1903.5,-940.5 1763.5,-940.5"/>
<text text-anchor="middle" x="1833.5" y="-947.5" font-family="Helvetica,sans-Serif" font-size="10.00" fill="#000000">sbml/math/FormulaParser.h</text>
</a>
</g>
</g>
<!-- Node1&#45;&gt;Node2 -->
<g id="edge1" class="edge">
<title>Node1&#45;&gt;Node2</title>
<path fill="none" stroke="#191970" d="M2651.3844,-1002.706C2506.113,-993.3444 2089.9874,-966.5285 1913.8272,-955.1764"/>
<polygon fill="#191970" stroke="#191970" points="1913.7938,-951.6671 1903.5894,-954.5167 1913.3436,-958.6526 1913.7938,-951.6671"/>
</g>
<!-- Node12 -->
<g id="node12" class="node">
<title>Node12</title>
<g id="a_node12"><a xlink:href="_formula_tokenizer_8h.html" target="_top" xlink:title="Tokenizes an SBML formula string. ">
<polygon fill="#ffffff" stroke="#000000" points="2559.5,-828.5 2559.5,-847.5 2713.5,-847.5 2713.5,-828.5 2559.5,-828.5"/>
<text text-anchor="middle" x="2636.5" y="-835.5" font-family="Helvetica,sans-Serif" font-size="10.00" fill="#000000">sbml/math/FormulaTokenizer.h</text>
</a>
</g>
</g>
<!-- Node1&#45;&gt;Node12 -->
<g id="edge149" class="edge">
<title>Node1&#45;&gt;Node12</title>
<path fill="none" stroke="#191970" d="M2698.7625,-996.4862C2688.2391,-969.6994 2658.2079,-893.2565 2644.0542,-857.2289"/>
<polygon fill="#191970" stroke="#191970" points="2647.2752,-855.8556 2640.361,-847.8279 2640.7599,-858.4152 2647.2752,-855.8556"/>
</g>
<!-- Node41 -->
<g id="node41" class="node">
<title>Node41</title>
<g id="a_node41"><a xlink:href="common_8h.html" target="_top" xlink:title="Common functions and macros for C and C++. ">
<polygon fill="#ffffff" stroke="#000000" points="1755.5,-324.5 1755.5,-343.5 1883.5,-343.5 1883.5,-324.5 1755.5,-324.5"/>
<text text-anchor="middle" x="1819.5" y="-331.5" font-family="Helvetica,sans-Serif" font-size="10.00" fill="#000000">sbml/common/common.h</text>
</a>
</g>
</g>
<!-- Node1&#45;&gt;Node41 -->
<g id="edge148" class="edge">
<title>Node1&#45;&gt;Node41</title>
<path fill="none" stroke="#191970" d="M2706.2051,-996.4859C2716.1788,-969.4526 2741.5888,-890.1268 2722.5,-828 2660.6616,-626.7393 2634.1348,-549.0299 2456.5,-436 2432.8409,-420.9456 2056.2206,-367.0031 1893.4698,-344.2448"/>
<polygon fill="#191970" stroke="#191970" points="1893.9216,-340.774 1883.5336,-342.857 1892.9533,-347.7067 1893.9216,-340.774"/>
</g>
<!-- Node52 -->
<g id="node52" class="node">
<title>Node52</title>
<polygon fill="#ffffff" stroke="#bfbfbf" points="2769.5,-940.5 2769.5,-959.5 2799.5,-959.5 2799.5,-940.5 2769.5,-940.5"/>
<text text-anchor="middle" x="2784.5" y="-947.5" font-family="Helvetica,sans-Serif" font-size="10.00" fill="#000000">set</text>
</g>
<!-- Node1&#45;&gt;Node52 -->
<g id="edge150" class="edge">
<title>Node1&#45;&gt;Node52</title>
<path fill="none" stroke="#191970" d="M2716.7833,-996.2455C2729.247,-987.7337 2747.5451,-975.2375 2761.9792,-965.3801"/>
<polygon fill="#191970" stroke="#191970" points="2764.0962,-968.1726 2770.3804,-959.6427 2760.1485,-962.392 2764.0962,-968.1726"/>
</g>
<!-- Node3 -->
<g id="node3" class="node">
<title>Node3</title>
<g id="a_node3"><a xlink:href="_a_s_t_node_type_8h.html" target="_top" xlink:title="Enumeration for Abstract Syntax Tree (AST). ">
<polygon fill="#ffffff" stroke="#000000" points="26,-716.5 26,-735.5 165,-735.5 165,-716.5 26,-716.5"/>
<text text-anchor="middle" x="95.5" y="-723.5" font-family="Helvetica,sans-Serif" font-size="10.00" fill="#000000">sbml/math/ASTNodeType.h</text>
</a>
</g>
</g>
<!-- Node2&#45;&gt;Node3 -->
<g id="edge2" class="edge">
<title>Node2&#45;&gt;Node3</title>
<path fill="none" stroke="#191970" d="M1763.2466,-947.7081C1453.5224,-937.353 222.3267,-893.4641 154.5,-848 119.3041,-824.4082 104.4291,-773.6319 98.7023,-745.5947"/>
<polygon fill="#191970" stroke="#191970" points="102.1414,-744.944 96.8792,-735.7483 95.2584,-746.2184 102.1414,-744.944"/>
</g>
<!-- Node5 -->
<g id="node5" class="node">
<title>Node5</title>
<g id="a_node5"><a xlink:href="extern_8h.html" target="_top" xlink:title="Definitions of LIBSBML_EXTERN and related things. ">
<polygon fill="#ffffff" stroke="#000000" points="1411.5,-67.5 1411.5,-86.5 1529.5,-86.5 1529.5,-67.5 1411.5,-67.5"/>
<text text-anchor="middle" x="1470.5" y="-74.5" font-family="Helvetica,sans-Serif" font-size="10.00" fill="#000000">sbml/common/extern.h</text>
</a>
</g>
</g>
<!-- Node2&#45;&gt;Node5 -->
<g id="edge6" class="edge">
<title>Node2&#45;&gt;Node5</title>
<path fill="none" stroke="#191970" d="M1903.7989,-948.4879C2088.0753,-943.5018 2580.6514,-923.2997 2722.5,-848 2756.734,-829.827 2779.5,-820.7585 2779.5,-782 2779.5,-782 2779.5,-782 2779.5,-272.5 2779.5,-160.9672 2649.404,-221.7978 2542.5,-190 2423.9918,-154.7506 2394.7462,-141.5088 2272.5,-123 2132.1163,-101.7451 1707.7014,-85.2013 1539.8751,-79.3204"/>
<polygon fill="#191970" stroke="#191970" points="1539.7919,-75.8155 1529.6761,-78.9651 1539.5481,-82.8112 1539.7919,-75.8155"/>
</g>
<!-- Node6 -->
<g id="node6" class="node">
<title>Node6</title>
<g id="a_node6"><a xlink:href="_stack_8h.html" target="_top" xlink:title="sbml/util/Stack.h">
<polygon fill="#ffffff" stroke="#000000" points="0,-884.5 0,-903.5 89,-903.5 89,-884.5 0,-884.5"/>
<text text-anchor="middle" x="44.5" y="-891.5" font-family="Helvetica,sans-Serif" font-size="10.00" fill="#000000">sbml/util/Stack.h</text>
</a>
</g>
</g>
<!-- Node2&#45;&gt;Node6 -->
<g id="edge7" class="edge">
<title>Node2&#45;&gt;Node6</title>
<path fill="none" stroke="#191970" d="M1763.3829,-949.4591C1481.9563,-947.0831 433.7457,-936.2146 103.5,-904 102.1913,-903.8723 100.8679,-903.7329 99.5342,-903.5831"/>
<polygon fill="#191970" stroke="#191970" points="99.5528,-900.0569 89.1889,-902.2566 98.6625,-907 99.5528,-900.0569"/>
</g>
<!-- Node7 -->
<g id="node7" class="node">
<title>Node7</title>
<g id="a_node7"><a xlink:href="_a_s_t_node_8h.html" target="_top" xlink:title="Abstract Syntax Tree (AST) for representing formula trees. ">
<polygon fill="#ffffff" stroke="#000000" points="1775,-884.5 1775,-903.5 1892,-903.5 1892,-884.5 1775,-884.5"/>
<text text-anchor="middle" x="1833.5" y="-891.5" font-family="Helvetica,sans-Serif" font-size="10.00" fill="#000000">sbml/math/ASTNode.h</text>
</a>
</g>
</g>
<!-- Node2&#45;&gt;Node7 -->
<g id="edge8" class="edge">
<title>Node2&#45;&gt;Node7</title>
<path fill="none" stroke="#191970" d="M1828.2332,-940.2455C1826.8221,-932.9382 1826.4179,-922.6944 1827.0205,-913.7046"/>
<polygon fill="#191970" stroke="#191970" points="1830.5111,-913.9945 1828.2549,-903.6427 1823.5632,-913.1421 1830.5111,-913.9945"/>
</g>
<!-- Node2&#45;&gt;Node12 -->
<g id="edge147" class="edge">
<title>Node2&#45;&gt;Node12</title>
<path fill="none" stroke="#191970" d="M1901.6169,-940.4993C2049.8397,-919.8256 2400.9111,-870.8592 2558.0672,-848.9396"/>
<polygon fill="#191970" stroke="#191970" points="2558.7136,-852.3834 2568.1342,-847.5355 2557.7465,-845.4505 2558.7136,-852.3834"/>
</g>
<!-- Node4 -->
<g id="node4" class="node">
<title>Node4</title>
<g id="a_node4"><a xlink:href="libsbml-namespace_8h.html" target="_top" xlink:title="Defines C++ namespace of libSBML. ">
<polygon fill="#ffffff" stroke="#000000" points="2309,-.5 2309,-30.5 2422,-30.5 2422,-.5 2309,-.5"/>
<text text-anchor="start" x="2317" y="-18.5" font-family="Helvetica,sans-Serif" font-size="10.00" fill="#000000">sbml/common/libsbml</text>
<text text-anchor="middle" x="2365.5" y="-7.5" font-family="Helvetica,sans-Serif" font-size="10.00" fill="#000000">&#45;namespace.h</text>
</a>
</g>
</g>
<!-- Node3&#45;&gt;Node4 -->
<g id="edge3" class="edge">
<title>Node3&#45;&gt;Node4</title>
<path fill="none" stroke="#191970" d="M97.076,-716.4427C100.1176,-697.1407 106.5,-652.0991 106.5,-614 106.5,-614 106.5,-614 106.5,-138.5 106.5,-82.1225 1924.585,-27.9067 2298.6859,-17.3477"/>
<polygon fill="#191970" stroke="#191970" points="2298.9154,-20.8427 2308.8129,-17.0626 2298.7183,-13.8455 2298.9154,-20.8427"/>
</g>
<!-- Node3&#45;&gt;Node5 -->
<g id="edge4" class="edge">
<title>Node3&#45;&gt;Node5</title>
<path fill="none" stroke="#191970" d="M104.0938,-716.2985C119.5625,-697.796 150.5,-655.5919 150.5,-614 150.5,-614 150.5,-614 150.5,-205.5 150.5,-166.634 148.1915,-146.0292 179.5,-123 229.0011,-86.589 1140.2183,-78.8064 1401.1944,-77.3212"/>
<polygon fill="#191970" stroke="#191970" points="1401.322,-80.8206 1411.3023,-77.265 1401.283,-73.8207 1401.322,-80.8206"/>
</g>
<!-- Node5&#45;&gt;Node4 -->
<g id="edge5" class="edge">
<title>Node5&#45;&gt;Node4</title>
<path fill="none" stroke="#191970" d="M1529.5696,-72.941C1689.4878,-61.9522 2130.1389,-31.6729 2298.7135,-20.0892"/>
<polygon fill="#191970" stroke="#191970" points="2299.2026,-23.564 2308.9391,-19.3866 2298.7226,-16.5804 2299.2026,-23.564"/>
</g>
<!-- Node7&#45;&gt;Node2 -->
<g id="edge24" class="edge">
<title>Node7&#45;&gt;Node2</title>
<path fill="none" stroke="#191970" d="M1838.7451,-903.6427C1840.1665,-910.9199 1840.581,-921.155 1839.9887,-930.1575"/>
<polygon fill="#191970" stroke="#191970" points="1836.4947,-929.8972 1838.7668,-940.2455 1843.4439,-930.739 1836.4947,-929.8972"/>
</g>
<!-- Node7&#45;&gt;Node3 -->
<g id="edge17" class="edge">
<title>Node7&#45;&gt;Node3</title>
<path fill="none" stroke="#191970" d="M1774.5402,-893.9094C1487.82,-893.2734 250.0982,-888.2011 179.5,-848 144.7834,-828.2311 154.5068,-804.6609 131.5,-772 124.7383,-762.401 116.7291,-752.0755 109.9839,-743.644"/>
<polygon fill="#191970" stroke="#191970" points="112.5289,-741.225 103.5175,-735.6531 107.0873,-745.6284 112.5289,-741.225"/>
</g>
<!-- Node7&#45;&gt;Node5 -->
<g id="edge9" class="edge">
<title>Node7&#45;&gt;Node5</title>
<path fill="none" stroke="#191970" d="M1774.648,-893.1235C1481.5633,-888.3808 193.5,-862.9335 193.5,-782 193.5,-782 193.5,-782 193.5,-205.5 193.5,-163.0788 205.1288,-144.8332 241.5,-123 291.4089,-93.0402 1148.3296,-80.7411 1400.9526,-77.7561"/>
<polygon fill="#191970" stroke="#191970" points="1401.1473,-81.2542 1411.1057,-77.6373 1401.0654,-74.2547 1401.1473,-81.2542"/>
</g>
<!-- Node8 -->
<g id="node8" class="node">
<title>Node8</title>
<g id="a_node8"><a xlink:href="sbmlfwd_8h.html" target="_top" xlink:title="Forward declarations for all opaque C types. ">
<polygon fill="#ffffff" stroke="#000000" points="2374,-263 2374,-282 2501,-282 2501,-263 2374,-263"/>
<text text-anchor="middle" x="2437.5" y="-270" font-family="Helvetica,sans-Serif" font-size="10.00" fill="#000000">sbml/common/sbmlfwd.h</text>
</a>
</g>
</g>
<!-- Node7&#45;&gt;Node8 -->
<g id="edge10" class="edge">
<title>Node7&#45;&gt;Node8</title>
<path fill="none" stroke="#191970" d="M1892.0614,-892.0318C2046.2405,-886.5685 2455.4683,-870.1463 2512.5,-848 2532.7684,-840.1294 2665.5,-747.7429 2665.5,-726 2665.5,-726 2665.5,-726 2665.5,-390 2665.5,-319.2651 2577.7179,-291.0724 2511.0897,-279.8613"/>
<polygon fill="#191970" stroke="#191970" points="2511.435,-276.3725 2501.0107,-278.2656 2510.3403,-283.2864 2511.435,-276.3725"/>
</g>
<!-- Node7&#45;&gt;Node12 -->
<g id="edge18" class="edge">
<title>Node7&#45;&gt;Node12</title>
<path fill="none" stroke="#191970" d="M1892.1759,-891.1035C2014.0275,-884.8912 2303.3265,-869.1185 2545.5,-848 2546.6084,-847.9033 2547.7241,-847.8045 2548.8461,-847.7037"/>
<polygon fill="#191970" stroke="#191970" points="2549.4468,-851.1629 2559.0777,-846.7473 2548.7953,-844.1932 2549.4468,-851.1629"/>
</g>
<!-- Node13 -->
<g id="node13" class="node">
<title>Node13</title>
<g id="a_node13"><a xlink:href="_formula_formatter_8h.html" target="_top" xlink:title="Formats an AST formula tree as an SBML formula string. ">
<polygon fill="#ffffff" stroke="#000000" points="911.5,-828.5 911.5,-847.5 1065.5,-847.5 1065.5,-828.5 911.5,-828.5"/>
<text text-anchor="middle" x="988.5" y="-835.5" font-family="Helvetica,sans-Serif" font-size="10.00" fill="#000000">sbml/math/FormulaFormatter.h</text>
</a>
</g>
</g>
<!-- Node7&#45;&gt;Node13 -->
<g id="edge20" class="edge">
<title>Node7&#45;&gt;Node13</title>
<path fill="none" stroke="#191970" d="M1774.8326,-890.3473C1628.6804,-880.9242 1248.0653,-855.7186 1075.6122,-844.0641"/>
<polygon fill="#191970" stroke="#191970" points="1075.771,-840.567 1065.5575,-843.384 1075.2985,-847.551 1075.771,-840.567"/>
</g>
<!-- Node15 -->
<g id="node15" class="node">
<title>Node15</title>
<g id="a_node15"><a xlink:href="_x_m_l_attributes_8h.html" target="_top" xlink:title="XMLAttributes are a list of name/value pairs for XML elements. ">
<polygon fill="#ffffff" stroke="#000000" points="1641.5,-380.5 1641.5,-399.5 1771.5,-399.5 1771.5,-380.5 1641.5,-380.5"/>
<text text-anchor="middle" x="1706.5" y="-387.5" font-family="Helvetica,sans-Serif" font-size="10.00" fill="#000000">sbml/xml/XMLAttributes.h</text>
</a>
</g>
</g>
<!-- Node7&#45;&gt;Node15 -->
<g id="edge25" class="edge">
<title>Node7&#45;&gt;Node15</title>
<path fill="none" stroke="#191970" d="M1890.2666,-884.4449C2026.3573,-860.1917 2356.5694,-792.7015 2309.5,-716 2194.5184,-528.6326 2075.6659,-565.55 1868.5,-492 1796.9484,-466.5971 1749.1975,-515.0753 1701.5,-456 1691.0441,-443.0499 1694.0206,-423.6258 1698.5768,-409.1992"/>
<polygon fill="#191970" stroke="#191970" points="1701.8875,-410.336 1702.004,-399.7418 1695.3063,-407.951 1701.8875,-410.336"/>
</g>
<!-- Node17 -->
<g id="node17" class="node">
<title>Node17</title>
<g id="a_node17"><a xlink:href="operation_return_values_8h.html" target="_top" xlink:title="Enumeration of values returned by operations within libSBML. ">
<polygon fill="#ffffff" stroke="#000000" points="1394,-257.5 1394,-287.5 1547,-287.5 1547,-257.5 1394,-257.5"/>
<text text-anchor="start" x="1402" y="-275.5" font-family="Helvetica,sans-Serif" font-size="10.00" fill="#000000">sbml/common/operationReturn</text>
<text text-anchor="middle" x="1470.5" y="-264.5" font-family="Helvetica,sans-Serif" font-size="10.00" fill="#000000">Values.h</text>
</a>
</g>
</g>
<!-- Node7&#45;&gt;Node17 -->
<g id="edge145" class="edge">
<title>Node7&#45;&gt;Node17</title>
<path fill="none" stroke="#191970" d="M1783.503,-884.473C1663.2912,-858.5628 1358.9742,-774.4233 1236.5,-568 1187.9938,-486.2456 1264.027,-439.0797 1338.5,-380 1364.6766,-359.234 1378.1523,-364.5485 1404.5,-344 1422.7082,-329.7995 1440.2881,-310.3796 1452.7198,-295.3623"/>
<polygon fill="#191970" stroke="#191970" points="1455.4882,-297.5052 1459.0679,-287.5334 1450.051,-293.0964 1455.4882,-297.5052"/>
</g>
<!-- Node22 -->
<g id="node22" class="node">
<title>Node22</title>
<g id="a_node22"><a xlink:href="_syntax_checker_8h.html" target="_top" xlink:title="Syntax checking functions. ">
<polygon fill="#ffffff" stroke="#000000" points="1334,-828.5 1334,-847.5 1451,-847.5 1451,-828.5 1334,-828.5"/>
<text text-anchor="middle" x="1392.5" y="-835.5" font-family="Helvetica,sans-Serif" font-size="10.00" fill="#000000">sbml/SyntaxChecker.h</text>
</a>
</g>
</g>
<!-- Node7&#45;&gt;Node22 -->
<g id="edge38" class="edge">
<title>Node7&#45;&gt;Node22</title>
<path fill="none" stroke="#191970" d="M1774.9386,-886.5636C1693.8037,-876.2608 1547.4752,-857.6794 1461.2546,-846.7307"/>
<polygon fill="#191970" stroke="#191970" points="1461.6649,-843.2548 1451.3036,-845.4671 1460.783,-850.1991 1461.6649,-843.2548"/>
</g>
<!-- Node51 -->
<g id="node51" class="node">
<title>Node51</title>
<g id="a_node51"><a xlink:href="_a_s_t_base_plugin_8h.html" target="_top" xlink:title="sbml/extension/ASTBasePlugin.h">
<polygon fill="#ffffff" stroke="#000000" points="2339.5,-828.5 2339.5,-847.5 2503.5,-847.5 2503.5,-828.5 2339.5,-828.5"/>
<text text-anchor="middle" x="2421.5" y="-835.5" font-family="Helvetica,sans-Serif" font-size="10.00" fill="#000000">sbml/extension/ASTBasePlugin.h</text>
</a>
</g>
</g>
<!-- Node7&#45;&gt;Node51 -->
<g id="edge146" class="edge">
<title>Node7&#45;&gt;Node51</title>
<path fill="none" stroke="#191970" d="M1892.2134,-888.7127C1984.482,-880.358 2169.0535,-863.4614 2325.5,-848 2326.7663,-847.8749 2328.042,-847.7483 2329.3253,-847.6206"/>
<polygon fill="#191970" stroke="#191970" points="2329.6859,-851.1021 2339.2867,-846.6216 2328.9873,-844.1371 2329.6859,-851.1021"/>
</g>
<!-- Node8&#45;&gt;Node4 -->
<g id="edge11" class="edge">
<title>Node8&#45;&gt;Node4</title>
<path fill="none" stroke="#191970" d="M2438.7705,-262.891C2442.3546,-232.4292 2450.2711,-135.9606 2417.5,-67 2412.1853,-55.8162 2403.3814,-45.6841 2394.515,-37.4237"/>
<polygon fill="#191970" stroke="#191970" points="2396.6239,-34.6183 2386.7934,-30.667 2392.0142,-39.8862 2396.6239,-34.6183"/>
</g>
<!-- Node9 -->
<g id="node9" class="node">
<title>Node9</title>
<g id="a_node9"><a xlink:href="libsbml-config_8h.html" target="_top" xlink:title="Decides whether to #include Unix or Windows configuration variables. ">
<polygon fill="#ffffff" stroke="#000000" points="1755,-190.5 1755,-220.5 1868,-220.5 1868,-190.5 1755,-190.5"/>
<text text-anchor="start" x="1763" y="-208.5" font-family="Helvetica,sans-Serif" font-size="10.00" fill="#000000">sbml/common/libsbml</text>
<text text-anchor="middle" x="1811.5" y="-197.5" font-family="Helvetica,sans-Serif" font-size="10.00" fill="#000000">&#45;config.h</text>
</a>
</g>
</g>
<!-- Node8&#45;&gt;Node9 -->
<g id="edge12" class="edge">
<title>Node8&#45;&gt;Node9</title>
<path fill="none" stroke="#191970" d="M2373.9984,-266.9446C2252.8769,-256.2541 1992.9486,-232.8333 1903.5,-221 1895.3057,-219.916 1886.7225,-218.6482 1878.2311,-217.313"/>
<polygon fill="#191970" stroke="#191970" points="1878.7628,-213.8536 1868.334,-215.7216 1877.6515,-220.7649 1878.7628,-213.8536"/>
</g>
<!-- Node9&#45;&gt;Node4 -->
<g id="edge13" class="edge">
<title>Node9&#45;&gt;Node4</title>
<path fill="none" stroke="#191970" d="M1864.4379,-190.4945C1898.5763,-180.6099 1943.8431,-167.1143 1983.5,-154 2104.0795,-114.125 2243.9863,-61.8374 2316.4025,-34.3163"/>
<polygon fill="#191970" stroke="#191970" points="2318.0628,-37.4294 2326.1638,-30.6011 2315.5729,-30.8872 2318.0628,-37.4294"/>
</g>
<!-- Node10 -->
<g id="node10" class="node">
<title>Node10</title>
<g id="a_node10"><a xlink:href="libsbml-config-common_8h.html" target="_top" xlink:title="Configuration variables. ">
<polygon fill="#ffffff" stroke="#000000" points="1861,-123.5 1861,-153.5 1974,-153.5 1974,-123.5 1861,-123.5"/>
<text text-anchor="start" x="1869" y="-141.5" font-family="Helvetica,sans-Serif" font-size="10.00" fill="#000000">sbml/common/libsbml</text>
<text text-anchor="middle" x="1917.5" y="-130.5" font-family="Helvetica,sans-Serif" font-size="10.00" fill="#000000">&#45;config&#45;common.h</text>
</a>
</g>
</g>
<!-- Node9&#45;&gt;Node10 -->
<g id="edge14" class="edge">
<title>Node9&#45;&gt;Node10</title>
<path fill="none" stroke="#191970" d="M1835.2885,-190.4639C1849.9151,-181.2188 1868.8583,-169.2452 1884.8739,-159.1222"/>
<polygon fill="#191970" stroke="#191970" points="1886.8412,-162.0193 1893.4242,-153.7177 1883.1011,-156.1022 1886.8412,-162.0193"/>
</g>
<!-- Node11 -->
<g id="node11" class="node">
<title>Node11</title>
<g id="a_node11"><a xlink:href="libsbml-version_8h.html" target="_top" xlink:title="Define libSBML version numbers for access from client software. ">
<polygon fill="#ffffff" stroke="#000000" points="1730,-123.5 1730,-153.5 1843,-153.5 1843,-123.5 1730,-123.5"/>
<text text-anchor="start" x="1738" y="-141.5" font-family="Helvetica,sans-Serif" font-size="10.00" fill="#000000">sbml/common/libsbml</text>
<text text-anchor="middle" x="1786.5" y="-130.5" font-family="Helvetica,sans-Serif" font-size="10.00" fill="#000000">&#45;version.h</text>
</a>
</g>
</g>
<!-- Node9&#45;&gt;Node11 -->
<g id="edge15" class="edge">
<title>Node9&#45;&gt;Node11</title>
<path fill="none" stroke="#191970" d="M1805.8271,-190.2967C1802.8225,-182.2443 1799.0587,-172.1574 1795.6528,-163.0296"/>
<polygon fill="#191970" stroke="#191970" points="1798.9256,-161.7886 1792.1504,-153.6432 1792.3672,-164.2358 1798.9256,-161.7886"/>
</g>
<!-- Node11&#45;&gt;Node5 -->
<g id="edge16" class="edge">
<title>Node11&#45;&gt;Node5</title>
<path fill="none" stroke="#191970" d="M1729.9503,-125.998C1725.0666,-124.9659 1720.1985,-123.9537 1715.5,-123 1653.7986,-110.4754 1583.105,-97.3307 1533.5647,-88.3152"/>
<polygon fill="#191970" stroke="#191970" points="1534.1012,-84.8555 1523.6367,-86.5122 1532.8503,-91.7428 1534.1012,-84.8555"/>
</g>
<!-- Node12&#45;&gt;Node5 -->
<g id="edge19" class="edge">
<title>Node12&#45;&gt;Node5</title>
<path fill="none" stroke="#191970" d="M2656.2497,-828.312C2686.6656,-811.8407 2741.5,-775.3083 2741.5,-726 2741.5,-726 2741.5,-726 2741.5,-390 2741.5,-242.7983 2617.6659,-234.9652 2477.5,-190 2343.2785,-146.9417 2307.092,-142.5831 2167.5,-123 1939.1358,-90.9633 1665.4641,-81.1398 1539.7899,-78.2058"/>
<polygon fill="#191970" stroke="#191970" points="1539.6225,-74.7012 1529.546,-77.9744 1539.4644,-81.6994 1539.6225,-74.7012"/>
</g>
<!-- Node13&#45;&gt;Node5 -->
<g id="edge21" class="edge">
<title>Node13&#45;&gt;Node5</title>
<path fill="none" stroke="#191970" d="M911.3293,-835.5687C727.2878,-829.4515 275.966,-812.441 250.5,-792 226.6954,-772.8925 231.5,-756.5246 231.5,-726 231.5,-726 231.5,-726 231.5,-205.5 231.5,-162.6249 244.557,-144.7598 281.5,-123 329.8929,-94.496 1154.3257,-81.222 1401.1992,-77.8742"/>
<polygon fill="#191970" stroke="#191970" points="1401.5237,-81.3702 1411.4757,-77.736 1401.4295,-74.3709 1401.5237,-81.3702"/>
</g>
<!-- Node13&#45;&gt;Node7 -->
<g id="edge23" class="edge">
<title>Node13&#45;&gt;Node7</title>
<path fill="none" stroke="#191970" d="M1065.6121,-842.845C1229.1141,-853.438 1608.1429,-878.5571 1764.3591,-889.1525"/>
<polygon fill="#191970" stroke="#191970" points="1764.5548,-892.6737 1774.769,-889.8594 1765.0292,-885.6898 1764.5548,-892.6737"/>
</g>
<!-- Node14 -->
<g id="node14" class="node">
<title>Node14</title>
<g id="a_node14"><a xlink:href="_string_buffer_8h.html" target="_top" xlink:title="sbml/util/StringBuffer.h">
<polygon fill="#ffffff" stroke="#000000" points="260,-772.5 260,-791.5 377,-791.5 377,-772.5 260,-772.5"/>
<text text-anchor="middle" x="318.5" y="-779.5" font-family="Helvetica,sans-Serif" font-size="10.00" fill="#000000">sbml/util/StringBuffer.h</text>
</a>
</g>
</g>
<!-- Node13&#45;&gt;Node14 -->
<g id="edge22" class="edge">
<title>Node13&#45;&gt;Node14</title>
<path fill="none" stroke="#191970" d="M911.0854,-833.5046C797.1178,-826.5536 577.555,-811.8938 391.5,-792 390.0293,-791.8427 388.5426,-791.6793 387.0442,-791.5105"/>
<polygon fill="#191970" stroke="#191970" points="387.375,-788.0254 377.0337,-790.3289 386.5544,-794.9771 387.375,-788.0254"/>
</g>
<!-- Node15&#45;&gt;Node8 -->
<g id="edge28" class="edge">
<title>Node15&#45;&gt;Node8</title>
<path fill="none" stroke="#191970" d="M1771.6306,-387.6756C1865.0822,-383.4685 2042.2894,-372.2372 2190.5,-344 2230.4008,-336.3981 2338.3804,-303.476 2397.4927,-285.0715"/>
<polygon fill="#191970" stroke="#191970" points="2398.7349,-288.3504 2407.2386,-282.0308 2396.65,-281.6681 2398.7349,-288.3504"/>
</g>
<!-- Node16 -->
<g id="node16" class="node">
<title>Node16</title>
<g id="a_node16"><a xlink:href="_x_m_l_extern_8h.html" target="_top" xlink:title="Defines LIBLAX_EXTERN. ">
<polygon fill="#ffffff" stroke="#000000" points="2122,-263 2122,-282 2239,-282 2239,-263 2122,-263"/>
<text text-anchor="middle" x="2180.5" y="-270" font-family="Helvetica,sans-Serif" font-size="10.00" fill="#000000">sbml/xml/XMLExtern.h</text>
</a>
</g>
</g>
<!-- Node15&#45;&gt;Node16 -->
<g id="edge26" class="edge">
<title>Node15&#45;&gt;Node16</title>
<path fill="none" stroke="#191970" d="M1771.6434,-386.69C1836.1435,-381.9748 1937.0643,-370.6952 2020.5,-344 2039.0532,-338.0639 2041.8602,-332.2641 2059.5,-324 2088.7547,-310.2944 2122.6378,-296.0055 2147.0943,-285.9655"/>
<polygon fill="#191970" stroke="#191970" points="2148.6957,-289.0922 2156.6294,-282.0703 2146.0484,-282.612 2148.6957,-289.0922"/>
</g>
<!-- Node15&#45;&gt;Node17 -->
<g id="edge29" class="edge">
<title>Node15&#45;&gt;Node17</title>
<path fill="none" stroke="#191970" d="M1687.1871,-380.3845C1648.5313,-361.1384 1560.9767,-317.5467 1509.778,-292.0558"/>
<polygon fill="#191970" stroke="#191970" points="1511.173,-288.8405 1500.6612,-287.5167 1508.0531,-295.1068 1511.173,-288.8405"/>
</g>
<!-- Node18 -->
<g id="node18" class="node">
<title>Node18</title>
<polygon fill="#ffffff" stroke="#bfbfbf" points="973,-263 973,-282 1014,-282 1014,-263 973,-263"/>
<text text-anchor="middle" x="993.5" y="-270" font-family="Helvetica,sans-Serif" font-size="10.00" fill="#000000">string</text>
</g>
<!-- Node15&#45;&gt;Node18 -->
<g id="edge31" class="edge">
<title>Node15&#45;&gt;Node18</title>
<path fill="none" stroke="#191970" d="M1641.0309,-384.202C1512.7307,-372.7878 1238.8778,-348.1485 1218.5,-344 1147.1093,-329.4663 1066.3838,-300.6448 1023.7041,-284.3833"/>
<polygon fill="#191970" stroke="#191970" points="1024.7873,-281.0501 1014.1974,-280.7283 1022.2753,-287.5838 1024.7873,-281.0501"/>
</g>
<!-- Node19 -->
<g id="node19" class="node">
<title>Node19</title>
<polygon fill="#ffffff" stroke="#bfbfbf" points="1180.5,-263 1180.5,-282 1224.5,-282 1224.5,-263 1180.5,-263"/>
<text text-anchor="middle" x="1202.5" y="-270" font-family="Helvetica,sans-Serif" font-size="10.00" fill="#000000">vector</text>
</g>
<!-- Node15&#45;&gt;Node19 -->
<g id="edge32" class="edge">
<title>Node15&#45;&gt;Node19</title>
<path fill="none" stroke="#191970" d="M1641.1356,-384.3487C1514.803,-373.3183 1248.731,-349.5152 1240.5,-344 1222.5858,-331.9966 1212.4963,-308.7059 1207.2864,-291.9647"/>
<polygon fill="#191970" stroke="#191970" points="1210.5914,-290.7862 1204.5342,-282.0937 1203.8486,-292.6663 1210.5914,-290.7862"/>
</g>
<!-- Node20 -->
<g id="node20" class="node">
<title>Node20</title>
<polygon fill="#ffffff" stroke="#bfbfbf" points="716,-324.5 716,-343.5 775,-343.5 775,-324.5 716,-324.5"/>
<text text-anchor="middle" x="745.5" y="-331.5" font-family="Helvetica,sans-Serif" font-size="10.00" fill="#000000">stdexcept</text>
</g>
<!-- Node15&#45;&gt;Node20 -->
<g id="edge33" class="edge">
<title>Node15&#45;&gt;Node20</title>
<path fill="none" stroke="#191970" d="M1641.2021,-386.1949C1456.3793,-375.4248 933.4127,-344.9502 785.1344,-336.3096"/>
<polygon fill="#191970" stroke="#191970" points="785.3024,-332.8135 775.1157,-335.7258 784.8951,-339.8017 785.3024,-332.8135"/>
</g>
<!-- Node21 -->
<g id="node21" class="node">
<title>Node21</title>
<g id="a_node21"><a xlink:href="_x_m_l_triple_8h.html" target="_top" xlink:title="Stores an XML namespace triple. ">
<polygon fill="#ffffff" stroke="#000000" points="2068,-324.5 2068,-343.5 2181,-343.5 2181,-324.5 2068,-324.5"/>
<text text-anchor="middle" x="2124.5" y="-331.5" font-family="Helvetica,sans-Serif" font-size="10.00" fill="#000000">sbml/xml/XMLTriple.h</text>
</a>
</g>
</g>
<!-- Node15&#45;&gt;Node21 -->
<g id="edge34" class="edge">
<title>Node15&#45;&gt;Node21</title>
<path fill="none" stroke="#191970" d="M1771.7549,-381.5103C1841.5158,-372.3967 1955.3575,-357.4163 2053.5,-344 2054.9646,-343.7998 2056.4461,-343.5966 2057.9397,-343.3912"/>
<polygon fill="#191970" stroke="#191970" points="2058.4982,-346.8474 2067.9245,-342.0106 2057.5393,-339.9134 2058.4982,-346.8474"/>
</g>
<!-- Node16&#45;&gt;Node4 -->
<g id="edge27" class="edge">
<title>Node16&#45;&gt;Node4</title>
<path fill="none" stroke="#191970" d="M2187.5263,-262.7391C2214.16,-225.7399 2309.3658,-93.481 2348.5084,-39.1046"/>
<polygon fill="#191970" stroke="#191970" points="2351.5012,-40.9379 2354.5028,-30.7771 2345.82,-36.8483 2351.5012,-40.9379"/>
</g>
<!-- Node17&#45;&gt;Node5 -->
<g id="edge30" class="edge">
<title>Node17&#45;&gt;Node5</title>
<path fill="none" stroke="#191970" d="M1470.5,-257.4841C1470.5,-222.654 1470.5,-136.3473 1470.5,-97.0563"/>
<polygon fill="#191970" stroke="#191970" points="1474.0001,-96.8898 1470.5,-86.8898 1467.0001,-96.8899 1474.0001,-96.8898"/>
</g>
<!-- Node21&#45;&gt;Node8 -->
<g id="edge36" class="edge">
<title>Node21&#45;&gt;Node8</title>
<path fill="none" stroke="#191970" d="M2173.0628,-324.4581C2228.6575,-313.5345 2319.6839,-295.6492 2379.0994,-283.9749"/>
<polygon fill="#191970" stroke="#191970" points="2379.9432,-287.3761 2389.0808,-282.0137 2378.5936,-280.5074 2379.9432,-287.3761"/>
</g>
<!-- Node21&#45;&gt;Node16 -->
<g id="edge35" class="edge">
<title>Node21&#45;&gt;Node16</title>
<path fill="none" stroke="#191970" d="M2133.25,-324.3906C2141.6662,-315.1478 2154.5797,-300.966 2164.781,-289.7628"/>
<polygon fill="#191970" stroke="#191970" points="2167.4818,-291.9953 2171.6266,-282.2449 2162.306,-287.2824 2167.4818,-291.9953"/>
</g>
<!-- Node21&#45;&gt;Node18 -->
<g id="edge37" class="edge">
<title>Node21&#45;&gt;Node18</title>
<path fill="none" stroke="#191970" d="M2067.871,-328.0006C2052.5138,-326.525 2035.8812,-325.0648 2020.5,-324 1643.7294,-297.9167 1548.3842,-312.3876 1171.5,-288 1119.7423,-284.6508 1059.6617,-279.0645 1024.2093,-275.592"/>
<polygon fill="#191970" stroke="#191970" points="1024.3297,-272.087 1014.0341,-274.5871 1023.6416,-279.0531 1024.3297,-272.087"/>
</g>
<!-- Node22&#45;&gt;Node5 -->
<g id="edge39" class="edge">
<title>Node22&#45;&gt;Node5</title>
<path fill="none" stroke="#191970" d="M1451.3401,-836.903C1580.0256,-833.9703 1895.9736,-823.8636 2158.5,-792 2295.3174,-775.3941 2333.03,-780.411 2463.5,-736 2589.2182,-693.2065 2703.5,-690.8019 2703.5,-558 2703.5,-558 2703.5,-558 2703.5,-390 2703.5,-147.9499 1799.5368,-90.9309 1539.6233,-79.5391"/>
<polygon fill="#191970" stroke="#191970" points="1539.6958,-76.0391 1529.5548,-79.1067 1539.3953,-83.0327 1539.6958,-76.0391"/>
</g>
<!-- Node22&#45;&gt;Node18 -->
<g id="edge144" class="edge">
<title>Node22&#45;&gt;Node18</title>
<path fill="none" stroke="#191970" d="M1333.9304,-835.5217C1133.1155,-826.5396 480.7771,-793.1773 407.5,-736 382.8923,-716.7989 383.5,-701.2125 383.5,-670 383.5,-670 383.5,-670 383.5,-390 383.5,-324.0109 453.1559,-342.4959 516.5,-324 601.0047,-299.3254 871.1711,-280.2865 962.7809,-274.3994"/>
<polygon fill="#191970" stroke="#191970" points="963.0424,-277.8899 972.8001,-273.7624 962.5982,-270.904 963.0424,-277.8899"/>
</g>
<!-- Node23 -->
<g id="node23" class="node">
<title>Node23</title>
<g id="a_node23"><a xlink:href="_s_base_8h.html" target="_top" xlink:title="Definition of SBase, the base object of all SBML objects. ">
<polygon fill="#ffffff" stroke="#000000" points="999.5,-772.5 999.5,-791.5 1077.5,-791.5 1077.5,-772.5 999.5,-772.5"/>
<text text-anchor="middle" x="1038.5" y="-779.5" font-family="Helvetica,sans-Serif" font-size="10.00" fill="#000000">sbml/SBase.h</text>
</a>
</g>
</g>
<!-- Node22&#45;&gt;Node23 -->
<g id="edge40" class="edge">
<title>Node22&#45;&gt;Node23</title>
<path fill="none" stroke="#191970" d="M1333.7257,-829.4948C1264.7612,-818.952 1151.8385,-801.0888 1087.426,-790.5331"/>
<polygon fill="#191970" stroke="#191970" points="1087.9543,-787.0731 1077.5189,-788.904 1086.8184,-793.9803 1087.9543,-787.0731"/>
</g>
<!-- Node44 -->
<g id="node44" class="node">
<title>Node44</title>
<g id="a_node44"><a xlink:href="util_8h.html" target="_top" xlink:title="Utility functions. ">
<polygon fill="#ffffff" stroke="#000000" points="1964,-263 1964,-282 2041,-282 2041,-263 1964,-263"/>
<text text-anchor="middle" x="2002.5" y="-270" font-family="Helvetica,sans-Serif" font-size="10.00" fill="#000000">sbml/util/util.h</text>
</a>
</g>
</g>
<!-- Node22&#45;&gt;Node44 -->
<g id="edge143" class="edge">
<title>Node22&#45;&gt;Node44</title>
<path fill="none" stroke="#191970" d="M1451.1064,-837.1366C1607.0888,-833.7519 2044.5595,-817.1536 2397.5,-736 2468.0702,-719.7734 2502.0786,-733.8407 2550.5,-680 2639.9211,-580.5709 2623.5544,-473.0367 2527.5,-380 2372.4139,-229.7861 2259.618,-341.7174 2050.5,-288 2046.9403,-287.0856 2043.2578,-286.0544 2039.5882,-284.9694"/>
<polygon fill="#191970" stroke="#191970" points="2040.5859,-281.6145 2029.9986,-282.0144 2038.5245,-288.3041 2040.5859,-281.6145"/>
</g>
<!-- Node23&#45;&gt;Node5 -->
<g id="edge41" class="edge">
<title>Node23&#45;&gt;Node5</title>
<path fill="none" stroke="#191970" d="M999.2758,-780.3066C880.9223,-774.9786 532.6546,-757.6209 486.5,-736 449.2174,-718.5352 421.5,-711.1705 421.5,-670 421.5,-670 421.5,-670 421.5,-614 421.5,-493.6876 269.5,-510.3124 269.5,-390 269.5,-390 269.5,-390 269.5,-205.5 269.5,-160.1618 289.5211,-144.3832 329.5,-123 376.8399,-97.6797 1161.1595,-82.2718 1401.229,-78.1323"/>
<polygon fill="#191970" stroke="#191970" points="1401.2946,-81.6317 1411.2331,-77.9609 1401.1746,-74.6328 1401.2946,-81.6317"/>
</g>
<!-- Node23&#45;&gt;Node8 -->
<g id="edge42" class="edge">
<title>Node23&#45;&gt;Node8</title>
<path fill="none" stroke="#191970" d="M1077.6484,-781.2051C1278.1833,-777.05 2185.7213,-757.2079 2309.5,-736 2428.2202,-715.6588 2551.5,-734.4502 2551.5,-614 2551.5,-614 2551.5,-614 2551.5,-558 2551.5,-453.9231 2618.1565,-410.6471 2560.5,-324 2547.7658,-304.8629 2526.406,-292.8234 2505.0274,-285.2546"/>
<polygon fill="#191970" stroke="#191970" points="2505.8264,-281.8344 2495.2344,-282.0822 2503.6691,-288.4937 2505.8264,-281.8344"/>
</g>
<!-- Node23&#45;&gt;Node18 -->
<g id="edge140" class="edge">
<title>Node23&#45;&gt;Node18</title>
<path fill="none" stroke="#191970" d="M1020.9384,-772.389C1007.8636,-764.3399 990.5974,-751.6626 980.5,-736 897.0947,-606.6254 916.6707,-552.602 896.5,-400 892.0734,-366.5106 878.0316,-352.9135 895.5,-324 910.0451,-299.9252 939.986,-286.5457 962.9674,-279.5009"/>
<polygon fill="#191970" stroke="#191970" points="963.9642,-282.8563 972.6402,-276.7754 962.0657,-276.1187 963.9642,-282.8563"/>
</g>
<!-- Node23&#45;&gt;Node20 -->
<g id="edge141" class="edge">
<title>Node23&#45;&gt;Node20</title>
<path fill="none" stroke="#191970" d="M999.2575,-777.8951C907.6653,-767.2283 687.5,-734.8441 687.5,-670 687.5,-670 687.5,-670 687.5,-502 687.5,-471.4754 690.64,-462.0809 706.5,-436 718.5877,-416.1223 735.1459,-421.3011 744.5,-400 750.8355,-385.5728 750.6538,-367.6034 749.1281,-354.0591"/>
<polygon fill="#191970" stroke="#191970" points="752.5525,-353.2866 747.6439,-343.8974 745.626,-354.2983 752.5525,-353.2866"/>
</g>
<!-- Node23&#45;&gt;Node22 -->
<g id="edge118" class="edge">
<title>Node23&#45;&gt;Node22</title>
<path fill="none" stroke="#191970" d="M1077.6637,-787.5265C1138.0092,-796.6215 1254.104,-814.9183 1327.251,-826.8039"/>
<polygon fill="#191970" stroke="#191970" points="1326.8444,-830.2838 1337.277,-828.4369 1327.9697,-823.3748 1326.8444,-830.2838"/>
</g>
<!-- Node24 -->
<g id="node24" class="node">
<title>Node24</title>
<g id="a_node24"><a xlink:href="_s_b_m_l_type_codes_8h.html" target="_top" xlink:title="Enumeration to identify SBML objects at runtime. ">
<polygon fill="#ffffff" stroke="#000000" points="377,-263 377,-282 504,-282 504,-263 377,-263"/>
<text text-anchor="middle" x="440.5" y="-270" font-family="Helvetica,sans-Serif" font-size="10.00" fill="#000000">sbml/SBMLTypeCodes.h</text>
</a>
</g>
</g>
<!-- Node23&#45;&gt;Node24 -->
<g id="edge43" class="edge">
<title>Node23&#45;&gt;Node24</title>
<path fill="none" stroke="#191970" d="M999.3838,-780.6738C900.092,-776.9215 640.4385,-764.5905 559.5,-736 509.2888,-718.2635 459.5,-723.2518 459.5,-670 459.5,-670 459.5,-670 459.5,-614 459.5,-487.5089 389.7616,-468.8578 369.5,-344 368.0762,-335.2259 365.4614,-331.9185 369.5,-324 377.8076,-307.7111 393.9427,-295.3724 408.7344,-286.8618"/>
<polygon fill="#191970" stroke="#191970" points="410.5324,-289.8691 417.6887,-282.0564 407.2223,-283.7012 410.5324,-289.8691"/>
</g>
<!-- Node25 -->
<g id="node25" class="node">
<title>Node25</title>
<g id="a_node25"><a xlink:href="_r_d_f_annotation_8h.html" target="_top" xlink:title="RDFAnnotation I/O. ">
<polygon fill="#ffffff" stroke="#000000" points="1928,-716.5 1928,-735.5 2095,-735.5 2095,-716.5 1928,-716.5"/>
<text text-anchor="middle" x="2011.5" y="-723.5" font-family="Helvetica,sans-Serif" font-size="10.00" fill="#000000">sbml/annotation/RDFAnnotation.h</text>
</a>
</g>
</g>
<!-- Node23&#45;&gt;Node25 -->
<g id="edge46" class="edge">
<title>Node23&#45;&gt;Node25</title>
<path fill="none" stroke="#191970" d="M1077.545,-779.7528C1219.4283,-771.5869 1710.2183,-743.34 1917.7129,-731.3978"/>
<polygon fill="#191970" stroke="#191970" points="1918.194,-734.876 1927.9763,-730.8071 1917.7917,-727.8876 1918.194,-734.876"/>
</g>
<!-- Node28 -->
<g id="node28" class="node">
<title>Node28</title>
<g id="a_node28"><a xlink:href="_list_8h.html" target="_top" xlink:title="Simple, generic list utility class. ">
<polygon fill="#ffffff" stroke="#000000" points="1323.5,-492.5 1323.5,-511.5 1403.5,-511.5 1403.5,-492.5 1323.5,-492.5"/>
<text text-anchor="middle" x="1363.5" y="-499.5" font-family="Helvetica,sans-Serif" font-size="10.00" fill="#000000">sbml/util/List.h</text>
</a>
</g>
</g>
<!-- Node23&#45;&gt;Node28 -->
<g id="edge99" class="edge">
<title>Node23&#45;&gt;Node28</title>
<path fill="none" stroke="#191970" d="M1049.2647,-772.3752C1068.2041,-754.322 1105.5,-713.2769 1105.5,-670 1105.5,-670 1105.5,-670 1105.5,-614 1105.5,-569.1706 1238.2242,-531.0315 1313.2821,-513.0473"/>
<polygon fill="#191970" stroke="#191970" points="1314.5408,-516.3466 1323.4706,-510.6449 1312.9342,-509.5335 1314.5408,-516.3466"/>
</g>
<!-- Node30 -->
<g id="node30" class="node">
<title>Node30</title>
<g id="a_node30"><a xlink:href="_x_m_l_node_8h.html" target="_top" xlink:title="Class definition of XMLNode, a node in an XML document tree. ">
<polygon fill="#ffffff" stroke="#000000" points="1747.5,-492.5 1747.5,-511.5 1859.5,-511.5 1859.5,-492.5 1747.5,-492.5"/>
<text text-anchor="middle" x="1803.5" y="-499.5" font-family="Helvetica,sans-Serif" font-size="10.00" fill="#000000">sbml/xml/XMLNode.h</text>
</a>
</g>
</g>
<!-- Node23&#45;&gt;Node30 -->
<g id="edge131" class="edge">
<title>Node23&#45;&gt;Node30</title>
<path fill="none" stroke="#191970" d="M1077.6056,-780.3846C1232.618,-773.4711 1795.5,-743.3189 1795.5,-670 1795.5,-670 1795.5,-670 1795.5,-614 1795.5,-581.6293 1798.866,-544.1294 1801.2313,-521.7743"/>
<polygon fill="#191970" stroke="#191970" points="1804.739,-521.8948 1802.3538,-511.5719 1797.781,-521.1291 1804.739,-521.8948"/>
</g>
<!-- Node38 -->
<g id="node38" class="node">
<title>Node38</title>
<g id="a_node38"><a xlink:href="_c_v_term_8h.html" target="_top" xlink:title="Definition of a CVTerm class for adding annotations to a Model. ">
<polygon fill="#ffffff" stroke="#000000" points="2106,-492.5 2106,-511.5 2241,-511.5 2241,-492.5 2106,-492.5"/>
<text text-anchor="middle" x="2173.5" y="-499.5" font-family="Helvetica,sans-Serif" font-size="10.00" fill="#000000">sbml/annotation/CVTerm.h</text>
</a>
</g>
</g>
<!-- Node23&#45;&gt;Node38 -->
<g id="edge89" class="edge">
<title>Node23&#45;&gt;Node38</title>
<path fill="none" stroke="#191970" d="M1077.5988,-781.5773C1264.9261,-779.3927 2063.2973,-768.2152 2104.5,-736 2171.8633,-683.3307 2175.8907,-568.1999 2174.5837,-521.8837"/>
<polygon fill="#191970" stroke="#191970" points="2178.0721,-521.5217 2174.1718,-511.6709 2171.0778,-521.8039 2178.0721,-521.5217"/>
</g>
<!-- Node39 -->
<g id="node39" class="node">
<title>Node39</title>
<g id="a_node39"><a xlink:href="_s_b_m_l_namespaces_8h.html" target="_top" xlink:title="SBMLNamespaces class to store level/version and namespace. ">
<polygon fill="#ffffff" stroke="#000000" points="905.5,-380.5 905.5,-399.5 1039.5,-399.5 1039.5,-380.5 905.5,-380.5"/>
<text text-anchor="middle" x="972.5" y="-387.5" font-family="Helvetica,sans-Serif" font-size="10.00" fill="#000000">sbml/SBMLNamespaces.h</text>
</a>
</g>
</g>
<!-- Node23&#45;&gt;Node39 -->
<g id="edge100" class="edge">
<title>Node23&#45;&gt;Node39</title>
<path fill="none" stroke="#191970" d="M1027.896,-772.3425C1009.2393,-754.2361 972.5,-713.1076 972.5,-670 972.5,-670 972.5,-670 972.5,-502 972.5,-469.7116 972.5,-432.1872 972.5,-409.8048"/>
<polygon fill="#191970" stroke="#191970" points="976.0001,-409.5883 972.5,-399.5884 969.0001,-409.5884 976.0001,-409.5883"/>
</g>
<!-- Node46 -->
<g id="node46" class="node">
<title>Node46</title>
<g id="a_node46"><a xlink:href="_s_b_m_l_constructor_exception_8h.html" target="_top" xlink:title="Definition of SBMLConstructorException, the exception class for constructor exceptions. ">
<polygon fill="#ffffff" stroke="#000000" points="715.5,-436.5 715.5,-455.5 887.5,-455.5 887.5,-436.5 715.5,-436.5"/>
<text text-anchor="middle" x="801.5" y="-443.5" font-family="Helvetica,sans-Serif" font-size="10.00" fill="#000000">sbml/SBMLConstructorException.h</text>
</a>
</g>
</g>
<!-- Node23&#45;&gt;Node46 -->
<g id="edge119" class="edge">
<title>Node23&#45;&gt;Node46</title>
<path fill="none" stroke="#191970" d="M999.1887,-778.5077C938.6465,-770.7337 829.5,-746.1577 829.5,-670 829.5,-670 829.5,-670 829.5,-558 829.5,-524.5848 817.6246,-487.1911 809.3415,-465.1729"/>
<polygon fill="#191970" stroke="#191970" points="812.5326,-463.7229 805.6315,-455.6839 806.0132,-466.2719 812.5326,-463.7229"/>
</g>
<!-- Node47 -->
<g id="node47" class="node">
<title>Node47</title>
<polygon fill="#ffffff" stroke="#bfbfbf" points="525.5,-324.5 525.5,-343.5 583.5,-343.5 583.5,-324.5 525.5,-324.5"/>
<text text-anchor="middle" x="554.5" y="-331.5" font-family="Helvetica,sans-Serif" font-size="10.00" fill="#000000">algorithm</text>
</g>
<!-- Node23&#45;&gt;Node47 -->
<g id="edge142" class="edge">
<title>Node23&#45;&gt;Node47</title>
<path fill="none" stroke="#191970" d="M999.4426,-780.893C907.119,-777.7885 677.9705,-767.0925 608.5,-736 568.5773,-718.132 535.5,-713.7388 535.5,-670 535.5,-670 535.5,-670 535.5,-446 535.5,-413.2688 543.4852,-375.9052 549.1022,-353.6716"/>
<polygon fill="#191970" stroke="#191970" points="552.5415,-354.3545 551.6965,-343.7934 545.7711,-352.5763 552.5415,-354.3545"/>
</g>
<!-- Node48 -->
<g id="node48" class="node">
<title>Node48</title>
<g id="a_node48"><a xlink:href="_expected_attributes_8h.html" target="_top" xlink:title="Definition of ExpectedAttributes, the class allowing the specification of attributes to expect...">
<polygon fill="#ffffff" stroke="#000000" points="602,-380.5 602,-399.5 735,-399.5 735,-380.5 602,-380.5"/>
<text text-anchor="middle" x="668.5" y="-387.5" font-family="Helvetica,sans-Serif" font-size="10.00" fill="#000000">sbml/ExpectedAttributes.h</text>
</a>
</g>
</g>
<!-- Node23&#45;&gt;Node48 -->
<g id="edge125" class="edge">
<title>Node23&#45;&gt;Node48</title>
<path fill="none" stroke="#191970" d="M999.2551,-780.9113C887.1498,-776.7464 573.5,-757.2935 573.5,-670 573.5,-670 573.5,-670 573.5,-502 573.5,-458.9765 614.7735,-424.0102 642.9109,-405.1715"/>
<polygon fill="#191970" stroke="#191970" points="645.0021,-407.9879 651.5159,-399.632 641.213,-402.102 645.0021,-407.9879"/>
</g>
<!-- Node49 -->
<g id="node49" class="node">
<title>Node49</title>
<g id="a_node49"><a xlink:href="_x_m_l_error_8h.html" target="_top" xlink:title="Represents errors (and messages) encountered during an XML parse. ">
<polygon fill="#ffffff" stroke="#000000" points="1901.5,-324.5 1901.5,-343.5 2011.5,-343.5 2011.5,-324.5 1901.5,-324.5"/>
<text text-anchor="middle" x="1956.5" y="-331.5" font-family="Helvetica,sans-Serif" font-size="10.00" fill="#000000">sbml/xml/XMLError.h</text>
</a>
</g>
</g>
<!-- Node23&#45;&gt;Node49 -->
<g id="edge132" class="edge">
<title>Node23&#45;&gt;Node49</title>
<path fill="none" stroke="#191970" d="M1077.673,-781.109C1247.1237,-777.1372 1917.8967,-760.1735 2127.5,-736 2283.8871,-717.9639 2475.5,-827.4237 2475.5,-670 2475.5,-670 2475.5,-670 2475.5,-502 2475.5,-471.4754 2478.9203,-456.7143 2456.5,-436 2424.7032,-406.6227 2149.9918,-362.6451 2021.8335,-343.4871"/>
<polygon fill="#191970" stroke="#191970" points="2022.158,-339.997 2011.7516,-341.9861 2021.1271,-346.9206 2022.158,-339.997"/>
</g>
<!-- Node24&#45;&gt;Node5 -->
<g id="edge45" class="edge">
<title>Node24&#45;&gt;Node5</title>
<path fill="none" stroke="#191970" d="M442.1339,-262.9626C447.4015,-235.506 466.7119,-156.1285 518.5,-123 555.5719,-99.2854 1188.6182,-83.2153 1401.3846,-78.4637"/>
<polygon fill="#191970" stroke="#191970" points="1401.5756,-81.9604 1411.4954,-78.2394 1401.4202,-74.9622 1401.5756,-81.9604"/>
</g>
<!-- Node24&#45;&gt;Node9 -->
<g id="edge44" class="edge">
<title>Node24&#45;&gt;Node9</title>
<path fill="none" stroke="#191970" d="M504.3312,-269.3806C733.1248,-258.1996 1510.897,-220.1903 1744.5713,-208.7708"/>
<polygon fill="#191970" stroke="#191970" points="1744.8113,-212.2633 1754.6285,-208.2793 1744.4696,-205.2717 1744.8113,-212.2633"/>
</g>
<!-- Node26 -->
<g id="node26" class="node">
<title>Node26</title>
<g id="a_node26"><a xlink:href="_r_d_f_annotation_parser_8h.html" target="_top" xlink:title="RDFAnnotationParser.h">
<polygon fill="#ffffff" stroke="#000000" points="1983,-660.5 1983,-679.5 2106,-679.5 2106,-660.5 1983,-660.5"/>
<text text-anchor="middle" x="2044.5" y="-667.5" font-family="Helvetica,sans-Serif" font-size="10.00" fill="#000000">RDFAnnotationParser.h</text>
</a>
</g>
</g>
<!-- Node25&#45;&gt;Node26 -->
<g id="edge47" class="edge">
<title>Node25&#45;&gt;Node26</title>
<path fill="none" stroke="#191970" d="M2017.2482,-716.2455C2021.7435,-708.617 2028.1248,-697.7881 2033.5825,-688.5267"/>
<polygon fill="#191970" stroke="#191970" points="2036.7561,-690.035 2038.8177,-679.6427 2030.7253,-686.4811 2036.7561,-690.035"/>
</g>
<!-- Node26&#45;&gt;Node5 -->
<g id="edge48" class="edge">
<title>Node26&#45;&gt;Node5</title>
<path fill="none" stroke="#191970" d="M1982.9903,-668.5655C1807.7536,-664.2059 1308.1703,-649.8092 1146.5,-624 959.1163,-594.0859 917.287,-562.955 734.5,-512 544.3773,-459 307.5,-587.3719 307.5,-390 307.5,-390 307.5,-390 307.5,-205.5 307.5,-140.7784 366.129,-143.5546 427.5,-123 519.2292,-92.2777 1183.3116,-80.8057 1401.3488,-77.8427"/>
<polygon fill="#191970" stroke="#191970" points="1401.4382,-81.3419 1411.3903,-77.708 1401.3442,-74.3425 1401.4382,-81.3419"/>
</g>
<!-- Node26&#45;&gt;Node8 -->
<g id="edge49" class="edge">
<title>Node26&#45;&gt;Node8</title>
<path fill="none" stroke="#191970" d="M2088.346,-660.4995C2176.4715,-639.2157 2376.2953,-579.5825 2489.5,-456 2532.2024,-409.383 2575.9416,-377.6498 2542.5,-324 2530.8703,-305.3426 2510.2935,-293.2547 2490.419,-285.5168"/>
<polygon fill="#191970" stroke="#191970" points="2491.3557,-282.1346 2480.7611,-282.0578 2488.9954,-288.7247 2491.3557,-282.1346"/>
</g>
<!-- Node26&#45;&gt;Node15 -->
<g id="edge50" class="edge">
<title>Node26&#45;&gt;Node15</title>
<path fill="none" stroke="#191970" d="M1995.3743,-660.4768C1908.2716,-640.5165 1730.0532,-585.0065 1667.5,-456 1659.0538,-438.5809 1672.7956,-419.6497 1686.2386,-406.5479"/>
<polygon fill="#191970" stroke="#191970" points="1688.8878,-408.8706 1693.9492,-399.5629 1684.1882,-403.6828 1688.8878,-408.8706"/>
</g>
<!-- Node26&#45;&gt;Node18 -->
<g id="edge86" class="edge">
<title>Node26&#45;&gt;Node18</title>
<path fill="none" stroke="#191970" d="M1982.6431,-669.4331C1767.8786,-666.6575 1067.5,-650.5137 1067.5,-558 1067.5,-558 1067.5,-558 1067.5,-446 1067.5,-415.4754 1067.2757,-404.0671 1048.5,-380 1028.9005,-354.877 1002.3979,-371.6146 986.5,-344 977.3863,-328.1696 980.9911,-307.0513 985.7451,-291.8764"/>
<polygon fill="#191970" stroke="#191970" points="989.191,-292.6324 989.2444,-282.0377 982.5957,-290.2866 989.191,-292.6324"/>
</g>
<!-- Node27 -->
<g id="node27" class="node">
<title>Node27</title>
<g id="a_node27"><a xlink:href="_model_history_8h.html" target="_top" xlink:title="ModelHistory I/O. ">
<polygon fill="#ffffff" stroke="#000000" points="1355,-604.5 1355,-623.5 1512,-623.5 1512,-604.5 1355,-604.5"/>
<text text-anchor="middle" x="1433.5" y="-611.5" font-family="Helvetica,sans-Serif" font-size="10.00" fill="#000000">sbml/annotation/ModelHistory.h</text>
</a>
</g>
</g>
<!-- Node26&#45;&gt;Node27 -->
<g id="edge51" class="edge">
<title>Node26&#45;&gt;Node27</title>
<path fill="none" stroke="#191970" d="M1982.8348,-664.3482C1874.0482,-654.3776 1647.7125,-633.6332 1522.1765,-622.1275"/>
<polygon fill="#191970" stroke="#191970" points="1522.4814,-618.6408 1512.2036,-621.2134 1521.8424,-625.6116 1522.4814,-618.6408"/>
</g>
<!-- Node32 -->
<g id="node32" class="node">
<title>Node32</title>
<polygon fill="#ffffff" stroke="#bfbfbf" points="2014,-436.5 2014,-455.5 2059,-455.5 2059,-436.5 2014,-436.5"/>
<text text-anchor="middle" x="2036.5" y="-443.5" font-family="Helvetica,sans-Serif" font-size="10.00" fill="#000000">cstdlib</text>
</g>
<!-- Node26&#45;&gt;Node32 -->
<g id="edge88" class="edge">
<title>Node26&#45;&gt;Node32</title>
<path fill="none" stroke="#191970" d="M2044.1563,-660.375C2042.9459,-626.4851 2038.8654,-512.2317 2037.2083,-465.8332"/>
<polygon fill="#191970" stroke="#191970" points="2040.6972,-465.4578 2036.8425,-455.5891 2033.7017,-465.7077 2040.6972,-465.4578"/>
</g>
<!-- Node35 -->
<g id="node35" class="node">
<title>Node35</title>
<polygon fill="#ffffff" stroke="#bfbfbf" points="2268,-436.5 2268,-455.5 2307,-455.5 2307,-436.5 2268,-436.5"/>
<text text-anchor="middle" x="2287.5" y="-443.5" font-family="Helvetica,sans-Serif" font-size="10.00" fill="#000000">limits</text>
</g>
<!-- Node26&#45;&gt;Node35 -->
<g id="edge84" class="edge">
<title>Node26&#45;&gt;Node35</title>
<path fill="none" stroke="#191970" d="M2061.288,-660.4082C2098.9492,-638.2478 2191.4865,-580.1422 2250.5,-512 2262.8176,-497.777 2272.9345,-478.8085 2279.4572,-464.8572"/>
<polygon fill="#191970" stroke="#191970" points="2282.6542,-466.2817 2283.5516,-455.7249 2276.2668,-463.4179 2282.6542,-466.2817"/>
</g>
<!-- Node36 -->
<g id="node36" class="node">
<title>Node36</title>
<polygon fill="#ffffff" stroke="#bfbfbf" points="2325.5,-436.5 2325.5,-455.5 2377.5,-455.5 2377.5,-436.5 2325.5,-436.5"/>
<text text-anchor="middle" x="2351.5" y="-443.5" font-family="Helvetica,sans-Serif" font-size="10.00" fill="#000000">iomanip</text>
</g>
<!-- Node26&#45;&gt;Node36 -->
<g id="edge85" class="edge">
<title>Node26&#45;&gt;Node36</title>
<path fill="none" stroke="#191970" d="M2069.8112,-660.3994C2090.7533,-652.0082 2120.9385,-638.8638 2145.5,-624 2224.4905,-576.1977 2302.8756,-497.7075 2335.5877,-463.1943"/>
<polygon fill="#191970" stroke="#191970" points="2338.2564,-465.4654 2342.5514,-455.7801 2333.154,-460.6731 2338.2564,-465.4654"/>
</g>
<!-- Node37 -->
<g id="node37" class="node">
<title>Node37</title>
<polygon fill="#ffffff" stroke="#bfbfbf" points="2395.5,-436.5 2395.5,-455.5 2447.5,-455.5 2447.5,-436.5 2395.5,-436.5"/>
<text text-anchor="middle" x="2421.5" y="-443.5" font-family="Helvetica,sans-Serif" font-size="10.00" fill="#000000">sstream</text>
</g>
<!-- Node26&#45;&gt;Node37 -->
<g id="edge87" class="edge">
<title>Node26&#45;&gt;Node37</title>
<path fill="none" stroke="#191970" d="M2078.9945,-660.4383C2105.3927,-652.4557 2142.2787,-639.8419 2172.5,-624 2265.2119,-575.4009 2362.6777,-496.1992 2402.6859,-462.2673"/>
<polygon fill="#191970" stroke="#191970" points="2404.9968,-464.8965 2410.3287,-455.7411 2400.4512,-459.5732 2404.9968,-464.8965"/>
</g>
<!-- Node27&#45;&gt;Node5 -->
<g id="edge52" class="edge">
<title>Node27&#45;&gt;Node5</title>
<path fill="none" stroke="#191970" d="M1354.6969,-604.5895C1096.3684,-571.7755 295.7083,-453.5893 368.5,-257 395.7512,-183.4026 412.9717,-157.4233 483.5,-123 524.6384,-102.9213 1183.5637,-84.3408 1401.2834,-78.7233"/>
<polygon fill="#191970" stroke="#191970" points="1401.4065,-82.2214 1411.3133,-78.4656 1401.2267,-75.2237 1401.4065,-82.2214"/>
</g>
<!-- Node27&#45;&gt;Node8 -->
<g id="edge53" class="edge">
<title>Node27&#45;&gt;Node8</title>
<path fill="none" stroke="#191970" d="M1487.2843,-604.4267C1535.8247,-595.602 1609.1277,-581.816 1672.5,-568 1691.7475,-563.8038 2343.0813,-406.9875 2361.5,-400 2411.317,-381.1008 2439.9973,-389.6346 2467.5,-344 2477.9554,-326.6516 2465.756,-304.9956 2453.9212,-290.0892"/>
<polygon fill="#191970" stroke="#191970" points="2456.3227,-287.5114 2447.1692,-282.1761 2450.9976,-292.055 2456.3227,-287.5114"/>
</g>
<!-- Node27&#45;&gt;Node17 -->
<g id="edge54" class="edge">
<title>Node27&#45;&gt;Node17</title>
<path fill="none" stroke="#191970" d="M1376.2147,-604.4755C1336.849,-596.6274 1289.5895,-584.169 1277.5,-568 1272.1772,-560.881 1276.4511,-556.8268 1277.5,-548 1283.5422,-497.154 1275.5417,-478.2285 1304.5,-436 1345.149,-376.7236 1391.2504,-399.0182 1437.5,-344 1449.0079,-330.3103 1457.3716,-311.9419 1462.7995,-297.2509"/>
<polygon fill="#191970" stroke="#191970" points="1466.1176,-298.3651 1466.0909,-287.7703 1459.5047,-296.0693 1466.1176,-298.3651"/>
</g>
<!-- Node27&#45;&gt;Node18 -->
<g id="edge83" class="edge">
<title>Node27&#45;&gt;Node18</title>
<path fill="none" stroke="#191970" d="M1372.5112,-604.4301C1340.5734,-597.5812 1301.7251,-586.2492 1270.5,-568 1168.2088,-508.2168 1179.4049,-446.7245 1081.5,-380 1048.61,-357.5847 1022.6397,-376.3844 999.5,-344 988.8938,-329.1565 988.4592,-307.896 990.0293,-292.4186"/>
<polygon fill="#191970" stroke="#191970" points="993.5196,-292.7278 991.4102,-282.3451 986.5845,-291.7771 993.5196,-292.7278"/>
</g>
<!-- Node27&#45;&gt;Node28 -->
<g id="edge55" class="edge">
<title>Node27&#45;&gt;Node28</title>
<path fill="none" stroke="#191970" d="M1432.4161,-604.365C1430.5405,-590.8759 1425.7488,-565.998 1414.5,-548 1407.193,-536.3089 1396.0828,-525.7947 1386.0954,-517.7793"/>
<polygon fill="#191970" stroke="#191970" points="1388.1517,-514.9458 1378.0782,-511.6631 1383.9059,-520.5112 1388.1517,-514.9458"/>
</g>
<!-- Node27&#45;&gt;Node30 -->
<g id="edge58" class="edge">
<title>Node27&#45;&gt;Node30</title>
<path fill="none" stroke="#191970" d="M1482.5626,-604.467C1522.7183,-596.2065 1580.7949,-583.2083 1630.5,-568 1680.8599,-552.5913 1737.6144,-529.8746 1771.9545,-515.514"/>
<polygon fill="#191970" stroke="#191970" points="1773.5822,-518.6263 1781.4409,-511.5206 1770.8663,-512.1747 1773.5822,-518.6263"/>
</g>
<!-- Node33 -->
<g id="node33" class="node">
<title>Node33</title>
<g id="a_node33"><a xlink:href="_date_8h.html" target="_top" xlink:title="Date I/O. ">
<polygon fill="#ffffff" stroke="#000000" points="1286,-548.5 1286,-567.5 1405,-567.5 1405,-548.5 1286,-548.5"/>
<text text-anchor="middle" x="1345.5" y="-555.5" font-family="Helvetica,sans-Serif" font-size="10.00" fill="#000000">sbml/annotation/Date.h</text>
</a>
</g>
</g>
<!-- Node27&#45;&gt;Node33 -->
<g id="edge69" class="edge">
<title>Node27&#45;&gt;Node33</title>
<path fill="none" stroke="#191970" d="M1418.1716,-604.2455C1404.6697,-595.6534 1384.7878,-583.0014 1369.2314,-573.1018"/>
<polygon fill="#191970" stroke="#191970" points="1370.9685,-570.0587 1360.6528,-567.6427 1367.2103,-575.9643 1370.9685,-570.0587"/>
</g>
<!-- Node34 -->
<g id="node34" class="node">
<title>Node34</title>
<g id="a_node34"><a xlink:href="_model_creator_8h.html" target="_top" xlink:title="ModelCreator I/O. ">
<polygon fill="#ffffff" stroke="#000000" points="1462,-548.5 1462,-567.5 1621,-567.5 1621,-548.5 1462,-548.5"/>
<text text-anchor="middle" x="1541.5" y="-555.5" font-family="Helvetica,sans-Serif" font-size="10.00" fill="#000000">sbml/annotation/ModelCreator.h</text>
</a>
</g>
</g>
<!-- Node27&#45;&gt;Node34 -->
<g id="edge76" class="edge">
<title>Node27&#45;&gt;Node34</title>
<path fill="none" stroke="#191970" d="M1452.3122,-604.2455C1469.3473,-595.4125 1494.6575,-582.2887 1513.9681,-572.2758"/>
<polygon fill="#191970" stroke="#191970" points="1515.637,-575.353 1522.9034,-567.6427 1512.4147,-569.1388 1515.637,-575.353"/>
</g>
<!-- Node28&#45;&gt;Node5 -->
<g id="edge56" class="edge">
<title>Node28&#45;&gt;Node5</title>
<path fill="none" stroke="#191970" d="M1383.8275,-492.3352C1436.8893,-465.535 1575.5,-384.7805 1575.5,-272.5 1575.5,-272.5 1575.5,-272.5 1575.5,-205.5 1575.5,-155.1552 1526.5735,-113.6662 1495.5167,-92.4017"/>
<polygon fill="#191970" stroke="#191970" points="1497.1778,-89.3041 1486.9063,-86.7067 1493.3161,-95.1426 1497.1778,-89.3041"/>
</g>
<!-- Node29 -->
<g id="node29" class="node">
<title>Node29</title>
<polygon fill="#ffffff" stroke="#bfbfbf" points="1324,-436.5 1324,-455.5 1373,-455.5 1373,-436.5 1324,-436.5"/>
<text text-anchor="middle" x="1348.5" y="-443.5" font-family="Helvetica,sans-Serif" font-size="10.00" fill="#000000">string.h</text>
</g>
<!-- Node28&#45;&gt;Node29 -->
<g id="edge57" class="edge">
<title>Node28&#45;&gt;Node29</title>
<path fill="none" stroke="#191970" d="M1360.8872,-492.2455C1358.9084,-484.8579 1356.1256,-474.4689 1353.6988,-465.4087"/>
<polygon fill="#191970" stroke="#191970" points="1357.0511,-464.3966 1351.0829,-455.6427 1350.2895,-466.2078 1357.0511,-464.3966"/>
</g>
<!-- Node30&#45;&gt;Node8 -->
<g id="edge66" class="edge">
<title>Node30&#45;&gt;Node8</title>
<path fill="none" stroke="#191970" d="M1841.3886,-492.4186C1873.4754,-483.9445 1920.5025,-470.6737 1960.5,-456 1981.0473,-448.4619 1984.4245,-441.902 2005.5,-436 2126.3206,-402.1652 2163.2391,-428.1904 2285.5,-400 2361.372,-382.5057 2406.0869,-407.2477 2451.5,-344 2462.5143,-328.6602 2455.9201,-306.8945 2448.5096,-291.4152"/>
<polygon fill="#191970" stroke="#191970" points="2451.4558,-289.4982 2443.6988,-282.2816 2445.2624,-292.7604 2451.4558,-289.4982"/>
</g>
<!-- Node30&#45;&gt;Node16 -->
<g id="edge59" class="edge">
<title>Node30&#45;&gt;Node16</title>
<path fill="none" stroke="#191970" d="M1827.6963,-492.4713C1860.3356,-479.623 1920.2862,-456.0422 1971.5,-436 2076.3351,-394.9735 2143.9767,-436.9428 2207.5,-344 2218.7658,-327.5168 2207.4605,-305.7089 2196.2252,-290.5303"/>
<polygon fill="#191970" stroke="#191970" points="2198.7572,-288.0914 2189.7893,-282.4497 2193.2817,-292.4524 2198.7572,-288.0914"/>
</g>
<!-- Node30&#45;&gt;Node19 -->
<g id="edge67" class="edge">
<title>Node30&#45;&gt;Node19</title>
<path fill="none" stroke="#191970" d="M1757.7911,-492.4924C1626.7588,-464.8505 1256.7381,-383.9444 1218.5,-344 1205.4762,-330.3951 1202.1654,-308.6099 1201.6887,-292.658"/>
<polygon fill="#191970" stroke="#191970" points="1205.1906,-292.2924 1201.7442,-282.2738 1198.1907,-292.2549 1205.1906,-292.2924"/>
</g>
<!-- Node31 -->
<g id="node31" class="node">
<title>Node31</title>
<g id="a_node31"><a xlink:href="_x_m_l_token_8h.html" target="_top" xlink:title="A unit of XML syntax, either an XML element or text. ">
<polygon fill="#ffffff" stroke="#000000" points="1710,-436.5 1710,-455.5 1825,-455.5 1825,-436.5 1710,-436.5"/>
<text text-anchor="middle" x="1767.5" y="-443.5" font-family="Helvetica,sans-Serif" font-size="10.00" fill="#000000">sbml/xml/XMLToken.h</text>
</a>
</g>
</g>
<!-- Node30&#45;&gt;Node31 -->
<g id="edge60" class="edge">
<title>Node30&#45;&gt;Node31</title>
<path fill="none" stroke="#191970" d="M1797.2293,-492.2455C1792.2736,-484.5367 1785.217,-473.5598 1779.2224,-464.2348"/>
<polygon fill="#191970" stroke="#191970" points="1782.0506,-462.1618 1773.6989,-455.6427 1776.1624,-465.9471 1782.0506,-462.1618"/>
</g>
<!-- Node30&#45;&gt;Node32 -->
<g id="edge68" class="edge">
<title>Node30&#45;&gt;Node32</title>
<path fill="none" stroke="#191970" d="M1846.0387,-492.448C1885.8073,-483.4159 1946.8018,-469.3014 1999.5,-456 2000.9516,-455.6336 2002.4339,-455.2544 2003.9303,-454.8674"/>
<polygon fill="#191970" stroke="#191970" points="2005.0569,-458.19 2013.8332,-452.2548 2003.2712,-451.4215 2005.0569,-458.19"/>
</g>
<!-- Node31&#45;&gt;Node8 -->
<g id="edge64" class="edge">
<title>Node31&#45;&gt;Node8</title>
<path fill="none" stroke="#191970" d="M1815.4232,-436.4729C1857.1533,-427.8855 1919.1554,-414.4233 1972.5,-400 2000.8588,-392.3324 2006.9722,-387.0125 2035.5,-380 2124.9061,-358.0228 2150.5411,-367.7227 2239.5,-344 2299.3089,-328.0508 2366.6437,-301.91 2405.3685,-286.0437"/>
<polygon fill="#191970" stroke="#191970" points="2407.1315,-289.1025 2415.0389,-282.0509 2404.46,-282.6323 2407.1315,-289.1025"/>
</g>
<!-- Node31&#45;&gt;Node15 -->
<g id="edge62" class="edge">
<title>Node31&#45;&gt;Node15</title>
<path fill="none" stroke="#191970" d="M1756.8746,-436.2455C1747.9527,-428.0549 1735.012,-416.1749 1724.4808,-406.5069"/>
<polygon fill="#191970" stroke="#191970" points="1726.7371,-403.8271 1717.0036,-399.6427 1722.0032,-408.9837 1726.7371,-403.8271"/>
</g>
<!-- Node31&#45;&gt;Node16 -->
<g id="edge61" class="edge">
<title>Node31&#45;&gt;Node16</title>
<path fill="none" stroke="#191970" d="M1797.3993,-436.433C1841.0496,-422.6921 1924.9286,-397.1398 1997.5,-380 2039.9605,-369.9717 2162.6214,-377.5595 2190.5,-344 2202.5889,-329.4477 2196.9463,-307.2001 2190.2787,-291.3902"/>
<polygon fill="#191970" stroke="#191970" points="2193.3304,-289.6534 2185.9252,-282.0761 2186.9889,-292.6175 2193.3304,-289.6534"/>
</g>
<!-- Node31&#45;&gt;Node18 -->
<g id="edge65" class="edge">
<title>Node31&#45;&gt;Node18</title>
<path fill="none" stroke="#191970" d="M1709.9136,-437.1359C1559.7165,-413.953 1165.7489,-352.7117 1138.5,-344 1093.8239,-329.7166 1045.6884,-303.6139 1017.6468,-287.2088"/>
<polygon fill="#191970" stroke="#191970" points="1019.3283,-284.1369 1008.9414,-282.0482 1015.7587,-290.1584 1019.3283,-284.1369"/>
</g>
<!-- Node31&#45;&gt;Node31 -->
<g id="edge63" class="edge">
<title>Node31&#45;&gt;Node31</title>
<path fill="none" stroke="#191970" d="M1799.7009,-455.5252C1821.5805,-458.3079 1843,-455.1328 1843,-446 1843,-438.2942 1827.7512,-434.8298 1809.8433,-435.6068"/>
<polygon fill="#191970" stroke="#191970" points="1809.366,-432.1347 1799.7009,-436.4748 1809.9629,-439.1092 1809.366,-432.1347"/>
</g>
<!-- Node33&#45;&gt;Node5 -->
<g id="edge70" class="edge">
<title>Node33&#45;&gt;Node5</title>
<path fill="none" stroke="#191970" d="M1285.8545,-551.673C1172.0878,-538.9033 916.6936,-506.8554 706.5,-456 687.0678,-451.2985 550.4474,-413.2775 535.5,-400 508.8096,-376.2915 501.8251,-358.865 509.5,-324 532.066,-221.4892 538.5112,-167.6633 633.5,-123 702.0803,-90.7539 1213.1676,-80.5287 1401.2751,-77.8376"/>
<polygon fill="#191970" stroke="#191970" points="1401.3753,-81.3366 1411.3251,-77.6966 1401.277,-74.3373 1401.3753,-81.3366"/>
</g>
<!-- Node33&#45;&gt;Node8 -->
<g id="edge71" class="edge">
<title>Node33&#45;&gt;Node8</title>
<path fill="none" stroke="#191970" d="M1391.8909,-548.4481C1454.7719,-535.5242 1570.5736,-511.8061 1669.5,-492 1750.7792,-475.7271 1775.204,-485.9405 1852.5,-456 1868.4922,-449.8054 1869.6102,-442.4526 1885.5,-436 1969.807,-401.7643 2198.4725,-373.6483 2284.5,-344 2330.5236,-328.1385 2381.2054,-302.7763 2411.1443,-286.9087"/>
<polygon fill="#191970" stroke="#191970" points="2412.9379,-289.9186 2420.1037,-282.1146 2409.6353,-283.7466 2412.9379,-289.9186"/>
</g>
<!-- Node33&#45;&gt;Node17 -->
<g id="edge72" class="edge">
<title>Node33&#45;&gt;Node17</title>
<path fill="none" stroke="#191970" d="M1336.4259,-548.3243C1328.9037,-539.5913 1318.7769,-525.9994 1314.5,-512 1309.8319,-496.7201 1303.9193,-454.0451 1315.5,-436 1335.4702,-404.8825 1358.3221,-418.2124 1390.5,-400 1429.8708,-377.7165 1454.0448,-383.8283 1475.5,-344 1483.0981,-329.8953 1481.7889,-311.8929 1478.61,-297.4809"/>
<polygon fill="#191970" stroke="#191970" points="1481.9768,-296.5208 1476.0655,-287.7284 1475.2035,-298.2881 1481.9768,-296.5208"/>
</g>
<!-- Node33&#45;&gt;Node18 -->
<g id="edge75" class="edge">
<title>Node33&#45;&gt;Node18</title>
<path fill="none" stroke="#191970" d="M1337.0732,-548.2996C1310.776,-518.6213 1226.6957,-428.1469 1138.5,-380 1089.2529,-353.1155 1057.8557,-382.9804 1017.5,-344 1003.4204,-330.4002 997.6004,-308.3003 995.1947,-292.2663"/>
<polygon fill="#191970" stroke="#191970" points="998.6679,-291.8324 994.0152,-282.3139 991.7166,-292.6563 998.6679,-291.8324"/>
</g>
<!-- Node33&#45;&gt;Node28 -->
<g id="edge73" class="edge">
<title>Node33&#45;&gt;Node28</title>
<path fill="none" stroke="#191970" d="M1348.6354,-548.2455C1351.01,-540.8579 1354.3493,-530.4689 1357.2615,-521.4087"/>
<polygon fill="#191970" stroke="#191970" points="1360.6725,-522.234 1360.4006,-511.6427 1354.0083,-520.0919 1360.6725,-522.234"/>
</g>
<!-- Node33&#45;&gt;Node30 -->
<g id="edge74" class="edge">
<title>Node33&#45;&gt;Node30</title>
<path fill="none" stroke="#191970" d="M1405.3755,-550.679C1491.0609,-540.2022 1648.122,-520.9982 1737.2141,-510.1048"/>
<polygon fill="#191970" stroke="#191970" points="1737.7027,-513.5712 1747.204,-508.8834 1736.8531,-506.623 1737.7027,-513.5712"/>
</g>
<!-- Node34&#45;&gt;Node5 -->
<g id="edge77" class="edge">
<title>Node34&#45;&gt;Node5</title>
<path fill="none" stroke="#191970" d="M1547.1497,-548.0977C1564.123,-517.3855 1613.5,-420.5987 1613.5,-334 1613.5,-334 1613.5,-334 1613.5,-205.5 1613.5,-147.7498 1548.1778,-109.3641 1505.8318,-90.5474"/>
<polygon fill="#191970" stroke="#191970" points="1506.9666,-87.2259 1496.3962,-86.5065 1504.2108,-93.6607 1506.9666,-87.2259"/>
</g>
<!-- Node34&#45;&gt;Node8 -->
<g id="edge78" class="edge">
<title>Node34&#45;&gt;Node8</title>
<path fill="none" stroke="#191970" d="M1567.7282,-548.4374C1605.2766,-534.9255 1676.6536,-509.8995 1738.5,-492 1803.1123,-473.2999 1820.4516,-473.1215 1885.5,-456 1917.2038,-447.6552 1924.6298,-443.685 1956.5,-436 1981.6766,-429.9291 2394.0775,-361.1314 2413.5,-344 2428.3401,-330.9104 2434.0229,-308.3581 2436.1883,-292.0769"/>
<polygon fill="#191970" stroke="#191970" points="2439.6835,-292.299 2437.1949,-282.0006 2432.7181,-291.6031 2439.6835,-292.299"/>
</g>
<!-- Node34&#45;&gt;Node17 -->
<g id="edge79" class="edge">
<title>Node34&#45;&gt;Node17</title>
<path fill="none" stroke="#191970" d="M1542.2575,-548.1313C1544.4136,-514.9198 1548.3539,-404.7674 1513.5,-324 1508.9535,-313.4642 1501.5382,-303.4106 1494.1355,-295.0284"/>
<polygon fill="#191970" stroke="#191970" points="1496.5224,-292.4565 1487.136,-287.5427 1491.4094,-297.2375 1496.5224,-292.4565"/>
</g>
<!-- Node34&#45;&gt;Node18 -->
<g id="edge82" class="edge">
<title>Node34&#45;&gt;Node18</title>
<path fill="none" stroke="#191970" d="M1531.6636,-548.1773C1508.0538,-525.1461 1445.4505,-467.2569 1382.5,-436 1365.1655,-427.3929 1062.4724,-354.9293 1046.5,-344 1027.0691,-330.7041 1011.9924,-307.905 1002.9706,-291.626"/>
<polygon fill="#191970" stroke="#191970" points="1005.908,-289.6924 998.1509,-282.4759 999.7146,-292.9547 1005.908,-289.6924"/>
</g>
<!-- Node34&#45;&gt;Node28 -->
<g id="edge80" class="edge">
<title>Node34&#45;&gt;Node28</title>
<path fill="none" stroke="#191970" d="M1510.9007,-548.3733C1481.1739,-539.021 1435.8841,-524.7725 1403.3544,-514.5385"/>
<polygon fill="#191970" stroke="#191970" points="1404.2895,-511.1636 1393.7,-511.5011 1402.1887,-517.8409 1404.2895,-511.1636"/>
</g>
<!-- Node34&#45;&gt;Node30 -->
<g id="edge81" class="edge">
<title>Node34&#45;&gt;Node30</title>
<path fill="none" stroke="#191970" d="M1586.2417,-548.4369C1631.2694,-538.8127 1700.7728,-523.957 1748.9927,-513.6504"/>
<polygon fill="#191970" stroke="#191970" points="1749.8953,-517.0366 1758.9428,-511.5237 1748.4321,-510.1912 1749.8953,-517.0366"/>
</g>
<!-- Node38&#45;&gt;Node5 -->
<g id="edge90" class="edge">
<title>Node38&#45;&gt;Node5</title>
<path fill="none" stroke="#191970" d="M2169.2373,-492.1583C2162.635,-477.9604 2148.6697,-451.7154 2129.5,-436 2078.9481,-394.5574 2056.5403,-397.2888 1993.5,-380 1886.5128,-350.6588 1837.3794,-407.6246 1746.5,-344 1655.1137,-280.0205 1714.1776,-193.2271 1627.5,-123 1602.6169,-102.8394 1569.1963,-91.5145 1539.586,-85.1529"/>
<polygon fill="#191970" stroke="#191970" points="1540.2,-81.7065 1529.7082,-83.1802 1538.8291,-88.571 1540.2,-81.7065"/>
</g>
<!-- Node38&#45;&gt;Node8 -->
<g id="edge91" class="edge">
<title>Node38&#45;&gt;Node8</title>
<path fill="none" stroke="#191970" d="M2183.0631,-492.1448C2197.9508,-477.4326 2228.223,-449.9659 2259.5,-436 2374.491,-384.6538 2470.7039,-456.3991 2527.5,-344 2540.8998,-317.4819 2508.2712,-297.6245 2478.6209,-285.6499"/>
<polygon fill="#191970" stroke="#191970" points="2479.7517,-282.3353 2469.161,-282.0405 2477.2563,-288.8754 2479.7517,-282.3353"/>
</g>
<!-- Node38&#45;&gt;Node15 -->
<g id="edge93" class="edge">
<title>Node38&#45;&gt;Node15</title>
<path fill="none" stroke="#191970" d="M2162.1063,-492.4433C2143.7241,-477.6068 2105.7994,-449.353 2068.5,-436 2017.3135,-417.6755 1872.0427,-403.2452 1781.8538,-395.7242"/>
<polygon fill="#191970" stroke="#191970" points="1781.9341,-392.2191 1771.6803,-394.8856 1781.3589,-399.1954 1781.9341,-392.2191"/>
</g>
<!-- Node38&#45;&gt;Node17 -->
<g id="edge92" class="edge">
<title>Node38&#45;&gt;Node17</title>
<path fill="none" stroke="#191970" d="M2165.7651,-492.2669C2153.6557,-477.7142 2128.7684,-450.453 2101.5,-436 1944.9099,-353.0028 1884.7925,-389.4737 1713.5,-344 1649.8775,-327.1099 1577.5771,-305.5262 1528.4992,-290.5125"/>
<polygon fill="#191970" stroke="#191970" points="1529.2835,-287.0922 1518.6968,-287.5066 1527.2313,-293.7846 1529.2835,-287.0922"/>
</g>
<!-- Node38&#45;&gt;Node18 -->
<g id="edge96" class="edge">
<title>Node38&#45;&gt;Node18</title>
<path fill="none" stroke="#191970" d="M2105.8611,-498.1096C1963.5175,-488.9567 1623.1763,-461.9837 1344.5,-400 1313.3327,-393.0677 1306.5607,-387.3952 1275.5,-380 1191.0405,-359.8912 1162.4765,-380.0623 1083.5,-344 1054.484,-330.7507 1026.6149,-306.1717 1009.7728,-289.5767"/>
<polygon fill="#191970" stroke="#191970" points="1011.9543,-286.8051 1002.434,-282.156 1006.9772,-291.7273 1011.9543,-286.8051"/>
</g>
<!-- Node38&#45;&gt;Node32 -->
<g id="edge98" class="edge">
<title>Node38&#45;&gt;Node32</title>
<path fill="none" stroke="#191970" d="M2149.9489,-492.3733C2127.5259,-483.2077 2093.598,-469.3393 2068.6851,-459.156"/>
<polygon fill="#191970" stroke="#191970" points="2069.8695,-455.859 2059.2886,-455.315 2067.2208,-462.3386 2069.8695,-455.859"/>
</g>
<!-- Node38&#45;&gt;Node35 -->
<g id="edge94" class="edge">
<title>Node38&#45;&gt;Node35</title>
<path fill="none" stroke="#191970" d="M2193.0973,-492.3733C2211.2331,-483.4644 2238.4135,-470.1127 2258.9587,-460.0203"/>
<polygon fill="#191970" stroke="#191970" points="2260.7261,-463.0517 2268.1584,-455.5011 2257.6397,-456.7688 2260.7261,-463.0517"/>
</g>
<!-- Node38&#45;&gt;Node36 -->
<g id="edge95" class="edge">
<title>Node38&#45;&gt;Node36</title>
<path fill="none" stroke="#191970" d="M2204.0993,-492.3733C2235.0873,-482.6242 2282.9867,-467.5547 2315.7147,-457.2583"/>
<polygon fill="#191970" stroke="#191970" points="2316.8604,-460.5671 2325.349,-454.2273 2314.7596,-453.8897 2316.8604,-460.5671"/>
</g>
<!-- Node38&#45;&gt;Node37 -->
<g id="edge97" class="edge">
<title>Node38&#45;&gt;Node37</title>
<path fill="none" stroke="#191970" d="M2221.9283,-492.4845C2263.0379,-484.1945 2323.7959,-471.4447 2385.3017,-456.1905"/>
<polygon fill="#191970" stroke="#191970" points="2386.3244,-459.5427 2395.1766,-453.7211 2384.6262,-452.7518 2386.3244,-459.5427"/>
</g>
<!-- Node39&#45;&gt;Node18 -->
<g id="edge116" class="edge">
<title>Node39&#45;&gt;Node18</title>
<path fill="none" stroke="#191970" d="M948.244,-380.2987C923.2067,-368.7377 889.6121,-347.9478 903.5,-324 916.2283,-302.0517 942.22,-288.661 963.0133,-281.0575"/>
<polygon fill="#191970" stroke="#191970" points="964.3685,-284.2941 972.7224,-277.7777 962.1282,-277.6623 964.3685,-284.2941"/>
</g>
<!-- Node39&#45;&gt;Node20 -->
<g id="edge117" class="edge">
<title>Node39&#45;&gt;Node20</title>
<path fill="none" stroke="#191970" d="M933.7352,-380.4369C892.2062,-370.1918 826.6471,-354.0187 784.8819,-343.7154"/>
<polygon fill="#191970" stroke="#191970" points="785.6103,-340.2902 775.063,-341.2931 783.9336,-347.0864 785.6103,-340.2902"/>
</g>
<!-- Node40 -->
<g id="node40" class="node">
<title>Node40</title>
<g id="a_node40"><a xlink:href="_x_m_l_namespaces_8h.html" target="_top" xlink:title="A list of XMLNamespace declarations (URI/prefix pairs) ">
<polygon fill="#ffffff" stroke="#000000" points="1249.5,-324.5 1249.5,-343.5 1395.5,-343.5 1395.5,-324.5 1249.5,-324.5"/>
<text text-anchor="middle" x="1322.5" y="-331.5" font-family="Helvetica,sans-Serif" font-size="10.00" fill="#000000">sbml/xml/XMLNamespaces.h</text>
</a>
</g>
</g>
<!-- Node39&#45;&gt;Node40 -->
<g id="edge101" class="edge">
<title>Node39&#45;&gt;Node40</title>
<path fill="none" stroke="#191970" d="M1032.2695,-380.4369C1093.4277,-370.6516 1188.386,-355.4582 1252.895,-345.1368"/>
<polygon fill="#191970" stroke="#191970" points="1253.6556,-348.5597 1262.9771,-343.5237 1252.5497,-341.6476 1253.6556,-348.5597"/>
</g>
<!-- Node39&#45;&gt;Node41 -->
<g id="edge107" class="edge">
<title>Node39&#45;&gt;Node41</title>
<path fill="none" stroke="#191970" d="M1039.6706,-385.559C1195.6902,-375.2436 1581.6823,-349.7235 1744.8119,-338.9381"/>
<polygon fill="#191970" stroke="#191970" points="1745.4826,-342.4014 1755.2299,-338.2493 1745.0207,-335.4167 1745.4826,-342.4014"/>
</g>
<!-- Node40&#45;&gt;Node8 -->
<g id="edge103" class="edge">
<title>Node40&#45;&gt;Node8</title>
<path fill="none" stroke="#191970" d="M1395.7715,-331.1627C1552.3792,-324.9219 1931.2863,-308.881 2248.5,-288 2286.4731,-285.5004 2328.6867,-282.098 2363.5698,-279.1177"/>
<polygon fill="#191970" stroke="#191970" points="2364.0112,-282.5927 2373.6745,-278.2487 2363.4114,-275.6185 2364.0112,-282.5927"/>
</g>
<!-- Node40&#45;&gt;Node16 -->
<g id="edge102" class="edge">
<title>Node40&#45;&gt;Node16</title>
<path fill="none" stroke="#191970" d="M1395.5062,-331.3372C1564.0128,-324.9345 1976.1487,-307.7364 2113.5,-288 2120.2491,-287.0302 2127.3212,-285.7217 2134.2365,-284.2739"/>
<polygon fill="#191970" stroke="#191970" points="2135.1886,-287.6481 2144.2,-282.0763 2133.6808,-280.8124 2135.1886,-287.6481"/>
</g>
<!-- Node40&#45;&gt;Node17 -->
<g id="edge104" class="edge">
<title>Node40&#45;&gt;Node17</title>
<path fill="none" stroke="#191970" d="M1345.625,-324.3906C1366.7678,-315.6049 1398.6497,-302.3567 1424.9064,-291.446"/>
<polygon fill="#191970" stroke="#191970" points="1426.4037,-294.614 1434.2951,-287.5446 1423.7176,-288.1499 1426.4037,-294.614"/>
</g>
<!-- Node40&#45;&gt;Node18 -->
<g id="edge105" class="edge">
<title>Node40&#45;&gt;Node18</title>
<path fill="none" stroke="#191970" d="M1271.4547,-324.4581C1202.2741,-311.5262 1080.8969,-288.8371 1024.2464,-278.2474"/>
<polygon fill="#191970" stroke="#191970" points="1024.6039,-274.7537 1014.131,-276.3566 1023.3176,-281.6345 1024.6039,-274.7537"/>
</g>
<!-- Node40&#45;&gt;Node19 -->
<g id="edge106" class="edge">
<title>Node40&#45;&gt;Node19</title>
<path fill="none" stroke="#191970" d="M1303.75,-324.3906C1284.024,-314.2811 1252.7688,-298.2628 1230.2,-286.6962"/>
<polygon fill="#191970" stroke="#191970" points="1231.614,-283.4881 1221.1183,-282.0419 1228.4213,-289.7176 1231.614,-283.4881"/>
</g>
<!-- Node41&#45;&gt;Node5 -->
<g id="edge110" class="edge">
<title>Node41&#45;&gt;Node5</title>
<path fill="none" stroke="#191970" d="M1799.7323,-324.4793C1784.845,-316.4788 1764.7952,-303.8227 1751.5,-288 1699.7966,-226.4678 1739.7947,-173.7822 1677.5,-123 1656.5339,-105.9086 1591.4284,-93.2816 1539.7673,-85.6254"/>
<polygon fill="#191970" stroke="#191970" points="1540.0293,-82.127 1529.6314,-84.1606 1539.028,-89.055 1540.0293,-82.127"/>
</g>
<!-- Node41&#45;&gt;Node9 -->
<g id="edge108" class="edge">
<title>Node41&#45;&gt;Node9</title>
<path fill="none" stroke="#191970" d="M1799.3439,-324.4543C1785.6185,-316.7394 1768.5365,-304.4561 1760.5,-288 1754.454,-275.6197 1755.2585,-269.7418 1760.5,-257 1765.1651,-245.6593 1773.669,-235.4898 1782.4131,-227.2432"/>
<polygon fill="#191970" stroke="#191970" points="1784.8711,-229.7425 1790.0686,-220.5101 1780.2481,-224.4862 1784.8711,-229.7425"/>
</g>
<!-- Node42 -->
<g id="node42" class="node">
<title>Node42</title>
<polygon fill="#ffffff" stroke="#bfbfbf" points="1912.5,-196 1912.5,-215 1958.5,-215 1958.5,-196 1912.5,-196"/>
<text text-anchor="middle" x="1935.5" y="-203" font-family="Helvetica,sans-Serif" font-size="10.00" fill="#000000">stdio.h</text>
</g>
<!-- Node41&#45;&gt;Node42 -->
<g id="edge109" class="edge">
<title>Node41&#45;&gt;Node42</title>
<path fill="none" stroke="#191970" d="M1834.3399,-324.3302C1846.9292,-315.7033 1865.0371,-302.2618 1878.5,-288 1897.3554,-268.0257 1914.6208,-241.334 1925.0936,-223.7929"/>
<polygon fill="#191970" stroke="#191970" points="1928.1558,-225.4897 1930.1799,-215.09 1922.1122,-221.9575 1928.1558,-225.4897"/>
</g>
<!-- Node43 -->
<g id="node43" class="node">
<title>Node43</title>
<g id="a_node43"><a xlink:href="memory_8h.html" target="_top" xlink:title="sbml/util/memory.h">
<polygon fill="#ffffff" stroke="#000000" points="1769.5,-263 1769.5,-282 1869.5,-282 1869.5,-263 1769.5,-263"/>
<text text-anchor="middle" x="1819.5" y="-270" font-family="Helvetica,sans-Serif" font-size="10.00" fill="#000000">sbml/util/memory.h</text>
</a>
</g>
</g>
<!-- Node41&#45;&gt;Node43 -->
<g id="edge111" class="edge">
<title>Node41&#45;&gt;Node43</title>
<path fill="none" stroke="#191970" d="M1819.5,-324.3906C1819.5,-315.8657 1819.5,-303.1392 1819.5,-292.4235"/>
<polygon fill="#191970" stroke="#191970" points="1823.0001,-292.2448 1819.5,-282.2449 1816.0001,-292.2449 1823.0001,-292.2448"/>
</g>
<!-- Node41&#45;&gt;Node44 -->
<g id="edge112" class="edge">
<title>Node41&#45;&gt;Node44</title>
<path fill="none" stroke="#191970" d="M1848.0938,-324.3906C1879.3845,-313.8749 1929.6986,-296.966 1964.34,-285.3243"/>
<polygon fill="#191970" stroke="#191970" points="1965.743,-288.5452 1974.107,-282.0419 1963.513,-281.9099 1965.743,-288.5452"/>
</g>
<!-- Node44&#45;&gt;Node5 -->
<g id="edge115" class="edge">
<title>Node44&#45;&gt;Node5</title>
<path fill="none" stroke="#191970" d="M2004.8795,-262.6862C2010.7377,-235.8544 2022.686,-160.7629 1983.5,-123 1952.202,-92.8386 1672.5194,-81.9576 1539.8078,-78.4685"/>
<polygon fill="#191970" stroke="#191970" points="1539.8282,-74.968 1529.7418,-78.2106 1539.6489,-81.9657 1539.8282,-74.968"/>
</g>
<!-- Node44&#45;&gt;Node42 -->
<g id="edge113" class="edge">
<title>Node44&#45;&gt;Node42</title>
<path fill="none" stroke="#191970" d="M1992.9005,-262.9005C1982.353,-252.353 1965.2096,-235.2096 1952.3998,-222.3998"/>
<polygon fill="#191970" stroke="#191970" points="1954.6276,-219.6779 1945.0817,-215.0817 1949.6779,-224.6276 1954.6276,-219.6779"/>
</g>
<!-- Node45 -->
<g id="node45" class="node">
<title>Node45</title>
<polygon fill="#ffffff" stroke="#bfbfbf" points="2031,-196 2031,-215 2084,-215 2084,-196 2031,-196"/>
<text text-anchor="middle" x="2057.5" y="-203" font-family="Helvetica,sans-Serif" font-size="10.00" fill="#000000">stdarg.h</text>
</g>
<!-- Node44&#45;&gt;Node45 -->
<g id="edge114" class="edge">
<title>Node44&#45;&gt;Node45</title>
<path fill="none" stroke="#191970" d="M2010.3802,-262.9005C2018.8752,-252.552 2032.5824,-235.8542 2043.028,-223.1295"/>
<polygon fill="#191970" stroke="#191970" points="2045.9947,-225.0317 2049.6345,-215.0817 2040.5842,-220.5902 2045.9947,-225.0317"/>
</g>
<!-- Node46&#45;&gt;Node5 -->
<g id="edge120" class="edge">
<title>Node46&#45;&gt;Node5</title>
<path fill="none" stroke="#191970" d="M729.6128,-436.4771C672.3442,-428.0148 597.4581,-414.7298 570.5,-400 540.1584,-383.4215 529.4405,-376.0624 516.5,-344 513.1732,-335.7572 513.474,-332.358 516.5,-324 523.5902,-304.4167 534.9594,-305.3376 546.5,-288 573.7069,-247.1265 563.5517,-225.4736 597.5,-190 638.6643,-146.9862 656.4869,-140.1522 713.5,-123 778.2852,-103.5096 1226.9878,-85.6646 1401.3892,-79.3861"/>
<polygon fill="#191970" stroke="#191970" points="1401.6116,-82.8804 1411.4799,-79.0247 1401.361,-75.8849 1401.6116,-82.8804"/>
</g>
<!-- Node46&#45;&gt;Node18 -->
<g id="edge122" class="edge">
<title>Node46&#45;&gt;Node18</title>
<path fill="none" stroke="#191970" d="M800.5453,-436.3173C798.8682,-413.5885 798.0038,-356.3055 827.5,-324 845.779,-303.98 920.1787,-286.6921 962.9124,-278.164"/>
<polygon fill="#191970" stroke="#191970" points="963.6436,-281.5874 972.7879,-276.2365 962.3026,-274.717 963.6436,-281.5874"/>
</g>
<!-- Node46&#45;&gt;Node20 -->
<g id="edge123" class="edge">
<title>Node46&#45;&gt;Node20</title>
<path fill="none" stroke="#191970" d="M798.8271,-436.2736C795.0166,-423.102 787.3765,-399.0506 777.5,-380 772.4361,-370.2324 765.6012,-360.1174 759.5483,-351.8682"/>
<polygon fill="#191970" stroke="#191970" points="762.2333,-349.6162 753.408,-343.7541 756.6514,-353.8403 762.2333,-349.6162"/>
</g>
<!-- Node46&#45;&gt;Node39 -->
<g id="edge121" class="edge">
<title>Node46&#45;&gt;Node39</title>
<path fill="none" stroke="#191970" d="M830.8959,-436.3733C859.3307,-427.0613 902.5877,-412.8953 933.8081,-402.671"/>
<polygon fill="#191970" stroke="#191970" points="935.0736,-405.9396 943.4876,-399.5011 932.895,-399.2872 935.0736,-405.9396"/>
</g>
<!-- Node46&#45;&gt;Node47 -->
<g id="edge124" class="edge">
<title>Node46&#45;&gt;Node47</title>
<path fill="none" stroke="#191970" d="M730.6052,-436.474C679.2743,-428.4505 615.2447,-415.7669 593.5,-400 577.5667,-388.4468 567.0278,-368.2189 560.9677,-353.1928"/>
<polygon fill="#191970" stroke="#191970" points="564.2389,-351.9477 557.4765,-343.7917 557.6768,-354.3847 564.2389,-351.9477"/>
</g>
<!-- Node48&#45;&gt;Node5 -->
<g id="edge126" class="edge">
<title>Node48&#45;&gt;Node5</title>
<path fill="none" stroke="#191970" d="M660.0895,-380.4023C644.2339,-361.2833 611.5,-316.4854 611.5,-272.5 611.5,-272.5 611.5,-272.5 611.5,-205.5 611.5,-125.7952 1197.4346,-90.0955 1401.4559,-80.0808"/>
<polygon fill="#191970" stroke="#191970" points="1401.6389,-83.5762 1411.4575,-79.5955 1401.2995,-76.5844 1401.6389,-83.5762"/>
</g>
<!-- Node48&#45;&gt;Node18 -->
<g id="edge127" class="edge">
<title>Node48&#45;&gt;Node18</title>
<path fill="none" stroke="#191970" d="M665.8589,-380.0291C662.7161,-365.6703 659.5008,-339.2268 673.5,-324 693.0053,-302.7843 886.2209,-282.5437 962.6318,-275.3041"/>
<polygon fill="#191970" stroke="#191970" points="962.9781,-278.7871 972.6083,-274.3701 962.3256,-271.8176 962.9781,-278.7871"/>
</g>
<!-- Node48&#45;&gt;Node19 -->
<g id="edge128" class="edge">
<title>Node48&#45;&gt;Node19</title>
<path fill="none" stroke="#191970" d="M671.1282,-380.4124C675.7581,-365.5336 686.8876,-337.2229 707.5,-324 717.3092,-317.7074 1062.3688,-285.4241 1170.461,-275.4436"/>
<polygon fill="#191970" stroke="#191970" points="1170.8135,-278.926 1180.4499,-274.5225 1170.1707,-271.9556 1170.8135,-278.926"/>
</g>
<!-- Node48&#45;&gt;Node20 -->
<g id="edge129" class="edge">
<title>Node48&#45;&gt;Node20</title>
<path fill="none" stroke="#191970" d="M681.9124,-380.2455C693.5057,-371.814 710.4748,-359.4729 723.9678,-349.6598"/>
<polygon fill="#191970" stroke="#191970" points="726.2126,-352.355 732.2413,-343.6427 722.0953,-346.6938 726.2126,-352.355"/>
</g>
<!-- Node48&#45;&gt;Node47 -->
<g id="edge130" class="edge">
<title>Node48&#45;&gt;Node47</title>
<path fill="none" stroke="#191970" d="M648.9027,-380.3733C630.7669,-371.4644 603.5865,-358.1127 583.0413,-348.0203"/>
<polygon fill="#191970" stroke="#191970" points="584.3603,-344.7688 573.8416,-343.5011 581.2739,-351.0517 584.3603,-344.7688"/>
</g>
<!-- Node49&#45;&gt;Node8 -->
<g id="edge135" class="edge">
<title>Node49&#45;&gt;Node8</title>
<path fill="none" stroke="#191970" d="M2011.6768,-326.9452C2098.4288,-315.8532 2266.8099,-294.3242 2363.8198,-281.9207"/>
<polygon fill="#191970" stroke="#191970" points="2364.3688,-285.379 2373.8441,-280.6389 2363.481,-278.4356 2364.3688,-285.379"/>
</g>
<!-- Node49&#45;&gt;Node16 -->
<g id="edge134" class="edge">
<title>Node49&#45;&gt;Node16</title>
<path fill="none" stroke="#191970" d="M1991.5,-324.3906C2030.4588,-313.6944 2093.5093,-296.3836 2135.9571,-284.7294"/>
<polygon fill="#191970" stroke="#191970" points="2137.0293,-288.0646 2145.7458,-282.0419 2135.1759,-281.3144 2137.0293,-288.0646"/>
</g>
<!-- Node49&#45;&gt;Node17 -->
<g id="edge139" class="edge">
<title>Node49&#45;&gt;Node17</title>
<path fill="none" stroke="#191970" d="M1901.3594,-325.264C1898.364,-324.827 1895.3961,-324.4029 1892.5,-324 1776.7665,-307.901 1642.787,-292.0182 1557.3896,-282.2411"/>
<polygon fill="#191970" stroke="#191970" points="1557.5532,-278.7371 1547.2206,-281.0794 1556.7587,-285.6918 1557.5532,-278.7371"/>
</g>
<!-- Node49&#45;&gt;Node18 -->
<g id="edge138" class="edge">
<title>Node49&#45;&gt;Node18</title>
<path fill="none" stroke="#191970" d="M1901.3898,-325.0126C1898.3866,-324.6404 1895.4086,-324.299 1892.5,-324 1573.3384,-291.1893 1491.594,-309.9204 1171.5,-288 1119.7553,-284.4565 1059.6706,-278.9296 1024.214,-275.5219"/>
<polygon fill="#191970" stroke="#191970" points="1024.3281,-272.0167 1014.0374,-274.5369 1023.6537,-278.9841 1024.3281,-272.0167"/>
</g>
<!-- Node49&#45;&gt;Node42 -->
<g id="edge133" class="edge">
<title>Node49&#45;&gt;Node42</title>
<path fill="none" stroke="#191970" d="M1954.9216,-324.3416C1951.5011,-303.4114 1943.345,-253.504 1938.7646,-225.4762"/>
<polygon fill="#191970" stroke="#191970" points="1942.1638,-224.575 1937.0967,-215.2705 1935.2555,-225.7041 1942.1638,-224.575"/>
</g>
<!-- Node49&#45;&gt;Node44 -->
<g id="edge136" class="edge">
<title>Node49&#45;&gt;Node44</title>
<path fill="none" stroke="#191970" d="M1963.6875,-324.3906C1970.4666,-315.3273 1980.7978,-301.5149 1989.0973,-290.4188"/>
<polygon fill="#191970" stroke="#191970" points="1992.0243,-292.349 1995.2112,-282.2449 1986.4188,-288.1563 1992.0243,-292.349"/>
</g>
<!-- Node50 -->
<g id="node50" class="node">
<title>Node50</title>
<polygon fill="#ffffff" stroke="#bfbfbf" points="2059,-263 2059,-282 2104,-282 2104,-263 2059,-263"/>
<text text-anchor="middle" x="2081.5" y="-270" font-family="Helvetica,sans-Serif" font-size="10.00" fill="#000000">iosfwd</text>
</g>
<!-- Node49&#45;&gt;Node50 -->
<g id="edge137" class="edge">
<title>Node49&#45;&gt;Node50</title>
<path fill="none" stroke="#191970" d="M1976.3296,-324.3571C1995.3703,-315.0833 2024.9323,-300.6476 2050.5,-288 2051.4708,-287.5198 2052.4584,-287.0304 2053.4555,-286.5357"/>
<polygon fill="#191970" stroke="#191970" points="2055.1038,-289.6249 2062.4954,-282.0344 2051.9836,-283.3587 2055.1038,-289.6249"/>
</g>
</g>
</svg>
