<?xml version="1.0" encoding="UTF-8" standalone="no"?>
<!DOCTYPE svg PUBLIC "-//W3C//DTD SVG 1.1//EN"
 "http://www.w3.org/Graphics/SVG/1.1/DTD/svg11.dtd">
<!-- Generated by graphviz version 2.40.1 (20161225.0304)
 -->
<!-- Title: FormulaFormatter.cpp Pages: 1 -->
<svg width="2781pt" height="1024pt"
 viewBox="0.00 0.00 2781.00 1024.00" xmlns="http://www.w3.org/2000/svg" xmlns:xlink="http://www.w3.org/1999/xlink">
<g id="graph0" class="graph" transform="scale(1 1) rotate(0) translate(4 1020)">
<title>FormulaFormatter.cpp</title>
<polygon fill="#ffffff" stroke="transparent" points="-4,4 -4,-1020 2777,-1020 2777,4 -4,4"/>
<!-- Node1 -->
<g id="node1" class="node">
<title>Node1</title>
<polygon fill="#bfbfbf" stroke="#000000" points="48.5,-996.5 48.5,-1015.5 139.5,-1015.5 139.5,-996.5 48.5,-996.5"/>
<text text-anchor="middle" x="94" y="-1003.5" font-family="Helvetica,sans-Serif" font-size="10.00" fill="#000000">FormulaFormatter.cpp</text>
</g>
<!-- Node2 -->
<g id="node2" class="node">
<title>Node2</title>
<g id="a_node2"><a xlink:href="common_8h.html" target="_top" xlink:title="Common functions and macros for C and C++. ">
<polygon fill="#ffffff" stroke="#000000" points="356,-324.5 356,-343.5 456,-343.5 456,-324.5 356,-324.5"/>
<text text-anchor="middle" x="406" y="-331.5" font-family="Helvetica,sans-Serif" font-size="10.00" fill="#000000">sbml/common/common.h</text>
</a>
</g>
</g>
<!-- Node1&#45;&gt;Node2 -->
<g id="edge1" class="edge">
<title>Node1&#45;&gt;Node2</title>
<path fill="none" stroke="#191970" d="M85.25,-996.3262C69.5,-977.87 38,-935.7399 38,-894 38,-894 38,-894 38,-838 38,-781.1997 81.2341,-781.6742 115,-736 223.9212,-588.6651 352.6909,-408.7045 393.1687,-351.9951"/>
<polygon fill="#191970" stroke="#191970" points="396.1304,-353.8702 399.0894,-343.6969 390.4321,-349.8045 396.1304,-353.8702"/>
</g>
<!-- Node10 -->
<g id="node10" class="node">
<title>Node10</title>
<g id="a_node10"><a xlink:href="util_8h.html" target="_top" xlink:title="Utility functions. ">
<polygon fill="#ffffff" stroke="#000000" points="259,-263 259,-282 321,-282 321,-263 259,-263"/>
<text text-anchor="middle" x="290" y="-270" font-family="Helvetica,sans-Serif" font-size="10.00" fill="#000000">sbml/util/util.h</text>
</a>
</g>
</g>
<!-- Node1&#45;&gt;Node10 -->
<g id="edge150" class="edge">
<title>Node1&#45;&gt;Node10</title>
<path fill="none" stroke="#191970" d="M77.1947,-996.3224C50.157,-979.351 0,-941.4704 0,-894 0,-894 0,-894 0,-838 0,-775.5907 226.5258,-381.7722 279.165,-291.1007"/>
<polygon fill="#191970" stroke="#191970" points="282.2071,-292.8317 284.2071,-282.4274 276.1554,-289.3136 282.2071,-292.8317"/>
</g>
<!-- Node12 -->
<g id="node12" class="node">
<title>Node12</title>
<g id="a_node12"><a xlink:href="_formula_formatter_8h.html" target="_top" xlink:title="Formats an AST formula tree as an SBML formula string. ">
<polygon fill="#ffffff" stroke="#000000" points="188.5,-940.5 188.5,-959.5 307.5,-959.5 307.5,-940.5 188.5,-940.5"/>
<text text-anchor="middle" x="248" y="-947.5" font-family="Helvetica,sans-Serif" font-size="10.00" fill="#000000">sbml/math/FormulaFormatter.h</text>
</a>
</g>
</g>
<!-- Node1&#45;&gt;Node12 -->
<g id="edge15" class="edge">
<title>Node1&#45;&gt;Node12</title>
<path fill="none" stroke="#191970" d="M120.4735,-996.3733C145.8597,-987.1419 184.3645,-973.1402 212.422,-962.9375"/>
<polygon fill="#191970" stroke="#191970" points="213.6701,-966.2079 221.8719,-959.5011 211.2778,-959.6293 213.6701,-966.2079"/>
</g>
<!-- Node16 -->
<g id="node16" class="node">
<title>Node16</title>
<g id="a_node16"><a xlink:href="_a_s_t_node_type_8h.html" target="_top" xlink:title="Enumeration for Abstract Syntax Tree (AST). ">
<polygon fill="#ffffff" stroke="#000000" points="2534.5,-772.5 2534.5,-791.5 2643.5,-791.5 2643.5,-772.5 2534.5,-772.5"/>
<text text-anchor="middle" x="2589" y="-779.5" font-family="Helvetica,sans-Serif" font-size="10.00" fill="#000000">sbml/math/ASTNodeType.h</text>
</a>
</g>
</g>
<!-- Node1&#45;&gt;Node16 -->
<g id="edge149" class="edge">
<title>Node1&#45;&gt;Node16</title>
<path fill="none" stroke="#191970" d="M139.5207,-1005.5807C457.0959,-1002.3296 2335.1298,-977.6877 2549,-848 2566.1277,-837.614 2576.8923,-816.85 2582.8845,-801.3713"/>
<polygon fill="#191970" stroke="#191970" points="2586.2726,-802.2869 2586.2901,-791.6921 2579.6694,-799.9636 2586.2726,-802.2869"/>
</g>
<!-- Node3 -->
<g id="node3" class="node">
<title>Node3</title>
<g id="a_node3"><a xlink:href="libsbml-config_8h.html" target="_top" xlink:title="Decides whether to #include Unix or Windows configuration variables. ">
<polygon fill="#ffffff" stroke="#000000" points="2295.5,-190.5 2295.5,-220.5 2384.5,-220.5 2384.5,-190.5 2295.5,-190.5"/>
<text text-anchor="start" x="2303.5" y="-208.5" font-family="Helvetica,sans-Serif" font-size="10.00" fill="#000000">sbml/common/libsbml</text>
<text text-anchor="middle" x="2340" y="-197.5" font-family="Helvetica,sans-Serif" font-size="10.00" fill="#000000">&#45;config.h</text>
</a>
</g>
</g>
<!-- Node2&#45;&gt;Node3 -->
<g id="edge2" class="edge">
<title>Node2&#45;&gt;Node3</title>
<path fill="none" stroke="#191970" d="M456.0069,-325.3844C553.6783,-308.9438 776.8046,-273.2855 966,-257 1228.9389,-234.3668 2062.7085,-212.411 2285.0592,-206.8475"/>
<polygon fill="#191970" stroke="#191970" points="2285.2709,-210.3434 2295.1804,-206.595 2285.0962,-203.3455 2285.2709,-210.3434"/>
</g>
<!-- Node7 -->
<g id="node7" class="node">
<title>Node7</title>
<g id="a_node7"><a xlink:href="extern_8h.html" target="_top" xlink:title="Definitions of LIBSBML_EXTERN and related things. ">
<polygon fill="#ffffff" stroke="#000000" points="1551,-67.5 1551,-86.5 1643,-86.5 1643,-67.5 1551,-67.5"/>
<text text-anchor="middle" x="1597" y="-74.5" font-family="Helvetica,sans-Serif" font-size="10.00" fill="#000000">sbml/common/extern.h</text>
</a>
</g>
</g>
<!-- Node2&#45;&gt;Node7 -->
<g id="edge9" class="edge">
<title>Node2&#45;&gt;Node7</title>
<path fill="none" stroke="#191970" d="M402.9894,-324.477C395.7746,-299.6637 380.2136,-232.0365 410,-190 458.1504,-122.0468 503.4697,-139.9971 585,-123 769.8213,-84.4692 1356.3989,-78.2127 1540.8899,-77.1969"/>
<polygon fill="#191970" stroke="#191970" points="1540.9354,-80.6968 1550.917,-77.1447 1540.8989,-73.6969 1540.9354,-80.6968"/>
</g>
<!-- Node8 -->
<g id="node8" class="node">
<title>Node8</title>
<polygon fill="#ffffff" stroke="#bfbfbf" points="418.5,-196 418.5,-215 457.5,-215 457.5,-196 418.5,-196"/>
<text text-anchor="middle" x="438" y="-203" font-family="Helvetica,sans-Serif" font-size="10.00" fill="#000000">stdio.h</text>
</g>
<!-- Node2&#45;&gt;Node8 -->
<g id="edge8" class="edge">
<title>Node2&#45;&gt;Node8</title>
<path fill="none" stroke="#191970" d="M408.4052,-324.3416C413.6406,-303.3184 426.1563,-253.0598 433.1181,-225.1038"/>
<polygon fill="#191970" stroke="#191970" points="436.5466,-225.8199 435.5669,-215.2705 429.7541,-224.1283 436.5466,-225.8199"/>
</g>
<!-- Node9 -->
<g id="node9" class="node">
<title>Node9</title>
<g id="a_node9"><a xlink:href="memory_8h.html" target="_top" xlink:title="sbml/util/memory.h">
<polygon fill="#ffffff" stroke="#000000" points="453.5,-263 453.5,-282 532.5,-282 532.5,-263 453.5,-263"/>
<text text-anchor="middle" x="493" y="-270" font-family="Helvetica,sans-Serif" font-size="10.00" fill="#000000">sbml/util/memory.h</text>
</a>
</g>
</g>
<!-- Node2&#45;&gt;Node9 -->
<g id="edge10" class="edge">
<title>Node2&#45;&gt;Node9</title>
<path fill="none" stroke="#191970" d="M419.5938,-324.3906C433.3843,-314.6421 454.9472,-299.3994 471.141,-287.9521"/>
<polygon fill="#191970" stroke="#191970" points="473.3563,-290.6723 479.5017,-282.0419 469.3156,-284.9563 473.3563,-290.6723"/>
</g>
<!-- Node2&#45;&gt;Node10 -->
<g id="edge11" class="edge">
<title>Node2&#45;&gt;Node10</title>
<path fill="none" stroke="#191970" d="M387.875,-324.3906C368.8917,-314.3262 338.8627,-298.4057 317.0693,-286.8514"/>
<polygon fill="#191970" stroke="#191970" points="318.4723,-283.6338 307.9977,-282.0419 315.1934,-289.8184 318.4723,-283.6338"/>
</g>
<!-- Node4 -->
<g id="node4" class="node">
<title>Node4</title>
<g id="a_node4"><a xlink:href="libsbml-namespace_8h.html" target="_top" xlink:title="Defines C++ namespace of libSBML. ">
<polygon fill="#ffffff" stroke="#000000" points="2460.5,-.5 2460.5,-30.5 2549.5,-30.5 2549.5,-.5 2460.5,-.5"/>
<text text-anchor="start" x="2468.5" y="-18.5" font-family="Helvetica,sans-Serif" font-size="10.00" fill="#000000">sbml/common/libsbml</text>
<text text-anchor="middle" x="2505" y="-7.5" font-family="Helvetica,sans-Serif" font-size="10.00" fill="#000000">&#45;namespace.h</text>
</a>
</g>
</g>
<!-- Node3&#45;&gt;Node4 -->
<g id="edge3" class="edge">
<title>Node3&#45;&gt;Node4</title>
<path fill="none" stroke="#191970" d="M2384.5446,-192.6641C2406.0592,-184.5474 2430.8609,-172.1002 2448,-154 2464.109,-136.9876 2485.7842,-75.2941 2497.2062,-40.2563"/>
<polygon fill="#191970" stroke="#191970" points="2500.5408,-41.3196 2500.2738,-30.7281 2493.8776,-39.1743 2500.5408,-41.3196"/>
</g>
<!-- Node5 -->
<g id="node5" class="node">
<title>Node5</title>
<g id="a_node5"><a xlink:href="libsbml-config-common_8h.html" target="_top" xlink:title="Configuration variables. ">
<polygon fill="#ffffff" stroke="#000000" points="2349.5,-123.5 2349.5,-153.5 2438.5,-153.5 2438.5,-123.5 2349.5,-123.5"/>
<text text-anchor="start" x="2357.5" y="-141.5" font-family="Helvetica,sans-Serif" font-size="10.00" fill="#000000">sbml/common/libsbml</text>
<text text-anchor="middle" x="2394" y="-130.5" font-family="Helvetica,sans-Serif" font-size="10.00" fill="#000000">&#45;config&#45;common.h</text>
</a>
</g>
</g>
<!-- Node3&#45;&gt;Node5 -->
<g id="edge4" class="edge">
<title>Node3&#45;&gt;Node5</title>
<path fill="none" stroke="#191970" d="M2352.2534,-190.2967C2359.0886,-181.816 2367.7427,-171.0785 2375.3969,-161.5817"/>
<polygon fill="#191970" stroke="#191970" points="2378.2449,-163.6255 2381.7951,-153.6432 2372.7947,-159.2328 2378.2449,-163.6255"/>
</g>
<!-- Node6 -->
<g id="node6" class="node">
<title>Node6</title>
<g id="a_node6"><a xlink:href="libsbml-version_8h.html" target="_top" xlink:title="Define libSBML version numbers for access from client software. ">
<polygon fill="#ffffff" stroke="#000000" points="2242.5,-123.5 2242.5,-153.5 2331.5,-153.5 2331.5,-123.5 2242.5,-123.5"/>
<text text-anchor="start" x="2250.5" y="-141.5" font-family="Helvetica,sans-Serif" font-size="10.00" fill="#000000">sbml/common/libsbml</text>
<text text-anchor="middle" x="2287" y="-130.5" font-family="Helvetica,sans-Serif" font-size="10.00" fill="#000000">&#45;version.h</text>
</a>
</g>
</g>
<!-- Node3&#45;&gt;Node6 -->
<g id="edge5" class="edge">
<title>Node3&#45;&gt;Node6</title>
<path fill="none" stroke="#191970" d="M2327.9735,-190.2967C2321.2649,-181.816 2312.7711,-171.0785 2305.2586,-161.5817"/>
<polygon fill="#191970" stroke="#191970" points="2307.928,-159.3146 2298.9789,-153.6432 2302.438,-163.6574 2307.928,-159.3146"/>
</g>
<!-- Node6&#45;&gt;Node7 -->
<g id="edge6" class="edge">
<title>Node6&#45;&gt;Node7</title>
<path fill="none" stroke="#191970" d="M2242.4093,-125.8622C2237.5727,-124.7681 2232.7012,-123.782 2228,-123 2118.1767,-104.7311 1786.6112,-86.5507 1653.3512,-79.7743"/>
<polygon fill="#191970" stroke="#191970" points="1653.5114,-76.278 1643.3472,-79.2681 1653.1576,-83.2691 1653.5114,-76.278"/>
</g>
<!-- Node7&#45;&gt;Node4 -->
<g id="edge7" class="edge">
<title>Node7&#45;&gt;Node4</title>
<path fill="none" stroke="#191970" d="M1643.2762,-73.8657C1796.2202,-63.5066 2285.0806,-30.3954 2450.039,-19.2226"/>
<polygon fill="#191970" stroke="#191970" points="2450.6885,-22.6867 2460.4291,-18.5188 2450.2154,-15.7027 2450.6885,-22.6867"/>
</g>
<!-- Node10&#45;&gt;Node7 -->
<g id="edge14" class="edge">
<title>Node10&#45;&gt;Node7</title>
<path fill="none" stroke="#191970" d="M283.8807,-262.5223C274.9939,-246.6739 260.6507,-214.9854 271,-190 287.1156,-151.0935 299.3942,-139.8233 338,-123 393.7529,-98.7044 1303.1855,-81.8997 1540.6473,-77.9116"/>
<polygon fill="#191970" stroke="#191970" points="1540.8471,-81.4088 1550.7873,-77.7422 1540.7302,-74.4098 1540.8471,-81.4088"/>
</g>
<!-- Node10&#45;&gt;Node8 -->
<g id="edge12" class="edge">
<title>Node10&#45;&gt;Node8</title>
<path fill="none" stroke="#191970" d="M311.2048,-262.9005C336.913,-251.2624 380.3597,-231.5939 409.1127,-218.5774"/>
<polygon fill="#191970" stroke="#191970" points="410.587,-221.752 418.2535,-214.4393 407.7,-215.375 410.587,-221.752"/>
</g>
<!-- Node11 -->
<g id="node11" class="node">
<title>Node11</title>
<polygon fill="#ffffff" stroke="#bfbfbf" points="280,-196 280,-215 324,-215 324,-196 280,-196"/>
<text text-anchor="middle" x="302" y="-203" font-family="Helvetica,sans-Serif" font-size="10.00" fill="#000000">stdarg.h</text>
</g>
<!-- Node10&#45;&gt;Node11 -->
<g id="edge13" class="edge">
<title>Node10&#45;&gt;Node11</title>
<path fill="none" stroke="#191970" d="M291.7193,-262.9005C293.4837,-253.0495 296.2785,-237.4451 298.509,-224.9912"/>
<polygon fill="#191970" stroke="#191970" points="301.966,-225.5421 300.2839,-215.0817 295.0756,-224.308 301.966,-225.5421"/>
</g>
<!-- Node12&#45;&gt;Node7 -->
<g id="edge16" class="edge">
<title>Node12&#45;&gt;Node7</title>
<path fill="none" stroke="#191970" d="M235.291,-940.2948C223.8249,-931.327 206.7056,-917.4032 193,-904 107.9413,-820.8178 63,-788.9717 63,-670 63,-670 63,-670 63,-205.5 63,-156.54 91.6813,-143.8073 136,-123 200.6054,-92.6682 1280.1785,-80.1206 1540.7393,-77.5261"/>
<polygon fill="#191970" stroke="#191970" points="1540.7745,-81.026 1550.7395,-77.4274 1540.7054,-74.0263 1540.7745,-81.026"/>
</g>
<!-- Node13 -->
<g id="node13" class="node">
<title>Node13</title>
<g id="a_node13"><a xlink:href="_string_buffer_8h.html" target="_top" xlink:title="sbml/util/StringBuffer.h">
<polygon fill="#ffffff" stroke="#000000" points="202,-884.5 202,-903.5 294,-903.5 294,-884.5 202,-884.5"/>
<text text-anchor="middle" x="248" y="-891.5" font-family="Helvetica,sans-Serif" font-size="10.00" fill="#000000">sbml/util/StringBuffer.h</text>
</a>
</g>
</g>
<!-- Node12&#45;&gt;Node13 -->
<g id="edge17" class="edge">
<title>Node12&#45;&gt;Node13</title>
<path fill="none" stroke="#191970" d="M248,-940.2455C248,-932.9382 248,-922.6944 248,-913.7046"/>
<polygon fill="#191970" stroke="#191970" points="251.5001,-913.6426 248,-903.6427 244.5001,-913.6427 251.5001,-913.6426"/>
</g>
<!-- Node14 -->
<g id="node14" class="node">
<title>Node14</title>
<g id="a_node14"><a xlink:href="_a_s_t_node_8h.html" target="_top" xlink:title="Abstract Syntax Tree (AST) for representing formula trees. ">
<polygon fill="#ffffff" stroke="#000000" points="474,-884.5 474,-903.5 566,-903.5 566,-884.5 474,-884.5"/>
<text text-anchor="middle" x="520" y="-891.5" font-family="Helvetica,sans-Serif" font-size="10.00" fill="#000000">sbml/math/ASTNode.h</text>
</a>
</g>
</g>
<!-- Node12&#45;&gt;Node14 -->
<g id="edge18" class="edge">
<title>Node12&#45;&gt;Node14</title>
<path fill="none" stroke="#191970" d="M289.2199,-940.4369C335.76,-930.4502 411.5673,-914.8307 463.5645,-904.5059"/>
<polygon fill="#191970" stroke="#191970" points="464.5,-907.8888 473.6308,-902.5148 463.1417,-901.0218 464.5,-907.8888"/>
</g>
<!-- Node14&#45;&gt;Node7 -->
<g id="edge19" class="edge">
<title>Node14&#45;&gt;Node7</title>
<path fill="none" stroke="#191970" d="M566.1981,-893.6828C849.597,-891.6402 2347.4023,-879.4179 2549,-848 2651.5492,-832.0183 2773,-885.7871 2773,-782 2773,-782 2773,-782 2773,-614 2773,-537.4471 2735,-522.5529 2735,-446 2735,-446 2735,-446 2735,-205.5 2735,-156.2443 2705.5341,-144.0437 2661,-123 2615.152,-101.3354 1866.334,-83.0172 1653.1951,-78.223"/>
<polygon fill="#191970" stroke="#191970" points="1653.2356,-74.7231 1643.1597,-77.9984 1653.0789,-81.7214 1653.2356,-74.7231"/>
</g>
<!-- Node14&#45;&gt;Node12 -->
<g id="edge28" class="edge">
<title>Node14&#45;&gt;Node12</title>
<path fill="none" stroke="#191970" d="M478.9639,-903.5237C433.9998,-913.1738 361.5608,-928.1127 309.7515,-938.4366"/>
<polygon fill="#191970" stroke="#191970" points="308.8056,-935.056 299.6789,-940.4369 310.1692,-941.9219 308.8056,-935.056"/>
</g>
<!-- Node15 -->
<g id="node15" class="node">
<title>Node15</title>
<g id="a_node15"><a xlink:href="sbmlfwd_8h.html" target="_top" xlink:title="Forward declarations for all opaque C types. ">
<polygon fill="#ffffff" stroke="#000000" points="2128.5,-263 2128.5,-282 2227.5,-282 2227.5,-263 2128.5,-263"/>
<text text-anchor="middle" x="2178" y="-270" font-family="Helvetica,sans-Serif" font-size="10.00" fill="#000000">sbml/common/sbmlfwd.h</text>
</a>
</g>
</g>
<!-- Node14&#45;&gt;Node15 -->
<g id="edge20" class="edge">
<title>Node14&#45;&gt;Node15</title>
<path fill="none" stroke="#191970" d="M566.1681,-893.8825C864.3571,-892.8299 2506,-882.4722 2506,-782 2506,-782 2506,-782 2506,-614 2506,-537.4471 2468,-522.5529 2468,-446 2468,-446 2468,-446 2468,-390 2468,-341.8193 2425.3647,-344.9972 2382,-324 2336.1378,-301.7935 2279.6835,-288.4963 2237.7986,-280.9926"/>
<polygon fill="#191970" stroke="#191970" points="2238.1998,-277.5101 2227.7493,-279.2529 2237.0057,-284.4075 2238.1998,-277.5101"/>
</g>
<!-- Node14&#45;&gt;Node16 -->
<g id="edge23" class="edge">
<title>Node14&#45;&gt;Node16</title>
<path fill="none" stroke="#191970" d="M566.0426,-893.883C856.5982,-893.027 2426.8606,-886.622 2520,-848 2543.7728,-838.1422 2564.0883,-815.9676 2576.3968,-800.0406"/>
<polygon fill="#191970" stroke="#191970" points="2579.2468,-802.0732 2582.3822,-791.9529 2573.62,-797.9091 2579.2468,-802.0732"/>
</g>
<!-- Node17 -->
<g id="node17" class="node">
<title>Node17</title>
<g id="a_node17"><a xlink:href="_formula_tokenizer_8h.html" target="_top" xlink:title="Tokenizes an SBML formula string. ">
<polygon fill="#ffffff" stroke="#000000" points="104,-772.5 104,-791.5 224,-791.5 224,-772.5 104,-772.5"/>
<text text-anchor="middle" x="164" y="-779.5" font-family="Helvetica,sans-Serif" font-size="10.00" fill="#000000">sbml/math/FormulaTokenizer.h</text>
</a>
</g>
</g>
<!-- Node14&#45;&gt;Node17 -->
<g id="edge26" class="edge">
<title>Node14&#45;&gt;Node17</title>
<path fill="none" stroke="#191970" d="M473.8742,-891.4323C421.1949,-887.2229 333.2244,-876.257 263,-848 232.5883,-835.7629 201.8375,-813.3349 182.8546,-798.0533"/>
<polygon fill="#191970" stroke="#191970" points="184.9511,-795.2458 175.0043,-791.5971 180.5047,-800.6523 184.9511,-795.2458"/>
</g>
<!-- Node18 -->
<g id="node18" class="node">
<title>Node18</title>
<g id="a_node18"><a xlink:href="_formula_parser_8h.html" target="_top" xlink:title="Parses an SBML formula string into an AST. ">
<polygon fill="#ffffff" stroke="#000000" points="271.5,-828.5 271.5,-847.5 380.5,-847.5 380.5,-828.5 271.5,-828.5"/>
<text text-anchor="middle" x="326" y="-835.5" font-family="Helvetica,sans-Serif" font-size="10.00" fill="#000000">sbml/math/FormulaParser.h</text>
</a>
</g>
</g>
<!-- Node14&#45;&gt;Node18 -->
<g id="edge29" class="edge">
<title>Node14&#45;&gt;Node18</title>
<path fill="none" stroke="#191970" d="M481.4082,-884.3733C447.1797,-875.021 397.6542,-860.7725 363.7005,-850.5385"/>
<polygon fill="#191970" stroke="#191970" points="364.2829,-847.0575 353.6973,-847.5011 362.249,-853.7556 364.2829,-847.0575"/>
</g>
<!-- Node20 -->
<g id="node20" class="node">
<title>Node20</title>
<g id="a_node20"><a xlink:href="_x_m_l_attributes_8h.html" target="_top" xlink:title="XMLAttributes are a list of name/value pairs for XML elements. ">
<polygon fill="#ffffff" stroke="#000000" points="1632,-380.5 1632,-399.5 1734,-399.5 1734,-380.5 1632,-380.5"/>
<text text-anchor="middle" x="1683" y="-387.5" font-family="Helvetica,sans-Serif" font-size="10.00" fill="#000000">sbml/xml/XMLAttributes.h</text>
</a>
</g>
</g>
<!-- Node14&#45;&gt;Node20 -->
<g id="edge35" class="edge">
<title>Node14&#45;&gt;Node20</title>
<path fill="none" stroke="#191970" d="M566.228,-891.9731C781.1184,-882.2532 1672,-838.5466 1672,-782 1672,-782 1672,-782 1672,-670 1672,-572.2315 1678.7791,-455.4082 1681.6936,-409.7001"/>
<polygon fill="#191970" stroke="#191970" points="1685.1897,-409.8722 1682.3448,-399.6665 1678.2044,-409.4187 1685.1897,-409.8722"/>
</g>
<!-- Node22 -->
<g id="node22" class="node">
<title>Node22</title>
<g id="a_node22"><a xlink:href="operation_return_values_8h.html" target="_top" xlink:title="Enumeration of values returned by operations within libSBML. ">
<polygon fill="#ffffff" stroke="#000000" points="1537.5,-257.5 1537.5,-287.5 1656.5,-287.5 1656.5,-257.5 1537.5,-257.5"/>
<text text-anchor="start" x="1545.5" y="-275.5" font-family="Helvetica,sans-Serif" font-size="10.00" fill="#000000">sbml/common/operationReturn</text>
<text text-anchor="middle" x="1597" y="-264.5" font-family="Helvetica,sans-Serif" font-size="10.00" fill="#000000">Values.h</text>
</a>
</g>
</g>
<!-- Node14&#45;&gt;Node22 -->
<g id="edge147" class="edge">
<title>Node14&#45;&gt;Node22</title>
<path fill="none" stroke="#191970" d="M566.2971,-893.464C772.9751,-890.6099 1604.588,-874.0646 1683,-792 1719.2174,-754.0956 1773.2834,-366.7944 1743,-324 1733.4262,-310.471 1699.1935,-298.0251 1666.2823,-288.7585"/>
<polygon fill="#191970" stroke="#191970" points="1667.1688,-285.3725 1656.5996,-286.1093 1665.3214,-292.1243 1667.1688,-285.3725"/>
</g>
<!-- Node27 -->
<g id="node27" class="node">
<title>Node27</title>
<g id="a_node27"><a xlink:href="_syntax_checker_8h.html" target="_top" xlink:title="Syntax checking functions. ">
<polygon fill="#ffffff" stroke="#000000" points="410,-828.5 410,-847.5 502,-847.5 502,-828.5 410,-828.5"/>
<text text-anchor="middle" x="456" y="-835.5" font-family="Helvetica,sans-Serif" font-size="10.00" fill="#000000">sbml/SyntaxChecker.h</text>
</a>
</g>
</g>
<!-- Node14&#45;&gt;Node27 -->
<g id="edge48" class="edge">
<title>Node14&#45;&gt;Node27</title>
<path fill="none" stroke="#191970" d="M508.8521,-884.2455C499.4913,-876.0549 485.9142,-864.1749 474.8651,-854.5069"/>
<polygon fill="#191970" stroke="#191970" points="476.8508,-851.5937 467.0202,-847.6427 472.2412,-856.8618 476.8508,-851.5937"/>
</g>
<!-- Node51 -->
<g id="node51" class="node">
<title>Node51</title>
<g id="a_node51"><a xlink:href="_a_s_t_base_plugin_8h.html" target="_top" xlink:title="sbml/extension/ASTBasePlugin.h">
<polygon fill="#ffffff" stroke="#000000" points="520.5,-828.5 520.5,-847.5 647.5,-847.5 647.5,-828.5 520.5,-828.5"/>
<text text-anchor="middle" x="584" y="-835.5" font-family="Helvetica,sans-Serif" font-size="10.00" fill="#000000">sbml/extension/ASTBasePlugin.h</text>
</a>
</g>
</g>
<!-- Node14&#45;&gt;Node51 -->
<g id="edge148" class="edge">
<title>Node14&#45;&gt;Node51</title>
<path fill="none" stroke="#191970" d="M531.1479,-884.2455C540.5087,-876.0549 554.0858,-864.1749 565.1349,-854.5069"/>
<polygon fill="#191970" stroke="#191970" points="567.7588,-856.8618 572.9798,-847.6427 563.1492,-851.5937 567.7588,-856.8618"/>
</g>
<!-- Node15&#45;&gt;Node3 -->
<g id="edge22" class="edge">
<title>Node15&#45;&gt;Node3</title>
<path fill="none" stroke="#191970" d="M2201.2107,-262.9005C2225.3679,-252.9096 2263.8344,-237.0006 2294.1506,-224.4624"/>
<polygon fill="#191970" stroke="#191970" points="2295.7755,-227.578 2303.6787,-220.5218 2293.1002,-221.1094 2295.7755,-227.578"/>
</g>
<!-- Node15&#45;&gt;Node4 -->
<g id="edge21" class="edge">
<title>Node15&#45;&gt;Node4</title>
<path fill="none" stroke="#191970" d="M2227.767,-268.538C2317.8161,-260.8618 2500.2572,-242.786 2519,-221 2563.0452,-169.8034 2534.4838,-82.3025 2516.4727,-39.9266"/>
<polygon fill="#191970" stroke="#191970" points="2519.62,-38.3889 2512.3872,-30.647 2513.2134,-41.2096 2519.62,-38.3889"/>
</g>
<!-- Node16&#45;&gt;Node4 -->
<g id="edge24" class="edge">
<title>Node16&#45;&gt;Node4</title>
<path fill="none" stroke="#191970" d="M2622.8623,-772.4958C2665.9922,-758.0785 2735,-726.2255 2735,-670 2735,-670 2735,-670 2735,-614 2735,-537.4471 2773,-522.5529 2773,-446 2773,-446 2773,-446 2773,-138.5 2773,-91.9218 2637.5929,-49.4142 2559.276,-28.7241"/>
<polygon fill="#191970" stroke="#191970" points="2560.1151,-25.3259 2549.5556,-26.1905 2558.3495,-32.0996 2560.1151,-25.3259"/>
</g>
<!-- Node16&#45;&gt;Node7 -->
<g id="edge25" class="edge">
<title>Node16&#45;&gt;Node7</title>
<path fill="none" stroke="#191970" d="M2609.314,-772.4652C2640.5989,-756.209 2697,-719.9722 2697,-670 2697,-670 2697,-670 2697,-205.5 2697,-155.0399 2664.8832,-143.9988 2619,-123 2574.878,-102.8072 1861.1677,-83.5647 1653.3529,-78.3682"/>
<polygon fill="#191970" stroke="#191970" points="1653.3502,-74.8671 1643.2662,-78.1171 1653.176,-81.8649 1653.3502,-74.8671"/>
</g>
<!-- Node17&#45;&gt;Node7 -->
<g id="edge27" class="edge">
<title>Node17&#45;&gt;Node7</title>
<path fill="none" stroke="#191970" d="M162.0458,-772.2217C155.9992,-741.0835 138,-641.3895 138,-558 138,-558 138,-558 138,-205.5 138,-167.3133 131.8298,-146.4091 162,-123 189.7081,-101.5012 1278.3465,-82.242 1540.5986,-77.9082"/>
<polygon fill="#191970" stroke="#191970" points="1540.7214,-81.4067 1550.6624,-77.7425 1540.6061,-74.4077 1540.7214,-81.4067"/>
</g>
<!-- Node18&#45;&gt;Node7 -->
<g id="edge31" class="edge">
<title>Node18&#45;&gt;Node7</title>
<path fill="none" stroke="#191970" d="M310.6078,-828.4886C298.4729,-820.2406 281.9846,-807.2487 272,-792 255.2096,-766.3574 252,-756.6506 252,-726 252,-726 252,-726 252,-670 252,-516.8942 176,-487.1058 176,-334 176,-334 176,-334 176,-205.5 176,-161.9189 191.108,-144.5292 229,-123 286.8282,-90.1435 1290.0212,-79.5724 1540.625,-77.4384"/>
<polygon fill="#191970" stroke="#191970" points="1540.9826,-80.9356 1550.9528,-77.3516 1540.9237,-73.9359 1540.9826,-80.9356"/>
</g>
<!-- Node18&#45;&gt;Node14 -->
<g id="edge33" class="edge">
<title>Node18&#45;&gt;Node14</title>
<path fill="none" stroke="#191970" d="M364.1319,-847.5011C398.3694,-856.8494 448.1758,-871.1765 482.2814,-881.4561"/>
<polygon fill="#191970" stroke="#191970" points="481.3067,-884.8179 491.8922,-884.3733 483.3399,-878.1196 481.3067,-884.8179"/>
</g>
<!-- Node18&#45;&gt;Node16 -->
<g id="edge30" class="edge">
<title>Node18&#45;&gt;Node16</title>
<path fill="none" stroke="#191970" d="M380.8133,-829.9741C387.5997,-829.1923 394.4513,-828.5038 401,-828 829.1816,-795.0568 2207.2649,-784.425 2523.7771,-782.3887"/>
<polygon fill="#191970" stroke="#191970" points="2524.1707,-785.8863 2534.1482,-782.3226 2524.126,-778.8865 2524.1707,-785.8863"/>
</g>
<!-- Node18&#45;&gt;Node17 -->
<g id="edge34" class="edge">
<title>Node18&#45;&gt;Node17</title>
<path fill="none" stroke="#191970" d="M298.1512,-828.3733C271.3297,-819.1016 230.5873,-805.0178 201.0402,-794.804"/>
<polygon fill="#191970" stroke="#191970" points="202.0802,-791.4603 191.4854,-791.5011 199.7931,-798.0762 202.0802,-791.4603"/>
</g>
<!-- Node19 -->
<g id="node19" class="node">
<title>Node19</title>
<g id="a_node19"><a xlink:href="_stack_8h.html" target="_top" xlink:title="sbml/util/Stack.h">
<polygon fill="#ffffff" stroke="#000000" points="280.5,-772.5 280.5,-791.5 351.5,-791.5 351.5,-772.5 280.5,-772.5"/>
<text text-anchor="middle" x="316" y="-779.5" font-family="Helvetica,sans-Serif" font-size="10.00" fill="#000000">sbml/util/Stack.h</text>
</a>
</g>
</g>
<!-- Node18&#45;&gt;Node19 -->
<g id="edge32" class="edge">
<title>Node18&#45;&gt;Node19</title>
<path fill="none" stroke="#191970" d="M324.2581,-828.2455C322.9533,-820.9382 321.124,-810.6944 319.5187,-801.7046"/>
<polygon fill="#191970" stroke="#191970" points="322.9254,-800.8717 317.7219,-791.6427 316.0344,-802.1022 322.9254,-800.8717"/>
</g>
<!-- Node20&#45;&gt;Node15 -->
<g id="edge38" class="edge">
<title>Node20&#45;&gt;Node15</title>
<path fill="none" stroke="#191970" d="M1704.6104,-380.4906C1737.8257,-366.2303 1803.7048,-339.3457 1862,-324 1949.7079,-300.9116 2053.9829,-286.3336 2118.0758,-278.7968"/>
<polygon fill="#191970" stroke="#191970" points="2118.8649,-282.229 2128.3966,-277.6033 2118.0607,-275.2753 2118.8649,-282.229"/>
</g>
<!-- Node21 -->
<g id="node21" class="node">
<title>Node21</title>
<g id="a_node21"><a xlink:href="_x_m_l_extern_8h.html" target="_top" xlink:title="Defines LIBLAX_EXTERN. ">
<polygon fill="#ffffff" stroke="#000000" points="1754,-263 1754,-282 1846,-282 1846,-263 1754,-263"/>
<text text-anchor="middle" x="1800" y="-270" font-family="Helvetica,sans-Serif" font-size="10.00" fill="#000000">sbml/xml/XMLExtern.h</text>
</a>
</g>
</g>
<!-- Node20&#45;&gt;Node21 -->
<g id="edge36" class="edge">
<title>Node20&#45;&gt;Node21</title>
<path fill="none" stroke="#191970" d="M1697.6106,-380.3113C1710.2772,-371.5701 1728.7594,-357.9733 1743,-344 1759.8905,-327.4266 1776.4367,-305.9121 1787.3129,-290.8297"/>
<polygon fill="#191970" stroke="#191970" points="1790.38,-292.5549 1793.3046,-282.3717 1784.668,-288.5085 1790.38,-292.5549"/>
</g>
<!-- Node20&#45;&gt;Node22 -->
<g id="edge39" class="edge">
<title>Node20&#45;&gt;Node22</title>
<path fill="none" stroke="#191970" d="M1671.2166,-380.245C1661.0775,-371.4612 1646.4716,-357.8393 1636,-344 1624.9087,-329.3417 1615.0249,-311.1328 1607.9824,-296.7593"/>
<polygon fill="#191970" stroke="#191970" points="1611.039,-295.0371 1603.5809,-287.512 1604.7185,-298.0456 1611.039,-295.0371"/>
</g>
<!-- Node23 -->
<g id="node23" class="node">
<title>Node23</title>
<polygon fill="#ffffff" stroke="#bfbfbf" points="1086.5,-263 1086.5,-282 1121.5,-282 1121.5,-263 1086.5,-263"/>
<text text-anchor="middle" x="1104" y="-270" font-family="Helvetica,sans-Serif" font-size="10.00" fill="#000000">string</text>
</g>
<!-- Node20&#45;&gt;Node23 -->
<g id="edge41" class="edge">
<title>Node20&#45;&gt;Node23</title>
<path fill="none" stroke="#191970" d="M1631.9147,-382.0769C1627.2115,-381.3667 1622.5183,-380.6652 1618,-380 1504.3281,-363.2642 1474.4908,-367.3925 1362,-344 1276.752,-326.2727 1178.113,-296.2029 1131.3298,-281.347"/>
<polygon fill="#191970" stroke="#191970" points="1132.2241,-277.9584 1121.6332,-278.2493 1130.0939,-284.6264 1132.2241,-277.9584"/>
</g>
<!-- Node24 -->
<g id="node24" class="node">
<title>Node24</title>
<polygon fill="#ffffff" stroke="#bfbfbf" points="1313.5,-263 1313.5,-282 1350.5,-282 1350.5,-263 1313.5,-263"/>
<text text-anchor="middle" x="1332" y="-270" font-family="Helvetica,sans-Serif" font-size="10.00" fill="#000000">vector</text>
</g>
<!-- Node20&#45;&gt;Node24 -->
<g id="edge42" class="edge">
<title>Node20&#45;&gt;Node24</title>
<path fill="none" stroke="#191970" d="M1631.7321,-382.0972C1547.8334,-369.1482 1390.3103,-344.7616 1389,-344 1367.5448,-331.5301 1351.0385,-307.6293 1341.4372,-290.9072"/>
<polygon fill="#191970" stroke="#191970" points="1344.4575,-289.1352 1336.5968,-282.0317 1338.312,-292.4868 1344.4575,-289.1352"/>
</g>
<!-- Node25 -->
<g id="node25" class="node">
<title>Node25</title>
<polygon fill="#ffffff" stroke="#bfbfbf" points="768.5,-324.5 768.5,-343.5 817.5,-343.5 817.5,-324.5 768.5,-324.5"/>
<text text-anchor="middle" x="793" y="-331.5" font-family="Helvetica,sans-Serif" font-size="10.00" fill="#000000">stdexcept</text>
</g>
<!-- Node20&#45;&gt;Node25 -->
<g id="edge43" class="edge">
<title>Node20&#45;&gt;Node25</title>
<path fill="none" stroke="#191970" d="M1631.7877,-386.9095C1511.4341,-379.6273 1201.1802,-360.7419 942,-344 902.7716,-341.466 857.7433,-338.4257 827.5464,-336.3678"/>
<polygon fill="#191970" stroke="#191970" points="827.7329,-332.8725 817.5178,-335.6833 827.2562,-339.8562 827.7329,-332.8725"/>
</g>
<!-- Node26 -->
<g id="node26" class="node">
<title>Node26</title>
<g id="a_node26"><a xlink:href="_x_m_l_triple_8h.html" target="_top" xlink:title="Stores an XML namespace triple. ">
<polygon fill="#ffffff" stroke="#000000" points="1644.5,-324.5 1644.5,-343.5 1733.5,-343.5 1733.5,-324.5 1644.5,-324.5"/>
<text text-anchor="middle" x="1689" y="-331.5" font-family="Helvetica,sans-Serif" font-size="10.00" fill="#000000">sbml/xml/XMLTriple.h</text>
</a>
</g>
</g>
<!-- Node20&#45;&gt;Node26 -->
<g id="edge44" class="edge">
<title>Node20&#45;&gt;Node26</title>
<path fill="none" stroke="#191970" d="M1684.0451,-380.2455C1684.828,-372.9382 1685.9256,-362.6944 1686.8888,-353.7046"/>
<polygon fill="#191970" stroke="#191970" points="1690.3815,-353.9587 1687.9669,-343.6427 1683.4214,-353.2129 1690.3815,-353.9587"/>
</g>
<!-- Node21&#45;&gt;Node4 -->
<g id="edge37" class="edge">
<title>Node21&#45;&gt;Node4</title>
<path fill="none" stroke="#191970" d="M1846.2655,-270.1405C1977.1864,-263.233 2344.0327,-242.201 2394,-221 2435.7603,-203.2813 2446.4283,-192.1328 2471,-154 2487.8327,-127.8774 2483.5611,-117.1727 2491,-87 2494.751,-71.7857 2498.1501,-54.5528 2500.6595,-40.8177"/>
<polygon fill="#191970" stroke="#191970" points="2504.1613,-41.1169 2502.471,-30.6578 2497.27,-39.8881 2504.1613,-41.1169"/>
</g>
<!-- Node22&#45;&gt;Node7 -->
<g id="edge40" class="edge">
<title>Node22&#45;&gt;Node7</title>
<path fill="none" stroke="#191970" d="M1597,-257.4841C1597,-222.654 1597,-136.3473 1597,-97.0563"/>
<polygon fill="#191970" stroke="#191970" points="1600.5001,-96.8898 1597,-86.8898 1593.5001,-96.8899 1600.5001,-96.8898"/>
</g>
<!-- Node26&#45;&gt;Node15 -->
<g id="edge46" class="edge">
<title>Node26&#45;&gt;Node15</title>
<path fill="none" stroke="#191970" d="M1733.6918,-328.3793C1821.9308,-317.2817 2018.57,-292.551 2117.988,-280.0475"/>
<polygon fill="#191970" stroke="#191970" points="2118.6836,-283.4877 2128.1686,-278.7671 2117.81,-276.5424 2118.6836,-283.4877"/>
</g>
<!-- Node26&#45;&gt;Node21 -->
<g id="edge45" class="edge">
<title>Node26&#45;&gt;Node21</title>
<path fill="none" stroke="#191970" d="M1706.3438,-324.3906C1724.4273,-314.3713 1752.9859,-298.5483 1773.8165,-287.0071"/>
<polygon fill="#191970" stroke="#191970" points="1775.7271,-289.9498 1782.778,-282.0419 1772.3346,-283.8268 1775.7271,-289.9498"/>
</g>
<!-- Node26&#45;&gt;Node23 -->
<g id="edge47" class="edge">
<title>Node26&#45;&gt;Node23</title>
<path fill="none" stroke="#191970" d="M1644.0674,-329.2763C1528.7706,-317.1554 1224.966,-285.2169 1131.6563,-275.4075"/>
<polygon fill="#191970" stroke="#191970" points="1131.8987,-271.9137 1121.5875,-274.3489 1131.1667,-278.8754 1131.8987,-271.9137"/>
</g>
<!-- Node27&#45;&gt;Node7 -->
<g id="edge49" class="edge">
<title>Node27&#45;&gt;Node7</title>
<path fill="none" stroke="#191970" d="M450.4908,-828.1389C414.469,-763.3062 214,-396.9093 214,-272.5 214,-272.5 214,-272.5 214,-205.5 214,-156.54 242.7191,-143.8876 287,-123 344.4163,-95.9163 1297.2719,-81.0953 1540.7239,-77.7393"/>
<polygon fill="#191970" stroke="#191970" points="1540.8195,-81.2384 1550.7706,-77.6018 1540.7236,-74.2391 1540.8195,-81.2384"/>
</g>
<!-- Node27&#45;&gt;Node10 -->
<g id="edge145" class="edge">
<title>Node27&#45;&gt;Node10</title>
<path fill="none" stroke="#191970" d="M453.0742,-828.4943C450.2209,-819.1988 445.7721,-804.6386 442,-792 383.8282,-597.0927 315.3634,-360.3943 295.5974,-291.9106"/>
<polygon fill="#191970" stroke="#191970" points="298.8942,-290.7112 292.7592,-282.0733 292.1685,-292.6517 298.8942,-290.7112"/>
</g>
<!-- Node27&#45;&gt;Node23 -->
<g id="edge146" class="edge">
<title>Node27&#45;&gt;Node23</title>
<path fill="none" stroke="#191970" d="M456,-828.4116C456,-809.0538 456,-763.9167 456,-726 456,-726 456,-726 456,-446 456,-379.6601 484.2916,-356.722 542,-324 635.0488,-271.2392 915.948,-301.9556 1022,-288 1040.2068,-285.6041 1060.4862,-281.781 1076.3226,-278.5314"/>
<polygon fill="#191970" stroke="#191970" points="1077.4276,-281.8758 1086.4963,-276.3978 1075.9908,-275.0249 1077.4276,-281.8758"/>
</g>
<!-- Node28 -->
<g id="node28" class="node">
<title>Node28</title>
<g id="a_node28"><a xlink:href="_s_base_8h.html" target="_top" xlink:title="Definition of SBase, the base object of all SBML objects. ">
<polygon fill="#ffffff" stroke="#000000" points="915.5,-772.5 915.5,-791.5 978.5,-791.5 978.5,-772.5 915.5,-772.5"/>
<text text-anchor="middle" x="947" y="-779.5" font-family="Helvetica,sans-Serif" font-size="10.00" fill="#000000">sbml/SBase.h</text>
</a>
</g>
</g>
<!-- Node27&#45;&gt;Node28 -->
<g id="edge50" class="edge">
<title>Node27&#45;&gt;Node28</title>
<path fill="none" stroke="#191970" d="M499.744,-828.4734C500.8379,-828.3107 501.9244,-828.1527 503,-828 649.9726,-807.1336 826.1191,-791.3133 905.2031,-784.999"/>
<polygon fill="#191970" stroke="#191970" points="905.5628,-788.4816 915.2568,-784.2064 905.0126,-781.5032 905.5628,-788.4816"/>
</g>
<!-- Node28&#45;&gt;Node7 -->
<g id="edge51" class="edge">
<title>Node28&#45;&gt;Node7</title>
<path fill="none" stroke="#191970" d="M915.2327,-780.4725C836.1892,-776.2988 632.6066,-763.1565 571,-736 529.7559,-717.8194 494,-715.0733 494,-670 494,-670 494,-670 494,-614 494,-477.3675 380.7086,-476.4091 347,-344 320.6667,-240.5614 346.7994,-173.1919 441,-123 489.9394,-96.9241 1314.9262,-81.6021 1540.4303,-77.8879"/>
<polygon fill="#191970" stroke="#191970" points="1540.7685,-81.3829 1550.71,-77.7198 1540.654,-74.3838 1540.7685,-81.3829"/>
</g>
<!-- Node28&#45;&gt;Node15 -->
<g id="edge52" class="edge">
<title>Node28&#45;&gt;Node15</title>
<path fill="none" stroke="#191970" d="M978.6606,-780.6662C1193.5844,-771.2048 2430,-710.1629 2430,-558 2430,-558 2430,-558 2430,-390 2430,-345.6253 2300.025,-304.3847 2226.7643,-284.6638"/>
<polygon fill="#191970" stroke="#191970" points="2227.3859,-281.2077 2216.8227,-282.0259 2225.5906,-287.9736 2227.3859,-281.2077"/>
</g>
<!-- Node28&#45;&gt;Node23 -->
<g id="edge142" class="edge">
<title>Node28&#45;&gt;Node23</title>
<path fill="none" stroke="#191970" d="M950.0986,-772.2275C955.9401,-752.9094 968,-708.3796 968,-670 968,-670 968,-670 968,-446 968,-399.2171 947.8231,-390.4191 942,-344 940.8936,-335.1802 936.7524,-331.1746 942,-324 958.0213,-302.0955 1034.634,-285.0839 1076.5098,-277.2402"/>
<polygon fill="#191970" stroke="#191970" points="1077.1397,-280.6832 1086.3497,-275.4462 1075.8841,-273.7967 1077.1397,-280.6832"/>
</g>
<!-- Node28&#45;&gt;Node25 -->
<g id="edge143" class="edge">
<title>Node28&#45;&gt;Node25</title>
<path fill="none" stroke="#191970" d="M915.3568,-772.518C873.7854,-757.8748 806,-725.4901 806,-670 806,-670 806,-670 806,-446 806,-413.3457 800.48,-375.6911 796.6339,-353.4184"/>
<polygon fill="#191970" stroke="#191970" points="800.0735,-352.7698 794.8626,-343.545 793.1835,-354.0059 800.0735,-352.7698"/>
</g>
<!-- Node28&#45;&gt;Node27 -->
<g id="edge120" class="edge">
<title>Node28&#45;&gt;Node27</title>
<path fill="none" stroke="#191970" d="M915.4905,-784.9722C844.6172,-791.2686 668.1804,-807.1041 521,-828 518.1583,-828.4035 515.24,-828.8442 512.2861,-829.3085"/>
<polygon fill="#191970" stroke="#191970" points="511.4713,-825.8951 502.1647,-830.9584 512.5976,-832.8039 511.4713,-825.8951"/>
</g>
<!-- Node29 -->
<g id="node29" class="node">
<title>Node29</title>
<g id="a_node29"><a xlink:href="_s_b_m_l_type_codes_8h.html" target="_top" xlink:title="Enumeration to identify SBML objects at runtime. ">
<polygon fill="#ffffff" stroke="#000000" points="2569.5,-263 2569.5,-282 2668.5,-282 2668.5,-263 2569.5,-263"/>
<text text-anchor="middle" x="2619" y="-270" font-family="Helvetica,sans-Serif" font-size="10.00" fill="#000000">sbml/SBMLTypeCodes.h</text>
</a>
</g>
</g>
<!-- Node28&#45;&gt;Node29 -->
<g id="edge53" class="edge">
<title>Node28&#45;&gt;Node29</title>
<path fill="none" stroke="#191970" d="M978.5741,-781.1267C1087.6032,-777.9179 1458.2841,-765.4023 1763,-736 1945.6256,-718.3783 1992.1447,-716.2588 2172,-680 2366.7364,-640.7412 2582,-700.6542 2582,-502 2582,-502 2582,-502 2582,-390 2582,-353.8346 2598.1442,-314.1787 2609.1044,-291.4237"/>
<polygon fill="#191970" stroke="#191970" points="2612.3588,-292.741 2613.6988,-282.2312 2606.0973,-289.6115 2612.3588,-292.741"/>
</g>
<!-- Node30 -->
<g id="node30" class="node">
<title>Node30</title>
<g id="a_node30"><a xlink:href="_r_d_f_annotation_8h.html" target="_top" xlink:title="RDFAnnotation I/O. ">
<polygon fill="#ffffff" stroke="#000000" points="1229.5,-716.5 1229.5,-735.5 1358.5,-735.5 1358.5,-716.5 1229.5,-716.5"/>
<text text-anchor="middle" x="1294" y="-723.5" font-family="Helvetica,sans-Serif" font-size="10.00" fill="#000000">sbml/annotation/RDFAnnotation.h</text>
</a>
</g>
</g>
<!-- Node28&#45;&gt;Node30 -->
<g id="edge56" class="edge">
<title>Node28&#45;&gt;Node30</title>
<path fill="none" stroke="#191970" d="M978.7138,-776.8819C1034.1612,-767.9336 1149.9273,-749.2509 1224.6932,-737.185"/>
<polygon fill="#191970" stroke="#191970" points="1225.6458,-740.5766 1234.9604,-735.528 1224.5304,-733.666 1225.6458,-740.5766"/>
</g>
<!-- Node33 -->
<g id="node33" class="node">
<title>Node33</title>
<g id="a_node33"><a xlink:href="_list_8h.html" target="_top" xlink:title="Simple, generic list utility class. ">
<polygon fill="#ffffff" stroke="#000000" points="2208,-492.5 2208,-511.5 2272,-511.5 2272,-492.5 2208,-492.5"/>
<text text-anchor="middle" x="2240" y="-499.5" font-family="Helvetica,sans-Serif" font-size="10.00" fill="#000000">sbml/util/List.h</text>
</a>
</g>
</g>
<!-- Node28&#45;&gt;Node33 -->
<g id="edge109" class="edge">
<title>Node28&#45;&gt;Node33</title>
<path fill="none" stroke="#191970" d="M978.532,-780.0173C1054.9108,-774.9819 1255.7931,-760.3461 1422,-736 1677.02,-698.6445 1742.1605,-691.1531 1991,-624 2064.5493,-604.1516 2085.8161,-603.9135 2153,-568 2178.7706,-554.2242 2205.0468,-533.1116 2221.878,-518.4906"/>
<polygon fill="#191970" stroke="#191970" points="2224.597,-520.7582 2229.7659,-511.5098 2219.9578,-515.5162 2224.597,-520.7582"/>
</g>
<!-- Node35 -->
<g id="node35" class="node">
<title>Node35</title>
<g id="a_node35"><a xlink:href="_x_m_l_node_8h.html" target="_top" xlink:title="Class definition of XMLNode, a node in an XML document tree. ">
<polygon fill="#ffffff" stroke="#000000" points="1798,-492.5 1798,-511.5 1886,-511.5 1886,-492.5 1798,-492.5"/>
<text text-anchor="middle" x="1842" y="-499.5" font-family="Helvetica,sans-Serif" font-size="10.00" fill="#000000">sbml/xml/XMLNode.h</text>
</a>
</g>
</g>
<!-- Node28&#45;&gt;Node35 -->
<g id="edge133" class="edge">
<title>Node28&#45;&gt;Node35</title>
<path fill="none" stroke="#191970" d="M978.5208,-780.8092C1049.0488,-777.6562 1224.6482,-767.0829 1368,-736 1445.7428,-719.143 1465.4935,-712.7247 1538,-680 1648.7295,-630.024 1770.6495,-550.4367 1819.7283,-517.2789"/>
<polygon fill="#191970" stroke="#191970" points="1821.7182,-520.1583 1828.0256,-511.6455 1817.7862,-514.367 1821.7182,-520.1583"/>
</g>
<!-- Node43 -->
<g id="node43" class="node">
<title>Node43</title>
<g id="a_node43"><a xlink:href="_c_v_term_8h.html" target="_top" xlink:title="Definition of a CVTerm class for adding annotations to a Model. ">
<polygon fill="#ffffff" stroke="#000000" points="1292,-492.5 1292,-511.5 1398,-511.5 1398,-492.5 1292,-492.5"/>
<text text-anchor="middle" x="1345" y="-499.5" font-family="Helvetica,sans-Serif" font-size="10.00" fill="#000000">sbml/annotation/CVTerm.h</text>
</a>
</g>
</g>
<!-- Node28&#45;&gt;Node43 -->
<g id="edge99" class="edge">
<title>Node28&#45;&gt;Node43</title>
<path fill="none" stroke="#191970" d="M969.9318,-772.4455C985.9425,-764.7264 1006.7411,-752.4417 1020,-736 1039.5932,-711.7033 1044,-701.2125 1044,-670 1044,-670 1044,-670 1044,-614 1044,-563.6673 1193.7073,-528.6231 1281.9621,-512.3369"/>
<polygon fill="#191970" stroke="#191970" points="1282.6655,-515.7665 1291.8801,-510.5377 1281.4159,-508.879 1282.6655,-515.7665"/>
</g>
<!-- Node44 -->
<g id="node44" class="node">
<title>Node44</title>
<g id="a_node44"><a xlink:href="_s_b_m_l_namespaces_8h.html" target="_top" xlink:title="SBMLNamespaces class to store level/version and namespace. ">
<polygon fill="#ffffff" stroke="#000000" points="834.5,-380.5 834.5,-399.5 939.5,-399.5 939.5,-380.5 834.5,-380.5"/>
<text text-anchor="middle" x="887" y="-387.5" font-family="Helvetica,sans-Serif" font-size="10.00" fill="#000000">sbml/SBMLNamespaces.h</text>
</a>
</g>
</g>
<!-- Node28&#45;&gt;Node44 -->
<g id="edge110" class="edge">
<title>Node28&#45;&gt;Node44</title>
<path fill="none" stroke="#191970" d="M940.9249,-772.2297C929.735,-753.2713 907,-709.8493 907,-670 907,-670 907,-670 907,-502 907,-469.2193 898.5945,-431.8705 892.6819,-409.6533"/>
<polygon fill="#191970" stroke="#191970" points="895.991,-408.4878 889.9511,-399.7832 889.2445,-410.3545 895.991,-408.4878"/>
</g>
<!-- Node46 -->
<g id="node46" class="node">
<title>Node46</title>
<g id="a_node46"><a xlink:href="_s_b_m_l_constructor_exception_8h.html" target="_top" xlink:title="Definition of SBMLConstructorException, the exception class for constructor exceptions. ">
<polygon fill="#ffffff" stroke="#000000" points="572.5,-436.5 572.5,-455.5 705.5,-455.5 705.5,-436.5 572.5,-436.5"/>
<text text-anchor="middle" x="639" y="-443.5" font-family="Helvetica,sans-Serif" font-size="10.00" fill="#000000">sbml/SBMLConstructorException.h</text>
</a>
</g>
</g>
<!-- Node28&#45;&gt;Node46 -->
<g id="edge121" class="edge">
<title>Node28&#45;&gt;Node46</title>
<path fill="none" stroke="#191970" d="M915.1253,-777.7246C862.9295,-770.3113 761.9337,-754.1174 731,-736 697.3036,-716.2645 673,-709.0505 673,-670 673,-670 673,-670 673,-558 673,-523.9677 658.4485,-486.5293 648.3849,-464.7067"/>
<polygon fill="#191970" stroke="#191970" points="651.4939,-463.0954 644.0168,-455.5891 645.181,-466.1198 651.4939,-463.0954"/>
</g>
<!-- Node47 -->
<g id="node47" class="node">
<title>Node47</title>
<polygon fill="#ffffff" stroke="#bfbfbf" points="550.5,-324.5 550.5,-343.5 597.5,-343.5 597.5,-324.5 550.5,-324.5"/>
<text text-anchor="middle" x="574" y="-331.5" font-family="Helvetica,sans-Serif" font-size="10.00" fill="#000000">algorithm</text>
</g>
<!-- Node28&#45;&gt;Node47 -->
<g id="edge144" class="edge">
<title>Node28&#45;&gt;Node47</title>
<path fill="none" stroke="#191970" d="M915.4669,-780.2873C818.6205,-774.176 532,-749.3838 532,-670 532,-670 532,-670 532,-446 532,-411.2434 549.9519,-374.0613 562.3826,-352.4811"/>
<polygon fill="#191970" stroke="#191970" points="565.4887,-354.1065 567.6211,-343.7285 559.4823,-350.5116 565.4887,-354.1065"/>
</g>
<!-- Node48 -->
<g id="node48" class="node">
<title>Node48</title>
<g id="a_node48"><a xlink:href="_expected_attributes_8h.html" target="_top" xlink:title="Definition of ExpectedAttributes, the class allowing the specification of attributes to expect...">
<polygon fill="#ffffff" stroke="#000000" points="636,-380.5 636,-399.5 740,-399.5 740,-380.5 636,-380.5"/>
<text text-anchor="middle" x="688" y="-387.5" font-family="Helvetica,sans-Serif" font-size="10.00" fill="#000000">sbml/ExpectedAttributes.h</text>
</a>
</g>
</g>
<!-- Node28&#45;&gt;Node48 -->
<g id="edge127" class="edge">
<title>Node28&#45;&gt;Node48</title>
<path fill="none" stroke="#191970" d="M915.4375,-778.9357C858.625,-771.4953 745,-746.9906 745,-670 745,-670 745,-670 745,-502 745,-465.1826 720.2325,-428.2377 703.3499,-407.3313"/>
<polygon fill="#191970" stroke="#191970" points="706.0131,-405.06 696.9063,-399.6456 700.6489,-409.5574 706.0131,-405.06"/>
</g>
<!-- Node49 -->
<g id="node49" class="node">
<title>Node49</title>
<g id="a_node49"><a xlink:href="_x_m_l_error_8h.html" target="_top" xlink:title="Represents errors (and messages) encountered during an XML parse. ">
<polygon fill="#ffffff" stroke="#000000" points="950.5,-324.5 950.5,-343.5 1037.5,-343.5 1037.5,-324.5 950.5,-324.5"/>
<text text-anchor="middle" x="994" y="-331.5" font-family="Helvetica,sans-Serif" font-size="10.00" fill="#000000">sbml/xml/XMLError.h</text>
</a>
</g>
</g>
<!-- Node28&#45;&gt;Node49 -->
<g id="edge134" class="edge">
<title>Node28&#45;&gt;Node49</title>
<path fill="none" stroke="#191970" d="M956.2188,-772.4119C972.8125,-754.0983 1006,-712.1966 1006,-670 1006,-670 1006,-670 1006,-446 1006,-413.3778 1000.9046,-375.7135 997.3544,-353.4301"/>
<polygon fill="#191970" stroke="#191970" points="1000.8053,-352.8456 995.7193,-343.5514 993.8993,-353.9887 1000.8053,-352.8456"/>
</g>
<!-- Node29&#45;&gt;Node3 -->
<g id="edge54" class="edge">
<title>Node29&#45;&gt;Node3</title>
<path fill="none" stroke="#191970" d="M2579.3224,-262.9717C2530.8855,-251.3399 2448.7312,-231.6111 2394.4178,-218.5681"/>
<polygon fill="#191970" stroke="#191970" points="2395.1555,-215.1458 2384.6147,-216.2139 2393.5209,-221.9523 2395.1555,-215.1458"/>
</g>
<!-- Node29&#45;&gt;Node7 -->
<g id="edge55" class="edge">
<title>Node29&#45;&gt;Node7</title>
<path fill="none" stroke="#191970" d="M2621.0143,-262.9329C2626.0447,-236.0802 2635.9825,-159.5904 2595,-123 2559.7098,-91.4919 1859.5029,-80.2764 1653.5253,-77.6515"/>
<polygon fill="#191970" stroke="#191970" points="1653.2789,-74.1483 1643.2357,-77.5224 1653.1909,-81.1477 1653.2789,-74.1483"/>
</g>
<!-- Node31 -->
<g id="node31" class="node">
<title>Node31</title>
<g id="a_node31"><a xlink:href="_r_d_f_annotation_parser_8h.html" target="_top" xlink:title="RDFAnnotationParser.h">
<polygon fill="#ffffff" stroke="#000000" points="1433,-660.5 1433,-679.5 1529,-679.5 1529,-660.5 1433,-660.5"/>
<text text-anchor="middle" x="1481" y="-667.5" font-family="Helvetica,sans-Serif" font-size="10.00" fill="#000000">RDFAnnotationParser.h</text>
</a>
</g>
</g>
<!-- Node30&#45;&gt;Node31 -->
<g id="edge57" class="edge">
<title>Node30&#45;&gt;Node31</title>
<path fill="none" stroke="#191970" d="M1326.1464,-716.3733C1357.5109,-706.9807 1405.3665,-692.6496 1439.5716,-682.4064"/>
<polygon fill="#191970" stroke="#191970" points="1440.6975,-685.7229 1449.273,-679.5011 1438.6893,-679.0171 1440.6975,-685.7229"/>
</g>
<!-- Node31&#45;&gt;Node7 -->
<g id="edge58" class="edge">
<title>Node31&#45;&gt;Node7</title>
<path fill="none" stroke="#191970" d="M1529.165,-668.5977C1631.4684,-665.1189 1877.7914,-654.0872 2082,-624 2196.7948,-607.0866 2224.9382,-598.1007 2337,-568 2430.2575,-542.9503 2544,-598.5632 2544,-502 2544,-502 2544,-502 2544,-390 2544,-263.896 2549.161,-198.2905 2448,-123 2416.1107,-99.2659 1837.8818,-82.9595 1653.2016,-78.339"/>
<polygon fill="#191970" stroke="#191970" points="1653.2394,-74.8389 1643.1555,-78.0895 1653.0655,-81.8368 1653.2394,-74.8389"/>
</g>
<!-- Node31&#45;&gt;Node15 -->
<g id="edge59" class="edge">
<title>Node31&#45;&gt;Node15</title>
<path fill="none" stroke="#191970" d="M1529.0416,-668.6984C1692.2341,-663.1698 2220.8302,-635.829 2323,-512 2360.3465,-466.7364 2349.3217,-430.831 2320,-380 2303.9059,-352.0999 2298.8872,-344.4466 2274,-324 2254.9106,-308.3167 2230.3076,-295.2298 2210.7878,-286.173"/>
<polygon fill="#191970" stroke="#191970" points="2212.2149,-282.9772 2201.6601,-282.057 2209.3373,-289.3584 2212.2149,-282.9772"/>
</g>
<!-- Node31&#45;&gt;Node20 -->
<g id="edge60" class="edge">
<title>Node31&#45;&gt;Node20</title>
<path fill="none" stroke="#191970" d="M1503.4462,-660.4443C1536.9133,-644.5115 1596,-609.1402 1596,-558 1596,-558 1596,-558 1596,-502 1596,-470.7875 1601.249,-460.9524 1620,-436 1629.4929,-423.3676 1643.4198,-412.6946 1655.7668,-404.819"/>
<polygon fill="#191970" stroke="#191970" points="1657.6547,-407.7675 1664.3921,-399.5908 1654.0262,-401.7813 1657.6547,-407.7675"/>
</g>
<!-- Node31&#45;&gt;Node23 -->
<g id="edge96" class="edge">
<title>Node31&#45;&gt;Node23</title>
<path fill="none" stroke="#191970" d="M1446.0156,-660.4658C1382.2453,-641.5714 1245.7773,-593.9589 1160,-512 1102.7824,-457.3295 1105.9174,-422.9844 1101,-344 1099.9157,-326.5837 1100.9242,-306.7558 1102.0555,-292.405"/>
<polygon fill="#191970" stroke="#191970" points="1105.5615,-292.4893 1102.9515,-282.221 1098.5885,-291.8757 1105.5615,-292.4893"/>
</g>
<!-- Node32 -->
<g id="node32" class="node">
<title>Node32</title>
<g id="a_node32"><a xlink:href="_model_history_8h.html" target="_top" xlink:title="ModelHistory I/O. ">
<polygon fill="#ffffff" stroke="#000000" points="1860,-604.5 1860,-623.5 1982,-623.5 1982,-604.5 1860,-604.5"/>
<text text-anchor="middle" x="1921" y="-611.5" font-family="Helvetica,sans-Serif" font-size="10.00" fill="#000000">sbml/annotation/ModelHistory.h</text>
</a>
</g>
</g>
<!-- Node31&#45;&gt;Node32 -->
<g id="edge61" class="edge">
<title>Node31&#45;&gt;Node32</title>
<path fill="none" stroke="#191970" d="M1529.3463,-663.8468C1606.9461,-653.9705 1759.7011,-634.529 1849.796,-623.0623"/>
<polygon fill="#191970" stroke="#191970" points="1850.4475,-626.5077 1859.9256,-621.7731 1849.5637,-619.5637 1850.4475,-626.5077"/>
</g>
<!-- Node37 -->
<g id="node37" class="node">
<title>Node37</title>
<polygon fill="#ffffff" stroke="#bfbfbf" points="1492,-436.5 1492,-455.5 1530,-455.5 1530,-436.5 1492,-436.5"/>
<text text-anchor="middle" x="1511" y="-443.5" font-family="Helvetica,sans-Serif" font-size="10.00" fill="#000000">cstdlib</text>
</g>
<!-- Node31&#45;&gt;Node37 -->
<g id="edge98" class="edge">
<title>Node31&#45;&gt;Node37</title>
<path fill="none" stroke="#191970" d="M1482.2891,-660.375C1486.8375,-626.4133 1502.1946,-511.7472 1508.3831,-465.5392"/>
<polygon fill="#191970" stroke="#191970" points="1511.8572,-465.9653 1509.7157,-455.5891 1504.9192,-465.036 1511.8572,-465.9653"/>
</g>
<!-- Node40 -->
<g id="node40" class="node">
<title>Node40</title>
<polygon fill="#ffffff" stroke="#bfbfbf" points="1164,-436.5 1164,-455.5 1198,-455.5 1198,-436.5 1164,-436.5"/>
<text text-anchor="middle" x="1181" y="-443.5" font-family="Helvetica,sans-Serif" font-size="10.00" fill="#000000">limits</text>
</g>
<!-- Node31&#45;&gt;Node40 -->
<g id="edge94" class="edge">
<title>Node31&#45;&gt;Node40</title>
<path fill="none" stroke="#191970" d="M1456.5856,-660.4574C1436.4101,-652.1007 1407.3874,-638.9744 1384,-624 1306.8904,-574.6284 1229.2626,-496.9638 1196.8036,-462.93"/>
<polygon fill="#191970" stroke="#191970" points="1199.3062,-460.4824 1189.8915,-455.623 1194.2209,-465.2929 1199.3062,-460.4824"/>
</g>
<!-- Node41 -->
<g id="node41" class="node">
<title>Node41</title>
<polygon fill="#ffffff" stroke="#bfbfbf" points="1216.5,-436.5 1216.5,-455.5 1259.5,-455.5 1259.5,-436.5 1216.5,-436.5"/>
<text text-anchor="middle" x="1238" y="-443.5" font-family="Helvetica,sans-Serif" font-size="10.00" fill="#000000">iomanip</text>
</g>
<!-- Node31&#45;&gt;Node41 -->
<g id="edge95" class="edge">
<title>Node31&#45;&gt;Node41</title>
<path fill="none" stroke="#191970" d="M1466.0934,-660.3998C1431.3288,-637.55 1343.2647,-576.9688 1283,-512 1269.3599,-497.2952 1256.7694,-478.1406 1248.3959,-464.2572"/>
<polygon fill="#191970" stroke="#191970" points="1251.3962,-462.4546 1243.3115,-455.6071 1245.3615,-466.0018 1251.3962,-462.4546"/>
</g>
<!-- Node42 -->
<g id="node42" class="node">
<title>Node42</title>
<polygon fill="#ffffff" stroke="#bfbfbf" points="1430.5,-436.5 1430.5,-455.5 1473.5,-455.5 1473.5,-436.5 1430.5,-436.5"/>
<text text-anchor="middle" x="1452" y="-443.5" font-family="Helvetica,sans-Serif" font-size="10.00" fill="#000000">sstream</text>
</g>
<!-- Node31&#45;&gt;Node42 -->
<g id="edge97" class="edge">
<title>Node31&#45;&gt;Node42</title>
<path fill="none" stroke="#191970" d="M1479.7539,-660.375C1475.3571,-626.4133 1460.5119,-511.7472 1454.5296,-465.5392"/>
<polygon fill="#191970" stroke="#191970" points="1457.9965,-465.057 1453.2415,-455.5891 1451.0544,-465.9558 1457.9965,-465.057"/>
</g>
<!-- Node32&#45;&gt;Node7 -->
<g id="edge62" class="edge">
<title>Node32&#45;&gt;Node7</title>
<path fill="none" stroke="#191970" d="M1982.2244,-609.4798C2132.2396,-596.7286 2506,-554.1111 2506,-446 2506,-446 2506,-446 2506,-390 2506,-358.7875 2502.506,-347.5314 2482,-324 2417.6069,-250.1065 2366.4467,-278.4016 2287,-221 2236.0426,-184.1824 2242.3581,-148.7341 2185,-123 2137.3119,-101.6044 1791.6466,-85.076 1653.662,-79.2614"/>
<polygon fill="#191970" stroke="#191970" points="1653.4468,-75.7494 1643.3094,-78.8288 1653.1545,-82.7433 1653.4468,-75.7494"/>
</g>
<!-- Node32&#45;&gt;Node15 -->
<g id="edge63" class="edge">
<title>Node32&#45;&gt;Node15</title>
<path fill="none" stroke="#191970" d="M1982.2455,-605.9201C2078.895,-591.8616 2260.1365,-559.7605 2302,-512 2359.0668,-446.8948 2311.6586,-385.7725 2251,-324 2236.9612,-309.7034 2218.5012,-296.721 2203.6574,-287.3672"/>
<polygon fill="#191970" stroke="#191970" points="2205.3092,-284.2745 2194.9542,-282.0328 2201.6511,-290.2427 2205.3092,-284.2745"/>
</g>
<!-- Node32&#45;&gt;Node22 -->
<g id="edge64" class="edge">
<title>Node32&#45;&gt;Node22</title>
<path fill="none" stroke="#191970" d="M1897.3455,-604.4729C1839.9265,-580.0291 1692.7785,-509.2324 1623,-400 1603.0117,-368.71 1597.9722,-325.044 1596.9256,-297.7904"/>
<polygon fill="#191970" stroke="#191970" points="1600.419,-297.4531 1596.6918,-287.5355 1593.4208,-297.6127 1600.419,-297.4531"/>
</g>
<!-- Node32&#45;&gt;Node23 -->
<g id="edge93" class="edge">
<title>Node32&#45;&gt;Node23</title>
<path fill="none" stroke="#191970" d="M1859.919,-610.1828C1707.4729,-599.9012 1314.1053,-568.5163 1197,-512 1164.4402,-496.2863 1155.2485,-487.7734 1138,-456 1108.8356,-402.2762 1104.1918,-328.0699 1103.7664,-292.7533"/>
<polygon fill="#191970" stroke="#191970" points="1107.266,-292.349 1103.7545,-282.353 1100.266,-292.357 1107.266,-292.349"/>
</g>
<!-- Node32&#45;&gt;Node33 -->
<g id="edge65" class="edge">
<title>Node32&#45;&gt;Node33</title>
<path fill="none" stroke="#191970" d="M1980.7246,-604.4928C2020.6784,-597.081 2073.9814,-585.1412 2119,-568 2154.7329,-554.3944 2192.9997,-532.06 2216.7157,-517.1942"/>
<polygon fill="#191970" stroke="#191970" points="2218.7881,-520.0242 2225.351,-511.7069 2215.0338,-514.1161 2218.7881,-520.0242"/>
</g>
<!-- Node32&#45;&gt;Node35 -->
<g id="edge68" class="edge">
<title>Node32&#45;&gt;Node35</title>
<path fill="none" stroke="#191970" d="M1904.9446,-604.3327C1892.4772,-596.0837 1875.5835,-583.1677 1865,-568 1855.2476,-554.0233 1849.2731,-535.5164 1845.8667,-521.6573"/>
<polygon fill="#191970" stroke="#191970" points="1849.2439,-520.7197 1843.6623,-511.7144 1842.4099,-522.235 1849.2439,-520.7197"/>
</g>
<!-- Node38 -->
<g id="node38" class="node">
<title>Node38</title>
<g id="a_node38"><a xlink:href="_date_8h.html" target="_top" xlink:title="Date I/O. ">
<polygon fill="#ffffff" stroke="#000000" points="1874,-548.5 1874,-567.5 1968,-567.5 1968,-548.5 1874,-548.5"/>
<text text-anchor="middle" x="1921" y="-555.5" font-family="Helvetica,sans-Serif" font-size="10.00" fill="#000000">sbml/annotation/Date.h</text>
</a>
</g>
</g>
<!-- Node32&#45;&gt;Node38 -->
<g id="edge79" class="edge">
<title>Node32&#45;&gt;Node38</title>
<path fill="none" stroke="#191970" d="M1921,-604.2455C1921,-596.9382 1921,-586.6944 1921,-577.7046"/>
<polygon fill="#191970" stroke="#191970" points="1924.5001,-577.6426 1921,-567.6427 1917.5001,-577.6427 1924.5001,-577.6426"/>
</g>
<!-- Node39 -->
<g id="node39" class="node">
<title>Node39</title>
<g id="a_node39"><a xlink:href="_model_creator_8h.html" target="_top" xlink:title="ModelCreator I/O. ">
<polygon fill="#ffffff" stroke="#000000" points="1986.5,-548.5 1986.5,-567.5 2109.5,-567.5 2109.5,-548.5 1986.5,-548.5"/>
<text text-anchor="middle" x="2048" y="-555.5" font-family="Helvetica,sans-Serif" font-size="10.00" fill="#000000">sbml/annotation/ModelCreator.h</text>
</a>
</g>
</g>
<!-- Node32&#45;&gt;Node39 -->
<g id="edge86" class="edge">
<title>Node32&#45;&gt;Node39</title>
<path fill="none" stroke="#191970" d="M1942.8321,-604.3733C1963.3103,-595.3435 1994.1399,-581.7494 2017.1319,-571.6111"/>
<polygon fill="#191970" stroke="#191970" points="2018.715,-574.7383 2026.4528,-567.5011 2015.8907,-568.3333 2018.715,-574.7383"/>
</g>
<!-- Node33&#45;&gt;Node7 -->
<g id="edge66" class="edge">
<title>Node33&#45;&gt;Node7</title>
<path fill="none" stroke="#191970" d="M2238.4931,-492.077C2236.7952,-479.0901 2234.6771,-455.6679 2238,-436 2251.4631,-356.3125 2298.545,-332.6078 2270,-257 2255.9856,-219.8797 2187.4515,-140.819 2152,-123 2108.211,-100.9903 1785.6305,-84.989 1653.3487,-79.2854"/>
<polygon fill="#191970" stroke="#191970" points="1653.1699,-75.7746 1643.0297,-78.8447 1652.8712,-82.7683 1653.1699,-75.7746"/>
</g>
<!-- Node34 -->
<g id="node34" class="node">
<title>Node34</title>
<polygon fill="#ffffff" stroke="#bfbfbf" points="2246.5,-436.5 2246.5,-455.5 2287.5,-455.5 2287.5,-436.5 2246.5,-436.5"/>
<text text-anchor="middle" x="2267" y="-443.5" font-family="Helvetica,sans-Serif" font-size="10.00" fill="#000000">string.h</text>
</g>
<!-- Node33&#45;&gt;Node34 -->
<g id="edge67" class="edge">
<title>Node33&#45;&gt;Node34</title>
<path fill="none" stroke="#191970" d="M2244.703,-492.2455C2248.3424,-484.6973 2253.4924,-474.0158 2257.9262,-464.8197"/>
<polygon fill="#191970" stroke="#191970" points="2261.1605,-466.1704 2262.3509,-455.6427 2254.8551,-463.1303 2261.1605,-466.1704"/>
</g>
<!-- Node35&#45;&gt;Node15 -->
<g id="edge76" class="edge">
<title>Node35&#45;&gt;Node15</title>
<path fill="none" stroke="#191970" d="M1873.7833,-492.4442C1897.8328,-484.5039 1931.1839,-471.9419 1958,-456 2041.9081,-406.1175 2126.4675,-324.865 2161.3608,-289.6625"/>
<polygon fill="#191970" stroke="#191970" points="2164.2564,-291.7094 2168.7693,-282.1238 2159.2637,-286.8029 2164.2564,-291.7094"/>
</g>
<!-- Node35&#45;&gt;Node21 -->
<g id="edge69" class="edge">
<title>Node35&#45;&gt;Node21</title>
<path fill="none" stroke="#191970" d="M1863.3751,-492.4325C1918.4276,-466.5027 2057.1516,-392.2373 2004,-324 1985.9703,-300.853 1910.236,-286.4766 1856.3192,-278.9782"/>
<polygon fill="#191970" stroke="#191970" points="1856.5654,-275.4799 1846.1877,-277.6136 1855.631,-282.4172 1856.5654,-275.4799"/>
</g>
<!-- Node35&#45;&gt;Node24 -->
<g id="edge77" class="edge">
<title>Node35&#45;&gt;Node24</title>
<path fill="none" stroke="#191970" d="M1797.9913,-492.4327C1692.2076,-468.6837 1427.5732,-404.5705 1362,-344 1347.2167,-330.3445 1339.4687,-308.254 1335.5806,-292.2374"/>
<polygon fill="#191970" stroke="#191970" points="1338.9704,-291.3507 1333.4666,-282.2976 1332.1236,-292.807 1338.9704,-291.3507"/>
</g>
<!-- Node36 -->
<g id="node36" class="node">
<title>Node36</title>
<g id="a_node36"><a xlink:href="_x_m_l_token_8h.html" target="_top" xlink:title="A unit of XML syntax, either an XML element or text. ">
<polygon fill="#ffffff" stroke="#000000" points="1776.5,-436.5 1776.5,-455.5 1867.5,-455.5 1867.5,-436.5 1776.5,-436.5"/>
<text text-anchor="middle" x="1822" y="-443.5" font-family="Helvetica,sans-Serif" font-size="10.00" fill="#000000">sbml/xml/XMLToken.h</text>
</a>
</g>
</g>
<!-- Node35&#45;&gt;Node36 -->
<g id="edge70" class="edge">
<title>Node35&#45;&gt;Node36</title>
<path fill="none" stroke="#191970" d="M1838.5163,-492.2455C1835.8492,-484.7776 1832.0867,-474.2427 1828.8263,-465.1137"/>
<polygon fill="#191970" stroke="#191970" points="1832.1033,-463.8829 1825.4438,-455.6427 1825.5111,-466.2373 1832.1033,-463.8829"/>
</g>
<!-- Node35&#45;&gt;Node37 -->
<g id="edge78" class="edge">
<title>Node35&#45;&gt;Node37</title>
<path fill="none" stroke="#191970" d="M1797.7033,-494.5057C1728.8801,-482.8619 1598.1552,-460.7453 1540.0696,-450.9181"/>
<polygon fill="#191970" stroke="#191970" points="1540.5442,-447.4487 1530.1004,-449.2315 1539.3764,-454.3507 1540.5442,-447.4487"/>
</g>
<!-- Node36&#45;&gt;Node15 -->
<g id="edge74" class="edge">
<title>Node36&#45;&gt;Node15</title>
<path fill="none" stroke="#191970" d="M1838.3457,-436.2829C1860.6469,-423.1216 1901.9601,-399.0821 1938,-380 1987.8883,-353.5855 2000.5097,-347.1368 2052,-324 2082.6375,-310.2333 2118.0947,-295.8782 2143.5757,-285.8317"/>
<polygon fill="#191970" stroke="#191970" points="2145.1307,-288.9814 2153.161,-282.0702 2142.5735,-282.4652 2145.1307,-288.9814"/>
</g>
<!-- Node36&#45;&gt;Node20 -->
<g id="edge72" class="edge">
<title>Node36&#45;&gt;Node20</title>
<path fill="none" stroke="#191970" d="M1798.105,-436.3733C1775.4918,-427.2629 1741.3458,-413.5062 1716.1127,-403.3404"/>
<polygon fill="#191970" stroke="#191970" points="1717.1666,-399.9917 1706.5831,-399.5011 1714.5507,-406.4845 1717.1666,-399.9917"/>
</g>
<!-- Node36&#45;&gt;Node21 -->
<g id="edge71" class="edge">
<title>Node36&#45;&gt;Node21</title>
<path fill="none" stroke="#191970" d="M1820.7858,-436.4248C1817.3082,-408.999 1807.2571,-329.732 1802.5229,-292.3964"/>
<polygon fill="#191970" stroke="#191970" points="1805.9677,-291.7398 1801.2375,-282.2595 1799.0233,-292.6204 1805.9677,-291.7398"/>
</g>
<!-- Node36&#45;&gt;Node23 -->
<g id="edge75" class="edge">
<title>Node36&#45;&gt;Node23</title>
<path fill="none" stroke="#191970" d="M1776.1949,-438.2217C1735.3648,-430.6296 1674.3037,-417.645 1623,-400 1603.0687,-393.145 1600.2726,-385.7679 1580,-380 1450.4119,-343.1297 1409.1793,-378.7251 1279,-344 1257.0655,-338.149 1252.9758,-332.6817 1232,-324 1197.416,-309.686 1157.3624,-293.6589 1131.4012,-283.3428"/>
<polygon fill="#191970" stroke="#191970" points="1132.4392,-279.9893 1121.8533,-279.5539 1129.8572,-286.4957 1132.4392,-279.9893"/>
</g>
<!-- Node36&#45;&gt;Node36 -->
<g id="edge73" class="edge">
<title>Node36&#45;&gt;Node36</title>
<path fill="none" stroke="#191970" d="M1849.0829,-455.5252C1867.4849,-458.3079 1885.5,-455.1328 1885.5,-446 1885.5,-438.5796 1873.6073,-435.0922 1859.277,-435.5379"/>
<polygon fill="#191970" stroke="#191970" points="1858.7205,-432.0742 1849.0829,-436.4748 1859.3612,-439.0448 1858.7205,-432.0742"/>
</g>
<!-- Node38&#45;&gt;Node7 -->
<g id="edge80" class="edge">
<title>Node38&#45;&gt;Node7</title>
<path fill="none" stroke="#191970" d="M1931.671,-548.2692C1966.291,-515.4939 2070.5644,-406.5597 2023,-324 1941.2641,-182.1272 1743.3944,-114.2874 1648.905,-89.114"/>
<polygon fill="#191970" stroke="#191970" points="1649.5582,-85.6674 1638.9986,-86.5307 1647.7918,-92.4409 1649.5582,-85.6674"/>
</g>
<!-- Node38&#45;&gt;Node15 -->
<g id="edge81" class="edge">
<title>Node38&#45;&gt;Node15</title>
<path fill="none" stroke="#191970" d="M1957.7597,-548.442C2002.0471,-535.0606 2075.7524,-506.5224 2118,-456 2159.1308,-406.8132 2172.2946,-328.6723 2176.3213,-292.3147"/>
<polygon fill="#191970" stroke="#191970" points="2179.8334,-292.3633 2177.3315,-282.0681 2172.8672,-291.6764 2179.8334,-292.3633"/>
</g>
<!-- Node38&#45;&gt;Node22 -->
<g id="edge82" class="edge">
<title>Node38&#45;&gt;Node22</title>
<path fill="none" stroke="#191970" d="M1919.9971,-548.4242C1918.0615,-529.0891 1914,-483.9907 1914,-446 1914,-446 1914,-446 1914,-390 1914,-337.617 1759.8879,-301.1586 1666.5731,-283.8843"/>
<polygon fill="#191970" stroke="#191970" points="1667.0906,-280.421 1656.6253,-282.0726 1665.8363,-287.3078 1667.0906,-280.421"/>
</g>
<!-- Node38&#45;&gt;Node23 -->
<g id="edge85" class="edge">
<title>Node38&#45;&gt;Node23</title>
<path fill="none" stroke="#191970" d="M1873.9475,-556.6763C1746.2257,-552.7543 1395.1227,-539.6991 1283,-512 1222.7172,-497.1076 1195.6631,-502.9288 1155,-456 1132.0517,-429.5156 1143.3765,-413.7658 1134,-380 1125.4792,-349.3158 1115.5343,-313.7226 1109.5057,-292.1704"/>
<polygon fill="#191970" stroke="#191970" points="1112.8035,-290.9673 1106.7384,-282.2803 1106.0624,-292.8535 1112.8035,-290.9673"/>
</g>
<!-- Node38&#45;&gt;Node33 -->
<g id="edge83" class="edge">
<title>Node38&#45;&gt;Node33</title>
<path fill="none" stroke="#191970" d="M1968.0695,-549.737C2030.034,-538.8592 2138.0602,-519.8954 2197.6018,-509.4429"/>
<polygon fill="#191970" stroke="#191970" points="2198.5376,-512.8323 2207.7818,-507.6559 2197.3273,-505.9377 2198.5376,-512.8323"/>
</g>
<!-- Node38&#45;&gt;Node35 -->
<g id="edge84" class="edge">
<title>Node38&#45;&gt;Node35</title>
<path fill="none" stroke="#191970" d="M1907.2393,-548.2455C1895.3448,-539.814 1877.935,-527.4729 1864.0915,-517.6598"/>
<polygon fill="#191970" stroke="#191970" points="1865.7854,-514.5704 1855.6031,-511.6427 1861.7372,-520.2811 1865.7854,-514.5704"/>
</g>
<!-- Node39&#45;&gt;Node7 -->
<g id="edge87" class="edge">
<title>Node39&#45;&gt;Node7</title>
<path fill="none" stroke="#191970" d="M2062.9429,-548.2974C2120.0864,-510.0185 2317.5963,-366.235 2237,-257 2166.5523,-161.5197 1796.4385,-103.301 1653.45,-84.0797"/>
<polygon fill="#191970" stroke="#191970" points="1653.5242,-80.5589 1643.1501,-82.71 1652.6014,-87.4978 1653.5242,-80.5589"/>
</g>
<!-- Node39&#45;&gt;Node15 -->
<g id="edge88" class="edge">
<title>Node39&#45;&gt;Node15</title>
<path fill="none" stroke="#191970" d="M2109.5116,-553.0662C2169.9117,-546.9875 2256.4582,-534.5763 2281,-512 2349.6624,-448.8367 2240.9796,-332.1197 2196.0244,-289.0378"/>
<polygon fill="#191970" stroke="#191970" points="2198.3451,-286.4155 2188.6683,-282.1016 2193.5429,-291.5085 2198.3451,-286.4155"/>
</g>
<!-- Node39&#45;&gt;Node22 -->
<g id="edge89" class="edge">
<title>Node39&#45;&gt;Node22</title>
<path fill="none" stroke="#191970" d="M2044.1053,-548.3517C2028.3103,-510.7176 1964.9141,-373.4317 1862,-324 1828.1951,-307.7628 1733.095,-291.7006 1666.546,-281.94"/>
<polygon fill="#191970" stroke="#191970" points="1666.9341,-278.4597 1656.5351,-280.4875 1665.9289,-285.3872 1666.9341,-278.4597"/>
</g>
<!-- Node39&#45;&gt;Node23 -->
<g id="edge92" class="edge">
<title>Node39&#45;&gt;Node23</title>
<path fill="none" stroke="#191970" d="M2029.1239,-548.4819C2000.6689,-534.4527 1944.8095,-508.1446 1895,-492 1607.7909,-398.908 1508.6928,-464.8151 1232,-344 1217.6514,-337.7348 1216.4152,-332.0727 1203,-324 1179.1762,-309.6638 1150.9502,-295.2161 1130.7452,-285.2875"/>
<polygon fill="#191970" stroke="#191970" points="1132.048,-282.029 1121.5251,-280.7968 1128.9828,-288.3222 1132.048,-282.029"/>
</g>
<!-- Node39&#45;&gt;Node33 -->
<g id="edge90" class="edge">
<title>Node39&#45;&gt;Node33</title>
<path fill="none" stroke="#191970" d="M2081.006,-548.3733C2113.3067,-538.9522 2162.6422,-524.5627 2197.7828,-514.3133"/>
<polygon fill="#191970" stroke="#191970" points="2199.1243,-517.568 2207.7443,-511.4079 2197.1643,-510.848 2199.1243,-517.568"/>
</g>
<!-- Node39&#45;&gt;Node35 -->
<g id="edge91" class="edge">
<title>Node39&#45;&gt;Node35</title>
<path fill="none" stroke="#191970" d="M2012.5873,-548.3733C1977.7395,-538.9001 1924.4118,-524.4032 1886.6707,-514.1435"/>
<polygon fill="#191970" stroke="#191970" points="1887.5185,-510.747 1876.9506,-511.5011 1885.6822,-517.5019 1887.5185,-510.747"/>
</g>
<!-- Node43&#45;&gt;Node7 -->
<g id="edge100" class="edge">
<title>Node43&#45;&gt;Node7</title>
<path fill="none" stroke="#191970" d="M1336.6372,-492.4289C1323.5959,-478.0878 1296.9924,-451.0993 1269,-436 1180.3033,-388.1564 846,-373.2775 846,-272.5 846,-272.5 846,-272.5 846,-205.5 846,-135.0198 1366.5311,-92.8287 1540.8709,-80.6744"/>
<polygon fill="#191970" stroke="#191970" points="1541.1355,-84.1645 1550.8706,-79.9838 1540.6532,-77.1811 1541.1355,-84.1645"/>
</g>
<!-- Node43&#45;&gt;Node15 -->
<g id="edge101" class="edge">
<title>Node43&#45;&gt;Node15</title>
<path fill="none" stroke="#191970" d="M1398.0793,-500.8437C1517.5008,-497.7141 1803.9905,-487.1069 1895,-456 1909.5233,-451.036 2090.1227,-331.0917 2154.9912,-287.8564"/>
<polygon fill="#191970" stroke="#191970" points="2157.3105,-290.5166 2163.6887,-282.0568 2153.427,-284.6927 2157.3105,-290.5166"/>
</g>
<!-- Node43&#45;&gt;Node20 -->
<g id="edge103" class="edge">
<title>Node43&#45;&gt;Node20</title>
<path fill="none" stroke="#191970" d="M1353.3199,-492.0765C1366.3328,-477.2751 1393.0289,-449.6936 1422,-436 1456.5007,-419.6928 1555.8708,-405.2054 1621.5608,-397.026"/>
<polygon fill="#191970" stroke="#191970" points="1622.3008,-400.4615 1631.7993,-395.7681 1621.4471,-393.5137 1622.3008,-400.4615"/>
</g>
<!-- Node43&#45;&gt;Node22 -->
<g id="edge102" class="edge">
<title>Node43&#45;&gt;Node22</title>
<path fill="none" stroke="#191970" d="M1349.6441,-492.1958C1356.4612,-478.5056 1370.2065,-453.3905 1387,-436 1437.1824,-384.0337 1464.7491,-389.3278 1521,-344 1540.0992,-328.6096 1560.2552,-309.4981 1575.0073,-294.9069"/>
<polygon fill="#191970" stroke="#191970" points="1577.59,-297.2741 1582.1949,-287.7323 1572.6448,-292.3199 1577.59,-297.2741"/>
</g>
<!-- Node43&#45;&gt;Node23 -->
<g id="edge106" class="edge">
<title>Node43&#45;&gt;Node23</title>
<path fill="none" stroke="#191970" d="M1339.9729,-492.4089C1332.6698,-478.9721 1318.2151,-454.1559 1302,-436 1246.3296,-373.6664 1166.0126,-314.9467 1127.0014,-287.9758"/>
<polygon fill="#191970" stroke="#191970" points="1128.6769,-284.8811 1118.4493,-282.1158 1124.7202,-290.6556 1128.6769,-284.8811"/>
</g>
<!-- Node43&#45;&gt;Node37 -->
<g id="edge108" class="edge">
<title>Node43&#45;&gt;Node37</title>
<path fill="none" stroke="#191970" d="M1374.1369,-492.4872C1400.1418,-483.9531 1439.4924,-470.9327 1482.0361,-456.2887"/>
<polygon fill="#191970" stroke="#191970" points="1483.4285,-459.5108 1491.7393,-452.9395 1481.1445,-452.8939 1483.4285,-459.5108"/>
</g>
<!-- Node43&#45;&gt;Node40 -->
<g id="edge104" class="edge">
<title>Node43&#45;&gt;Node40</title>
<path fill="none" stroke="#191970" d="M1315.7801,-492.4777C1287.9822,-483.3506 1245.0264,-469.0694 1208,-456 1207.8998,-455.9646 1207.7995,-455.9292 1207.6989,-455.8936"/>
<polygon fill="#191970" stroke="#191970" points="1208.7054,-452.5358 1198.1111,-452.4276 1206.3255,-459.1189 1208.7054,-452.5358"/>
</g>
<!-- Node43&#45;&gt;Node41 -->
<g id="edge105" class="edge">
<title>Node43&#45;&gt;Node41</title>
<path fill="none" stroke="#191970" d="M1326.362,-492.2455C1309.5614,-483.4527 1284.6366,-470.4079 1265.5382,-460.4125"/>
<polygon fill="#191970" stroke="#191970" points="1266.9073,-457.1787 1256.4244,-455.6427 1263.6614,-463.3807 1266.9073,-457.1787"/>
</g>
<!-- Node43&#45;&gt;Node42 -->
<g id="edge107" class="edge">
<title>Node43&#45;&gt;Node42</title>
<path fill="none" stroke="#191970" d="M1363.638,-492.2455C1380.4386,-483.4527 1405.3634,-470.4079 1424.4618,-460.4125"/>
<polygon fill="#191970" stroke="#191970" points="1426.3386,-463.3807 1433.5756,-455.6427 1423.0927,-457.1787 1426.3386,-463.3807"/>
</g>
<!-- Node44&#45;&gt;Node2 -->
<g id="edge117" class="edge">
<title>Node44&#45;&gt;Node2</title>
<path fill="none" stroke="#191970" d="M834.1487,-383.8468C743.9657,-373.3474 560.93,-352.0376 466.0524,-340.9916"/>
<polygon fill="#191970" stroke="#191970" points="466.3788,-337.506 456.0411,-339.826 465.5692,-344.459 466.3788,-337.506"/>
</g>
<!-- Node44&#45;&gt;Node23 -->
<g id="edge118" class="edge">
<title>Node44&#45;&gt;Node23</title>
<path fill="none" stroke="#191970" d="M887.2728,-380.4226C888.214,-366.0733 892.1351,-339.0741 908,-324 920.2928,-312.3199 1025.2266,-289.025 1076.2987,-278.233"/>
<polygon fill="#191970" stroke="#191970" points="1077.2588,-281.6078 1086.3267,-276.1285 1075.821,-274.7571 1077.2588,-281.6078"/>
</g>
<!-- Node44&#45;&gt;Node25 -->
<g id="edge119" class="edge">
<title>Node44&#45;&gt;Node25</title>
<path fill="none" stroke="#191970" d="M870.6264,-380.2455C856.0692,-371.5731 834.569,-358.7645 817.8848,-348.825"/>
<polygon fill="#191970" stroke="#191970" points="819.5683,-345.7539 809.1859,-343.6427 815.9856,-351.7676 819.5683,-345.7539"/>
</g>
<!-- Node45 -->
<g id="node45" class="node">
<title>Node45</title>
<g id="a_node45"><a xlink:href="_x_m_l_namespaces_8h.html" target="_top" xlink:title="A list of XMLNamespace declarations (URI/prefix pairs) ">
<polygon fill="#ffffff" stroke="#000000" points="1398,-324.5 1398,-343.5 1512,-343.5 1512,-324.5 1398,-324.5"/>
<text text-anchor="middle" x="1455" y="-331.5" font-family="Helvetica,sans-Serif" font-size="10.00" fill="#000000">sbml/xml/XMLNamespaces.h</text>
</a>
</g>
</g>
<!-- Node44&#45;&gt;Node45 -->
<g id="edge111" class="edge">
<title>Node44&#45;&gt;Node45</title>
<path fill="none" stroke="#191970" d="M939.6717,-384.807C1043.2532,-374.5948 1273.2995,-351.9141 1387.7025,-340.635"/>
<polygon fill="#191970" stroke="#191970" points="1388.13,-344.1099 1397.7383,-339.6455 1387.4431,-337.1437 1388.13,-344.1099"/>
</g>
<!-- Node45&#45;&gt;Node15 -->
<g id="edge113" class="edge">
<title>Node45&#45;&gt;Node15</title>
<path fill="none" stroke="#191970" d="M1512.0344,-329.1485C1646.2501,-317.7318 1981.0338,-289.2544 2118.077,-277.5972"/>
<polygon fill="#191970" stroke="#191970" points="2118.7108,-281.056 2128.3782,-276.7209 2118.1175,-274.0812 2118.7108,-281.056"/>
</g>
<!-- Node45&#45;&gt;Node21 -->
<g id="edge112" class="edge">
<title>Node45&#45;&gt;Node21</title>
<path fill="none" stroke="#191970" d="M1508.5277,-324.4581C1572.3949,-313.0731 1678.6857,-294.1256 1743.7365,-282.5296"/>
<polygon fill="#191970" stroke="#191970" points="1744.5793,-285.9346 1753.8098,-280.7339 1743.3508,-279.0432 1744.5793,-285.9346"/>
</g>
<!-- Node45&#45;&gt;Node22 -->
<g id="edge114" class="edge">
<title>Node45&#45;&gt;Node22</title>
<path fill="none" stroke="#191970" d="M1477.1875,-324.3906C1497.3842,-315.6435 1527.7944,-302.4728 1552.923,-291.5897"/>
<polygon fill="#191970" stroke="#191970" points="1554.4776,-294.7306 1562.2629,-287.5446 1551.6955,-288.3072 1554.4776,-294.7306"/>
</g>
<!-- Node45&#45;&gt;Node23 -->
<g id="edge115" class="edge">
<title>Node45&#45;&gt;Node23</title>
<path fill="none" stroke="#191970" d="M1400.5414,-324.4581C1324.5873,-311.1499 1189.6585,-287.5085 1131.7053,-277.3543"/>
<polygon fill="#191970" stroke="#191970" points="1132.2655,-273.8993 1121.8115,-275.6208 1131.0574,-280.7942 1132.2655,-273.8993"/>
</g>
<!-- Node45&#45;&gt;Node24 -->
<g id="edge116" class="edge">
<title>Node45&#45;&gt;Node24</title>
<path fill="none" stroke="#191970" d="M1435.7813,-324.3906C1415.3531,-314.1766 1382.8619,-297.9309 1359.6779,-286.3389"/>
<polygon fill="#191970" stroke="#191970" points="1361.1906,-283.1822 1350.6811,-281.8405 1358.0601,-289.4432 1361.1906,-283.1822"/>
</g>
<!-- Node46&#45;&gt;Node7 -->
<g id="edge122" class="edge">
<title>Node46&#45;&gt;Node7</title>
<path fill="none" stroke="#191970" d="M620.9741,-436.4856C587.111,-417.25 519.352,-371.5083 542,-324 603.053,-195.9301 657.673,-174.1757 790,-123 859.5033,-96.1206 1369.2488,-82.1777 1540.8229,-78.2089"/>
<polygon fill="#191970" stroke="#191970" points="1540.9906,-81.7061 1550.9079,-77.9781 1540.8304,-74.7079 1540.9906,-81.7061"/>
</g>
<!-- Node46&#45;&gt;Node23 -->
<g id="edge124" class="edge">
<title>Node46&#45;&gt;Node23</title>
<path fill="none" stroke="#191970" d="M633.5085,-436.052C626.8942,-422.6293 617.7557,-398.2943 627,-380 645.9226,-342.5523 663.9387,-339.317 703,-324 835.8304,-271.9134 880.9158,-309.2649 1022,-288 1040.1587,-285.263 1060.4376,-281.4366 1076.2858,-278.2705"/>
<polygon fill="#191970" stroke="#191970" points="1077.3642,-281.6231 1086.4692,-276.2056 1075.9731,-274.7628 1077.3642,-281.6231"/>
</g>
<!-- Node46&#45;&gt;Node25 -->
<g id="edge125" class="edge">
<title>Node46&#45;&gt;Node25</title>
<path fill="none" stroke="#191970" d="M676.0673,-436.4752C698.8966,-429.2443 727.7572,-417.5124 749,-400 764.5404,-387.1886 776.685,-367.4748 784.2418,-352.9263"/>
<polygon fill="#191970" stroke="#191970" points="787.4446,-354.3449 788.7259,-343.8278 781.1657,-351.2504 787.4446,-354.3449"/>
</g>
<!-- Node46&#45;&gt;Node44 -->
<g id="edge123" class="edge">
<title>Node46&#45;&gt;Node44</title>
<path fill="none" stroke="#191970" d="M681.3509,-436.4369C723.7942,-426.8529 789.2119,-412.0812 834.8313,-401.78"/>
<polygon fill="#191970" stroke="#191970" points="835.8403,-405.1404 844.8237,-399.5237 834.2984,-398.3123 835.8403,-405.1404"/>
</g>
<!-- Node46&#45;&gt;Node47 -->
<g id="edge126" class="edge">
<title>Node46&#45;&gt;Node47</title>
<path fill="none" stroke="#191970" d="M626.6331,-436.2892C616.5168,-427.7362 602.5341,-414.4221 594,-400 585.521,-385.671 580.3522,-367.4341 577.3993,-353.7631"/>
<polygon fill="#191970" stroke="#191970" points="580.7564,-352.6899 575.416,-343.5395 573.8845,-354.023 580.7564,-352.6899"/>
</g>
<!-- Node48&#45;&gt;Node7 -->
<g id="edge128" class="edge">
<title>Node48&#45;&gt;Node7</title>
<path fill="none" stroke="#191970" d="M689.6076,-380.2505C696.9163,-339.4915 731.1299,-182.1199 832,-123 892.6448,-87.4561 1374.4631,-79.2485 1540.7804,-77.4663"/>
<polygon fill="#191970" stroke="#191970" points="1540.8421,-80.966 1550.8054,-77.3627 1540.7697,-73.9664 1540.8421,-80.966"/>
</g>
<!-- Node48&#45;&gt;Node23 -->
<g id="edge129" class="edge">
<title>Node48&#45;&gt;Node23</title>
<path fill="none" stroke="#191970" d="M690.5127,-380.4611C694.9579,-365.649 705.7134,-337.4281 726,-324 781.2544,-287.4259 956.5209,-298.1591 1022,-288 1040.1467,-285.1845 1060.4255,-281.3573 1076.2766,-278.2105"/>
<polygon fill="#191970" stroke="#191970" points="1077.3491,-281.5649 1086.4624,-276.1613 1075.9685,-274.7024 1077.3491,-281.5649"/>
</g>
<!-- Node48&#45;&gt;Node24 -->
<g id="edge130" class="edge">
<title>Node48&#45;&gt;Node24</title>
<path fill="none" stroke="#191970" d="M695.1093,-380.2657C706.75,-365.1859 731.4583,-336.6048 760,-324 772.5911,-318.4394 1189.2587,-284.1369 1303.3611,-274.8285"/>
<polygon fill="#191970" stroke="#191970" points="1303.7524,-278.3083 1313.435,-274.0075 1303.1837,-271.3314 1303.7524,-278.3083"/>
</g>
<!-- Node48&#45;&gt;Node25 -->
<g id="edge131" class="edge">
<title>Node48&#45;&gt;Node25</title>
<path fill="none" stroke="#191970" d="M706.2896,-380.2455C722.7762,-371.4527 747.2352,-358.4079 765.9765,-348.4125"/>
<polygon fill="#191970" stroke="#191970" points="767.7435,-351.4368 774.92,-343.6427 764.4494,-345.2604 767.7435,-351.4368"/>
</g>
<!-- Node48&#45;&gt;Node47 -->
<g id="edge132" class="edge">
<title>Node48&#45;&gt;Node47</title>
<path fill="none" stroke="#191970" d="M668.4027,-380.3733C650.2669,-371.4644 623.0865,-358.1127 602.5413,-348.0203"/>
<polygon fill="#191970" stroke="#191970" points="603.8603,-344.7688 593.3416,-343.5011 600.7739,-351.0517 603.8603,-344.7688"/>
</g>
<!-- Node49&#45;&gt;Node8 -->
<g id="edge135" class="edge">
<title>Node49&#45;&gt;Node8</title>
<path fill="none" stroke="#191970" d="M952.6639,-324.4466C845.4331,-299.6639 560.2524,-233.7544 467.5574,-212.3312"/>
<polygon fill="#191970" stroke="#191970" points="468.2504,-208.8991 457.719,-210.0574 466.6741,-215.7194 468.2504,-208.8991"/>
</g>
<!-- Node49&#45;&gt;Node10 -->
<g id="edge138" class="edge">
<title>Node49&#45;&gt;Node10</title>
<path fill="none" stroke="#191970" d="M950.2127,-330.5715C857.1615,-323.2329 632.8712,-305.2632 445,-288 406.4084,-284.4539 362.4537,-280.021 331.2324,-276.8052"/>
<polygon fill="#191970" stroke="#191970" points="331.4654,-273.3108 321.1586,-275.7644 330.7459,-280.2737 331.4654,-273.3108"/>
</g>
<!-- Node49&#45;&gt;Node15 -->
<g id="edge137" class="edge">
<title>Node49&#45;&gt;Node15</title>
<path fill="none" stroke="#191970" d="M1037.5434,-331.7382C1218.2715,-322.3508 1909.5579,-286.4436 2118.0973,-275.6115"/>
<polygon fill="#191970" stroke="#191970" points="2118.4364,-279.0987 2128.2413,-275.0846 2118.0732,-272.1081 2118.4364,-279.0987"/>
</g>
<!-- Node49&#45;&gt;Node21 -->
<g id="edge136" class="edge">
<title>Node49&#45;&gt;Node21</title>
<path fill="none" stroke="#191970" d="M1037.6908,-331.7195C1144.8673,-325.9707 1429.3199,-309.7772 1666,-288 1691.6088,-285.6437 1719.9039,-282.4569 1743.8686,-279.5856"/>
<polygon fill="#191970" stroke="#191970" points="1744.3463,-283.0534 1753.8536,-278.3777 1743.5056,-276.104 1744.3463,-283.0534"/>
</g>
<!-- Node49&#45;&gt;Node22 -->
<g id="edge141" class="edge">
<title>Node49&#45;&gt;Node22</title>
<path fill="none" stroke="#191970" d="M1037.852,-329.5275C1141.3175,-318.9751 1401.3614,-292.4532 1526.9569,-279.6437"/>
<polygon fill="#191970" stroke="#191970" points="1527.6308,-283.0932 1537.2241,-278.5966 1526.9205,-276.1293 1527.6308,-283.0932"/>
</g>
<!-- Node49&#45;&gt;Node23 -->
<g id="edge140" class="edge">
<title>Node49&#45;&gt;Node23</title>
<path fill="none" stroke="#191970" d="M1011.1875,-324.3906C1029.1082,-314.3713 1057.4095,-298.5483 1078.0523,-287.0071"/>
<polygon fill="#191970" stroke="#191970" points="1079.9128,-289.9769 1086.9332,-282.0419 1076.4967,-283.867 1079.9128,-289.9769"/>
</g>
<!-- Node50 -->
<g id="node50" class="node">
<title>Node50</title>
<polygon fill="#ffffff" stroke="#bfbfbf" points="975,-263 975,-282 1013,-282 1013,-263 975,-263"/>
<text text-anchor="middle" x="994" y="-270" font-family="Helvetica,sans-Serif" font-size="10.00" fill="#000000">iosfwd</text>
</g>
<!-- Node49&#45;&gt;Node50 -->
<g id="edge139" class="edge">
<title>Node49&#45;&gt;Node50</title>
<path fill="none" stroke="#191970" d="M994,-324.3906C994,-315.8657 994,-303.1392 994,-292.4235"/>
<polygon fill="#191970" stroke="#191970" points="997.5001,-292.2448 994,-282.2449 990.5001,-292.2449 997.5001,-292.2448"/>
</g>
</g>
</svg>
