<?xml version="1.0" encoding="UTF-8" standalone="no"?>
<!DOCTYPE svg PUBLIC "-//W3C//DTD SVG 1.1//EN"
 "http://www.w3.org/Graphics/SVG/1.1/DTD/svg11.dtd">
<!-- Generated by graphviz version 2.40.1 (20161225.0304)
 -->
<!-- Title: GlobalStyle.h Pages: 1 -->
<!--zoomable 420 -->
<svg id="main" version="1.1" xmlns="http://www.w3.org/2000/svg" xmlns:xlink="http://www.w3.org/1999/xlink" xml:space="preserve" onload="init(evt)">
<style type="text/css"><![CDATA[
.edge:hover path { stroke: red; }
.edge:hover polygon { stroke: red; fill: red; }
]]></style>
<script type="text/javascript"><![CDATA[
var edges = document.getElementsByTagName('g');
if (edges && edges.length) {
  for (var i=0;i<edges.length;i++) {
    if (edges[i].id.substr(0,4)=='edge') {
      edges[i].setAttribute('class','edge');
    }
  }
}
]]></script>
        <defs>
                <circle id="rim" cx="0" cy="0" r="7"/>
                <circle id="rim2" cx="0" cy="0" r="3.5"/>
                <g id="zoomPlus">
                        <use xlink:href="#rim" fill="#404040">
                                <set attributeName="fill" to="#808080" begin="zoomplus.mouseover" end="zoomplus.mouseout"/>
                        </use>
                        <path d="M-4,0h8M0,-4v8" fill="none" stroke="white" stroke-width="1.5" pointer-events="none"/>
                </g>
                <g id="zoomMin">
                        <use xlink:href="#rim" fill="#404040">
                                <set attributeName="fill" to="#808080" begin="zoomminus.mouseover" end="zoomminus.mouseout"/>
                        </use>
                        <path d="M-4,0h8" fill="none" stroke="white" stroke-width="1.5" pointer-events="none"/>
                </g>
                <g id="dirArrow">
                        <path fill="none" stroke="white" stroke-width="1.5" d="M0,-3.0v7 M-2.5,-0.5L0,-3.0L2.5,-0.5"/>
                </g>
               <g id="resetDef">
                       <use xlink:href="#rim2" fill="#404040">
                               <set attributeName="fill" to="#808080" begin="reset.mouseover" end="reset.mouseout"/>
                       </use>
               </g>
        </defs>

<script type="text/javascript">
var viewWidth = 690;
var viewHeight = 420;
var sectionId = 'dynsection-1';
</script>
<script xlink:href="svgpan.js"/>
<svg id="graph" class="graph">
<g id="viewport">
<title>GlobalStyle.h</title>
<polygon fill="#ffffff" stroke="transparent" points="-4,4 -4,-416 686,-416 686,4 -4,4"/>
<!-- Node1 -->
<g id="node1" class="node">
<title>Node1</title>
<polygon fill="#bfbfbf" stroke="#000000" points="86.5,-392.5 86.5,-411.5 147.5,-411.5 147.5,-392.5 86.5,-392.5"/>
<text text-anchor="middle" x="117" y="-399.5" font-family="Helvetica,sans-Serif" font-size="10.00" fill="#000000">GlobalStyle.h</text>
</g>
<!-- Node2 -->
<g id="node2" class="node">
<title>Node2</title>
<g id="a_node2"><a xlink:href="_render_extension_types_8h.html" target="_top" xlink:title="Definition of RenderExtensionTypes. ">
<polygon fill="#ffffff" stroke="#000000" points="117.5,-112.5 117.5,-131.5 218.5,-131.5 218.5,-112.5 117.5,-112.5"/>
<text text-anchor="middle" x="168" y="-119.5" font-family="Helvetica,sans-Serif" font-size="10.00" fill="#000000">RenderExtensionTypes.h</text>
</a>
</g>
</g>
<!-- Node1&#45;&gt;Node2 -->
<g id="edge1" class="edge">
<title>Node1&#45;&gt;Node2</title>
<path fill="none" stroke="#191970" d="M84.5789,-387.9147C49.9528,-370.4222 0,-337.0358 0,-290 0,-290 0,-290 0,-234 0,-174.9341 72.7829,-145.101 122.5368,-131.6077"/>
<polygon fill="#191970" stroke="#191970" points="83.3593,-391.213 93.8846,-392.4252 86.4125,-384.9139 83.3593,-391.213"/>
</g>
<!-- Node9 -->
<g id="node9" class="node">
<title>Node9</title>
<g id="a_node9"><a xlink:href="_global_style_8cpp.html" target="_top" xlink:title="Implementation of the GlobalStyle class. ">
<polygon fill="#ffffff" stroke="#000000" points="28.5,-280.5 28.5,-299.5 97.5,-299.5 97.5,-280.5 28.5,-280.5"/>
<text text-anchor="middle" x="63" y="-287.5" font-family="Helvetica,sans-Serif" font-size="10.00" fill="#000000">GlobalStyle.cpp</text>
</a>
</g>
</g>
<!-- Node1&#45;&gt;Node9 -->
<g id="edge10" class="edge">
<title>Node1&#45;&gt;Node9</title>
<path fill="none" stroke="#191970" d="M107.9597,-383.2498C96.3135,-359.0946 76.5097,-318.0202 67.5924,-299.5249"/>
<polygon fill="#191970" stroke="#191970" points="104.9002,-384.9633 112.396,-392.4509 111.2056,-381.9232 104.9002,-384.9633"/>
</g>
<!-- Node10 -->
<g id="node10" class="node">
<title>Node10</title>
<g id="a_node10"><a xlink:href="_list_of_global_styles_8h.html" target="_top" xlink:title="Definition of the ListOfGlobalStyles class. ">
<polygon fill="#ffffff" stroke="#000000" points="147,-336.5 147,-355.5 231,-355.5 231,-336.5 147,-336.5"/>
<text text-anchor="middle" x="189" y="-343.5" font-family="Helvetica,sans-Serif" font-size="10.00" fill="#000000">ListOfGlobalStyles.h</text>
</a>
</g>
</g>
<!-- Node1&#45;&gt;Node10 -->
<g id="edge11" class="edge">
<title>Node1&#45;&gt;Node10</title>
<path fill="none" stroke="#191970" d="M137.664,-385.928C150.2489,-376.1397 165.9092,-363.9595 176.6023,-355.6427"/>
<polygon fill="#191970" stroke="#191970" points="135.2862,-383.3434 129.5414,-392.2455 139.5838,-388.8688 135.2862,-383.3434"/>
</g>
<!-- Node19 -->
<g id="node19" class="node">
<title>Node19</title>
<g id="a_node19"><a xlink:href="_style_8cpp.html" target="_top" xlink:title="Implementation of the Style class. ">
<polygon fill="#ffffff" stroke="#000000" points="390.5,-280.5 390.5,-299.5 437.5,-299.5 437.5,-280.5 390.5,-280.5"/>
<text text-anchor="middle" x="414" y="-287.5" font-family="Helvetica,sans-Serif" font-size="10.00" fill="#000000">Style.cpp</text>
</a>
</g>
</g>
<!-- Node1&#45;&gt;Node19 -->
<g id="edge33" class="edge">
<title>Node1&#45;&gt;Node19</title>
<path fill="none" stroke="#191970" d="M152.5472,-388.7559C177.1206,-379.5881 210.5595,-367.0886 240,-356 293.8183,-335.7296 356.9174,-311.7394 390.3723,-299.0022"/>
<polygon fill="#191970" stroke="#191970" points="151.0753,-385.5692 142.9288,-392.343 153.5214,-392.128 151.0753,-385.5692"/>
</g>
<!-- Node3 -->
<g id="node3" class="node">
<title>Node3</title>
<g id="a_node3"><a xlink:href="_render_layout_plugin_8cpp.html" target="_top" xlink:title="Implementation of RenderLayoutPlugin, the plugin class of the fbc package for the Model element...">
<polygon fill="#ffffff" stroke="#000000" points="127.5,-.5 127.5,-19.5 226.5,-19.5 226.5,-.5 127.5,-.5"/>
<text text-anchor="middle" x="177" y="-7.5" font-family="Helvetica,sans-Serif" font-size="10.00" fill="#000000">RenderLayoutPlugin.cpp</text>
</a>
</g>
</g>
<!-- Node2&#45;&gt;Node3 -->
<g id="edge2" class="edge">
<title>Node2&#45;&gt;Node3</title>
<path fill="none" stroke="#191970" d="M125.4434,-108.8878C96.6205,-97.5947 66.251,-79.4219 81,-56 92.6205,-37.5461 113.9249,-26.3311 133.5168,-19.6024"/>
<polygon fill="#191970" stroke="#191970" points="124.4982,-112.2697 135.0915,-112.4515 126.9237,-105.7033 124.4982,-112.2697"/>
</g>
<!-- Node4 -->
<g id="node4" class="node">
<title>Node4</title>
<g id="a_node4"><a xlink:href="_render_layout_converter_8cpp.html" target="_top" xlink:title="Simple converter to convert Layout + Render from l2 to L3 and vice versa. ">
<polygon fill="#ffffff" stroke="#000000" points="232.5,-56.5 232.5,-75.5 343.5,-75.5 343.5,-56.5 232.5,-56.5"/>
<text text-anchor="middle" x="288" y="-63.5" font-family="Helvetica,sans-Serif" font-size="10.00" fill="#000000">RenderLayoutConverter.cpp</text>
</a>
</g>
</g>
<!-- Node2&#45;&gt;Node4 -->
<g id="edge3" class="edge">
<title>Node2&#45;&gt;Node4</title>
<path fill="none" stroke="#191970" d="M197.7624,-108.1109C219.5232,-97.9559 248.4682,-84.4482 267.6405,-75.5011"/>
<polygon fill="#191970" stroke="#191970" points="196.2105,-104.9727 188.6287,-112.3733 199.1707,-111.316 196.2105,-104.9727"/>
</g>
<!-- Node5 -->
<g id="node5" class="node">
<title>Node5</title>
<g id="a_node5"><a xlink:href="_render_utilities_8cpp.html" target="_top" xlink:title="implementation of RenderUtilities, a class of utility functions for the render package ...">
<polygon fill="#ffffff" stroke="#000000" points="358.5,-.5 358.5,-19.5 437.5,-19.5 437.5,-.5 358.5,-.5"/>
<text text-anchor="middle" x="398" y="-7.5" font-family="Helvetica,sans-Serif" font-size="10.00" fill="#000000">RenderUtilities.cpp</text>
</a>
</g>
</g>
<!-- Node2&#45;&gt;Node5 -->
<g id="edge4" class="edge">
<title>Node2&#45;&gt;Node5</title>
<path fill="none" stroke="#191970" d="M178.9045,-103.8252C188.8338,-88.8168 204.8447,-68.0847 224,-56 265.3576,-29.9082 321.1767,-18.5265 358.3196,-13.6206"/>
<polygon fill="#191970" stroke="#191970" points="175.9293,-101.9814 173.5342,-112.3019 181.8426,-105.7276 175.9293,-101.9814"/>
</g>
<!-- Node6 -->
<g id="node6" class="node">
<title>Node6</title>
<g id="a_node6"><a xlink:href="_render_utilities_8h.html" target="_top" xlink:title="Definition of RenderUtilities, a class of utility functions for the render package. ">
<polygon fill="#ffffff" stroke="#000000" points="362,-56.5 362,-75.5 434,-75.5 434,-56.5 362,-56.5"/>
<text text-anchor="middle" x="398" y="-63.5" font-family="Helvetica,sans-Serif" font-size="10.00" fill="#000000">RenderUtilities.h</text>
</a>
</g>
</g>
<!-- Node2&#45;&gt;Node6 -->
<g id="edge5" class="edge">
<title>Node2&#45;&gt;Node6</title>
<path fill="none" stroke="#191970" d="M217.0639,-110.054C260.5068,-99.4766 322.9091,-84.283 361.9153,-74.7858"/>
<polygon fill="#191970" stroke="#191970" points="216.1652,-106.6705 207.2771,-112.4369 217.8212,-113.4718 216.1652,-106.6705"/>
</g>
<!-- Node8 -->
<g id="node8" class="node">
<title>Node8</title>
<g id="a_node8"><a xlink:href="_render_validator_8cpp.html" target="_top" xlink:title="Definition of RenderValidator. ">
<polygon fill="#ffffff" stroke="#000000" points="90.5,-56.5 90.5,-75.5 175.5,-75.5 175.5,-56.5 90.5,-56.5"/>
<text text-anchor="middle" x="133" y="-63.5" font-family="Helvetica,sans-Serif" font-size="10.00" fill="#000000">RenderValidator.cpp</text>
</a>
</g>
</g>
<!-- Node2&#45;&gt;Node8 -->
<g id="edge9" class="edge">
<title>Node2&#45;&gt;Node8</title>
<path fill="none" stroke="#191970" d="M156.5185,-103.6296C150.6804,-94.2887 143.8248,-83.3197 139.0267,-75.6427"/>
<polygon fill="#191970" stroke="#191970" points="153.6354,-105.6206 161.9035,-112.2455 159.5714,-101.9105 153.6354,-105.6206"/>
</g>
<!-- Node6&#45;&gt;Node3 -->
<g id="edge6" class="edge">
<title>Node6&#45;&gt;Node3</title>
<path fill="none" stroke="#191970" d="M351.5674,-54.2343C310.8827,-43.925 252.4955,-29.1301 214.6579,-19.5423"/>
<polygon fill="#191970" stroke="#191970" points="350.953,-57.6891 361.5063,-56.7527 352.6724,-50.9036 350.953,-57.6891"/>
</g>
<!-- Node6&#45;&gt;Node5 -->
<g id="edge8" class="edge">
<title>Node6&#45;&gt;Node5</title>
<path fill="none" stroke="#191970" d="M398,-46.1575C398,-37.155 398,-26.9199 398,-19.6427"/>
<polygon fill="#191970" stroke="#191970" points="394.5001,-46.2455 398,-56.2455 401.5001,-46.2456 394.5001,-46.2455"/>
</g>
<!-- Node7 -->
<g id="node7" class="node">
<title>Node7</title>
<g id="a_node7"><a xlink:href="_render_list_of_layouts_plugin_8cpp.html" target="_top" xlink:title="Implementation of RenderListOfLayoutsPlugin, the plugin class of the fbc package for the Model elemen...">
<polygon fill="#ffffff" stroke="#000000" points="519,-.5 519,-19.5 641,-19.5 641,-.5 519,-.5"/>
<text text-anchor="middle" x="580" y="-7.5" font-family="Helvetica,sans-Serif" font-size="10.00" fill="#000000">RenderListOfLayoutsPlugin.cpp</text>
</a>
</g>
</g>
<!-- Node6&#45;&gt;Node7 -->
<g id="edge7" class="edge">
<title>Node6&#45;&gt;Node7</title>
<path fill="none" stroke="#191970" d="M439.1986,-53.3235C472.5758,-43.0536 518.8699,-28.8093 549.1214,-19.5011"/>
<polygon fill="#191970" stroke="#191970" points="437.8154,-50.0871 429.2869,-56.3733 439.874,-56.7776 437.8154,-50.0871"/>
</g>
<!-- Node10&#45;&gt;Node2 -->
<g id="edge12" class="edge">
<title>Node10&#45;&gt;Node2</title>
<path fill="none" stroke="#191970" d="M169.296,-329.5556C160.7175,-321.4558 151.2229,-311.0614 145,-300 119.733,-255.0869 121.7242,-239.092 115,-188 113.8401,-179.1871 111.3107,-176.0871 115,-168 122.2818,-152.0379 138.1411,-139.4785 150.6242,-131.5442"/>
<polygon fill="#191970" stroke="#191970" points="167.021,-332.2169 176.7965,-336.3023 171.7024,-327.0125 167.021,-332.2169"/>
</g>
<!-- Node10&#45;&gt;Node9 -->
<g id="edge30" class="edge">
<title>Node10&#45;&gt;Node9</title>
<path fill="none" stroke="#191970" d="M158.0564,-332.2473C135.1735,-322.0771 104.5986,-308.4883 84.3775,-299.5011"/>
<polygon fill="#191970" stroke="#191970" points="156.7802,-335.5102 167.3398,-336.3733 159.6232,-329.1135 156.7802,-335.5102"/>
</g>
<!-- Node11 -->
<g id="node11" class="node">
<title>Node11</title>
<g id="a_node11"><a xlink:href="_global_render_information_8h.html" target="_top" xlink:title="Definition of the GlobalRenderInformation class. ">
<polygon fill="#ffffff" stroke="#000000" points="154.5,-280.5 154.5,-299.5 261.5,-299.5 261.5,-280.5 154.5,-280.5"/>
<text text-anchor="middle" x="208" y="-287.5" font-family="Helvetica,sans-Serif" font-size="10.00" fill="#000000">GlobalRenderInformation.h</text>
</a>
</g>
</g>
<!-- Node10&#45;&gt;Node11 -->
<g id="edge13" class="edge">
<title>Node10&#45;&gt;Node11</title>
<path fill="none" stroke="#191970" d="M195.5315,-326.7493C198.6336,-317.6064 202.2051,-307.0798 204.7284,-299.6427"/>
<polygon fill="#191970" stroke="#191970" points="192.2082,-325.6512 192.3095,-336.2455 198.837,-327.9003 192.2082,-325.6512"/>
</g>
<!-- Node18 -->
<g id="node18" class="node">
<title>Node18</title>
<g id="a_node18"><a xlink:href="_list_of_global_styles_8cpp.html" target="_top" xlink:title="Implementation of the ListOfGlobalStyles class. ">
<polygon fill="#ffffff" stroke="#000000" points="280,-280.5 280,-299.5 372,-299.5 372,-280.5 280,-280.5"/>
<text text-anchor="middle" x="326" y="-287.5" font-family="Helvetica,sans-Serif" font-size="10.00" fill="#000000">ListOfGlobalStyles.cpp</text>
</a>
</g>
</g>
<!-- Node10&#45;&gt;Node18 -->
<g id="edge31" class="edge">
<title>Node10&#45;&gt;Node18</title>
<path fill="none" stroke="#191970" d="M221.9806,-332.5189C246.9311,-322.3201 280.5734,-308.5685 302.7562,-299.5011"/>
<polygon fill="#191970" stroke="#191970" points="220.4834,-329.3497 212.5511,-336.3733 223.132,-335.8293 220.4834,-329.3497"/>
</g>
<!-- Node10&#45;&gt;Node19 -->
<g id="edge32" class="edge">
<title>Node10&#45;&gt;Node19</title>
<path fill="none" stroke="#191970" d="M241.1322,-334.3868C279.8696,-325.5452 333.9279,-312.759 381,-300 384.0045,-299.1856 387.15,-298.2895 390.2553,-297.3784"/>
<polygon fill="#191970" stroke="#191970" points="240.106,-331.0307 231.1303,-336.6598 241.6573,-337.8567 240.106,-331.0307"/>
</g>
<!-- Node11&#45;&gt;Node2 -->
<g id="edge14" class="edge">
<title>Node11&#45;&gt;Node2</title>
<path fill="none" stroke="#191970" d="M187.561,-273.8929C166.2714,-255.6823 134.2161,-223.8603 121,-188 117.9262,-179.6595 117.5543,-176.1939 121,-168 127.4619,-152.6339 141.8402,-139.8329 153.0035,-131.6692"/>
<polygon fill="#191970" stroke="#191970" points="185.4715,-276.7071 195.4008,-280.403 189.9434,-271.3218 185.4715,-276.7071"/>
</g>
<!-- Node11&#45;&gt;Node7 -->
<g id="edge15" class="edge">
<title>Node11&#45;&gt;Node7</title>
<path fill="none" stroke="#191970" d="M271.8253,-280.0334C383.5324,-265.7289 682,-269.1632 682,-178 682,-178 682,-178 682,-122 682,-73.0827 628.1549,-36.1243 598.7084,-19.5702"/>
<polygon fill="#191970" stroke="#191970" points="271.0259,-276.6115 261.6142,-281.4768 272.0057,-283.5426 271.0259,-276.6115"/>
</g>
<!-- Node12 -->
<g id="node12" class="node">
<title>Node12</title>
<g id="a_node12"><a xlink:href="_render_list_of_layouts_plugin_8h.html" target="_top" xlink:title="Definition of RenderListOfLayoutsPlugin, the plugin class of fbc package for the Model element...">
<polygon fill="#ffffff" stroke="#000000" points="490,-168.5 490,-187.5 604,-187.5 604,-168.5 490,-168.5"/>
<text text-anchor="middle" x="547" y="-175.5" font-family="Helvetica,sans-Serif" font-size="10.00" fill="#000000">RenderListOfLayoutsPlugin.h</text>
</a>
</g>
</g>
<!-- Node11&#45;&gt;Node12 -->
<g id="edge16" class="edge">
<title>Node11&#45;&gt;Node12</title>
<path fill="none" stroke="#191970" d="M271.94,-279.4389C349.4625,-266.5685 470.4222,-246.2469 475,-244 502.7047,-230.4019 527.4079,-202.7801 539.3745,-187.9474"/>
<polygon fill="#191970" stroke="#191970" points="271.0677,-276.0356 261.7754,-281.1251 272.2134,-282.9413 271.0677,-276.0356"/>
</g>
<!-- Node14 -->
<g id="node14" class="node">
<title>Node14</title>
<g id="a_node14"><a xlink:href="_global_render_information_8cpp.html" target="_top" xlink:title="class for the storage of global render information ">
<polygon fill="#ffffff" stroke="#000000" points="130,-168.5 130,-187.5 244,-187.5 244,-168.5 130,-168.5"/>
<text text-anchor="middle" x="187" y="-175.5" font-family="Helvetica,sans-Serif" font-size="10.00" fill="#000000">GlobalRenderInformation.cpp</text>
</a>
</g>
</g>
<!-- Node11&#45;&gt;Node14 -->
<g id="edge21" class="edge">
<title>Node11&#45;&gt;Node14</title>
<path fill="none" stroke="#191970" d="M204.3623,-270.5987C199.8181,-246.363 192.2228,-205.8551 188.7859,-187.5249"/>
<polygon fill="#191970" stroke="#191970" points="200.9265,-271.2673 206.2096,-280.4509 207.8066,-269.9772 200.9265,-271.2673"/>
</g>
<!-- Node15 -->
<g id="node15" class="node">
<title>Node15</title>
<g id="a_node15"><a xlink:href="_list_of_global_render_information_8h.html" target="_top" xlink:title="Definition of the ListOfGlobalRenderInformation class. ">
<polygon fill="#ffffff" stroke="#000000" points="212,-224.5 212,-243.5 338,-243.5 338,-224.5 212,-224.5"/>
<text text-anchor="middle" x="275" y="-231.5" font-family="Helvetica,sans-Serif" font-size="10.00" fill="#000000">ListOfGlobalRenderInformation.h</text>
</a>
</g>
</g>
<!-- Node11&#45;&gt;Node15 -->
<g id="edge22" class="edge">
<title>Node11&#45;&gt;Node15</title>
<path fill="none" stroke="#191970" d="M221.678,-273.3607C232.3323,-263.6727 246.8659,-251.7995 258.2181,-243.6427"/>
<polygon fill="#191970" stroke="#191970" points="219.2606,-270.8296 214.4037,-280.2455 224.0724,-275.9136 219.2606,-270.8296"/>
</g>
<!-- Node17 -->
<g id="node17" class="node">
<title>Node17</title>
<g id="a_node17"><a xlink:href="_render_information_base_8cpp.html" target="_top" xlink:title="Implementation of the RenderInformationBase class. ">
<polygon fill="#ffffff" stroke="#000000" points="356,-224.5 356,-243.5 466,-243.5 466,-224.5 356,-224.5"/>
<text text-anchor="middle" x="411" y="-231.5" font-family="Helvetica,sans-Serif" font-size="10.00" fill="#000000">RenderInformationBase.cpp</text>
</a>
</g>
</g>
<!-- Node11&#45;&gt;Node17 -->
<g id="edge29" class="edge">
<title>Node11&#45;&gt;Node17</title>
<path fill="none" stroke="#191970" d="M252.9927,-277.5882C290.2891,-267.2996 342.5256,-252.8895 376.5584,-243.5011"/>
<polygon fill="#191970" stroke="#191970" points="251.6061,-274.3399 242.8969,-280.3733 253.4676,-281.0879 251.6061,-274.3399"/>
</g>
<!-- Node12&#45;&gt;Node2 -->
<g id="edge17" class="edge">
<title>Node12&#45;&gt;Node2</title>
<path fill="none" stroke="#191970" d="M479.6013,-168.0414C404.824,-156.9925 285.8686,-139.4159 218.6295,-129.4809"/>
<polygon fill="#191970" stroke="#191970" points="479.4453,-171.5562 489.8495,-169.5556 480.4685,-164.6314 479.4453,-171.5562"/>
</g>
<!-- Node12&#45;&gt;Node5 -->
<g id="edge20" class="edge">
<title>Node12&#45;&gt;Node5</title>
<path fill="none" stroke="#191970" d="M532.6728,-160.4407C512.9471,-136.4413 476.1,-92.2386 443,-56 431.2462,-43.1317 417.1071,-28.8651 407.8545,-19.6829"/>
<polygon fill="#191970" stroke="#191970" points="530.0813,-162.8003 539.1269,-168.3164 535.4955,-158.3633 530.0813,-162.8003"/>
</g>
<!-- Node12&#45;&gt;Node7 -->
<g id="edge19" class="edge">
<title>Node12&#45;&gt;Node7</title>
<path fill="none" stroke="#191970" d="M587.1797,-164.1625C601.762,-156.9691 616.6846,-146.5576 625,-132 647.2825,-92.9903 607.7308,-40.9084 589.0133,-19.6496"/>
<polygon fill="#191970" stroke="#191970" points="585.3915,-161.1297 577.7191,-168.4362 588.2733,-167.509 585.3915,-161.1297"/>
</g>
<!-- Node13 -->
<g id="node13" class="node">
<title>Node13</title>
<g id="a_node13"><a xlink:href="_render_extension_8cpp.html" target="_top" xlink:title="Implementation of RenderExtension, the core module of the render package. ">
<polygon fill="#ffffff" stroke="#000000" points="528,-112.5 528,-131.5 616,-131.5 616,-112.5 528,-112.5"/>
<text text-anchor="middle" x="572" y="-119.5" font-family="Helvetica,sans-Serif" font-size="10.00" fill="#000000">RenderExtension.cpp</text>
</a>
</g>
</g>
<!-- Node12&#45;&gt;Node13 -->
<g id="edge18" class="edge">
<title>Node12&#45;&gt;Node13</title>
<path fill="none" stroke="#191970" d="M555.4626,-159.0437C559.5745,-149.8331 564.3394,-139.1598 567.6952,-131.6427"/>
<polygon fill="#191970" stroke="#191970" points="552.2352,-157.6874 551.3547,-168.2455 558.6272,-160.541 552.2352,-157.6874"/>
</g>
<!-- Node15&#45;&gt;Node2 -->
<g id="edge23" class="edge">
<title>Node15&#45;&gt;Node2</title>
<path fill="none" stroke="#191970" d="M272.3588,-214.2172C269.5914,-200.0153 264.0284,-181.14 253,-168 238.5453,-150.7778 215.934,-138.9817 197.6654,-131.6499"/>
<polygon fill="#191970" stroke="#191970" points="268.9575,-215.1044 274.0298,-224.4061 275.8652,-213.9715 268.9575,-215.1044"/>
</g>
<!-- Node15&#45;&gt;Node7 -->
<g id="edge24" class="edge">
<title>Node15&#45;&gt;Node7</title>
<path fill="none" stroke="#191970" d="M332.8502,-222.2789C373.9414,-213.1919 424.9059,-200.1424 443,-188 477.9712,-164.5319 551.4607,-53.9455 573.5724,-19.9602"/>
<polygon fill="#191970" stroke="#191970" points="331.9377,-218.8955 322.9114,-224.4431 333.4271,-225.7353 331.9377,-218.8955"/>
</g>
<!-- Node15&#45;&gt;Node11 -->
<g id="edge27" class="edge">
<title>Node15&#45;&gt;Node11</title>
<path fill="none" stroke="#191970" d="M261.154,-250.7919C250.5641,-260.4075 236.2069,-272.1352 224.9374,-280.2455"/>
<polygon fill="#191970" stroke="#191970" points="263.851,-253.0585 268.7084,-243.6427 259.0394,-247.9743 263.851,-253.0585"/>
</g>
<!-- Node15&#45;&gt;Node12 -->
<g id="edge25" class="edge">
<title>Node15&#45;&gt;Node12</title>
<path fill="none" stroke="#191970" d="M331.4789,-222.372C381.6119,-212.0505 453.9678,-197.1537 500.7422,-187.5237"/>
<polygon fill="#191970" stroke="#191970" points="330.5382,-218.9922 321.4494,-224.4369 331.9498,-225.8484 330.5382,-218.9922"/>
</g>
<!-- Node15&#45;&gt;Node14 -->
<g id="edge26" class="edge">
<title>Node15&#45;&gt;Node14</title>
<path fill="none" stroke="#191970" d="M251.0655,-218.769C235.4717,-208.8456 215.599,-196.1994 202.1528,-187.6427"/>
<polygon fill="#191970" stroke="#191970" points="249.3559,-221.8296 259.6716,-224.2455 253.114,-215.9239 249.3559,-221.8296"/>
</g>
<!-- Node16 -->
<g id="node16" class="node">
<title>Node16</title>
<g id="a_node16"><a xlink:href="_list_of_global_render_information_8cpp.html" target="_top" xlink:title="Implementation of the ListOfGlobalRenderInformation class. ">
<polygon fill="#ffffff" stroke="#000000" points="300,-168.5 300,-187.5 434,-187.5 434,-168.5 300,-168.5"/>
<text text-anchor="middle" x="367" y="-175.5" font-family="Helvetica,sans-Serif" font-size="10.00" fill="#000000">ListOfGlobalRenderInformation.cpp</text>
</a>
</g>
</g>
<!-- Node15&#45;&gt;Node16 -->
<g id="edge28" class="edge">
<title>Node15&#45;&gt;Node16</title>
<path fill="none" stroke="#191970" d="M300.0224,-218.769C316.325,-208.8456 337.101,-196.1994 351.1585,-187.6427"/>
<polygon fill="#191970" stroke="#191970" points="297.7473,-216.0563 291.0252,-224.2455 301.387,-222.0357 297.7473,-216.0563"/>
</g>
</g>
</svg>
        <g id="navigator" transform="translate(0 0)" fill="#404254">
                <rect fill="#f2f5e9" fill-opacity="0.5" stroke="#606060" stroke-width=".5" x="0" y="0" width="60" height="60"/>
                <use id="zoomplus" xlink:href="#zoomPlus" x="17" y="9" onmousedown="handleZoom(evt,'in')"/>
                <use id="zoomminus" xlink:href="#zoomMin" x="42" y="9" onmousedown="handleZoom(evt,'out')"/>
                <use id="reset" xlink:href="#resetDef" x="30" y="36" onmousedown="handleReset()"/>
                <g id="arrowUp" xlink:href="#dirArrow" transform="translate(30 24)" onmousedown="handlePan(0,-1)">
                  <use xlink:href="#rim" fill="#404040">
                        <set attributeName="fill" to="#808080" begin="arrowUp.mouseover" end="arrowUp.mouseout"/>
                  </use>
                  <path fill="none" stroke="white" stroke-width="1.5" d="M0,-3.0v7 M-2.5,-0.5L0,-3.0L2.5,-0.5"/>
                </g>
                <g id="arrowRight" xlink:href="#dirArrow" transform="rotate(90) translate(36 -43)" onmousedown="handlePan(1,0)">
                  <use xlink:href="#rim" fill="#404040">
                        <set attributeName="fill" to="#808080" begin="arrowRight.mouseover" end="arrowRight.mouseout"/>
                  </use>
                  <path fill="none" stroke="white" stroke-width="1.5" d="M0,-3.0v7 M-2.5,-0.5L0,-3.0L2.5,-0.5"/>
                </g>
                <g id="arrowDown" xlink:href="#dirArrow" transform="rotate(180) translate(-30 -48)" onmousedown="handlePan(0,1)">
                  <use xlink:href="#rim" fill="#404040">
                        <set attributeName="fill" to="#808080" begin="arrowDown.mouseover" end="arrowDown.mouseout"/>
                  </use>
                  <path fill="none" stroke="white" stroke-width="1.5" d="M0,-3.0v7 M-2.5,-0.5L0,-3.0L2.5,-0.5"/>
                </g>
                <g id="arrowLeft" xlink:href="#dirArrow" transform="rotate(270) translate(-36 17)" onmousedown="handlePan(-1,0)">
                  <use xlink:href="#rim" fill="#404040">
                        <set attributeName="fill" to="#808080" begin="arrowLeft.mouseover" end="arrowLeft.mouseout"/>
                  </use>
                  <path fill="none" stroke="white" stroke-width="1.5" d="M0,-3.0v7 M-2.5,-0.5L0,-3.0L2.5,-0.5"/>
                </g>
        </g>
        <svg viewBox="0 0 15 15" width="100%" height="30px" preserveAspectRatio="xMaxYMin meet">
         <g id="arrow_out" transform="scale(0.3 0.3)">
          <a xlink:href="_global_style_8h__dep__incl_org.svg" target="_base">
           <rect id="button" ry="5" rx="5" y="6" x="6" height="38" width="38"
                fill="#f2f5e9" fill-opacity="0.5" stroke="#606060" stroke-width="1.0"/>
           <path id="arrow"
             d="M 11.500037,31.436501 C 11.940474,20.09759 22.043105,11.32322 32.158766,21.979434 L 37.068811,17.246167 C 37.068811,17.246167 37.088388,32 37.088388,32 L 22.160133,31.978069 C 22.160133,31.978069 26.997745,27.140456 26.997745,27.140456 C 18.528582,18.264221 13.291696,25.230495 11.500037,31.436501 z"
             style="fill:#404040;"/>
          </a>
         </g>
        </svg>
</svg>
