<?xml version="1.0" encoding="UTF-8" standalone="no"?>
<!DOCTYPE svg PUBLIC "-//W3C//DTD SVG 1.1//EN"
 "http://www.w3.org/Graphics/SVG/1.1/DTD/svg11.dtd">
<!-- Generated by graphviz version 2.40.1 (20161225.0304)
 -->
<!-- Title: GroupsExtension.h Pages: 1 -->
<!--zoomable 420 -->
<svg id="main" version="1.1" xmlns="http://www.w3.org/2000/svg" xmlns:xlink="http://www.w3.org/1999/xlink" xml:space="preserve" onload="init(evt)">
<style type="text/css"><![CDATA[
.edge:hover path { stroke: red; }
.edge:hover polygon { stroke: red; fill: red; }
]]></style>
<script type="text/javascript"><![CDATA[
var edges = document.getElementsByTagName('g');
if (edges && edges.length) {
  for (var i=0;i<edges.length;i++) {
    if (edges[i].id.substr(0,4)=='edge') {
      edges[i].setAttribute('class','edge');
    }
  }
}
]]></script>
        <defs>
                <circle id="rim" cx="0" cy="0" r="7"/>
                <circle id="rim2" cx="0" cy="0" r="3.5"/>
                <g id="zoomPlus">
                        <use xlink:href="#rim" fill="#404040">
                                <set attributeName="fill" to="#808080" begin="zoomplus.mouseover" end="zoomplus.mouseout"/>
                        </use>
                        <path d="M-4,0h8M0,-4v8" fill="none" stroke="white" stroke-width="1.5" pointer-events="none"/>
                </g>
                <g id="zoomMin">
                        <use xlink:href="#rim" fill="#404040">
                                <set attributeName="fill" to="#808080" begin="zoomminus.mouseover" end="zoomminus.mouseout"/>
                        </use>
                        <path d="M-4,0h8" fill="none" stroke="white" stroke-width="1.5" pointer-events="none"/>
                </g>
                <g id="dirArrow">
                        <path fill="none" stroke="white" stroke-width="1.5" d="M0,-3.0v7 M-2.5,-0.5L0,-3.0L2.5,-0.5"/>
                </g>
               <g id="resetDef">
                       <use xlink:href="#rim2" fill="#404040">
                               <set attributeName="fill" to="#808080" begin="reset.mouseover" end="reset.mouseout"/>
                       </use>
               </g>
        </defs>

<script type="text/javascript">
var viewWidth = 593;
var viewHeight = 420;
var sectionId = 'dynsection-1';
</script>
<script xlink:href="svgpan.js"/>
<svg id="graph" class="graph">
<g id="viewport">
<title>GroupsExtension.h</title>
<polygon fill="#ffffff" stroke="transparent" points="-4,4 -4,-416 588.9206,-416 588.9206,4 -4,4"/>
<!-- Node1 -->
<g id="node1" class="node">
<title>Node1</title>
<polygon fill="#bfbfbf" stroke="#000000" points="275,-392.5 275,-411.5 355,-411.5 355,-392.5 275,-392.5"/>
<text text-anchor="middle" x="315" y="-399.5" font-family="Helvetica,sans-Serif" font-size="10.00" fill="#000000">GroupsExtension.h</text>
</g>
<!-- Node2 -->
<g id="node2" class="node">
<title>Node2</title>
<g id="a_node2"><a xlink:href="_groups_extension_types_8h.html" target="_top" xlink:title="Definition of GroupsExtensionTypes. ">
<polygon fill="#ffffff" stroke="#000000" points="255.5,-56.5 255.5,-75.5 356.5,-75.5 356.5,-56.5 255.5,-56.5"/>
<text text-anchor="middle" x="306" y="-63.5" font-family="Helvetica,sans-Serif" font-size="10.00" fill="#000000">GroupsExtensionTypes.h</text>
</a>
</g>
</g>
<!-- Node1&#45;&gt;Node2 -->
<g id="edge1" class="edge">
<title>Node1&#45;&gt;Node2</title>
<path fill="none" stroke="#191970" d="M294.1871,-385.9378C271.0809,-366.1215 237,-330.0967 237,-290 237,-290 237,-290 237,-178 237,-134.3789 275.4093,-93.5032 294.914,-75.5582"/>
<polygon fill="#191970" stroke="#191970" points="292.1789,-388.8184 302.1199,-392.4827 296.6337,-383.4189 292.1789,-388.8184"/>
</g>
<!-- Node4 -->
<g id="node4" class="node">
<title>Node4</title>
<g id="a_node4"><a xlink:href="_groups_extension_8cpp.html" target="_top" xlink:title="Implementation of GroupsExtension. ">
<polygon fill="#ffffff" stroke="#000000" points="0,-56.5 0,-75.5 88,-75.5 88,-56.5 0,-56.5"/>
<text text-anchor="middle" x="44" y="-63.5" font-family="Helvetica,sans-Serif" font-size="10.00" fill="#000000">GroupsExtension.cpp</text>
</a>
</g>
</g>
<!-- Node1&#45;&gt;Node4 -->
<g id="edge3" class="edge">
<title>Node1&#45;&gt;Node4</title>
<path fill="none" stroke="#191970" d="M265.0633,-391.3401C189.0387,-373.6519 53,-335.6262 53,-290 53,-290 53,-290 53,-178 53,-139.9611 47.7781,-94.888 45.2895,-75.5676"/>
<polygon fill="#191970" stroke="#191970" points="264.3936,-394.7773 274.9226,-393.5984 265.9566,-387.954 264.3936,-394.7773"/>
</g>
<!-- Node5 -->
<g id="node5" class="node">
<title>Node5</title>
<g id="a_node5"><a xlink:href="_groups_s_b_m_l_document_plugin_8h.html" target="_top" xlink:title="Definition of the GroupsSBMLDocumentPlugin class. ">
<polygon fill="#ffffff" stroke="#000000" points="85.5,-112.5 85.5,-131.5 208.5,-131.5 208.5,-112.5 85.5,-112.5"/>
<text text-anchor="middle" x="147" y="-119.5" font-family="Helvetica,sans-Serif" font-size="10.00" fill="#000000">GroupsSBMLDocumentPlugin.h</text>
</a>
</g>
</g>
<!-- Node1&#45;&gt;Node5 -->
<g id="edge4" class="edge">
<title>Node1&#45;&gt;Node5</title>
<path fill="none" stroke="#191970" d="M273.3234,-389.0141C231.4255,-373.0557 173,-341.5586 173,-290 173,-290 173,-290 173,-234 173,-195.2747 158.0687,-150.9231 150.8364,-131.7117"/>
<polygon fill="#191970" stroke="#191970" points="272.1841,-392.324 282.778,-392.4626 274.5828,-385.7478 272.1841,-392.324"/>
</g>
<!-- Node7 -->
<g id="node7" class="node">
<title>Node7</title>
<g id="a_node7"><a xlink:href="_group_8h.html" target="_top" xlink:title="Definition of the Group class. ">
<polygon fill="#ffffff" stroke="#000000" points="293,-224.5 293,-243.5 337,-243.5 337,-224.5 293,-224.5"/>
<text text-anchor="middle" x="315" y="-231.5" font-family="Helvetica,sans-Serif" font-size="10.00" fill="#000000">Group.h</text>
</a>
</g>
</g>
<!-- Node1&#45;&gt;Node7 -->
<g id="edge8" class="edge">
<title>Node1&#45;&gt;Node7</title>
<path fill="none" stroke="#191970" d="M315,-382.2601C315,-346.1669 315,-270.7656 315,-243.8279"/>
<polygon fill="#191970" stroke="#191970" points="311.5001,-382.4862 315,-392.4862 318.5001,-382.4863 311.5001,-382.4862"/>
</g>
<!-- Node11 -->
<g id="node11" class="node">
<title>Node11</title>
<g id="a_node11"><a xlink:href="_list_of_groups_8h.html" target="_top" xlink:title="Definition of the ListOfGroups class. ">
<polygon fill="#ffffff" stroke="#000000" points="381.5,-168.5 381.5,-187.5 448.5,-187.5 448.5,-168.5 381.5,-168.5"/>
<text text-anchor="middle" x="415" y="-175.5" font-family="Helvetica,sans-Serif" font-size="10.00" fill="#000000">ListOfGroups.h</text>
</a>
</g>
</g>
<!-- Node1&#45;&gt;Node11 -->
<g id="edge19" class="edge">
<title>Node1&#45;&gt;Node11</title>
<path fill="none" stroke="#191970" d="M320.9502,-382.5641C331.5179,-349.1674 355.1839,-279.1612 384,-224 390.867,-210.8549 400.6903,-196.8786 407.4282,-187.8281"/>
<polygon fill="#191970" stroke="#191970" points="317.515,-381.8236 317.88,-392.4121 324.1978,-383.907 317.515,-381.8236"/>
</g>
<!-- Node13 -->
<g id="node13" class="node">
<title>Node13</title>
<g id="a_node13"><a xlink:href="_list_of_members_8h.html" target="_top" xlink:title="Definition of the ListOfMembers class. ">
<polygon fill="#ffffff" stroke="#000000" points="397,-280.5 397,-299.5 471,-299.5 471,-280.5 397,-280.5"/>
<text text-anchor="middle" x="434" y="-287.5" font-family="Helvetica,sans-Serif" font-size="10.00" fill="#000000">ListOfMembers.h</text>
</a>
</g>
</g>
<!-- Node1&#45;&gt;Node13 -->
<g id="edge20" class="edge">
<title>Node1&#45;&gt;Node13</title>
<path fill="none" stroke="#191970" d="M339.1092,-386.7978C351.5958,-378.4111 366.7499,-367.4037 379,-356 398.4326,-337.9101 417.432,-313.0681 427.2058,-299.6094"/>
<polygon fill="#191970" stroke="#191970" points="337.0037,-383.9932 330.5681,-392.4095 340.8475,-389.8435 337.0037,-383.9932"/>
</g>
<!-- Node16 -->
<g id="node16" class="node">
<title>Node16</title>
<g id="a_node16"><a xlink:href="_member_8h.html" target="_top" xlink:title="Definition of the Member class. ">
<polygon fill="#ffffff" stroke="#000000" points="471,-336.5 471,-355.5 521,-355.5 521,-336.5 471,-336.5"/>
<text text-anchor="middle" x="496" y="-343.5" font-family="Helvetica,sans-Serif" font-size="10.00" fill="#000000">Member.h</text>
</a>
</g>
</g>
<!-- Node1&#45;&gt;Node16 -->
<g id="edge24" class="edge">
<title>Node1&#45;&gt;Node16</title>
<path fill="none" stroke="#191970" d="M356.1115,-389.2804C391.4059,-378.3606 441.1467,-362.9712 470.8245,-353.7891"/>
<polygon fill="#191970" stroke="#191970" points="354.6337,-386.0739 346.115,-392.3733 356.7027,-392.7611 354.6337,-386.0739"/>
</g>
<!-- Node3 -->
<g id="node3" class="node">
<title>Node3</title>
<g id="a_node3"><a xlink:href="_groups_validator_8cpp.html" target="_top" xlink:title="Definition of GroupsValidator. ">
<polygon fill="#ffffff" stroke="#000000" points="263.5,-.5 263.5,-19.5 348.5,-19.5 348.5,-.5 263.5,-.5"/>
<text text-anchor="middle" x="306" y="-7.5" font-family="Helvetica,sans-Serif" font-size="10.00" fill="#000000">GroupsValidator.cpp</text>
</a>
</g>
</g>
<!-- Node2&#45;&gt;Node3 -->
<g id="edge2" class="edge">
<title>Node2&#45;&gt;Node3</title>
<path fill="none" stroke="#191970" d="M306,-46.1575C306,-37.155 306,-26.9199 306,-19.6427"/>
<polygon fill="#191970" stroke="#191970" points="302.5001,-46.2455 306,-56.2455 309.5001,-46.2456 302.5001,-46.2455"/>
</g>
<!-- Node5&#45;&gt;Node2 -->
<g id="edge5" class="edge">
<title>Node5&#45;&gt;Node2</title>
<path fill="none" stroke="#191970" d="M184.129,-108.9231C213.195,-98.686 252.9369,-84.6889 279.0236,-75.5011"/>
<polygon fill="#191970" stroke="#191970" points="182.6025,-105.75 174.3331,-112.3733 184.9279,-112.3524 182.6025,-105.75"/>
</g>
<!-- Node5&#45;&gt;Node4 -->
<g id="edge6" class="edge">
<title>Node5&#45;&gt;Node4</title>
<path fill="none" stroke="#191970" d="M120.2568,-107.46C101.825,-97.4388 77.8416,-84.3993 61.7356,-75.6427"/>
<polygon fill="#191970" stroke="#191970" points="118.6015,-110.5438 129.0588,-112.2455 121.9451,-104.394 118.6015,-110.5438"/>
</g>
<!-- Node6 -->
<g id="node6" class="node">
<title>Node6</title>
<g id="a_node6"><a xlink:href="_groups_s_b_m_l_document_plugin_8cpp.html" target="_top" xlink:title="Implementation of the GroupsSBMLDocumentPlugin class. ">
<polygon fill="#ffffff" stroke="#000000" points="106.5,-56.5 106.5,-75.5 237.5,-75.5 237.5,-56.5 106.5,-56.5"/>
<text text-anchor="middle" x="172" y="-63.5" font-family="Helvetica,sans-Serif" font-size="10.00" fill="#000000">GroupsSBMLDocumentPlugin.cpp</text>
</a>
</g>
</g>
<!-- Node5&#45;&gt;Node6 -->
<g id="edge7" class="edge">
<title>Node5&#45;&gt;Node6</title>
<path fill="none" stroke="#191970" d="M155.4626,-103.0437C159.5745,-93.8331 164.3394,-83.1598 167.6952,-75.6427"/>
<polygon fill="#191970" stroke="#191970" points="152.2352,-101.6874 151.3547,-112.2455 158.6272,-104.541 152.2352,-101.6874"/>
</g>
<!-- Node7&#45;&gt;Node2 -->
<g id="edge9" class="edge">
<title>Node7&#45;&gt;Node2</title>
<path fill="none" stroke="#191970" d="M308.0229,-214.569C300.2434,-190.5601 289.328,-148.4177 294,-112 295.6383,-99.2294 299.736,-84.9414 302.6873,-75.7276"/>
<polygon fill="#191970" stroke="#191970" points="304.7774,-215.8966 311.3094,-224.2384 311.4051,-213.644 304.7774,-215.8966"/>
</g>
<!-- Node8 -->
<g id="node8" class="node">
<title>Node8</title>
<g id="a_node8"><a xlink:href="_groups_model_plugin_8h.html" target="_top" xlink:title="Definition of the GroupsModelPlugin class. ">
<polygon fill="#ffffff" stroke="#000000" points="373.5,-112.5 373.5,-131.5 462.5,-131.5 462.5,-112.5 373.5,-112.5"/>
<text text-anchor="middle" x="418" y="-119.5" font-family="Helvetica,sans-Serif" font-size="10.00" fill="#000000">GroupsModelPlugin.h</text>
</a>
</g>
</g>
<!-- Node7&#45;&gt;Node8 -->
<g id="edge10" class="edge">
<title>Node7&#45;&gt;Node8</title>
<path fill="none" stroke="#191970" d="M329.9242,-216.5089C341.4939,-203.0745 358.0255,-184.1487 373,-168 384.8503,-155.2205 398.9683,-140.9345 408.1897,-131.7235"/>
<polygon fill="#191970" stroke="#191970" points="326.9583,-214.5908 323.1041,-224.4598 332.2714,-219.1483 326.9583,-214.5908"/>
</g>
<!-- Node10 -->
<g id="node10" class="node">
<title>Node10</title>
<g id="a_node10"><a xlink:href="_group_8cpp.html" target="_top" xlink:title="Implementation of the Group class. ">
<polygon fill="#ffffff" stroke="#000000" points="303,-112.5 303,-131.5 355,-131.5 355,-112.5 303,-112.5"/>
<text text-anchor="middle" x="329" y="-119.5" font-family="Helvetica,sans-Serif" font-size="10.00" fill="#000000">Group.cpp</text>
</a>
</g>
</g>
<!-- Node7&#45;&gt;Node10 -->
<g id="edge14" class="edge">
<title>Node7&#45;&gt;Node10</title>
<path fill="none" stroke="#191970" d="M317.4662,-214.2702C320.5002,-189.9985 325.5284,-149.7725 327.8094,-131.5249"/>
<polygon fill="#191970" stroke="#191970" points="313.9611,-214.094 316.1936,-224.4509 320.907,-214.9623 313.9611,-214.094"/>
</g>
<!-- Node7&#45;&gt;Node11 -->
<g id="edge15" class="edge">
<title>Node7&#45;&gt;Node11</title>
<path fill="none" stroke="#191970" d="M341.2098,-219.3225C359.0717,-209.3198 382.2155,-196.3593 397.7809,-187.6427"/>
<polygon fill="#191970" stroke="#191970" points="339.4336,-216.3057 332.4187,-224.2455 342.8539,-222.4132 339.4336,-216.3057"/>
</g>
<!-- Node8&#45;&gt;Node2 -->
<g id="edge11" class="edge">
<title>Node8&#45;&gt;Node2</title>
<path fill="none" stroke="#191970" d="M389.6737,-107.8368C369.4279,-97.7139 342.7358,-84.3679 325.0022,-75.5011"/>
<polygon fill="#191970" stroke="#191970" points="388.237,-111.0316 398.7465,-112.3733 391.3675,-104.7706 388.237,-111.0316"/>
</g>
<!-- Node8&#45;&gt;Node4 -->
<g id="edge12" class="edge">
<title>Node8&#45;&gt;Node4</title>
<path fill="none" stroke="#191970" d="M363.3552,-111.9652C244.0895,-93.1841 212.0894,-94.6032 97,-76 94.1344,-75.5368 91.1857,-75.0392 88.216,-74.5222"/>
<polygon fill="#191970" stroke="#191970" points="362.8147,-115.4231 373.2402,-113.5362 363.9135,-108.5099 362.8147,-115.4231"/>
</g>
<!-- Node9 -->
<g id="node9" class="node">
<title>Node9</title>
<g id="a_node9"><a xlink:href="_groups_model_plugin_8cpp.html" target="_top" xlink:title="Implementation of the GroupsModelPlugin class. ">
<polygon fill="#ffffff" stroke="#000000" points="374.5,-56.5 374.5,-75.5 471.5,-75.5 471.5,-56.5 374.5,-56.5"/>
<text text-anchor="middle" x="423" y="-63.5" font-family="Helvetica,sans-Serif" font-size="10.00" fill="#000000">GroupsModelPlugin.cpp</text>
</a>
</g>
</g>
<!-- Node8&#45;&gt;Node9 -->
<g id="edge13" class="edge">
<title>Node8&#45;&gt;Node9</title>
<path fill="none" stroke="#191970" d="M419.7717,-102.1575C420.5754,-93.155 421.4893,-82.9199 422.139,-75.6427"/>
<polygon fill="#191970" stroke="#191970" points="416.2742,-101.9739 418.8709,-112.2455 423.2465,-102.5965 416.2742,-101.9739"/>
</g>
<!-- Node11&#45;&gt;Node8 -->
<g id="edge16" class="edge">
<title>Node11&#45;&gt;Node8</title>
<path fill="none" stroke="#191970" d="M416.063,-158.1575C416.5453,-149.155 417.0936,-138.9199 417.4834,-131.6427"/>
<polygon fill="#191970" stroke="#191970" points="412.5626,-158.0726 415.5226,-168.2455 419.5526,-158.4471 412.5626,-158.0726"/>
</g>
<!-- Node11&#45;&gt;Node10 -->
<g id="edge17" class="edge">
<title>Node11&#45;&gt;Node10</title>
<path fill="none" stroke="#191970" d="M391.6095,-162.769C376.3701,-152.8456 356.9491,-140.1994 343.8084,-131.6427"/>
<polygon fill="#191970" stroke="#191970" points="389.7301,-165.7218 400.0199,-168.2455 393.5498,-159.8558 389.7301,-165.7218"/>
</g>
<!-- Node12 -->
<g id="node12" class="node">
<title>Node12</title>
<g id="a_node12"><a xlink:href="_list_of_groups_8cpp.html" target="_top" xlink:title="Implementation of the ListOfGroups class. ">
<polygon fill="#ffffff" stroke="#000000" points="480.5,-112.5 480.5,-131.5 555.5,-131.5 555.5,-112.5 480.5,-112.5"/>
<text text-anchor="middle" x="518" y="-119.5" font-family="Helvetica,sans-Serif" font-size="10.00" fill="#000000">ListOfGroups.cpp</text>
</a>
</g>
</g>
<!-- Node11&#45;&gt;Node12 -->
<g id="edge18" class="edge">
<title>Node11&#45;&gt;Node12</title>
<path fill="none" stroke="#191970" d="M441.7432,-163.46C460.175,-153.4388 484.1584,-140.3993 500.2644,-131.6427"/>
<polygon fill="#191970" stroke="#191970" points="440.0549,-160.394 432.9412,-168.2455 443.3985,-166.5438 440.0549,-160.394"/>
</g>
<!-- Node13&#45;&gt;Node7 -->
<g id="edge21" class="edge">
<title>Node13&#45;&gt;Node7</title>
<path fill="none" stroke="#191970" d="M404.4856,-276.1109C382.9062,-265.9559 354.2024,-252.4482 335.1899,-243.5011"/>
<polygon fill="#191970" stroke="#191970" points="403.0047,-279.2821 413.5432,-280.3733 405.9853,-272.9484 403.0047,-279.2821"/>
</g>
<!-- Node14 -->
<g id="node14" class="node">
<title>Node14</title>
<g id="a_node14"><a xlink:href="_list_of_members_8cpp.html" target="_top" xlink:title="Implementation of the ListOfMembers class. ">
<polygon fill="#ffffff" stroke="#000000" points="393,-224.5 393,-243.5 475,-243.5 475,-224.5 393,-224.5"/>
<text text-anchor="middle" x="434" y="-231.5" font-family="Helvetica,sans-Serif" font-size="10.00" fill="#000000">ListOfMembers.cpp</text>
</a>
</g>
</g>
<!-- Node13&#45;&gt;Node14 -->
<g id="edge22" class="edge">
<title>Node13&#45;&gt;Node14</title>
<path fill="none" stroke="#191970" d="M434,-270.1575C434,-261.155 434,-250.9199 434,-243.6427"/>
<polygon fill="#191970" stroke="#191970" points="430.5001,-270.2455 434,-280.2455 437.5001,-270.2456 430.5001,-270.2455"/>
</g>
<!-- Node15 -->
<g id="node15" class="node">
<title>Node15</title>
<g id="a_node15"><a xlink:href="_member_8cpp.html" target="_top" xlink:title="Implementation of the Member class. ">
<polygon fill="#ffffff" stroke="#000000" points="493,-224.5 493,-243.5 551,-243.5 551,-224.5 493,-224.5"/>
<text text-anchor="middle" x="522" y="-231.5" font-family="Helvetica,sans-Serif" font-size="10.00" fill="#000000">Member.cpp</text>
</a>
</g>
</g>
<!-- Node13&#45;&gt;Node15 -->
<g id="edge23" class="edge">
<title>Node13&#45;&gt;Node15</title>
<path fill="none" stroke="#191970" d="M457.9345,-274.769C473.5283,-264.8456 493.401,-252.1994 506.8472,-243.6427"/>
<polygon fill="#191970" stroke="#191970" points="455.886,-271.9239 449.3284,-280.2455 459.6441,-277.8296 455.886,-271.9239"/>
</g>
<!-- Node16&#45;&gt;Node2 -->
<g id="edge25" class="edge">
<title>Node16&#45;&gt;Node2</title>
<path fill="none" stroke="#191970" d="M519.6258,-330.4338C545.6916,-311.1759 584,-275.7679 584,-234 584,-234 584,-234 584,-178 584,-147.4754 587.6822,-132.4272 565,-112 563.0593,-110.2522 431.5438,-87.4972 356.6966,-74.6618"/>
<polygon fill="#191970" stroke="#191970" points="517.4515,-327.6852 511.3284,-336.3315 521.507,-333.3908 517.4515,-327.6852"/>
</g>
<!-- Node16&#45;&gt;Node13 -->
<g id="edge26" class="edge">
<title>Node16&#45;&gt;Node13</title>
<path fill="none" stroke="#191970" d="M477.5779,-329.3607C466.8519,-319.6727 453.7066,-307.7995 444.6758,-299.6427"/>
<polygon fill="#191970" stroke="#191970" points="475.4334,-332.14 485.2004,-336.2455 480.1254,-326.9453 475.4334,-332.14"/>
</g>
<!-- Node16&#45;&gt;Node15 -->
<g id="edge27" class="edge">
<title>Node16&#45;&gt;Node15</title>
<path fill="none" stroke="#191970" d="M500.5039,-326.5987C506.13,-302.363 515.5336,-261.8551 519.7889,-243.5249"/>
<polygon fill="#191970" stroke="#191970" points="497.0688,-325.9185 498.2167,-336.4509 503.8875,-327.5014 497.0688,-325.9185"/>
</g>
</g>
</svg>
        <g id="navigator" transform="translate(0 0)" fill="#404254">
                <rect fill="#f2f5e9" fill-opacity="0.5" stroke="#606060" stroke-width=".5" x="0" y="0" width="60" height="60"/>
                <use id="zoomplus" xlink:href="#zoomPlus" x="17" y="9" onmousedown="handleZoom(evt,'in')"/>
                <use id="zoomminus" xlink:href="#zoomMin" x="42" y="9" onmousedown="handleZoom(evt,'out')"/>
                <use id="reset" xlink:href="#resetDef" x="30" y="36" onmousedown="handleReset()"/>
                <g id="arrowUp" xlink:href="#dirArrow" transform="translate(30 24)" onmousedown="handlePan(0,-1)">
                  <use xlink:href="#rim" fill="#404040">
                        <set attributeName="fill" to="#808080" begin="arrowUp.mouseover" end="arrowUp.mouseout"/>
                  </use>
                  <path fill="none" stroke="white" stroke-width="1.5" d="M0,-3.0v7 M-2.5,-0.5L0,-3.0L2.5,-0.5"/>
                </g>
                <g id="arrowRight" xlink:href="#dirArrow" transform="rotate(90) translate(36 -43)" onmousedown="handlePan(1,0)">
                  <use xlink:href="#rim" fill="#404040">
                        <set attributeName="fill" to="#808080" begin="arrowRight.mouseover" end="arrowRight.mouseout"/>
                  </use>
                  <path fill="none" stroke="white" stroke-width="1.5" d="M0,-3.0v7 M-2.5,-0.5L0,-3.0L2.5,-0.5"/>
                </g>
                <g id="arrowDown" xlink:href="#dirArrow" transform="rotate(180) translate(-30 -48)" onmousedown="handlePan(0,1)">
                  <use xlink:href="#rim" fill="#404040">
                        <set attributeName="fill" to="#808080" begin="arrowDown.mouseover" end="arrowDown.mouseout"/>
                  </use>
                  <path fill="none" stroke="white" stroke-width="1.5" d="M0,-3.0v7 M-2.5,-0.5L0,-3.0L2.5,-0.5"/>
                </g>
                <g id="arrowLeft" xlink:href="#dirArrow" transform="rotate(270) translate(-36 17)" onmousedown="handlePan(-1,0)">
                  <use xlink:href="#rim" fill="#404040">
                        <set attributeName="fill" to="#808080" begin="arrowLeft.mouseover" end="arrowLeft.mouseout"/>
                  </use>
                  <path fill="none" stroke="white" stroke-width="1.5" d="M0,-3.0v7 M-2.5,-0.5L0,-3.0L2.5,-0.5"/>
                </g>
        </g>
        <svg viewBox="0 0 15 15" width="100%" height="30px" preserveAspectRatio="xMaxYMin meet">
         <g id="arrow_out" transform="scale(0.3 0.3)">
          <a xlink:href="_groups_extension_8h__dep__incl_org.svg" target="_base">
           <rect id="button" ry="5" rx="5" y="6" x="6" height="38" width="38"
                fill="#f2f5e9" fill-opacity="0.5" stroke="#606060" stroke-width="1.0"/>
           <path id="arrow"
             d="M 11.500037,31.436501 C 11.940474,20.09759 22.043105,11.32322 32.158766,21.979434 L 37.068811,17.246167 C 37.068811,17.246167 37.088388,32 37.088388,32 L 22.160133,31.978069 C 22.160133,31.978069 26.997745,27.140456 26.997745,27.140456 C 18.528582,18.264221 13.291696,25.230495 11.500037,31.436501 z"
             style="fill:#404040;"/>
          </a>
         </g>
        </svg>
</svg>
