<?xml version="1.0" encoding="UTF-8" standalone="no"?>
<!DOCTYPE svg PUBLIC "-//W3C//DTD SVG 1.1//EN"
 "http://www.w3.org/Graphics/SVG/1.1/DTD/svg11.dtd">
<!-- Generated by graphviz version 2.40.1 (20161225.0304)
 -->
<!-- Title: GroupsValidator.h Pages: 1 -->
<!--zoomable 576 -->
<svg id="main" version="1.1" xmlns="http://www.w3.org/2000/svg" xmlns:xlink="http://www.w3.org/1999/xlink" xml:space="preserve" onload="init(evt)">
<style type="text/css"><![CDATA[
.edge:hover path { stroke: red; }
.edge:hover polygon { stroke: red; fill: red; }
]]></style>
<script type="text/javascript"><![CDATA[
var edges = document.getElementsByTagName('g');
if (edges && edges.length) {
  for (var i=0;i<edges.length;i++) {
    if (edges[i].id.substr(0,4)=='edge') {
      edges[i].setAttribute('class','edge');
    }
  }
}
]]></script>
        <defs>
                <circle id="rim" cx="0" cy="0" r="7"/>
                <circle id="rim2" cx="0" cy="0" r="3.5"/>
                <g id="zoomPlus">
                        <use xlink:href="#rim" fill="#404040">
                                <set attributeName="fill" to="#808080" begin="zoomplus.mouseover" end="zoomplus.mouseout"/>
                        </use>
                        <path d="M-4,0h8M0,-4v8" fill="none" stroke="white" stroke-width="1.5" pointer-events="none"/>
                </g>
                <g id="zoomMin">
                        <use xlink:href="#rim" fill="#404040">
                                <set attributeName="fill" to="#808080" begin="zoomminus.mouseover" end="zoomminus.mouseout"/>
                        </use>
                        <path d="M-4,0h8" fill="none" stroke="white" stroke-width="1.5" pointer-events="none"/>
                </g>
                <g id="dirArrow">
                        <path fill="none" stroke="white" stroke-width="1.5" d="M0,-3.0v7 M-2.5,-0.5L0,-3.0L2.5,-0.5"/>
                </g>
               <g id="resetDef">
                       <use xlink:href="#rim2" fill="#404040">
                               <set attributeName="fill" to="#808080" begin="reset.mouseover" end="reset.mouseout"/>
                       </use>
               </g>
        </defs>

<script type="text/javascript">
var viewWidth = 916;
var viewHeight = 576;
var sectionId = 'dynsection-0';
</script>
<script xlink:href="svgpan.js"/>
<svg id="graph" class="graph">
<g id="viewport">
<title>GroupsValidator.h</title>
<polygon fill="#ffffff" stroke="transparent" points="-4,4 -4,-572 911.5,-572 911.5,4 -4,4"/>
<!-- Node1 -->
<g id="node1" class="node">
<title>Node1</title>
<polygon fill="#bfbfbf" stroke="#000000" points="528.5,-548.5 528.5,-567.5 605.5,-567.5 605.5,-548.5 528.5,-548.5"/>
<text text-anchor="middle" x="567" y="-555.5" font-family="Helvetica,sans-Serif" font-size="10.00" fill="#000000">GroupsValidator.h</text>
</g>
<!-- Node2 -->
<g id="node2" class="node">
<title>Node2</title>
<g id="a_node2"><a xlink:href="_s_b_m_l_error_8h.html" target="_top" xlink:title="Represents SBML errors and other diagnostics. ">
<polygon fill="#ffffff" stroke="#000000" points="449,-436.5 449,-455.5 527,-455.5 527,-436.5 449,-436.5"/>
<text text-anchor="middle" x="488" y="-443.5" font-family="Helvetica,sans-Serif" font-size="10.00" fill="#000000">sbml/SBMLError.h</text>
</a>
</g>
</g>
<!-- Node1&#45;&gt;Node2 -->
<g id="edge1" class="edge">
<title>Node1&#45;&gt;Node2</title>
<path fill="none" stroke="#191970" d="M566.1136,-548.236C564.4726,-534.5937 559.9579,-509.5349 548,-492 539.4551,-479.4699 526.4005,-468.8796 514.6479,-461.0308"/>
<polygon fill="#191970" stroke="#191970" points="516.3347,-457.9566 506.0107,-455.5764 512.5971,-463.8752 516.3347,-457.9566"/>
</g>
<!-- Node23 -->
<g id="node23" class="node">
<title>Node23</title>
<g id="a_node23"><a xlink:href="_validator_8h.html" target="_top" xlink:title="Base class for SBML Validators. ">
<polygon fill="#ffffff" stroke="#000000" points="437.5,-492.5 437.5,-511.5 538.5,-511.5 538.5,-492.5 437.5,-492.5"/>
<text text-anchor="middle" x="488" y="-499.5" font-family="Helvetica,sans-Serif" font-size="10.00" fill="#000000">sbml/validator/Validator.h</text>
</a>
</g>
</g>
<!-- Node1&#45;&gt;Node23 -->
<g id="edge38" class="edge">
<title>Node1&#45;&gt;Node23</title>
<path fill="none" stroke="#191970" d="M553.2393,-548.2455C541.3448,-539.814 523.935,-527.4729 510.0915,-517.6598"/>
<polygon fill="#191970" stroke="#191970" points="511.7854,-514.5704 501.6031,-511.6427 507.7372,-520.2811 511.7854,-514.5704"/>
</g>
<!-- Node24 -->
<g id="node24" class="node">
<title>Node24</title>
<g id="a_node24"><a xlink:href="_s_b_m_l_reader_8h.html" target="_top" xlink:title="Reads an SBML Document into memory. ">
<polygon fill="#ffffff" stroke="#000000" points="589,-324.5 589,-343.5 675,-343.5 675,-324.5 589,-324.5"/>
<text text-anchor="middle" x="632" y="-331.5" font-family="Helvetica,sans-Serif" font-size="10.00" fill="#000000">sbml/SBMLReader.h</text>
</a>
</g>
</g>
<!-- Node1&#45;&gt;Node24 -->
<g id="edge40" class="edge">
<title>Node1&#45;&gt;Node24</title>
<path fill="none" stroke="#191970" d="M569.793,-548.375C579.6688,-514.3415 613.0624,-399.262 626.4149,-353.247"/>
<polygon fill="#191970" stroke="#191970" points="629.7919,-354.1684 629.2174,-343.5891 623.0692,-352.2176 629.7919,-354.1684"/>
</g>
<!-- Node3 -->
<g id="node3" class="node">
<title>Node3</title>
<g id="a_node3"><a xlink:href="extern_8h.html" target="_top" xlink:title="Definitions of LIBSBML_EXTERN and related things. ">
<polygon fill="#ffffff" stroke="#000000" points="341,-67.5 341,-86.5 433,-86.5 433,-67.5 341,-67.5"/>
<text text-anchor="middle" x="387" y="-74.5" font-family="Helvetica,sans-Serif" font-size="10.00" fill="#000000">sbml/common/extern.h</text>
</a>
</g>
</g>
<!-- Node2&#45;&gt;Node3 -->
<g id="edge2" class="edge">
<title>Node2&#45;&gt;Node3</title>
<path fill="none" stroke="#191970" d="M448.8898,-445.3566C333.0893,-442.4044 0,-425.9231 0,-334 0,-334 0,-334 0,-205.5 0,-136.6607 223.3395,-98.2543 330.6881,-83.7701"/>
<polygon fill="#191970" stroke="#191970" points="331.2497,-87.2264 340.7032,-82.4429 330.33,-80.2871 331.2497,-87.2264"/>
</g>
<!-- Node5 -->
<g id="node5" class="node">
<title>Node5</title>
<g id="a_node5"><a xlink:href="_x_m_l_error_8h.html" target="_top" xlink:title="Represents errors (and messages) encountered during an XML parse. ">
<polygon fill="#ffffff" stroke="#000000" points="416.5,-324.5 416.5,-343.5 503.5,-343.5 503.5,-324.5 416.5,-324.5"/>
<text text-anchor="middle" x="460" y="-331.5" font-family="Helvetica,sans-Serif" font-size="10.00" fill="#000000">sbml/xml/XMLError.h</text>
</a>
</g>
</g>
<!-- Node2&#45;&gt;Node5 -->
<g id="edge4" class="edge">
<title>Node2&#45;&gt;Node5</title>
<path fill="none" stroke="#191970" d="M485.6127,-436.4509C481.0253,-418.1013 470.8977,-377.5908 464.8423,-353.3693"/>
<polygon fill="#191970" stroke="#191970" points="468.2022,-352.3774 462.3812,-343.5249 461.4112,-354.0752 468.2022,-352.3774"/>
</g>
<!-- Node17 -->
<g id="node17" class="node">
<title>Node17</title>
<g id="a_node17"><a xlink:href="_s_b_m_l_namespaces_8h.html" target="_top" xlink:title="SBMLNamespaces class to store level/version and namespace. ">
<polygon fill="#ffffff" stroke="#000000" points="493.5,-380.5 493.5,-399.5 598.5,-399.5 598.5,-380.5 493.5,-380.5"/>
<text text-anchor="middle" x="546" y="-387.5" font-family="Helvetica,sans-Serif" font-size="10.00" fill="#000000">sbml/SBMLNamespaces.h</text>
</a>
</g>
</g>
<!-- Node2&#45;&gt;Node17 -->
<g id="edge23" class="edge">
<title>Node2&#45;&gt;Node17</title>
<path fill="none" stroke="#191970" d="M498.1028,-436.2455C506.5028,-428.1352 518.6494,-416.4075 528.6084,-406.7919"/>
<polygon fill="#191970" stroke="#191970" points="531.25,-409.1066 536.0129,-399.6427 526.3878,-404.0707 531.25,-409.1066"/>
</g>
<!-- Node4 -->
<g id="node4" class="node">
<title>Node4</title>
<g id="a_node4"><a xlink:href="libsbml-namespace_8h.html" target="_top" xlink:title="Defines C++ namespace of libSBML. ">
<polygon fill="#ffffff" stroke="#000000" points="633.5,-.5 633.5,-30.5 722.5,-30.5 722.5,-.5 633.5,-.5"/>
<text text-anchor="start" x="641.5" y="-18.5" font-family="Helvetica,sans-Serif" font-size="10.00" fill="#000000">sbml/common/libsbml</text>
<text text-anchor="middle" x="678" y="-7.5" font-family="Helvetica,sans-Serif" font-size="10.00" fill="#000000">&#45;namespace.h</text>
</a>
</g>
</g>
<!-- Node3&#45;&gt;Node4 -->
<g id="edge3" class="edge">
<title>Node3&#45;&gt;Node4</title>
<path fill="none" stroke="#191970" d="M432.1495,-67.4581C483.6981,-56.5638 568.0118,-38.7449 623.2597,-27.0688"/>
<polygon fill="#191970" stroke="#191970" points="624.1629,-30.4553 633.223,-24.9632 622.7154,-23.6066 624.1629,-30.4553"/>
</g>
<!-- Node6 -->
<g id="node6" class="node">
<title>Node6</title>
<polygon fill="#ffffff" stroke="#bfbfbf" points="124.5,-196 124.5,-215 163.5,-215 163.5,-196 124.5,-196"/>
<text text-anchor="middle" x="144" y="-203" font-family="Helvetica,sans-Serif" font-size="10.00" fill="#000000">stdio.h</text>
</g>
<!-- Node5&#45;&gt;Node6 -->
<g id="edge5" class="edge">
<title>Node5&#45;&gt;Node6</title>
<path fill="none" stroke="#191970" d="M416.4401,-330.9081C350.3209,-325.4919 228.552,-312.4651 193,-288 170.884,-272.7809 157.1945,-244.0291 150.0866,-224.814"/>
<polygon fill="#191970" stroke="#191970" points="153.3651,-223.5847 146.8032,-215.2665 146.7456,-225.8612 153.3651,-223.5847"/>
</g>
<!-- Node7 -->
<g id="node7" class="node">
<title>Node7</title>
<g id="a_node7"><a xlink:href="_x_m_l_extern_8h.html" target="_top" xlink:title="Defines LIBLAX_EXTERN. ">
<polygon fill="#ffffff" stroke="#000000" points="707,-263 707,-282 799,-282 799,-263 707,-263"/>
<text text-anchor="middle" x="753" y="-270" font-family="Helvetica,sans-Serif" font-size="10.00" fill="#000000">sbml/xml/XMLExtern.h</text>
</a>
</g>
</g>
<!-- Node5&#45;&gt;Node7 -->
<g id="edge6" class="edge">
<title>Node5&#45;&gt;Node7</title>
<path fill="none" stroke="#191970" d="M503.5487,-324.8592C555.1311,-314.0322 641.1453,-295.978 697.4694,-284.1557"/>
<polygon fill="#191970" stroke="#191970" points="698.212,-287.5762 707.2797,-282.0966 696.774,-280.7255 698.212,-287.5762"/>
</g>
<!-- Node8 -->
<g id="node8" class="node">
<title>Node8</title>
<g id="a_node8"><a xlink:href="sbmlfwd_8h.html" target="_top" xlink:title="Forward declarations for all opaque C types. ">
<polygon fill="#ffffff" stroke="#000000" points="551.5,-263 551.5,-282 650.5,-282 650.5,-263 551.5,-263"/>
<text text-anchor="middle" x="601" y="-270" font-family="Helvetica,sans-Serif" font-size="10.00" fill="#000000">sbml/common/sbmlfwd.h</text>
</a>
</g>
</g>
<!-- Node5&#45;&gt;Node8 -->
<g id="edge8" class="edge">
<title>Node5&#45;&gt;Node8</title>
<path fill="none" stroke="#191970" d="M482.0313,-324.3906C505.6231,-314.1005 543.2501,-297.6888 569.8633,-286.0809"/>
<polygon fill="#191970" stroke="#191970" points="571.3567,-289.248 579.1235,-282.0419 568.5581,-282.8318 571.3567,-289.248"/>
</g>
<!-- Node12 -->
<g id="node12" class="node">
<title>Node12</title>
<g id="a_node12"><a xlink:href="util_8h.html" target="_top" xlink:title="Utility functions. ">
<polygon fill="#ffffff" stroke="#000000" points="202,-263 202,-282 264,-282 264,-263 202,-263"/>
<text text-anchor="middle" x="233" y="-270" font-family="Helvetica,sans-Serif" font-size="10.00" fill="#000000">sbml/util/util.h</text>
</a>
</g>
</g>
<!-- Node5&#45;&gt;Node12 -->
<g id="edge15" class="edge">
<title>Node5&#45;&gt;Node12</title>
<path fill="none" stroke="#191970" d="M424.5313,-324.3906C383.7809,-313.3503 317.0203,-295.2632 274.0551,-283.6229"/>
<polygon fill="#191970" stroke="#191970" points="274.7735,-280.1914 264.2061,-280.9545 272.9429,-286.9478 274.7735,-280.1914"/>
</g>
<!-- Node14 -->
<g id="node14" class="node">
<title>Node14</title>
<polygon fill="#ffffff" stroke="#bfbfbf" points="358,-263 358,-282 396,-282 396,-263 358,-263"/>
<text text-anchor="middle" x="377" y="-270" font-family="Helvetica,sans-Serif" font-size="10.00" fill="#000000">iosfwd</text>
</g>
<!-- Node5&#45;&gt;Node14 -->
<g id="edge19" class="edge">
<title>Node5&#45;&gt;Node14</title>
<path fill="none" stroke="#191970" d="M447.0313,-324.3906C433.9966,-314.7324 413.6836,-299.6812 398.2845,-288.271"/>
<polygon fill="#191970" stroke="#191970" points="399.9961,-285.1832 389.8777,-282.0419 395.8287,-290.8075 399.9961,-285.1832"/>
</g>
<!-- Node15 -->
<g id="node15" class="node">
<title>Node15</title>
<polygon fill="#ffffff" stroke="#bfbfbf" points="817.5,-263 817.5,-282 852.5,-282 852.5,-263 817.5,-263"/>
<text text-anchor="middle" x="835" y="-270" font-family="Helvetica,sans-Serif" font-size="10.00" fill="#000000">string</text>
</g>
<!-- Node5&#45;&gt;Node15 -->
<g id="edge20" class="edge">
<title>Node5&#45;&gt;Node15</title>
<path fill="none" stroke="#191970" d="M503.6545,-325.3785C506.4751,-324.8915 509.2753,-324.4272 512,-324 642.9258,-303.4743 682.2478,-329.8241 808,-288 809.2117,-287.597 810.4297,-287.1364 811.6425,-286.6322"/>
<polygon fill="#191970" stroke="#191970" points="813.256,-289.7387 820.6476,-282.1482 810.1358,-283.4726 813.256,-289.7387"/>
</g>
<!-- Node16 -->
<g id="node16" class="node">
<title>Node16</title>
<g id="a_node16"><a xlink:href="operation_return_values_8h.html" target="_top" xlink:title="Enumeration of values returned by operations within libSBML. ">
<polygon fill="#ffffff" stroke="#000000" points="414.5,-257.5 414.5,-287.5 533.5,-287.5 533.5,-257.5 414.5,-257.5"/>
<text text-anchor="start" x="422.5" y="-275.5" font-family="Helvetica,sans-Serif" font-size="10.00" fill="#000000">sbml/common/operationReturn</text>
<text text-anchor="middle" x="474" y="-264.5" font-family="Helvetica,sans-Serif" font-size="10.00" fill="#000000">Values.h</text>
</a>
</g>
</g>
<!-- Node5&#45;&gt;Node16 -->
<g id="edge21" class="edge">
<title>Node5&#45;&gt;Node16</title>
<path fill="none" stroke="#191970" d="M462.1875,-324.3906C463.8366,-317.1463 466.1764,-306.8679 468.3391,-297.3676"/>
<polygon fill="#191970" stroke="#191970" points="471.7682,-298.072 470.5752,-287.5446 464.9428,-296.5182 471.7682,-298.072"/>
</g>
<!-- Node7&#45;&gt;Node4 -->
<g id="edge7" class="edge">
<title>Node7&#45;&gt;Node4</title>
<path fill="none" stroke="#191970" d="M754.0914,-262.8796C757.1153,-232.384 763.3184,-135.8261 730,-67 724.6047,-55.8549 715.7816,-45.732 706.9223,-37.4682"/>
<polygon fill="#191970" stroke="#191970" points="709.0385,-34.6688 699.2127,-30.7057 704.4225,-39.9312 709.0385,-34.6688"/>
</g>
<!-- Node8&#45;&gt;Node4 -->
<g id="edge9" class="edge">
<title>Node8&#45;&gt;Node4</title>
<path fill="none" stroke="#191970" d="M605.8741,-262.7574C619.1623,-235.6858 656.089,-156.9381 672,-87 675.4233,-71.9526 676.9385,-54.725 677.5906,-40.9511"/>
<polygon fill="#191970" stroke="#191970" points="681.0955,-40.8693 677.9485,-30.7527 674.0998,-40.6237 681.0955,-40.8693"/>
</g>
<!-- Node9 -->
<g id="node9" class="node">
<title>Node9</title>
<g id="a_node9"><a xlink:href="libsbml-config_8h.html" target="_top" xlink:title="Decides whether to #include Unix or Windows configuration variables. ">
<polygon fill="#ffffff" stroke="#000000" points="522.5,-190.5 522.5,-220.5 611.5,-220.5 611.5,-190.5 522.5,-190.5"/>
<text text-anchor="start" x="530.5" y="-208.5" font-family="Helvetica,sans-Serif" font-size="10.00" fill="#000000">sbml/common/libsbml</text>
<text text-anchor="middle" x="567" y="-197.5" font-family="Helvetica,sans-Serif" font-size="10.00" fill="#000000">&#45;config.h</text>
</a>
</g>
</g>
<!-- Node8&#45;&gt;Node9 -->
<g id="edge10" class="edge">
<title>Node8&#45;&gt;Node9</title>
<path fill="none" stroke="#191970" d="M596.1286,-262.9005C591.739,-254.2503 585.0981,-241.164 579.2653,-229.6699"/>
<polygon fill="#191970" stroke="#191970" points="582.2695,-227.8554 574.623,-220.5218 576.0272,-231.0231 582.2695,-227.8554"/>
</g>
<!-- Node9&#45;&gt;Node4 -->
<g id="edge11" class="edge">
<title>Node9&#45;&gt;Node4</title>
<path fill="none" stroke="#191970" d="M586.4588,-190.4568C597.7173,-180.9654 611.494,-167.9022 621,-154 645.7048,-117.8704 662.565,-69.3733 671.2158,-40.3933"/>
<polygon fill="#191970" stroke="#191970" points="674.615,-41.2373 674.0308,-30.6586 667.8905,-39.2927 674.615,-41.2373"/>
</g>
<!-- Node10 -->
<g id="node10" class="node">
<title>Node10</title>
<g id="a_node10"><a xlink:href="libsbml-config-common_8h.html" target="_top" xlink:title="Configuration variables. ">
<polygon fill="#ffffff" stroke="#000000" points="522.5,-123.5 522.5,-153.5 611.5,-153.5 611.5,-123.5 522.5,-123.5"/>
<text text-anchor="start" x="530.5" y="-141.5" font-family="Helvetica,sans-Serif" font-size="10.00" fill="#000000">sbml/common/libsbml</text>
<text text-anchor="middle" x="567" y="-130.5" font-family="Helvetica,sans-Serif" font-size="10.00" fill="#000000">&#45;config&#45;common.h</text>
</a>
</g>
</g>
<!-- Node9&#45;&gt;Node10 -->
<g id="edge12" class="edge">
<title>Node9&#45;&gt;Node10</title>
<path fill="none" stroke="#191970" d="M567,-190.2967C567,-182.5013 567,-172.7991 567,-163.9064"/>
<polygon fill="#191970" stroke="#191970" points="570.5001,-163.6431 567,-153.6432 563.5001,-163.6432 570.5001,-163.6431"/>
</g>
<!-- Node11 -->
<g id="node11" class="node">
<title>Node11</title>
<g id="a_node11"><a xlink:href="libsbml-version_8h.html" target="_top" xlink:title="Define libSBML version numbers for access from client software. ">
<polygon fill="#ffffff" stroke="#000000" points="415.5,-123.5 415.5,-153.5 504.5,-153.5 504.5,-123.5 415.5,-123.5"/>
<text text-anchor="start" x="423.5" y="-141.5" font-family="Helvetica,sans-Serif" font-size="10.00" fill="#000000">sbml/common/libsbml</text>
<text text-anchor="middle" x="460" y="-130.5" font-family="Helvetica,sans-Serif" font-size="10.00" fill="#000000">&#45;version.h</text>
</a>
</g>
</g>
<!-- Node9&#45;&gt;Node11 -->
<g id="edge13" class="edge">
<title>Node9&#45;&gt;Node11</title>
<path fill="none" stroke="#191970" d="M542.9871,-190.4639C528.2225,-181.2188 509.1005,-169.2452 492.9339,-159.1222"/>
<polygon fill="#191970" stroke="#191970" points="494.636,-156.0584 484.303,-153.7177 490.921,-161.9913 494.636,-156.0584"/>
</g>
<!-- Node11&#45;&gt;Node3 -->
<g id="edge14" class="edge">
<title>Node11&#45;&gt;Node3</title>
<path fill="none" stroke="#191970" d="M441.9551,-123.2977C431.1886,-114.2274 417.5149,-102.7077 406.5005,-93.4285"/>
<polygon fill="#191970" stroke="#191970" points="408.5911,-90.6132 398.6882,-86.8469 404.0809,-95.9667 408.5911,-90.6132"/>
</g>
<!-- Node12&#45;&gt;Node3 -->
<g id="edge18" class="edge">
<title>Node12&#45;&gt;Node3</title>
<path fill="none" stroke="#191970" d="M226.2813,-262.573C216.494,-246.794 200.5623,-215.1989 211,-190 233.4139,-135.888 297.4551,-105.1047 341.768,-89.7346"/>
<polygon fill="#191970" stroke="#191970" points="343.075,-92.9884 351.4571,-86.5084 340.8635,-86.3469 343.075,-92.9884"/>
</g>
<!-- Node12&#45;&gt;Node6 -->
<g id="edge16" class="edge">
<title>Node12&#45;&gt;Node6</title>
<path fill="none" stroke="#191970" d="M220.2485,-262.9005C205.841,-252.0544 182.169,-234.2339 165.0184,-221.3229"/>
<polygon fill="#191970" stroke="#191970" points="166.8221,-218.2998 156.7279,-215.0817 162.6121,-223.8923 166.8221,-218.2998"/>
</g>
<!-- Node13 -->
<g id="node13" class="node">
<title>Node13</title>
<polygon fill="#ffffff" stroke="#bfbfbf" points="220,-196 220,-215 264,-215 264,-196 220,-196"/>
<text text-anchor="middle" x="242" y="-203" font-family="Helvetica,sans-Serif" font-size="10.00" fill="#000000">stdarg.h</text>
</g>
<!-- Node12&#45;&gt;Node13 -->
<g id="edge17" class="edge">
<title>Node12&#45;&gt;Node13</title>
<path fill="none" stroke="#191970" d="M234.2895,-262.9005C235.5994,-253.149 237.6666,-237.7597 239.331,-225.3695"/>
<polygon fill="#191970" stroke="#191970" points="242.8503,-225.4586 240.7129,-215.0817 235.9127,-224.5266 242.8503,-225.4586"/>
</g>
<!-- Node16&#45;&gt;Node3 -->
<g id="edge22" class="edge">
<title>Node16&#45;&gt;Node3</title>
<path fill="none" stroke="#191970" d="M463.5347,-257.4825C448.7536,-235.6409 421.8053,-193.4065 406,-154 398.4934,-135.2841 393.3573,-112.7819 390.3362,-96.9508"/>
<polygon fill="#191970" stroke="#191970" points="393.7174,-95.9767 388.5065,-86.7518 386.8274,-97.2128 393.7174,-95.9767"/>
</g>
<!-- Node17&#45;&gt;Node15 -->
<g id="edge36" class="edge">
<title>Node17&#45;&gt;Node15</title>
<path fill="none" stroke="#191970" d="M598.6824,-387.65C668.0778,-383.4697 784.9649,-372.3325 816,-344 830.3352,-330.9131 834.3667,-308.3602 835.264,-292.0782"/>
<polygon fill="#191970" stroke="#191970" points="838.7648,-292.0717 835.4726,-282.0013 831.7663,-291.9267 838.7648,-292.0717"/>
</g>
<!-- Node18 -->
<g id="node18" class="node">
<title>Node18</title>
<g id="a_node18"><a xlink:href="_x_m_l_namespaces_8h.html" target="_top" xlink:title="A list of XMLNamespace declarations (URI/prefix pairs) ">
<polygon fill="#ffffff" stroke="#000000" points="693,-324.5 693,-343.5 807,-343.5 807,-324.5 693,-324.5"/>
<text text-anchor="middle" x="750" y="-331.5" font-family="Helvetica,sans-Serif" font-size="10.00" fill="#000000">sbml/xml/XMLNamespaces.h</text>
</a>
</g>
</g>
<!-- Node17&#45;&gt;Node18 -->
<g id="edge24" class="edge">
<title>Node17&#45;&gt;Node18</title>
<path fill="none" stroke="#191970" d="M581.0689,-380.3733C615.4315,-370.9404 667.9392,-356.5265 705.2851,-346.2747"/>
<polygon fill="#191970" stroke="#191970" points="706.672,-349.5235 715.3888,-343.5011 704.819,-342.7732 706.672,-349.5235"/>
</g>
<!-- Node20 -->
<g id="node20" class="node">
<title>Node20</title>
<g id="a_node20"><a xlink:href="common_8h.html" target="_top" xlink:title="Common functions and macros for C and C++. ">
<polygon fill="#ffffff" stroke="#000000" points="212,-324.5 212,-343.5 312,-343.5 312,-324.5 212,-324.5"/>
<text text-anchor="middle" x="262" y="-331.5" font-family="Helvetica,sans-Serif" font-size="10.00" fill="#000000">sbml/common/common.h</text>
</a>
</g>
</g>
<!-- Node17&#45;&gt;Node20 -->
<g id="edge30" class="edge">
<title>Node17&#45;&gt;Node20</title>
<path fill="none" stroke="#191970" d="M497.5014,-380.4369C448.4885,-370.7724 372.7223,-355.8326 320.4293,-345.5213"/>
<polygon fill="#191970" stroke="#191970" points="320.7868,-342.0244 310.2986,-343.5237 319.4326,-348.8922 320.7868,-342.0244"/>
</g>
<!-- Node22 -->
<g id="node22" class="node">
<title>Node22</title>
<polygon fill="#ffffff" stroke="#bfbfbf" points="521.5,-324.5 521.5,-343.5 570.5,-343.5 570.5,-324.5 521.5,-324.5"/>
<text text-anchor="middle" x="546" y="-331.5" font-family="Helvetica,sans-Serif" font-size="10.00" fill="#000000">stdexcept</text>
</g>
<!-- Node17&#45;&gt;Node22 -->
<g id="edge37" class="edge">
<title>Node17&#45;&gt;Node22</title>
<path fill="none" stroke="#191970" d="M546,-380.2455C546,-372.9382 546,-362.6944 546,-353.7046"/>
<polygon fill="#191970" stroke="#191970" points="549.5001,-353.6426 546,-343.6427 542.5001,-353.6427 549.5001,-353.6426"/>
</g>
<!-- Node18&#45;&gt;Node7 -->
<g id="edge25" class="edge">
<title>Node18&#45;&gt;Node7</title>
<path fill="none" stroke="#191970" d="M750.4688,-324.3906C750.8846,-315.8657 751.5054,-303.1392 752.0281,-292.4235"/>
<polygon fill="#191970" stroke="#191970" points="755.5332,-292.4035 752.5246,-282.2449 748.5415,-292.0624 755.5332,-292.4035"/>
</g>
<!-- Node18&#45;&gt;Node8 -->
<g id="edge26" class="edge">
<title>Node18&#45;&gt;Node8</title>
<path fill="none" stroke="#191970" d="M726.7188,-324.3906C701.679,-314.0554 661.6775,-297.5447 633.534,-285.9284"/>
<polygon fill="#191970" stroke="#191970" points="634.6967,-282.622 624.1178,-282.0419 632.026,-289.0925 634.6967,-282.622"/>
</g>
<!-- Node18&#45;&gt;Node15 -->
<g id="edge28" class="edge">
<title>Node18&#45;&gt;Node15</title>
<path fill="none" stroke="#191970" d="M763.2813,-324.3906C776.7548,-314.6421 797.822,-299.3994 813.6435,-287.9521"/>
<polygon fill="#191970" stroke="#191970" points="815.7619,-290.7394 821.812,-282.0419 811.6586,-285.0682 815.7619,-290.7394"/>
</g>
<!-- Node18&#45;&gt;Node16 -->
<g id="edge27" class="edge">
<title>Node18&#45;&gt;Node16</title>
<path fill="none" stroke="#191970" d="M706.779,-324.4257C667.0245,-315.6125 606.1598,-302.1022 543.8474,-288.1867"/>
<polygon fill="#191970" stroke="#191970" points="544.3598,-284.715 533.8372,-285.9505 542.8336,-291.5466 544.3598,-284.715"/>
</g>
<!-- Node19 -->
<g id="node19" class="node">
<title>Node19</title>
<polygon fill="#ffffff" stroke="#bfbfbf" points="870.5,-263 870.5,-282 907.5,-282 907.5,-263 870.5,-263"/>
<text text-anchor="middle" x="889" y="-270" font-family="Helvetica,sans-Serif" font-size="10.00" fill="#000000">vector</text>
</g>
<!-- Node18&#45;&gt;Node19 -->
<g id="edge29" class="edge">
<title>Node18&#45;&gt;Node19</title>
<path fill="none" stroke="#191970" d="M776.2274,-324.3511C799.2012,-315.6353 833.3054,-302.0535 862,-288 862.6917,-287.6612 863.3901,-287.3121 864.0922,-286.9549"/>
<polygon fill="#191970" stroke="#191970" points="866.0648,-289.8673 873.1975,-282.0331 862.7361,-283.7094 866.0648,-289.8673"/>
</g>
<!-- Node20&#45;&gt;Node3 -->
<g id="edge33" class="edge">
<title>Node20&#45;&gt;Node3</title>
<path fill="none" stroke="#191970" d="M266.7475,-324.2391C285.2716,-286.1536 352.8888,-147.1327 377.7486,-96.0209"/>
<polygon fill="#191970" stroke="#191970" points="381.0213,-97.2942 382.2478,-86.7706 374.7263,-94.2325 381.0213,-97.2942"/>
</g>
<!-- Node20&#45;&gt;Node6 -->
<g id="edge32" class="edge">
<title>Node20&#45;&gt;Node6</title>
<path fill="none" stroke="#191970" d="M218.9879,-324.4938C198.1691,-317.7182 174.5844,-306.4335 160,-288 145.8313,-270.0919 143.0071,-243.2432 142.9517,-225.0803"/>
<polygon fill="#191970" stroke="#191970" points="146.4513,-225.1344 143.1984,-215.0513 139.4534,-224.9622 146.4513,-225.1344"/>
</g>
<!-- Node20&#45;&gt;Node9 -->
<g id="edge31" class="edge">
<title>Node20&#45;&gt;Node9</title>
<path fill="none" stroke="#191970" d="M271.7806,-324.2228C290.624,-305.581 331.6299,-266.0043 349,-257 400.6782,-230.2112 466.4504,-217.1428 512.1688,-210.9085"/>
<polygon fill="#191970" stroke="#191970" points="512.7169,-214.3668 522.183,-209.6083 511.8156,-207.4251 512.7169,-214.3668"/>
</g>
<!-- Node20&#45;&gt;Node12 -->
<g id="edge35" class="edge">
<title>Node20&#45;&gt;Node12</title>
<path fill="none" stroke="#191970" d="M257.4688,-324.3906C253.3219,-315.5965 247.0668,-302.3312 241.919,-291.4145"/>
<polygon fill="#191970" stroke="#191970" points="245.0259,-289.7969 237.5951,-282.2449 238.6945,-292.7825 245.0259,-289.7969"/>
</g>
<!-- Node21 -->
<g id="node21" class="node">
<title>Node21</title>
<g id="a_node21"><a xlink:href="memory_8h.html" target="_top" xlink:title="sbml/util/memory.h">
<polygon fill="#ffffff" stroke="#000000" points="28.5,-263 28.5,-282 107.5,-282 107.5,-263 28.5,-263"/>
<text text-anchor="middle" x="68" y="-270" font-family="Helvetica,sans-Serif" font-size="10.00" fill="#000000">sbml/util/memory.h</text>
</a>
</g>
</g>
<!-- Node20&#45;&gt;Node21 -->
<g id="edge34" class="edge">
<title>Node20&#45;&gt;Node21</title>
<path fill="none" stroke="#191970" d="M231.6875,-324.3906C198.3735,-313.8298 144.7192,-296.8208 107.9819,-285.1747"/>
<polygon fill="#191970" stroke="#191970" points="108.6898,-281.7275 98.0996,-282.0419 106.5744,-288.4002 108.6898,-281.7275"/>
</g>
<!-- Node23&#45;&gt;Node2 -->
<g id="edge39" class="edge">
<title>Node23&#45;&gt;Node2</title>
<path fill="none" stroke="#191970" d="M488,-492.2455C488,-484.9382 488,-474.6944 488,-465.7046"/>
<polygon fill="#191970" stroke="#191970" points="491.5001,-465.6426 488,-455.6427 484.5001,-465.6427 491.5001,-465.6426"/>
</g>
<!-- Node24&#45;&gt;Node3 -->
<g id="edge41" class="edge">
<title>Node24&#45;&gt;Node3</title>
<path fill="none" stroke="#191970" d="M640.2089,-324.1677C647.0114,-315.3343 656.1631,-301.6831 660,-288 676.0869,-230.632 637.5721,-138.1574 621,-123 595.5493,-99.722 504.1103,-87.2594 443.3569,-81.3943"/>
<polygon fill="#191970" stroke="#191970" points="443.4215,-77.8853 433.1398,-80.4418 442.7717,-84.855 443.4215,-77.8853"/>
</g>
<!-- Node24&#45;&gt;Node8 -->
<g id="edge42" class="edge">
<title>Node24&#45;&gt;Node8</title>
<path fill="none" stroke="#191970" d="M627.1563,-324.3906C622.7234,-315.5965 616.0369,-302.3312 610.5341,-291.4145"/>
<polygon fill="#191970" stroke="#191970" points="613.5386,-289.5992 605.912,-282.2449 607.2878,-292.75 613.5386,-289.5992"/>
</g>
<!-- Node24&#45;&gt;Node12 -->
<g id="edge43" class="edge">
<title>Node24&#45;&gt;Node12</title>
<path fill="none" stroke="#191970" d="M588.8955,-325.564C585.8876,-325.0205 582.9001,-324.4938 580,-324 469.9515,-305.2608 339.6009,-286.9543 274.4378,-278.0677"/>
<polygon fill="#191970" stroke="#191970" points="274.5561,-274.5517 264.1757,-276.6727 273.6131,-281.4879 274.5561,-274.5517"/>
</g>
<!-- Node24&#45;&gt;Node15 -->
<g id="edge44" class="edge">
<title>Node24&#45;&gt;Node15</title>
<path fill="none" stroke="#191970" d="M673.7653,-324.4352C717.7421,-314.1242 783.8855,-297.8671 808,-288 809.0005,-287.5906 810.0094,-287.1506 811.0194,-286.6872"/>
<polygon fill="#191970" stroke="#191970" points="812.657,-289.7808 819.9368,-282.0831 809.4456,-283.5609 812.657,-289.7808"/>
</g>
</g>
</svg>
        <g id="navigator" transform="translate(0 0)" fill="#404254">
                <rect fill="#f2f5e9" fill-opacity="0.5" stroke="#606060" stroke-width=".5" x="0" y="0" width="60" height="60"/>
                <use id="zoomplus" xlink:href="#zoomPlus" x="17" y="9" onmousedown="handleZoom(evt,'in')"/>
                <use id="zoomminus" xlink:href="#zoomMin" x="42" y="9" onmousedown="handleZoom(evt,'out')"/>
                <use id="reset" xlink:href="#resetDef" x="30" y="36" onmousedown="handleReset()"/>
                <g id="arrowUp" xlink:href="#dirArrow" transform="translate(30 24)" onmousedown="handlePan(0,-1)">
                  <use xlink:href="#rim" fill="#404040">
                        <set attributeName="fill" to="#808080" begin="arrowUp.mouseover" end="arrowUp.mouseout"/>
                  </use>
                  <path fill="none" stroke="white" stroke-width="1.5" d="M0,-3.0v7 M-2.5,-0.5L0,-3.0L2.5,-0.5"/>
                </g>
                <g id="arrowRight" xlink:href="#dirArrow" transform="rotate(90) translate(36 -43)" onmousedown="handlePan(1,0)">
                  <use xlink:href="#rim" fill="#404040">
                        <set attributeName="fill" to="#808080" begin="arrowRight.mouseover" end="arrowRight.mouseout"/>
                  </use>
                  <path fill="none" stroke="white" stroke-width="1.5" d="M0,-3.0v7 M-2.5,-0.5L0,-3.0L2.5,-0.5"/>
                </g>
                <g id="arrowDown" xlink:href="#dirArrow" transform="rotate(180) translate(-30 -48)" onmousedown="handlePan(0,1)">
                  <use xlink:href="#rim" fill="#404040">
                        <set attributeName="fill" to="#808080" begin="arrowDown.mouseover" end="arrowDown.mouseout"/>
                  </use>
                  <path fill="none" stroke="white" stroke-width="1.5" d="M0,-3.0v7 M-2.5,-0.5L0,-3.0L2.5,-0.5"/>
                </g>
                <g id="arrowLeft" xlink:href="#dirArrow" transform="rotate(270) translate(-36 17)" onmousedown="handlePan(-1,0)">
                  <use xlink:href="#rim" fill="#404040">
                        <set attributeName="fill" to="#808080" begin="arrowLeft.mouseover" end="arrowLeft.mouseout"/>
                  </use>
                  <path fill="none" stroke="white" stroke-width="1.5" d="M0,-3.0v7 M-2.5,-0.5L0,-3.0L2.5,-0.5"/>
                </g>
        </g>
        <svg viewBox="0 0 15 15" width="100%" height="30px" preserveAspectRatio="xMaxYMin meet">
         <g id="arrow_out" transform="scale(0.3 0.3)">
          <a xlink:href="_groups_validator_8h__incl_org.svg" target="_base">
           <rect id="button" ry="5" rx="5" y="6" x="6" height="38" width="38"
                fill="#f2f5e9" fill-opacity="0.5" stroke="#606060" stroke-width="1.0"/>
           <path id="arrow"
             d="M 11.500037,31.436501 C 11.940474,20.09759 22.043105,11.32322 32.158766,21.979434 L 37.068811,17.246167 C 37.068811,17.246167 37.088388,32 37.088388,32 L 22.160133,31.978069 C 22.160133,31.978069 26.997745,27.140456 26.997745,27.140456 C 18.528582,18.264221 13.291696,25.230495 11.500037,31.436501 z"
             style="fill:#404040;"/>
          </a>
         </g>
        </svg>
</svg>
