<?xml version="1.0" encoding="UTF-8" standalone="no"?>
<!DOCTYPE svg PUBLIC "-//W3C//DTD SVG 1.1//EN"
 "http://www.w3.org/Graphics/SVG/1.1/DTD/svg11.dtd">
<!-- Generated by graphviz version 2.40.1 (20161225.0304)
 -->
<!-- Title: GroupsSBMLError.h Pages: 1 -->
<!--zoomable 140 -->
<svg id="main" version="1.1" xmlns="http://www.w3.org/2000/svg" xmlns:xlink="http://www.w3.org/1999/xlink" xml:space="preserve" onload="init(evt)">
<style type="text/css"><![CDATA[
.edge:hover path { stroke: red; }
.edge:hover polygon { stroke: red; fill: red; }
]]></style>
<script type="text/javascript"><![CDATA[
var edges = document.getElementsByTagName('g');
if (edges && edges.length) {
  for (var i=0;i<edges.length;i++) {
    if (edges[i].id.substr(0,4)=='edge') {
      edges[i].setAttribute('class','edge');
    }
  }
}
]]></script>
        <defs>
                <circle id="rim" cx="0" cy="0" r="7"/>
                <circle id="rim2" cx="0" cy="0" r="3.5"/>
                <g id="zoomPlus">
                        <use xlink:href="#rim" fill="#404040">
                                <set attributeName="fill" to="#808080" begin="zoomplus.mouseover" end="zoomplus.mouseout"/>
                        </use>
                        <path d="M-4,0h8M0,-4v8" fill="none" stroke="white" stroke-width="1.5" pointer-events="none"/>
                </g>
                <g id="zoomMin">
                        <use xlink:href="#rim" fill="#404040">
                                <set attributeName="fill" to="#808080" begin="zoomminus.mouseover" end="zoomminus.mouseout"/>
                        </use>
                        <path d="M-4,0h8" fill="none" stroke="white" stroke-width="1.5" pointer-events="none"/>
                </g>
                <g id="dirArrow">
                        <path fill="none" stroke="white" stroke-width="1.5" d="M0,-3.0v7 M-2.5,-0.5L0,-3.0L2.5,-0.5"/>
                </g>
               <g id="resetDef">
                       <use xlink:href="#rim2" fill="#404040">
                               <set attributeName="fill" to="#808080" begin="reset.mouseover" end="reset.mouseout"/>
                       </use>
               </g>
        </defs>

<script type="text/javascript">
var viewWidth = 716;
var viewHeight = 140;
var sectionId = 'dynsection-0';
</script>
<script xlink:href="svgpan.js"/>
<svg id="graph" class="graph">
<g id="viewport">
<title>GroupsSBMLError.h</title>
<polygon fill="#ffffff" stroke="transparent" points="-4,4 -4,-136 712,-136 712,4 -4,4"/>
<!-- Node1 -->
<g id="node1" class="node">
<title>Node1</title>
<polygon fill="#bfbfbf" stroke="#000000" points="330.5,-112.5 330.5,-131.5 414.5,-131.5 414.5,-112.5 330.5,-112.5"/>
<text text-anchor="middle" x="372.5" y="-119.5" font-family="Helvetica,sans-Serif" font-size="10.00" fill="#000000">GroupsSBMLError.h</text>
</g>
<!-- Node2 -->
<g id="node2" class="node">
<title>Node2</title>
<g id="a_node2"><a xlink:href="_groups_model_plugin_8cpp.html" target="_top" xlink:title="Implementation of the GroupsModelPlugin class. ">
<polygon fill="#ffffff" stroke="#000000" points="0,-56.5 0,-75.5 97,-75.5 97,-56.5 0,-56.5"/>
<text text-anchor="middle" x="48.5" y="-63.5" font-family="Helvetica,sans-Serif" font-size="10.00" fill="#000000">GroupsModelPlugin.cpp</text>
</a>
</g>
</g>
<!-- Node1&#45;&gt;Node2 -->
<g id="edge1" class="edge">
<title>Node1&#45;&gt;Node2</title>
<path fill="none" stroke="#191970" d="M320.5777,-113.0258C258.99,-102.381 157.1266,-84.775 97.0536,-74.392"/>
<polygon fill="#191970" stroke="#191970" points="320.0248,-116.482 330.4748,-114.7364 321.217,-109.5843 320.0248,-116.482"/>
</g>
<!-- Node3 -->
<g id="node3" class="node">
<title>Node3</title>
<g id="a_node3"><a xlink:href="_groups_s_b_m_l_document_plugin_8cpp.html" target="_top" xlink:title="Implementation of the GroupsSBMLDocumentPlugin class. ">
<polygon fill="#ffffff" stroke="#000000" points="115,-56.5 115,-75.5 246,-75.5 246,-56.5 115,-56.5"/>
<text text-anchor="middle" x="180.5" y="-63.5" font-family="Helvetica,sans-Serif" font-size="10.00" fill="#000000">GroupsSBMLDocumentPlugin.cpp</text>
</a>
</g>
</g>
<!-- Node1&#45;&gt;Node3 -->
<g id="edge2" class="edge">
<title>Node1&#45;&gt;Node3</title>
<path fill="none" stroke="#191970" d="M329.4923,-109.4561C294.2479,-99.1765 245.1264,-84.8494 213.0753,-75.5011"/>
<polygon fill="#191970" stroke="#191970" points="328.914,-112.9332 339.494,-112.3733 330.874,-106.2132 328.914,-112.9332"/>
</g>
<!-- Node4 -->
<g id="node4" class="node">
<title>Node4</title>
<g id="a_node4"><a xlink:href="_group_8cpp.html" target="_top" xlink:title="Implementation of the Group class. ">
<polygon fill="#ffffff" stroke="#000000" points="264.5,-56.5 264.5,-75.5 316.5,-75.5 316.5,-56.5 264.5,-56.5"/>
<text text-anchor="middle" x="290.5" y="-63.5" font-family="Helvetica,sans-Serif" font-size="10.00" fill="#000000">Group.cpp</text>
</a>
</g>
</g>
<!-- Node1&#45;&gt;Node4 -->
<g id="edge3" class="edge">
<title>Node1&#45;&gt;Node4</title>
<path fill="none" stroke="#191970" d="M349.789,-106.49C335.3212,-96.6096 317.032,-84.1194 304.6196,-75.6427"/>
<polygon fill="#191970" stroke="#191970" points="347.9848,-109.4962 358.2167,-112.2455 351.9325,-103.7156 347.9848,-109.4962"/>
</g>
<!-- Node5 -->
<g id="node5" class="node">
<title>Node5</title>
<g id="a_node5"><a xlink:href="_list_of_groups_8cpp.html" target="_top" xlink:title="Implementation of the ListOfGroups class. ">
<polygon fill="#ffffff" stroke="#000000" points="335,-56.5 335,-75.5 410,-75.5 410,-56.5 335,-56.5"/>
<text text-anchor="middle" x="372.5" y="-63.5" font-family="Helvetica,sans-Serif" font-size="10.00" fill="#000000">ListOfGroups.cpp</text>
</a>
</g>
</g>
<!-- Node1&#45;&gt;Node5 -->
<g id="edge4" class="edge">
<title>Node1&#45;&gt;Node5</title>
<path fill="none" stroke="#191970" d="M372.5,-102.1575C372.5,-93.155 372.5,-82.9199 372.5,-75.6427"/>
<polygon fill="#191970" stroke="#191970" points="369.0001,-102.2455 372.5,-112.2455 376.0001,-102.2456 369.0001,-102.2455"/>
</g>
<!-- Node6 -->
<g id="node6" class="node">
<title>Node6</title>
<g id="a_node6"><a xlink:href="_list_of_members_8cpp.html" target="_top" xlink:title="Implementation of the ListOfMembers class. ">
<polygon fill="#ffffff" stroke="#000000" points="428.5,-56.5 428.5,-75.5 510.5,-75.5 510.5,-56.5 428.5,-56.5"/>
<text text-anchor="middle" x="469.5" y="-63.5" font-family="Helvetica,sans-Serif" font-size="10.00" fill="#000000">ListOfMembers.cpp</text>
</a>
</g>
</g>
<!-- Node1&#45;&gt;Node6 -->
<g id="edge5" class="edge">
<title>Node1&#45;&gt;Node6</title>
<path fill="none" stroke="#191970" d="M398.4016,-107.0465C415.6609,-97.0824 437.8376,-84.2794 452.7975,-75.6427"/>
<polygon fill="#191970" stroke="#191970" points="396.3065,-104.2146 389.3961,-112.2455 399.8064,-110.2768 396.3065,-104.2146"/>
</g>
<!-- Node7 -->
<g id="node7" class="node">
<title>Node7</title>
<g id="a_node7"><a xlink:href="_member_8cpp.html" target="_top" xlink:title="Implementation of the Member class. ">
<polygon fill="#ffffff" stroke="#000000" points="528.5,-56.5 528.5,-75.5 586.5,-75.5 586.5,-56.5 528.5,-56.5"/>
<text text-anchor="middle" x="557.5" y="-63.5" font-family="Helvetica,sans-Serif" font-size="10.00" fill="#000000">Member.cpp</text>
</a>
</g>
</g>
<!-- Node1&#45;&gt;Node7 -->
<g id="edge6" class="edge">
<title>Node1&#45;&gt;Node7</title>
<path fill="none" stroke="#191970" d="M414.1532,-109.3915C448.89,-98.8765 497.5062,-84.1603 528.2444,-74.8557"/>
<polygon fill="#191970" stroke="#191970" points="412.8597,-106.1261 404.3026,-112.3733 414.8878,-112.8259 412.8597,-106.1261"/>
</g>
<!-- Node8 -->
<g id="node8" class="node">
<title>Node8</title>
<g id="a_node8"><a xlink:href="_groups_s_b_m_l_error_table_8h.html" target="_top" xlink:title="Definition of the GroupsSBMLErrorTable class. ">
<polygon fill="#ffffff" stroke="#000000" points="605,-56.5 605,-75.5 708,-75.5 708,-56.5 605,-56.5"/>
<text text-anchor="middle" x="656.5" y="-63.5" font-family="Helvetica,sans-Serif" font-size="10.00" fill="#000000">GroupsSBMLErrorTable.h</text>
</a>
</g>
</g>
<!-- Node1&#45;&gt;Node8 -->
<g id="edge7" class="edge">
<title>Node1&#45;&gt;Node8</title>
<path fill="none" stroke="#191970" d="M424.7878,-111.6897C477.0883,-101.377 556.8877,-85.6419 607.8615,-75.5907"/>
<polygon fill="#191970" stroke="#191970" points="423.845,-108.3082 414.711,-113.6767 425.1992,-115.1759 423.845,-108.3082"/>
</g>
<!-- Node9 -->
<g id="node9" class="node">
<title>Node9</title>
<g id="a_node9"><a xlink:href="_groups_extension_8cpp.html" target="_top" xlink:title="Implementation of GroupsExtension. ">
<polygon fill="#ffffff" stroke="#000000" points="612.5,-.5 612.5,-19.5 700.5,-19.5 700.5,-.5 612.5,-.5"/>
<text text-anchor="middle" x="656.5" y="-7.5" font-family="Helvetica,sans-Serif" font-size="10.00" fill="#000000">GroupsExtension.cpp</text>
</a>
</g>
</g>
<!-- Node8&#45;&gt;Node9 -->
<g id="edge8" class="edge">
<title>Node8&#45;&gt;Node9</title>
<path fill="none" stroke="#191970" d="M656.5,-46.1575C656.5,-37.155 656.5,-26.9199 656.5,-19.6427"/>
<polygon fill="#191970" stroke="#191970" points="653.0001,-46.2455 656.5,-56.2455 660.0001,-46.2456 653.0001,-46.2455"/>
</g>
</g>
</svg>
        <g id="navigator" transform="translate(0 0)" fill="#404254">
                <rect fill="#f2f5e9" fill-opacity="0.5" stroke="#606060" stroke-width=".5" x="0" y="0" width="60" height="60"/>
                <use id="zoomplus" xlink:href="#zoomPlus" x="17" y="9" onmousedown="handleZoom(evt,'in')"/>
                <use id="zoomminus" xlink:href="#zoomMin" x="42" y="9" onmousedown="handleZoom(evt,'out')"/>
                <use id="reset" xlink:href="#resetDef" x="30" y="36" onmousedown="handleReset()"/>
                <g id="arrowUp" xlink:href="#dirArrow" transform="translate(30 24)" onmousedown="handlePan(0,-1)">
                  <use xlink:href="#rim" fill="#404040">
                        <set attributeName="fill" to="#808080" begin="arrowUp.mouseover" end="arrowUp.mouseout"/>
                  </use>
                  <path fill="none" stroke="white" stroke-width="1.5" d="M0,-3.0v7 M-2.5,-0.5L0,-3.0L2.5,-0.5"/>
                </g>
                <g id="arrowRight" xlink:href="#dirArrow" transform="rotate(90) translate(36 -43)" onmousedown="handlePan(1,0)">
                  <use xlink:href="#rim" fill="#404040">
                        <set attributeName="fill" to="#808080" begin="arrowRight.mouseover" end="arrowRight.mouseout"/>
                  </use>
                  <path fill="none" stroke="white" stroke-width="1.5" d="M0,-3.0v7 M-2.5,-0.5L0,-3.0L2.5,-0.5"/>
                </g>
                <g id="arrowDown" xlink:href="#dirArrow" transform="rotate(180) translate(-30 -48)" onmousedown="handlePan(0,1)">
                  <use xlink:href="#rim" fill="#404040">
                        <set attributeName="fill" to="#808080" begin="arrowDown.mouseover" end="arrowDown.mouseout"/>
                  </use>
                  <path fill="none" stroke="white" stroke-width="1.5" d="M0,-3.0v7 M-2.5,-0.5L0,-3.0L2.5,-0.5"/>
                </g>
                <g id="arrowLeft" xlink:href="#dirArrow" transform="rotate(270) translate(-36 17)" onmousedown="handlePan(-1,0)">
                  <use xlink:href="#rim" fill="#404040">
                        <set attributeName="fill" to="#808080" begin="arrowLeft.mouseover" end="arrowLeft.mouseout"/>
                  </use>
                  <path fill="none" stroke="white" stroke-width="1.5" d="M0,-3.0v7 M-2.5,-0.5L0,-3.0L2.5,-0.5"/>
                </g>
        </g>
        <svg viewBox="0 0 15 15" width="100%" height="30px" preserveAspectRatio="xMaxYMin meet">
         <g id="arrow_out" transform="scale(0.3 0.3)">
          <a xlink:href="_groups_s_b_m_l_error_8h__dep__incl_org.svg" target="_base">
           <rect id="button" ry="5" rx="5" y="6" x="6" height="38" width="38"
                fill="#f2f5e9" fill-opacity="0.5" stroke="#606060" stroke-width="1.0"/>
           <path id="arrow"
             d="M 11.500037,31.436501 C 11.940474,20.09759 22.043105,11.32322 32.158766,21.979434 L 37.068811,17.246167 C 37.068811,17.246167 37.088388,32 37.088388,32 L 22.160133,31.978069 C 22.160133,31.978069 26.997745,27.140456 26.997745,27.140456 C 18.528582,18.264221 13.291696,25.230495 11.500037,31.436501 z"
             style="fill:#404040;"/>
          </a>
         </g>
        </svg>
</svg>
