<?xml version="1.0" encoding="UTF-8" standalone="no"?>
<!DOCTYPE svg PUBLIC "-//W3C//DTD SVG 1.1//EN"
 "http://www.w3.org/Graphics/SVG/1.1/DTD/svg11.dtd">
<!-- Generated by graphviz version 2.40.1 (20161225.0304)
 -->
<!-- Title: IdFilter.h Pages: 1 -->
<svg width="367pt" height="84pt"
 viewBox="0.00 0.00 366.50 84.00" xmlns="http://www.w3.org/2000/svg" xmlns:xlink="http://www.w3.org/1999/xlink">
<g id="graph0" class="graph" transform="scale(1 1) rotate(0) translate(4 80)">
<title>IdFilter.h</title>
<polygon fill="#ffffff" stroke="transparent" points="-4,4 -4,-80 362.5,-80 362.5,4 -4,4"/>
<!-- Node1 -->
<g id="node1" class="node">
<title>Node1</title>
<polygon fill="#bfbfbf" stroke="#000000" points="115,-56.5 115,-75.5 170,-75.5 170,-56.5 115,-56.5"/>
<text text-anchor="middle" x="142.5" y="-63.5" font-family="Helvetica,sans-Serif" font-size="10.00" fill="#000000">IdFilter.h</text>
</g>
<!-- Node2 -->
<g id="node2" class="node">
<title>Node2</title>
<g id="a_node2"><a xlink:href="_s_base_plugin_8cpp.html" target="_top" xlink:title="Implementation of SBasePlugin, the base class of extension entities plugged in SBase derived classes ...">
<polygon fill="#ffffff" stroke="#000000" points="0,-.5 0,-19.5 93,-19.5 93,-.5 0,-.5"/>
<text text-anchor="middle" x="46.5" y="-7.5" font-family="Helvetica,sans-Serif" font-size="10.00" fill="#000000">SBasePlugin.cpp</text>
</a>
</g>
</g>
<!-- Node1&#45;&gt;Node2 -->
<g id="edge1" class="edge">
<title>Node1&#45;&gt;Node2</title>
<path fill="none" stroke="#191970" d="M116.8654,-51.0465C99.7841,-41.0824 77.836,-28.2794 63.0303,-19.6427"/>
<polygon fill="#191970" stroke="#191970" points="115.3767,-54.23 125.7781,-56.2455 118.9038,-48.1836 115.3767,-54.23"/>
</g>
<!-- Node3 -->
<g id="node3" class="node">
<title>Node3</title>
<g id="a_node3"><a xlink:href="_model_8cpp.html" target="_top" xlink:title="Implementation of Model. ">
<polygon fill="#ffffff" stroke="#000000" points="111,-.5 111,-19.5 174,-19.5 174,-.5 111,-.5"/>
<text text-anchor="middle" x="142.5" y="-7.5" font-family="Helvetica,sans-Serif" font-size="10.00" fill="#000000">Model.cpp</text>
</a>
</g>
</g>
<!-- Node1&#45;&gt;Node3 -->
<g id="edge2" class="edge">
<title>Node1&#45;&gt;Node3</title>
<path fill="none" stroke="#191970" d="M142.5,-46.1575C142.5,-37.155 142.5,-26.9199 142.5,-19.6427"/>
<polygon fill="#191970" stroke="#191970" points="139.0001,-46.2455 142.5,-56.2455 146.0001,-46.2456 139.0001,-46.2455"/>
</g>
<!-- Node4 -->
<g id="node4" class="node">
<title>Node4</title>
<g id="a_node4"><a xlink:href="_layout_s_b_m_l_document_plugin_8cpp.html" target="_top" xlink:title="Implementation of the LayoutSBMLDocumentPlugin class. ">
<polygon fill="#ffffff" stroke="#000000" points="192.5,-.5 192.5,-19.5 358.5,-19.5 358.5,-.5 192.5,-.5"/>
<text text-anchor="middle" x="275.5" y="-7.5" font-family="Helvetica,sans-Serif" font-size="10.00" fill="#000000">LayoutSBMLDocumentPlugin.cpp</text>
</a>
</g>
</g>
<!-- Node1&#45;&gt;Node4 -->
<g id="edge3" class="edge">
<title>Node1&#45;&gt;Node4</title>
<path fill="none" stroke="#191970" d="M174.8397,-52.3833C199.0285,-42.1985 231.495,-28.5284 252.9348,-19.5011"/>
<polygon fill="#191970" stroke="#191970" points="173.2217,-49.2669 165.3635,-56.3733 175.9381,-55.7184 173.2217,-49.2669"/>
</g>
</g>
</svg>
