<?xml version="1.0" encoding="UTF-8" standalone="no"?>
<!DOCTYPE svg PUBLIC "-//W3C//DTD SVG 1.1//EN"
 "http://www.w3.org/Graphics/SVG/1.1/DTD/svg11.dtd">
<!-- Generated by graphviz version 2.40.1 (20161225.0304)
 -->
<!-- Title: L3FormulaFormatter.h Pages: 1 -->
<svg width="2902pt" height="968pt"
 viewBox="0.00 0.00 2902.07 968.00" xmlns="http://www.w3.org/2000/svg" xmlns:xlink="http://www.w3.org/1999/xlink">
<g id="graph0" class="graph" transform="scale(1 1) rotate(0) translate(4 964)">
<title>L3FormulaFormatter.h</title>
<polygon fill="#ffffff" stroke="transparent" points="-4,4 -4,-964 2898.0718,-964 2898.0718,4 -4,4"/>
<!-- Node1 -->
<g id="node1" class="node">
<title>Node1</title>
<polygon fill="#bfbfbf" stroke="#000000" points="11.0718,-940.5 11.0718,-959.5 127.0718,-959.5 127.0718,-940.5 11.0718,-940.5"/>
<text text-anchor="middle" x="69.0718" y="-947.5" font-family="Helvetica,sans-Serif" font-size="10.00" fill="#000000">L3FormulaFormatter.h</text>
</g>
<!-- Node2 -->
<g id="node2" class="node">
<title>Node2</title>
<g id="a_node2"><a xlink:href="extern_8h.html" target="_top" xlink:title="Definitions of LIBSBML_EXTERN and related things. ">
<polygon fill="#ffffff" stroke="#000000" points="913.0718,-67.5 913.0718,-86.5 1031.0718,-86.5 1031.0718,-67.5 913.0718,-67.5"/>
<text text-anchor="middle" x="972.0718" y="-74.5" font-family="Helvetica,sans-Serif" font-size="10.00" fill="#000000">sbml/common/extern.h</text>
</a>
</g>
</g>
<!-- Node1&#45;&gt;Node2 -->
<g id="edge1" class="edge">
<title>Node1&#45;&gt;Node2</title>
<path fill="none" stroke="#191970" d="M61.6877,-940.4092C42.5227,-914.4215 -6.7887,-840.025 1.0718,-772 27.2448,-545.4984 118.0718,-500.5088 118.0718,-272.5 118.0718,-272.5 118.0718,-272.5 118.0718,-205.5 118.0718,-160.1618 138.2824,-144.7337 178.0718,-123 240.7767,-88.7495 721.1304,-79.813 902.7846,-77.6465"/>
<polygon fill="#191970" stroke="#191970" points="903.0621,-81.1436 913.0209,-77.5278 902.9809,-74.1441 903.0621,-81.1436"/>
</g>
<!-- Node4 -->
<g id="node4" class="node">
<title>Node4</title>
<g id="a_node4"><a xlink:href="_string_buffer_8h.html" target="_top" xlink:title="sbml/util/StringBuffer.h">
<polygon fill="#ffffff" stroke="#000000" points="10.5718,-772.5 10.5718,-791.5 127.5718,-791.5 127.5718,-772.5 10.5718,-772.5"/>
<text text-anchor="middle" x="69.0718" y="-779.5" font-family="Helvetica,sans-Serif" font-size="10.00" fill="#000000">sbml/util/StringBuffer.h</text>
</a>
</g>
</g>
<!-- Node1&#45;&gt;Node4 -->
<g id="edge3" class="edge">
<title>Node1&#45;&gt;Node4</title>
<path fill="none" stroke="#191970" d="M69.0718,-940.4862C69.0718,-913.9293 69.0718,-838.5651 69.0718,-802.1655"/>
<polygon fill="#191970" stroke="#191970" points="72.5719,-801.8278 69.0718,-791.8279 65.5719,-801.8279 72.5719,-801.8278"/>
</g>
<!-- Node5 -->
<g id="node5" class="node">
<title>Node5</title>
<g id="a_node5"><a xlink:href="_a_s_t_node_8h.html" target="_top" xlink:title="Abstract Syntax Tree (AST) for representing formula trees. ">
<polygon fill="#ffffff" stroke="#000000" points="418.5718,-884.5 418.5718,-903.5 535.5718,-903.5 535.5718,-884.5 418.5718,-884.5"/>
<text text-anchor="middle" x="477.0718" y="-891.5" font-family="Helvetica,sans-Serif" font-size="10.00" fill="#000000">sbml/math/ASTNode.h</text>
</a>
</g>
</g>
<!-- Node1&#45;&gt;Node5 -->
<g id="edge4" class="edge">
<title>Node1&#45;&gt;Node5</title>
<path fill="none" stroke="#191970" d="M127.095,-942.036C201.1032,-931.878 328.9394,-914.3319 407.923,-903.491"/>
<polygon fill="#191970" stroke="#191970" points="408.8257,-906.9 418.2569,-902.0726 407.8738,-899.965 408.8257,-906.9"/>
</g>
<!-- Node3 -->
<g id="node3" class="node">
<title>Node3</title>
<g id="a_node3"><a xlink:href="libsbml-namespace_8h.html" target="_top" xlink:title="Defines C++ namespace of libSBML. ">
<polygon fill="#ffffff" stroke="#000000" points="2609.5718,-.5 2609.5718,-30.5 2722.5718,-30.5 2722.5718,-.5 2609.5718,-.5"/>
<text text-anchor="start" x="2617.5718" y="-18.5" font-family="Helvetica,sans-Serif" font-size="10.00" fill="#000000">sbml/common/libsbml</text>
<text text-anchor="middle" x="2666.0718" y="-7.5" font-family="Helvetica,sans-Serif" font-size="10.00" fill="#000000">&#45;namespace.h</text>
</a>
</g>
</g>
<!-- Node2&#45;&gt;Node3 -->
<g id="edge2" class="edge">
<title>Node2&#45;&gt;Node3</title>
<path fill="none" stroke="#191970" d="M1031.3689,-74.8472C1290.8196,-65.428 2325.3265,-27.8706 2599.2395,-17.9263"/>
<polygon fill="#191970" stroke="#191970" points="2599.5589,-21.4171 2609.4253,-17.5565 2599.3049,-14.4217 2599.5589,-21.4171"/>
</g>
<!-- Node5&#45;&gt;Node2 -->
<g id="edge5" class="edge">
<title>Node5&#45;&gt;Node2</title>
<path fill="none" stroke="#191970" d="M535.6096,-893.6194C883.032,-891.2611 2662.8432,-877.76 2774.0718,-848 2832.8714,-832.2678 2894.0718,-842.8678 2894.0718,-782 2894.0718,-782 2894.0718,-782 2894.0718,-205.5 2894.0718,-145.4502 2843.6623,-143.087 2787.0718,-123 2703.5064,-93.3381 1364.1258,-80.2776 1041.5531,-77.5537"/>
<polygon fill="#191970" stroke="#191970" points="1041.4364,-74.0526 1031.4074,-77.4686 1041.3776,-81.0524 1041.4364,-74.0526"/>
</g>
<!-- Node6 -->
<g id="node6" class="node">
<title>Node6</title>
<g id="a_node6"><a xlink:href="sbmlfwd_8h.html" target="_top" xlink:title="Forward declarations for all opaque C types. ">
<polygon fill="#ffffff" stroke="#000000" points="2374.5718,-263 2374.5718,-282 2501.5718,-282 2501.5718,-263 2374.5718,-263"/>
<text text-anchor="middle" x="2438.0718" y="-270" font-family="Helvetica,sans-Serif" font-size="10.00" fill="#000000">sbml/common/sbmlfwd.h</text>
</a>
</g>
</g>
<!-- Node5&#45;&gt;Node6 -->
<g id="edge6" class="edge">
<title>Node5&#45;&gt;Node6</title>
<path fill="none" stroke="#191970" d="M535.7833,-893.3548C875.4777,-889.5493 2577.7156,-869.4658 2686.0718,-848 2765.5766,-832.2497 2856.0718,-863.0499 2856.0718,-782 2856.0718,-782 2856.0718,-782 2856.0718,-502 2856.0718,-346.9454 2632.3381,-295.9293 2512.2408,-279.7138"/>
<polygon fill="#191970" stroke="#191970" points="2512.3801,-276.2025 2502.012,-278.383 2511.4768,-283.144 2512.3801,-276.2025"/>
</g>
<!-- Node10 -->
<g id="node10" class="node">
<title>Node10</title>
<g id="a_node10"><a xlink:href="_a_s_t_node_type_8h.html" target="_top" xlink:title="Enumeration for Abstract Syntax Tree (AST). ">
<polygon fill="#ffffff" stroke="#000000" points="315.5718,-716.5 315.5718,-735.5 454.5718,-735.5 454.5718,-716.5 315.5718,-716.5"/>
<text text-anchor="middle" x="385.0718" y="-723.5" font-family="Helvetica,sans-Serif" font-size="10.00" fill="#000000">sbml/math/ASTNodeType.h</text>
</a>
</g>
</g>
<!-- Node5&#45;&gt;Node10 -->
<g id="edge13" class="edge">
<title>Node5&#45;&gt;Node10</title>
<path fill="none" stroke="#191970" d="M447.4399,-884.4535C430.1097,-877.2632 409.462,-865.5827 398.0718,-848 377.8956,-816.8547 379.1601,-771.598 382.0271,-745.8613"/>
<polygon fill="#191970" stroke="#191970" points="385.513,-746.1967 383.3409,-735.8269 378.5722,-745.2879 385.513,-746.1967"/>
</g>
<!-- Node11 -->
<g id="node11" class="node">
<title>Node11</title>
<g id="a_node11"><a xlink:href="_formula_tokenizer_8h.html" target="_top" xlink:title="Tokenizes an SBML formula string. ">
<polygon fill="#ffffff" stroke="#000000" points="184.0718,-772.5 184.0718,-791.5 338.0718,-791.5 338.0718,-772.5 184.0718,-772.5"/>
<text text-anchor="middle" x="261.0718" y="-779.5" font-family="Helvetica,sans-Serif" font-size="10.00" fill="#000000">sbml/math/FormulaTokenizer.h</text>
</a>
</g>
</g>
<!-- Node5&#45;&gt;Node11 -->
<g id="edge16" class="edge">
<title>Node5&#45;&gt;Node11</title>
<path fill="none" stroke="#191970" d="M443.6354,-884.4561C417.8286,-876.4432 381.6557,-863.7817 352.0718,-848 325.4355,-833.7906 297.7635,-812.6556 280.0328,-798.1526"/>
<polygon fill="#191970" stroke="#191970" points="282.1039,-795.323 272.1754,-791.6251 277.6309,-800.7074 282.1039,-795.323"/>
</g>
<!-- Node12 -->
<g id="node12" class="node">
<title>Node12</title>
<g id="a_node12"><a xlink:href="_formula_formatter_8h.html" target="_top" xlink:title="Formats an AST formula tree as an SBML formula string. ">
<polygon fill="#ffffff" stroke="#000000" points="121.0718,-828.5 121.0718,-847.5 275.0718,-847.5 275.0718,-828.5 121.0718,-828.5"/>
<text text-anchor="middle" x="198.0718" y="-835.5" font-family="Helvetica,sans-Serif" font-size="10.00" fill="#000000">sbml/math/FormulaFormatter.h</text>
</a>
</g>
</g>
<!-- Node5&#45;&gt;Node12 -->
<g id="edge18" class="edge">
<title>Node5&#45;&gt;Node12</title>
<path fill="none" stroke="#191970" d="M424.1975,-884.4369C374.2488,-874.7925 299.906,-859.8948 250.2039,-849.5858"/>
<polygon fill="#191970" stroke="#191970" points="250.8018,-846.1353 240.2984,-847.5237 249.3751,-852.9884 250.8018,-846.1353"/>
</g>
<!-- Node13 -->
<g id="node13" class="node">
<title>Node13</title>
<g id="a_node13"><a xlink:href="_formula_parser_8h.html" target="_top" xlink:title="Parses an SBML formula string into an AST. ">
<polygon fill="#ffffff" stroke="#000000" points="407.0718,-828.5 407.0718,-847.5 547.0718,-847.5 547.0718,-828.5 407.0718,-828.5"/>
<text text-anchor="middle" x="477.0718" y="-835.5" font-family="Helvetica,sans-Serif" font-size="10.00" fill="#000000">sbml/math/FormulaParser.h</text>
</a>
</g>
</g>
<!-- Node5&#45;&gt;Node13 -->
<g id="edge22" class="edge">
<title>Node5&#45;&gt;Node13</title>
<path fill="none" stroke="#191970" d="M471.805,-884.2455C470.3939,-876.9382 469.9897,-866.6944 470.5923,-857.7046"/>
<polygon fill="#191970" stroke="#191970" points="474.0829,-857.9945 471.8267,-847.6427 467.135,-857.1421 474.0829,-857.9945"/>
</g>
<!-- Node15 -->
<g id="node15" class="node">
<title>Node15</title>
<g id="a_node15"><a xlink:href="_x_m_l_attributes_8h.html" target="_top" xlink:title="XMLAttributes are a list of name/value pairs for XML elements. ">
<polygon fill="#ffffff" stroke="#000000" points="1616.0718,-380.5 1616.0718,-399.5 1746.0718,-399.5 1746.0718,-380.5 1616.0718,-380.5"/>
<text text-anchor="middle" x="1681.0718" y="-387.5" font-family="Helvetica,sans-Serif" font-size="10.00" fill="#000000">sbml/xml/XMLAttributes.h</text>
</a>
</g>
</g>
<!-- Node5&#45;&gt;Node15 -->
<g id="edge28" class="edge">
<title>Node5&#45;&gt;Node15</title>
<path fill="none" stroke="#191970" d="M535.6458,-892.0475C693.076,-886.5639 1122.8809,-869.978 1263.0718,-848 1459.8763,-817.1466 1575.0722,-893.4803 1697.0718,-736 1702.5156,-728.9731 1697.9315,-724.8472 1697.0718,-716 1690.1505,-644.7744 1666.0718,-629.5611 1666.0718,-558 1666.0718,-558 1666.0718,-558 1666.0718,-502 1666.0718,-469.2739 1672.4411,-431.641 1676.8788,-409.3923"/>
<polygon fill="#191970" stroke="#191970" points="1680.3204,-410.0329 1678.9227,-399.5307 1673.466,-408.6123 1680.3204,-410.0329"/>
</g>
<!-- Node17 -->
<g id="node17" class="node">
<title>Node17</title>
<g id="a_node17"><a xlink:href="operation_return_values_8h.html" target="_top" xlink:title="Enumeration of values returned by operations within libSBML. ">
<polygon fill="#ffffff" stroke="#000000" points="1153.5718,-257.5 1153.5718,-287.5 1306.5718,-287.5 1306.5718,-257.5 1153.5718,-257.5"/>
<text text-anchor="start" x="1161.5718" y="-275.5" font-family="Helvetica,sans-Serif" font-size="10.00" fill="#000000">sbml/common/operationReturn</text>
<text text-anchor="middle" x="1230.0718" y="-264.5" font-family="Helvetica,sans-Serif" font-size="10.00" fill="#000000">Values.h</text>
</a>
</g>
</g>
<!-- Node5&#45;&gt;Node17 -->
<g id="edge148" class="edge">
<title>Node5&#45;&gt;Node17</title>
<path fill="none" stroke="#191970" d="M512.3827,-884.4663C556.4441,-870.1751 626.0718,-838.632 626.0718,-782 626.0718,-782 626.0718,-782 626.0718,-446 626.0718,-372.0925 672.9816,-357.0818 739.0718,-324 748.0096,-319.5261 1004.7359,-294.2171 1143.3109,-280.8201"/>
<polygon fill="#191970" stroke="#191970" points="1143.8696,-284.2825 1153.4868,-279.8372 1143.1965,-277.3149 1143.8696,-284.2825"/>
</g>
<!-- Node22 -->
<g id="node22" class="node">
<title>Node22</title>
<g id="a_node22"><a xlink:href="_syntax_checker_8h.html" target="_top" xlink:title="Syntax checking functions. ">
<polygon fill="#ffffff" stroke="#000000" points="1137.5718,-828.5 1137.5718,-847.5 1254.5718,-847.5 1254.5718,-828.5 1137.5718,-828.5"/>
<text text-anchor="middle" x="1196.0718" y="-835.5" font-family="Helvetica,sans-Serif" font-size="10.00" fill="#000000">sbml/SyntaxChecker.h</text>
</a>
</g>
</g>
<!-- Node5&#45;&gt;Node22 -->
<g id="edge41" class="edge">
<title>Node5&#45;&gt;Node22</title>
<path fill="none" stroke="#191970" d="M535.6058,-889.441C667.2565,-879.1873 986.17,-854.3484 1127.1216,-843.3703"/>
<polygon fill="#191970" stroke="#191970" points="1127.6655,-846.8386 1137.3635,-842.5726 1127.1219,-839.8597 1127.6655,-846.8386"/>
</g>
<!-- Node51 -->
<g id="node51" class="node">
<title>Node51</title>
<g id="a_node51"><a xlink:href="_a_s_t_base_plugin_8h.html" target="_top" xlink:title="sbml/extension/ASTBasePlugin.h">
<polygon fill="#ffffff" stroke="#000000" points="2513.0718,-828.5 2513.0718,-847.5 2677.0718,-847.5 2677.0718,-828.5 2513.0718,-828.5"/>
<text text-anchor="middle" x="2595.0718" y="-835.5" font-family="Helvetica,sans-Serif" font-size="10.00" fill="#000000">sbml/extension/ASTBasePlugin.h</text>
</a>
</g>
</g>
<!-- Node5&#45;&gt;Node51 -->
<g id="edge149" class="edge">
<title>Node5&#45;&gt;Node51</title>
<path fill="none" stroke="#191970" d="M535.6242,-893.3099C824.7653,-889.8039 2102.2099,-873.1426 2499.0718,-848 2500.3417,-847.9195 2501.6208,-847.8351 2502.9073,-847.7469"/>
<polygon fill="#191970" stroke="#191970" points="2503.1772,-851.2366 2512.8894,-847.003 2502.6569,-844.2559 2503.1772,-851.2366"/>
</g>
<!-- Node6&#45;&gt;Node3 -->
<g id="edge7" class="edge">
<title>Node6&#45;&gt;Node3</title>
<path fill="none" stroke="#191970" d="M2501.8839,-269.9382C2575.8582,-265.4714 2691.1063,-253.3776 2718.0718,-221 2761.8737,-168.4069 2744.417,-130.171 2718.0718,-67 2713.3435,-55.6624 2704.7701,-45.5431 2695.9302,-37.3389"/>
<polygon fill="#191970" stroke="#191970" points="2698.0367,-34.5333 2688.1832,-30.6396 2693.458,-39.8281 2698.0367,-34.5333"/>
</g>
<!-- Node7 -->
<g id="node7" class="node">
<title>Node7</title>
<g id="a_node7"><a xlink:href="libsbml-config_8h.html" target="_top" xlink:title="Decides whether to #include Unix or Windows configuration variables. ">
<polygon fill="#ffffff" stroke="#000000" points="2516.5718,-190.5 2516.5718,-220.5 2629.5718,-220.5 2629.5718,-190.5 2516.5718,-190.5"/>
<text text-anchor="start" x="2524.5718" y="-208.5" font-family="Helvetica,sans-Serif" font-size="10.00" fill="#000000">sbml/common/libsbml</text>
<text text-anchor="middle" x="2573.0718" y="-197.5" font-family="Helvetica,sans-Serif" font-size="10.00" fill="#000000">&#45;config.h</text>
</a>
</g>
</g>
<!-- Node6&#45;&gt;Node7 -->
<g id="edge8" class="edge">
<title>Node6&#45;&gt;Node7</title>
<path fill="none" stroke="#191970" d="M2457.414,-262.9005C2477.1965,-253.0826 2508.4939,-237.5498 2533.5456,-225.1167"/>
<polygon fill="#191970" stroke="#191970" points="2535.4025,-228.1025 2542.8041,-220.5218 2532.2906,-221.8323 2535.4025,-228.1025"/>
</g>
<!-- Node7&#45;&gt;Node3 -->
<g id="edge9" class="edge">
<title>Node7&#45;&gt;Node3</title>
<path fill="none" stroke="#191970" d="M2605.989,-190.4689C2620.9489,-181.9223 2637.4248,-169.75 2647.0718,-154 2668.4292,-119.1311 2669.9046,-70.1716 2668.4171,-40.77"/>
<polygon fill="#191970" stroke="#191970" points="2671.892,-40.2754 2667.7371,-30.5293 2664.9074,-40.7392 2671.892,-40.2754"/>
</g>
<!-- Node8 -->
<g id="node8" class="node">
<title>Node8</title>
<g id="a_node8"><a xlink:href="libsbml-config-common_8h.html" target="_top" xlink:title="Configuration variables. ">
<polygon fill="#ffffff" stroke="#000000" points="2524.5718,-123.5 2524.5718,-153.5 2637.5718,-153.5 2637.5718,-123.5 2524.5718,-123.5"/>
<text text-anchor="start" x="2532.5718" y="-141.5" font-family="Helvetica,sans-Serif" font-size="10.00" fill="#000000">sbml/common/libsbml</text>
<text text-anchor="middle" x="2581.0718" y="-130.5" font-family="Helvetica,sans-Serif" font-size="10.00" fill="#000000">&#45;config&#45;common.h</text>
</a>
</g>
</g>
<!-- Node7&#45;&gt;Node8 -->
<g id="edge10" class="edge">
<title>Node7&#45;&gt;Node8</title>
<path fill="none" stroke="#191970" d="M2574.8871,-190.2967C2575.8282,-182.4156 2577.0019,-172.5857 2578.0732,-163.6135"/>
<polygon fill="#191970" stroke="#191970" points="2581.5533,-163.9876 2579.2637,-153.6432 2574.6027,-163.1576 2581.5533,-163.9876"/>
</g>
<!-- Node9 -->
<g id="node9" class="node">
<title>Node9</title>
<g id="a_node9"><a xlink:href="libsbml-version_8h.html" target="_top" xlink:title="Define libSBML version numbers for access from client software. ">
<polygon fill="#ffffff" stroke="#000000" points="2393.5718,-123.5 2393.5718,-153.5 2506.5718,-153.5 2506.5718,-123.5 2393.5718,-123.5"/>
<text text-anchor="start" x="2401.5718" y="-141.5" font-family="Helvetica,sans-Serif" font-size="10.00" fill="#000000">sbml/common/libsbml</text>
<text text-anchor="middle" x="2450.0718" y="-130.5" font-family="Helvetica,sans-Serif" font-size="10.00" fill="#000000">&#45;version.h</text>
</a>
</g>
</g>
<!-- Node7&#45;&gt;Node9 -->
<g id="edge11" class="edge">
<title>Node7&#45;&gt;Node9</title>
<path fill="none" stroke="#191970" d="M2545.4682,-190.4639C2528.1815,-181.0475 2505.6986,-168.8008 2486.9015,-158.5617"/>
<polygon fill="#191970" stroke="#191970" points="2488.4648,-155.4277 2478.0089,-153.7177 2485.1163,-161.5749 2488.4648,-155.4277"/>
</g>
<!-- Node9&#45;&gt;Node2 -->
<g id="edge12" class="edge">
<title>Node9&#45;&gt;Node2</title>
<path fill="none" stroke="#191970" d="M2393.263,-125.1434C2388.4808,-124.3101 2383.7043,-123.5765 2379.0718,-123 2115.7671,-90.2327 1286.9338,-79.9578 1041.3183,-77.5931"/>
<polygon fill="#191970" stroke="#191970" points="1041.1317,-74.0913 1031.0989,-77.4961 1041.0652,-81.091 1041.1317,-74.0913"/>
</g>
<!-- Node10&#45;&gt;Node2 -->
<g id="edge15" class="edge">
<title>Node10&#45;&gt;Node2</title>
<path fill="none" stroke="#191970" d="M411.3863,-716.4947C448.5854,-701.1657 512.0718,-667.2099 512.0718,-614 512.0718,-614 512.0718,-614 512.0718,-558 512.0718,-352.2145 650.874,-338.7529 793.0718,-190 825.119,-156.4755 833.9284,-147.8738 873.0718,-123 893.3241,-110.1306 917.7593,-98.7393 937.2862,-90.5119"/>
<polygon fill="#191970" stroke="#191970" points="938.8095,-93.6697 946.7193,-86.6209 936.1402,-87.1986 938.8095,-93.6697"/>
</g>
<!-- Node10&#45;&gt;Node3 -->
<g id="edge14" class="edge">
<title>Node10&#45;&gt;Node3</title>
<path fill="none" stroke="#191970" d="M362.6257,-716.4443C329.1586,-700.5115 270.0718,-665.1402 270.0718,-614 270.0718,-614 270.0718,-614 270.0718,-558 270.0718,-405.5807 80.0718,-424.9193 80.0718,-272.5 80.0718,-272.5 80.0718,-272.5 80.0718,-138.5 80.0718,45.2992 720.4983,-76.1041 904.0718,-67 1564.7862,-34.2329 2365.9805,-20.0832 2599.3421,-16.4728"/>
<polygon fill="#191970" stroke="#191970" points="2599.4259,-19.972 2609.3709,-16.3187 2599.3183,-12.9729 2599.4259,-19.972"/>
</g>
<!-- Node11&#45;&gt;Node2 -->
<g id="edge17" class="edge">
<title>Node11&#45;&gt;Node2</title>
<path fill="none" stroke="#191970" d="M256.7928,-772.3307C248.7259,-753.1936 232.0718,-708.9662 232.0718,-670 232.0718,-670 232.0718,-670 232.0718,-205.5 232.0718,-157.1244 259.82,-144.6674 303.0718,-123 355.6853,-96.6428 742.4909,-83.2256 902.7881,-78.7494"/>
<polygon fill="#191970" stroke="#191970" points="903.1134,-82.2419 913.0131,-78.4674 902.9204,-75.2445 903.1134,-82.2419"/>
</g>
<!-- Node12&#45;&gt;Node2 -->
<g id="edge19" class="edge">
<title>Node12&#45;&gt;Node2</title>
<path fill="none" stroke="#191970" d="M191.6929,-828.2715C179.9436,-809.3847 156.0718,-766.0797 156.0718,-726 156.0718,-726 156.0718,-726 156.0718,-205.5 156.0718,-150.247 198.0648,-144.2408 249.0718,-123 308.3822,-98.3014 733.5959,-83.7252 902.8397,-78.8471"/>
<polygon fill="#191970" stroke="#191970" points="902.9901,-82.3443 912.8861,-78.5603 902.7903,-75.3472 902.9901,-82.3443"/>
</g>
<!-- Node12&#45;&gt;Node4 -->
<g id="edge20" class="edge">
<title>Node12&#45;&gt;Node4</title>
<path fill="none" stroke="#191970" d="M175.8959,-828.3733C155.0952,-819.3435 123.7802,-805.7494 100.426,-795.6111"/>
<polygon fill="#191970" stroke="#191970" points="101.525,-792.2727 90.9583,-791.5011 98.7376,-798.6938 101.525,-792.2727"/>
</g>
<!-- Node12&#45;&gt;Node5 -->
<g id="edge21" class="edge">
<title>Node12&#45;&gt;Node5</title>
<path fill="none" stroke="#191970" d="M250.7419,-847.5237C300.6239,-857.1537 374.9669,-872.0505 424.7362,-882.372"/>
<polygon fill="#191970" stroke="#191970" points="424.1531,-885.8256 434.6566,-884.4369 425.5796,-878.9725 424.1531,-885.8256"/>
</g>
<!-- Node13&#45;&gt;Node2 -->
<g id="edge24" class="edge">
<title>Node13&#45;&gt;Node2</title>
<path fill="none" stroke="#191970" d="M494.4476,-828.4558C506.9307,-820.5215 522.79,-807.9621 530.0718,-792 533.7611,-783.9129 531.5011,-780.7732 530.0718,-772 487.0116,-507.687 264.3915,-434.3067 374.0718,-190 390.8125,-152.7111 400.2837,-140.8144 437.0718,-123 478.0101,-103.1759 767.471,-86.843 902.7311,-80.1999"/>
<polygon fill="#191970" stroke="#191970" points="903.1636,-83.6831 912.9814,-79.7005 902.823,-76.6914 903.1636,-83.6831"/>
</g>
<!-- Node13&#45;&gt;Node5 -->
<g id="edge26" class="edge">
<title>Node13&#45;&gt;Node5</title>
<path fill="none" stroke="#191970" d="M482.317,-847.6427C483.7383,-854.9199 484.1528,-865.155 483.5605,-874.1575"/>
<polygon fill="#191970" stroke="#191970" points="480.0665,-873.8972 482.3387,-884.2455 487.0157,-874.739 480.0665,-873.8972"/>
</g>
<!-- Node13&#45;&gt;Node10 -->
<g id="edge23" class="edge">
<title>Node13&#45;&gt;Node10</title>
<path fill="none" stroke="#191970" d="M463.0402,-828.1762C451.3939,-819.5541 434.8849,-806.2023 423.0718,-792 410.9613,-777.4401 400.5068,-758.5116 393.6463,-744.6611"/>
<polygon fill="#191970" stroke="#191970" points="396.7879,-743.1176 389.3138,-735.6083 390.4737,-746.1395 396.7879,-743.1176"/>
</g>
<!-- Node13&#45;&gt;Node11 -->
<g id="edge27" class="edge">
<title>Node13&#45;&gt;Node11</title>
<path fill="none" stroke="#191970" d="M439.9401,-828.3733C403.2451,-818.8598 347.008,-804.2797 307.4067,-794.0127"/>
<polygon fill="#191970" stroke="#191970" points="308.2774,-790.6228 297.719,-791.5011 306.5206,-797.3988 308.2774,-790.6228"/>
</g>
<!-- Node14 -->
<g id="node14" class="node">
<title>Node14</title>
<g id="a_node14"><a xlink:href="_stack_8h.html" target="_top" xlink:title="sbml/util/Stack.h">
<polygon fill="#ffffff" stroke="#000000" points="432.5718,-772.5 432.5718,-791.5 521.5718,-791.5 521.5718,-772.5 432.5718,-772.5"/>
<text text-anchor="middle" x="477.0718" y="-779.5" font-family="Helvetica,sans-Serif" font-size="10.00" fill="#000000">sbml/util/Stack.h</text>
</a>
</g>
</g>
<!-- Node13&#45;&gt;Node14 -->
<g id="edge25" class="edge">
<title>Node13&#45;&gt;Node14</title>
<path fill="none" stroke="#191970" d="M477.0718,-828.2455C477.0718,-820.9382 477.0718,-810.6944 477.0718,-801.7046"/>
<polygon fill="#191970" stroke="#191970" points="480.5719,-801.6426 477.0718,-791.6427 473.5719,-801.6427 480.5719,-801.6426"/>
</g>
<!-- Node15&#45;&gt;Node6 -->
<g id="edge31" class="edge">
<title>Node15&#45;&gt;Node6</title>
<path fill="none" stroke="#191970" d="M1746.4123,-385.6753C1864.1703,-377.6201 2107.5243,-359.7096 2191.0718,-344 2267.4624,-329.6361 2354.1998,-301.7361 2401.8722,-285.3573"/>
<polygon fill="#191970" stroke="#191970" points="2403.13,-288.6257 2411.4342,-282.0462 2400.8395,-282.0111 2403.13,-288.6257"/>
</g>
<!-- Node16 -->
<g id="node16" class="node">
<title>Node16</title>
<g id="a_node16"><a xlink:href="_x_m_l_extern_8h.html" target="_top" xlink:title="Defines LIBLAX_EXTERN. ">
<polygon fill="#ffffff" stroke="#000000" points="2066.5718,-263 2066.5718,-282 2183.5718,-282 2183.5718,-263 2066.5718,-263"/>
<text text-anchor="middle" x="2125.0718" y="-270" font-family="Helvetica,sans-Serif" font-size="10.00" fill="#000000">sbml/xml/XMLExtern.h</text>
</a>
</g>
</g>
<!-- Node15&#45;&gt;Node16 -->
<g id="edge29" class="edge">
<title>Node15&#45;&gt;Node16</title>
<path fill="none" stroke="#191970" d="M1717.0301,-380.484C1797.2404,-359.2572 1990.6834,-308.0645 2079.3197,-284.6078"/>
<polygon fill="#191970" stroke="#191970" points="2080.3165,-287.9646 2089.0882,-282.0227 2078.5256,-281.1976 2080.3165,-287.9646"/>
</g>
<!-- Node15&#45;&gt;Node17 -->
<g id="edge32" class="edge">
<title>Node15&#45;&gt;Node17</title>
<path fill="none" stroke="#191970" d="M1615.9678,-380.7566C1565.5852,-372.9241 1494.3106,-360.358 1433.0718,-344 1378.4297,-329.4041 1317.4352,-307.072 1276.7031,-291.2548"/>
<polygon fill="#191970" stroke="#191970" points="1277.8992,-287.9645 1267.3112,-287.5836 1275.3507,-294.4841 1277.8992,-287.9645"/>
</g>
<!-- Node18 -->
<g id="node18" class="node">
<title>Node18</title>
<polygon fill="#ffffff" stroke="#bfbfbf" points="1753.5718,-263 1753.5718,-282 1794.5718,-282 1794.5718,-263 1753.5718,-263"/>
<text text-anchor="middle" x="1774.0718" y="-270" font-family="Helvetica,sans-Serif" font-size="10.00" fill="#000000">string</text>
</g>
<!-- Node15&#45;&gt;Node18 -->
<g id="edge34" class="edge">
<title>Node15&#45;&gt;Node18</title>
<path fill="none" stroke="#191970" d="M1702.5417,-380.4161C1717.7748,-372.6116 1737.6454,-360.2339 1750.0718,-344 1761.7277,-328.7727 1767.902,-307.5675 1771.0519,-292.2077"/>
<polygon fill="#191970" stroke="#191970" points="1774.5217,-292.687 1772.846,-282.2256 1767.6321,-291.4487 1774.5217,-292.687"/>
</g>
<!-- Node19 -->
<g id="node19" class="node">
<title>Node19</title>
<polygon fill="#ffffff" stroke="#bfbfbf" points="1423.0718,-263 1423.0718,-282 1467.0718,-282 1467.0718,-263 1423.0718,-263"/>
<text text-anchor="middle" x="1445.0718" y="-270" font-family="Helvetica,sans-Serif" font-size="10.00" fill="#000000">vector</text>
</g>
<!-- Node15&#45;&gt;Node19 -->
<g id="edge35" class="edge">
<title>Node15&#45;&gt;Node19</title>
<path fill="none" stroke="#191970" d="M1615.9593,-386.4291C1553.4682,-381.479 1465.5037,-369.9916 1444.0718,-344 1432.2645,-329.6806 1434.5888,-307.7016 1438.5662,-291.8927"/>
<polygon fill="#191970" stroke="#191970" points="1441.9813,-292.6842 1441.4305,-282.1037 1435.263,-290.7183 1441.9813,-292.6842"/>
</g>
<!-- Node20 -->
<g id="node20" class="node">
<title>Node20</title>
<polygon fill="#ffffff" stroke="#bfbfbf" points="900.5718,-324.5 900.5718,-343.5 959.5718,-343.5 959.5718,-324.5 900.5718,-324.5"/>
<text text-anchor="middle" x="930.0718" y="-331.5" font-family="Helvetica,sans-Serif" font-size="10.00" fill="#000000">stdexcept</text>
</g>
<!-- Node15&#45;&gt;Node20 -->
<g id="edge36" class="edge">
<title>Node15&#45;&gt;Node20</title>
<path fill="none" stroke="#191970" d="M1615.8888,-387.3469C1468.1973,-381.0891 1110.6523,-364.4923 969.9145,-343.7836"/>
<polygon fill="#191970" stroke="#191970" points="970.1786,-340.2831 959.7626,-342.2212 969.1138,-347.2016 970.1786,-340.2831"/>
</g>
<!-- Node21 -->
<g id="node21" class="node">
<title>Node21</title>
<g id="a_node21"><a xlink:href="_x_m_l_triple_8h.html" target="_top" xlink:title="Stores an XML namespace triple. ">
<polygon fill="#ffffff" stroke="#000000" points="2068.5718,-324.5 2068.5718,-343.5 2181.5718,-343.5 2181.5718,-324.5 2068.5718,-324.5"/>
<text text-anchor="middle" x="2125.0718" y="-331.5" font-family="Helvetica,sans-Serif" font-size="10.00" fill="#000000">sbml/xml/XMLTriple.h</text>
</a>
</g>
</g>
<!-- Node15&#45;&gt;Node21 -->
<g id="edge37" class="edge">
<title>Node15&#45;&gt;Node21</title>
<path fill="none" stroke="#191970" d="M1746.1087,-381.7971C1829.666,-371.2584 1973.9621,-353.0589 2058.3341,-342.4174"/>
<polygon fill="#191970" stroke="#191970" points="2058.8348,-345.882 2068.3182,-341.1581 2057.9588,-338.9371 2058.8348,-345.882"/>
</g>
<!-- Node16&#45;&gt;Node3 -->
<g id="edge30" class="edge">
<title>Node16&#45;&gt;Node3</title>
<path fill="none" stroke="#191970" d="M2184.0345,-268.2105C2315.1872,-258.4502 2620.986,-234.3929 2639.0718,-221 2696.1807,-178.7099 2692.7343,-137.258 2682.0718,-67 2680.7136,-58.0501 2678.0989,-48.5144 2675.3707,-40.1121"/>
<polygon fill="#191970" stroke="#191970" points="2678.6375,-38.8493 2672.0634,-30.5407 2672.0214,-41.1355 2678.6375,-38.8493"/>
</g>
<!-- Node17&#45;&gt;Node2 -->
<g id="edge33" class="edge">
<title>Node17&#45;&gt;Node2</title>
<path fill="none" stroke="#191970" d="M1210.2554,-257.4841C1162.6012,-221.374 1041.9284,-129.934 993.0809,-92.9196"/>
<polygon fill="#191970" stroke="#191970" points="994.9137,-89.9172 984.8296,-86.6672 990.686,-95.4963 994.9137,-89.9172"/>
</g>
<!-- Node21&#45;&gt;Node6 -->
<g id="edge39" class="edge">
<title>Node21&#45;&gt;Node6</title>
<path fill="none" stroke="#191970" d="M2173.6346,-324.4581C2229.2293,-313.5345 2320.2558,-295.6492 2379.6712,-283.9749"/>
<polygon fill="#191970" stroke="#191970" points="2380.515,-287.3761 2389.6526,-282.0137 2379.1654,-280.5074 2380.515,-287.3761"/>
</g>
<!-- Node21&#45;&gt;Node16 -->
<g id="edge38" class="edge">
<title>Node21&#45;&gt;Node16</title>
<path fill="none" stroke="#191970" d="M2125.0718,-324.3906C2125.0718,-315.8657 2125.0718,-303.1392 2125.0718,-292.4235"/>
<polygon fill="#191970" stroke="#191970" points="2128.5719,-292.2448 2125.0718,-282.2449 2121.5719,-292.2449 2128.5719,-292.2448"/>
</g>
<!-- Node21&#45;&gt;Node18 -->
<g id="edge40" class="edge">
<title>Node21&#45;&gt;Node18</title>
<path fill="none" stroke="#191970" d="M2070.6132,-324.4581C1995.9547,-311.3769 1864.3164,-288.3121 1804.8093,-277.8856"/>
<polygon fill="#191970" stroke="#191970" points="1805.3527,-274.4276 1794.8987,-276.1492 1804.1446,-281.3226 1805.3527,-274.4276"/>
</g>
<!-- Node22&#45;&gt;Node2 -->
<g id="edge42" class="edge">
<title>Node22&#45;&gt;Node2</title>
<path fill="none" stroke="#191970" d="M1254.8776,-836.6164C1476.3861,-830.9076 2259.8976,-806.0929 2498.0718,-736 2727.5842,-668.4562 2856.0718,-573.2449 2856.0718,-334 2856.0718,-334 2856.0718,-334 2856.0718,-205.5 2856.0718,-134.0422 2786.6956,-142.9249 2718.0718,-123 2636.4157,-99.2912 1357.1784,-81.8117 1041.8879,-77.8494"/>
<polygon fill="#191970" stroke="#191970" points="1041.564,-74.3452 1031.5209,-77.7196 1041.4763,-81.3446 1041.564,-74.3452"/>
</g>
<!-- Node22&#45;&gt;Node18 -->
<g id="edge147" class="edge">
<title>Node22&#45;&gt;Node18</title>
<path fill="none" stroke="#191970" d="M1254.6738,-835.9395C1509.1176,-826.4004 2509.3856,-782.5578 2600.0718,-680 2683.3352,-585.8368 2567.9104,-495.2817 2457.0718,-436 2296.9785,-350.3746 2232.835,-396.6113 2059.0718,-344 2034.9752,-336.7041 2030.2,-331.1907 2006.0718,-324 1935.0579,-302.8365 1849.4962,-286.0201 1804.7522,-277.8678"/>
<polygon fill="#191970" stroke="#191970" points="1805.2686,-274.4046 1794.8065,-276.0764 1804.0277,-281.2937 1805.2686,-274.4046"/>
</g>
<!-- Node23 -->
<g id="node23" class="node">
<title>Node23</title>
<g id="a_node23"><a xlink:href="_s_base_8h.html" target="_top" xlink:title="Definition of SBase, the base object of all SBML objects. ">
<polygon fill="#ffffff" stroke="#000000" points="1157.0718,-772.5 1157.0718,-791.5 1235.0718,-791.5 1235.0718,-772.5 1157.0718,-772.5"/>
<text text-anchor="middle" x="1196.0718" y="-779.5" font-family="Helvetica,sans-Serif" font-size="10.00" fill="#000000">sbml/SBase.h</text>
</a>
</g>
</g>
<!-- Node22&#45;&gt;Node23 -->
<g id="edge43" class="edge">
<title>Node22&#45;&gt;Node23</title>
<path fill="none" stroke="#191970" d="M1190.805,-828.2455C1189.3939,-820.9382 1188.9897,-810.6944 1189.5923,-801.7046"/>
<polygon fill="#191970" stroke="#191970" points="1193.0829,-801.9945 1190.8267,-791.6427 1186.135,-801.1421 1193.0829,-801.9945"/>
</g>
<!-- Node44 -->
<g id="node44" class="node">
<title>Node44</title>
<g id="a_node44"><a xlink:href="util_8h.html" target="_top" xlink:title="Utility functions. ">
<polygon fill="#ffffff" stroke="#000000" points="383.5718,-263 383.5718,-282 460.5718,-282 460.5718,-263 383.5718,-263"/>
<text text-anchor="middle" x="422.0718" y="-270" font-family="Helvetica,sans-Serif" font-size="10.00" fill="#000000">sbml/util/util.h</text>
</a>
</g>
</g>
<!-- Node22&#45;&gt;Node44 -->
<g id="edge146" class="edge">
<title>Node22&#45;&gt;Node44</title>
<path fill="none" stroke="#191970" d="M1137.4611,-832.7628C1013.5996,-820.7926 730.0462,-788.3557 650.0718,-736 485.911,-628.5312 435.8119,-366.1959 424.7172,-292.2142"/>
<polygon fill="#191970" stroke="#191970" points="428.1387,-291.415 423.26,-282.0103 421.209,-292.4047 428.1387,-291.415"/>
</g>
<!-- Node23&#45;&gt;Node2 -->
<g id="edge44" class="edge">
<title>Node23&#45;&gt;Node2</title>
<path fill="none" stroke="#191970" d="M1156.7619,-779.6182C1074.5469,-774.2276 887.1626,-759.6874 828.0718,-736 704.8051,-686.5868 588.0718,-690.8019 588.0718,-558 588.0718,-558 588.0718,-558 588.0718,-502 588.0718,-367.4926 425.5456,-412.2687 374.0718,-288 364.4416,-264.7506 383.3559,-193.2341 386.0718,-190 451.5636,-112.0129 762.0145,-87.1658 902.6019,-79.8328"/>
<polygon fill="#191970" stroke="#191970" points="903.0208,-83.3162 912.8309,-79.3146 902.6666,-76.3251 903.0208,-83.3162"/>
</g>
<!-- Node23&#45;&gt;Node6 -->
<g id="edge45" class="edge">
<title>Node23&#45;&gt;Node6</title>
<path fill="none" stroke="#191970" d="M1235.1644,-781.1962C1407.3696,-777.532 2099.2903,-761.4831 2315.0718,-736 2443.2697,-720.8603 2488.6571,-745.1972 2600.0718,-680 2661.5666,-644.0148 2704.0718,-629.2499 2704.0718,-558 2704.0718,-558 2704.0718,-558 2704.0718,-446 2704.0718,-348.9756 2578.3829,-303.3585 2499.8015,-284.3197"/>
<polygon fill="#191970" stroke="#191970" points="2500.5256,-280.8946 2489.9908,-282.0207 2498.9285,-287.71 2500.5256,-280.8946"/>
</g>
<!-- Node23&#45;&gt;Node18 -->
<g id="edge143" class="edge">
<title>Node23&#45;&gt;Node18</title>
<path fill="none" stroke="#191970" d="M1201.6788,-772.4834C1212.2492,-753.6141 1234.0718,-709.8343 1234.0718,-670 1234.0718,-670 1234.0718,-670 1234.0718,-502 1234.0718,-450.5883 1282.4164,-457.597 1329.0718,-436 1473.4721,-369.1564 1531.2892,-412.1621 1675.0718,-344 1705.9448,-329.3642 1737.1796,-304.8215 1756.0865,-288.6444"/>
<polygon fill="#191970" stroke="#191970" points="1758.3895,-291.28 1763.6291,-282.0715 1753.7906,-286.0027 1758.3895,-291.28"/>
</g>
<!-- Node23&#45;&gt;Node20 -->
<g id="edge144" class="edge">
<title>Node23&#45;&gt;Node20</title>
<path fill="none" stroke="#191970" d="M1156.9515,-776.0361C1074.8459,-762.415 892.0718,-725.8239 892.0718,-670 892.0718,-670 892.0718,-670 892.0718,-502 892.0718,-473.0141 913.8637,-391.5859 924.4424,-353.7648"/>
<polygon fill="#191970" stroke="#191970" points="927.8698,-354.5064 927.2156,-343.9317 921.1326,-352.6062 927.8698,-354.5064"/>
</g>
<!-- Node23&#45;&gt;Node22 -->
<g id="edge121" class="edge">
<title>Node23&#45;&gt;Node22</title>
<path fill="none" stroke="#191970" d="M1201.317,-791.6427C1202.7383,-798.9199 1203.1528,-809.155 1202.5605,-818.1575"/>
<polygon fill="#191970" stroke="#191970" points="1199.0665,-817.8972 1201.3387,-828.2455 1206.0157,-818.739 1199.0665,-817.8972"/>
</g>
<!-- Node24 -->
<g id="node24" class="node">
<title>Node24</title>
<g id="a_node24"><a xlink:href="_s_b_m_l_type_codes_8h.html" target="_top" xlink:title="Enumeration to identify SBML objects at runtime. ">
<polygon fill="#ffffff" stroke="#000000" points="2662.5718,-263 2662.5718,-282 2789.5718,-282 2789.5718,-263 2662.5718,-263"/>
<text text-anchor="middle" x="2726.0718" y="-270" font-family="Helvetica,sans-Serif" font-size="10.00" fill="#000000">sbml/SBMLTypeCodes.h</text>
</a>
</g>
</g>
<!-- Node23&#45;&gt;Node24 -->
<g id="edge46" class="edge">
<title>Node23&#45;&gt;Node24</title>
<path fill="none" stroke="#191970" d="M1235.2181,-781.7823C1418.4475,-780.5737 2192.4593,-773.3131 2431.0718,-736 2522.2711,-721.7387 2548.6493,-721.5599 2631.0718,-680 2714.1727,-638.098 2735.6714,-602.8039 2756.0718,-512 2774.2007,-431.3067 2746.5457,-332.6842 2732.9259,-291.7387"/>
<polygon fill="#191970" stroke="#191970" points="2736.2085,-290.5212 2729.6535,-282.1976 2729.5871,-292.7922 2736.2085,-290.5212"/>
</g>
<!-- Node25 -->
<g id="node25" class="node">
<title>Node25</title>
<g id="a_node25"><a xlink:href="_r_d_f_annotation_8h.html" target="_top" xlink:title="RDFAnnotation I/O. ">
<polygon fill="#ffffff" stroke="#000000" points="1521.5718,-716.5 1521.5718,-735.5 1688.5718,-735.5 1688.5718,-716.5 1521.5718,-716.5"/>
<text text-anchor="middle" x="1605.0718" y="-723.5" font-family="Helvetica,sans-Serif" font-size="10.00" fill="#000000">sbml/annotation/RDFAnnotation.h</text>
</a>
</g>
</g>
<!-- Node23&#45;&gt;Node25 -->
<g id="edge49" class="edge">
<title>Node23&#45;&gt;Node25</title>
<path fill="none" stroke="#191970" d="M1235.2885,-776.6305C1301.833,-767.5192 1438.1182,-748.8592 1525.3564,-736.9146"/>
<polygon fill="#191970" stroke="#191970" points="1526.0479,-740.3526 1535.4806,-735.5284 1525.0982,-733.4174 1526.0479,-740.3526"/>
</g>
<!-- Node28 -->
<g id="node28" class="node">
<title>Node28</title>
<g id="a_node28"><a xlink:href="_list_8h.html" target="_top" xlink:title="Simple, generic list utility class. ">
<polygon fill="#ffffff" stroke="#000000" points="2330.0718,-492.5 2330.0718,-511.5 2410.0718,-511.5 2410.0718,-492.5 2330.0718,-492.5"/>
<text text-anchor="middle" x="2370.0718" y="-499.5" font-family="Helvetica,sans-Serif" font-size="10.00" fill="#000000">sbml/util/List.h</text>
</a>
</g>
</g>
<!-- Node23&#45;&gt;Node28 -->
<g id="edge102" class="edge">
<title>Node23&#45;&gt;Node28</title>
<path fill="none" stroke="#191970" d="M1235.1774,-780.9597C1461.1768,-774.6974 2590.0718,-739.917 2590.0718,-670 2590.0718,-670 2590.0718,-670 2590.0718,-614 2590.0718,-538.2286 2485.1495,-513.6967 2420.2222,-505.7698"/>
<polygon fill="#191970" stroke="#191970" points="2420.4969,-502.2787 2410.1674,-504.6349 2419.7117,-509.2345 2420.4969,-502.2787"/>
</g>
<!-- Node30 -->
<g id="node30" class="node">
<title>Node30</title>
<g id="a_node30"><a xlink:href="_x_m_l_node_8h.html" target="_top" xlink:title="Class definition of XMLNode, a node in an XML document tree. ">
<polygon fill="#ffffff" stroke="#000000" points="2015.0718,-492.5 2015.0718,-511.5 2127.0718,-511.5 2127.0718,-492.5 2015.0718,-492.5"/>
<text text-anchor="middle" x="2071.0718" y="-499.5" font-family="Helvetica,sans-Serif" font-size="10.00" fill="#000000">sbml/xml/XMLNode.h</text>
</a>
</g>
</g>
<!-- Node23&#45;&gt;Node30 -->
<g id="edge134" class="edge">
<title>Node23&#45;&gt;Node30</title>
<path fill="none" stroke="#191970" d="M1235.3506,-781.2017C1406.315,-777.2179 2077.0718,-756.1012 2077.0718,-670 2077.0718,-670 2077.0718,-670 2077.0718,-614 2077.0718,-581.6653 2074.5473,-544.1547 2072.7734,-521.7876"/>
<polygon fill="#191970" stroke="#191970" points="2076.2416,-521.2576 2071.9315,-511.5791 2069.2653,-521.833 2076.2416,-521.2576"/>
</g>
<!-- Node38 -->
<g id="node38" class="node">
<title>Node38</title>
<g id="a_node38"><a xlink:href="_c_v_term_8h.html" target="_top" xlink:title="Definition of a CVTerm class for adding annotations to a Model. ">
<polygon fill="#ffffff" stroke="#000000" points="1468.5718,-492.5 1468.5718,-511.5 1603.5718,-511.5 1603.5718,-492.5 1468.5718,-492.5"/>
<text text-anchor="middle" x="1536.0718" y="-499.5" font-family="Helvetica,sans-Serif" font-size="10.00" fill="#000000">sbml/annotation/CVTerm.h</text>
</a>
</g>
</g>
<!-- Node23&#45;&gt;Node38 -->
<g id="edge92" class="edge">
<title>Node23&#45;&gt;Node38</title>
<path fill="none" stroke="#191970" d="M1207.7754,-772.3618C1257.7378,-731.2162 1453.4705,-570.0246 1516.442,-518.1657"/>
<polygon fill="#191970" stroke="#191970" points="1518.9231,-520.6566 1524.4175,-511.5977 1514.4732,-515.253 1518.9231,-520.6566"/>
</g>
<!-- Node39 -->
<g id="node39" class="node">
<title>Node39</title>
<g id="a_node39"><a xlink:href="_s_b_m_l_namespaces_8h.html" target="_top" xlink:title="SBMLNamespaces class to store level/version and namespace. ">
<polygon fill="#ffffff" stroke="#000000" points="996.0718,-380.5 996.0718,-399.5 1130.0718,-399.5 1130.0718,-380.5 996.0718,-380.5"/>
<text text-anchor="middle" x="1063.0718" y="-387.5" font-family="Helvetica,sans-Serif" font-size="10.00" fill="#000000">sbml/SBMLNamespaces.h</text>
</a>
</g>
</g>
<!-- Node23&#45;&gt;Node39 -->
<g id="edge103" class="edge">
<title>Node23&#45;&gt;Node39</title>
<path fill="none" stroke="#191970" d="M1181.4756,-772.2204C1169.9212,-763.8168 1154.1098,-750.7464 1144.0718,-736 1126.5083,-710.198 1120.0718,-701.2125 1120.0718,-670 1120.0718,-670 1120.0718,-670 1120.0718,-502 1120.0718,-471.4754 1115.3127,-462.9991 1101.0718,-436 1095.5625,-425.5551 1087.4244,-415.2907 1080.0913,-407.1174"/>
<polygon fill="#191970" stroke="#191970" points="1082.5447,-404.6168 1073.1537,-399.7118 1077.4362,-409.4025 1082.5447,-404.6168"/>
</g>
<!-- Node46 -->
<g id="node46" class="node">
<title>Node46</title>
<g id="a_node46"><a xlink:href="_s_b_m_l_constructor_exception_8h.html" target="_top" xlink:title="Definition of SBMLConstructorException, the exception class for constructor exceptions. ">
<polygon fill="#ffffff" stroke="#000000" points="920.0718,-436.5 920.0718,-455.5 1092.0718,-455.5 1092.0718,-436.5 920.0718,-436.5"/>
<text text-anchor="middle" x="1006.0718" y="-443.5" font-family="Helvetica,sans-Serif" font-size="10.00" fill="#000000">sbml/SBMLConstructorException.h</text>
</a>
</g>
</g>
<!-- Node23&#45;&gt;Node46 -->
<g id="edge122" class="edge">
<title>Node23&#45;&gt;Node46</title>
<path fill="none" stroke="#191970" d="M1159.2769,-772.4434C1114.292,-758.2795 1044.0718,-727.0354 1044.0718,-670 1044.0718,-670 1044.0718,-670 1044.0718,-558 1044.0718,-523.6118 1027.8084,-486.2832 1016.5608,-464.5791"/>
<polygon fill="#191970" stroke="#191970" points="1019.5029,-462.6605 1011.6788,-455.5166 1013.3402,-465.9804 1019.5029,-462.6605"/>
</g>
<!-- Node47 -->
<g id="node47" class="node">
<title>Node47</title>
<polygon fill="#ffffff" stroke="#bfbfbf" points="748.0718,-324.5 748.0718,-343.5 806.0718,-343.5 806.0718,-324.5 748.0718,-324.5"/>
<text text-anchor="middle" x="777.0718" y="-331.5" font-family="Helvetica,sans-Serif" font-size="10.00" fill="#000000">algorithm</text>
</g>
<!-- Node23&#45;&gt;Node47 -->
<g id="edge145" class="edge">
<title>Node23&#45;&gt;Node47</title>
<path fill="none" stroke="#191970" d="M1156.9837,-779.124C1071.9555,-772.5336 875.9551,-755.405 853.0718,-736 733.945,-634.981 773.2162,-554.4681 750.0718,-400 748.7547,-391.2092 747.7404,-388.5777 750.0718,-380 752.7894,-370.0015 758.2893,-359.9556 763.6202,-351.8139"/>
<polygon fill="#191970" stroke="#191970" points="766.5473,-353.7354 769.4099,-343.5346 760.8108,-349.7239 766.5473,-353.7354"/>
</g>
<!-- Node48 -->
<g id="node48" class="node">
<title>Node48</title>
<g id="a_node48"><a xlink:href="_expected_attributes_8h.html" target="_top" xlink:title="Definition of ExpectedAttributes, the class allowing the specification of attributes to expect...">
<polygon fill="#ffffff" stroke="#000000" points="768.5718,-380.5 768.5718,-399.5 901.5718,-399.5 901.5718,-380.5 768.5718,-380.5"/>
<text text-anchor="middle" x="835.0718" y="-387.5" font-family="Helvetica,sans-Serif" font-size="10.00" fill="#000000">sbml/ExpectedAttributes.h</text>
</a>
</g>
</g>
<!-- Node23&#45;&gt;Node48 -->
<g id="edge128" class="edge">
<title>Node23&#45;&gt;Node48</title>
<path fill="none" stroke="#191970" d="M1156.869,-780.7866C1081.9414,-777.7604 921.9398,-767.677 878.0718,-736 851.4835,-716.8006 845.0718,-702.7957 845.0718,-670 845.0718,-670 845.0718,-670 845.0718,-502 845.0718,-469.5831 840.8643,-432.0969 837.9077,-409.7572"/>
<polygon fill="#191970" stroke="#191970" points="841.3355,-408.992 836.5046,-399.5627 834.4009,-409.9466 841.3355,-408.992"/>
</g>
<!-- Node49 -->
<g id="node49" class="node">
<title>Node49</title>
<g id="a_node49"><a xlink:href="_x_m_l_error_8h.html" target="_top" xlink:title="Represents errors (and messages) encountered during an XML parse. ">
<polygon fill="#ffffff" stroke="#000000" points="978.0718,-324.5 978.0718,-343.5 1088.0718,-343.5 1088.0718,-324.5 978.0718,-324.5"/>
<text text-anchor="middle" x="1033.0718" y="-331.5" font-family="Helvetica,sans-Serif" font-size="10.00" fill="#000000">sbml/xml/XMLError.h</text>
</a>
</g>
</g>
<!-- Node23&#45;&gt;Node49 -->
<g id="edge135" class="edge">
<title>Node23&#45;&gt;Node49</title>
<path fill="none" stroke="#191970" d="M1190.4648,-772.4834C1179.8944,-753.6141 1158.0718,-709.8343 1158.0718,-670 1158.0718,-670 1158.0718,-670 1158.0718,-446 1158.0718,-415.4754 1159.2183,-402.9319 1139.0718,-380 1125.2532,-364.2709 1105.084,-353.7213 1086.039,-346.7423"/>
<polygon fill="#191970" stroke="#191970" points="1087.1128,-343.4107 1076.5183,-343.503 1084.858,-350.0376 1087.1128,-343.4107"/>
</g>
<!-- Node24&#45;&gt;Node2 -->
<g id="edge48" class="edge">
<title>Node24&#45;&gt;Node2</title>
<path fill="none" stroke="#191970" d="M2724.408,-262.9056C2719.0486,-235.2945 2699.4313,-155.5401 2647.0718,-123 2612.4492,-101.4829 1353.7182,-82.3722 1041.5707,-77.9568"/>
<polygon fill="#191970" stroke="#191970" points="1041.3525,-74.4535 1031.3041,-77.8121 1041.2538,-81.4528 1041.3525,-74.4535"/>
</g>
<!-- Node24&#45;&gt;Node7 -->
<g id="edge47" class="edge">
<title>Node24&#45;&gt;Node7</title>
<path fill="none" stroke="#191970" d="M2704.1506,-262.9005C2681.4342,-252.9528 2645.3203,-237.1382 2616.7463,-224.6254"/>
<polygon fill="#191970" stroke="#191970" points="2617.9394,-221.3271 2607.3752,-220.5218 2615.1315,-227.7392 2617.9394,-221.3271"/>
</g>
<!-- Node26 -->
<g id="node26" class="node">
<title>Node26</title>
<g id="a_node26"><a xlink:href="_r_d_f_annotation_parser_8h.html" target="_top" xlink:title="RDFAnnotationParser.h">
<polygon fill="#ffffff" stroke="#000000" points="1744.5718,-660.5 1744.5718,-679.5 1867.5718,-679.5 1867.5718,-660.5 1744.5718,-660.5"/>
<text text-anchor="middle" x="1806.0718" y="-667.5" font-family="Helvetica,sans-Serif" font-size="10.00" fill="#000000">RDFAnnotationParser.h</text>
</a>
</g>
</g>
<!-- Node25&#45;&gt;Node26 -->
<g id="edge50" class="edge">
<title>Node25&#45;&gt;Node26</title>
<path fill="none" stroke="#191970" d="M1639.6249,-716.3733C1673.4823,-706.9404 1725.2178,-692.5265 1762.0144,-682.2747"/>
<polygon fill="#191970" stroke="#191970" points="1763.2758,-685.5566 1771.9696,-679.5011 1761.3971,-678.8135 1763.2758,-685.5566"/>
</g>
<!-- Node26&#45;&gt;Node2 -->
<g id="edge51" class="edge">
<title>Node26&#45;&gt;Node2</title>
<path fill="none" stroke="#191970" d="M1867.8704,-667.3302C1984.9958,-661.7956 2235.0081,-647.5821 2318.0718,-624 2576.7471,-550.561 2896.1287,-507.7711 2799.0718,-257 2770.001,-181.8881 2750.2944,-156.5465 2677.0718,-123 2601.6671,-88.4538 1351.9457,-79.1411 1041.4677,-77.3559"/>
<polygon fill="#191970" stroke="#191970" points="1041.2748,-73.8548 1031.2551,-77.2979 1041.235,-80.8547 1041.2748,-73.8548"/>
</g>
<!-- Node26&#45;&gt;Node6 -->
<g id="edge52" class="edge">
<title>Node26&#45;&gt;Node6</title>
<path fill="none" stroke="#191970" d="M1867.6823,-666.2798C1976.24,-659.3322 2197.1925,-643.325 2272.0718,-624 2332.9864,-608.2791 2349.1302,-601.984 2402.0718,-568 2456.7603,-532.8947 2477.1636,-518.1747 2496.0718,-456 2503.3319,-432.1272 2499.1824,-424.9364 2500.0718,-400 2501.2934,-365.7534 2503.3297,-354.1662 2487.0718,-324 2479.8646,-310.6271 2468.2594,-298.2076 2458.152,-288.9165"/>
<polygon fill="#191970" stroke="#191970" points="2460.3028,-286.1472 2450.4798,-282.1774 2455.6832,-291.4065 2460.3028,-286.1472"/>
</g>
<!-- Node26&#45;&gt;Node15 -->
<g id="edge53" class="edge">
<title>Node26&#45;&gt;Node15</title>
<path fill="none" stroke="#191970" d="M1810.4107,-660.3521C1825.1517,-625.9698 1869.607,-507.6665 1818.0718,-436 1808.2154,-422.2933 1770.8611,-410.2854 1737.6439,-401.978"/>
<polygon fill="#191970" stroke="#191970" points="1738.046,-398.4742 1727.503,-399.5209 1736.3976,-405.2774 1738.046,-398.4742"/>
</g>
<!-- Node26&#45;&gt;Node18 -->
<g id="edge89" class="edge">
<title>Node26&#45;&gt;Node18</title>
<path fill="none" stroke="#191970" d="M1816.1375,-660.4395C1824.5703,-651.7804 1836.1516,-638.2321 1842.0718,-624 1864.7129,-569.5708 1863.7277,-550.3116 1855.0718,-492 1843.5142,-414.1401 1803.042,-328.3833 1784.0519,-291.2974"/>
<polygon fill="#191970" stroke="#191970" points="1787.0266,-289.4317 1779.3072,-282.1749 1780.8164,-292.6617 1787.0266,-289.4317"/>
</g>
<!-- Node27 -->
<g id="node27" class="node">
<title>Node27</title>
<g id="a_node27"><a xlink:href="_model_history_8h.html" target="_top" xlink:title="ModelHistory I/O. ">
<polygon fill="#ffffff" stroke="#000000" points="2105.5718,-604.5 2105.5718,-623.5 2262.5718,-623.5 2262.5718,-604.5 2105.5718,-604.5"/>
<text text-anchor="middle" x="2184.0718" y="-611.5" font-family="Helvetica,sans-Serif" font-size="10.00" fill="#000000">sbml/annotation/ModelHistory.h</text>
</a>
</g>
</g>
<!-- Node26&#45;&gt;Node27 -->
<g id="edge54" class="edge">
<title>Node26&#45;&gt;Node27</title>
<path fill="none" stroke="#191970" d="M1867.6453,-660.878C1933.7446,-651.0855 2038.7662,-635.5268 2109.4989,-625.0478"/>
<polygon fill="#191970" stroke="#191970" points="2110.2983,-628.4677 2119.6774,-623.5399 2109.2724,-621.5433 2110.2983,-628.4677"/>
</g>
<!-- Node32 -->
<g id="node32" class="node">
<title>Node32</title>
<polygon fill="#ffffff" stroke="#bfbfbf" points="1764.5718,-436.5 1764.5718,-455.5 1809.5718,-455.5 1809.5718,-436.5 1764.5718,-436.5"/>
<text text-anchor="middle" x="1787.0718" y="-443.5" font-family="Helvetica,sans-Serif" font-size="10.00" fill="#000000">cstdlib</text>
</g>
<!-- Node26&#45;&gt;Node32 -->
<g id="edge91" class="edge">
<title>Node26&#45;&gt;Node32</title>
<path fill="none" stroke="#191970" d="M1805.2554,-660.375C1802.3808,-626.4851 1792.6897,-512.2317 1788.7541,-465.8332"/>
<polygon fill="#191970" stroke="#191970" points="1792.2179,-465.2575 1787.8852,-455.5891 1785.243,-465.8492 1792.2179,-465.2575"/>
</g>
<!-- Node35 -->
<g id="node35" class="node">
<title>Node35</title>
<polygon fill="#ffffff" stroke="#bfbfbf" points="1338.5718,-436.5 1338.5718,-455.5 1377.5718,-455.5 1377.5718,-436.5 1338.5718,-436.5"/>
<text text-anchor="middle" x="1358.0718" y="-443.5" font-family="Helvetica,sans-Serif" font-size="10.00" fill="#000000">limits</text>
</g>
<!-- Node26&#45;&gt;Node35 -->
<g id="edge87" class="edge">
<title>Node26&#45;&gt;Node35</title>
<path fill="none" stroke="#191970" d="M1744.5549,-665.4679C1694.7802,-660.113 1623.733,-648.5836 1566.0718,-624 1479.4528,-587.0704 1402.3278,-500.6934 1371.8794,-463.5209"/>
<polygon fill="#191970" stroke="#191970" points="1374.4776,-461.1671 1365.4755,-455.5802 1369.0287,-465.5615 1374.4776,-461.1671"/>
</g>
<!-- Node36 -->
<g id="node36" class="node">
<title>Node36</title>
<polygon fill="#ffffff" stroke="#bfbfbf" points="1434.0718,-436.5 1434.0718,-455.5 1486.0718,-455.5 1486.0718,-436.5 1434.0718,-436.5"/>
<text text-anchor="middle" x="1460.0718" y="-443.5" font-family="Helvetica,sans-Serif" font-size="10.00" fill="#000000">iomanip</text>
</g>
<!-- Node26&#45;&gt;Node36 -->
<g id="edge88" class="edge">
<title>Node26&#45;&gt;Node36</title>
<path fill="none" stroke="#191970" d="M1744.407,-662.1174C1662.8827,-648.0199 1522.2018,-610.1113 1459.0718,-512 1450.3624,-498.4645 1451.5107,-479.9147 1454.3217,-465.9269"/>
<polygon fill="#191970" stroke="#191970" points="1457.8052,-466.4148 1456.7758,-455.8701 1451.0048,-464.7553 1457.8052,-466.4148"/>
</g>
<!-- Node37 -->
<g id="node37" class="node">
<title>Node37</title>
<polygon fill="#ffffff" stroke="#bfbfbf" points="1694.0718,-436.5 1694.0718,-455.5 1746.0718,-455.5 1746.0718,-436.5 1694.0718,-436.5"/>
<text text-anchor="middle" x="1720.0718" y="-443.5" font-family="Helvetica,sans-Serif" font-size="10.00" fill="#000000">sstream</text>
</g>
<!-- Node26&#45;&gt;Node37 -->
<g id="edge90" class="edge">
<title>Node26&#45;&gt;Node37</title>
<path fill="none" stroke="#191970" d="M1802.3765,-660.375C1789.2825,-626.2697 1744.9412,-510.7761 1727.3498,-464.9567"/>
<polygon fill="#191970" stroke="#191970" points="1730.6051,-463.6703 1723.7534,-455.5891 1724.0702,-466.1792 1730.6051,-463.6703"/>
</g>
<!-- Node27&#45;&gt;Node2 -->
<g id="edge55" class="edge">
<title>Node27&#45;&gt;Node2</title>
<path fill="none" stroke="#191970" d="M2242.9305,-604.4657C2297.4308,-595.118 2374.1314,-580.4925 2402.0718,-568 2517.3073,-516.477 2550.3762,-497.0672 2631.0718,-400 2653.9874,-372.4353 2671.5382,-357.2204 2658.0718,-324 2642.4857,-285.5506 2627.2999,-280.4462 2593.0718,-257 2559.2249,-233.8149 2545.0192,-238.834 2508.0718,-221 2452.0102,-193.9398 2437.937,-186.87 2385.0718,-154 2364.7568,-141.3687 2363.7513,-130.6085 2341.0718,-123 2279.023,-102.184 1311.1078,-83.1486 1041.3747,-78.2278"/>
<polygon fill="#191970" stroke="#191970" points="1041.3813,-74.7275 1031.3193,-78.045 1041.254,-81.7263 1041.3813,-74.7275"/>
</g>
<!-- Node27&#45;&gt;Node6 -->
<g id="edge56" class="edge">
<title>Node27&#45;&gt;Node6</title>
<path fill="none" stroke="#191970" d="M2251.7533,-604.4217C2288.3591,-597.523 2333.6118,-586.1471 2371.0718,-568 2407.5558,-550.3257 2416.9313,-542.986 2443.0718,-512 2497.5025,-447.48 2498.2356,-403.5759 2470.0718,-324 2465.8134,-311.9681 2458.4104,-299.7807 2451.7968,-290.2842"/>
<polygon fill="#191970" stroke="#191970" points="2454.5462,-288.1143 2445.8262,-282.0967 2448.8904,-292.2388 2454.5462,-288.1143"/>
</g>
<!-- Node27&#45;&gt;Node17 -->
<g id="edge57" class="edge">
<title>Node27&#45;&gt;Node17</title>
<path fill="none" stroke="#191970" d="M2105.3496,-611.4544C1919.9102,-604.3826 1461.0298,-580.3029 1325.0718,-512 1249.0024,-473.7841 1245.2423,-428.2549 1233.0718,-344 1230.8714,-328.7668 1230.0981,-311.5332 1229.886,-297.8026"/>
<polygon fill="#191970" stroke="#191970" points="1233.385,-297.6239 1229.8196,-287.647 1226.3851,-297.6697 1233.385,-297.6239"/>
</g>
<!-- Node27&#45;&gt;Node18 -->
<g id="edge86" class="edge">
<title>Node27&#45;&gt;Node18</title>
<path fill="none" stroke="#191970" d="M2181.7825,-604.2555C2173.8077,-570.9748 2146.4609,-462.4132 2123.0718,-436 2100.048,-409.9992 1884.8158,-318.6309 1804.2873,-285.0252"/>
<polygon fill="#191970" stroke="#191970" points="1805.2965,-281.6542 1794.7195,-281.0399 1802.6049,-288.116 1805.2965,-281.6542"/>
</g>
<!-- Node27&#45;&gt;Node28 -->
<g id="edge58" class="edge">
<title>Node27&#45;&gt;Node28</title>
<path fill="none" stroke="#191970" d="M2241.8281,-604.47C2284.021,-596.3831 2336.47,-583.6175 2352.0718,-568 2364.2457,-555.8139 2368.403,-536.2523 2369.7198,-521.5833"/>
<polygon fill="#191970" stroke="#191970" points="2373.2187,-521.6957 2370.2588,-511.5227 2366.2287,-521.3211 2373.2187,-521.6957"/>
</g>
<!-- Node27&#45;&gt;Node30 -->
<g id="edge61" class="edge">
<title>Node27&#45;&gt;Node30</title>
<path fill="none" stroke="#191970" d="M2174.4375,-604.4509C2155.2569,-585.4401 2112.077,-542.6423 2088.038,-518.816"/>
<polygon fill="#191970" stroke="#191970" points="2090.2481,-516.0786 2080.6817,-511.5249 2085.3203,-521.0503 2090.2481,-516.0786"/>
</g>
<!-- Node33 -->
<g id="node33" class="node">
<title>Node33</title>
<g id="a_node33"><a xlink:href="_date_8h.html" target="_top" xlink:title="Date I/O. ">
<polygon fill="#ffffff" stroke="#000000" points="1929.5718,-548.5 1929.5718,-567.5 2048.5718,-567.5 2048.5718,-548.5 1929.5718,-548.5"/>
<text text-anchor="middle" x="1989.0718" y="-555.5" font-family="Helvetica,sans-Serif" font-size="10.00" fill="#000000">sbml/annotation/Date.h</text>
</a>
</g>
</g>
<!-- Node27&#45;&gt;Node33 -->
<g id="edge72" class="edge">
<title>Node27&#45;&gt;Node33</title>
<path fill="none" stroke="#191970" d="M2150.5501,-604.3733C2117.7035,-594.9404 2067.5123,-580.5265 2031.814,-570.2747"/>
<polygon fill="#191970" stroke="#191970" points="2032.7337,-566.8974 2022.1561,-567.5011 2030.8015,-573.6255 2032.7337,-566.8974"/>
</g>
<!-- Node34 -->
<g id="node34" class="node">
<title>Node34</title>
<g id="a_node34"><a xlink:href="_model_creator_8h.html" target="_top" xlink:title="ModelCreator I/O. ">
<polygon fill="#ffffff" stroke="#000000" points="2183.5718,-548.5 2183.5718,-567.5 2342.5718,-567.5 2342.5718,-548.5 2183.5718,-548.5"/>
<text text-anchor="middle" x="2263.0718" y="-555.5" font-family="Helvetica,sans-Serif" font-size="10.00" fill="#000000">sbml/annotation/ModelCreator.h</text>
</a>
</g>
</g>
<!-- Node27&#45;&gt;Node34 -->
<g id="edge79" class="edge">
<title>Node27&#45;&gt;Node34</title>
<path fill="none" stroke="#191970" d="M2197.8326,-604.2455C2209.727,-595.814 2227.1368,-583.4729 2240.9804,-573.6598"/>
<polygon fill="#191970" stroke="#191970" points="2243.3346,-576.2811 2249.4688,-567.6427 2239.2864,-570.5704 2243.3346,-576.2811"/>
</g>
<!-- Node28&#45;&gt;Node2 -->
<g id="edge59" class="edge">
<title>Node28&#45;&gt;Node2</title>
<path fill="none" stroke="#191970" d="M2370.0184,-492.2523C2370.5056,-477.6805 2373.7127,-450.3948 2390.0718,-436 2462.479,-372.2871 2522.9054,-452.0974 2604.0718,-400 2635.8531,-379.6009 2659.3692,-357.5704 2642.0718,-324 2618.5731,-278.394 2593.0984,-281.5908 2548.0718,-257 2510.2618,-236.3505 2496.4823,-240.5099 2458.0718,-221 2408.0459,-195.5903 2398.4177,-184.11 2351.0718,-154 2329.6426,-140.3719 2327.303,-130.6018 2303.0718,-123 2182.5777,-85.1989 1298.3767,-78.4153 1041.7273,-77.2388"/>
<polygon fill="#191970" stroke="#191970" points="1041.4356,-73.7375 1031.4201,-77.193 1041.4045,-80.7375 1041.4356,-73.7375"/>
</g>
<!-- Node29 -->
<g id="node29" class="node">
<title>Node29</title>
<polygon fill="#ffffff" stroke="#bfbfbf" points="2398.5718,-436.5 2398.5718,-455.5 2447.5718,-455.5 2447.5718,-436.5 2398.5718,-436.5"/>
<text text-anchor="middle" x="2423.0718" y="-443.5" font-family="Helvetica,sans-Serif" font-size="10.00" fill="#000000">string.h</text>
</g>
<!-- Node28&#45;&gt;Node29 -->
<g id="edge60" class="edge">
<title>Node28&#45;&gt;Node29</title>
<path fill="none" stroke="#191970" d="M2379.3037,-492.2455C2386.9036,-484.2155 2397.8595,-472.6394 2406.9086,-463.0781"/>
<polygon fill="#191970" stroke="#191970" points="2409.6139,-465.3115 2413.9457,-455.6427 2404.5298,-460.4998 2409.6139,-465.3115"/>
</g>
<!-- Node30&#45;&gt;Node6 -->
<g id="edge69" class="edge">
<title>Node30&#45;&gt;Node6</title>
<path fill="none" stroke="#191970" d="M2123.2576,-492.4286C2163.7804,-484.4009 2221.1216,-471.7329 2270.0718,-456 2292.0744,-448.9282 2296.5819,-444.5032 2318.0718,-436 2360.4434,-419.2342 2384.7495,-434.8805 2414.0718,-400 2439.8167,-369.3751 2441.3897,-319.8666 2439.9398,-292.4228"/>
<polygon fill="#191970" stroke="#191970" points="2443.4078,-291.8526 2439.195,-282.1314 2436.4261,-292.358 2443.4078,-291.8526"/>
</g>
<!-- Node30&#45;&gt;Node16 -->
<g id="edge62" class="edge">
<title>Node30&#45;&gt;Node16</title>
<path fill="none" stroke="#191970" d="M2084.3779,-492.4627C2113.7771,-470.4138 2183.4495,-412.5218 2206.0718,-344 2208.8585,-335.5592 2210.3508,-331.7912 2206.0718,-324 2196.6837,-306.906 2178.9511,-294.6783 2162.4654,-286.4399"/>
<polygon fill="#191970" stroke="#191970" points="2163.5204,-283.0714 2152.9755,-282.0437 2160.578,-289.4229 2163.5204,-283.0714"/>
</g>
<!-- Node30&#45;&gt;Node19 -->
<g id="edge70" class="edge">
<title>Node30&#45;&gt;Node19</title>
<path fill="none" stroke="#191970" d="M2051.2879,-492.427C2002.3283,-469.1697 1871.0663,-409.4469 1755.0718,-380 1634.3151,-349.3441 1577.0488,-418.3409 1477.0718,-344 1460.5791,-331.7363 1452.407,-309.0348 1448.4792,-292.4927"/>
<polygon fill="#191970" stroke="#191970" points="1451.814,-291.3285 1446.388,-282.2286 1444.955,-292.7261 1451.814,-291.3285"/>
</g>
<!-- Node31 -->
<g id="node31" class="node">
<title>Node31</title>
<g id="a_node31"><a xlink:href="_x_m_l_token_8h.html" target="_top" xlink:title="A unit of XML syntax, either an XML element or text. ">
<polygon fill="#ffffff" stroke="#000000" points="1980.5718,-436.5 1980.5718,-455.5 2095.5718,-455.5 2095.5718,-436.5 1980.5718,-436.5"/>
<text text-anchor="middle" x="2038.0718" y="-443.5" font-family="Helvetica,sans-Serif" font-size="10.00" fill="#000000">sbml/xml/XMLToken.h</text>
</a>
</g>
</g>
<!-- Node30&#45;&gt;Node31 -->
<g id="edge63" class="edge">
<title>Node30&#45;&gt;Node31</title>
<path fill="none" stroke="#191970" d="M2065.3237,-492.2455C2060.8283,-484.617 2054.447,-473.7881 2048.9894,-464.5267"/>
<polygon fill="#191970" stroke="#191970" points="2051.8465,-462.4811 2043.7541,-455.6427 2045.8157,-466.035 2051.8465,-462.4811"/>
</g>
<!-- Node30&#45;&gt;Node32 -->
<g id="edge71" class="edge">
<title>Node30&#45;&gt;Node32</title>
<path fill="none" stroke="#191970" d="M2022.5732,-492.4369C1964.5944,-481.0045 1869.1791,-462.1902 1819.4674,-452.3879"/>
<polygon fill="#191970" stroke="#191970" points="1820.0713,-448.9396 1809.5831,-450.4388 1818.717,-455.8074 1820.0713,-448.9396"/>
</g>
<!-- Node31&#45;&gt;Node6 -->
<g id="edge67" class="edge">
<title>Node31&#45;&gt;Node6</title>
<path fill="none" stroke="#191970" d="M2077.9111,-436.4493C2136.8258,-421.4535 2249.734,-389.3437 2338.0718,-344 2368.5046,-328.3789 2400.0295,-304.2905 2419.3493,-288.461"/>
<polygon fill="#191970" stroke="#191970" points="2421.6309,-291.1158 2427.0813,-282.0304 2417.1549,-285.7338 2421.6309,-291.1158"/>
</g>
<!-- Node31&#45;&gt;Node15 -->
<g id="edge65" class="edge">
<title>Node31&#45;&gt;Node15</title>
<path fill="none" stroke="#191970" d="M1980.3168,-436.9404C1917.9986,-427.165 1818.7167,-411.5914 1751.7743,-401.0906"/>
<polygon fill="#191970" stroke="#191970" points="1752.1515,-397.607 1741.7299,-399.515 1751.0667,-404.5225 1752.1515,-397.607"/>
</g>
<!-- Node31&#45;&gt;Node16 -->
<g id="edge64" class="edge">
<title>Node31&#45;&gt;Node16</title>
<path fill="none" stroke="#191970" d="M2067.0412,-436.3833C2103.5983,-422.4963 2164.861,-392.9753 2191.0718,-344 2203.246,-321.2524 2177.4037,-300.1986 2154.5722,-286.9139"/>
<polygon fill="#191970" stroke="#191970" points="2156.1833,-283.8055 2145.7352,-282.0484 2152.8071,-289.9375 2156.1833,-283.8055"/>
</g>
<!-- Node31&#45;&gt;Node18 -->
<g id="edge68" class="edge">
<title>Node31&#45;&gt;Node18</title>
<path fill="none" stroke="#191970" d="M2025.2534,-436.4008C1996.816,-415.2423 1926.0561,-363.3481 1864.0718,-324 1843.2344,-310.7723 1818.9025,-296.9418 1800.7957,-286.9481"/>
<polygon fill="#191970" stroke="#191970" points="1802.397,-283.8345 1791.9459,-282.0952 1799.0313,-289.9723 1802.397,-283.8345"/>
</g>
<!-- Node31&#45;&gt;Node31 -->
<g id="edge66" class="edge">
<title>Node31&#45;&gt;Node31</title>
<path fill="none" stroke="#191970" d="M2070.2727,-455.5252C2092.1523,-458.3079 2113.5718,-455.1328 2113.5718,-446 2113.5718,-438.2942 2098.323,-434.8298 2080.4151,-435.6068"/>
<polygon fill="#191970" stroke="#191970" points="2079.9378,-432.1347 2070.2727,-436.4748 2080.5348,-439.1092 2079.9378,-432.1347"/>
</g>
<!-- Node33&#45;&gt;Node2 -->
<g id="edge73" class="edge">
<title>Node33&#45;&gt;Node2</title>
<path fill="none" stroke="#191970" d="M1929.3863,-555.2232C1810.2184,-549.285 1546.7329,-534.0721 1459.0718,-512 1398.0654,-496.6393 1363.6547,-508.5524 1329.0718,-456 1324.1855,-448.5747 1327.6843,-444.7799 1329.0718,-436 1340.9958,-360.5472 1382.0718,-348.8892 1382.0718,-272.5 1382.0718,-272.5 1382.0718,-272.5 1382.0718,-205.5 1382.0718,-134.9205 1158.0424,-98.4713 1041.1876,-84.2599"/>
<polygon fill="#191970" stroke="#191970" points="1041.5959,-80.7839 1031.2515,-83.0737 1040.766,-87.7345 1041.5959,-80.7839"/>
</g>
<!-- Node33&#45;&gt;Node6 -->
<g id="edge74" class="edge">
<title>Node33&#45;&gt;Node6</title>
<path fill="none" stroke="#191970" d="M1988.7886,-548.0764C1988.9352,-533.7764 1991.3652,-507.4054 2006.0718,-492 2043.6397,-452.6471 2072.2236,-475.3509 2123.0718,-456 2234.97,-413.4158 2270.1017,-412.822 2368.0718,-344 2389.9006,-328.6657 2410.7289,-306.0007 2423.9025,-290.3172"/>
<polygon fill="#191970" stroke="#191970" points="2426.7512,-292.3633 2430.3914,-282.4134 2421.3409,-287.9215 2426.7512,-292.3633"/>
</g>
<!-- Node33&#45;&gt;Node17 -->
<g id="edge75" class="edge">
<title>Node33&#45;&gt;Node17</title>
<path fill="none" stroke="#191970" d="M1929.3386,-549.5726C1924.5164,-549.0007 1919.7154,-548.4671 1915.0718,-548 1794.7476,-535.8955 1485.6461,-553.5369 1372.0718,-512 1305.3653,-487.6038 1286.1356,-465.2485 1258.0718,-400 1243.577,-366.2994 1236.2177,-324.2394 1232.7655,-297.8663"/>
<polygon fill="#191970" stroke="#191970" points="1236.1979,-297.0982 1231.5158,-287.5941 1229.2492,-297.9436 1236.1979,-297.0982"/>
</g>
<!-- Node33&#45;&gt;Node18 -->
<g id="edge78" class="edge">
<title>Node33&#45;&gt;Node18</title>
<path fill="none" stroke="#191970" d="M1983.1407,-548.1846C1962.9895,-515.1417 1894.5913,-405.4602 1826.0718,-324 1815.6437,-311.6025 1802.7044,-298.7794 1792.3419,-289.0299"/>
<polygon fill="#191970" stroke="#191970" points="1794.7184,-286.4605 1785.0042,-282.2315 1789.961,-291.5954 1794.7184,-286.4605"/>
</g>
<!-- Node33&#45;&gt;Node28 -->
<g id="edge76" class="edge">
<title>Node33&#45;&gt;Node28</title>
<path fill="none" stroke="#191970" d="M2048.6031,-549.25C2123.1549,-538.2922 2249.5747,-519.7109 2319.6042,-509.4178"/>
<polygon fill="#191970" stroke="#191970" points="2320.5438,-512.8174 2329.9285,-507.9003 2319.5258,-505.8918 2320.5438,-512.8174"/>
</g>
<!-- Node33&#45;&gt;Node30 -->
<g id="edge77" class="edge">
<title>Node33&#45;&gt;Node30</title>
<path fill="none" stroke="#191970" d="M2003.3551,-548.2455C2015.8189,-539.7337 2034.1169,-527.2375 2048.551,-517.3801"/>
<polygon fill="#191970" stroke="#191970" points="2050.668,-520.1726 2056.9522,-511.6427 2046.7203,-514.392 2050.668,-520.1726"/>
</g>
<!-- Node34&#45;&gt;Node2 -->
<g id="edge80" class="edge">
<title>Node34&#45;&gt;Node2</title>
<path fill="none" stroke="#191970" d="M2271.6649,-548.112C2282.9402,-535.1628 2303.3749,-511.7814 2321.0718,-492 2343.5169,-466.9111 2345.8765,-457.1433 2372.0718,-436 2396.8667,-415.987 2410.6985,-421.6564 2434.0718,-400 2478.3824,-358.9444 2493.1544,-345.6884 2511.0718,-288 2515.1585,-274.8423 2520.2308,-267.2927 2511.0718,-257 2461.3105,-201.0794 1334.3688,-106.3049 1041.2451,-82.5336"/>
<polygon fill="#191970" stroke="#191970" points="1041.4226,-79.0366 1031.1727,-81.7181 1040.8576,-86.0138 1041.4226,-79.0366"/>
</g>
<!-- Node34&#45;&gt;Node6 -->
<g id="edge81" class="edge">
<title>Node34&#45;&gt;Node6</title>
<path fill="none" stroke="#191970" d="M2331.3766,-548.4116C2360.4788,-541.7844 2393.5308,-530.6486 2419.0718,-512 2443.3638,-494.2633 2448.2378,-484.7515 2457.0718,-456 2474.812,-398.2625 2456.1033,-326.0083 2445.0205,-291.9596"/>
<polygon fill="#191970" stroke="#191970" points="2448.2749,-290.6582 2441.746,-282.3141 2441.6465,-292.9085 2448.2749,-290.6582"/>
</g>
<!-- Node34&#45;&gt;Node17 -->
<g id="edge82" class="edge">
<title>Node34&#45;&gt;Node17</title>
<path fill="none" stroke="#191970" d="M2183.2435,-553.8142C1981.6208,-543.1929 1467.2336,-515.7677 1459.0718,-512 1458.2263,-511.6097 1308.7383,-354.9618 1251.7735,-295.2506"/>
<polygon fill="#191970" stroke="#191970" points="1254.1172,-292.6367 1244.6821,-287.817 1249.0522,-297.4686 1254.1172,-292.6367"/>
</g>
<!-- Node34&#45;&gt;Node18 -->
<g id="edge85" class="edge">
<title>Node34&#45;&gt;Node18</title>
<path fill="none" stroke="#191970" d="M2259.5984,-548.1526C2248.4666,-518.0511 2210.7012,-426.4883 2148.0718,-380 2144.4965,-377.3462 1892.9818,-306.1057 1804.4725,-281.0867"/>
<polygon fill="#191970" stroke="#191970" points="1805.3263,-277.691 1794.7513,-278.3394 1803.4225,-284.4272 1805.3263,-277.691"/>
</g>
<!-- Node34&#45;&gt;Node28 -->
<g id="edge83" class="edge">
<title>Node34&#45;&gt;Node28</title>
<path fill="none" stroke="#191970" d="M2281.7098,-548.2455C2298.5105,-539.4527 2323.4353,-526.4079 2342.5336,-516.4125"/>
<polygon fill="#191970" stroke="#191970" points="2344.4104,-519.3807 2351.6474,-511.6427 2341.1645,-513.1787 2344.4104,-519.3807"/>
</g>
<!-- Node34&#45;&gt;Node30 -->
<g id="edge84" class="edge">
<title>Node34&#45;&gt;Node30</title>
<path fill="none" stroke="#191970" d="M2230.0658,-548.3733C2197.8627,-538.9807 2148.7276,-524.6496 2113.6079,-514.4064"/>
<polygon fill="#191970" stroke="#191970" points="2114.2271,-510.9412 2103.6471,-511.5011 2112.2671,-517.6612 2114.2271,-510.9412"/>
</g>
<!-- Node38&#45;&gt;Node2 -->
<g id="edge93" class="edge">
<title>Node38&#45;&gt;Node2</title>
<path fill="none" stroke="#191970" d="M1468.5461,-499.048C1329.6774,-492.6463 1016.2795,-476.4065 911.0718,-456 830.903,-440.4501 785.9668,-464.6477 736.0718,-400 715.418,-373.2393 721.0878,-355.6085 733.0718,-324 775.3749,-212.4229 823.4419,-203.9939 911.0718,-123 922.8701,-112.0952 937.1596,-101.2116 948.9417,-92.7705"/>
<polygon fill="#191970" stroke="#191970" points="951.2167,-95.4493 957.38,-86.8316 947.1878,-89.7249 951.2167,-95.4493"/>
</g>
<!-- Node38&#45;&gt;Node6 -->
<g id="edge94" class="edge">
<title>Node38&#45;&gt;Node6</title>
<path fill="none" stroke="#191970" d="M1553.8548,-492.3319C1581.2347,-477.8642 1635.7266,-450.7125 1685.0718,-436 1927.2026,-363.8078 2001.8686,-408.8367 2246.0718,-344 2304.4549,-328.4991 2369.8711,-302.0992 2407.2967,-286.082"/>
<polygon fill="#191970" stroke="#191970" points="2408.8399,-289.2281 2416.6344,-282.052 2406.0661,-282.8011 2408.8399,-289.2281"/>
</g>
<!-- Node38&#45;&gt;Node15 -->
<g id="edge96" class="edge">
<title>Node38&#45;&gt;Node15</title>
<path fill="none" stroke="#191970" d="M1546.892,-492.242C1561.6939,-479.0346 1589.2546,-454.9428 1614.0718,-436 1628.1966,-425.2187 1644.6387,-413.9126 1657.6999,-405.2072"/>
<polygon fill="#191970" stroke="#191970" points="1659.7193,-408.0679 1666.1321,-399.6343 1655.8596,-402.2281 1659.7193,-408.0679"/>
</g>
<!-- Node38&#45;&gt;Node17 -->
<g id="edge95" class="edge">
<title>Node38&#45;&gt;Node17</title>
<path fill="none" stroke="#191970" d="M1531.7083,-492.0737C1525.2556,-478.2386 1512.076,-452.9523 1495.0718,-436 1458.765,-399.804 1330.7886,-327.4917 1266.9099,-292.4502"/>
<polygon fill="#191970" stroke="#191970" points="1268.4218,-289.2878 1257.9689,-287.5593 1265.0624,-295.429 1268.4218,-289.2878"/>
</g>
<!-- Node38&#45;&gt;Node18 -->
<g id="edge99" class="edge">
<title>Node38&#45;&gt;Node18</title>
<path fill="none" stroke="#191970" d="M1539.1077,-492.196C1546.7196,-469.2049 1568.7994,-411.3963 1607.0718,-380 1645.2134,-348.711 1671.1714,-371.5851 1712.0718,-344 1733.0235,-329.8692 1751.1802,-306.9076 1762.337,-290.8279"/>
<polygon fill="#191970" stroke="#191970" points="1765.4089,-292.5309 1768.0653,-282.2745 1759.5927,-288.6357 1765.4089,-292.5309"/>
</g>
<!-- Node38&#45;&gt;Node32 -->
<g id="edge101" class="edge">
<title>Node38&#45;&gt;Node32</title>
<path fill="none" stroke="#191970" d="M1588.6145,-492.4309C1630.9213,-484.3942 1692.082,-472.0326 1754.4126,-455.9801"/>
<polygon fill="#191970" stroke="#191970" points="1755.629,-459.2802 1764.4237,-453.3722 1753.8643,-452.5062 1755.629,-459.2802"/>
</g>
<!-- Node38&#45;&gt;Node35 -->
<g id="edge97" class="edge">
<title>Node38&#45;&gt;Node35</title>
<path fill="none" stroke="#191970" d="M1505.4725,-492.3733C1472.4655,-481.989 1420.2714,-465.5684 1387.6619,-455.3092"/>
<polygon fill="#191970" stroke="#191970" points="1388.4012,-451.8728 1377.8117,-452.2103 1386.3004,-458.5501 1388.4012,-451.8728"/>
</g>
<!-- Node38&#45;&gt;Node36 -->
<g id="edge98" class="edge">
<title>Node38&#45;&gt;Node36</title>
<path fill="none" stroke="#191970" d="M1522.8336,-492.2455C1511.3908,-483.814 1494.6422,-471.4729 1481.3244,-461.6598"/>
<polygon fill="#191970" stroke="#191970" points="1483.2851,-458.757 1473.1583,-455.6427 1479.1327,-464.3924 1483.2851,-458.757"/>
</g>
<!-- Node38&#45;&gt;Node37 -->
<g id="edge100" class="edge">
<title>Node38&#45;&gt;Node37</title>
<path fill="none" stroke="#191970" d="M1567.7025,-492.3733C1600.0144,-482.5392 1650.114,-467.2915 1683.9618,-456.99"/>
<polygon fill="#191970" stroke="#191970" points="1685.3591,-460.2233 1693.9068,-453.9633 1683.321,-453.5266 1685.3591,-460.2233"/>
</g>
<!-- Node39&#45;&gt;Node18 -->
<g id="edge119" class="edge">
<title>Node39&#45;&gt;Node18</title>
<path fill="none" stroke="#191970" d="M1120.6537,-380.484C1264.3072,-356.7438 1634.7683,-295.5213 1743.5869,-277.5379"/>
<polygon fill="#191970" stroke="#191970" points="1744.2739,-280.972 1753.5694,-275.8882 1743.1325,-274.0656 1744.2739,-280.972"/>
</g>
<!-- Node39&#45;&gt;Node20 -->
<g id="edge120" class="edge">
<title>Node39&#45;&gt;Node20</title>
<path fill="none" stroke="#191970" d="M1040.2083,-380.3733C1018.6669,-371.3032 986.1881,-357.6279 962.0762,-347.4755"/>
<polygon fill="#191970" stroke="#191970" points="963.2116,-344.156 952.637,-343.5011 960.4951,-350.6075 963.2116,-344.156"/>
</g>
<!-- Node40 -->
<g id="node40" class="node">
<title>Node40</title>
<g id="a_node40"><a xlink:href="_x_m_l_namespaces_8h.html" target="_top" xlink:title="A list of XMLNamespace declarations (URI/prefix pairs) ">
<polygon fill="#ffffff" stroke="#000000" points="1486.0718,-324.5 1486.0718,-343.5 1632.0718,-343.5 1632.0718,-324.5 1486.0718,-324.5"/>
<text text-anchor="middle" x="1559.0718" y="-331.5" font-family="Helvetica,sans-Serif" font-size="10.00" fill="#000000">sbml/xml/XMLNamespaces.h</text>
</a>
</g>
</g>
<!-- Node39&#45;&gt;Node40 -->
<g id="edge104" class="edge">
<title>Node39&#45;&gt;Node40</title>
<path fill="none" stroke="#191970" d="M1130.2225,-382.4185C1219.8123,-372.3035 1378.4043,-354.3979 1475.5899,-343.4254"/>
<polygon fill="#191970" stroke="#191970" points="1476.1272,-346.887 1485.6714,-342.2871 1475.3418,-339.9312 1476.1272,-346.887"/>
</g>
<!-- Node41 -->
<g id="node41" class="node">
<title>Node41</title>
<g id="a_node41"><a xlink:href="common_8h.html" target="_top" xlink:title="Common functions and macros for C and C++. ">
<polygon fill="#ffffff" stroke="#000000" points="450.0718,-324.5 450.0718,-343.5 578.0718,-343.5 578.0718,-324.5 450.0718,-324.5"/>
<text text-anchor="middle" x="514.0718" y="-331.5" font-family="Helvetica,sans-Serif" font-size="10.00" fill="#000000">sbml/common/common.h</text>
</a>
</g>
</g>
<!-- Node39&#45;&gt;Node41 -->
<g id="edge110" class="edge">
<title>Node39&#45;&gt;Node41</title>
<path fill="none" stroke="#191970" d="M996.0283,-383.1613C892.8067,-372.6323 695.6761,-352.5243 588.2864,-341.5702"/>
<polygon fill="#191970" stroke="#191970" points="588.4837,-338.0722 578.1801,-340.5393 587.7733,-345.0361 588.4837,-338.0722"/>
</g>
<!-- Node40&#45;&gt;Node6 -->
<g id="edge106" class="edge">
<title>Node40&#45;&gt;Node6</title>
<path fill="none" stroke="#191970" d="M1632.127,-328.8886C1797.369,-317.3273 2198.333,-289.2735 2364.2764,-277.6632"/>
<polygon fill="#191970" stroke="#191970" points="2364.6549,-281.1453 2374.3862,-276.9558 2364.1662,-274.1624 2364.6549,-281.1453"/>
</g>
<!-- Node40&#45;&gt;Node16 -->
<g id="edge105" class="edge">
<title>Node40&#45;&gt;Node16</title>
<path fill="none" stroke="#191970" d="M1632.1967,-326.0544C1742.2079,-314.1009 1948.8173,-291.6513 2056.2473,-279.9783"/>
<polygon fill="#191970" stroke="#191970" points="2056.7642,-283.4428 2066.3276,-278.883 2056.008,-276.4838 2056.7642,-283.4428"/>
</g>
<!-- Node40&#45;&gt;Node17 -->
<g id="edge107" class="edge">
<title>Node40&#45;&gt;Node17</title>
<path fill="none" stroke="#191970" d="M1508.0265,-324.4581C1456.9919,-314.9182 1377.5517,-300.0684 1316.6458,-288.6833"/>
<polygon fill="#191970" stroke="#191970" points="1317.1272,-285.2127 1306.6544,-286.8156 1315.841,-292.0935 1317.1272,-285.2127"/>
</g>
<!-- Node40&#45;&gt;Node18 -->
<g id="edge108" class="edge">
<title>Node40&#45;&gt;Node18</title>
<path fill="none" stroke="#191970" d="M1592.6656,-324.3906C1634.0595,-312.55 1703.7898,-292.6039 1743.6634,-281.1982"/>
<polygon fill="#191970" stroke="#191970" points="1744.7073,-284.5401 1753.3591,-278.4248 1742.7822,-277.81 1744.7073,-284.5401"/>
</g>
<!-- Node40&#45;&gt;Node19 -->
<g id="edge109" class="edge">
<title>Node40&#45;&gt;Node19</title>
<path fill="none" stroke="#191970" d="M1541.2593,-324.3906C1522.6033,-314.3262 1493.0921,-298.4057 1471.6744,-286.8514"/>
<polygon fill="#191970" stroke="#191970" points="1473.222,-283.7095 1462.7592,-282.0419 1469.8985,-289.8702 1473.222,-283.7095"/>
</g>
<!-- Node41&#45;&gt;Node2 -->
<g id="edge113" class="edge">
<title>Node41&#45;&gt;Node2</title>
<path fill="none" stroke="#191970" d="M543.4615,-324.4041C563.1652,-316.8635 588.7593,-304.8097 607.0718,-288 670.243,-230.0131 636.2461,-171.3405 707.0718,-123 738.1621,-101.78 835.1973,-89.0433 902.7848,-82.5209"/>
<polygon fill="#191970" stroke="#191970" points="903.3194,-85.9861 912.9478,-81.5652 902.664,-79.0169 903.3194,-85.9861"/>
</g>
<!-- Node41&#45;&gt;Node7 -->
<g id="edge111" class="edge">
<title>Node41&#45;&gt;Node7</title>
<path fill="none" stroke="#191970" d="M561.5195,-324.488C648.3285,-307.5354 838.7378,-272.4324 1001.0718,-257 1300.1747,-228.5656 2246.65,-210.9613 2506.507,-206.5788"/>
<polygon fill="#191970" stroke="#191970" points="2506.6112,-210.0777 2516.551,-206.4103 2506.4936,-203.0787 2506.6112,-210.0777"/>
</g>
<!-- Node42 -->
<g id="node42" class="node">
<title>Node42</title>
<polygon fill="#ffffff" stroke="#bfbfbf" points="571.0718,-196 571.0718,-215 617.0718,-215 617.0718,-196 571.0718,-196"/>
<text text-anchor="middle" x="594.0718" y="-203" font-family="Helvetica,sans-Serif" font-size="10.00" fill="#000000">stdio.h</text>
</g>
<!-- Node41&#45;&gt;Node42 -->
<g id="edge112" class="edge">
<title>Node41&#45;&gt;Node42</title>
<path fill="none" stroke="#191970" d="M541.3287,-324.436C557.8038,-317.1384 577.5873,-305.3482 588.0718,-288 599.5203,-269.0567 599.3582,-243.0187 597.4163,-225.2957"/>
<polygon fill="#191970" stroke="#191970" points="600.8627,-224.6669 596.0264,-215.2403 593.9287,-225.6254 600.8627,-224.6669"/>
</g>
<!-- Node43 -->
<g id="node43" class="node">
<title>Node43</title>
<g id="a_node43"><a xlink:href="memory_8h.html" target="_top" xlink:title="sbml/util/memory.h">
<polygon fill="#ffffff" stroke="#000000" points="479.0718,-263 479.0718,-282 579.0718,-282 579.0718,-263 479.0718,-263"/>
<text text-anchor="middle" x="529.0718" y="-270" font-family="Helvetica,sans-Serif" font-size="10.00" fill="#000000">sbml/util/memory.h</text>
</a>
</g>
</g>
<!-- Node41&#45;&gt;Node43 -->
<g id="edge114" class="edge">
<title>Node41&#45;&gt;Node43</title>
<path fill="none" stroke="#191970" d="M516.4156,-324.3906C518.5167,-315.776 521.6643,-302.8708 524.2948,-292.0858"/>
<polygon fill="#191970" stroke="#191970" points="527.7257,-292.7894 526.695,-282.2449 520.9251,-291.1307 527.7257,-292.7894"/>
</g>
<!-- Node41&#45;&gt;Node44 -->
<g id="edge115" class="edge">
<title>Node41&#45;&gt;Node44</title>
<path fill="none" stroke="#191970" d="M499.6968,-324.3906C484.9787,-314.5519 461.8886,-299.1167 444.7129,-287.6351"/>
<polygon fill="#191970" stroke="#191970" points="446.6046,-284.6896 436.3459,-282.0419 442.7143,-290.5091 446.6046,-284.6896"/>
</g>
<!-- Node44&#45;&gt;Node2 -->
<g id="edge118" class="edge">
<title>Node44&#45;&gt;Node2</title>
<path fill="none" stroke="#191970" d="M431.8547,-262.7082C459.9438,-235.2643 544.3979,-157.3684 631.0718,-123 679.0977,-103.9565 817.897,-89.6471 902.8815,-82.3682"/>
<polygon fill="#191970" stroke="#191970" points="903.2993,-85.8455 912.9689,-81.5156 902.7096,-78.8703 903.2993,-85.8455"/>
</g>
<!-- Node44&#45;&gt;Node42 -->
<g id="edge116" class="edge">
<title>Node44&#45;&gt;Node42</title>
<path fill="none" stroke="#191970" d="M446.7152,-262.9005C476.8975,-251.1435 528.1181,-231.1913 561.5186,-218.1806"/>
<polygon fill="#191970" stroke="#191970" points="562.8038,-221.4362 570.8514,-214.5452 560.263,-214.9136 562.8038,-221.4362"/>
</g>
<!-- Node45 -->
<g id="node45" class="node">
<title>Node45</title>
<polygon fill="#ffffff" stroke="#bfbfbf" points="395.5718,-196 395.5718,-215 448.5718,-215 448.5718,-196 395.5718,-196"/>
<text text-anchor="middle" x="422.0718" y="-203" font-family="Helvetica,sans-Serif" font-size="10.00" fill="#000000">stdarg.h</text>
</g>
<!-- Node44&#45;&gt;Node45 -->
<g id="edge117" class="edge">
<title>Node44&#45;&gt;Node45</title>
<path fill="none" stroke="#191970" d="M422.0718,-262.9005C422.0718,-253.149 422.0718,-237.7597 422.0718,-225.3695"/>
<polygon fill="#191970" stroke="#191970" points="425.5719,-225.0816 422.0718,-215.0817 418.5719,-225.0817 425.5719,-225.0816"/>
</g>
<!-- Node46&#45;&gt;Node2 -->
<g id="edge123" class="edge">
<title>Node46&#45;&gt;Node2</title>
<path fill="none" stroke="#191970" d="M919.8878,-440.8023C855.179,-435.0699 773.81,-423.3574 750.0718,-400 731.992,-382.2102 741.5278,-369.2453 739.0718,-344 738.2111,-335.1529 734.3987,-331.5613 739.0718,-324 757.8809,-293.5662 783.5486,-310.8577 811.0718,-288 881.848,-229.2213 879.9418,-195.8946 936.0718,-123 943.2353,-113.697 951.2828,-103.3997 957.9495,-94.9104"/>
<polygon fill="#191970" stroke="#191970" points="960.8698,-96.8591 964.3021,-86.8356 955.3682,-92.5309 960.8698,-96.8591"/>
</g>
<!-- Node46&#45;&gt;Node18 -->
<g id="edge125" class="edge">
<title>Node46&#45;&gt;Node18</title>
<path fill="none" stroke="#191970" d="M1047.8127,-436.4593C1109.9363,-422.52 1230.5271,-396.4603 1334.0718,-380 1469.7475,-358.4318 1510.0329,-385.254 1641.0718,-344 1652.262,-340.4771 1712.8305,-306.9225 1748.2522,-287.057"/>
<polygon fill="#191970" stroke="#191970" points="1750.0885,-290.0399 1757.0926,-282.0905 1746.6599,-283.9371 1750.0885,-290.0399"/>
</g>
<!-- Node46&#45;&gt;Node20 -->
<g id="edge126" class="edge">
<title>Node46&#45;&gt;Node20</title>
<path fill="none" stroke="#191970" d="M999.5921,-436.4509C986.9162,-417.7707 958.6558,-376.1238 942.3378,-352.0761"/>
<polygon fill="#191970" stroke="#191970" points="945.0464,-349.8344 936.5351,-343.5249 939.254,-353.7649 945.0464,-349.8344"/>
</g>
<!-- Node46&#45;&gt;Node39 -->
<g id="edge124" class="edge">
<title>Node46&#45;&gt;Node39</title>
<path fill="none" stroke="#191970" d="M1016.0005,-436.2455C1024.2556,-428.1352 1036.1927,-416.4075 1045.98,-406.7919"/>
<polygon fill="#191970" stroke="#191970" points="1048.5764,-409.1476 1053.257,-399.6427 1043.6707,-404.1542 1048.5764,-409.1476"/>
</g>
<!-- Node46&#45;&gt;Node47 -->
<g id="edge127" class="edge">
<title>Node46&#45;&gt;Node47</title>
<path fill="none" stroke="#191970" d="M920.0455,-441.4122C857.1643,-436.0476 779.4571,-424.5323 759.0718,-400 747.8639,-386.5121 755.5732,-366.6266 764.1062,-352.2107"/>
<polygon fill="#191970" stroke="#191970" points="767.1512,-353.9474 769.6419,-343.6495 761.2729,-350.1465 767.1512,-353.9474"/>
</g>
<!-- Node48&#45;&gt;Node2 -->
<g id="edge129" class="edge">
<title>Node48&#45;&gt;Node2</title>
<path fill="none" stroke="#191970" d="M839.3222,-380.2893C858.5802,-336.2911 937.8331,-155.2243 963.7954,-95.9088"/>
<polygon fill="#191970" stroke="#191970" points="967.0676,-97.1618 967.871,-86.5974 960.6549,-94.3549 967.0676,-97.1618"/>
</g>
<!-- Node48&#45;&gt;Node18 -->
<g id="edge130" class="edge">
<title>Node48&#45;&gt;Node18</title>
<path fill="none" stroke="#191970" d="M901.8506,-381.3272C1000.1904,-368.5852 1189.76,-344.1361 1351.0718,-324 1497.7529,-305.6902 1673.1517,-284.5888 1743.0818,-276.2078"/>
<polygon fill="#191970" stroke="#191970" points="1743.8663,-279.6389 1753.379,-274.9743 1743.0337,-272.6886 1743.8663,-279.6389"/>
</g>
<!-- Node48&#45;&gt;Node19 -->
<g id="edge131" class="edge">
<title>Node48&#45;&gt;Node19</title>
<path fill="none" stroke="#191970" d="M840.037,-380.2808C848.3176,-365.2218 866.4949,-336.6686 891.0718,-324 975.1236,-280.6743 1220.9991,-297.599 1315.0718,-288 1348.4597,-284.5932 1386.5806,-279.9598 1412.8673,-276.6482"/>
<polygon fill="#191970" stroke="#191970" points="1413.535,-280.0917 1423.0152,-275.3613 1412.6543,-273.1473 1413.535,-280.0917"/>
</g>
<!-- Node48&#45;&gt;Node20 -->
<g id="edge132" class="edge">
<title>Node48&#45;&gt;Node20</title>
<path fill="none" stroke="#191970" d="M851.6196,-380.2455C866.3317,-371.5731 888.0606,-358.7645 904.9223,-348.825"/>
<polygon fill="#191970" stroke="#191970" points="906.8764,-351.736 913.7137,-343.6427 903.3217,-345.7057 906.8764,-351.736"/>
</g>
<!-- Node48&#45;&gt;Node47 -->
<g id="edge133" class="edge">
<title>Node48&#45;&gt;Node47</title>
<path fill="none" stroke="#191970" d="M824.969,-380.2455C816.569,-372.1352 804.4225,-360.4075 794.4634,-350.7919"/>
<polygon fill="#191970" stroke="#191970" points="796.684,-348.0707 787.0589,-343.6427 791.8218,-353.1066 796.684,-348.0707"/>
</g>
<!-- Node49&#45;&gt;Node6 -->
<g id="edge138" class="edge">
<title>Node49&#45;&gt;Node6</title>
<path fill="none" stroke="#191970" d="M1088.3341,-332.2707C1255.1245,-326.9522 1768.1175,-309.8652 2193.0718,-288 2250.5911,-285.0405 2315.6551,-280.8863 2364.2701,-277.6234"/>
<polygon fill="#191970" stroke="#191970" points="2364.6438,-281.1063 2374.3857,-276.9414 2364.1729,-274.1221 2364.6438,-281.1063"/>
</g>
<!-- Node49&#45;&gt;Node16 -->
<g id="edge137" class="edge">
<title>Node49&#45;&gt;Node16</title>
<path fill="none" stroke="#191970" d="M1088.3485,-330.8869C1271.062,-320.5967 1855.3543,-287.6901 2056.3687,-276.3693"/>
<polygon fill="#191970" stroke="#191970" points="2056.7148,-279.8554 2066.5021,-275.7986 2056.3211,-272.8665 2056.7148,-279.8554"/>
</g>
<!-- Node49&#45;&gt;Node17 -->
<g id="edge142" class="edge">
<title>Node49&#45;&gt;Node17</title>
<path fill="none" stroke="#191970" d="M1063.8531,-324.3906C1092.7364,-315.3737 1136.6767,-301.6563 1172.1263,-290.5896"/>
<polygon fill="#191970" stroke="#191970" points="1173.3776,-293.8656 1181.8802,-287.5446 1171.2915,-287.1837 1173.3776,-293.8656"/>
</g>
<!-- Node49&#45;&gt;Node18 -->
<g id="edge141" class="edge">
<title>Node49&#45;&gt;Node18</title>
<path fill="none" stroke="#191970" d="M1088.3914,-325.6477C1093.0143,-325.0517 1097.6204,-324.4926 1102.0718,-324 1348.7147,-296.7078 1647.8925,-279.2909 1743.295,-274.1177"/>
<polygon fill="#191970" stroke="#191970" points="1743.605,-277.6061 1753.4026,-273.5742 1743.2291,-270.6162 1743.605,-277.6061"/>
</g>
<!-- Node49&#45;&gt;Node42 -->
<g id="edge136" class="edge">
<title>Node49&#45;&gt;Node42</title>
<path fill="none" stroke="#191970" d="M1000.4341,-324.4466C919.1605,-300.6569 708.4172,-238.9701 626.9203,-215.1151"/>
<polygon fill="#191970" stroke="#191970" points="627.7735,-211.7181 617.193,-212.2678 625.807,-218.4362 627.7735,-211.7181"/>
</g>
<!-- Node49&#45;&gt;Node44 -->
<g id="edge139" class="edge">
<title>Node49&#45;&gt;Node44</title>
<path fill="none" stroke="#191970" d="M977.7939,-325.186C974.5079,-324.7584 971.2485,-324.3586 968.0718,-324 747.5614,-299.1083 687.8942,-330.4012 470.0718,-288 465.9136,-287.1906 461.613,-286.1336 457.3722,-284.9515"/>
<polygon fill="#191970" stroke="#191970" points="458.2657,-281.5653 447.6808,-282.0239 456.2414,-288.2662 458.2657,-281.5653"/>
</g>
<!-- Node50 -->
<g id="node50" class="node">
<title>Node50</title>
<polygon fill="#ffffff" stroke="#bfbfbf" points="1010.5718,-263 1010.5718,-282 1055.5718,-282 1055.5718,-263 1010.5718,-263"/>
<text text-anchor="middle" x="1033.0718" y="-270" font-family="Helvetica,sans-Serif" font-size="10.00" fill="#000000">iosfwd</text>
</g>
<!-- Node49&#45;&gt;Node50 -->
<g id="edge140" class="edge">
<title>Node49&#45;&gt;Node50</title>
<path fill="none" stroke="#191970" d="M1033.0718,-324.3906C1033.0718,-315.8657 1033.0718,-303.1392 1033.0718,-292.4235"/>
<polygon fill="#191970" stroke="#191970" points="1036.5719,-292.2448 1033.0718,-282.2449 1029.5719,-292.2449 1036.5719,-292.2448"/>
</g>
</g>
</svg>
