<?xml version="1.0" encoding="UTF-8" standalone="no"?>
<!DOCTYPE svg PUBLIC "-//W3C//DTD SVG 1.1//EN"
 "http://www.w3.org/Graphics/SVG/1.1/DTD/svg11.dtd">
<!-- Generated by graphviz version 2.40.1 (20161225.0304)
 -->
<!-- Title: L3ParserSettings.h Pages: 1 -->
<!--zoomable 341 -->
<svg id="main" version="1.1" xmlns="http://www.w3.org/2000/svg" xmlns:xlink="http://www.w3.org/1999/xlink" xml:space="preserve" onload="init(evt)">
<style type="text/css"><![CDATA[
.edge:hover path { stroke: red; }
.edge:hover polygon { stroke: red; fill: red; }
]]></style>
<script type="text/javascript"><![CDATA[
var edges = document.getElementsByTagName('g');
if (edges && edges.length) {
  for (var i=0;i<edges.length;i++) {
    if (edges[i].id.substr(0,4)=='edge') {
      edges[i].setAttribute('class','edge');
    }
  }
}
]]></script>
        <defs>
                <circle id="rim" cx="0" cy="0" r="7"/>
                <circle id="rim2" cx="0" cy="0" r="3.5"/>
                <g id="zoomPlus">
                        <use xlink:href="#rim" fill="#404040">
                                <set attributeName="fill" to="#808080" begin="zoomplus.mouseover" end="zoomplus.mouseout"/>
                        </use>
                        <path d="M-4,0h8M0,-4v8" fill="none" stroke="white" stroke-width="1.5" pointer-events="none"/>
                </g>
                <g id="zoomMin">
                        <use xlink:href="#rim" fill="#404040">
                                <set attributeName="fill" to="#808080" begin="zoomminus.mouseover" end="zoomminus.mouseout"/>
                        </use>
                        <path d="M-4,0h8" fill="none" stroke="white" stroke-width="1.5" pointer-events="none"/>
                </g>
                <g id="dirArrow">
                        <path fill="none" stroke="white" stroke-width="1.5" d="M0,-3.0v7 M-2.5,-0.5L0,-3.0L2.5,-0.5"/>
                </g>
               <g id="resetDef">
                       <use xlink:href="#rim2" fill="#404040">
                               <set attributeName="fill" to="#808080" begin="reset.mouseover" end="reset.mouseout"/>
                       </use>
               </g>
        </defs>

<script type="text/javascript">
var viewWidth = 873;
var viewHeight = 341;
var sectionId = 'dynsection-0';
</script>
<script xlink:href="svgpan.js"/>
<svg id="graph" class="graph">
<g id="viewport">
<title>L3ParserSettings.h</title>
<polygon fill="#ffffff" stroke="transparent" points="-4,4 -4,-337 868.5,-337 868.5,4 -4,4"/>
<!-- Node1 -->
<g id="node1" class="node">
<title>Node1</title>
<polygon fill="#bfbfbf" stroke="#000000" points="407,-313.5 407,-332.5 509,-332.5 509,-313.5 407,-313.5"/>
<text text-anchor="middle" x="458" y="-320.5" font-family="Helvetica,sans-Serif" font-size="10.00" fill="#000000">L3ParserSettings.h</text>
</g>
<!-- Node2 -->
<g id="node2" class="node">
<title>Node2</title>
<g id="a_node2"><a xlink:href="libsbml-namespace_8h.html" target="_top" xlink:title="Defines C++ namespace of libSBML. ">
<polygon fill="#ffffff" stroke="#000000" points="19.5,-.5 19.5,-30.5 132.5,-30.5 132.5,-.5 19.5,-.5"/>
<text text-anchor="start" x="27.5" y="-18.5" font-family="Helvetica,sans-Serif" font-size="10.00" fill="#000000">sbml/common/libsbml</text>
<text text-anchor="middle" x="76" y="-7.5" font-family="Helvetica,sans-Serif" font-size="10.00" fill="#000000">&#45;namespace.h</text>
</a>
</g>
</g>
<!-- Node1&#45;&gt;Node2 -->
<g id="edge1" class="edge">
<title>Node1&#45;&gt;Node2</title>
<path fill="none" stroke="#191970" d="M406.7975,-320.1264C319.1257,-314.63 144.2699,-300.99 88,-277 41.6436,-257.2365 0,-255.8935 0,-205.5 0,-205.5 0,-205.5 0,-138.5 0,-98.5825 29.3262,-60.7951 51.5446,-37.8946"/>
<polygon fill="#191970" stroke="#191970" points="54.1366,-40.2529 58.7544,-30.7174 49.198,-35.2919 54.1366,-40.2529"/>
</g>
<!-- Node3 -->
<g id="node3" class="node">
<title>Node3</title>
<g id="a_node3"><a xlink:href="extern_8h.html" target="_top" xlink:title="Definitions of LIBSBML_EXTERN and related things. ">
<polygon fill="#ffffff" stroke="#000000" points="257,-67.5 257,-86.5 375,-86.5 375,-67.5 257,-67.5"/>
<text text-anchor="middle" x="316" y="-74.5" font-family="Helvetica,sans-Serif" font-size="10.00" fill="#000000">sbml/common/extern.h</text>
</a>
</g>
</g>
<!-- Node1&#45;&gt;Node3 -->
<g id="edge2" class="edge">
<title>Node1&#45;&gt;Node3</title>
<path fill="none" stroke="#191970" d="M451.4136,-313.3432C445.2842,-304.1793 436.0597,-289.9251 429,-277 392.7822,-210.6908 398.5745,-186.0889 357,-123 350.1303,-112.5752 341.0034,-102.0955 333.105,-93.7774"/>
<polygon fill="#191970" stroke="#191970" points="335.5172,-91.2381 326.0224,-86.537 330.5131,-96.133 335.5172,-91.2381"/>
</g>
<!-- Node4 -->
<g id="node4" class="node">
<title>Node4</title>
<g id="a_node4"><a xlink:href="sbmlfwd_8h.html" target="_top" xlink:title="Forward declarations for all opaque C types. ">
<polygon fill="#ffffff" stroke="#000000" points="97.5,-257.5 97.5,-276.5 224.5,-276.5 224.5,-257.5 97.5,-257.5"/>
<text text-anchor="middle" x="161" y="-264.5" font-family="Helvetica,sans-Serif" font-size="10.00" fill="#000000">sbml/common/sbmlfwd.h</text>
</a>
</g>
</g>
<!-- Node1&#45;&gt;Node4 -->
<g id="edge4" class="edge">
<title>Node1&#45;&gt;Node4</title>
<path fill="none" stroke="#191970" d="M407.2813,-313.4369C355.8114,-303.7321 276.1298,-288.708 221.4216,-278.3926"/>
<polygon fill="#191970" stroke="#191970" points="221.9848,-274.9372 211.5095,-276.5237 220.6878,-281.816 221.9848,-274.9372"/>
</g>
<!-- Node8 -->
<g id="node8" class="node">
<title>Node8</title>
<g id="a_node8"><a xlink:href="_string_buffer_8h.html" target="_top" xlink:title="sbml/util/StringBuffer.h">
<polygon fill="#ffffff" stroke="#000000" points="443.5,-257.5 443.5,-276.5 560.5,-276.5 560.5,-257.5 443.5,-257.5"/>
<text text-anchor="middle" x="502" y="-264.5" font-family="Helvetica,sans-Serif" font-size="10.00" fill="#000000">sbml/util/StringBuffer.h</text>
</a>
</g>
</g>
<!-- Node1&#45;&gt;Node8 -->
<g id="edge11" class="edge">
<title>Node1&#45;&gt;Node8</title>
<path fill="none" stroke="#191970" d="M465.6642,-313.2455C471.8473,-305.3761 480.7063,-294.101 488.1289,-284.6542"/>
<polygon fill="#191970" stroke="#191970" points="490.9975,-286.6683 494.4236,-276.6427 485.4932,-282.3435 490.9975,-286.6683"/>
</g>
<!-- Node9 -->
<g id="node9" class="node">
<title>Node9</title>
<g id="a_node9"><a xlink:href="_a_s_t_node_type_8h.html" target="_top" xlink:title="Enumeration for Abstract Syntax Tree (AST). ">
<polygon fill="#ffffff" stroke="#000000" points="405.5,-129 405.5,-148 544.5,-148 544.5,-129 405.5,-129"/>
<text text-anchor="middle" x="475" y="-136" font-family="Helvetica,sans-Serif" font-size="10.00" fill="#000000">sbml/math/ASTNodeType.h</text>
</a>
</g>
</g>
<!-- Node1&#45;&gt;Node9 -->
<g id="edge12" class="edge">
<title>Node1&#45;&gt;Node9</title>
<path fill="none" stroke="#191970" d="M451.1792,-313.328C445.3174,-304.3825 437.3034,-290.4728 434,-277 431.8833,-268.3668 432.5264,-265.7659 434,-257 440.1341,-220.5106 456.1963,-180.238 466.2993,-157.291"/>
<polygon fill="#191970" stroke="#191970" points="469.5492,-158.5979 470.4648,-148.0427 463.1668,-155.7232 469.5492,-158.5979"/>
</g>
<!-- Node10 -->
<g id="node10" class="node">
<title>Node10</title>
<g id="a_node10"><a xlink:href="_a_s_t_base_plugin_8h.html" target="_top" xlink:title="sbml/extension/ASTBasePlugin.h">
<polygon fill="#ffffff" stroke="#000000" points="579,-257.5 579,-276.5 743,-276.5 743,-257.5 579,-257.5"/>
<text text-anchor="middle" x="661" y="-264.5" font-family="Helvetica,sans-Serif" font-size="10.00" fill="#000000">sbml/extension/ASTBasePlugin.h</text>
</a>
</g>
</g>
<!-- Node1&#45;&gt;Node10 -->
<g id="edge15" class="edge">
<title>Node1&#45;&gt;Node10</title>
<path fill="none" stroke="#191970" d="M492.8969,-313.3733C527.0911,-303.9404 579.3415,-289.5265 616.5042,-279.2747"/>
<polygon fill="#191970" stroke="#191970" points="617.8493,-282.5345 626.5584,-276.5011 615.9877,-275.7865 617.8493,-282.5345"/>
</g>
<!-- Node11 -->
<g id="node11" class="node">
<title>Node11</title>
<polygon fill="#ffffff" stroke="#bfbfbf" points="761,-257.5 761,-276.5 805,-276.5 805,-257.5 761,-257.5"/>
<text text-anchor="middle" x="783" y="-264.5" font-family="Helvetica,sans-Serif" font-size="10.00" fill="#000000">vector</text>
</g>
<!-- Node1&#45;&gt;Node11 -->
<g id="edge16" class="edge">
<title>Node1&#45;&gt;Node11</title>
<path fill="none" stroke="#191970" d="M509.1968,-317.4599C566.1546,-310.7481 660.9808,-297.9444 750.9536,-276.9595"/>
<polygon fill="#191970" stroke="#191970" points="751.8444,-280.3454 760.7673,-274.6329 750.2296,-273.5342 751.8444,-280.3454"/>
</g>
<!-- Node12 -->
<g id="node12" class="node">
<title>Node12</title>
<polygon fill="#ffffff" stroke="#bfbfbf" points="823.5,-257.5 823.5,-276.5 864.5,-276.5 864.5,-257.5 823.5,-257.5"/>
<text text-anchor="middle" x="844" y="-264.5" font-family="Helvetica,sans-Serif" font-size="10.00" fill="#000000">string</text>
</g>
<!-- Node1&#45;&gt;Node12 -->
<g id="edge17" class="edge">
<title>Node1&#45;&gt;Node12</title>
<path fill="none" stroke="#191970" d="M509.2458,-319.5042C576.9399,-314.1995 699.8728,-302.19 813.5755,-276.682"/>
<polygon fill="#191970" stroke="#191970" points="814.5226,-280.0558 823.4923,-274.417 812.964,-273.2316 814.5226,-280.0558"/>
</g>
<!-- Node3&#45;&gt;Node2 -->
<g id="edge3" class="edge">
<title>Node3&#45;&gt;Node2</title>
<path fill="none" stroke="#191970" d="M278.7633,-67.4581C242.4089,-58.1423 186.295,-43.7631 142.307,-32.4912"/>
<polygon fill="#191970" stroke="#191970" points="143.1043,-29.0825 132.5484,-29.9905 141.3666,-35.8634 143.1043,-29.0825"/>
</g>
<!-- Node4&#45;&gt;Node2 -->
<g id="edge5" class="edge">
<title>Node4&#45;&gt;Node2</title>
<path fill="none" stroke="#191970" d="M139.7247,-257.3433C124.9866,-249.5746 106.0913,-237.2728 95,-221 57.3964,-165.8294 64.4702,-82.0905 71.1031,-40.6073"/>
<polygon fill="#191970" stroke="#191970" points="74.5872,-40.9987 72.8385,-30.5492 67.6892,-39.8084 74.5872,-40.9987"/>
</g>
<!-- Node5 -->
<g id="node5" class="node">
<title>Node5</title>
<g id="a_node5"><a xlink:href="libsbml-config_8h.html" target="_top" xlink:title="Decides whether to #include Unix or Windows configuration variables. ">
<polygon fill="#ffffff" stroke="#000000" points="104.5,-190.5 104.5,-220.5 217.5,-220.5 217.5,-190.5 104.5,-190.5"/>
<text text-anchor="start" x="112.5" y="-208.5" font-family="Helvetica,sans-Serif" font-size="10.00" fill="#000000">sbml/common/libsbml</text>
<text text-anchor="middle" x="161" y="-197.5" font-family="Helvetica,sans-Serif" font-size="10.00" fill="#000000">&#45;config.h</text>
</a>
</g>
</g>
<!-- Node4&#45;&gt;Node5 -->
<g id="edge6" class="edge">
<title>Node4&#45;&gt;Node5</title>
<path fill="none" stroke="#191970" d="M161,-257.3906C161,-250.2234 161,-240.0862 161,-230.671"/>
<polygon fill="#191970" stroke="#191970" points="164.5001,-230.5446 161,-220.5446 157.5001,-230.5446 164.5001,-230.5446"/>
</g>
<!-- Node5&#45;&gt;Node2 -->
<g id="edge7" class="edge">
<title>Node5&#45;&gt;Node2</title>
<path fill="none" stroke="#191970" d="M132.6144,-190.3556C118.997,-181.5806 103.7726,-169.2417 95,-154 74.71,-118.7475 72.8429,-70.2949 73.9732,-41.0329"/>
<polygon fill="#191970" stroke="#191970" points="77.48,-40.9984 74.521,-30.8251 70.4901,-40.6232 77.48,-40.9984"/>
</g>
<!-- Node6 -->
<g id="node6" class="node">
<title>Node6</title>
<g id="a_node6"><a xlink:href="libsbml-config-common_8h.html" target="_top" xlink:title="Configuration variables. ">
<polygon fill="#ffffff" stroke="#000000" points="104.5,-123.5 104.5,-153.5 217.5,-153.5 217.5,-123.5 104.5,-123.5"/>
<text text-anchor="start" x="112.5" y="-141.5" font-family="Helvetica,sans-Serif" font-size="10.00" fill="#000000">sbml/common/libsbml</text>
<text text-anchor="middle" x="161" y="-130.5" font-family="Helvetica,sans-Serif" font-size="10.00" fill="#000000">&#45;config&#45;common.h</text>
</a>
</g>
</g>
<!-- Node5&#45;&gt;Node6 -->
<g id="edge8" class="edge">
<title>Node5&#45;&gt;Node6</title>
<path fill="none" stroke="#191970" d="M161,-190.2967C161,-182.5013 161,-172.7991 161,-163.9064"/>
<polygon fill="#191970" stroke="#191970" points="164.5001,-163.6431 161,-153.6432 157.5001,-163.6432 164.5001,-163.6431"/>
</g>
<!-- Node7 -->
<g id="node7" class="node">
<title>Node7</title>
<g id="a_node7"><a xlink:href="libsbml-version_8h.html" target="_top" xlink:title="Define libSBML version numbers for access from client software. ">
<polygon fill="#ffffff" stroke="#000000" points="235.5,-123.5 235.5,-153.5 348.5,-153.5 348.5,-123.5 235.5,-123.5"/>
<text text-anchor="start" x="243.5" y="-141.5" font-family="Helvetica,sans-Serif" font-size="10.00" fill="#000000">sbml/common/libsbml</text>
<text text-anchor="middle" x="292" y="-130.5" font-family="Helvetica,sans-Serif" font-size="10.00" fill="#000000">&#45;version.h</text>
</a>
</g>
</g>
<!-- Node5&#45;&gt;Node7 -->
<g id="edge9" class="edge">
<title>Node5&#45;&gt;Node7</title>
<path fill="none" stroke="#191970" d="M190.399,-190.4639C208.9774,-180.9619 233.191,-168.5779 253.3199,-158.283"/>
<polygon fill="#191970" stroke="#191970" points="254.9365,-161.3874 262.2459,-153.7177 251.749,-155.1552 254.9365,-161.3874"/>
</g>
<!-- Node7&#45;&gt;Node3 -->
<g id="edge10" class="edge">
<title>Node7&#45;&gt;Node3</title>
<path fill="none" stroke="#191970" d="M297.9326,-123.2977C301.1252,-115.1166 305.0954,-104.943 308.5004,-96.2179"/>
<polygon fill="#191970" stroke="#191970" points="311.7823,-97.4351 312.1573,-86.8469 305.2613,-94.8903 311.7823,-97.4351"/>
</g>
<!-- Node9&#45;&gt;Node2 -->
<g id="edge13" class="edge">
<title>Node9&#45;&gt;Node2</title>
<path fill="none" stroke="#191970" d="M465.9773,-128.7718C450.7339,-112.9998 418.1863,-82.0957 384,-67 341.876,-48.3993 220.0374,-31.8077 142.8242,-22.7491"/>
<polygon fill="#191970" stroke="#191970" points="143.0419,-19.251 132.7052,-21.575 142.2351,-26.2043 143.0419,-19.251"/>
</g>
<!-- Node9&#45;&gt;Node3 -->
<g id="edge14" class="edge">
<title>Node9&#45;&gt;Node3</title>
<path fill="none" stroke="#191970" d="M450.1563,-128.8906C423.3193,-118.5103 380.3767,-101.9004 350.3247,-90.2766"/>
<polygon fill="#191970" stroke="#191970" points="351.2586,-86.8851 340.6693,-86.5419 348.7333,-93.4138 351.2586,-86.8851"/>
</g>
</g>
</svg>
        <g id="navigator" transform="translate(0 0)" fill="#404254">
                <rect fill="#f2f5e9" fill-opacity="0.5" stroke="#606060" stroke-width=".5" x="0" y="0" width="60" height="60"/>
                <use id="zoomplus" xlink:href="#zoomPlus" x="17" y="9" onmousedown="handleZoom(evt,'in')"/>
                <use id="zoomminus" xlink:href="#zoomMin" x="42" y="9" onmousedown="handleZoom(evt,'out')"/>
                <use id="reset" xlink:href="#resetDef" x="30" y="36" onmousedown="handleReset()"/>
                <g id="arrowUp" xlink:href="#dirArrow" transform="translate(30 24)" onmousedown="handlePan(0,-1)">
                  <use xlink:href="#rim" fill="#404040">
                        <set attributeName="fill" to="#808080" begin="arrowUp.mouseover" end="arrowUp.mouseout"/>
                  </use>
                  <path fill="none" stroke="white" stroke-width="1.5" d="M0,-3.0v7 M-2.5,-0.5L0,-3.0L2.5,-0.5"/>
                </g>
                <g id="arrowRight" xlink:href="#dirArrow" transform="rotate(90) translate(36 -43)" onmousedown="handlePan(1,0)">
                  <use xlink:href="#rim" fill="#404040">
                        <set attributeName="fill" to="#808080" begin="arrowRight.mouseover" end="arrowRight.mouseout"/>
                  </use>
                  <path fill="none" stroke="white" stroke-width="1.5" d="M0,-3.0v7 M-2.5,-0.5L0,-3.0L2.5,-0.5"/>
                </g>
                <g id="arrowDown" xlink:href="#dirArrow" transform="rotate(180) translate(-30 -48)" onmousedown="handlePan(0,1)">
                  <use xlink:href="#rim" fill="#404040">
                        <set attributeName="fill" to="#808080" begin="arrowDown.mouseover" end="arrowDown.mouseout"/>
                  </use>
                  <path fill="none" stroke="white" stroke-width="1.5" d="M0,-3.0v7 M-2.5,-0.5L0,-3.0L2.5,-0.5"/>
                </g>
                <g id="arrowLeft" xlink:href="#dirArrow" transform="rotate(270) translate(-36 17)" onmousedown="handlePan(-1,0)">
                  <use xlink:href="#rim" fill="#404040">
                        <set attributeName="fill" to="#808080" begin="arrowLeft.mouseover" end="arrowLeft.mouseout"/>
                  </use>
                  <path fill="none" stroke="white" stroke-width="1.5" d="M0,-3.0v7 M-2.5,-0.5L0,-3.0L2.5,-0.5"/>
                </g>
        </g>
        <svg viewBox="0 0 15 15" width="100%" height="30px" preserveAspectRatio="xMaxYMin meet">
         <g id="arrow_out" transform="scale(0.3 0.3)">
          <a xlink:href="_l3_parser_settings_8h__incl_org.svg" target="_base">
           <rect id="button" ry="5" rx="5" y="6" x="6" height="38" width="38"
                fill="#f2f5e9" fill-opacity="0.5" stroke="#606060" stroke-width="1.0"/>
           <path id="arrow"
             d="M 11.500037,31.436501 C 11.940474,20.09759 22.043105,11.32322 32.158766,21.979434 L 37.068811,17.246167 C 37.068811,17.246167 37.088388,32 37.088388,32 L 22.160133,31.978069 C 22.160133,31.978069 26.997745,27.140456 26.997745,27.140456 C 18.528582,18.264221 13.291696,25.230495 11.500037,31.436501 z"
             style="fill:#404040;"/>
          </a>
         </g>
        </svg>
</svg>
