<?xml version="1.0" encoding="UTF-8" standalone="no"?>
<!DOCTYPE svg PUBLIC "-//W3C//DTD SVG 1.1//EN"
 "http://www.w3.org/Graphics/SVG/1.1/DTD/svg11.dtd">
<!-- Generated by graphviz version 2.40.1 (20161225.0304)
 -->
<!-- Title: L3FormulaFormatter.cpp Pages: 1 -->
<svg width="3161pt" height="1024pt"
 viewBox="0.00 0.00 3160.65 1024.00" xmlns="http://www.w3.org/2000/svg" xmlns:xlink="http://www.w3.org/1999/xlink">
<g id="graph0" class="graph" transform="scale(1 1) rotate(0) translate(4 1020)">
<title>L3FormulaFormatter.cpp</title>
<polygon fill="#ffffff" stroke="transparent" points="-4,4 -4,-1020 3156.6502,-1020 3156.6502,4 -4,4"/>
<!-- Node1 -->
<g id="node1" class="node">
<title>Node1</title>
<polygon fill="#bfbfbf" stroke="#000000" points="2440.5,-996.5 2440.5,-1015.5 2539.5,-1015.5 2539.5,-996.5 2440.5,-996.5"/>
<text text-anchor="middle" x="2490" y="-1003.5" font-family="Helvetica,sans-Serif" font-size="10.00" fill="#000000">L3FormulaFormatter.cpp</text>
</g>
<!-- Node2 -->
<g id="node2" class="node">
<title>Node2</title>
<g id="a_node2"><a xlink:href="common_8h.html" target="_top" xlink:title="Common functions and macros for C and C++. ">
<polygon fill="#ffffff" stroke="#000000" points="298,-324.5 298,-343.5 398,-343.5 398,-324.5 298,-324.5"/>
<text text-anchor="middle" x="348" y="-331.5" font-family="Helvetica,sans-Serif" font-size="10.00" fill="#000000">sbml/common/common.h</text>
</a>
</g>
</g>
<!-- Node1&#45;&gt;Node2 -->
<g id="edge1" class="edge">
<title>Node1&#45;&gt;Node2</title>
<path fill="none" stroke="#191970" d="M2440.4211,-1004.9584C2102.7912,-997.7076 155,-953.3077 155,-894 155,-894 155,-894 155,-670 155,-530.4137 281.7936,-396.3665 329.8403,-350.5821"/>
<polygon fill="#191970" stroke="#191970" points="332.4502,-352.9327 337.3486,-343.5382 327.6608,-347.8276 332.4502,-352.9327"/>
</g>
<!-- Node10 -->
<g id="node10" class="node">
<title>Node10</title>
<g id="a_node10"><a xlink:href="util_8h.html" target="_top" xlink:title="Utility functions. ">
<polygon fill="#ffffff" stroke="#000000" points="104,-263 104,-282 166,-282 166,-263 104,-263"/>
<text text-anchor="middle" x="135" y="-270" font-family="Helvetica,sans-Serif" font-size="10.00" fill="#000000">sbml/util/util.h</text>
</a>
</g>
</g>
<!-- Node1&#45;&gt;Node10 -->
<g id="edge166" class="edge">
<title>Node1&#45;&gt;Node10</title>
<path fill="none" stroke="#191970" d="M2440.2929,-1005.622C2175.3493,-1003.4864 926.9664,-991.8716 542,-960 334.8507,-942.85 79,-1101.858 79,-894 79,-894 79,-894 79,-614 79,-490.0198 115.3875,-344.0185 129.4995,-292.0575"/>
<polygon fill="#191970" stroke="#191970" points="132.9378,-292.755 132.223,-282.1843 126.1898,-290.8935 132.9378,-292.755"/>
</g>
<!-- Node12 -->
<g id="node12" class="node">
<title>Node12</title>
<g id="a_node12"><a xlink:href="_a_s_t_node_type_8h.html" target="_top" xlink:title="Enumeration for Abstract Syntax Tree (AST). ">
<polygon fill="#ffffff" stroke="#000000" points="2771.5,-772.5 2771.5,-791.5 2880.5,-791.5 2880.5,-772.5 2771.5,-772.5"/>
<text text-anchor="middle" x="2826" y="-779.5" font-family="Helvetica,sans-Serif" font-size="10.00" fill="#000000">sbml/math/ASTNodeType.h</text>
</a>
</g>
</g>
<!-- Node1&#45;&gt;Node12 -->
<g id="edge15" class="edge">
<title>Node1&#45;&gt;Node12</title>
<path fill="none" stroke="#191970" d="M2520.6746,-996.379C2579.1333,-976.7472 2707.8872,-927.1242 2789,-848 2802.6199,-834.714 2812.6722,-815.3341 2818.834,-801.0093"/>
<polygon fill="#191970" stroke="#191970" points="2822.1221,-802.2141 2822.6285,-791.6314 2815.6331,-799.5885 2822.1221,-802.2141"/>
</g>
<!-- Node13 -->
<g id="node13" class="node">
<title>Node13</title>
<g id="a_node13"><a xlink:href="_formula_formatter_8h.html" target="_top" xlink:title="Formats an AST formula tree as an SBML formula string. ">
<polygon fill="#ffffff" stroke="#000000" points="2430.5,-940.5 2430.5,-959.5 2549.5,-959.5 2549.5,-940.5 2430.5,-940.5"/>
<text text-anchor="middle" x="2490" y="-947.5" font-family="Helvetica,sans-Serif" font-size="10.00" fill="#000000">sbml/math/FormulaFormatter.h</text>
</a>
</g>
</g>
<!-- Node1&#45;&gt;Node13 -->
<g id="edge18" class="edge">
<title>Node1&#45;&gt;Node13</title>
<path fill="none" stroke="#191970" d="M2490,-996.2455C2490,-988.9382 2490,-978.6944 2490,-969.7046"/>
<polygon fill="#191970" stroke="#191970" points="2493.5001,-969.6426 2490,-959.6427 2486.5001,-969.6427 2493.5001,-969.6426"/>
</g>
<!-- Node15 -->
<g id="node15" class="node">
<title>Node15</title>
<g id="a_node15"><a xlink:href="_a_s_t_node_8h.html" target="_top" xlink:title="Abstract Syntax Tree (AST) for representing formula trees. ">
<polygon fill="#ffffff" stroke="#000000" points="2451,-884.5 2451,-903.5 2543,-903.5 2543,-884.5 2451,-884.5"/>
<text text-anchor="middle" x="2497" y="-891.5" font-family="Helvetica,sans-Serif" font-size="10.00" fill="#000000">sbml/math/ASTNode.h</text>
</a>
</g>
</g>
<!-- Node1&#45;&gt;Node15 -->
<g id="edge163" class="edge">
<title>Node1&#45;&gt;Node15</title>
<path fill="none" stroke="#191970" d="M2466.1922,-996.3082C2441.6064,-984.756 2408.5799,-963.9741 2422,-940 2430.0789,-925.5676 2444.7415,-915.1145 2458.9729,-907.8565"/>
<polygon fill="#191970" stroke="#191970" points="2460.6186,-910.9506 2468.1892,-903.5387 2457.6489,-904.6118 2460.6186,-910.9506"/>
</g>
<!-- Node51 -->
<g id="node51" class="node">
<title>Node51</title>
<g id="a_node51"><a xlink:href="_a_s_t_base_plugin_8h.html" target="_top" xlink:title="sbml/extension/ASTBasePlugin.h">
<polygon fill="#ffffff" stroke="#000000" points="2460.5,-772.5 2460.5,-791.5 2587.5,-791.5 2587.5,-772.5 2460.5,-772.5"/>
<text text-anchor="middle" x="2524" y="-779.5" font-family="Helvetica,sans-Serif" font-size="10.00" fill="#000000">sbml/extension/ASTBasePlugin.h</text>
</a>
</g>
</g>
<!-- Node1&#45;&gt;Node51 -->
<g id="edge164" class="edge">
<title>Node1&#45;&gt;Node51</title>
<path fill="none" stroke="#191970" d="M2515.5262,-996.3698C2531.1421,-988.9914 2549.8289,-977.1364 2559,-960 2587.4041,-906.9264 2553.8844,-833.881 2535.0738,-800.2711"/>
<polygon fill="#191970" stroke="#191970" points="2538.0493,-798.4251 2530.007,-791.5279 2531.9928,-801.9349 2538.0493,-798.4251"/>
</g>
<!-- Node52 -->
<g id="node52" class="node">
<title>Node52</title>
<g id="a_node52"><a xlink:href="_l3_formula_formatter_8h.html" target="_top" xlink:title="Formats an L3 AST formula tree as an SBML formula string. ">
<polygon fill="#ffffff" stroke="#000000" points="2848,-940.5 2848,-959.5 2976,-959.5 2976,-940.5 2848,-940.5"/>
<text text-anchor="middle" x="2912" y="-947.5" font-family="Helvetica,sans-Serif" font-size="10.00" fill="#000000">sbml/math/L3FormulaFormatter.h</text>
</a>
</g>
</g>
<!-- Node1&#45;&gt;Node52 -->
<g id="edge150" class="edge">
<title>Node1&#45;&gt;Node52</title>
<path fill="none" stroke="#191970" d="M2539.6497,-999.4114C2613.3162,-989.6358 2752.0684,-971.2232 2837.8183,-959.844"/>
<polygon fill="#191970" stroke="#191970" points="2838.2946,-963.3116 2847.7473,-958.5264 2837.3737,-956.3724 2838.2946,-963.3116"/>
</g>
<!-- Node53 -->
<g id="node53" class="node">
<title>Node53</title>
<g id="a_node53"><a xlink:href="_l3_parser_settings_8h.html" target="_top" xlink:title="Definition of the level 3 infix&#45;to&#45;mathml parser settings. ">
<polygon fill="#ffffff" stroke="#000000" points="940.5,-828.5 940.5,-847.5 1057.5,-847.5 1057.5,-828.5 940.5,-828.5"/>
<text text-anchor="middle" x="999" y="-835.5" font-family="Helvetica,sans-Serif" font-size="10.00" fill="#000000">sbml/math/L3ParserSettings.h</text>
</a>
</g>
</g>
<!-- Node1&#45;&gt;Node53 -->
<g id="edge154" class="edge">
<title>Node1&#45;&gt;Node53</title>
<path fill="none" stroke="#191970" d="M2440.3918,-1000.4103C2219.4816,-975.5191 1324.885,-874.7194 1068.1761,-845.7945"/>
<polygon fill="#191970" stroke="#191970" points="1068.2013,-842.2753 1057.8723,-844.6335 1067.4175,-849.2312 1068.2013,-842.2753"/>
</g>
<!-- Node54 -->
<g id="node54" class="node">
<title>Node54</title>
<polygon fill="#ffffff" stroke="#bfbfbf" points="2994.5,-940.5 2994.5,-959.5 3037.5,-959.5 3037.5,-940.5 2994.5,-940.5"/>
<text text-anchor="middle" x="3016" y="-947.5" font-family="Helvetica,sans-Serif" font-size="10.00" fill="#000000">assert.h</text>
</g>
<!-- Node1&#45;&gt;Node54 -->
<g id="edge165" class="edge">
<title>Node1&#45;&gt;Node54</title>
<path fill="none" stroke="#191970" d="M2539.7075,-1004.9757C2627.7498,-1002.3837 2816.7896,-993.3204 2984.4862,-959.65"/>
<polygon fill="#191970" stroke="#191970" points="2985.3843,-963.0389 2994.4815,-957.6084 2983.9833,-956.1806 2985.3843,-963.0389"/>
</g>
<!-- Node3 -->
<g id="node3" class="node">
<title>Node3</title>
<g id="a_node3"><a xlink:href="libsbml-config_8h.html" target="_top" xlink:title="Decides whether to #include Unix or Windows configuration variables. ">
<polygon fill="#ffffff" stroke="#000000" points="479.5,-190.5 479.5,-220.5 568.5,-220.5 568.5,-190.5 479.5,-190.5"/>
<text text-anchor="start" x="487.5" y="-208.5" font-family="Helvetica,sans-Serif" font-size="10.00" fill="#000000">sbml/common/libsbml</text>
<text text-anchor="middle" x="524" y="-197.5" font-family="Helvetica,sans-Serif" font-size="10.00" fill="#000000">&#45;config.h</text>
</a>
</g>
</g>
<!-- Node2&#45;&gt;Node3 -->
<g id="edge2" class="edge">
<title>Node2&#45;&gt;Node3</title>
<path fill="none" stroke="#191970" d="M398.2659,-326.5075C425.9281,-320.194 459.3377,-308.7112 483,-288 500.2841,-272.8716 511.0788,-248.7534 517.2257,-230.4929"/>
<polygon fill="#191970" stroke="#191970" points="520.6163,-231.3766 520.248,-220.7882 513.9329,-229.2952 520.6163,-231.3766"/>
</g>
<!-- Node7 -->
<g id="node7" class="node">
<title>Node7</title>
<g id="a_node7"><a xlink:href="extern_8h.html" target="_top" xlink:title="Definitions of LIBSBML_EXTERN and related things. ">
<polygon fill="#ffffff" stroke="#000000" points="1198,-67.5 1198,-86.5 1290,-86.5 1290,-67.5 1198,-67.5"/>
<text text-anchor="middle" x="1244" y="-74.5" font-family="Helvetica,sans-Serif" font-size="10.00" fill="#000000">sbml/common/extern.h</text>
</a>
</g>
</g>
<!-- Node2&#45;&gt;Node7 -->
<g id="edge9" class="edge">
<title>Node2&#45;&gt;Node7</title>
<path fill="none" stroke="#191970" d="M398.0459,-326.067C430.8951,-319.3483 473.9215,-307.5903 508,-288 545.3359,-266.5372 553.0169,-256.0779 578,-221 605.8041,-181.9613 583.6375,-150.3437 623,-123 668.6919,-91.2595 1042.4229,-80.8216 1187.0999,-77.9501"/>
<polygon fill="#191970" stroke="#191970" points="1187.5921,-81.4413 1197.5225,-77.7485 1187.4566,-74.4426 1187.5921,-81.4413"/>
</g>
<!-- Node8 -->
<g id="node8" class="node">
<title>Node8</title>
<polygon fill="#ffffff" stroke="#bfbfbf" points="422.5,-196 422.5,-215 461.5,-215 461.5,-196 422.5,-196"/>
<text text-anchor="middle" x="442" y="-203" font-family="Helvetica,sans-Serif" font-size="10.00" fill="#000000">stdio.h</text>
</g>
<!-- Node2&#45;&gt;Node8 -->
<g id="edge8" class="edge">
<title>Node2&#45;&gt;Node8</title>
<path fill="none" stroke="#191970" d="M385.6371,-324.4397C416.7843,-315.6768 457.419,-301.9756 467,-288 480.4758,-268.3433 467.5133,-241.2191 455.7896,-223.5234"/>
<polygon fill="#191970" stroke="#191970" points="458.5491,-221.3636 449.9184,-215.2186 452.8332,-225.4046 458.5491,-221.3636"/>
</g>
<!-- Node9 -->
<g id="node9" class="node">
<title>Node9</title>
<g id="a_node9"><a xlink:href="memory_8h.html" target="_top" xlink:title="sbml/util/memory.h">
<polygon fill="#ffffff" stroke="#000000" points="378.5,-263 378.5,-282 457.5,-282 457.5,-263 378.5,-263"/>
<text text-anchor="middle" x="418" y="-270" font-family="Helvetica,sans-Serif" font-size="10.00" fill="#000000">sbml/util/memory.h</text>
</a>
</g>
</g>
<!-- Node2&#45;&gt;Node9 -->
<g id="edge10" class="edge">
<title>Node2&#45;&gt;Node9</title>
<path fill="none" stroke="#191970" d="M358.9375,-324.3906C369.662,-314.9683 386.2287,-300.4134 399.0901,-289.1137"/>
<polygon fill="#191970" stroke="#191970" points="401.7059,-291.4745 406.9083,-282.2449 397.0857,-286.2158 401.7059,-291.4745"/>
</g>
<!-- Node2&#45;&gt;Node10 -->
<g id="edge11" class="edge">
<title>Node2&#45;&gt;Node10</title>
<path fill="none" stroke="#191970" d="M314.7188,-324.3906C277.2901,-313.5838 216.4766,-296.0249 176.1099,-284.3698"/>
<polygon fill="#191970" stroke="#191970" points="176.8929,-280.9529 166.3144,-281.5415 174.9511,-287.6782 176.8929,-280.9529"/>
</g>
<!-- Node4 -->
<g id="node4" class="node">
<title>Node4</title>
<g id="a_node4"><a xlink:href="libsbml-namespace_8h.html" target="_top" xlink:title="Defines C++ namespace of libSBML. ">
<polygon fill="#ffffff" stroke="#000000" points="1489.5,-.5 1489.5,-30.5 1578.5,-30.5 1578.5,-.5 1489.5,-.5"/>
<text text-anchor="start" x="1497.5" y="-18.5" font-family="Helvetica,sans-Serif" font-size="10.00" fill="#000000">sbml/common/libsbml</text>
<text text-anchor="middle" x="1534" y="-7.5" font-family="Helvetica,sans-Serif" font-size="10.00" fill="#000000">&#45;namespace.h</text>
</a>
</g>
</g>
<!-- Node3&#45;&gt;Node4 -->
<g id="edge3" class="edge">
<title>Node3&#45;&gt;Node4</title>
<path fill="none" stroke="#191970" d="M479.2107,-192.3056C433.7303,-178.6967 369.4848,-158.8011 366,-154 357.9068,-142.8498 356.7148,-133.179 366,-123 441.9039,-39.7893 1258.949,-20.1143 1479.4392,-16.3053"/>
<polygon fill="#191970" stroke="#191970" points="1479.5431,-19.8041 1489.4825,-16.1357 1479.4248,-12.8051 1479.5431,-19.8041"/>
</g>
<!-- Node5 -->
<g id="node5" class="node">
<title>Node5</title>
<g id="a_node5"><a xlink:href="libsbml-config-common_8h.html" target="_top" xlink:title="Configuration variables. ">
<polygon fill="#ffffff" stroke="#000000" points="374.5,-123.5 374.5,-153.5 463.5,-153.5 463.5,-123.5 374.5,-123.5"/>
<text text-anchor="start" x="382.5" y="-141.5" font-family="Helvetica,sans-Serif" font-size="10.00" fill="#000000">sbml/common/libsbml</text>
<text text-anchor="middle" x="419" y="-130.5" font-family="Helvetica,sans-Serif" font-size="10.00" fill="#000000">&#45;config&#45;common.h</text>
</a>
</g>
</g>
<!-- Node3&#45;&gt;Node5 -->
<g id="edge4" class="edge">
<title>Node3&#45;&gt;Node5</title>
<path fill="none" stroke="#191970" d="M500.436,-190.4639C485.9473,-181.2188 467.1828,-169.2452 451.3183,-159.1222"/>
<polygon fill="#191970" stroke="#191970" points="453.1614,-156.1464 442.8487,-153.7177 449.396,-162.0474 453.1614,-156.1464"/>
</g>
<!-- Node6 -->
<g id="node6" class="node">
<title>Node6</title>
<g id="a_node6"><a xlink:href="libsbml-version_8h.html" target="_top" xlink:title="Define libSBML version numbers for access from client software. ">
<polygon fill="#ffffff" stroke="#000000" points="481.5,-123.5 481.5,-153.5 570.5,-153.5 570.5,-123.5 481.5,-123.5"/>
<text text-anchor="start" x="489.5" y="-141.5" font-family="Helvetica,sans-Serif" font-size="10.00" fill="#000000">sbml/common/libsbml</text>
<text text-anchor="middle" x="526" y="-130.5" font-family="Helvetica,sans-Serif" font-size="10.00" fill="#000000">&#45;version.h</text>
</a>
</g>
</g>
<!-- Node3&#45;&gt;Node6 -->
<g id="edge5" class="edge">
<title>Node3&#45;&gt;Node6</title>
<path fill="none" stroke="#191970" d="M524.4538,-190.2967C524.6865,-182.5013 524.9761,-172.7991 525.2416,-163.9064"/>
<polygon fill="#191970" stroke="#191970" points="528.7479,-163.7432 525.548,-153.6432 521.7511,-163.5343 528.7479,-163.7432"/>
</g>
<!-- Node6&#45;&gt;Node7 -->
<g id="edge6" class="edge">
<title>Node6&#45;&gt;Node7</title>
<path fill="none" stroke="#191970" d="M570.5883,-125.8475C575.4254,-124.7561 580.2976,-123.7748 585,-123 700.39,-103.9877 1050.147,-86.0745 1187.6354,-79.5748"/>
<polygon fill="#191970" stroke="#191970" points="1188.1164,-83.0561 1197.9409,-79.0902 1187.7875,-76.0638 1188.1164,-83.0561"/>
</g>
<!-- Node7&#45;&gt;Node4 -->
<g id="edge7" class="edge">
<title>Node7&#45;&gt;Node4</title>
<path fill="none" stroke="#191970" d="M1288.9943,-67.4581C1340.3658,-56.5638 1424.3898,-38.7449 1479.4478,-27.0688"/>
<polygon fill="#191970" stroke="#191970" points="1480.3206,-30.4617 1489.3769,-24.9632 1478.8683,-23.614 1480.3206,-30.4617"/>
</g>
<!-- Node10&#45;&gt;Node7 -->
<g id="edge14" class="edge">
<title>Node10&#45;&gt;Node7</title>
<path fill="none" stroke="#191970" d="M139.1495,-262.7702C153.2337,-229.7694 198.4258,-124.0824 200,-123 240.9342,-94.8539 976.206,-81.1954 1187.594,-77.8391"/>
<polygon fill="#191970" stroke="#191970" points="1187.9024,-81.3348 1197.8461,-77.6779 1187.7923,-74.3357 1187.9024,-81.3348"/>
</g>
<!-- Node10&#45;&gt;Node8 -->
<g id="edge12" class="edge">
<title>Node10&#45;&gt;Node8</title>
<path fill="none" stroke="#191970" d="M166.1263,-265.707C225.5378,-252.7409 354.3541,-224.6279 412.4852,-211.9413"/>
<polygon fill="#191970" stroke="#191970" points="413.4606,-215.3109 422.4844,-209.7591 411.968,-208.4719 413.4606,-215.3109"/>
</g>
<!-- Node11 -->
<g id="node11" class="node">
<title>Node11</title>
<polygon fill="#ffffff" stroke="#bfbfbf" points="104,-196 104,-215 148,-215 148,-196 104,-196"/>
<text text-anchor="middle" x="126" y="-203" font-family="Helvetica,sans-Serif" font-size="10.00" fill="#000000">stdarg.h</text>
</g>
<!-- Node10&#45;&gt;Node11 -->
<g id="edge13" class="edge">
<title>Node10&#45;&gt;Node11</title>
<path fill="none" stroke="#191970" d="M133.7105,-262.9005C132.4006,-253.149 130.3334,-237.7597 128.669,-225.3695"/>
<polygon fill="#191970" stroke="#191970" points="132.0873,-224.5266 127.2871,-215.0817 125.1497,-225.4586 132.0873,-224.5266"/>
</g>
<!-- Node12&#45;&gt;Node4 -->
<g id="edge16" class="edge">
<title>Node12&#45;&gt;Node4</title>
<path fill="none" stroke="#191970" d="M2842.9841,-772.368C2870.3095,-755.4638 2921,-717.6798 2921,-670 2921,-670 2921,-670 2921,-558 2921,-467.7657 3035,-480.2343 3035,-390 3035,-390 3035,-390 3035,-138.5 3035,-64.4411 1858.9878,-25.1195 1588.8515,-17.0641"/>
<polygon fill="#191970" stroke="#191970" points="1588.614,-13.5556 1578.5147,-16.7579 1588.4067,-20.5525 1588.614,-13.5556"/>
</g>
<!-- Node12&#45;&gt;Node7 -->
<g id="edge17" class="edge">
<title>Node12&#45;&gt;Node7</title>
<path fill="none" stroke="#191970" d="M2815.2353,-772.3752C2796.2959,-754.322 2759,-713.2769 2759,-670 2759,-670 2759,-670 2759,-205.5 2759,-150.9088 2718.608,-143.4703 2668,-123 2603.6481,-96.9704 1556.921,-81.2167 1300.4074,-77.7352"/>
<polygon fill="#191970" stroke="#191970" points="1300.247,-74.2328 1290.2007,-77.5975 1300.1525,-81.2321 1300.247,-74.2328"/>
</g>
<!-- Node13&#45;&gt;Node7 -->
<g id="edge19" class="edge">
<title>Node13&#45;&gt;Node7</title>
<path fill="none" stroke="#191970" d="M2430.4572,-946.9694C2214.2425,-935.8352 1450.2543,-895.3644 821,-848 504.3434,-824.1651 117,-1043.5524 117,-726 117,-726 117,-726 117,-670 117,-558.494 4,-557.506 4,-446 4,-446 4,-446 4,-390 4,-261.3159 7.3202,-191.908 116,-123 161.6236,-94.0725 965.501,-80.8504 1187.574,-77.7396"/>
<polygon fill="#191970" stroke="#191970" points="1187.7533,-81.2375 1197.7038,-77.5991 1187.6562,-74.2382 1187.7533,-81.2375"/>
</g>
<!-- Node14 -->
<g id="node14" class="node">
<title>Node14</title>
<g id="a_node14"><a xlink:href="_string_buffer_8h.html" target="_top" xlink:title="sbml/util/StringBuffer.h">
<polygon fill="#ffffff" stroke="#000000" points="3037,-772.5 3037,-791.5 3129,-791.5 3129,-772.5 3037,-772.5"/>
<text text-anchor="middle" x="3083" y="-779.5" font-family="Helvetica,sans-Serif" font-size="10.00" fill="#000000">sbml/util/StringBuffer.h</text>
</a>
</g>
</g>
<!-- Node13&#45;&gt;Node14 -->
<g id="edge20" class="edge">
<title>Node13&#45;&gt;Node14</title>
<path fill="none" stroke="#191970" d="M2523.5813,-940.4862C2624.779,-911.8164 2926.7596,-826.2637 3039.7198,-794.2615"/>
<polygon fill="#191970" stroke="#191970" points="3040.7531,-797.6066 3049.4204,-791.5133 3038.845,-790.8717 3040.7531,-797.6066"/>
</g>
<!-- Node13&#45;&gt;Node15 -->
<g id="edge21" class="edge">
<title>Node13&#45;&gt;Node15</title>
<path fill="none" stroke="#191970" d="M2485.9525,-940.2455C2485.4494,-932.8579 2486.3505,-922.4689 2488.1146,-913.4087"/>
<polygon fill="#191970" stroke="#191970" points="2491.5263,-914.1924 2490.5495,-903.6427 2484.7342,-912.4989 2491.5263,-914.1924"/>
</g>
<!-- Node15&#45;&gt;Node7 -->
<g id="edge22" class="edge">
<title>Node15&#45;&gt;Node7</title>
<path fill="none" stroke="#191970" d="M2520.7954,-884.4085C2555.5226,-868.6512 2616,-833.777 2616,-782 2616,-782 2616,-782 2616,-205.5 2616,-155.6464 2585.2958,-143.8247 2540,-123 2482.9957,-96.7923 1542.4308,-81.3453 1300.4205,-77.7923"/>
<polygon fill="#191970" stroke="#191970" points="1300.1456,-74.288 1290.0956,-77.6417 1300.0434,-81.2873 1300.1456,-74.288"/>
</g>
<!-- Node15&#45;&gt;Node12 -->
<g id="edge26" class="edge">
<title>Node15&#45;&gt;Node12</title>
<path fill="none" stroke="#191970" d="M2543.024,-889.5505C2608.7486,-882.6083 2725.6792,-867.9038 2763,-848 2784.2647,-836.6592 2802.5053,-815.4874 2813.8057,-800.1752"/>
<polygon fill="#191970" stroke="#191970" points="2816.7039,-802.1388 2819.6276,-791.9553 2810.9916,-798.0928 2816.7039,-802.1388"/>
</g>
<!-- Node15&#45;&gt;Node13 -->
<g id="edge29" class="edge">
<title>Node15&#45;&gt;Node13</title>
<path fill="none" stroke="#191970" d="M2501.0398,-903.6427C2501.5571,-910.9998 2500.6674,-921.3803 2498.912,-930.4538"/>
<polygon fill="#191970" stroke="#191970" points="2495.4937,-929.6973 2496.4862,-940.2455 2502.2883,-931.3807 2495.4937,-929.6973"/>
</g>
<!-- Node16 -->
<g id="node16" class="node">
<title>Node16</title>
<g id="a_node16"><a xlink:href="sbmlfwd_8h.html" target="_top" xlink:title="Forward declarations for all opaque C types. ">
<polygon fill="#ffffff" stroke="#000000" points="2091.5,-263 2091.5,-282 2190.5,-282 2190.5,-263 2091.5,-263"/>
<text text-anchor="middle" x="2141" y="-270" font-family="Helvetica,sans-Serif" font-size="10.00" fill="#000000">sbml/common/sbmlfwd.h</text>
</a>
</g>
</g>
<!-- Node15&#45;&gt;Node16 -->
<g id="edge23" class="edge">
<title>Node15&#45;&gt;Node16</title>
<path fill="none" stroke="#191970" d="M2491.0816,-884.332C2480.6989,-866.7402 2459.585,-827.984 2452,-792 2430.4633,-689.8272 2473,-662.418 2473,-558 2473,-558 2473,-558 2473,-502 2473,-369.865 2292.8506,-307.8673 2197.9574,-284.3758"/>
<polygon fill="#191970" stroke="#191970" points="2198.7569,-280.9684 2188.2149,-282.0251 2197.115,-287.7731 2198.7569,-280.9684"/>
</g>
<!-- Node17 -->
<g id="node17" class="node">
<title>Node17</title>
<g id="a_node17"><a xlink:href="_formula_tokenizer_8h.html" target="_top" xlink:title="Tokenizes an SBML formula string. ">
<polygon fill="#ffffff" stroke="#000000" points="2899,-772.5 2899,-791.5 3019,-791.5 3019,-772.5 2899,-772.5"/>
<text text-anchor="middle" x="2959" y="-779.5" font-family="Helvetica,sans-Serif" font-size="10.00" fill="#000000">sbml/math/FormulaTokenizer.h</text>
</a>
</g>
</g>
<!-- Node15&#45;&gt;Node17 -->
<g id="edge27" class="edge">
<title>Node15&#45;&gt;Node17</title>
<path fill="none" stroke="#191970" d="M2543.1555,-889.8124C2601.2557,-883.841 2703.772,-870.9727 2789,-848 2839.6372,-834.351 2895.921,-810.7319 2929.3426,-795.76"/>
<polygon fill="#191970" stroke="#191970" points="2930.876,-798.9078 2938.5443,-791.5969 2927.9906,-792.5302 2930.876,-798.9078"/>
</g>
<!-- Node18 -->
<g id="node18" class="node">
<title>Node18</title>
<g id="a_node18"><a xlink:href="_formula_parser_8h.html" target="_top" xlink:title="Parses an SBML formula string into an AST. ">
<polygon fill="#ffffff" stroke="#000000" points="2644.5,-828.5 2644.5,-847.5 2753.5,-847.5 2753.5,-828.5 2644.5,-828.5"/>
<text text-anchor="middle" x="2699" y="-835.5" font-family="Helvetica,sans-Serif" font-size="10.00" fill="#000000">sbml/math/FormulaParser.h</text>
</a>
</g>
</g>
<!-- Node15&#45;&gt;Node18 -->
<g id="edge30" class="edge">
<title>Node15&#45;&gt;Node18</title>
<path fill="none" stroke="#191970" d="M2526.483,-884.3733C2558.8009,-874.9001 2610.9481,-860.4032 2649.5195,-850.1435"/>
<polygon fill="#191970" stroke="#191970" points="2650.7381,-853.4416 2659.5108,-847.5011 2648.9483,-846.6743 2650.7381,-853.4416"/>
</g>
<!-- Node20 -->
<g id="node20" class="node">
<title>Node20</title>
<g id="a_node20"><a xlink:href="_x_m_l_attributes_8h.html" target="_top" xlink:title="XMLAttributes are a list of name/value pairs for XML elements. ">
<polygon fill="#ffffff" stroke="#000000" points="1345,-380.5 1345,-399.5 1447,-399.5 1447,-380.5 1345,-380.5"/>
<text text-anchor="middle" x="1396" y="-387.5" font-family="Helvetica,sans-Serif" font-size="10.00" fill="#000000">sbml/xml/XMLAttributes.h</text>
</a>
</g>
</g>
<!-- Node15&#45;&gt;Node20 -->
<g id="edge36" class="edge">
<title>Node15&#45;&gt;Node20</title>
<path fill="none" stroke="#191970" d="M2469.0276,-884.4646C2444.9729,-875.9218 2409.5824,-862.5282 2380,-848 2277.307,-797.5666 2264.8661,-759.3791 2159,-716 1907.244,-612.8418 1790.3445,-720.4551 1565,-568 1504.7001,-527.2046 1521.1306,-485.7743 1468,-436 1454.8577,-423.6879 1437.9874,-412.7079 1423.8808,-404.5657"/>
<polygon fill="#191970" stroke="#191970" points="1425.5127,-401.4682 1415.0769,-399.6394 1422.0945,-407.5769 1425.5127,-401.4682"/>
</g>
<!-- Node22 -->
<g id="node22" class="node">
<title>Node22</title>
<g id="a_node22"><a xlink:href="operation_return_values_8h.html" target="_top" xlink:title="Enumeration of values returned by operations within libSBML. ">
<polygon fill="#ffffff" stroke="#000000" points="1506.5,-257.5 1506.5,-287.5 1625.5,-287.5 1625.5,-257.5 1506.5,-257.5"/>
<text text-anchor="start" x="1514.5" y="-275.5" font-family="Helvetica,sans-Serif" font-size="10.00" fill="#000000">sbml/common/operationReturn</text>
<text text-anchor="middle" x="1566" y="-264.5" font-family="Helvetica,sans-Serif" font-size="10.00" fill="#000000">Values.h</text>
</a>
</g>
</g>
<!-- Node15&#45;&gt;Node22 -->
<g id="edge148" class="edge">
<title>Node15&#45;&gt;Node22</title>
<path fill="none" stroke="#191970" d="M2481.6096,-884.4358C2432.5414,-852.6236 2283,-744.9318 2283,-614 2283,-614 2283,-614 2283,-502 2283,-436.0109 2212.4039,-457.4551 2150,-436 1956.954,-369.6287 1891.4521,-414.8377 1700,-344 1682.834,-337.6485 1680.1023,-332.7023 1664,-324 1644.4175,-313.4169 1622.4964,-301.8693 1604.3603,-292.3957"/>
<polygon fill="#191970" stroke="#191970" points="1605.7389,-289.1674 1595.2538,-287.6469 1602.5022,-295.3741 1605.7389,-289.1674"/>
</g>
<!-- Node27 -->
<g id="node27" class="node">
<title>Node27</title>
<g id="a_node27"><a xlink:href="_syntax_checker_8h.html" target="_top" xlink:title="Syntax checking functions. ">
<polygon fill="#ffffff" stroke="#000000" points="830,-828.5 830,-847.5 922,-847.5 922,-828.5 830,-828.5"/>
<text text-anchor="middle" x="876" y="-835.5" font-family="Helvetica,sans-Serif" font-size="10.00" fill="#000000">sbml/SyntaxChecker.h</text>
</a>
</g>
</g>
<!-- Node15&#45;&gt;Node27 -->
<g id="edge49" class="edge">
<title>Node15&#45;&gt;Node27</title>
<path fill="none" stroke="#191970" d="M2450.8985,-893.5622C2225.4845,-891.2814 1237.8638,-879.6303 932,-848 931.8987,-847.9895 931.7973,-847.979 931.6958,-847.9683"/>
<polygon fill="#191970" stroke="#191970" points="932.4218,-844.5314 922.0686,-846.7812 931.5651,-851.4788 932.4218,-844.5314"/>
</g>
<!-- Node15&#45;&gt;Node51 -->
<g id="edge149" class="edge">
<title>Node15&#45;&gt;Node51</title>
<path fill="none" stroke="#191970" d="M2499.302,-884.4509C2503.7256,-866.1013 2513.4915,-825.5908 2519.3306,-801.3693"/>
<polygon fill="#191970" stroke="#191970" points="2522.7627,-802.0667 2521.7038,-791.5249 2515.9576,-800.4261 2522.7627,-802.0667"/>
</g>
<!-- Node16&#45;&gt;Node3 -->
<g id="edge25" class="edge">
<title>Node16&#45;&gt;Node3</title>
<path fill="none" stroke="#191970" d="M2091.2695,-269.1697C2039.5135,-265.7815 1956.1023,-260.539 1884,-257 1377.0103,-232.1153 763.1909,-212.7287 578.8723,-207.1367"/>
<polygon fill="#191970" stroke="#191970" points="578.7288,-203.6308 568.6274,-206.8267 578.517,-210.6276 578.7288,-203.6308"/>
</g>
<!-- Node16&#45;&gt;Node4 -->
<g id="edge24" class="edge">
<title>Node16&#45;&gt;Node4</title>
<path fill="none" stroke="#191970" d="M2118.3127,-262.8943C2028.9395,-225.0543 1700.1813,-85.8601 1579.1304,-34.6079"/>
<polygon fill="#191970" stroke="#191970" points="1580.3349,-31.3172 1569.7617,-30.6413 1577.6057,-37.7632 1580.3349,-31.3172"/>
</g>
<!-- Node17&#45;&gt;Node7 -->
<g id="edge28" class="edge">
<title>Node17&#45;&gt;Node7</title>
<path fill="none" stroke="#191970" d="M2959,-772.4116C2959,-753.0538 2959,-707.9167 2959,-670 2959,-670 2959,-670 2959,-205.5 2959,-91.0245 2827.6535,-143.3429 2715,-123 2574.1036,-97.557 1552.2599,-81.4039 1300.123,-77.7777"/>
<polygon fill="#191970" stroke="#191970" points="1300.1352,-74.2776 1290.0861,-77.6342 1300.035,-81.2769 1300.1352,-74.2776"/>
</g>
<!-- Node18&#45;&gt;Node7 -->
<g id="edge32" class="edge">
<title>Node18&#45;&gt;Node7</title>
<path fill="none" stroke="#191970" d="M2692.1655,-828.3377C2679.5769,-809.5638 2654,-766.4436 2654,-726 2654,-726 2654,-726 2654,-205.5 2654,-167.3133 2660.1569,-146.4261 2630,-123 2603.3206,-102.2752 1557.4153,-82.5216 1300.5339,-77.9759"/>
<polygon fill="#191970" stroke="#191970" points="1300.3715,-74.4726 1290.3114,-77.7957 1300.2481,-81.4715 1300.3715,-74.4726"/>
</g>
<!-- Node18&#45;&gt;Node12 -->
<g id="edge31" class="edge">
<title>Node18&#45;&gt;Node12</title>
<path fill="none" stroke="#191970" d="M2720.8321,-828.3733C2741.3103,-819.3435 2772.1399,-805.7494 2795.1319,-795.6111"/>
<polygon fill="#191970" stroke="#191970" points="2796.715,-798.7383 2804.4528,-791.5011 2793.8907,-792.3333 2796.715,-798.7383"/>
</g>
<!-- Node18&#45;&gt;Node15 -->
<g id="edge34" class="edge">
<title>Node18&#45;&gt;Node15</title>
<path fill="none" stroke="#191970" d="M2669.9454,-847.5011C2637.8038,-856.9296 2585.685,-871.4228 2546.994,-881.7199"/>
<polygon fill="#191970" stroke="#191970" points="2545.7389,-878.4315 2536.9671,-884.3733 2547.5297,-885.1985 2545.7389,-878.4315"/>
</g>
<!-- Node18&#45;&gt;Node17 -->
<g id="edge35" class="edge">
<title>Node18&#45;&gt;Node17</title>
<path fill="none" stroke="#191970" d="M2743.4002,-828.4369C2788.0841,-818.8127 2857.057,-803.957 2904.9088,-793.6504"/>
<polygon fill="#191970" stroke="#191970" points="2905.7441,-797.0508 2914.783,-791.5237 2904.2702,-790.2078 2905.7441,-797.0508"/>
</g>
<!-- Node19 -->
<g id="node19" class="node">
<title>Node19</title>
<g id="a_node19"><a xlink:href="_stack_8h.html" target="_top" xlink:title="sbml/util/Stack.h">
<polygon fill="#ffffff" stroke="#000000" points="2682.5,-772.5 2682.5,-791.5 2753.5,-791.5 2753.5,-772.5 2682.5,-772.5"/>
<text text-anchor="middle" x="2718" y="-779.5" font-family="Helvetica,sans-Serif" font-size="10.00" fill="#000000">sbml/util/Stack.h</text>
</a>
</g>
</g>
<!-- Node18&#45;&gt;Node19 -->
<g id="edge33" class="edge">
<title>Node18&#45;&gt;Node19</title>
<path fill="none" stroke="#191970" d="M2702.3095,-828.2455C2704.8433,-820.7776 2708.4177,-810.2427 2711.515,-801.1137"/>
<polygon fill="#191970" stroke="#191970" points="2714.8298,-802.237 2714.7284,-791.6427 2708.2009,-799.9879 2714.8298,-802.237"/>
</g>
<!-- Node20&#45;&gt;Node16 -->
<g id="edge39" class="edge">
<title>Node20&#45;&gt;Node16</title>
<path fill="none" stroke="#191970" d="M1447.3886,-387.5625C1565.9729,-381.6432 1855.8481,-365.4086 1951,-344 2010.1829,-330.6842 2075.6716,-302.9529 2112.2337,-286.2097"/>
<polygon fill="#191970" stroke="#191970" points="2113.7143,-289.3812 2121.3173,-282.0024 2110.7723,-283.0294 2113.7143,-289.3812"/>
</g>
<!-- Node21 -->
<g id="node21" class="node">
<title>Node21</title>
<g id="a_node21"><a xlink:href="_x_m_l_extern_8h.html" target="_top" xlink:title="Defines LIBLAX_EXTERN. ">
<polygon fill="#ffffff" stroke="#000000" points="1783,-263 1783,-282 1875,-282 1875,-263 1783,-263"/>
<text text-anchor="middle" x="1829" y="-270" font-family="Helvetica,sans-Serif" font-size="10.00" fill="#000000">sbml/xml/XMLExtern.h</text>
</a>
</g>
</g>
<!-- Node20&#45;&gt;Node21 -->
<g id="edge37" class="edge">
<title>Node20&#45;&gt;Node21</title>
<path fill="none" stroke="#191970" d="M1447.1915,-387.2975C1550.7576,-381.3944 1777.6592,-366.0857 1805,-344 1820.3932,-331.5655 1825.976,-308.8948 1827.9668,-292.4067"/>
<polygon fill="#191970" stroke="#191970" points="1831.4764,-292.445 1828.8476,-282.1815 1824.5022,-291.8442 1831.4764,-292.445"/>
</g>
<!-- Node20&#45;&gt;Node22 -->
<g id="edge40" class="edge">
<title>Node20&#45;&gt;Node22</title>
<path fill="none" stroke="#191970" d="M1428.7079,-380.4091C1451.2303,-372.8071 1481.1026,-360.679 1504,-344 1522.0955,-330.8188 1538.4926,-311.4134 1549.8728,-296.1438"/>
<polygon fill="#191970" stroke="#191970" points="1552.9475,-297.8645 1555.9684,-287.7094 1547.2741,-293.7642 1552.9475,-297.8645"/>
</g>
<!-- Node23 -->
<g id="node23" class="node">
<title>Node23</title>
<polygon fill="#ffffff" stroke="#bfbfbf" points="1025.5,-263 1025.5,-282 1060.5,-282 1060.5,-263 1025.5,-263"/>
<text text-anchor="middle" x="1043" y="-270" font-family="Helvetica,sans-Serif" font-size="10.00" fill="#000000">string</text>
</g>
<!-- Node20&#45;&gt;Node23 -->
<g id="edge42" class="edge">
<title>Node20&#45;&gt;Node23</title>
<path fill="none" stroke="#191970" d="M1357.4497,-380.4248C1323.6058,-371.7563 1273.1806,-358.2025 1230,-344 1172.2054,-324.9908 1106.0181,-298.5487 1069.9361,-283.7258"/>
<polygon fill="#191970" stroke="#191970" points="1071.1684,-280.4481 1060.5894,-279.8689 1068.4983,-286.9188 1071.1684,-280.4481"/>
</g>
<!-- Node24 -->
<g id="node24" class="node">
<title>Node24</title>
<polygon fill="#ffffff" stroke="#bfbfbf" points="959.5,-263 959.5,-282 996.5,-282 996.5,-263 959.5,-263"/>
<text text-anchor="middle" x="978" y="-270" font-family="Helvetica,sans-Serif" font-size="10.00" fill="#000000">vector</text>
</g>
<!-- Node20&#45;&gt;Node24 -->
<g id="edge43" class="edge">
<title>Node20&#45;&gt;Node24</title>
<path fill="none" stroke="#191970" d="M1344.8203,-381.4722C1299.5113,-373.4317 1231.794,-360.211 1174,-344 1102.6692,-323.992 1086.3228,-314.1295 1017,-288 1013.4505,-286.6621 1009.7317,-285.2273 1006.0593,-283.7904"/>
<polygon fill="#191970" stroke="#191970" points="1007.1811,-280.4703 996.5947,-280.0468 1004.6064,-286.9796 1007.1811,-280.4703"/>
</g>
<!-- Node25 -->
<g id="node25" class="node">
<title>Node25</title>
<polygon fill="#ffffff" stroke="#bfbfbf" points="748.5,-324.5 748.5,-343.5 797.5,-343.5 797.5,-324.5 748.5,-324.5"/>
<text text-anchor="middle" x="773" y="-331.5" font-family="Helvetica,sans-Serif" font-size="10.00" fill="#000000">stdexcept</text>
</g>
<!-- Node20&#45;&gt;Node25 -->
<g id="edge44" class="edge">
<title>Node20&#45;&gt;Node25</title>
<path fill="none" stroke="#191970" d="M1344.7526,-385.3935C1221.6382,-374.327 911.7316,-346.4703 807.681,-337.1174"/>
<polygon fill="#191970" stroke="#191970" points="807.9782,-333.6301 797.705,-336.2207 807.3514,-340.602 807.9782,-333.6301"/>
</g>
<!-- Node26 -->
<g id="node26" class="node">
<title>Node26</title>
<g id="a_node26"><a xlink:href="_x_m_l_triple_8h.html" target="_top" xlink:title="Stores an XML namespace triple. ">
<polygon fill="#ffffff" stroke="#000000" points="1852.5,-324.5 1852.5,-343.5 1941.5,-343.5 1941.5,-324.5 1852.5,-324.5"/>
<text text-anchor="middle" x="1897" y="-331.5" font-family="Helvetica,sans-Serif" font-size="10.00" fill="#000000">sbml/xml/XMLTriple.h</text>
</a>
</g>
</g>
<!-- Node20&#45;&gt;Node26 -->
<g id="edge45" class="edge">
<title>Node20&#45;&gt;Node26</title>
<path fill="none" stroke="#191970" d="M1447.1728,-385.7491C1529.6397,-378.6573 1696.9677,-363.2704 1838,-344 1839.3028,-343.822 1840.6209,-343.6371 1841.9498,-343.4466"/>
<polygon fill="#191970" stroke="#191970" points="1842.9016,-346.8427 1852.2684,-341.8918 1841.8585,-339.9209 1842.9016,-346.8427"/>
</g>
<!-- Node21&#45;&gt;Node4 -->
<g id="edge38" class="edge">
<title>Node21&#45;&gt;Node4</title>
<path fill="none" stroke="#191970" d="M1817.7959,-262.7391C1774.8881,-225.3584 1620.3694,-90.7439 1559.1931,-37.4479"/>
<polygon fill="#191970" stroke="#191970" points="1561.3751,-34.7069 1551.536,-30.7771 1556.777,-39.9849 1561.3751,-34.7069"/>
</g>
<!-- Node22&#45;&gt;Node7 -->
<g id="edge41" class="edge">
<title>Node22&#45;&gt;Node7</title>
<path fill="none" stroke="#191970" d="M1541.2679,-257.4841C1481.2989,-221.0743 1328.6794,-128.4125 1268.7214,-92.0094"/>
<polygon fill="#191970" stroke="#191970" points="1270.2868,-88.8653 1259.9225,-86.6672 1266.654,-94.8488 1270.2868,-88.8653"/>
</g>
<!-- Node26&#45;&gt;Node16 -->
<g id="edge47" class="edge">
<title>Node26&#45;&gt;Node16</title>
<path fill="none" stroke="#191970" d="M1934.8573,-324.4581C1977.5071,-313.7082 2046.9064,-296.2162 2093.2456,-284.5365"/>
<polygon fill="#191970" stroke="#191970" points="2094.2126,-287.9023 2103.0539,-282.0643 2092.5017,-281.1146 2094.2126,-287.9023"/>
</g>
<!-- Node26&#45;&gt;Node21 -->
<g id="edge46" class="edge">
<title>Node26&#45;&gt;Node21</title>
<path fill="none" stroke="#191970" d="M1886.375,-324.3906C1875.9569,-314.9683 1859.8636,-300.4134 1847.3696,-289.1137"/>
<polygon fill="#191970" stroke="#191970" points="1849.5392,-286.3568 1839.7748,-282.2449 1844.8438,-291.5484 1849.5392,-286.3568"/>
</g>
<!-- Node26&#45;&gt;Node23 -->
<g id="edge48" class="edge">
<title>Node26&#45;&gt;Node23</title>
<path fill="none" stroke="#191970" d="M1852.1142,-328.7504C1837.1427,-327.0983 1820.3641,-325.3536 1805,-324 1518.554,-298.7631 1170.5749,-279.3255 1070.8894,-273.973"/>
<polygon fill="#191970" stroke="#191970" points="1070.9141,-270.4694 1060.7416,-273.4308 1070.5406,-277.4594 1070.9141,-270.4694"/>
</g>
<!-- Node27&#45;&gt;Node7 -->
<g id="edge50" class="edge">
<title>Node27&#45;&gt;Node7</title>
<path fill="none" stroke="#191970" d="M922.112,-829.5608C925.4549,-829.0119 928.7773,-828.4855 932,-828 1465.1243,-747.6936 1606.0316,-779.0157 2136,-680 2236.0266,-661.3117 2273.6965,-680.9867 2358,-624 2510.6867,-520.7883 2578,-456.7983 2578,-272.5 2578,-272.5 2578,-272.5 2578,-205.5 2578,-154.4251 2544.6624,-143.7668 2498,-123 2442.6578,-98.3704 1536.6972,-81.8121 1300.1386,-77.8944"/>
<polygon fill="#191970" stroke="#191970" points="1300.0936,-74.3933 1290.0373,-77.728 1299.9783,-81.3923 1300.0936,-74.3933"/>
</g>
<!-- Node27&#45;&gt;Node10 -->
<g id="edge146" class="edge">
<title>Node27&#45;&gt;Node10</title>
<path fill="none" stroke="#191970" d="M829.5982,-837.6433C687.6061,-836.158 265.6562,-828.6716 217,-792 192.0742,-773.2137 193,-757.2125 193,-726 193,-726 193,-726 193,-670 193,-523.5435 153.9711,-349.8845 139.945,-292.2044"/>
<polygon fill="#191970" stroke="#191970" points="143.2846,-291.1284 137.4922,-282.2573 136.4882,-292.8044 143.2846,-291.1284"/>
</g>
<!-- Node27&#45;&gt;Node23 -->
<g id="edge147" class="edge">
<title>Node27&#45;&gt;Node23</title>
<path fill="none" stroke="#191970" d="M914.9476,-828.4989C981.1691,-811.4693 1111.0744,-773.9669 1137,-736 1142.0126,-728.6593 1141.5594,-723.6305 1137,-716 1092.733,-641.9167 1032.0878,-679.5004 966,-624 937.4027,-599.9841 914,-595.3439 914,-558 914,-558 914,-558 914,-502 914,-412.34 989.7441,-325.3328 1025.152,-289.558"/>
<polygon fill="#191970" stroke="#191970" points="1027.7982,-291.8634 1032.4434,-282.3411 1022.8739,-286.8883 1027.7982,-291.8634"/>
</g>
<!-- Node28 -->
<g id="node28" class="node">
<title>Node28</title>
<g id="a_node28"><a xlink:href="_s_base_8h.html" target="_top" xlink:title="Definition of SBase, the base object of all SBML objects. ">
<polygon fill="#ffffff" stroke="#000000" points="844.5,-772.5 844.5,-791.5 907.5,-791.5 907.5,-772.5 844.5,-772.5"/>
<text text-anchor="middle" x="876" y="-779.5" font-family="Helvetica,sans-Serif" font-size="10.00" fill="#000000">sbml/SBase.h</text>
</a>
</g>
</g>
<!-- Node27&#45;&gt;Node28 -->
<g id="edge51" class="edge">
<title>Node27&#45;&gt;Node28</title>
<path fill="none" stroke="#191970" d="M870.7332,-828.2455C869.3221,-820.9382 868.9179,-810.6944 869.5205,-801.7046"/>
<polygon fill="#191970" stroke="#191970" points="873.0111,-801.9945 870.7549,-791.6427 866.0632,-801.1421 873.0111,-801.9945"/>
</g>
<!-- Node28&#45;&gt;Node7 -->
<g id="edge52" class="edge">
<title>Node28&#45;&gt;Node7</title>
<path fill="none" stroke="#191970" d="M844.3059,-780.2941C763.3341,-775.6155 550.6358,-761.2223 485,-736 412.8644,-708.28 398.7593,-685.5266 352,-624 246.5587,-485.2587 164.5161,-424.0879 214,-257 234.1634,-188.9161 239.444,-158.3955 301,-123 339.5416,-100.8381 990.2636,-83.1966 1187.6741,-78.3349"/>
<polygon fill="#191970" stroke="#191970" points="1187.9179,-81.8301 1197.8292,-78.0863 1187.7465,-74.8322 1187.9179,-81.8301"/>
</g>
<!-- Node28&#45;&gt;Node16 -->
<g id="edge53" class="edge">
<title>Node28&#45;&gt;Node16</title>
<path fill="none" stroke="#191970" d="M907.5896,-781.5816C1056.1554,-779.4567 1686.2138,-768.6506 1880,-736 1966.392,-721.444 1986.4976,-709.4755 2069,-680 2200.6784,-632.9555 2359,-697.8299 2359,-558 2359,-558 2359,-558 2359,-502 2359,-406.838 2310.8749,-387.5023 2240,-324 2221.6476,-307.5567 2197.0943,-294.7402 2177.0317,-286.0056"/>
<polygon fill="#191970" stroke="#191970" points="2178.166,-282.6861 2167.5904,-282.0476 2175.4596,-289.1417 2178.166,-282.6861"/>
</g>
<!-- Node28&#45;&gt;Node23 -->
<g id="edge143" class="edge">
<title>Node28&#45;&gt;Node23</title>
<path fill="none" stroke="#191970" d="M876,-772.4116C876,-753.0538 876,-707.9167 876,-670 876,-670 876,-670 876,-502 876,-456.56 879.9529,-445.3377 883,-400 883.5675,-391.5563 882.7435,-330.6323 888,-324 922.0573,-281.0288 954.4263,-306.6164 1006,-288 1009.3102,-286.8051 1012.7552,-285.4781 1016.1528,-284.1175"/>
<polygon fill="#191970" stroke="#191970" points="1017.5451,-287.3293 1025.4514,-280.2766 1014.8726,-280.8595 1017.5451,-287.3293"/>
</g>
<!-- Node28&#45;&gt;Node25 -->
<g id="edge144" class="edge">
<title>Node28&#45;&gt;Node25</title>
<path fill="none" stroke="#191970" d="M846.1542,-772.4325C806.1204,-757.5095 740,-724.598 740,-670 740,-670 740,-670 740,-446 740,-412.051 754.1235,-374.5869 763.8911,-352.7366"/>
<polygon fill="#191970" stroke="#191970" points="767.0937,-354.1501 768.1307,-343.6061 760.7448,-351.202 767.0937,-354.1501"/>
</g>
<!-- Node28&#45;&gt;Node27 -->
<g id="edge121" class="edge">
<title>Node28&#45;&gt;Node27</title>
<path fill="none" stroke="#191970" d="M881.2451,-791.6427C882.6665,-798.9199 883.081,-809.155 882.4887,-818.1575"/>
<polygon fill="#191970" stroke="#191970" points="878.9947,-817.8972 881.2668,-828.2455 885.9439,-818.739 878.9947,-817.8972"/>
</g>
<!-- Node29 -->
<g id="node29" class="node">
<title>Node29</title>
<g id="a_node29"><a xlink:href="_s_b_m_l_type_codes_8h.html" target="_top" xlink:title="Enumeration to identify SBML objects at runtime. ">
<polygon fill="#ffffff" stroke="#000000" points="222.5,-263 222.5,-282 321.5,-282 321.5,-263 222.5,-263"/>
<text text-anchor="middle" x="272" y="-270" font-family="Helvetica,sans-Serif" font-size="10.00" fill="#000000">sbml/SBMLTypeCodes.h</text>
</a>
</g>
</g>
<!-- Node28&#45;&gt;Node29 -->
<g id="edge54" class="edge">
<title>Node28&#45;&gt;Node29</title>
<path fill="none" stroke="#191970" d="M844.2509,-780.9642C767.8136,-777.9878 575.8299,-767.5011 521,-736 357.5115,-642.0718 322.804,-578.4766 262,-400 249.5256,-363.3841 258.6613,-317.5555 265.7713,-292.0116"/>
<polygon fill="#191970" stroke="#191970" points="269.2231,-292.6826 268.718,-282.0998 262.5134,-290.6877 269.2231,-292.6826"/>
</g>
<!-- Node30 -->
<g id="node30" class="node">
<title>Node30</title>
<g id="a_node30"><a xlink:href="_r_d_f_annotation_8h.html" target="_top" xlink:title="RDFAnnotation I/O. ">
<polygon fill="#ffffff" stroke="#000000" points="998.5,-716.5 998.5,-735.5 1127.5,-735.5 1127.5,-716.5 998.5,-716.5"/>
<text text-anchor="middle" x="1063" y="-723.5" font-family="Helvetica,sans-Serif" font-size="10.00" fill="#000000">sbml/annotation/RDFAnnotation.h</text>
</a>
</g>
</g>
<!-- Node28&#45;&gt;Node30 -->
<g id="edge57" class="edge">
<title>Node28&#45;&gt;Node30</title>
<path fill="none" stroke="#191970" d="M907.722,-772.5004C939.0195,-763.1278 987.0328,-748.7495 1021.3797,-738.4638"/>
<polygon fill="#191970" stroke="#191970" points="1022.5468,-741.768 1031.1224,-735.5462 1020.5386,-735.0622 1022.5468,-741.768"/>
</g>
<!-- Node33 -->
<g id="node33" class="node">
<title>Node33</title>
<g id="a_node33"><a xlink:href="_list_8h.html" target="_top" xlink:title="Simple, generic list utility class. ">
<polygon fill="#ffffff" stroke="#000000" points="2077,-492.5 2077,-511.5 2141,-511.5 2141,-492.5 2077,-492.5"/>
<text text-anchor="middle" x="2109" y="-499.5" font-family="Helvetica,sans-Serif" font-size="10.00" fill="#000000">sbml/util/List.h</text>
</a>
</g>
</g>
<!-- Node28&#45;&gt;Node33 -->
<g id="edge110" class="edge">
<title>Node28&#45;&gt;Node33</title>
<path fill="none" stroke="#191970" d="M907.794,-780.6288C1093.6219,-772.4107 2031,-728.0775 2031,-670 2031,-670 2031,-670 2031,-614 2031,-573.9033 2065.0809,-537.8785 2088.1871,-518.0622"/>
<polygon fill="#191970" stroke="#191970" points="2090.6337,-520.5811 2096.1199,-511.5173 2086.1789,-515.1816 2090.6337,-520.5811"/>
</g>
<!-- Node35 -->
<g id="node35" class="node">
<title>Node35</title>
<g id="a_node35"><a xlink:href="_x_m_l_node_8h.html" target="_top" xlink:title="Class definition of XMLNode, a node in an XML document tree. ">
<polygon fill="#ffffff" stroke="#000000" points="1689,-492.5 1689,-511.5 1777,-511.5 1777,-492.5 1689,-492.5"/>
<text text-anchor="middle" x="1733" y="-499.5" font-family="Helvetica,sans-Serif" font-size="10.00" fill="#000000">sbml/xml/XMLNode.h</text>
</a>
</g>
</g>
<!-- Node28&#45;&gt;Node35 -->
<g id="edge134" class="edge">
<title>Node28&#45;&gt;Node35</title>
<path fill="none" stroke="#191970" d="M907.7323,-781.2209C1061.8604,-777.0264 1725,-754.0931 1725,-670 1725,-670 1725,-670 1725,-614 1725,-581.6293 1728.366,-544.1294 1730.7313,-521.7743"/>
<polygon fill="#191970" stroke="#191970" points="1734.239,-521.8948 1731.8538,-511.5719 1727.281,-521.1291 1734.239,-521.8948"/>
</g>
<!-- Node43 -->
<g id="node43" class="node">
<title>Node43</title>
<g id="a_node43"><a xlink:href="_c_v_term_8h.html" target="_top" xlink:title="Definition of a CVTerm class for adding annotations to a Model. ">
<polygon fill="#ffffff" stroke="#000000" points="1220,-492.5 1220,-511.5 1326,-511.5 1326,-492.5 1220,-492.5"/>
<text text-anchor="middle" x="1273" y="-499.5" font-family="Helvetica,sans-Serif" font-size="10.00" fill="#000000">sbml/annotation/CVTerm.h</text>
</a>
</g>
</g>
<!-- Node28&#45;&gt;Node43 -->
<g id="edge100" class="edge">
<title>Node28&#45;&gt;Node43</title>
<path fill="none" stroke="#191970" d="M907.5647,-779.3744C997.7311,-771.0132 1250,-741.2532 1250,-670 1250,-670 1250,-670 1250,-614 1250,-580.906 1259.7548,-543.4151 1266.5588,-521.2901"/>
<polygon fill="#191970" stroke="#191970" points="1269.8974,-522.3405 1269.6063,-511.7497 1263.2294,-520.2105 1269.8974,-522.3405"/>
</g>
<!-- Node44 -->
<g id="node44" class="node">
<title>Node44</title>
<g id="a_node44"><a xlink:href="_s_b_m_l_namespaces_8h.html" target="_top" xlink:title="SBMLNamespaces class to store level/version and namespace. ">
<polygon fill="#ffffff" stroke="#000000" points="768.5,-380.5 768.5,-399.5 873.5,-399.5 873.5,-380.5 768.5,-380.5"/>
<text text-anchor="middle" x="821" y="-387.5" font-family="Helvetica,sans-Serif" font-size="10.00" fill="#000000">sbml/SBMLNamespaces.h</text>
</a>
</g>
</g>
<!-- Node28&#45;&gt;Node44 -->
<g id="edge111" class="edge">
<title>Node28&#45;&gt;Node44</title>
<path fill="none" stroke="#191970" d="M869.6211,-772.2715C857.8717,-753.3847 834,-710.0797 834,-670 834,-670 834,-670 834,-502 834,-469.3457 828.48,-431.6911 824.6339,-409.4184"/>
<polygon fill="#191970" stroke="#191970" points="828.0735,-408.7698 822.8626,-399.545 821.1835,-410.0059 828.0735,-408.7698"/>
</g>
<!-- Node46 -->
<g id="node46" class="node">
<title>Node46</title>
<g id="a_node46"><a xlink:href="_s_b_m_l_constructor_exception_8h.html" target="_top" xlink:title="Definition of SBMLConstructorException, the exception class for constructor exceptions. ">
<polygon fill="#ffffff" stroke="#000000" points="578.5,-436.5 578.5,-455.5 711.5,-455.5 711.5,-436.5 578.5,-436.5"/>
<text text-anchor="middle" x="645" y="-443.5" font-family="Helvetica,sans-Serif" font-size="10.00" fill="#000000">sbml/SBMLConstructorException.h</text>
</a>
</g>
</g>
<!-- Node28&#45;&gt;Node46 -->
<g id="edge122" class="edge">
<title>Node28&#45;&gt;Node46</title>
<path fill="none" stroke="#191970" d="M844.4375,-778.9357C787.625,-771.4953 674,-746.9906 674,-670 674,-670 674,-670 674,-558 674,-524.5134 661.7005,-487.1413 653.1215,-465.1469"/>
<polygon fill="#191970" stroke="#191970" points="656.2799,-463.6216 649.279,-455.6693 649.7928,-466.2517 656.2799,-463.6216"/>
</g>
<!-- Node47 -->
<g id="node47" class="node">
<title>Node47</title>
<polygon fill="#ffffff" stroke="#bfbfbf" points="530.5,-324.5 530.5,-343.5 577.5,-343.5 577.5,-324.5 530.5,-324.5"/>
<text text-anchor="middle" x="554" y="-331.5" font-family="Helvetica,sans-Serif" font-size="10.00" fill="#000000">algorithm</text>
</g>
<!-- Node28&#45;&gt;Node47 -->
<g id="edge145" class="edge">
<title>Node28&#45;&gt;Node47</title>
<path fill="none" stroke="#191970" d="M844.3351,-780.4641C772.7423,-776.5262 600.7791,-764.3196 551,-736 523.2478,-720.2116 519.2176,-709.0646 506,-680 450.7843,-558.5848 457.484,-500.8154 514,-380 519.0448,-369.2156 527.3805,-359.0262 535.1404,-350.9915"/>
<polygon fill="#191970" stroke="#191970" points="537.8613,-353.2262 542.5652,-343.7328 532.9678,-348.2208 537.8613,-353.2262"/>
</g>
<!-- Node48 -->
<g id="node48" class="node">
<title>Node48</title>
<g id="a_node48"><a xlink:href="_expected_attributes_8h.html" target="_top" xlink:title="Definition of ExpectedAttributes, the class allowing the specification of attributes to expect...">
<polygon fill="#ffffff" stroke="#000000" points="532,-380.5 532,-399.5 636,-399.5 636,-380.5 532,-380.5"/>
<text text-anchor="middle" x="584" y="-387.5" font-family="Helvetica,sans-Serif" font-size="10.00" fill="#000000">sbml/ExpectedAttributes.h</text>
</a>
</g>
</g>
<!-- Node28&#45;&gt;Node48 -->
<g id="edge128" class="edge">
<title>Node28&#45;&gt;Node48</title>
<path fill="none" stroke="#191970" d="M844.4783,-779.1779C755.7,-770.3677 510,-739.6897 510,-670 510,-670 510,-670 510,-502 510,-462.563 542.3332,-426.3258 564.2544,-406.2897"/>
<polygon fill="#191970" stroke="#191970" points="566.5867,-408.8995 571.7804,-399.665 561.9616,-403.6451 566.5867,-408.8995"/>
</g>
<!-- Node49 -->
<g id="node49" class="node">
<title>Node49</title>
<g id="a_node49"><a xlink:href="_x_m_l_error_8h.html" target="_top" xlink:title="Represents errors (and messages) encountered during an XML parse. ">
<polygon fill="#ffffff" stroke="#000000" points="1708.5,-324.5 1708.5,-343.5 1795.5,-343.5 1795.5,-324.5 1708.5,-324.5"/>
<text text-anchor="middle" x="1752" y="-331.5" font-family="Helvetica,sans-Serif" font-size="10.00" fill="#000000">sbml/xml/XMLError.h</text>
</a>
</g>
</g>
<!-- Node28&#45;&gt;Node49 -->
<g id="edge135" class="edge">
<title>Node28&#45;&gt;Node49</title>
<path fill="none" stroke="#191970" d="M907.8406,-780.9644C1045.5727,-776.3892 1590.7776,-757.2719 1761,-736 1887.3619,-720.2091 1936.7603,-751.7029 2042,-680 2140.0067,-613.2252 2222.7071,-529.6903 2150,-436 2107.9217,-381.778 1904.2038,-351.4371 1805.6386,-339.7134"/>
<polygon fill="#191970" stroke="#191970" points="1805.9196,-336.2226 1795.581,-338.5385 1805.1073,-343.1753 1805.9196,-336.2226"/>
</g>
<!-- Node29&#45;&gt;Node3 -->
<g id="edge55" class="edge">
<title>Node29&#45;&gt;Node3</title>
<path fill="none" stroke="#191970" d="M310.244,-262.9804C348.3413,-253.4136 408.7385,-238.0215 469.7088,-221.3166"/>
<polygon fill="#191970" stroke="#191970" points="470.7819,-224.6515 479.4957,-218.625 468.9256,-217.9021 470.7819,-224.6515"/>
</g>
<!-- Node29&#45;&gt;Node7 -->
<g id="edge56" class="edge">
<title>Node29&#45;&gt;Node7</title>
<path fill="none" stroke="#191970" d="M272.5133,-262.666C274.538,-235.1111 284.4198,-156.9512 332,-123 366.9068,-98.092 994.4351,-82.4253 1187.7725,-78.1739"/>
<polygon fill="#191970" stroke="#191970" points="1188.0754,-81.6682 1197.9967,-77.9508 1187.9227,-74.6699 1188.0754,-81.6682"/>
</g>
<!-- Node31 -->
<g id="node31" class="node">
<title>Node31</title>
<g id="a_node31"><a xlink:href="_r_d_f_annotation_parser_8h.html" target="_top" xlink:title="RDFAnnotationParser.h">
<polygon fill="#ffffff" stroke="#000000" points="1118,-660.5 1118,-679.5 1214,-679.5 1214,-660.5 1118,-660.5"/>
<text text-anchor="middle" x="1166" y="-667.5" font-family="Helvetica,sans-Serif" font-size="10.00" fill="#000000">RDFAnnotationParser.h</text>
</a>
</g>
</g>
<!-- Node30&#45;&gt;Node31 -->
<g id="edge58" class="edge">
<title>Node30&#45;&gt;Node31</title>
<path fill="none" stroke="#191970" d="M1080.9412,-716.2455C1097.04,-707.4928 1120.8879,-694.527 1139.2391,-684.5496"/>
<polygon fill="#191970" stroke="#191970" points="1141.1507,-687.4942 1148.2644,-679.6427 1137.8071,-681.3444 1141.1507,-687.4942"/>
</g>
<!-- Node31&#45;&gt;Node7 -->
<g id="edge59" class="edge">
<title>Node31&#45;&gt;Node7</title>
<path fill="none" stroke="#191970" d="M1117.764,-666.3537C972.3188,-654.7201 548,-615.825 548,-558 548,-558 548,-558 548,-502 548,-454.2145 521.6544,-447.1685 514,-400 512.5762,-391.2259 513.3699,-388.8665 514,-380 515.7823,-354.9217 507.1378,-344.2784 522,-324 647.6592,-152.5464 751.8958,-182.3974 956,-123 1034.6554,-100.1101 1128.9198,-87.7798 1187.6495,-81.8044"/>
<polygon fill="#191970" stroke="#191970" points="1188.2264,-85.2645 1197.8328,-80.7959 1187.5365,-78.2985 1188.2264,-85.2645"/>
</g>
<!-- Node31&#45;&gt;Node16 -->
<g id="edge60" class="edge">
<title>Node31&#45;&gt;Node16</title>
<path fill="none" stroke="#191970" d="M1214.0052,-668.9489C1358.2001,-665.4966 1785.925,-653.0231 1922,-624 2069.1849,-592.6073 2147.2019,-589.8496 2216,-456 2242.8383,-403.7849 2254.3894,-372.2894 2221,-324 2209.6132,-307.5318 2191.0745,-295.1129 2174.7093,-286.6006"/>
<polygon fill="#191970" stroke="#191970" points="2175.9156,-283.2942 2165.3954,-282.0391 2172.8367,-289.5808 2175.9156,-283.2942"/>
</g>
<!-- Node31&#45;&gt;Node20 -->
<g id="edge61" class="edge">
<title>Node31&#45;&gt;Node20</title>
<path fill="none" stroke="#191970" d="M1201.4688,-660.4102C1265.3125,-642.0939 1393,-600.1877 1393,-558 1393,-558 1393,-558 1393,-502 1393,-469.7 1394.2622,-432.1791 1395.1492,-409.8005"/>
<polygon fill="#191970" stroke="#191970" points="1398.6553,-409.7217 1395.5702,-399.5861 1391.6613,-409.4334 1398.6553,-409.7217"/>
</g>
<!-- Node31&#45;&gt;Node23 -->
<g id="edge97" class="edge">
<title>Node31&#45;&gt;Node23</title>
<path fill="none" stroke="#191970" d="M1117.9742,-665.8612C1054.8799,-657.4914 952,-632.4319 952,-558 952,-558 952,-558 952,-502 952,-417.8371 1005.5383,-327.7625 1030.4841,-290.3609"/>
<polygon fill="#191970" stroke="#191970" points="1033.4263,-292.2586 1036.1602,-282.0225 1027.6397,-288.3195 1033.4263,-292.2586"/>
</g>
<!-- Node32 -->
<g id="node32" class="node">
<title>Node32</title>
<g id="a_node32"><a xlink:href="_model_history_8h.html" target="_top" xlink:title="ModelHistory I/O. ">
<polygon fill="#ffffff" stroke="#000000" points="1791,-604.5 1791,-623.5 1913,-623.5 1913,-604.5 1791,-604.5"/>
<text text-anchor="middle" x="1852" y="-611.5" font-family="Helvetica,sans-Serif" font-size="10.00" fill="#000000">sbml/annotation/ModelHistory.h</text>
</a>
</g>
</g>
<!-- Node31&#45;&gt;Node32 -->
<g id="edge62" class="edge">
<title>Node31&#45;&gt;Node32</title>
<path fill="none" stroke="#191970" d="M1214.2382,-666.0622C1333.1019,-656.359 1640.5604,-631.2604 1780.611,-619.8277"/>
<polygon fill="#191970" stroke="#191970" points="1781.1232,-623.2976 1790.8052,-618.9955 1780.5536,-616.3208 1781.1232,-623.2976"/>
</g>
<!-- Node37 -->
<g id="node37" class="node">
<title>Node37</title>
<polygon fill="#ffffff" stroke="#bfbfbf" points="1421,-436.5 1421,-455.5 1459,-455.5 1459,-436.5 1421,-436.5"/>
<text text-anchor="middle" x="1440" y="-443.5" font-family="Helvetica,sans-Serif" font-size="10.00" fill="#000000">cstdlib</text>
</g>
<!-- Node31&#45;&gt;Node37 -->
<g id="edge99" class="edge">
<title>Node31&#45;&gt;Node37</title>
<path fill="none" stroke="#191970" d="M1214.1513,-667.1168C1276.5679,-662.3518 1380.5649,-650.5753 1407,-624 1449.5846,-581.1895 1446.8374,-502.3811 1442.8153,-465.7191"/>
<polygon fill="#191970" stroke="#191970" points="1446.2866,-465.2704 1441.5749,-455.7809 1439.3404,-466.1374 1446.2866,-465.2704"/>
</g>
<!-- Node40 -->
<g id="node40" class="node">
<title>Node40</title>
<polygon fill="#ffffff" stroke="#bfbfbf" points="1056,-436.5 1056,-455.5 1090,-455.5 1090,-436.5 1056,-436.5"/>
<text text-anchor="middle" x="1073" y="-443.5" font-family="Helvetica,sans-Serif" font-size="10.00" fill="#000000">limits</text>
</g>
<!-- Node31&#45;&gt;Node40 -->
<g id="edge95" class="edge">
<title>Node31&#45;&gt;Node40</title>
<path fill="none" stroke="#191970" d="M1162.0039,-660.375C1147.8441,-626.2697 1099.8936,-510.7761 1080.8704,-464.9567"/>
<polygon fill="#191970" stroke="#191970" points="1084.0482,-463.4827 1076.9812,-455.5891 1077.5832,-466.1669 1084.0482,-463.4827"/>
</g>
<!-- Node41 -->
<g id="node41" class="node">
<title>Node41</title>
<polygon fill="#ffffff" stroke="#bfbfbf" points="1108.5,-436.5 1108.5,-455.5 1151.5,-455.5 1151.5,-436.5 1108.5,-436.5"/>
<text text-anchor="middle" x="1130" y="-443.5" font-family="Helvetica,sans-Serif" font-size="10.00" fill="#000000">iomanip</text>
</g>
<!-- Node31&#45;&gt;Node41 -->
<g id="edge96" class="edge">
<title>Node31&#45;&gt;Node41</title>
<path fill="none" stroke="#191970" d="M1164.4531,-660.375C1158.995,-626.4133 1140.5665,-511.7472 1133.1402,-465.5392"/>
<polygon fill="#191970" stroke="#191970" points="1136.5836,-464.907 1131.5411,-455.5891 1129.6723,-466.0178 1136.5836,-464.907"/>
</g>
<!-- Node42 -->
<g id="node42" class="node">
<title>Node42</title>
<polygon fill="#ffffff" stroke="#bfbfbf" points="1169.5,-436.5 1169.5,-455.5 1212.5,-455.5 1212.5,-436.5 1169.5,-436.5"/>
<text text-anchor="middle" x="1191" y="-443.5" font-family="Helvetica,sans-Serif" font-size="10.00" fill="#000000">sstream</text>
</g>
<!-- Node31&#45;&gt;Node42 -->
<g id="edge98" class="edge">
<title>Node31&#45;&gt;Node42</title>
<path fill="none" stroke="#191970" d="M1167.0742,-660.375C1170.8646,-626.4133 1183.6621,-511.7472 1188.8193,-465.5392"/>
<polygon fill="#191970" stroke="#191970" points="1192.2989,-465.9157 1189.9298,-455.5891 1185.3421,-465.1392 1192.2989,-465.9157"/>
</g>
<!-- Node32&#45;&gt;Node7 -->
<g id="edge63" class="edge">
<title>Node32&#45;&gt;Node7</title>
<path fill="none" stroke="#191970" d="M1913.0554,-611.8763C2081.4348,-602.4515 2540,-551.2003 2540,-272.5 2540,-272.5 2540,-272.5 2540,-205.5 2540,-152.2125 2502.1133,-143.6747 2453,-123 2399.3461,-100.4139 1531.7583,-82.4461 1300.3516,-78.0387"/>
<polygon fill="#191970" stroke="#191970" points="1300.2026,-74.5354 1290.138,-77.8452 1300.0699,-81.5341 1300.2026,-74.5354"/>
</g>
<!-- Node32&#45;&gt;Node16 -->
<g id="edge64" class="edge">
<title>Node32&#45;&gt;Node16</title>
<path fill="none" stroke="#191970" d="M1895.2804,-604.4357C1969.0505,-587.3084 2114.615,-549.6594 2150,-512 2209.5288,-448.645 2241.2448,-402.5516 2204,-324 2196.6729,-308.5467 2182.1868,-296.1919 2168.9512,-287.461"/>
<polygon fill="#191970" stroke="#191970" points="2170.441,-284.2679 2160.0913,-282.0019 2166.769,-290.2275 2170.441,-284.2679"/>
</g>
<!-- Node32&#45;&gt;Node22 -->
<g id="edge65" class="edge">
<title>Node32&#45;&gt;Node22</title>
<path fill="none" stroke="#191970" d="M1850.7346,-604.3785C1846.5211,-575.6761 1830.6149,-489.3452 1786,-436 1734.3605,-374.2556 1692.2446,-395.0354 1630,-344 1612.6614,-329.7838 1595.8647,-310.7535 1583.8323,-295.9001"/>
<polygon fill="#191970" stroke="#191970" points="1586.2876,-293.3636 1577.3302,-287.7053 1580.804,-297.7145 1586.2876,-293.3636"/>
</g>
<!-- Node32&#45;&gt;Node23 -->
<g id="edge94" class="edge">
<title>Node32&#45;&gt;Node23</title>
<path fill="none" stroke="#191970" d="M1790.9814,-611.4063C1631.5637,-603.7701 1206.4774,-577.6434 1084,-512 1054.8511,-496.3772 1047.7283,-486.5241 1035,-456 1011.7441,-400.2295 1027.2996,-326.4821 1036.9518,-291.9277"/>
<polygon fill="#191970" stroke="#191970" points="1040.3612,-292.7395 1039.8215,-282.1584 1033.6449,-290.7665 1040.3612,-292.7395"/>
</g>
<!-- Node32&#45;&gt;Node33 -->
<g id="edge66" class="edge">
<title>Node32&#45;&gt;Node33</title>
<path fill="none" stroke="#191970" d="M1879.4279,-604.4933C1904.3484,-595.6591 1941.9968,-581.82 1974,-568 1994.4365,-559.1749 2047.6176,-532.7867 2080.8054,-516.1728"/>
<polygon fill="#191970" stroke="#191970" points="2082.627,-519.1749 2089.9984,-511.5648 2079.4902,-512.917 2082.627,-519.1749"/>
</g>
<!-- Node32&#45;&gt;Node35 -->
<g id="edge69" class="edge">
<title>Node32&#45;&gt;Node35</title>
<path fill="none" stroke="#191970" d="M1841.8541,-604.4509C1821.5672,-585.3574 1775.7866,-542.2697 1750.538,-518.5063"/>
<polygon fill="#191970" stroke="#191970" points="1752.801,-515.8299 1743.1202,-511.5249 1748.0034,-520.9273 1752.801,-515.8299"/>
</g>
<!-- Node38 -->
<g id="node38" class="node">
<title>Node38</title>
<g id="a_node38"><a xlink:href="_date_8h.html" target="_top" xlink:title="Date I/O. ">
<polygon fill="#ffffff" stroke="#000000" points="1871,-548.5 1871,-567.5 1965,-567.5 1965,-548.5 1871,-548.5"/>
<text text-anchor="middle" x="1918" y="-555.5" font-family="Helvetica,sans-Serif" font-size="10.00" fill="#000000">sbml/annotation/Date.h</text>
</a>
</g>
</g>
<!-- Node32&#45;&gt;Node38 -->
<g id="edge80" class="edge">
<title>Node32&#45;&gt;Node38</title>
<path fill="none" stroke="#191970" d="M1863.4963,-604.2455C1873.2442,-595.9746 1887.4259,-583.9416 1898.8798,-574.2232"/>
<polygon fill="#191970" stroke="#191970" points="1901.2747,-576.7813 1906.6354,-567.6427 1896.7459,-571.4437 1901.2747,-576.7813"/>
</g>
<!-- Node39 -->
<g id="node39" class="node">
<title>Node39</title>
<g id="a_node39"><a xlink:href="_model_creator_8h.html" target="_top" xlink:title="ModelCreator I/O. ">
<polygon fill="#ffffff" stroke="#000000" points="1573.5,-548.5 1573.5,-567.5 1696.5,-567.5 1696.5,-548.5 1573.5,-548.5"/>
<text text-anchor="middle" x="1635" y="-555.5" font-family="Helvetica,sans-Serif" font-size="10.00" fill="#000000">sbml/annotation/ModelCreator.h</text>
</a>
</g>
</g>
<!-- Node32&#45;&gt;Node39 -->
<g id="edge87" class="edge">
<title>Node32&#45;&gt;Node39</title>
<path fill="none" stroke="#191970" d="M1814.6964,-604.3733C1777.8315,-594.8598 1721.334,-580.2797 1681.5494,-570.0127"/>
<polygon fill="#191970" stroke="#191970" points="1682.3742,-566.611 1671.8169,-567.5011 1680.625,-573.3889 1682.3742,-566.611"/>
</g>
<!-- Node33&#45;&gt;Node7 -->
<g id="edge67" class="edge">
<title>Node33&#45;&gt;Node7</title>
<path fill="none" stroke="#191970" d="M2141.1608,-498.6729C2235.0207,-487.0179 2502,-439.2133 2502,-272.5 2502,-272.5 2502,-272.5 2502,-205.5 2502,-147.8827 2455.8268,-143.5531 2402,-123 2298.6675,-83.5438 1518.4311,-77.9308 1300.4269,-77.1324"/>
<polygon fill="#191970" stroke="#191970" points="1300.186,-73.6316 1290.1739,-77.0969 1300.1617,-80.6316 1300.186,-73.6316"/>
</g>
<!-- Node34 -->
<g id="node34" class="node">
<title>Node34</title>
<polygon fill="#ffffff" stroke="#bfbfbf" points="2099.5,-436.5 2099.5,-455.5 2140.5,-455.5 2140.5,-436.5 2099.5,-436.5"/>
<text text-anchor="middle" x="2120" y="-443.5" font-family="Helvetica,sans-Serif" font-size="10.00" fill="#000000">string.h</text>
</g>
<!-- Node33&#45;&gt;Node34 -->
<g id="edge68" class="edge">
<title>Node33&#45;&gt;Node34</title>
<path fill="none" stroke="#191970" d="M2110.9161,-492.2455C2112.3514,-484.9382 2114.3636,-474.6944 2116.1295,-465.7046"/>
<polygon fill="#191970" stroke="#191970" points="2119.6127,-466.1298 2118.1059,-455.6427 2112.744,-464.7805 2119.6127,-466.1298"/>
</g>
<!-- Node35&#45;&gt;Node16 -->
<g id="edge77" class="edge">
<title>Node35&#45;&gt;Node16</title>
<path fill="none" stroke="#191970" d="M1777.1012,-497.6887C1825.7343,-491.9768 1905.7402,-479.7257 1971,-456 2036.4399,-432.2089 2046.991,-413.5604 2108,-380 2137.2761,-363.8955 2156.9437,-372.732 2174,-344 2184.5991,-326.1454 2171.0075,-304.3106 2158.1975,-289.5023"/>
<polygon fill="#191970" stroke="#191970" points="2160.6801,-287.0318 2151.3199,-282.0682 2155.5418,-291.7856 2160.6801,-287.0318"/>
</g>
<!-- Node35&#45;&gt;Node21 -->
<g id="edge70" class="edge">
<title>Node35&#45;&gt;Node21</title>
<path fill="none" stroke="#191970" d="M1767.0799,-492.4921C1823.4942,-474.5405 1933.4053,-429.5502 1967,-344 1982.1294,-305.4724 1929.5776,-287.4448 1885.0232,-279.183"/>
<polygon fill="#191970" stroke="#191970" points="1885.5332,-275.7194 1875.0842,-277.4714 1884.3452,-282.6178 1885.5332,-275.7194"/>
</g>
<!-- Node35&#45;&gt;Node24 -->
<g id="edge78" class="edge">
<title>Node35&#45;&gt;Node24</title>
<path fill="none" stroke="#191970" d="M1694.7384,-492.429C1559.6956,-458.6399 1113.0828,-346.8137 1106,-344 1067.2338,-328.6 1025.6477,-303.6173 1000.7374,-287.6309"/>
<polygon fill="#191970" stroke="#191970" points="1002.6431,-284.6953 992.3505,-282.1826 998.8298,-290.5654 1002.6431,-284.6953"/>
</g>
<!-- Node36 -->
<g id="node36" class="node">
<title>Node36</title>
<g id="a_node36"><a xlink:href="_x_m_l_token_8h.html" target="_top" xlink:title="A unit of XML syntax, either an XML element or text. ">
<polygon fill="#ffffff" stroke="#000000" points="1667.5,-436.5 1667.5,-455.5 1758.5,-455.5 1758.5,-436.5 1667.5,-436.5"/>
<text text-anchor="middle" x="1713" y="-443.5" font-family="Helvetica,sans-Serif" font-size="10.00" fill="#000000">sbml/xml/XMLToken.h</text>
</a>
</g>
</g>
<!-- Node35&#45;&gt;Node36 -->
<g id="edge71" class="edge">
<title>Node35&#45;&gt;Node36</title>
<path fill="none" stroke="#191970" d="M1729.5163,-492.2455C1726.8492,-484.7776 1723.0867,-474.2427 1719.8263,-465.1137"/>
<polygon fill="#191970" stroke="#191970" points="1723.1033,-463.8829 1716.4438,-455.6427 1716.5111,-466.2373 1723.1033,-463.8829"/>
</g>
<!-- Node35&#45;&gt;Node37 -->
<g id="edge79" class="edge">
<title>Node35&#45;&gt;Node37</title>
<path fill="none" stroke="#191970" d="M1688.8177,-493.5556C1628.2216,-481.9741 1520.9784,-461.4771 1469.3651,-451.6124"/>
<polygon fill="#191970" stroke="#191970" points="1469.7118,-448.1154 1459.2325,-449.6758 1468.3976,-454.991 1469.7118,-448.1154"/>
</g>
<!-- Node36&#45;&gt;Node16 -->
<g id="edge75" class="edge">
<title>Node36&#45;&gt;Node16</title>
<path fill="none" stroke="#191970" d="M1758.6383,-439.4873C1800.323,-432.6389 1863.1666,-420.0314 1915,-400 1935.9537,-391.9023 2061.4524,-319.0223 2115.8645,-287.2253"/>
<polygon fill="#191970" stroke="#191970" points="2117.6949,-290.2095 2124.5602,-282.1398 2114.1611,-284.1669 2117.6949,-290.2095"/>
</g>
<!-- Node36&#45;&gt;Node20 -->
<g id="edge73" class="edge">
<title>Node36&#45;&gt;Node20</title>
<path fill="none" stroke="#191970" d="M1667.244,-437.9169C1611.9409,-428.1473 1518.6702,-411.6705 1457.2163,-400.8142"/>
<polygon fill="#191970" stroke="#191970" points="1457.7172,-397.3486 1447.2608,-399.0555 1456.4994,-404.2419 1457.7172,-397.3486"/>
</g>
<!-- Node36&#45;&gt;Node21 -->
<g id="edge72" class="edge">
<title>Node36&#45;&gt;Node21</title>
<path fill="none" stroke="#191970" d="M1758.8189,-441.1865C1815.0899,-432.5443 1908.3116,-408.7386 1951,-344 1971.2687,-313.2618 1925.9164,-293.9994 1884.8742,-283.3165"/>
<polygon fill="#191970" stroke="#191970" points="1885.6697,-279.9079 1875.1225,-280.9111 1883.9932,-286.7042 1885.6697,-279.9079"/>
</g>
<!-- Node36&#45;&gt;Node23 -->
<g id="edge76" class="edge">
<title>Node36&#45;&gt;Node23</title>
<path fill="none" stroke="#191970" d="M1689.5828,-436.3924C1654.673,-422.3685 1586.6868,-396.2036 1527,-380 1444.898,-357.7111 1419.9592,-370.1368 1339,-344 1318.9422,-337.5246 1316.0199,-330.5918 1296,-324 1216.2119,-297.7287 1117.6616,-282.3227 1070.5756,-275.9527"/>
<polygon fill="#191970" stroke="#191970" points="1070.9145,-272.4671 1060.5423,-274.6277 1069.998,-279.4069 1070.9145,-272.4671"/>
</g>
<!-- Node36&#45;&gt;Node36 -->
<g id="edge74" class="edge">
<title>Node36&#45;&gt;Node36</title>
<path fill="none" stroke="#191970" d="M1740.0829,-455.5252C1758.4849,-458.3079 1776.5,-455.1328 1776.5,-446 1776.5,-438.5796 1764.6073,-435.0922 1750.277,-435.5379"/>
<polygon fill="#191970" stroke="#191970" points="1749.7205,-432.0742 1740.0829,-436.4748 1750.3612,-439.0448 1749.7205,-432.0742"/>
</g>
<!-- Node38&#45;&gt;Node7 -->
<g id="edge81" class="edge">
<title>Node38&#45;&gt;Node7</title>
<path fill="none" stroke="#191970" d="M1934.4638,-548.4007C1949.6596,-539.3927 1972.7207,-525.3443 1992,-512 2037.6104,-480.4305 2044.5701,-466.3514 2091,-436 2217.1227,-353.5531 2388,-423.1799 2388,-272.5 2388,-272.5 2388,-272.5 2388,-205.5 2388,-94.7804 1530.8378,-79.4582 1300.4368,-77.3396"/>
<polygon fill="#191970" stroke="#191970" points="1300.2932,-73.8383 1290.263,-77.251 1300.2321,-80.838 1300.2932,-73.8383"/>
</g>
<!-- Node38&#45;&gt;Node16 -->
<g id="edge82" class="edge">
<title>Node38&#45;&gt;Node16</title>
<path fill="none" stroke="#191970" d="M1928.1235,-548.409C1950.6082,-527.2671 2006.7001,-475.4038 2057,-436 2071.0734,-424.9752 2180.7278,-359.8485 2189,-344 2199.523,-323.8392 2180.5947,-302.3937 2163.4986,-288.308"/>
<polygon fill="#191970" stroke="#191970" points="2165.4379,-285.3829 2155.3902,-282.0222 2161.1491,-290.9152 2165.4379,-285.3829"/>
</g>
<!-- Node38&#45;&gt;Node22 -->
<g id="edge83" class="edge">
<title>Node38&#45;&gt;Node22</title>
<path fill="none" stroke="#191970" d="M1915.5507,-548.4866C1909.3544,-526.1235 1891.0731,-469.5736 1857,-436 1789.884,-369.8678 1747.0669,-392.0228 1666,-344 1640.4075,-328.8394 1613.0411,-308.9935 1593.4181,-294.0577"/>
<polygon fill="#191970" stroke="#191970" points="1595.3087,-291.0966 1585.2461,-287.7807 1591.0446,-296.648 1595.3087,-291.0966"/>
</g>
<!-- Node38&#45;&gt;Node23 -->
<g id="edge86" class="edge">
<title>Node38&#45;&gt;Node23</title>
<path fill="none" stroke="#191970" d="M1901.3753,-548.4119C1876.7895,-534.5298 1828.999,-508.6744 1786,-492 1731.3005,-470.7883 1714.7411,-474.3005 1659,-456 1567.4689,-425.9492 1548.3214,-407.527 1456,-380 1386.1499,-359.1731 1366.6522,-361.9179 1296,-344 1213.3237,-323.0327 1116.5413,-294.5785 1070.2985,-280.7394"/>
<polygon fill="#191970" stroke="#191970" points="1071.2856,-277.3815 1060.7016,-277.8598 1069.2738,-284.0862 1071.2856,-277.3815"/>
</g>
<!-- Node38&#45;&gt;Node33 -->
<g id="edge84" class="edge">
<title>Node38&#45;&gt;Node33</title>
<path fill="none" stroke="#191970" d="M1950.8341,-548.3733C1982.9665,-538.9522 2032.0451,-524.5627 2067.0027,-514.3133"/>
<polygon fill="#191970" stroke="#191970" points="2068.301,-517.5801 2076.9123,-511.4079 2066.3315,-510.8629 2068.301,-517.5801"/>
</g>
<!-- Node38&#45;&gt;Node35 -->
<g id="edge85" class="edge">
<title>Node38&#45;&gt;Node35</title>
<path fill="none" stroke="#191970" d="M1886.1974,-548.3733C1855.1683,-538.9807 1807.8246,-524.6496 1773.9853,-514.4064"/>
<polygon fill="#191970" stroke="#191970" points="1774.9728,-511.0485 1764.3876,-511.5011 1772.9447,-517.7483 1774.9728,-511.0485"/>
</g>
<!-- Node39&#45;&gt;Node7 -->
<g id="edge88" class="edge">
<title>Node39&#45;&gt;Node7</title>
<path fill="none" stroke="#191970" d="M1628.0143,-548.2699C1606.1413,-518.5064 1535.6646,-427.8127 1456,-380 1365.4185,-325.6352 1244,-378.1435 1244,-272.5 1244,-272.5 1244,-272.5 1244,-205.5 1244,-167.0012 1244,-122.0145 1244,-96.7812"/>
<polygon fill="#191970" stroke="#191970" points="1247.5001,-96.6718 1244,-86.6719 1240.5001,-96.6719 1247.5001,-96.6718"/>
</g>
<!-- Node39&#45;&gt;Node16 -->
<g id="edge89" class="edge">
<title>Node39&#45;&gt;Node16</title>
<path fill="none" stroke="#191970" d="M1638.8806,-548.2106C1645.2031,-533.5844 1659.1525,-506.2286 1680,-492 1739.1295,-451.6436 1768.5696,-477.0291 1837,-456 1902.6397,-435.8285 1919.2199,-429.978 1981,-400 2025.0949,-378.6035 2037.9765,-374.9254 2076,-344 2095.8008,-327.8955 2115.0239,-305.6796 2127.3624,-290.3043"/>
<polygon fill="#191970" stroke="#191970" points="2130.3527,-292.1637 2133.7839,-282.1399 2124.8507,-287.8362 2130.3527,-292.1637"/>
</g>
<!-- Node39&#45;&gt;Node22 -->
<g id="edge90" class="edge">
<title>Node39&#45;&gt;Node22</title>
<path fill="none" stroke="#191970" d="M1632.6249,-548.1724C1622.9899,-508.3059 1586.6424,-357.9117 1572.0842,-297.6743"/>
<polygon fill="#191970" stroke="#191970" points="1575.4593,-296.7405 1569.708,-287.8426 1568.6552,-298.385 1575.4593,-296.7405"/>
</g>
<!-- Node39&#45;&gt;Node23 -->
<g id="edge93" class="edge">
<title>Node39&#45;&gt;Node23</title>
<path fill="none" stroke="#191970" d="M1573.2212,-555.573C1490.0486,-551.3384 1337.8543,-540.1752 1211,-512 1135.8112,-495.3001 1092.4867,-518.1547 1047,-456 1028.2964,-430.4428 1036.2267,-333.942 1040.7066,-292.0768"/>
<polygon fill="#191970" stroke="#191970" points="1044.1963,-292.363 1041.8286,-282.0362 1037.2396,-291.5856 1044.1963,-292.363"/>
</g>
<!-- Node39&#45;&gt;Node33 -->
<g id="edge91" class="edge">
<title>Node39&#45;&gt;Node33</title>
<path fill="none" stroke="#191970" d="M1696.9672,-550.679C1794.8916,-539.1098 1982.8912,-516.8989 2066.7807,-506.9879"/>
<polygon fill="#191970" stroke="#191970" points="2067.1998,-510.4629 2076.7201,-505.8137 2066.3785,-503.5112 2067.1998,-510.4629"/>
</g>
<!-- Node39&#45;&gt;Node35 -->
<g id="edge92" class="edge">
<title>Node39&#45;&gt;Node35</title>
<path fill="none" stroke="#191970" d="M1652.0703,-548.2455C1667.247,-539.5731 1689.6621,-526.7645 1707.0563,-516.825"/>
<polygon fill="#191970" stroke="#191970" points="1709.1794,-519.643 1716.1253,-511.6427 1705.7064,-513.5653 1709.1794,-519.643"/>
</g>
<!-- Node43&#45;&gt;Node7 -->
<g id="edge101" class="edge">
<title>Node43&#45;&gt;Node7</title>
<path fill="none" stroke="#191970" d="M1269.3978,-492.3698C1255.4812,-454.8328 1206,-318.1576 1206,-272.5 1206,-272.5 1206,-272.5 1206,-205.5 1206,-165.195 1223.404,-120.5903 1234.6555,-95.9654"/>
<polygon fill="#191970" stroke="#191970" points="1237.9231,-97.2425 1239.0322,-86.7058 1231.5944,-94.2511 1237.9231,-97.2425"/>
</g>
<!-- Node43&#45;&gt;Node16 -->
<g id="edge102" class="edge">
<title>Node43&#45;&gt;Node16</title>
<path fill="none" stroke="#191970" d="M1326.3111,-498.8819C1439.2504,-492.0049 1699.3486,-474.6579 1786,-456 1860.0631,-440.0527 1877.775,-430.7824 1947,-400 1994.2549,-378.9871 2005.7804,-372.4013 2049,-344 2075.2956,-326.7201 2103.6014,-304.0423 2121.7667,-288.9056"/>
<polygon fill="#191970" stroke="#191970" points="2124.4148,-291.2518 2129.8164,-282.1373 2119.9099,-285.894 2124.4148,-291.2518"/>
</g>
<!-- Node43&#45;&gt;Node20 -->
<g id="edge104" class="edge">
<title>Node43&#45;&gt;Node20</title>
<path fill="none" stroke="#191970" d="M1286.2727,-492.2099C1298.2771,-483.1849 1316.275,-469.2248 1331,-456 1348.439,-440.3377 1367.09,-421.1161 1379.9202,-407.465"/>
<polygon fill="#191970" stroke="#191970" points="1382.837,-409.4688 1387.0938,-399.7667 1377.7158,-404.6967 1382.837,-409.4688"/>
</g>
<!-- Node43&#45;&gt;Node22 -->
<g id="edge103" class="edge">
<title>Node43&#45;&gt;Node22</title>
<path fill="none" stroke="#191970" d="M1277.4267,-492.3581C1290.1019,-464.9141 1326.248,-387.8436 1336,-380 1384.3876,-341.0816 1415.1636,-371.1716 1471,-344 1485.2995,-337.0415 1516.7994,-312.5587 1539.6151,-294.1669"/>
<polygon fill="#191970" stroke="#191970" points="1542.0158,-296.7264 1547.58,-287.7103 1537.6077,-291.2886 1542.0158,-296.7264"/>
</g>
<!-- Node43&#45;&gt;Node23 -->
<g id="edge107" class="edge">
<title>Node43&#45;&gt;Node23</title>
<path fill="none" stroke="#191970" d="M1266.2294,-492.1848C1256.896,-478.9124 1239.2648,-454.7473 1222,-436 1168.3795,-377.7754 1096.9402,-316.8613 1062.7993,-288.6311"/>
<polygon fill="#191970" stroke="#191970" points="1064.9029,-285.8295 1054.9566,-282.1796 1060.4559,-291.2354 1064.9029,-285.8295"/>
</g>
<!-- Node43&#45;&gt;Node37 -->
<g id="edge109" class="edge">
<title>Node43&#45;&gt;Node37</title>
<path fill="none" stroke="#191970" d="M1301.7083,-492.3733C1332.2064,-482.1464 1380.1644,-466.0646 1410.8353,-455.7798"/>
<polygon fill="#191970" stroke="#191970" points="1412.1555,-459.0287 1420.5238,-452.5309 1409.9299,-452.3919 1412.1555,-459.0287"/>
</g>
<!-- Node43&#45;&gt;Node40 -->
<g id="edge105" class="edge">
<title>Node43&#45;&gt;Node40</title>
<path fill="none" stroke="#191970" d="M1232.8363,-492.4676C1197.573,-483.8265 1145.0262,-470.2889 1100,-456 1099.8988,-455.9679 1099.7973,-455.9356 1099.6957,-455.9031"/>
<polygon fill="#191970" stroke="#191970" points="1100.6498,-452.5302 1090.0551,-452.5946 1098.3775,-459.1512 1100.6498,-452.5302"/>
</g>
<!-- Node43&#45;&gt;Node41 -->
<g id="edge106" class="edge">
<title>Node43&#45;&gt;Node41</title>
<path fill="none" stroke="#191970" d="M1248.4174,-492.3733C1224.3424,-482.9453 1187.5611,-468.5414 1161.385,-458.2906"/>
<polygon fill="#191970" stroke="#191970" points="1162.5083,-454.9718 1151.9206,-454.5843 1159.9558,-461.4898 1162.5083,-454.9718"/>
</g>
<!-- Node43&#45;&gt;Node42 -->
<g id="edge108" class="edge">
<title>Node43&#45;&gt;Node42</title>
<path fill="none" stroke="#191970" d="M1258.7167,-492.2455C1246.253,-483.7337 1227.9549,-471.2375 1213.5208,-461.3801"/>
<polygon fill="#191970" stroke="#191970" points="1215.3515,-458.392 1205.1196,-455.6427 1211.4038,-464.1726 1215.3515,-458.392"/>
</g>
<!-- Node44&#45;&gt;Node2 -->
<g id="edge118" class="edge">
<title>Node44&#45;&gt;Node2</title>
<path fill="none" stroke="#191970" d="M768.1177,-383.7391C679.4727,-373.2441 501.4585,-352.1684 408.1673,-341.1234"/>
<polygon fill="#191970" stroke="#191970" points="408.3841,-337.6247 398.0419,-339.9246 407.561,-344.5762 408.3841,-337.6247"/>
</g>
<!-- Node44&#45;&gt;Node23 -->
<g id="edge119" class="edge">
<title>Node44&#45;&gt;Node23</title>
<path fill="none" stroke="#191970" d="M822.4714,-380.2864C825.2012,-365.7592 832.4583,-338.5309 850,-324 904.7969,-278.6082 938.2744,-309.8254 1006,-288 1009.1818,-286.9746 1012.4712,-285.7888 1015.716,-284.5388"/>
<polygon fill="#191970" stroke="#191970" points="1017.2222,-287.7047 1025.1644,-280.6925 1014.5828,-281.2213 1017.2222,-287.7047"/>
</g>
<!-- Node44&#45;&gt;Node25 -->
<g id="edge120" class="edge">
<title>Node44&#45;&gt;Node25</title>
<path fill="none" stroke="#191970" d="M812.639,-380.2455C805.825,-372.2958 796.0319,-360.8706 787.8848,-351.3656"/>
<polygon fill="#191970" stroke="#191970" points="790.4305,-348.9575 781.2651,-343.6427 785.1157,-353.513 790.4305,-348.9575"/>
</g>
<!-- Node45 -->
<g id="node45" class="node">
<title>Node45</title>
<g id="a_node45"><a xlink:href="_x_m_l_namespaces_8h.html" target="_top" xlink:title="A list of XMLNamespace declarations (URI/prefix pairs) ">
<polygon fill="#ffffff" stroke="#000000" points="1348,-324.5 1348,-343.5 1462,-343.5 1462,-324.5 1348,-324.5"/>
<text text-anchor="middle" x="1405" y="-331.5" font-family="Helvetica,sans-Serif" font-size="10.00" fill="#000000">sbml/xml/XMLNamespaces.h</text>
</a>
</g>
</g>
<!-- Node44&#45;&gt;Node45 -->
<g id="edge112" class="edge">
<title>Node44&#45;&gt;Node45</title>
<path fill="none" stroke="#191970" d="M873.5978,-384.9564C979.8756,-374.7654 1220.0594,-351.734 1337.6216,-340.4609"/>
<polygon fill="#191970" stroke="#191970" points="1338.3037,-343.9117 1347.9239,-339.4731 1337.6354,-336.9436 1338.3037,-343.9117"/>
</g>
<!-- Node45&#45;&gt;Node16 -->
<g id="edge114" class="edge">
<title>Node45&#45;&gt;Node16</title>
<path fill="none" stroke="#191970" d="M1462.1403,-329.2254C1598.5537,-317.8267 1942.1936,-289.1122 2081.2291,-277.4944"/>
<polygon fill="#191970" stroke="#191970" points="2081.6026,-280.9755 2091.2764,-276.6549 2081.0196,-273.9998 2081.6026,-280.9755"/>
</g>
<!-- Node45&#45;&gt;Node21 -->
<g id="edge113" class="edge">
<title>Node45&#45;&gt;Node21</title>
<path fill="none" stroke="#191970" d="M1462.0065,-329.5771C1534.8737,-323.3113 1664.6843,-310.0863 1774,-288 1778.7344,-287.0435 1783.6574,-285.8901 1788.5259,-284.6494"/>
<polygon fill="#191970" stroke="#191970" points="1789.6104,-287.9824 1798.365,-282.0151 1787.8,-281.2206 1789.6104,-287.9824"/>
</g>
<!-- Node45&#45;&gt;Node22 -->
<g id="edge115" class="edge">
<title>Node45&#45;&gt;Node22</title>
<path fill="none" stroke="#191970" d="M1430.1563,-324.3906C1453.3579,-315.5279 1488.4479,-302.1239 1517.1518,-291.1594"/>
<polygon fill="#191970" stroke="#191970" points="1518.5223,-294.3826 1526.615,-287.5446 1516.0243,-287.8435 1518.5223,-294.3826"/>
</g>
<!-- Node45&#45;&gt;Node23 -->
<g id="edge116" class="edge">
<title>Node45&#45;&gt;Node23</title>
<path fill="none" stroke="#191970" d="M1348.8347,-324.4581C1270.1263,-311.0864 1130.0131,-287.2826 1070.7231,-277.2099"/>
<polygon fill="#191970" stroke="#191970" points="1071.0709,-273.7189 1060.6259,-275.4945 1069.8984,-280.62 1071.0709,-273.7189"/>
</g>
<!-- Node45&#45;&gt;Node24 -->
<g id="edge117" class="edge">
<title>Node45&#45;&gt;Node24</title>
<path fill="none" stroke="#191970" d="M1347.9372,-331.872C1271.5285,-327.9768 1132.2357,-317.1975 1017,-288 1013.5039,-287.1142 1009.9017,-285.9914 1006.3651,-284.7565"/>
<polygon fill="#191970" stroke="#191970" points="1007.3055,-281.3694 996.7145,-281.0825 1004.8149,-287.9114 1007.3055,-281.3694"/>
</g>
<!-- Node46&#45;&gt;Node7 -->
<g id="edge123" class="edge">
<title>Node46&#45;&gt;Node7</title>
<path fill="none" stroke="#191970" d="M578.3222,-436.5245C485.2306,-421.7752 323.7794,-390.1437 289,-344 265.7466,-313.1484 329.4331,-290.6403 331,-288 369.2587,-223.5328 309.0059,-171.6973 366,-123 397.2833,-96.2707 998.9377,-81.9313 1187.7893,-78.0757"/>
<polygon fill="#191970" stroke="#191970" points="1187.8608,-81.575 1197.7879,-77.8735 1187.7192,-74.5765 1187.8608,-81.575"/>
</g>
<!-- Node46&#45;&gt;Node23 -->
<g id="edge125" class="edge">
<title>Node46&#45;&gt;Node23</title>
<path fill="none" stroke="#191970" d="M649.2904,-436.3229C660.3878,-412.5613 692.526,-351.2988 740,-324 843.4208,-264.5304 890.8837,-319.3166 1006,-288 1009.2257,-287.1225 1012.5426,-286.0291 1015.803,-284.8317"/>
<polygon fill="#191970" stroke="#191970" points="1017.2868,-288.0077 1025.2673,-281.039 1014.6829,-281.51 1017.2868,-288.0077"/>
</g>
<!-- Node46&#45;&gt;Node25 -->
<g id="edge126" class="edge">
<title>Node46&#45;&gt;Node25</title>
<path fill="none" stroke="#191970" d="M655.9132,-436.4509C677.8289,-417.2747 727.4043,-373.8962 754.4871,-350.1988"/>
<polygon fill="#191970" stroke="#191970" points="756.8934,-352.744 762.1144,-343.5249 752.2838,-347.4759 756.8934,-352.744"/>
</g>
<!-- Node46&#45;&gt;Node44 -->
<g id="edge124" class="edge">
<title>Node46&#45;&gt;Node44</title>
<path fill="none" stroke="#191970" d="M675.2555,-436.3733C704.6483,-427.021 749.4292,-412.7725 781.5934,-402.5385"/>
<polygon fill="#191970" stroke="#191970" points="782.6713,-405.8685 791.1393,-399.5011 780.5488,-399.198 782.6713,-405.8685"/>
</g>
<!-- Node46&#45;&gt;Node47 -->
<g id="edge127" class="edge">
<title>Node46&#45;&gt;Node47</title>
<path fill="none" stroke="#191970" d="M606.1145,-436.4838C574.2324,-427.8019 532.8185,-414.1953 523,-400 512.405,-384.6821 524.227,-365.1718 536.199,-351.3472"/>
<polygon fill="#191970" stroke="#191970" points="538.8437,-353.6429 543.0969,-343.9392 533.7207,-348.8726 538.8437,-353.6429"/>
</g>
<!-- Node48&#45;&gt;Node7 -->
<g id="edge129" class="edge">
<title>Node48&#45;&gt;Node7</title>
<path fill="none" stroke="#191970" d="M588.7096,-380.1474C595.9568,-365.9358 611.1144,-339.674 631,-324 807.6925,-184.7298 1073.3415,-113.8983 1188.0148,-88.3708"/>
<polygon fill="#191970" stroke="#191970" points="1188.9621,-91.7463 1197.9785,-86.1826 1187.4605,-84.9092 1188.9621,-91.7463"/>
</g>
<!-- Node48&#45;&gt;Node23 -->
<g id="edge130" class="edge">
<title>Node48&#45;&gt;Node23</title>
<path fill="none" stroke="#191970" d="M600.997,-380.3438C631.8669,-362.8752 694.9837,-327.5004 706,-324 833.9842,-283.3329 876.1572,-322.2726 1006,-288 1009.2323,-287.1468 1012.5532,-286.0687 1015.8159,-284.8799"/>
<polygon fill="#191970" stroke="#191970" points="1017.2959,-288.0576 1025.2826,-281.0961 1014.6978,-281.5576 1017.2959,-288.0576"/>
</g>
<!-- Node48&#45;&gt;Node24 -->
<g id="edge131" class="edge">
<title>Node48&#45;&gt;Node24</title>
<path fill="none" stroke="#191970" d="M593.2566,-380.0577C607.6882,-365.2318 637.1149,-337.6186 668,-324 718.3607,-301.7938 881.9055,-282.6003 948.9379,-275.4647"/>
<polygon fill="#191970" stroke="#191970" points="949.6199,-278.9124 959.1995,-274.3867 948.8885,-271.9507 949.6199,-278.9124"/>
</g>
<!-- Node48&#45;&gt;Node25 -->
<g id="edge132" class="edge">
<title>Node48&#45;&gt;Node25</title>
<path fill="none" stroke="#191970" d="M616.4903,-380.3733C650.5917,-370.2691 703.9817,-354.4499 738.7348,-344.1526"/>
<polygon fill="#191970" stroke="#191970" points="739.8516,-347.4722 748.4452,-341.2755 737.8629,-340.7606 739.8516,-347.4722"/>
</g>
<!-- Node48&#45;&gt;Node47 -->
<g id="edge133" class="edge">
<title>Node48&#45;&gt;Node47</title>
<path fill="none" stroke="#191970" d="M578.7744,-380.2455C574.6877,-372.617 568.8865,-361.7881 563.925,-352.5267"/>
<polygon fill="#191970" stroke="#191970" points="566.9732,-350.8047 559.1657,-343.6427 560.8028,-354.1103 566.9732,-350.8047"/>
</g>
<!-- Node49&#45;&gt;Node8 -->
<g id="edge136" class="edge">
<title>Node49&#45;&gt;Node8</title>
<path fill="none" stroke="#191970" d="M1741.766,-324.3388C1722.6149,-306.9785 1679.2805,-271.0131 1635,-257 1388.2697,-178.9193 721.0334,-287.7512 471,-221 469.3315,-220.5546 467.6525,-219.998 465.9886,-219.3627"/>
<polygon fill="#191970" stroke="#191970" points="467.3479,-216.135 456.8047,-215.0904 464.3953,-222.4818 467.3479,-216.135"/>
</g>
<!-- Node49&#45;&gt;Node10 -->
<g id="edge139" class="edge">
<title>Node49&#45;&gt;Node10</title>
<path fill="none" stroke="#191970" d="M1708.1977,-332.347C1652.9201,-330.2827 1554.9196,-326.6949 1471,-324 912.3922,-306.0614 769.4446,-350.0138 214,-288 201.6288,-286.6188 188.3038,-284.3226 176.1859,-281.9152"/>
<polygon fill="#191970" stroke="#191970" points="176.8391,-278.4764 166.3382,-279.8845 175.4253,-285.3321 176.8391,-278.4764"/>
</g>
<!-- Node49&#45;&gt;Node16 -->
<g id="edge138" class="edge">
<title>Node49&#45;&gt;Node16</title>
<path fill="none" stroke="#191970" d="M1795.8671,-327.0647C1865.751,-316.0162 2002.4836,-294.3991 2081.2474,-281.9467"/>
<polygon fill="#191970" stroke="#191970" points="2082.1638,-285.3454 2091.4946,-280.3267 2081.0707,-278.4313 2082.1638,-285.3454"/>
</g>
<!-- Node49&#45;&gt;Node21 -->
<g id="edge137" class="edge">
<title>Node49&#45;&gt;Node21</title>
<path fill="none" stroke="#191970" d="M1764.0313,-324.3906C1776.0107,-314.8227 1794.6166,-299.9621 1808.8525,-288.5919"/>
<polygon fill="#191970" stroke="#191970" points="1811.4239,-291.0175 1817.0532,-282.0419 1807.0553,-285.5479 1811.4239,-291.0175"/>
</g>
<!-- Node49&#45;&gt;Node22 -->
<g id="edge142" class="edge">
<title>Node49&#45;&gt;Node22</title>
<path fill="none" stroke="#191970" d="M1722.9375,-324.3906C1695.7835,-315.4123 1654.5345,-301.7735 1621.1395,-290.7316"/>
<polygon fill="#191970" stroke="#191970" points="1622.094,-287.3609 1611.5007,-287.5446 1619.8964,-294.007 1622.094,-287.3609"/>
</g>
<!-- Node49&#45;&gt;Node23 -->
<g id="edge141" class="edge">
<title>Node49&#45;&gt;Node23</title>
<path fill="none" stroke="#191970" d="M1708.4504,-330.2224C1575.7728,-318.7137 1179.0374,-284.3001 1070.6347,-274.8971"/>
<polygon fill="#191970" stroke="#191970" points="1070.7736,-271.3961 1060.5085,-274.0187 1070.1686,-278.3699 1070.7736,-271.3961"/>
</g>
<!-- Node50 -->
<g id="node50" class="node">
<title>Node50</title>
<polygon fill="#ffffff" stroke="#bfbfbf" points="1727,-263 1727,-282 1765,-282 1765,-263 1727,-263"/>
<text text-anchor="middle" x="1746" y="-270" font-family="Helvetica,sans-Serif" font-size="10.00" fill="#000000">iosfwd</text>
</g>
<!-- Node49&#45;&gt;Node50 -->
<g id="edge140" class="edge">
<title>Node49&#45;&gt;Node50</title>
<path fill="none" stroke="#191970" d="M1751.0625,-324.3906C1750.2308,-315.8657 1748.9892,-303.1392 1747.9438,-292.4235"/>
<polygon fill="#191970" stroke="#191970" points="1751.4053,-291.8577 1746.9507,-282.2449 1744.4383,-292.5375 1751.4053,-291.8577"/>
</g>
<!-- Node52&#45;&gt;Node7 -->
<g id="edge151" class="edge">
<title>Node52&#45;&gt;Node7</title>
<path fill="none" stroke="#191970" d="M2948.605,-940.424C2973.2187,-932.923 3005.6685,-920.9074 3031,-904 3088.2602,-865.7818 3112.3826,-855.8992 3138,-792 3208.4553,-616.2589 2997,-579.338 2997,-390 2997,-390 2997,-390 2997,-205.5 2997,-180.8427 3103.752,-190.0515 2842,-123 2690.4362,-84.1748 1566.098,-78.0568 1300.2331,-77.15"/>
<polygon fill="#191970" stroke="#191970" points="1300.053,-73.6495 1290.0414,-77.1164 1300.0298,-80.6494 1300.053,-73.6495"/>
</g>
<!-- Node52&#45;&gt;Node14 -->
<g id="edge152" class="edge">
<title>Node52&#45;&gt;Node14</title>
<path fill="none" stroke="#191970" d="M2943.555,-940.348C2963.9828,-932.9036 2990.1827,-920.9826 3009,-904 3041.6499,-874.5336 3064.6046,-827.2608 3075.6082,-801.0517"/>
<polygon fill="#191970" stroke="#191970" points="3078.9589,-802.1022 3079.47,-791.5197 3072.4711,-799.4738 3078.9589,-802.1022"/>
</g>
<!-- Node52&#45;&gt;Node15 -->
<g id="edge153" class="edge">
<title>Node52&#45;&gt;Node15</title>
<path fill="none" stroke="#191970" d="M2847.6116,-941.3114C2766.8852,-930.4182 2629.8142,-911.9219 2553.1575,-901.5779"/>
<polygon fill="#191970" stroke="#191970" points="2553.5865,-898.1041 2543.2082,-900.2353 2552.6503,-905.0413 2553.5865,-898.1041"/>
</g>
<!-- Node53&#45;&gt;Node4 -->
<g id="edge155" class="edge">
<title>Node53&#45;&gt;Node4</title>
<path fill="none" stroke="#191970" d="M940.4363,-829.0458C937.2478,-828.6651 934.0867,-828.3127 931,-828 859.8081,-820.7872 352.2074,-823.5866 288,-792 253.222,-774.8911 231,-764.7585 231,-726 231,-726 231,-726 231,-670 231,-539.7414 42,-576.2586 42,-446 42,-446 42,-446 42,-390 42,-305.9022 0,-289.5978 0,-205.5 0,-205.5 0,-205.5 0,-138.5 0,-62.7038 1205.6779,-24.6275 1479.2475,-16.9635"/>
<polygon fill="#191970" stroke="#191970" points="1479.435,-20.4597 1489.3338,-16.6829 1479.2403,-13.4624 1479.435,-20.4597"/>
</g>
<!-- Node53&#45;&gt;Node7 -->
<g id="edge156" class="edge">
<title>Node53&#45;&gt;Node7</title>
<path fill="none" stroke="#191970" d="M940.4349,-829.06C937.2467,-828.6756 934.0861,-828.3186 931,-828 797.6917,-814.2379 449.8867,-849.8525 329,-792 293.2411,-774.8869 269,-765.6428 269,-726 269,-726 269,-726 269,-670 269,-483.4392 136.0034,-469.9991 95,-288 85.4271,-245.5095 75.7701,-229.0807 95,-190 116.5471,-146.2102 136.151,-139.7242 182,-123 276.5781,-88.5011 981.5007,-79.3933 1187.5784,-77.456"/>
<polygon fill="#191970" stroke="#191970" points="1187.902,-80.9532 1197.8694,-77.3613 1187.8376,-73.9535 1187.902,-80.9532"/>
</g>
<!-- Node53&#45;&gt;Node12 -->
<g id="edge159" class="edge">
<title>Node53&#45;&gt;Node12</title>
<path fill="none" stroke="#191970" d="M1057.8859,-837.505C1322.0362,-835.1263 2400.1421,-823.6905 2761.2068,-792.0316"/>
<polygon fill="#191970" stroke="#191970" points="2761.7733,-795.4949 2771.4195,-791.1129 2761.1461,-788.523 2761.7733,-795.4949"/>
</g>
<!-- Node53&#45;&gt;Node14 -->
<g id="edge158" class="edge">
<title>Node53&#45;&gt;Node14</title>
<path fill="none" stroke="#191970" d="M1057.8047,-837.9152C1345.8449,-837.3107 2610.4044,-832.4171 3026.8823,-791.9257"/>
<polygon fill="#191970" stroke="#191970" points="3027.2575,-795.4058 3036.8614,-790.9321 3026.5638,-788.4402 3027.2575,-795.4058"/>
</g>
<!-- Node53&#45;&gt;Node16 -->
<g id="edge157" class="edge">
<title>Node53&#45;&gt;Node16</title>
<path fill="none" stroke="#191970" d="M1057.5564,-837.7915C1308.1338,-836.669 2279.7812,-829.8806 2332,-792 2400.1724,-742.5464 2397,-698.2208 2397,-614 2397,-614 2397,-614 2397,-502 2397,-403.5097 2348.6427,-376.0024 2265,-324 2238.6103,-307.593 2206.0813,-294.3087 2180.9623,-285.3437"/>
<polygon fill="#191970" stroke="#191970" points="2181.9773,-281.9911 2171.3825,-282.0047 2179.6734,-288.6011 2181.9773,-281.9911"/>
</g>
<!-- Node53&#45;&gt;Node23 -->
<g id="edge162" class="edge">
<title>Node53&#45;&gt;Node23</title>
<path fill="none" stroke="#191970" d="M940.7157,-828.4726C820.6422,-808.4295 554.1318,-761.6444 521,-736 433.0133,-667.8972 450.4201,-602.3045 465,-492 475.3321,-413.8326 458.7208,-371.0386 522,-324 608.5576,-259.6573 901.1237,-313.1627 1006,-288 1009.2507,-287.2201 1012.5832,-286.1877 1015.8525,-285.025"/>
<polygon fill="#191970" stroke="#191970" points="1017.3206,-288.208 1025.3259,-281.2677 1014.7399,-281.701 1017.3206,-288.208"/>
</g>
<!-- Node53&#45;&gt;Node24 -->
<g id="edge161" class="edge">
<title>Node53&#45;&gt;Node24</title>
<path fill="none" stroke="#191970" d="M940.4343,-829.0657C937.2462,-828.6798 934.0858,-828.3209 931,-828 866.0058,-821.2403 388.7692,-839.5989 344,-792 309.4966,-755.3157 308.2948,-547.0431 414,-380 436.0549,-345.1472 449.6405,-339.1554 488,-324 572.9512,-290.4368 857.189,-277.0312 949.0792,-273.5093"/>
<polygon fill="#191970" stroke="#191970" points="949.4429,-276.9983 959.3055,-273.1281 949.1821,-270.0031 949.4429,-276.9983"/>
</g>
<!-- Node53&#45;&gt;Node51 -->
<g id="edge160" class="edge">
<title>Node53&#45;&gt;Node51</title>
<path fill="none" stroke="#191970" d="M1057.8224,-836.6848C1247.8079,-832.2958 1862.1546,-817.002 2370,-792 2396.1067,-790.7147 2424.6806,-788.9568 2450.0499,-787.2731"/>
<polygon fill="#191970" stroke="#191970" points="2450.5953,-790.7444 2460.3385,-786.5828 2450.1266,-783.7601 2450.5953,-790.7444"/>
</g>
</g>
</svg>
