<?xml version="1.0" encoding="UTF-8" standalone="no"?>
<!DOCTYPE svg PUBLIC "-//W3C//DTD SVG 1.1//EN"
 "http://www.w3.org/Graphics/SVG/1.1/DTD/svg11.dtd">
<!-- Generated by graphviz version 2.40.1 (20161225.0304)
 -->
<!-- Title: LayoutSBMLError.h Pages: 1 -->
<!--zoomable 84 -->
<svg id="main" version="1.1" xmlns="http://www.w3.org/2000/svg" xmlns:xlink="http://www.w3.org/1999/xlink" xml:space="preserve" onload="init(evt)">
<style type="text/css"><![CDATA[
.edge:hover path { stroke: red; }
.edge:hover polygon { stroke: red; fill: red; }
]]></style>
<script type="text/javascript"><![CDATA[
var edges = document.getElementsByTagName('g');
if (edges && edges.length) {
  for (var i=0;i<edges.length;i++) {
    if (edges[i].id.substr(0,4)=='edge') {
      edges[i].setAttribute('class','edge');
    }
  }
}
]]></script>
        <defs>
                <circle id="rim" cx="0" cy="0" r="7"/>
                <circle id="rim2" cx="0" cy="0" r="3.5"/>
                <g id="zoomPlus">
                        <use xlink:href="#rim" fill="#404040">
                                <set attributeName="fill" to="#808080" begin="zoomplus.mouseover" end="zoomplus.mouseout"/>
                        </use>
                        <path d="M-4,0h8M0,-4v8" fill="none" stroke="white" stroke-width="1.5" pointer-events="none"/>
                </g>
                <g id="zoomMin">
                        <use xlink:href="#rim" fill="#404040">
                                <set attributeName="fill" to="#808080" begin="zoomminus.mouseover" end="zoomminus.mouseout"/>
                        </use>
                        <path d="M-4,0h8" fill="none" stroke="white" stroke-width="1.5" pointer-events="none"/>
                </g>
                <g id="dirArrow">
                        <path fill="none" stroke="white" stroke-width="1.5" d="M0,-3.0v7 M-2.5,-0.5L0,-3.0L2.5,-0.5"/>
                </g>
               <g id="resetDef">
                       <use xlink:href="#rim2" fill="#404040">
                               <set attributeName="fill" to="#808080" begin="reset.mouseover" end="reset.mouseout"/>
                       </use>
               </g>
        </defs>

<script type="text/javascript">
var viewWidth = 1644;
var viewHeight = 84;
var sectionId = 'dynsection-0';
</script>
<script xlink:href="svgpan.js"/>
<svg id="graph" class="graph">
<g id="viewport">
<title>LayoutSBMLError.h</title>
<polygon fill="#ffffff" stroke="transparent" points="-4,4 -4,-80 1639.5,-80 1639.5,4 -4,4"/>
<!-- Node1 -->
<g id="node1" class="node">
<title>Node1</title>
<polygon fill="#bfbfbf" stroke="#000000" points="811,-56.5 811,-75.5 893,-75.5 893,-56.5 811,-56.5"/>
<text text-anchor="middle" x="852" y="-63.5" font-family="Helvetica,sans-Serif" font-size="10.00" fill="#000000">LayoutSBMLError.h</text>
</g>
<!-- Node2 -->
<g id="node2" class="node">
<title>Node2</title>
<g id="a_node2"><a xlink:href="_layout_model_plugin_8cpp.html" target="_top" xlink:title="Implementation of LayoutModelPlugin, the plugin class of layout package for the Model element...">
<polygon fill="#ffffff" stroke="#000000" points="0,-.5 0,-19.5 94,-19.5 94,-.5 0,-.5"/>
<text text-anchor="middle" x="47" y="-7.5" font-family="Helvetica,sans-Serif" font-size="10.00" fill="#000000">LayoutModelPlugin.cpp</text>
</a>
</g>
</g>
<!-- Node1&#45;&gt;Node2 -->
<g id="edge1" class="edge">
<title>Node1&#45;&gt;Node2</title>
<path fill="none" stroke="#191970" d="M800.7189,-64.8883C679.1625,-61.8097 364.1304,-51.2283 103,-20 100.1562,-19.6599 97.2381,-19.2686 94.299,-18.8419"/>
<polygon fill="#191970" stroke="#191970" points="800.7648,-68.3905 810.8483,-65.1387 800.9379,-61.3926 800.7648,-68.3905"/>
</g>
<!-- Node3 -->
<g id="node3" class="node">
<title>Node3</title>
<g id="a_node3"><a xlink:href="_layout_s_b_m_l_document_plugin_8cpp.html" target="_top" xlink:title="Implementation of the LayoutSBMLDocumentPlugin class. ">
<polygon fill="#ffffff" stroke="#000000" points="112.5,-.5 112.5,-19.5 241.5,-19.5 241.5,-.5 112.5,-.5"/>
<text text-anchor="middle" x="177" y="-7.5" font-family="Helvetica,sans-Serif" font-size="10.00" fill="#000000">LayoutSBMLDocumentPlugin.cpp</text>
</a>
</g>
</g>
<!-- Node1&#45;&gt;Node3 -->
<g id="edge2" class="edge">
<title>Node1&#45;&gt;Node3</title>
<path fill="none" stroke="#191970" d="M800.4497,-63.1046C696.2762,-57.0234 453.2981,-41.6721 250,-20 247.3288,-19.7152 244.6047,-19.4099 241.8542,-19.0893"/>
<polygon fill="#191970" stroke="#191970" points="800.4984,-66.6133 810.6843,-63.6983 800.9038,-59.625 800.4984,-66.6133"/>
</g>
<!-- Node4 -->
<g id="node4" class="node">
<title>Node4</title>
<g id="a_node4"><a xlink:href="_bounding_box_8cpp.html" target="_top" xlink:title="Implementation of BoundingBox for SBML Layout. ">
<polygon fill="#ffffff" stroke="#000000" points="259.5,-.5 259.5,-19.5 334.5,-19.5 334.5,-.5 259.5,-.5"/>
<text text-anchor="middle" x="297" y="-7.5" font-family="Helvetica,sans-Serif" font-size="10.00" fill="#000000">BoundingBox.cpp</text>
</a>
</g>
</g>
<!-- Node1&#45;&gt;Node4 -->
<g id="edge3" class="edge">
<title>Node1&#45;&gt;Node4</title>
<path fill="none" stroke="#191970" d="M800.8375,-63.3917C708.9593,-58.258 510.0945,-45.098 344,-20 340.948,-19.5388 337.7964,-19.0021 334.6377,-18.4212"/>
<polygon fill="#191970" stroke="#191970" points="800.7984,-66.8947 810.9756,-63.9497 801.1831,-59.9053 800.7984,-66.8947"/>
</g>
<!-- Node5 -->
<g id="node5" class="node">
<title>Node5</title>
<g id="a_node5"><a xlink:href="_compartment_glyph_8cpp.html" target="_top" xlink:title="Implementation of CompartmentGlyph for SBML Layout. ">
<polygon fill="#ffffff" stroke="#000000" points="353,-.5 353,-19.5 449,-19.5 449,-.5 353,-.5"/>
<text text-anchor="middle" x="401" y="-7.5" font-family="Helvetica,sans-Serif" font-size="10.00" fill="#000000">CompartmentGlyph.cpp</text>
</a>
</g>
</g>
<!-- Node1&#45;&gt;Node5 -->
<g id="edge4" class="edge">
<title>Node1&#45;&gt;Node5</title>
<path fill="none" stroke="#191970" d="M800.6156,-60.9526C725.2852,-53.3374 580.5206,-37.8846 458,-20 455.1169,-19.5792 452.1556,-19.1253 449.1707,-18.6514"/>
<polygon fill="#191970" stroke="#191970" points="800.4745,-64.4559 810.7747,-61.9745 801.1752,-57.4911 800.4745,-64.4559"/>
</g>
<!-- Node6 -->
<g id="node6" class="node">
<title>Node6</title>
<g id="a_node6"><a xlink:href="_cubic_bezier_8cpp.html" target="_top" xlink:title="Implementation of CubicBezier for SBML Layout. ">
<polygon fill="#ffffff" stroke="#000000" points="467.5,-.5 467.5,-19.5 538.5,-19.5 538.5,-.5 467.5,-.5"/>
<text text-anchor="middle" x="503" y="-7.5" font-family="Helvetica,sans-Serif" font-size="10.00" fill="#000000">CubicBezier.cpp</text>
</a>
</g>
</g>
<!-- Node1&#45;&gt;Node6 -->
<g id="edge5" class="edge">
<title>Node1&#45;&gt;Node6</title>
<path fill="none" stroke="#191970" d="M800.7955,-59.4522C740.0415,-51.4123 635.7914,-36.762 547,-20 544.3828,-19.5059 541.6846,-18.9667 538.9732,-18.403"/>
<polygon fill="#191970" stroke="#191970" points="800.5204,-62.9461 810.8915,-60.7803 801.4334,-56.0059 800.5204,-62.9461"/>
</g>
<!-- Node7 -->
<g id="node7" class="node">
<title>Node7</title>
<g id="a_node7"><a xlink:href="_curve_8cpp.html" target="_top" xlink:title="Implementation of Curve for SBML Layout. ">
<polygon fill="#ffffff" stroke="#000000" points="556.5,-.5 556.5,-19.5 607.5,-19.5 607.5,-.5 556.5,-.5"/>
<text text-anchor="middle" x="582" y="-7.5" font-family="Helvetica,sans-Serif" font-size="10.00" fill="#000000">Curve.cpp</text>
</a>
</g>
</g>
<!-- Node1&#45;&gt;Node7 -->
<g id="edge6" class="edge">
<title>Node1&#45;&gt;Node7</title>
<path fill="none" stroke="#191970" d="M800.4932,-57.2185C752.699,-48.7627 679.7026,-35.0655 617,-20 613.9277,-19.2618 610.7203,-18.4305 607.5479,-17.5706"/>
<polygon fill="#191970" stroke="#191970" points="800.1379,-60.7096 810.5928,-58.9936 801.3497,-53.8153 800.1379,-60.7096"/>
</g>
<!-- Node8 -->
<g id="node8" class="node">
<title>Node8</title>
<g id="a_node8"><a xlink:href="_dimensions_8cpp.html" target="_top" xlink:title="Implementation of Dimensions for SBML Layout. ">
<polygon fill="#ffffff" stroke="#000000" points="626,-.5 626,-19.5 696,-19.5 696,-.5 626,-.5"/>
<text text-anchor="middle" x="661" y="-7.5" font-family="Helvetica,sans-Serif" font-size="10.00" fill="#000000">Dimensions.cpp</text>
</a>
</g>
</g>
<!-- Node1&#45;&gt;Node8 -->
<g id="edge7" class="edge">
<title>Node1&#45;&gt;Node8</title>
<path fill="none" stroke="#191970" d="M809.2163,-53.4561C774.1555,-43.1765 725.2898,-28.8494 693.4056,-19.5011"/>
<polygon fill="#191970" stroke="#191970" points="808.5851,-56.9183 819.1659,-56.3733 810.5546,-50.2011 808.5851,-56.9183"/>
</g>
<!-- Node9 -->
<g id="node9" class="node">
<title>Node9</title>
<g id="a_node9"><a xlink:href="_general_glyph_8cpp.html" target="_top" xlink:title="Implementation of GeneralGlyph for SBML Layout. ">
<polygon fill="#ffffff" stroke="#000000" points="714.5,-.5 714.5,-19.5 791.5,-19.5 791.5,-.5 714.5,-.5"/>
<text text-anchor="middle" x="753" y="-7.5" font-family="Helvetica,sans-Serif" font-size="10.00" fill="#000000">GeneralGlyph.cpp</text>
</a>
</g>
</g>
<!-- Node1&#45;&gt;Node9 -->
<g id="edge8" class="edge">
<title>Node1&#45;&gt;Node9</title>
<path fill="none" stroke="#191970" d="M825.5643,-51.0465C807.9492,-41.0824 785.3153,-28.2794 770.0469,-19.6427"/>
<polygon fill="#191970" stroke="#191970" points="824.3283,-54.3684 834.7555,-56.2455 827.7747,-48.2756 824.3283,-54.3684"/>
</g>
<!-- Node10 -->
<g id="node10" class="node">
<title>Node10</title>
<g id="a_node10"><a xlink:href="_graphical_object_8cpp.html" target="_top" xlink:title="Implementation of GraphicalObject for SBML Layout. ">
<polygon fill="#ffffff" stroke="#000000" points="810,-.5 810,-19.5 894,-19.5 894,-.5 810,-.5"/>
<text text-anchor="middle" x="852" y="-7.5" font-family="Helvetica,sans-Serif" font-size="10.00" fill="#000000">GraphicalObject.cpp</text>
</a>
</g>
</g>
<!-- Node1&#45;&gt;Node10 -->
<g id="edge9" class="edge">
<title>Node1&#45;&gt;Node10</title>
<path fill="none" stroke="#191970" d="M852,-46.1575C852,-37.155 852,-26.9199 852,-19.6427"/>
<polygon fill="#191970" stroke="#191970" points="848.5001,-46.2455 852,-56.2455 855.5001,-46.2456 848.5001,-46.2455"/>
</g>
<!-- Node11 -->
<g id="node11" class="node">
<title>Node11</title>
<g id="a_node11"><a xlink:href="_layout_8cpp.html" target="_top" xlink:title="Implementation of Layout for SBML Layout. ">
<polygon fill="#ffffff" stroke="#000000" points="912.5,-.5 912.5,-19.5 965.5,-19.5 965.5,-.5 912.5,-.5"/>
<text text-anchor="middle" x="939" y="-7.5" font-family="Helvetica,sans-Serif" font-size="10.00" fill="#000000">Layout.cpp</text>
</a>
</g>
</g>
<!-- Node1&#45;&gt;Node11 -->
<g id="edge10" class="edge">
<title>Node1&#45;&gt;Node11</title>
<path fill="none" stroke="#191970" d="M875.6625,-50.769C891.0791,-40.8456 910.726,-28.1994 924.0194,-19.6427"/>
<polygon fill="#191970" stroke="#191970" points="873.6685,-47.89 867.1542,-56.2455 877.4573,-53.7761 873.6685,-47.89"/>
</g>
<!-- Node12 -->
<g id="node12" class="node">
<title>Node12</title>
<g id="a_node12"><a xlink:href="_line_segment_8cpp.html" target="_top" xlink:title="Implementation of LineSegment for SBML Layout. ">
<polygon fill="#ffffff" stroke="#000000" points="983.5,-.5 983.5,-19.5 1058.5,-19.5 1058.5,-.5 983.5,-.5"/>
<text text-anchor="middle" x="1021" y="-7.5" font-family="Helvetica,sans-Serif" font-size="10.00" fill="#000000">LineSegment.cpp</text>
</a>
</g>
</g>
<!-- Node1&#45;&gt;Node12 -->
<g id="edge11" class="edge">
<title>Node1&#45;&gt;Node12</title>
<path fill="none" stroke="#191970" d="M890.6573,-53.1905C921.6193,-42.9309 964.3574,-28.7691 992.327,-19.5011"/>
<polygon fill="#191970" stroke="#191970" points="889.4437,-49.9054 881.0521,-56.3733 891.6455,-56.5501 889.4437,-49.9054"/>
</g>
<!-- Node13 -->
<g id="node13" class="node">
<title>Node13</title>
<g id="a_node13"><a xlink:href="_point_8cpp.html" target="_top" xlink:title="Implementation of Point for SBML Layout. ">
<polygon fill="#ffffff" stroke="#000000" points="1077,-.5 1077,-19.5 1125,-19.5 1125,-.5 1077,-.5"/>
<text text-anchor="middle" x="1101" y="-7.5" font-family="Helvetica,sans-Serif" font-size="10.00" fill="#000000">Point.cpp</text>
</a>
</g>
</g>
<!-- Node1&#45;&gt;Node13 -->
<g id="edge12" class="edge">
<title>Node1&#45;&gt;Node13</title>
<path fill="none" stroke="#191970" d="M903.1209,-56.3773C947.0683,-47.8041 1012.0245,-34.4141 1068,-20 1070.8987,-19.2536 1073.9239,-18.4173 1076.9156,-17.5546"/>
<polygon fill="#191970" stroke="#191970" points="902.3988,-52.9521 893.2476,-58.2913 903.731,-59.8242 902.3988,-52.9521"/>
</g>
<!-- Node14 -->
<g id="node14" class="node">
<title>Node14</title>
<g id="a_node14"><a xlink:href="_reaction_glyph_8cpp.html" target="_top" xlink:title="Implementation of ReactionGlyph for SBML Layout. ">
<polygon fill="#ffffff" stroke="#000000" points="1143,-.5 1143,-19.5 1223,-19.5 1223,-.5 1143,-.5"/>
<text text-anchor="middle" x="1183" y="-7.5" font-family="Helvetica,sans-Serif" font-size="10.00" fill="#000000">ReactionGlyph.cpp</text>
</a>
</g>
</g>
<!-- Node1&#45;&gt;Node14 -->
<g id="edge13" class="edge">
<title>Node1&#45;&gt;Node14</title>
<path fill="none" stroke="#191970" d="M903.3104,-58.2555C959.9067,-49.5676 1053.6195,-34.752 1134,-20 1136.9035,-19.4671 1139.9001,-18.8994 1142.9138,-18.3155"/>
<polygon fill="#191970" stroke="#191970" points="902.5415,-54.8323 893.1861,-59.805 903.6005,-61.7517 902.5415,-54.8323"/>
</g>
<!-- Node15 -->
<g id="node15" class="node">
<title>Node15</title>
<g id="a_node15"><a xlink:href="_reference_glyph_8cpp.html" target="_top" xlink:title="Implementation of ReferenceGlyph for SBML Layout. ">
<polygon fill="#ffffff" stroke="#000000" points="1241.5,-.5 1241.5,-19.5 1326.5,-19.5 1326.5,-.5 1241.5,-.5"/>
<text text-anchor="middle" x="1284" y="-7.5" font-family="Helvetica,sans-Serif" font-size="10.00" fill="#000000">ReferenceGlyph.cpp</text>
</a>
</g>
</g>
<!-- Node1&#45;&gt;Node15 -->
<g id="edge14" class="edge">
<title>Node1&#45;&gt;Node15</title>
<path fill="none" stroke="#191970" d="M903.4977,-60.9139C976.7068,-53.423 1114.9805,-38.3119 1232,-20 1235.0881,-19.5168 1238.2732,-18.9855 1241.475,-18.4275"/>
<polygon fill="#191970" stroke="#191970" points="902.7733,-57.4695 893.1787,-61.9633 903.4816,-64.4335 902.7733,-57.4695"/>
</g>
<!-- Node16 -->
<g id="node16" class="node">
<title>Node16</title>
<g id="a_node16"><a xlink:href="_species_glyph_8cpp.html" target="_top" xlink:title="Implementation of SpeciesGlyph for SBML Layout. ">
<polygon fill="#ffffff" stroke="#000000" points="1344.5,-.5 1344.5,-19.5 1421.5,-19.5 1421.5,-.5 1344.5,-.5"/>
<text text-anchor="middle" x="1383" y="-7.5" font-family="Helvetica,sans-Serif" font-size="10.00" fill="#000000">SpeciesGlyph.cpp</text>
</a>
</g>
</g>
<!-- Node1&#45;&gt;Node16 -->
<g id="edge15" class="edge">
<title>Node1&#45;&gt;Node16</title>
<path fill="none" stroke="#191970" d="M903.3695,-63.0635C992.0207,-57.5623 1179.3057,-44.0345 1336,-20 1338.7212,-19.5826 1341.5218,-19.1067 1344.3361,-18.5942"/>
<polygon fill="#191970" stroke="#191970" points="903.0786,-59.5746 893.3112,-63.6793 903.5065,-66.5616 903.0786,-59.5746"/>
</g>
<!-- Node17 -->
<g id="node17" class="node">
<title>Node17</title>
<g id="a_node17"><a xlink:href="_species_reference_glyph_8cpp.html" target="_top" xlink:title="Implementation of SpeciesReferenceGlyph for SBML Layout. ">
<polygon fill="#ffffff" stroke="#000000" points="1440,-.5 1440,-19.5 1552,-19.5 1552,-.5 1440,-.5"/>
<text text-anchor="middle" x="1496" y="-7.5" font-family="Helvetica,sans-Serif" font-size="10.00" fill="#000000">SpeciesReferenceGlyph.cpp</text>
</a>
</g>
</g>
<!-- Node1&#45;&gt;Node17 -->
<g id="edge16" class="edge">
<title>Node1&#45;&gt;Node17</title>
<path fill="none" stroke="#191970" d="M903.4163,-63.1854C1004.6398,-57.3637 1236.8008,-42.6218 1431,-20 1433.8352,-19.6697 1436.7365,-19.3086 1439.6641,-18.9258"/>
<polygon fill="#191970" stroke="#191970" points="902.9534,-59.706 893.169,-63.7699 903.3521,-66.6947 902.9534,-59.706"/>
</g>
<!-- Node18 -->
<g id="node18" class="node">
<title>Node18</title>
<g id="a_node18"><a xlink:href="_text_glyph_8cpp.html" target="_top" xlink:title="Implementation of TextGlyph for SBML Layout. ">
<polygon fill="#ffffff" stroke="#000000" points="1570.5,-.5 1570.5,-19.5 1635.5,-19.5 1635.5,-.5 1570.5,-.5"/>
<text text-anchor="middle" x="1603" y="-7.5" font-family="Helvetica,sans-Serif" font-size="10.00" fill="#000000">TextGlyph.cpp</text>
</a>
</g>
</g>
<!-- Node1&#45;&gt;Node18 -->
<g id="edge17" class="edge">
<title>Node1&#45;&gt;Node18</title>
<path fill="none" stroke="#191970" d="M903.466,-63.7928C1044.3024,-57.5722 1433.968,-39.1037 1561,-20 1563.9649,-19.5541 1567.0286,-19.0035 1570.0879,-18.3916"/>
<polygon fill="#191970" stroke="#191970" points="903.2048,-60.3008 893.3682,-64.2366 903.5122,-67.294 903.2048,-60.3008"/>
</g>
</g>
</svg>
        <g id="navigator" transform="translate(0 0)" fill="#404254">
                <rect fill="#f2f5e9" fill-opacity="0.5" stroke="#606060" stroke-width=".5" x="0" y="0" width="60" height="60"/>
                <use id="zoomplus" xlink:href="#zoomPlus" x="17" y="9" onmousedown="handleZoom(evt,'in')"/>
                <use id="zoomminus" xlink:href="#zoomMin" x="42" y="9" onmousedown="handleZoom(evt,'out')"/>
                <use id="reset" xlink:href="#resetDef" x="30" y="36" onmousedown="handleReset()"/>
                <g id="arrowUp" xlink:href="#dirArrow" transform="translate(30 24)" onmousedown="handlePan(0,-1)">
                  <use xlink:href="#rim" fill="#404040">
                        <set attributeName="fill" to="#808080" begin="arrowUp.mouseover" end="arrowUp.mouseout"/>
                  </use>
                  <path fill="none" stroke="white" stroke-width="1.5" d="M0,-3.0v7 M-2.5,-0.5L0,-3.0L2.5,-0.5"/>
                </g>
                <g id="arrowRight" xlink:href="#dirArrow" transform="rotate(90) translate(36 -43)" onmousedown="handlePan(1,0)">
                  <use xlink:href="#rim" fill="#404040">
                        <set attributeName="fill" to="#808080" begin="arrowRight.mouseover" end="arrowRight.mouseout"/>
                  </use>
                  <path fill="none" stroke="white" stroke-width="1.5" d="M0,-3.0v7 M-2.5,-0.5L0,-3.0L2.5,-0.5"/>
                </g>
                <g id="arrowDown" xlink:href="#dirArrow" transform="rotate(180) translate(-30 -48)" onmousedown="handlePan(0,1)">
                  <use xlink:href="#rim" fill="#404040">
                        <set attributeName="fill" to="#808080" begin="arrowDown.mouseover" end="arrowDown.mouseout"/>
                  </use>
                  <path fill="none" stroke="white" stroke-width="1.5" d="M0,-3.0v7 M-2.5,-0.5L0,-3.0L2.5,-0.5"/>
                </g>
                <g id="arrowLeft" xlink:href="#dirArrow" transform="rotate(270) translate(-36 17)" onmousedown="handlePan(-1,0)">
                  <use xlink:href="#rim" fill="#404040">
                        <set attributeName="fill" to="#808080" begin="arrowLeft.mouseover" end="arrowLeft.mouseout"/>
                  </use>
                  <path fill="none" stroke="white" stroke-width="1.5" d="M0,-3.0v7 M-2.5,-0.5L0,-3.0L2.5,-0.5"/>
                </g>
        </g>
        <svg viewBox="0 0 15 15" width="100%" height="30px" preserveAspectRatio="xMaxYMin meet">
         <g id="arrow_out" transform="scale(0.3 0.3)">
          <a xlink:href="_layout_s_b_m_l_error_8h__dep__incl_org.svg" target="_base">
           <rect id="button" ry="5" rx="5" y="6" x="6" height="38" width="38"
                fill="#f2f5e9" fill-opacity="0.5" stroke="#606060" stroke-width="1.0"/>
           <path id="arrow"
             d="M 11.500037,31.436501 C 11.940474,20.09759 22.043105,11.32322 32.158766,21.979434 L 37.068811,17.246167 C 37.068811,17.246167 37.088388,32 37.088388,32 L 22.160133,31.978069 C 22.160133,31.978069 26.997745,27.140456 26.997745,27.140456 C 18.528582,18.264221 13.291696,25.230495 11.500037,31.436501 z"
             style="fill:#404040;"/>
          </a>
         </g>
        </svg>
</svg>
