<?xml version="1.0" encoding="UTF-8" standalone="no"?>
<!DOCTYPE svg PUBLIC "-//W3C//DTD SVG 1.1//EN"
 "http://www.w3.org/Graphics/SVG/1.1/DTD/svg11.dtd">
<!-- Generated by graphviz version 2.40.1 (20161225.0304)
 -->
<!-- Title: LayoutModelPlugin.h Pages: 1 -->
<svg width="753pt" height="140pt"
 viewBox="0.00 0.00 753.00 140.00" xmlns="http://www.w3.org/2000/svg" xmlns:xlink="http://www.w3.org/1999/xlink">
<g id="graph0" class="graph" transform="scale(1 1) rotate(0) translate(4 136)">
<title>LayoutModelPlugin.h</title>
<polygon fill="#ffffff" stroke="transparent" points="-4,4 -4,-136 749,-136 749,4 -4,4"/>
<!-- Node1 -->
<g id="node1" class="node">
<title>Node1</title>
<polygon fill="#bfbfbf" stroke="#000000" points="440.5,-112.5 440.5,-131.5 527.5,-131.5 527.5,-112.5 440.5,-112.5"/>
<text text-anchor="middle" x="484" y="-119.5" font-family="Helvetica,sans-Serif" font-size="10.00" fill="#000000">LayoutModelPlugin.h</text>
</g>
<!-- Node2 -->
<g id="node2" class="node">
<title>Node2</title>
<g id="a_node2"><a xlink:href="_layout_extension_types_8h.html" target="_top" xlink:title="Include all SBML types of layout extension in a single header file. ">
<polygon fill="#ffffff" stroke="#000000" points="215.5,-56.5 215.5,-75.5 314.5,-75.5 314.5,-56.5 215.5,-56.5"/>
<text text-anchor="middle" x="265" y="-63.5" font-family="Helvetica,sans-Serif" font-size="10.00" fill="#000000">LayoutExtensionTypes.h</text>
</a>
</g>
</g>
<!-- Node1&#45;&gt;Node2 -->
<g id="edge1" class="edge">
<title>Node1&#45;&gt;Node2</title>
<path fill="none" stroke="#191970" d="M436.4892,-109.8511C396.1898,-99.5462 339.1852,-84.9697 302.1562,-75.5011"/>
<polygon fill="#191970" stroke="#191970" points="435.7972,-113.2867 446.3526,-112.3733 437.5314,-106.5049 435.7972,-113.2867"/>
</g>
<!-- Node8 -->
<g id="node8" class="node">
<title>Node8</title>
<g id="a_node8"><a xlink:href="_layout_extension_8cpp.html" target="_top" xlink:title="Implementation of LayoutExtension, the core module of layout package. ">
<polygon fill="#ffffff" stroke="#000000" points="333,-56.5 333,-75.5 419,-75.5 419,-56.5 333,-56.5"/>
<text text-anchor="middle" x="376" y="-63.5" font-family="Helvetica,sans-Serif" font-size="10.00" fill="#000000">LayoutExtension.cpp</text>
</a>
</g>
</g>
<!-- Node1&#45;&gt;Node8 -->
<g id="edge7" class="edge">
<title>Node1&#45;&gt;Node8</title>
<path fill="none" stroke="#191970" d="M456.2229,-107.5971C436.8618,-97.558 411.5615,-84.4393 394.5966,-75.6427"/>
<polygon fill="#191970" stroke="#191970" points="454.6992,-110.7495 465.1878,-112.2455 457.9214,-104.5352 454.6992,-110.7495"/>
</g>
<!-- Node9 -->
<g id="node9" class="node">
<title>Node9</title>
<g id="a_node9"><a xlink:href="_layout_model_plugin_8cpp.html" target="_top" xlink:title="Implementation of LayoutModelPlugin, the plugin class of layout package for the Model element...">
<polygon fill="#ffffff" stroke="#000000" points="437,-56.5 437,-75.5 531,-75.5 531,-56.5 437,-56.5"/>
<text text-anchor="middle" x="484" y="-63.5" font-family="Helvetica,sans-Serif" font-size="10.00" fill="#000000">LayoutModelPlugin.cpp</text>
</a>
</g>
</g>
<!-- Node1&#45;&gt;Node9 -->
<g id="edge8" class="edge">
<title>Node1&#45;&gt;Node9</title>
<path fill="none" stroke="#191970" d="M484,-102.1575C484,-93.155 484,-82.9199 484,-75.6427"/>
<polygon fill="#191970" stroke="#191970" points="480.5001,-102.2455 484,-112.2455 487.5001,-102.2456 480.5001,-102.2455"/>
</g>
<!-- Node10 -->
<g id="node10" class="node">
<title>Node10</title>
<g id="a_node10"><a xlink:href="_layout_annotation_8cpp.html" target="_top" xlink:title="Layout annotation I/O. ">
<polygon fill="#ffffff" stroke="#000000" points="549.5,-56.5 549.5,-75.5 638.5,-75.5 638.5,-56.5 549.5,-56.5"/>
<text text-anchor="middle" x="594" y="-63.5" font-family="Helvetica,sans-Serif" font-size="10.00" fill="#000000">LayoutAnnotation.cpp</text>
</a>
</g>
</g>
<!-- Node1&#45;&gt;Node10 -->
<g id="edge9" class="edge">
<title>Node1&#45;&gt;Node10</title>
<path fill="none" stroke="#191970" d="M512.2914,-107.5971C532.0111,-97.558 557.78,-84.4393 575.059,-75.6427"/>
<polygon fill="#191970" stroke="#191970" points="510.4843,-104.5896 503.1605,-112.2455 513.6601,-110.8277 510.4843,-104.5896"/>
</g>
<!-- Node11 -->
<g id="node11" class="node">
<title>Node11</title>
<g id="a_node11"><a xlink:href="_render_extension_8cpp.html" target="_top" xlink:title="Implementation of RenderExtension, the core module of the render package. ">
<polygon fill="#ffffff" stroke="#000000" points="657,-56.5 657,-75.5 745,-75.5 745,-56.5 657,-56.5"/>
<text text-anchor="middle" x="701" y="-63.5" font-family="Helvetica,sans-Serif" font-size="10.00" fill="#000000">RenderExtension.cpp</text>
</a>
</g>
</g>
<!-- Node1&#45;&gt;Node11 -->
<g id="edge10" class="edge">
<title>Node1&#45;&gt;Node11</title>
<path fill="none" stroke="#191970" d="M531.0769,-109.8511C571.0083,-99.5462 627.4923,-84.9697 664.1831,-75.5011"/>
<polygon fill="#191970" stroke="#191970" points="530.1118,-106.4854 521.3036,-112.3733 531.861,-113.2634 530.1118,-106.4854"/>
</g>
<!-- Node3 -->
<g id="node3" class="node">
<title>Node3</title>
<g id="a_node3"><a xlink:href="_graphical_object_8cpp.html" target="_top" xlink:title="Implementation of GraphicalObject for SBML Layout. ">
<polygon fill="#ffffff" stroke="#000000" points="0,-.5 0,-19.5 84,-19.5 84,-.5 0,-.5"/>
<text text-anchor="middle" x="42" y="-7.5" font-family="Helvetica,sans-Serif" font-size="10.00" fill="#000000">GraphicalObject.cpp</text>
</a>
</g>
</g>
<!-- Node2&#45;&gt;Node3 -->
<g id="edge2" class="edge">
<title>Node2&#45;&gt;Node3</title>
<path fill="none" stroke="#191970" d="M217.1426,-53.982C176.1111,-43.6781 117.7924,-29.0331 79.9246,-19.5237"/>
<polygon fill="#191970" stroke="#191970" points="216.367,-57.3958 226.9183,-56.4369 218.0719,-50.6066 216.367,-57.3958"/>
</g>
<!-- Node4 -->
<g id="node4" class="node">
<title>Node4</title>
<g id="a_node4"><a xlink:href="_layout_validator_8cpp.html" target="_top" xlink:title="Implementation of the LayoutValidator class. ">
<polygon fill="#ffffff" stroke="#000000" points="102.5,-.5 102.5,-19.5 185.5,-19.5 185.5,-.5 102.5,-.5"/>
<text text-anchor="middle" x="144" y="-7.5" font-family="Helvetica,sans-Serif" font-size="10.00" fill="#000000">LayoutValidator.cpp</text>
</a>
</g>
</g>
<!-- Node2&#45;&gt;Node4 -->
<g id="edge3" class="edge">
<title>Node2&#45;&gt;Node4</title>
<path fill="none" stroke="#191970" d="M234.9896,-52.1109C213.0475,-41.9559 183.8612,-28.4482 164.5292,-19.5011"/>
<polygon fill="#191970" stroke="#191970" points="233.6541,-55.3494 244.1994,-56.3733 236.5942,-48.9968 233.6541,-55.3494"/>
</g>
<!-- Node5 -->
<g id="node5" class="node">
<title>Node5</title>
<g id="a_node5"><a xlink:href="_render_list_of_layouts_plugin_8cpp.html" target="_top" xlink:title="Implementation of RenderListOfLayoutsPlugin, the plugin class of the fbc package for the Model elemen...">
<polygon fill="#ffffff" stroke="#000000" points="204,-.5 204,-19.5 326,-19.5 326,-.5 204,-.5"/>
<text text-anchor="middle" x="265" y="-7.5" font-family="Helvetica,sans-Serif" font-size="10.00" fill="#000000">RenderListOfLayoutsPlugin.cpp</text>
</a>
</g>
</g>
<!-- Node2&#45;&gt;Node5 -->
<g id="edge4" class="edge">
<title>Node2&#45;&gt;Node5</title>
<path fill="none" stroke="#191970" d="M265,-46.1575C265,-37.155 265,-26.9199 265,-19.6427"/>
<polygon fill="#191970" stroke="#191970" points="261.5001,-46.2455 265,-56.2455 268.5001,-46.2456 261.5001,-46.2455"/>
</g>
<!-- Node6 -->
<g id="node6" class="node">
<title>Node6</title>
<g id="a_node6"><a xlink:href="_render_layout_converter_8cpp.html" target="_top" xlink:title="Simple converter to convert Layout + Render from l2 to L3 and vice versa. ">
<polygon fill="#ffffff" stroke="#000000" points="344.5,-.5 344.5,-19.5 455.5,-19.5 455.5,-.5 344.5,-.5"/>
<text text-anchor="middle" x="400" y="-7.5" font-family="Helvetica,sans-Serif" font-size="10.00" fill="#000000">RenderLayoutConverter.cpp</text>
</a>
</g>
</g>
<!-- Node2&#45;&gt;Node6 -->
<g id="edge5" class="edge">
<title>Node2&#45;&gt;Node6</title>
<path fill="none" stroke="#191970" d="M297.4991,-52.5189C322.0854,-42.3201 355.2366,-28.5685 377.0955,-19.5011"/>
<polygon fill="#191970" stroke="#191970" points="296.1031,-49.3087 288.2073,-56.3733 298.7852,-55.7745 296.1031,-49.3087"/>
</g>
<!-- Node7 -->
<g id="node7" class="node">
<title>Node7</title>
<g id="a_node7"><a xlink:href="_render_utilities_8cpp.html" target="_top" xlink:title="implementation of RenderUtilities, a class of utility functions for the render package ...">
<polygon fill="#ffffff" stroke="#000000" points="473.5,-.5 473.5,-19.5 552.5,-19.5 552.5,-.5 473.5,-.5"/>
<text text-anchor="middle" x="513" y="-7.5" font-family="Helvetica,sans-Serif" font-size="10.00" fill="#000000">RenderUtilities.cpp</text>
</a>
</g>
</g>
<!-- Node2&#45;&gt;Node7 -->
<g id="edge6" class="edge">
<title>Node2&#45;&gt;Node7</title>
<path fill="none" stroke="#191970" d="M317.252,-54.2012C363.8231,-43.6851 430.9781,-28.5211 473.2835,-18.9682"/>
<polygon fill="#191970" stroke="#191970" points="316.3344,-50.8202 307.3509,-56.4369 317.8763,-57.6482 316.3344,-50.8202"/>
</g>
</g>
</svg>
