<?xml version="1.0" encoding="UTF-8" standalone="no"?>
<!DOCTYPE svg PUBLIC "-//W3C//DTD SVG 1.1//EN"
 "http://www.w3.org/Graphics/SVG/1.1/DTD/svg11.dtd">
<!-- Generated by graphviz version 2.40.1 (20161225.0304)
 -->
<!-- Title: Layout.h Pages: 1 -->
<svg width="2554pt" height="196pt"
 viewBox="0.00 0.00 2553.50 196.00" xmlns="http://www.w3.org/2000/svg" xmlns:xlink="http://www.w3.org/1999/xlink">
<g id="graph0" class="graph" transform="scale(1 1) rotate(0) translate(4 192)">
<title>Layout.h</title>
<polygon fill="#ffffff" stroke="transparent" points="-4,4 -4,-192 2549.5,-192 2549.5,4 -4,4"/>
<!-- Node1 -->
<g id="node1" class="node">
<title>Node1</title>
<polygon fill="#bfbfbf" stroke="#000000" points="1576.5,-168.5 1576.5,-187.5 1621.5,-187.5 1621.5,-168.5 1576.5,-168.5"/>
<text text-anchor="middle" x="1599" y="-175.5" font-family="Helvetica,sans-Serif" font-size="10.00" fill="#000000">Layout.h</text>
</g>
<!-- Node2 -->
<g id="node2" class="node">
<title>Node2</title>
<g id="a_node2"><a xlink:href="_layout_extension_types_8h.html" target="_top" xlink:title="Include all SBML types of layout extension in a single header file. ">
<polygon fill="#ffffff" stroke="#000000" points="215.5,-56.5 215.5,-75.5 314.5,-75.5 314.5,-56.5 215.5,-56.5"/>
<text text-anchor="middle" x="265" y="-63.5" font-family="Helvetica,sans-Serif" font-size="10.00" fill="#000000">LayoutExtensionTypes.h</text>
</a>
</g>
</g>
<!-- Node1&#45;&gt;Node2 -->
<g id="edge1" class="edge">
<title>Node1&#45;&gt;Node2</title>
<path fill="none" stroke="#191970" d="M1566.1283,-177.7708C1405.0947,-176.4767 698.5113,-168.7663 482,-132 410.1796,-119.804 328.8378,-90.7677 289.2429,-75.5998"/>
<polygon fill="#191970" stroke="#191970" points="1566.3251,-181.2724 1576.3519,-177.8501 1566.3794,-174.2726 1566.3251,-181.2724"/>
</g>
<!-- Node8 -->
<g id="node8" class="node">
<title>Node8</title>
<g id="a_node8"><a xlink:href="_layout_model_plugin_8h.html" target="_top" xlink:title="Definition of LayoutModelPlugin, the plugin class of layout package for Model element. ">
<polygon fill="#ffffff" stroke="#000000" points="491.5,-112.5 491.5,-131.5 578.5,-131.5 578.5,-112.5 491.5,-112.5"/>
<text text-anchor="middle" x="535" y="-119.5" font-family="Helvetica,sans-Serif" font-size="10.00" fill="#000000">LayoutModelPlugin.h</text>
</a>
</g>
</g>
<!-- Node1&#45;&gt;Node8 -->
<g id="edge7" class="edge">
<title>Node1&#45;&gt;Node8</title>
<path fill="none" stroke="#191970" d="M1566.1194,-176.9836C1443.6972,-173.0805 1002.7205,-157.9572 640,-132 619.8172,-130.5557 597.4949,-128.4951 578.6405,-126.6193"/>
<polygon fill="#191970" stroke="#191970" points="1566.2167,-180.4884 1576.3224,-177.3064 1566.4381,-173.4919 1566.2167,-180.4884"/>
</g>
<!-- Node11 -->
<g id="node11" class="node">
<title>Node11</title>
<g id="a_node11"><a xlink:href="_layout_annotation_8cpp.html" target="_top" xlink:title="Layout annotation I/O. ">
<polygon fill="#ffffff" stroke="#000000" points="543.5,-56.5 543.5,-75.5 632.5,-75.5 632.5,-56.5 543.5,-56.5"/>
<text text-anchor="middle" x="588" y="-63.5" font-family="Helvetica,sans-Serif" font-size="10.00" fill="#000000">LayoutAnnotation.cpp</text>
</a>
</g>
</g>
<!-- Node1&#45;&gt;Node11 -->
<g id="edge24" class="edge">
<title>Node1&#45;&gt;Node11</title>
<path fill="none" stroke="#191970" d="M1566.0635,-177.1393C1415.3783,-173.0872 795.4463,-155.1364 712,-132 668.5237,-119.9457 623.1275,-90.8463 601.2909,-75.6325"/>
<polygon fill="#191970" stroke="#191970" points="1566.389,-180.6491 1576.4788,-177.4172 1566.5758,-173.6516 1566.389,-180.6491"/>
</g>
<!-- Node13 -->
<g id="node13" class="node">
<title>Node13</title>
<g id="a_node13"><a xlink:href="_layout_species_reference_plugin_8h.html" target="_top" xlink:title="Definition of LayoutSpeciesReferencePlugin, the plugin class of layout package (Level2) for the Speci...">
<polygon fill="#ffffff" stroke="#000000" points="721.5,-112.5 721.5,-131.5 848.5,-131.5 848.5,-112.5 721.5,-112.5"/>
<text text-anchor="middle" x="785" y="-119.5" font-family="Helvetica,sans-Serif" font-size="10.00" fill="#000000">LayoutSpeciesReferencePlugin.h</text>
</a>
</g>
</g>
<!-- Node1&#45;&gt;Node13 -->
<g id="edge13" class="edge">
<title>Node1&#45;&gt;Node13</title>
<path fill="none" stroke="#191970" d="M1566.1491,-175.74C1443.6617,-167.3133 1012.2316,-137.6326 848.5858,-126.3745"/>
<polygon fill="#191970" stroke="#191970" points="1566.1627,-179.2491 1576.3794,-176.4438 1566.6432,-172.2656 1566.1627,-179.2491"/>
</g>
<!-- Node15 -->
<g id="node15" class="node">
<title>Node15</title>
<g id="a_node15"><a xlink:href="_compartment_glyph_8cpp.html" target="_top" xlink:title="Implementation of CompartmentGlyph for SBML Layout. ">
<polygon fill="#ffffff" stroke="#000000" points="1446,-112.5 1446,-131.5 1542,-131.5 1542,-112.5 1446,-112.5"/>
<text text-anchor="middle" x="1494" y="-119.5" font-family="Helvetica,sans-Serif" font-size="10.00" fill="#000000">CompartmentGlyph.cpp</text>
</a>
</g>
</g>
<!-- Node1&#45;&gt;Node15 -->
<g id="edge17" class="edge">
<title>Node1&#45;&gt;Node15</title>
<path fill="none" stroke="#191970" d="M1571.7375,-163.46C1552.9478,-153.4388 1528.4987,-140.3993 1512.08,-131.6427"/>
<polygon fill="#191970" stroke="#191970" points="1570.2398,-166.6278 1580.7104,-168.2455 1573.5339,-160.4514 1570.2398,-166.6278"/>
</g>
<!-- Node16 -->
<g id="node16" class="node">
<title>Node16</title>
<g id="a_node16"><a xlink:href="_general_glyph_8cpp.html" target="_top" xlink:title="Implementation of GeneralGlyph for SBML Layout. ">
<polygon fill="#ffffff" stroke="#000000" points="1560.5,-112.5 1560.5,-131.5 1637.5,-131.5 1637.5,-112.5 1560.5,-112.5"/>
<text text-anchor="middle" x="1599" y="-119.5" font-family="Helvetica,sans-Serif" font-size="10.00" fill="#000000">GeneralGlyph.cpp</text>
</a>
</g>
</g>
<!-- Node1&#45;&gt;Node16 -->
<g id="edge18" class="edge">
<title>Node1&#45;&gt;Node16</title>
<path fill="none" stroke="#191970" d="M1599,-158.1575C1599,-149.155 1599,-138.9199 1599,-131.6427"/>
<polygon fill="#191970" stroke="#191970" points="1595.5001,-158.2455 1599,-168.2455 1602.5001,-158.2456 1595.5001,-158.2455"/>
</g>
<!-- Node17 -->
<g id="node17" class="node">
<title>Node17</title>
<g id="a_node17"><a xlink:href="_layout_8cpp.html" target="_top" xlink:title="Implementation of Layout for SBML Layout. ">
<polygon fill="#ffffff" stroke="#000000" points="1655.5,-112.5 1655.5,-131.5 1708.5,-131.5 1708.5,-112.5 1655.5,-112.5"/>
<text text-anchor="middle" x="1682" y="-119.5" font-family="Helvetica,sans-Serif" font-size="10.00" fill="#000000">Layout.cpp</text>
</a>
</g>
</g>
<!-- Node1&#45;&gt;Node17 -->
<g id="edge19" class="edge">
<title>Node1&#45;&gt;Node17</title>
<path fill="none" stroke="#191970" d="M1621.988,-162.49C1636.6322,-152.6096 1655.1444,-140.1194 1667.7082,-131.6427"/>
<polygon fill="#191970" stroke="#191970" points="1619.7896,-159.7511 1613.4575,-168.2455 1623.7047,-165.5539 1619.7896,-159.7511"/>
</g>
<!-- Node18 -->
<g id="node18" class="node">
<title>Node18</title>
<g id="a_node18"><a xlink:href="_reaction_glyph_8cpp.html" target="_top" xlink:title="Implementation of ReactionGlyph for SBML Layout. ">
<polygon fill="#ffffff" stroke="#000000" points="1727,-112.5 1727,-131.5 1807,-131.5 1807,-112.5 1727,-112.5"/>
<text text-anchor="middle" x="1767" y="-119.5" font-family="Helvetica,sans-Serif" font-size="10.00" fill="#000000">ReactionGlyph.cpp</text>
</a>
</g>
</g>
<!-- Node1&#45;&gt;Node18 -->
<g id="edge20" class="edge">
<title>Node1&#45;&gt;Node18</title>
<path fill="none" stroke="#191970" d="M1631.5269,-167.1577C1662.4799,-156.84 1708.6077,-141.4641 1738.2466,-131.5845"/>
<polygon fill="#191970" stroke="#191970" points="1630.0372,-163.9649 1621.6572,-170.4476 1632.2509,-170.6056 1630.0372,-163.9649"/>
</g>
<!-- Node19 -->
<g id="node19" class="node">
<title>Node19</title>
<g id="a_node19"><a xlink:href="_species_glyph_8cpp.html" target="_top" xlink:title="Implementation of SpeciesGlyph for SBML Layout. ">
<polygon fill="#ffffff" stroke="#000000" points="1825.5,-112.5 1825.5,-131.5 1902.5,-131.5 1902.5,-112.5 1825.5,-112.5"/>
<text text-anchor="middle" x="1864" y="-119.5" font-family="Helvetica,sans-Serif" font-size="10.00" fill="#000000">SpeciesGlyph.cpp</text>
</a>
</g>
</g>
<!-- Node1&#45;&gt;Node19 -->
<g id="edge21" class="edge">
<title>Node1&#45;&gt;Node19</title>
<path fill="none" stroke="#191970" d="M1631.6533,-171.0997C1680.6893,-160.7374 1773.156,-141.1972 1825.4402,-130.1485"/>
<polygon fill="#191970" stroke="#191970" points="1630.654,-167.7335 1621.5938,-173.2255 1632.1013,-174.5822 1630.654,-167.7335"/>
</g>
<!-- Node20 -->
<g id="node20" class="node">
<title>Node20</title>
<g id="a_node20"><a xlink:href="_species_reference_glyph_8cpp.html" target="_top" xlink:title="Implementation of SpeciesReferenceGlyph for SBML Layout. ">
<polygon fill="#ffffff" stroke="#000000" points="1921,-112.5 1921,-131.5 2033,-131.5 2033,-112.5 1921,-112.5"/>
<text text-anchor="middle" x="1977" y="-119.5" font-family="Helvetica,sans-Serif" font-size="10.00" fill="#000000">SpeciesReferenceGlyph.cpp</text>
</a>
</g>
</g>
<!-- Node1&#45;&gt;Node20 -->
<g id="edge22" class="edge">
<title>Node1&#45;&gt;Node20</title>
<path fill="none" stroke="#191970" d="M1632.0067,-173.2237C1689.0925,-164.9463 1809.9508,-147.3486 1912,-132 1914.9355,-131.5585 1917.9453,-131.1035 1920.9838,-130.6423"/>
<polygon fill="#191970" stroke="#191970" points="1631.1808,-169.8067 1621.7861,-174.7049 1632.1848,-176.7344 1631.1808,-169.8067"/>
</g>
<!-- Node21 -->
<g id="node21" class="node">
<title>Node21</title>
<g id="a_node21"><a xlink:href="_text_glyph_8cpp.html" target="_top" xlink:title="Implementation of TextGlyph for SBML Layout. ">
<polygon fill="#ffffff" stroke="#000000" points="2051.5,-112.5 2051.5,-131.5 2116.5,-131.5 2116.5,-112.5 2051.5,-112.5"/>
<text text-anchor="middle" x="2084" y="-119.5" font-family="Helvetica,sans-Serif" font-size="10.00" fill="#000000">TextGlyph.cpp</text>
</a>
</g>
</g>
<!-- Node1&#45;&gt;Node21 -->
<g id="edge23" class="edge">
<title>Node1&#45;&gt;Node21</title>
<path fill="none" stroke="#191970" d="M1631.789,-176.0624C1705.5071,-171.3864 1889.7906,-157.9092 2042,-132 2044.9557,-131.4969 2048.0131,-130.9068 2051.0683,-130.2693"/>
<polygon fill="#191970" stroke="#191970" points="1631.4948,-172.5739 1621.7318,-176.6889 1631.9301,-179.5603 1631.4948,-172.5739"/>
</g>
<!-- Node22 -->
<g id="node22" class="node">
<title>Node22</title>
<g id="a_node22"><a xlink:href="_layout_annotation_8h.html" target="_top" xlink:title="Layout annotation I/O. ">
<polygon fill="#ffffff" stroke="#000000" points="1346.5,-112.5 1346.5,-131.5 1427.5,-131.5 1427.5,-112.5 1346.5,-112.5"/>
<text text-anchor="middle" x="1387" y="-119.5" font-family="Helvetica,sans-Serif" font-size="10.00" fill="#000000">LayoutAnnotation.h</text>
</a>
</g>
</g>
<!-- Node1&#45;&gt;Node22 -->
<g id="edge25" class="edge">
<title>Node1&#45;&gt;Node22</title>
<path fill="none" stroke="#191970" d="M1566.6073,-169.4434C1527.9704,-159.2375 1463.5636,-142.2244 1423.286,-131.585"/>
<polygon fill="#191970" stroke="#191970" points="1565.75,-172.837 1576.3123,-172.007 1567.5378,-166.0691 1565.75,-172.837"/>
</g>
<!-- Node41 -->
<g id="node41" class="node">
<title>Node41</title>
<g id="a_node41"><a xlink:href="_render_layout_plugin_8cpp.html" target="_top" xlink:title="Implementation of RenderLayoutPlugin, the plugin class of the fbc package for the Model element...">
<polygon fill="#ffffff" stroke="#000000" points="2134.5,-112.5 2134.5,-131.5 2233.5,-131.5 2233.5,-112.5 2134.5,-112.5"/>
<text text-anchor="middle" x="2184" y="-119.5" font-family="Helvetica,sans-Serif" font-size="10.00" fill="#000000">RenderLayoutPlugin.cpp</text>
</a>
</g>
</g>
<!-- Node1&#45;&gt;Node41 -->
<g id="edge47" class="edge">
<title>Node1&#45;&gt;Node41</title>
<path fill="none" stroke="#191970" d="M1631.7465,-176.0978C1714.692,-171.0724 1939.7119,-156.1465 2126,-132 2128.736,-131.6454 2131.54,-131.2543 2134.3673,-130.8384"/>
<polygon fill="#191970" stroke="#191970" points="1631.4461,-172.6095 1621.6734,-176.7015 1631.865,-179.5969 1631.4461,-172.6095"/>
</g>
<!-- Node3 -->
<g id="node3" class="node">
<title>Node3</title>
<g id="a_node3"><a xlink:href="_graphical_object_8cpp.html" target="_top" xlink:title="Implementation of GraphicalObject for SBML Layout. ">
<polygon fill="#ffffff" stroke="#000000" points="0,-.5 0,-19.5 84,-19.5 84,-.5 0,-.5"/>
<text text-anchor="middle" x="42" y="-7.5" font-family="Helvetica,sans-Serif" font-size="10.00" fill="#000000">GraphicalObject.cpp</text>
</a>
</g>
</g>
<!-- Node2&#45;&gt;Node3 -->
<g id="edge2" class="edge">
<title>Node2&#45;&gt;Node3</title>
<path fill="none" stroke="#191970" d="M217.1426,-53.982C176.1111,-43.6781 117.7924,-29.0331 79.9246,-19.5237"/>
<polygon fill="#191970" stroke="#191970" points="216.367,-57.3958 226.9183,-56.4369 218.0719,-50.6066 216.367,-57.3958"/>
</g>
<!-- Node4 -->
<g id="node4" class="node">
<title>Node4</title>
<g id="a_node4"><a xlink:href="_layout_validator_8cpp.html" target="_top" xlink:title="Implementation of the LayoutValidator class. ">
<polygon fill="#ffffff" stroke="#000000" points="102.5,-.5 102.5,-19.5 185.5,-19.5 185.5,-.5 102.5,-.5"/>
<text text-anchor="middle" x="144" y="-7.5" font-family="Helvetica,sans-Serif" font-size="10.00" fill="#000000">LayoutValidator.cpp</text>
</a>
</g>
</g>
<!-- Node2&#45;&gt;Node4 -->
<g id="edge3" class="edge">
<title>Node2&#45;&gt;Node4</title>
<path fill="none" stroke="#191970" d="M234.9896,-52.1109C213.0475,-41.9559 183.8612,-28.4482 164.5292,-19.5011"/>
<polygon fill="#191970" stroke="#191970" points="233.6541,-55.3494 244.1994,-56.3733 236.5942,-48.9968 233.6541,-55.3494"/>
</g>
<!-- Node5 -->
<g id="node5" class="node">
<title>Node5</title>
<g id="a_node5"><a xlink:href="_render_list_of_layouts_plugin_8cpp.html" target="_top" xlink:title="Implementation of RenderListOfLayoutsPlugin, the plugin class of the fbc package for the Model elemen...">
<polygon fill="#ffffff" stroke="#000000" points="204,-.5 204,-19.5 326,-19.5 326,-.5 204,-.5"/>
<text text-anchor="middle" x="265" y="-7.5" font-family="Helvetica,sans-Serif" font-size="10.00" fill="#000000">RenderListOfLayoutsPlugin.cpp</text>
</a>
</g>
</g>
<!-- Node2&#45;&gt;Node5 -->
<g id="edge4" class="edge">
<title>Node2&#45;&gt;Node5</title>
<path fill="none" stroke="#191970" d="M265,-46.1575C265,-37.155 265,-26.9199 265,-19.6427"/>
<polygon fill="#191970" stroke="#191970" points="261.5001,-46.2455 265,-56.2455 268.5001,-46.2456 261.5001,-46.2455"/>
</g>
<!-- Node6 -->
<g id="node6" class="node">
<title>Node6</title>
<g id="a_node6"><a xlink:href="_render_layout_converter_8cpp.html" target="_top" xlink:title="Simple converter to convert Layout + Render from l2 to L3 and vice versa. ">
<polygon fill="#ffffff" stroke="#000000" points="344.5,-.5 344.5,-19.5 455.5,-19.5 455.5,-.5 344.5,-.5"/>
<text text-anchor="middle" x="400" y="-7.5" font-family="Helvetica,sans-Serif" font-size="10.00" fill="#000000">RenderLayoutConverter.cpp</text>
</a>
</g>
</g>
<!-- Node2&#45;&gt;Node6 -->
<g id="edge5" class="edge">
<title>Node2&#45;&gt;Node6</title>
<path fill="none" stroke="#191970" d="M297.4991,-52.5189C322.0854,-42.3201 355.2366,-28.5685 377.0955,-19.5011"/>
<polygon fill="#191970" stroke="#191970" points="296.1031,-49.3087 288.2073,-56.3733 298.7852,-55.7745 296.1031,-49.3087"/>
</g>
<!-- Node7 -->
<g id="node7" class="node">
<title>Node7</title>
<g id="a_node7"><a xlink:href="_render_utilities_8cpp.html" target="_top" xlink:title="implementation of RenderUtilities, a class of utility functions for the render package ...">
<polygon fill="#ffffff" stroke="#000000" points="473.5,-.5 473.5,-19.5 552.5,-19.5 552.5,-.5 473.5,-.5"/>
<text text-anchor="middle" x="513" y="-7.5" font-family="Helvetica,sans-Serif" font-size="10.00" fill="#000000">RenderUtilities.cpp</text>
</a>
</g>
</g>
<!-- Node2&#45;&gt;Node7 -->
<g id="edge6" class="edge">
<title>Node2&#45;&gt;Node7</title>
<path fill="none" stroke="#191970" d="M317.252,-54.2012C363.8231,-43.6851 430.9781,-28.5211 473.2835,-18.9682"/>
<polygon fill="#191970" stroke="#191970" points="316.3344,-50.8202 307.3509,-56.4369 317.8763,-57.6482 316.3344,-50.8202"/>
</g>
<!-- Node8&#45;&gt;Node2 -->
<g id="edge8" class="edge">
<title>Node8&#45;&gt;Node2</title>
<path fill="none" stroke="#191970" d="M481.3698,-110.8767C431.5229,-100.5381 358.0672,-85.3028 310.8759,-75.515"/>
<polygon fill="#191970" stroke="#191970" points="480.8173,-114.3365 491.3198,-112.9404 482.239,-107.4824 480.8173,-114.3365"/>
</g>
<!-- Node9 -->
<g id="node9" class="node">
<title>Node9</title>
<g id="a_node9"><a xlink:href="_layout_extension_8cpp.html" target="_top" xlink:title="Implementation of LayoutExtension, the core module of layout package. ">
<polygon fill="#ffffff" stroke="#000000" points="439,-56.5 439,-75.5 525,-75.5 525,-56.5 439,-56.5"/>
<text text-anchor="middle" x="482" y="-63.5" font-family="Helvetica,sans-Serif" font-size="10.00" fill="#000000">LayoutExtension.cpp</text>
</a>
</g>
</g>
<!-- Node8&#45;&gt;Node9 -->
<g id="edge9" class="edge">
<title>Node8&#45;&gt;Node9</title>
<path fill="none" stroke="#191970" d="M518.7104,-104.7884C509.6438,-95.2085 498.6946,-83.6396 491.1261,-75.6427"/>
<polygon fill="#191970" stroke="#191970" points="516.3522,-107.3884 525.7681,-112.2455 521.4363,-102.5767 516.3522,-107.3884"/>
</g>
<!-- Node10 -->
<g id="node10" class="node">
<title>Node10</title>
<g id="a_node10"><a xlink:href="_layout_model_plugin_8cpp.html" target="_top" xlink:title="Implementation of LayoutModelPlugin, the plugin class of layout package for the Model element...">
<polygon fill="#ffffff" stroke="#000000" points="651,-56.5 651,-75.5 745,-75.5 745,-56.5 651,-56.5"/>
<text text-anchor="middle" x="698" y="-63.5" font-family="Helvetica,sans-Serif" font-size="10.00" fill="#000000">LayoutModelPlugin.cpp</text>
</a>
</g>
</g>
<!-- Node8&#45;&gt;Node10 -->
<g id="edge10" class="edge">
<title>Node8&#45;&gt;Node10</title>
<path fill="none" stroke="#191970" d="M572.6733,-109.057C602.5042,-98.8084 643.4852,-84.729 670.3449,-75.5011"/>
<polygon fill="#191970" stroke="#191970" points="571.3409,-105.8139 563.0207,-112.3733 573.6154,-112.4341 571.3409,-105.8139"/>
</g>
<!-- Node8&#45;&gt;Node11 -->
<g id="edge11" class="edge">
<title>Node8&#45;&gt;Node11</title>
<path fill="none" stroke="#191970" d="M551.2896,-104.7884C560.3562,-95.2085 571.3054,-83.6396 578.8739,-75.6427"/>
<polygon fill="#191970" stroke="#191970" points="548.5637,-102.5767 544.2319,-112.2455 553.6478,-107.3884 548.5637,-102.5767"/>
</g>
<!-- Node12 -->
<g id="node12" class="node">
<title>Node12</title>
<g id="a_node12"><a xlink:href="_render_extension_8cpp.html" target="_top" xlink:title="Implementation of RenderExtension, the core module of the render package. ">
<polygon fill="#ffffff" stroke="#000000" points="333,-56.5 333,-75.5 421,-75.5 421,-56.5 333,-56.5"/>
<text text-anchor="middle" x="377" y="-63.5" font-family="Helvetica,sans-Serif" font-size="10.00" fill="#000000">RenderExtension.cpp</text>
</a>
</g>
</g>
<!-- Node8&#45;&gt;Node12 -->
<g id="edge12" class="edge">
<title>Node8&#45;&gt;Node12</title>
<path fill="none" stroke="#191970" d="M498.1045,-108.9231C469.2213,-98.686 429.7294,-84.6889 403.8067,-75.5011"/>
<polygon fill="#191970" stroke="#191970" points="497.2441,-112.3314 507.8388,-112.3733 499.5826,-105.7336 497.2441,-112.3314"/>
</g>
<!-- Node13&#45;&gt;Node9 -->
<g id="edge14" class="edge">
<title>Node13&#45;&gt;Node9</title>
<path fill="none" stroke="#191970" d="M722.2429,-110.6556C671.453,-101.4367 598.0871,-88.0345 534,-76 531.1087,-75.4571 528.1277,-74.8936 525.1247,-74.3233"/>
<polygon fill="#191970" stroke="#191970" points="721.6263,-114.1008 732.0904,-112.4419 722.8757,-107.2132 721.6263,-114.1008"/>
</g>
<!-- Node13&#45;&gt;Node11 -->
<g id="edge16" class="edge">
<title>Node13&#45;&gt;Node11</title>
<path fill="none" stroke="#191970" d="M741.3371,-109.5882C705.1431,-99.2996 654.4506,-84.8895 621.4236,-75.5011"/>
<polygon fill="#191970" stroke="#191970" points="740.5585,-113.0055 751.1345,-112.3733 742.4726,-106.2723 740.5585,-113.0055"/>
</g>
<!-- Node14 -->
<g id="node14" class="node">
<title>Node14</title>
<g id="a_node14"><a xlink:href="_layout_species_reference_plugin_8cpp.html" target="_top" xlink:title="Implementation of LayoutSpeciesReferencePlugin, the plugin object of layout package (Level2) for the ...">
<polygon fill="#ffffff" stroke="#000000" points="763.5,-56.5 763.5,-75.5 898.5,-75.5 898.5,-56.5 763.5,-56.5"/>
<text text-anchor="middle" x="831" y="-63.5" font-family="Helvetica,sans-Serif" font-size="10.00" fill="#000000">LayoutSpeciesReferencePlugin.cpp</text>
</a>
</g>
</g>
<!-- Node13&#45;&gt;Node14 -->
<g id="edge15" class="edge">
<title>Node13&#45;&gt;Node14</title>
<path fill="none" stroke="#191970" d="M799.3747,-104.5004C807.1971,-94.9775 816.576,-83.5596 823.0792,-75.6427"/>
<polygon fill="#191970" stroke="#191970" points="796.6555,-102.2967 793.0126,-112.2455 802.0646,-106.7399 796.6555,-102.2967"/>
</g>
<!-- Node22&#45;&gt;Node10 -->
<g id="edge26" class="edge">
<title>Node22&#45;&gt;Node10</title>
<path fill="none" stroke="#191970" d="M1336.2529,-120.1081C1228.6096,-115.7009 969.5832,-103.0071 754,-76 751.1582,-75.644 748.2416,-75.2403 745.3036,-74.8043"/>
<polygon fill="#191970" stroke="#191970" points="1336.3627,-123.6153 1346.4956,-120.521 1336.6447,-116.621 1336.3627,-123.6153"/>
</g>
<!-- Node22&#45;&gt;Node11 -->
<g id="edge28" class="edge">
<title>Node22&#45;&gt;Node11</title>
<path fill="none" stroke="#191970" d="M1336.4151,-120.9936C1215.7973,-118.1334 901.9476,-107.9745 642,-76 638.9718,-75.6275 635.8569,-75.1919 632.7243,-74.7148"/>
<polygon fill="#191970" stroke="#191970" points="1336.3849,-124.4938 1346.463,-121.2255 1336.5464,-117.4956 1336.3849,-124.4938"/>
</g>
<!-- Node22&#45;&gt;Node14 -->
<g id="edge27" class="edge">
<title>Node22&#45;&gt;Node14</title>
<path fill="none" stroke="#191970" d="M1336.2996,-117.7336C1248.6728,-110.2274 1063.2637,-93.7625 907,-76 904.2232,-75.6844 901.3905,-75.3532 898.5298,-75.0112"/>
<polygon fill="#191970" stroke="#191970" points="1336.231,-121.2404 1346.4925,-118.604 1336.8267,-114.2657 1336.231,-121.2404"/>
</g>
<!-- Node23 -->
<g id="node23" class="node">
<title>Node23</title>
<g id="a_node23"><a xlink:href="_ellipse_8cpp.html" target="_top" xlink:title="Implementation of the Ellipse class. ">
<polygon fill="#ffffff" stroke="#000000" points="916.5,-56.5 916.5,-75.5 969.5,-75.5 969.5,-56.5 916.5,-56.5"/>
<text text-anchor="middle" x="943" y="-63.5" font-family="Helvetica,sans-Serif" font-size="10.00" fill="#000000">Ellipse.cpp</text>
</a>
</g>
</g>
<!-- Node22&#45;&gt;Node23 -->
<g id="edge29" class="edge">
<title>Node22&#45;&gt;Node23</title>
<path fill="none" stroke="#191970" d="M1336.3095,-119.019C1258.6047,-113.8394 1105.6317,-101.2283 978,-76 975.2722,-75.4608 972.4481,-74.8116 969.6415,-74.106"/>
<polygon fill="#191970" stroke="#191970" points="1336.1047,-122.513 1346.3115,-119.6722 1336.5609,-115.5279 1336.1047,-122.513"/>
</g>
<!-- Node24 -->
<g id="node24" class="node">
<title>Node24</title>
<g id="a_node24"><a xlink:href="_global_style_8cpp.html" target="_top" xlink:title="Implementation of the GlobalStyle class. ">
<polygon fill="#ffffff" stroke="#000000" points="987.5,-56.5 987.5,-75.5 1056.5,-75.5 1056.5,-56.5 987.5,-56.5"/>
<text text-anchor="middle" x="1022" y="-63.5" font-family="Helvetica,sans-Serif" font-size="10.00" fill="#000000">GlobalStyle.cpp</text>
</a>
</g>
</g>
<!-- Node22&#45;&gt;Node24 -->
<g id="edge30" class="edge">
<title>Node22&#45;&gt;Node24</title>
<path fill="none" stroke="#191970" d="M1336.2397,-116.1279C1272.6037,-108.45 1160.2971,-93.8533 1065,-76 1062.288,-75.4919 1059.4883,-74.929 1056.6794,-74.3367"/>
<polygon fill="#191970" stroke="#191970" points="1336.0584,-119.6311 1346.4037,-117.3452 1336.8909,-112.6808 1336.0584,-119.6311"/>
</g>
<!-- Node25 -->
<g id="node25" class="node">
<title>Node25</title>
<g id="a_node25"><a xlink:href="_gradient_stop_8cpp.html" target="_top" xlink:title="class representing a stop in a gradient definition ">
<polygon fill="#ffffff" stroke="#000000" points="1074.5,-56.5 1074.5,-75.5 1149.5,-75.5 1149.5,-56.5 1074.5,-56.5"/>
<text text-anchor="middle" x="1112" y="-63.5" font-family="Helvetica,sans-Serif" font-size="10.00" fill="#000000">GradientStop.cpp</text>
</a>
</g>
</g>
<!-- Node22&#45;&gt;Node25 -->
<g id="edge31" class="edge">
<title>Node22&#45;&gt;Node25</title>
<path fill="none" stroke="#191970" d="M1336.134,-111.8973C1289.9073,-102.6781 1219.8385,-88.609 1159,-76 1155.9776,-75.3736 1152.847,-74.7194 1149.7027,-74.0584"/>
<polygon fill="#191970" stroke="#191970" points="1335.7078,-115.3812 1346.199,-113.9032 1337.0759,-108.5161 1335.7078,-115.3812"/>
</g>
<!-- Node26 -->
<g id="node26" class="node">
<title>Node26</title>
<g id="a_node26"><a xlink:href="_image_8cpp.html" target="_top" xlink:title="Implementation of the Image class. ">
<polygon fill="#ffffff" stroke="#000000" points="1168,-56.5 1168,-75.5 1220,-75.5 1220,-56.5 1168,-56.5"/>
<text text-anchor="middle" x="1194" y="-63.5" font-family="Helvetica,sans-Serif" font-size="10.00" fill="#000000">Image.cpp</text>
</a>
</g>
</g>
<!-- Node22&#45;&gt;Node26 -->
<g id="edge32" class="edge">
<title>Node22&#45;&gt;Node26</title>
<path fill="none" stroke="#191970" d="M1344.0707,-109.5438C1306.1503,-98.541 1252.0746,-82.8507 1220.2493,-73.6164"/>
<polygon fill="#191970" stroke="#191970" points="1343.2429,-112.9479 1353.8221,-112.3733 1345.1936,-106.2252 1343.2429,-112.9479"/>
</g>
<!-- Node27 -->
<g id="node27" class="node">
<title>Node27</title>
<g id="a_node27"><a xlink:href="_linear_gradient_8cpp.html" target="_top" xlink:title="Implementation of the LinearGradient class. ">
<polygon fill="#ffffff" stroke="#000000" points="1238,-56.5 1238,-75.5 1318,-75.5 1318,-56.5 1238,-56.5"/>
<text text-anchor="middle" x="1278" y="-63.5" font-family="Helvetica,sans-Serif" font-size="10.00" fill="#000000">LinearGradient.cpp</text>
</a>
</g>
</g>
<!-- Node22&#45;&gt;Node27 -->
<g id="edge33" class="edge">
<title>Node22&#45;&gt;Node27</title>
<path fill="none" stroke="#191970" d="M1358.9658,-107.5971C1339.4254,-97.558 1313.8908,-84.4393 1296.7688,-75.6427"/>
<polygon fill="#191970" stroke="#191970" points="1357.5194,-110.7889 1368.0136,-112.2455 1360.7183,-104.5625 1357.5194,-110.7889"/>
</g>
<!-- Node28 -->
<g id="node28" class="node">
<title>Node28</title>
<g id="a_node28"><a xlink:href="_list_of_curve_elements_8cpp.html" target="_top" xlink:title="storage class for curve elements ">
<polygon fill="#ffffff" stroke="#000000" points="1336,-56.5 1336,-75.5 1438,-75.5 1438,-56.5 1336,-56.5"/>
<text text-anchor="middle" x="1387" y="-63.5" font-family="Helvetica,sans-Serif" font-size="10.00" fill="#000000">ListOfCurveElements.cpp</text>
</a>
</g>
</g>
<!-- Node22&#45;&gt;Node28 -->
<g id="edge34" class="edge">
<title>Node22&#45;&gt;Node28</title>
<path fill="none" stroke="#191970" d="M1387,-102.1575C1387,-93.155 1387,-82.9199 1387,-75.6427"/>
<polygon fill="#191970" stroke="#191970" points="1383.5001,-102.2455 1387,-112.2455 1390.5001,-102.2456 1383.5001,-102.2455"/>
</g>
<!-- Node29 -->
<g id="node29" class="node">
<title>Node29</title>
<g id="a_node29"><a xlink:href="_list_of_gradient_stops_8cpp.html" target="_top" xlink:title="Implementation of the ListOfGradientStops class. ">
<polygon fill="#ffffff" stroke="#000000" points="1456,-56.5 1456,-75.5 1554,-75.5 1554,-56.5 1456,-56.5"/>
<text text-anchor="middle" x="1505" y="-63.5" font-family="Helvetica,sans-Serif" font-size="10.00" fill="#000000">ListOfGradientStops.cpp</text>
</a>
</g>
</g>
<!-- Node22&#45;&gt;Node29 -->
<g id="edge35" class="edge">
<title>Node22&#45;&gt;Node29</title>
<path fill="none" stroke="#191970" d="M1416.5547,-107.9741C1437.9195,-97.8348 1466.2116,-84.408 1484.9798,-75.5011"/>
<polygon fill="#191970" stroke="#191970" points="1414.8186,-104.9238 1407.2849,-112.3733 1417.8198,-111.2478 1414.8186,-104.9238"/>
</g>
<!-- Node30 -->
<g id="node30" class="node">
<title>Node30</title>
<g id="a_node30"><a xlink:href="_local_render_information_8cpp.html" target="_top" xlink:title="Implementation of the LocalRenderInformation class. ">
<polygon fill="#ffffff" stroke="#000000" points="1572.5,-56.5 1572.5,-75.5 1683.5,-75.5 1683.5,-56.5 1572.5,-56.5"/>
<text text-anchor="middle" x="1628" y="-63.5" font-family="Helvetica,sans-Serif" font-size="10.00" fill="#000000">LocalRenderInformation.cpp</text>
</a>
</g>
</g>
<!-- Node22&#45;&gt;Node30 -->
<g id="edge36" class="edge">
<title>Node22&#45;&gt;Node30</title>
<path fill="none" stroke="#191970" d="M1437.5976,-110.2429C1481.9249,-99.9428 1545.5433,-85.1601 1586.8199,-75.5688"/>
<polygon fill="#191970" stroke="#191970" points="1436.5581,-106.8911 1427.6098,-112.5637 1438.1425,-113.7094 1436.5581,-106.8911"/>
</g>
<!-- Node31 -->
<g id="node31" class="node">
<title>Node31</title>
<g id="a_node31"><a xlink:href="_local_style_8cpp.html" target="_top" xlink:title="class for representing a local style ">
<polygon fill="#ffffff" stroke="#000000" points="1701.5,-56.5 1701.5,-75.5 1766.5,-75.5 1766.5,-56.5 1701.5,-56.5"/>
<text text-anchor="middle" x="1734" y="-63.5" font-family="Helvetica,sans-Serif" font-size="10.00" fill="#000000">LocalStyle.cpp</text>
</a>
</g>
</g>
<!-- Node22&#45;&gt;Node31 -->
<g id="edge37" class="edge">
<title>Node22&#45;&gt;Node31</title>
<path fill="none" stroke="#191970" d="M1437.8237,-111.9531C1552.0285,-92.9824 1583.3546,-97.0268 1693,-76 1695.7343,-75.4756 1698.5603,-74.8866 1701.3904,-74.2637"/>
<polygon fill="#191970" stroke="#191970" points="1436.9023,-108.559 1427.6227,-113.6717 1438.0652,-115.4617 1436.9023,-108.559"/>
</g>
<!-- Node32 -->
<g id="node32" class="node">
<title>Node32</title>
<g id="a_node32"><a xlink:href="_polygon_8cpp.html" target="_top" xlink:title="Implementation of the Polygon class. ">
<polygon fill="#ffffff" stroke="#000000" points="1785,-56.5 1785,-75.5 1843,-75.5 1843,-56.5 1785,-56.5"/>
<text text-anchor="middle" x="1814" y="-63.5" font-family="Helvetica,sans-Serif" font-size="10.00" fill="#000000">Polygon.cpp</text>
</a>
</g>
</g>
<!-- Node22&#45;&gt;Node32 -->
<g id="edge38" class="edge">
<title>Node22&#45;&gt;Node32</title>
<path fill="none" stroke="#191970" d="M1437.7007,-112.0335C1588.5538,-89.7115 1630.1783,-102.7703 1776,-76 1778.8181,-75.4827 1781.7343,-74.8659 1784.6406,-74.1963"/>
<polygon fill="#191970" stroke="#191970" points="1436.9704,-108.604 1427.604,-113.5558 1438.0141,-115.5257 1436.9704,-108.604"/>
</g>
<!-- Node33 -->
<g id="node33" class="node">
<title>Node33</title>
<g id="a_node33"><a xlink:href="_radial_gradient_8cpp.html" target="_top" xlink:title="Implementation of the RadialGradient class. ">
<polygon fill="#ffffff" stroke="#000000" points="1861.5,-56.5 1861.5,-75.5 1942.5,-75.5 1942.5,-56.5 1861.5,-56.5"/>
<text text-anchor="middle" x="1902" y="-63.5" font-family="Helvetica,sans-Serif" font-size="10.00" fill="#000000">RadialGradient.cpp</text>
</a>
</g>
</g>
<!-- Node22&#45;&gt;Node33 -->
<g id="edge39" class="edge">
<title>Node22&#45;&gt;Node33</title>
<path fill="none" stroke="#191970" d="M1437.6229,-112.0702C1622.0197,-86.3686 1671.947,-101.734 1852,-76 1855.0672,-75.5616 1858.2303,-75.0562 1861.4058,-74.5102"/>
<polygon fill="#191970" stroke="#191970" points="1437.005,-108.6227 1427.5942,-113.4898 1437.9861,-115.5536 1437.005,-108.6227"/>
</g>
<!-- Node34 -->
<g id="node34" class="node">
<title>Node34</title>
<g id="a_node34"><a xlink:href="_rectangle_8cpp.html" target="_top" xlink:title="Implementation of the Rectangle class. ">
<polygon fill="#ffffff" stroke="#000000" points="1961,-56.5 1961,-75.5 2025,-75.5 2025,-56.5 1961,-56.5"/>
<text text-anchor="middle" x="1993" y="-63.5" font-family="Helvetica,sans-Serif" font-size="10.00" fill="#000000">Rectangle.cpp</text>
</a>
</g>
</g>
<!-- Node22&#45;&gt;Node34 -->
<g id="edge40" class="edge">
<title>Node22&#45;&gt;Node34</title>
<path fill="none" stroke="#191970" d="M1437.5415,-112.1101C1666.1605,-82.2716 1728.4963,-110.8111 1952,-76 1954.8958,-75.549 1957.8876,-74.9948 1960.8748,-74.3806"/>
<polygon fill="#191970" stroke="#191970" points="1437.0384,-108.6461 1427.5863,-113.4323 1437.9601,-115.5851 1437.0384,-108.6461"/>
</g>
<!-- Node35 -->
<g id="node35" class="node">
<title>Node35</title>
<g id="a_node35"><a xlink:href="_render_cubic_bezier_8cpp.html" target="_top" xlink:title="Implementation of the RenderCubicBezier class. ">
<polygon fill="#ffffff" stroke="#000000" points="2043,-56.5 2043,-75.5 2139,-75.5 2139,-56.5 2043,-56.5"/>
<text text-anchor="middle" x="2091" y="-63.5" font-family="Helvetica,sans-Serif" font-size="10.00" fill="#000000">RenderCubicBezier.cpp</text>
</a>
</g>
</g>
<!-- Node22&#45;&gt;Node35 -->
<g id="edge41" class="edge">
<title>Node22&#45;&gt;Node35</title>
<path fill="none" stroke="#191970" d="M1437.8829,-112.0768C1702.4062,-78.5851 1773.352,-106.6225 2034,-76 2036.8937,-75.66 2039.8633,-75.2688 2042.8544,-74.8422"/>
<polygon fill="#191970" stroke="#191970" points="1437.0547,-108.6543 1427.5819,-113.3995 1437.9463,-115.5973 1437.0547,-108.6543"/>
</g>
<!-- Node36 -->
<g id="node36" class="node">
<title>Node36</title>
<g id="a_node36"><a xlink:href="_render_curve_8cpp.html" target="_top" xlink:title="Implementation of the RenderCurve class. ">
<polygon fill="#ffffff" stroke="#000000" points="2157.5,-56.5 2157.5,-75.5 2232.5,-75.5 2232.5,-56.5 2157.5,-56.5"/>
<text text-anchor="middle" x="2195" y="-63.5" font-family="Helvetica,sans-Serif" font-size="10.00" fill="#000000">RenderCurve.cpp</text>
</a>
</g>
</g>
<!-- Node22&#45;&gt;Node36 -->
<g id="edge42" class="edge">
<title>Node22&#45;&gt;Node36</title>
<path fill="none" stroke="#191970" d="M1437.9172,-112.0904C1752.7918,-73.808 1837.6399,-116.6119 2148,-76 2151.0606,-75.5995 2154.2183,-75.1059 2157.381,-74.5544"/>
<polygon fill="#191970" stroke="#191970" points="1437.0737,-108.6678 1427.5777,-113.3664 1437.9312,-115.6151 1437.0737,-108.6678"/>
</g>
<!-- Node37 -->
<g id="node37" class="node">
<title>Node37</title>
<g id="a_node37"><a xlink:href="_render_group_8cpp.html" target="_top" xlink:title="Implementation of the RenderGroup class. ">
<polygon fill="#ffffff" stroke="#000000" points="2251,-56.5 2251,-75.5 2327,-75.5 2327,-56.5 2251,-56.5"/>
<text text-anchor="middle" x="2289" y="-63.5" font-family="Helvetica,sans-Serif" font-size="10.00" fill="#000000">RenderGroup.cpp</text>
</a>
</g>
</g>
<!-- Node22&#45;&gt;Node37 -->
<g id="edge43" class="edge">
<title>Node22&#45;&gt;Node37</title>
<path fill="none" stroke="#191970" d="M1437.6628,-112.13C1794.2861,-69.7247 1890.0522,-120.9984 2242,-76 2244.8963,-75.6297 2247.8791,-75.1737 2250.8707,-74.6624"/>
<polygon fill="#191970" stroke="#191970" points="1437.0844,-108.6743 1427.5752,-113.3461 1437.9223,-115.624 1437.0844,-108.6743"/>
</g>
<!-- Node38 -->
<g id="node38" class="node">
<title>Node38</title>
<g id="a_node38"><a xlink:href="_render_point_8cpp.html" target="_top" xlink:title="Implementation of the RenderPoint class. ">
<polygon fill="#ffffff" stroke="#000000" points="2345,-56.5 2345,-75.5 2417,-75.5 2417,-56.5 2345,-56.5"/>
<text text-anchor="middle" x="2381" y="-63.5" font-family="Helvetica,sans-Serif" font-size="10.00" fill="#000000">RenderPoint.cpp</text>
</a>
</g>
</g>
<!-- Node22&#45;&gt;Node38 -->
<g id="edge44" class="edge">
<title>Node22&#45;&gt;Node38</title>
<path fill="none" stroke="#191970" d="M1437.6339,-112.1406C1835.8315,-65.6794 1942.7561,-127.1501 2336,-76 2338.857,-75.6284 2341.8004,-75.1635 2344.7494,-74.639"/>
<polygon fill="#191970" stroke="#191970" points="1437.0931,-108.68 1427.5733,-113.33 1437.9151,-115.6316 1437.0931,-108.68"/>
</g>
<!-- Node39 -->
<g id="node39" class="node">
<title>Node39</title>
<g id="a_node39"><a xlink:href="_style_8cpp.html" target="_top" xlink:title="Implementation of the Style class. ">
<polygon fill="#ffffff" stroke="#000000" points="2435.5,-56.5 2435.5,-75.5 2482.5,-75.5 2482.5,-56.5 2435.5,-56.5"/>
<text text-anchor="middle" x="2459" y="-63.5" font-family="Helvetica,sans-Serif" font-size="10.00" fill="#000000">Style.cpp</text>
</a>
</g>
</g>
<!-- Node22&#45;&gt;Node39 -->
<g id="edge45" class="edge">
<title>Node22&#45;&gt;Node39</title>
<path fill="none" stroke="#191970" d="M1437.6484,-112.1469C1875.654,-62.0213 1995.4331,-147.8323 2426,-76 2429.0705,-75.4877 2432.2552,-74.771 2435.381,-73.954"/>
<polygon fill="#191970" stroke="#191970" points="1437.1011,-108.6868 1427.5718,-113.3175 1437.9089,-115.6401 1437.1011,-108.6868"/>
</g>
<!-- Node40 -->
<g id="node40" class="node">
<title>Node40</title>
<g id="a_node40"><a xlink:href="_text_8cpp.html" target="_top" xlink:title="Implementation of the Text class. ">
<polygon fill="#ffffff" stroke="#000000" points="2500.5,-56.5 2500.5,-75.5 2545.5,-75.5 2545.5,-56.5 2500.5,-56.5"/>
<text text-anchor="middle" x="2523" y="-63.5" font-family="Helvetica,sans-Serif" font-size="10.00" fill="#000000">Text.cpp</text>
</a>
</g>
</g>
<!-- Node22&#45;&gt;Node40 -->
<g id="edge46" class="edge">
<title>Node22&#45;&gt;Node40</title>
<path fill="none" stroke="#191970" d="M1437.6174,-112.1541C1904.8349,-59.207 2033.1197,-156.2238 2492,-76 2494.7853,-75.5131 2497.6651,-74.8349 2500.4963,-74.0587"/>
<polygon fill="#191970" stroke="#191970" points="1437.1054,-108.6898 1427.5709,-113.3097 1437.9054,-115.644 1437.1054,-108.6898"/>
</g>
</g>
</svg>
