<?xml version="1.0" encoding="UTF-8" standalone="no"?>
<!DOCTYPE svg PUBLIC "-//W3C//DTD SVG 1.1//EN"
 "http://www.w3.org/Graphics/SVG/1.1/DTD/svg11.dtd">
<!-- Generated by graphviz version 2.40.1 (20161225.0304)
 -->
<!-- Title: ListOfGlobalStyles.h Pages: 1 -->
<svg width="666pt" height="364pt"
 viewBox="0.00 0.00 665.50 364.00" xmlns="http://www.w3.org/2000/svg" xmlns:xlink="http://www.w3.org/1999/xlink">
<g id="graph0" class="graph" transform="scale(1 1) rotate(0) translate(4 360)">
<title>ListOfGlobalStyles.h</title>
<polygon fill="#ffffff" stroke="transparent" points="-4,4 -4,-360 661.5,-360 661.5,4 -4,4"/>
<!-- Node1 -->
<g id="node1" class="node">
<title>Node1</title>
<polygon fill="#bfbfbf" stroke="#000000" points="356.5,-336.5 356.5,-355.5 440.5,-355.5 440.5,-336.5 356.5,-336.5"/>
<text text-anchor="middle" x="398.5" y="-343.5" font-family="Helvetica,sans-Serif" font-size="10.00" fill="#000000">ListOfGlobalStyles.h</text>
</g>
<!-- Node2 -->
<g id="node2" class="node">
<title>Node2</title>
<g id="a_node2"><a xlink:href="_render_extension_types_8h.html" target="_top" xlink:title="Definition of RenderExtensionTypes. ">
<polygon fill="#ffffff" stroke="#000000" points="116,-112.5 116,-131.5 217,-131.5 217,-112.5 116,-112.5"/>
<text text-anchor="middle" x="166.5" y="-119.5" font-family="Helvetica,sans-Serif" font-size="10.00" fill="#000000">RenderExtensionTypes.h</text>
</a>
</g>
</g>
<!-- Node1&#45;&gt;Node2 -->
<g id="edge1" class="edge">
<title>Node1&#45;&gt;Node2</title>
<path fill="none" stroke="#191970" d="M346.4691,-336.9255C265.2504,-321.5521 114.4994,-287.7449 84.5,-244 65.3965,-216.1433 67.4305,-197.1474 84.5,-168 94.976,-150.1114 115.2388,-138.6506 132.9998,-131.6426"/>
<polygon fill="#191970" stroke="#191970" points="346.0214,-340.4023 356.4938,-338.7962 347.3055,-333.521 346.0214,-340.4023"/>
</g>
<!-- Node9 -->
<g id="node9" class="node">
<title>Node9</title>
<g id="a_node9"><a xlink:href="_global_render_information_8h.html" target="_top" xlink:title="Definition of the GlobalRenderInformation class. ">
<polygon fill="#ffffff" stroke="#000000" points="239,-280.5 239,-299.5 346,-299.5 346,-280.5 239,-280.5"/>
<text text-anchor="middle" x="292.5" y="-287.5" font-family="Helvetica,sans-Serif" font-size="10.00" fill="#000000">GlobalRenderInformation.h</text>
</a>
</g>
</g>
<!-- Node1&#45;&gt;Node9 -->
<g id="edge10" class="edge">
<title>Node1&#45;&gt;Node9</title>
<path fill="none" stroke="#191970" d="M370.9778,-331.46C352.0092,-321.4388 327.3273,-308.3993 310.7522,-299.6427"/>
<polygon fill="#191970" stroke="#191970" points="369.5593,-334.669 380.0362,-336.2455 372.8292,-328.4796 369.5593,-334.669"/>
</g>
<!-- Node16 -->
<g id="node16" class="node">
<title>Node16</title>
<g id="a_node16"><a xlink:href="_global_style_8cpp.html" target="_top" xlink:title="Implementation of the GlobalStyle class. ">
<polygon fill="#ffffff" stroke="#000000" points="364,-280.5 364,-299.5 433,-299.5 433,-280.5 364,-280.5"/>
<text text-anchor="middle" x="398.5" y="-287.5" font-family="Helvetica,sans-Serif" font-size="10.00" fill="#000000">GlobalStyle.cpp</text>
</a>
</g>
</g>
<!-- Node1&#45;&gt;Node16 -->
<g id="edge27" class="edge">
<title>Node1&#45;&gt;Node16</title>
<path fill="none" stroke="#191970" d="M398.5,-326.1575C398.5,-317.155 398.5,-306.9199 398.5,-299.6427"/>
<polygon fill="#191970" stroke="#191970" points="395.0001,-326.2455 398.5,-336.2455 402.0001,-326.2456 395.0001,-326.2455"/>
</g>
<!-- Node17 -->
<g id="node17" class="node">
<title>Node17</title>
<g id="a_node17"><a xlink:href="_list_of_global_styles_8cpp.html" target="_top" xlink:title="Implementation of the ListOfGlobalStyles class. ">
<polygon fill="#ffffff" stroke="#000000" points="451.5,-280.5 451.5,-299.5 543.5,-299.5 543.5,-280.5 451.5,-280.5"/>
<text text-anchor="middle" x="497.5" y="-287.5" font-family="Helvetica,sans-Serif" font-size="10.00" fill="#000000">ListOfGlobalStyles.cpp</text>
</a>
</g>
</g>
<!-- Node1&#45;&gt;Node17 -->
<g id="edge28" class="edge">
<title>Node1&#45;&gt;Node17</title>
<path fill="none" stroke="#191970" d="M424.9357,-331.0465C442.5508,-321.0824 465.1847,-308.2794 480.4531,-299.6427"/>
<polygon fill="#191970" stroke="#191970" points="422.7253,-328.2756 415.7445,-336.2455 426.1717,-334.3684 422.7253,-328.2756"/>
</g>
<!-- Node18 -->
<g id="node18" class="node">
<title>Node18</title>
<g id="a_node18"><a xlink:href="_style_8cpp.html" target="_top" xlink:title="Implementation of the Style class. ">
<polygon fill="#ffffff" stroke="#000000" points="562,-280.5 562,-299.5 609,-299.5 609,-280.5 562,-280.5"/>
<text text-anchor="middle" x="585.5" y="-287.5" font-family="Helvetica,sans-Serif" font-size="10.00" fill="#000000">Style.cpp</text>
</a>
</g>
</g>
<!-- Node1&#45;&gt;Node18 -->
<g id="edge29" class="edge">
<title>Node1&#45;&gt;Node18</title>
<path fill="none" stroke="#191970" d="M440.2671,-333.5729C471.2523,-324.3419 514.5255,-311.4252 552.5,-300 555.481,-299.1031 558.6125,-298.158 561.7104,-297.2213"/>
<polygon fill="#191970" stroke="#191970" points="439.246,-330.225 430.6611,-336.4339 441.2441,-336.9338 439.246,-330.225"/>
</g>
<!-- Node3 -->
<g id="node3" class="node">
<title>Node3</title>
<g id="a_node3"><a xlink:href="_render_layout_plugin_8cpp.html" target="_top" xlink:title="Implementation of RenderLayoutPlugin, the plugin class of the fbc package for the Model element...">
<polygon fill="#ffffff" stroke="#000000" points="0,-.5 0,-19.5 99,-19.5 99,-.5 0,-.5"/>
<text text-anchor="middle" x="49.5" y="-7.5" font-family="Helvetica,sans-Serif" font-size="10.00" fill="#000000">RenderLayoutPlugin.cpp</text>
</a>
</g>
</g>
<!-- Node2&#45;&gt;Node3 -->
<g id="edge2" class="edge">
<title>Node2&#45;&gt;Node3</title>
<path fill="none" stroke="#191970" d="M106.5137,-109.2349C88.0785,-102.3823 69.5042,-91.9213 57.5,-76 44.9923,-59.4109 46.1185,-33.5208 47.8895,-19.6107"/>
<polygon fill="#191970" stroke="#191970" points="105.5115,-112.5909 116.106,-112.4992 107.7667,-105.9641 105.5115,-112.5909"/>
</g>
<!-- Node4 -->
<g id="node4" class="node">
<title>Node4</title>
<g id="a_node4"><a xlink:href="_render_layout_converter_8cpp.html" target="_top" xlink:title="Simple converter to convert Layout + Render from l2 to L3 and vice versa. ">
<polygon fill="#ffffff" stroke="#000000" points="195,-56.5 195,-75.5 306,-75.5 306,-56.5 195,-56.5"/>
<text text-anchor="middle" x="250.5" y="-63.5" font-family="Helvetica,sans-Serif" font-size="10.00" fill="#000000">RenderLayoutConverter.cpp</text>
</a>
</g>
</g>
<!-- Node2&#45;&gt;Node4 -->
<g id="edge3" class="edge">
<title>Node2&#45;&gt;Node4</title>
<path fill="none" stroke="#191970" d="M189.7649,-106.49C204.5856,-96.6096 223.3209,-84.1194 236.036,-75.6427"/>
<polygon fill="#191970" stroke="#191970" points="187.5107,-103.7863 181.1317,-112.2455 191.3937,-109.6107 187.5107,-103.7863"/>
</g>
<!-- Node5 -->
<g id="node5" class="node">
<title>Node5</title>
<g id="a_node5"><a xlink:href="_render_utilities_8cpp.html" target="_top" xlink:title="implementation of RenderUtilities, a class of utility functions for the render package ...">
<polygon fill="#ffffff" stroke="#000000" points="127,-.5 127,-19.5 206,-19.5 206,-.5 127,-.5"/>
<text text-anchor="middle" x="166.5" y="-7.5" font-family="Helvetica,sans-Serif" font-size="10.00" fill="#000000">RenderUtilities.cpp</text>
</a>
</g>
</g>
<!-- Node2&#45;&gt;Node5 -->
<g id="edge4" class="edge">
<title>Node2&#45;&gt;Node5</title>
<path fill="none" stroke="#191970" d="M166.5,-102.2702C166.5,-77.9985 166.5,-37.7725 166.5,-19.5249"/>
<polygon fill="#191970" stroke="#191970" points="163.0001,-102.4509 166.5,-112.4509 170.0001,-102.451 163.0001,-102.4509"/>
</g>
<!-- Node6 -->
<g id="node6" class="node">
<title>Node6</title>
<g id="a_node6"><a xlink:href="_render_utilities_8h.html" target="_top" xlink:title="Definition of RenderUtilities, a class of utility functions for the render package. ">
<polygon fill="#ffffff" stroke="#000000" points="66.5,-56.5 66.5,-75.5 138.5,-75.5 138.5,-56.5 66.5,-56.5"/>
<text text-anchor="middle" x="102.5" y="-63.5" font-family="Helvetica,sans-Serif" font-size="10.00" fill="#000000">RenderUtilities.h</text>
</a>
</g>
</g>
<!-- Node2&#45;&gt;Node6 -->
<g id="edge5" class="edge">
<title>Node2&#45;&gt;Node6</title>
<path fill="none" stroke="#191970" d="M147.8086,-105.645C136.6781,-95.9058 122.9337,-83.8795 113.5202,-75.6427"/>
<polygon fill="#191970" stroke="#191970" points="145.5215,-108.2945 155.3521,-112.2455 150.131,-103.0264 145.5215,-108.2945"/>
</g>
<!-- Node8 -->
<g id="node8" class="node">
<title>Node8</title>
<g id="a_node8"><a xlink:href="_render_validator_8cpp.html" target="_top" xlink:title="Definition of RenderValidator. ">
<polygon fill="#ffffff" stroke="#000000" points="324,-56.5 324,-75.5 409,-75.5 409,-56.5 324,-56.5"/>
<text text-anchor="middle" x="366.5" y="-63.5" font-family="Helvetica,sans-Serif" font-size="10.00" fill="#000000">RenderValidator.cpp</text>
</a>
</g>
</g>
<!-- Node2&#45;&gt;Node8 -->
<g id="edge9" class="edge">
<title>Node2&#45;&gt;Node8</title>
<path fill="none" stroke="#191970" d="M210.8278,-109.5882C247.573,-99.2996 299.0375,-84.8895 332.5674,-75.5011"/>
<polygon fill="#191970" stroke="#191970" points="209.5671,-106.3065 200.8812,-112.3733 211.4546,-113.0473 209.5671,-106.3065"/>
</g>
<!-- Node6&#45;&gt;Node3 -->
<g id="edge6" class="edge">
<title>Node6&#45;&gt;Node3</title>
<path fill="none" stroke="#191970" d="M86.2104,-48.7884C77.1438,-39.2085 66.1946,-27.6396 58.6261,-19.6427"/>
<polygon fill="#191970" stroke="#191970" points="83.8522,-51.3884 93.2681,-56.2455 88.9363,-46.5767 83.8522,-51.3884"/>
</g>
<!-- Node6&#45;&gt;Node5 -->
<g id="edge8" class="edge">
<title>Node6&#45;&gt;Node5</title>
<path fill="none" stroke="#191970" d="M121.1914,-49.645C132.3219,-39.9058 146.0663,-27.8795 155.4798,-19.6427"/>
<polygon fill="#191970" stroke="#191970" points="118.869,-47.0264 113.6479,-56.2455 123.4785,-52.2945 118.869,-47.0264"/>
</g>
<!-- Node7 -->
<g id="node7" class="node">
<title>Node7</title>
<g id="a_node7"><a xlink:href="_render_list_of_layouts_plugin_8cpp.html" target="_top" xlink:title="Implementation of RenderListOfLayoutsPlugin, the plugin class of the fbc package for the Model elemen...">
<polygon fill="#ffffff" stroke="#000000" points="467.5,-.5 467.5,-19.5 589.5,-19.5 589.5,-.5 467.5,-.5"/>
<text text-anchor="middle" x="528.5" y="-7.5" font-family="Helvetica,sans-Serif" font-size="10.00" fill="#000000">RenderListOfLayoutsPlugin.cpp</text>
</a>
</g>
</g>
<!-- Node6&#45;&gt;Node7 -->
<g id="edge7" class="edge">
<title>Node6&#45;&gt;Node7</title>
<path fill="none" stroke="#191970" d="M149.2073,-59.8601C226.5627,-49.6913 381.2524,-29.3565 467.2592,-18.0504"/>
<polygon fill="#191970" stroke="#191970" points="148.279,-56.4519 138.8205,-61.2255 149.1914,-63.3922 148.279,-56.4519"/>
</g>
<!-- Node9&#45;&gt;Node2 -->
<g id="edge11" class="edge">
<title>Node9&#45;&gt;Node2</title>
<path fill="none" stroke="#191970" d="M228.788,-282.8462C179.5345,-275.8984 117.043,-263.5025 100.5,-244 78.6198,-218.2055 80.441,-197.7692 96.5,-168 105.8206,-150.7221 124.7773,-138.8748 140.615,-131.5353"/>
<polygon fill="#191970" stroke="#191970" points="228.3788,-286.3227 238.7599,-284.2051 229.3241,-279.3868 228.3788,-286.3227"/>
</g>
<!-- Node9&#45;&gt;Node7 -->
<g id="edge12" class="edge">
<title>Node9&#45;&gt;Node7</title>
<path fill="none" stroke="#191970" d="M349.7542,-278.4187C452.4845,-256.8401 657.5,-209.7934 657.5,-178 657.5,-178 657.5,-178 657.5,-122 657.5,-68.4654 593.3696,-34.7438 555.5426,-19.5097"/>
<polygon fill="#191970" stroke="#191970" points="348.9167,-275.0181 339.8432,-280.4882 350.3475,-281.8703 348.9167,-275.0181"/>
</g>
<!-- Node10 -->
<g id="node10" class="node">
<title>Node10</title>
<g id="a_node10"><a xlink:href="_render_list_of_layouts_plugin_8h.html" target="_top" xlink:title="Definition of RenderListOfLayoutsPlugin, the plugin class of fbc package for the Model element...">
<polygon fill="#ffffff" stroke="#000000" points="465.5,-168.5 465.5,-187.5 579.5,-187.5 579.5,-168.5 465.5,-168.5"/>
<text text-anchor="middle" x="522.5" y="-175.5" font-family="Helvetica,sans-Serif" font-size="10.00" fill="#000000">RenderListOfLayoutsPlugin.h</text>
</a>
</g>
</g>
<!-- Node9&#45;&gt;Node10 -->
<g id="edge13" class="edge">
<title>Node9&#45;&gt;Node10</title>
<path fill="none" stroke="#191970" d="M330.2925,-277.0263C353.7777,-268.5355 384.3676,-256.6914 410.5,-244 446.8403,-226.3511 487.1186,-201.1152 508.0607,-187.531"/>
<polygon fill="#191970" stroke="#191970" points="328.9369,-273.7939 320.6961,-280.4527 331.2907,-280.3863 328.9369,-273.7939"/>
</g>
<!-- Node12 -->
<g id="node12" class="node">
<title>Node12</title>
<g id="a_node12"><a xlink:href="_global_render_information_8cpp.html" target="_top" xlink:title="class for the storage of global render information ">
<polygon fill="#ffffff" stroke="#000000" points="105.5,-168.5 105.5,-187.5 219.5,-187.5 219.5,-168.5 105.5,-168.5"/>
<text text-anchor="middle" x="162.5" y="-175.5" font-family="Helvetica,sans-Serif" font-size="10.00" fill="#000000">GlobalRenderInformation.cpp</text>
</a>
</g>
</g>
<!-- Node9&#45;&gt;Node12 -->
<g id="edge18" class="edge">
<title>Node9&#45;&gt;Node12</title>
<path fill="none" stroke="#191970" d="M277.3967,-272.6751C264.9248,-258.8134 246.4227,-239.2418 228.5,-224 212.2213,-210.1563 191.826,-196.4293 178.0494,-187.6243"/>
<polygon fill="#191970" stroke="#191970" points="275.0676,-275.3235 284.3239,-280.4784 280.3025,-270.6764 275.0676,-275.3235"/>
</g>
<!-- Node13 -->
<g id="node13" class="node">
<title>Node13</title>
<g id="a_node13"><a xlink:href="_list_of_global_render_information_8h.html" target="_top" xlink:title="Definition of the ListOfGlobalRenderInformation class. ">
<polygon fill="#ffffff" stroke="#000000" points="275.5,-224.5 275.5,-243.5 401.5,-243.5 401.5,-224.5 275.5,-224.5"/>
<text text-anchor="middle" x="338.5" y="-231.5" font-family="Helvetica,sans-Serif" font-size="10.00" fill="#000000">ListOfGlobalRenderInformation.h</text>
</a>
</g>
</g>
<!-- Node9&#45;&gt;Node13 -->
<g id="edge19" class="edge">
<title>Node9&#45;&gt;Node13</title>
<path fill="none" stroke="#191970" d="M300.9923,-271.9209C307.9436,-262.5176 317.4472,-251.3997 325.3341,-243.6427"/>
<polygon fill="#191970" stroke="#191970" points="298.0464,-270.0276 295.2457,-280.2455 303.8071,-274.0043 298.0464,-270.0276"/>
</g>
<!-- Node15 -->
<g id="node15" class="node">
<title>Node15</title>
<g id="a_node15"><a xlink:href="_render_information_base_8cpp.html" target="_top" xlink:title="Implementation of the RenderInformationBase class. ">
<polygon fill="#ffffff" stroke="#000000" points="109.5,-224.5 109.5,-243.5 219.5,-243.5 219.5,-224.5 109.5,-224.5"/>
<text text-anchor="middle" x="164.5" y="-231.5" font-family="Helvetica,sans-Serif" font-size="10.00" fill="#000000">RenderInformationBase.cpp</text>
</a>
</g>
</g>
<!-- Node9&#45;&gt;Node15 -->
<g id="edge26" class="edge">
<title>Node9&#45;&gt;Node15</title>
<path fill="none" stroke="#191970" d="M261.0652,-276.2473C237.8191,-266.0771 206.7589,-252.4883 186.2169,-243.5011"/>
<polygon fill="#191970" stroke="#191970" points="259.9315,-279.5716 270.496,-280.3733 262.7373,-273.1585 259.9315,-279.5716"/>
</g>
<!-- Node10&#45;&gt;Node2 -->
<g id="edge14" class="edge">
<title>Node10&#45;&gt;Node2</title>
<path fill="none" stroke="#191970" d="M455.3671,-167.4398C386.1337,-156.5491 279.7186,-139.8097 217.2136,-129.9774"/>
<polygon fill="#191970" stroke="#191970" points="454.88,-170.9061 465.3024,-169.0026 455.9678,-163.9911 454.88,-170.9061"/>
</g>
<!-- Node10&#45;&gt;Node5 -->
<g id="edge17" class="edge">
<title>Node10&#45;&gt;Node5</title>
<path fill="none" stroke="#191970" d="M509.6518,-160.1542C487.2665,-129.5695 441.3268,-69.1522 418.5,-56 382.9521,-35.5183 267.7511,-20.6661 206.1735,-13.9674"/>
<polygon fill="#191970" stroke="#191970" points="506.8367,-162.2342 515.5475,-168.2653 512.499,-158.1185 506.8367,-162.2342"/>
</g>
<!-- Node10&#45;&gt;Node7 -->
<g id="edge16" class="edge">
<title>Node10&#45;&gt;Node7</title>
<path fill="none" stroke="#191970" d="M562.6797,-164.1625C577.262,-156.9691 592.1846,-146.5576 600.5,-132 624.5309,-89.9293 568.9399,-40.3623 542.0395,-19.7496"/>
<polygon fill="#191970" stroke="#191970" points="560.8915,-161.1297 553.2191,-168.4362 563.7733,-167.509 560.8915,-161.1297"/>
</g>
<!-- Node11 -->
<g id="node11" class="node">
<title>Node11</title>
<g id="a_node11"><a xlink:href="_render_extension_8cpp.html" target="_top" xlink:title="Implementation of RenderExtension, the core module of the render package. ">
<polygon fill="#ffffff" stroke="#000000" points="503.5,-112.5 503.5,-131.5 591.5,-131.5 591.5,-112.5 503.5,-112.5"/>
<text text-anchor="middle" x="547.5" y="-119.5" font-family="Helvetica,sans-Serif" font-size="10.00" fill="#000000">RenderExtension.cpp</text>
</a>
</g>
</g>
<!-- Node10&#45;&gt;Node11 -->
<g id="edge15" class="edge">
<title>Node10&#45;&gt;Node11</title>
<path fill="none" stroke="#191970" d="M530.9626,-159.0437C535.0745,-149.8331 539.8394,-139.1598 543.1952,-131.6427"/>
<polygon fill="#191970" stroke="#191970" points="527.7352,-157.6874 526.8547,-168.2455 534.1272,-160.541 527.7352,-157.6874"/>
</g>
<!-- Node13&#45;&gt;Node2 -->
<g id="edge20" class="edge">
<title>Node13&#45;&gt;Node2</title>
<path fill="none" stroke="#191970" d="M314.7016,-218.9201C300.6457,-209.9826 282.5218,-198.4045 266.5,-188 235.97,-168.174 200.4502,-144.6121 181.0293,-131.6866"/>
<polygon fill="#191970" stroke="#191970" points="312.97,-221.9666 323.2879,-224.3732 316.7228,-216.0575 312.97,-221.9666"/>
</g>
<!-- Node13&#45;&gt;Node7 -->
<g id="edge21" class="edge">
<title>Node13&#45;&gt;Node7</title>
<path fill="none" stroke="#191970" d="M371.1747,-219.8614C386.7349,-212.0325 404.8734,-201.2014 418.5,-188 473.5526,-134.6654 512.5815,-48.3277 524.6015,-19.6225"/>
<polygon fill="#191970" stroke="#191970" points="369.3698,-216.846 361.8828,-224.3424 372.4105,-223.1512 369.3698,-216.846"/>
</g>
<!-- Node13&#45;&gt;Node9 -->
<g id="edge24" class="edge">
<title>Node13&#45;&gt;Node9</title>
<path fill="none" stroke="#191970" d="M330.1075,-251.9439C323.1808,-261.3308 313.6817,-272.4564 305.7794,-280.2455"/>
<polygon fill="#191970" stroke="#191970" points="333.0351,-253.8638 335.8244,-243.6427 327.2699,-249.8934 333.0351,-253.8638"/>
</g>
<!-- Node13&#45;&gt;Node10 -->
<g id="edge22" class="edge">
<title>Node13&#45;&gt;Node10</title>
<path fill="none" stroke="#191970" d="M379.7157,-221.4561C413.4916,-211.1765 460.5663,-196.8494 491.282,-187.5011"/>
<polygon fill="#191970" stroke="#191970" points="378.6784,-218.1132 370.1307,-224.3733 380.7166,-224.8099 378.6784,-218.1132"/>
</g>
<!-- Node13&#45;&gt;Node12 -->
<g id="edge23" class="edge">
<title>Node13&#45;&gt;Node12</title>
<path fill="none" stroke="#191970" d="M298.6596,-221.3235C266.3827,-211.0536 221.6148,-196.8093 192.3607,-187.5011"/>
<polygon fill="#191970" stroke="#191970" points="297.654,-224.6764 308.2445,-224.3733 299.7765,-218.0059 297.654,-224.6764"/>
</g>
<!-- Node14 -->
<g id="node14" class="node">
<title>Node14</title>
<g id="a_node14"><a xlink:href="_list_of_global_render_information_8cpp.html" target="_top" xlink:title="Implementation of the ListOfGlobalRenderInformation class. ">
<polygon fill="#ffffff" stroke="#000000" points="275.5,-168.5 275.5,-187.5 409.5,-187.5 409.5,-168.5 275.5,-168.5"/>
<text text-anchor="middle" x="342.5" y="-175.5" font-family="Helvetica,sans-Serif" font-size="10.00" fill="#000000">ListOfGlobalRenderInformation.cpp</text>
</a>
</g>
</g>
<!-- Node13&#45;&gt;Node14 -->
<g id="edge25" class="edge">
<title>Node13&#45;&gt;Node14</title>
<path fill="none" stroke="#191970" d="M339.9173,-214.1575C340.5604,-205.155 341.2914,-194.9199 341.8112,-187.6427"/>
<polygon fill="#191970" stroke="#191970" points="336.4182,-214.0216 339.1967,-224.2455 343.4004,-214.5204 336.4182,-214.0216"/>
</g>
</g>
</svg>
