<?xml version="1.0" encoding="UTF-8" standalone="no"?>
<!DOCTYPE svg PUBLIC "-//W3C//DTD SVG 1.1//EN"
 "http://www.w3.org/Graphics/SVG/1.1/DTD/svg11.dtd">
<!-- Generated by graphviz version 2.40.1 (20161225.0304)
 -->
<!-- Title: ListOfGroups.h Pages: 1 -->
<svg width="462pt" height="196pt"
 viewBox="0.00 0.00 461.50 196.00" xmlns="http://www.w3.org/2000/svg" xmlns:xlink="http://www.w3.org/1999/xlink">
<g id="graph0" class="graph" transform="scale(1 1) rotate(0) translate(4 192)">
<title>ListOfGroups.h</title>
<polygon fill="#ffffff" stroke="transparent" points="-4,4 -4,-192 457.5,-192 457.5,4 -4,4"/>
<!-- Node1 -->
<g id="node1" class="node">
<title>Node1</title>
<polygon fill="#bfbfbf" stroke="#000000" points="267.5,-168.5 267.5,-187.5 351.5,-187.5 351.5,-168.5 267.5,-168.5"/>
<text text-anchor="middle" x="309.5" y="-175.5" font-family="Helvetica,sans-Serif" font-size="10.00" fill="#000000">ListOfGroups.h</text>
</g>
<!-- Node2 -->
<g id="node2" class="node">
<title>Node2</title>
<g id="a_node2"><a xlink:href="_groups_model_plugin_8h.html" target="_top" xlink:title="Definition of the GroupsModelPlugin class. ">
<polygon fill="#ffffff" stroke="#000000" points="147,-112.5 147,-131.5 260,-131.5 260,-112.5 147,-112.5"/>
<text text-anchor="middle" x="203.5" y="-119.5" font-family="Helvetica,sans-Serif" font-size="10.00" fill="#000000">GroupsModelPlugin.h</text>
</a>
</g>
</g>
<!-- Node1&#45;&gt;Node2 -->
<g id="edge1" class="edge">
<title>Node1&#45;&gt;Node2</title>
<path fill="none" stroke="#191970" d="M281.9778,-163.46C263.0092,-153.4388 238.3273,-140.3993 221.7522,-131.6427"/>
<polygon fill="#191970" stroke="#191970" points="280.5593,-166.669 291.0362,-168.2455 283.8292,-160.4796 280.5593,-166.669"/>
</g>
<!-- Node7 -->
<g id="node7" class="node">
<title>Node7</title>
<g id="a_node7"><a xlink:href="_group_8cpp.html" target="_top" xlink:title="Implementation of the Group class. ">
<polygon fill="#ffffff" stroke="#000000" points="278,-112.5 278,-131.5 341,-131.5 341,-112.5 278,-112.5"/>
<text text-anchor="middle" x="309.5" y="-119.5" font-family="Helvetica,sans-Serif" font-size="10.00" fill="#000000">Group.cpp</text>
</a>
</g>
</g>
<!-- Node1&#45;&gt;Node7 -->
<g id="edge6" class="edge">
<title>Node1&#45;&gt;Node7</title>
<path fill="none" stroke="#191970" d="M309.5,-158.1575C309.5,-149.155 309.5,-138.9199 309.5,-131.6427"/>
<polygon fill="#191970" stroke="#191970" points="306.0001,-158.2455 309.5,-168.2455 313.0001,-158.2456 306.0001,-158.2455"/>
</g>
<!-- Node8 -->
<g id="node8" class="node">
<title>Node8</title>
<g id="a_node8"><a xlink:href="_list_of_groups_8cpp.html" target="_top" xlink:title="Implementation of the ListOfGroups class. ">
<polygon fill="#ffffff" stroke="#000000" points="359.5,-112.5 359.5,-131.5 453.5,-131.5 453.5,-112.5 359.5,-112.5"/>
<text text-anchor="middle" x="406.5" y="-119.5" font-family="Helvetica,sans-Serif" font-size="10.00" fill="#000000">ListOfGroups.cpp</text>
</a>
</g>
</g>
<!-- Node1&#45;&gt;Node8 -->
<g id="edge7" class="edge">
<title>Node1&#45;&gt;Node8</title>
<path fill="none" stroke="#191970" d="M335.4016,-163.0465C352.6609,-153.0824 374.8376,-140.2794 389.7975,-131.6427"/>
<polygon fill="#191970" stroke="#191970" points="333.3065,-160.2146 326.3961,-168.2455 336.8064,-166.2768 333.3065,-160.2146"/>
</g>
<!-- Node3 -->
<g id="node3" class="node">
<title>Node3</title>
<g id="a_node3"><a xlink:href="_groups_extension_types_8h.html" target="_top" xlink:title="Definition of GroupsExtensionTypes. ">
<polygon fill="#ffffff" stroke="#000000" points="0,-56.5 0,-75.5 129,-75.5 129,-56.5 0,-56.5"/>
<text text-anchor="middle" x="64.5" y="-63.5" font-family="Helvetica,sans-Serif" font-size="10.00" fill="#000000">GroupsExtensionTypes.h</text>
</a>
</g>
</g>
<!-- Node2&#45;&gt;Node3 -->
<g id="edge2" class="edge">
<title>Node2&#45;&gt;Node3</title>
<path fill="none" stroke="#191970" d="M170.0379,-108.5189C144.7231,-98.3201 110.5897,-84.5685 88.0831,-75.5011"/>
<polygon fill="#191970" stroke="#191970" points="169.0216,-111.8827 179.605,-112.3733 171.6374,-105.3899 169.0216,-111.8827"/>
</g>
<!-- Node5 -->
<g id="node5" class="node">
<title>Node5</title>
<g id="a_node5"><a xlink:href="_groups_extension_8cpp.html" target="_top" xlink:title="Implementation of GroupsExtension. ">
<polygon fill="#ffffff" stroke="#000000" points="147.5,-56.5 147.5,-75.5 259.5,-75.5 259.5,-56.5 147.5,-56.5"/>
<text text-anchor="middle" x="203.5" y="-63.5" font-family="Helvetica,sans-Serif" font-size="10.00" fill="#000000">GroupsExtension.cpp</text>
</a>
</g>
</g>
<!-- Node2&#45;&gt;Node5 -->
<g id="edge4" class="edge">
<title>Node2&#45;&gt;Node5</title>
<path fill="none" stroke="#191970" d="M203.5,-102.1575C203.5,-93.155 203.5,-82.9199 203.5,-75.6427"/>
<polygon fill="#191970" stroke="#191970" points="200.0001,-102.2455 203.5,-112.2455 207.0001,-102.2456 200.0001,-102.2455"/>
</g>
<!-- Node6 -->
<g id="node6" class="node">
<title>Node6</title>
<g id="a_node6"><a xlink:href="_groups_model_plugin_8cpp.html" target="_top" xlink:title="Implementation of the GroupsModelPlugin class. ">
<polygon fill="#ffffff" stroke="#000000" points="278,-56.5 278,-75.5 401,-75.5 401,-56.5 278,-56.5"/>
<text text-anchor="middle" x="339.5" y="-63.5" font-family="Helvetica,sans-Serif" font-size="10.00" fill="#000000">GroupsModelPlugin.cpp</text>
</a>
</g>
</g>
<!-- Node2&#45;&gt;Node6 -->
<g id="edge5" class="edge">
<title>Node2&#45;&gt;Node6</title>
<path fill="none" stroke="#191970" d="M236.2399,-108.5189C261.0083,-98.3201 294.405,-84.5685 316.4258,-75.5011"/>
<polygon fill="#191970" stroke="#191970" points="234.7934,-105.3293 226.8792,-112.3733 237.4587,-111.8021 234.7934,-105.3293"/>
</g>
<!-- Node4 -->
<g id="node4" class="node">
<title>Node4</title>
<g id="a_node4"><a xlink:href="_groups_validator_8cpp.html" target="_top" xlink:title="Definition of GroupsValidator. ">
<polygon fill="#ffffff" stroke="#000000" points="10.5,-.5 10.5,-19.5 118.5,-19.5 118.5,-.5 10.5,-.5"/>
<text text-anchor="middle" x="64.5" y="-7.5" font-family="Helvetica,sans-Serif" font-size="10.00" fill="#000000">GroupsValidator.cpp</text>
</a>
</g>
</g>
<!-- Node3&#45;&gt;Node4 -->
<g id="edge3" class="edge">
<title>Node3&#45;&gt;Node4</title>
<path fill="none" stroke="#191970" d="M64.5,-46.1575C64.5,-37.155 64.5,-26.9199 64.5,-19.6427"/>
<polygon fill="#191970" stroke="#191970" points="61.0001,-46.2455 64.5,-56.2455 68.0001,-46.2456 61.0001,-46.2455"/>
</g>
</g>
</svg>
