<?xml version="1.0" encoding="UTF-8" standalone="no"?>
<!DOCTYPE svg PUBLIC "-//W3C//DTD SVG 1.1//EN"
 "http://www.w3.org/Graphics/SVG/1.1/DTD/svg11.dtd">
<!-- Generated by graphviz version 2.40.1 (20161225.0304)
 -->
<!-- Title: ListOfModelDefinitions.h Pages: 1 -->
<svg width="629pt" height="196pt"
 viewBox="0.00 0.00 628.50 196.00" xmlns="http://www.w3.org/2000/svg" xmlns:xlink="http://www.w3.org/1999/xlink">
<g id="graph0" class="graph" transform="scale(1 1) rotate(0) translate(4 192)">
<title>ListOfModelDefinitions.h</title>
<polygon fill="#ffffff" stroke="transparent" points="-4,4 -4,-192 624.5,-192 624.5,4 -4,4"/>
<!-- Node1 -->
<g id="node1" class="node">
<title>Node1</title>
<polygon fill="#bfbfbf" stroke="#000000" points="301.5,-168.5 301.5,-187.5 399.5,-187.5 399.5,-168.5 301.5,-168.5"/>
<text text-anchor="middle" x="350.5" y="-175.5" font-family="Helvetica,sans-Serif" font-size="10.00" fill="#000000">ListOfModelDefinitions.h</text>
</g>
<!-- Node2 -->
<g id="node2" class="node">
<title>Node2</title>
<g id="a_node2"><a xlink:href="_comp_extension_types_8h.html" target="_top" xlink:title="Include all SBML types of Comp extension in a single header file. ">
<polygon fill="#ffffff" stroke="#000000" points="68.5,-56.5 68.5,-75.5 164.5,-75.5 164.5,-56.5 68.5,-56.5"/>
<text text-anchor="middle" x="116.5" y="-63.5" font-family="Helvetica,sans-Serif" font-size="10.00" fill="#000000">CompExtensionTypes.h</text>
</a>
</g>
</g>
<!-- Node1&#45;&gt;Node2 -->
<g id="edge1" class="edge">
<title>Node1&#45;&gt;Node2</title>
<path fill="none" stroke="#191970" d="M305.6837,-165.518C279.3583,-157.4514 245.8026,-145.8781 217.5,-132 183.647,-115.4002 147.4669,-89.5145 128.9686,-75.6078"/>
<polygon fill="#191970" stroke="#191970" points="304.8089,-168.9097 315.3932,-168.4354 306.8233,-162.2058 304.8089,-168.9097"/>
</g>
<!-- Node5 -->
<g id="node5" class="node">
<title>Node5</title>
<g id="a_node5"><a xlink:href="_comp_s_b_m_l_document_plugin_8h.html" target="_top" xlink:title="Definition of CompSBMLDocumentPlugin, the plugin class of comp package for the Model element...">
<polygon fill="#ffffff" stroke="#000000" points="226.5,-112.5 226.5,-131.5 344.5,-131.5 344.5,-112.5 226.5,-112.5"/>
<text text-anchor="middle" x="285.5" y="-119.5" font-family="Helvetica,sans-Serif" font-size="10.00" fill="#000000">CompSBMLDocumentPlugin.h</text>
</a>
</g>
</g>
<!-- Node1&#45;&gt;Node5 -->
<g id="edge4" class="edge">
<title>Node1&#45;&gt;Node5</title>
<path fill="none" stroke="#191970" d="M331.5165,-161.645C320.2121,-151.9058 306.253,-139.8795 296.6924,-131.6427"/>
<polygon fill="#191970" stroke="#191970" points="329.3173,-164.3701 339.1779,-168.2455 333.8862,-159.0668 329.3173,-164.3701"/>
</g>
<!-- Node10 -->
<g id="node10" class="node">
<title>Node10</title>
<g id="a_node10"><a xlink:href="_list_of_model_definitions_8cpp.html" target="_top" xlink:title="ListOfModelDefinitions.cpp">
<polygon fill="#ffffff" stroke="#000000" points="362.5,-112.5 362.5,-131.5 468.5,-131.5 468.5,-112.5 362.5,-112.5"/>
<text text-anchor="middle" x="415.5" y="-119.5" font-family="Helvetica,sans-Serif" font-size="10.00" fill="#000000">ListOfModelDefinitions.cpp</text>
</a>
</g>
</g>
<!-- Node1&#45;&gt;Node10 -->
<g id="edge10" class="edge">
<title>Node1&#45;&gt;Node10</title>
<path fill="none" stroke="#191970" d="M369.4835,-161.645C380.7879,-151.9058 394.747,-139.8795 404.3076,-131.6427"/>
<polygon fill="#191970" stroke="#191970" points="367.1138,-159.0668 361.8221,-168.2455 371.6827,-164.3701 367.1138,-159.0668"/>
</g>
<!-- Node11 -->
<g id="node11" class="node">
<title>Node11</title>
<g id="a_node11"><a xlink:href="_model_definition_8cpp.html" target="_top" xlink:title="Implementation of ModelDefinition, the Subelement derived class of modelDefinitions package...">
<polygon fill="#ffffff" stroke="#000000" points="486.5,-112.5 486.5,-131.5 568.5,-131.5 568.5,-112.5 486.5,-112.5"/>
<text text-anchor="middle" x="527.5" y="-119.5" font-family="Helvetica,sans-Serif" font-size="10.00" fill="#000000">ModelDefinition.cpp</text>
</a>
</g>
</g>
<!-- Node1&#45;&gt;Node11 -->
<g id="edge11" class="edge">
<title>Node1&#45;&gt;Node11</title>
<path fill="none" stroke="#191970" d="M390.5668,-165.3235C423.027,-155.0536 468.0493,-140.8093 497.4697,-131.5011"/>
<polygon fill="#191970" stroke="#191970" points="389.4058,-162.0197 380.9274,-168.3733 391.5174,-168.6937 389.4058,-162.0197"/>
</g>
<!-- Node3 -->
<g id="node3" class="node">
<title>Node3</title>
<g id="a_node3"><a xlink:href="_comp_flattening_converter_8cpp.html" target="_top" xlink:title="Implementation of a first flattening converter. ">
<polygon fill="#ffffff" stroke="#000000" points="0,-.5 0,-19.5 117,-19.5 117,-.5 0,-.5"/>
<text text-anchor="middle" x="58.5" y="-7.5" font-family="Helvetica,sans-Serif" font-size="10.00" fill="#000000">CompFlatteningConverter.cpp</text>
</a>
</g>
</g>
<!-- Node2&#45;&gt;Node3 -->
<g id="edge2" class="edge">
<title>Node2&#45;&gt;Node3</title>
<path fill="none" stroke="#191970" d="M98.9707,-49.0751C88.9917,-39.4402 76.8524,-27.7196 68.4871,-19.6427"/>
<polygon fill="#191970" stroke="#191970" points="96.772,-51.8175 106.3972,-56.2455 101.6342,-46.7817 96.772,-51.8175"/>
</g>
<!-- Node4 -->
<g id="node4" class="node">
<title>Node4</title>
<g id="a_node4"><a xlink:href="_comp_validator_8cpp.html" target="_top" xlink:title="CompValidator.cpp">
<polygon fill="#ffffff" stroke="#000000" points="135.5,-.5 135.5,-19.5 215.5,-19.5 215.5,-.5 135.5,-.5"/>
<text text-anchor="middle" x="175.5" y="-7.5" font-family="Helvetica,sans-Serif" font-size="10.00" fill="#000000">CompValidator.cpp</text>
</a>
</g>
</g>
<!-- Node2&#45;&gt;Node4 -->
<g id="edge3" class="edge">
<title>Node2&#45;&gt;Node4</title>
<path fill="none" stroke="#191970" d="M134.0307,-49.3607C144.2377,-39.6727 156.7469,-27.7995 165.3408,-19.6427"/>
<polygon fill="#191970" stroke="#191970" points="131.6206,-46.8227 126.777,-56.2455 136.4396,-51.8998 131.6206,-46.8227"/>
</g>
<!-- Node5&#45;&gt;Node2 -->
<g id="edge5" class="edge">
<title>Node5&#45;&gt;Node2</title>
<path fill="none" stroke="#191970" d="M246.8427,-109.1905C215.8807,-98.9309 173.1426,-84.7691 145.173,-75.5011"/>
<polygon fill="#191970" stroke="#191970" points="245.8545,-112.5501 256.4479,-112.3733 248.0563,-105.9054 245.8545,-112.5501"/>
</g>
<!-- Node6 -->
<g id="node6" class="node">
<title>Node6</title>
<g id="a_node6"><a xlink:href="_comp_extension_8cpp.html" target="_top" xlink:title="Implementation of CompExtension, the core module of comp package. ">
<polygon fill="#ffffff" stroke="#000000" points="182.5,-56.5 182.5,-75.5 266.5,-75.5 266.5,-56.5 182.5,-56.5"/>
<text text-anchor="middle" x="224.5" y="-63.5" font-family="Helvetica,sans-Serif" font-size="10.00" fill="#000000">CompExtension.cpp</text>
</a>
</g>
</g>
<!-- Node5&#45;&gt;Node6 -->
<g id="edge6" class="edge">
<title>Node5&#45;&gt;Node6</title>
<path fill="none" stroke="#191970" d="M267.3751,-105.3607C256.822,-95.6727 243.8888,-83.7995 235.0036,-75.6427"/>
<polygon fill="#191970" stroke="#191970" points="265.1411,-108.0611 274.8746,-112.2455 269.875,-102.9045 265.1411,-108.0611"/>
</g>
<!-- Node7 -->
<g id="node7" class="node">
<title>Node7</title>
<g id="a_node7"><a xlink:href="_comp_s_b_m_l_document_plugin_8cpp.html" target="_top" xlink:title="Implementation of CompSBMLDocumentPlugin, the plugin class of comp package for the SBase element...">
<polygon fill="#ffffff" stroke="#000000" points="284.5,-56.5 284.5,-75.5 410.5,-75.5 410.5,-56.5 284.5,-56.5"/>
<text text-anchor="middle" x="347.5" y="-63.5" font-family="Helvetica,sans-Serif" font-size="10.00" fill="#000000">CompSBMLDocumentPlugin.cpp</text>
</a>
</g>
</g>
<!-- Node5&#45;&gt;Node7 -->
<g id="edge7" class="edge">
<title>Node5&#45;&gt;Node7</title>
<path fill="none" stroke="#191970" d="M303.9221,-105.3607C314.6481,-95.6727 327.7934,-83.7995 336.8242,-75.6427"/>
<polygon fill="#191970" stroke="#191970" points="301.3746,-102.9453 296.2996,-112.2455 306.0666,-108.14 301.3746,-102.9453"/>
</g>
<!-- Node8 -->
<g id="node8" class="node">
<title>Node8</title>
<g id="a_node8"><a xlink:href="_external_model_definition_8cpp.html" target="_top" xlink:title="Implementation of ExternalModelDefinition, the SBase&#45;derived class of the comp package. ">
<polygon fill="#ffffff" stroke="#000000" points="428.5,-56.5 428.5,-75.5 538.5,-75.5 538.5,-56.5 428.5,-56.5"/>
<text text-anchor="middle" x="483.5" y="-63.5" font-family="Helvetica,sans-Serif" font-size="10.00" fill="#000000">ExternalModelDefinition.cpp</text>
</a>
</g>
</g>
<!-- Node5&#45;&gt;Node8 -->
<g id="edge8" class="edge">
<title>Node5&#45;&gt;Node8</title>
<path fill="none" stroke="#191970" d="M329.3845,-109.5882C365.7623,-99.2996 416.7121,-84.8895 449.9067,-75.5011"/>
<polygon fill="#191970" stroke="#191970" points="328.2074,-106.2838 319.5374,-112.3733 330.1125,-113.0195 328.2074,-106.2838"/>
</g>
<!-- Node9 -->
<g id="node9" class="node">
<title>Node9</title>
<g id="a_node9"><a xlink:href="_submodel_8cpp.html" target="_top" xlink:title="Implementation of Submodel, the SBase&#45;derived class of the comp package. ">
<polygon fill="#ffffff" stroke="#000000" points="556.5,-56.5 556.5,-75.5 620.5,-75.5 620.5,-56.5 556.5,-56.5"/>
<text text-anchor="middle" x="588.5" y="-63.5" font-family="Helvetica,sans-Serif" font-size="10.00" fill="#000000">Submodel.cpp</text>
</a>
</g>
</g>
<!-- Node5&#45;&gt;Node9 -->
<g id="edge9" class="edge">
<title>Node5&#45;&gt;Node9</title>
<path fill="none" stroke="#191970" d="M354.463,-111.1573C407.4349,-102.5232 482.3181,-89.6558 547.5,-76 550.3684,-75.3991 553.3414,-74.7418 556.3163,-74.0604"/>
<polygon fill="#191970" stroke="#191970" points="353.8131,-107.7169 344.5026,-112.773 354.934,-114.6266 353.8131,-107.7169"/>
</g>
</g>
</svg>
