<?xml version="1.0" encoding="UTF-8" standalone="no"?>
<!DOCTYPE svg PUBLIC "-//W3C//DTD SVG 1.1//EN"
 "http://www.w3.org/Graphics/SVG/1.1/DTD/svg11.dtd">
<!-- Generated by graphviz version 2.40.1 (20161225.0304)
 -->
<!-- Title: MathML.h Pages: 1 -->
<svg width="595pt" height="341pt"
 viewBox="0.00 0.00 594.90 341.00" xmlns="http://www.w3.org/2000/svg" xmlns:xlink="http://www.w3.org/1999/xlink">
<g id="graph0" class="graph" transform="scale(1 1) rotate(0) translate(4 337)">
<title>MathML.h</title>
<polygon fill="#ffffff" stroke="transparent" points="-4,4 -4,-337 590.8968,-337 590.8968,4 -4,4"/>
<!-- Node1 -->
<g id="node1" class="node">
<title>Node1</title>
<polygon fill="#bfbfbf" stroke="#000000" points="336.8968,-313.5 336.8968,-332.5 397.8968,-332.5 397.8968,-313.5 336.8968,-313.5"/>
<text text-anchor="middle" x="367.3968" y="-320.5" font-family="Helvetica,sans-Serif" font-size="10.00" fill="#000000">MathML.h</text>
</g>
<!-- Node2 -->
<g id="node2" class="node">
<title>Node2</title>
<g id="a_node2"><a xlink:href="extern_8h.html" target="_top" xlink:title="Definitions of LIBSBML_EXTERN and related things. ">
<polygon fill="#ffffff" stroke="#000000" points="141.3968,-67.5 141.3968,-86.5 259.3968,-86.5 259.3968,-67.5 141.3968,-67.5"/>
<text text-anchor="middle" x="200.3968" y="-74.5" font-family="Helvetica,sans-Serif" font-size="10.00" fill="#000000">sbml/common/extern.h</text>
</a>
</g>
</g>
<!-- Node1&#45;&gt;Node2 -->
<g id="edge1" class="edge">
<title>Node1&#45;&gt;Node2</title>
<path fill="none" stroke="#191970" d="M336.4699,-319.2965C280.5282,-312.2273 165.0239,-295.8266 129.3968,-277 60.7649,-240.7324 35.2478,-225.6561 5.3968,-154 .0985,-141.2817 -3.1543,-133.803 5.3968,-123 21.0493,-103.2255 81.5368,-91.0938 131.044,-84.2913"/>
<polygon fill="#191970" stroke="#191970" points="131.6472,-87.7421 141.1016,-82.9604 130.7289,-80.8025 131.6472,-87.7421"/>
</g>
<!-- Node4 -->
<g id="node4" class="node">
<title>Node4</title>
<g id="a_node4"><a xlink:href="sbmlfwd_8h.html" target="_top" xlink:title="Forward declarations for all opaque C types. ">
<polygon fill="#ffffff" stroke="#000000" points="138.8968,-257.5 138.8968,-276.5 265.8968,-276.5 265.8968,-257.5 138.8968,-257.5"/>
<text text-anchor="middle" x="202.3968" y="-264.5" font-family="Helvetica,sans-Serif" font-size="10.00" fill="#000000">sbml/common/sbmlfwd.h</text>
</a>
</g>
</g>
<!-- Node1&#45;&gt;Node4 -->
<g id="edge3" class="edge">
<title>Node1&#45;&gt;Node4</title>
<path fill="none" stroke="#191970" d="M339.0323,-313.3733C311.7141,-304.1016 270.2172,-290.0178 240.123,-279.804"/>
<polygon fill="#191970" stroke="#191970" points="240.9856,-276.4008 230.3912,-276.5011 238.7358,-283.0294 240.9856,-276.4008"/>
</g>
<!-- Node8 -->
<g id="node8" class="node">
<title>Node8</title>
<polygon fill="#ffffff" stroke="#bfbfbf" points="283.8968,-257.5 283.8968,-276.5 322.8968,-276.5 322.8968,-257.5 283.8968,-257.5"/>
<text text-anchor="middle" x="303.3968" y="-264.5" font-family="Helvetica,sans-Serif" font-size="10.00" fill="#000000">limits</text>
</g>
<!-- Node1&#45;&gt;Node8 -->
<g id="edge10" class="edge">
<title>Node1&#45;&gt;Node8</title>
<path fill="none" stroke="#191970" d="M356.2489,-313.2455C346.8882,-305.0549 333.311,-293.1749 322.2619,-283.5069"/>
<polygon fill="#191970" stroke="#191970" points="324.2476,-280.5937 314.417,-276.6427 319.638,-285.8618 324.2476,-280.5937"/>
</g>
<!-- Node9 -->
<g id="node9" class="node">
<title>Node9</title>
<polygon fill="#ffffff" stroke="#bfbfbf" points="341.3968,-257.5 341.3968,-276.5 393.3968,-276.5 393.3968,-257.5 341.3968,-257.5"/>
<text text-anchor="middle" x="367.3968" y="-264.5" font-family="Helvetica,sans-Serif" font-size="10.00" fill="#000000">iomanip</text>
</g>
<!-- Node1&#45;&gt;Node9 -->
<g id="edge11" class="edge">
<title>Node1&#45;&gt;Node9</title>
<path fill="none" stroke="#191970" d="M367.3968,-313.2455C367.3968,-305.9382 367.3968,-295.6944 367.3968,-286.7046"/>
<polygon fill="#191970" stroke="#191970" points="370.8969,-286.6426 367.3968,-276.6427 363.8969,-286.6427 370.8969,-286.6426"/>
</g>
<!-- Node10 -->
<g id="node10" class="node">
<title>Node10</title>
<polygon fill="#ffffff" stroke="#bfbfbf" points="411.8968,-257.5 411.8968,-276.5 452.8968,-276.5 452.8968,-257.5 411.8968,-257.5"/>
<text text-anchor="middle" x="432.3968" y="-264.5" font-family="Helvetica,sans-Serif" font-size="10.00" fill="#000000">string</text>
</g>
<!-- Node1&#45;&gt;Node10 -->
<g id="edge12" class="edge">
<title>Node1&#45;&gt;Node10</title>
<path fill="none" stroke="#191970" d="M378.719,-313.2455C388.3191,-304.9746 402.286,-292.9416 413.5663,-283.2232"/>
<polygon fill="#191970" stroke="#191970" points="415.9128,-285.8214 421.2044,-276.6427 411.3438,-280.5182 415.9128,-285.8214"/>
</g>
<!-- Node11 -->
<g id="node11" class="node">
<title>Node11</title>
<polygon fill="#ffffff" stroke="#bfbfbf" points="471.3968,-257.5 471.3968,-276.5 523.3968,-276.5 523.3968,-257.5 471.3968,-257.5"/>
<text text-anchor="middle" x="497.3968" y="-264.5" font-family="Helvetica,sans-Serif" font-size="10.00" fill="#000000">sstream</text>
</g>
<!-- Node1&#45;&gt;Node11 -->
<g id="edge13" class="edge">
<title>Node1&#45;&gt;Node11</title>
<path fill="none" stroke="#191970" d="M389.7446,-313.3733C410.8002,-304.3032 442.5464,-290.6279 466.1143,-280.4755"/>
<polygon fill="#191970" stroke="#191970" points="467.5412,-283.6719 475.3407,-276.5011 464.7718,-277.243 467.5412,-283.6719"/>
</g>
<!-- Node12 -->
<g id="node12" class="node">
<title>Node12</title>
<polygon fill="#ffffff" stroke="#bfbfbf" points="541.8968,-257.5 541.8968,-276.5 586.8968,-276.5 586.8968,-257.5 541.8968,-257.5"/>
<text text-anchor="middle" x="564.3968" y="-264.5" font-family="Helvetica,sans-Serif" font-size="10.00" fill="#000000">cstdlib</text>
</g>
<!-- Node1&#45;&gt;Node12 -->
<g id="edge14" class="edge">
<title>Node1&#45;&gt;Node12</title>
<path fill="none" stroke="#191970" d="M398.1926,-314.7209C429.4515,-306.2501 479.4699,-292.5122 531.8864,-277.0877"/>
<polygon fill="#191970" stroke="#191970" points="533.0993,-280.379 541.6977,-274.1888 531.1158,-273.6658 533.0993,-280.379"/>
</g>
<!-- Node3 -->
<g id="node3" class="node">
<title>Node3</title>
<g id="a_node3"><a xlink:href="libsbml-namespace_8h.html" target="_top" xlink:title="Defines C++ namespace of libSBML. ">
<polygon fill="#ffffff" stroke="#000000" points="230.8968,-.5 230.8968,-30.5 343.8968,-30.5 343.8968,-.5 230.8968,-.5"/>
<text text-anchor="start" x="238.8968" y="-18.5" font-family="Helvetica,sans-Serif" font-size="10.00" fill="#000000">sbml/common/libsbml</text>
<text text-anchor="middle" x="287.3968" y="-7.5" font-family="Helvetica,sans-Serif" font-size="10.00" fill="#000000">&#45;namespace.h</text>
</a>
</g>
</g>
<!-- Node2&#45;&gt;Node3 -->
<g id="edge2" class="edge">
<title>Node2&#45;&gt;Node3</title>
<path fill="none" stroke="#191970" d="M213.9906,-67.3906C225.656,-59.1444 242.8827,-46.9669 257.7168,-36.4807"/>
<polygon fill="#191970" stroke="#191970" points="259.9688,-39.175 266.1142,-30.5446 255.9281,-33.459 259.9688,-39.175"/>
</g>
<!-- Node4&#45;&gt;Node3 -->
<g id="edge4" class="edge">
<title>Node4&#45;&gt;Node3</title>
<path fill="none" stroke="#191970" d="M222.4085,-257.3662C236.8424,-249.4623 255.7605,-236.982 267.3968,-221 308.6537,-164.3355 310.6719,-136.4763 301.3968,-67 300.2114,-58.1202 297.9243,-48.6017 295.5369,-40.1936"/>
<polygon fill="#191970" stroke="#191970" points="298.8832,-39.1674 292.6423,-30.6058 292.182,-41.1906 298.8832,-39.1674"/>
</g>
<!-- Node5 -->
<g id="node5" class="node">
<title>Node5</title>
<g id="a_node5"><a xlink:href="libsbml-config_8h.html" target="_top" xlink:title="Decides whether to #include Unix or Windows configuration variables. ">
<polygon fill="#ffffff" stroke="#000000" points="145.8968,-190.5 145.8968,-220.5 258.8968,-220.5 258.8968,-190.5 145.8968,-190.5"/>
<text text-anchor="start" x="153.8968" y="-208.5" font-family="Helvetica,sans-Serif" font-size="10.00" fill="#000000">sbml/common/libsbml</text>
<text text-anchor="middle" x="202.3968" y="-197.5" font-family="Helvetica,sans-Serif" font-size="10.00" fill="#000000">&#45;config.h</text>
</a>
</g>
</g>
<!-- Node4&#45;&gt;Node5 -->
<g id="edge5" class="edge">
<title>Node4&#45;&gt;Node5</title>
<path fill="none" stroke="#191970" d="M202.3968,-257.3906C202.3968,-250.2234 202.3968,-240.0862 202.3968,-230.671"/>
<polygon fill="#191970" stroke="#191970" points="205.8969,-230.5446 202.3968,-220.5446 198.8969,-230.5446 205.8969,-230.5446"/>
</g>
<!-- Node5&#45;&gt;Node3 -->
<g id="edge6" class="edge">
<title>Node5&#45;&gt;Node3</title>
<path fill="none" stroke="#191970" d="M229.9804,-190.455C243.4645,-181.6348 258.6374,-169.2249 267.3968,-154 287.7011,-118.7089 289.9924,-70.2682 289.1533,-41.0191"/>
<polygon fill="#191970" stroke="#191970" points="292.6408,-40.6546 288.7095,-30.8162 285.6475,-40.9589 292.6408,-40.6546"/>
</g>
<!-- Node6 -->
<g id="node6" class="node">
<title>Node6</title>
<g id="a_node6"><a xlink:href="libsbml-config-common_8h.html" target="_top" xlink:title="Configuration variables. ">
<polygon fill="#ffffff" stroke="#000000" points="14.8968,-123.5 14.8968,-153.5 127.8968,-153.5 127.8968,-123.5 14.8968,-123.5"/>
<text text-anchor="start" x="22.8968" y="-141.5" font-family="Helvetica,sans-Serif" font-size="10.00" fill="#000000">sbml/common/libsbml</text>
<text text-anchor="middle" x="71.3968" y="-130.5" font-family="Helvetica,sans-Serif" font-size="10.00" fill="#000000">&#45;config&#45;common.h</text>
</a>
</g>
</g>
<!-- Node5&#45;&gt;Node6 -->
<g id="edge7" class="edge">
<title>Node5&#45;&gt;Node6</title>
<path fill="none" stroke="#191970" d="M172.9979,-190.4639C154.4194,-180.9619 130.2058,-168.5779 110.077,-158.283"/>
<polygon fill="#191970" stroke="#191970" points="111.6478,-155.1552 101.1509,-153.7177 108.4603,-161.3874 111.6478,-155.1552"/>
</g>
<!-- Node7 -->
<g id="node7" class="node">
<title>Node7</title>
<g id="a_node7"><a xlink:href="libsbml-version_8h.html" target="_top" xlink:title="Define libSBML version numbers for access from client software. ">
<polygon fill="#ffffff" stroke="#000000" points="145.8968,-123.5 145.8968,-153.5 258.8968,-153.5 258.8968,-123.5 145.8968,-123.5"/>
<text text-anchor="start" x="153.8968" y="-141.5" font-family="Helvetica,sans-Serif" font-size="10.00" fill="#000000">sbml/common/libsbml</text>
<text text-anchor="middle" x="202.3968" y="-130.5" font-family="Helvetica,sans-Serif" font-size="10.00" fill="#000000">&#45;version.h</text>
</a>
</g>
</g>
<!-- Node5&#45;&gt;Node7 -->
<g id="edge8" class="edge">
<title>Node5&#45;&gt;Node7</title>
<path fill="none" stroke="#191970" d="M202.3968,-190.2967C202.3968,-182.5013 202.3968,-172.7991 202.3968,-163.9064"/>
<polygon fill="#191970" stroke="#191970" points="205.8969,-163.6431 202.3968,-153.6432 198.8969,-163.6432 205.8969,-163.6431"/>
</g>
<!-- Node7&#45;&gt;Node2 -->
<g id="edge9" class="edge">
<title>Node7&#45;&gt;Node2</title>
<path fill="none" stroke="#191970" d="M201.9025,-123.2977C201.6451,-115.3834 201.3271,-105.6043 201.0497,-97.0759"/>
<polygon fill="#191970" stroke="#191970" points="204.5403,-96.7279 200.7171,-86.8469 197.544,-96.9554 204.5403,-96.7279"/>
</g>
</g>
</svg>
