<?xml version="1.0" encoding="UTF-8" standalone="no"?>
<!DOCTYPE svg PUBLIC "-//W3C//DTD SVG 1.1//EN"
 "http://www.w3.org/Graphics/SVG/1.1/DTD/svg11.dtd">
<!-- Generated by graphviz version 2.40.1 (20161225.0304)
 -->
<!-- Title: Member.h Pages: 1 -->
<svg width="398pt" height="364pt"
 viewBox="0.00 0.00 398.00 364.00" xmlns="http://www.w3.org/2000/svg" xmlns:xlink="http://www.w3.org/1999/xlink">
<g id="graph0" class="graph" transform="scale(1 1) rotate(0) translate(4 360)">
<title>Member.h</title>
<polygon fill="#ffffff" stroke="transparent" points="-4,4 -4,-360 394,-360 394,4 -4,4"/>
<!-- Node1 -->
<g id="node1" class="node">
<title>Node1</title>
<polygon fill="#bfbfbf" stroke="#000000" points="160.5,-336.5 160.5,-355.5 210.5,-355.5 210.5,-336.5 160.5,-336.5"/>
<text text-anchor="middle" x="185.5" y="-343.5" font-family="Helvetica,sans-Serif" font-size="10.00" fill="#000000">Member.h</text>
</g>
<!-- Node2 -->
<g id="node2" class="node">
<title>Node2</title>
<g id="a_node2"><a xlink:href="_groups_extension_types_8h.html" target="_top" xlink:title="Definition of GroupsExtensionTypes. ">
<polygon fill="#ffffff" stroke="#000000" points="0,-56.5 0,-75.5 101,-75.5 101,-56.5 0,-56.5"/>
<text text-anchor="middle" x="50.5" y="-63.5" font-family="Helvetica,sans-Serif" font-size="10.00" fill="#000000">GroupsExtensionTypes.h</text>
</a>
</g>
</g>
<!-- Node1&#45;&gt;Node2 -->
<g id="edge1" class="edge">
<title>Node1&#45;&gt;Node2</title>
<path fill="none" stroke="#191970" d="M150.4608,-339.6517C99.905,-328.2435 12.5,-299.1057 12.5,-234 12.5,-234 12.5,-234 12.5,-178 12.5,-138.1657 34.3226,-94.3859 44.893,-75.5166"/>
<polygon fill="#191970" stroke="#191970" points="149.8338,-343.0967 160.3443,-341.7631 151.2962,-336.2511 149.8338,-343.0967"/>
</g>
<!-- Node4 -->
<g id="node4" class="node">
<title>Node4</title>
<g id="a_node4"><a xlink:href="_list_of_members_8h.html" target="_top" xlink:title="Definition of the ListOfMembers class. ">
<polygon fill="#ffffff" stroke="#000000" points="148.5,-280.5 148.5,-299.5 222.5,-299.5 222.5,-280.5 148.5,-280.5"/>
<text text-anchor="middle" x="185.5" y="-287.5" font-family="Helvetica,sans-Serif" font-size="10.00" fill="#000000">ListOfMembers.h</text>
</a>
</g>
</g>
<!-- Node1&#45;&gt;Node4 -->
<g id="edge3" class="edge">
<title>Node1&#45;&gt;Node4</title>
<path fill="none" stroke="#191970" d="M185.5,-326.1575C185.5,-317.155 185.5,-306.9199 185.5,-299.6427"/>
<polygon fill="#191970" stroke="#191970" points="182.0001,-326.2455 185.5,-336.2455 189.0001,-326.2456 182.0001,-326.2455"/>
</g>
<!-- Node13 -->
<g id="node13" class="node">
<title>Node13</title>
<g id="a_node13"><a xlink:href="_member_8cpp.html" target="_top" xlink:title="Implementation of the Member class. ">
<polygon fill="#ffffff" stroke="#000000" points="244.5,-224.5 244.5,-243.5 302.5,-243.5 302.5,-224.5 244.5,-224.5"/>
<text text-anchor="middle" x="273.5" y="-231.5" font-family="Helvetica,sans-Serif" font-size="10.00" fill="#000000">Member.cpp</text>
</a>
</g>
</g>
<!-- Node1&#45;&gt;Node13 -->
<g id="edge17" class="edge">
<title>Node1&#45;&gt;Node13</title>
<path fill="none" stroke="#191970" d="M203.9411,-329.3527C212.7527,-320.9643 223.1676,-310.3874 231.5,-300 246.4572,-281.3541 260.6998,-257.151 268.1408,-243.8449"/>
<polygon fill="#191970" stroke="#191970" points="201.3366,-326.9956 196.4054,-336.3729 206.1081,-332.1175 201.3366,-326.9956"/>
</g>
<!-- Node3 -->
<g id="node3" class="node">
<title>Node3</title>
<g id="a_node3"><a xlink:href="_groups_validator_8cpp.html" target="_top" xlink:title="Definition of GroupsValidator. ">
<polygon fill="#ffffff" stroke="#000000" points="8,-.5 8,-19.5 93,-19.5 93,-.5 8,-.5"/>
<text text-anchor="middle" x="50.5" y="-7.5" font-family="Helvetica,sans-Serif" font-size="10.00" fill="#000000">GroupsValidator.cpp</text>
</a>
</g>
</g>
<!-- Node2&#45;&gt;Node3 -->
<g id="edge2" class="edge">
<title>Node2&#45;&gt;Node3</title>
<path fill="none" stroke="#191970" d="M50.5,-46.1575C50.5,-37.155 50.5,-26.9199 50.5,-19.6427"/>
<polygon fill="#191970" stroke="#191970" points="47.0001,-46.2455 50.5,-56.2455 54.0001,-46.2456 47.0001,-46.2455"/>
</g>
<!-- Node5 -->
<g id="node5" class="node">
<title>Node5</title>
<g id="a_node5"><a xlink:href="_group_8h.html" target="_top" xlink:title="Definition of the Group class. ">
<polygon fill="#ffffff" stroke="#000000" points="82.5,-224.5 82.5,-243.5 126.5,-243.5 126.5,-224.5 82.5,-224.5"/>
<text text-anchor="middle" x="104.5" y="-231.5" font-family="Helvetica,sans-Serif" font-size="10.00" fill="#000000">Group.h</text>
</a>
</g>
</g>
<!-- Node4&#45;&gt;Node5 -->
<g id="edge4" class="edge">
<title>Node4&#45;&gt;Node5</title>
<path fill="none" stroke="#191970" d="M163.066,-274.49C148.7746,-264.6096 130.7084,-252.1194 118.4474,-243.6427"/>
<polygon fill="#191970" stroke="#191970" points="161.1749,-277.4376 171.3909,-280.2455 165.1557,-271.6797 161.1749,-277.4376"/>
</g>
<!-- Node12 -->
<g id="node12" class="node">
<title>Node12</title>
<g id="a_node12"><a xlink:href="_list_of_members_8cpp.html" target="_top" xlink:title="Implementation of the ListOfMembers class. ">
<polygon fill="#ffffff" stroke="#000000" points="144.5,-224.5 144.5,-243.5 226.5,-243.5 226.5,-224.5 144.5,-224.5"/>
<text text-anchor="middle" x="185.5" y="-231.5" font-family="Helvetica,sans-Serif" font-size="10.00" fill="#000000">ListOfMembers.cpp</text>
</a>
</g>
</g>
<!-- Node4&#45;&gt;Node12 -->
<g id="edge15" class="edge">
<title>Node4&#45;&gt;Node12</title>
<path fill="none" stroke="#191970" d="M185.5,-270.1575C185.5,-261.155 185.5,-250.9199 185.5,-243.6427"/>
<polygon fill="#191970" stroke="#191970" points="182.0001,-270.2455 185.5,-280.2455 189.0001,-270.2456 182.0001,-270.2455"/>
</g>
<!-- Node4&#45;&gt;Node13 -->
<g id="edge16" class="edge">
<title>Node4&#45;&gt;Node13</title>
<path fill="none" stroke="#191970" d="M209.4345,-274.769C225.0283,-264.8456 244.901,-252.1994 258.3472,-243.6427"/>
<polygon fill="#191970" stroke="#191970" points="207.386,-271.9239 200.8284,-280.2455 211.1441,-277.8296 207.386,-271.9239"/>
</g>
<!-- Node5&#45;&gt;Node2 -->
<g id="edge5" class="edge">
<title>Node5&#45;&gt;Node2</title>
<path fill="none" stroke="#191970" d="M97.5984,-214.8255C90.3207,-194.3956 78.6622,-161.0597 69.5,-132 63.2614,-112.213 56.7258,-88.8336 53.1791,-75.8863"/>
<polygon fill="#191970" stroke="#191970" points="94.3925,-216.255 101.0579,-224.4904 100.983,-213.8959 94.3925,-216.255"/>
</g>
<!-- Node6 -->
<g id="node6" class="node">
<title>Node6</title>
<g id="a_node6"><a xlink:href="_groups_model_plugin_8h.html" target="_top" xlink:title="Definition of the GroupsModelPlugin class. ">
<polygon fill="#ffffff" stroke="#000000" points="242,-112.5 242,-131.5 331,-131.5 331,-112.5 242,-112.5"/>
<text text-anchor="middle" x="286.5" y="-119.5" font-family="Helvetica,sans-Serif" font-size="10.00" fill="#000000">GroupsModelPlugin.h</text>
</a>
</g>
</g>
<!-- Node5&#45;&gt;Node6 -->
<g id="edge6" class="edge">
<title>Node5&#45;&gt;Node6</title>
<path fill="none" stroke="#191970" d="M136.2141,-222.9146C165.0971,-212.532 205.3336,-197.265 219.5,-188 244.0966,-171.9134 267.228,-145.8192 278.7945,-131.7435"/>
<polygon fill="#191970" stroke="#191970" points="134.7771,-219.711 126.5327,-226.3655 137.1274,-226.3047 134.7771,-219.711"/>
</g>
<!-- Node9 -->
<g id="node9" class="node">
<title>Node9</title>
<g id="a_node9"><a xlink:href="_group_8cpp.html" target="_top" xlink:title="Implementation of the Group class. ">
<polygon fill="#ffffff" stroke="#000000" points="78.5,-112.5 78.5,-131.5 130.5,-131.5 130.5,-112.5 78.5,-112.5"/>
<text text-anchor="middle" x="104.5" y="-119.5" font-family="Helvetica,sans-Serif" font-size="10.00" fill="#000000">Group.cpp</text>
</a>
</g>
</g>
<!-- Node5&#45;&gt;Node9 -->
<g id="edge10" class="edge">
<title>Node5&#45;&gt;Node9</title>
<path fill="none" stroke="#191970" d="M104.5,-214.2702C104.5,-189.9985 104.5,-149.7725 104.5,-131.5249"/>
<polygon fill="#191970" stroke="#191970" points="101.0001,-214.4509 104.5,-224.4509 108.0001,-214.451 101.0001,-214.4509"/>
</g>
<!-- Node10 -->
<g id="node10" class="node">
<title>Node10</title>
<g id="a_node10"><a xlink:href="_list_of_groups_8h.html" target="_top" xlink:title="Definition of the ListOfGroups class. ">
<polygon fill="#ffffff" stroke="#000000" points="143,-168.5 143,-187.5 210,-187.5 210,-168.5 143,-168.5"/>
<text text-anchor="middle" x="176.5" y="-175.5" font-family="Helvetica,sans-Serif" font-size="10.00" fill="#000000">ListOfGroups.h</text>
</a>
</g>
</g>
<!-- Node5&#45;&gt;Node10 -->
<g id="edge11" class="edge">
<title>Node5&#45;&gt;Node10</title>
<path fill="none" stroke="#191970" d="M125.164,-217.928C137.7489,-208.1397 153.4092,-195.9595 164.1023,-187.6427"/>
<polygon fill="#191970" stroke="#191970" points="122.7862,-215.3434 117.0414,-224.2455 127.0838,-220.8688 122.7862,-215.3434"/>
</g>
<!-- Node6&#45;&gt;Node2 -->
<g id="edge7" class="edge">
<title>Node6&#45;&gt;Node2</title>
<path fill="none" stroke="#191970" d="M236.4026,-110.1125C192.9516,-99.8021 130.8802,-85.0733 90.6355,-75.5237"/>
<polygon fill="#191970" stroke="#191970" points="235.6604,-113.5335 246.1983,-112.4369 237.2766,-106.7226 235.6604,-113.5335"/>
</g>
<!-- Node7 -->
<g id="node7" class="node">
<title>Node7</title>
<g id="a_node7"><a xlink:href="_groups_extension_8cpp.html" target="_top" xlink:title="Implementation of GroupsExtension. ">
<polygon fill="#ffffff" stroke="#000000" points="186.5,-56.5 186.5,-75.5 274.5,-75.5 274.5,-56.5 186.5,-56.5"/>
<text text-anchor="middle" x="230.5" y="-63.5" font-family="Helvetica,sans-Serif" font-size="10.00" fill="#000000">GroupsExtension.cpp</text>
</a>
</g>
</g>
<!-- Node6&#45;&gt;Node7 -->
<g id="edge8" class="edge">
<title>Node6&#45;&gt;Node7</title>
<path fill="none" stroke="#191970" d="M269.5751,-105.0751C259.9402,-95.4402 248.2196,-83.7196 240.1427,-75.6427"/>
<polygon fill="#191970" stroke="#191970" points="267.1996,-107.6493 276.7455,-112.2455 272.1493,-102.6996 267.1996,-107.6493"/>
</g>
<!-- Node8 -->
<g id="node8" class="node">
<title>Node8</title>
<g id="a_node8"><a xlink:href="_groups_model_plugin_8cpp.html" target="_top" xlink:title="Implementation of the GroupsModelPlugin class. ">
<polygon fill="#ffffff" stroke="#000000" points="293,-56.5 293,-75.5 390,-75.5 390,-56.5 293,-56.5"/>
<text text-anchor="middle" x="341.5" y="-63.5" font-family="Helvetica,sans-Serif" font-size="10.00" fill="#000000">GroupsModelPlugin.cpp</text>
</a>
</g>
</g>
<!-- Node6&#45;&gt;Node8 -->
<g id="edge9" class="edge">
<title>Node6&#45;&gt;Node8</title>
<path fill="none" stroke="#191970" d="M303.1226,-105.0751C312.5855,-95.4402 324.0969,-83.7196 332.0295,-75.6427"/>
<polygon fill="#191970" stroke="#191970" points="300.5903,-102.6585 296.0803,-112.2455 305.5845,-107.5635 300.5903,-102.6585"/>
</g>
<!-- Node10&#45;&gt;Node6 -->
<g id="edge12" class="edge">
<title>Node10&#45;&gt;Node6</title>
<path fill="none" stroke="#191970" d="M204.7914,-163.5971C224.5111,-153.558 250.28,-140.4393 267.559,-131.6427"/>
<polygon fill="#191970" stroke="#191970" points="202.9843,-160.5896 195.6605,-168.2455 206.1601,-166.8277 202.9843,-160.5896"/>
</g>
<!-- Node10&#45;&gt;Node9 -->
<g id="edge13" class="edge">
<title>Node10&#45;&gt;Node9</title>
<path fill="none" stroke="#191970" d="M155.836,-161.928C143.2511,-152.1397 127.5908,-139.9595 116.8977,-131.6427"/>
<polygon fill="#191970" stroke="#191970" points="153.9162,-164.8688 163.9586,-168.2455 158.2138,-159.3434 153.9162,-164.8688"/>
</g>
<!-- Node11 -->
<g id="node11" class="node">
<title>Node11</title>
<g id="a_node11"><a xlink:href="_list_of_groups_8cpp.html" target="_top" xlink:title="Implementation of the ListOfGroups class. ">
<polygon fill="#ffffff" stroke="#000000" points="149,-112.5 149,-131.5 224,-131.5 224,-112.5 149,-112.5"/>
<text text-anchor="middle" x="186.5" y="-119.5" font-family="Helvetica,sans-Serif" font-size="10.00" fill="#000000">ListOfGroups.cpp</text>
</a>
</g>
</g>
<!-- Node10&#45;&gt;Node11 -->
<g id="edge14" class="edge">
<title>Node10&#45;&gt;Node11</title>
<path fill="none" stroke="#191970" d="M180.0433,-158.1575C181.6509,-149.155 183.4786,-138.9199 184.7781,-131.6427"/>
<polygon fill="#191970" stroke="#191970" points="176.5544,-157.786 178.2419,-168.2455 183.4454,-159.0166 176.5544,-157.786"/>
</g>
</g>
</svg>
