<?xml version="1.0" encoding="UTF-8" standalone="no"?>
<!DOCTYPE svg PUBLIC "-//W3C//DTD SVG 1.1//EN"
 "http://www.w3.org/Graphics/SVG/1.1/DTD/svg11.dtd">
<!-- Generated by graphviz version 2.40.1 (20161225.0304)
 -->
<!-- Title: ModelHistory.h Pages: 1 -->
<svg width="1108pt" height="632pt"
 viewBox="0.00 0.00 1108.00 632.00" xmlns="http://www.w3.org/2000/svg" xmlns:xlink="http://www.w3.org/1999/xlink">
<g id="graph0" class="graph" transform="scale(1 1) rotate(0) translate(4 628)">
<title>ModelHistory.h</title>
<polygon fill="#ffffff" stroke="transparent" points="-4,4 -4,-628 1104,-628 1104,4 -4,4"/>
<!-- Node1 -->
<g id="node1" class="node">
<title>Node1</title>
<polygon fill="#bfbfbf" stroke="#000000" points="225.5,-604.5 225.5,-623.5 308.5,-623.5 308.5,-604.5 225.5,-604.5"/>
<text text-anchor="middle" x="267" y="-611.5" font-family="Helvetica,sans-Serif" font-size="10.00" fill="#000000">ModelHistory.h</text>
</g>
<!-- Node2 -->
<g id="node2" class="node">
<title>Node2</title>
<g id="a_node2"><a xlink:href="extern_8h.html" target="_top" xlink:title="Definitions of LIBSBML_EXTERN and related things. ">
<polygon fill="#ffffff" stroke="#000000" points="123,-67.5 123,-86.5 241,-86.5 241,-67.5 123,-67.5"/>
<text text-anchor="middle" x="182" y="-74.5" font-family="Helvetica,sans-Serif" font-size="10.00" fill="#000000">sbml/common/extern.h</text>
</a>
</g>
</g>
<!-- Node1&#45;&gt;Node2 -->
<g id="edge1" class="edge">
<title>Node1&#45;&gt;Node2</title>
<path fill="none" stroke="#191970" d="M225.2813,-605.5481C150.1875,-589.1283 0,-550.2565 0,-502 0,-502 0,-502 0,-205.5 0,-141.0493 77.1067,-106.0591 130.9435,-89.4834"/>
<polygon fill="#191970" stroke="#191970" points="132.1033,-92.7903 140.7014,-86.5997 130.1194,-86.0773 132.1033,-92.7903"/>
</g>
<!-- Node4 -->
<g id="node4" class="node">
<title>Node4</title>
<g id="a_node4"><a xlink:href="sbmlfwd_8h.html" target="_top" xlink:title="Forward declarations for all opaque C types. ">
<polygon fill="#ffffff" stroke="#000000" points="822.5,-257.5 822.5,-276.5 949.5,-276.5 949.5,-257.5 822.5,-257.5"/>
<text text-anchor="middle" x="886" y="-264.5" font-family="Helvetica,sans-Serif" font-size="10.00" fill="#000000">sbml/common/sbmlfwd.h</text>
</a>
</g>
</g>
<!-- Node1&#45;&gt;Node4 -->
<g id="edge3" class="edge">
<title>Node1&#45;&gt;Node4</title>
<path fill="none" stroke="#191970" d="M308.5936,-612.8396C477.0944,-607.5975 1100,-582.7573 1100,-502 1100,-502 1100,-502 1100,-390 1100,-351.8373 1091.5781,-337.115 1062,-313 1045.061,-299.1896 994.9942,-286.8667 952.5713,-278.4595"/>
<polygon fill="#191970" stroke="#191970" points="953.0201,-274.9814 942.5367,-276.5143 951.6878,-281.8535 953.0201,-274.9814"/>
</g>
<!-- Node8 -->
<g id="node8" class="node">
<title>Node8</title>
<g id="a_node8"><a xlink:href="operation_return_values_8h.html" target="_top" xlink:title="Enumeration of values returned by operations within libSBML. ">
<polygon fill="#ffffff" stroke="#000000" points="105.5,-313.5 105.5,-343.5 258.5,-343.5 258.5,-313.5 105.5,-313.5"/>
<text text-anchor="start" x="113.5" y="-331.5" font-family="Helvetica,sans-Serif" font-size="10.00" fill="#000000">sbml/common/operationReturn</text>
<text text-anchor="middle" x="182" y="-320.5" font-family="Helvetica,sans-Serif" font-size="10.00" fill="#000000">Values.h</text>
</a>
</g>
</g>
<!-- Node1&#45;&gt;Node8 -->
<g id="edge10" class="edge">
<title>Node1&#45;&gt;Node8</title>
<path fill="none" stroke="#191970" d="M225.2625,-608.6623C200.0586,-603.0507 169.8407,-591.5513 154,-568 146.1896,-556.3877 162.6644,-513.9084 163,-512 172.8532,-455.9701 178.1802,-389.3512 180.5185,-353.8118"/>
<polygon fill="#191970" stroke="#191970" points="184.0117,-354.0272 181.1499,-343.8263 177.0257,-353.5854 184.0117,-354.0272"/>
</g>
<!-- Node9 -->
<g id="node9" class="node">
<title>Node9</title>
<g id="a_node9"><a xlink:href="_list_8h.html" target="_top" xlink:title="Simple, generic list utility class. ">
<polygon fill="#ffffff" stroke="#000000" points="74,-492.5 74,-511.5 154,-511.5 154,-492.5 74,-492.5"/>
<text text-anchor="middle" x="114" y="-499.5" font-family="Helvetica,sans-Serif" font-size="10.00" fill="#000000">sbml/util/List.h</text>
</a>
</g>
</g>
<!-- Node1&#45;&gt;Node9 -->
<g id="edge12" class="edge">
<title>Node1&#45;&gt;Node9</title>
<path fill="none" stroke="#191970" d="M225.4008,-606.1591C187.1244,-598.0509 134.3349,-584.3019 121,-568 110.638,-555.3325 109.6192,-536.4054 110.7657,-522.0637"/>
<polygon fill="#191970" stroke="#191970" points="114.2868,-522.1 112.0124,-511.7522 107.3374,-521.2598 114.2868,-522.1"/>
</g>
<!-- Node11 -->
<g id="node11" class="node">
<title>Node11</title>
<g id="a_node11"><a xlink:href="_x_m_l_node_8h.html" target="_top" xlink:title="Class definition of XMLNode, a node in an XML document tree. ">
<polygon fill="#ffffff" stroke="#000000" points="475,-492.5 475,-511.5 587,-511.5 587,-492.5 475,-492.5"/>
<text text-anchor="middle" x="531" y="-499.5" font-family="Helvetica,sans-Serif" font-size="10.00" fill="#000000">sbml/xml/XMLNode.h</text>
</a>
</g>
</g>
<!-- Node1&#45;&gt;Node11 -->
<g id="edge15" class="edge">
<title>Node1&#45;&gt;Node11</title>
<path fill="none" stroke="#191970" d="M308.7011,-610.9244C369.3053,-605.6558 477.6948,-592.9703 507,-568 520.4594,-556.5316 526.3715,-536.8745 528.9679,-521.9879"/>
<polygon fill="#191970" stroke="#191970" points="532.4809,-522.1323 530.3771,-511.7485 525.5463,-521.1778 532.4809,-522.1323"/>
</g>
<!-- Node15 -->
<g id="node15" class="node">
<title>Node15</title>
<polygon fill="#ffffff" stroke="#bfbfbf" points="408.5,-257.5 408.5,-276.5 449.5,-276.5 449.5,-257.5 408.5,-257.5"/>
<text text-anchor="middle" x="429" y="-264.5" font-family="Helvetica,sans-Serif" font-size="10.00" fill="#000000">string</text>
</g>
<!-- Node1&#45;&gt;Node15 -->
<g id="edge51" class="edge">
<title>Node1&#45;&gt;Node15</title>
<path fill="none" stroke="#191970" d="M272.2962,-604.2035C277.2596,-594.941 284.8198,-580.62 291,-568 342.5946,-462.6427 399.6219,-333.9908 420.6364,-286.1287"/>
<polygon fill="#191970" stroke="#191970" points="423.9599,-287.2645 424.7684,-276.7006 417.5486,-284.4546 423.9599,-287.2645"/>
</g>
<!-- Node20 -->
<g id="node20" class="node">
<title>Node20</title>
<g id="a_node20"><a xlink:href="_date_8h.html" target="_top" xlink:title="Date I/O. ">
<polygon fill="#ffffff" stroke="#000000" points="163.5,-548.5 163.5,-567.5 282.5,-567.5 282.5,-548.5 163.5,-548.5"/>
<text text-anchor="middle" x="223" y="-555.5" font-family="Helvetica,sans-Serif" font-size="10.00" fill="#000000">sbml/annotation/Date.h</text>
</a>
</g>
</g>
<!-- Node1&#45;&gt;Node20 -->
<g id="edge37" class="edge">
<title>Node1&#45;&gt;Node20</title>
<path fill="none" stroke="#191970" d="M259.3358,-604.2455C253.1527,-596.3761 244.2937,-585.101 236.8711,-575.6542"/>
<polygon fill="#191970" stroke="#191970" points="239.5068,-573.3435 230.5764,-567.6427 234.0025,-577.6683 239.5068,-573.3435"/>
</g>
<!-- Node21 -->
<g id="node21" class="node">
<title>Node21</title>
<g id="a_node21"><a xlink:href="_model_creator_8h.html" target="_top" xlink:title="ModelCreator I/O. ">
<polygon fill="#ffffff" stroke="#000000" points="339.5,-548.5 339.5,-567.5 498.5,-567.5 498.5,-548.5 339.5,-548.5"/>
<text text-anchor="middle" x="419" y="-555.5" font-family="Helvetica,sans-Serif" font-size="10.00" fill="#000000">sbml/annotation/ModelCreator.h</text>
</a>
</g>
</g>
<!-- Node1&#45;&gt;Node21 -->
<g id="edge44" class="edge">
<title>Node1&#45;&gt;Node21</title>
<path fill="none" stroke="#191970" d="M293.1297,-604.3733C318.0768,-595.1822 355.8592,-581.2624 383.5206,-571.0713"/>
<polygon fill="#191970" stroke="#191970" points="385.0378,-574.2424 393.2112,-567.5011 382.6178,-567.674 385.0378,-574.2424"/>
</g>
<!-- Node3 -->
<g id="node3" class="node">
<title>Node3</title>
<g id="a_node3"><a xlink:href="libsbml-namespace_8h.html" target="_top" xlink:title="Defines C++ namespace of libSBML. ">
<polygon fill="#ffffff" stroke="#000000" points="631.5,-.5 631.5,-30.5 744.5,-30.5 744.5,-.5 631.5,-.5"/>
<text text-anchor="start" x="639.5" y="-18.5" font-family="Helvetica,sans-Serif" font-size="10.00" fill="#000000">sbml/common/libsbml</text>
<text text-anchor="middle" x="688" y="-7.5" font-family="Helvetica,sans-Serif" font-size="10.00" fill="#000000">&#45;namespace.h</text>
</a>
</g>
</g>
<!-- Node2&#45;&gt;Node3 -->
<g id="edge2" class="edge">
<title>Node2&#45;&gt;Node3</title>
<path fill="none" stroke="#191970" d="M241.0349,-69.8248C335.9286,-58.2913 521.805,-35.6996 621.3364,-23.6024"/>
<polygon fill="#191970" stroke="#191970" points="621.7738,-27.0751 631.2784,-22.394 620.9291,-20.1262 621.7738,-27.0751"/>
</g>
<!-- Node4&#45;&gt;Node3 -->
<g id="edge4" class="edge">
<title>Node4&#45;&gt;Node3</title>
<path fill="none" stroke="#191970" d="M880.473,-257.198C863.2032,-227.0109 807.8226,-133.4804 748,-67 738.3412,-56.2662 726.49,-45.6585 715.8788,-36.8854"/>
<polygon fill="#191970" stroke="#191970" points="718.0387,-34.1309 708.0628,-30.5625 713.6361,-39.5731 718.0387,-34.1309"/>
</g>
<!-- Node5 -->
<g id="node5" class="node">
<title>Node5</title>
<g id="a_node5"><a xlink:href="libsbml-config_8h.html" target="_top" xlink:title="Decides whether to #include Unix or Windows configuration variables. ">
<polygon fill="#ffffff" stroke="#000000" points="683.5,-190.5 683.5,-220.5 796.5,-220.5 796.5,-190.5 683.5,-190.5"/>
<text text-anchor="start" x="691.5" y="-208.5" font-family="Helvetica,sans-Serif" font-size="10.00" fill="#000000">sbml/common/libsbml</text>
<text text-anchor="middle" x="740" y="-197.5" font-family="Helvetica,sans-Serif" font-size="10.00" fill="#000000">&#45;config.h</text>
</a>
</g>
</g>
<!-- Node4&#45;&gt;Node5 -->
<g id="edge5" class="edge">
<title>Node4&#45;&gt;Node5</title>
<path fill="none" stroke="#191970" d="M863.1875,-257.3906C842.3304,-248.6049 810.8793,-235.3567 784.9775,-224.446"/>
<polygon fill="#191970" stroke="#191970" points="786.2901,-221.2011 775.7156,-220.5446 783.5727,-227.6522 786.2901,-221.2011"/>
</g>
<!-- Node5&#45;&gt;Node3 -->
<g id="edge6" class="edge">
<title>Node5&#45;&gt;Node3</title>
<path fill="none" stroke="#191970" d="M746.5195,-190.3821C752.8168,-173.6721 760.5163,-146.068 754,-123 744.9479,-90.9549 723.3656,-59.0528 707.3311,-38.4285"/>
<polygon fill="#191970" stroke="#191970" points="710.0387,-36.2102 701.0667,-30.5752 704.5664,-40.5753 710.0387,-36.2102"/>
</g>
<!-- Node6 -->
<g id="node6" class="node">
<title>Node6</title>
<g id="a_node6"><a xlink:href="libsbml-config-common_8h.html" target="_top" xlink:title="Configuration variables. ">
<polygon fill="#ffffff" stroke="#000000" points="631.5,-123.5 631.5,-153.5 744.5,-153.5 744.5,-123.5 631.5,-123.5"/>
<text text-anchor="start" x="639.5" y="-141.5" font-family="Helvetica,sans-Serif" font-size="10.00" fill="#000000">sbml/common/libsbml</text>
<text text-anchor="middle" x="688" y="-130.5" font-family="Helvetica,sans-Serif" font-size="10.00" fill="#000000">&#45;config&#45;common.h</text>
</a>
</g>
</g>
<!-- Node5&#45;&gt;Node6 -->
<g id="edge7" class="edge">
<title>Node5&#45;&gt;Node6</title>
<path fill="none" stroke="#191970" d="M728.2004,-190.2967C721.6184,-181.816 713.2848,-171.0785 705.9141,-161.5817"/>
<polygon fill="#191970" stroke="#191970" points="708.6491,-159.3971 699.7529,-153.6432 703.1192,-163.689 708.6491,-159.3971"/>
</g>
<!-- Node7 -->
<g id="node7" class="node">
<title>Node7</title>
<g id="a_node7"><a xlink:href="libsbml-version_8h.html" target="_top" xlink:title="Define libSBML version numbers for access from client software. ">
<polygon fill="#ffffff" stroke="#000000" points="430.5,-123.5 430.5,-153.5 543.5,-153.5 543.5,-123.5 430.5,-123.5"/>
<text text-anchor="start" x="438.5" y="-141.5" font-family="Helvetica,sans-Serif" font-size="10.00" fill="#000000">sbml/common/libsbml</text>
<text text-anchor="middle" x="487" y="-130.5" font-family="Helvetica,sans-Serif" font-size="10.00" fill="#000000">&#45;version.h</text>
</a>
</g>
</g>
<!-- Node5&#45;&gt;Node7 -->
<g id="edge8" class="edge">
<title>Node5&#45;&gt;Node7</title>
<path fill="none" stroke="#191970" d="M683.2219,-190.4639C644.7286,-180.27 593.7096,-166.7591 553.3433,-156.0692"/>
<polygon fill="#191970" stroke="#191970" points="554.1514,-152.6626 543.5886,-153.4859 552.3594,-159.4293 554.1514,-152.6626"/>
</g>
<!-- Node7&#45;&gt;Node2 -->
<g id="edge9" class="edge">
<title>Node7&#45;&gt;Node2</title>
<path fill="none" stroke="#191970" d="M430.3466,-127.0765C375.8546,-116.0887 293.9052,-99.5645 239.2228,-88.5384"/>
<polygon fill="#191970" stroke="#191970" points="239.837,-85.0919 229.3425,-86.5461 238.4534,-91.9537 239.837,-85.0919"/>
</g>
<!-- Node8&#45;&gt;Node2 -->
<g id="edge11" class="edge">
<title>Node8&#45;&gt;Node2</title>
<path fill="none" stroke="#191970" d="M182,-313.1461C182,-269.6045 182,-145.3499 182,-96.7895"/>
<polygon fill="#191970" stroke="#191970" points="185.5001,-96.6504 182,-86.6505 178.5001,-96.6505 185.5001,-96.6504"/>
</g>
<!-- Node9&#45;&gt;Node2 -->
<g id="edge13" class="edge">
<title>Node9&#45;&gt;Node2</title>
<path fill="none" stroke="#191970" d="M108.393,-492.4834C97.8226,-473.6141 76,-429.8343 76,-390 76,-390 76,-390 76,-205.5 76,-154.9626 125.3924,-113.544 156.745,-92.3435"/>
<polygon fill="#191970" stroke="#191970" points="158.9784,-95.0653 165.4375,-86.667 155.151,-89.2043 158.9784,-95.0653"/>
</g>
<!-- Node10 -->
<g id="node10" class="node">
<title>Node10</title>
<polygon fill="#ffffff" stroke="#bfbfbf" points="104.5,-436.5 104.5,-455.5 153.5,-455.5 153.5,-436.5 104.5,-436.5"/>
<text text-anchor="middle" x="129" y="-443.5" font-family="Helvetica,sans-Serif" font-size="10.00" fill="#000000">string.h</text>
</g>
<!-- Node9&#45;&gt;Node10 -->
<g id="edge14" class="edge">
<title>Node9&#45;&gt;Node10</title>
<path fill="none" stroke="#191970" d="M116.6128,-492.2455C118.5916,-484.8579 121.3744,-474.4689 123.8012,-465.4087"/>
<polygon fill="#191970" stroke="#191970" points="127.2105,-466.2078 126.4171,-455.6427 120.4489,-464.3966 127.2105,-466.2078"/>
</g>
<!-- Node11&#45;&gt;Node4 -->
<g id="edge34" class="edge">
<title>Node11&#45;&gt;Node4</title>
<path fill="none" stroke="#191970" d="M587.1696,-494.8748C632.9915,-488.0114 698.9179,-475.7178 754,-456 854.6986,-419.9529 911.7028,-435.5523 967,-344 974.1232,-332.2065 973.9313,-324.9073 967,-313 958.3761,-298.185 943.0066,-287.752 927.9562,-280.6123"/>
<polygon fill="#191970" stroke="#191970" points="929.2559,-277.3609 918.6897,-276.5826 926.4644,-283.7802 929.2559,-277.3609"/>
</g>
<!-- Node12 -->
<g id="node12" class="node">
<title>Node12</title>
<g id="a_node12"><a xlink:href="_x_m_l_extern_8h.html" target="_top" xlink:title="Defines LIBLAX_EXTERN. ">
<polygon fill="#ffffff" stroke="#000000" points="544.5,-257.5 544.5,-276.5 661.5,-276.5 661.5,-257.5 544.5,-257.5"/>
<text text-anchor="middle" x="603" y="-264.5" font-family="Helvetica,sans-Serif" font-size="10.00" fill="#000000">sbml/xml/XMLExtern.h</text>
</a>
</g>
</g>
<!-- Node11&#45;&gt;Node12 -->
<g id="edge16" class="edge">
<title>Node11&#45;&gt;Node12</title>
<path fill="none" stroke="#191970" d="M523.0188,-492.3995C513.4995,-479.7614 499.5181,-456.7157 505,-436 521.0407,-375.3835 565.0229,-314.1796 588.224,-284.8498"/>
<polygon fill="#191970" stroke="#191970" points="591.1555,-286.7899 594.7032,-276.8067 585.7042,-282.3986 591.1555,-286.7899"/>
</g>
<!-- Node13 -->
<g id="node13" class="node">
<title>Node13</title>
<g id="a_node13"><a xlink:href="_x_m_l_token_8h.html" target="_top" xlink:title="A unit of XML syntax, either an XML element or text. ">
<polygon fill="#ffffff" stroke="#000000" points="577.5,-436.5 577.5,-455.5 692.5,-455.5 692.5,-436.5 577.5,-436.5"/>
<text text-anchor="middle" x="635" y="-443.5" font-family="Helvetica,sans-Serif" font-size="10.00" fill="#000000">sbml/xml/XMLToken.h</text>
</a>
</g>
</g>
<!-- Node11&#45;&gt;Node13 -->
<g id="edge18" class="edge">
<title>Node11&#45;&gt;Node13</title>
<path fill="none" stroke="#191970" d="M549.1154,-492.2455C565.445,-483.4527 589.671,-470.4079 608.2339,-460.4125"/>
<polygon fill="#191970" stroke="#191970" points="609.9468,-463.4654 617.0922,-455.6427 606.6281,-457.3021 609.9468,-463.4654"/>
</g>
<!-- Node16 -->
<g id="node16" class="node">
<title>Node16</title>
<polygon fill="#ffffff" stroke="#bfbfbf" points="914,-319 914,-338 958,-338 958,-319 914,-319"/>
<text text-anchor="middle" x="936" y="-326" font-family="Helvetica,sans-Serif" font-size="10.00" fill="#000000">vector</text>
</g>
<!-- Node11&#45;&gt;Node16 -->
<g id="edge35" class="edge">
<title>Node11&#45;&gt;Node16</title>
<path fill="none" stroke="#191970" d="M587.0185,-492.6826C625.1066,-485.2954 676.1628,-473.3098 719,-456 764.7977,-437.494 772.4036,-425.009 815,-400 848.3981,-380.3914 886.8959,-357.6124 911.3309,-343.1321"/>
<polygon fill="#191970" stroke="#191970" points="913.1498,-346.1226 919.9674,-338.0126 909.5804,-340.1011 913.1498,-346.1226"/>
</g>
<!-- Node19 -->
<g id="node19" class="node">
<title>Node19</title>
<polygon fill="#ffffff" stroke="#bfbfbf" points="514.5,-436.5 514.5,-455.5 559.5,-455.5 559.5,-436.5 514.5,-436.5"/>
<text text-anchor="middle" x="537" y="-443.5" font-family="Helvetica,sans-Serif" font-size="10.00" fill="#000000">cstdlib</text>
</g>
<!-- Node11&#45;&gt;Node19 -->
<g id="edge36" class="edge">
<title>Node11&#45;&gt;Node19</title>
<path fill="none" stroke="#191970" d="M532.0451,-492.2455C532.828,-484.9382 533.9256,-474.6944 534.8888,-465.7046"/>
<polygon fill="#191970" stroke="#191970" points="538.3815,-465.9587 535.9669,-455.6427 531.4214,-465.2129 538.3815,-465.9587"/>
</g>
<!-- Node12&#45;&gt;Node3 -->
<g id="edge17" class="edge">
<title>Node12&#45;&gt;Node3</title>
<path fill="none" stroke="#191970" d="M602.9052,-257.2428C602.9663,-233.5232 604.8853,-171.2441 622,-123 633.0836,-91.7567 654.1362,-59.8753 669.4929,-39.0346"/>
<polygon fill="#191970" stroke="#191970" points="672.4636,-40.9077 675.68,-30.8128 666.8704,-36.6986 672.4636,-40.9077"/>
</g>
<!-- Node13&#45;&gt;Node4 -->
<g id="edge32" class="edge">
<title>Node13&#45;&gt;Node4</title>
<path fill="none" stroke="#191970" d="M684.7656,-436.486C735.7091,-424.0986 813.4102,-397.3904 857,-344 870.6527,-327.2777 878.2924,-303.4649 882.2606,-286.7607"/>
<polygon fill="#191970" stroke="#191970" points="885.7847,-287.0169 884.45,-276.5065 878.939,-285.5552 885.7847,-287.0169"/>
</g>
<!-- Node13&#45;&gt;Node12 -->
<g id="edge19" class="edge">
<title>Node13&#45;&gt;Node12</title>
<path fill="none" stroke="#191970" d="M627.7155,-436.2495C615.2114,-418.8339 590.1286,-380.753 581,-344 577.6788,-330.6285 577.9522,-326.4365 581,-313 583.144,-303.548 587.478,-293.7672 591.7367,-285.6675"/>
<polygon fill="#191970" stroke="#191970" points="594.8961,-287.1895 596.7417,-276.7567 588.7929,-283.7615 594.8961,-287.1895"/>
</g>
<!-- Node13&#45;&gt;Node13 -->
<g id="edge31" class="edge">
<title>Node13&#45;&gt;Node13</title>
<path fill="none" stroke="#191970" d="M667.2009,-455.5252C689.0805,-458.3079 710.5,-455.1328 710.5,-446 710.5,-438.2942 695.2512,-434.8298 677.3433,-435.6068"/>
<polygon fill="#191970" stroke="#191970" points="676.866,-432.1347 667.2009,-436.4748 677.4629,-439.1092 676.866,-432.1347"/>
</g>
<!-- Node14 -->
<g id="node14" class="node">
<title>Node14</title>
<g id="a_node14"><a xlink:href="_x_m_l_attributes_8h.html" target="_top" xlink:title="XMLAttributes are a list of name/value pairs for XML elements. ">
<polygon fill="#ffffff" stroke="#000000" points="629,-380.5 629,-399.5 759,-399.5 759,-380.5 629,-380.5"/>
<text text-anchor="middle" x="694" y="-387.5" font-family="Helvetica,sans-Serif" font-size="10.00" fill="#000000">sbml/xml/XMLAttributes.h</text>
</a>
</g>
</g>
<!-- Node13&#45;&gt;Node14 -->
<g id="edge20" class="edge">
<title>Node13&#45;&gt;Node14</title>
<path fill="none" stroke="#191970" d="M645.277,-436.2455C653.8218,-428.1352 666.1778,-416.4075 676.3085,-406.7919"/>
<polygon fill="#191970" stroke="#191970" points="678.9972,-409.0655 683.8408,-399.6427 674.1782,-403.9884 678.9972,-409.0655"/>
</g>
<!-- Node13&#45;&gt;Node15 -->
<g id="edge33" class="edge">
<title>Node13&#45;&gt;Node15</title>
<path fill="none" stroke="#191970" d="M623.2015,-436.2908C601.421,-418.3151 553.514,-378.5328 514,-344 490.5502,-323.5063 464.0259,-299.3122 446.9372,-283.5891"/>
<polygon fill="#191970" stroke="#191970" points="449.0856,-280.8093 439.3609,-276.6043 444.3408,-285.9559 449.0856,-280.8093"/>
</g>
<!-- Node14&#45;&gt;Node4 -->
<g id="edge22" class="edge">
<title>Node14&#45;&gt;Node4</title>
<path fill="none" stroke="#191970" d="M744.5645,-380.4525C771.4985,-373.563 804.1087,-362.186 829,-344 850.1056,-328.5799 866.7793,-303.0739 876.5086,-285.6765"/>
<polygon fill="#191970" stroke="#191970" points="879.7828,-286.9761 881.4156,-276.5078 873.6111,-283.673 879.7828,-286.9761"/>
</g>
<!-- Node14&#45;&gt;Node8 -->
<g id="edge23" class="edge">
<title>Node14&#45;&gt;Node8</title>
<path fill="none" stroke="#191970" d="M628.895,-382.1798C537.4042,-371.1902 370.6029,-351.1545 268.6929,-338.9133"/>
<polygon fill="#191970" stroke="#191970" points="269.0793,-335.4346 258.7332,-337.717 268.2444,-342.3847 269.0793,-335.4346"/>
</g>
<!-- Node14&#45;&gt;Node12 -->
<g id="edge21" class="edge">
<title>Node14&#45;&gt;Node12</title>
<path fill="none" stroke="#191970" d="M700.7843,-380.1488C710.556,-364.6188 725.9641,-334.0497 712,-313 701.5095,-297.1864 684.3939,-286.7957 666.8016,-279.9732"/>
<polygon fill="#191970" stroke="#191970" points="667.6129,-276.5486 657.018,-276.5383 665.2939,-283.1534 667.6129,-276.5486"/>
</g>
<!-- Node14&#45;&gt;Node15 -->
<g id="edge24" class="edge">
<title>Node14&#45;&gt;Node15</title>
<path fill="none" stroke="#191970" d="M668.6135,-380.3557C645.5436,-371.429 610.6803,-357.5311 581,-344 536.5531,-323.7368 486.2032,-297.5772 456.0585,-281.5588"/>
<polygon fill="#191970" stroke="#191970" points="457.4849,-278.3529 447.0144,-276.7347 454.1905,-284.5292 457.4849,-278.3529"/>
</g>
<!-- Node14&#45;&gt;Node16 -->
<g id="edge25" class="edge">
<title>Node14&#45;&gt;Node16</title>
<path fill="none" stroke="#191970" d="M731.547,-380.4581C778.966,-368.4074 859.7246,-347.884 904.2295,-336.5739"/>
<polygon fill="#191970" stroke="#191970" points="905.1069,-339.9623 913.9368,-334.107 903.3827,-333.1779 905.1069,-339.9623"/>
</g>
<!-- Node17 -->
<g id="node17" class="node">
<title>Node17</title>
<polygon fill="#ffffff" stroke="#bfbfbf" points="760.5,-319 760.5,-338 819.5,-338 819.5,-319 760.5,-319"/>
<text text-anchor="middle" x="790" y="-326" font-family="Helvetica,sans-Serif" font-size="10.00" fill="#000000">stdexcept</text>
</g>
<!-- Node14&#45;&gt;Node17 -->
<g id="edge26" class="edge">
<title>Node14&#45;&gt;Node17</title>
<path fill="none" stroke="#191970" d="M709,-380.3906C724.3581,-370.5519 748.4521,-355.1167 766.3745,-343.6351"/>
<polygon fill="#191970" stroke="#191970" points="768.573,-346.3833 775.1053,-338.0419 764.797,-340.4891 768.573,-346.3833"/>
</g>
<!-- Node18 -->
<g id="node18" class="node">
<title>Node18</title>
<g id="a_node18"><a xlink:href="_x_m_l_triple_8h.html" target="_top" xlink:title="Stores an XML namespace triple. ">
<polygon fill="#ffffff" stroke="#000000" points="590.5,-319 590.5,-338 703.5,-338 703.5,-319 590.5,-319"/>
<text text-anchor="middle" x="647" y="-326" font-family="Helvetica,sans-Serif" font-size="10.00" fill="#000000">sbml/xml/XMLTriple.h</text>
</a>
</g>
</g>
<!-- Node14&#45;&gt;Node18 -->
<g id="edge27" class="edge">
<title>Node14&#45;&gt;Node18</title>
<path fill="none" stroke="#191970" d="M686.6563,-380.3906C679.7298,-371.3273 669.174,-357.5149 660.694,-346.4188"/>
<polygon fill="#191970" stroke="#191970" points="663.3003,-344.065 654.4473,-338.2449 657.7385,-348.3155 663.3003,-344.065"/>
</g>
<!-- Node18&#45;&gt;Node4 -->
<g id="edge29" class="edge">
<title>Node18&#45;&gt;Node4</title>
<path fill="none" stroke="#191970" d="M684.0815,-318.9581C725.7698,-308.2308 793.5497,-290.7895 838.9384,-279.11"/>
<polygon fill="#191970" stroke="#191970" points="840.0192,-282.446 848.8315,-276.5643 838.2747,-275.6668 840.0192,-282.446"/>
</g>
<!-- Node18&#45;&gt;Node12 -->
<g id="edge28" class="edge">
<title>Node18&#45;&gt;Node12</title>
<path fill="none" stroke="#191970" d="M640.125,-318.8906C633.6407,-309.8273 623.7586,-296.0149 615.8199,-284.9188"/>
<polygon fill="#191970" stroke="#191970" points="618.6371,-282.8412 609.9719,-276.7449 612.9441,-286.9143 618.6371,-282.8412"/>
</g>
<!-- Node18&#45;&gt;Node15 -->
<g id="edge30" class="edge">
<title>Node18&#45;&gt;Node15</title>
<path fill="none" stroke="#191970" d="M612.9375,-318.8906C570.8558,-307.019 499.8914,-286.9992 459.515,-275.6086"/>
<polygon fill="#191970" stroke="#191970" points="460.2801,-272.1879 449.7054,-272.8412 458.3795,-278.9249 460.2801,-272.1879"/>
</g>
<!-- Node20&#45;&gt;Node2 -->
<g id="edge38" class="edge">
<title>Node20&#45;&gt;Node2</title>
<path fill="none" stroke="#191970" d="M173.1547,-548.4155C133.1217,-539.8419 81.0317,-526.4308 65,-512 41.4444,-490.7967 38,-477.693 38,-446 38,-446 38,-446 38,-205.5 38,-147.5597 103.7026,-109.2636 146.3467,-90.5095"/>
<polygon fill="#191970" stroke="#191970" points="147.7488,-93.7167 155.5882,-86.5897 145.0154,-87.2725 147.7488,-93.7167"/>
</g>
<!-- Node20&#45;&gt;Node4 -->
<g id="edge39" class="edge">
<title>Node20&#45;&gt;Node4</title>
<path fill="none" stroke="#191970" d="M282.5508,-551.239C468.1845,-529.9675 1024,-464.7147 1024,-446 1024,-446 1024,-446 1024,-390 1024,-351.2287 1011.0449,-339.7711 983,-313 967.6162,-298.3149 946.6744,-287.5818 928.186,-280.1953"/>
<polygon fill="#191970" stroke="#191970" points="929.3752,-276.9031 918.7838,-276.6345 926.8959,-283.4494 929.3752,-276.9031"/>
</g>
<!-- Node20&#45;&gt;Node8 -->
<g id="edge40" class="edge">
<title>Node20&#45;&gt;Node8</title>
<path fill="none" stroke="#191970" d="M221.9242,-548.2823C218.8584,-521.3623 209.4244,-443.612 196,-380 194.1705,-371.3309 191.7544,-361.9525 189.4451,-353.6043"/>
<polygon fill="#191970" stroke="#191970" points="192.7334,-352.3716 186.6294,-343.7118 186.0008,-354.2879 192.7334,-352.3716"/>
</g>
<!-- Node20&#45;&gt;Node9 -->
<g id="edge41" class="edge">
<title>Node20&#45;&gt;Node9</title>
<path fill="none" stroke="#191970" d="M204.0136,-548.2455C186.8208,-539.4125 161.2762,-526.2887 141.7868,-516.2758"/>
<polygon fill="#191970" stroke="#191970" points="143.263,-513.0993 132.7688,-511.6427 140.0641,-519.3257 143.263,-513.0993"/>
</g>
<!-- Node20&#45;&gt;Node11 -->
<g id="edge42" class="edge">
<title>Node20&#45;&gt;Node11</title>
<path fill="none" stroke="#191970" d="M275.5971,-548.4369C329.0841,-538.712 411.9492,-523.6456 468.6933,-513.3285"/>
<polygon fill="#191970" stroke="#191970" points="469.4072,-516.7562 478.6198,-511.5237 468.155,-509.8691 469.4072,-516.7562"/>
</g>
<!-- Node20&#45;&gt;Node15 -->
<g id="edge43" class="edge">
<title>Node20&#45;&gt;Node15</title>
<path fill="none" stroke="#191970" d="M224.4527,-548.3966C229.0249,-520.4543 245.0657,-437.5328 282,-380 311.486,-334.0695 366.4003,-299.4099 400.1234,-281.2402"/>
<polygon fill="#191970" stroke="#191970" points="401.8106,-284.3074 409.0343,-276.557 398.5541,-278.111 401.8106,-284.3074"/>
</g>
<!-- Node21&#45;&gt;Node2 -->
<g id="edge45" class="edge">
<title>Node21&#45;&gt;Node2</title>
<path fill="none" stroke="#191970" d="M413.6992,-548.281C394.5391,-512.2127 330,-382.1713 330,-267 330,-267 330,-267 330,-205.5 330,-146.8165 262.8349,-108.8829 218.9976,-90.374"/>
<polygon fill="#191970" stroke="#191970" points="220.0726,-87.0328 209.4908,-86.5073 217.4352,-93.517 220.0726,-87.0328"/>
</g>
<!-- Node21&#45;&gt;Node4 -->
<g id="edge46" class="edge">
<title>Node21&#45;&gt;Node4</title>
<path fill="none" stroke="#191970" d="M498.7348,-556.8456C656.289,-553.8806 995.9573,-543.8352 1038,-512 1062.8836,-493.1578 1062,-477.2125 1062,-446 1062,-446 1062,-446 1062,-390 1062,-354.154 1063.4516,-338.2419 1038,-313 1024.535,-299.646 981.649,-287.3608 944.8501,-278.8519"/>
<polygon fill="#191970" stroke="#191970" points="945.1869,-275.3401 934.6619,-276.5544 943.6469,-282.1686 945.1869,-275.3401"/>
</g>
<!-- Node21&#45;&gt;Node8 -->
<g id="edge47" class="edge">
<title>Node21&#45;&gt;Node8</title>
<path fill="none" stroke="#191970" d="M404.9391,-548.3712C392.2453,-539.4549 373.2731,-525.5637 358,-512 297.4989,-458.2704 233.4035,-387.404 201.8802,-351.4892"/>
<polygon fill="#191970" stroke="#191970" points="204.1607,-348.7798 194.9454,-343.5522 198.8894,-353.3856 204.1607,-348.7798"/>
</g>
<!-- Node21&#45;&gt;Node9 -->
<g id="edge48" class="edge">
<title>Node21&#45;&gt;Node9</title>
<path fill="none" stroke="#191970" d="M366.9152,-548.4369C310.2147,-538.0263 220.1754,-521.4945 164.2193,-511.2206"/>
<polygon fill="#191970" stroke="#191970" points="164.6511,-507.7414 154.1834,-509.3779 163.3869,-514.6263 164.6511,-507.7414"/>
</g>
<!-- Node21&#45;&gt;Node11 -->
<g id="edge49" class="edge">
<title>Node21&#45;&gt;Node11</title>
<path fill="none" stroke="#191970" d="M438.2535,-548.3733C456.0712,-539.4644 482.7747,-526.1127 502.9594,-516.0203"/>
<polygon fill="#191970" stroke="#191970" points="504.6187,-519.1038 511.9978,-511.5011 501.4882,-512.8428 504.6187,-519.1038"/>
</g>
<!-- Node21&#45;&gt;Node15 -->
<g id="edge50" class="edge">
<title>Node21&#45;&gt;Node15</title>
<path fill="none" stroke="#191970" d="M417.7105,-548.4324C415.2219,-529.112 410,-484.0389 410,-446 410,-446 410,-446 410,-390 410,-353.253 418.3851,-311.0469 424.0146,-286.8522"/>
<polygon fill="#191970" stroke="#191970" points="427.4954,-287.3473 426.4376,-276.8054 420.6905,-285.7061 427.4954,-287.3473"/>
</g>
</g>
</svg>
