<?xml version="1.0" encoding="UTF-8" standalone="no"?>
<!DOCTYPE svg PUBLIC "-//W3C//DTD SVG 1.1//EN"
 "http://www.w3.org/Graphics/SVG/1.1/DTD/svg11.dtd">
<!-- Generated by graphviz version 2.40.1 (20161225.0304)
 -->
<!-- Title: MultiModelPlugin.h Pages: 1 -->
<svg width="304pt" height="140pt"
 viewBox="0.00 0.00 304.00 140.00" xmlns="http://www.w3.org/2000/svg" xmlns:xlink="http://www.w3.org/1999/xlink">
<g id="graph0" class="graph" transform="scale(1 1) rotate(0) translate(4 136)">
<title>MultiModelPlugin.h</title>
<polygon fill="#ffffff" stroke="transparent" points="-4,4 -4,-136 300,-136 300,4 -4,4"/>
<!-- Node1 -->
<g id="node1" class="node">
<title>Node1</title>
<polygon fill="#bfbfbf" stroke="#000000" points="110,-112.5 110,-131.5 190,-131.5 190,-112.5 110,-112.5"/>
<text text-anchor="middle" x="150" y="-119.5" font-family="Helvetica,sans-Serif" font-size="10.00" fill="#000000">MultiModelPlugin.h</text>
</g>
<!-- Node2 -->
<g id="node2" class="node">
<title>Node2</title>
<g id="a_node2"><a xlink:href="_multi_extension_types_8h.html" target="_top" xlink:title=": Implementation of the MultiExtensionTypes class ">
<polygon fill="#ffffff" stroke="#000000" points="0,-56.5 0,-75.5 92,-75.5 92,-56.5 0,-56.5"/>
<text text-anchor="middle" x="46" y="-63.5" font-family="Helvetica,sans-Serif" font-size="10.00" fill="#000000">MultiExtensionTypes.h</text>
</a>
</g>
</g>
<!-- Node1&#45;&gt;Node2 -->
<g id="edge1" class="edge">
<title>Node1&#45;&gt;Node2</title>
<path fill="none" stroke="#191970" d="M122.9971,-107.46C104.3864,-97.4388 80.1701,-84.3993 63.9078,-75.6427"/>
<polygon fill="#191970" stroke="#191970" points="121.4205,-110.5861 131.8846,-112.2455 124.7392,-104.4228 121.4205,-110.5861"/>
</g>
<!-- Node4 -->
<g id="node4" class="node">
<title>Node4</title>
<g id="a_node4"><a xlink:href="_multi_extension_8cpp.html" target="_top" xlink:title=": Implementation of the MultiExtension class ">
<polygon fill="#ffffff" stroke="#000000" points="110.5,-56.5 110.5,-75.5 189.5,-75.5 189.5,-56.5 110.5,-56.5"/>
<text text-anchor="middle" x="150" y="-63.5" font-family="Helvetica,sans-Serif" font-size="10.00" fill="#000000">MultiExtension.cpp</text>
</a>
</g>
</g>
<!-- Node1&#45;&gt;Node4 -->
<g id="edge3" class="edge">
<title>Node1&#45;&gt;Node4</title>
<path fill="none" stroke="#191970" d="M150,-102.1575C150,-93.155 150,-82.9199 150,-75.6427"/>
<polygon fill="#191970" stroke="#191970" points="146.5001,-102.2455 150,-112.2455 153.5001,-102.2456 146.5001,-102.2455"/>
</g>
<!-- Node5 -->
<g id="node5" class="node">
<title>Node5</title>
<g id="a_node5"><a xlink:href="_multi_model_plugin_8cpp.html" target="_top" xlink:title=": Implementation of the MultiModelPlugin class ">
<polygon fill="#ffffff" stroke="#000000" points="208,-56.5 208,-75.5 296,-75.5 296,-56.5 208,-56.5"/>
<text text-anchor="middle" x="252" y="-63.5" font-family="Helvetica,sans-Serif" font-size="10.00" fill="#000000">MultiModelPlugin.cpp</text>
</a>
</g>
</g>
<!-- Node1&#45;&gt;Node5 -->
<g id="edge4" class="edge">
<title>Node1&#45;&gt;Node5</title>
<path fill="none" stroke="#191970" d="M176.734,-107.3225C194.9532,-97.3198 218.5598,-84.3593 234.4366,-75.6427"/>
<polygon fill="#191970" stroke="#191970" points="174.8484,-104.3649 167.767,-112.2455 178.2173,-110.5009 174.8484,-104.3649"/>
</g>
<!-- Node3 -->
<g id="node3" class="node">
<title>Node3</title>
<g id="a_node3"><a xlink:href="_multi_validator_8cpp.html" target="_top" xlink:title=": Implementation of the MultiValidator class ">
<polygon fill="#ffffff" stroke="#000000" points="8,-.5 8,-19.5 84,-19.5 84,-.5 8,-.5"/>
<text text-anchor="middle" x="46" y="-7.5" font-family="Helvetica,sans-Serif" font-size="10.00" fill="#000000">MultiValidator.cpp</text>
</a>
</g>
</g>
<!-- Node2&#45;&gt;Node3 -->
<g id="edge2" class="edge">
<title>Node2&#45;&gt;Node3</title>
<path fill="none" stroke="#191970" d="M46,-46.1575C46,-37.155 46,-26.9199 46,-19.6427"/>
<polygon fill="#191970" stroke="#191970" points="42.5001,-46.2455 46,-56.2455 49.5001,-46.2456 42.5001,-46.2455"/>
</g>
</g>
</svg>
