<?xml version="1.0" encoding="UTF-8" standalone="no"?>
<!DOCTYPE svg PUBLIC "-//W3C//DTD SVG 1.1//EN"
 "http://www.w3.org/Graphics/SVG/1.1/DTD/svg11.dtd">
<!-- Generated by graphviz version 2.40.1 (20161225.0304)
 -->
<!-- Title: MultiSpeciesType.h Pages: 1 -->
<svg width="491pt" height="252pt"
 viewBox="0.00 0.00 490.50 252.00" xmlns="http://www.w3.org/2000/svg" xmlns:xlink="http://www.w3.org/1999/xlink">
<g id="graph0" class="graph" transform="scale(1 1) rotate(0) translate(4 248)">
<title>MultiSpeciesType.h</title>
<polygon fill="#ffffff" stroke="transparent" points="-4,4 -4,-248 486.5,-248 486.5,4 -4,4"/>
<!-- Node1 -->
<g id="node1" class="node">
<title>Node1</title>
<polygon fill="#bfbfbf" stroke="#000000" points="199.5,-224.5 199.5,-243.5 303.5,-243.5 303.5,-224.5 199.5,-224.5"/>
<text text-anchor="middle" x="251.5" y="-231.5" font-family="Helvetica,sans-Serif" font-size="10.00" fill="#000000">MultiSpeciesType.h</text>
</g>
<!-- Node2 -->
<g id="node2" class="node">
<title>Node2</title>
<g id="a_node2"><a xlink:href="_multi_extension_types_8h.html" target="_top" xlink:title=": Implementation of the MultiExtensionTypes class ">
<polygon fill="#ffffff" stroke="#000000" points="0,-56.5 0,-75.5 117,-75.5 117,-56.5 0,-56.5"/>
<text text-anchor="middle" x="58.5" y="-63.5" font-family="Helvetica,sans-Serif" font-size="10.00" fill="#000000">MultiExtensionTypes.h</text>
</a>
</g>
</g>
<!-- Node1&#45;&gt;Node2 -->
<g id="edge1" class="edge">
<title>Node1&#45;&gt;Node2</title>
<path fill="none" stroke="#191970" d="M193.9883,-221.7444C148.1052,-208.439 87.5217,-182.0172 62.5,-132 53.3581,-113.7259 54.9953,-88.9559 56.8417,-75.5581"/>
<polygon fill="#191970" stroke="#191970" points="193.2599,-225.1743 203.831,-224.4656 195.1252,-218.4274 193.2599,-225.1743"/>
</g>
<!-- Node4 -->
<g id="node4" class="node">
<title>Node4</title>
<g id="a_node4"><a xlink:href="_multi_model_plugin_8h.html" target="_top" xlink:title=": Implementation of the MultiModelPlugin class ">
<polygon fill="#ffffff" stroke="#000000" points="249,-112.5 249,-131.5 350,-131.5 350,-112.5 249,-112.5"/>
<text text-anchor="middle" x="299.5" y="-119.5" font-family="Helvetica,sans-Serif" font-size="10.00" fill="#000000">MultiModelPlugin.h</text>
</a>
</g>
</g>
<!-- Node1&#45;&gt;Node4 -->
<g id="edge3" class="edge">
<title>Node1&#45;&gt;Node4</title>
<path fill="none" stroke="#191970" d="M264.6153,-215.8445C270.0955,-207.6398 276.1792,-197.6391 280.5,-188 289.0839,-168.8502 294.8454,-144.8361 297.6081,-131.6973"/>
<polygon fill="#191970" stroke="#191970" points="261.6246,-214.0155 258.8106,-224.2298 267.3801,-217.9998 261.6246,-214.0155"/>
</g>
<!-- Node7 -->
<g id="node7" class="node">
<title>Node7</title>
<g id="a_node7"><a xlink:href="_binding_site_species_type_8h.html" target="_top" xlink:title=": Implementation of the BindingSiteSpeciesType class ">
<polygon fill="#ffffff" stroke="#000000" points="138,-168.5 138,-187.5 271,-187.5 271,-168.5 138,-168.5"/>
<text text-anchor="middle" x="204.5" y="-175.5" font-family="Helvetica,sans-Serif" font-size="10.00" fill="#000000">BindingSiteSpeciesType.h</text>
</a>
</g>
</g>
<!-- Node1&#45;&gt;Node7 -->
<g id="edge7" class="edge">
<title>Node1&#45;&gt;Node7</title>
<path fill="none" stroke="#191970" d="M236.8128,-216.5004C228.8204,-206.9775 219.2375,-195.5596 212.593,-187.6427"/>
<polygon fill="#191970" stroke="#191970" points="234.2036,-218.8358 243.3132,-224.2455 239.5654,-214.3357 234.2036,-218.8358"/>
</g>
<!-- Node9 -->
<g id="node9" class="node">
<title>Node9</title>
<g id="a_node9"><a xlink:href="_multi_species_type_8cpp.html" target="_top" xlink:title=": Implementation of the MultiSpeciesType class ">
<polygon fill="#ffffff" stroke="#000000" points="368.5,-112.5 368.5,-131.5 482.5,-131.5 482.5,-112.5 368.5,-112.5"/>
<text text-anchor="middle" x="425.5" y="-119.5" font-family="Helvetica,sans-Serif" font-size="10.00" fill="#000000">MultiSpeciesType.cpp</text>
</a>
</g>
</g>
<!-- Node1&#45;&gt;Node9 -->
<g id="edge12" class="edge">
<title>Node1&#45;&gt;Node9</title>
<path fill="none" stroke="#191970" d="M274.8345,-218.9801C311.2189,-195.5603 380.4293,-151.011 410.7024,-131.5249"/>
<polygon fill="#191970" stroke="#191970" points="272.8494,-216.0954 266.3351,-224.4509 276.6382,-221.9815 272.8494,-216.0954"/>
</g>
<!-- Node3 -->
<g id="node3" class="node">
<title>Node3</title>
<g id="a_node3"><a xlink:href="_multi_validator_8cpp.html" target="_top" xlink:title=": Implementation of the MultiValidator class ">
<polygon fill="#ffffff" stroke="#000000" points="10.5,-.5 10.5,-19.5 106.5,-19.5 106.5,-.5 10.5,-.5"/>
<text text-anchor="middle" x="58.5" y="-7.5" font-family="Helvetica,sans-Serif" font-size="10.00" fill="#000000">MultiValidator.cpp</text>
</a>
</g>
</g>
<!-- Node2&#45;&gt;Node3 -->
<g id="edge2" class="edge">
<title>Node2&#45;&gt;Node3</title>
<path fill="none" stroke="#191970" d="M58.5,-46.1575C58.5,-37.155 58.5,-26.9199 58.5,-19.6427"/>
<polygon fill="#191970" stroke="#191970" points="55.0001,-46.2455 58.5,-56.2455 62.0001,-46.2456 55.0001,-46.2455"/>
</g>
<!-- Node4&#45;&gt;Node2 -->
<g id="edge4" class="edge">
<title>Node4&#45;&gt;Node2</title>
<path fill="none" stroke="#191970" d="M248.3412,-110.1125C203.9696,-99.8021 140.5832,-85.0733 99.4858,-75.5237"/>
<polygon fill="#191970" stroke="#191970" points="247.8118,-113.5826 258.3445,-112.4369 249.3962,-106.7643 247.8118,-113.5826"/>
</g>
<!-- Node5 -->
<g id="node5" class="node">
<title>Node5</title>
<g id="a_node5"><a xlink:href="_multi_extension_8cpp.html" target="_top" xlink:title=": Implementation of the MultiExtension class ">
<polygon fill="#ffffff" stroke="#000000" points="192.5,-56.5 192.5,-75.5 292.5,-75.5 292.5,-56.5 192.5,-56.5"/>
<text text-anchor="middle" x="242.5" y="-63.5" font-family="Helvetica,sans-Serif" font-size="10.00" fill="#000000">MultiExtension.cpp</text>
</a>
</g>
</g>
<!-- Node4&#45;&gt;Node5 -->
<g id="edge5" class="edge">
<title>Node4&#45;&gt;Node5</title>
<path fill="none" stroke="#191970" d="M282.2729,-105.0751C272.4659,-95.4402 260.536,-83.7196 252.3149,-75.6427"/>
<polygon fill="#191970" stroke="#191970" points="279.9851,-107.734 289.5714,-112.2455 284.8909,-102.7406 279.9851,-107.734"/>
</g>
<!-- Node6 -->
<g id="node6" class="node">
<title>Node6</title>
<g id="a_node6"><a xlink:href="_multi_model_plugin_8cpp.html" target="_top" xlink:title=": Implementation of the MultiModelPlugin class ">
<polygon fill="#ffffff" stroke="#000000" points="310.5,-56.5 310.5,-75.5 422.5,-75.5 422.5,-56.5 310.5,-56.5"/>
<text text-anchor="middle" x="366.5" y="-63.5" font-family="Helvetica,sans-Serif" font-size="10.00" fill="#000000">MultiModelPlugin.cpp</text>
</a>
</g>
</g>
<!-- Node4&#45;&gt;Node6 -->
<g id="edge6" class="edge">
<title>Node4&#45;&gt;Node6</title>
<path fill="none" stroke="#191970" d="M319.0676,-105.645C330.7198,-95.9058 345.1084,-83.8795 354.9632,-75.6427"/>
<polygon fill="#191970" stroke="#191970" points="316.5988,-103.1469 311.1705,-112.2455 321.0879,-108.5179 316.5988,-103.1469"/>
</g>
<!-- Node7&#45;&gt;Node2 -->
<g id="edge8" class="edge">
<title>Node7&#45;&gt;Node2</title>
<path fill="none" stroke="#191970" d="M134.7298,-165.5103C113.9144,-158.6988 92.6393,-148.1925 77.5,-132 62.8421,-116.3223 59.4035,-90.062 58.6538,-75.8517"/>
<polygon fill="#191970" stroke="#191970" points="133.9739,-168.938 144.5586,-168.4764 135.9963,-162.2365 133.9739,-168.938"/>
</g>
<!-- Node7&#45;&gt;Node4 -->
<g id="edge9" class="edge">
<title>Node7&#45;&gt;Node4</title>
<path fill="none" stroke="#191970" d="M229.8676,-163.0465C246.771,-153.0824 268.4904,-140.2794 283.1419,-131.6427"/>
<polygon fill="#191970" stroke="#191970" points="227.8851,-160.1522 221.0477,-168.2455 231.4398,-166.1825 227.8851,-160.1522"/>
</g>
<!-- Node8 -->
<g id="node8" class="node">
<title>Node8</title>
<g id="a_node8"><a xlink:href="_binding_site_species_type_8cpp.html" target="_top" xlink:title=": Implementation of the BindingSiteSpeciesType class ">
<polygon fill="#ffffff" stroke="#000000" points="86.5,-112.5 86.5,-131.5 230.5,-131.5 230.5,-112.5 86.5,-112.5"/>
<text text-anchor="middle" x="158.5" y="-119.5" font-family="Helvetica,sans-Serif" font-size="10.00" fill="#000000">BindingSiteSpeciesType.cpp</text>
</a>
</g>
</g>
<!-- Node7&#45;&gt;Node8 -->
<g id="edge10" class="edge">
<title>Node7&#45;&gt;Node8</title>
<path fill="none" stroke="#191970" d="M190.1253,-160.5004C182.3029,-150.9775 172.924,-139.5596 166.4208,-131.6427"/>
<polygon fill="#191970" stroke="#191970" points="187.4354,-162.7399 196.4874,-168.2455 192.8445,-158.2967 187.4354,-162.7399"/>
</g>
<!-- Node7&#45;&gt;Node9 -->
<g id="edge11" class="edge">
<title>Node7&#45;&gt;Node9</title>
<path fill="none" stroke="#191970" d="M252.1863,-165.9166C292.836,-155.6162 350.4667,-141.013 387.9155,-131.5237"/>
<polygon fill="#191970" stroke="#191970" points="251.0741,-162.5877 242.2401,-168.4369 252.7935,-169.3733 251.0741,-162.5877"/>
</g>
</g>
</svg>
