<?xml version="1.0" encoding="UTF-8" standalone="no"?>
<!DOCTYPE svg PUBLIC "-//W3C//DTD SVG 1.1//EN"
 "http://www.w3.org/Graphics/SVG/1.1/DTD/svg11.dtd">
<!-- Generated by graphviz version 2.40.1 (20161225.0304)
 -->
<!-- Title: MultiSimpleSpeciesReferencePlugin.h Pages: 1 -->
<svg width="511pt" height="218pt"
 viewBox="0.00 0.00 510.50 218.00" xmlns="http://www.w3.org/2000/svg" xmlns:xlink="http://www.w3.org/1999/xlink">
<g id="graph0" class="graph" transform="scale(1 1) rotate(0) translate(4 214)">
<title>MultiSimpleSpeciesReferencePlugin.h</title>
<polygon fill="#ffffff" stroke="transparent" points="-4,4 -4,-214 506.5,-214 506.5,4 -4,4"/>
<!-- Node1 -->
<g id="node1" class="node">
<title>Node1</title>
<polygon fill="#bfbfbf" stroke="#000000" points="196.5,-179.5 196.5,-209.5 346.5,-209.5 346.5,-179.5 196.5,-179.5"/>
<text text-anchor="start" x="204.5" y="-197.5" font-family="Helvetica,sans-Serif" font-size="10.00" fill="#000000">MultiSimpleSpeciesReference</text>
<text text-anchor="middle" x="271.5" y="-186.5" font-family="Helvetica,sans-Serif" font-size="10.00" fill="#000000">Plugin.h</text>
</g>
<!-- Node2 -->
<g id="node2" class="node">
<title>Node2</title>
<g id="a_node2"><a xlink:href="_multi_extension_types_8h.html" target="_top" xlink:title=": Implementation of the MultiExtensionTypes class ">
<polygon fill="#ffffff" stroke="#000000" points="0,-56.5 0,-75.5 117,-75.5 117,-56.5 0,-56.5"/>
<text text-anchor="middle" x="58.5" y="-63.5" font-family="Helvetica,sans-Serif" font-size="10.00" fill="#000000">MultiExtensionTypes.h</text>
</a>
</g>
</g>
<!-- Node1&#45;&gt;Node2 -->
<g id="edge1" class="edge">
<title>Node1&#45;&gt;Node2</title>
<path fill="none" stroke="#191970" d="M202.8199,-176.242C179.0968,-168.162 153.0775,-157.2072 131.5,-143 102.7295,-124.0568 77.0392,-91.7024 65.2807,-75.6375"/>
<polygon fill="#191970" stroke="#191970" points="201.8841,-179.6186 212.477,-179.419 204.0716,-172.9692 201.8841,-179.6186"/>
</g>
<!-- Node4 -->
<g id="node4" class="node">
<title>Node4</title>
<g id="a_node4"><a xlink:href="_multi_extension_8cpp.html" target="_top" xlink:title=": Implementation of the MultiExtension class ">
<polygon fill="#ffffff" stroke="#000000" points="319.5,-56.5 319.5,-75.5 419.5,-75.5 419.5,-56.5 319.5,-56.5"/>
<text text-anchor="middle" x="369.5" y="-63.5" font-family="Helvetica,sans-Serif" font-size="10.00" fill="#000000">MultiExtension.cpp</text>
</a>
</g>
</g>
<!-- Node1&#45;&gt;Node4 -->
<g id="edge3" class="edge">
<title>Node1&#45;&gt;Node4</title>
<path fill="none" stroke="#191970" d="M289.3814,-171.0535C311.096,-142.5807 346.7197,-95.8701 362.075,-75.7358"/>
<polygon fill="#191970" stroke="#191970" points="286.4079,-169.1808 283.1267,-179.2548 291.9739,-173.4257 286.4079,-169.1808"/>
</g>
<!-- Node5 -->
<g id="node5" class="node">
<title>Node5</title>
<g id="a_node5"><a xlink:href="_multi_simple_species_reference_plugin_8cpp.html" target="_top" xlink:title=": Implementation of the MultiSimpleSpeciesReferencePlugin class ">
<polygon fill="#ffffff" stroke="#000000" points="352.5,-112.5 352.5,-142.5 502.5,-142.5 502.5,-112.5 352.5,-112.5"/>
<text text-anchor="start" x="360.5" y="-130.5" font-family="Helvetica,sans-Serif" font-size="10.00" fill="#000000">MultiSimpleSpeciesReference</text>
<text text-anchor="middle" x="427.5" y="-119.5" font-family="Helvetica,sans-Serif" font-size="10.00" fill="#000000">Plugin.cpp</text>
</a>
</g>
</g>
<!-- Node1&#45;&gt;Node5 -->
<g id="edge4" class="edge">
<title>Node1&#45;&gt;Node5</title>
<path fill="none" stroke="#191970" d="M315.8516,-175.4516C340.0953,-165.0392 369.7045,-152.3224 392.3379,-142.6017"/>
<polygon fill="#191970" stroke="#191970" points="314.3166,-172.3016 306.5094,-179.4639 317.0791,-178.7335 314.3166,-172.3016"/>
</g>
<!-- Node6 -->
<g id="node6" class="node">
<title>Node6</title>
<g id="a_node6"><a xlink:href="_multi_species_reference_plugin_8h.html" target="_top" xlink:title=": Implementation of the MultiSpeciesReferencePlugin class ">
<polygon fill="#ffffff" stroke="#000000" points="141,-118 141,-137 296,-137 296,-118 141,-118"/>
<text text-anchor="middle" x="218.5" y="-125" font-family="Helvetica,sans-Serif" font-size="10.00" fill="#000000">MultiSpeciesReferencePlugin.h</text>
</a>
</g>
</g>
<!-- Node1&#45;&gt;Node6 -->
<g id="edge5" class="edge">
<title>Node1&#45;&gt;Node6</title>
<path fill="none" stroke="#191970" d="M253.0564,-171.1845C243.7897,-159.47 233.0706,-145.9195 226.0584,-137.055"/>
<polygon fill="#191970" stroke="#191970" points="250.5244,-173.6252 259.4735,-179.2967 256.0144,-169.2824 250.5244,-173.6252"/>
</g>
<!-- Node3 -->
<g id="node3" class="node">
<title>Node3</title>
<g id="a_node3"><a xlink:href="_multi_validator_8cpp.html" target="_top" xlink:title=": Implementation of the MultiValidator class ">
<polygon fill="#ffffff" stroke="#000000" points="10.5,-.5 10.5,-19.5 106.5,-19.5 106.5,-.5 10.5,-.5"/>
<text text-anchor="middle" x="58.5" y="-7.5" font-family="Helvetica,sans-Serif" font-size="10.00" fill="#000000">MultiValidator.cpp</text>
</a>
</g>
</g>
<!-- Node2&#45;&gt;Node3 -->
<g id="edge2" class="edge">
<title>Node2&#45;&gt;Node3</title>
<path fill="none" stroke="#191970" d="M58.5,-46.1575C58.5,-37.155 58.5,-26.9199 58.5,-19.6427"/>
<polygon fill="#191970" stroke="#191970" points="55.0001,-46.2455 58.5,-56.2455 62.0001,-46.2456 55.0001,-46.2455"/>
</g>
<!-- Node6&#45;&gt;Node2 -->
<g id="edge6" class="edge">
<title>Node6&#45;&gt;Node2</title>
<path fill="none" stroke="#191970" d="M184.1568,-114.2993C153.8413,-102.6468 110.3769,-85.9402 83.3244,-75.5419"/>
<polygon fill="#191970" stroke="#191970" points="182.91,-117.5697 193.5,-117.8906 185.4216,-111.0357 182.91,-117.5697"/>
</g>
<!-- Node6&#45;&gt;Node4 -->
<g id="edge7" class="edge">
<title>Node6&#45;&gt;Node4</title>
<path fill="none" stroke="#191970" d="M251.6573,-113.9955C280.2308,-102.358 320.7623,-85.8501 346.0719,-75.5419"/>
<polygon fill="#191970" stroke="#191970" points="250.0349,-110.8771 242.0938,-117.8906 252.6753,-117.36 250.0349,-110.8771"/>
</g>
<!-- Node7 -->
<g id="node7" class="node">
<title>Node7</title>
<g id="a_node7"><a xlink:href="_multi_species_reference_plugin_8cpp.html" target="_top" xlink:title=": Implementation of the MultiSpeciesReferencePlugin class ">
<polygon fill="#ffffff" stroke="#000000" points="135.5,-56.5 135.5,-75.5 301.5,-75.5 301.5,-56.5 135.5,-56.5"/>
<text text-anchor="middle" x="218.5" y="-63.5" font-family="Helvetica,sans-Serif" font-size="10.00" fill="#000000">MultiSpeciesReferencePlugin.cpp</text>
</a>
</g>
</g>
<!-- Node6&#45;&gt;Node7 -->
<g id="edge8" class="edge">
<title>Node6&#45;&gt;Node7</title>
<path fill="none" stroke="#191970" d="M218.5,-107.7462C218.5,-97.0519 218.5,-84.314 218.5,-75.7449"/>
<polygon fill="#191970" stroke="#191970" points="215.0001,-107.8906 218.5,-117.8906 222.0001,-107.8907 215.0001,-107.8906"/>
</g>
</g>
</svg>
