<?xml version="1.0" encoding="UTF-8" standalone="no"?>
<!DOCTYPE svg PUBLIC "-//W3C//DTD SVG 1.1//EN"
 "http://www.w3.org/Graphics/SVG/1.1/DTD/svg11.dtd">
<!-- Generated by graphviz version 2.40.1 (20161225.0304)
 -->
<!-- Title: Output.h Pages: 1 -->
<svg width="453pt" height="252pt"
 viewBox="0.00 0.00 453.00 252.00" xmlns="http://www.w3.org/2000/svg" xmlns:xlink="http://www.w3.org/1999/xlink">
<g id="graph0" class="graph" transform="scale(1 1) rotate(0) translate(4 248)">
<title>Output.h</title>
<polygon fill="#ffffff" stroke="transparent" points="-4,4 -4,-248 449,-248 449,4 -4,4"/>
<!-- Node1 -->
<g id="node1" class="node">
<title>Node1</title>
<polygon fill="#bfbfbf" stroke="#000000" points="92,-224.5 92,-243.5 147,-243.5 147,-224.5 92,-224.5"/>
<text text-anchor="middle" x="119.5" y="-231.5" font-family="Helvetica,sans-Serif" font-size="10.00" fill="#000000">Output.h</text>
</g>
<!-- Node2 -->
<g id="node2" class="node">
<title>Node2</title>
<g id="a_node2"><a xlink:href="_qual_extension_types_8h.html" target="_top" xlink:title="Include all SBML types of qual extension in a single header file. ">
<polygon fill="#ffffff" stroke="#000000" points="0,-56.5 0,-75.5 117,-75.5 117,-56.5 0,-56.5"/>
<text text-anchor="middle" x="58.5" y="-63.5" font-family="Helvetica,sans-Serif" font-size="10.00" fill="#000000">QualExtensionTypes.h</text>
</a>
</g>
</g>
<!-- Node1&#45;&gt;Node2 -->
<g id="edge1" class="edge">
<title>Node1&#45;&gt;Node2</title>
<path fill="none" stroke="#191970" d="M99.9185,-217.4322C91.6922,-209.3938 82.8163,-199.0836 77.5,-188 59.0518,-149.5381 57.8038,-97.1523 58.1626,-75.7311"/>
<polygon fill="#191970" stroke="#191970" points="97.7446,-220.1885 107.469,-224.394 102.4897,-215.0422 97.7446,-220.1885"/>
</g>
<!-- Node4 -->
<g id="node4" class="node">
<title>Node4</title>
<g id="a_node4"><a xlink:href="_output_8cpp.html" target="_top" xlink:title="Implementation of the Output class. ">
<polygon fill="#ffffff" stroke="#000000" points="87,-168.5 87,-187.5 152,-187.5 152,-168.5 87,-168.5"/>
<text text-anchor="middle" x="119.5" y="-175.5" font-family="Helvetica,sans-Serif" font-size="10.00" fill="#000000">Output.cpp</text>
</a>
</g>
</g>
<!-- Node1&#45;&gt;Node4 -->
<g id="edge3" class="edge">
<title>Node1&#45;&gt;Node4</title>
<path fill="none" stroke="#191970" d="M119.5,-214.1575C119.5,-205.155 119.5,-194.9199 119.5,-187.6427"/>
<polygon fill="#191970" stroke="#191970" points="116.0001,-214.2455 119.5,-224.2455 123.0001,-214.2456 116.0001,-214.2455"/>
</g>
<!-- Node5 -->
<g id="node5" class="node">
<title>Node5</title>
<g id="a_node5"><a xlink:href="_transition_8h.html" target="_top" xlink:title="Implementation of the Transition class. ">
<polygon fill="#ffffff" stroke="#000000" points="170,-168.5 170,-187.5 239,-187.5 239,-168.5 170,-168.5"/>
<text text-anchor="middle" x="204.5" y="-175.5" font-family="Helvetica,sans-Serif" font-size="10.00" fill="#000000">Transition.h</text>
</a>
</g>
</g>
<!-- Node1&#45;&gt;Node5 -->
<g id="edge4" class="edge">
<title>Node1&#45;&gt;Node5</title>
<path fill="none" stroke="#191970" d="M143.0419,-218.49C158.039,-208.6096 176.9973,-196.1194 189.8638,-187.6427"/>
<polygon fill="#191970" stroke="#191970" points="140.7309,-215.8212 134.3059,-224.2455 144.5821,-221.6666 140.7309,-215.8212"/>
</g>
<!-- Node3 -->
<g id="node3" class="node">
<title>Node3</title>
<g id="a_node3"><a xlink:href="_qual_validator_8cpp.html" target="_top" xlink:title="Base class for SBML Validators. ">
<polygon fill="#ffffff" stroke="#000000" points="10.5,-.5 10.5,-19.5 106.5,-19.5 106.5,-.5 10.5,-.5"/>
<text text-anchor="middle" x="58.5" y="-7.5" font-family="Helvetica,sans-Serif" font-size="10.00" fill="#000000">QualValidator.cpp</text>
</a>
</g>
</g>
<!-- Node2&#45;&gt;Node3 -->
<g id="edge2" class="edge">
<title>Node2&#45;&gt;Node3</title>
<path fill="none" stroke="#191970" d="M58.5,-46.1575C58.5,-37.155 58.5,-26.9199 58.5,-19.6427"/>
<polygon fill="#191970" stroke="#191970" points="55.0001,-46.2455 58.5,-56.2455 62.0001,-46.2456 55.0001,-46.2455"/>
</g>
<!-- Node5&#45;&gt;Node2 -->
<g id="edge5" class="edge">
<title>Node5&#45;&gt;Node2</title>
<path fill="none" stroke="#191970" d="M174.5877,-163.8799C158.4561,-155.6242 138.6112,-144.4012 122.5,-132 99.9866,-114.6709 77.8395,-89.5317 66.4336,-75.8213"/>
<polygon fill="#191970" stroke="#191970" points="173.0905,-167.0444 183.6003,-168.3843 176.22,-160.7829 173.0905,-167.0444"/>
</g>
<!-- Node6 -->
<g id="node6" class="node">
<title>Node6</title>
<g id="a_node6"><a xlink:href="_qual_model_plugin_8h.html" target="_top" xlink:title="Definition of QualModelPlugin, the plugin class of qual package for the Model element. ">
<polygon fill="#ffffff" stroke="#000000" points="132,-112.5 132,-131.5 233,-131.5 233,-112.5 132,-112.5"/>
<text text-anchor="middle" x="182.5" y="-119.5" font-family="Helvetica,sans-Serif" font-size="10.00" fill="#000000">QualModelPlugin.h</text>
</a>
</g>
</g>
<!-- Node5&#45;&gt;Node6 -->
<g id="edge6" class="edge">
<title>Node5&#45;&gt;Node6</title>
<path fill="none" stroke="#191970" d="M196.9372,-158.7493C193.3454,-149.6064 189.2099,-139.0798 186.2882,-131.6427"/>
<polygon fill="#191970" stroke="#191970" points="193.7537,-160.2178 200.6679,-168.2455 200.2689,-157.6582 193.7537,-160.2178"/>
</g>
<!-- Node9 -->
<g id="node9" class="node">
<title>Node9</title>
<g id="a_node9"><a xlink:href="_function_term_8cpp.html" target="_top" xlink:title="Implementation of the FunctionTerm class. ">
<polygon fill="#ffffff" stroke="#000000" points="251,-112.5 251,-131.5 348,-131.5 348,-112.5 251,-112.5"/>
<text text-anchor="middle" x="299.5" y="-119.5" font-family="Helvetica,sans-Serif" font-size="10.00" fill="#000000">FunctionTerm.cpp</text>
</a>
</g>
</g>
<!-- Node5&#45;&gt;Node9 -->
<g id="edge10" class="edge">
<title>Node5&#45;&gt;Node9</title>
<path fill="none" stroke="#191970" d="M229.8676,-163.0465C246.771,-153.0824 268.4904,-140.2794 283.1419,-131.6427"/>
<polygon fill="#191970" stroke="#191970" points="227.8851,-160.1522 221.0477,-168.2455 231.4398,-166.1825 227.8851,-160.1522"/>
</g>
<!-- Node10 -->
<g id="node10" class="node">
<title>Node10</title>
<g id="a_node10"><a xlink:href="_transition_8cpp.html" target="_top" xlink:title="Implementation of the Transition class. ">
<polygon fill="#ffffff" stroke="#000000" points="366,-112.5 366,-131.5 445,-131.5 445,-112.5 366,-112.5"/>
<text text-anchor="middle" x="405.5" y="-119.5" font-family="Helvetica,sans-Serif" font-size="10.00" fill="#000000">Transition.cpp</text>
</a>
</g>
</g>
<!-- Node5&#45;&gt;Node10 -->
<g id="edge11" class="edge">
<title>Node5&#45;&gt;Node10</title>
<path fill="none" stroke="#191970" d="M249.0494,-165.5882C285.9784,-155.2996 337.7002,-140.8895 371.3978,-131.5011"/>
<polygon fill="#191970" stroke="#191970" points="247.7469,-162.3177 239.0531,-168.3733 249.6256,-169.0609 247.7469,-162.3177"/>
</g>
<!-- Node6&#45;&gt;Node2 -->
<g id="edge7" class="edge">
<title>Node6&#45;&gt;Node2</title>
<path fill="none" stroke="#191970" d="M152.0476,-108.2473C129.5278,-98.0771 99.4383,-84.4883 79.5382,-75.5011"/>
<polygon fill="#191970" stroke="#191970" points="150.6294,-111.4471 161.1836,-112.3733 153.5105,-105.0675 150.6294,-111.4471"/>
</g>
<!-- Node7 -->
<g id="node7" class="node">
<title>Node7</title>
<g id="a_node7"><a xlink:href="_qual_extension_8cpp.html" target="_top" xlink:title="Implementation of QualExtension, the core module of qual package. ">
<polygon fill="#ffffff" stroke="#000000" points="135.5,-56.5 135.5,-75.5 235.5,-75.5 235.5,-56.5 135.5,-56.5"/>
<text text-anchor="middle" x="185.5" y="-63.5" font-family="Helvetica,sans-Serif" font-size="10.00" fill="#000000">QualExtension.cpp</text>
</a>
</g>
</g>
<!-- Node6&#45;&gt;Node7 -->
<g id="edge8" class="edge">
<title>Node6&#45;&gt;Node7</title>
<path fill="none" stroke="#191970" d="M183.563,-102.1575C184.0453,-93.155 184.5936,-82.9199 184.9834,-75.6427"/>
<polygon fill="#191970" stroke="#191970" points="180.0626,-102.0726 183.0226,-112.2455 187.0526,-102.4471 180.0626,-102.0726"/>
</g>
<!-- Node8 -->
<g id="node8" class="node">
<title>Node8</title>
<g id="a_node8"><a xlink:href="_qual_model_plugin_8cpp.html" target="_top" xlink:title="Implementation of QualModelPlugin, the plugin class of qual package for the Model element...">
<polygon fill="#ffffff" stroke="#000000" points="253.5,-56.5 253.5,-75.5 365.5,-75.5 365.5,-56.5 253.5,-56.5"/>
<text text-anchor="middle" x="309.5" y="-63.5" font-family="Helvetica,sans-Serif" font-size="10.00" fill="#000000">QualModelPlugin.cpp</text>
</a>
</g>
</g>
<!-- Node6&#45;&gt;Node8 -->
<g id="edge9" class="edge">
<title>Node6&#45;&gt;Node8</title>
<path fill="none" stroke="#191970" d="M213.6892,-108.2473C236.7537,-98.0771 267.5712,-84.4883 287.9528,-75.5011"/>
<polygon fill="#191970" stroke="#191970" points="212.0699,-105.1361 204.3321,-112.3733 214.8942,-111.5411 212.0699,-105.1361"/>
</g>
</g>
</svg>
