<?xml version="1.0" encoding="UTF-8" standalone="no"?>
<!DOCTYPE svg PUBLIC "-//W3C//DTD SVG 1.1//EN"
 "http://www.w3.org/Graphics/SVG/1.1/DTD/svg11.dtd">
<!-- Generated by graphviz version 2.40.1 (20161225.0304)
 -->
<!-- Title: Port.h Pages: 1 -->
<!--zoomable 252 -->
<svg id="main" version="1.1" xmlns="http://www.w3.org/2000/svg" xmlns:xlink="http://www.w3.org/1999/xlink" xml:space="preserve" onload="init(evt)">
<style type="text/css"><![CDATA[
.edge:hover path { stroke: red; }
.edge:hover polygon { stroke: red; fill: red; }
]]></style>
<script type="text/javascript"><![CDATA[
var edges = document.getElementsByTagName('g');
if (edges && edges.length) {
  for (var i=0;i<edges.length;i++) {
    if (edges[i].id.substr(0,4)=='edge') {
      edges[i].setAttribute('class','edge');
    }
  }
}
]]></script>
        <defs>
                <circle id="rim" cx="0" cy="0" r="7"/>
                <circle id="rim2" cx="0" cy="0" r="3.5"/>
                <g id="zoomPlus">
                        <use xlink:href="#rim" fill="#404040">
                                <set attributeName="fill" to="#808080" begin="zoomplus.mouseover" end="zoomplus.mouseout"/>
                        </use>
                        <path d="M-4,0h8M0,-4v8" fill="none" stroke="white" stroke-width="1.5" pointer-events="none"/>
                </g>
                <g id="zoomMin">
                        <use xlink:href="#rim" fill="#404040">
                                <set attributeName="fill" to="#808080" begin="zoomminus.mouseover" end="zoomminus.mouseout"/>
                        </use>
                        <path d="M-4,0h8" fill="none" stroke="white" stroke-width="1.5" pointer-events="none"/>
                </g>
                <g id="dirArrow">
                        <path fill="none" stroke="white" stroke-width="1.5" d="M0,-3.0v7 M-2.5,-0.5L0,-3.0L2.5,-0.5"/>
                </g>
               <g id="resetDef">
                       <use xlink:href="#rim2" fill="#404040">
                               <set attributeName="fill" to="#808080" begin="reset.mouseover" end="reset.mouseout"/>
                       </use>
               </g>
        </defs>

<script type="text/javascript">
var viewWidth = 1279;
var viewHeight = 252;
var sectionId = 'dynsection-1';
</script>
<script xlink:href="svgpan.js"/>
<svg id="graph" class="graph">
<g id="viewport">
<title>Port.h</title>
<polygon fill="#ffffff" stroke="transparent" points="-4,4 -4,-248 1275,-248 1275,4 -4,4"/>
<!-- Node1 -->
<g id="node1" class="node">
<title>Node1</title>
<polygon fill="#bfbfbf" stroke="#000000" points="1056,-224.5 1056,-243.5 1099,-243.5 1099,-224.5 1056,-224.5"/>
<text text-anchor="middle" x="1077.5" y="-231.5" font-family="Helvetica,sans-Serif" font-size="10.00" fill="#000000">Port.h</text>
</g>
<!-- Node2 -->
<g id="node2" class="node">
<title>Node2</title>
<g id="a_node2"><a xlink:href="_comp_extension_types_8h.html" target="_top" xlink:title="Include all SBML types of Comp extension in a single header file. ">
<polygon fill="#ffffff" stroke="#000000" points="1148,-56.5 1148,-75.5 1271,-75.5 1271,-56.5 1148,-56.5"/>
<text text-anchor="middle" x="1209.5" y="-63.5" font-family="Helvetica,sans-Serif" font-size="10.00" fill="#000000">CompExtensionTypes.h</text>
</a>
</g>
</g>
<!-- Node1&#45;&gt;Node2 -->
<g id="edge1" class="edge">
<title>Node1&#45;&gt;Node2</title>
<path fill="none" stroke="#191970" d="M1091.2125,-216.5477C1118.7863,-181.4538 1180.1547,-103.3486 1201.7781,-75.8279"/>
<polygon fill="#191970" stroke="#191970" points="1088.4012,-214.4606 1084.9751,-224.4862 1093.9055,-218.7854 1088.4012,-214.4606"/>
</g>
<!-- Node5 -->
<g id="node5" class="node">
<title>Node5</title>
<g id="a_node5"><a xlink:href="_comp_base_8cpp.html" target="_top" xlink:title="Implementation of CompBase, the base class of extension entities plugged in SBase derived classes in ...">
<polygon fill="#ffffff" stroke="#000000" points="0,-56.5 0,-75.5 85,-75.5 85,-56.5 0,-56.5"/>
<text text-anchor="middle" x="42.5" y="-63.5" font-family="Helvetica,sans-Serif" font-size="10.00" fill="#000000">CompBase.cpp</text>
</a>
</g>
</g>
<!-- Node1&#45;&gt;Node5 -->
<g id="edge4" class="edge">
<title>Node1&#45;&gt;Node5</title>
<path fill="none" stroke="#191970" d="M1045.4248,-229.2098C922.2081,-210.731 467.5132,-141.8284 94.5,-76 91.4219,-75.4568 88.2441,-74.8815 85.0476,-74.2922"/>
<polygon fill="#191970" stroke="#191970" points="1045.2558,-232.7235 1055.664,-230.7437 1046.2929,-225.8007 1045.2558,-232.7235"/>
</g>
<!-- Node6 -->
<g id="node6" class="node">
<title>Node6</title>
<g id="a_node6"><a xlink:href="_deletion_8cpp.html" target="_top" xlink:title="Implementation of Deletion, the SBaseRef derived class of deletions package. ">
<polygon fill="#ffffff" stroke="#000000" points="1160.5,-168.5 1160.5,-187.5 1232.5,-187.5 1232.5,-168.5 1160.5,-168.5"/>
<text text-anchor="middle" x="1196.5" y="-175.5" font-family="Helvetica,sans-Serif" font-size="10.00" fill="#000000">Deletion.cpp</text>
</a>
</g>
</g>
<!-- Node1&#45;&gt;Node6 -->
<g id="edge5" class="edge">
<title>Node1&#45;&gt;Node6</title>
<path fill="none" stroke="#191970" d="M1107.0144,-220.1109C1128.5938,-209.9559 1157.2976,-196.4482 1176.3101,-187.5011"/>
<polygon fill="#191970" stroke="#191970" points="1105.5147,-216.9484 1097.9568,-224.3733 1108.4953,-223.2821 1105.5147,-216.9484"/>
</g>
<!-- Node7 -->
<g id="node7" class="node">
<title>Node7</title>
<g id="a_node7"><a xlink:href="_list_of_ports_8h.html" target="_top" xlink:title="Definition of ListOfPorts, the SBase derived class of ports package. ">
<polygon fill="#ffffff" stroke="#000000" points="917.5,-168.5 917.5,-187.5 991.5,-187.5 991.5,-168.5 917.5,-168.5"/>
<text text-anchor="middle" x="954.5" y="-175.5" font-family="Helvetica,sans-Serif" font-size="10.00" fill="#000000">ListOfPorts.h</text>
</a>
</g>
</g>
<!-- Node1&#45;&gt;Node7 -->
<g id="edge6" class="edge">
<title>Node1&#45;&gt;Node7</title>
<path fill="none" stroke="#191970" d="M1046.9935,-220.1109C1024.6888,-209.9559 995.0201,-196.4482 975.3685,-187.5011"/>
<polygon fill="#191970" stroke="#191970" points="1045.8041,-223.415 1056.3555,-224.3733 1048.7047,-217.0442 1045.8041,-223.415"/>
</g>
<!-- Node20 -->
<g id="node20" class="node">
<title>Node20</title>
<g id="a_node20"><a xlink:href="_port_8cpp.html" target="_top" xlink:title="Implementation of Port, the SBase&#45;derived class of the comp package. ">
<polygon fill="#ffffff" stroke="#000000" points="1050.5,-112.5 1050.5,-131.5 1104.5,-131.5 1104.5,-112.5 1050.5,-112.5"/>
<text text-anchor="middle" x="1077.5" y="-119.5" font-family="Helvetica,sans-Serif" font-size="10.00" fill="#000000">Port.cpp</text>
</a>
</g>
</g>
<!-- Node1&#45;&gt;Node20 -->
<g id="edge26" class="edge">
<title>Node1&#45;&gt;Node20</title>
<path fill="none" stroke="#191970" d="M1077.5,-214.2702C1077.5,-189.9985 1077.5,-149.7725 1077.5,-131.5249"/>
<polygon fill="#191970" stroke="#191970" points="1074.0001,-214.4509 1077.5,-224.4509 1081.0001,-214.451 1074.0001,-214.4509"/>
</g>
<!-- Node3 -->
<g id="node3" class="node">
<title>Node3</title>
<g id="a_node3"><a xlink:href="_comp_flattening_converter_8cpp.html" target="_top" xlink:title="Implementation of a first flattening converter. ">
<polygon fill="#ffffff" stroke="#000000" points="825.5,-.5 825.5,-19.5 975.5,-19.5 975.5,-.5 825.5,-.5"/>
<text text-anchor="middle" x="900.5" y="-7.5" font-family="Helvetica,sans-Serif" font-size="10.00" fill="#000000">CompFlatteningConverter.cpp</text>
</a>
</g>
</g>
<!-- Node2&#45;&gt;Node3 -->
<g id="edge2" class="edge">
<title>Node2&#45;&gt;Node3</title>
<path fill="none" stroke="#191970" d="M1146.7598,-54.6296C1089.7606,-44.2997 1006.631,-29.2341 953.0503,-19.5237"/>
<polygon fill="#191970" stroke="#191970" points="1146.2682,-58.0975 1156.7321,-56.4369 1147.5166,-51.2097 1146.2682,-58.0975"/>
</g>
<!-- Node4 -->
<g id="node4" class="node">
<title>Node4</title>
<g id="a_node4"><a xlink:href="_comp_validator_8cpp.html" target="_top" xlink:title="CompValidator.cpp">
<polygon fill="#ffffff" stroke="#000000" points="1158.5,-.5 1158.5,-19.5 1260.5,-19.5 1260.5,-.5 1158.5,-.5"/>
<text text-anchor="middle" x="1209.5" y="-7.5" font-family="Helvetica,sans-Serif" font-size="10.00" fill="#000000">CompValidator.cpp</text>
</a>
</g>
</g>
<!-- Node2&#45;&gt;Node4 -->
<g id="edge3" class="edge">
<title>Node2&#45;&gt;Node4</title>
<path fill="none" stroke="#191970" d="M1209.5,-46.1575C1209.5,-37.155 1209.5,-26.9199 1209.5,-19.6427"/>
<polygon fill="#191970" stroke="#191970" points="1206.0001,-46.2455 1209.5,-56.2455 1213.0001,-46.2456 1206.0001,-46.2455"/>
</g>
<!-- Node7&#45;&gt;Node2 -->
<g id="edge7" class="edge">
<title>Node7&#45;&gt;Node2</title>
<path fill="none" stroke="#191970" d="M941.883,-159.7121C933.6102,-145.2518 926.223,-125.3443 937.5,-112 940.9053,-107.9705 1068.5496,-87.6854 1147.7476,-75.4379"/>
<polygon fill="#191970" stroke="#191970" points="938.9881,-161.684 947.2599,-168.3043 944.9219,-157.9706 938.9881,-161.684"/>
</g>
<!-- Node8 -->
<g id="node8" class="node">
<title>Node8</title>
<g id="a_node8"><a xlink:href="_comp_model_plugin_8h.html" target="_top" xlink:title="Definition of CompModelPlugin, the plugin class of comp package for the Model element. ">
<polygon fill="#ffffff" stroke="#000000" points="584,-112.5 584,-131.5 691,-131.5 691,-112.5 584,-112.5"/>
<text text-anchor="middle" x="637.5" y="-119.5" font-family="Helvetica,sans-Serif" font-size="10.00" fill="#000000">CompModelPlugin.h</text>
</a>
</g>
</g>
<!-- Node7&#45;&gt;Node8 -->
<g id="edge8" class="edge">
<title>Node7&#45;&gt;Node8</title>
<path fill="none" stroke="#191970" d="M907.228,-169.6491C849.3573,-159.4259 751.5979,-142.1561 691.0184,-131.4544"/>
<polygon fill="#191970" stroke="#191970" points="906.7475,-173.1183 917.2039,-171.4114 907.9653,-166.2251 906.7475,-173.1183"/>
</g>
<!-- Node18 -->
<g id="node18" class="node">
<title>Node18</title>
<g id="a_node18"><a xlink:href="_list_of_ports_8cpp.html" target="_top" xlink:title="Implementation of ListOfPorts. ">
<polygon fill="#ffffff" stroke="#000000" points="947,-112.5 947,-131.5 1032,-131.5 1032,-112.5 947,-112.5"/>
<text text-anchor="middle" x="989.5" y="-119.5" font-family="Helvetica,sans-Serif" font-size="10.00" fill="#000000">ListOfPorts.cpp</text>
</a>
</g>
</g>
<!-- Node7&#45;&gt;Node18 -->
<g id="edge23" class="edge">
<title>Node7&#45;&gt;Node18</title>
<path fill="none" stroke="#191970" d="M965.9815,-159.6296C971.8196,-150.2887 978.6752,-139.3197 983.4733,-131.6427"/>
<polygon fill="#191970" stroke="#191970" points="962.9286,-157.9105 960.5965,-168.2455 968.8646,-161.6206 962.9286,-157.9105"/>
</g>
<!-- Node19 -->
<g id="node19" class="node">
<title>Node19</title>
<g id="a_node19"><a xlink:href="_model_definition_8cpp.html" target="_top" xlink:title="Implementation of ModelDefinition, the Subelement derived class of modelDefinitions package...">
<polygon fill="#ffffff" stroke="#000000" points="786.5,-112.5 786.5,-131.5 890.5,-131.5 890.5,-112.5 786.5,-112.5"/>
<text text-anchor="middle" x="838.5" y="-119.5" font-family="Helvetica,sans-Serif" font-size="10.00" fill="#000000">ModelDefinition.cpp</text>
</a>
</g>
</g>
<!-- Node7&#45;&gt;Node19 -->
<g id="edge24" class="edge">
<title>Node7&#45;&gt;Node19</title>
<path fill="none" stroke="#191970" d="M925.4463,-163.9741C904.4435,-153.8348 876.6309,-140.408 858.1809,-131.5011"/>
<polygon fill="#191970" stroke="#191970" points="924.0317,-167.1776 934.5589,-168.3733 927.075,-160.8738 924.0317,-167.1776"/>
</g>
<!-- Node7&#45;&gt;Node20 -->
<g id="edge25" class="edge">
<title>Node7&#45;&gt;Node20</title>
<path fill="none" stroke="#191970" d="M985.0065,-164.1109C1007.3112,-153.9559 1036.9799,-140.4482 1056.6315,-131.5011"/>
<polygon fill="#191970" stroke="#191970" points="983.2953,-161.0442 975.6445,-168.3733 986.1959,-167.415 983.2953,-161.0442"/>
</g>
<!-- Node8&#45;&gt;Node2 -->
<g id="edge9" class="edge">
<title>Node8&#45;&gt;Node2</title>
<path fill="none" stroke="#191970" d="M701.398,-117.1285C796.722,-109.636 981.7522,-94.2238 1138.5,-76 1141.5912,-75.6406 1144.7557,-75.2561 1147.9498,-74.8547"/>
<polygon fill="#191970" stroke="#191970" points="701.0373,-113.646 691.341,-117.9158 701.5837,-120.6246 701.0373,-113.646"/>
</g>
<!-- Node8&#45;&gt;Node5 -->
<g id="edge13" class="edge">
<title>Node8&#45;&gt;Node5</title>
<path fill="none" stroke="#191970" d="M573.6146,-118.7766C471.8645,-113.1514 266.8799,-99.8089 94.5,-76 91.4037,-75.5723 88.2126,-75.0819 85.0066,-74.5529"/>
<polygon fill="#191970" stroke="#191970" points="573.5511,-122.2783 583.7272,-119.329 573.933,-115.2887 573.5511,-122.2783"/>
</g>
<!-- Node9 -->
<g id="node9" class="node">
<title>Node9</title>
<g id="a_node9"><a xlink:href="_comp_extension_8cpp.html" target="_top" xlink:title="Implementation of CompExtension, the core module of comp package. ">
<polygon fill="#ffffff" stroke="#000000" points="535.5,-.5 535.5,-19.5 641.5,-19.5 641.5,-.5 535.5,-.5"/>
<text text-anchor="middle" x="588.5" y="-7.5" font-family="Helvetica,sans-Serif" font-size="10.00" fill="#000000">CompExtension.cpp</text>
</a>
</g>
</g>
<!-- Node8&#45;&gt;Node9 -->
<g id="edge10" class="edge">
<title>Node8&#45;&gt;Node9</title>
<path fill="none" stroke="#191970" d="M596.478,-108.1141C581.8194,-100.9429 566.8705,-90.5601 558.5,-76 547.4593,-56.7952 565.7792,-32.8017 578.3074,-19.6812"/>
<polygon fill="#191970" stroke="#191970" points="595.4395,-111.4838 605.9968,-112.3744 598.2991,-105.0945 595.4395,-111.4838"/>
</g>
<!-- Node10 -->
<g id="node10" class="node">
<title>Node10</title>
<g id="a_node10"><a xlink:href="_comp_model_plugin_8cpp.html" target="_top" xlink:title="Implementation of CompModelPlugin, the plugin class of comp package for the SBase element...">
<polygon fill="#ffffff" stroke="#000000" points="725,-56.5 725,-75.5 842,-75.5 842,-56.5 725,-56.5"/>
<text text-anchor="middle" x="783.5" y="-63.5" font-family="Helvetica,sans-Serif" font-size="10.00" fill="#000000">CompModelPlugin.cpp</text>
</a>
</g>
</g>
<!-- Node8&#45;&gt;Node10 -->
<g id="edge11" class="edge">
<title>Node8&#45;&gt;Node10</title>
<path fill="none" stroke="#191970" d="M671.9435,-108.7888C698.6013,-98.5639 734.88,-84.6488 758.7292,-75.5011"/>
<polygon fill="#191970" stroke="#191970" points="670.6816,-105.5241 662.5983,-112.3733 673.1885,-112.0598 670.6816,-105.5241"/>
</g>
<!-- Node11 -->
<g id="node11" class="node">
<title>Node11</title>
<g id="a_node11"><a xlink:href="_comp_s_b_m_l_document_plugin_8cpp.html" target="_top" xlink:title="Implementation of CompSBMLDocumentPlugin, the plugin class of comp package for the SBase element...">
<polygon fill="#ffffff" stroke="#000000" points="860,-56.5 860,-75.5 1023,-75.5 1023,-56.5 860,-56.5"/>
<text text-anchor="middle" x="941.5" y="-63.5" font-family="Helvetica,sans-Serif" font-size="10.00" fill="#000000">CompSBMLDocumentPlugin.cpp</text>
</a>
</g>
</g>
<!-- Node8&#45;&gt;Node11 -->
<g id="edge12" class="edge">
<title>Node8&#45;&gt;Node11</title>
<path fill="none" stroke="#191970" d="M699.5736,-110.5654C755.6404,-100.2373 837.1954,-85.214 889.8001,-75.5237"/>
<polygon fill="#191970" stroke="#191970" points="698.6145,-107.1831 689.414,-112.4369 699.8827,-114.0673 698.6145,-107.1831"/>
</g>
<!-- Node12 -->
<g id="node12" class="node">
<title>Node12</title>
<g id="a_node12"><a xlink:href="_replaced_by_8cpp.html" target="_top" xlink:title="Implementation of ReplacedBy, the SBaseRef derived class of the comp package. ">
<polygon fill="#ffffff" stroke="#000000" points="1041,-56.5 1041,-75.5 1130,-75.5 1130,-56.5 1041,-56.5"/>
<text text-anchor="middle" x="1085.5" y="-63.5" font-family="Helvetica,sans-Serif" font-size="10.00" fill="#000000">ReplacedBy.cpp</text>
</a>
</g>
</g>
<!-- Node8&#45;&gt;Node12 -->
<g id="edge14" class="edge">
<title>Node8&#45;&gt;Node12</title>
<path fill="none" stroke="#191970" d="M701.3409,-115.8727C779.4126,-108.0741 915.4948,-93.4931 1031.5,-76 1034.5169,-75.5451 1037.6233,-75.0476 1040.7498,-74.5254"/>
<polygon fill="#191970" stroke="#191970" points="700.788,-112.4103 691.183,-116.8817 701.48,-119.376 700.788,-112.4103"/>
</g>
<!-- Node13 -->
<g id="node13" class="node">
<title>Node13</title>
<g id="a_node13"><a xlink:href="_replaced_element_8cpp.html" target="_top" xlink:title="Implementation of ReplacedElement, the Subelement derived class of replacedElements package...">
<polygon fill="#ffffff" stroke="#000000" points="103.5,-56.5 103.5,-75.5 217.5,-75.5 217.5,-56.5 103.5,-56.5"/>
<text text-anchor="middle" x="160.5" y="-63.5" font-family="Helvetica,sans-Serif" font-size="10.00" fill="#000000">ReplacedElement.cpp</text>
</a>
</g>
</g>
<!-- Node8&#45;&gt;Node13 -->
<g id="edge15" class="edge">
<title>Node8&#45;&gt;Node13</title>
<path fill="none" stroke="#191970" d="M573.8668,-115.6536C493.012,-107.4115 349.2074,-92.1566 226.5,-76 223.6275,-75.6218 220.6866,-75.2221 217.7181,-74.8087"/>
<polygon fill="#191970" stroke="#191970" points="573.5866,-119.1431 583.8892,-116.6722 574.2944,-112.179 573.5866,-119.1431"/>
</g>
<!-- Node14 -->
<g id="node14" class="node">
<title>Node14</title>
<g id="a_node14"><a xlink:href="_replacing_8cpp.html" target="_top" xlink:title="Implementation of Replacing, the SBaseRef derived class of Replacings package. ">
<polygon fill="#ffffff" stroke="#000000" points="235.5,-56.5 235.5,-75.5 315.5,-75.5 315.5,-56.5 235.5,-56.5"/>
<text text-anchor="middle" x="275.5" y="-63.5" font-family="Helvetica,sans-Serif" font-size="10.00" fill="#000000">Replacing.cpp</text>
</a>
</g>
</g>
<!-- Node8&#45;&gt;Node14 -->
<g id="edge16" class="edge">
<title>Node8&#45;&gt;Node14</title>
<path fill="none" stroke="#191970" d="M573.6749,-113.6743C510.3054,-105.1601 410.4642,-91.0768 324.5,-76 321.5924,-75.4901 318.5928,-74.9392 315.577,-74.3672"/>
<polygon fill="#191970" stroke="#191970" points="573.5347,-117.1866 583.9105,-115.0437 574.463,-110.2485 573.5347,-117.1866"/>
</g>
<!-- Node15 -->
<g id="node15" class="node">
<title>Node15</title>
<g id="a_node15"><a xlink:href="_s_base_ref_8cpp.html" target="_top" xlink:title="Implementation of SBaseRef, the SBase&#45;derived class of the comp package. ">
<polygon fill="#ffffff" stroke="#000000" points="333.5,-56.5 333.5,-75.5 413.5,-75.5 413.5,-56.5 333.5,-56.5"/>
<text text-anchor="middle" x="373.5" y="-63.5" font-family="Helvetica,sans-Serif" font-size="10.00" fill="#000000">SBaseRef.cpp</text>
</a>
</g>
</g>
<!-- Node8&#45;&gt;Node15 -->
<g id="edge17" class="edge">
<title>Node8&#45;&gt;Node15</title>
<path fill="none" stroke="#191970" d="M582.3467,-110.3008C531.9641,-99.6136 458.6641,-84.0651 413.6413,-74.5148"/>
<polygon fill="#191970" stroke="#191970" points="581.9081,-113.7856 592.4167,-112.4369 583.3607,-106.9379 581.9081,-113.7856"/>
</g>
<!-- Node16 -->
<g id="node16" class="node">
<title>Node16</title>
<g id="a_node16"><a xlink:href="_submodel_8cpp.html" target="_top" xlink:title="Implementation of Submodel, the SBase&#45;derived class of the comp package. ">
<polygon fill="#ffffff" stroke="#000000" points="431.5,-56.5 431.5,-75.5 511.5,-75.5 511.5,-56.5 431.5,-56.5"/>
<text text-anchor="middle" x="471.5" y="-63.5" font-family="Helvetica,sans-Serif" font-size="10.00" fill="#000000">Submodel.cpp</text>
</a>
</g>
</g>
<!-- Node8&#45;&gt;Node16 -->
<g id="edge18" class="edge">
<title>Node8&#45;&gt;Node16</title>
<path fill="none" stroke="#191970" d="M599.1333,-109.057C568.7534,-98.8084 527.0181,-84.729 499.664,-75.5011"/>
<polygon fill="#191970" stroke="#191970" points="598.3694,-112.4931 608.9636,-112.3733 600.607,-105.8603 598.3694,-112.4931"/>
</g>
<!-- Node17 -->
<g id="node17" class="node">
<title>Node17</title>
<g id="a_node17"><a xlink:href="_comp_flattening_converter_8h.html" target="_top" xlink:title="Definition of a first flattening converter. ">
<polygon fill="#ffffff" stroke="#000000" points="568,-56.5 568,-75.5 707,-75.5 707,-56.5 568,-56.5"/>
<text text-anchor="middle" x="637.5" y="-63.5" font-family="Helvetica,sans-Serif" font-size="10.00" fill="#000000">CompFlatteningConverter.h</text>
</a>
</g>
</g>
<!-- Node8&#45;&gt;Node17 -->
<g id="edge19" class="edge">
<title>Node8&#45;&gt;Node17</title>
<path fill="none" stroke="#191970" d="M631.0113,-102.1575C630.419,-93.155 630.8335,-82.9199 632.2549,-75.6427"/>
<polygon fill="#191970" stroke="#191970" points="627.5561,-102.739 632.2332,-112.2455 634.5053,-101.8972 627.5561,-102.739"/>
</g>
<!-- Node17&#45;&gt;Node3 -->
<g id="edge22" class="edge">
<title>Node17&#45;&gt;Node3</title>
<path fill="none" stroke="#191970" d="M692.414,-54.3073C740.8763,-43.9883 810.6405,-29.1336 855.7728,-19.5237"/>
<polygon fill="#191970" stroke="#191970" points="691.4643,-50.931 682.4125,-56.4369 692.9222,-57.7775 691.4643,-50.931"/>
</g>
<!-- Node17&#45;&gt;Node8 -->
<g id="edge21" class="edge">
<title>Node17&#45;&gt;Node8</title>
<path fill="none" stroke="#191970" d="M643.9795,-85.7046C644.5821,-94.6944 644.1779,-104.9382 642.7668,-112.2455"/>
<polygon fill="#191970" stroke="#191970" points="647.4368,-85.1421 642.7451,-75.6427 640.4889,-85.9945 647.4368,-85.1421"/>
</g>
<!-- Node17&#45;&gt;Node9 -->
<g id="edge20" class="edge">
<title>Node17&#45;&gt;Node9</title>
<path fill="none" stroke="#191970" d="M622.1878,-48.5004C613.8553,-38.9775 603.8647,-27.5596 596.9373,-19.6427"/>
<polygon fill="#191970" stroke="#191970" points="619.7457,-51.0245 628.9649,-56.2455 625.0138,-46.415 619.7457,-51.0245"/>
</g>
</g>
</svg>
        <g id="navigator" transform="translate(0 0)" fill="#404254">
                <rect fill="#f2f5e9" fill-opacity="0.5" stroke="#606060" stroke-width=".5" x="0" y="0" width="60" height="60"/>
                <use id="zoomplus" xlink:href="#zoomPlus" x="17" y="9" onmousedown="handleZoom(evt,'in')"/>
                <use id="zoomminus" xlink:href="#zoomMin" x="42" y="9" onmousedown="handleZoom(evt,'out')"/>
                <use id="reset" xlink:href="#resetDef" x="30" y="36" onmousedown="handleReset()"/>
                <g id="arrowUp" xlink:href="#dirArrow" transform="translate(30 24)" onmousedown="handlePan(0,-1)">
                  <use xlink:href="#rim" fill="#404040">
                        <set attributeName="fill" to="#808080" begin="arrowUp.mouseover" end="arrowUp.mouseout"/>
                  </use>
                  <path fill="none" stroke="white" stroke-width="1.5" d="M0,-3.0v7 M-2.5,-0.5L0,-3.0L2.5,-0.5"/>
                </g>
                <g id="arrowRight" xlink:href="#dirArrow" transform="rotate(90) translate(36 -43)" onmousedown="handlePan(1,0)">
                  <use xlink:href="#rim" fill="#404040">
                        <set attributeName="fill" to="#808080" begin="arrowRight.mouseover" end="arrowRight.mouseout"/>
                  </use>
                  <path fill="none" stroke="white" stroke-width="1.5" d="M0,-3.0v7 M-2.5,-0.5L0,-3.0L2.5,-0.5"/>
                </g>
                <g id="arrowDown" xlink:href="#dirArrow" transform="rotate(180) translate(-30 -48)" onmousedown="handlePan(0,1)">
                  <use xlink:href="#rim" fill="#404040">
                        <set attributeName="fill" to="#808080" begin="arrowDown.mouseover" end="arrowDown.mouseout"/>
                  </use>
                  <path fill="none" stroke="white" stroke-width="1.5" d="M0,-3.0v7 M-2.5,-0.5L0,-3.0L2.5,-0.5"/>
                </g>
                <g id="arrowLeft" xlink:href="#dirArrow" transform="rotate(270) translate(-36 17)" onmousedown="handlePan(-1,0)">
                  <use xlink:href="#rim" fill="#404040">
                        <set attributeName="fill" to="#808080" begin="arrowLeft.mouseover" end="arrowLeft.mouseout"/>
                  </use>
                  <path fill="none" stroke="white" stroke-width="1.5" d="M0,-3.0v7 M-2.5,-0.5L0,-3.0L2.5,-0.5"/>
                </g>
        </g>
        <svg viewBox="0 0 15 15" width="100%" height="30px" preserveAspectRatio="xMaxYMin meet">
         <g id="arrow_out" transform="scale(0.3 0.3)">
          <a xlink:href="_port_8h__dep__incl_org.svg" target="_base">
           <rect id="button" ry="5" rx="5" y="6" x="6" height="38" width="38"
                fill="#f2f5e9" fill-opacity="0.5" stroke="#606060" stroke-width="1.0"/>
           <path id="arrow"
             d="M 11.500037,31.436501 C 11.940474,20.09759 22.043105,11.32322 32.158766,21.979434 L 37.068811,17.246167 C 37.068811,17.246167 37.088388,32 37.088388,32 L 22.160133,31.978069 C 22.160133,31.978069 26.997745,27.140456 26.997745,27.140456 C 18.528582,18.264221 13.291696,25.230495 11.500037,31.436501 z"
             style="fill:#404040;"/>
          </a>
         </g>
        </svg>
</svg>
