<?xml version="1.0" encoding="UTF-8" standalone="no"?>
<!DOCTYPE svg PUBLIC "-//W3C//DTD SVG 1.1//EN"
 "http://www.w3.org/Graphics/SVG/1.1/DTD/svg11.dtd">
<!-- Generated by graphviz version 2.40.1 (20161225.0304)
 -->
<!-- Title: RDFAnnotation.h Pages: 1 -->
<svg width="1430pt" height="744pt"
 viewBox="0.00 0.00 1430.00 744.00" xmlns="http://www.w3.org/2000/svg" xmlns:xlink="http://www.w3.org/1999/xlink">
<g id="graph0" class="graph" transform="scale(1 1) rotate(0) translate(4 740)">
<title>RDFAnnotation.h</title>
<polygon fill="#ffffff" stroke="transparent" points="-4,4 -4,-740 1426,-740 1426,4 -4,4"/>
<!-- Node1 -->
<g id="node1" class="node">
<title>Node1</title>
<polygon fill="#bfbfbf" stroke="#000000" points="1129.5,-716.5 1129.5,-735.5 1222.5,-735.5 1222.5,-716.5 1129.5,-716.5"/>
<text text-anchor="middle" x="1176" y="-723.5" font-family="Helvetica,sans-Serif" font-size="10.00" fill="#000000">RDFAnnotation.h</text>
</g>
<!-- Node2 -->
<g id="node2" class="node">
<title>Node2</title>
<g id="a_node2"><a xlink:href="_r_d_f_annotation_parser_8h.html" target="_top" xlink:title="RDFAnnotationParser.h">
<polygon fill="#ffffff" stroke="#000000" points="1114.5,-660.5 1114.5,-679.5 1237.5,-679.5 1237.5,-660.5 1114.5,-660.5"/>
<text text-anchor="middle" x="1176" y="-667.5" font-family="Helvetica,sans-Serif" font-size="10.00" fill="#000000">RDFAnnotationParser.h</text>
</a>
</g>
</g>
<!-- Node1&#45;&gt;Node2 -->
<g id="edge1" class="edge">
<title>Node1&#45;&gt;Node2</title>
<path fill="none" stroke="#191970" d="M1176,-716.2455C1176,-708.9382 1176,-698.6944 1176,-689.7046"/>
<polygon fill="#191970" stroke="#191970" points="1179.5001,-689.6426 1176,-679.6427 1172.5001,-689.6427 1179.5001,-689.6426"/>
</g>
<!-- Node3 -->
<g id="node3" class="node">
<title>Node3</title>
<g id="a_node3"><a xlink:href="extern_8h.html" target="_top" xlink:title="Definitions of LIBSBML_EXTERN and related things. ">
<polygon fill="#ffffff" stroke="#000000" points="857,-67.5 857,-86.5 975,-86.5 975,-67.5 857,-67.5"/>
<text text-anchor="middle" x="916" y="-74.5" font-family="Helvetica,sans-Serif" font-size="10.00" fill="#000000">sbml/common/extern.h</text>
</a>
</g>
</g>
<!-- Node2&#45;&gt;Node3 -->
<g id="edge2" class="edge">
<title>Node2&#45;&gt;Node3</title>
<path fill="none" stroke="#191970" d="M1181.607,-660.4834C1192.1774,-641.6141 1214,-597.8343 1214,-558 1214,-558 1214,-558 1214,-205.5 1214,-149.579 1168.8836,-148.2742 1119,-123 1077.2479,-101.8457 1025.7796,-90.3221 985.1149,-84.0991"/>
<polygon fill="#191970" stroke="#191970" points="985.4219,-80.607 975.0217,-82.6286 984.4126,-87.5338 985.4219,-80.607"/>
</g>
<!-- Node5 -->
<g id="node5" class="node">
<title>Node5</title>
<g id="a_node5"><a xlink:href="sbmlfwd_8h.html" target="_top" xlink:title="Forward declarations for all opaque C types. ">
<polygon fill="#ffffff" stroke="#000000" points="107.5,-257.5 107.5,-276.5 234.5,-276.5 234.5,-257.5 107.5,-257.5"/>
<text text-anchor="middle" x="171" y="-264.5" font-family="Helvetica,sans-Serif" font-size="10.00" fill="#000000">sbml/common/sbmlfwd.h</text>
</a>
</g>
</g>
<!-- Node2&#45;&gt;Node5 -->
<g id="edge4" class="edge">
<title>Node2&#45;&gt;Node5</title>
<path fill="none" stroke="#191970" d="M1114.4289,-667.3972C872.4581,-656.769 0,-614.5281 0,-558 0,-558 0,-558 0,-390 0,-349.9063 16.0524,-338.4903 47,-313 66.2213,-297.1682 91.4109,-286.4948 114.0625,-279.4504"/>
<polygon fill="#191970" stroke="#191970" points="115.3144,-282.7307 123.9243,-276.5566 113.3434,-276.0139 115.3144,-282.7307"/>
</g>
<!-- Node9 -->
<g id="node9" class="node">
<title>Node9</title>
<g id="a_node9"><a xlink:href="_x_m_l_attributes_8h.html" target="_top" xlink:title="XMLAttributes are a list of name/value pairs for XML elements. ">
<polygon fill="#ffffff" stroke="#000000" points="364,-380.5 364,-399.5 494,-399.5 494,-380.5 364,-380.5"/>
<text text-anchor="middle" x="429" y="-387.5" font-family="Helvetica,sans-Serif" font-size="10.00" fill="#000000">sbml/xml/XMLAttributes.h</text>
</a>
</g>
</g>
<!-- Node2&#45;&gt;Node9 -->
<g id="edge11" class="edge">
<title>Node2&#45;&gt;Node9</title>
<path fill="none" stroke="#191970" d="M1114.2389,-668.3949C918.071,-662.4861 322,-637.9537 322,-558 322,-558 322,-558 322,-502 322,-471.4754 321.6946,-459.6443 341,-436 353.0307,-421.2653 371.0395,-410.6866 387.6377,-403.4187"/>
<polygon fill="#191970" stroke="#191970" points="389.258,-406.5376 397.1917,-399.5157 386.6107,-400.0575 389.258,-406.5376"/>
</g>
<!-- Node12 -->
<g id="node12" class="node">
<title>Node12</title>
<polygon fill="#ffffff" stroke="#bfbfbf" points="707.5,-257.5 707.5,-276.5 748.5,-276.5 748.5,-257.5 707.5,-257.5"/>
<text text-anchor="middle" x="728" y="-264.5" font-family="Helvetica,sans-Serif" font-size="10.00" fill="#000000">string</text>
</g>
<!-- Node2&#45;&gt;Node12 -->
<g id="edge59" class="edge">
<title>Node2&#45;&gt;Node12</title>
<path fill="none" stroke="#191970" d="M1173.1438,-660.2748C1164.3065,-629.2942 1138,-530.0168 1138,-446 1138,-446 1138,-446 1138,-390 1138,-344.6362 1110.9398,-334.5103 1071,-313 1017.1785,-284.0135 832.1961,-272.044 758.5775,-268.3534"/>
<polygon fill="#191970" stroke="#191970" points="758.7102,-264.8558 748.5526,-267.8679 758.3716,-271.8476 758.7102,-264.8558"/>
</g>
<!-- Node16 -->
<g id="node16" class="node">
<title>Node16</title>
<g id="a_node16"><a xlink:href="_model_history_8h.html" target="_top" xlink:title="ModelHistory I/O. ">
<polygon fill="#ffffff" stroke="#000000" points="875.5,-604.5 875.5,-623.5 1032.5,-623.5 1032.5,-604.5 875.5,-604.5"/>
<text text-anchor="middle" x="954" y="-611.5" font-family="Helvetica,sans-Serif" font-size="10.00" fill="#000000">sbml/annotation/ModelHistory.h</text>
</a>
</g>
</g>
<!-- Node2&#45;&gt;Node16 -->
<g id="edge24" class="edge">
<title>Node2&#45;&gt;Node16</title>
<path fill="none" stroke="#191970" d="M1138.0891,-660.4369C1100.335,-650.9133 1042.2735,-636.2672 1001.4736,-625.9753"/>
<polygon fill="#191970" stroke="#191970" points="1002.3069,-622.576 991.7546,-623.5237 1000.5947,-629.3633 1002.3069,-622.576"/>
</g>
<!-- Node21 -->
<g id="node21" class="node">
<title>Node21</title>
<polygon fill="#ffffff" stroke="#bfbfbf" points="350.5,-436.5 350.5,-455.5 395.5,-455.5 395.5,-436.5 350.5,-436.5"/>
<text text-anchor="middle" x="373" y="-443.5" font-family="Helvetica,sans-Serif" font-size="10.00" fill="#000000">cstdlib</text>
</g>
<!-- Node2&#45;&gt;Node21 -->
<g id="edge61" class="edge">
<title>Node2&#45;&gt;Node21</title>
<path fill="none" stroke="#191970" d="M1114.3413,-663.0579C1051.6892,-655.4812 952.0329,-641.9886 867,-624 775.4343,-604.6294 752.4485,-598.6002 664,-568 566.4851,-534.2632 454.9293,-484.1244 402.7869,-459.9845"/>
<polygon fill="#191970" stroke="#191970" points="404.009,-456.693 393.4654,-455.6525 401.0588,-463.041 404.009,-456.693"/>
</g>
<!-- Node24 -->
<g id="node24" class="node">
<title>Node24</title>
<polygon fill="#ffffff" stroke="#bfbfbf" points="1242.5,-604.5 1242.5,-623.5 1281.5,-623.5 1281.5,-604.5 1242.5,-604.5"/>
<text text-anchor="middle" x="1262" y="-611.5" font-family="Helvetica,sans-Serif" font-size="10.00" fill="#000000">limits</text>
</g>
<!-- Node2&#45;&gt;Node24 -->
<g id="edge57" class="edge">
<title>Node2&#45;&gt;Node24</title>
<path fill="none" stroke="#191970" d="M1190.9801,-660.2455C1204.1751,-651.6534 1223.6051,-639.0014 1238.8079,-629.1018"/>
<polygon fill="#191970" stroke="#191970" points="1240.7215,-632.0325 1247.1916,-623.6427 1236.9017,-626.1665 1240.7215,-632.0325"/>
</g>
<!-- Node25 -->
<g id="node25" class="node">
<title>Node25</title>
<polygon fill="#ffffff" stroke="#bfbfbf" points="1300,-604.5 1300,-623.5 1352,-623.5 1352,-604.5 1300,-604.5"/>
<text text-anchor="middle" x="1326" y="-611.5" font-family="Helvetica,sans-Serif" font-size="10.00" fill="#000000">iomanip</text>
</g>
<!-- Node2&#45;&gt;Node25 -->
<g id="edge58" class="edge">
<title>Node2&#45;&gt;Node25</title>
<path fill="none" stroke="#191970" d="M1201.7859,-660.3733C1226.4047,-651.1822 1263.69,-637.2624 1290.9875,-627.0713"/>
<polygon fill="#191970" stroke="#191970" points="1292.4063,-630.2777 1300.5506,-623.5011 1289.958,-623.7198 1292.4063,-630.2777"/>
</g>
<!-- Node26 -->
<g id="node26" class="node">
<title>Node26</title>
<polygon fill="#ffffff" stroke="#bfbfbf" points="1370,-604.5 1370,-623.5 1422,-623.5 1422,-604.5 1370,-604.5"/>
<text text-anchor="middle" x="1396" y="-611.5" font-family="Helvetica,sans-Serif" font-size="10.00" fill="#000000">sstream</text>
</g>
<!-- Node2&#45;&gt;Node26 -->
<g id="edge60" class="edge">
<title>Node2&#45;&gt;Node26</title>
<path fill="none" stroke="#191970" d="M1216.1603,-660.4383C1251.5767,-651.9113 1304.8207,-638.8635 1359.7458,-624.2765"/>
<polygon fill="#191970" stroke="#191970" points="1360.894,-627.5927 1369.6538,-621.6331 1359.0895,-620.8293 1360.894,-627.5927"/>
</g>
<!-- Node4 -->
<g id="node4" class="node">
<title>Node4</title>
<g id="a_node4"><a xlink:href="libsbml-namespace_8h.html" target="_top" xlink:title="Defines C++ namespace of libSBML. ">
<polygon fill="#ffffff" stroke="#000000" points="385.5,-.5 385.5,-30.5 498.5,-30.5 498.5,-.5 385.5,-.5"/>
<text text-anchor="start" x="393.5" y="-18.5" font-family="Helvetica,sans-Serif" font-size="10.00" fill="#000000">sbml/common/libsbml</text>
<text text-anchor="middle" x="442" y="-7.5" font-family="Helvetica,sans-Serif" font-size="10.00" fill="#000000">&#45;namespace.h</text>
</a>
</g>
</g>
<!-- Node3&#45;&gt;Node4 -->
<g id="edge3" class="edge">
<title>Node3&#45;&gt;Node4</title>
<path fill="none" stroke="#191970" d="M856.926,-69.3353C768.4202,-57.852 601.8994,-36.2464 508.9862,-24.1912"/>
<polygon fill="#191970" stroke="#191970" points="509.2225,-20.6927 498.8553,-22.8768 508.3218,-27.6345 509.2225,-20.6927"/>
</g>
<!-- Node5&#45;&gt;Node4 -->
<g id="edge5" class="edge">
<title>Node5&#45;&gt;Node4</title>
<path fill="none" stroke="#191970" d="M176.5777,-257.3853C195.1184,-226.1364 257.7929,-126.0571 333,-67 349.8981,-53.7306 370.7713,-42.822 389.7143,-34.5145"/>
<polygon fill="#191970" stroke="#191970" points="391.2801,-37.6524 399.1218,-30.5278 388.5488,-31.2072 391.2801,-37.6524"/>
</g>
<!-- Node6 -->
<g id="node6" class="node">
<title>Node6</title>
<g id="a_node6"><a xlink:href="libsbml-config_8h.html" target="_top" xlink:title="Decides whether to #include Unix or Windows configuration variables. ">
<polygon fill="#ffffff" stroke="#000000" points="280.5,-190.5 280.5,-220.5 393.5,-220.5 393.5,-190.5 280.5,-190.5"/>
<text text-anchor="start" x="288.5" y="-208.5" font-family="Helvetica,sans-Serif" font-size="10.00" fill="#000000">sbml/common/libsbml</text>
<text text-anchor="middle" x="337" y="-197.5" font-family="Helvetica,sans-Serif" font-size="10.00" fill="#000000">&#45;config.h</text>
</a>
</g>
</g>
<!-- Node5&#45;&gt;Node6 -->
<g id="edge6" class="edge">
<title>Node5&#45;&gt;Node6</title>
<path fill="none" stroke="#191970" d="M196.9375,-257.3906C220.8597,-248.5279 257.0394,-235.1239 286.6348,-224.1594"/>
<polygon fill="#191970" stroke="#191970" points="288.2306,-227.3007 296.3918,-220.5446 285.7987,-220.7367 288.2306,-227.3007"/>
</g>
<!-- Node6&#45;&gt;Node4 -->
<g id="edge7" class="edge">
<title>Node6&#45;&gt;Node4</title>
<path fill="none" stroke="#191970" d="M325.6668,-190.4353C314.4377,-173.5339 300.3411,-145.5352 311,-123 329.6622,-83.5441 370.6889,-53.7163 401.8916,-35.6081"/>
<polygon fill="#191970" stroke="#191970" points="403.8134,-38.5429 410.8138,-30.5902 400.382,-32.4416 403.8134,-38.5429"/>
</g>
<!-- Node7 -->
<g id="node7" class="node">
<title>Node7</title>
<g id="a_node7"><a xlink:href="libsbml-config-common_8h.html" target="_top" xlink:title="Configuration variables. ">
<polygon fill="#ffffff" stroke="#000000" points="320.5,-123.5 320.5,-153.5 433.5,-153.5 433.5,-123.5 320.5,-123.5"/>
<text text-anchor="start" x="328.5" y="-141.5" font-family="Helvetica,sans-Serif" font-size="10.00" fill="#000000">sbml/common/libsbml</text>
<text text-anchor="middle" x="377" y="-130.5" font-family="Helvetica,sans-Serif" font-size="10.00" fill="#000000">&#45;config&#45;common.h</text>
</a>
</g>
</g>
<!-- Node6&#45;&gt;Node7 -->
<g id="edge8" class="edge">
<title>Node6&#45;&gt;Node7</title>
<path fill="none" stroke="#191970" d="M346.0766,-190.2967C350.9863,-182.0729 357.1629,-171.7272 362.7025,-162.4483"/>
<polygon fill="#191970" stroke="#191970" points="365.8383,-164.0236 367.9593,-153.6432 359.828,-160.4352 365.8383,-164.0236"/>
</g>
<!-- Node8 -->
<g id="node8" class="node">
<title>Node8</title>
<g id="a_node8"><a xlink:href="libsbml-version_8h.html" target="_top" xlink:title="Define libSBML version numbers for access from client software. ">
<polygon fill="#ffffff" stroke="#000000" points="451.5,-123.5 451.5,-153.5 564.5,-153.5 564.5,-123.5 451.5,-123.5"/>
<text text-anchor="start" x="459.5" y="-141.5" font-family="Helvetica,sans-Serif" font-size="10.00" fill="#000000">sbml/common/libsbml</text>
<text text-anchor="middle" x="508" y="-130.5" font-family="Helvetica,sans-Serif" font-size="10.00" fill="#000000">&#45;version.h</text>
</a>
</g>
</g>
<!-- Node6&#45;&gt;Node8 -->
<g id="edge9" class="edge">
<title>Node6&#45;&gt;Node8</title>
<path fill="none" stroke="#191970" d="M375.3757,-190.4639C400.3701,-180.6708 433.178,-167.8162 459.9092,-157.3426"/>
<polygon fill="#191970" stroke="#191970" points="461.4229,-160.5086 469.4569,-153.6017 458.8692,-153.9911 461.4229,-160.5086"/>
</g>
<!-- Node8&#45;&gt;Node3 -->
<g id="edge10" class="edge">
<title>Node8&#45;&gt;Node3</title>
<path fill="none" stroke="#191970" d="M564.7307,-129.9487C638.5382,-118.8233 767.4169,-99.3967 846.8615,-87.4216"/>
<polygon fill="#191970" stroke="#191970" points="847.4089,-90.8787 856.7755,-85.9272 846.3655,-83.9569 847.4089,-90.8787"/>
</g>
<!-- Node9&#45;&gt;Node5 -->
<g id="edge14" class="edge">
<title>Node9&#45;&gt;Node5</title>
<path fill="none" stroke="#191970" d="M363.8705,-382.3148C327.6423,-375.9481 282.7831,-364.4761 247,-344 220.9007,-329.0652 197.7223,-302.6965 184.0186,-285.0353"/>
<polygon fill="#191970" stroke="#191970" points="186.5582,-282.589 177.7508,-276.7001 180.9635,-286.7961 186.5582,-282.589"/>
</g>
<!-- Node10 -->
<g id="node10" class="node">
<title>Node10</title>
<g id="a_node10"><a xlink:href="_x_m_l_extern_8h.html" target="_top" xlink:title="Defines LIBLAX_EXTERN. ">
<polygon fill="#ffffff" stroke="#000000" points="534.5,-257.5 534.5,-276.5 651.5,-276.5 651.5,-257.5 534.5,-257.5"/>
<text text-anchor="middle" x="593" y="-264.5" font-family="Helvetica,sans-Serif" font-size="10.00" fill="#000000">sbml/xml/XMLExtern.h</text>
</a>
</g>
</g>
<!-- Node9&#45;&gt;Node10 -->
<g id="edge12" class="edge">
<title>Node9&#45;&gt;Node10</title>
<path fill="none" stroke="#191970" d="M405.8888,-380.4901C390.9702,-372.9878 372.7669,-360.9445 364,-344 357.6687,-331.7631 355.2695,-323.6586 364,-313 383.979,-288.6087 464.1824,-276.8767 524.0733,-271.4244"/>
<polygon fill="#191970" stroke="#191970" points="524.5887,-274.8929 534.248,-270.54 523.9825,-267.9192 524.5887,-274.8929"/>
</g>
<!-- Node11 -->
<g id="node11" class="node">
<title>Node11</title>
<g id="a_node11"><a xlink:href="operation_return_values_8h.html" target="_top" xlink:title="Enumeration of values returned by operations within libSBML. ">
<polygon fill="#ffffff" stroke="#000000" points="908.5,-313.5 908.5,-343.5 1061.5,-343.5 1061.5,-313.5 908.5,-313.5"/>
<text text-anchor="start" x="916.5" y="-331.5" font-family="Helvetica,sans-Serif" font-size="10.00" fill="#000000">sbml/common/operationReturn</text>
<text text-anchor="middle" x="985" y="-320.5" font-family="Helvetica,sans-Serif" font-size="10.00" fill="#000000">Values.h</text>
</a>
</g>
</g>
<!-- Node9&#45;&gt;Node11 -->
<g id="edge15" class="edge">
<title>Node9&#45;&gt;Node11</title>
<path fill="none" stroke="#191970" d="M494.1416,-382.7946C594.2497,-371.7215 786.0448,-350.5067 897.9547,-338.1282"/>
<polygon fill="#191970" stroke="#191970" points="898.6423,-341.5736 908.1969,-336.9953 897.8727,-334.616 898.6423,-341.5736"/>
</g>
<!-- Node9&#45;&gt;Node12 -->
<g id="edge17" class="edge">
<title>Node9&#45;&gt;Node12</title>
<path fill="none" stroke="#191970" d="M443.3834,-380.4346C456.9047,-371.3354 477.6086,-357.125 495,-344 512.3975,-330.8704 513.4502,-322.6368 533,-313 561.7152,-298.8453 649.9576,-281.2628 697.2737,-272.5006"/>
<polygon fill="#191970" stroke="#191970" points="698.0586,-275.9151 707.2635,-270.6691 696.7962,-269.0298 698.0586,-275.9151"/>
</g>
<!-- Node13 -->
<g id="node13" class="node">
<title>Node13</title>
<polygon fill="#ffffff" stroke="#bfbfbf" points="542,-319 542,-338 586,-338 586,-319 542,-319"/>
<text text-anchor="middle" x="564" y="-326" font-family="Helvetica,sans-Serif" font-size="10.00" fill="#000000">vector</text>
</g>
<!-- Node9&#45;&gt;Node13 -->
<g id="edge18" class="edge">
<title>Node9&#45;&gt;Node13</title>
<path fill="none" stroke="#191970" d="M450.0938,-380.3906C472.5827,-370.1457 508.3918,-353.8326 533.8524,-342.2339"/>
<polygon fill="#191970" stroke="#191970" points="535.4052,-345.3727 543.0544,-338.0419 532.5032,-339.0025 535.4052,-345.3727"/>
</g>
<!-- Node14 -->
<g id="node14" class="node">
<title>Node14</title>
<polygon fill="#ffffff" stroke="#bfbfbf" points="256.5,-319 256.5,-338 315.5,-338 315.5,-319 256.5,-319"/>
<text text-anchor="middle" x="286" y="-326" font-family="Helvetica,sans-Serif" font-size="10.00" fill="#000000">stdexcept</text>
</g>
<!-- Node9&#45;&gt;Node14 -->
<g id="edge19" class="edge">
<title>Node9&#45;&gt;Node14</title>
<path fill="none" stroke="#191970" d="M406.6563,-380.3906C382.7297,-370.1005 344.5691,-353.6888 317.5784,-342.0809"/>
<polygon fill="#191970" stroke="#191970" points="318.7561,-338.7775 308.1869,-338.0419 315.9905,-345.208 318.7561,-338.7775"/>
</g>
<!-- Node15 -->
<g id="node15" class="node">
<title>Node15</title>
<g id="a_node15"><a xlink:href="_x_m_l_triple_8h.html" target="_top" xlink:title="Stores an XML namespace triple. ">
<polygon fill="#ffffff" stroke="#000000" points="372.5,-319 372.5,-338 485.5,-338 485.5,-319 372.5,-319"/>
<text text-anchor="middle" x="429" y="-326" font-family="Helvetica,sans-Serif" font-size="10.00" fill="#000000">sbml/xml/XMLTriple.h</text>
</a>
</g>
</g>
<!-- Node9&#45;&gt;Node15 -->
<g id="edge20" class="edge">
<title>Node9&#45;&gt;Node15</title>
<path fill="none" stroke="#191970" d="M429,-380.3906C429,-371.8657 429,-359.1392 429,-348.4235"/>
<polygon fill="#191970" stroke="#191970" points="432.5001,-348.2448 429,-338.2449 425.5001,-348.2449 432.5001,-348.2448"/>
</g>
<!-- Node10&#45;&gt;Node4 -->
<g id="edge13" class="edge">
<title>Node10&#45;&gt;Node4</title>
<path fill="none" stroke="#191970" d="M594.071,-257.1489C596.2538,-232.6878 599.0797,-167.9142 574,-123 552.4268,-84.3654 510.9376,-54.1515 480.207,-35.7235"/>
<polygon fill="#191970" stroke="#191970" points="481.8517,-32.6309 471.4506,-30.6141 478.3238,-38.677 481.8517,-32.6309"/>
</g>
<!-- Node11&#45;&gt;Node3 -->
<g id="edge16" class="edge">
<title>Node11&#45;&gt;Node3</title>
<path fill="none" stroke="#191970" d="M980.7876,-313.1461C968.8166,-269.5127 934.6081,-144.8253 921.3453,-96.4832"/>
<polygon fill="#191970" stroke="#191970" points="924.6688,-95.3681 918.6476,-86.6505 917.9182,-97.2202 924.6688,-95.3681"/>
</g>
<!-- Node15&#45;&gt;Node5 -->
<g id="edge22" class="edge">
<title>Node15&#45;&gt;Node5</title>
<path fill="none" stroke="#191970" d="M388.9706,-318.9581C343.6845,-308.1632 269.8766,-290.5694 220.8794,-278.8899"/>
<polygon fill="#191970" stroke="#191970" points="221.6624,-275.4785 211.1233,-276.5643 220.0392,-282.2877 221.6624,-275.4785"/>
</g>
<!-- Node15&#45;&gt;Node10 -->
<g id="edge21" class="edge">
<title>Node15&#45;&gt;Node10</title>
<path fill="none" stroke="#191970" d="M454.625,-318.8906C482.4263,-308.4652 526.9844,-291.7559 557.9994,-280.1252"/>
<polygon fill="#191970" stroke="#191970" points="559.4206,-283.3303 567.5549,-276.5419 556.9627,-276.776 559.4206,-283.3303"/>
</g>
<!-- Node15&#45;&gt;Node12 -->
<g id="edge23" class="edge">
<title>Node15&#45;&gt;Node12</title>
<path fill="none" stroke="#191970" d="M472.1549,-318.9643C481.3401,-316.9668 490.9864,-314.893 500,-313 570.4615,-298.2018 653.3722,-281.703 697.211,-273.0509"/>
<polygon fill="#191970" stroke="#191970" points="698.0949,-276.4441 707.2292,-271.0761 696.741,-269.5762 698.0949,-276.4441"/>
</g>
<!-- Node16&#45;&gt;Node3 -->
<g id="edge25" class="edge">
<title>Node16&#45;&gt;Node3</title>
<path fill="none" stroke="#191970" d="M990.908,-604.4962C1054.0346,-585.767 1176,-537.7134 1176,-446 1176,-446 1176,-446 1176,-205.5 1176,-144.7439 1121.1187,-150.6129 1067,-123 1037.0843,-107.7362 1001.2065,-96.5447 971.9306,-89.0245"/>
<polygon fill="#191970" stroke="#191970" points="972.4209,-85.5397 961.8713,-86.517 970.7278,-92.3319 972.4209,-85.5397"/>
</g>
<!-- Node16&#45;&gt;Node5 -->
<g id="edge26" class="edge">
<title>Node16&#45;&gt;Node5</title>
<path fill="none" stroke="#191970" d="M875.1096,-612.5803C652.9212,-607.5425 38,-586.0112 38,-502 38,-502 38,-502 38,-390 38,-351.4356 50.4626,-339.9982 78,-313 92.7596,-298.5294 112.9731,-287.7891 130.7856,-280.3424"/>
<polygon fill="#191970" stroke="#191970" points="132.3756,-283.4773 140.3846,-276.5414 129.7984,-276.969 132.3756,-283.4773"/>
</g>
<!-- Node16&#45;&gt;Node11 -->
<g id="edge27" class="edge">
<title>Node16&#45;&gt;Node11</title>
<path fill="none" stroke="#191970" d="M997.8378,-604.4625C1019.1529,-597.6786 1043.4601,-586.396 1059,-568 1075.5554,-548.4018 1069.8654,-537.4627 1073,-512 1080.7206,-449.2851 1034.7051,-384.6387 1006.2664,-351.3677"/>
<polygon fill="#191970" stroke="#191970" points="1008.6835,-348.8156 999.4584,-343.6053 1003.4208,-353.4312 1008.6835,-348.8156"/>
</g>
<!-- Node16&#45;&gt;Node12 -->
<g id="edge56" class="edge">
<title>Node16&#45;&gt;Node12</title>
<path fill="none" stroke="#191970" d="M875.2889,-608.2917C818.0312,-602.3125 747.4419,-590.5172 729,-568 660.3741,-484.209 702.2119,-338.801 720.6315,-286.4675"/>
<polygon fill="#191970" stroke="#191970" points="724.0302,-287.3625 724.1584,-276.7685 717.4516,-284.9703 724.0302,-287.3625"/>
</g>
<!-- Node17 -->
<g id="node17" class="node">
<title>Node17</title>
<g id="a_node17"><a xlink:href="_list_8h.html" target="_top" xlink:title="Simple, generic list utility class. ">
<polygon fill="#ffffff" stroke="#000000" points="984,-492.5 984,-511.5 1064,-511.5 1064,-492.5 984,-492.5"/>
<text text-anchor="middle" x="1024" y="-499.5" font-family="Helvetica,sans-Serif" font-size="10.00" fill="#000000">sbml/util/List.h</text>
</a>
</g>
</g>
<!-- Node16&#45;&gt;Node17 -->
<g id="edge28" class="edge">
<title>Node16&#45;&gt;Node17</title>
<path fill="none" stroke="#191970" d="M992.0976,-604.4497C1010.8946,-597.6063 1031.8748,-586.2734 1043,-568 1051.9676,-553.2705 1044.7389,-534.1191 1036.7516,-520.2431"/>
<polygon fill="#191970" stroke="#191970" points="1039.5905,-518.1836 1031.2906,-511.5986 1033.6725,-521.9223 1039.5905,-518.1836"/>
</g>
<!-- Node19 -->
<g id="node19" class="node">
<title>Node19</title>
<g id="a_node19"><a xlink:href="_x_m_l_node_8h.html" target="_top" xlink:title="Class definition of XMLNode, a node in an XML document tree. ">
<polygon fill="#ffffff" stroke="#000000" points="573,-492.5 573,-511.5 685,-511.5 685,-492.5 573,-492.5"/>
<text text-anchor="middle" x="629" y="-499.5" font-family="Helvetica,sans-Serif" font-size="10.00" fill="#000000">sbml/xml/XMLNode.h</text>
</a>
</g>
</g>
<!-- Node16&#45;&gt;Node19 -->
<g id="edge31" class="edge">
<title>Node16&#45;&gt;Node19</title>
<path fill="none" stroke="#191970" d="M875.4151,-605.2975C811.0325,-597.2104 725.7262,-584.0193 695,-568 673.139,-556.6026 653.9513,-535.4415 641.9805,-520.1473"/>
<polygon fill="#191970" stroke="#191970" points="644.6113,-517.8225 635.8007,-511.9384 639.0189,-522.0326 644.6113,-517.8225"/>
</g>
<!-- Node22 -->
<g id="node22" class="node">
<title>Node22</title>
<g id="a_node22"><a xlink:href="_date_8h.html" target="_top" xlink:title="Date I/O. ">
<polygon fill="#ffffff" stroke="#000000" points="737.5,-548.5 737.5,-567.5 856.5,-567.5 856.5,-548.5 737.5,-548.5"/>
<text text-anchor="middle" x="797" y="-555.5" font-family="Helvetica,sans-Serif" font-size="10.00" fill="#000000">sbml/annotation/Date.h</text>
</a>
</g>
</g>
<!-- Node16&#45;&gt;Node22 -->
<g id="edge42" class="edge">
<title>Node16&#45;&gt;Node22</title>
<path fill="none" stroke="#191970" d="M927.0107,-604.3733C901.1301,-595.1419 861.8752,-581.1402 833.2711,-570.9375"/>
<polygon fill="#191970" stroke="#191970" points="834.2317,-567.5642 823.6371,-567.5011 831.88,-574.1573 834.2317,-567.5642"/>
</g>
<!-- Node23 -->
<g id="node23" class="node">
<title>Node23</title>
<g id="a_node23"><a xlink:href="_model_creator_8h.html" target="_top" xlink:title="ModelCreator I/O. ">
<polygon fill="#ffffff" stroke="#000000" points="874.5,-548.5 874.5,-567.5 1033.5,-567.5 1033.5,-548.5 874.5,-548.5"/>
<text text-anchor="middle" x="954" y="-555.5" font-family="Helvetica,sans-Serif" font-size="10.00" fill="#000000">sbml/annotation/ModelCreator.h</text>
</a>
</g>
</g>
<!-- Node16&#45;&gt;Node23 -->
<g id="edge49" class="edge">
<title>Node16&#45;&gt;Node23</title>
<path fill="none" stroke="#191970" d="M954,-604.2455C954,-596.9382 954,-586.6944 954,-577.7046"/>
<polygon fill="#191970" stroke="#191970" points="957.5001,-577.6426 954,-567.6427 950.5001,-577.6427 957.5001,-577.6426"/>
</g>
<!-- Node17&#45;&gt;Node3 -->
<g id="edge29" class="edge">
<title>Node17&#45;&gt;Node3</title>
<path fill="none" stroke="#191970" d="M1030.5696,-492.3274C1047.2635,-466.778 1090,-394.8883 1090,-328.5 1090,-328.5 1090,-328.5 1090,-205.5 1090,-142.1735 1014.4997,-106.5182 962.966,-89.5571"/>
<polygon fill="#191970" stroke="#191970" points="963.9173,-86.1872 953.3274,-86.5083 961.8062,-92.8612 963.9173,-86.1872"/>
</g>
<!-- Node18 -->
<g id="node18" class="node">
<title>Node18</title>
<polygon fill="#ffffff" stroke="#bfbfbf" points="984.5,-436.5 984.5,-455.5 1033.5,-455.5 1033.5,-436.5 984.5,-436.5"/>
<text text-anchor="middle" x="1009" y="-443.5" font-family="Helvetica,sans-Serif" font-size="10.00" fill="#000000">string.h</text>
</g>
<!-- Node17&#45;&gt;Node18 -->
<g id="edge30" class="edge">
<title>Node17&#45;&gt;Node18</title>
<path fill="none" stroke="#191970" d="M1021.3872,-492.2455C1019.4084,-484.8579 1016.6256,-474.4689 1014.1988,-465.4087"/>
<polygon fill="#191970" stroke="#191970" points="1017.5511,-464.3966 1011.5829,-455.6427 1010.7895,-466.2078 1017.5511,-464.3966"/>
</g>
<!-- Node19&#45;&gt;Node5 -->
<g id="edge39" class="edge">
<title>Node19&#45;&gt;Node5</title>
<path fill="none" stroke="#191970" d="M577.395,-492.4937C539.7446,-484.7632 487.849,-472.4438 444,-456 425.7607,-449.1601 423.1473,-443.0805 405,-436 349.1484,-414.2085 330.0768,-423.6816 275,-400 230.6753,-380.9415 208.6567,-384.216 182,-344 170.8463,-327.1728 168.9683,-303.7393 169.3362,-287.1542"/>
<polygon fill="#191970" stroke="#191970" points="172.8436,-287.0987 169.8633,-276.9317 165.8529,-286.7382 172.8436,-287.0987"/>
</g>
<!-- Node19&#45;&gt;Node10 -->
<g id="edge32" class="edge">
<title>Node19&#45;&gt;Node10</title>
<path fill="none" stroke="#191970" d="M629.0197,-492.4079C628.8795,-464.378 627.0476,-380.3321 611,-313 608.8192,-303.8498 605.2027,-294.0958 601.7811,-285.9353"/>
<polygon fill="#191970" stroke="#191970" points="604.9098,-284.3556 597.6742,-276.6163 598.5043,-287.1786 604.9098,-284.3556"/>
</g>
<!-- Node19&#45;&gt;Node13 -->
<g id="edge40" class="edge">
<title>Node19&#45;&gt;Node13</title>
<path fill="none" stroke="#191970" d="M625.4127,-492.4248C615.0937,-464.8807 585.185,-385.0477 571.274,-347.916"/>
<polygon fill="#191970" stroke="#191970" points="574.4422,-346.396 567.6563,-338.2595 567.8871,-348.8519 574.4422,-346.396"/>
</g>
<!-- Node20 -->
<g id="node20" class="node">
<title>Node20</title>
<g id="a_node20"><a xlink:href="_x_m_l_token_8h.html" target="_top" xlink:title="A unit of XML syntax, either an XML element or text. ">
<polygon fill="#ffffff" stroke="#000000" points="452.5,-436.5 452.5,-455.5 567.5,-455.5 567.5,-436.5 452.5,-436.5"/>
<text text-anchor="middle" x="510" y="-443.5" font-family="Helvetica,sans-Serif" font-size="10.00" fill="#000000">sbml/xml/XMLToken.h</text>
</a>
</g>
</g>
<!-- Node19&#45;&gt;Node20 -->
<g id="edge33" class="edge">
<title>Node19&#45;&gt;Node20</title>
<path fill="none" stroke="#191970" d="M608.5432,-492.3733C589.5262,-483.4241 560.9825,-469.9917 539.5024,-459.8835"/>
<polygon fill="#191970" stroke="#191970" points="540.7284,-456.5923 530.1899,-455.5011 537.7478,-462.926 540.7284,-456.5923"/>
</g>
<!-- Node19&#45;&gt;Node21 -->
<g id="edge41" class="edge">
<title>Node19&#45;&gt;Node21</title>
<path fill="none" stroke="#191970" d="M579.6781,-492.4742C535.1742,-483.6811 467.9895,-469.9147 410,-456 408.5442,-455.6507 407.0584,-455.2855 405.5593,-454.91"/>
<polygon fill="#191970" stroke="#191970" points="406.2044,-451.4615 395.646,-452.3394 404.4473,-458.2375 406.2044,-451.4615"/>
</g>
<!-- Node20&#45;&gt;Node5 -->
<g id="edge37" class="edge">
<title>Node20&#45;&gt;Node5</title>
<path fill="none" stroke="#191970" d="M468.2575,-436.444C394.624,-418.8752 245.7698,-379.9439 207,-344 190.3997,-328.6097 180.7676,-304.0162 175.7133,-286.7749"/>
<polygon fill="#191970" stroke="#191970" points="178.9801,-285.4405 173.0257,-276.6771 172.2156,-287.241 178.9801,-285.4405"/>
</g>
<!-- Node20&#45;&gt;Node9 -->
<g id="edge35" class="edge">
<title>Node20&#45;&gt;Node9</title>
<path fill="none" stroke="#191970" d="M495.8909,-436.2455C483.5791,-427.7337 465.5042,-415.2375 451.2462,-405.3801"/>
<polygon fill="#191970" stroke="#191970" points="453.1634,-402.4506 442.9474,-399.6427 449.1826,-408.2085 453.1634,-402.4506"/>
</g>
<!-- Node20&#45;&gt;Node10 -->
<g id="edge34" class="edge">
<title>Node20&#45;&gt;Node10</title>
<path fill="none" stroke="#191970" d="M522.3164,-436.3343C542.147,-419.8919 580.4043,-384.3142 595,-344 601.6671,-325.5852 600.0514,-303.0395 597.4477,-287.1162"/>
<polygon fill="#191970" stroke="#191970" points="600.7995,-286.0092 595.4816,-276.8456 593.9243,-287.3254 600.7995,-286.0092"/>
</g>
<!-- Node20&#45;&gt;Node12 -->
<g id="edge38" class="edge">
<title>Node20&#45;&gt;Node12</title>
<path fill="none" stroke="#191970" d="M526.8377,-436.355C541.7845,-427.5365 563.9835,-413.8011 582,-400 631.8283,-361.8301 685.0506,-310.2402 711.3331,-283.9415"/>
<polygon fill="#191970" stroke="#191970" points="714.027,-286.1959 718.5913,-276.6346 709.0607,-281.2627 714.027,-286.1959"/>
</g>
<!-- Node20&#45;&gt;Node20 -->
<g id="edge36" class="edge">
<title>Node20&#45;&gt;Node20</title>
<path fill="none" stroke="#191970" d="M542.2009,-455.5252C564.0805,-458.3079 585.5,-455.1328 585.5,-446 585.5,-438.2942 570.2512,-434.8298 552.3433,-435.6068"/>
<polygon fill="#191970" stroke="#191970" points="551.866,-432.1347 542.2009,-436.4748 552.4629,-439.1092 551.866,-432.1347"/>
</g>
<!-- Node22&#45;&gt;Node3 -->
<g id="edge43" class="edge">
<title>Node22&#45;&gt;Node3</title>
<path fill="none" stroke="#191970" d="M799.6139,-548.2873C809.218,-511.7149 842,-378.7001 842,-267 842,-267 842,-267 842,-205.5 842,-160.3639 876.71,-116.7795 898.586,-93.7927"/>
<polygon fill="#191970" stroke="#191970" points="901.1915,-96.1349 905.7106,-86.5522 896.202,-91.2252 901.1915,-96.1349"/>
</g>
<!-- Node22&#45;&gt;Node5 -->
<g id="edge44" class="edge">
<title>Node22&#45;&gt;Node5</title>
<path fill="none" stroke="#191970" d="M737.4137,-555.8301C573.3308,-549.6218 125.3215,-531.0094 100,-512 75.0386,-493.2609 76,-477.2125 76,-446 76,-446 76,-446 76,-390 76,-354.154 78.3343,-341.5576 100,-313 110.1699,-299.595 125.4564,-288.9756 139.2433,-281.3331"/>
<polygon fill="#191970" stroke="#191970" points="141.2207,-284.2492 148.4672,-276.5201 137.9824,-278.0432 141.2207,-284.2492"/>
</g>
<!-- Node22&#45;&gt;Node11 -->
<g id="edge45" class="edge">
<title>Node22&#45;&gt;Node11</title>
<path fill="none" stroke="#191970" d="M804.8388,-548.4309C832.4297,-514.7494 925.5653,-401.0546 966.0009,-351.693"/>
<polygon fill="#191970" stroke="#191970" points="968.8372,-353.7538 972.4667,-343.8 963.4222,-349.3179 968.8372,-353.7538"/>
</g>
<!-- Node22&#45;&gt;Node12 -->
<g id="edge48" class="edge">
<title>Node22&#45;&gt;Node12</title>
<path fill="none" stroke="#191970" d="M792.4258,-548.3613C783.8027,-529.278 766,-485.1405 766,-446 766,-446 766,-446 766,-390 766,-351.6461 748.9248,-309.4423 737.6666,-285.7843"/>
<polygon fill="#191970" stroke="#191970" points="740.6861,-283.9938 733.1248,-276.5723 734.4077,-287.0892 740.6861,-283.9938"/>
</g>
<!-- Node22&#45;&gt;Node17 -->
<g id="edge46" class="edge">
<title>Node22&#45;&gt;Node17</title>
<path fill="none" stroke="#191970" d="M835.7648,-548.4369C874.3692,-538.9133 933.7384,-524.2672 975.4572,-513.9753"/>
<polygon fill="#191970" stroke="#191970" points="976.5245,-517.317 985.3951,-511.5237 974.8479,-510.5208 976.5245,-517.317"/>
</g>
<!-- Node22&#45;&gt;Node19 -->
<g id="edge47" class="edge">
<title>Node22&#45;&gt;Node19</title>
<path fill="none" stroke="#191970" d="M768.1198,-548.3733C740.1839,-539.0613 697.6858,-524.8953 667.0131,-514.671"/>
<polygon fill="#191970" stroke="#191970" points="668.097,-511.3431 657.5034,-511.5011 665.8834,-517.9839 668.097,-511.3431"/>
</g>
<!-- Node23&#45;&gt;Node3 -->
<g id="edge50" class="edge">
<title>Node23&#45;&gt;Node3</title>
<path fill="none" stroke="#191970" d="M946.3594,-548.4329C927.4525,-523.762 880,-455.3351 880,-390 880,-390 880,-390 880,-205.5 880,-165.3615 896.488,-120.6979 907.1473,-96.0175"/>
<polygon fill="#191970" stroke="#191970" points="910.4108,-97.2931 911.2936,-86.7351 904.0194,-94.4382 910.4108,-97.2931"/>
</g>
<!-- Node23&#45;&gt;Node5 -->
<g id="edge51" class="edge">
<title>Node23&#45;&gt;Node5</title>
<path fill="none" stroke="#191970" d="M874.3613,-548.8758C778.1977,-537.8111 622.1265,-519.689 564,-512 463.803,-498.7459 114,-547.0698 114,-446 114,-446 114,-446 114,-390 114,-349.2759 140.0402,-307.411 156.9193,-284.552"/>
<polygon fill="#191970" stroke="#191970" points="159.7815,-286.5708 163.0744,-276.5006 154.2204,-282.3194 159.7815,-286.5708"/>
</g>
<!-- Node23&#45;&gt;Node11 -->
<g id="edge52" class="edge">
<title>Node23&#45;&gt;Node11</title>
<path fill="none" stroke="#191970" d="M955.2926,-548.4309C959.7763,-515.2365 974.7576,-404.3266 981.5725,-353.8746"/>
<polygon fill="#191970" stroke="#191970" points="985.0631,-354.1785 982.9333,-343.8 978.1261,-353.2414 985.0631,-354.1785"/>
</g>
<!-- Node23&#45;&gt;Node12 -->
<g id="edge55" class="edge">
<title>Node23&#45;&gt;Node12</title>
<path fill="none" stroke="#191970" d="M942.173,-548.4536C931.5651,-539.5928 915.8855,-525.7367 904,-512 833.906,-430.989 833.4796,-397.7842 768,-313 760.3526,-303.098 751.2381,-292.5318 743.6424,-284.0264"/>
<polygon fill="#191970" stroke="#191970" points="746.2248,-281.6638 736.9227,-276.5921 741.0318,-286.3577 746.2248,-281.6638"/>
</g>
<!-- Node23&#45;&gt;Node17 -->
<g id="edge53" class="edge">
<title>Node23&#45;&gt;Node17</title>
<path fill="none" stroke="#191970" d="M966.1931,-548.2455C976.6321,-539.8943 991.8655,-527.7076 1004.074,-517.9408"/>
<polygon fill="#191970" stroke="#191970" points="1006.3244,-520.6227 1011.9467,-511.6427 1001.9515,-515.1566 1006.3244,-520.6227"/>
</g>
<!-- Node23&#45;&gt;Node19 -->
<g id="edge54" class="edge">
<title>Node23&#45;&gt;Node19</title>
<path fill="none" stroke="#191970" d="M898.4998,-548.4369C841.9437,-538.6918 754.2596,-523.5832 694.3741,-513.2645"/>
<polygon fill="#191970" stroke="#191970" points="694.7204,-509.7726 684.2713,-511.5237 693.5317,-516.671 694.7204,-509.7726"/>
</g>
</g>
</svg>
