<?xml version="1.0" encoding="UTF-8" standalone="no"?>
<!DOCTYPE svg PUBLIC "-//W3C//DTD SVG 1.1//EN"
 "http://www.w3.org/Graphics/SVG/1.1/DTD/svg11.dtd">
<!-- Generated by graphviz version 2.40.1 (20161225.0304)
 -->
<!-- Title: ReactionGlyph.h Pages: 1 -->
<!--zoomable 252 -->
<svg id="main" version="1.1" xmlns="http://www.w3.org/2000/svg" xmlns:xlink="http://www.w3.org/1999/xlink" xml:space="preserve" onload="init(evt)">
<style type="text/css"><![CDATA[
.edge:hover path { stroke: red; }
.edge:hover polygon { stroke: red; fill: red; }
]]></style>
<script type="text/javascript"><![CDATA[
var edges = document.getElementsByTagName('g');
if (edges && edges.length) {
  for (var i=0;i<edges.length;i++) {
    if (edges[i].id.substr(0,4)=='edge') {
      edges[i].setAttribute('class','edge');
    }
  }
}
]]></script>
        <defs>
                <circle id="rim" cx="0" cy="0" r="7"/>
                <circle id="rim2" cx="0" cy="0" r="3.5"/>
                <g id="zoomPlus">
                        <use xlink:href="#rim" fill="#404040">
                                <set attributeName="fill" to="#808080" begin="zoomplus.mouseover" end="zoomplus.mouseout"/>
                        </use>
                        <path d="M-4,0h8M0,-4v8" fill="none" stroke="white" stroke-width="1.5" pointer-events="none"/>
                </g>
                <g id="zoomMin">
                        <use xlink:href="#rim" fill="#404040">
                                <set attributeName="fill" to="#808080" begin="zoomminus.mouseover" end="zoomminus.mouseout"/>
                        </use>
                        <path d="M-4,0h8" fill="none" stroke="white" stroke-width="1.5" pointer-events="none"/>
                </g>
                <g id="dirArrow">
                        <path fill="none" stroke="white" stroke-width="1.5" d="M0,-3.0v7 M-2.5,-0.5L0,-3.0L2.5,-0.5"/>
                </g>
               <g id="resetDef">
                       <use xlink:href="#rim2" fill="#404040">
                               <set attributeName="fill" to="#808080" begin="reset.mouseover" end="reset.mouseout"/>
                       </use>
               </g>
        </defs>

<script type="text/javascript">
var viewWidth = 3210;
var viewHeight = 252;
var sectionId = 'dynsection-1';
</script>
<script xlink:href="svgpan.js"/>
<svg id="graph" class="graph">
<g id="viewport">
<title>ReactionGlyph.h</title>
<polygon fill="#ffffff" stroke="transparent" points="-4,4 -4,-248 3206.3636,-248 3206.3636,4 -4,4"/>
<!-- Node1 -->
<g id="node1" class="node">
<title>Node1</title>
<polygon fill="#bfbfbf" stroke="#000000" points="480.3636,-224.5 480.3636,-243.5 570.3636,-243.5 570.3636,-224.5 480.3636,-224.5"/>
<text text-anchor="middle" x="525.3636" y="-231.5" font-family="Helvetica,sans-Serif" font-size="10.00" fill="#000000">ReactionGlyph.h</text>
</g>
<!-- Node2 -->
<g id="node2" class="node">
<title>Node2</title>
<g id="a_node2"><a xlink:href="_layout_extension_types_8h.html" target="_top" xlink:title="Include all SBML types of layout extension in a single header file. ">
<polygon fill="#ffffff" stroke="#000000" points="366.3636,-56.5 366.3636,-75.5 492.3636,-75.5 492.3636,-56.5 366.3636,-56.5"/>
<text text-anchor="middle" x="429.3636" y="-63.5" font-family="Helvetica,sans-Serif" font-size="10.00" fill="#000000">LayoutExtensionTypes.h</text>
</a>
</g>
</g>
<!-- Node1&#45;&gt;Node2 -->
<g id="edge1" class="edge">
<title>Node1&#45;&gt;Node2</title>
<path fill="none" stroke="#191970" d="M470.0871,-231.8085C348.1399,-225.6841 62.261,-203.8125 4.3636,-132 -1.2155,-125.08 -1.574,-118.6149 4.3636,-112 28.0664,-85.5933 253.5523,-72.9687 366.1002,-68.2717"/>
<polygon fill="#191970" stroke="#191970" points="470.1645,-235.3163 480.3223,-232.3048 470.5036,-228.3245 470.1645,-235.3163"/>
</g>
<!-- Node8 -->
<g id="node8" class="node">
<title>Node8</title>
<g id="a_node8"><a xlink:href="_general_glyph_8cpp.html" target="_top" xlink:title="Implementation of GeneralGlyph for SBML Layout. ">
<polygon fill="#ffffff" stroke="#000000" points="13.8636,-112.5 13.8636,-131.5 110.8636,-131.5 110.8636,-112.5 13.8636,-112.5"/>
<text text-anchor="middle" x="62.3636" y="-119.5" font-family="Helvetica,sans-Serif" font-size="10.00" fill="#000000">GeneralGlyph.cpp</text>
</a>
</g>
</g>
<!-- Node1&#45;&gt;Node8 -->
<g id="edge7" class="edge">
<title>Node1&#45;&gt;Node8</title>
<path fill="none" stroke="#191970" d="M475.9408,-222.0446C383.4491,-199.6708 185.9623,-151.8986 101.7388,-131.5249"/>
<polygon fill="#191970" stroke="#191970" points="475.3458,-225.5016 485.8885,-224.4509 476.9917,-218.6978 475.3458,-225.5016"/>
</g>
<!-- Node9 -->
<g id="node9" class="node">
<title>Node9</title>
<g id="a_node9"><a xlink:href="_layout_8h.html" target="_top" xlink:title="Definition of Layout for SBML Layout. ">
<polygon fill="#ffffff" stroke="#000000" points="667.8636,-168.5 667.8636,-187.5 722.8636,-187.5 722.8636,-168.5 667.8636,-168.5"/>
<text text-anchor="middle" x="695.3636" y="-175.5" font-family="Helvetica,sans-Serif" font-size="10.00" fill="#000000">Layout.h</text>
</a>
</g>
</g>
<!-- Node1&#45;&gt;Node9 -->
<g id="edge8" class="edge">
<title>Node1&#45;&gt;Node9</title>
<path fill="none" stroke="#191970" d="M564.3722,-221.1501C595.9264,-210.7558 639.5794,-196.376 667.6466,-187.1303"/>
<polygon fill="#191970" stroke="#191970" points="562.9905,-217.9202 554.5876,-224.3733 565.1806,-224.5687 562.9905,-217.9202"/>
</g>
<!-- Node19 -->
<g id="node19" class="node">
<title>Node19</title>
<g id="a_node19"><a xlink:href="_reaction_glyph_8cpp.html" target="_top" xlink:title="Implementation of ReactionGlyph for SBML Layout. ">
<polygon fill="#ffffff" stroke="#000000" points="2094.8636,-112.5 2094.8636,-131.5 2195.8636,-131.5 2195.8636,-112.5 2094.8636,-112.5"/>
<text text-anchor="middle" x="2145.3636" y="-119.5" font-family="Helvetica,sans-Serif" font-size="10.00" fill="#000000">ReactionGlyph.cpp</text>
</a>
</g>
</g>
<!-- Node1&#45;&gt;Node19 -->
<g id="edge51" class="edge">
<title>Node1&#45;&gt;Node19</title>
<path fill="none" stroke="#191970" d="M580.5559,-232.3859C782.3152,-226.0623 1498.71,-199.895 2085.3636,-132 2088.4058,-131.6479 2091.5287,-131.2473 2094.675,-130.8136"/>
<polygon fill="#191970" stroke="#191970" points="580.3887,-228.8893 570.5021,-232.6978 580.6059,-235.8859 580.3887,-228.8893"/>
</g>
<!-- Node3 -->
<g id="node3" class="node">
<title>Node3</title>
<g id="a_node3"><a xlink:href="_graphical_object_8cpp.html" target="_top" xlink:title="Implementation of GraphicalObject for SBML Layout. ">
<polygon fill="#ffffff" stroke="#000000" points="102.8636,-.5 102.8636,-19.5 209.8636,-19.5 209.8636,-.5 102.8636,-.5"/>
<text text-anchor="middle" x="156.3636" y="-7.5" font-family="Helvetica,sans-Serif" font-size="10.00" fill="#000000">GraphicalObject.cpp</text>
</a>
</g>
</g>
<!-- Node2&#45;&gt;Node3 -->
<g id="edge2" class="edge">
<title>Node2&#45;&gt;Node3</title>
<path fill="none" stroke="#191970" d="M372.6771,-54.372C322.3597,-44.0505 249.7378,-29.1537 202.7915,-19.5237"/>
<polygon fill="#191970" stroke="#191970" points="372.244,-57.856 382.7434,-56.4369 373.6507,-50.9988 372.244,-57.856"/>
</g>
<!-- Node4 -->
<g id="node4" class="node">
<title>Node4</title>
<g id="a_node4"><a xlink:href="_layout_validator_8cpp.html" target="_top" xlink:title="Implementation of the LayoutValidator class. ">
<polygon fill="#ffffff" stroke="#000000" points="227.8636,-.5 227.8636,-19.5 332.8636,-19.5 332.8636,-.5 227.8636,-.5"/>
<text text-anchor="middle" x="280.3636" y="-7.5" font-family="Helvetica,sans-Serif" font-size="10.00" fill="#000000">LayoutValidator.cpp</text>
</a>
</g>
</g>
<!-- Node2&#45;&gt;Node4 -->
<g id="edge3" class="edge">
<title>Node2&#45;&gt;Node4</title>
<path fill="none" stroke="#191970" d="M394.2124,-52.7888C367.0067,-42.5639 329.9826,-28.6488 305.6433,-19.5011"/>
<polygon fill="#191970" stroke="#191970" points="393.1575,-56.1313 403.7496,-56.3733 395.6202,-49.5788 393.1575,-56.1313"/>
</g>
<!-- Node5 -->
<g id="node5" class="node">
<title>Node5</title>
<g id="a_node5"><a xlink:href="_render_list_of_layouts_plugin_8cpp.html" target="_top" xlink:title="Implementation of RenderListOfLayoutsPlugin, the plugin class of the fbc package for the Model elemen...">
<polygon fill="#ffffff" stroke="#000000" points="350.8636,-.5 350.8636,-19.5 507.8636,-19.5 507.8636,-.5 350.8636,-.5"/>
<text text-anchor="middle" x="429.3636" y="-7.5" font-family="Helvetica,sans-Serif" font-size="10.00" fill="#000000">RenderListOfLayoutsPlugin.cpp</text>
</a>
</g>
</g>
<!-- Node2&#45;&gt;Node5 -->
<g id="edge4" class="edge">
<title>Node2&#45;&gt;Node5</title>
<path fill="none" stroke="#191970" d="M429.3636,-46.1575C429.3636,-37.155 429.3636,-26.9199 429.3636,-19.6427"/>
<polygon fill="#191970" stroke="#191970" points="425.8637,-46.2455 429.3636,-56.2455 432.8637,-46.2456 425.8637,-46.2455"/>
</g>
<!-- Node6 -->
<g id="node6" class="node">
<title>Node6</title>
<g id="a_node6"><a xlink:href="_render_layout_converter_8cpp.html" target="_top" xlink:title="Simple converter to convert Layout + Render from l2 to L3 and vice versa. ">
<polygon fill="#ffffff" stroke="#000000" points="526.3636,-.5 526.3636,-19.5 668.3636,-19.5 668.3636,-.5 526.3636,-.5"/>
<text text-anchor="middle" x="597.3636" y="-7.5" font-family="Helvetica,sans-Serif" font-size="10.00" fill="#000000">RenderLayoutConverter.cpp</text>
</a>
</g>
</g>
<!-- Node2&#45;&gt;Node6 -->
<g id="edge5" class="edge">
<title>Node2&#45;&gt;Node6</title>
<path fill="none" stroke="#191970" d="M467.7921,-53.1905C498.5709,-42.9309 541.0562,-28.7691 568.8602,-19.5011"/>
<polygon fill="#191970" stroke="#191970" points="466.6238,-49.8905 458.2438,-56.3733 468.8375,-56.5313 466.6238,-49.8905"/>
</g>
<!-- Node7 -->
<g id="node7" class="node">
<title>Node7</title>
<g id="a_node7"><a xlink:href="_render_utilities_8cpp.html" target="_top" xlink:title="implementation of RenderUtilities, a class of utility functions for the render package ...">
<polygon fill="#ffffff" stroke="#000000" points="686.3636,-.5 686.3636,-19.5 786.3636,-19.5 786.3636,-.5 686.3636,-.5"/>
<text text-anchor="middle" x="736.3636" y="-7.5" font-family="Helvetica,sans-Serif" font-size="10.00" fill="#000000">RenderUtilities.cpp</text>
</a>
</g>
</g>
<!-- Node2&#45;&gt;Node7 -->
<g id="edge6" class="edge">
<title>Node2&#45;&gt;Node7</title>
<path fill="none" stroke="#191970" d="M491.8214,-54.6071C549.1763,-44.1449 633.0844,-28.8392 686.1908,-19.152"/>
<polygon fill="#191970" stroke="#191970" points="490.9995,-51.1991 481.7899,-56.4369 492.2557,-58.0855 490.9995,-51.1991"/>
</g>
<!-- Node9&#45;&gt;Node2 -->
<g id="edge9" class="edge">
<title>Node9&#45;&gt;Node2</title>
<path fill="none" stroke="#191970" d="M711.518,-160.817C723.0181,-146.4729 734.4712,-126.1567 722.3636,-112 718.6299,-107.6344 577.6524,-86.9925 492.6371,-74.8946"/>
<polygon fill="#191970" stroke="#191970" points="708.7918,-158.6191 704.9192,-168.4808 714.0964,-163.1865 708.7918,-158.6191"/>
</g>
<!-- Node9&#45;&gt;Node8 -->
<g id="edge21" class="edge">
<title>Node9&#45;&gt;Node8</title>
<path fill="none" stroke="#191970" d="M657.4476,-176.2074C565.1118,-171.5734 321.342,-157.7247 119.3636,-132 116.6726,-131.6573 113.9153,-131.2756 111.1354,-130.867"/>
<polygon fill="#191970" stroke="#191970" points="657.5303,-179.7157 667.6912,-176.7147 657.8766,-172.7242 657.5303,-179.7157"/>
</g>
<!-- Node10 -->
<g id="node10" class="node">
<title>Node10</title>
<g id="a_node10"><a xlink:href="_layout_model_plugin_8h.html" target="_top" xlink:title="Definition of LayoutModelPlugin, the plugin class of layout package for Model element. ">
<polygon fill="#ffffff" stroke="#000000" points="769.3636,-112.5 769.3636,-131.5 879.3636,-131.5 879.3636,-112.5 769.3636,-112.5"/>
<text text-anchor="middle" x="824.3636" y="-119.5" font-family="Helvetica,sans-Serif" font-size="10.00" fill="#000000">LayoutModelPlugin.h</text>
</a>
</g>
</g>
<!-- Node9&#45;&gt;Node10 -->
<g id="edge10" class="edge">
<title>Node9&#45;&gt;Node10</title>
<path fill="none" stroke="#191970" d="M726.7306,-164.3833C750.192,-154.1985 781.6821,-140.5284 802.4771,-131.5011"/>
<polygon fill="#191970" stroke="#191970" points="725.3187,-161.1806 717.5395,-168.3733 728.1062,-167.6017 725.3187,-161.1806"/>
</g>
<!-- Node13 -->
<g id="node13" class="node">
<title>Node13</title>
<g id="a_node13"><a xlink:href="_layout_annotation_8cpp.html" target="_top" xlink:title="Layout annotation I/O. ">
<polygon fill="#ffffff" stroke="#000000" points="767.8636,-56.5 767.8636,-75.5 880.8636,-75.5 880.8636,-56.5 767.8636,-56.5"/>
<text text-anchor="middle" x="824.3636" y="-63.5" font-family="Helvetica,sans-Serif" font-size="10.00" fill="#000000">LayoutAnnotation.cpp</text>
</a>
</g>
</g>
<!-- Node9&#45;&gt;Node13 -->
<g id="edge27" class="edge">
<title>Node9&#45;&gt;Node13</title>
<path fill="none" stroke="#191970" d="M733.171,-176.156C823.923,-171.3439 1048.2303,-157.0141 1070.3636,-132 1076.2539,-125.343 1076.042,-118.8387 1070.3636,-112 1064.3006,-104.6982 951.8873,-85.9306 881.142,-74.7531"/>
<polygon fill="#191970" stroke="#191970" points="732.8449,-172.6681 723.0402,-176.6829 733.2085,-179.6587 732.8449,-172.6681"/>
</g>
<!-- Node15 -->
<g id="node15" class="node">
<title>Node15</title>
<g id="a_node15"><a xlink:href="_layout_species_reference_plugin_8h.html" target="_top" xlink:title="Definition of LayoutSpeciesReferencePlugin, the plugin class of layout package (Level2) for the Speci...">
<polygon fill="#ffffff" stroke="#000000" points="897.3636,-112.5 897.3636,-131.5 1061.3636,-131.5 1061.3636,-112.5 897.3636,-112.5"/>
<text text-anchor="middle" x="979.3636" y="-119.5" font-family="Helvetica,sans-Serif" font-size="10.00" fill="#000000">LayoutSpeciesReferencePlugin.h</text>
</a>
</g>
</g>
<!-- Node9&#45;&gt;Node15 -->
<g id="edge16" class="edge">
<title>Node9&#45;&gt;Node15</title>
<path fill="none" stroke="#191970" d="M733.0547,-170.5679C784.0368,-160.5151 875.0186,-142.5751 930.9901,-131.5384"/>
<polygon fill="#191970" stroke="#191970" points="732.2457,-167.16 723.1118,-172.5285 733.6,-174.0277 732.2457,-167.16"/>
</g>
<!-- Node17 -->
<g id="node17" class="node">
<title>Node17</title>
<g id="a_node17"><a xlink:href="_compartment_glyph_8cpp.html" target="_top" xlink:title="Implementation of CompartmentGlyph for SBML Layout. ">
<polygon fill="#ffffff" stroke="#000000" points="1954.3636,-112.5 1954.3636,-131.5 2076.3636,-131.5 2076.3636,-112.5 1954.3636,-112.5"/>
<text text-anchor="middle" x="2015.3636" y="-119.5" font-family="Helvetica,sans-Serif" font-size="10.00" fill="#000000">CompartmentGlyph.cpp</text>
</a>
</g>
</g>
<!-- Node9&#45;&gt;Node17 -->
<g id="edge20" class="edge">
<title>Node9&#45;&gt;Node17</title>
<path fill="none" stroke="#191970" d="M733.038,-177.1374C914.5684,-172.901 1700.2592,-153.6275 1944.3636,-132 1947.5874,-131.7144 1950.8888,-131.3836 1954.2187,-131.0198"/>
<polygon fill="#191970" stroke="#191970" points="732.8338,-173.6411 722.9179,-177.3726 732.9965,-180.6393 732.8338,-173.6411"/>
</g>
<!-- Node18 -->
<g id="node18" class="node">
<title>Node18</title>
<g id="a_node18"><a xlink:href="_layout_8cpp.html" target="_top" xlink:title="Implementation of Layout for SBML Layout. ">
<polygon fill="#ffffff" stroke="#000000" points="128.8636,-112.5 128.8636,-131.5 193.8636,-131.5 193.8636,-112.5 128.8636,-112.5"/>
<text text-anchor="middle" x="161.3636" y="-119.5" font-family="Helvetica,sans-Serif" font-size="10.00" fill="#000000">Layout.cpp</text>
</a>
</g>
</g>
<!-- Node9&#45;&gt;Node18 -->
<g id="edge22" class="edge">
<title>Node9&#45;&gt;Node18</title>
<path fill="none" stroke="#191970" d="M657.4505,-176.3541C574.4639,-172.3384 370.6888,-160.2247 202.3636,-132 199.6178,-131.5396 196.7837,-130.9955 193.9482,-130.4028"/>
<polygon fill="#191970" stroke="#191970" points="657.4996,-179.8602 667.6537,-176.8361 657.8301,-172.868 657.4996,-179.8602"/>
</g>
<!-- Node9&#45;&gt;Node19 -->
<g id="edge23" class="edge">
<title>Node9&#45;&gt;Node19</title>
<path fill="none" stroke="#191970" d="M733.1766,-177.4251C927.165,-174.3725 1812.1205,-159.1715 2085.3636,-132 2088.411,-131.697 2091.538,-131.3342 2094.6874,-130.9293"/>
<polygon fill="#191970" stroke="#191970" points="732.868,-173.9294 722.9239,-177.5852 732.9774,-180.9285 732.868,-173.9294"/>
</g>
<!-- Node20 -->
<g id="node20" class="node">
<title>Node20</title>
<g id="a_node20"><a xlink:href="_species_glyph_8cpp.html" target="_top" xlink:title="Implementation of SpeciesGlyph for SBML Layout. ">
<polygon fill="#ffffff" stroke="#000000" points="211.8636,-112.5 211.8636,-131.5 308.8636,-131.5 308.8636,-112.5 211.8636,-112.5"/>
<text text-anchor="middle" x="260.3636" y="-119.5" font-family="Helvetica,sans-Serif" font-size="10.00" fill="#000000">SpeciesGlyph.cpp</text>
</a>
</g>
</g>
<!-- Node9&#45;&gt;Node20 -->
<g id="edge24" class="edge">
<title>Node9&#45;&gt;Node20</title>
<path fill="none" stroke="#191970" d="M657.5513,-174.0643C589.4026,-166.8228 441.507,-150.4305 317.3636,-132 314.6803,-131.6016 311.929,-131.1761 309.1538,-130.7335"/>
<polygon fill="#191970" stroke="#191970" points="657.4755,-177.5757 667.7881,-175.1468 658.2117,-170.6145 657.4755,-177.5757"/>
</g>
<!-- Node21 -->
<g id="node21" class="node">
<title>Node21</title>
<g id="a_node21"><a xlink:href="_species_reference_glyph_8cpp.html" target="_top" xlink:title="Implementation of SpeciesReferenceGlyph for SBML Layout. ">
<polygon fill="#ffffff" stroke="#000000" points="326.8636,-112.5 326.8636,-131.5 469.8636,-131.5 469.8636,-112.5 326.8636,-112.5"/>
<text text-anchor="middle" x="398.3636" y="-119.5" font-family="Helvetica,sans-Serif" font-size="10.00" fill="#000000">SpeciesReferenceGlyph.cpp</text>
</a>
</g>
</g>
<!-- Node9&#45;&gt;Node21 -->
<g id="edge25" class="edge">
<title>Node9&#45;&gt;Node21</title>
<path fill="none" stroke="#191970" d="M657.7034,-170.8991C604.744,-160.9135 508.1343,-142.6975 448.9523,-131.5386"/>
<polygon fill="#191970" stroke="#191970" points="657.2139,-174.3684 667.6892,-172.7819 658.5109,-167.4896 657.2139,-174.3684"/>
</g>
<!-- Node22 -->
<g id="node22" class="node">
<title>Node22</title>
<g id="a_node22"><a xlink:href="_text_glyph_8cpp.html" target="_top" xlink:title="Implementation of TextGlyph for SBML Layout. ">
<polygon fill="#ffffff" stroke="#000000" points="487.8636,-112.5 487.8636,-131.5 568.8636,-131.5 568.8636,-112.5 487.8636,-112.5"/>
<text text-anchor="middle" x="528.3636" y="-119.5" font-family="Helvetica,sans-Serif" font-size="10.00" fill="#000000">TextGlyph.cpp</text>
</a>
</g>
</g>
<!-- Node9&#45;&gt;Node22 -->
<g id="edge26" class="edge">
<title>Node9&#45;&gt;Node22</title>
<path fill="none" stroke="#191970" d="M658.3047,-165.5731C627.6703,-155.3005 584.8064,-140.927 556.82,-131.5423"/>
<polygon fill="#191970" stroke="#191970" points="657.193,-168.8918 667.7869,-168.7527 659.4186,-162.255 657.193,-168.8918"/>
</g>
<!-- Node23 -->
<g id="node23" class="node">
<title>Node23</title>
<g id="a_node23"><a xlink:href="_layout_annotation_8h.html" target="_top" xlink:title="Layout annotation I/O. ">
<polygon fill="#ffffff" stroke="#000000" points="1832.8636,-112.5 1832.8636,-131.5 1935.8636,-131.5 1935.8636,-112.5 1832.8636,-112.5"/>
<text text-anchor="middle" x="1884.3636" y="-119.5" font-family="Helvetica,sans-Serif" font-size="10.00" fill="#000000">LayoutAnnotation.h</text>
</a>
</g>
</g>
<!-- Node9&#45;&gt;Node23 -->
<g id="edge28" class="edge">
<title>Node9&#45;&gt;Node23</title>
<path fill="none" stroke="#191970" d="M733.2135,-176.2173C907.4408,-168.0115 1632.2955,-133.872 1832.7782,-124.4296"/>
<polygon fill="#191970" stroke="#191970" points="732.8282,-172.7315 723.004,-176.6982 733.1576,-179.7238 732.8282,-172.7315"/>
</g>
<!-- Node42 -->
<g id="node42" class="node">
<title>Node42</title>
<g id="a_node42"><a xlink:href="_render_layout_plugin_8cpp.html" target="_top" xlink:title="Implementation of RenderLayoutPlugin, the plugin class of the fbc package for the Model element...">
<polygon fill="#ffffff" stroke="#000000" points="587.3636,-112.5 587.3636,-131.5 713.3636,-131.5 713.3636,-112.5 587.3636,-112.5"/>
<text text-anchor="middle" x="650.3636" y="-119.5" font-family="Helvetica,sans-Serif" font-size="10.00" fill="#000000">RenderLayoutPlugin.cpp</text>
</a>
</g>
</g>
<!-- Node9&#45;&gt;Node42 -->
<g id="edge50" class="edge">
<title>Node9&#45;&gt;Node42</title>
<path fill="none" stroke="#191970" d="M681.069,-160.2112C673.464,-150.7472 664.4097,-139.4797 658.1121,-131.6427"/>
<polygon fill="#191970" stroke="#191970" points="678.5329,-162.6428 687.5252,-168.2455 683.9895,-158.2581 678.5329,-162.6428"/>
</g>
<!-- Node10&#45;&gt;Node2 -->
<g id="edge11" class="edge">
<title>Node10&#45;&gt;Node2</title>
<path fill="none" stroke="#191970" d="M758.7165,-112.48C757.5903,-112.3186 756.4719,-112.1585 755.3636,-112 663.9834,-98.9312 558.1567,-84.0443 492.4787,-74.8344"/>
<polygon fill="#191970" stroke="#191970" points="758.6085,-116.0004 769.0046,-113.9584 759.6041,-109.0715 758.6085,-116.0004"/>
</g>
<!-- Node11 -->
<g id="node11" class="node">
<title>Node11</title>
<g id="a_node11"><a xlink:href="_layout_extension_8cpp.html" target="_top" xlink:title="Implementation of LayoutExtension, the core module of layout package. ">
<polygon fill="#ffffff" stroke="#000000" points="640.8636,-56.5 640.8636,-75.5 749.8636,-75.5 749.8636,-56.5 640.8636,-56.5"/>
<text text-anchor="middle" x="695.3636" y="-63.5" font-family="Helvetica,sans-Serif" font-size="10.00" fill="#000000">LayoutExtension.cpp</text>
</a>
</g>
</g>
<!-- Node10&#45;&gt;Node11 -->
<g id="edge12" class="edge">
<title>Node10&#45;&gt;Node11</title>
<path fill="none" stroke="#191970" d="M792.9965,-108.3833C769.5351,-98.1985 738.0451,-84.5284 717.2501,-75.5011"/>
<polygon fill="#191970" stroke="#191970" points="791.621,-111.6017 802.1877,-112.3733 794.4085,-105.1806 791.621,-111.6017"/>
</g>
<!-- Node12 -->
<g id="node12" class="node">
<title>Node12</title>
<g id="a_node12"><a xlink:href="_layout_model_plugin_8cpp.html" target="_top" xlink:title="Implementation of LayoutModelPlugin, the plugin class of layout package for the Model element...">
<polygon fill="#ffffff" stroke="#000000" points="899.3636,-56.5 899.3636,-75.5 1019.3636,-75.5 1019.3636,-56.5 899.3636,-56.5"/>
<text text-anchor="middle" x="959.3636" y="-63.5" font-family="Helvetica,sans-Serif" font-size="10.00" fill="#000000">LayoutModelPlugin.cpp</text>
</a>
</g>
</g>
<!-- Node10&#45;&gt;Node12 -->
<g id="edge13" class="edge">
<title>Node10&#45;&gt;Node12</title>
<path fill="none" stroke="#191970" d="M856.8627,-108.5189C881.449,-98.3201 914.6002,-84.5685 936.4591,-75.5011"/>
<polygon fill="#191970" stroke="#191970" points="855.4667,-105.3087 847.5709,-112.3733 858.1488,-111.7745 855.4667,-105.3087"/>
</g>
<!-- Node10&#45;&gt;Node13 -->
<g id="edge14" class="edge">
<title>Node10&#45;&gt;Node13</title>
<path fill="none" stroke="#191970" d="M824.3636,-102.1575C824.3636,-93.155 824.3636,-82.9199 824.3636,-75.6427"/>
<polygon fill="#191970" stroke="#191970" points="820.8637,-102.2455 824.3636,-112.2455 827.8637,-102.2456 820.8637,-102.2455"/>
</g>
<!-- Node14 -->
<g id="node14" class="node">
<title>Node14</title>
<g id="a_node14"><a xlink:href="_render_extension_8cpp.html" target="_top" xlink:title="Implementation of RenderExtension, the core module of the render package. ">
<polygon fill="#ffffff" stroke="#000000" points="510.3636,-56.5 510.3636,-75.5 622.3636,-75.5 622.3636,-56.5 510.3636,-56.5"/>
<text text-anchor="middle" x="566.3636" y="-63.5" font-family="Helvetica,sans-Serif" font-size="10.00" fill="#000000">RenderExtension.cpp</text>
</a>
</g>
</g>
<!-- Node10&#45;&gt;Node14 -->
<g id="edge15" class="edge">
<title>Node10&#45;&gt;Node14</title>
<path fill="none" stroke="#191970" d="M770.4936,-110.3073C722.9526,-99.9883 654.5147,-85.1336 610.2405,-75.5237"/>
<polygon fill="#191970" stroke="#191970" points="769.7901,-113.736 780.3049,-112.4369 771.2749,-106.8953 769.7901,-113.736"/>
</g>
<!-- Node15&#45;&gt;Node11 -->
<g id="edge17" class="edge">
<title>Node15&#45;&gt;Node11</title>
<path fill="none" stroke="#191970" d="M921.0474,-110.501C868.6796,-100.175 792.7041,-85.1939 743.6622,-75.5237"/>
<polygon fill="#191970" stroke="#191970" points="920.3767,-113.9361 930.8649,-112.4369 921.731,-107.0683 920.3767,-113.9361"/>
</g>
<!-- Node15&#45;&gt;Node13 -->
<g id="edge19" class="edge">
<title>Node15&#45;&gt;Node13</title>
<path fill="none" stroke="#191970" d="M943.1687,-108.9231C914.8338,-98.686 876.0918,-84.6889 850.6613,-75.5011"/>
<polygon fill="#191970" stroke="#191970" points="942.1238,-112.267 952.7181,-112.3733 944.5024,-105.6835 942.1238,-112.267"/>
</g>
<!-- Node16 -->
<g id="node16" class="node">
<title>Node16</title>
<g id="a_node16"><a xlink:href="_layout_species_reference_plugin_8cpp.html" target="_top" xlink:title="Implementation of LayoutSpeciesReferencePlugin, the plugin object of layout package (Level2) for the ...">
<polygon fill="#ffffff" stroke="#000000" points="1037.8636,-56.5 1037.8636,-75.5 1212.8636,-75.5 1212.8636,-56.5 1037.8636,-56.5"/>
<text text-anchor="middle" x="1125.3636" y="-63.5" font-family="Helvetica,sans-Serif" font-size="10.00" fill="#000000">LayoutSpeciesReferencePlugin.cpp</text>
</a>
</g>
</g>
<!-- Node15&#45;&gt;Node16 -->
<g id="edge18" class="edge">
<title>Node15&#45;&gt;Node16</title>
<path fill="none" stroke="#191970" d="M1013.807,-108.7888C1040.4649,-98.5639 1076.7436,-84.6488 1100.5928,-75.5011"/>
<polygon fill="#191970" stroke="#191970" points="1012.5452,-105.5241 1004.4619,-112.3733 1015.0521,-112.0598 1012.5452,-105.5241"/>
</g>
<!-- Node23&#45;&gt;Node12 -->
<g id="edge29" class="edge">
<title>Node23&#45;&gt;Node12</title>
<path fill="none" stroke="#191970" d="M1822.4284,-120.5876C1681.2623,-116.9496 1324.9169,-105.397 1028.3636,-76 1025.4727,-75.7134 1022.5174,-75.3927 1019.5352,-75.0467"/>
<polygon fill="#191970" stroke="#191970" points="1822.5323,-124.0913 1832.6179,-120.846 1822.7098,-117.0935 1822.5323,-124.0913"/>
</g>
<!-- Node23&#45;&gt;Node13 -->
<g id="edge31" class="edge">
<title>Node23&#45;&gt;Node13</title>
<path fill="none" stroke="#191970" d="M1822.3862,-121.3718C1665.8165,-119.2988 1241.816,-110.6623 890.3636,-76 887.365,-75.7043 884.2946,-75.3654 881.1981,-74.9953"/>
<polygon fill="#191970" stroke="#191970" points="1822.707,-124.8761 1832.7511,-121.5045 1822.7967,-117.8767 1822.707,-124.8761"/>
</g>
<!-- Node23&#45;&gt;Node16 -->
<g id="edge30" class="edge">
<title>Node23&#45;&gt;Node16</title>
<path fill="none" stroke="#191970" d="M1822.5168,-118.4239C1705.1972,-111.4816 1442.295,-95.1654 1221.3636,-76 1218.609,-75.761 1215.8108,-75.5114 1212.9859,-75.2533"/>
<polygon fill="#191970" stroke="#191970" points="1822.5475,-121.9317 1832.7363,-119.0267 1822.9598,-114.9439 1822.5475,-121.9317"/>
</g>
<!-- Node24 -->
<g id="node24" class="node">
<title>Node24</title>
<g id="a_node24"><a xlink:href="_ellipse_8cpp.html" target="_top" xlink:title="Implementation of the Ellipse class. ">
<polygon fill="#ffffff" stroke="#000000" points="2569.8636,-56.5 2569.8636,-75.5 2634.8636,-75.5 2634.8636,-56.5 2569.8636,-56.5"/>
<text text-anchor="middle" x="2602.3636" y="-63.5" font-family="Helvetica,sans-Serif" font-size="10.00" fill="#000000">Ellipse.cpp</text>
</a>
</g>
</g>
<!-- Node23&#45;&gt;Node24 -->
<g id="edge32" class="edge">
<title>Node23&#45;&gt;Node24</title>
<path fill="none" stroke="#191970" d="M1946.1319,-112.0448C2219.7306,-82.6164 2293.46,-116.1618 2561.3636,-76 2564.117,-75.5872 2566.9563,-75.0767 2569.7954,-74.5064"/>
<polygon fill="#191970" stroke="#191970" points="1945.4561,-108.5978 1935.8962,-113.1649 1946.2177,-115.5562 1945.4561,-108.5978"/>
</g>
<!-- Node25 -->
<g id="node25" class="node">
<title>Node25</title>
<g id="a_node25"><a xlink:href="_global_style_8cpp.html" target="_top" xlink:title="Implementation of the GlobalStyle class. ">
<polygon fill="#ffffff" stroke="#000000" points="2652.8636,-56.5 2652.8636,-75.5 2739.8636,-75.5 2739.8636,-56.5 2652.8636,-56.5"/>
<text text-anchor="middle" x="2696.3636" y="-63.5" font-family="Helvetica,sans-Serif" font-size="10.00" fill="#000000">GlobalStyle.cpp</text>
</a>
</g>
</g>
<!-- Node23&#45;&gt;Node25 -->
<g id="edge33" class="edge">
<title>Node23&#45;&gt;Node25</title>
<path fill="none" stroke="#191970" d="M1946.0846,-112.0563C2256.4279,-79.5232 2338.8666,-113.0606 2644.3636,-76 2647.1015,-75.6679 2649.9118,-75.2762 2652.7399,-74.8436"/>
<polygon fill="#191970" stroke="#191970" points="1945.4674,-108.6021 1935.8935,-113.1397 1946.2075,-115.5629 1945.4674,-108.6021"/>
</g>
<!-- Node26 -->
<g id="node26" class="node">
<title>Node26</title>
<g id="a_node26"><a xlink:href="_gradient_stop_8cpp.html" target="_top" xlink:title="class representing a stop in a gradient definition ">
<polygon fill="#ffffff" stroke="#000000" points="2758.3636,-56.5 2758.3636,-75.5 2852.3636,-75.5 2852.3636,-56.5 2758.3636,-56.5"/>
<text text-anchor="middle" x="2805.3636" y="-63.5" font-family="Helvetica,sans-Serif" font-size="10.00" fill="#000000">GradientStop.cpp</text>
</a>
</g>
</g>
<!-- Node23&#45;&gt;Node26 -->
<g id="edge34" class="edge">
<title>Node23&#45;&gt;Node26</title>
<path fill="none" stroke="#191970" d="M1945.9865,-112.0746C2302.8796,-75.7481 2397.1608,-115.1587 2749.3636,-76 2752.2101,-75.6835 2755.1303,-75.3104 2758.071,-74.8976"/>
<polygon fill="#191970" stroke="#191970" points="1945.4793,-108.6083 1935.8909,-113.1152 1946.1971,-115.5714 1945.4793,-108.6083"/>
</g>
<!-- Node27 -->
<g id="node27" class="node">
<title>Node27</title>
<g id="a_node27"><a xlink:href="_image_8cpp.html" target="_top" xlink:title="Implementation of the Image class. ">
<polygon fill="#ffffff" stroke="#000000" points="2870.8636,-56.5 2870.8636,-75.5 2933.8636,-75.5 2933.8636,-56.5 2870.8636,-56.5"/>
<text text-anchor="middle" x="2902.3636" y="-63.5" font-family="Helvetica,sans-Serif" font-size="10.00" fill="#000000">Image.cpp</text>
</a>
</g>
</g>
<!-- Node23&#45;&gt;Node27 -->
<g id="edge35" class="edge">
<title>Node23&#45;&gt;Node27</title>
<path fill="none" stroke="#191970" d="M1945.8556,-112.0971C2352.4634,-71.9512 2461.133,-132.0977 2861.3636,-76 2864.411,-75.5729 2867.5621,-75.0167 2870.7008,-74.3854"/>
<polygon fill="#191970" stroke="#191970" points="1945.4903,-108.6161 1935.8888,-113.0953 1946.1879,-115.5812 1945.4903,-108.6161"/>
</g>
<!-- Node28 -->
<g id="node28" class="node">
<title>Node28</title>
<g id="a_node28"><a xlink:href="_linear_gradient_8cpp.html" target="_top" xlink:title="Implementation of the LinearGradient class. ">
<polygon fill="#ffffff" stroke="#000000" points="2952.3636,-56.5 2952.3636,-75.5 3054.3636,-75.5 3054.3636,-56.5 2952.3636,-56.5"/>
<text text-anchor="middle" x="3003.3636" y="-63.5" font-family="Helvetica,sans-Serif" font-size="10.00" fill="#000000">LinearGradient.cpp</text>
</a>
</g>
</g>
<!-- Node23&#45;&gt;Node28 -->
<g id="edge36" class="edge">
<title>Node23&#45;&gt;Node28</title>
<path fill="none" stroke="#191970" d="M1946.0732,-112.0768C2388.7779,-68.8008 2505.1059,-120.2392 2943.3636,-76 2946.3055,-75.703 2949.3217,-75.3514 2952.3607,-74.9606"/>
<polygon fill="#191970" stroke="#191970" points="1945.4949,-108.6168 1935.8877,-113.0835 1946.1835,-115.5829 1945.4949,-108.6168"/>
</g>
<!-- Node29 -->
<g id="node29" class="node">
<title>Node29</title>
<g id="a_node29"><a xlink:href="_list_of_curve_elements_8cpp.html" target="_top" xlink:title="storage class for curve elements ">
<polygon fill="#ffffff" stroke="#000000" points="3072.3636,-56.5 3072.3636,-75.5 3202.3636,-75.5 3202.3636,-56.5 3072.3636,-56.5"/>
<text text-anchor="middle" x="3137.3636" y="-63.5" font-family="Helvetica,sans-Serif" font-size="10.00" fill="#000000">ListOfCurveElements.cpp</text>
</a>
</g>
</g>
<!-- Node23&#45;&gt;Node29 -->
<g id="edge37" class="edge">
<title>Node23&#45;&gt;Node29</title>
<path fill="none" stroke="#191970" d="M1946.1752,-112.071C2441.9209,-64.4137 2571.3258,-117.0597 3063.3636,-76 3066.2058,-75.7628 3069.106,-75.4926 3072.0332,-75.1966"/>
<polygon fill="#191970" stroke="#191970" points="1945.5015,-108.6198 1935.8863,-113.0693 1946.1776,-115.5871 1945.5015,-108.6198"/>
</g>
<!-- Node30 -->
<g id="node30" class="node">
<title>Node30</title>
<g id="a_node30"><a xlink:href="_list_of_gradient_stops_8cpp.html" target="_top" xlink:title="Implementation of the ListOfGradientStops class. ">
<polygon fill="#ffffff" stroke="#000000" points="1230.8636,-56.5 1230.8636,-75.5 1355.8636,-75.5 1355.8636,-56.5 1230.8636,-56.5"/>
<text text-anchor="middle" x="1293.3636" y="-63.5" font-family="Helvetica,sans-Serif" font-size="10.00" fill="#000000">ListOfGradientStops.cpp</text>
</a>
</g>
</g>
<!-- Node23&#45;&gt;Node30 -->
<g id="edge38" class="edge">
<title>Node23&#45;&gt;Node30</title>
<path fill="none" stroke="#191970" d="M1822.4603,-117.5117C1725.0581,-110.2247 1530.1289,-94.7321 1365.3636,-76 1362.3542,-75.6579 1359.2762,-75.292 1356.169,-74.9098"/>
<polygon fill="#191970" stroke="#191970" points="1822.4805,-121.0228 1832.7129,-118.2754 1823.0005,-114.0422 1822.4805,-121.0228"/>
</g>
<!-- Node31 -->
<g id="node31" class="node">
<title>Node31</title>
<g id="a_node31"><a xlink:href="_local_render_information_8cpp.html" target="_top" xlink:title="Implementation of the LocalRenderInformation class. ">
<polygon fill="#ffffff" stroke="#000000" points="1374.3636,-56.5 1374.3636,-75.5 1516.3636,-75.5 1516.3636,-56.5 1374.3636,-56.5"/>
<text text-anchor="middle" x="1445.3636" y="-63.5" font-family="Helvetica,sans-Serif" font-size="10.00" fill="#000000">LocalRenderInformation.cpp</text>
</a>
</g>
</g>
<!-- Node23&#45;&gt;Node31 -->
<g id="edge39" class="edge">
<title>Node23&#45;&gt;Node31</title>
<path fill="none" stroke="#191970" d="M1822.7155,-114.136C1742.1449,-103.8582 1601.3336,-85.8959 1516.3825,-75.0594"/>
<polygon fill="#191970" stroke="#191970" points="1822.3512,-117.6178 1832.7138,-115.4114 1823.2371,-110.6741 1822.3512,-117.6178"/>
</g>
<!-- Node32 -->
<g id="node32" class="node">
<title>Node32</title>
<g id="a_node32"><a xlink:href="_local_style_8cpp.html" target="_top" xlink:title="class for representing a local style ">
<polygon fill="#ffffff" stroke="#000000" points="1534.3636,-56.5 1534.3636,-75.5 1616.3636,-75.5 1616.3636,-56.5 1534.3636,-56.5"/>
<text text-anchor="middle" x="1575.3636" y="-63.5" font-family="Helvetica,sans-Serif" font-size="10.00" fill="#000000">LocalStyle.cpp</text>
</a>
</g>
</g>
<!-- Node23&#45;&gt;Node32 -->
<g id="edge40" class="edge">
<title>Node23&#45;&gt;Node32</title>
<path fill="none" stroke="#191970" d="M1822.5443,-111.4074C1770.029,-102.3164 1692.678,-88.7076 1625.3636,-76 1622.493,-75.4581 1619.5316,-74.8897 1616.5506,-74.3107"/>
<polygon fill="#191970" stroke="#191970" points="1822.2558,-114.9094 1832.7059,-113.1638 1823.4481,-108.0116 1822.2558,-114.9094"/>
</g>
<!-- Node33 -->
<g id="node33" class="node">
<title>Node33</title>
<g id="a_node33"><a xlink:href="_polygon_8cpp.html" target="_top" xlink:title="Implementation of the Polygon class. ">
<polygon fill="#ffffff" stroke="#000000" points="1634.3636,-56.5 1634.3636,-75.5 1706.3636,-75.5 1706.3636,-56.5 1634.3636,-56.5"/>
<text text-anchor="middle" x="1670.3636" y="-63.5" font-family="Helvetica,sans-Serif" font-size="10.00" fill="#000000">Polygon.cpp</text>
</a>
</g>
</g>
<!-- Node23&#45;&gt;Node33 -->
<g id="edge41" class="edge">
<title>Node23&#45;&gt;Node33</title>
<path fill="none" stroke="#191970" d="M1837.687,-109.7856C1798.3222,-99.4845 1742.7784,-84.9497 1706.6714,-75.5011"/>
<polygon fill="#191970" stroke="#191970" points="1837.0153,-113.2276 1847.5757,-112.3733 1838.7875,-106.4556 1837.0153,-113.2276"/>
</g>
<!-- Node34 -->
<g id="node34" class="node">
<title>Node34</title>
<g id="a_node34"><a xlink:href="_radial_gradient_8cpp.html" target="_top" xlink:title="Implementation of the RadialGradient class. ">
<polygon fill="#ffffff" stroke="#000000" points="1724.3636,-56.5 1724.3636,-75.5 1826.3636,-75.5 1826.3636,-56.5 1724.3636,-56.5"/>
<text text-anchor="middle" x="1775.3636" y="-63.5" font-family="Helvetica,sans-Serif" font-size="10.00" fill="#000000">RadialGradient.cpp</text>
</a>
</g>
</g>
<!-- Node23&#45;&gt;Node34 -->
<g id="edge42" class="edge">
<title>Node23&#45;&gt;Node34</title>
<path fill="none" stroke="#191970" d="M1856.3293,-107.5971C1836.789,-97.558 1811.2543,-84.4393 1794.1323,-75.6427"/>
<polygon fill="#191970" stroke="#191970" points="1854.883,-110.7889 1865.3772,-112.2455 1858.0819,-104.5625 1854.883,-110.7889"/>
</g>
<!-- Node35 -->
<g id="node35" class="node">
<title>Node35</title>
<g id="a_node35"><a xlink:href="_rectangle_8cpp.html" target="_top" xlink:title="Implementation of the Rectangle class. ">
<polygon fill="#ffffff" stroke="#000000" points="1844.3636,-56.5 1844.3636,-75.5 1924.3636,-75.5 1924.3636,-56.5 1844.3636,-56.5"/>
<text text-anchor="middle" x="1884.3636" y="-63.5" font-family="Helvetica,sans-Serif" font-size="10.00" fill="#000000">Rectangle.cpp</text>
</a>
</g>
</g>
<!-- Node23&#45;&gt;Node35 -->
<g id="edge43" class="edge">
<title>Node23&#45;&gt;Node35</title>
<path fill="none" stroke="#191970" d="M1884.3636,-102.1575C1884.3636,-93.155 1884.3636,-82.9199 1884.3636,-75.6427"/>
<polygon fill="#191970" stroke="#191970" points="1880.8637,-102.2455 1884.3636,-112.2455 1887.8637,-102.2456 1880.8637,-102.2455"/>
</g>
<!-- Node36 -->
<g id="node36" class="node">
<title>Node36</title>
<g id="a_node36"><a xlink:href="_render_cubic_bezier_8cpp.html" target="_top" xlink:title="Implementation of the RenderCubicBezier class. ">
<polygon fill="#ffffff" stroke="#000000" points="1942.3636,-56.5 1942.3636,-75.5 2064.3636,-75.5 2064.3636,-56.5 1942.3636,-56.5"/>
<text text-anchor="middle" x="2003.3636" y="-63.5" font-family="Helvetica,sans-Serif" font-size="10.00" fill="#000000">RenderCubicBezier.cpp</text>
</a>
</g>
</g>
<!-- Node23&#45;&gt;Node36 -->
<g id="edge44" class="edge">
<title>Node23&#45;&gt;Node36</title>
<path fill="none" stroke="#191970" d="M1913.878,-108.1109C1935.4574,-97.9559 1964.1612,-84.4482 1983.1737,-75.5011"/>
<polygon fill="#191970" stroke="#191970" points="1912.3783,-104.9484 1904.8204,-112.3733 1915.3589,-111.2821 1912.3783,-104.9484"/>
</g>
<!-- Node37 -->
<g id="node37" class="node">
<title>Node37</title>
<g id="a_node37"><a xlink:href="_render_curve_8cpp.html" target="_top" xlink:title="Implementation of the RenderCurve class. ">
<polygon fill="#ffffff" stroke="#000000" points="2082.8636,-56.5 2082.8636,-75.5 2177.8636,-75.5 2177.8636,-56.5 2082.8636,-56.5"/>
<text text-anchor="middle" x="2130.3636" y="-63.5" font-family="Helvetica,sans-Serif" font-size="10.00" fill="#000000">RenderCurve.cpp</text>
</a>
</g>
</g>
<!-- Node23&#45;&gt;Node37 -->
<g id="edge45" class="edge">
<title>Node23&#45;&gt;Node37</title>
<path fill="none" stroke="#191970" d="M1936.298,-110.1775C1981.6034,-99.8641 2046.4891,-85.0934 2088.5274,-75.5237"/>
<polygon fill="#191970" stroke="#191970" points="1935.3466,-106.8045 1926.373,-112.4369 1936.9004,-113.6299 1935.3466,-106.8045"/>
</g>
<!-- Node38 -->
<g id="node38" class="node">
<title>Node38</title>
<g id="a_node38"><a xlink:href="_render_group_8cpp.html" target="_top" xlink:title="Implementation of the RenderGroup class. ">
<polygon fill="#ffffff" stroke="#000000" points="2196.3636,-56.5 2196.3636,-75.5 2292.3636,-75.5 2292.3636,-56.5 2196.3636,-56.5"/>
<text text-anchor="middle" x="2244.3636" y="-63.5" font-family="Helvetica,sans-Serif" font-size="10.00" fill="#000000">RenderGroup.cpp</text>
</a>
</g>
</g>
<!-- Node23&#45;&gt;Node38 -->
<g id="edge46" class="edge">
<title>Node23&#45;&gt;Node38</title>
<path fill="none" stroke="#191970" d="M1945.9463,-111.9287C2054.0136,-95.1071 2082.5714,-92.6976 2186.3636,-76 2189.5918,-75.4807 2192.9193,-74.9349 2196.2707,-74.3774"/>
<polygon fill="#191970" stroke="#191970" points="1945.2798,-108.4903 1935.94,-113.492 1946.3604,-115.4064 1945.2798,-108.4903"/>
</g>
<!-- Node39 -->
<g id="node39" class="node">
<title>Node39</title>
<g id="a_node39"><a xlink:href="_render_point_8cpp.html" target="_top" xlink:title="Implementation of the RenderPoint class. ">
<polygon fill="#ffffff" stroke="#000000" points="2310.8636,-56.5 2310.8636,-75.5 2401.8636,-75.5 2401.8636,-56.5 2310.8636,-56.5"/>
<text text-anchor="middle" x="2356.3636" y="-63.5" font-family="Helvetica,sans-Serif" font-size="10.00" fill="#000000">RenderPoint.cpp</text>
</a>
</g>
</g>
<!-- Node23&#45;&gt;Node39 -->
<g id="edge47" class="edge">
<title>Node23&#45;&gt;Node39</title>
<path fill="none" stroke="#191970" d="M1946.0385,-111.9905C2104.7427,-91.4061 2147.1267,-97.7853 2301.3636,-76 2304.4387,-75.5657 2307.6044,-75.0836 2310.79,-74.5727"/>
<polygon fill="#191970" stroke="#191970" points="1945.3744,-108.5476 1935.915,-113.3195 1946.2855,-115.4881 1945.3744,-108.5476"/>
</g>
<!-- Node40 -->
<g id="node40" class="node">
<title>Node40</title>
<g id="a_node40"><a xlink:href="_style_8cpp.html" target="_top" xlink:title="Implementation of the Style class. ">
<polygon fill="#ffffff" stroke="#000000" points="2420.3636,-56.5 2420.3636,-75.5 2478.3636,-75.5 2478.3636,-56.5 2420.3636,-56.5"/>
<text text-anchor="middle" x="2449.3636" y="-63.5" font-family="Helvetica,sans-Serif" font-size="10.00" fill="#000000">Style.cpp</text>
</a>
</g>
</g>
<!-- Node23&#45;&gt;Node40 -->
<g id="edge48" class="edge">
<title>Node23&#45;&gt;Node40</title>
<path fill="none" stroke="#191970" d="M1945.878,-112.0492C2152.9071,-87.905 2209.0596,-109.3407 2410.3636,-76 2413.5357,-75.4746 2416.8271,-74.8152 2420.0924,-74.0868"/>
<polygon fill="#191970" stroke="#191970" points="1945.4216,-108.5788 1935.9042,-113.2338 1946.2472,-115.5299 1945.4216,-108.5788"/>
</g>
<!-- Node41 -->
<g id="node41" class="node">
<title>Node41</title>
<g id="a_node41"><a xlink:href="_text_8cpp.html" target="_top" xlink:title="Implementation of the Text class. ">
<polygon fill="#ffffff" stroke="#000000" points="2496.8636,-56.5 2496.8636,-75.5 2551.8636,-75.5 2551.8636,-56.5 2496.8636,-56.5"/>
<text text-anchor="middle" x="2524.3636" y="-63.5" font-family="Helvetica,sans-Serif" font-size="10.00" fill="#000000">Text.cpp</text>
</a>
</g>
</g>
<!-- Node23&#45;&gt;Node41 -->
<g id="edge49" class="edge">
<title>Node23&#45;&gt;Node41</title>
<path fill="none" stroke="#191970" d="M1946.0219,-112.0479C2186.9882,-85.2815 2252.4842,-115.1453 2487.3636,-76 2490.3828,-75.4968 2493.5116,-74.8516 2496.6132,-74.1316"/>
<polygon fill="#191970" stroke="#191970" points="1945.4423,-108.5911 1935.8995,-113.1939 1946.2298,-115.5466 1945.4423,-108.5911"/>
</g>
</g>
</svg>
        <g id="navigator" transform="translate(0 0)" fill="#404254">
                <rect fill="#f2f5e9" fill-opacity="0.5" stroke="#606060" stroke-width=".5" x="0" y="0" width="60" height="60"/>
                <use id="zoomplus" xlink:href="#zoomPlus" x="17" y="9" onmousedown="handleZoom(evt,'in')"/>
                <use id="zoomminus" xlink:href="#zoomMin" x="42" y="9" onmousedown="handleZoom(evt,'out')"/>
                <use id="reset" xlink:href="#resetDef" x="30" y="36" onmousedown="handleReset()"/>
                <g id="arrowUp" xlink:href="#dirArrow" transform="translate(30 24)" onmousedown="handlePan(0,-1)">
                  <use xlink:href="#rim" fill="#404040">
                        <set attributeName="fill" to="#808080" begin="arrowUp.mouseover" end="arrowUp.mouseout"/>
                  </use>
                  <path fill="none" stroke="white" stroke-width="1.5" d="M0,-3.0v7 M-2.5,-0.5L0,-3.0L2.5,-0.5"/>
                </g>
                <g id="arrowRight" xlink:href="#dirArrow" transform="rotate(90) translate(36 -43)" onmousedown="handlePan(1,0)">
                  <use xlink:href="#rim" fill="#404040">
                        <set attributeName="fill" to="#808080" begin="arrowRight.mouseover" end="arrowRight.mouseout"/>
                  </use>
                  <path fill="none" stroke="white" stroke-width="1.5" d="M0,-3.0v7 M-2.5,-0.5L0,-3.0L2.5,-0.5"/>
                </g>
                <g id="arrowDown" xlink:href="#dirArrow" transform="rotate(180) translate(-30 -48)" onmousedown="handlePan(0,1)">
                  <use xlink:href="#rim" fill="#404040">
                        <set attributeName="fill" to="#808080" begin="arrowDown.mouseover" end="arrowDown.mouseout"/>
                  </use>
                  <path fill="none" stroke="white" stroke-width="1.5" d="M0,-3.0v7 M-2.5,-0.5L0,-3.0L2.5,-0.5"/>
                </g>
                <g id="arrowLeft" xlink:href="#dirArrow" transform="rotate(270) translate(-36 17)" onmousedown="handlePan(-1,0)">
                  <use xlink:href="#rim" fill="#404040">
                        <set attributeName="fill" to="#808080" begin="arrowLeft.mouseover" end="arrowLeft.mouseout"/>
                  </use>
                  <path fill="none" stroke="white" stroke-width="1.5" d="M0,-3.0v7 M-2.5,-0.5L0,-3.0L2.5,-0.5"/>
                </g>
        </g>
        <svg viewBox="0 0 15 15" width="100%" height="30px" preserveAspectRatio="xMaxYMin meet">
         <g id="arrow_out" transform="scale(0.3 0.3)">
          <a xlink:href="_reaction_glyph_8h__dep__incl_org.svg" target="_base">
           <rect id="button" ry="5" rx="5" y="6" x="6" height="38" width="38"
                fill="#f2f5e9" fill-opacity="0.5" stroke="#606060" stroke-width="1.0"/>
           <path id="arrow"
             d="M 11.500037,31.436501 C 11.940474,20.09759 22.043105,11.32322 32.158766,21.979434 L 37.068811,17.246167 C 37.068811,17.246167 37.088388,32 37.088388,32 L 22.160133,31.978069 C 22.160133,31.978069 26.997745,27.140456 26.997745,27.140456 C 18.528582,18.264221 13.291696,25.230495 11.500037,31.436501 z"
             style="fill:#404040;"/>
          </a>
         </g>
        </svg>
</svg>
