<?xml version="1.0" encoding="UTF-8" standalone="no"?>
<!DOCTYPE svg PUBLIC "-//W3C//DTD SVG 1.1//EN"
 "http://www.w3.org/Graphics/SVG/1.1/DTD/svg11.dtd">
<!-- Generated by graphviz version 2.40.1 (20161225.0304)
 -->
<!-- Title: Rectangle.h Pages: 1 -->
<svg width="1024pt" height="196pt"
 viewBox="0.00 0.00 1024.00 196.00" xmlns="http://www.w3.org/2000/svg" xmlns:xlink="http://www.w3.org/1999/xlink">
<g id="graph0" class="graph" transform="scale(1 1) rotate(0) translate(4 192)">
<title>Rectangle.h</title>
<polygon fill="#ffffff" stroke="transparent" points="-4,4 -4,-192 1020,-192 1020,4 -4,4"/>
<!-- Node1 -->
<g id="node1" class="node">
<title>Node1</title>
<polygon fill="#bfbfbf" stroke="#000000" points="606,-168.5 606,-187.5 663,-187.5 663,-168.5 606,-168.5"/>
<text text-anchor="middle" x="634.5" y="-175.5" font-family="Helvetica,sans-Serif" font-size="10.00" fill="#000000">Rectangle.h</text>
</g>
<!-- Node2 -->
<g id="node2" class="node">
<title>Node2</title>
<g id="a_node2"><a xlink:href="_render_extension_types_8h.html" target="_top" xlink:title="Definition of RenderExtensionTypes. ">
<polygon fill="#ffffff" stroke="#000000" points="188,-112.5 188,-131.5 289,-131.5 289,-112.5 188,-112.5"/>
<text text-anchor="middle" x="238.5" y="-119.5" font-family="Helvetica,sans-Serif" font-size="10.00" fill="#000000">RenderExtensionTypes.h</text>
</a>
</g>
</g>
<!-- Node1&#45;&gt;Node2 -->
<g id="edge1" class="edge">
<title>Node1&#45;&gt;Node2</title>
<path fill="none" stroke="#191970" d="M595.4765,-173.0321C532.7893,-164.9673 405.8038,-148.2837 298.5,-132 295.4722,-131.5405 292.3604,-131.0568 289.2225,-130.5603"/>
<polygon fill="#191970" stroke="#191970" points="595.33,-176.5419 605.6942,-174.3434 596.2212,-169.5988 595.33,-176.5419"/>
</g>
<!-- Node9 -->
<g id="node9" class="node">
<title>Node9</title>
<g id="a_node9"><a xlink:href="_graphical_primitive1_d_8cpp.html" target="_top" xlink:title="abstract base class for graphical 1D objects ">
<polygon fill="#ffffff" stroke="#000000" points="307,-112.5 307,-131.5 408,-131.5 408,-112.5 307,-112.5"/>
<text text-anchor="middle" x="357.5" y="-119.5" font-family="Helvetica,sans-Serif" font-size="10.00" fill="#000000">GraphicalPrimitive1D.cpp</text>
</a>
</g>
</g>
<!-- Node1&#45;&gt;Node9 -->
<g id="edge10" class="edge">
<title>Node1&#45;&gt;Node9</title>
<path fill="none" stroke="#191970" d="M595.7981,-170.1758C545.6991,-160.0475 458.4518,-142.409 404.5714,-131.5162"/>
<polygon fill="#191970" stroke="#191970" points="595.4042,-173.6669 605.8994,-172.2179 596.7913,-166.8057 595.4042,-173.6669"/>
</g>
<!-- Node10 -->
<g id="node10" class="node">
<title>Node10</title>
<g id="a_node10"><a xlink:href="_graphical_primitive2_d_8cpp.html" target="_top" xlink:title="Implementation of the GraphicalPrimitive2D class. ">
<polygon fill="#ffffff" stroke="#000000" points="426,-112.5 426,-131.5 527,-131.5 527,-112.5 426,-112.5"/>
<text text-anchor="middle" x="476.5" y="-119.5" font-family="Helvetica,sans-Serif" font-size="10.00" fill="#000000">GraphicalPrimitive2D.cpp</text>
</a>
</g>
</g>
<!-- Node1&#45;&gt;Node10 -->
<g id="edge11" class="edge">
<title>Node1&#45;&gt;Node10</title>
<path fill="none" stroke="#191970" d="M597.6045,-164.9231C568.7213,-154.686 529.2294,-140.6889 503.3067,-131.5011"/>
<polygon fill="#191970" stroke="#191970" points="596.7441,-168.3314 607.3388,-168.3733 599.0826,-161.7336 596.7441,-168.3314"/>
</g>
<!-- Node11 -->
<g id="node11" class="node">
<title>Node11</title>
<g id="a_node11"><a xlink:href="_list_of_drawables_8cpp.html" target="_top" xlink:title="Implementation of the ListOfDrawables class. ">
<polygon fill="#ffffff" stroke="#000000" points="545.5,-112.5 545.5,-131.5 631.5,-131.5 631.5,-112.5 545.5,-112.5"/>
<text text-anchor="middle" x="588.5" y="-119.5" font-family="Helvetica,sans-Serif" font-size="10.00" fill="#000000">ListOfDrawables.cpp</text>
</a>
</g>
</g>
<!-- Node1&#45;&gt;Node11 -->
<g id="edge12" class="edge">
<title>Node1&#45;&gt;Node11</title>
<path fill="none" stroke="#191970" d="M620.1253,-160.5004C612.3029,-150.9775 602.924,-139.5596 596.4208,-131.6427"/>
<polygon fill="#191970" stroke="#191970" points="617.4354,-162.7399 626.4874,-168.2455 622.8445,-158.2967 617.4354,-162.7399"/>
</g>
<!-- Node12 -->
<g id="node12" class="node">
<title>Node12</title>
<g id="a_node12"><a xlink:href="_rectangle_8cpp.html" target="_top" xlink:title="Implementation of the Rectangle class. ">
<polygon fill="#ffffff" stroke="#000000" points="649.5,-112.5 649.5,-131.5 713.5,-131.5 713.5,-112.5 649.5,-112.5"/>
<text text-anchor="middle" x="681.5" y="-119.5" font-family="Helvetica,sans-Serif" font-size="10.00" fill="#000000">Rectangle.cpp</text>
</a>
</g>
</g>
<!-- Node1&#45;&gt;Node12 -->
<g id="edge13" class="edge">
<title>Node1&#45;&gt;Node12</title>
<path fill="none" stroke="#191970" d="M649.1872,-160.5004C657.1796,-150.9775 666.7625,-139.5596 673.407,-131.6427"/>
<polygon fill="#191970" stroke="#191970" points="646.4346,-158.3357 642.6868,-168.2455 651.7964,-162.8358 646.4346,-158.3357"/>
</g>
<!-- Node13 -->
<g id="node13" class="node">
<title>Node13</title>
<g id="a_node13"><a xlink:href="_render_group_8cpp.html" target="_top" xlink:title="Implementation of the RenderGroup class. ">
<polygon fill="#ffffff" stroke="#000000" points="731.5,-112.5 731.5,-131.5 807.5,-131.5 807.5,-112.5 731.5,-112.5"/>
<text text-anchor="middle" x="769.5" y="-119.5" font-family="Helvetica,sans-Serif" font-size="10.00" fill="#000000">RenderGroup.cpp</text>
</a>
</g>
</g>
<!-- Node1&#45;&gt;Node13 -->
<g id="edge14" class="edge">
<title>Node1&#45;&gt;Node13</title>
<path fill="none" stroke="#191970" d="M666.9991,-164.5189C691.5854,-154.3201 724.7366,-140.5685 746.5955,-131.5011"/>
<polygon fill="#191970" stroke="#191970" points="665.6031,-161.3087 657.7073,-168.3733 668.2852,-167.7745 665.6031,-161.3087"/>
</g>
<!-- Node14 -->
<g id="node14" class="node">
<title>Node14</title>
<g id="a_node14"><a xlink:href="_transformation_8cpp.html" target="_top" xlink:title="class representing a 3D affine transformation ">
<polygon fill="#ffffff" stroke="#000000" points="826,-112.5 826,-131.5 907,-131.5 907,-112.5 826,-112.5"/>
<text text-anchor="middle" x="866.5" y="-119.5" font-family="Helvetica,sans-Serif" font-size="10.00" fill="#000000">Transformation.cpp</text>
</a>
</g>
</g>
<!-- Node1&#45;&gt;Node14 -->
<g id="edge15" class="edge">
<title>Node1&#45;&gt;Node14</title>
<path fill="none" stroke="#191970" d="M673.1566,-168.6691C715.832,-158.3681 784.1626,-141.8745 827.1238,-131.5046"/>
<polygon fill="#191970" stroke="#191970" points="672.3134,-165.272 663.4139,-171.0208 673.956,-172.0766 672.3134,-165.272"/>
</g>
<!-- Node15 -->
<g id="node15" class="node">
<title>Node15</title>
<g id="a_node15"><a xlink:href="_transformation2_d_8cpp.html" target="_top" xlink:title="class representing a 2D affine transformation ">
<polygon fill="#ffffff" stroke="#000000" points="925,-112.5 925,-131.5 1016,-131.5 1016,-112.5 925,-112.5"/>
<text text-anchor="middle" x="970.5" y="-119.5" font-family="Helvetica,sans-Serif" font-size="10.00" fill="#000000">Transformation2D.cpp</text>
</a>
</g>
</g>
<!-- Node1&#45;&gt;Node15 -->
<g id="edge16" class="edge">
<title>Node1&#45;&gt;Node15</title>
<path fill="none" stroke="#191970" d="M673.2649,-171.9458C727.6655,-163.3884 829.728,-147.1098 916.5,-132 919.224,-131.5257 922.0238,-131.0305 924.8473,-130.5252"/>
<polygon fill="#191970" stroke="#191970" points="672.6934,-168.4926 663.3575,-173.5018 673.7795,-175.4078 672.6934,-168.4926"/>
</g>
<!-- Node3 -->
<g id="node3" class="node">
<title>Node3</title>
<g id="a_node3"><a xlink:href="_render_layout_plugin_8cpp.html" target="_top" xlink:title="Implementation of RenderLayoutPlugin, the plugin class of the fbc package for the Model element...">
<polygon fill="#ffffff" stroke="#000000" points="0,-.5 0,-19.5 99,-19.5 99,-.5 0,-.5"/>
<text text-anchor="middle" x="49.5" y="-7.5" font-family="Helvetica,sans-Serif" font-size="10.00" fill="#000000">RenderLayoutPlugin.cpp</text>
</a>
</g>
</g>
<!-- Node2&#45;&gt;Node3 -->
<g id="edge2" class="edge">
<title>Node2&#45;&gt;Node3</title>
<path fill="none" stroke="#191970" d="M177.7855,-112.9589C133.7577,-105.1677 79.2841,-92.5609 63.5,-76 48.9536,-60.7378 47.9417,-34.3087 48.6229,-19.9615"/>
<polygon fill="#191970" stroke="#191970" points="177.4122,-116.446 187.8608,-114.6915 178.5986,-109.5473 177.4122,-116.446"/>
</g>
<!-- Node4 -->
<g id="node4" class="node">
<title>Node4</title>
<g id="a_node4"><a xlink:href="_render_layout_converter_8cpp.html" target="_top" xlink:title="Simple converter to convert Layout + Render from l2 to L3 and vice versa. ">
<polygon fill="#ffffff" stroke="#000000" points="73,-56.5 73,-75.5 184,-75.5 184,-56.5 73,-56.5"/>
<text text-anchor="middle" x="128.5" y="-63.5" font-family="Helvetica,sans-Serif" font-size="10.00" fill="#000000">RenderLayoutConverter.cpp</text>
</a>
</g>
</g>
<!-- Node2&#45;&gt;Node4 -->
<g id="edge3" class="edge">
<title>Node2&#45;&gt;Node4</title>
<path fill="none" stroke="#191970" d="M210.2086,-107.5971C190.4889,-97.558 164.72,-84.4393 147.441,-75.6427"/>
<polygon fill="#191970" stroke="#191970" points="208.8399,-110.8277 219.3395,-112.2455 212.0157,-104.5896 208.8399,-110.8277"/>
</g>
<!-- Node5 -->
<g id="node5" class="node">
<title>Node5</title>
<g id="a_node5"><a xlink:href="_render_utilities_8cpp.html" target="_top" xlink:title="implementation of RenderUtilities, a class of utility functions for the render package ...">
<polygon fill="#ffffff" stroke="#000000" points="263,-.5 263,-19.5 342,-19.5 342,-.5 263,-.5"/>
<text text-anchor="middle" x="302.5" y="-7.5" font-family="Helvetica,sans-Serif" font-size="10.00" fill="#000000">RenderUtilities.cpp</text>
</a>
</g>
</g>
<!-- Node2&#45;&gt;Node5 -->
<g id="edge4" class="edge">
<title>Node2&#45;&gt;Node5</title>
<path fill="none" stroke="#191970" d="M258.5674,-105.5791C267.3233,-97.4843 277.0432,-87.0872 283.5,-76 294.181,-57.6593 299.1945,-32.9153 301.258,-19.5396"/>
<polygon fill="#191970" stroke="#191970" points="256.1071,-103.0821 250.9187,-112.3196 260.7352,-108.3339 256.1071,-103.0821"/>
</g>
<!-- Node6 -->
<g id="node6" class="node">
<title>Node6</title>
<g id="a_node6"><a xlink:href="_render_utilities_8h.html" target="_top" xlink:title="Definition of RenderUtilities, a class of utility functions for the render package. ">
<polygon fill="#ffffff" stroke="#000000" points="202.5,-56.5 202.5,-75.5 274.5,-75.5 274.5,-56.5 202.5,-56.5"/>
<text text-anchor="middle" x="238.5" y="-63.5" font-family="Helvetica,sans-Serif" font-size="10.00" fill="#000000">RenderUtilities.h</text>
</a>
</g>
</g>
<!-- Node2&#45;&gt;Node6 -->
<g id="edge5" class="edge">
<title>Node2&#45;&gt;Node6</title>
<path fill="none" stroke="#191970" d="M238.5,-102.1575C238.5,-93.155 238.5,-82.9199 238.5,-75.6427"/>
<polygon fill="#191970" stroke="#191970" points="235.0001,-102.2455 238.5,-112.2455 242.0001,-102.2456 235.0001,-102.2455"/>
</g>
<!-- Node8 -->
<g id="node8" class="node">
<title>Node8</title>
<g id="a_node8"><a xlink:href="_render_validator_8cpp.html" target="_top" xlink:title="Definition of RenderValidator. ">
<polygon fill="#ffffff" stroke="#000000" points="331,-56.5 331,-75.5 416,-75.5 416,-56.5 331,-56.5"/>
<text text-anchor="middle" x="373.5" y="-63.5" font-family="Helvetica,sans-Serif" font-size="10.00" fill="#000000">RenderValidator.cpp</text>
</a>
</g>
</g>
<!-- Node2&#45;&gt;Node8 -->
<g id="edge9" class="edge">
<title>Node2&#45;&gt;Node8</title>
<path fill="none" stroke="#191970" d="M270.9991,-108.5189C295.5854,-98.3201 328.7366,-84.5685 350.5955,-75.5011"/>
<polygon fill="#191970" stroke="#191970" points="269.6031,-105.3087 261.7073,-112.3733 272.2852,-111.7745 269.6031,-105.3087"/>
</g>
<!-- Node6&#45;&gt;Node3 -->
<g id="edge6" class="edge">
<title>Node6&#45;&gt;Node3</title>
<path fill="none" stroke="#191970" d="M196.1643,-53.4561C161.4706,-43.1765 113.1166,-28.8494 81.5663,-19.5011"/>
<polygon fill="#191970" stroke="#191970" points="195.4274,-56.8881 206.0097,-56.3733 197.4161,-50.1765 195.4274,-56.8881"/>
</g>
<!-- Node6&#45;&gt;Node5 -->
<g id="edge8" class="edge">
<title>Node6&#45;&gt;Node5</title>
<path fill="none" stroke="#191970" d="M257.1914,-49.645C268.3219,-39.9058 282.0663,-27.8795 291.4798,-19.6427"/>
<polygon fill="#191970" stroke="#191970" points="254.869,-47.0264 249.6479,-56.2455 259.4785,-52.2945 254.869,-47.0264"/>
</g>
<!-- Node7 -->
<g id="node7" class="node">
<title>Node7</title>
<g id="a_node7"><a xlink:href="_render_list_of_layouts_plugin_8cpp.html" target="_top" xlink:title="Implementation of RenderListOfLayoutsPlugin, the plugin class of the fbc package for the Model elemen...">
<polygon fill="#ffffff" stroke="#000000" points="122.5,-.5 122.5,-19.5 244.5,-19.5 244.5,-.5 122.5,-.5"/>
<text text-anchor="middle" x="183.5" y="-7.5" font-family="Helvetica,sans-Serif" font-size="10.00" fill="#000000">RenderListOfLayoutsPlugin.cpp</text>
</a>
</g>
</g>
<!-- Node6&#45;&gt;Node7 -->
<g id="edge7" class="edge">
<title>Node6&#45;&gt;Node7</title>
<path fill="none" stroke="#191970" d="M221.8774,-49.0751C212.4145,-39.4402 200.9031,-27.7196 192.9705,-19.6427"/>
<polygon fill="#191970" stroke="#191970" points="219.4155,-51.5635 228.9197,-56.2455 224.4097,-46.6585 219.4155,-51.5635"/>
</g>
</g>
</svg>
