<?xml version="1.0" encoding="UTF-8" standalone="no"?>
<!DOCTYPE svg PUBLIC "-//W3C//DTD SVG 1.1//EN"
 "http://www.w3.org/Graphics/SVG/1.1/DTD/svg11.dtd">
<!-- Generated by graphviz version 2.40.1 (20161225.0304)
 -->
<!-- Title: RenderLayoutPlugin.h Pages: 1 -->
<svg width="668pt" height="196pt"
 viewBox="0.00 0.00 668.00 196.00" xmlns="http://www.w3.org/2000/svg" xmlns:xlink="http://www.w3.org/1999/xlink">
<g id="graph0" class="graph" transform="scale(1 1) rotate(0) translate(4 192)">
<title>RenderLayoutPlugin.h</title>
<polygon fill="#ffffff" stroke="transparent" points="-4,4 -4,-192 664,-192 664,4 -4,4"/>
<!-- Node1 -->
<g id="node1" class="node">
<title>Node1</title>
<polygon fill="#bfbfbf" stroke="#000000" points="393.5,-168.5 393.5,-187.5 508.5,-187.5 508.5,-168.5 393.5,-168.5"/>
<text text-anchor="middle" x="451" y="-175.5" font-family="Helvetica,sans-Serif" font-size="10.00" fill="#000000">RenderLayoutPlugin.h</text>
</g>
<!-- Node2 -->
<g id="node2" class="node">
<title>Node2</title>
<g id="a_node2"><a xlink:href="_render_extension_types_8h.html" target="_top" xlink:title="Definition of RenderExtensionTypes. ">
<polygon fill="#ffffff" stroke="#000000" points="251.5,-112.5 251.5,-131.5 380.5,-131.5 380.5,-112.5 251.5,-112.5"/>
<text text-anchor="middle" x="316" y="-119.5" font-family="Helvetica,sans-Serif" font-size="10.00" fill="#000000">RenderExtensionTypes.h</text>
</a>
</g>
</g>
<!-- Node1&#45;&gt;Node2 -->
<g id="edge1" class="edge">
<title>Node1&#45;&gt;Node2</title>
<path fill="none" stroke="#191970" d="M418.5009,-164.5189C393.9146,-154.3201 360.7634,-140.5685 338.9045,-131.5011"/>
<polygon fill="#191970" stroke="#191970" points="417.2148,-167.7745 427.7927,-168.3733 419.8969,-161.3087 417.2148,-167.7745"/>
</g>
<!-- Node3 -->
<g id="node3" class="node">
<title>Node3</title>
<g id="a_node3"><a xlink:href="_render_layout_plugin_8cpp.html" target="_top" xlink:title="Implementation of RenderLayoutPlugin, the plugin class of the fbc package for the Model element...">
<polygon fill="#ffffff" stroke="#000000" points="419,-.5 419,-19.5 545,-19.5 545,-.5 419,-.5"/>
<text text-anchor="middle" x="482" y="-7.5" font-family="Helvetica,sans-Serif" font-size="10.00" fill="#000000">RenderLayoutPlugin.cpp</text>
</a>
</g>
</g>
<!-- Node1&#45;&gt;Node3 -->
<g id="edge11" class="edge">
<title>Node1&#45;&gt;Node3</title>
<path fill="none" stroke="#191970" d="M458.7007,-158.8017C466.363,-138.586 477.5954,-105.6396 482,-76 484.9306,-56.2791 483.8774,-32.8759 482.902,-19.9066"/>
<polygon fill="#191970" stroke="#191970" points="455.3403,-157.7861 454.9757,-168.3746 461.8638,-160.3245 455.3403,-157.7861"/>
</g>
<!-- Node5 -->
<g id="node5" class="node">
<title>Node5</title>
<g id="a_node5"><a xlink:href="_render_utilities_8cpp.html" target="_top" xlink:title="implementation of RenderUtilities, a class of utility functions for the render package ...">
<polygon fill="#ffffff" stroke="#000000" points="0,-.5 0,-19.5 100,-19.5 100,-.5 0,-.5"/>
<text text-anchor="middle" x="50" y="-7.5" font-family="Helvetica,sans-Serif" font-size="10.00" fill="#000000">RenderUtilities.cpp</text>
</a>
</g>
</g>
<!-- Node1&#45;&gt;Node5 -->
<g id="edge12" class="edge">
<title>Node1&#45;&gt;Node5</title>
<path fill="none" stroke="#191970" d="M383.2576,-170.5132C280.6345,-157.6262 93.4031,-127.5462 53,-76 40.2633,-59.7505 43.9544,-33.7225 47.2686,-19.7005"/>
<polygon fill="#191970" stroke="#191970" points="382.8659,-173.9913 393.2195,-171.7436 383.724,-167.0441 382.8659,-173.9913"/>
</g>
<!-- Node9 -->
<g id="node9" class="node">
<title>Node9</title>
<g id="a_node9"><a xlink:href="_render_extension_8cpp.html" target="_top" xlink:title="Implementation of RenderExtension, the core module of the render package. ">
<polygon fill="#ffffff" stroke="#000000" points="548,-112.5 548,-131.5 660,-131.5 660,-112.5 548,-112.5"/>
<text text-anchor="middle" x="604" y="-119.5" font-family="Helvetica,sans-Serif" font-size="10.00" fill="#000000">RenderExtension.cpp</text>
</a>
</g>
</g>
<!-- Node1&#45;&gt;Node9 -->
<g id="edge10" class="edge">
<title>Node1&#45;&gt;Node9</title>
<path fill="none" stroke="#191970" d="M486.7279,-164.9231C514.6971,-154.686 552.9393,-140.6889 578.0416,-131.5011"/>
<polygon fill="#191970" stroke="#191970" points="485.4894,-161.6493 477.3016,-168.3733 487.8954,-168.2228 485.4894,-161.6493"/>
</g>
<!-- Node2&#45;&gt;Node3 -->
<g id="edge2" class="edge">
<title>Node2&#45;&gt;Node3</title>
<path fill="none" stroke="#191970" d="M372.666,-110.1053C408.3805,-101.5364 450.1014,-89.1984 463,-76 478.0011,-60.6503 481.3002,-34.2567 481.9369,-19.9384"/>
<polygon fill="#191970" stroke="#191970" points="371.7197,-106.7321 362.7809,-112.4198 373.3155,-113.5478 371.7197,-106.7321"/>
</g>
<!-- Node4 -->
<g id="node4" class="node">
<title>Node4</title>
<g id="a_node4"><a xlink:href="_render_layout_converter_8cpp.html" target="_top" xlink:title="Simple converter to convert Layout + Render from l2 to L3 and vice versa. ">
<polygon fill="#ffffff" stroke="#000000" points="312,-56.5 312,-75.5 454,-75.5 454,-56.5 312,-56.5"/>
<text text-anchor="middle" x="383" y="-63.5" font-family="Helvetica,sans-Serif" font-size="10.00" fill="#000000">RenderLayoutConverter.cpp</text>
</a>
</g>
</g>
<!-- Node2&#45;&gt;Node4 -->
<g id="edge3" class="edge">
<title>Node2&#45;&gt;Node4</title>
<path fill="none" stroke="#191970" d="M335.5676,-105.645C347.2198,-95.9058 361.6084,-83.8795 371.4632,-75.6427"/>
<polygon fill="#191970" stroke="#191970" points="333.0988,-103.1469 327.6705,-112.2455 337.5879,-108.5179 333.0988,-103.1469"/>
</g>
<!-- Node2&#45;&gt;Node5 -->
<g id="edge4" class="edge">
<title>Node2&#45;&gt;Node5</title>
<path fill="none" stroke="#191970" d="M241.4661,-116.6668C178.2087,-110.6418 93.8654,-98.582 69,-76 52.9351,-61.4104 50.1093,-34.2068 49.8179,-19.6989"/>
<polygon fill="#191970" stroke="#191970" points="241.1466,-120.1521 251.4251,-117.5826 241.7877,-113.1815 241.1466,-120.1521"/>
</g>
<!-- Node6 -->
<g id="node6" class="node">
<title>Node6</title>
<g id="a_node6"><a xlink:href="_render_utilities_8h.html" target="_top" xlink:title="Definition of RenderUtilities, a class of utility functions for the render package. ">
<polygon fill="#ffffff" stroke="#000000" points="204,-56.5 204,-75.5 294,-75.5 294,-56.5 204,-56.5"/>
<text text-anchor="middle" x="249" y="-63.5" font-family="Helvetica,sans-Serif" font-size="10.00" fill="#000000">RenderUtilities.h</text>
</a>
</g>
</g>
<!-- Node2&#45;&gt;Node6 -->
<g id="edge5" class="edge">
<title>Node2&#45;&gt;Node6</title>
<path fill="none" stroke="#191970" d="M296.4324,-105.645C284.7802,-95.9058 270.3916,-83.8795 260.5368,-75.6427"/>
<polygon fill="#191970" stroke="#191970" points="294.4121,-108.5179 304.3295,-112.2455 298.9012,-103.1469 294.4121,-108.5179"/>
</g>
<!-- Node8 -->
<g id="node8" class="node">
<title>Node8</title>
<g id="a_node8"><a xlink:href="_render_validator_8cpp.html" target="_top" xlink:title="Definition of RenderValidator. ">
<polygon fill="#ffffff" stroke="#000000" points="78,-56.5 78,-75.5 186,-75.5 186,-56.5 78,-56.5"/>
<text text-anchor="middle" x="132" y="-63.5" font-family="Helvetica,sans-Serif" font-size="10.00" fill="#000000">RenderValidator.cpp</text>
</a>
</g>
</g>
<!-- Node2&#45;&gt;Node8 -->
<g id="edge9" class="edge">
<title>Node2&#45;&gt;Node8</title>
<path fill="none" stroke="#191970" d="M274.7843,-109.4561C241.0084,-99.1765 193.9337,-84.8494 163.218,-75.5011"/>
<polygon fill="#191970" stroke="#191970" points="273.7834,-112.8099 284.3693,-112.3733 275.8216,-106.1132 273.7834,-112.8099"/>
</g>
<!-- Node6&#45;&gt;Node3 -->
<g id="edge6" class="edge">
<title>Node6&#45;&gt;Node3</title>
<path fill="none" stroke="#191970" d="M298.7318,-54.0473C341.6172,-43.7401 402.7252,-29.0532 442.3747,-19.5237"/>
<polygon fill="#191970" stroke="#191970" points="297.6946,-50.6968 288.7894,-56.4369 299.3304,-57.503 297.6946,-50.6968"/>
</g>
<!-- Node6&#45;&gt;Node5 -->
<g id="edge8" class="edge">
<title>Node6&#45;&gt;Node5</title>
<path fill="none" stroke="#191970" d="M204.8938,-53.5882C168.3323,-43.2996 117.1252,-28.8895 83.7629,-19.5011"/>
<polygon fill="#191970" stroke="#191970" points="204.2164,-57.0335 214.7907,-56.3733 206.1127,-50.2952 204.2164,-57.0335"/>
</g>
<!-- Node7 -->
<g id="node7" class="node">
<title>Node7</title>
<g id="a_node7"><a xlink:href="_render_list_of_layouts_plugin_8cpp.html" target="_top" xlink:title="Implementation of RenderListOfLayoutsPlugin, the plugin class of the fbc package for the Model elemen...">
<polygon fill="#ffffff" stroke="#000000" points="170.5,-.5 170.5,-19.5 327.5,-19.5 327.5,-.5 170.5,-.5"/>
<text text-anchor="middle" x="249" y="-7.5" font-family="Helvetica,sans-Serif" font-size="10.00" fill="#000000">RenderListOfLayoutsPlugin.cpp</text>
</a>
</g>
</g>
<!-- Node6&#45;&gt;Node7 -->
<g id="edge7" class="edge">
<title>Node6&#45;&gt;Node7</title>
<path fill="none" stroke="#191970" d="M249,-46.1575C249,-37.155 249,-26.9199 249,-19.6427"/>
<polygon fill="#191970" stroke="#191970" points="245.5001,-46.2455 249,-56.2455 252.5001,-46.2456 245.5001,-46.2455"/>
</g>
</g>
</svg>
