<?xml version="1.0" encoding="UTF-8" standalone="no"?>
<!DOCTYPE svg PUBLIC "-//W3C//DTD SVG 1.1//EN"
 "http://www.w3.org/Graphics/SVG/1.1/DTD/svg11.dtd">
<!-- Generated by graphviz version 2.40.1 (20161225.0304)
 -->
<!-- Title: RenderInformationBase.h Pages: 1 -->
<!--zoomable 364 -->
<svg id="main" version="1.1" xmlns="http://www.w3.org/2000/svg" xmlns:xlink="http://www.w3.org/1999/xlink" xml:space="preserve" onload="init(evt)">
<style type="text/css"><![CDATA[
.edge:hover path { stroke: red; }
.edge:hover polygon { stroke: red; fill: red; }
]]></style>
<script type="text/javascript"><![CDATA[
var edges = document.getElementsByTagName('g');
if (edges && edges.length) {
  for (var i=0;i<edges.length;i++) {
    if (edges[i].id.substr(0,4)=='edge') {
      edges[i].setAttribute('class','edge');
    }
  }
}
]]></script>
        <defs>
                <circle id="rim" cx="0" cy="0" r="7"/>
                <circle id="rim2" cx="0" cy="0" r="3.5"/>
                <g id="zoomPlus">
                        <use xlink:href="#rim" fill="#404040">
                                <set attributeName="fill" to="#808080" begin="zoomplus.mouseover" end="zoomplus.mouseout"/>
                        </use>
                        <path d="M-4,0h8M0,-4v8" fill="none" stroke="white" stroke-width="1.5" pointer-events="none"/>
                </g>
                <g id="zoomMin">
                        <use xlink:href="#rim" fill="#404040">
                                <set attributeName="fill" to="#808080" begin="zoomminus.mouseover" end="zoomminus.mouseout"/>
                        </use>
                        <path d="M-4,0h8" fill="none" stroke="white" stroke-width="1.5" pointer-events="none"/>
                </g>
                <g id="dirArrow">
                        <path fill="none" stroke="white" stroke-width="1.5" d="M0,-3.0v7 M-2.5,-0.5L0,-3.0L2.5,-0.5"/>
                </g>
               <g id="resetDef">
                       <use xlink:href="#rim2" fill="#404040">
                               <set attributeName="fill" to="#808080" begin="reset.mouseover" end="reset.mouseout"/>
                       </use>
               </g>
        </defs>

<script type="text/javascript">
var viewWidth = 1177;
var viewHeight = 364;
var sectionId = 'dynsection-1';
</script>
<script xlink:href="svgpan.js"/>
<svg id="graph" class="graph">
<g id="viewport">
<title>RenderInformationBase.h</title>
<polygon fill="#ffffff" stroke="transparent" points="-4,4 -4,-360 1172.5,-360 1172.5,4 -4,4"/>
<!-- Node1 -->
<g id="node1" class="node">
<title>Node1</title>
<polygon fill="#bfbfbf" stroke="#000000" points="556,-336.5 556,-355.5 658,-355.5 658,-336.5 556,-336.5"/>
<text text-anchor="middle" x="607" y="-343.5" font-family="Helvetica,sans-Serif" font-size="10.00" fill="#000000">RenderInformationBase.h</text>
</g>
<!-- Node2 -->
<g id="node2" class="node">
<title>Node2</title>
<g id="a_node2"><a xlink:href="_render_extension_types_8h.html" target="_top" xlink:title="Definition of RenderExtensionTypes. ">
<polygon fill="#ffffff" stroke="#000000" points="574.5,-112.5 574.5,-131.5 675.5,-131.5 675.5,-112.5 574.5,-112.5"/>
<text text-anchor="middle" x="625" y="-119.5" font-family="Helvetica,sans-Serif" font-size="10.00" fill="#000000">RenderExtensionTypes.h</text>
</a>
</g>
</g>
<!-- Node1&#45;&gt;Node2 -->
<g id="edge1" class="edge">
<title>Node1&#45;&gt;Node2</title>
<path fill="none" stroke="#191970" d="M599.4418,-326.9529C587.402,-293.6632 567.1537,-223.1861 587,-168 592.2581,-153.3788 604.4007,-140.099 613.5547,-131.6084"/>
<polygon fill="#191970" stroke="#191970" points="596.1967,-328.2671 603.0011,-336.388 602.7461,-325.7963 596.1967,-328.2671"/>
</g>
<!-- Node9 -->
<g id="node9" class="node">
<title>Node9</title>
<g id="a_node9"><a xlink:href="_global_render_information_8h.html" target="_top" xlink:title="Definition of the GlobalRenderInformation class. ">
<polygon fill="#ffffff" stroke="#000000" points="346.5,-280.5 346.5,-299.5 453.5,-299.5 453.5,-280.5 346.5,-280.5"/>
<text text-anchor="middle" x="400" y="-287.5" font-family="Helvetica,sans-Serif" font-size="10.00" fill="#000000">GlobalRenderInformation.h</text>
</a>
</g>
</g>
<!-- Node1&#45;&gt;Node9 -->
<g id="edge10" class="edge">
<title>Node1&#45;&gt;Node9</title>
<path fill="none" stroke="#191970" d="M561.6075,-333.7199C523.545,-323.4228 469.972,-308.9296 435.1202,-299.5011"/>
<polygon fill="#191970" stroke="#191970" points="560.8484,-337.1403 571.4154,-336.3733 562.6765,-330.3832 560.8484,-337.1403"/>
</g>
<!-- Node15 -->
<g id="node15" class="node">
<title>Node15</title>
<g id="a_node15"><a xlink:href="_render_information_base_8cpp.html" target="_top" xlink:title="Implementation of the RenderInformationBase class. ">
<polygon fill="#ffffff" stroke="#000000" points="596,-168.5 596,-187.5 706,-187.5 706,-168.5 596,-168.5"/>
<text text-anchor="middle" x="651" y="-175.5" font-family="Helvetica,sans-Serif" font-size="10.00" fill="#000000">RenderInformationBase.cpp</text>
</a>
</g>
</g>
<!-- Node1&#45;&gt;Node15 -->
<g id="edge43" class="edge">
<title>Node1&#45;&gt;Node15</title>
<path fill="none" stroke="#191970" d="M612.0478,-326.7267C621.4517,-290.8207 641.3404,-214.8822 648.426,-187.8279"/>
<polygon fill="#191970" stroke="#191970" points="608.6396,-325.9257 609.4917,-336.4862 615.4112,-327.6993 608.6396,-325.9257"/>
</g>
<!-- Node16 -->
<g id="node16" class="node">
<title>Node16</title>
<g id="a_node16"><a xlink:href="_local_render_information_8h.html" target="_top" xlink:title="Definition of the LocalRenderInformation class. ">
<polygon fill="#ffffff" stroke="#000000" points="682.5,-280.5 682.5,-299.5 785.5,-299.5 785.5,-280.5 682.5,-280.5"/>
<text text-anchor="middle" x="734" y="-287.5" font-family="Helvetica,sans-Serif" font-size="10.00" fill="#000000">LocalRenderInformation.h</text>
</a>
</g>
</g>
<!-- Node1&#45;&gt;Node16 -->
<g id="edge27" class="edge">
<title>Node1&#45;&gt;Node16</title>
<path fill="none" stroke="#191970" d="M638.1892,-332.2473C661.2537,-322.0771 692.0712,-308.4883 712.4528,-299.5011"/>
<polygon fill="#191970" stroke="#191970" points="636.5699,-329.1361 628.8321,-336.3733 639.3942,-335.5411 636.5699,-329.1361"/>
</g>
<!-- Node3 -->
<g id="node3" class="node">
<title>Node3</title>
<g id="a_node3"><a xlink:href="_render_layout_plugin_8cpp.html" target="_top" xlink:title="Implementation of RenderLayoutPlugin, the plugin class of the fbc package for the Model element...">
<polygon fill="#ffffff" stroke="#000000" points="833.5,-.5 833.5,-19.5 932.5,-19.5 932.5,-.5 833.5,-.5"/>
<text text-anchor="middle" x="883" y="-7.5" font-family="Helvetica,sans-Serif" font-size="10.00" fill="#000000">RenderLayoutPlugin.cpp</text>
</a>
</g>
</g>
<!-- Node2&#45;&gt;Node3 -->
<g id="edge2" class="edge">
<title>Node2&#45;&gt;Node3</title>
<path fill="none" stroke="#191970" d="M685.9977,-112.3428C736.1762,-103.619 802.6847,-90.0301 826,-76 849.6098,-61.7927 868.459,-34.4279 877.3835,-19.7947"/>
<polygon fill="#191970" stroke="#191970" points="685.1447,-108.9379 675.8788,-114.0752 686.326,-115.8375 685.1447,-108.9379"/>
</g>
<!-- Node4 -->
<g id="node4" class="node">
<title>Node4</title>
<g id="a_node4"><a xlink:href="_render_layout_converter_8cpp.html" target="_top" xlink:title="Simple converter to convert Layout + Render from l2 to L3 and vice versa. ">
<polygon fill="#ffffff" stroke="#000000" points="473.5,-56.5 473.5,-75.5 584.5,-75.5 584.5,-56.5 473.5,-56.5"/>
<text text-anchor="middle" x="529" y="-63.5" font-family="Helvetica,sans-Serif" font-size="10.00" fill="#000000">RenderLayoutConverter.cpp</text>
</a>
</g>
</g>
<!-- Node2&#45;&gt;Node4 -->
<g id="edge3" class="edge">
<title>Node2&#45;&gt;Node4</title>
<path fill="none" stroke="#191970" d="M599.3654,-107.0465C582.2841,-97.0824 560.336,-84.2794 545.5303,-75.6427"/>
<polygon fill="#191970" stroke="#191970" points="597.8767,-110.23 608.2781,-112.2455 601.4038,-104.1836 597.8767,-110.23"/>
</g>
<!-- Node5 -->
<g id="node5" class="node">
<title>Node5</title>
<g id="a_node5"><a xlink:href="_render_utilities_8cpp.html" target="_top" xlink:title="implementation of RenderUtilities, a class of utility functions for the render package ...">
<polygon fill="#ffffff" stroke="#000000" points="654.5,-.5 654.5,-19.5 733.5,-19.5 733.5,-.5 654.5,-.5"/>
<text text-anchor="middle" x="694" y="-7.5" font-family="Helvetica,sans-Serif" font-size="10.00" fill="#000000">RenderUtilities.cpp</text>
</a>
</g>
</g>
<!-- Node2&#45;&gt;Node5 -->
<g id="edge4" class="edge">
<title>Node2&#45;&gt;Node5</title>
<path fill="none" stroke="#191970" d="M623.4674,-101.9734C623.3196,-88.1813 624.9877,-69.9081 633,-56 642.4019,-39.6797 660.142,-27.3115 674.0772,-19.5325"/>
<polygon fill="#191970" stroke="#191970" points="619.9858,-102.4729 623.9192,-112.3105 626.9791,-102.1671 619.9858,-102.4729"/>
</g>
<!-- Node6 -->
<g id="node6" class="node">
<title>Node6</title>
<g id="a_node6"><a xlink:href="_render_utilities_8h.html" target="_top" xlink:title="Definition of RenderUtilities, a class of utility functions for the render package. ">
<polygon fill="#ffffff" stroke="#000000" points="745,-56.5 745,-75.5 817,-75.5 817,-56.5 745,-56.5"/>
<text text-anchor="middle" x="781" y="-63.5" font-family="Helvetica,sans-Serif" font-size="10.00" fill="#000000">RenderUtilities.h</text>
</a>
</g>
</g>
<!-- Node2&#45;&gt;Node6 -->
<g id="edge5" class="edge">
<title>Node2&#45;&gt;Node6</title>
<path fill="none" stroke="#191970" d="M661.4284,-108.9231C689.9461,-98.686 728.9381,-84.6889 754.5326,-75.5011"/>
<polygon fill="#191970" stroke="#191970" points="660.0468,-105.7004 651.8174,-112.3733 662.4119,-112.2887 660.0468,-105.7004"/>
</g>
<!-- Node8 -->
<g id="node8" class="node">
<title>Node8</title>
<g id="a_node8"><a xlink:href="_render_validator_8cpp.html" target="_top" xlink:title="Definition of RenderValidator. ">
<polygon fill="#ffffff" stroke="#000000" points="641.5,-56.5 641.5,-75.5 726.5,-75.5 726.5,-56.5 641.5,-56.5"/>
<text text-anchor="middle" x="684" y="-63.5" font-family="Helvetica,sans-Serif" font-size="10.00" fill="#000000">RenderValidator.cpp</text>
</a>
</g>
</g>
<!-- Node2&#45;&gt;Node8 -->
<g id="edge9" class="edge">
<title>Node2&#45;&gt;Node8</title>
<path fill="none" stroke="#191970" d="M642.5307,-105.3607C652.7377,-95.6727 665.2469,-83.7995 673.8408,-75.6427"/>
<polygon fill="#191970" stroke="#191970" points="640.1206,-102.8227 635.277,-112.2455 644.9396,-107.8998 640.1206,-102.8227"/>
</g>
<!-- Node6&#45;&gt;Node3 -->
<g id="edge6" class="edge">
<title>Node6&#45;&gt;Node3</title>
<path fill="none" stroke="#191970" d="M807.734,-51.3225C825.9532,-41.3198 849.5598,-28.3593 865.4366,-19.6427"/>
<polygon fill="#191970" stroke="#191970" points="805.8484,-48.3649 798.767,-56.2455 809.2173,-54.5009 805.8484,-48.3649"/>
</g>
<!-- Node6&#45;&gt;Node5 -->
<g id="edge8" class="edge">
<title>Node6&#45;&gt;Node5</title>
<path fill="none" stroke="#191970" d="M757.3375,-50.769C741.9209,-40.8456 722.274,-28.1994 708.9806,-19.6427"/>
<polygon fill="#191970" stroke="#191970" points="755.5427,-53.7761 765.8458,-56.2455 759.3315,-47.89 755.5427,-53.7761"/>
</g>
<!-- Node7 -->
<g id="node7" class="node">
<title>Node7</title>
<g id="a_node7"><a xlink:href="_render_list_of_layouts_plugin_8cpp.html" target="_top" xlink:title="Implementation of RenderListOfLayoutsPlugin, the plugin class of the fbc package for the Model elemen...">
<polygon fill="#ffffff" stroke="#000000" points="128,-.5 128,-19.5 250,-19.5 250,-.5 128,-.5"/>
<text text-anchor="middle" x="189" y="-7.5" font-family="Helvetica,sans-Serif" font-size="10.00" fill="#000000">RenderListOfLayoutsPlugin.cpp</text>
</a>
</g>
</g>
<!-- Node6&#45;&gt;Node7 -->
<g id="edge7" class="edge">
<title>Node6&#45;&gt;Node7</title>
<path fill="none" stroke="#191970" d="M734.735,-55.9861C553.2363,-28.8483 349.5795,-17.0234 250.0224,-12.445"/>
<polygon fill="#191970" stroke="#191970" points="734.3185,-59.4629 744.7298,-57.4997 735.3666,-52.5418 734.3185,-59.4629"/>
</g>
<!-- Node9&#45;&gt;Node2 -->
<g id="edge11" class="edge">
<title>Node9&#45;&gt;Node2</title>
<path fill="none" stroke="#191970" d="M419.3057,-273.7286C448.0336,-249.743 504.0223,-203.8632 554,-168 572.496,-154.7275 594.6226,-140.6639 609.2028,-131.6328"/>
<polygon fill="#191970" stroke="#191970" points="416.7197,-271.3292 411.3022,-280.4342 421.2152,-276.6949 416.7197,-271.3292"/>
</g>
<!-- Node9&#45;&gt;Node7 -->
<g id="edge12" class="edge">
<title>Node9&#45;&gt;Node7</title>
<path fill="none" stroke="#191970" d="M336.2271,-285.3688C223.3123,-275.4015 0,-246.9706 0,-178 0,-178 0,-178 0,-122 0,-60.6881 74.5219,-32.2142 129.9766,-19.5134"/>
<polygon fill="#191970" stroke="#191970" points="336.2063,-288.8798 346.4693,-286.2489 336.8057,-281.9055 336.2063,-288.8798"/>
</g>
<!-- Node10 -->
<g id="node10" class="node">
<title>Node10</title>
<g id="a_node10"><a xlink:href="_render_list_of_layouts_plugin_8h.html" target="_top" xlink:title="Definition of RenderListOfLayoutsPlugin, the plugin class of fbc package for the Model element...">
<polygon fill="#ffffff" stroke="#000000" points="388,-168.5 388,-187.5 502,-187.5 502,-168.5 388,-168.5"/>
<text text-anchor="middle" x="445" y="-175.5" font-family="Helvetica,sans-Serif" font-size="10.00" fill="#000000">RenderListOfLayoutsPlugin.h</text>
</a>
</g>
</g>
<!-- Node9&#45;&gt;Node10 -->
<g id="edge13" class="edge">
<title>Node9&#45;&gt;Node10</title>
<path fill="none" stroke="#191970" d="M411.6342,-271.7302C416.538,-263.485 422.0194,-253.4843 426,-244 434.1215,-224.6495 440.0564,-200.7106 442.9726,-187.6385"/>
<polygon fill="#191970" stroke="#191970" points="408.5192,-270.1142 406.2672,-280.467 414.4838,-273.7782 408.5192,-270.1142"/>
</g>
<!-- Node12 -->
<g id="node12" class="node">
<title>Node12</title>
<g id="a_node12"><a xlink:href="_global_render_information_8cpp.html" target="_top" xlink:title="class for the storage of global render information ">
<polygon fill="#ffffff" stroke="#000000" points="28,-168.5 28,-187.5 142,-187.5 142,-168.5 28,-168.5"/>
<text text-anchor="middle" x="85" y="-175.5" font-family="Helvetica,sans-Serif" font-size="10.00" fill="#000000">GlobalRenderInformation.cpp</text>
</a>
</g>
</g>
<!-- Node9&#45;&gt;Node12 -->
<g id="edge18" class="edge">
<title>Node9&#45;&gt;Node12</title>
<path fill="none" stroke="#191970" d="M363.4575,-277.0071C299.383,-254.2251 168.219,-207.589 111.7887,-187.5249"/>
<polygon fill="#191970" stroke="#191970" points="362.5486,-280.3985 373.1433,-280.4509 364.8937,-273.803 362.5486,-280.3985"/>
</g>
<!-- Node13 -->
<g id="node13" class="node">
<title>Node13</title>
<g id="a_node13"><a xlink:href="_list_of_global_render_information_8h.html" target="_top" xlink:title="Definition of the ListOfGlobalRenderInformation class. ">
<polygon fill="#ffffff" stroke="#000000" points="291,-224.5 291,-243.5 417,-243.5 417,-224.5 291,-224.5"/>
<text text-anchor="middle" x="354" y="-231.5" font-family="Helvetica,sans-Serif" font-size="10.00" fill="#000000">ListOfGlobalRenderInformation.h</text>
</a>
</g>
</g>
<!-- Node9&#45;&gt;Node13 -->
<g id="edge19" class="edge">
<title>Node9&#45;&gt;Node13</title>
<path fill="none" stroke="#191970" d="M379.5785,-272.7884C370.8396,-263.2085 361.6826,-251.6396 356.6756,-243.6427"/>
<polygon fill="#191970" stroke="#191970" points="377.276,-275.4444 386.7206,-280.2455 382.3314,-270.6026 377.276,-275.4444"/>
</g>
<!-- Node9&#45;&gt;Node15 -->
<g id="edge26" class="edge">
<title>Node9&#45;&gt;Node15</title>
<path fill="none" stroke="#191970" d="M431.8539,-276.5397C453.1769,-267.472 481.8394,-255.1724 507,-244 551.2363,-224.3571 602.7102,-200.5279 630.5614,-187.5529"/>
<polygon fill="#191970" stroke="#191970" points="430.4494,-273.3335 422.6122,-280.4629 433.1848,-279.777 430.4494,-273.3335"/>
</g>
<!-- Node10&#45;&gt;Node2 -->
<g id="edge14" class="edge">
<title>Node10&#45;&gt;Node2</title>
<path fill="none" stroke="#191970" d="M485.7459,-165.3235C518.7563,-155.0536 564.5417,-140.8093 594.4607,-131.5011"/>
<polygon fill="#191970" stroke="#191970" points="484.4519,-162.0605 475.9431,-168.3733 486.5314,-168.7445 484.4519,-162.0605"/>
</g>
<!-- Node10&#45;&gt;Node5 -->
<g id="edge17" class="edge">
<title>Node10&#45;&gt;Node5</title>
<path fill="none" stroke="#191970" d="M441.7997,-158.0295C438.7151,-131.0958 437.79,-83.3592 464,-56 489.7052,-29.1677 595.6494,-17.2146 654.3656,-12.5627"/>
<polygon fill="#191970" stroke="#191970" points="438.3644,-158.7422 443.1811,-168.1788 445.3004,-157.7981 438.3644,-158.7422"/>
</g>
<!-- Node10&#45;&gt;Node7 -->
<g id="edge16" class="edge">
<title>Node10&#45;&gt;Node7</title>
<path fill="none" stroke="#191970" d="M422.0144,-162.9157C370.355,-129.0142 246.2649,-47.5801 203.6555,-19.6177"/>
<polygon fill="#191970" stroke="#191970" points="420.222,-165.9258 430.5028,-168.4862 424.0627,-160.0735 420.222,-165.9258"/>
</g>
<!-- Node11 -->
<g id="node11" class="node">
<title>Node11</title>
<g id="a_node11"><a xlink:href="_render_extension_8cpp.html" target="_top" xlink:title="Implementation of RenderExtension, the core module of the render package. ">
<polygon fill="#ffffff" stroke="#000000" points="717,-112.5 717,-131.5 805,-131.5 805,-112.5 717,-112.5"/>
<text text-anchor="middle" x="761" y="-119.5" font-family="Helvetica,sans-Serif" font-size="10.00" fill="#000000">RenderExtension.cpp</text>
</a>
</g>
</g>
<!-- Node10&#45;&gt;Node11 -->
<g id="edge15" class="edge">
<title>Node10&#45;&gt;Node11</title>
<path fill="none" stroke="#191970" d="M509.0003,-166.6582C570.8497,-155.6975 662.8944,-139.3858 716.9414,-129.8078"/>
<polygon fill="#191970" stroke="#191970" points="508.1991,-163.2455 498.9633,-168.4369 509.4206,-170.1381 508.1991,-163.2455"/>
</g>
<!-- Node13&#45;&gt;Node2 -->
<g id="edge20" class="edge">
<title>Node13&#45;&gt;Node2</title>
<path fill="none" stroke="#191970" d="M356.3377,-213.9759C359.1612,-199.0698 365.3717,-179.4042 379,-168 407.9894,-143.7415 511.2172,-131.2086 574.3732,-125.6686"/>
<polygon fill="#191970" stroke="#191970" points="352.8214,-213.8176 354.7721,-224.2313 359.7412,-214.8741 352.8214,-213.8176"/>
</g>
<!-- Node13&#45;&gt;Node7 -->
<g id="edge21" class="edge">
<title>Node13&#45;&gt;Node7</title>
<path fill="none" stroke="#191970" d="M280.596,-222.4613C242.0928,-214.7503 200.5563,-203.2188 189,-188 149.5671,-136.07 175.1369,-48.8215 185.3447,-19.7527"/>
<polygon fill="#191970" stroke="#191970" points="280.3396,-225.9764 290.822,-224.4368 281.6675,-219.1035 280.3396,-225.9764"/>
</g>
<!-- Node13&#45;&gt;Node9 -->
<g id="edge24" class="edge">
<title>Node13&#45;&gt;Node9</title>
<path fill="none" stroke="#191970" d="M374.2996,-251.0781C383.0346,-260.6394 392.2088,-272.2155 397.2543,-280.2455"/>
<polygon fill="#191970" stroke="#191970" points="376.6147,-248.4356 367.1659,-243.6427 371.5635,-253.2818 376.6147,-248.4356"/>
</g>
<!-- Node13&#45;&gt;Node10 -->
<g id="edge22" class="edge">
<title>Node13&#45;&gt;Node10</title>
<path fill="none" stroke="#191970" d="M378.7504,-218.769C394.8758,-208.8456 415.426,-196.1994 429.3307,-187.6427"/>
<polygon fill="#191970" stroke="#191970" points="376.5332,-216.0237 369.851,-224.2455 380.2019,-221.9853 376.5332,-216.0237"/>
</g>
<!-- Node13&#45;&gt;Node12 -->
<g id="edge23" class="edge">
<title>Node13&#45;&gt;Node12</title>
<path fill="none" stroke="#191970" d="M298.1441,-222.372C248.564,-212.0505 177.0061,-197.1537 130.7476,-187.5237"/>
<polygon fill="#191970" stroke="#191970" points="297.5594,-225.8253 308.0629,-224.4369 298.9861,-218.9722 297.5594,-225.8253"/>
</g>
<!-- Node14 -->
<g id="node14" class="node">
<title>Node14</title>
<g id="a_node14"><a xlink:href="_list_of_global_render_information_8cpp.html" target="_top" xlink:title="Implementation of the ListOfGlobalRenderInformation class. ">
<polygon fill="#ffffff" stroke="#000000" points="198,-168.5 198,-187.5 332,-187.5 332,-168.5 198,-168.5"/>
<text text-anchor="middle" x="265" y="-175.5" font-family="Helvetica,sans-Serif" font-size="10.00" fill="#000000">ListOfGlobalRenderInformation.cpp</text>
</a>
</g>
</g>
<!-- Node13&#45;&gt;Node14 -->
<g id="edge25" class="edge">
<title>Node13&#45;&gt;Node14</title>
<path fill="none" stroke="#191970" d="M329.7936,-218.769C314.0225,-208.8456 293.924,-196.1994 280.325,-187.6427"/>
<polygon fill="#191970" stroke="#191970" points="328.1695,-221.8823 338.4974,-224.2455 331.8974,-215.9575 328.1695,-221.8823"/>
</g>
<!-- Node16&#45;&gt;Node2 -->
<g id="edge28" class="edge">
<title>Node16&#45;&gt;Node2</title>
<path fill="none" stroke="#191970" d="M736.0994,-270.2552C737.7958,-244.2894 737.0024,-198.4064 715,-168 701.9356,-149.9456 679.6837,-138.4835 660.5753,-131.5163"/>
<polygon fill="#191970" stroke="#191970" points="732.6002,-270.0997 735.2435,-280.3595 739.5752,-270.6906 732.6002,-270.0997"/>
</g>
<!-- Node16&#45;&gt;Node10 -->
<g id="edge34" class="edge">
<title>Node16&#45;&gt;Node10</title>
<path fill="none" stroke="#191970" d="M699.7448,-276.7246C640.6986,-253.8417 521.1371,-207.5064 469.5776,-187.5249"/>
<polygon fill="#191970" stroke="#191970" points="698.771,-280.1008 709.36,-280.4509 701.3005,-273.5738 698.771,-280.1008"/>
</g>
<!-- Node16&#45;&gt;Node15 -->
<g id="edge42" class="edge">
<title>Node16&#45;&gt;Node15</title>
<path fill="none" stroke="#191970" d="M720.8172,-272.2111C703.0224,-248.1989 671.9485,-206.2679 658.0586,-187.5249"/>
<polygon fill="#191970" stroke="#191970" points="718.1574,-274.5005 726.9235,-280.4509 723.7814,-270.3327 718.1574,-274.5005"/>
</g>
<!-- Node17 -->
<g id="node17" class="node">
<title>Node17</title>
<g id="a_node17"><a xlink:href="_render_layout_plugin_8h.html" target="_top" xlink:title="Definition of RenderLayoutPlugin, the plugin class of fbc package for the Model element. ">
<polygon fill="#ffffff" stroke="#000000" points="948.5,-168.5 948.5,-187.5 1039.5,-187.5 1039.5,-168.5 948.5,-168.5"/>
<text text-anchor="middle" x="994" y="-175.5" font-family="Helvetica,sans-Serif" font-size="10.00" fill="#000000">RenderLayoutPlugin.h</text>
</a>
</g>
</g>
<!-- Node16&#45;&gt;Node17 -->
<g id="edge29" class="edge">
<title>Node16&#45;&gt;Node17</title>
<path fill="none" stroke="#191970" d="M795.654,-281.1638C831.57,-274.3559 876.9373,-262.8266 914,-244 943.2165,-229.159 971.3254,-202.0615 985.1346,-187.6359"/>
<polygon fill="#191970" stroke="#191970" points="795,-277.7253 785.7892,-282.9609 796.2546,-284.6119 795,-277.7253"/>
</g>
<!-- Node18 -->
<g id="node18" class="node">
<title>Node18</title>
<g id="a_node18"><a xlink:href="_list_of_local_render_information_8h.html" target="_top" xlink:title="Definition of the ListOfLocalRenderInformation class. ">
<polygon fill="#ffffff" stroke="#000000" points="783,-224.5 783,-243.5 905,-243.5 905,-224.5 783,-224.5"/>
<text text-anchor="middle" x="844" y="-231.5" font-family="Helvetica,sans-Serif" font-size="10.00" fill="#000000">ListOfLocalRenderInformation.h</text>
</a>
</g>
</g>
<!-- Node16&#45;&gt;Node18 -->
<g id="edge35" class="edge">
<title>Node16&#45;&gt;Node18</title>
<path fill="none" stroke="#191970" d="M762.2914,-275.5971C782.0111,-265.558 807.78,-252.4393 825.059,-243.6427"/>
<polygon fill="#191970" stroke="#191970" points="760.4843,-272.5896 753.1605,-280.2455 763.6601,-278.8277 760.4843,-272.5896"/>
</g>
<!-- Node20 -->
<g id="node20" class="node">
<title>Node20</title>
<g id="a_node20"><a xlink:href="_local_render_information_8cpp.html" target="_top" xlink:title="Implementation of the LocalRenderInformation class. ">
<polygon fill="#ffffff" stroke="#000000" points="1057.5,-168.5 1057.5,-187.5 1168.5,-187.5 1168.5,-168.5 1057.5,-168.5"/>
<text text-anchor="middle" x="1113" y="-175.5" font-family="Helvetica,sans-Serif" font-size="10.00" fill="#000000">LocalRenderInformation.cpp</text>
</a>
</g>
</g>
<!-- Node16&#45;&gt;Node20 -->
<g id="edge41" class="edge">
<title>Node16&#45;&gt;Node20</title>
<path fill="none" stroke="#191970" d="M795.7392,-279.0003C837.6911,-270.8968 894.2095,-258.745 943,-244 997.7031,-227.4682 1059.7792,-201.4379 1091.6365,-187.522"/>
<polygon fill="#191970" stroke="#191970" points="794.8384,-275.609 785.6717,-280.9214 796.1505,-282.4849 794.8384,-275.609"/>
</g>
<!-- Node17&#45;&gt;Node2 -->
<g id="edge30" class="edge">
<title>Node17&#45;&gt;Node2</title>
<path fill="none" stroke="#191970" d="M938.5132,-167.9656C839.3564,-151.805 735.7948,-137.1582 675.6599,-128.8752"/>
<polygon fill="#191970" stroke="#191970" points="937.9682,-171.4229 948.4024,-169.5849 939.0994,-164.5149 937.9682,-171.4229"/>
</g>
<!-- Node17&#45;&gt;Node3 -->
<g id="edge32" class="edge">
<title>Node17&#45;&gt;Node3</title>
<path fill="none" stroke="#191970" d="M982.1727,-160.0993C958.8452,-124.7928 907.5997,-47.232 889.4934,-19.8279"/>
<polygon fill="#191970" stroke="#191970" points="979.2813,-162.0723 987.7141,-168.4862 985.1217,-158.2135 979.2813,-162.0723"/>
</g>
<!-- Node17&#45;&gt;Node5 -->
<g id="edge33" class="edge">
<title>Node17&#45;&gt;Node5</title>
<path fill="none" stroke="#191970" d="M975.0402,-161.3272C945.1486,-135.7398 884.439,-86.5508 826,-56 795.2454,-39.9221 757.6619,-27.4529 730.4749,-19.5777"/>
<polygon fill="#191970" stroke="#191970" points="973.1057,-164.2814 982.9595,-168.174 977.6839,-158.9861 973.1057,-164.2814"/>
</g>
<!-- Node17&#45;&gt;Node11 -->
<g id="edge31" class="edge">
<title>Node17&#45;&gt;Node11</title>
<path fill="none" stroke="#191970" d="M944.2682,-166.0473C901.3828,-155.7401 840.2748,-141.0532 800.6253,-131.5237"/>
<polygon fill="#191970" stroke="#191970" points="943.6696,-169.503 954.2106,-168.4369 945.3054,-162.6968 943.6696,-169.503"/>
</g>
<!-- Node18&#45;&gt;Node2 -->
<g id="edge36" class="edge">
<title>Node18&#45;&gt;Node2</title>
<path fill="none" stroke="#191970" d="M824.0886,-218.1566C805.2811,-203.7264 775.8757,-182.5154 748,-168 718.3756,-152.5741 682.3763,-139.7392 656.9999,-131.5816"/>
<polygon fill="#191970" stroke="#191970" points="822.1362,-221.0722 832.1786,-224.4488 826.4338,-215.5467 822.1362,-221.0722"/>
</g>
<!-- Node18&#45;&gt;Node15 -->
<g id="edge40" class="edge">
<title>Node18&#45;&gt;Node15</title>
<path fill="none" stroke="#191970" d="M800.7683,-221.4561C765.3404,-211.1765 715.963,-196.8494 683.7449,-187.5011"/>
<polygon fill="#191970" stroke="#191970" points="800.2429,-224.9479 810.8221,-224.3733 802.1936,-218.2252 800.2429,-224.9479"/>
</g>
<!-- Node18&#45;&gt;Node17 -->
<g id="edge37" class="edge">
<title>Node18&#45;&gt;Node17</title>
<path fill="none" stroke="#191970" d="M879.3871,-220.7888C906.7753,-210.5639 944.0479,-196.6488 968.5506,-187.5011"/>
<polygon fill="#191970" stroke="#191970" points="877.9302,-217.5967 869.7859,-224.3733 880.3785,-224.1546 877.9302,-217.5967"/>
</g>
<!-- Node19 -->
<g id="node19" class="node">
<title>Node19</title>
<g id="a_node19"><a xlink:href="_list_of_local_render_information_8cpp.html" target="_top" xlink:title="Implementation of the ListOfLocalRenderInformation class. ">
<polygon fill="#ffffff" stroke="#000000" points="800,-168.5 800,-187.5 930,-187.5 930,-168.5 800,-168.5"/>
<text text-anchor="middle" x="865" y="-175.5" font-family="Helvetica,sans-Serif" font-size="10.00" fill="#000000">ListOfLocalRenderInformation.cpp</text>
</a>
</g>
</g>
<!-- Node18&#45;&gt;Node19 -->
<g id="edge38" class="edge">
<title>Node18&#45;&gt;Node19</title>
<path fill="none" stroke="#191970" d="M851.219,-214.7493C854.6476,-205.6064 858.5951,-195.0798 861.384,-187.6427"/>
<polygon fill="#191970" stroke="#191970" points="847.8921,-213.6533 847.6579,-224.2455 854.4464,-216.1112 847.8921,-213.6533"/>
</g>
<!-- Node18&#45;&gt;Node20 -->
<g id="edge39" class="edge">
<title>Node18&#45;&gt;Node20</title>
<path fill="none" stroke="#191970" d="M899.8559,-222.372C949.436,-212.0505 1020.9939,-197.1537 1067.2524,-187.5237"/>
<polygon fill="#191970" stroke="#191970" points="899.0139,-218.9722 889.9371,-224.4369 900.4406,-225.8253 899.0139,-218.9722"/>
</g>
</g>
</svg>
        <g id="navigator" transform="translate(0 0)" fill="#404254">
                <rect fill="#f2f5e9" fill-opacity="0.5" stroke="#606060" stroke-width=".5" x="0" y="0" width="60" height="60"/>
                <use id="zoomplus" xlink:href="#zoomPlus" x="17" y="9" onmousedown="handleZoom(evt,'in')"/>
                <use id="zoomminus" xlink:href="#zoomMin" x="42" y="9" onmousedown="handleZoom(evt,'out')"/>
                <use id="reset" xlink:href="#resetDef" x="30" y="36" onmousedown="handleReset()"/>
                <g id="arrowUp" xlink:href="#dirArrow" transform="translate(30 24)" onmousedown="handlePan(0,-1)">
                  <use xlink:href="#rim" fill="#404040">
                        <set attributeName="fill" to="#808080" begin="arrowUp.mouseover" end="arrowUp.mouseout"/>
                  </use>
                  <path fill="none" stroke="white" stroke-width="1.5" d="M0,-3.0v7 M-2.5,-0.5L0,-3.0L2.5,-0.5"/>
                </g>
                <g id="arrowRight" xlink:href="#dirArrow" transform="rotate(90) translate(36 -43)" onmousedown="handlePan(1,0)">
                  <use xlink:href="#rim" fill="#404040">
                        <set attributeName="fill" to="#808080" begin="arrowRight.mouseover" end="arrowRight.mouseout"/>
                  </use>
                  <path fill="none" stroke="white" stroke-width="1.5" d="M0,-3.0v7 M-2.5,-0.5L0,-3.0L2.5,-0.5"/>
                </g>
                <g id="arrowDown" xlink:href="#dirArrow" transform="rotate(180) translate(-30 -48)" onmousedown="handlePan(0,1)">
                  <use xlink:href="#rim" fill="#404040">
                        <set attributeName="fill" to="#808080" begin="arrowDown.mouseover" end="arrowDown.mouseout"/>
                  </use>
                  <path fill="none" stroke="white" stroke-width="1.5" d="M0,-3.0v7 M-2.5,-0.5L0,-3.0L2.5,-0.5"/>
                </g>
                <g id="arrowLeft" xlink:href="#dirArrow" transform="rotate(270) translate(-36 17)" onmousedown="handlePan(-1,0)">
                  <use xlink:href="#rim" fill="#404040">
                        <set attributeName="fill" to="#808080" begin="arrowLeft.mouseover" end="arrowLeft.mouseout"/>
                  </use>
                  <path fill="none" stroke="white" stroke-width="1.5" d="M0,-3.0v7 M-2.5,-0.5L0,-3.0L2.5,-0.5"/>
                </g>
        </g>
        <svg viewBox="0 0 15 15" width="100%" height="30px" preserveAspectRatio="xMaxYMin meet">
         <g id="arrow_out" transform="scale(0.3 0.3)">
          <a xlink:href="_render_information_base_8h__dep__incl_org.svg" target="_base">
           <rect id="button" ry="5" rx="5" y="6" x="6" height="38" width="38"
                fill="#f2f5e9" fill-opacity="0.5" stroke="#606060" stroke-width="1.0"/>
           <path id="arrow"
             d="M 11.500037,31.436501 C 11.940474,20.09759 22.043105,11.32322 32.158766,21.979434 L 37.068811,17.246167 C 37.068811,17.246167 37.088388,32 37.088388,32 L 22.160133,31.978069 C 22.160133,31.978069 26.997745,27.140456 26.997745,27.140456 C 18.528582,18.264221 13.291696,25.230495 11.500037,31.436501 z"
             style="fill:#404040;"/>
          </a>
         </g>
        </svg>
</svg>
