<?xml version="1.0" encoding="UTF-8" standalone="no"?>
<!DOCTYPE svg PUBLIC "-//W3C//DTD SVG 1.1//EN"
 "http://www.w3.org/Graphics/SVG/1.1/DTD/svg11.dtd">
<!-- Generated by graphviz version 2.40.1 (20161225.0304)
 -->
<!-- Title: ReplacedElement.h Pages: 1 -->
<svg width="1093pt" height="308pt"
 viewBox="0.00 0.00 1093.00 308.00" xmlns="http://www.w3.org/2000/svg" xmlns:xlink="http://www.w3.org/1999/xlink">
<g id="graph0" class="graph" transform="scale(1 1) rotate(0) translate(4 304)">
<title>ReplacedElement.h</title>
<polygon fill="#ffffff" stroke="transparent" points="-4,4 -4,-304 1089,-304 1089,4 -4,4"/>
<!-- Node1 -->
<g id="node1" class="node">
<title>Node1</title>
<polygon fill="#bfbfbf" stroke="#000000" points="159,-280.5 159,-299.5 241,-299.5 241,-280.5 159,-280.5"/>
<text text-anchor="middle" x="200" y="-287.5" font-family="Helvetica,sans-Serif" font-size="10.00" fill="#000000">ReplacedElement.h</text>
</g>
<!-- Node2 -->
<g id="node2" class="node">
<title>Node2</title>
<g id="a_node2"><a xlink:href="_comp_extension_types_8h.html" target="_top" xlink:title="Include all SBML types of Comp extension in a single header file. ">
<polygon fill="#ffffff" stroke="#000000" points="989,-56.5 989,-75.5 1085,-75.5 1085,-56.5 989,-56.5"/>
<text text-anchor="middle" x="1037" y="-63.5" font-family="Helvetica,sans-Serif" font-size="10.00" fill="#000000">CompExtensionTypes.h</text>
</a>
</g>
</g>
<!-- Node1&#45;&gt;Node2 -->
<g id="edge1" class="edge">
<title>Node1&#45;&gt;Node2</title>
<path fill="none" stroke="#191970" d="M245.4553,-277.8351C394.5643,-237.9302 866.9372,-111.5126 1001.131,-75.5994"/>
<polygon fill="#191970" stroke="#191970" points="244.4523,-274.4803 235.6971,-280.4467 246.262,-281.2424 244.4523,-274.4803"/>
</g>
<!-- Node5 -->
<g id="node5" class="node">
<title>Node5</title>
<g id="a_node5"><a xlink:href="_list_of_replaced_elements_8h.html" target="_top" xlink:title="Definition of ListOfReplacedElements, the SBase derived class of replacedElements package...">
<polygon fill="#ffffff" stroke="#000000" points="147.5,-224.5 147.5,-243.5 252.5,-243.5 252.5,-224.5 147.5,-224.5"/>
<text text-anchor="middle" x="200" y="-231.5" font-family="Helvetica,sans-Serif" font-size="10.00" fill="#000000">ListOfReplacedElements.h</text>
</a>
</g>
</g>
<!-- Node1&#45;&gt;Node5 -->
<g id="edge4" class="edge">
<title>Node1&#45;&gt;Node5</title>
<path fill="none" stroke="#191970" d="M200,-270.1575C200,-261.155 200,-250.9199 200,-243.6427"/>
<polygon fill="#191970" stroke="#191970" points="196.5001,-270.2455 200,-280.2455 203.5001,-270.2456 196.5001,-270.2455"/>
</g>
<!-- Node13 -->
<g id="node13" class="node">
<title>Node13</title>
<g id="a_node13"><a xlink:href="_replaced_element_8cpp.html" target="_top" xlink:title="Implementation of ReplacedElement, the Subelement derived class of replacedElements package...">
<polygon fill="#ffffff" stroke="#000000" points="0,-56.5 0,-75.5 90,-75.5 90,-56.5 0,-56.5"/>
<text text-anchor="middle" x="45" y="-63.5" font-family="Helvetica,sans-Serif" font-size="10.00" fill="#000000">ReplacedElement.cpp</text>
</a>
</g>
</g>
<!-- Node1&#45;&gt;Node13 -->
<g id="edge29" class="edge">
<title>Node1&#45;&gt;Node13</title>
<path fill="none" stroke="#191970" d="M169.2983,-275.8998C136.7948,-259.3983 86.3537,-229.0205 58,-188 33.6561,-152.7806 39.5256,-97.6573 43.1713,-75.5971"/>
<polygon fill="#191970" stroke="#191970" points="167.8452,-279.0857 178.361,-280.3778 170.9462,-272.81 167.8452,-279.0857"/>
</g>
<!-- Node3 -->
<g id="node3" class="node">
<title>Node3</title>
<g id="a_node3"><a xlink:href="_comp_flattening_converter_8cpp.html" target="_top" xlink:title="Implementation of a first flattening converter. ">
<polygon fill="#ffffff" stroke="#000000" points="648.5,-.5 648.5,-19.5 765.5,-19.5 765.5,-.5 648.5,-.5"/>
<text text-anchor="middle" x="707" y="-7.5" font-family="Helvetica,sans-Serif" font-size="10.00" fill="#000000">CompFlatteningConverter.cpp</text>
</a>
</g>
</g>
<!-- Node2&#45;&gt;Node3 -->
<g id="edge2" class="edge">
<title>Node2&#45;&gt;Node3</title>
<path fill="none" stroke="#191970" d="M978.5422,-55.7573C898.5111,-42.0158 817.2617,-28.383 764.2754,-19.5355"/>
<polygon fill="#191970" stroke="#191970" points="978.3535,-59.2761 988.8019,-57.5207 979.5393,-52.3773 978.3535,-59.2761"/>
</g>
<!-- Node4 -->
<g id="node4" class="node">
<title>Node4</title>
<g id="a_node4"><a xlink:href="_comp_validator_8cpp.html" target="_top" xlink:title="CompValidator.cpp">
<polygon fill="#ffffff" stroke="#000000" points="997,-.5 997,-19.5 1077,-19.5 1077,-.5 997,-.5"/>
<text text-anchor="middle" x="1037" y="-7.5" font-family="Helvetica,sans-Serif" font-size="10.00" fill="#000000">CompValidator.cpp</text>
</a>
</g>
</g>
<!-- Node2&#45;&gt;Node4 -->
<g id="edge3" class="edge">
<title>Node2&#45;&gt;Node4</title>
<path fill="none" stroke="#191970" d="M1037,-46.1575C1037,-37.155 1037,-26.9199 1037,-19.6427"/>
<polygon fill="#191970" stroke="#191970" points="1033.5001,-46.2455 1037,-56.2455 1040.5001,-46.2456 1033.5001,-46.2455"/>
</g>
<!-- Node5&#45;&gt;Node2 -->
<g id="edge5" class="edge">
<title>Node5&#45;&gt;Node2</title>
<path fill="none" stroke="#191970" d="M257.2936,-222.5002C413.6545,-191.1159 845.6197,-104.4132 989.6034,-75.5133"/>
<polygon fill="#191970" stroke="#191970" points="256.5146,-219.0867 247.3989,-224.4862 257.8922,-225.9498 256.5146,-219.0867"/>
</g>
<!-- Node6 -->
<g id="node6" class="node">
<title>Node6</title>
<g id="a_node6"><a xlink:href="_comp_s_base_plugin_8h.html" target="_top" xlink:title="Definition of CompSBasePlugin, the plugin class of comp package for the Model element. ">
<polygon fill="#ffffff" stroke="#000000" points="216,-168.5 216,-187.5 302,-187.5 302,-168.5 216,-168.5"/>
<text text-anchor="middle" x="259" y="-175.5" font-family="Helvetica,sans-Serif" font-size="10.00" fill="#000000">CompSBasePlugin.h</text>
</a>
</g>
</g>
<!-- Node5&#45;&gt;Node6 -->
<g id="edge6" class="edge">
<title>Node5&#45;&gt;Node6</title>
<path fill="none" stroke="#191970" d="M217.5307,-217.3607C227.7377,-207.6727 240.2469,-195.7995 248.8408,-187.6427"/>
<polygon fill="#191970" stroke="#191970" points="215.1206,-214.8227 210.277,-224.2455 219.9396,-219.8998 215.1206,-214.8227"/>
</g>
<!-- Node5&#45;&gt;Node13 -->
<g id="edge28" class="edge">
<title>Node5&#45;&gt;Node13</title>
<path fill="none" stroke="#191970" d="M137.4263,-223.6685C114.9088,-216.9912 91.1132,-206.018 75,-188 45.6298,-155.1578 43.9309,-98.1851 44.5209,-75.611"/>
<polygon fill="#191970" stroke="#191970" points="136.7416,-227.1095 147.3099,-226.3596 138.5806,-220.3554 136.7416,-227.1095"/>
</g>
<!-- Node19 -->
<g id="node19" class="node">
<title>Node19</title>
<g id="a_node19"><a xlink:href="_list_of_replaced_elements_8cpp.html" target="_top" xlink:title="ListOfReplacedElements.cpp">
<polygon fill="#ffffff" stroke="#000000" points="84.5,-168.5 84.5,-187.5 197.5,-187.5 197.5,-168.5 84.5,-168.5"/>
<text text-anchor="middle" x="141" y="-175.5" font-family="Helvetica,sans-Serif" font-size="10.00" fill="#000000">ListOfReplacedElements.cpp</text>
</a>
</g>
</g>
<!-- Node5&#45;&gt;Node19 -->
<g id="edge27" class="edge">
<title>Node5&#45;&gt;Node19</title>
<path fill="none" stroke="#191970" d="M182.4693,-217.3607C172.2623,-207.6727 159.7531,-195.7995 151.1592,-187.6427"/>
<polygon fill="#191970" stroke="#191970" points="180.0604,-219.8998 189.723,-224.2455 184.8794,-214.8227 180.0604,-219.8998"/>
</g>
<!-- Node6&#45;&gt;Node2 -->
<g id="edge7" class="edge">
<title>Node6&#45;&gt;Node2</title>
<path fill="none" stroke="#191970" d="M312.3317,-170.6892C456.2276,-150.9262 850.2899,-96.5473 980,-76 982.8777,-75.5441 985.8349,-75.0632 988.8167,-74.5688"/>
<polygon fill="#191970" stroke="#191970" points="311.8416,-167.2235 302.4106,-172.0513 312.7938,-174.1585 311.8416,-167.2235"/>
</g>
<!-- Node7 -->
<g id="node7" class="node">
<title>Node7</title>
<g id="a_node7"><a xlink:href="_comp_extension_8cpp.html" target="_top" xlink:title="Implementation of CompExtension, the core module of comp package. ">
<polygon fill="#ffffff" stroke="#000000" points="205,-.5 205,-19.5 289,-19.5 289,-.5 205,-.5"/>
<text text-anchor="middle" x="247" y="-7.5" font-family="Helvetica,sans-Serif" font-size="10.00" fill="#000000">CompExtension.cpp</text>
</a>
</g>
</g>
<!-- Node6&#45;&gt;Node7 -->
<g id="edge8" class="edge">
<title>Node6&#45;&gt;Node7</title>
<path fill="none" stroke="#191970" d="M211.3012,-165.6229C181.7493,-156.8924 147.8011,-144.5578 139,-132 119.6122,-104.3368 119.3258,-84.1498 138,-56 152.8176,-33.6636 180.853,-22.1463 204.7798,-16.222"/>
<polygon fill="#191970" stroke="#191970" points="210.5343,-169.044 221.112,-168.4406 212.4667,-162.316 210.5343,-169.044"/>
</g>
<!-- Node8 -->
<g id="node8" class="node">
<title>Node8</title>
<g id="a_node8"><a xlink:href="_comp_model_plugin_8h.html" target="_top" xlink:title="Definition of CompModelPlugin, the plugin class of comp package for the Model element. ">
<polygon fill="#ffffff" stroke="#000000" points="452,-112.5 452,-131.5 536,-131.5 536,-112.5 452,-112.5"/>
<text text-anchor="middle" x="494" y="-119.5" font-family="Helvetica,sans-Serif" font-size="10.00" fill="#000000">CompModelPlugin.h</text>
</a>
</g>
</g>
<!-- Node6&#45;&gt;Node8 -->
<g id="edge9" class="edge">
<title>Node6&#45;&gt;Node8</title>
<path fill="none" stroke="#191970" d="M308.8852,-166.1125C352.152,-155.8021 413.9604,-141.0733 454.0346,-131.5237"/>
<polygon fill="#191970" stroke="#191970" points="308.0472,-162.7141 299.1309,-168.4369 309.6699,-169.5234 308.0472,-162.7141"/>
</g>
<!-- Node12 -->
<g id="node12" class="node">
<title>Node12</title>
<g id="a_node12"><a xlink:href="_replaced_by_8cpp.html" target="_top" xlink:title="Implementation of ReplacedBy, the SBaseRef derived class of the comp package. ">
<polygon fill="#ffffff" stroke="#000000" points="147.5,-56.5 147.5,-75.5 218.5,-75.5 218.5,-56.5 147.5,-56.5"/>
<text text-anchor="middle" x="183" y="-63.5" font-family="Helvetica,sans-Serif" font-size="10.00" fill="#000000">ReplacedBy.cpp</text>
</a>
</g>
</g>
<!-- Node6&#45;&gt;Node12 -->
<g id="edge25" class="edge">
<title>Node6&#45;&gt;Node12</title>
<path fill="none" stroke="#191970" d="M260.7545,-157.8417C261.0043,-143.9892 259.3667,-125.6978 251,-112 240.7472,-95.2144 221.7882,-83.1587 206.4887,-75.6112"/>
<polygon fill="#191970" stroke="#191970" points="257.238,-158.0652 260.2071,-168.2355 264.2283,-158.4334 257.238,-158.0652"/>
</g>
<!-- Node6&#45;&gt;Node13 -->
<g id="edge26" class="edge">
<title>Node6&#45;&gt;Node13</title>
<path fill="none" stroke="#191970" d="M209.068,-166.0234C171.3895,-156.4273 123.3293,-142.8261 106,-132 81.9163,-116.9543 61.2453,-89.9432 51.3072,-75.5846"/>
<polygon fill="#191970" stroke="#191970" points="208.3392,-169.4491 218.891,-168.4952 210.0474,-162.6607 208.3392,-169.4491"/>
</g>
<!-- Node18 -->
<g id="node18" class="node">
<title>Node18</title>
<g id="a_node18"><a xlink:href="_comp_s_base_plugin_8cpp.html" target="_top" xlink:title="Implementation of CompSBasePlugin, the plugin class of comp package for the SBase element...">
<polygon fill="#ffffff" stroke="#000000" points="148,-112.5 148,-131.5 242,-131.5 242,-112.5 148,-112.5"/>
<text text-anchor="middle" x="195" y="-119.5" font-family="Helvetica,sans-Serif" font-size="10.00" fill="#000000">CompSBasePlugin.cpp</text>
</a>
</g>
</g>
<!-- Node6&#45;&gt;Node18 -->
<g id="edge24" class="edge">
<title>Node6&#45;&gt;Node18</title>
<path fill="none" stroke="#191970" d="M240.3086,-161.645C229.1781,-151.9058 215.4337,-139.8795 206.0202,-131.6427"/>
<polygon fill="#191970" stroke="#191970" points="238.0215,-164.2945 247.8521,-168.2455 242.631,-159.0264 238.0215,-164.2945"/>
</g>
<!-- Node8&#45;&gt;Node2 -->
<g id="edge10" class="edge">
<title>Node8&#45;&gt;Node2</title>
<path fill="none" stroke="#191970" d="M546.18,-118.4257C635.3446,-112.0131 822.6553,-97.2145 980,-76 982.8875,-75.6107 985.8523,-75.1812 988.8397,-74.7258"/>
<polygon fill="#191970" stroke="#191970" points="545.7839,-114.9449 536.0584,-119.1478 546.2821,-121.9272 545.7839,-114.9449"/>
</g>
<!-- Node8&#45;&gt;Node7 -->
<g id="edge11" class="edge">
<title>Node8&#45;&gt;Node7</title>
<path fill="none" stroke="#191970" d="M441.4468,-117.6718C382.2656,-111.7464 291.0669,-99.1094 266,-76 250.0447,-61.2906 247.1726,-34.1376 246.8454,-19.6689"/>
<polygon fill="#191970" stroke="#191970" points="441.4487,-121.1882 451.7392,-118.6673 442.1227,-114.2208 441.4487,-121.1882"/>
</g>
<!-- Node9 -->
<g id="node9" class="node">
<title>Node9</title>
<g id="a_node9"><a xlink:href="_comp_model_plugin_8cpp.html" target="_top" xlink:title="Implementation of CompModelPlugin, the plugin class of comp package for the SBase element...">
<polygon fill="#ffffff" stroke="#000000" points="649,-56.5 649,-75.5 741,-75.5 741,-56.5 649,-56.5"/>
<text text-anchor="middle" x="695" y="-63.5" font-family="Helvetica,sans-Serif" font-size="10.00" fill="#000000">CompModelPlugin.cpp</text>
</a>
</g>
</g>
<!-- Node8&#45;&gt;Node9 -->
<g id="edge12" class="edge">
<title>Node8&#45;&gt;Node9</title>
<path fill="none" stroke="#191970" d="M538.5494,-109.5882C575.4784,-99.2996 627.2002,-84.8895 660.8978,-75.5011"/>
<polygon fill="#191970" stroke="#191970" points="537.2469,-106.3177 528.5531,-112.3733 539.1256,-113.0609 537.2469,-106.3177"/>
</g>
<!-- Node10 -->
<g id="node10" class="node">
<title>Node10</title>
<g id="a_node10"><a xlink:href="_comp_s_b_m_l_document_plugin_8cpp.html" target="_top" xlink:title="Implementation of CompSBMLDocumentPlugin, the plugin class of comp package for the SBase element...">
<polygon fill="#ffffff" stroke="#000000" points="759,-56.5 759,-75.5 885,-75.5 885,-56.5 759,-56.5"/>
<text text-anchor="middle" x="822" y="-63.5" font-family="Helvetica,sans-Serif" font-size="10.00" fill="#000000">CompSBMLDocumentPlugin.cpp</text>
</a>
</g>
</g>
<!-- Node8&#45;&gt;Node10 -->
<g id="edge13" class="edge">
<title>Node8&#45;&gt;Node10</title>
<path fill="none" stroke="#191970" d="M546.2445,-113.0802C606.3637,-102.8159 704.6954,-86.0276 766.2533,-75.5177"/>
<polygon fill="#191970" stroke="#191970" points="545.4771,-109.6605 536.2088,-114.7936 546.6552,-116.5607 545.4771,-109.6605"/>
</g>
<!-- Node11 -->
<g id="node11" class="node">
<title>Node11</title>
<g id="a_node11"><a xlink:href="_comp_base_8cpp.html" target="_top" xlink:title="Implementation of CompBase, the base class of extension entities plugged in SBase derived classes in ...">
<polygon fill="#ffffff" stroke="#000000" points="903,-56.5 903,-75.5 971,-75.5 971,-56.5 903,-56.5"/>
<text text-anchor="middle" x="937" y="-63.5" font-family="Helvetica,sans-Serif" font-size="10.00" fill="#000000">CompBase.cpp</text>
</a>
</g>
</g>
<!-- Node8&#45;&gt;Node11 -->
<g id="edge14" class="edge">
<title>Node8&#45;&gt;Node11</title>
<path fill="none" stroke="#191970" d="M546.6191,-117.8742C623.3632,-111.4218 770.3287,-97.4196 894,-76 896.8698,-75.503 899.835,-74.9331 902.8042,-74.3231"/>
<polygon fill="#191970" stroke="#191970" points="545.9417,-114.4183 536.2659,-118.7346 546.5215,-121.3943 545.9417,-114.4183"/>
</g>
<!-- Node8&#45;&gt;Node12 -->
<g id="edge15" class="edge">
<title>Node8&#45;&gt;Node12</title>
<path fill="none" stroke="#191970" d="M441.7855,-113.16C389.0508,-104.1467 305.278,-89.5953 233,-76 228.3891,-75.1327 223.5442,-74.1959 218.76,-73.2555"/>
<polygon fill="#191970" stroke="#191970" points="441.4597,-116.6549 451.906,-114.8869 442.6372,-109.7547 441.4597,-116.6549"/>
</g>
<!-- Node8&#45;&gt;Node13 -->
<g id="edge16" class="edge">
<title>Node8&#45;&gt;Node13</title>
<path fill="none" stroke="#191970" d="M441.6349,-115.4689C352.7395,-104.3818 173.8235,-82.0671 90.1141,-71.6267"/>
<polygon fill="#191970" stroke="#191970" points="441.4029,-118.967 451.7592,-116.7317 442.2693,-112.0209 441.4029,-118.967"/>
</g>
<!-- Node14 -->
<g id="node14" class="node">
<title>Node14</title>
<g id="a_node14"><a xlink:href="_replacing_8cpp.html" target="_top" xlink:title="Implementation of Replacing, the SBaseRef derived class of Replacings package. ">
<polygon fill="#ffffff" stroke="#000000" points="275,-56.5 275,-75.5 339,-75.5 339,-56.5 275,-56.5"/>
<text text-anchor="middle" x="307" y="-63.5" font-family="Helvetica,sans-Serif" font-size="10.00" fill="#000000">Replacing.cpp</text>
</a>
</g>
</g>
<!-- Node8&#45;&gt;Node14 -->
<g id="edge17" class="edge">
<title>Node8&#45;&gt;Node14</title>
<path fill="none" stroke="#191970" d="M452.1123,-109.4561C417.7857,-99.1765 369.9435,-84.8494 338.727,-75.5011"/>
<polygon fill="#191970" stroke="#191970" points="451.2698,-112.8573 461.8536,-112.3733 453.278,-106.1515 451.2698,-112.8573"/>
</g>
<!-- Node15 -->
<g id="node15" class="node">
<title>Node15</title>
<g id="a_node15"><a xlink:href="_s_base_ref_8cpp.html" target="_top" xlink:title="Implementation of SBaseRef, the SBase&#45;derived class of the comp package. ">
<polygon fill="#ffffff" stroke="#000000" points="357,-56.5 357,-75.5 421,-75.5 421,-56.5 357,-56.5"/>
<text text-anchor="middle" x="389" y="-63.5" font-family="Helvetica,sans-Serif" font-size="10.00" fill="#000000">SBaseRef.cpp</text>
</a>
</g>
</g>
<!-- Node8&#45;&gt;Node15 -->
<g id="edge18" class="edge">
<title>Node8&#45;&gt;Node15</title>
<path fill="none" stroke="#191970" d="M466.7375,-107.46C447.9478,-97.4388 423.4987,-84.3993 407.08,-75.6427"/>
<polygon fill="#191970" stroke="#191970" points="465.2398,-110.6278 475.7104,-112.2455 468.5339,-104.4514 465.2398,-110.6278"/>
</g>
<!-- Node16 -->
<g id="node16" class="node">
<title>Node16</title>
<g id="a_node16"><a xlink:href="_submodel_8cpp.html" target="_top" xlink:title="Implementation of Submodel, the SBase&#45;derived class of the comp package. ">
<polygon fill="#ffffff" stroke="#000000" points="567,-56.5 567,-75.5 631,-75.5 631,-56.5 567,-56.5"/>
<text text-anchor="middle" x="599" y="-63.5" font-family="Helvetica,sans-Serif" font-size="10.00" fill="#000000">Submodel.cpp</text>
</a>
</g>
</g>
<!-- Node8&#45;&gt;Node16 -->
<g id="edge19" class="edge">
<title>Node8&#45;&gt;Node16</title>
<path fill="none" stroke="#191970" d="M521.2625,-107.46C540.0522,-97.4388 564.5013,-84.3993 580.92,-75.6427"/>
<polygon fill="#191970" stroke="#191970" points="519.4661,-104.4514 512.2896,-112.2455 522.7602,-110.6278 519.4661,-104.4514"/>
</g>
<!-- Node17 -->
<g id="node17" class="node">
<title>Node17</title>
<g id="a_node17"><a xlink:href="_comp_flattening_converter_8h.html" target="_top" xlink:title="Definition of a first flattening converter. ">
<polygon fill="#ffffff" stroke="#000000" points="439.5,-56.5 439.5,-75.5 548.5,-75.5 548.5,-56.5 439.5,-56.5"/>
<text text-anchor="middle" x="494" y="-63.5" font-family="Helvetica,sans-Serif" font-size="10.00" fill="#000000">CompFlatteningConverter.h</text>
</a>
</g>
</g>
<!-- Node8&#45;&gt;Node17 -->
<g id="edge20" class="edge">
<title>Node8&#45;&gt;Node17</title>
<path fill="none" stroke="#191970" d="M487.5113,-102.1575C486.919,-93.155 487.3335,-82.9199 488.7549,-75.6427"/>
<polygon fill="#191970" stroke="#191970" points="484.0561,-102.739 488.7332,-112.2455 491.0053,-101.8972 484.0561,-102.739"/>
</g>
<!-- Node17&#45;&gt;Node3 -->
<g id="edge23" class="edge">
<title>Node17&#45;&gt;Node3</title>
<path fill="none" stroke="#191970" d="M540.4585,-53.7856C579.6393,-43.4845 634.9235,-28.9497 670.8618,-19.5011"/>
<polygon fill="#191970" stroke="#191970" points="539.3974,-50.4455 530.616,-56.3733 541.1773,-57.2155 539.3974,-50.4455"/>
</g>
<!-- Node17&#45;&gt;Node7 -->
<g id="edge21" class="edge">
<title>Node17&#45;&gt;Node7</title>
<path fill="none" stroke="#191970" d="M441.8545,-54.1775C396.3649,-43.8641 331.2154,-29.0934 289.0062,-19.5237"/>
<polygon fill="#191970" stroke="#191970" points="441.2934,-57.6391 451.8198,-56.4369 442.8413,-50.8123 441.2934,-57.6391"/>
</g>
<!-- Node17&#45;&gt;Node8 -->
<g id="edge22" class="edge">
<title>Node17&#45;&gt;Node8</title>
<path fill="none" stroke="#191970" d="M500.4795,-85.7046C501.0821,-94.6944 500.6779,-104.9382 499.2668,-112.2455"/>
<polygon fill="#191970" stroke="#191970" points="503.9368,-85.1421 499.2451,-75.6427 496.9889,-85.9945 503.9368,-85.1421"/>
</g>
</g>
</svg>
