<?xml version="1.0" encoding="UTF-8" standalone="no"?>
<!DOCTYPE svg PUBLIC "-//W3C//DTD SVG 1.1//EN"
 "http://www.w3.org/Graphics/SVG/1.1/DTD/svg11.dtd">
<!-- Generated by graphviz version 2.40.1 (20161225.0304)
 -->
<!-- Title: SBMLReader.h Pages: 1 -->
<svg width="549pt" height="341pt"
 viewBox="0.00 0.00 549.00 341.00" xmlns="http://www.w3.org/2000/svg" xmlns:xlink="http://www.w3.org/1999/xlink">
<g id="graph0" class="graph" transform="scale(1 1) rotate(0) translate(4 337)">
<title>SBMLReader.h</title>
<polygon fill="#ffffff" stroke="transparent" points="-4,4 -4,-337 545,-337 545,4 -4,4"/>
<!-- Node1 -->
<g id="node1" class="node">
<title>Node1</title>
<polygon fill="#bfbfbf" stroke="#000000" points="348,-313.5 348,-332.5 433,-332.5 433,-313.5 348,-313.5"/>
<text text-anchor="middle" x="390.5" y="-320.5" font-family="Helvetica,sans-Serif" font-size="10.00" fill="#000000">SBMLReader.h</text>
</g>
<!-- Node2 -->
<g id="node2" class="node">
<title>Node2</title>
<g id="a_node2"><a xlink:href="extern_8h.html" target="_top" xlink:title="Definitions of LIBSBML_EXTERN and related things. ">
<polygon fill="#ffffff" stroke="#000000" points="255.5,-67.5 255.5,-86.5 373.5,-86.5 373.5,-67.5 255.5,-67.5"/>
<text text-anchor="middle" x="314.5" y="-74.5" font-family="Helvetica,sans-Serif" font-size="10.00" fill="#000000">sbml/common/extern.h</text>
</a>
</g>
</g>
<!-- Node1&#45;&gt;Node2 -->
<g id="edge1" class="edge">
<title>Node1&#45;&gt;Node2</title>
<path fill="none" stroke="#191970" d="M387.3603,-313.169C384.4294,-303.8821 379.9953,-289.5447 376.5,-277 357.5493,-208.9856 362.0973,-189.182 337.5,-123 334.0502,-113.7178 329.2727,-103.8447 324.9654,-95.6347"/>
<polygon fill="#191970" stroke="#191970" points="327.9085,-93.7198 320.0655,-86.5968 321.7547,-97.0561 327.9085,-93.7198"/>
</g>
<!-- Node4 -->
<g id="node4" class="node">
<title>Node4</title>
<g id="a_node4"><a xlink:href="sbmlfwd_8h.html" target="_top" xlink:title="Forward declarations for all opaque C types. ">
<polygon fill="#ffffff" stroke="#000000" points="78,-257.5 78,-276.5 205,-276.5 205,-257.5 78,-257.5"/>
<text text-anchor="middle" x="141.5" y="-264.5" font-family="Helvetica,sans-Serif" font-size="10.00" fill="#000000">sbml/common/sbmlfwd.h</text>
</a>
</g>
</g>
<!-- Node1&#45;&gt;Node4 -->
<g id="edge3" class="edge">
<title>Node1&#45;&gt;Node4</title>
<path fill="none" stroke="#191970" d="M347.9783,-313.4369C305.3639,-303.8529 239.6824,-289.0812 193.879,-278.78"/>
<polygon fill="#191970" stroke="#191970" points="194.3706,-275.3032 183.8463,-276.5237 192.8346,-282.1326 194.3706,-275.3032"/>
</g>
<!-- Node8 -->
<g id="node8" class="node">
<title>Node8</title>
<g id="a_node8"><a xlink:href="util_8h.html" target="_top" xlink:title="Utility functions. ">
<polygon fill="#ffffff" stroke="#000000" points="386,-257.5 386,-276.5 463,-276.5 463,-257.5 386,-257.5"/>
<text text-anchor="middle" x="424.5" y="-264.5" font-family="Helvetica,sans-Serif" font-size="10.00" fill="#000000">sbml/util/util.h</text>
</a>
</g>
</g>
<!-- Node1&#45;&gt;Node8 -->
<g id="edge10" class="edge">
<title>Node1&#45;&gt;Node8</title>
<path fill="none" stroke="#191970" d="M396.4223,-313.2455C401.1027,-305.5367 407.7673,-294.5598 413.4289,-285.2348"/>
<polygon fill="#191970" stroke="#191970" points="416.4475,-287.007 418.6455,-276.6427 410.4639,-283.3741 416.4475,-287.007"/>
</g>
<!-- Node11 -->
<g id="node11" class="node">
<title>Node11</title>
<polygon fill="#ffffff" stroke="#bfbfbf" points="481,-257.5 481,-276.5 522,-276.5 522,-257.5 481,-257.5"/>
<text text-anchor="middle" x="501.5" y="-264.5" font-family="Helvetica,sans-Serif" font-size="10.00" fill="#000000">string</text>
</g>
<!-- Node1&#45;&gt;Node11 -->
<g id="edge14" class="edge">
<title>Node1&#45;&gt;Node11</title>
<path fill="none" stroke="#191970" d="M409.5816,-313.3733C427.2402,-304.4644 453.7053,-291.1127 473.7098,-281.0203"/>
<polygon fill="#191970" stroke="#191970" points="475.3158,-284.1303 482.6674,-276.5011 472.1628,-277.8806 475.3158,-284.1303"/>
</g>
<!-- Node3 -->
<g id="node3" class="node">
<title>Node3</title>
<g id="a_node3"><a xlink:href="libsbml-namespace_8h.html" target="_top" xlink:title="Defines C++ namespace of libSBML. ">
<polygon fill="#ffffff" stroke="#000000" points="0,-.5 0,-30.5 113,-30.5 113,-.5 0,-.5"/>
<text text-anchor="start" x="8" y="-18.5" font-family="Helvetica,sans-Serif" font-size="10.00" fill="#000000">sbml/common/libsbml</text>
<text text-anchor="middle" x="56.5" y="-7.5" font-family="Helvetica,sans-Serif" font-size="10.00" fill="#000000">&#45;namespace.h</text>
</a>
</g>
</g>
<!-- Node2&#45;&gt;Node3 -->
<g id="edge2" class="edge">
<title>Node2&#45;&gt;Node3</title>
<path fill="none" stroke="#191970" d="M274.4706,-67.4581C234.1682,-57.8511 171.2761,-42.8594 123.386,-31.4438"/>
<polygon fill="#191970" stroke="#191970" points="123.947,-27.9795 113.408,-29.0653 122.3239,-34.7887 123.947,-27.9795"/>
</g>
<!-- Node4&#45;&gt;Node3 -->
<g id="edge4" class="edge">
<title>Node4&#45;&gt;Node3</title>
<path fill="none" stroke="#191970" d="M120.2247,-257.3433C105.4866,-249.5746 86.5913,-237.2728 75.5,-221 37.8964,-165.8294 44.9702,-82.0905 51.6031,-40.6073"/>
<polygon fill="#191970" stroke="#191970" points="55.0872,-40.9987 53.3385,-30.5492 48.1892,-39.8084 55.0872,-40.9987"/>
</g>
<!-- Node5 -->
<g id="node5" class="node">
<title>Node5</title>
<g id="a_node5"><a xlink:href="libsbml-config_8h.html" target="_top" xlink:title="Decides whether to #include Unix or Windows configuration variables. ">
<polygon fill="#ffffff" stroke="#000000" points="85,-190.5 85,-220.5 198,-220.5 198,-190.5 85,-190.5"/>
<text text-anchor="start" x="93" y="-208.5" font-family="Helvetica,sans-Serif" font-size="10.00" fill="#000000">sbml/common/libsbml</text>
<text text-anchor="middle" x="141.5" y="-197.5" font-family="Helvetica,sans-Serif" font-size="10.00" fill="#000000">&#45;config.h</text>
</a>
</g>
</g>
<!-- Node4&#45;&gt;Node5 -->
<g id="edge5" class="edge">
<title>Node4&#45;&gt;Node5</title>
<path fill="none" stroke="#191970" d="M141.5,-257.3906C141.5,-250.2234 141.5,-240.0862 141.5,-230.671"/>
<polygon fill="#191970" stroke="#191970" points="145.0001,-230.5446 141.5,-220.5446 138.0001,-230.5446 145.0001,-230.5446"/>
</g>
<!-- Node5&#45;&gt;Node3 -->
<g id="edge6" class="edge">
<title>Node5&#45;&gt;Node3</title>
<path fill="none" stroke="#191970" d="M113.1144,-190.3556C99.497,-181.5806 84.2726,-169.2417 75.5,-154 55.21,-118.7475 53.3429,-70.2949 54.4732,-41.0329"/>
<polygon fill="#191970" stroke="#191970" points="57.98,-40.9984 55.021,-30.8251 50.9901,-40.6232 57.98,-40.9984"/>
</g>
<!-- Node6 -->
<g id="node6" class="node">
<title>Node6</title>
<g id="a_node6"><a xlink:href="libsbml-config-common_8h.html" target="_top" xlink:title="Configuration variables. ">
<polygon fill="#ffffff" stroke="#000000" points="85,-123.5 85,-153.5 198,-153.5 198,-123.5 85,-123.5"/>
<text text-anchor="start" x="93" y="-141.5" font-family="Helvetica,sans-Serif" font-size="10.00" fill="#000000">sbml/common/libsbml</text>
<text text-anchor="middle" x="141.5" y="-130.5" font-family="Helvetica,sans-Serif" font-size="10.00" fill="#000000">&#45;config&#45;common.h</text>
</a>
</g>
</g>
<!-- Node5&#45;&gt;Node6 -->
<g id="edge7" class="edge">
<title>Node5&#45;&gt;Node6</title>
<path fill="none" stroke="#191970" d="M141.5,-190.2967C141.5,-182.5013 141.5,-172.7991 141.5,-163.9064"/>
<polygon fill="#191970" stroke="#191970" points="145.0001,-163.6431 141.5,-153.6432 138.0001,-163.6432 145.0001,-163.6431"/>
</g>
<!-- Node7 -->
<g id="node7" class="node">
<title>Node7</title>
<g id="a_node7"><a xlink:href="libsbml-version_8h.html" target="_top" xlink:title="Define libSBML version numbers for access from client software. ">
<polygon fill="#ffffff" stroke="#000000" points="216,-123.5 216,-153.5 329,-153.5 329,-123.5 216,-123.5"/>
<text text-anchor="start" x="224" y="-141.5" font-family="Helvetica,sans-Serif" font-size="10.00" fill="#000000">sbml/common/libsbml</text>
<text text-anchor="middle" x="272.5" y="-130.5" font-family="Helvetica,sans-Serif" font-size="10.00" fill="#000000">&#45;version.h</text>
</a>
</g>
</g>
<!-- Node5&#45;&gt;Node7 -->
<g id="edge8" class="edge">
<title>Node5&#45;&gt;Node7</title>
<path fill="none" stroke="#191970" d="M170.899,-190.4639C189.4774,-180.9619 213.691,-168.5779 233.8199,-158.283"/>
<polygon fill="#191970" stroke="#191970" points="235.4365,-161.3874 242.7459,-153.7177 232.249,-155.1552 235.4365,-161.3874"/>
</g>
<!-- Node7&#45;&gt;Node2 -->
<g id="edge9" class="edge">
<title>Node7&#45;&gt;Node2</title>
<path fill="none" stroke="#191970" d="M282.882,-123.2977C288.6513,-114.8498 295.8716,-104.2773 301.9553,-95.369"/>
<polygon fill="#191970" stroke="#191970" points="305.0259,-97.0788 307.7753,-86.8469 299.2453,-93.1311 305.0259,-97.0788"/>
</g>
<!-- Node8&#45;&gt;Node2 -->
<g id="edge13" class="edge">
<title>Node8&#45;&gt;Node2</title>
<path fill="none" stroke="#191970" d="M422.8175,-257.4154C418.1685,-233.0211 403.33,-167.3759 371.5,-123 362.903,-111.0145 350.3947,-100.4465 339.2844,-92.4722"/>
<polygon fill="#191970" stroke="#191970" points="341.006,-89.4094 330.7753,-86.6554 337.0556,-95.1882 341.006,-89.4094"/>
</g>
<!-- Node9 -->
<g id="node9" class="node">
<title>Node9</title>
<polygon fill="#ffffff" stroke="#bfbfbf" points="423.5,-196 423.5,-215 469.5,-215 469.5,-196 423.5,-196"/>
<text text-anchor="middle" x="446.5" y="-203" font-family="Helvetica,sans-Serif" font-size="10.00" fill="#000000">stdio.h</text>
</g>
<!-- Node8&#45;&gt;Node9 -->
<g id="edge11" class="edge">
<title>Node8&#45;&gt;Node9</title>
<path fill="none" stroke="#191970" d="M427.9375,-257.3906C431.0513,-248.6862 435.732,-235.6015 439.614,-224.7494"/>
<polygon fill="#191970" stroke="#191970" points="442.9412,-225.8394 443.014,-215.2449 436.3503,-223.4817 442.9412,-225.8394"/>
</g>
<!-- Node10 -->
<g id="node10" class="node">
<title>Node10</title>
<polygon fill="#ffffff" stroke="#bfbfbf" points="488,-196 488,-215 541,-215 541,-196 488,-196"/>
<text text-anchor="middle" x="514.5" y="-203" font-family="Helvetica,sans-Serif" font-size="10.00" fill="#000000">stdarg.h</text>
</g>
<!-- Node8&#45;&gt;Node10 -->
<g id="edge12" class="edge">
<title>Node8&#45;&gt;Node10</title>
<path fill="none" stroke="#191970" d="M438.5625,-257.3906C452.8286,-247.6421 475.135,-232.3994 491.8872,-220.9521"/>
<polygon fill="#191970" stroke="#191970" points="494.2545,-223.5736 500.5362,-215.0419 490.3051,-217.7941 494.2545,-223.5736"/>
</g>
</g>
</svg>
