<?xml version="1.0" encoding="UTF-8" standalone="no"?>
<!DOCTYPE svg PUBLIC "-//W3C//DTD SVG 1.1//EN"
 "http://www.w3.org/Graphics/SVG/1.1/DTD/svg11.dtd">
<!-- Generated by graphviz version 2.40.1 (20161225.0304)
 -->
<!-- Title: SBMLExtensionRegister.h Pages: 1 -->
<!--zoomable 1113 -->
<svg id="main" version="1.1" xmlns="http://www.w3.org/2000/svg" xmlns:xlink="http://www.w3.org/1999/xlink" xml:space="preserve" onload="init(evt)">
<style type="text/css"><![CDATA[
.edge:hover path { stroke: red; }
.edge:hover polygon { stroke: red; fill: red; }
]]></style>
<script type="text/javascript"><![CDATA[
var edges = document.getElementsByTagName('g');
if (edges && edges.length) {
  for (var i=0;i<edges.length;i++) {
    if (edges[i].id.substr(0,4)=='edge') {
      edges[i].setAttribute('class','edge');
    }
  }
}
]]></script>
        <defs>
                <circle id="rim" cx="0" cy="0" r="7"/>
                <circle id="rim2" cx="0" cy="0" r="3.5"/>
                <g id="zoomPlus">
                        <use xlink:href="#rim" fill="#404040">
                                <set attributeName="fill" to="#808080" begin="zoomplus.mouseover" end="zoomplus.mouseout"/>
                        </use>
                        <path d="M-4,0h8M0,-4v8" fill="none" stroke="white" stroke-width="1.5" pointer-events="none"/>
                </g>
                <g id="zoomMin">
                        <use xlink:href="#rim" fill="#404040">
                                <set attributeName="fill" to="#808080" begin="zoomminus.mouseover" end="zoomminus.mouseout"/>
                        </use>
                        <path d="M-4,0h8" fill="none" stroke="white" stroke-width="1.5" pointer-events="none"/>
                </g>
                <g id="dirArrow">
                        <path fill="none" stroke="white" stroke-width="1.5" d="M0,-3.0v7 M-2.5,-0.5L0,-3.0L2.5,-0.5"/>
                </g>
               <g id="resetDef">
                       <use xlink:href="#rim2" fill="#404040">
                               <set attributeName="fill" to="#808080" begin="reset.mouseover" end="reset.mouseout"/>
                       </use>
               </g>
        </defs>

<script type="text/javascript">
var viewWidth = 3106;
var viewHeight = 1113;
var sectionId = 'dynsection-0';
</script>
<script xlink:href="svgpan.js"/>
<svg id="graph" class="graph">
<g id="viewport">
<title>SBMLExtensionRegister.h</title>
<polygon fill="#ffffff" stroke="transparent" points="-4,4 -4,-1109 3102,-1109 3102,4 -4,4"/>
<!-- Node1 -->
<g id="node1" class="node">
<title>Node1</title>
<polygon fill="#bfbfbf" stroke="#000000" points="2747.5,-1085.5 2747.5,-1104.5 2880.5,-1104.5 2880.5,-1085.5 2747.5,-1085.5"/>
<text text-anchor="middle" x="2814" y="-1092.5" font-family="Helvetica,sans-Serif" font-size="10.00" fill="#000000">SBMLExtensionRegister.h</text>
</g>
<!-- Node2 -->
<g id="node2" class="node">
<title>Node2</title>
<g id="a_node2"><a xlink:href="_s_b_m_l_extension_8h.html" target="_top" xlink:title="Definition of SBMLExtension, the core component of SBML package extension. ">
<polygon fill="#ffffff" stroke="#000000" points="2676.5,-962.5 2676.5,-981.5 2841.5,-981.5 2841.5,-962.5 2676.5,-962.5"/>
<text text-anchor="middle" x="2759" y="-969.5" font-family="Helvetica,sans-Serif" font-size="10.00" fill="#000000">sbml/extension/SBMLExtension.h</text>
</a>
</g>
</g>
<!-- Node1&#45;&gt;Node2 -->
<g id="edge1" class="edge">
<title>Node1&#45;&gt;Node2</title>
<path fill="none" stroke="#191970" d="M2806.2145,-1085.2789C2799.3329,-1076.3005 2789.4184,-1062.3699 2783,-1049 2774.0389,-1030.3336 2767.4224,-1007.5398 2763.4318,-991.6153"/>
<polygon fill="#191970" stroke="#191970" points="2766.8203,-990.736 2761.0921,-981.8232 2760.0119,-992.3628 2766.8203,-990.736"/>
</g>
<!-- Node56 -->
<g id="node56" class="node">
<title>Node56</title>
<g id="a_node56"><a xlink:href="_s_b_m_l_extension_registry_8h.html" target="_top" xlink:title="The registry class for tracking package extensions. ">
<polygon fill="#ffffff" stroke="#000000" points="2791.5,-1018.5 2791.5,-1048.5 2948.5,-1048.5 2948.5,-1018.5 2791.5,-1018.5"/>
<text text-anchor="start" x="2799.5" y="-1036.5" font-family="Helvetica,sans-Serif" font-size="10.00" fill="#000000">sbml/extension/SBMLExtension</text>
<text text-anchor="middle" x="2870" y="-1025.5" font-family="Helvetica,sans-Serif" font-size="10.00" fill="#000000">Registry.h</text>
</a>
</g>
</g>
<!-- Node1&#45;&gt;Node56 -->
<g id="edge161" class="edge">
<title>Node1&#45;&gt;Node56</title>
<path fill="none" stroke="#191970" d="M2822.75,-1085.3906C2829.9079,-1077.5298 2840.3188,-1066.0964 2849.5475,-1055.9612"/>
<polygon fill="#191970" stroke="#191970" points="2852.156,-1058.295 2856.3009,-1048.5446 2846.9802,-1053.5821 2852.156,-1058.295"/>
</g>
<!-- Node3 -->
<g id="node3" class="node">
<title>Node3</title>
<g id="a_node3"><a xlink:href="libsbml-config-common_8h.html" target="_top" xlink:title="Configuration variables. ">
<polygon fill="#ffffff" stroke="#000000" points="180.5,-123.5 180.5,-153.5 293.5,-153.5 293.5,-123.5 180.5,-123.5"/>
<text text-anchor="start" x="188.5" y="-141.5" font-family="Helvetica,sans-Serif" font-size="10.00" fill="#000000">sbml/common/libsbml</text>
<text text-anchor="middle" x="237" y="-130.5" font-family="Helvetica,sans-Serif" font-size="10.00" fill="#000000">&#45;config&#45;common.h</text>
</a>
</g>
</g>
<!-- Node2&#45;&gt;Node3 -->
<g id="edge2" class="edge">
<title>Node2&#45;&gt;Node3</title>
<path fill="none" stroke="#191970" d="M2676.4527,-970.4781C2221.253,-961.8221 38,-916.7731 38,-849 38,-849 38,-849 38,-339.5 38,-251.404 135.7303,-188.0691 194.214,-158.0552"/>
<polygon fill="#191970" stroke="#191970" points="195.8738,-161.1384 203.2424,-153.5256 192.7347,-154.8817 195.8738,-161.1384"/>
</g>
<!-- Node4 -->
<g id="node4" class="node">
<title>Node4</title>
<g id="a_node4"><a xlink:href="_s_base_plugin_creator_base_8h.html" target="_top" xlink:title="Definition of SBasePluginCreatorBase, the base class of SBasePlugin creator classes. ">
<polygon fill="#ffffff" stroke="#000000" points="2337.5,-895.5 2337.5,-925.5 2480.5,-925.5 2480.5,-895.5 2337.5,-895.5"/>
<text text-anchor="start" x="2345.5" y="-913.5" font-family="Helvetica,sans-Serif" font-size="10.00" fill="#000000">sbml/extension/SBasePlugin</text>
<text text-anchor="middle" x="2409" y="-902.5" font-family="Helvetica,sans-Serif" font-size="10.00" fill="#000000">CreatorBase.h</text>
</a>
</g>
</g>
<!-- Node2&#45;&gt;Node4 -->
<g id="edge3" class="edge">
<title>Node2&#45;&gt;Node4</title>
<path fill="none" stroke="#191970" d="M2704.6965,-962.4581C2647.441,-952.3975 2556.5778,-936.4315 2490.6747,-924.8514"/>
<polygon fill="#191970" stroke="#191970" points="2491.1854,-921.3876 2480.7306,-923.1041 2489.9739,-928.282 2491.1854,-921.3876"/>
</g>
<!-- Node22 -->
<g id="node22" class="node">
<title>Node22</title>
<polygon fill="#ffffff" stroke="#bfbfbf" points="1416,-263 1416,-282 1460,-282 1460,-263 1416,-263"/>
<text text-anchor="middle" x="1438" y="-270" font-family="Helvetica,sans-Serif" font-size="10.00" fill="#000000">vector</text>
</g>
<!-- Node2&#45;&gt;Node22 -->
<g id="edge160" class="edge">
<title>Node2&#45;&gt;Node22</title>
<path fill="none" stroke="#191970" d="M2676.3174,-971.1042C2426.091,-967.3081 1694,-947.7625 1694,-849 1694,-849 1694,-849 1694,-513 1694,-482.4754 1697.3052,-467.8382 1675,-447 1619.5179,-395.1669 1578.7206,-438.632 1508,-411 1462.3489,-393.1632 1437.3138,-397.556 1413,-355 1401.3484,-334.6064 1413.3779,-308.2122 1424.4325,-290.8387"/>
<polygon fill="#191970" stroke="#191970" points="1427.5743,-292.4439 1430.3171,-282.2103 1421.7911,-288.4998 1427.5743,-292.4439"/>
</g>
<!-- Node54 -->
<g id="node54" class="node">
<title>Node54</title>
<g id="a_node54"><a xlink:href="_s_base_extension_point_8h.html" target="_top" xlink:title="Implementation of SBaseExtensionPoint. ">
<polygon fill="#ffffff" stroke="#000000" points="2748.5,-324.5 2748.5,-354.5 2907.5,-354.5 2907.5,-324.5 2748.5,-324.5"/>
<text text-anchor="start" x="2756.5" y="-342.5" font-family="Helvetica,sans-Serif" font-size="10.00" fill="#000000">sbml/extension/SBaseExtension</text>
<text text-anchor="middle" x="2828" y="-331.5" font-family="Helvetica,sans-Serif" font-size="10.00" fill="#000000">Point.h</text>
</a>
</g>
</g>
<!-- Node2&#45;&gt;Node54 -->
<g id="edge158" class="edge">
<title>Node2&#45;&gt;Node54</title>
<path fill="none" stroke="#191970" d="M2760.5616,-962.27C2763.1308,-947.4149 2768.8912,-918.3455 2778,-895 2796.798,-846.8211 2834,-844.7162 2834,-793 2834,-793 2834,-793 2834,-457 2834,-425.2601 2831.7893,-388.7601 2830.0517,-364.973"/>
<polygon fill="#191970" stroke="#191970" points="2833.5187,-364.4041 2829.2724,-354.6975 2826.5388,-364.9336 2833.5187,-364.4041"/>
</g>
<!-- Node55 -->
<g id="node55" class="node">
<title>Node55</title>
<g id="a_node55"><a xlink:href="_a_s_t_base_plugin_8h.html" target="_top" xlink:title="sbml/extension/ASTBasePlugin.h">
<polygon fill="#ffffff" stroke="#000000" points="2787,-901 2787,-920 2951,-920 2951,-901 2787,-901"/>
<text text-anchor="middle" x="2869" y="-908" font-family="Helvetica,sans-Serif" font-size="10.00" fill="#000000">sbml/extension/ASTBasePlugin.h</text>
</a>
</g>
</g>
<!-- Node2&#45;&gt;Node55 -->
<g id="edge159" class="edge">
<title>Node2&#45;&gt;Node55</title>
<path fill="none" stroke="#191970" d="M2776.1875,-962.3906C2794.1082,-952.3713 2822.4095,-936.5483 2843.0523,-925.0071"/>
<polygon fill="#191970" stroke="#191970" points="2844.9128,-927.9769 2851.9332,-920.0419 2841.4967,-921.867 2844.9128,-927.9769"/>
</g>
<!-- Node5 -->
<g id="node5" class="node">
<title>Node5</title>
<g id="a_node5"><a xlink:href="_s_b_m_l_document_8h.html" target="_top" xlink:title="Top&#45;level container for an SBML Model and associated data. ">
<polygon fill="#ffffff" stroke="#000000" points="2097,-839.5 2097,-858.5 2219,-858.5 2219,-839.5 2097,-839.5"/>
<text text-anchor="middle" x="2158" y="-846.5" font-family="Helvetica,sans-Serif" font-size="10.00" fill="#000000">sbml/SBMLDocument.h</text>
</a>
</g>
</g>
<!-- Node4&#45;&gt;Node5 -->
<g id="edge4" class="edge">
<title>Node4&#45;&gt;Node5</title>
<path fill="none" stroke="#191970" d="M2347.5985,-895.4554C2304.249,-884.8339 2246.9523,-870.7951 2206.7342,-860.9408"/>
<polygon fill="#191970" stroke="#191970" points="2207.4418,-857.5108 2196.8961,-858.5303 2205.7758,-864.3096 2207.4418,-857.5108"/>
</g>
<!-- Node20 -->
<g id="node20" class="node">
<title>Node20</title>
<g id="a_node20"><a xlink:href="_s_b_m_l_namespaces_8h.html" target="_top" xlink:title="SBMLNamespaces class to store level/version and namespace. ">
<polygon fill="#ffffff" stroke="#000000" points="745,-391.5 745,-410.5 879,-410.5 879,-391.5 745,-391.5"/>
<text text-anchor="middle" x="812" y="-398.5" font-family="Helvetica,sans-Serif" font-size="10.00" fill="#000000">sbml/SBMLNamespaces.h</text>
</a>
</g>
</g>
<!-- Node4&#45;&gt;Node20 -->
<g id="edge153" class="edge">
<title>Node4&#45;&gt;Node20</title>
<path fill="none" stroke="#191970" d="M2337.3818,-908.6027C2024.6117,-899.9761 791.6069,-862.2946 736,-803 682.8528,-746.3282 776.0433,-492.9408 804.273,-420.4384"/>
<polygon fill="#191970" stroke="#191970" points="807.6788,-421.3411 808.0784,-410.7538 801.1637,-418.7811 807.6788,-421.3411"/>
</g>
<!-- Node4&#45;&gt;Node54 -->
<g id="edge154" class="edge">
<title>Node4&#45;&gt;Node54</title>
<path fill="none" stroke="#191970" d="M2480.8848,-903.4918C2592.8023,-890.5642 2796,-858.1254 2796,-793 2796,-793 2796,-793 2796,-457 2796,-424.0337 2807.8715,-387.6353 2817.153,-364.2156"/>
<polygon fill="#191970" stroke="#191970" points="2820.4898,-365.3041 2821.0565,-354.7244 2814.0159,-362.6415 2820.4898,-365.3041"/>
</g>
<!-- Node6 -->
<g id="node6" class="node">
<title>Node6</title>
<g id="a_node6"><a xlink:href="extern_8h.html" target="_top" xlink:title="Definitions of LIBSBML_EXTERN and related things. ">
<polygon fill="#ffffff" stroke="#000000" points="990,-67.5 990,-86.5 1108,-86.5 1108,-67.5 990,-67.5"/>
<text text-anchor="middle" x="1049" y="-74.5" font-family="Helvetica,sans-Serif" font-size="10.00" fill="#000000">sbml/common/extern.h</text>
</a>
</g>
</g>
<!-- Node5&#45;&gt;Node6 -->
<g id="edge5" class="edge">
<title>Node5&#45;&gt;Node6</title>
<path fill="none" stroke="#191970" d="M2096.5056,-848.5556C1796.9512,-846.2438 497.7823,-834.4685 320,-803 170.122,-776.4707 0,-833.2078 0,-681 0,-681 0,-681 0,-205.5 0,-151.8891 38.6314,-143.9013 88,-123 169.3971,-88.5388 773.2214,-79.6167 979.872,-77.5602"/>
<polygon fill="#191970" stroke="#191970" points="980.0284,-81.0589 989.9939,-77.4618 979.9603,-74.0593 980.0284,-81.0589"/>
</g>
<!-- Node8 -->
<g id="node8" class="node">
<title>Node8</title>
<g id="a_node8"><a xlink:href="sbmlfwd_8h.html" target="_top" xlink:title="Forward declarations for all opaque C types. ">
<polygon fill="#ffffff" stroke="#000000" points="2126.5,-263 2126.5,-282 2253.5,-282 2253.5,-263 2126.5,-263"/>
<text text-anchor="middle" x="2190" y="-270" font-family="Helvetica,sans-Serif" font-size="10.00" fill="#000000">sbml/common/sbmlfwd.h</text>
</a>
</g>
</g>
<!-- Node5&#45;&gt;Node8 -->
<g id="edge7" class="edge">
<title>Node5&#45;&gt;Node8</title>
<path fill="none" stroke="#191970" d="M2219.1117,-843.9755C2371.8407,-830.6014 2758,-791.4069 2758,-737 2758,-737 2758,-737 2758,-513 2758,-442.3236 2711.8164,-434.3554 2656,-391 2601.5229,-348.6849 2581.8686,-344.4853 2516,-324 2431.6911,-297.7798 2330.7658,-284.4657 2263.7724,-278.0206"/>
<polygon fill="#191970" stroke="#191970" points="2264.0128,-274.5279 2253.7303,-277.0815 2263.3609,-281.4975 2264.0128,-274.5279"/>
</g>
<!-- Node11 -->
<g id="node11" class="node">
<title>Node11</title>
<g id="a_node11"><a xlink:href="_s_b_m_l_error_8h.html" target="_top" xlink:title="Represents SBML errors and other diagnostics. ">
<polygon fill="#ffffff" stroke="#000000" points="1568,-447.5 1568,-466.5 1666,-466.5 1666,-447.5 1568,-447.5"/>
<text text-anchor="middle" x="1617" y="-454.5" font-family="Helvetica,sans-Serif" font-size="10.00" fill="#000000">sbml/SBMLError.h</text>
</a>
</g>
</g>
<!-- Node5&#45;&gt;Node11 -->
<g id="edge14" class="edge">
<title>Node5&#45;&gt;Node11</title>
<path fill="none" stroke="#191970" d="M2141.443,-839.4577C2078.3008,-802.7153 1847.7408,-665.3214 1680,-523 1662.1952,-507.8934 1644.0069,-488.3013 1631.7798,-474.3978"/>
<polygon fill="#191970" stroke="#191970" points="1634.1879,-471.8322 1624.9939,-466.5671 1628.8978,-476.4165 1634.1879,-471.8322"/>
</g>
<!-- Node17 -->
<g id="node17" class="node">
<title>Node17</title>
<polygon fill="#ffffff" stroke="#bfbfbf" points="288.5,-263 288.5,-282 333.5,-282 333.5,-263 288.5,-263"/>
<text text-anchor="middle" x="311" y="-270" font-family="Helvetica,sans-Serif" font-size="10.00" fill="#000000">iosfwd</text>
</g>
<!-- Node5&#45;&gt;Node17 -->
<g id="edge151" class="edge">
<title>Node5&#45;&gt;Node17</title>
<path fill="none" stroke="#191970" d="M2096.8691,-848.861C1760.6801,-847.7056 152,-836.9548 152,-737 152,-737 152,-737 152,-401 152,-365.7513 147.1262,-349.9328 171,-324 204.9834,-287.0858 231.4384,-306.6963 278,-288 279.395,-287.4398 280.8153,-286.8502 282.244,-286.2414"/>
<polygon fill="#191970" stroke="#191970" points="283.9159,-289.328 291.6194,-282.0543 281.0614,-282.9364 283.9159,-289.328"/>
</g>
<!-- Node26 -->
<g id="node26" class="node">
<title>Node26</title>
<g id="a_node26"><a xlink:href="_s_b_m_l_error_log_8h.html" target="_top" xlink:title="Stores errors (and messages) encountered while processing SBML. ">
<polygon fill="#ffffff" stroke="#000000" points="1754.5,-503.5 1754.5,-522.5 1869.5,-522.5 1869.5,-503.5 1754.5,-503.5"/>
<text text-anchor="middle" x="1812" y="-510.5" font-family="Helvetica,sans-Serif" font-size="10.00" fill="#000000">sbml/SBMLErrorLog.h</text>
</a>
</g>
</g>
<!-- Node5&#45;&gt;Node26 -->
<g id="edge44" class="edge">
<title>Node5&#45;&gt;Node26</title>
<path fill="none" stroke="#191970" d="M2158.5013,-839.193C2159.1451,-817.1659 2157.9923,-762.8926 2134,-727 2062.1825,-619.5608 1916.2606,-552.6843 1848.3197,-526.1275"/>
<polygon fill="#191970" stroke="#191970" points="1849.4696,-522.8199 1838.8796,-522.5018 1846.9598,-529.3545 1849.4696,-522.8199"/>
</g>
<!-- Node30 -->
<g id="node30" class="node">
<title>Node30</title>
<g id="a_node30"><a xlink:href="_s_base_8h.html" target="_top" xlink:title="Definition of SBase, the base object of all SBML objects. ">
<polygon fill="#ffffff" stroke="#000000" points="745,-783.5 745,-802.5 823,-802.5 823,-783.5 745,-783.5"/>
<text text-anchor="middle" x="784" y="-790.5" font-family="Helvetica,sans-Serif" font-size="10.00" fill="#000000">sbml/SBase.h</text>
</a>
</g>
</g>
<!-- Node5&#45;&gt;Node30 -->
<g id="edge57" class="edge">
<title>Node5&#45;&gt;Node30</title>
<path fill="none" stroke="#191970" d="M2096.7412,-846.5033C1864.8765,-837.0532 1043.5761,-803.5795 833.3188,-795.0101"/>
<polygon fill="#191970" stroke="#191970" points="833.3327,-791.5078 823.1984,-794.5976 833.0475,-798.502 833.3327,-791.5078"/>
</g>
<!-- Node52 -->
<g id="node52" class="node">
<title>Node52</title>
<g id="a_node52"><a xlink:href="_s_b_m_l_transforms_8h.html" target="_top" xlink:title="sbml/SBMLTransforms.h">
<polygon fill="#ffffff" stroke="#000000" points="2186.5,-783.5 2186.5,-802.5 2313.5,-802.5 2313.5,-783.5 2186.5,-783.5"/>
<text text-anchor="middle" x="2250" y="-790.5" font-family="Helvetica,sans-Serif" font-size="10.00" fill="#000000">sbml/SBMLTransforms.h</text>
</a>
</g>
</g>
<!-- Node5&#45;&gt;Node52 -->
<g id="edge150" class="edge">
<title>Node5&#45;&gt;Node52</title>
<path fill="none" stroke="#191970" d="M2174.0252,-839.2455C2188.1408,-830.6534 2208.9263,-818.0014 2225.1899,-808.1018"/>
<polygon fill="#191970" stroke="#191970" points="2227.4363,-810.8319 2234.1585,-802.6427 2223.7966,-804.8525 2227.4363,-810.8319"/>
</g>
<!-- Node53 -->
<g id="node53" class="node">
<title>Node53</title>
<polygon fill="#ffffff" stroke="#bfbfbf" points="2908,-783.5 2908,-802.5 2944,-802.5 2944,-783.5 2908,-783.5"/>
<text text-anchor="middle" x="2926" y="-790.5" font-family="Helvetica,sans-Serif" font-size="10.00" fill="#000000">map</text>
</g>
<!-- Node5&#45;&gt;Node53 -->
<g id="edge152" class="edge">
<title>Node5&#45;&gt;Node53</title>
<path fill="none" stroke="#191970" d="M2219.2277,-844.5355C2375.8796,-833.1129 2786.7023,-803.1571 2897.9014,-795.0489"/>
<polygon fill="#191970" stroke="#191970" points="2898.2739,-798.5311 2907.9929,-794.313 2897.7648,-791.5496 2898.2739,-798.5311"/>
</g>
<!-- Node7 -->
<g id="node7" class="node">
<title>Node7</title>
<g id="a_node7"><a xlink:href="libsbml-namespace_8h.html" target="_top" xlink:title="Defines C++ namespace of libSBML. ">
<polygon fill="#ffffff" stroke="#000000" points="1946.5,-.5 1946.5,-30.5 2059.5,-30.5 2059.5,-.5 1946.5,-.5"/>
<text text-anchor="start" x="1954.5" y="-18.5" font-family="Helvetica,sans-Serif" font-size="10.00" fill="#000000">sbml/common/libsbml</text>
<text text-anchor="middle" x="2003" y="-7.5" font-family="Helvetica,sans-Serif" font-size="10.00" fill="#000000">&#45;namespace.h</text>
</a>
</g>
</g>
<!-- Node6&#45;&gt;Node7 -->
<g id="edge6" class="edge">
<title>Node6&#45;&gt;Node7</title>
<path fill="none" stroke="#191970" d="M1108.3165,-73.1761C1277.0321,-62.2998 1758.8536,-31.239 1936.3218,-19.7984"/>
<polygon fill="#191970" stroke="#191970" points="1936.5545,-23.2908 1946.3086,-19.1546 1936.1041,-16.3053 1936.5545,-23.2908"/>
</g>
<!-- Node8&#45;&gt;Node7 -->
<g id="edge8" class="edge">
<title>Node8&#45;&gt;Node7</title>
<path fill="none" stroke="#191970" d="M2182.8977,-262.7391C2155.9761,-225.7399 2059.741,-93.481 2020.1753,-39.1046"/>
<polygon fill="#191970" stroke="#191970" points="2022.8298,-36.8039 2014.1161,-30.7771 2017.1696,-40.9224 2022.8298,-36.8039"/>
</g>
<!-- Node9 -->
<g id="node9" class="node">
<title>Node9</title>
<g id="a_node9"><a xlink:href="libsbml-config_8h.html" target="_top" xlink:title="Decides whether to #include Unix or Windows configuration variables. ">
<polygon fill="#ffffff" stroke="#000000" points="265.5,-190.5 265.5,-220.5 378.5,-220.5 378.5,-190.5 265.5,-190.5"/>
<text text-anchor="start" x="273.5" y="-208.5" font-family="Helvetica,sans-Serif" font-size="10.00" fill="#000000">sbml/common/libsbml</text>
<text text-anchor="middle" x="322" y="-197.5" font-family="Helvetica,sans-Serif" font-size="10.00" fill="#000000">&#45;config.h</text>
</a>
</g>
</g>
<!-- Node8&#45;&gt;Node9 -->
<g id="edge9" class="edge">
<title>Node8&#45;&gt;Node9</title>
<path fill="none" stroke="#191970" d="M2126.2521,-269.1358C2059.6111,-265.7078 1951.989,-260.4223 1859,-257 1261.8567,-235.0233 1111.6939,-252.9291 515,-221 472.9654,-218.7507 425.8729,-214.9931 388.729,-211.741"/>
<polygon fill="#191970" stroke="#191970" points="388.7983,-208.2335 378.5288,-210.8388 388.1815,-215.2063 388.7983,-208.2335"/>
</g>
<!-- Node9&#45;&gt;Node3 -->
<g id="edge11" class="edge">
<title>Node9&#45;&gt;Node3</title>
<path fill="none" stroke="#191970" d="M302.7122,-190.2967C291.301,-181.302 276.6693,-169.7687 264.1104,-159.8694"/>
<polygon fill="#191970" stroke="#191970" points="266.2317,-157.0849 256.2115,-153.6432 261.8984,-162.5824 266.2317,-157.0849"/>
</g>
<!-- Node9&#45;&gt;Node7 -->
<g id="edge10" class="edge">
<title>Node9&#45;&gt;Node7</title>
<path fill="none" stroke="#191970" d="M320.6464,-190.3691C319.8824,-171.4966 321.8144,-139.6871 341,-123 402.1798,-69.7878 1632.4653,-27.2836 1935.8345,-17.5843"/>
<polygon fill="#191970" stroke="#191970" points="1936.3483,-21.0698 1946.2318,-17.2531 1936.1254,-14.0733 1936.3483,-21.0698"/>
</g>
<!-- Node10 -->
<g id="node10" class="node">
<title>Node10</title>
<g id="a_node10"><a xlink:href="libsbml-version_8h.html" target="_top" xlink:title="Define libSBML version numbers for access from client software. ">
<polygon fill="#ffffff" stroke="#000000" points="350.5,-123.5 350.5,-153.5 463.5,-153.5 463.5,-123.5 350.5,-123.5"/>
<text text-anchor="start" x="358.5" y="-141.5" font-family="Helvetica,sans-Serif" font-size="10.00" fill="#000000">sbml/common/libsbml</text>
<text text-anchor="middle" x="407" y="-130.5" font-family="Helvetica,sans-Serif" font-size="10.00" fill="#000000">&#45;version.h</text>
</a>
</g>
</g>
<!-- Node9&#45;&gt;Node10 -->
<g id="edge12" class="edge">
<title>Node9&#45;&gt;Node10</title>
<path fill="none" stroke="#191970" d="M341.2878,-190.2967C352.699,-181.302 367.3307,-169.7687 379.8896,-159.8694"/>
<polygon fill="#191970" stroke="#191970" points="382.1016,-162.5824 387.7885,-153.6432 377.7683,-157.0849 382.1016,-162.5824"/>
</g>
<!-- Node10&#45;&gt;Node6 -->
<g id="edge13" class="edge">
<title>Node10&#45;&gt;Node6</title>
<path fill="none" stroke="#191970" d="M463.8419,-125.3856C468.6168,-124.4989 473.3826,-123.6868 478,-123 657.8726,-96.2449 872.1009,-84.2422 979.8407,-79.5675"/>
<polygon fill="#191970" stroke="#191970" points="980.0881,-83.0602 989.93,-79.1377 979.7901,-76.0666 980.0881,-83.0602"/>
</g>
<!-- Node11&#45;&gt;Node6 -->
<g id="edge15" class="edge">
<title>Node11&#45;&gt;Node6</title>
<path fill="none" stroke="#191970" d="M1666.086,-455.2477C1782.9498,-450.7 2074.925,-437.0232 2169,-411 2223.4065,-395.95 2233.6215,-382.3557 2283,-355 2343.8464,-321.2911 2416,-342.0598 2416,-272.5 2416,-272.5 2416,-272.5 2416,-205.5 2416,-139.6398 1396.9343,-91.7146 1118.545,-79.8511"/>
<polygon fill="#191970" stroke="#191970" points="1118.3164,-76.3383 1108.177,-79.4114 1118.0197,-83.332 1118.3164,-76.3383"/>
</g>
<!-- Node12 -->
<g id="node12" class="node">
<title>Node12</title>
<g id="a_node12"><a xlink:href="_x_m_l_error_8h.html" target="_top" xlink:title="Represents errors (and messages) encountered during an XML parse. ">
<polygon fill="#ffffff" stroke="#000000" points="1186,-330 1186,-349 1296,-349 1296,-330 1186,-330"/>
<text text-anchor="middle" x="1241" y="-337" font-family="Helvetica,sans-Serif" font-size="10.00" fill="#000000">sbml/xml/XMLError.h</text>
</a>
</g>
</g>
<!-- Node11&#45;&gt;Node12 -->
<g id="edge16" class="edge">
<title>Node11&#45;&gt;Node12</title>
<path fill="none" stroke="#191970" d="M1567.9524,-448.5429C1564.923,-448.0208 1561.9202,-447.5032 1559,-447 1466.1124,-430.9926 1437.6871,-445.5733 1350,-411 1315.7343,-397.4897 1280.9826,-372.2595 1260.2119,-355.6715"/>
<polygon fill="#191970" stroke="#191970" points="1262.1718,-352.7537 1252.2083,-349.1509 1257.7504,-358.1807 1262.1718,-352.7537"/>
</g>
<!-- Node11&#45;&gt;Node20 -->
<g id="edge29" class="edge">
<title>Node11&#45;&gt;Node20</title>
<path fill="none" stroke="#191970" d="M1567.6922,-448.1215C1564.7558,-447.7101 1561.8418,-447.3315 1559,-447 1315.6132,-418.6106 1025.4354,-407.085 889.4864,-402.9836"/>
<polygon fill="#191970" stroke="#191970" points="889.278,-399.476 879.1787,-402.678 889.0705,-406.4729 889.278,-399.476"/>
</g>
<!-- Node12&#45;&gt;Node8 -->
<g id="edge20" class="edge">
<title>Node12&#45;&gt;Node8</title>
<path fill="none" stroke="#191970" d="M1296.1242,-335.6082C1458.1197,-324.1712 1932.8043,-290.6582 2116.3571,-277.6992"/>
<polygon fill="#191970" stroke="#191970" points="2116.7227,-281.1822 2126.4514,-276.9866 2116.2297,-274.1996 2116.7227,-281.1822"/>
</g>
<!-- Node13 -->
<g id="node13" class="node">
<title>Node13</title>
<polygon fill="#ffffff" stroke="#bfbfbf" points="634,-196 634,-215 680,-215 680,-196 634,-196"/>
<text text-anchor="middle" x="657" y="-203" font-family="Helvetica,sans-Serif" font-size="10.00" fill="#000000">stdio.h</text>
</g>
<!-- Node12&#45;&gt;Node13 -->
<g id="edge17" class="edge">
<title>Node12&#45;&gt;Node13</title>
<path fill="none" stroke="#191970" d="M1226.0589,-329.948C1197.678,-312.3091 1133.4809,-274.8058 1074,-257 1002.0419,-235.4592 775.9944,-215.2473 690.3433,-208.1664"/>
<polygon fill="#191970" stroke="#191970" points="690.3994,-204.6594 680.1469,-207.3309 689.8276,-211.636 690.3994,-204.6594"/>
</g>
<!-- Node14 -->
<g id="node14" class="node">
<title>Node14</title>
<g id="a_node14"><a xlink:href="_x_m_l_extern_8h.html" target="_top" xlink:title="Defines LIBLAX_EXTERN. ">
<polygon fill="#ffffff" stroke="#000000" points="2896.5,-263 2896.5,-282 3013.5,-282 3013.5,-263 2896.5,-263"/>
<text text-anchor="middle" x="2955" y="-270" font-family="Helvetica,sans-Serif" font-size="10.00" fill="#000000">sbml/xml/XMLExtern.h</text>
</a>
</g>
</g>
<!-- Node12&#45;&gt;Node14 -->
<g id="edge18" class="edge">
<title>Node12&#45;&gt;Node14</title>
<path fill="none" stroke="#191970" d="M1296.1702,-336.7442C1361.694,-333.5093 1474.2993,-328.0701 1571,-324 2075.719,-302.7567 2684.1727,-281.6948 2886.147,-274.8246"/>
<polygon fill="#191970" stroke="#191970" points="2886.4355,-278.3169 2896.3108,-274.4792 2886.1977,-271.3209 2886.4355,-278.3169"/>
</g>
<!-- Node15 -->
<g id="node15" class="node">
<title>Node15</title>
<g id="a_node15"><a xlink:href="util_8h.html" target="_top" xlink:title="Utility functions. ">
<polygon fill="#ffffff" stroke="#000000" points="512.5,-263 512.5,-282 589.5,-282 589.5,-263 512.5,-263"/>
<text text-anchor="middle" x="551" y="-270" font-family="Helvetica,sans-Serif" font-size="10.00" fill="#000000">sbml/util/util.h</text>
</a>
</g>
</g>
<!-- Node12&#45;&gt;Node15 -->
<g id="edge21" class="edge">
<title>Node12&#45;&gt;Node15</title>
<path fill="none" stroke="#191970" d="M1185.8493,-336.524C1079.404,-330.3984 838.3576,-314.6709 637,-288 624.8977,-286.397 611.9065,-284.2703 599.781,-282.1075"/>
<polygon fill="#191970" stroke="#191970" points="600.3036,-278.6451 589.8377,-280.2929 599.0469,-285.5314 600.3036,-278.6451"/>
</g>
<!-- Node12&#45;&gt;Node17 -->
<g id="edge25" class="edge">
<title>Node12&#45;&gt;Node17</title>
<path fill="none" stroke="#191970" d="M1185.9004,-335.8608C1063.2076,-327.712 758.1883,-307.2039 503,-288 447.0661,-283.7908 382.0053,-278.4434 343.7889,-275.2562"/>
<polygon fill="#191970" stroke="#191970" points="344.0084,-271.7625 333.7516,-274.4173 343.4253,-278.7382 344.0084,-271.7625"/>
</g>
<!-- Node18 -->
<g id="node18" class="node">
<title>Node18</title>
<polygon fill="#ffffff" stroke="#bfbfbf" points="1023.5,-263 1023.5,-282 1064.5,-282 1064.5,-263 1023.5,-263"/>
<text text-anchor="middle" x="1044" y="-270" font-family="Helvetica,sans-Serif" font-size="10.00" fill="#000000">string</text>
</g>
<!-- Node12&#45;&gt;Node18 -->
<g id="edge26" class="edge">
<title>Node12&#45;&gt;Node18</title>
<path fill="none" stroke="#191970" d="M1212.7747,-329.9005C1176.1122,-317.4315 1112.3468,-295.7448 1074.5696,-282.8968"/>
<polygon fill="#191970" stroke="#191970" points="1075.2423,-279.4287 1064.6478,-279.5224 1072.9883,-286.0559 1075.2423,-279.4287"/>
</g>
<!-- Node19 -->
<g id="node19" class="node">
<title>Node19</title>
<g id="a_node19"><a xlink:href="operation_return_values_8h.html" target="_top" xlink:title="Enumeration of values returned by operations within libSBML. ">
<polygon fill="#ffffff" stroke="#000000" points="1696.5,-257.5 1696.5,-287.5 1849.5,-287.5 1849.5,-257.5 1696.5,-257.5"/>
<text text-anchor="start" x="1704.5" y="-275.5" font-family="Helvetica,sans-Serif" font-size="10.00" fill="#000000">sbml/common/operationReturn</text>
<text text-anchor="middle" x="1773" y="-264.5" font-family="Helvetica,sans-Serif" font-size="10.00" fill="#000000">Values.h</text>
</a>
</g>
</g>
<!-- Node12&#45;&gt;Node19 -->
<g id="edge27" class="edge">
<title>Node12&#45;&gt;Node19</title>
<path fill="none" stroke="#191970" d="M1296.1785,-332.5508C1388.7136,-320.897 1575.8577,-297.3281 1686.1717,-283.4351"/>
<polygon fill="#191970" stroke="#191970" points="1686.7891,-286.8851 1696.2734,-282.1629 1685.9144,-279.94 1686.7891,-286.8851"/>
</g>
<!-- Node14&#45;&gt;Node7 -->
<g id="edge19" class="edge">
<title>Node14&#45;&gt;Node7</title>
<path fill="none" stroke="#191970" d="M2948.7765,-262.6711C2930.7383,-235.1297 2875.3396,-157.0018 2807,-123 2677.496,-58.5663 2238.1116,-28.32 2069.5688,-18.8844"/>
<polygon fill="#191970" stroke="#191970" points="2069.7616,-15.3898 2059.5836,-18.3321 2069.375,-22.3792 2069.7616,-15.3898"/>
</g>
<!-- Node15&#45;&gt;Node6 -->
<g id="edge24" class="edge">
<title>Node15&#45;&gt;Node6</title>
<path fill="none" stroke="#191970" d="M557.7953,-262.7643C569.7954,-246.1249 596.2076,-211.8958 625,-190 678.3172,-149.4538 696.1948,-143.3867 760,-123 833.0829,-99.6489 920.5089,-87.8403 979.9247,-82.0821"/>
<polygon fill="#191970" stroke="#191970" points="980.3175,-85.5607 989.9471,-81.1424 979.664,-78.5912 980.3175,-85.5607"/>
</g>
<!-- Node15&#45;&gt;Node13 -->
<g id="edge22" class="edge">
<title>Node15&#45;&gt;Node13</title>
<path fill="none" stroke="#191970" d="M566.1872,-262.9005C583.7403,-251.8057 612.8394,-233.4128 633.3598,-220.4424"/>
<polygon fill="#191970" stroke="#191970" points="635.258,-223.3832 641.841,-215.0817 631.5179,-217.4661 635.258,-223.3832"/>
</g>
<!-- Node16 -->
<g id="node16" class="node">
<title>Node16</title>
<polygon fill="#ffffff" stroke="#bfbfbf" points="524.5,-196 524.5,-215 577.5,-215 577.5,-196 524.5,-196"/>
<text text-anchor="middle" x="551" y="-203" font-family="Helvetica,sans-Serif" font-size="10.00" fill="#000000">stdarg.h</text>
</g>
<!-- Node15&#45;&gt;Node16 -->
<g id="edge23" class="edge">
<title>Node15&#45;&gt;Node16</title>
<path fill="none" stroke="#191970" d="M551,-262.9005C551,-253.149 551,-237.7597 551,-225.3695"/>
<polygon fill="#191970" stroke="#191970" points="554.5001,-225.0816 551,-215.0817 547.5001,-225.0817 554.5001,-225.0816"/>
</g>
<!-- Node19&#45;&gt;Node6 -->
<g id="edge28" class="edge">
<title>Node19&#45;&gt;Node6</title>
<path fill="none" stroke="#191970" d="M1736.411,-257.4995C1662.398,-227.702 1489.091,-160.6861 1338,-123 1263.9074,-104.5194 1177.1947,-91.8826 1118.2222,-84.5982"/>
<polygon fill="#191970" stroke="#191970" points="1118.6232,-81.1213 1108.2736,-83.3876 1117.7776,-88.07 1118.6232,-81.1213"/>
</g>
<!-- Node20&#45;&gt;Node18 -->
<g id="edge42" class="edge">
<title>Node20&#45;&gt;Node18</title>
<path fill="none" stroke="#191970" d="M824.8489,-391.3515C851.5877,-371.2916 911.1471,-326.714 916,-324 947.8852,-306.168 987.2099,-291.3042 1013.7926,-282.2011"/>
<polygon fill="#191970" stroke="#191970" points="1014.9513,-285.5041 1023.3148,-279.0001 1012.7207,-278.869 1014.9513,-285.5041"/>
</g>
<!-- Node21 -->
<g id="node21" class="node">
<title>Node21</title>
<g id="a_node21"><a xlink:href="_x_m_l_namespaces_8h.html" target="_top" xlink:title="A list of XMLNamespace declarations (URI/prefix pairs) ">
<polygon fill="#ffffff" stroke="#000000" points="1580,-330 1580,-349 1726,-349 1726,-330 1580,-330"/>
<text text-anchor="middle" x="1653" y="-337" font-family="Helvetica,sans-Serif" font-size="10.00" fill="#000000">sbml/xml/XMLNamespaces.h</text>
</a>
</g>
</g>
<!-- Node20&#45;&gt;Node21 -->
<g id="edge30" class="edge">
<title>Node20&#45;&gt;Node21</title>
<path fill="none" stroke="#191970" d="M879.0475,-396.097C1031.3216,-384.9616 1402.9125,-357.7882 1569.6399,-345.5959"/>
<polygon fill="#191970" stroke="#191970" points="1570.121,-349.0702 1579.839,-344.8501 1569.6104,-342.0888 1570.121,-349.0702"/>
</g>
<!-- Node23 -->
<g id="node23" class="node">
<title>Node23</title>
<g id="a_node23"><a xlink:href="common_8h.html" target="_top" xlink:title="Common functions and macros for C and C++. ">
<polygon fill="#ffffff" stroke="#000000" points="392,-330 392,-349 520,-349 520,-330 392,-330"/>
<text text-anchor="middle" x="456" y="-337" font-family="Helvetica,sans-Serif" font-size="10.00" fill="#000000">sbml/common/common.h</text>
</a>
</g>
</g>
<!-- Node20&#45;&gt;Node23 -->
<g id="edge36" class="edge">
<title>Node20&#45;&gt;Node23</title>
<path fill="none" stroke="#191970" d="M756.7656,-391.4581C693.1414,-380.4668 588.7167,-362.4272 521.1713,-350.7585"/>
<polygon fill="#191970" stroke="#191970" points="521.5209,-347.2672 511.0711,-349.0137 520.3293,-354.165 521.5209,-347.2672"/>
</g>
<!-- Node25 -->
<g id="node25" class="node">
<title>Node25</title>
<polygon fill="#ffffff" stroke="#bfbfbf" points="804.5,-330 804.5,-349 863.5,-349 863.5,-330 804.5,-330"/>
<text text-anchor="middle" x="834" y="-337" font-family="Helvetica,sans-Serif" font-size="10.00" fill="#000000">stdexcept</text>
</g>
<!-- Node20&#45;&gt;Node25 -->
<g id="edge43" class="edge">
<title>Node20&#45;&gt;Node25</title>
<path fill="none" stroke="#191970" d="M815.4375,-391.3906C818.5513,-382.6862 823.232,-369.6015 827.114,-358.7494"/>
<polygon fill="#191970" stroke="#191970" points="830.4412,-359.8394 830.514,-349.2449 823.8503,-357.4817 830.4412,-359.8394"/>
</g>
<!-- Node21&#45;&gt;Node8 -->
<g id="edge32" class="edge">
<title>Node21&#45;&gt;Node8</title>
<path fill="none" stroke="#191970" d="M1726.2611,-330.3594C1828.7545,-317.5716 2013.8714,-294.4751 2116.4954,-281.671"/>
<polygon fill="#191970" stroke="#191970" points="2116.9772,-285.1381 2126.4669,-280.4268 2116.1105,-278.1919 2116.9772,-285.1381"/>
</g>
<!-- Node21&#45;&gt;Node14 -->
<g id="edge31" class="edge">
<title>Node21&#45;&gt;Node14</title>
<path fill="none" stroke="#191970" d="M1726.153,-331.5629C1753.1119,-328.8505 1783.9201,-325.9999 1812,-324 2218.7467,-295.0307 2708.1489,-279.4057 2886.0902,-274.3519"/>
<polygon fill="#191970" stroke="#191970" points="2886.453,-277.8431 2896.3503,-274.0624 2886.2555,-270.8459 2886.453,-277.8431"/>
</g>
<!-- Node21&#45;&gt;Node18 -->
<g id="edge34" class="edge">
<title>Node21&#45;&gt;Node18</title>
<path fill="none" stroke="#191970" d="M1579.8431,-331.4515C1446.0819,-316.7356 1167.3027,-286.0653 1074.667,-275.8739"/>
<polygon fill="#191970" stroke="#191970" points="1074.8823,-272.3765 1064.5595,-274.7619 1074.1168,-279.3345 1074.8823,-272.3765"/>
</g>
<!-- Node21&#45;&gt;Node19 -->
<g id="edge33" class="edge">
<title>Node21&#45;&gt;Node19</title>
<path fill="none" stroke="#191970" d="M1670.1931,-329.9005C1687.6226,-320.1691 1715.108,-304.823 1737.2757,-292.4461"/>
<polygon fill="#191970" stroke="#191970" points="1739.0703,-295.4527 1746.0953,-287.5218 1735.6578,-289.3408 1739.0703,-295.4527"/>
</g>
<!-- Node21&#45;&gt;Node22 -->
<g id="edge35" class="edge">
<title>Node21&#45;&gt;Node22</title>
<path fill="none" stroke="#191970" d="M1622.1957,-329.9005C1581.7343,-317.2916 1511.026,-295.2569 1469.9856,-282.4676"/>
<polygon fill="#191970" stroke="#191970" points="1470.8158,-279.0604 1460.2273,-279.4266 1468.7331,-285.7434 1470.8158,-279.0604"/>
</g>
<!-- Node23&#45;&gt;Node6 -->
<g id="edge39" class="edge">
<title>Node23&#45;&gt;Node6</title>
<path fill="none" stroke="#191970" d="M457.22,-329.7053C460.9698,-303.5596 474.6288,-231.3072 515,-190 568.5991,-135.1582 599.9015,-142.7459 674,-123 778.2684,-95.2143 903.3886,-84.1437 979.5014,-79.7797"/>
<polygon fill="#191970" stroke="#191970" points="980.116,-83.2513 989.9087,-79.2074 979.7315,-76.2618 980.116,-83.2513"/>
</g>
<!-- Node23&#45;&gt;Node9 -->
<g id="edge37" class="edge">
<title>Node23&#45;&gt;Node9</title>
<path fill="none" stroke="#191970" d="M446.3631,-329.8631C425.2096,-308.7096 374.2354,-257.7354 344.5289,-228.0289"/>
<polygon fill="#191970" stroke="#191970" points="346.657,-225.2072 337.111,-220.611 341.7072,-230.157 346.657,-225.2072"/>
</g>
<!-- Node23&#45;&gt;Node13 -->
<g id="edge38" class="edge">
<title>Node23&#45;&gt;Node13</title>
<path fill="none" stroke="#191970" d="M504.3253,-329.9167C533.875,-322.2615 571.2058,-309.211 599,-288 621.4161,-270.8933 638.5833,-242.6581 648.2339,-224.0674"/>
<polygon fill="#191970" stroke="#191970" points="651.375,-225.6113 652.6956,-215.099 645.1077,-222.4933 651.375,-225.6113"/>
</g>
<!-- Node23&#45;&gt;Node15 -->
<g id="edge41" class="edge">
<title>Node23&#45;&gt;Node15</title>
<path fill="none" stroke="#191970" d="M469.6112,-329.9005C485.1311,-318.9549 510.7223,-300.9064 529.0667,-287.9688"/>
<polygon fill="#191970" stroke="#191970" points="531.2592,-290.7054 537.4141,-282.0817 527.2248,-284.9849 531.2592,-290.7054"/>
</g>
<!-- Node24 -->
<g id="node24" class="node">
<title>Node24</title>
<g id="a_node24"><a xlink:href="memory_8h.html" target="_top" xlink:title="sbml/util/memory.h">
<polygon fill="#ffffff" stroke="#000000" points="646,-263 646,-282 746,-282 746,-263 646,-263"/>
<text text-anchor="middle" x="696" y="-270" font-family="Helvetica,sans-Serif" font-size="10.00" fill="#000000">sbml/util/memory.h</text>
</a>
</g>
</g>
<!-- Node23&#45;&gt;Node24 -->
<g id="edge40" class="edge">
<title>Node23&#45;&gt;Node24</title>
<path fill="none" stroke="#191970" d="M490.1313,-329.9717C532.5708,-318.124 605.1015,-297.8758 651.7658,-284.8487"/>
<polygon fill="#191970" stroke="#191970" points="652.9073,-288.164 661.5979,-282.1039 651.025,-281.4217 652.9073,-288.164"/>
</g>
<!-- Node26&#45;&gt;Node6 -->
<g id="edge45" class="edge">
<title>Node26&#45;&gt;Node6</title>
<path fill="none" stroke="#191970" d="M1869.5677,-506.4534C2111.3554,-478.8634 3033.3831,-372.6762 3058,-355 3091.0999,-331.2326 3098,-313.2492 3098,-272.5 3098,-272.5 3098,-272.5 3098,-205.5 3098,-52.5942 2915.5251,-143.502 2764,-123 2599.3709,-100.725 1419.1217,-82.3377 1118.5205,-77.98"/>
<polygon fill="#191970" stroke="#191970" points="1118.2509,-74.4759 1108.2014,-77.8309 1118.1498,-81.4751 1118.2509,-74.4759"/>
</g>
<!-- Node26&#45;&gt;Node11 -->
<g id="edge55" class="edge">
<title>Node26&#45;&gt;Node11</title>
<path fill="none" stroke="#191970" d="M1778.4783,-503.3733C1745.6317,-493.9404 1695.4405,-479.5265 1659.7422,-469.2747"/>
<polygon fill="#191970" stroke="#191970" points="1660.6619,-465.8974 1650.0843,-466.5011 1658.7297,-472.6255 1660.6619,-465.8974"/>
</g>
<!-- Node26&#45;&gt;Node12 -->
<g id="edge46" class="edge">
<title>Node26&#45;&gt;Node12</title>
<path fill="none" stroke="#191970" d="M1795.2105,-503.4368C1769.8749,-489.3502 1720.0381,-462.9697 1675,-447 1609.5672,-423.7988 1590.4274,-427.5317 1523,-411 1440.1063,-390.6763 1343.775,-366.0298 1287.8642,-351.6227"/>
<polygon fill="#191970" stroke="#191970" points="1288.4643,-348.163 1277.9071,-349.0551 1286.7164,-354.9413 1288.4643,-348.163"/>
</g>
<!-- Node26&#45;&gt;Node22 -->
<g id="edge56" class="edge">
<title>Node26&#45;&gt;Node22</title>
<path fill="none" stroke="#191970" d="M1800.0712,-503.4116C1781.9943,-489.2928 1746.1418,-462.8717 1712,-447 1681.5377,-432.8388 1443.593,-382.2875 1424,-355 1410.5594,-336.281 1419.1503,-309.0846 1427.6304,-291.1035"/>
<polygon fill="#191970" stroke="#191970" points="1430.7592,-292.6723 1432.1896,-282.1744 1424.5249,-289.489 1430.7592,-292.6723"/>
</g>
<!-- Node27 -->
<g id="node27" class="node">
<title>Node27</title>
<g id="a_node27"><a xlink:href="_x_m_l_error_log_8h.html" target="_top" xlink:title="Stores errors (and messages) encountered while processing XML. ">
<polygon fill="#ffffff" stroke="#000000" points="2032.5,-391.5 2032.5,-410.5 2159.5,-410.5 2159.5,-391.5 2032.5,-391.5"/>
<text text-anchor="middle" x="2096" y="-398.5" font-family="Helvetica,sans-Serif" font-size="10.00" fill="#000000">sbml/xml/XMLErrorLog.h</text>
</a>
</g>
</g>
<!-- Node26&#45;&gt;Node27 -->
<g id="edge47" class="edge">
<title>Node26&#45;&gt;Node27</title>
<path fill="none" stroke="#191970" d="M1869.8539,-508.938C1959.0222,-502.0824 2121.6294,-486.9852 2139,-467 2152.7234,-451.211 2134.6934,-430.7258 2117.9575,-416.7941"/>
<polygon fill="#191970" stroke="#191970" points="2120.0151,-413.9597 2109.9905,-410.5307 2115.6888,-419.4627 2120.0151,-413.9597"/>
</g>
<!-- Node27&#45;&gt;Node8 -->
<g id="edge50" class="edge">
<title>Node27&#45;&gt;Node8</title>
<path fill="none" stroke="#191970" d="M2118.3106,-391.476C2133.8189,-383.7716 2153.8167,-371.492 2166,-355 2179.734,-336.4089 2185.6349,-310.0981 2188.1535,-292.224"/>
<polygon fill="#191970" stroke="#191970" points="2191.6526,-292.4368 2189.3466,-282.096 2184.7006,-291.6178 2191.6526,-292.4368"/>
</g>
<!-- Node27&#45;&gt;Node12 -->
<g id="edge49" class="edge">
<title>Node27&#45;&gt;Node12</title>
<path fill="none" stroke="#191970" d="M2032.4346,-396.4277C1874.6139,-385.0757 1466.1272,-355.6934 1306.3918,-344.2036"/>
<polygon fill="#191970" stroke="#191970" points="1306.4607,-340.6996 1296.2353,-343.4731 1305.9584,-347.6816 1306.4607,-340.6996"/>
</g>
<!-- Node27&#45;&gt;Node14 -->
<g id="edge48" class="edge">
<title>Node27&#45;&gt;Node14</title>
<path fill="none" stroke="#191970" d="M2159.5953,-398.132C2356.4407,-389.1845 2942.9881,-361.9649 2950,-355 2966.2545,-338.8543 2964.1785,-310.757 2960.3142,-291.8967"/>
<polygon fill="#191970" stroke="#191970" points="2963.6828,-290.9341 2957.9574,-282.0195 2956.874,-292.5588 2963.6828,-290.9341"/>
</g>
<!-- Node27&#45;&gt;Node18 -->
<g id="edge52" class="edge">
<title>Node27&#45;&gt;Node18</title>
<path fill="none" stroke="#191970" d="M2032.4378,-397.7411C1926.7985,-391.9081 1708.5366,-378.0858 1525,-355 1353.5859,-333.439 1150.0736,-293.8839 1074.3496,-278.6793"/>
<polygon fill="#191970" stroke="#191970" points="1075.0238,-275.2448 1064.5293,-276.6998 1073.6406,-282.1068 1075.0238,-275.2448"/>
</g>
<!-- Node27&#45;&gt;Node22 -->
<g id="edge53" class="edge">
<title>Node27&#45;&gt;Node22</title>
<path fill="none" stroke="#191970" d="M2032.2073,-399.7134C1911.3727,-396.5728 1653.7964,-386.3178 1571,-355 1549.2998,-346.7919 1548.4646,-336.6254 1529,-324 1508.2493,-310.5403 1483.8096,-296.8197 1465.4857,-286.9285"/>
<polygon fill="#191970" stroke="#191970" points="1466.9811,-283.7592 1456.5128,-282.1268 1463.6783,-289.9311 1466.9811,-283.7592"/>
</g>
<!-- Node28 -->
<g id="node28" class="node">
<title>Node28</title>
<polygon fill="#ffffff" stroke="#bfbfbf" points="2218.5,-330 2218.5,-349 2273.5,-349 2273.5,-330 2218.5,-330"/>
<text text-anchor="middle" x="2246" y="-337" font-family="Helvetica,sans-Serif" font-size="10.00" fill="#000000">iostream</text>
</g>
<!-- Node27&#45;&gt;Node28 -->
<g id="edge51" class="edge">
<title>Node27&#45;&gt;Node28</title>
<path fill="none" stroke="#191970" d="M2119.4375,-391.3906C2144.6453,-381.0554 2184.9153,-364.5447 2213.2477,-352.9284"/>
<polygon fill="#191970" stroke="#191970" points="2214.8023,-356.0739 2222.7271,-349.0419 2212.1468,-349.5971 2214.8023,-356.0739"/>
</g>
<!-- Node29 -->
<g id="node29" class="node">
<title>Node29</title>
<polygon fill="#ffffff" stroke="#bfbfbf" points="3002.5,-330 3002.5,-349 3031.5,-349 3031.5,-330 3002.5,-330"/>
<text text-anchor="middle" x="3017" y="-337" font-family="Helvetica,sans-Serif" font-size="10.00" fill="#000000">list</text>
</g>
<!-- Node27&#45;&gt;Node29 -->
<g id="edge54" class="edge">
<title>Node27&#45;&gt;Node29</title>
<path fill="none" stroke="#191970" d="M2159.5899,-398.092C2360.257,-388.8679 2968.0528,-360.5461 2988,-355 2989.7016,-354.5269 2991.4155,-353.9418 2993.1138,-353.2786"/>
<polygon fill="#191970" stroke="#191970" points="2994.9246,-356.2944 3002.4768,-348.8637 2991.9391,-349.9629 2994.9246,-356.2944"/>
</g>
<!-- Node30&#45;&gt;Node6 -->
<g id="edge58" class="edge">
<title>Node30&#45;&gt;Node6</title>
<path fill="none" stroke="#191970" d="M744.8425,-792.0791C633.3365,-789.1013 315.8103,-778.0549 217,-747 137.9442,-722.1537 76,-707.8683 76,-625 76,-625 76,-625 76,-339.5 76,-241.1298 43.7818,-182.6541 122,-123 155.9605,-97.0996 769.6618,-82.546 979.4033,-78.3119"/>
<polygon fill="#191970" stroke="#191970" points="979.7478,-81.8058 989.6757,-78.1063 979.6076,-74.8073 979.7478,-81.8058"/>
</g>
<!-- Node30&#45;&gt;Node8 -->
<g id="edge59" class="edge">
<title>Node30&#45;&gt;Node8</title>
<path fill="none" stroke="#191970" d="M823.0376,-792.0283C986.6997,-787.836 1618.1999,-770.4437 1816,-747 2075.8485,-716.2022 2140.5031,-699.8773 2394,-635 2528.6705,-600.5339 2682,-652.011 2682,-513 2682,-513 2682,-513 2682,-457 2682,-368.0021 2396.1908,-307.49 2260.2465,-283.7413"/>
<polygon fill="#191970" stroke="#191970" points="2260.7788,-280.2815 2250.3289,-282.0275 2259.5868,-287.1792 2260.7788,-280.2815"/>
</g>
<!-- Node30&#45;&gt;Node12 -->
<g id="edge146" class="edge">
<title>Node30&#45;&gt;Node12</title>
<path fill="none" stroke="#191970" d="M793.8425,-783.4725C802.5851,-774.6243 815.2913,-760.7763 824,-747 901.7417,-624.021 849.4739,-547.1591 955,-447 1016.3535,-388.7669 1112.2479,-361.3697 1175.8431,-348.988"/>
<polygon fill="#191970" stroke="#191970" points="1176.5789,-352.4111 1185.7621,-347.1273 1175.2882,-345.5311 1176.5789,-352.4111"/>
</g>
<!-- Node30&#45;&gt;Node18 -->
<g id="edge147" class="edge">
<title>Node30&#45;&gt;Node18</title>
<path fill="none" stroke="#191970" d="M748.375,-783.4382C684.25,-765.1686 556,-723.3373 556,-681 556,-681 556,-681 556,-513 556,-482.4754 557.669,-472.1274 575,-447 576.6166,-444.6562 736.3835,-325.1229 739,-324 788.3017,-302.8417 946.4472,-283.3384 1013.4947,-275.7961"/>
<polygon fill="#191970" stroke="#191970" points="1013.8908,-279.2737 1023.4427,-274.6899 1013.1171,-272.3166 1013.8908,-279.2737"/>
</g>
<!-- Node30&#45;&gt;Node20 -->
<g id="edge127" class="edge">
<title>Node30&#45;&gt;Node20</title>
<path fill="none" stroke="#191970" d="M784,-783.4116C784,-764.0538 784,-718.9167 784,-681 784,-681 784,-681 784,-625 784,-549.022 800.0572,-459.6596 807.852,-420.7554"/>
<polygon fill="#191970" stroke="#191970" points="811.3193,-421.2695 809.8954,-410.7708 804.4614,-419.8659 811.3193,-421.2695"/>
</g>
<!-- Node30&#45;&gt;Node25 -->
<g id="edge148" class="edge">
<title>Node30&#45;&gt;Node25</title>
<path fill="none" stroke="#191970" d="M789.607,-783.4834C800.1774,-764.6141 822,-720.8343 822,-681 822,-681 822,-681 822,-625 822,-525.4683 873.1677,-509.4204 888,-411 889.3246,-402.2104 891.4987,-399.1714 888,-391 881.8237,-376.5749 869.4032,-364.271 858.03,-355.3104"/>
<polygon fill="#191970" stroke="#191970" points="859.7818,-352.2532 849.6578,-349.13 855.6245,-357.885 859.7818,-352.2532"/>
</g>
<!-- Node31 -->
<g id="node31" class="node">
<title>Node31</title>
<g id="a_node31"><a xlink:href="_s_b_m_l_type_codes_8h.html" target="_top" xlink:title="Enumeration to identify SBML objects at runtime. ">
<polygon fill="#ffffff" stroke="#000000" points="142.5,-263 142.5,-282 269.5,-282 269.5,-263 142.5,-263"/>
<text text-anchor="middle" x="206" y="-270" font-family="Helvetica,sans-Serif" font-size="10.00" fill="#000000">sbml/SBMLTypeCodes.h</text>
</a>
</g>
</g>
<!-- Node30&#45;&gt;Node31 -->
<g id="edge60" class="edge">
<title>Node30&#45;&gt;Node31</title>
<path fill="none" stroke="#191970" d="M744.7294,-792.1033C641.7097,-789.325 365.8054,-779.024 281,-747 195.0084,-714.5281 114,-716.9184 114,-625 114,-625 114,-625 114,-401 114,-365.154 117.3952,-353.3323 138,-324 148.5442,-308.9896 164.8046,-296.4479 178.781,-287.5002"/>
<polygon fill="#191970" stroke="#191970" points="180.8383,-290.345 187.5526,-282.1494 177.1929,-284.3691 180.8383,-290.345"/>
</g>
<!-- Node32 -->
<g id="node32" class="node">
<title>Node32</title>
<g id="a_node32"><a xlink:href="_r_d_f_annotation_8h.html" target="_top" xlink:title="RDFAnnotation I/O. ">
<polygon fill="#ffffff" stroke="#000000" points="997.5,-727.5 997.5,-746.5 1164.5,-746.5 1164.5,-727.5 997.5,-727.5"/>
<text text-anchor="middle" x="1081" y="-734.5" font-family="Helvetica,sans-Serif" font-size="10.00" fill="#000000">sbml/annotation/RDFAnnotation.h</text>
</a>
</g>
</g>
<!-- Node30&#45;&gt;Node32 -->
<g id="edge63" class="edge">
<title>Node30&#45;&gt;Node32</title>
<path fill="none" stroke="#191970" d="M823.133,-785.6214C873.5363,-776.1177 961.6597,-759.5019 1020.6675,-748.3758"/>
<polygon fill="#191970" stroke="#191970" points="1021.4249,-751.7948 1030.6032,-746.5024 1020.1278,-744.916 1021.4249,-751.7948"/>
</g>
<!-- Node37 -->
<g id="node37" class="node">
<title>Node37</title>
<g id="a_node37"><a xlink:href="_list_8h.html" target="_top" xlink:title="Simple, generic list utility class. ">
<polygon fill="#ffffff" stroke="#000000" points="2566,-503.5 2566,-522.5 2646,-522.5 2646,-503.5 2566,-503.5"/>
<text text-anchor="middle" x="2606" y="-510.5" font-family="Helvetica,sans-Serif" font-size="10.00" fill="#000000">sbml/util/List.h</text>
</a>
</g>
</g>
<!-- Node30&#45;&gt;Node37 -->
<g id="edge126" class="edge">
<title>Node30&#45;&gt;Node37</title>
<path fill="none" stroke="#191970" d="M823.1742,-791.89C979.0616,-787.3519 1555.6503,-769.3848 1737,-747 1862.953,-731.453 1893.9722,-722.1453 2017,-691 2046.3011,-683.5822 2052.556,-677.8286 2082,-671 2181.5087,-647.9221 2208.8079,-654.9024 2309,-635 2413.8874,-614.165 2450.2927,-632.2993 2543,-579 2563.8931,-566.9882 2582.2037,-545.9429 2593.6222,-530.8439"/>
<polygon fill="#191970" stroke="#191970" points="2596.4564,-532.8975 2599.5162,-522.7541 2590.7987,-528.7755 2596.4564,-532.8975"/>
</g>
<!-- Node39 -->
<g id="node39" class="node">
<title>Node39</title>
<g id="a_node39"><a xlink:href="_x_m_l_node_8h.html" target="_top" xlink:title="Class definition of XMLNode, a node in an XML document tree. ">
<polygon fill="#ffffff" stroke="#000000" points="2056,-503.5 2056,-522.5 2168,-522.5 2168,-503.5 2056,-503.5"/>
<text text-anchor="middle" x="2112" y="-510.5" font-family="Helvetica,sans-Serif" font-size="10.00" fill="#000000">sbml/xml/XMLNode.h</text>
</a>
</g>
</g>
<!-- Node30&#45;&gt;Node39 -->
<g id="edge145" class="edge">
<title>Node30&#45;&gt;Node39</title>
<path fill="none" stroke="#191970" d="M823.2741,-791.5069C1032.4378,-783.3032 2006,-741.8501 2006,-681 2006,-681 2006,-681 2006,-625 2006,-579.9213 2051.8565,-545.6897 2083.2472,-527.5376"/>
<polygon fill="#191970" stroke="#191970" points="2085.0226,-530.5552 2092.0622,-522.6372 2081.6214,-524.437 2085.0226,-530.5552"/>
</g>
<!-- Node47 -->
<g id="node47" class="node">
<title>Node47</title>
<g id="a_node47"><a xlink:href="_c_v_term_8h.html" target="_top" xlink:title="Definition of a CVTerm class for adding annotations to a Model. ">
<polygon fill="#ffffff" stroke="#000000" points="1275.5,-503.5 1275.5,-522.5 1410.5,-522.5 1410.5,-503.5 1275.5,-503.5"/>
<text text-anchor="middle" x="1343" y="-510.5" font-family="Helvetica,sans-Serif" font-size="10.00" fill="#000000">sbml/annotation/CVTerm.h</text>
</a>
</g>
</g>
<!-- Node30&#45;&gt;Node47 -->
<g id="edge116" class="edge">
<title>Node30&#45;&gt;Node47</title>
<path fill="none" stroke="#191970" d="M823.0587,-792.3267C909.7352,-790.2116 1115.1492,-781.5892 1174,-747 1261.9772,-695.292 1316.9255,-577.7823 1335.7232,-531.8747"/>
<polygon fill="#191970" stroke="#191970" points="1339.0025,-533.1002 1339.4564,-522.5151 1332.5006,-530.5068 1339.0025,-533.1002"/>
</g>
<!-- Node48 -->
<g id="node48" class="node">
<title>Node48</title>
<g id="a_node48"><a xlink:href="_syntax_checker_8h.html" target="_top" xlink:title="Syntax checking functions. ">
<polygon fill="#ffffff" stroke="#000000" points="180.5,-330 180.5,-349 297.5,-349 297.5,-330 180.5,-330"/>
<text text-anchor="middle" x="239" y="-337" font-family="Helvetica,sans-Serif" font-size="10.00" fill="#000000">sbml/SyntaxChecker.h</text>
</a>
</g>
</g>
<!-- Node30&#45;&gt;Node48 -->
<g id="edge128" class="edge">
<title>Node30&#45;&gt;Node48</title>
<path fill="none" stroke="#191970" d="M744.8428,-791.9535C675.0389,-789.2325 525.7485,-779.6771 405,-747 333.1202,-727.5478 251,-755.4653 251,-681 251,-681 251,-681 251,-457 251,-422.0955 241.9089,-382.2555 238.2534,-359.0853"/>
<polygon fill="#191970" stroke="#191970" points="241.721,-358.6089 236.9591,-349.1445 234.7796,-359.5127 241.721,-358.6089"/>
</g>
<!-- Node49 -->
<g id="node49" class="node">
<title>Node49</title>
<g id="a_node49"><a xlink:href="_s_b_m_l_constructor_exception_8h.html" target="_top" xlink:title="Definition of SBMLConstructorException, the exception class for constructor exceptions. ">
<polygon fill="#ffffff" stroke="#000000" points="584,-447.5 584,-466.5 756,-466.5 756,-447.5 584,-447.5"/>
<text text-anchor="middle" x="670" y="-454.5" font-family="Helvetica,sans-Serif" font-size="10.00" fill="#000000">sbml/SBMLConstructorException.h</text>
</a>
</g>
</g>
<!-- Node30&#45;&gt;Node49 -->
<g id="edge133" class="edge">
<title>Node30&#45;&gt;Node49</title>
<path fill="none" stroke="#191970" d="M771.4501,-783.4082C749.864,-765.7155 708,-725.6472 708,-681 708,-681 708,-681 708,-569 708,-534.6118 691.7366,-497.2832 680.489,-475.5791"/>
<polygon fill="#191970" stroke="#191970" points="683.431,-473.6605 675.607,-466.5166 677.2683,-476.9804 683.431,-473.6605"/>
</g>
<!-- Node50 -->
<g id="node50" class="node">
<title>Node50</title>
<polygon fill="#ffffff" stroke="#bfbfbf" points="576,-330 576,-349 634,-349 634,-330 576,-330"/>
<text text-anchor="middle" x="605" y="-337" font-family="Helvetica,sans-Serif" font-size="10.00" fill="#000000">algorithm</text>
</g>
<!-- Node30&#45;&gt;Node50 -->
<g id="edge149" class="edge">
<title>Node30&#45;&gt;Node50</title>
<path fill="none" stroke="#191970" d="M744.7834,-790.6358C642.414,-783.3978 375,-757.1979 375,-681 375,-681 375,-681 375,-457 375,-414.5632 500.7396,-370.6443 566.2782,-350.635"/>
<polygon fill="#191970" stroke="#191970" points="567.3046,-353.9812 575.8703,-347.7459 565.2858,-347.2787 567.3046,-353.9812"/>
</g>
<!-- Node51 -->
<g id="node51" class="node">
<title>Node51</title>
<g id="a_node51"><a xlink:href="_expected_attributes_8h.html" target="_top" xlink:title="Definition of ExpectedAttributes, the class allowing the specification of attributes to expect...">
<polygon fill="#ffffff" stroke="#000000" points="479.5,-391.5 479.5,-410.5 612.5,-410.5 612.5,-391.5 479.5,-391.5"/>
<text text-anchor="middle" x="546" y="-398.5" font-family="Helvetica,sans-Serif" font-size="10.00" fill="#000000">sbml/ExpectedAttributes.h</text>
</a>
</g>
</g>
<!-- Node30&#45;&gt;Node51 -->
<g id="edge139" class="edge">
<title>Node30&#45;&gt;Node51</title>
<path fill="none" stroke="#191970" d="M744.944,-790.222C684.4829,-785.1729 572.0486,-772.5641 542,-747 518.2268,-726.7748 518,-712.2125 518,-681 518,-681 518,-681 518,-513 518,-479.5848 529.8754,-442.1911 538.1585,-420.1729"/>
<polygon fill="#191970" stroke="#191970" points="541.4868,-421.2719 541.8685,-410.6839 534.9674,-418.7229 541.4868,-421.2719"/>
</g>
<!-- Node31&#45;&gt;Node6 -->
<g id="edge62" class="edge">
<title>Node31&#45;&gt;Node6</title>
<path fill="none" stroke="#191970" d="M198.7446,-262.9452C179.7929,-236.7754 132.8333,-163.2187 171,-123 198.7069,-93.8035 776.9649,-81.4891 979.5948,-78.0595"/>
<polygon fill="#191970" stroke="#191970" points="979.8786,-81.5553 989.8187,-77.8886 979.7616,-74.5563 979.8786,-81.5553"/>
</g>
<!-- Node31&#45;&gt;Node9 -->
<g id="edge61" class="edge">
<title>Node31&#45;&gt;Node9</title>
<path fill="none" stroke="#191970" d="M222.62,-262.9005C239.3936,-253.2123 265.8017,-237.9593 287.1805,-225.6113"/>
<polygon fill="#191970" stroke="#191970" points="289.0833,-228.5541 295.9922,-220.5218 285.5822,-222.4926 289.0833,-228.5541"/>
</g>
<!-- Node33 -->
<g id="node33" class="node">
<title>Node33</title>
<g id="a_node33"><a xlink:href="_r_d_f_annotation_parser_8h.html" target="_top" xlink:title="RDFAnnotationParser.h">
<polygon fill="#ffffff" stroke="#000000" points="1071.5,-671.5 1071.5,-690.5 1194.5,-690.5 1194.5,-671.5 1071.5,-671.5"/>
<text text-anchor="middle" x="1133" y="-678.5" font-family="Helvetica,sans-Serif" font-size="10.00" fill="#000000">RDFAnnotationParser.h</text>
</a>
</g>
</g>
<!-- Node32&#45;&gt;Node33 -->
<g id="edge64" class="edge">
<title>Node32&#45;&gt;Node33</title>
<path fill="none" stroke="#191970" d="M1090.0577,-727.2455C1097.5142,-719.2155 1108.2634,-707.6394 1117.1417,-698.0781"/>
<polygon fill="#191970" stroke="#191970" points="1119.8063,-700.3522 1124.0461,-690.6427 1114.6768,-695.589 1119.8063,-700.3522"/>
</g>
<!-- Node33&#45;&gt;Node6 -->
<g id="edge65" class="edge">
<title>Node33&#45;&gt;Node6</title>
<path fill="none" stroke="#191970" d="M1093.3332,-671.4961C960.2546,-638.6979 534.0412,-525.9471 463,-411 458.3268,-403.4387 458.4625,-398.6435 463,-391 480.0563,-362.268 501.2695,-373.6403 529,-355 547.089,-342.8406 547.25,-333.2195 567,-324 644.088,-288.0143 676.8371,-321.587 755,-288 872.1322,-237.6678 988.2963,-134.554 1031.4311,-93.9592"/>
<polygon fill="#191970" stroke="#191970" points="1034.0016,-96.3449 1038.8418,-86.9203 1029.1808,-91.2695 1034.0016,-96.3449"/>
</g>
<!-- Node33&#45;&gt;Node8 -->
<g id="edge66" class="edge">
<title>Node33&#45;&gt;Node8</title>
<path fill="none" stroke="#191970" d="M1194.5456,-678.8142C1381.4892,-671.3649 1930,-643.1866 1930,-569 1930,-569 1930,-569 1930,-513 1930,-446.9151 1967.9612,-437.4172 2015,-391 2060.7918,-345.8133 2125.947,-306.9371 2162.4622,-286.9233"/>
<polygon fill="#191970" stroke="#191970" points="2164.3999,-289.8545 2171.531,-282.0188 2161.07,-283.6972 2164.3999,-289.8545"/>
</g>
<!-- Node33&#45;&gt;Node18 -->
<g id="edge113" class="edge">
<title>Node33&#45;&gt;Node18</title>
<path fill="none" stroke="#191970" d="M1117.2616,-671.468C1075.6065,-645.1866 962.8808,-566.9662 922,-467 906.7554,-429.7221 991.5963,-330.1029 1028.0132,-289.7908"/>
<polygon fill="#191970" stroke="#191970" points="1030.6518,-292.0915 1034.8018,-282.3433 1025.4785,-287.3759 1030.6518,-292.0915"/>
</g>
<!-- Node34 -->
<g id="node34" class="node">
<title>Node34</title>
<g id="a_node34"><a xlink:href="_x_m_l_attributes_8h.html" target="_top" xlink:title="XMLAttributes are a list of name/value pairs for XML elements. ">
<polygon fill="#ffffff" stroke="#000000" points="1691,-391.5 1691,-410.5 1821,-410.5 1821,-391.5 1691,-391.5"/>
<text text-anchor="middle" x="1756" y="-398.5" font-family="Helvetica,sans-Serif" font-size="10.00" fill="#000000">sbml/xml/XMLAttributes.h</text>
</a>
</g>
</g>
<!-- Node33&#45;&gt;Node34 -->
<g id="edge67" class="edge">
<title>Node33&#45;&gt;Node34</title>
<path fill="none" stroke="#191970" d="M1155.1357,-671.4349C1205.039,-649.3291 1329.0512,-591.3282 1420,-523 1458.1917,-494.3073 1453.6348,-469.0695 1496,-447 1527.4025,-430.6413 1615.5869,-417.2748 1680.5866,-409.2463"/>
<polygon fill="#191970" stroke="#191970" points="1681.3028,-412.6851 1690.8074,-408.004 1680.4581,-405.7362 1681.3028,-412.6851"/>
</g>
<!-- Node36 -->
<g id="node36" class="node">
<title>Node36</title>
<g id="a_node36"><a xlink:href="_model_history_8h.html" target="_top" xlink:title="ModelHistory I/O. ">
<polygon fill="#ffffff" stroke="#000000" points="2142.5,-615.5 2142.5,-634.5 2299.5,-634.5 2299.5,-615.5 2142.5,-615.5"/>
<text text-anchor="middle" x="2221" y="-622.5" font-family="Helvetica,sans-Serif" font-size="10.00" fill="#000000">sbml/annotation/ModelHistory.h</text>
</a>
</g>
</g>
<!-- Node33&#45;&gt;Node36 -->
<g id="edge78" class="edge">
<title>Node33&#45;&gt;Node36</title>
<path fill="none" stroke="#191970" d="M1194.6129,-677.8287C1377.4986,-668.4155 1917.7969,-640.606 2132.0318,-629.5792"/>
<polygon fill="#191970" stroke="#191970" points="2132.4852,-633.0606 2142.2921,-629.0511 2132.1254,-626.0699 2132.4852,-633.0606"/>
</g>
<!-- Node41 -->
<g id="node41" class="node">
<title>Node41</title>
<polygon fill="#ffffff" stroke="#bfbfbf" points="1504.5,-447.5 1504.5,-466.5 1549.5,-466.5 1549.5,-447.5 1504.5,-447.5"/>
<text text-anchor="middle" x="1527" y="-454.5" font-family="Helvetica,sans-Serif" font-size="10.00" fill="#000000">cstdlib</text>
</g>
<!-- Node33&#45;&gt;Node41 -->
<g id="edge115" class="edge">
<title>Node33&#45;&gt;Node41</title>
<path fill="none" stroke="#191970" d="M1194.6807,-675.9313C1284.9213,-667.9979 1444.4959,-651.8077 1465,-635 1513.8517,-594.9552 1524.2829,-514.0968 1526.4588,-476.7418"/>
<polygon fill="#191970" stroke="#191970" points="1529.9603,-476.7828 1526.9025,-466.6389 1522.9671,-476.4757 1529.9603,-476.7828"/>
</g>
<!-- Node44 -->
<g id="node44" class="node">
<title>Node44</title>
<polygon fill="#ffffff" stroke="#bfbfbf" points="1218.5,-447.5 1218.5,-466.5 1257.5,-466.5 1257.5,-447.5 1218.5,-447.5"/>
<text text-anchor="middle" x="1238" y="-454.5" font-family="Helvetica,sans-Serif" font-size="10.00" fill="#000000">limits</text>
</g>
<!-- Node33&#45;&gt;Node44 -->
<g id="edge111" class="edge">
<title>Node33&#45;&gt;Node44</title>
<path fill="none" stroke="#191970" d="M1137.5117,-671.375C1153.5323,-637.1979 1207.8643,-521.2894 1229.2492,-475.6683"/>
<polygon fill="#191970" stroke="#191970" points="1232.4298,-477.1293 1233.5051,-466.5891 1226.0916,-474.1582 1232.4298,-477.1293"/>
</g>
<!-- Node45 -->
<g id="node45" class="node">
<title>Node45</title>
<polygon fill="#ffffff" stroke="#bfbfbf" points="964,-447.5 964,-466.5 1016,-466.5 1016,-447.5 964,-447.5"/>
<text text-anchor="middle" x="990" y="-454.5" font-family="Helvetica,sans-Serif" font-size="10.00" fill="#000000">iomanip</text>
</g>
<!-- Node33&#45;&gt;Node45 -->
<g id="edge112" class="edge">
<title>Node33&#45;&gt;Node45</title>
<path fill="none" stroke="#191970" d="M1126.8555,-671.375C1104.9454,-637.0543 1030.4192,-520.3139 1001.553,-475.097"/>
<polygon fill="#191970" stroke="#191970" points="1004.4527,-473.1347 996.1216,-466.5891 998.5525,-476.9014 1004.4527,-473.1347"/>
</g>
<!-- Node46 -->
<g id="node46" class="node">
<title>Node46</title>
<polygon fill="#ffffff" stroke="#bfbfbf" points="1072,-447.5 1072,-466.5 1124,-466.5 1124,-447.5 1072,-447.5"/>
<text text-anchor="middle" x="1098" y="-454.5" font-family="Helvetica,sans-Serif" font-size="10.00" fill="#000000">sstream</text>
</g>
<!-- Node33&#45;&gt;Node46 -->
<g id="edge114" class="edge">
<title>Node33&#45;&gt;Node46</title>
<path fill="none" stroke="#191970" d="M1131.4961,-671.375C1126.1896,-637.4133 1108.273,-522.7472 1101.053,-476.5392"/>
<polygon fill="#191970" stroke="#191970" points="1104.5002,-475.9289 1099.4983,-466.5891 1097.5841,-477.0096 1104.5002,-475.9289"/>
</g>
<!-- Node34&#45;&gt;Node8 -->
<g id="edge69" class="edge">
<title>Node34&#45;&gt;Node8</title>
<path fill="none" stroke="#191970" d="M1801.3977,-391.4928C1839.5379,-383.1109 1895.2998,-369.9312 1943,-355 1979.7863,-343.4851 1987.5732,-336.6063 2024,-324 2065.4763,-309.6462 2113.4097,-294.9779 2147.0731,-284.9863"/>
<polygon fill="#191970" stroke="#191970" points="2148.4412,-288.2317 2157.0393,-282.0411 2146.4574,-281.5187 2148.4412,-288.2317"/>
</g>
<!-- Node34&#45;&gt;Node14 -->
<g id="edge68" class="edge">
<title>Node34&#45;&gt;Node14</title>
<path fill="none" stroke="#191970" d="M1821.1482,-398.5312C2065.5519,-389.2555 2914.1293,-356.9195 2917,-355 2938.1379,-340.866 2947.7236,-311.8055 2951.9236,-292.23"/>
<polygon fill="#191970" stroke="#191970" points="2955.395,-292.7064 2953.7817,-282.2351 2948.5129,-291.427 2955.395,-292.7064"/>
</g>
<!-- Node34&#45;&gt;Node18 -->
<g id="edge71" class="edge">
<title>Node34&#45;&gt;Node18</title>
<path fill="none" stroke="#191970" d="M1690.7387,-397.8006C1549.4675,-390.589 1224.2098,-372.3377 1177,-355 1154.8845,-346.8781 1153.8539,-336.6841 1134,-324 1106.4978,-306.4296 1098.2406,-304.3571 1070,-288 1069.5907,-287.7629 1069.1781,-287.5234 1068.7629,-287.2818"/>
<polygon fill="#191970" stroke="#191970" points="1070.306,-284.1289 1059.9126,-282.0724 1066.7551,-290.1614 1070.306,-284.1289"/>
</g>
<!-- Node34&#45;&gt;Node19 -->
<g id="edge70" class="edge">
<title>Node34&#45;&gt;Node19</title>
<path fill="none" stroke="#191970" d="M1759.1361,-391.247C1761.9627,-382.0153 1765.976,-367.7152 1768,-355 1771.0058,-336.1174 1772.2371,-314.5403 1772.7269,-298.1895"/>
<polygon fill="#191970" stroke="#191970" points="1776.2347,-297.8782 1772.9602,-287.8021 1769.2365,-297.721 1776.2347,-297.8782"/>
</g>
<!-- Node34&#45;&gt;Node22 -->
<g id="edge72" class="edge">
<title>Node34&#45;&gt;Node22</title>
<path fill="none" stroke="#191970" d="M1690.8858,-395.5166C1646.1143,-389.8052 1586.2654,-378.2482 1538,-355 1504.1119,-338.677 1471.8513,-308.5057 1453.536,-289.524"/>
<polygon fill="#191970" stroke="#191970" points="1455.9845,-287.0191 1446.5763,-282.1471 1450.8929,-291.8227 1455.9845,-287.0191"/>
</g>
<!-- Node34&#45;&gt;Node25 -->
<g id="edge73" class="edge">
<title>Node34&#45;&gt;Node25</title>
<path fill="none" stroke="#191970" d="M1690.7994,-396.6509C1512.1202,-384.7325 1018.3484,-351.7966 874.0754,-342.1731"/>
<polygon fill="#191970" stroke="#191970" points="874.122,-338.6686 863.9112,-341.4952 873.656,-345.653 874.122,-338.6686"/>
</g>
<!-- Node35 -->
<g id="node35" class="node">
<title>Node35</title>
<g id="a_node35"><a xlink:href="_x_m_l_triple_8h.html" target="_top" xlink:title="Stores an XML namespace triple. ">
<polygon fill="#ffffff" stroke="#000000" points="1820.5,-330 1820.5,-349 1933.5,-349 1933.5,-330 1820.5,-330"/>
<text text-anchor="middle" x="1877" y="-337" font-family="Helvetica,sans-Serif" font-size="10.00" fill="#000000">sbml/xml/XMLTriple.h</text>
</a>
</g>
</g>
<!-- Node34&#45;&gt;Node35 -->
<g id="edge74" class="edge">
<title>Node34&#45;&gt;Node35</title>
<path fill="none" stroke="#191970" d="M1774.9063,-391.3906C1794.7966,-381.2811 1826.3123,-365.2628 1849.0692,-353.6962"/>
<polygon fill="#191970" stroke="#191970" points="1850.8978,-356.693 1858.2265,-349.0419 1847.726,-350.4528 1850.8978,-356.693"/>
</g>
<!-- Node35&#45;&gt;Node8 -->
<g id="edge76" class="edge">
<title>Node35&#45;&gt;Node8</title>
<path fill="none" stroke="#191970" d="M1921.5129,-329.9717C1977.8693,-317.9082 2074.9123,-297.1354 2135.6029,-284.1441"/>
<polygon fill="#191970" stroke="#191970" points="2136.3417,-287.5653 2145.3876,-282.0496 2134.8765,-280.7204 2136.3417,-287.5653"/>
</g>
<!-- Node35&#45;&gt;Node14 -->
<g id="edge75" class="edge">
<title>Node35&#45;&gt;Node14</title>
<path fill="none" stroke="#191970" d="M1933.818,-335.9686C2116.3934,-324.6212 2687.7235,-289.1118 2886.225,-276.7745"/>
<polygon fill="#191970" stroke="#191970" points="2886.4733,-280.2659 2896.2369,-276.1523 2886.039,-273.2794 2886.4733,-280.2659"/>
</g>
<!-- Node35&#45;&gt;Node18 -->
<g id="edge77" class="edge">
<title>Node35&#45;&gt;Node18</title>
<path fill="none" stroke="#191970" d="M1820.3839,-332.8695C1794.3909,-329.9413 1763.1527,-326.5848 1735,-324 1480.1096,-300.5972 1171.5754,-280.5203 1074.6489,-274.4074"/>
<polygon fill="#191970" stroke="#191970" points="1074.8543,-270.9135 1064.6544,-273.7794 1074.4152,-277.8997 1074.8543,-270.9135"/>
</g>
<!-- Node36&#45;&gt;Node6 -->
<g id="edge79" class="edge">
<title>Node36&#45;&gt;Node6</title>
<path fill="none" stroke="#191970" d="M2299.6461,-620.836C2365.8162,-615.6701 2462.2822,-604.2143 2543,-579 2596.1218,-562.406 2617.9266,-564.5072 2655,-523 2731.6208,-437.2158 2720,-387.5203 2720,-272.5 2720,-272.5 2720,-272.5 2720,-205.5 2720,-144.3889 2667.6842,-143.1769 2610,-123 2538.7868,-98.0909 1411.0657,-81.7192 1118.1037,-77.8722"/>
<polygon fill="#191970" stroke="#191970" points="1118.0823,-74.3718 1108.0374,-77.7407 1117.9907,-81.3712 1118.0823,-74.3718"/>
</g>
<!-- Node36&#45;&gt;Node8 -->
<g id="edge80" class="edge">
<title>Node36&#45;&gt;Node8</title>
<path fill="none" stroke="#191970" d="M2285.0237,-615.4873C2358.2419,-604.3012 2468.8776,-586.3308 2475,-579 2556.0329,-481.9737 2451.0574,-398.5971 2349,-324 2322.3764,-304.5399 2288.0539,-292.2082 2258.1159,-284.511"/>
<polygon fill="#191970" stroke="#191970" points="2258.6936,-281.0492 2248.1485,-282.0747 2257.0315,-287.8491 2258.6936,-281.0492"/>
</g>
<!-- Node36&#45;&gt;Node18 -->
<g id="edge110" class="edge">
<title>Node36&#45;&gt;Node18</title>
<path fill="none" stroke="#191970" d="M2142.3523,-620.9678C1931.756,-609.5907 1358.7399,-574.67 1177,-523 1122.7021,-507.5627 1100.9164,-508.82 1063,-467 1018.5075,-417.9269 1007.1908,-388.7847 1021,-324 1023.4241,-312.6274 1028.5483,-300.7241 1033.346,-291.2296"/>
<polygon fill="#191970" stroke="#191970" points="1036.4752,-292.7999 1038.1006,-282.3305 1030.3011,-289.5012 1036.4752,-292.7999"/>
</g>
<!-- Node36&#45;&gt;Node19 -->
<g id="edge81" class="edge">
<title>Node36&#45;&gt;Node19</title>
<path fill="none" stroke="#191970" d="M2194.3022,-615.3892C2144.4667,-595.9289 2037.8307,-546.8042 1988,-467 1952.711,-410.4845 1990.3651,-370.86 1943,-324 1929.9695,-311.1085 1892.3831,-299.0845 1855.8564,-289.9023"/>
<polygon fill="#191970" stroke="#191970" points="1856.6538,-286.4942 1846.1078,-287.5101 1854.9856,-293.2925 1856.6538,-286.4942"/>
</g>
<!-- Node36&#45;&gt;Node37 -->
<g id="edge82" class="edge">
<title>Node36&#45;&gt;Node37</title>
<path fill="none" stroke="#191970" d="M2299.5298,-616.5419C2371.9254,-608.0232 2473.6349,-594.0216 2511,-579 2540.3038,-567.2193 2569.4556,-545.0052 2587.5834,-529.6225"/>
<polygon fill="#191970" stroke="#191970" points="2590.3,-531.8984 2595.5492,-522.6954 2585.7066,-526.6163 2590.3,-531.8984"/>
</g>
<!-- Node36&#45;&gt;Node39 -->
<g id="edge85" class="edge">
<title>Node36&#45;&gt;Node39</title>
<path fill="none" stroke="#191970" d="M2202.7118,-615.4643C2188.0659,-607.2023 2167.6232,-594.2033 2153,-579 2139.606,-565.0748 2128.3651,-546.0708 2121.0609,-532.0306"/>
<polygon fill="#191970" stroke="#191970" points="2124.0637,-530.2096 2116.4636,-522.828 2117.8016,-533.338 2124.0637,-530.2096"/>
</g>
<!-- Node42 -->
<g id="node42" class="node">
<title>Node42</title>
<g id="a_node42"><a xlink:href="_date_8h.html" target="_top" xlink:title="Date I/O. ">
<polygon fill="#ffffff" stroke="#000000" points="2161.5,-559.5 2161.5,-578.5 2280.5,-578.5 2280.5,-559.5 2161.5,-559.5"/>
<text text-anchor="middle" x="2221" y="-566.5" font-family="Helvetica,sans-Serif" font-size="10.00" fill="#000000">sbml/annotation/Date.h</text>
</a>
</g>
</g>
<!-- Node36&#45;&gt;Node42 -->
<g id="edge96" class="edge">
<title>Node36&#45;&gt;Node42</title>
<path fill="none" stroke="#191970" d="M2221,-615.2455C2221,-607.9382 2221,-597.6944 2221,-588.7046"/>
<polygon fill="#191970" stroke="#191970" points="2224.5001,-588.6426 2221,-578.6427 2217.5001,-588.6427 2224.5001,-588.6426"/>
</g>
<!-- Node43 -->
<g id="node43" class="node">
<title>Node43</title>
<g id="a_node43"><a xlink:href="_model_creator_8h.html" target="_top" xlink:title="ModelCreator I/O. ">
<polygon fill="#ffffff" stroke="#000000" points="2306.5,-559.5 2306.5,-578.5 2465.5,-578.5 2465.5,-559.5 2306.5,-559.5"/>
<text text-anchor="middle" x="2386" y="-566.5" font-family="Helvetica,sans-Serif" font-size="10.00" fill="#000000">sbml/annotation/ModelCreator.h</text>
</a>
</g>
</g>
<!-- Node36&#45;&gt;Node43 -->
<g id="edge103" class="edge">
<title>Node36&#45;&gt;Node43</title>
<path fill="none" stroke="#191970" d="M2249.3645,-615.3733C2276.6827,-606.1016 2318.1796,-592.0178 2348.2738,-581.804"/>
<polygon fill="#191970" stroke="#191970" points="2349.661,-585.0294 2358.0056,-578.5011 2347.4113,-578.4008 2349.661,-585.0294"/>
</g>
<!-- Node37&#45;&gt;Node6 -->
<g id="edge83" class="edge">
<title>Node37&#45;&gt;Node6</title>
<path fill="none" stroke="#191970" d="M2611.2318,-503.4788C2615.8953,-494.4109 2622.3769,-480.2215 2625,-467 2626.7298,-458.281 2625.586,-455.8696 2625,-447 2615.4236,-302.0534 2689.8163,-220.3492 2582,-123 2554.4886,-98.1595 1414.3776,-81.7224 1118.537,-77.87"/>
<polygon fill="#191970" stroke="#191970" points="1118.417,-74.3683 1108.3724,-77.7383 1118.3262,-81.3677 1118.417,-74.3683"/>
</g>
<!-- Node38 -->
<g id="node38" class="node">
<title>Node38</title>
<polygon fill="#ffffff" stroke="#bfbfbf" points="2566.5,-447.5 2566.5,-466.5 2615.5,-466.5 2615.5,-447.5 2566.5,-447.5"/>
<text text-anchor="middle" x="2591" y="-454.5" font-family="Helvetica,sans-Serif" font-size="10.00" fill="#000000">string.h</text>
</g>
<!-- Node37&#45;&gt;Node38 -->
<g id="edge84" class="edge">
<title>Node37&#45;&gt;Node38</title>
<path fill="none" stroke="#191970" d="M2603.3872,-503.2455C2601.4084,-495.8579 2598.6256,-485.4689 2596.1988,-476.4087"/>
<polygon fill="#191970" stroke="#191970" points="2599.5511,-475.3966 2593.5829,-466.6427 2592.7895,-477.2078 2599.5511,-475.3966"/>
</g>
<!-- Node39&#45;&gt;Node8 -->
<g id="edge93" class="edge">
<title>Node39&#45;&gt;Node8</title>
<path fill="none" stroke="#191970" d="M2129.6944,-503.4761C2166.5979,-482.4649 2251.0002,-428.1354 2283,-355 2288.5228,-342.3776 2289.9952,-335.8699 2283,-324 2272.3872,-305.9916 2252.962,-293.8374 2234.5991,-285.8823"/>
<polygon fill="#191970" stroke="#191970" points="2235.7301,-282.565 2225.1457,-282.0963 2233.1276,-289.0633 2235.7301,-282.565"/>
</g>
<!-- Node39&#45;&gt;Node14 -->
<g id="edge86" class="edge">
<title>Node39&#45;&gt;Node14</title>
<path fill="none" stroke="#191970" d="M2168.0653,-504.6304C2369.1961,-474.4802 3043.3554,-372.2934 3058,-355 3082.364,-326.2292 3032.8484,-300.3582 2994.3648,-285.5467"/>
<polygon fill="#191970" stroke="#191970" points="2995.4632,-282.2211 2984.8702,-282.0242 2993.0284,-288.784 2995.4632,-282.2211"/>
</g>
<!-- Node39&#45;&gt;Node22 -->
<g id="edge94" class="edge">
<title>Node39&#45;&gt;Node22</title>
<path fill="none" stroke="#191970" d="M2065.8464,-503.4723C1929.6346,-475.0541 1535.922,-390.6524 1489,-355 1467.5061,-338.6685 1452.9323,-310.4386 1445.0404,-291.6169"/>
<polygon fill="#191970" stroke="#191970" points="1448.274,-290.276 1441.342,-282.2636 1441.7644,-292.85 1448.274,-290.276"/>
</g>
<!-- Node40 -->
<g id="node40" class="node">
<title>Node40</title>
<g id="a_node40"><a xlink:href="_x_m_l_token_8h.html" target="_top" xlink:title="A unit of XML syntax, either an XML element or text. ">
<polygon fill="#ffffff" stroke="#000000" points="1996.5,-447.5 1996.5,-466.5 2111.5,-466.5 2111.5,-447.5 1996.5,-447.5"/>
<text text-anchor="middle" x="2054" y="-454.5" font-family="Helvetica,sans-Serif" font-size="10.00" fill="#000000">sbml/xml/XMLToken.h</text>
</a>
</g>
</g>
<!-- Node39&#45;&gt;Node40 -->
<g id="edge87" class="edge">
<title>Node39&#45;&gt;Node40</title>
<path fill="none" stroke="#191970" d="M2101.8972,-503.2455C2093.4972,-495.1352 2081.3506,-483.4075 2071.3916,-473.7919"/>
<polygon fill="#191970" stroke="#191970" points="2073.6122,-471.0707 2063.9871,-466.6427 2068.75,-476.1066 2073.6122,-471.0707"/>
</g>
<!-- Node39&#45;&gt;Node41 -->
<g id="edge95" class="edge">
<title>Node39&#45;&gt;Node41</title>
<path fill="none" stroke="#191970" d="M2055.9542,-509.9077C1938.7119,-503.1906 1670.0032,-486.4358 1559.4495,-466.5943"/>
<polygon fill="#191970" stroke="#191970" points="1560.0433,-463.1446 1549.5673,-464.7272 1558.7437,-470.0229 1560.0433,-463.1446"/>
</g>
<!-- Node40&#45;&gt;Node8 -->
<g id="edge91" class="edge">
<title>Node40&#45;&gt;Node8</title>
<path fill="none" stroke="#191970" d="M2043.7228,-447.4352C2030.5849,-434.0294 2011.0048,-409.25 2024,-391 2052.3715,-351.1559 2088.4707,-383.8084 2128,-355 2151.3198,-338.0049 2169.8368,-309.7409 2180.3643,-291.1135"/>
<polygon fill="#191970" stroke="#191970" points="2183.549,-292.5831 2185.2477,-282.1253 2177.3982,-289.2412 2183.549,-292.5831"/>
</g>
<!-- Node40&#45;&gt;Node14 -->
<g id="edge88" class="edge">
<title>Node40&#45;&gt;Node14</title>
<path fill="none" stroke="#191970" d="M2089.9519,-447.4237C2147.3932,-432.5604 2263.6262,-404.2705 2364,-391 2438.6786,-381.1267 2989.1682,-409.6612 3041,-355 3064.7116,-329.9941 3021.1644,-302.6041 2987.841,-286.5175"/>
<polygon fill="#191970" stroke="#191970" points="2988.889,-283.1447 2978.3461,-282.0972 2985.9346,-289.4907 2988.889,-283.1447"/>
</g>
<!-- Node40&#45;&gt;Node18 -->
<g id="edge92" class="edge">
<title>Node40&#45;&gt;Node18</title>
<path fill="none" stroke="#191970" d="M1996.4927,-455.2691C1820.1185,-449.2412 1289.3802,-425.544 1134,-355 1125.3733,-351.0834 1084.8983,-312.3976 1061.2681,-289.4183"/>
<polygon fill="#191970" stroke="#191970" points="1063.573,-286.7772 1053.9705,-282.3003 1058.6853,-291.7883 1063.573,-286.7772"/>
</g>
<!-- Node40&#45;&gt;Node34 -->
<g id="edge89" class="edge">
<title>Node40&#45;&gt;Node34</title>
<path fill="none" stroke="#191970" d="M2003.1106,-447.4369C1951.4673,-437.7321 1871.5174,-422.708 1816.6251,-412.3926"/>
<polygon fill="#191970" stroke="#191970" points="1817.1539,-408.9308 1806.6795,-410.5237 1815.8611,-415.8104 1817.1539,-408.9308"/>
</g>
<!-- Node40&#45;&gt;Node40 -->
<g id="edge90" class="edge">
<title>Node40&#45;&gt;Node40</title>
<path fill="none" stroke="#191970" d="M2086.2009,-466.5252C2108.0805,-469.3079 2129.5,-466.1328 2129.5,-457 2129.5,-449.2942 2114.2512,-445.8298 2096.3433,-446.6068"/>
<polygon fill="#191970" stroke="#191970" points="2095.866,-443.1347 2086.2009,-447.4748 2096.4629,-450.1092 2095.866,-443.1347"/>
</g>
<!-- Node42&#45;&gt;Node6 -->
<g id="edge97" class="edge">
<title>Node42&#45;&gt;Node6</title>
<path fill="none" stroke="#191970" d="M2251.5604,-559.4775C2322.4338,-535.2818 2492,-464.3474 2492,-339.5 2492,-339.5 2492,-339.5 2492,-205.5 2492,-191.3248 2528.4246,-175.8977 2054,-123 1872.1672,-102.7259 1314.8756,-84.8278 1118.4273,-78.9949"/>
<polygon fill="#191970" stroke="#191970" points="1118.3322,-75.4906 1108.2331,-78.6934 1118.1253,-82.4876 1118.3322,-75.4906"/>
</g>
<!-- Node42&#45;&gt;Node8 -->
<g id="edge98" class="edge">
<title>Node42&#45;&gt;Node8</title>
<path fill="none" stroke="#191970" d="M2229.4886,-559.3714C2258.75,-524.9692 2350.8389,-405.8265 2299,-324 2287.0583,-305.1503 2266.1578,-293.0687 2245.8319,-285.3873"/>
<polygon fill="#191970" stroke="#191970" points="2246.8507,-282.0361 2236.2558,-282.0594 2244.5528,-288.6482 2246.8507,-282.0361"/>
</g>
<!-- Node42&#45;&gt;Node18 -->
<g id="edge102" class="edge">
<title>Node42&#45;&gt;Node18</title>
<path fill="none" stroke="#191970" d="M2161.4152,-567.4183C1951.6738,-561.7025 1257.7563,-541.4795 1214,-523 1168.5239,-503.7942 1169.4113,-480.334 1133,-447 1087.7268,-405.5531 1055.0773,-411.0235 1030,-355 1020.8576,-334.5756 1027.7852,-308.8623 1034.7545,-291.6187"/>
<polygon fill="#191970" stroke="#191970" points="1038.1199,-292.6615 1038.9559,-282.0997 1031.716,-289.8349 1038.1199,-292.6615"/>
</g>
<!-- Node42&#45;&gt;Node19 -->
<g id="edge99" class="edge">
<title>Node42&#45;&gt;Node19</title>
<path fill="none" stroke="#191970" d="M2221.0887,-559.4151C2220.832,-530.0695 2216.0424,-440.4508 2169,-391 2126.5773,-346.4054 1963.2056,-308.3681 1860.0209,-288.123"/>
<polygon fill="#191970" stroke="#191970" points="1860.4037,-284.632 1849.9197,-286.1602 1859.0684,-291.5035 1860.4037,-284.632"/>
</g>
<!-- Node42&#45;&gt;Node37 -->
<g id="edge100" class="edge">
<title>Node42&#45;&gt;Node37</title>
<path fill="none" stroke="#191970" d="M2280.7338,-560.3114C2356.3254,-549.3163 2485.1715,-530.575 2555.8839,-520.2896"/>
<polygon fill="#191970" stroke="#191970" points="2556.4897,-523.7384 2565.8818,-518.8354 2555.4821,-516.8113 2556.4897,-523.7384"/>
</g>
<!-- Node42&#45;&gt;Node39 -->
<g id="edge101" class="edge">
<title>Node42&#45;&gt;Node39</title>
<path fill="none" stroke="#191970" d="M2202.0136,-559.2455C2184.8208,-550.4125 2159.2762,-537.2887 2139.7868,-527.2758"/>
<polygon fill="#191970" stroke="#191970" points="2141.263,-524.0993 2130.7688,-522.6427 2138.0641,-530.3257 2141.263,-524.0993"/>
</g>
<!-- Node43&#45;&gt;Node6 -->
<g id="edge104" class="edge">
<title>Node43&#45;&gt;Node6</title>
<path fill="none" stroke="#191970" d="M2402.1513,-559.3805C2446.6935,-531.491 2568,-445.7803 2568,-339.5 2568,-339.5 2568,-339.5 2568,-205.5 2568,-195.5121 2526.357,-165.1326 2190,-123 1980.9722,-96.8169 1332.6677,-82.4046 1118.4743,-78.2642"/>
<polygon fill="#191970" stroke="#191970" points="1118.3692,-74.7617 1108.3038,-78.0691 1118.2348,-81.7604 1118.3692,-74.7617"/>
</g>
<!-- Node43&#45;&gt;Node8 -->
<g id="edge105" class="edge">
<title>Node43&#45;&gt;Node8</title>
<path fill="none" stroke="#191970" d="M2389.8624,-559.3228C2393.3038,-550.1446 2398.0833,-535.8807 2400,-523 2404.9715,-489.5901 2409.6969,-479.356 2400,-447 2381.209,-384.2996 2369.7257,-365.3685 2319,-324 2296.3978,-305.5672 2266.3591,-293.0564 2240.9553,-284.9862"/>
<polygon fill="#191970" stroke="#191970" points="2241.6973,-281.5539 2231.112,-282.0037 2239.6673,-288.2532 2241.6973,-281.5539"/>
</g>
<!-- Node43&#45;&gt;Node18 -->
<g id="edge109" class="edge">
<title>Node43&#45;&gt;Node18</title>
<path fill="none" stroke="#191970" d="M2306.4116,-560.2848C2300.8612,-559.8078 2295.3493,-559.3723 2290,-559 2176.5374,-551.1034 1373.2164,-563.6717 1267,-523 1239.8176,-512.5915 1081.6482,-379.543 1066,-355 1053.7172,-335.7354 1048.2499,-309.763 1045.8436,-292.143"/>
<polygon fill="#191970" stroke="#191970" points="1049.3141,-291.6856 1044.6853,-282.1554 1042.3607,-292.492 1049.3141,-291.6856"/>
</g>
<!-- Node43&#45;&gt;Node19 -->
<g id="edge106" class="edge">
<title>Node43&#45;&gt;Node19</title>
<path fill="none" stroke="#191970" d="M2385.3044,-559.4083C2382.0232,-521.9134 2364.6182,-384.3545 2283,-324 2249.7764,-299.432 1996.3238,-283.4052 1859.6801,-276.4577"/>
<polygon fill="#191970" stroke="#191970" points="1859.8095,-272.9598 1849.6464,-275.9531 1859.4579,-279.951 1859.8095,-272.9598"/>
</g>
<!-- Node43&#45;&gt;Node37 -->
<g id="edge107" class="edge">
<title>Node43&#45;&gt;Node37</title>
<path fill="none" stroke="#191970" d="M2423.8193,-559.3733C2461.1938,-549.8598 2518.4724,-535.2797 2558.8071,-525.0127"/>
<polygon fill="#191970" stroke="#191970" points="2559.8466,-528.3598 2568.6742,-522.5011 2558.1198,-521.5761 2559.8466,-528.3598"/>
</g>
<!-- Node43&#45;&gt;Node39 -->
<g id="edge108" class="edge">
<title>Node43&#45;&gt;Node39</title>
<path fill="none" stroke="#191970" d="M2339.209,-559.4369C2292.0205,-549.7925 2219.128,-534.8948 2168.6876,-524.5858"/>
<polygon fill="#191970" stroke="#191970" points="2169.0963,-521.097 2158.598,-522.5237 2167.6946,-527.9553 2169.0963,-521.097"/>
</g>
<!-- Node47&#45;&gt;Node6 -->
<g id="edge117" class="edge">
<title>Node47&#45;&gt;Node6</title>
<path fill="none" stroke="#191970" d="M1340.1965,-503.2066C1334.9113,-483.8521 1324,-439.2612 1324,-401 1324,-401 1324,-401 1324,-205.5 1324,-156.1004 1176.5077,-110.1372 1097.5549,-89.0719"/>
<polygon fill="#191970" stroke="#191970" points="1098.3792,-85.6697 1087.8175,-86.5073 1096.5963,-92.4389 1098.3792,-85.6697"/>
</g>
<!-- Node47&#45;&gt;Node8 -->
<g id="edge118" class="edge">
<title>Node47&#45;&gt;Node8</title>
<path fill="none" stroke="#191970" d="M1360.2844,-503.489C1388.0047,-488.7152 1444.5239,-460.5457 1496,-447 1640.3887,-409.0046 1684.1479,-442.9205 1830,-411 1906.474,-394.2633 1923.8381,-382.852 1997,-355 2055.3035,-332.8045 2121.9414,-303.399 2159.6912,-286.3535"/>
<polygon fill="#191970" stroke="#191970" points="2161.4284,-289.4089 2169.0927,-282.0939 2158.5396,-283.0328 2161.4284,-289.4089"/>
</g>
<!-- Node47&#45;&gt;Node18 -->
<g id="edge123" class="edge">
<title>Node47&#45;&gt;Node18</title>
<path fill="none" stroke="#191970" d="M1332.5227,-503.1765C1318.1745,-489.8947 1291.4042,-465.719 1267,-447 1231.6909,-419.9165 1223.2443,-411.9794 1184,-391 1146.7335,-371.0779 1128.3649,-382.1697 1096,-355 1075.3214,-337.6407 1060.2274,-309.8956 1051.7844,-291.4398"/>
<polygon fill="#191970" stroke="#191970" points="1054.9901,-290.0349 1047.7849,-282.2672 1048.5736,-292.8327 1054.9901,-290.0349"/>
</g>
<!-- Node47&#45;&gt;Node19 -->
<g id="edge119" class="edge">
<title>Node47&#45;&gt;Node19</title>
<path fill="none" stroke="#191970" d="M1346.9415,-503.2983C1353.3437,-488.7867 1367.3957,-461.5785 1388,-447 1518.2456,-354.8453 1612.8829,-457.683 1735,-355 1752.4348,-340.3399 1762.2929,-315.9562 1767.5737,-297.4902"/>
<polygon fill="#191970" stroke="#191970" points="1770.9954,-298.2383 1770.1163,-287.68 1764.2193,-296.4821 1770.9954,-298.2383"/>
</g>
<!-- Node47&#45;&gt;Node34 -->
<g id="edge120" class="edge">
<title>Node47&#45;&gt;Node34</title>
<path fill="none" stroke="#191970" d="M1351.3557,-503.4368C1364.9419,-488.5914 1393.3985,-460.3256 1424,-447 1435.6623,-441.9216 1586.3186,-422.3156 1680.6283,-410.4"/>
<polygon fill="#191970" stroke="#191970" points="1681.2202,-413.8531 1690.7036,-409.1292 1680.3442,-406.9082 1681.2202,-413.8531"/>
</g>
<!-- Node47&#45;&gt;Node41 -->
<g id="edge125" class="edge">
<title>Node47&#45;&gt;Node41</title>
<path fill="none" stroke="#191970" d="M1374.6307,-503.3733C1408.1531,-493.1708 1460.821,-477.1414 1494.6239,-466.8536"/>
<polygon fill="#191970" stroke="#191970" points="1495.9191,-470.118 1504.4668,-463.8579 1493.8809,-463.4213 1495.9191,-470.118"/>
</g>
<!-- Node47&#45;&gt;Node44 -->
<g id="edge121" class="edge">
<title>Node47&#45;&gt;Node44</title>
<path fill="none" stroke="#191970" d="M1324.7104,-503.2455C1308.2238,-494.4527 1283.7648,-481.4079 1265.0235,-471.4125"/>
<polygon fill="#191970" stroke="#191970" points="1266.5506,-468.2604 1256.08,-466.6427 1263.2565,-474.4368 1266.5506,-468.2604"/>
</g>
<!-- Node47&#45;&gt;Node45 -->
<g id="edge122" class="edge">
<title>Node47&#45;&gt;Node45</title>
<path fill="none" stroke="#191970" d="M1282.7182,-503.4369C1209.1562,-491.767 1087.109,-472.4054 1026.4904,-462.7889"/>
<polygon fill="#191970" stroke="#191970" points="1026.6846,-459.276 1016.2597,-461.1658 1025.5878,-466.1895 1026.6846,-459.276"/>
</g>
<!-- Node47&#45;&gt;Node46 -->
<g id="edge124" class="edge">
<title>Node47&#45;&gt;Node46</title>
<path fill="none" stroke="#191970" d="M1301.1614,-503.4369C1254.1211,-492.6848 1178.5147,-475.4033 1134.0071,-465.2302"/>
<polygon fill="#191970" stroke="#191970" points="1134.7292,-461.805 1124.2007,-462.9887 1133.1694,-468.6291 1134.7292,-461.805"/>
</g>
<!-- Node48&#45;&gt;Node6 -->
<g id="edge129" class="edge">
<title>Node48&#45;&gt;Node6</title>
<path fill="none" stroke="#191970" d="M195.068,-329.9633C172.3644,-322.5671 146.6233,-309.765 133,-288 107.4356,-247.1577 72.2804,-196.6265 154,-123 184.5495,-95.476 775.128,-82.039 979.8402,-78.1946"/>
<polygon fill="#191970" stroke="#191970" points="979.9403,-81.6934 989.8735,-78.008 979.8101,-74.6946 979.9403,-81.6934"/>
</g>
<!-- Node48&#45;&gt;Node15 -->
<g id="edge131" class="edge">
<title>Node48&#45;&gt;Node15</title>
<path fill="none" stroke="#191970" d="M283.3707,-329.9717C341.2602,-317.5403 442.2175,-295.8603 502.208,-282.9778"/>
<polygon fill="#191970" stroke="#191970" points="503.1497,-286.3554 512.1919,-280.8338 501.68,-279.5114 503.1497,-286.3554"/>
</g>
<!-- Node48&#45;&gt;Node18 -->
<g id="edge132" class="edge">
<title>Node48&#45;&gt;Node18</title>
<path fill="none" stroke="#191970" d="M297.8123,-332.7733C323.891,-329.8929 354.9586,-326.601 383,-324 625.5447,-301.5027 918.7817,-281.0079 1013.1609,-274.5782"/>
<polygon fill="#191970" stroke="#191970" points="1013.6809,-278.051 1023.4207,-273.8813 1013.2065,-271.0671 1013.6809,-278.051"/>
</g>
<!-- Node48&#45;&gt;Node30 -->
<g id="edge130" class="edge">
<title>Node48&#45;&gt;Node30</title>
<path fill="none" stroke="#191970" d="M246.8808,-349.1445C256.6902,-369.0848 269,-416.3838 269,-457 269,-681 269,-681 269,-681 269,-755.4653 351.1202,-727.5478 423,-747 531.9094,-776.4732 664.038,-787.1364 734.4383,-790.9407"/>
<polygon fill="#191970" stroke="#191970" points="734.6138,-794.4543 744.7808,-791.4739 734.9743,-787.4636 734.6138,-794.4543"/>
</g>
<!-- Node49&#45;&gt;Node6 -->
<g id="edge134" class="edge">
<title>Node49&#45;&gt;Node6</title>
<path fill="none" stroke="#191970" d="M599.6976,-447.4415C558.7804,-440.4019 506.7963,-428.8817 463,-411 419.3843,-393.192 395.8792,-396.1825 373,-355 360.4653,-332.4376 385.6808,-264.0046 389,-257 405.0253,-223.1816 415.0726,-217.9127 440,-190 454.3428,-173.9395 490.3769,-131.865 510,-123 551.7595,-104.1345 843.1143,-87.2986 979.2281,-80.3623"/>
<polygon fill="#191970" stroke="#191970" points="979.7327,-83.8413 989.543,-79.8405 979.3789,-76.8503 979.7327,-83.8413"/>
</g>
<!-- Node49&#45;&gt;Node18 -->
<g id="edge136" class="edge">
<title>Node49&#45;&gt;Node18</title>
<path fill="none" stroke="#191970" d="M674.1054,-447.2749C680.1587,-433.6787 692.4597,-408.6745 708,-391 740.4588,-354.0836 751.272,-344.3911 796,-324 869.4678,-290.5066 965.1268,-278.5655 1013.35,-274.4905"/>
<polygon fill="#191970" stroke="#191970" points="1013.7531,-277.9697 1023.4473,-273.695 1013.2033,-270.9913 1013.7531,-277.9697"/>
</g>
<!-- Node49&#45;&gt;Node20 -->
<g id="edge135" class="edge">
<title>Node49&#45;&gt;Node20</title>
<path fill="none" stroke="#191970" d="M694.4107,-447.3733C717.6142,-438.2226 752.7038,-424.3844 778.5142,-414.2057"/>
<polygon fill="#191970" stroke="#191970" points="779.8892,-417.4258 787.9079,-410.5011 777.3211,-410.9139 779.8892,-417.4258"/>
</g>
<!-- Node49&#45;&gt;Node25 -->
<g id="edge137" class="edge">
<title>Node49&#45;&gt;Node25</title>
<path fill="none" stroke="#191970" d="M678.1785,-447.1151C689.9371,-433.3292 712.772,-408.1009 736,-391 756.484,-375.9193 781.9799,-362.6674 801.8313,-353.3838"/>
<polygon fill="#191970" stroke="#191970" points="803.4387,-356.4974 811.0764,-349.1546 800.5267,-350.1318 803.4387,-356.4974"/>
</g>
<!-- Node49&#45;&gt;Node50 -->
<g id="edge138" class="edge">
<title>Node49&#45;&gt;Node50</title>
<path fill="none" stroke="#191970" d="M583.9113,-447.8673C536.5656,-440.8751 484.5351,-429.2576 470,-411 464.4637,-404.0458 464.9577,-398.3203 470,-391 471.5004,-388.8218 529.6506,-367.1492 569.135,-352.6216"/>
<polygon fill="#191970" stroke="#191970" points="570.5457,-355.8322 578.7254,-349.0984 568.1318,-349.2615 570.5457,-355.8322"/>
</g>
<!-- Node51&#45;&gt;Node6 -->
<g id="edge140" class="edge">
<title>Node51&#45;&gt;Node6</title>
<path fill="none" stroke="#191970" d="M484.4469,-391.4986C443.6873,-383.8051 395.5102,-371.5293 383,-355 344.0278,-303.5074 499.3562,-150.0412 558,-123 631.2069,-89.2436 862.4019,-80.2587 979.5354,-77.8673"/>
<polygon fill="#191970" stroke="#191970" points="979.8915,-81.3611 989.8219,-77.6683 979.756,-74.3624 979.8915,-81.3611"/>
</g>
<!-- Node51&#45;&gt;Node18 -->
<g id="edge141" class="edge">
<title>Node51&#45;&gt;Node18</title>
<path fill="none" stroke="#191970" d="M569.3404,-391.3584C589.3768,-382.7492 618.771,-369.3178 643,-355 663.283,-343.0141 664.1539,-332.8209 686,-324 745.3808,-300.0236 937.4018,-281.5608 1013.0042,-275.0462"/>
<polygon fill="#191970" stroke="#191970" points="1013.6167,-278.5068 1023.2843,-274.1725 1013.0238,-271.532 1013.6167,-278.5068"/>
</g>
<!-- Node51&#45;&gt;Node22 -->
<g id="edge142" class="edge">
<title>Node51&#45;&gt;Node22</title>
<path fill="none" stroke="#191970" d="M574.4115,-391.3879C630.2216,-372.6497 752.5125,-332.3371 796,-324 915.0179,-301.1829 1292.7499,-280.0835 1405.7582,-274.1509"/>
<polygon fill="#191970" stroke="#191970" points="1406.0464,-277.6408 1415.8505,-273.6246 1405.6818,-270.6503 1406.0464,-277.6408"/>
</g>
<!-- Node51&#45;&gt;Node25 -->
<g id="edge143" class="edge">
<title>Node51&#45;&gt;Node25</title>
<path fill="none" stroke="#191970" d="M590.684,-391.4581C646.3775,-379.5652 740.7155,-359.4201 794.0875,-348.023"/>
<polygon fill="#191970" stroke="#191970" points="795.1436,-351.3765 804.1921,-345.8652 793.6817,-344.5308 795.1436,-351.3765"/>
</g>
<!-- Node51&#45;&gt;Node50 -->
<g id="edge144" class="edge">
<title>Node51&#45;&gt;Node50</title>
<path fill="none" stroke="#191970" d="M555.2188,-391.3906C564.0858,-382.1478 577.6912,-367.966 588.4389,-356.7628"/>
<polygon fill="#191970" stroke="#191970" points="591.2541,-358.8841 595.6513,-349.2449 586.2027,-354.0381 591.2541,-358.8841"/>
</g>
<!-- Node54&#45;&gt;Node6 -->
<g id="edge155" class="edge">
<title>Node54&#45;&gt;Node6</title>
<path fill="none" stroke="#191970" d="M2826.7427,-324.2581C2822.4511,-283.2751 2804.4512,-170.6043 2734,-123 2700.0035,-100.0284 1431.7393,-81.9941 1118.4345,-77.8833"/>
<polygon fill="#191970" stroke="#191970" points="1118.1767,-74.3797 1108.1317,-77.7486 1118.0851,-81.3791 1118.1767,-74.3797"/>
</g>
<!-- Node54&#45;&gt;Node8 -->
<g id="edge156" class="edge">
<title>Node54&#45;&gt;Node8</title>
<path fill="none" stroke="#191970" d="M2748.4868,-331.1499C2624.0114,-318.078 2384.8898,-292.9665 2263.9392,-280.2648"/>
<polygon fill="#191970" stroke="#191970" points="2263.9814,-276.75 2253.6705,-279.1864 2263.2503,-283.7118 2263.9814,-276.75"/>
</g>
<!-- Node54&#45;&gt;Node18 -->
<g id="edge157" class="edge">
<title>Node54&#45;&gt;Node18</title>
<path fill="none" stroke="#191970" d="M2748.2606,-336.7904C2532.2929,-329.4128 1917.9179,-308.1662 1407,-288 1283.9626,-283.1437 1137.4983,-276.6811 1074.8743,-273.8855"/>
<polygon fill="#191970" stroke="#191970" points="1075.0146,-270.3884 1064.8682,-273.4382 1074.7019,-277.3814 1075.0146,-270.3884"/>
</g>
<!-- Node56&#45;&gt;Node2 -->
<g id="edge162" class="edge">
<title>Node56&#45;&gt;Node2</title>
<path fill="none" stroke="#191970" d="M2842.8463,-1018.4554C2825.3005,-1008.734 2802.5878,-996.15 2785.2279,-986.5317"/>
<polygon fill="#191970" stroke="#191970" points="2786.6445,-983.3153 2776.2011,-981.5303 2783.252,-989.4383 2786.6445,-983.3153"/>
</g>
<!-- Node56&#45;&gt;Node29 -->
<g id="edge164" class="edge">
<title>Node56&#45;&gt;Node29</title>
<path fill="none" stroke="#191970" d="M2913.3098,-1018.4056C2956.6711,-1000.2037 3017,-965.0732 3017,-910.5 3017,-910.5 3017,-910.5 3017,-457 3017,-422.6399 3017,-382.628 3017,-359.2764"/>
<polygon fill="#191970" stroke="#191970" points="3020.5001,-359.2489 3017,-349.2489 3013.5001,-359.249 3020.5001,-359.2489"/>
</g>
<!-- Node56&#45;&gt;Node53 -->
<g id="edge165" class="edge">
<title>Node56&#45;&gt;Node53</title>
<path fill="none" stroke="#191970" d="M2888.8623,-1018.4227C2910.8178,-999.5352 2945.8692,-964.8911 2960,-926 2974.506,-886.0763 2952.3332,-837.2766 2937.5229,-811.3117"/>
<polygon fill="#191970" stroke="#191970" points="2940.4245,-809.3436 2932.2991,-802.5445 2934.4111,-812.9267 2940.4245,-809.3436"/>
</g>
<!-- Node56&#45;&gt;Node55 -->
<g id="edge163" class="edge">
<title>Node56&#45;&gt;Node55</title>
<path fill="none" stroke="#191970" d="M2869.8774,-1018.4178C2869.6973,-996.2662 2869.361,-954.9061 2869.1612,-930.3234"/>
<polygon fill="#191970" stroke="#191970" points="2872.6589,-930.0204 2869.0776,-920.0493 2865.6591,-930.0774 2872.6589,-930.0204"/>
</g>
</g>
</svg>
        <g id="navigator" transform="translate(0 0)" fill="#404254">
                <rect fill="#f2f5e9" fill-opacity="0.5" stroke="#606060" stroke-width=".5" x="0" y="0" width="60" height="60"/>
                <use id="zoomplus" xlink:href="#zoomPlus" x="17" y="9" onmousedown="handleZoom(evt,'in')"/>
                <use id="zoomminus" xlink:href="#zoomMin" x="42" y="9" onmousedown="handleZoom(evt,'out')"/>
                <use id="reset" xlink:href="#resetDef" x="30" y="36" onmousedown="handleReset()"/>
                <g id="arrowUp" xlink:href="#dirArrow" transform="translate(30 24)" onmousedown="handlePan(0,-1)">
                  <use xlink:href="#rim" fill="#404040">
                        <set attributeName="fill" to="#808080" begin="arrowUp.mouseover" end="arrowUp.mouseout"/>
                  </use>
                  <path fill="none" stroke="white" stroke-width="1.5" d="M0,-3.0v7 M-2.5,-0.5L0,-3.0L2.5,-0.5"/>
                </g>
                <g id="arrowRight" xlink:href="#dirArrow" transform="rotate(90) translate(36 -43)" onmousedown="handlePan(1,0)">
                  <use xlink:href="#rim" fill="#404040">
                        <set attributeName="fill" to="#808080" begin="arrowRight.mouseover" end="arrowRight.mouseout"/>
                  </use>
                  <path fill="none" stroke="white" stroke-width="1.5" d="M0,-3.0v7 M-2.5,-0.5L0,-3.0L2.5,-0.5"/>
                </g>
                <g id="arrowDown" xlink:href="#dirArrow" transform="rotate(180) translate(-30 -48)" onmousedown="handlePan(0,1)">
                  <use xlink:href="#rim" fill="#404040">
                        <set attributeName="fill" to="#808080" begin="arrowDown.mouseover" end="arrowDown.mouseout"/>
                  </use>
                  <path fill="none" stroke="white" stroke-width="1.5" d="M0,-3.0v7 M-2.5,-0.5L0,-3.0L2.5,-0.5"/>
                </g>
                <g id="arrowLeft" xlink:href="#dirArrow" transform="rotate(270) translate(-36 17)" onmousedown="handlePan(-1,0)">
                  <use xlink:href="#rim" fill="#404040">
                        <set attributeName="fill" to="#808080" begin="arrowLeft.mouseover" end="arrowLeft.mouseout"/>
                  </use>
                  <path fill="none" stroke="white" stroke-width="1.5" d="M0,-3.0v7 M-2.5,-0.5L0,-3.0L2.5,-0.5"/>
                </g>
        </g>
        <svg viewBox="0 0 15 15" width="100%" height="30px" preserveAspectRatio="xMaxYMin meet">
         <g id="arrow_out" transform="scale(0.3 0.3)">
          <a xlink:href="_s_b_m_l_extension_register_8h__incl_org.svg" target="_base">
           <rect id="button" ry="5" rx="5" y="6" x="6" height="38" width="38"
                fill="#f2f5e9" fill-opacity="0.5" stroke="#606060" stroke-width="1.0"/>
           <path id="arrow"
             d="M 11.500037,31.436501 C 11.940474,20.09759 22.043105,11.32322 32.158766,21.979434 L 37.068811,17.246167 C 37.068811,17.246167 37.088388,32 37.088388,32 L 22.160133,31.978069 C 22.160133,31.978069 26.997745,27.140456 26.997745,27.140456 C 18.528582,18.264221 13.291696,25.230495 11.500037,31.436501 z"
             style="fill:#404040;"/>
          </a>
         </g>
        </svg>
</svg>
