<?xml version="1.0" encoding="UTF-8" standalone="no"?>
<!DOCTYPE svg PUBLIC "-//W3C//DTD SVG 1.1//EN"
 "http://www.w3.org/Graphics/SVG/1.1/DTD/svg11.dtd">
<!-- Generated by graphviz version 2.40.1 (20161225.0304)
 -->
<!-- Title: SBMLResolverRegistry.h Pages: 1 -->
<svg width="396pt" height="84pt"
 viewBox="0.00 0.00 396.00 84.00" xmlns="http://www.w3.org/2000/svg" xmlns:xlink="http://www.w3.org/1999/xlink">
<g id="graph0" class="graph" transform="scale(1 1) rotate(0) translate(4 80)">
<title>SBMLResolverRegistry.h</title>
<polygon fill="#ffffff" stroke="transparent" points="-4,4 -4,-80 392,-80 392,4 -4,4"/>
<!-- Node1 -->
<g id="node1" class="node">
<title>Node1</title>
<polygon fill="#bfbfbf" stroke="#000000" points="153,-56.5 153,-75.5 253,-75.5 253,-56.5 153,-56.5"/>
<text text-anchor="middle" x="203" y="-63.5" font-family="Helvetica,sans-Serif" font-size="10.00" fill="#000000">SBMLResolverRegistry.h</text>
</g>
<!-- Node2 -->
<g id="node2" class="node">
<title>Node2</title>
<g id="a_node2"><a xlink:href="_comp_s_b_m_l_document_plugin_8cpp.html" target="_top" xlink:title="Implementation of CompSBMLDocumentPlugin, the plugin class of comp package for the SBase element...">
<polygon fill="#ffffff" stroke="#000000" points="0,-.5 0,-19.5 126,-19.5 126,-.5 0,-.5"/>
<text text-anchor="middle" x="63" y="-7.5" font-family="Helvetica,sans-Serif" font-size="10.00" fill="#000000">CompSBMLDocumentPlugin.cpp</text>
</a>
</g>
</g>
<!-- Node1&#45;&gt;Node2 -->
<g id="edge1" class="edge">
<title>Node1&#45;&gt;Node2</title>
<path fill="none" stroke="#191970" d="M169.6351,-52.6541C144.1048,-42.4419 109.5216,-28.6086 86.7528,-19.5011"/>
<polygon fill="#191970" stroke="#191970" points="168.3485,-55.909 178.9331,-56.3733 170.9483,-49.4096 168.3485,-55.909"/>
</g>
<!-- Node3 -->
<g id="node3" class="node">
<title>Node3</title>
<g id="a_node3"><a xlink:href="_comp_flattening_converter_8cpp.html" target="_top" xlink:title="Implementation of a first flattening converter. ">
<polygon fill="#ffffff" stroke="#000000" points="144.5,-.5 144.5,-19.5 261.5,-19.5 261.5,-.5 144.5,-.5"/>
<text text-anchor="middle" x="203" y="-7.5" font-family="Helvetica,sans-Serif" font-size="10.00" fill="#000000">CompFlatteningConverter.cpp</text>
</a>
</g>
</g>
<!-- Node1&#45;&gt;Node3 -->
<g id="edge2" class="edge">
<title>Node1&#45;&gt;Node3</title>
<path fill="none" stroke="#191970" d="M203,-46.1575C203,-37.155 203,-26.9199 203,-19.6427"/>
<polygon fill="#191970" stroke="#191970" points="199.5001,-46.2455 203,-56.2455 206.5001,-46.2456 199.5001,-46.2455"/>
</g>
<!-- Node4 -->
<g id="node4" class="node">
<title>Node4</title>
<g id="a_node4"><a xlink:href="_s_b_m_l_resolver_registry_8cpp.html" target="_top" xlink:title="SBMLResolverRegistry.cpp">
<polygon fill="#ffffff" stroke="#000000" points="280,-.5 280,-19.5 388,-19.5 388,-.5 280,-.5"/>
<text text-anchor="middle" x="334" y="-7.5" font-family="Helvetica,sans-Serif" font-size="10.00" fill="#000000">SBMLResolverRegistry.cpp</text>
</a>
</g>
</g>
<!-- Node1&#45;&gt;Node4 -->
<g id="edge3" class="edge">
<title>Node1&#45;&gt;Node4</title>
<path fill="none" stroke="#191970" d="M234.8534,-52.3833C258.6785,-42.1985 290.6568,-28.5284 311.7742,-19.5011"/>
<polygon fill="#191970" stroke="#191970" points="233.339,-49.2242 225.5197,-56.3733 236.0906,-55.6608 233.339,-49.2242"/>
</g>
</g>
</svg>
