<?xml version="1.0" encoding="UTF-8" standalone="no"?>
<!DOCTYPE svg PUBLIC "-//W3C//DTD SVG 1.1//EN"
 "http://www.w3.org/Graphics/SVG/1.1/DTD/svg11.dtd">
<!-- Generated by graphviz version 2.40.1 (20161225.0304)
 -->
<!-- Title: SBMLTypeCodes.h Pages: 1 -->
<svg width="284pt" height="285pt"
 viewBox="0.00 0.00 283.68 285.00" xmlns="http://www.w3.org/2000/svg" xmlns:xlink="http://www.w3.org/1999/xlink">
<g id="graph0" class="graph" transform="scale(1 1) rotate(0) translate(4 281)">
<title>SBMLTypeCodes.h</title>
<polygon fill="#ffffff" stroke="transparent" points="-4,4 -4,-281 279.6843,-281 279.6843,4 -4,4"/>
<!-- Node1 -->
<g id="node1" class="node">
<title>Node1</title>
<polygon fill="#bfbfbf" stroke="#000000" points="130.8689,-257.5 130.8689,-276.5 233.8689,-276.5 233.8689,-257.5 130.8689,-257.5"/>
<text text-anchor="middle" x="182.3689" y="-264.5" font-family="Helvetica,sans-Serif" font-size="10.00" fill="#000000">SBMLTypeCodes.h</text>
</g>
<!-- Node2 -->
<g id="node2" class="node">
<title>Node2</title>
<g id="a_node2"><a xlink:href="libsbml-config_8h.html" target="_top" xlink:title="Decides whether to #include Unix or Windows configuration variables. ">
<polygon fill="#ffffff" stroke="#000000" points="83.8689,-190.5 83.8689,-220.5 196.8689,-220.5 196.8689,-190.5 83.8689,-190.5"/>
<text text-anchor="start" x="91.8689" y="-208.5" font-family="Helvetica,sans-Serif" font-size="10.00" fill="#000000">sbml/common/libsbml</text>
<text text-anchor="middle" x="140.3689" y="-197.5" font-family="Helvetica,sans-Serif" font-size="10.00" fill="#000000">&#45;config.h</text>
</a>
</g>
</g>
<!-- Node1&#45;&gt;Node2 -->
<g id="edge1" class="edge">
<title>Node1&#45;&gt;Node2</title>
<path fill="none" stroke="#191970" d="M175.8064,-257.3906C170.5959,-249.761 163.0871,-238.7658 156.3213,-228.8588"/>
<polygon fill="#191970" stroke="#191970" points="159.1733,-226.8287 150.6433,-220.5446 153.3926,-230.7765 159.1733,-226.8287"/>
</g>
<!-- Node6 -->
<g id="node6" class="node">
<title>Node6</title>
<g id="a_node6"><a xlink:href="extern_8h.html" target="_top" xlink:title="Definitions of LIBSBML_EXTERN and related things. ">
<polygon fill="#ffffff" stroke="#000000" points="146.3689,-67.5 146.3689,-86.5 264.3689,-86.5 264.3689,-67.5 146.3689,-67.5"/>
<text text-anchor="middle" x="205.3689" y="-74.5" font-family="Helvetica,sans-Serif" font-size="10.00" fill="#000000">sbml/common/extern.h</text>
</a>
</g>
</g>
<!-- Node1&#45;&gt;Node6 -->
<g id="edge7" class="edge">
<title>Node1&#45;&gt;Node6</title>
<path fill="none" stroke="#191970" d="M193.9677,-257.2799C214.3337,-239.3617 255.8338,-198.832 271.3689,-154 275.88,-140.9817 277.7441,-135.2141 271.3689,-123 264.2444,-109.3502 251.0166,-98.926 238.2633,-91.4806"/>
<polygon fill="#191970" stroke="#191970" points="239.6198,-88.2362 229.1548,-86.5822 236.3043,-94.4012 239.6198,-88.2362"/>
</g>
<!-- Node3 -->
<g id="node3" class="node">
<title>Node3</title>
<g id="a_node3"><a xlink:href="libsbml-namespace_8h.html" target="_top" xlink:title="Defines C++ namespace of libSBML. ">
<polygon fill="#ffffff" stroke="#000000" points="40.8689,-.5 40.8689,-30.5 153.8689,-30.5 153.8689,-.5 40.8689,-.5"/>
<text text-anchor="start" x="48.8689" y="-18.5" font-family="Helvetica,sans-Serif" font-size="10.00" fill="#000000">sbml/common/libsbml</text>
<text text-anchor="middle" x="97.3689" y="-7.5" font-family="Helvetica,sans-Serif" font-size="10.00" fill="#000000">&#45;namespace.h</text>
</a>
</g>
</g>
<!-- Node2&#45;&gt;Node3 -->
<g id="edge2" class="edge">
<title>Node2&#45;&gt;Node3</title>
<path fill="none" stroke="#191970" d="M83.9085,-190.3919C52.3366,-180.6785 17.5281,-167.4051 8.3689,-154 -19.5458,-113.145 30.9958,-64.2079 66.6469,-36.8037"/>
<polygon fill="#191970" stroke="#191970" points="68.9731,-39.4346 74.886,-30.6432 64.7813,-33.8284 68.9731,-39.4346"/>
</g>
<!-- Node4 -->
<g id="node4" class="node">
<title>Node4</title>
<g id="a_node4"><a xlink:href="libsbml-config-common_8h.html" target="_top" xlink:title="Configuration variables. ">
<polygon fill="#ffffff" stroke="#000000" points="17.8689,-123.5 17.8689,-153.5 130.8689,-153.5 130.8689,-123.5 17.8689,-123.5"/>
<text text-anchor="start" x="25.8689" y="-141.5" font-family="Helvetica,sans-Serif" font-size="10.00" fill="#000000">sbml/common/libsbml</text>
<text text-anchor="middle" x="74.3689" y="-130.5" font-family="Helvetica,sans-Serif" font-size="10.00" fill="#000000">&#45;config&#45;common.h</text>
</a>
</g>
</g>
<!-- Node2&#45;&gt;Node4 -->
<g id="edge3" class="edge">
<title>Node2&#45;&gt;Node4</title>
<path fill="none" stroke="#191970" d="M125.3925,-190.2967C116.8696,-181.6446 106.033,-170.6438 96.5406,-161.0076"/>
<polygon fill="#191970" stroke="#191970" points="98.7972,-158.311 89.2861,-153.6432 93.8104,-163.2234 98.7972,-158.311"/>
</g>
<!-- Node5 -->
<g id="node5" class="node">
<title>Node5</title>
<g id="a_node5"><a xlink:href="libsbml-version_8h.html" target="_top" xlink:title="Define libSBML version numbers for access from client software. ">
<polygon fill="#ffffff" stroke="#000000" points="148.8689,-123.5 148.8689,-153.5 261.8689,-153.5 261.8689,-123.5 148.8689,-123.5"/>
<text text-anchor="start" x="156.8689" y="-141.5" font-family="Helvetica,sans-Serif" font-size="10.00" fill="#000000">sbml/common/libsbml</text>
<text text-anchor="middle" x="205.3689" y="-130.5" font-family="Helvetica,sans-Serif" font-size="10.00" fill="#000000">&#45;version.h</text>
</a>
</g>
</g>
<!-- Node2&#45;&gt;Node5 -->
<g id="edge4" class="edge">
<title>Node2&#45;&gt;Node5</title>
<path fill="none" stroke="#191970" d="M155.1184,-190.2967C163.5122,-181.6446 174.1847,-170.6438 183.5332,-161.0076"/>
<polygon fill="#191970" stroke="#191970" points="186.2267,-163.2577 190.6778,-153.6432 181.2025,-158.3835 186.2267,-163.2577"/>
</g>
<!-- Node5&#45;&gt;Node6 -->
<g id="edge5" class="edge">
<title>Node5&#45;&gt;Node6</title>
<path fill="none" stroke="#191970" d="M205.3689,-123.2977C205.3689,-115.3834 205.3689,-105.6043 205.3689,-97.0759"/>
<polygon fill="#191970" stroke="#191970" points="208.869,-96.8469 205.3689,-86.8469 201.869,-96.847 208.869,-96.8469"/>
</g>
<!-- Node6&#45;&gt;Node3 -->
<g id="edge6" class="edge">
<title>Node6&#45;&gt;Node3</title>
<path fill="none" stroke="#191970" d="M188.4939,-67.3906C173.6068,-58.9132 151.4232,-46.2809 132.6714,-35.6028"/>
<polygon fill="#191970" stroke="#191970" points="134.2105,-32.4516 123.7887,-30.5446 130.7466,-38.5345 134.2105,-32.4516"/>
</g>
</g>
</svg>
