<?xml version="1.0" encoding="UTF-8" standalone="no"?>
<!DOCTYPE svg PUBLIC "-//W3C//DTD SVG 1.1//EN"
 "http://www.w3.org/Graphics/SVG/1.1/DTD/svg11.dtd">
<!-- Generated by graphviz version 2.40.1 (20161225.0304)
 -->
<!-- Title: SBMLRuleConverter.h Pages: 1 -->
<svg width="427pt" height="140pt"
 viewBox="0.00 0.00 427.00 140.00" xmlns="http://www.w3.org/2000/svg" xmlns:xlink="http://www.w3.org/1999/xlink">
<g id="graph0" class="graph" transform="scale(1 1) rotate(0) translate(4 136)">
<title>SBMLRuleConverter.h</title>
<polygon fill="#ffffff" stroke="transparent" points="-4,4 -4,-136 423,-136 423,4 -4,4"/>
<!-- Node1 -->
<g id="node1" class="node">
<title>Node1</title>
<polygon fill="#bfbfbf" stroke="#000000" points="154,-112.5 154,-131.5 271,-131.5 271,-112.5 154,-112.5"/>
<text text-anchor="middle" x="212.5" y="-119.5" font-family="Helvetica,sans-Serif" font-size="10.00" fill="#000000">SBMLRuleConverter.h</text>
</g>
<!-- Node2 -->
<g id="node2" class="node">
<title>Node2</title>
<g id="a_node2"><a xlink:href="_register_converters_8cpp.html" target="_top" xlink:title="Registers all available converters. ">
<polygon fill="#ffffff" stroke="#000000" points="10.5,-56.5 10.5,-75.5 132.5,-75.5 132.5,-56.5 10.5,-56.5"/>
<text text-anchor="middle" x="71.5" y="-63.5" font-family="Helvetica,sans-Serif" font-size="10.00" fill="#000000">RegisterConverters.cpp</text>
</a>
</g>
</g>
<!-- Node1&#45;&gt;Node2 -->
<g id="edge1" class="edge">
<title>Node1&#45;&gt;Node2</title>
<path fill="none" stroke="#191970" d="M178.8968,-108.6541C153.1841,-98.4419 118.3539,-84.6086 95.4225,-75.5011"/>
<polygon fill="#191970" stroke="#191970" points="177.6755,-111.9349 188.2612,-112.3733 180.2593,-105.4292 177.6755,-111.9349"/>
</g>
<!-- Node4 -->
<g id="node4" class="node">
<title>Node4</title>
<g id="a_node4"><a xlink:href="_s_b_m_l_converter_types_8h.html" target="_top" xlink:title="Definition of SBMLConverterTypes. ">
<polygon fill="#ffffff" stroke="#000000" points="151,-56.5 151,-75.5 274,-75.5 274,-56.5 151,-56.5"/>
<text text-anchor="middle" x="212.5" y="-63.5" font-family="Helvetica,sans-Serif" font-size="10.00" fill="#000000">SBMLConverterTypes.h</text>
</a>
</g>
</g>
<!-- Node1&#45;&gt;Node4 -->
<g id="edge3" class="edge">
<title>Node1&#45;&gt;Node4</title>
<path fill="none" stroke="#191970" d="M212.5,-102.1575C212.5,-93.155 212.5,-82.9199 212.5,-75.6427"/>
<polygon fill="#191970" stroke="#191970" points="209.0001,-102.2455 212.5,-112.2455 216.0001,-102.2456 209.0001,-102.2455"/>
</g>
<!-- Node5 -->
<g id="node5" class="node">
<title>Node5</title>
<g id="a_node5"><a xlink:href="_s_b_m_l_rule_converter_8cpp.html" target="_top" xlink:title="SBMLRuleConverter.cpp">
<polygon fill="#ffffff" stroke="#000000" points="292,-56.5 292,-75.5 419,-75.5 419,-56.5 292,-56.5"/>
<text text-anchor="middle" x="355.5" y="-63.5" font-family="Helvetica,sans-Serif" font-size="10.00" fill="#000000">SBMLRuleConverter.cpp</text>
</a>
</g>
</g>
<!-- Node1&#45;&gt;Node5 -->
<g id="edge4" class="edge">
<title>Node1&#45;&gt;Node5</title>
<path fill="none" stroke="#191970" d="M246.5798,-108.6541C272.6573,-98.4419 307.9815,-84.6086 331.2382,-75.5011"/>
<polygon fill="#191970" stroke="#191970" points="245.1178,-105.4677 237.0826,-112.3733 247.6703,-111.9858 245.1178,-105.4677"/>
</g>
<!-- Node3 -->
<g id="node3" class="node">
<title>Node3</title>
<g id="a_node3"><a xlink:href="_s_b_m_l_converter_registry_8cpp.html" target="_top" xlink:title="SBMLConverterRegistry.cpp">
<polygon fill="#ffffff" stroke="#000000" points="0,-.5 0,-19.5 143,-19.5 143,-.5 0,-.5"/>
<text text-anchor="middle" x="71.5" y="-7.5" font-family="Helvetica,sans-Serif" font-size="10.00" fill="#000000">SBMLConverterRegistry.cpp</text>
</a>
</g>
</g>
<!-- Node2&#45;&gt;Node3 -->
<g id="edge2" class="edge">
<title>Node2&#45;&gt;Node3</title>
<path fill="none" stroke="#191970" d="M71.5,-46.1575C71.5,-37.155 71.5,-26.9199 71.5,-19.6427"/>
<polygon fill="#191970" stroke="#191970" points="68.0001,-46.2455 71.5,-56.2455 75.0001,-46.2456 68.0001,-46.2455"/>
</g>
</g>
</svg>
