<?xml version="1.0" encoding="UTF-8" standalone="no"?>
<!DOCTYPE svg PUBLIC "-//W3C//DTD SVG 1.1//EN"
 "http://www.w3.org/Graphics/SVG/1.1/DTD/svg11.dtd">
<!-- Generated by graphviz version 2.40.1 (20161225.0304)
 -->
<!-- Title: SBMLUri.h Pages: 1 -->
<svg width="424pt" height="84pt"
 viewBox="0.00 0.00 423.50 84.00" xmlns="http://www.w3.org/2000/svg" xmlns:xlink="http://www.w3.org/1999/xlink">
<g id="graph0" class="graph" transform="scale(1 1) rotate(0) translate(4 80)">
<title>SBMLUri.h</title>
<polygon fill="#ffffff" stroke="transparent" points="-4,4 -4,-80 419.5,-80 419.5,4 -4,4"/>
<!-- Node1 -->
<g id="node1" class="node">
<title>Node1</title>
<polygon fill="#bfbfbf" stroke="#000000" points="216.5,-56.5 216.5,-75.5 269.5,-75.5 269.5,-56.5 216.5,-56.5"/>
<text text-anchor="middle" x="243" y="-63.5" font-family="Helvetica,sans-Serif" font-size="10.00" fill="#000000">SBMLUri.h</text>
</g>
<!-- Node2 -->
<g id="node2" class="node">
<title>Node2</title>
<g id="a_node2"><a xlink:href="_comp_s_b_m_l_document_plugin_8cpp.html" target="_top" xlink:title="Implementation of CompSBMLDocumentPlugin, the plugin class of comp package for the SBase element...">
<polygon fill="#ffffff" stroke="#000000" points="0,-.5 0,-19.5 126,-19.5 126,-.5 0,-.5"/>
<text text-anchor="middle" x="63" y="-7.5" font-family="Helvetica,sans-Serif" font-size="10.00" fill="#000000">CompSBMLDocumentPlugin.cpp</text>
</a>
</g>
</g>
<!-- Node1&#45;&gt;Node2 -->
<g id="edge1" class="edge">
<title>Node1&#45;&gt;Node2</title>
<path fill="none" stroke="#191970" d="M206.661,-54.6945C173.4439,-44.3603 124.8654,-29.247 93.5887,-19.5165"/>
<polygon fill="#191970" stroke="#191970" points="205.8521,-58.1083 216.4404,-57.737 207.9316,-51.4243 205.8521,-58.1083"/>
</g>
<!-- Node3 -->
<g id="node3" class="node">
<title>Node3</title>
<g id="a_node3"><a xlink:href="_s_b_m_l_file_resolver_8cpp.html" target="_top" xlink:title="Implementation of SBMLFileResolver, the file system based resolver for SBML Documents. ">
<polygon fill="#ffffff" stroke="#000000" points="144.5,-.5 144.5,-19.5 237.5,-19.5 237.5,-.5 144.5,-.5"/>
<text text-anchor="middle" x="191" y="-7.5" font-family="Helvetica,sans-Serif" font-size="10.00" fill="#000000">SBMLFileResolver.cpp</text>
</a>
</g>
</g>
<!-- Node1&#45;&gt;Node3 -->
<g id="edge2" class="edge">
<title>Node1&#45;&gt;Node3</title>
<path fill="none" stroke="#191970" d="M227.0178,-48.7884C218.1222,-39.2085 207.3796,-27.6396 199.9539,-19.6427"/>
<polygon fill="#191970" stroke="#191970" points="224.573,-51.2992 233.9423,-56.2455 229.7025,-46.536 224.573,-51.2992"/>
</g>
<!-- Node4 -->
<g id="node4" class="node">
<title>Node4</title>
<g id="a_node4"><a xlink:href="_s_b_m_l_resolver_8cpp.html" target="_top" xlink:title="Implementation of SBMLResolver, the base class of package extensions. ">
<polygon fill="#ffffff" stroke="#000000" points="255.5,-.5 255.5,-19.5 336.5,-19.5 336.5,-.5 255.5,-.5"/>
<text text-anchor="middle" x="296" y="-7.5" font-family="Helvetica,sans-Serif" font-size="10.00" fill="#000000">SBMLResolver.cpp</text>
</a>
</g>
</g>
<!-- Node1&#45;&gt;Node4 -->
<g id="edge3" class="edge">
<title>Node1&#45;&gt;Node4</title>
<path fill="none" stroke="#191970" d="M259.2896,-48.7884C268.3562,-39.2085 279.3054,-27.6396 286.8739,-19.6427"/>
<polygon fill="#191970" stroke="#191970" points="256.5637,-46.5767 252.2319,-56.2455 261.6478,-51.3884 256.5637,-46.5767"/>
</g>
<!-- Node5 -->
<g id="node5" class="node">
<title>Node5</title>
<g id="a_node5"><a xlink:href="_s_b_m_l_uri_8cpp.html" target="_top" xlink:title="Implementation of SBMLUri, the utility class for handling uris. ">
<polygon fill="#ffffff" stroke="#000000" points="354.5,-.5 354.5,-19.5 415.5,-19.5 415.5,-.5 354.5,-.5"/>
<text text-anchor="middle" x="385" y="-7.5" font-family="Helvetica,sans-Serif" font-size="10.00" fill="#000000">SBMLUri.cpp</text>
</a>
</g>
</g>
<!-- Node1&#45;&gt;Node5 -->
<g id="edge4" class="edge">
<title>Node1&#45;&gt;Node5</title>
<path fill="none" stroke="#191970" d="M276.8415,-52.6541C302.7366,-42.4419 337.8138,-28.6086 360.9079,-19.5011"/>
<polygon fill="#191970" stroke="#191970" points="275.4293,-49.4486 267.4107,-56.3733 277.9975,-55.9605 275.4293,-49.4486"/>
</g>
</g>
</svg>
