<?xml version="1.0" encoding="UTF-8" standalone="no"?>
<!DOCTYPE svg PUBLIC "-//W3C//DTD SVG 1.1//EN"
 "http://www.w3.org/Graphics/SVG/1.1/DTD/svg11.dtd">
<!-- Generated by graphviz version 2.40.1 (20161225.0304)
 -->
<!-- Title: SBMLDocument.h Pages: 1 -->
<svg width="2727pt" height="856pt"
 viewBox="0.00 0.00 2727.00 856.00" xmlns="http://www.w3.org/2000/svg" xmlns:xlink="http://www.w3.org/1999/xlink">
<g id="graph0" class="graph" transform="scale(1 1) rotate(0) translate(4 852)">
<title>SBMLDocument.h</title>
<polygon fill="#ffffff" stroke="transparent" points="-4,4 -4,-852 2723,-852 2723,4 -4,4"/>
<!-- Node1 -->
<g id="node1" class="node">
<title>Node1</title>
<polygon fill="#bfbfbf" stroke="#000000" points="1035.5,-828.5 1035.5,-847.5 1112.5,-847.5 1112.5,-828.5 1035.5,-828.5"/>
<text text-anchor="middle" x="1074" y="-835.5" font-family="Helvetica,sans-Serif" font-size="10.00" fill="#000000">SBMLDocument.h</text>
</g>
<!-- Node2 -->
<g id="node2" class="node">
<title>Node2</title>
<g id="a_node2"><a xlink:href="extern_8h.html" target="_top" xlink:title="Definitions of LIBSBML_EXTERN and related things. ">
<polygon fill="#ffffff" stroke="#000000" points="1267,-67.5 1267,-86.5 1359,-86.5 1359,-67.5 1267,-67.5"/>
<text text-anchor="middle" x="1313" y="-74.5" font-family="Helvetica,sans-Serif" font-size="10.00" fill="#000000">sbml/common/extern.h</text>
</a>
</g>
</g>
<!-- Node1&#45;&gt;Node2 -->
<g id="edge1" class="edge">
<title>Node1&#45;&gt;Node2</title>
<path fill="none" stroke="#191970" d="M1035.4966,-837.3168C866.6075,-834.1655 195.7472,-819.9779 106,-792 53.0179,-775.4833 0,-781.4969 0,-726 0,-726 0,-726 0,-205.5 0,-162.6249 13.0324,-144.718 50,-123 102.6325,-92.079 1018.3932,-80.1541 1256.6931,-77.5666"/>
<polygon fill="#191970" stroke="#191970" points="1256.9049,-81.0647 1266.8667,-77.4574 1256.8296,-74.0651 1256.9049,-81.0647"/>
</g>
<!-- Node4 -->
<g id="node4" class="node">
<title>Node4</title>
<g id="a_node4"><a xlink:href="sbmlfwd_8h.html" target="_top" xlink:title="Forward declarations for all opaque C types. ">
<polygon fill="#ffffff" stroke="#000000" points="581.5,-263 581.5,-282 680.5,-282 680.5,-263 581.5,-263"/>
<text text-anchor="middle" x="631" y="-270" font-family="Helvetica,sans-Serif" font-size="10.00" fill="#000000">sbml/common/sbmlfwd.h</text>
</a>
</g>
</g>
<!-- Node1&#45;&gt;Node4 -->
<g id="edge3" class="edge">
<title>Node1&#45;&gt;Node4</title>
<path fill="none" stroke="#191970" d="M1035.3527,-837.3904C861.5768,-834.1489 161,-815.5291 161,-726 161,-726 161,-726 161,-446 161,-350.8225 248.9612,-360.1654 337,-324 378.43,-306.981 497.9681,-289.4634 571.2345,-279.881"/>
<polygon fill="#191970" stroke="#191970" points="571.7856,-283.339 581.2527,-278.5825 570.8857,-276.397 571.7856,-283.339"/>
</g>
<!-- Node8 -->
<g id="node8" class="node">
<title>Node8</title>
<g id="a_node8"><a xlink:href="_s_b_m_l_error_8h.html" target="_top" xlink:title="Represents SBML errors and other diagnostics. ">
<polygon fill="#ffffff" stroke="#000000" points="908,-436.5 908,-455.5 986,-455.5 986,-436.5 908,-436.5"/>
<text text-anchor="middle" x="947" y="-443.5" font-family="Helvetica,sans-Serif" font-size="10.00" fill="#000000">sbml/SBMLError.h</text>
</a>
</g>
</g>
<!-- Node1&#45;&gt;Node8 -->
<g id="edge10" class="edge">
<title>Node1&#45;&gt;Node8</title>
<path fill="none" stroke="#191970" d="M1084.9888,-828.3854C1133.3984,-784.9202 1321.0936,-604.0559 1226,-492 1211.3244,-474.7066 1072.4377,-458.4088 996.3252,-450.6816"/>
<polygon fill="#191970" stroke="#191970" points="996.3207,-447.1637 986.0215,-449.6489 995.6226,-454.1288 996.3207,-447.1637"/>
</g>
<!-- Node14 -->
<g id="node14" class="node">
<title>Node14</title>
<polygon fill="#ffffff" stroke="#bfbfbf" points="446,-263 446,-282 484,-282 484,-263 446,-263"/>
<text text-anchor="middle" x="465" y="-270" font-family="Helvetica,sans-Serif" font-size="10.00" fill="#000000">iosfwd</text>
</g>
<!-- Node1&#45;&gt;Node14 -->
<g id="edge147" class="edge">
<title>Node1&#45;&gt;Node14</title>
<path fill="none" stroke="#191970" d="M1035.2435,-837.7132C891.6139,-836.3658 390.0052,-829.0528 235,-792 164.1611,-775.0665 85,-798.8347 85,-726 85,-726 85,-726 85,-446 85,-398.87 128.6002,-405.8629 168,-380 212.2142,-350.9769 223.8061,-343.4214 273,-324 328.8963,-301.9325 397.583,-286.0583 435.7993,-278.1618"/>
<polygon fill="#191970" stroke="#191970" points="436.6291,-281.5649 445.7342,-276.1477 435.2382,-274.7044 436.6291,-281.5649"/>
</g>
<!-- Node23 -->
<g id="node23" class="node">
<title>Node23</title>
<g id="a_node23"><a xlink:href="_s_b_m_l_error_log_8h.html" target="_top" xlink:title="Stores errors (and messages) encountered while processing SBML. ">
<polygon fill="#ffffff" stroke="#000000" points="828,-492.5 828,-511.5 918,-511.5 918,-492.5 828,-492.5"/>
<text text-anchor="middle" x="873" y="-499.5" font-family="Helvetica,sans-Serif" font-size="10.00" fill="#000000">sbml/SBMLErrorLog.h</text>
</a>
</g>
</g>
<!-- Node1&#45;&gt;Node23 -->
<g id="edge40" class="edge">
<title>Node1&#45;&gt;Node23</title>
<path fill="none" stroke="#191970" d="M1074.2065,-828.4986C1074.6932,-807.9544 1076.0962,-757.8721 1079,-716 1084.1679,-641.4793 1127.3462,-600.2899 1074,-548 1053.628,-528.0314 980.7181,-515.0974 928.5819,-508.1785"/>
<polygon fill="#191970" stroke="#191970" points="928.8185,-504.6802 918.4534,-506.8746 927.9246,-511.6229 928.8185,-504.6802"/>
</g>
<!-- Node27 -->
<g id="node27" class="node">
<title>Node27</title>
<g id="a_node27"><a xlink:href="_s_base_8h.html" target="_top" xlink:title="Definition of SBase, the base object of all SBML objects. ">
<polygon fill="#ffffff" stroke="#000000" points="2051.5,-772.5 2051.5,-791.5 2114.5,-791.5 2114.5,-772.5 2051.5,-772.5"/>
<text text-anchor="middle" x="2083" y="-779.5" font-family="Helvetica,sans-Serif" font-size="10.00" fill="#000000">sbml/SBase.h</text>
</a>
</g>
</g>
<!-- Node1&#45;&gt;Node27 -->
<g id="edge53" class="edge">
<title>Node1&#45;&gt;Node27</title>
<path fill="none" stroke="#191970" d="M1112.6283,-835.8561C1271.7968,-827.0222 1876.2058,-793.4772 2041.1805,-784.321"/>
<polygon fill="#191970" stroke="#191970" points="2041.6116,-787.8026 2051.4022,-783.7537 2041.2236,-780.8133 2041.6116,-787.8026"/>
</g>
<!-- Node49 -->
<g id="node49" class="node">
<title>Node49</title>
<g id="a_node49"><a xlink:href="_s_b_m_l_transforms_8h.html" target="_top" xlink:title="sbml/SBMLTransforms.h">
<polygon fill="#ffffff" stroke="#000000" points="2132.5,-772.5 2132.5,-791.5 2231.5,-791.5 2231.5,-772.5 2132.5,-772.5"/>
<text text-anchor="middle" x="2182" y="-779.5" font-family="Helvetica,sans-Serif" font-size="10.00" fill="#000000">sbml/SBMLTransforms.h</text>
</a>
</g>
</g>
<!-- Node1&#45;&gt;Node49 -->
<g id="edge146" class="edge">
<title>Node1&#45;&gt;Node49</title>
<path fill="none" stroke="#191970" d="M1112.5891,-836.967C1274.7051,-832.5276 1902.027,-814.3246 2122.2105,-792.0448"/>
<polygon fill="#191970" stroke="#191970" points="2122.8025,-795.502 2132.3842,-790.9808 2122.0743,-788.54 2122.8025,-795.502"/>
</g>
<!-- Node50 -->
<g id="node50" class="node">
<title>Node50</title>
<polygon fill="#ffffff" stroke="#bfbfbf" points="2249.5,-772.5 2249.5,-791.5 2280.5,-791.5 2280.5,-772.5 2249.5,-772.5"/>
<text text-anchor="middle" x="2265" y="-779.5" font-family="Helvetica,sans-Serif" font-size="10.00" fill="#000000">map</text>
</g>
<!-- Node1&#45;&gt;Node50 -->
<g id="edge148" class="edge">
<title>Node1&#45;&gt;Node50</title>
<path fill="none" stroke="#191970" d="M1112.7655,-837.2875C1297.9005,-833.7779 2088.9706,-817.5372 2239.1951,-791.462"/>
<polygon fill="#191970" stroke="#191970" points="2240.1123,-794.8487 2249.2497,-789.4859 2238.7624,-787.9801 2240.1123,-794.8487"/>
</g>
<!-- Node3 -->
<g id="node3" class="node">
<title>Node3</title>
<g id="a_node3"><a xlink:href="libsbml-namespace_8h.html" target="_top" xlink:title="Defines C++ namespace of libSBML. ">
<polygon fill="#ffffff" stroke="#000000" points="829.5,-.5 829.5,-30.5 918.5,-30.5 918.5,-.5 829.5,-.5"/>
<text text-anchor="start" x="837.5" y="-18.5" font-family="Helvetica,sans-Serif" font-size="10.00" fill="#000000">sbml/common/libsbml</text>
<text text-anchor="middle" x="874" y="-7.5" font-family="Helvetica,sans-Serif" font-size="10.00" fill="#000000">&#45;namespace.h</text>
</a>
</g>
</g>
<!-- Node2&#45;&gt;Node3 -->
<g id="edge2" class="edge">
<title>Node2&#45;&gt;Node3</title>
<path fill="none" stroke="#191970" d="M1266.849,-70.5347C1185.2173,-59.0988 1015.7634,-35.3598 928.5177,-23.1374"/>
<polygon fill="#191970" stroke="#191970" points="928.9406,-19.6626 918.5517,-21.7413 927.9694,-26.5949 928.9406,-19.6626"/>
</g>
<!-- Node4&#45;&gt;Node3 -->
<g id="edge4" class="edge">
<title>Node4&#45;&gt;Node3</title>
<path fill="none" stroke="#191970" d="M640.2292,-262.7391C675.4293,-225.511 801.8175,-91.8412 852.6269,-38.1045"/>
<polygon fill="#191970" stroke="#191970" points="855.2278,-40.448 859.5551,-30.7771 850.1415,-35.6387 855.2278,-40.448"/>
</g>
<!-- Node5 -->
<g id="node5" class="node">
<title>Node5</title>
<g id="a_node5"><a xlink:href="libsbml-config_8h.html" target="_top" xlink:title="Decides whether to #include Unix or Windows configuration variables. ">
<polygon fill="#ffffff" stroke="#000000" points="2294.5,-190.5 2294.5,-220.5 2383.5,-220.5 2383.5,-190.5 2294.5,-190.5"/>
<text text-anchor="start" x="2302.5" y="-208.5" font-family="Helvetica,sans-Serif" font-size="10.00" fill="#000000">sbml/common/libsbml</text>
<text text-anchor="middle" x="2339" y="-197.5" font-family="Helvetica,sans-Serif" font-size="10.00" fill="#000000">&#45;config.h</text>
</a>
</g>
</g>
<!-- Node4&#45;&gt;Node5 -->
<g id="edge5" class="edge">
<title>Node4&#45;&gt;Node5</title>
<path fill="none" stroke="#191970" d="M680.5018,-266.0196C707.4982,-262.7477 741.5317,-259.0471 772,-257 1418.7393,-213.5464 1584.0324,-274.7196 2230,-221 2247.7543,-219.5235 2267.0295,-217.0675 2284.3645,-214.5409"/>
<polygon fill="#191970" stroke="#191970" points="2284.9484,-217.9926 2294.3208,-213.052 2283.9131,-211.0696 2284.9484,-217.9926"/>
</g>
<!-- Node5&#45;&gt;Node3 -->
<g id="edge6" class="edge">
<title>Node5&#45;&gt;Node3</title>
<path fill="none" stroke="#191970" d="M2363.025,-190.3643C2387.4877,-173.152 2419.1648,-144.6363 2399,-123 2347.8281,-68.0939 1196.1811,-26.2792 929.0042,-17.2959"/>
<polygon fill="#191970" stroke="#191970" points="928.8858,-13.79 918.7743,-16.9534 928.6516,-20.7861 928.8858,-13.79"/>
</g>
<!-- Node6 -->
<g id="node6" class="node">
<title>Node6</title>
<g id="a_node6"><a xlink:href="libsbml-config-common_8h.html" target="_top" xlink:title="Configuration variables. ">
<polygon fill="#ffffff" stroke="#000000" points="2300.5,-123.5 2300.5,-153.5 2389.5,-153.5 2389.5,-123.5 2300.5,-123.5"/>
<text text-anchor="start" x="2308.5" y="-141.5" font-family="Helvetica,sans-Serif" font-size="10.00" fill="#000000">sbml/common/libsbml</text>
<text text-anchor="middle" x="2345" y="-130.5" font-family="Helvetica,sans-Serif" font-size="10.00" fill="#000000">&#45;config&#45;common.h</text>
</a>
</g>
</g>
<!-- Node5&#45;&gt;Node6 -->
<g id="edge7" class="edge">
<title>Node5&#45;&gt;Node6</title>
<path fill="none" stroke="#191970" d="M2340.3615,-190.2967C2341.0673,-182.4156 2341.9476,-172.5857 2342.751,-163.6135"/>
<polygon fill="#191970" stroke="#191970" points="2346.2379,-163.9155 2343.6439,-153.6432 2339.2658,-163.2911 2346.2379,-163.9155"/>
</g>
<!-- Node7 -->
<g id="node7" class="node">
<title>Node7</title>
<g id="a_node7"><a xlink:href="libsbml-version_8h.html" target="_top" xlink:title="Define libSBML version numbers for access from client software. ">
<polygon fill="#ffffff" stroke="#000000" points="2193.5,-123.5 2193.5,-153.5 2282.5,-153.5 2282.5,-123.5 2193.5,-123.5"/>
<text text-anchor="start" x="2201.5" y="-141.5" font-family="Helvetica,sans-Serif" font-size="10.00" fill="#000000">sbml/common/libsbml</text>
<text text-anchor="middle" x="2238" y="-130.5" font-family="Helvetica,sans-Serif" font-size="10.00" fill="#000000">&#45;version.h</text>
</a>
</g>
</g>
<!-- Node5&#45;&gt;Node7 -->
<g id="edge8" class="edge">
<title>Node5&#45;&gt;Node7</title>
<path fill="none" stroke="#191970" d="M2316.3336,-190.4639C2302.526,-181.3044 2284.6811,-169.4667 2269.5118,-159.4038"/>
<polygon fill="#191970" stroke="#191970" points="2271.2082,-156.3291 2260.9402,-153.7177 2267.3386,-162.1623 2271.2082,-156.3291"/>
</g>
<!-- Node7&#45;&gt;Node2 -->
<g id="edge9" class="edge">
<title>Node7&#45;&gt;Node2</title>
<path fill="none" stroke="#191970" d="M2193.4245,-125.7678C2188.585,-124.6917 2183.7087,-123.7357 2179,-123 2022.0041,-98.4709 1535.1501,-83.1186 1369.1307,-78.4862"/>
<polygon fill="#191970" stroke="#191970" points="1369.2237,-74.9875 1359.1306,-78.2093 1369.0299,-81.9848 1369.2237,-74.9875"/>
</g>
<!-- Node8&#45;&gt;Node2 -->
<g id="edge11" class="edge">
<title>Node8&#45;&gt;Node2</title>
<path fill="none" stroke="#191970" d="M907.9437,-440.2649C798.0446,-423.2132 490.654,-368.9256 437,-288 400.9447,-233.6182 413.8009,-180.603 498,-123 529.2841,-101.5977 1077.6342,-83.8368 1256.8415,-78.5819"/>
<polygon fill="#191970" stroke="#191970" points="1256.9606,-82.08 1266.8544,-78.29 1256.7566,-75.0829 1256.9606,-82.08"/>
</g>
<!-- Node9 -->
<g id="node9" class="node">
<title>Node9</title>
<g id="a_node9"><a xlink:href="_x_m_l_error_8h.html" target="_top" xlink:title="Represents errors (and messages) encountered during an XML parse. ">
<polygon fill="#ffffff" stroke="#000000" points="899.5,-324.5 899.5,-343.5 986.5,-343.5 986.5,-324.5 899.5,-324.5"/>
<text text-anchor="middle" x="943" y="-331.5" font-family="Helvetica,sans-Serif" font-size="10.00" fill="#000000">sbml/xml/XMLError.h</text>
</a>
</g>
</g>
<!-- Node8&#45;&gt;Node9 -->
<g id="edge12" class="edge">
<title>Node8&#45;&gt;Node9</title>
<path fill="none" stroke="#191970" d="M946.659,-436.4509C946.0066,-418.184 944.5698,-377.9553 943.7035,-353.6976"/>
<polygon fill="#191970" stroke="#191970" points="947.195,-353.3936 943.3402,-343.5249 940.1994,-353.6435 947.195,-353.3936"/>
</g>
<!-- Node17 -->
<g id="node17" class="node">
<title>Node17</title>
<g id="a_node17"><a xlink:href="_s_b_m_l_namespaces_8h.html" target="_top" xlink:title="SBMLNamespaces class to store level/version and namespace. ">
<polygon fill="#ffffff" stroke="#000000" points="2167.5,-380.5 2167.5,-399.5 2272.5,-399.5 2272.5,-380.5 2167.5,-380.5"/>
<text text-anchor="middle" x="2220" y="-387.5" font-family="Helvetica,sans-Serif" font-size="10.00" fill="#000000">sbml/SBMLNamespaces.h</text>
</a>
</g>
</g>
<!-- Node8&#45;&gt;Node17 -->
<g id="edge25" class="edge">
<title>Node8&#45;&gt;Node17</title>
<path fill="none" stroke="#191970" d="M986.0356,-443.5823C1021.294,-441.4401 1074.6109,-438.3037 1121,-436 1515.1884,-416.4243 1989.1907,-398.4752 2157.2211,-392.285"/>
<polygon fill="#191970" stroke="#191970" points="2157.5048,-395.7771 2167.3694,-391.9118 2157.2475,-388.7818 2157.5048,-395.7771"/>
</g>
<!-- Node9&#45;&gt;Node4 -->
<g id="edge16" class="edge">
<title>Node9&#45;&gt;Node4</title>
<path fill="none" stroke="#191970" d="M899.2892,-325.3839C844.4015,-314.5647 750.061,-295.9688 689.1329,-283.9589"/>
<polygon fill="#191970" stroke="#191970" points="689.7687,-280.5169 679.2805,-282.0168 688.4148,-287.3848 689.7687,-280.5169"/>
</g>
<!-- Node10 -->
<g id="node10" class="node">
<title>Node10</title>
<polygon fill="#ffffff" stroke="#bfbfbf" points="2119.5,-196 2119.5,-215 2158.5,-215 2158.5,-196 2119.5,-196"/>
<text text-anchor="middle" x="2139" y="-203" font-family="Helvetica,sans-Serif" font-size="10.00" fill="#000000">stdio.h</text>
</g>
<!-- Node9&#45;&gt;Node10 -->
<g id="edge13" class="edge">
<title>Node9&#45;&gt;Node10</title>
<path fill="none" stroke="#191970" d="M972.611,-324.4213C1026.2608,-307.5248 1143.4052,-272.7284 1245,-257 1417.3961,-230.3106 1974.5826,-210.8372 2109.4176,-206.4392"/>
<polygon fill="#191970" stroke="#191970" points="2109.5453,-209.937 2119.4268,-206.1152 2109.3187,-202.9406 2109.5453,-209.937"/>
</g>
<!-- Node11 -->
<g id="node11" class="node">
<title>Node11</title>
<g id="a_node11"><a xlink:href="_x_m_l_extern_8h.html" target="_top" xlink:title="Defines LIBLAX_EXTERN. ">
<polygon fill="#ffffff" stroke="#000000" points="781,-263 781,-282 873,-282 873,-263 781,-263"/>
<text text-anchor="middle" x="827" y="-270" font-family="Helvetica,sans-Serif" font-size="10.00" fill="#000000">sbml/xml/XMLExtern.h</text>
</a>
</g>
</g>
<!-- Node9&#45;&gt;Node11 -->
<g id="edge14" class="edge">
<title>Node9&#45;&gt;Node11</title>
<path fill="none" stroke="#191970" d="M924.875,-324.3906C905.8917,-314.3262 875.8627,-298.4057 854.0693,-286.8514"/>
<polygon fill="#191970" stroke="#191970" points="855.4723,-283.6338 844.9977,-282.0419 852.1934,-289.8184 855.4723,-283.6338"/>
</g>
<!-- Node12 -->
<g id="node12" class="node">
<title>Node12</title>
<g id="a_node12"><a xlink:href="util_8h.html" target="_top" xlink:title="Utility functions. ">
<polygon fill="#ffffff" stroke="#000000" points="2158,-263 2158,-282 2220,-282 2220,-263 2158,-263"/>
<text text-anchor="middle" x="2189" y="-270" font-family="Helvetica,sans-Serif" font-size="10.00" fill="#000000">sbml/util/util.h</text>
</a>
</g>
</g>
<!-- Node9&#45;&gt;Node12 -->
<g id="edge17" class="edge">
<title>Node9&#45;&gt;Node12</title>
<path fill="none" stroke="#191970" d="M986.5236,-332.2091C1125.0742,-326.4592 1568.3007,-307.6897 1935,-288 2009.9588,-283.9751 2097.3087,-278.4648 2147.5793,-275.214"/>
<polygon fill="#191970" stroke="#191970" points="2147.9734,-278.6959 2157.7259,-274.556 2147.5203,-271.7106 2147.9734,-278.6959"/>
</g>
<!-- Node9&#45;&gt;Node14 -->
<g id="edge21" class="edge">
<title>Node9&#45;&gt;Node14</title>
<path fill="none" stroke="#191970" d="M899.3921,-328.8485C830.167,-320.6099 690.8903,-303.7866 573,-288 546.217,-284.4135 515.7466,-280.011 494.0153,-276.8156"/>
<polygon fill="#191970" stroke="#191970" points="494.5076,-273.3504 484.1037,-275.3528 493.4855,-280.2754 494.5076,-273.3504"/>
</g>
<!-- Node15 -->
<g id="node15" class="node">
<title>Node15</title>
<polygon fill="#ffffff" stroke="#bfbfbf" points="1890.5,-263 1890.5,-282 1925.5,-282 1925.5,-263 1890.5,-263"/>
<text text-anchor="middle" x="1908" y="-270" font-family="Helvetica,sans-Serif" font-size="10.00" fill="#000000">string</text>
</g>
<!-- Node9&#45;&gt;Node15 -->
<g id="edge22" class="edge">
<title>Node9&#45;&gt;Node15</title>
<path fill="none" stroke="#191970" d="M986.7355,-331.3743C1101.0323,-324.4913 1418.0788,-305.2643 1682,-288 1753.4815,-283.3241 1837.6537,-277.4554 1880.2712,-274.4583"/>
<polygon fill="#191970" stroke="#191970" points="1880.6908,-277.9375 1890.4202,-273.7436 1880.199,-270.9548 1880.6908,-277.9375"/>
</g>
<!-- Node16 -->
<g id="node16" class="node">
<title>Node16</title>
<g id="a_node16"><a xlink:href="operation_return_values_8h.html" target="_top" xlink:title="Enumeration of values returned by operations within libSBML. ">
<polygon fill="#ffffff" stroke="#000000" points="1253.5,-257.5 1253.5,-287.5 1372.5,-287.5 1372.5,-257.5 1253.5,-257.5"/>
<text text-anchor="start" x="1261.5" y="-275.5" font-family="Helvetica,sans-Serif" font-size="10.00" fill="#000000">sbml/common/operationReturn</text>
<text text-anchor="middle" x="1313" y="-264.5" font-family="Helvetica,sans-Serif" font-size="10.00" fill="#000000">Values.h</text>
</a>
</g>
</g>
<!-- Node9&#45;&gt;Node16 -->
<g id="edge23" class="edge">
<title>Node9&#45;&gt;Node16</title>
<path fill="none" stroke="#191970" d="M986.6986,-326.4314C991.5234,-325.6059 996.3652,-324.7821 1001,-324 1084.2012,-309.9609 1179.9573,-294.2164 1243.2041,-283.8744"/>
<polygon fill="#191970" stroke="#191970" points="1244.1525,-287.2659 1253.4569,-282.1986 1243.0233,-280.3576 1244.1525,-287.2659"/>
</g>
<!-- Node11&#45;&gt;Node3 -->
<g id="edge15" class="edge">
<title>Node11&#45;&gt;Node3</title>
<path fill="none" stroke="#191970" d="M828.7851,-262.7391C835.4817,-226.1213 859.242,-96.1979 869.3711,-40.811"/>
<polygon fill="#191970" stroke="#191970" points="872.85,-41.2437 871.2061,-30.7771 865.9642,-39.9843 872.85,-41.2437"/>
</g>
<!-- Node12&#45;&gt;Node2 -->
<g id="edge20" class="edge">
<title>Node12&#45;&gt;Node2</title>
<path fill="none" stroke="#191970" d="M2173.8133,-262.9664C2157.9215,-252.8763 2132.36,-236.3233 2111,-221 2053.3549,-179.6464 2051.2784,-148.3033 1985,-123 1928.1984,-101.3147 1520.1836,-84.5043 1369.0863,-78.96"/>
<polygon fill="#191970" stroke="#191970" points="1369.206,-75.4621 1359.0852,-78.5957 1368.9512,-82.4575 1369.206,-75.4621"/>
</g>
<!-- Node12&#45;&gt;Node10 -->
<g id="edge18" class="edge">
<title>Node12&#45;&gt;Node10</title>
<path fill="none" stroke="#191970" d="M2181.8362,-262.9005C2174.1134,-252.552 2161.6524,-235.8542 2152.1563,-223.1295"/>
<polygon fill="#191970" stroke="#191970" points="2154.9364,-221.0027 2146.1505,-215.0817 2149.3264,-225.1893 2154.9364,-221.0027"/>
</g>
<!-- Node13 -->
<g id="node13" class="node">
<title>Node13</title>
<polygon fill="#ffffff" stroke="#bfbfbf" points="2177,-196 2177,-215 2221,-215 2221,-196 2177,-196"/>
<text text-anchor="middle" x="2199" y="-203" font-family="Helvetica,sans-Serif" font-size="10.00" fill="#000000">stdarg.h</text>
</g>
<!-- Node12&#45;&gt;Node13 -->
<g id="edge19" class="edge">
<title>Node12&#45;&gt;Node13</title>
<path fill="none" stroke="#191970" d="M2190.4328,-262.9005C2191.9031,-253.0495 2194.2321,-237.4451 2196.0909,-224.9912"/>
<polygon fill="#191970" stroke="#191970" points="2199.5553,-225.4888 2197.5699,-215.0817 2192.632,-224.4554 2199.5553,-225.4888"/>
</g>
<!-- Node16&#45;&gt;Node2 -->
<g id="edge24" class="edge">
<title>Node16&#45;&gt;Node2</title>
<path fill="none" stroke="#191970" d="M1313,-257.4841C1313,-222.654 1313,-136.3473 1313,-97.0563"/>
<polygon fill="#191970" stroke="#191970" points="1316.5001,-96.8898 1313,-86.8898 1309.5001,-96.8899 1316.5001,-96.8898"/>
</g>
<!-- Node17&#45;&gt;Node15 -->
<g id="edge38" class="edge">
<title>Node17&#45;&gt;Node15</title>
<path fill="none" stroke="#191970" d="M2206.1359,-380.3023C2185.1613,-366.0442 2143.6963,-339.4474 2105,-324 2042.1287,-298.902 2022.1981,-306.2189 1957,-288 1949.9563,-286.0317 1942.3996,-283.7348 1935.3807,-281.5215"/>
<polygon fill="#191970" stroke="#191970" points="1936.1953,-278.1072 1925.6042,-278.3865 1934.0579,-284.7729 1936.1953,-278.1072"/>
</g>
<!-- Node18 -->
<g id="node18" class="node">
<title>Node18</title>
<g id="a_node18"><a xlink:href="_x_m_l_namespaces_8h.html" target="_top" xlink:title="A list of XMLNamespace declarations (URI/prefix pairs) ">
<polygon fill="#ffffff" stroke="#000000" points="1417,-324.5 1417,-343.5 1531,-343.5 1531,-324.5 1417,-324.5"/>
<text text-anchor="middle" x="1474" y="-331.5" font-family="Helvetica,sans-Serif" font-size="10.00" fill="#000000">sbml/xml/XMLNamespaces.h</text>
</a>
</g>
</g>
<!-- Node17&#45;&gt;Node18 -->
<g id="edge26" class="edge">
<title>Node17&#45;&gt;Node18</title>
<path fill="none" stroke="#191970" d="M2167.2455,-386.0399C2034.7785,-376.096 1688.2701,-350.0846 1541.377,-339.0578"/>
<polygon fill="#191970" stroke="#191970" points="1541.3854,-335.5487 1531.1514,-338.2902 1540.8613,-342.529 1541.3854,-335.5487"/>
</g>
<!-- Node20 -->
<g id="node20" class="node">
<title>Node20</title>
<g id="a_node20"><a xlink:href="common_8h.html" target="_top" xlink:title="Common functions and macros for C and C++. ">
<polygon fill="#ffffff" stroke="#000000" points="2411,-324.5 2411,-343.5 2511,-343.5 2511,-324.5 2411,-324.5"/>
<text text-anchor="middle" x="2461" y="-331.5" font-family="Helvetica,sans-Serif" font-size="10.00" fill="#000000">sbml/common/common.h</text>
</a>
</g>
</g>
<!-- Node17&#45;&gt;Node20 -->
<g id="edge32" class="edge">
<title>Node17&#45;&gt;Node20</title>
<path fill="none" stroke="#191970" d="M2261.1555,-380.4369C2302.3142,-370.8731 2365.705,-356.1432 2410.0242,-345.845"/>
<polygon fill="#191970" stroke="#191970" points="2411.0659,-349.1963 2420.0142,-343.5237 2409.4815,-342.3779 2411.0659,-349.1963"/>
</g>
<!-- Node22 -->
<g id="node22" class="node">
<title>Node22</title>
<polygon fill="#ffffff" stroke="#bfbfbf" points="2305.5,-324.5 2305.5,-343.5 2354.5,-343.5 2354.5,-324.5 2305.5,-324.5"/>
<text text-anchor="middle" x="2330" y="-331.5" font-family="Helvetica,sans-Serif" font-size="10.00" fill="#000000">stdexcept</text>
</g>
<!-- Node17&#45;&gt;Node22 -->
<g id="edge39" class="edge">
<title>Node17&#45;&gt;Node22</title>
<path fill="none" stroke="#191970" d="M2239.1605,-380.2455C2256.5111,-371.4125 2282.2901,-358.2887 2301.9583,-348.2758"/>
<polygon fill="#191970" stroke="#191970" points="2303.7353,-351.2986 2311.059,-343.6427 2300.5595,-345.0605 2303.7353,-351.2986"/>
</g>
<!-- Node18&#45;&gt;Node4 -->
<g id="edge28" class="edge">
<title>Node18&#45;&gt;Node4</title>
<path fill="none" stroke="#191970" d="M1416.8941,-330.5842C1272.7629,-321.9105 896.8634,-298.9487 772,-288 745.2634,-285.6556 715.7369,-282.4981 690.6416,-279.6448"/>
<polygon fill="#191970" stroke="#191970" points="690.874,-276.1485 680.5402,-278.4856 690.0759,-283.1029 690.874,-276.1485"/>
</g>
<!-- Node18&#45;&gt;Node11 -->
<g id="edge27" class="edge">
<title>Node18&#45;&gt;Node11</title>
<path fill="none" stroke="#191970" d="M1416.8669,-328.5693C1293.9887,-316.8892 1005.8402,-289.4995 883.5168,-277.8722"/>
<polygon fill="#191970" stroke="#191970" points="883.5384,-274.3585 873.252,-276.8964 882.8759,-281.3271 883.5384,-274.3585"/>
</g>
<!-- Node18&#45;&gt;Node15 -->
<g id="edge30" class="edge">
<title>Node18&#45;&gt;Node15</title>
<path fill="none" stroke="#191970" d="M1531.1842,-325.8967C1625.352,-312.5527 1809.6197,-286.441 1879.8745,-276.4855"/>
<polygon fill="#191970" stroke="#191970" points="1880.7298,-279.8994 1890.1398,-275.0309 1879.7476,-272.9686 1880.7298,-279.8994"/>
</g>
<!-- Node18&#45;&gt;Node16 -->
<g id="edge29" class="edge">
<title>Node18&#45;&gt;Node16</title>
<path fill="none" stroke="#191970" d="M1448.8438,-324.3906C1425.6421,-315.5279 1390.5521,-302.1239 1361.8482,-291.1594"/>
<polygon fill="#191970" stroke="#191970" points="1362.9757,-287.8435 1352.385,-287.5446 1360.4777,-294.3826 1362.9757,-287.8435"/>
</g>
<!-- Node19 -->
<g id="node19" class="node">
<title>Node19</title>
<polygon fill="#ffffff" stroke="#bfbfbf" points="1635.5,-263 1635.5,-282 1672.5,-282 1672.5,-263 1635.5,-263"/>
<text text-anchor="middle" x="1654" y="-270" font-family="Helvetica,sans-Serif" font-size="10.00" fill="#000000">vector</text>
</g>
<!-- Node18&#45;&gt;Node19 -->
<g id="edge31" class="edge">
<title>Node18&#45;&gt;Node19</title>
<path fill="none" stroke="#191970" d="M1502.125,-324.3906C1535.8173,-312.8791 1591.9328,-293.7063 1625.7018,-282.1686"/>
<polygon fill="#191970" stroke="#191970" points="1627.0835,-285.3952 1635.4148,-278.8499 1624.8203,-278.7711 1627.0835,-285.3952"/>
</g>
<!-- Node20&#45;&gt;Node2 -->
<g id="edge35" class="edge">
<title>Node20&#45;&gt;Node2</title>
<path fill="none" stroke="#191970" d="M2461.7328,-324.2671C2463.7273,-289.7759 2465.2284,-172.782 2399,-123 2357.5361,-91.8327 1586.0054,-80.2686 1369.2263,-77.6269"/>
<polygon fill="#191970" stroke="#191970" points="1369.0691,-74.1249 1359.0277,-77.5043 1368.9848,-81.1244 1369.0691,-74.1249"/>
</g>
<!-- Node20&#45;&gt;Node5 -->
<g id="edge33" class="edge">
<title>Node20&#45;&gt;Node5</title>
<path fill="none" stroke="#191970" d="M2410.7718,-325.9746C2387.6937,-319.6153 2362.1432,-308.2556 2347,-288 2334.8697,-271.7745 2333.6616,-248.4451 2335.0313,-230.7319"/>
<polygon fill="#191970" stroke="#191970" points="2338.5377,-230.863 2336.1427,-220.5425 2331.579,-230.104 2338.5377,-230.863"/>
</g>
<!-- Node20&#45;&gt;Node10 -->
<g id="edge34" class="edge">
<title>Node20&#45;&gt;Node10</title>
<path fill="none" stroke="#191970" d="M2432.1425,-324.4306C2378.9341,-306.446 2262.196,-265.3941 2168,-221 2167.1641,-220.606 2166.3179,-220.1999 2165.4662,-219.7848"/>
<polygon fill="#191970" stroke="#191970" points="2166.8361,-216.5547 2156.3371,-215.1325 2163.6577,-222.7915 2166.8361,-216.5547"/>
</g>
<!-- Node20&#45;&gt;Node12 -->
<g id="edge37" class="edge">
<title>Node20&#45;&gt;Node12</title>
<path fill="none" stroke="#191970" d="M2418.7984,-324.4581C2367.4254,-312.8425 2281.2369,-293.355 2230.2831,-281.8342"/>
<polygon fill="#191970" stroke="#191970" points="2230.8022,-278.3633 2220.2765,-279.5717 2229.2584,-285.191 2230.8022,-278.3633"/>
</g>
<!-- Node21 -->
<g id="node21" class="node">
<title>Node21</title>
<g id="a_node21"><a xlink:href="memory_8h.html" target="_top" xlink:title="sbml/util/memory.h">
<polygon fill="#ffffff" stroke="#000000" points="2355.5,-263 2355.5,-282 2434.5,-282 2434.5,-263 2355.5,-263"/>
<text text-anchor="middle" x="2395" y="-270" font-family="Helvetica,sans-Serif" font-size="10.00" fill="#000000">sbml/util/memory.h</text>
</a>
</g>
</g>
<!-- Node20&#45;&gt;Node21 -->
<g id="edge36" class="edge">
<title>Node20&#45;&gt;Node21</title>
<path fill="none" stroke="#191970" d="M2450.6875,-324.3906C2440.5758,-314.9683 2424.9558,-300.4134 2412.8293,-289.1137"/>
<polygon fill="#191970" stroke="#191970" points="2415.1601,-286.5015 2405.4579,-282.2449 2410.388,-291.6228 2415.1601,-286.5015"/>
</g>
<!-- Node23&#45;&gt;Node2 -->
<g id="edge41" class="edge">
<title>Node23&#45;&gt;Node2</title>
<path fill="none" stroke="#191970" d="M827.8759,-493.9081C693.2953,-468.5048 304,-385.2752 304,-272.5 304,-272.5 304,-272.5 304,-205.5 304,-129.0255 381.4366,-143.899 455,-123 531.6328,-101.229 1077.8065,-83.7615 1256.5426,-78.5747"/>
<polygon fill="#191970" stroke="#191970" points="1256.8851,-82.0663 1266.78,-78.2794 1256.6832,-75.0693 1256.8851,-82.0663"/>
</g>
<!-- Node23&#45;&gt;Node8 -->
<g id="edge51" class="edge">
<title>Node23&#45;&gt;Node8</title>
<path fill="none" stroke="#191970" d="M885.8898,-492.2455C896.9254,-483.8943 913.0292,-471.7076 925.9353,-461.9408"/>
<polygon fill="#191970" stroke="#191970" points="928.3959,-464.4681 934.2579,-455.6427 924.1717,-458.8862 928.3959,-464.4681"/>
</g>
<!-- Node23&#45;&gt;Node9 -->
<g id="edge42" class="edge">
<title>Node23&#45;&gt;Node9</title>
<path fill="none" stroke="#191970" d="M876.7785,-492.1206C881.7535,-479.1807 890.828,-455.8093 899,-436 911.025,-406.8508 925.6376,-373.3292 934.6275,-352.9102"/>
<polygon fill="#191970" stroke="#191970" points="937.9365,-354.0811 938.7727,-343.5193 931.5326,-351.2544 937.9365,-354.0811"/>
</g>
<!-- Node23&#45;&gt;Node19 -->
<g id="edge52" class="edge">
<title>Node23&#45;&gt;Node19</title>
<path fill="none" stroke="#191970" d="M918.1143,-497.145C988.6369,-489.4027 1129.2273,-473.353 1248,-456 1266.4001,-453.3117 1562.6597,-410.5102 1578,-400 1616.6434,-373.524 1638.7268,-320.3625 1648.2839,-291.7616"/>
<polygon fill="#191970" stroke="#191970" points="1651.6581,-292.6996 1651.3418,-282.1094 1644.985,-290.5854 1651.6581,-292.6996"/>
</g>
<!-- Node24 -->
<g id="node24" class="node">
<title>Node24</title>
<g id="a_node24"><a xlink:href="_x_m_l_error_log_8h.html" target="_top" xlink:title="Stores errors (and messages) encountered while processing XML. ">
<polygon fill="#ffffff" stroke="#000000" points="743.5,-380.5 743.5,-399.5 842.5,-399.5 842.5,-380.5 743.5,-380.5"/>
<text text-anchor="middle" x="793" y="-387.5" font-family="Helvetica,sans-Serif" font-size="10.00" fill="#000000">sbml/xml/XMLErrorLog.h</text>
</a>
</g>
</g>
<!-- Node23&#45;&gt;Node24 -->
<g id="edge43" class="edge">
<title>Node23&#45;&gt;Node24</title>
<path fill="none" stroke="#191970" d="M839.1035,-492.4632C821.1299,-485.4893 800.6198,-474.0275 790,-456 781.823,-442.1193 783.5215,-423.603 786.7207,-409.7159"/>
<polygon fill="#191970" stroke="#191970" points="790.1847,-410.3175 789.4481,-399.7483 783.4329,-408.47 790.1847,-410.3175"/>
</g>
<!-- Node24&#45;&gt;Node4 -->
<g id="edge46" class="edge">
<title>Node24&#45;&gt;Node4</title>
<path fill="none" stroke="#191970" d="M801.2597,-380.1042C811.7223,-366.3053 826.9229,-341.0617 814,-324 798.9769,-304.1656 738.1707,-289.8304 690.7221,-281.3969"/>
<polygon fill="#191970" stroke="#191970" points="691.2709,-277.9399 680.8211,-279.687 690.0795,-284.8378 691.2709,-277.9399"/>
</g>
<!-- Node24&#45;&gt;Node9 -->
<g id="edge45" class="edge">
<title>Node24&#45;&gt;Node9</title>
<path fill="none" stroke="#191970" d="M818.7859,-380.3733C843.4047,-371.1822 880.69,-357.2624 907.9875,-347.0713"/>
<polygon fill="#191970" stroke="#191970" points="909.4063,-350.2777 917.5506,-343.5011 906.958,-343.7198 909.4063,-350.2777"/>
</g>
<!-- Node24&#45;&gt;Node11 -->
<g id="edge44" class="edge">
<title>Node24&#45;&gt;Node11</title>
<path fill="none" stroke="#191970" d="M759.1255,-380.4333C727.2111,-369.6031 686.6831,-350.0242 704,-324 719.0582,-301.3703 746.1777,-288.6653 771.127,-281.5414"/>
<polygon fill="#191970" stroke="#191970" points="772.1212,-284.8993 780.9146,-278.9894 770.355,-278.1258 772.1212,-284.8993"/>
</g>
<!-- Node24&#45;&gt;Node15 -->
<g id="edge48" class="edge">
<title>Node24&#45;&gt;Node15</title>
<path fill="none" stroke="#191970" d="M842.5619,-388.0526C990.9262,-382.0682 1430.0219,-363.1869 1572,-344 1602.7008,-339.8511 1804.9115,-295.3351 1879.9969,-278.7128"/>
<polygon fill="#191970" stroke="#191970" points="1881.1108,-282.0509 1890.1171,-276.4708 1879.5967,-275.2166 1881.1108,-282.0509"/>
</g>
<!-- Node24&#45;&gt;Node19 -->
<g id="edge49" class="edge">
<title>Node24&#45;&gt;Node19</title>
<path fill="none" stroke="#191970" d="M842.7437,-388.362C999.0723,-383.0165 1474.0103,-365.1993 1540,-344 1559.2843,-337.8049 1604.7463,-307.1989 1632.0763,-288.0931"/>
<polygon fill="#191970" stroke="#191970" points="1634.4208,-290.7231 1640.5856,-282.1065 1630.393,-284.998 1634.4208,-290.7231"/>
</g>
<!-- Node25 -->
<g id="node25" class="node">
<title>Node25</title>
<polygon fill="#ffffff" stroke="#bfbfbf" points="712.5,-324.5 712.5,-343.5 757.5,-343.5 757.5,-324.5 712.5,-324.5"/>
<text text-anchor="middle" x="735" y="-331.5" font-family="Helvetica,sans-Serif" font-size="10.00" fill="#000000">iostream</text>
</g>
<!-- Node24&#45;&gt;Node25 -->
<g id="edge47" class="edge">
<title>Node24&#45;&gt;Node25</title>
<path fill="none" stroke="#191970" d="M782.8972,-380.2455C774.4972,-372.1352 762.3506,-360.4075 752.3916,-350.7919"/>
<polygon fill="#191970" stroke="#191970" points="754.6122,-348.0707 744.9871,-343.6427 749.75,-353.1066 754.6122,-348.0707"/>
</g>
<!-- Node26 -->
<g id="node26" class="node">
<title>Node26</title>
<polygon fill="#ffffff" stroke="#bfbfbf" points="775.5,-324.5 775.5,-343.5 804.5,-343.5 804.5,-324.5 775.5,-324.5"/>
<text text-anchor="middle" x="790" y="-331.5" font-family="Helvetica,sans-Serif" font-size="10.00" fill="#000000">list</text>
</g>
<!-- Node24&#45;&gt;Node26 -->
<g id="edge50" class="edge">
<title>Node24&#45;&gt;Node26</title>
<path fill="none" stroke="#191970" d="M792.4774,-380.2455C792.086,-372.9382 791.5372,-362.6944 791.0556,-353.7046"/>
<polygon fill="#191970" stroke="#191970" points="794.5466,-353.4411 790.5166,-343.6427 787.5566,-353.8156 794.5466,-353.4411"/>
</g>
<!-- Node27&#45;&gt;Node2 -->
<g id="edge54" class="edge">
<title>Node27&#45;&gt;Node2</title>
<path fill="none" stroke="#191970" d="M2114.677,-773.7107C2117.8128,-773.0599 2120.9593,-772.473 2124,-772 2238.0177,-754.265 2535.2323,-779.7634 2642,-736 2683.7057,-718.9051 2719,-715.0733 2719,-670 2719,-670 2719,-670 2719,-205.5 2719,-133.6603 2648.9222,-143.265 2580,-123 2463.0141,-88.603 1599.2326,-79.288 1369.1656,-77.4054"/>
<polygon fill="#191970" stroke="#191970" points="1369.0395,-73.9044 1359.0117,-77.3238 1368.9832,-80.9042 1369.0395,-73.9044"/>
</g>
<!-- Node27&#45;&gt;Node4 -->
<g id="edge55" class="edge">
<title>Node27&#45;&gt;Node4</title>
<path fill="none" stroke="#191970" d="M2051.4639,-781.4738C1939.1752,-779.3517 1548.4219,-769.8371 1228,-736 910.7455,-702.4974 831.1003,-690.0777 519,-624 424.4999,-603.9925 374.3786,-639.107 309,-568 233.1941,-485.552 274.2163,-378.6127 372,-324 405.4342,-305.3268 505.5315,-289.0931 571.0461,-280.0672"/>
<polygon fill="#191970" stroke="#191970" points="571.8106,-283.4956 581.2484,-278.6812 570.8682,-276.5593 571.8106,-283.4956"/>
</g>
<!-- Node27&#45;&gt;Node9 -->
<g id="edge142" class="edge">
<title>Node27&#45;&gt;Node9</title>
<path fill="none" stroke="#191970" d="M2051.1965,-779.9139C1959.9677,-773.7651 1698.6022,-754.9526 1615,-736 1531.0859,-716.9767 1433,-756.0433 1433,-670 1433,-670 1433,-670 1433,-502 1433,-455.9219 1118.9414,-375.9454 993.6852,-345.8807"/>
<polygon fill="#191970" stroke="#191970" points="994.4741,-342.4707 983.9343,-343.5496 992.8464,-349.2789 994.4741,-342.4707"/>
</g>
<!-- Node27&#45;&gt;Node15 -->
<g id="edge143" class="edge">
<title>Node27&#45;&gt;Node15</title>
<path fill="none" stroke="#191970" d="M2083,-772.4116C2083,-753.0538 2083,-707.9167 2083,-670 2083,-670 2083,-670 2083,-446 2083,-363.748 1984.301,-307.1847 1935.148,-284.1156"/>
<polygon fill="#191970" stroke="#191970" points="1936.2939,-280.7915 1925.743,-279.8272 1933.3896,-287.1606 1936.2939,-280.7915"/>
</g>
<!-- Node27&#45;&gt;Node17 -->
<g id="edge123" class="edge">
<title>Node27&#45;&gt;Node17</title>
<path fill="none" stroke="#191970" d="M2103.7097,-772.4735C2119.0238,-764.5486 2139.4825,-751.993 2153,-736 2173.6826,-711.5297 2182,-702.0401 2182,-670 2182,-670 2182,-670 2182,-502 2182,-467.6118 2198.2634,-430.2832 2209.511,-408.5791"/>
<polygon fill="#191970" stroke="#191970" points="2212.7317,-409.9804 2214.393,-399.5166 2206.569,-406.6605 2212.7317,-409.9804"/>
</g>
<!-- Node27&#45;&gt;Node22 -->
<g id="edge144" class="edge">
<title>Node27&#45;&gt;Node22</title>
<path fill="none" stroke="#191970" d="M2114.7425,-773.3846C2190.7644,-752.3039 2377,-697.822 2377,-670 2377,-670 2377,-670 2377,-446 2377,-410.5481 2356.7296,-373.3564 2342.8129,-351.9999"/>
<polygon fill="#191970" stroke="#191970" points="2345.6421,-349.9356 2337.1383,-343.6161 2339.8451,-353.8593 2345.6421,-349.9356"/>
</g>
<!-- Node28 -->
<g id="node28" class="node">
<title>Node28</title>
<g id="a_node28"><a xlink:href="_s_b_m_l_type_codes_8h.html" target="_top" xlink:title="Enumeration to identify SBML objects at runtime. ">
<polygon fill="#ffffff" stroke="#000000" points="2567.5,-263 2567.5,-282 2666.5,-282 2666.5,-263 2567.5,-263"/>
<text text-anchor="middle" x="2617" y="-270" font-family="Helvetica,sans-Serif" font-size="10.00" fill="#000000">sbml/SBMLTypeCodes.h</text>
</a>
</g>
</g>
<!-- Node27&#45;&gt;Node28 -->
<g id="edge56" class="edge">
<title>Node27&#45;&gt;Node28</title>
<path fill="none" stroke="#191970" d="M2114.6798,-773.7281C2117.815,-773.0738 2120.9606,-772.4813 2124,-772 2229.6499,-755.2704 2505.137,-776.8397 2604,-736 2645.6588,-718.791 2681,-715.0733 2681,-670 2681,-670 2681,-670 2681,-390 2681,-359.4754 2676.6134,-350.7993 2662,-324 2654.9835,-311.1325 2644.2711,-298.7004 2635.0583,-289.2754"/>
<polygon fill="#191970" stroke="#191970" points="2637.3697,-286.6396 2627.7863,-282.1221 2632.4609,-291.6299 2637.3697,-286.6396"/>
</g>
<!-- Node29 -->
<g id="node29" class="node">
<title>Node29</title>
<g id="a_node29"><a xlink:href="_r_d_f_annotation_8h.html" target="_top" xlink:title="RDFAnnotation I/O. ">
<polygon fill="#ffffff" stroke="#000000" points="1623.5,-716.5 1623.5,-735.5 1752.5,-735.5 1752.5,-716.5 1623.5,-716.5"/>
<text text-anchor="middle" x="1688" y="-723.5" font-family="Helvetica,sans-Serif" font-size="10.00" fill="#000000">sbml/annotation/RDFAnnotation.h</text>
</a>
</g>
</g>
<!-- Node27&#45;&gt;Node29 -->
<g id="edge59" class="edge">
<title>Node27&#45;&gt;Node29</title>
<path fill="none" stroke="#191970" d="M2051.3432,-777.5119C1989.1806,-768.699 1849.6616,-748.9191 1762.7317,-736.5949"/>
<polygon fill="#191970" stroke="#191970" points="1763.0537,-733.1056 1752.6614,-735.1672 1762.0711,-740.0363 1763.0537,-733.1056"/>
</g>
<!-- Node34 -->
<g id="node34" class="node">
<title>Node34</title>
<g id="a_node34"><a xlink:href="_list_8h.html" target="_top" xlink:title="Simple, generic list utility class. ">
<polygon fill="#ffffff" stroke="#000000" points="395,-492.5 395,-511.5 459,-511.5 459,-492.5 395,-492.5"/>
<text text-anchor="middle" x="427" y="-499.5" font-family="Helvetica,sans-Serif" font-size="10.00" fill="#000000">sbml/util/List.h</text>
</a>
</g>
</g>
<!-- Node27&#45;&gt;Node34 -->
<g id="edge122" class="edge">
<title>Node27&#45;&gt;Node34</title>
<path fill="none" stroke="#191970" d="M2051.082,-781.5287C1922.4455,-779.4153 1441.8938,-769.403 1294,-736 1206.4914,-716.2355 1192.59,-686.884 1107,-660 1037.8744,-638.2875 1018.6073,-640.2599 948,-624 769.9197,-582.9905 557.8929,-532.9705 469.2355,-512.0012"/>
<polygon fill="#191970" stroke="#191970" points="469.8317,-508.5457 459.2946,-509.6494 468.2201,-515.3577 469.8317,-508.5457"/>
</g>
<!-- Node36 -->
<g id="node36" class="node">
<title>Node36</title>
<g id="a_node36"><a xlink:href="_x_m_l_node_8h.html" target="_top" xlink:title="Class definition of XMLNode, a node in an XML document tree. ">
<polygon fill="#ffffff" stroke="#000000" points="1129,-492.5 1129,-511.5 1217,-511.5 1217,-492.5 1129,-492.5"/>
<text text-anchor="middle" x="1173" y="-499.5" font-family="Helvetica,sans-Serif" font-size="10.00" fill="#000000">sbml/xml/XMLNode.h</text>
</a>
</g>
</g>
<!-- Node27&#45;&gt;Node36 -->
<g id="edge141" class="edge">
<title>Node27&#45;&gt;Node36</title>
<path fill="none" stroke="#191970" d="M2051.3052,-781.3516C1894.2564,-777.7296 1207,-756.914 1207,-670 1207,-670 1207,-670 1207,-614 1207,-579.9677 1192.4485,-542.5293 1182.3849,-520.7067"/>
<polygon fill="#191970" stroke="#191970" points="1185.4939,-519.0954 1178.0168,-511.5891 1179.181,-522.1198 1185.4939,-519.0954"/>
</g>
<!-- Node44 -->
<g id="node44" class="node">
<title>Node44</title>
<g id="a_node44"><a xlink:href="_c_v_term_8h.html" target="_top" xlink:title="Definition of a CVTerm class for adding annotations to a Model. ">
<polygon fill="#ffffff" stroke="#000000" points="1656,-492.5 1656,-511.5 1762,-511.5 1762,-492.5 1656,-492.5"/>
<text text-anchor="middle" x="1709" y="-499.5" font-family="Helvetica,sans-Serif" font-size="10.00" fill="#000000">sbml/annotation/CVTerm.h</text>
</a>
</g>
</g>
<!-- Node27&#45;&gt;Node44 -->
<g id="edge112" class="edge">
<title>Node27&#45;&gt;Node44</title>
<path fill="none" stroke="#191970" d="M2070.1261,-772.3618C2015.055,-731.1321 1798.9802,-569.3649 1730.1697,-517.8489"/>
<polygon fill="#191970" stroke="#191970" points="1731.9225,-514.7891 1721.8198,-511.5977 1727.7273,-520.3927 1731.9225,-514.7891"/>
</g>
<!-- Node45 -->
<g id="node45" class="node">
<title>Node45</title>
<g id="a_node45"><a xlink:href="_syntax_checker_8h.html" target="_top" xlink:title="Syntax checking functions. ">
<polygon fill="#ffffff" stroke="#000000" points="2157,-324.5 2157,-343.5 2249,-343.5 2249,-324.5 2157,-324.5"/>
<text text-anchor="middle" x="2203" y="-331.5" font-family="Helvetica,sans-Serif" font-size="10.00" fill="#000000">sbml/SyntaxChecker.h</text>
</a>
</g>
</g>
<!-- Node27&#45;&gt;Node45 -->
<g id="edge124" class="edge">
<title>Node27&#45;&gt;Node45</title>
<path fill="none" stroke="#191970" d="M2084.9948,-772.3839C2094.2864,-753.6891 2121,-710.6982 2121,-670 2121,-670 2121,-670 2121,-446 2121,-406.552 2153.1767,-370.1169 2177.4389,-350.0818"/>
<polygon fill="#191970" stroke="#191970" points="2179.8896,-352.6093 2185.625,-343.7011 2175.5862,-347.0883 2179.8896,-352.6093"/>
</g>
<!-- Node46 -->
<g id="node46" class="node">
<title>Node46</title>
<g id="a_node46"><a xlink:href="_s_b_m_l_constructor_exception_8h.html" target="_top" xlink:title="Definition of SBMLConstructorException, the exception class for constructor exceptions. ">
<polygon fill="#ffffff" stroke="#000000" points="2215.5,-436.5 2215.5,-455.5 2348.5,-455.5 2348.5,-436.5 2215.5,-436.5"/>
<text text-anchor="middle" x="2282" y="-443.5" font-family="Helvetica,sans-Serif" font-size="10.00" fill="#000000">sbml/SBMLConstructorException.h</text>
</a>
</g>
</g>
<!-- Node27&#45;&gt;Node46 -->
<g id="edge129" class="edge">
<title>Node27&#45;&gt;Node46</title>
<path fill="none" stroke="#191970" d="M2114.6888,-773.4409C2138.4973,-766.0227 2171.1442,-753.6777 2196,-736 2227.8229,-713.3672 2254,-709.0505 2254,-670 2254,-670 2254,-670 2254,-558 2254,-524.5848 2265.8754,-487.1911 2274.1585,-465.1729"/>
<polygon fill="#191970" stroke="#191970" points="2277.4868,-466.2719 2277.8685,-455.6839 2270.9674,-463.7229 2277.4868,-466.2719"/>
</g>
<!-- Node47 -->
<g id="node47" class="node">
<title>Node47</title>
<polygon fill="#ffffff" stroke="#bfbfbf" points="2605.5,-324.5 2605.5,-343.5 2652.5,-343.5 2652.5,-324.5 2605.5,-324.5"/>
<text text-anchor="middle" x="2629" y="-331.5" font-family="Helvetica,sans-Serif" font-size="10.00" fill="#000000">algorithm</text>
</g>
<!-- Node27&#45;&gt;Node47 -->
<g id="edge145" class="edge">
<title>Node27&#45;&gt;Node47</title>
<path fill="none" stroke="#191970" d="M2114.7052,-773.8775C2117.8353,-773.1929 2120.9728,-772.5525 2124,-772 2239.6293,-750.8948 2643,-787.5396 2643,-670 2643,-670 2643,-670 2643,-446 2643,-413.311 2637.0554,-375.6669 2632.9134,-353.4058"/>
<polygon fill="#191970" stroke="#191970" points="2636.3403,-352.692 2631.0059,-343.5381 2629.4676,-354.0207 2636.3403,-352.692"/>
</g>
<!-- Node48 -->
<g id="node48" class="node">
<title>Node48</title>
<g id="a_node48"><a xlink:href="_expected_attributes_8h.html" target="_top" xlink:title="Definition of ExpectedAttributes, the class allowing the specification of attributes to expect...">
<polygon fill="#ffffff" stroke="#000000" points="2405,-380.5 2405,-399.5 2509,-399.5 2509,-380.5 2405,-380.5"/>
<text text-anchor="middle" x="2457" y="-387.5" font-family="Helvetica,sans-Serif" font-size="10.00" fill="#000000">sbml/ExpectedAttributes.h</text>
</a>
</g>
</g>
<!-- Node27&#45;&gt;Node48 -->
<g id="edge135" class="edge">
<title>Node27&#45;&gt;Node48</title>
<path fill="none" stroke="#191970" d="M2114.7124,-773.9161C2117.841,-773.2237 2120.9762,-772.571 2124,-772 2241.6612,-749.7826 2289.1191,-798.9132 2391,-736 2421.2074,-717.3464 2436,-705.5027 2436,-670 2436,-670 2436,-670 2436,-502 2436,-469.1675 2444.8257,-431.834 2451.034,-409.634"/>
<polygon fill="#191970" stroke="#191970" points="2454.4701,-410.3521 2453.9014,-399.7725 2447.7485,-408.3977 2454.4701,-410.3521"/>
</g>
<!-- Node28&#45;&gt;Node2 -->
<g id="edge58" class="edge">
<title>Node28&#45;&gt;Node2</title>
<path fill="none" stroke="#191970" d="M2616.2393,-262.6103C2613.5188,-234.9089 2601.6443,-156.4005 2553,-123 2503.6471,-89.113 1604.8267,-79.391 1369.1784,-77.4195"/>
<polygon fill="#191970" stroke="#191970" points="1369.142,-73.9192 1359.1135,-77.3366 1369.0843,-80.9189 1369.142,-73.9192"/>
</g>
<!-- Node28&#45;&gt;Node5 -->
<g id="edge57" class="edge">
<title>Node28&#45;&gt;Node5</title>
<path fill="none" stroke="#191970" d="M2577.4646,-262.9717C2529.3425,-251.3739 2447.8199,-231.7264 2393.6982,-218.6827"/>
<polygon fill="#191970" stroke="#191970" points="2394.4673,-215.2679 2383.9255,-216.3274 2392.8271,-222.073 2394.4673,-215.2679"/>
</g>
<!-- Node30 -->
<g id="node30" class="node">
<title>Node30</title>
<g id="a_node30"><a xlink:href="_r_d_f_annotation_parser_8h.html" target="_top" xlink:title="RDFAnnotationParser.h">
<polygon fill="#ffffff" stroke="#000000" points="1518,-660.5 1518,-679.5 1614,-679.5 1614,-660.5 1518,-660.5"/>
<text text-anchor="middle" x="1566" y="-667.5" font-family="Helvetica,sans-Serif" font-size="10.00" fill="#000000">RDFAnnotationParser.h</text>
</a>
</g>
</g>
<!-- Node29&#45;&gt;Node30 -->
<g id="edge60" class="edge">
<title>Node29&#45;&gt;Node30</title>
<path fill="none" stroke="#191970" d="M1667.0275,-716.3733C1647.4433,-707.3838 1618.0039,-693.8706 1595.949,-683.7471"/>
<polygon fill="#191970" stroke="#191970" points="1597.2473,-680.4919 1586.6989,-679.5011 1594.3271,-686.8538 1597.2473,-680.4919"/>
</g>
<!-- Node30&#45;&gt;Node2 -->
<g id="edge61" class="edge">
<title>Node30&#45;&gt;Node2</title>
<path fill="none" stroke="#191970" d="M1517.7409,-669.7856C1338.8789,-668.6953 714.0755,-662.1775 519,-624 259.1534,-573.1464 38,-537.276 38,-272.5 38,-272.5 38,-272.5 38,-205.5 38,-160.4217 57.3088,-144.3696 97,-123 148.5821,-95.2283 1023.9011,-81.0456 1256.5803,-77.7551"/>
<polygon fill="#191970" stroke="#191970" points="1256.8981,-81.2511 1266.848,-77.6111 1256.7999,-74.2518 1256.8981,-81.2511"/>
</g>
<!-- Node30&#45;&gt;Node4 -->
<g id="edge62" class="edge">
<title>Node30&#45;&gt;Node4</title>
<path fill="none" stroke="#191970" d="M1517.6487,-668.2597C1287.3762,-659.6601 313,-619.6303 313,-558 313,-558 313,-558 313,-446 313,-329.6125 479.182,-290.8297 571.28,-278.2729"/>
<polygon fill="#191970" stroke="#191970" points="571.8472,-281.7287 581.3125,-276.9686 570.9447,-274.7872 571.8472,-281.7287"/>
</g>
<!-- Node30&#45;&gt;Node15 -->
<g id="edge109" class="edge">
<title>Node30&#45;&gt;Node15</title>
<path fill="none" stroke="#191970" d="M1614.1215,-668.9036C1735.5893,-664.8377 2045,-645.8581 2045,-558 2045,-558 2045,-558 2045,-502 2045,-410.974 1964.5586,-324.6942 1926.9548,-289.3341"/>
<polygon fill="#191970" stroke="#191970" points="1928.9388,-286.4032 1919.2113,-282.2049 1924.1976,-291.5531 1928.9388,-286.4032"/>
</g>
<!-- Node31 -->
<g id="node31" class="node">
<title>Node31</title>
<g id="a_node31"><a xlink:href="_x_m_l_attributes_8h.html" target="_top" xlink:title="XMLAttributes are a list of name/value pairs for XML elements. ">
<polygon fill="#ffffff" stroke="#000000" points="1467,-380.5 1467,-399.5 1569,-399.5 1569,-380.5 1467,-380.5"/>
<text text-anchor="middle" x="1518" y="-387.5" font-family="Helvetica,sans-Serif" font-size="10.00" fill="#000000">sbml/xml/XMLAttributes.h</text>
</a>
</g>
</g>
<!-- Node30&#45;&gt;Node31 -->
<g id="edge63" class="edge">
<title>Node30&#45;&gt;Node31</title>
<path fill="none" stroke="#191970" d="M1561.0564,-660.0926C1546.4683,-630.2212 1503.7636,-538.0427 1490,-456 1488.5293,-447.2336 1487.6,-444.5588 1490,-436 1492.7878,-426.0584 1498.3812,-416.1336 1503.8407,-408.0613"/>
<polygon fill="#191970" stroke="#191970" points="1506.7676,-409.9866 1509.7911,-399.8323 1501.0952,-405.8849 1506.7676,-409.9866"/>
</g>
<!-- Node33 -->
<g id="node33" class="node">
<title>Node33</title>
<g id="a_node33"><a xlink:href="_model_history_8h.html" target="_top" xlink:title="ModelHistory I/O. ">
<polygon fill="#ffffff" stroke="#000000" points="957,-604.5 957,-623.5 1079,-623.5 1079,-604.5 957,-604.5"/>
<text text-anchor="middle" x="1018" y="-611.5" font-family="Helvetica,sans-Serif" font-size="10.00" fill="#000000">sbml/annotation/ModelHistory.h</text>
</a>
</g>
</g>
<!-- Node30&#45;&gt;Node33 -->
<g id="edge74" class="edge">
<title>Node30&#45;&gt;Node33</title>
<path fill="none" stroke="#191970" d="M1517.8489,-665.0795C1421.0026,-655.1828 1202.2561,-632.8291 1088.9758,-621.253"/>
<polygon fill="#191970" stroke="#191970" points="1089.3175,-617.7698 1079.0135,-620.235 1088.6058,-624.7335 1089.3175,-617.7698"/>
</g>
<!-- Node38 -->
<g id="node38" class="node">
<title>Node38</title>
<polygon fill="#ffffff" stroke="#bfbfbf" points="1499,-436.5 1499,-455.5 1537,-455.5 1537,-436.5 1499,-436.5"/>
<text text-anchor="middle" x="1518" y="-443.5" font-family="Helvetica,sans-Serif" font-size="10.00" fill="#000000">cstdlib</text>
</g>
<!-- Node30&#45;&gt;Node38 -->
<g id="edge111" class="edge">
<title>Node30&#45;&gt;Node38</title>
<path fill="none" stroke="#191970" d="M1563.9375,-660.375C1556.66,-626.4133 1532.0887,-511.7472 1522.187,-465.5392"/>
<polygon fill="#191970" stroke="#191970" points="1525.5725,-464.6338 1520.0548,-455.5891 1518.7279,-466.1005 1525.5725,-464.6338"/>
</g>
<!-- Node41 -->
<g id="node41" class="node">
<title>Node41</title>
<polygon fill="#ffffff" stroke="#bfbfbf" points="1555,-436.5 1555,-455.5 1589,-455.5 1589,-436.5 1555,-436.5"/>
<text text-anchor="middle" x="1572" y="-443.5" font-family="Helvetica,sans-Serif" font-size="10.00" fill="#000000">limits</text>
</g>
<!-- Node30&#45;&gt;Node41 -->
<g id="edge107" class="edge">
<title>Node30&#45;&gt;Node41</title>
<path fill="none" stroke="#191970" d="M1566.2578,-660.375C1567.1656,-626.4851 1570.2259,-512.2317 1571.4688,-465.8332"/>
<polygon fill="#191970" stroke="#191970" points="1574.974,-465.6793 1571.7431,-455.5891 1567.9765,-465.4918 1574.974,-465.6793"/>
</g>
<!-- Node42 -->
<g id="node42" class="node">
<title>Node42</title>
<polygon fill="#ffffff" stroke="#bfbfbf" points="1873.5,-436.5 1873.5,-455.5 1916.5,-455.5 1916.5,-436.5 1873.5,-436.5"/>
<text text-anchor="middle" x="1895" y="-443.5" font-family="Helvetica,sans-Serif" font-size="10.00" fill="#000000">iomanip</text>
</g>
<!-- Node30&#45;&gt;Node42 -->
<g id="edge108" class="edge">
<title>Node30&#45;&gt;Node42</title>
<path fill="none" stroke="#191970" d="M1595.6915,-660.4516C1652.899,-640.7872 1779.7357,-590.8851 1859,-512 1872.3999,-498.6642 1882.1611,-479.2908 1888.1115,-464.9811"/>
<polygon fill="#191970" stroke="#191970" points="1891.3916,-466.2032 1891.7683,-455.615 1884.8709,-463.6573 1891.3916,-466.2032"/>
</g>
<!-- Node43 -->
<g id="node43" class="node">
<title>Node43</title>
<polygon fill="#ffffff" stroke="#bfbfbf" points="1973.5,-436.5 1973.5,-455.5 2016.5,-455.5 2016.5,-436.5 1973.5,-436.5"/>
<text text-anchor="middle" x="1995" y="-443.5" font-family="Helvetica,sans-Serif" font-size="10.00" fill="#000000">sstream</text>
</g>
<!-- Node30&#45;&gt;Node43 -->
<g id="edge110" class="edge">
<title>Node30&#45;&gt;Node43</title>
<path fill="none" stroke="#191970" d="M1614.3091,-660.5477C1692.6544,-643.1237 1848.8291,-599.4474 1950,-512 1965.3447,-498.7368 1977.8436,-479.0873 1985.7401,-464.6771"/>
<polygon fill="#191970" stroke="#191970" points="1988.9126,-466.1635 1990.4501,-455.6808 1982.7111,-462.9167 1988.9126,-466.1635"/>
</g>
<!-- Node31&#45;&gt;Node4 -->
<g id="edge65" class="edge">
<title>Node31&#45;&gt;Node4</title>
<path fill="none" stroke="#191970" d="M1466.9391,-381.8999C1462.2308,-381.2269 1457.5297,-380.5824 1453,-380 1298.7773,-360.1721 1253.8302,-389.0262 1105,-344 1086.7324,-338.4734 1085.227,-329.6588 1067,-324 1058.1012,-321.2373 808.2762,-292.632 690.879,-279.287"/>
<polygon fill="#191970" stroke="#191970" points="690.9528,-275.7729 680.6216,-278.1215 690.1625,-282.7282 690.9528,-275.7729"/>
</g>
<!-- Node31&#45;&gt;Node11 -->
<g id="edge64" class="edge">
<title>Node31&#45;&gt;Node11</title>
<path fill="none" stroke="#191970" d="M1466.9184,-382.0518C1462.2144,-381.3469 1457.52,-380.6535 1453,-380 1334.9277,-362.9291 1304.2229,-366.1648 1187,-344 1150.1403,-337.0305 1141.6792,-331.8641 1105,-324 1028.6421,-307.6288 939.8209,-291.7153 883.5196,-282.0136"/>
<polygon fill="#191970" stroke="#191970" points="883.8437,-278.5181 873.3956,-280.2757 882.6593,-285.4172 883.8437,-278.5181"/>
</g>
<!-- Node31&#45;&gt;Node15 -->
<g id="edge67" class="edge">
<title>Node31&#45;&gt;Node15</title>
<path fill="none" stroke="#191970" d="M1549.585,-380.484C1624.0983,-358.0345 1809.8611,-302.0675 1880.3134,-280.8415"/>
<polygon fill="#191970" stroke="#191970" points="1881.6559,-284.0925 1890.2211,-277.8565 1879.6365,-277.3901 1881.6559,-284.0925"/>
</g>
<!-- Node31&#45;&gt;Node16 -->
<g id="edge66" class="edge">
<title>Node31&#45;&gt;Node16</title>
<path fill="none" stroke="#191970" d="M1466.7131,-380.638C1438.0439,-373.7206 1402.6344,-362.2569 1375,-344 1356.0918,-331.5081 1339.5605,-311.7213 1328.3337,-296.1267"/>
<polygon fill="#191970" stroke="#191970" points="1330.9352,-293.7364 1322.3586,-287.5161 1325.1842,-297.7272 1330.9352,-293.7364"/>
</g>
<!-- Node31&#45;&gt;Node19 -->
<g id="edge68" class="edge">
<title>Node31&#45;&gt;Node19</title>
<path fill="none" stroke="#191970" d="M1529.8783,-380.2199C1541.0698,-370.9689 1558.2716,-356.6558 1573,-344 1594.6857,-325.366 1619.2642,-303.5732 1635.6022,-288.9896"/>
<polygon fill="#191970" stroke="#191970" points="1638.2136,-291.3498 1643.3358,-282.0755 1633.548,-286.1313 1638.2136,-291.3498"/>
</g>
<!-- Node31&#45;&gt;Node22 -->
<g id="edge69" class="edge">
<title>Node31&#45;&gt;Node22</title>
<path fill="none" stroke="#191970" d="M1569.246,-388.1555C1689.6563,-383.5289 1999.9257,-369.9053 2258,-344 2270.2371,-342.7717 2283.5913,-341.0294 2295.4387,-339.3424"/>
<polygon fill="#191970" stroke="#191970" points="2296.0069,-342.7967 2305.3963,-337.8885 2294.9955,-335.8701 2296.0069,-342.7967"/>
</g>
<!-- Node32 -->
<g id="node32" class="node">
<title>Node32</title>
<g id="a_node32"><a xlink:href="_x_m_l_triple_8h.html" target="_top" xlink:title="Stores an XML namespace triple. ">
<polygon fill="#ffffff" stroke="#000000" points="1195.5,-324.5 1195.5,-343.5 1284.5,-343.5 1284.5,-324.5 1195.5,-324.5"/>
<text text-anchor="middle" x="1240" y="-331.5" font-family="Helvetica,sans-Serif" font-size="10.00" fill="#000000">sbml/xml/XMLTriple.h</text>
</a>
</g>
</g>
<!-- Node31&#45;&gt;Node32 -->
<g id="edge70" class="edge">
<title>Node31&#45;&gt;Node32</title>
<path fill="none" stroke="#191970" d="M1470.526,-380.4369C1421.6763,-370.5967 1345.6775,-355.2875 1294.4259,-344.9635"/>
<polygon fill="#191970" stroke="#191970" points="1295.0152,-341.512 1284.521,-342.9682 1293.6329,-348.3741 1295.0152,-341.512"/>
</g>
<!-- Node32&#45;&gt;Node4 -->
<g id="edge72" class="edge">
<title>Node32&#45;&gt;Node4</title>
<path fill="none" stroke="#191970" d="M1195.4582,-329.7942C1112.2397,-321.8981 927.5031,-304.1889 772,-288 745.3051,-285.2209 715.7848,-281.9988 690.6829,-279.2147"/>
<polygon fill="#191970" stroke="#191970" points="690.9035,-275.7177 680.578,-278.0911 690.1299,-282.6748 690.9035,-275.7177"/>
</g>
<!-- Node32&#45;&gt;Node11 -->
<g id="edge71" class="edge">
<title>Node32&#45;&gt;Node11</title>
<path fill="none" stroke="#191970" d="M1195.2402,-326.3004C1190.4359,-325.5077 1185.6182,-324.7272 1181,-324 1075.8937,-307.4496 952.921,-289.9858 883.0702,-280.2437"/>
<polygon fill="#191970" stroke="#191970" points="883.5454,-276.7762 873.1582,-278.8634 882.5799,-283.7093 883.5454,-276.7762"/>
</g>
<!-- Node32&#45;&gt;Node15 -->
<g id="edge73" class="edge">
<title>Node32&#45;&gt;Node15</title>
<path fill="none" stroke="#191970" d="M1284.6063,-329.8933C1412.3448,-318.1329 1776.9817,-284.5623 1880.3697,-275.0438"/>
<polygon fill="#191970" stroke="#191970" points="1880.7056,-278.5278 1890.3426,-274.1256 1880.0638,-271.5573 1880.7056,-278.5278"/>
</g>
<!-- Node33&#45;&gt;Node2 -->
<g id="edge75" class="edge">
<title>Node33&#45;&gt;Node2</title>
<path fill="none" stroke="#191970" d="M956.6377,-611.7101C830.4787,-606.5618 545.9515,-592.562 452,-568 246.368,-514.2409 76,-485.0431 76,-272.5 76,-272.5 76,-272.5 76,-205.5 76,-149.2427 119.6542,-143.6109 172,-123 222.872,-102.9694 1033.4972,-83.299 1256.5683,-78.245"/>
<polygon fill="#191970" stroke="#191970" points="1256.8228,-81.7403 1266.7412,-78.0154 1256.6648,-74.742 1256.8228,-81.7403"/>
</g>
<!-- Node33&#45;&gt;Node4 -->
<g id="edge76" class="edge">
<title>Node33&#45;&gt;Node4</title>
<path fill="none" stroke="#191970" d="M956.8851,-612.3518C815.0683,-607.273 469.3587,-587.2846 386,-512 313.4808,-446.5049 416.4279,-374.6393 500,-324 527.6133,-307.2681 561.617,-294.0894 588.06,-285.253"/>
<polygon fill="#191970" stroke="#191970" points="589.3718,-288.5067 597.7953,-282.0806 587.203,-281.8512 589.3718,-288.5067"/>
</g>
<!-- Node33&#45;&gt;Node15 -->
<g id="edge106" class="edge">
<title>Node33&#45;&gt;Node15</title>
<path fill="none" stroke="#191970" d="M1079.0431,-610.0004C1244.6749,-598.5838 1699.5288,-563.3276 1840,-512 1882.841,-496.3461 1903.5487,-495.703 1926,-456 1954.8908,-404.9093 1941.7676,-381.5018 1930,-324 1927.6852,-312.6888 1922.7841,-300.79 1918.1942,-291.2826"/>
<polygon fill="#191970" stroke="#191970" points="1921.3072,-289.6827 1913.6452,-282.3654 1915.0718,-292.8638 1921.3072,-289.6827"/>
</g>
<!-- Node33&#45;&gt;Node16 -->
<g id="edge77" class="edge">
<title>Node33&#45;&gt;Node16</title>
<path fill="none" stroke="#191970" d="M1033.7741,-604.4812C1046.2493,-596.2289 1063.2931,-583.2349 1074,-568 1109.8074,-517.0495 1094.6279,-492.4149 1121,-436 1145.4678,-383.6588 1143.3024,-361.7994 1187,-324 1203.5864,-309.6524 1224.7055,-298.9393 1244.8912,-291.1111"/>
<polygon fill="#191970" stroke="#191970" points="1246.2199,-294.3515 1254.3898,-287.6059 1243.7965,-287.7844 1246.2199,-294.3515"/>
</g>
<!-- Node33&#45;&gt;Node34 -->
<g id="edge78" class="edge">
<title>Node33&#45;&gt;Node34</title>
<path fill="none" stroke="#191970" d="M964.5267,-604.482C924.4435,-596.6372 868.546,-584.18 821,-568 800.6643,-561.0797 797.6898,-553.7762 777,-548 645.956,-511.4149 607.1857,-534.4771 473,-512 471.7305,-511.7873 470.4431,-511.563 469.1448,-511.3292"/>
<polygon fill="#191970" stroke="#191970" points="469.5766,-507.8481 459.0945,-509.3894 468.2499,-514.7212 469.5766,-507.8481"/>
</g>
<!-- Node33&#45;&gt;Node36 -->
<g id="edge81" class="edge">
<title>Node33&#45;&gt;Node36</title>
<path fill="none" stroke="#191970" d="M1041.0591,-604.4578C1059.7191,-596.192 1086.2183,-583.1911 1107,-568 1126.4657,-553.7709 1145.6003,-533.7855 1158.2124,-519.5425"/>
<polygon fill="#191970" stroke="#191970" points="1160.9275,-521.7538 1164.8377,-511.9069 1155.6404,-517.1662 1160.9275,-521.7538"/>
</g>
<!-- Node39 -->
<g id="node39" class="node">
<title>Node39</title>
<g id="a_node39"><a xlink:href="_date_8h.html" target="_top" xlink:title="Date I/O. ">
<polygon fill="#ffffff" stroke="#000000" points="971,-548.5 971,-567.5 1065,-567.5 1065,-548.5 971,-548.5"/>
<text text-anchor="middle" x="1018" y="-555.5" font-family="Helvetica,sans-Serif" font-size="10.00" fill="#000000">sbml/annotation/Date.h</text>
</a>
</g>
</g>
<!-- Node33&#45;&gt;Node39 -->
<g id="edge92" class="edge">
<title>Node33&#45;&gt;Node39</title>
<path fill="none" stroke="#191970" d="M1018,-604.2455C1018,-596.9382 1018,-586.6944 1018,-577.7046"/>
<polygon fill="#191970" stroke="#191970" points="1021.5001,-577.6426 1018,-567.6427 1014.5001,-577.6427 1021.5001,-577.6426"/>
</g>
<!-- Node40 -->
<g id="node40" class="node">
<title>Node40</title>
<g id="a_node40"><a xlink:href="_model_creator_8h.html" target="_top" xlink:title="ModelCreator I/O. ">
<polygon fill="#ffffff" stroke="#000000" points="829.5,-548.5 829.5,-567.5 952.5,-567.5 952.5,-548.5 829.5,-548.5"/>
<text text-anchor="middle" x="891" y="-555.5" font-family="Helvetica,sans-Serif" font-size="10.00" fill="#000000">sbml/annotation/ModelCreator.h</text>
</a>
</g>
</g>
<!-- Node33&#45;&gt;Node40 -->
<g id="edge99" class="edge">
<title>Node33&#45;&gt;Node40</title>
<path fill="none" stroke="#191970" d="M996.1679,-604.3733C975.6897,-595.3435 944.8601,-581.7494 921.8681,-571.6111"/>
<polygon fill="#191970" stroke="#191970" points="923.1093,-568.3333 912.5472,-567.5011 920.285,-574.7383 923.1093,-568.3333"/>
</g>
<!-- Node34&#45;&gt;Node2 -->
<g id="edge79" class="edge">
<title>Node34&#45;&gt;Node2</title>
<path fill="none" stroke="#191970" d="M408.6353,-492.3896C359.3711,-465.1403 228,-382.1918 228,-272.5 228,-272.5 228,-272.5 228,-205.5 228,-148.5656 272.9837,-143.7557 326,-123 412.5552,-89.114 1060.07,-79.6334 1256.6054,-77.5228"/>
<polygon fill="#191970" stroke="#191970" points="1256.7535,-81.0215 1266.7161,-77.4165 1256.6798,-74.0219 1256.7535,-81.0215"/>
</g>
<!-- Node35 -->
<g id="node35" class="node">
<title>Node35</title>
<polygon fill="#ffffff" stroke="#bfbfbf" points="379.5,-436.5 379.5,-455.5 420.5,-455.5 420.5,-436.5 379.5,-436.5"/>
<text text-anchor="middle" x="400" y="-443.5" font-family="Helvetica,sans-Serif" font-size="10.00" fill="#000000">string.h</text>
</g>
<!-- Node34&#45;&gt;Node35 -->
<g id="edge80" class="edge">
<title>Node34&#45;&gt;Node35</title>
<path fill="none" stroke="#191970" d="M422.297,-492.2455C418.6576,-484.6973 413.5076,-474.0158 409.0738,-464.8197"/>
<polygon fill="#191970" stroke="#191970" points="412.1449,-463.1303 404.6491,-455.6427 405.8395,-466.1704 412.1449,-463.1303"/>
</g>
<!-- Node36&#45;&gt;Node4 -->
<g id="edge89" class="edge">
<title>Node36&#45;&gt;Node4</title>
<path fill="none" stroke="#191970" d="M1128.9577,-498.7554C1020.3835,-489.8717 743.9919,-461.596 679,-400 648.22,-370.8283 637.0099,-319.9765 633.0555,-292.1227"/>
<polygon fill="#191970" stroke="#191970" points="636.5086,-291.5284 631.802,-282.0364 629.5621,-292.3917 636.5086,-291.5284"/>
</g>
<!-- Node36&#45;&gt;Node11 -->
<g id="edge82" class="edge">
<title>Node36&#45;&gt;Node11</title>
<path fill="none" stroke="#191970" d="M1128.9734,-498.2854C1074.1275,-492.827 978.0079,-480.513 899,-456 878.8695,-449.7543 875.9228,-442.8797 856,-436 789.5601,-413.0571 754.0643,-447.2224 702,-400 676.2105,-376.6088 662.9498,-352.4646 683,-324 693.971,-308.4249 737.8934,-294.1281 774.3759,-284.571"/>
<polygon fill="#191970" stroke="#191970" points="775.611,-287.868 784.435,-282.0039 773.8801,-281.0854 775.611,-287.868"/>
</g>
<!-- Node36&#45;&gt;Node19 -->
<g id="edge90" class="edge">
<title>Node36&#45;&gt;Node19</title>
<path fill="none" stroke="#191970" d="M1217.0337,-492.4761C1278.1904,-479.3301 1392.3472,-455.0854 1490,-436 1533.6764,-427.4638 1658.5002,-434.1798 1687,-400 1708.6314,-374.0574 1696.4947,-356.4159 1687,-324 1683.426,-311.798 1675.9763,-299.7442 1669.0582,-290.3692"/>
<polygon fill="#191970" stroke="#191970" points="1671.6509,-288.003 1662.732,-282.2842 1666.1379,-292.3167 1671.6509,-288.003"/>
</g>
<!-- Node37 -->
<g id="node37" class="node">
<title>Node37</title>
<g id="a_node37"><a xlink:href="_x_m_l_token_8h.html" target="_top" xlink:title="A unit of XML syntax, either an XML element or text. ">
<polygon fill="#ffffff" stroke="#000000" points="1129.5,-436.5 1129.5,-455.5 1220.5,-455.5 1220.5,-436.5 1129.5,-436.5"/>
<text text-anchor="middle" x="1175" y="-443.5" font-family="Helvetica,sans-Serif" font-size="10.00" fill="#000000">sbml/xml/XMLToken.h</text>
</a>
</g>
</g>
<!-- Node36&#45;&gt;Node37 -->
<g id="edge83" class="edge">
<title>Node36&#45;&gt;Node37</title>
<path fill="none" stroke="#191970" d="M1173.3484,-492.2455C1173.6093,-484.9382 1173.9752,-474.6944 1174.2963,-465.7046"/>
<polygon fill="#191970" stroke="#191970" points="1177.7964,-465.7613 1174.6556,-455.6427 1170.8008,-465.5113 1177.7964,-465.7613"/>
</g>
<!-- Node36&#45;&gt;Node38 -->
<g id="edge91" class="edge">
<title>Node36&#45;&gt;Node38</title>
<path fill="none" stroke="#191970" d="M1217.0449,-494.8507C1288.6762,-483.2236 1428.4842,-460.5301 1488.9661,-450.7128"/>
<polygon fill="#191970" stroke="#191970" points="1489.6605,-454.1459 1498.9705,-449.0888 1488.5389,-447.2364 1489.6605,-454.1459"/>
</g>
<!-- Node37&#45;&gt;Node4 -->
<g id="edge87" class="edge">
<title>Node37&#45;&gt;Node4</title>
<path fill="none" stroke="#191970" d="M1148.8314,-436.4141C1079.6419,-411.1226 892.8836,-343.216 830,-324 780.1318,-308.7613 722.3602,-294.1406 681.9533,-284.3968"/>
<polygon fill="#191970" stroke="#191970" points="682.6103,-280.9552 672.0698,-282.0273 680.9782,-287.7623 682.6103,-280.9552"/>
</g>
<!-- Node37&#45;&gt;Node11 -->
<g id="edge84" class="edge">
<title>Node37&#45;&gt;Node11</title>
<path fill="none" stroke="#191970" d="M1129.3929,-443.3527C1023.7231,-436.9182 768.5586,-419.5436 735,-400 702.0153,-380.7906 673.4661,-355.5163 695,-324 705.073,-309.2574 746.1689,-294.6742 779.8641,-284.8104"/>
<polygon fill="#191970" stroke="#191970" points="780.9356,-288.1444 789.5893,-282.0317 779.0125,-281.4137 780.9356,-288.1444"/>
</g>
<!-- Node37&#45;&gt;Node15 -->
<g id="edge88" class="edge">
<title>Node37&#45;&gt;Node15</title>
<path fill="none" stroke="#191970" d="M1220.6914,-444.5671C1296.1192,-441.3642 1450.9813,-431.2417 1578,-400 1694.7466,-371.2848 1825.8967,-311.9376 1881.1652,-285.5921"/>
<polygon fill="#191970" stroke="#191970" points="1882.7792,-288.6997 1890.2802,-281.2173 1879.7503,-282.3889 1882.7792,-288.6997"/>
</g>
<!-- Node37&#45;&gt;Node31 -->
<g id="edge85" class="edge">
<title>Node37&#45;&gt;Node31</title>
<path fill="none" stroke="#191970" d="M1220.5478,-438.5636C1281.3013,-428.6447 1389.0525,-411.0526 1456.8382,-399.9856"/>
<polygon fill="#191970" stroke="#191970" points="1457.6444,-403.4004 1466.9497,-398.3347 1456.5164,-396.4919 1457.6444,-403.4004"/>
</g>
<!-- Node37&#45;&gt;Node37 -->
<g id="edge86" class="edge">
<title>Node37&#45;&gt;Node37</title>
<path fill="none" stroke="#191970" d="M1202.0829,-455.5252C1220.4849,-458.3079 1238.5,-455.1328 1238.5,-446 1238.5,-438.5796 1226.6073,-435.0922 1212.277,-435.5379"/>
<polygon fill="#191970" stroke="#191970" points="1211.7205,-432.0742 1202.0829,-436.4748 1212.3612,-439.0448 1211.7205,-432.0742"/>
</g>
<!-- Node39&#45;&gt;Node2 -->
<g id="edge93" class="edge">
<title>Node39&#45;&gt;Node2</title>
<path fill="none" stroke="#191970" d="M970.5714,-549.2061C920.6679,-539.5699 845.7242,-523.9005 819,-512 675.1442,-447.9397 475.6935,-380.813 573,-257 658.5411,-148.1574 1099.2657,-96.9407 1256.8748,-81.9017"/>
<polygon fill="#191970" stroke="#191970" points="1257.2123,-85.3855 1266.8401,-80.9632 1256.5559,-78.4163 1257.2123,-85.3855"/>
</g>
<!-- Node39&#45;&gt;Node4 -->
<g id="edge94" class="edge">
<title>Node39&#45;&gt;Node4</title>
<path fill="none" stroke="#191970" d="M970.994,-549.2904C967.9549,-548.825 964.9371,-548.3895 962,-548 916.3368,-541.9452 580.1251,-545.9562 549,-512 488.3068,-445.7862 576.7836,-332.6502 614.9363,-289.7128"/>
<polygon fill="#191970" stroke="#191970" points="617.7166,-291.8569 621.8368,-282.096 612.5289,-287.1571 617.7166,-291.8569"/>
</g>
<!-- Node39&#45;&gt;Node15 -->
<g id="edge98" class="edge">
<title>Node39&#45;&gt;Node15</title>
<path fill="none" stroke="#191970" d="M1065.1266,-556.5486C1232.3247,-551.2378 1788.8319,-532.1206 1821,-512 1823.2668,-510.5821 1914.3254,-346.5872 1915,-344 1919.4637,-326.8808 1916.8319,-306.7817 1913.5972,-292.2606"/>
<polygon fill="#191970" stroke="#191970" points="1916.9469,-291.2295 1911.1136,-282.3851 1910.1583,-292.9368 1916.9469,-291.2295"/>
</g>
<!-- Node39&#45;&gt;Node16 -->
<g id="edge95" class="edge">
<title>Node39&#45;&gt;Node16</title>
<path fill="none" stroke="#191970" d="M1024.2169,-548.3724C1038.8759,-526.2482 1077.6483,-470.9995 1121,-436 1188.7587,-381.2958 1239.861,-412.2112 1294,-344 1304.409,-330.8854 1309.1439,-312.5871 1311.2842,-297.785"/>
<polygon fill="#191970" stroke="#191970" points="1314.7731,-298.0808 1312.4283,-287.7488 1307.8181,-297.288 1314.7731,-298.0808"/>
</g>
<!-- Node39&#45;&gt;Node34 -->
<g id="edge96" class="edge">
<title>Node39&#45;&gt;Node34</title>
<path fill="none" stroke="#191970" d="M970.9973,-549.2653C967.9573,-548.806 964.9385,-548.3787 962,-548 762.5677,-522.2956 711.096,-531.889 511,-512 497.508,-510.6589 482.8229,-508.9846 469.5598,-507.3918"/>
<polygon fill="#191970" stroke="#191970" points="469.6276,-503.8743 459.2779,-506.1398 468.7814,-510.8229 469.6276,-503.8743"/>
</g>
<!-- Node39&#45;&gt;Node36 -->
<g id="edge97" class="edge">
<title>Node39&#45;&gt;Node36</title>
<path fill="none" stroke="#191970" d="M1044.6454,-548.3733C1070.1964,-539.1419 1108.9512,-525.1402 1137.1909,-514.9375"/>
<polygon fill="#191970" stroke="#191970" points="1138.4865,-518.1909 1146.7022,-511.5011 1136.1079,-511.6074 1138.4865,-518.1909"/>
</g>
<!-- Node40&#45;&gt;Node2 -->
<g id="edge100" class="edge">
<title>Node40&#45;&gt;Node2</title>
<path fill="none" stroke="#191970" d="M829.2715,-556.2697C712.9977,-552.3727 466.0116,-540.8835 386,-512 246.0245,-461.4701 152,-421.3167 152,-272.5 152,-272.5 152,-272.5 152,-205.5 152,-149.2427 195.6839,-143.686 248,-123 341.9314,-85.8591 1050.1787,-78.6114 1256.6642,-77.2825"/>
<polygon fill="#191970" stroke="#191970" points="1256.7094,-80.7823 1266.6874,-77.2201 1256.6657,-73.7825 1256.7094,-80.7823"/>
</g>
<!-- Node40&#45;&gt;Node4 -->
<g id="edge101" class="edge">
<title>Node40&#45;&gt;Node4</title>
<path fill="none" stroke="#191970" d="M829.2697,-550.0346C823.7686,-549.3403 818.2842,-548.6537 813,-548 745.925,-539.7026 555.8732,-562.54 511,-512 455.4857,-449.475 468.4857,-391.3762 518,-324 531.8947,-305.0929 554.398,-292.9539 575.6793,-285.2456"/>
<polygon fill="#191970" stroke="#191970" points="576.9677,-288.5052 585.3359,-282.0072 574.742,-281.8684 576.9677,-288.5052"/>
</g>
<!-- Node40&#45;&gt;Node15 -->
<g id="edge105" class="edge">
<title>Node40&#45;&gt;Node15</title>
<path fill="none" stroke="#191970" d="M952.5316,-548.9673C955.7305,-548.6124 958.9012,-548.2865 962,-548 1051.5957,-539.716 1694.0959,-558.7094 1771,-512 1854.387,-461.3531 1891.8064,-339.6989 1903.6199,-292.0811"/>
<polygon fill="#191970" stroke="#191970" points="1907.0776,-292.6686 1905.9779,-282.131 1900.2662,-291.0544 1907.0776,-292.6686"/>
</g>
<!-- Node40&#45;&gt;Node16 -->
<g id="edge102" class="edge">
<title>Node40&#45;&gt;Node16</title>
<path fill="none" stroke="#191970" d="M916.3925,-548.4421C952.6703,-532.9427 1015,-498.6516 1015,-446 1015,-446 1015,-446 1015,-390 1015,-341.1367 1155.4158,-303.9911 1243.4746,-285.5005"/>
<polygon fill="#191970" stroke="#191970" points="1244.3272,-288.8983 1253.4115,-283.4461 1242.9099,-282.0432 1244.3272,-288.8983"/>
</g>
<!-- Node40&#45;&gt;Node34 -->
<g id="edge103" class="edge">
<title>Node40&#45;&gt;Node34</title>
<path fill="none" stroke="#191970" d="M829.215,-549.7341C824.4069,-549.1325 819.6256,-548.5477 815,-548 663.2204,-530.0292 623.9005,-536.27 473,-512 471.7291,-511.7956 470.4405,-511.5785 469.1412,-511.351"/>
<polygon fill="#191970" stroke="#191970" points="469.5629,-507.8687 459.0857,-509.4431 468.2579,-514.746 469.5629,-507.8687"/>
</g>
<!-- Node40&#45;&gt;Node36 -->
<g id="edge104" class="edge">
<title>Node40&#45;&gt;Node36</title>
<path fill="none" stroke="#191970" d="M939.1571,-548.4369C989.0046,-538.5381 1066.7207,-523.1051 1118.7167,-512.7797"/>
<polygon fill="#191970" stroke="#191970" points="1119.6303,-516.1667 1128.757,-510.7858 1118.2668,-509.3007 1119.6303,-516.1667"/>
</g>
<!-- Node44&#45;&gt;Node2 -->
<g id="edge113" class="edge">
<title>Node44&#45;&gt;Node2</title>
<path fill="none" stroke="#191970" d="M1714.1341,-492.4456C1736.5835,-450.5942 1825,-284.9725 1825,-272.5 1825,-272.5 1825,-272.5 1825,-205.5 1825,-112.3852 1502.4008,-86.1297 1369.3439,-79.2607"/>
<polygon fill="#191970" stroke="#191970" points="1369.5014,-75.7643 1359.3396,-78.7624 1369.1531,-82.7556 1369.5014,-75.7643"/>
</g>
<!-- Node44&#45;&gt;Node4 -->
<g id="edge114" class="edge">
<title>Node44&#45;&gt;Node4</title>
<path fill="none" stroke="#191970" d="M1692.5317,-492.3652C1676.7219,-483.0974 1652.1847,-468.6657 1631,-456 1616.2802,-447.1994 1613.8077,-442.6513 1598,-436 1538.7821,-411.0833 1518.4928,-421.6385 1458,-400 1438.1543,-392.9011 1435.318,-385.606 1415,-380 1265.1089,-338.6427 1219.7282,-373.1871 1067,-344 1034.7991,-337.8462 1028.0812,-330.7498 996,-324 939.0737,-312.0228 778.9202,-291.0841 690.8656,-279.9526"/>
<polygon fill="#191970" stroke="#191970" points="691.1157,-276.4565 680.7563,-278.6776 690.2398,-283.4015 691.1157,-276.4565"/>
</g>
<!-- Node44&#45;&gt;Node15 -->
<g id="edge119" class="edge">
<title>Node44&#45;&gt;Node15</title>
<path fill="none" stroke="#191970" d="M1717.2974,-492.4309C1747.7038,-457.3642 1853.3138,-335.5678 1892.8783,-289.9394"/>
<polygon fill="#191970" stroke="#191970" points="1895.7603,-291.9582 1899.6672,-282.11 1890.4716,-287.3724 1895.7603,-291.9582"/>
</g>
<!-- Node44&#45;&gt;Node16 -->
<g id="edge115" class="edge">
<title>Node44&#45;&gt;Node16</title>
<path fill="none" stroke="#191970" d="M1702.8758,-492.3074C1694.0218,-478.7499 1676.6508,-453.7913 1658,-436 1626.5957,-406.043 1617.8092,-397.2883 1578,-380 1507.1606,-349.2359 1478.2988,-375.9799 1408,-344 1393.441,-337.3769 1361.6963,-312.5716 1338.9075,-294.0241"/>
<polygon fill="#191970" stroke="#191970" points="1340.9194,-291.1478 1330.9653,-287.5192 1336.484,-296.5633 1340.9194,-291.1478"/>
</g>
<!-- Node44&#45;&gt;Node31 -->
<g id="edge116" class="edge">
<title>Node44&#45;&gt;Node31</title>
<path fill="none" stroke="#191970" d="M1699.6801,-492.3757C1685.7796,-478.4485 1658.3138,-452.5375 1631,-436 1608.272,-422.2391 1580.6868,-410.9194 1558.4611,-402.9525"/>
<polygon fill="#191970" stroke="#191970" points="1559.5741,-399.634 1548.9793,-399.6389 1557.2647,-406.2421 1559.5741,-399.634"/>
</g>
<!-- Node44&#45;&gt;Node38 -->
<g id="edge121" class="edge">
<title>Node44&#45;&gt;Node38</title>
<path fill="none" stroke="#191970" d="M1672.5347,-492.4706C1641.4341,-484.1742 1595.3482,-471.4838 1546.9318,-456.1583"/>
<polygon fill="#191970" stroke="#191970" points="1547.812,-452.7653 1537.2212,-453.0586 1545.6833,-459.4338 1547.812,-452.7653"/>
</g>
<!-- Node44&#45;&gt;Node41 -->
<g id="edge117" class="edge">
<title>Node44&#45;&gt;Node41</title>
<path fill="none" stroke="#191970" d="M1685.4489,-492.3733C1661.2698,-482.4899 1623.7134,-467.1383 1598.5078,-456.8353"/>
<polygon fill="#191970" stroke="#191970" points="1599.7641,-453.5678 1589.1832,-453.0238 1597.1155,-460.0474 1599.7641,-453.5678"/>
</g>
<!-- Node44&#45;&gt;Node42 -->
<g id="edge118" class="edge">
<title>Node44&#45;&gt;Node42</title>
<path fill="none" stroke="#191970" d="M1740.9745,-492.3733C1775.2378,-482.0574 1829.2872,-465.7845 1863.4039,-455.5128"/>
<polygon fill="#191970" stroke="#191970" points="1864.7416,-458.7653 1873.308,-452.5309 1862.7235,-452.0625 1864.7416,-458.7653"/>
</g>
<!-- Node44&#45;&gt;Node43 -->
<g id="edge120" class="edge">
<title>Node44&#45;&gt;Node43</title>
<path fill="none" stroke="#191970" d="M1757.8402,-492.4369C1816.6741,-480.917 1913.7874,-461.9018 1963.5176,-452.1644"/>
<polygon fill="#191970" stroke="#191970" points="1964.2383,-455.5898 1973.3794,-450.2334 1962.8932,-448.7203 1964.2383,-455.5898"/>
</g>
<!-- Node45&#45;&gt;Node2 -->
<g id="edge125" class="edge">
<title>Node45&#45;&gt;Node2</title>
<path fill="none" stroke="#191970" d="M2191.0561,-324.3689C2147.3098,-289.7155 1990.4771,-170.9023 1839,-123 1752.6741,-95.7007 1486.3823,-83.1423 1369.2599,-78.8301"/>
<polygon fill="#191970" stroke="#191970" points="1369.1918,-75.3255 1359.072,-78.462 1368.939,-82.3209 1369.1918,-75.3255"/>
</g>
<!-- Node45&#45;&gt;Node12 -->
<g id="edge127" class="edge">
<title>Node45&#45;&gt;Node12</title>
<path fill="none" stroke="#191970" d="M2200.8125,-324.3906C2198.8514,-315.776 2195.9137,-302.8708 2193.4585,-292.0858"/>
<polygon fill="#191970" stroke="#191970" points="2196.8507,-291.2185 2191.2183,-282.2449 2190.0254,-292.7723 2196.8507,-291.2185"/>
</g>
<!-- Node45&#45;&gt;Node15 -->
<g id="edge128" class="edge">
<title>Node45&#45;&gt;Node15</title>
<path fill="none" stroke="#191970" d="M2156.8098,-326.0547C2096.453,-315.5527 1994.0873,-297.2968 1957,-288 1949.9059,-286.2217 1942.3312,-283.9931 1935.3109,-281.7849"/>
<polygon fill="#191970" stroke="#191970" points="1936.1346,-278.3727 1925.5426,-278.619 1933.9763,-285.0317 1936.1346,-278.3727"/>
</g>
<!-- Node45&#45;&gt;Node27 -->
<g id="edge126" class="edge">
<title>Node45&#45;&gt;Node27</title>
<path fill="none" stroke="#191970" d="M2196.2661,-343.7011C2179.2115,-361.5671 2139,-401.9009 2139,-446 2139,-670 2139,-670 2139,-670 2139,-705.7699 2118.3644,-743.3109 2101.8217,-764.5708"/>
<polygon fill="#191970" stroke="#191970" points="2099.0166,-762.4692 2095.2818,-772.3839 2104.3843,-766.9622 2099.0166,-762.4692"/>
</g>
<!-- Node46&#45;&gt;Node2 -->
<g id="edge130" class="edge">
<title>Node46&#45;&gt;Node2</title>
<path fill="none" stroke="#191970" d="M2348.6865,-442.0597C2410.6258,-436.8658 2496.444,-425.2318 2518,-400 2564.4827,-345.591 2507.6948,-289.6184 2444,-257 2379.895,-224.1716 2353.2825,-246.6949 2286,-221 2259.4241,-210.8508 2256.0819,-201.3587 2230,-190 2142.1185,-151.7273 2119.1252,-141.1218 2025,-123 1899.6827,-98.8728 1514.821,-83.7838 1369.4189,-78.8145"/>
<polygon fill="#191970" stroke="#191970" points="1369.4834,-75.3147 1359.3706,-78.4742 1369.2464,-82.3107 1369.4834,-75.3147"/>
</g>
<!-- Node46&#45;&gt;Node15 -->
<g id="edge132" class="edge">
<title>Node46&#45;&gt;Node15</title>
<path fill="none" stroke="#191970" d="M2283.751,-436.2686C2287.4168,-412.3831 2292.8962,-350.8601 2258,-324 2207.6556,-285.2492 2010.1075,-275.4965 1936.1517,-273.1805"/>
<polygon fill="#191970" stroke="#191970" points="1935.8731,-269.6711 1925.7759,-272.8797 1935.6702,-276.6681 1935.8731,-269.6711"/>
</g>
<!-- Node46&#45;&gt;Node17 -->
<g id="edge131" class="edge">
<title>Node46&#45;&gt;Node17</title>
<path fill="none" stroke="#191970" d="M2271.2004,-436.2455C2262.1322,-428.0549 2248.9794,-416.1749 2238.2755,-406.5069"/>
<polygon fill="#191970" stroke="#191970" points="2240.4429,-403.7482 2230.6758,-399.6427 2235.7509,-408.9429 2240.4429,-403.7482"/>
</g>
<!-- Node46&#45;&gt;Node22 -->
<g id="edge133" class="edge">
<title>Node46&#45;&gt;Node22</title>
<path fill="none" stroke="#191970" d="M2290.5834,-436.485C2298.108,-427.6454 2308.7882,-413.8027 2315,-400 2321.6308,-385.2663 2325.466,-367.3197 2327.5957,-353.8621"/>
<polygon fill="#191970" stroke="#191970" points="2331.0865,-354.1713 2329.0075,-343.7825 2324.1542,-353.2003 2331.0865,-354.1713"/>
</g>
<!-- Node46&#45;&gt;Node47 -->
<g id="edge134" class="edge">
<title>Node46&#45;&gt;Node47</title>
<path fill="none" stroke="#191970" d="M2348.6593,-441.7013C2424.5862,-435.7822 2543.0472,-423.1296 2581,-400 2599.2612,-388.8711 2612.6749,-367.9219 2620.6092,-352.6013"/>
<polygon fill="#191970" stroke="#191970" points="2623.8062,-354.0302 2625.0278,-343.506 2617.5099,-350.9713 2623.8062,-354.0302"/>
</g>
<!-- Node48&#45;&gt;Node2 -->
<g id="edge136" class="edge">
<title>Node48&#45;&gt;Node2</title>
<path fill="none" stroke="#191970" d="M2476.5973,-380.3677C2490.6899,-372.4645 2509.0663,-359.9844 2520,-344 2538.5637,-316.861 2539,-305.3806 2539,-272.5 2539,-272.5 2539,-272.5 2539,-205.5 2539,-143.6755 2485.325,-143.5053 2427,-123 2326.9407,-87.8223 1581.6554,-79.1617 1369.3104,-77.398"/>
<polygon fill="#191970" stroke="#191970" points="1369.0455,-73.8958 1359.0174,-77.3144 1368.9886,-80.8956 1369.0455,-73.8958"/>
</g>
<!-- Node48&#45;&gt;Node15 -->
<g id="edge137" class="edge">
<title>Node48&#45;&gt;Node15</title>
<path fill="none" stroke="#191970" d="M2447.1445,-380.3589C2431.1868,-365.4068 2398.0317,-336.9975 2364,-324 2284.775,-293.7421 2021.9548,-278.1934 1935.6932,-273.8151"/>
<polygon fill="#191970" stroke="#191970" points="1935.7836,-270.3153 1925.6221,-273.3143 1935.4359,-277.3067 1935.7836,-270.3153"/>
</g>
<!-- Node48&#45;&gt;Node19 -->
<g id="edge138" class="edge">
<title>Node48&#45;&gt;Node19</title>
<path fill="none" stroke="#191970" d="M2404.9316,-382.381C2250.914,-359.8442 1800.9291,-293.9996 1682.718,-276.7022"/>
<polygon fill="#191970" stroke="#191970" points="1683.0375,-273.2118 1672.636,-275.2269 1682.0239,-280.138 1683.0375,-273.2118"/>
</g>
<!-- Node48&#45;&gt;Node22 -->
<g id="edge139" class="edge">
<title>Node48&#45;&gt;Node22</title>
<path fill="none" stroke="#191970" d="M2435.1679,-380.3733C2414.6897,-371.3435 2383.8601,-357.7494 2360.8681,-347.6111"/>
<polygon fill="#191970" stroke="#191970" points="2362.1093,-344.3333 2351.5472,-343.5011 2359.285,-350.7383 2362.1093,-344.3333"/>
</g>
<!-- Node48&#45;&gt;Node47 -->
<g id="edge140" class="edge">
<title>Node48&#45;&gt;Node47</title>
<path fill="none" stroke="#191970" d="M2486.5679,-380.3733C2516.9022,-370.4969 2564.0075,-355.1603 2595.6521,-344.8575"/>
<polygon fill="#191970" stroke="#191970" points="2596.917,-348.1265 2605.3422,-341.7026 2594.7499,-341.4704 2596.917,-348.1265"/>
</g>
</g>
</svg>
