<?xml version="1.0" encoding="UTF-8" standalone="no"?>
<!DOCTYPE svg PUBLIC "-//W3C//DTD SVG 1.1//EN"
 "http://www.w3.org/Graphics/SVG/1.1/DTD/svg11.dtd">
<!-- Generated by graphviz version 2.40.1 (20161225.0304)
 -->
<!-- Title: SBasePluginCreatorBase.h Pages: 1 -->
<svg width="2921pt" height="923pt"
 viewBox="0.00 0.00 2921.00 923.00" xmlns="http://www.w3.org/2000/svg" xmlns:xlink="http://www.w3.org/1999/xlink">
<g id="graph0" class="graph" transform="scale(1 1) rotate(0) translate(4 919)">
<title>SBasePluginCreatorBase.h</title>
<polygon fill="#ffffff" stroke="transparent" points="-4,4 -4,-919 2917,-919 2917,4 -4,4"/>
<!-- Node1 -->
<g id="node1" class="node">
<title>Node1</title>
<polygon fill="#bfbfbf" stroke="#000000" points="1986,-895.5 1986,-914.5 2094,-914.5 2094,-895.5 1986,-895.5"/>
<text text-anchor="middle" x="2040" y="-902.5" font-family="Helvetica,sans-Serif" font-size="10.00" fill="#000000">SBasePluginCreatorBase.h</text>
</g>
<!-- Node2 -->
<g id="node2" class="node">
<title>Node2</title>
<g id="a_node2"><a xlink:href="_s_b_m_l_document_8h.html" target="_top" xlink:title="Top&#45;level container for an SBML Model and associated data. ">
<polygon fill="#ffffff" stroke="#000000" points="1865.5,-839.5 1865.5,-858.5 1960.5,-858.5 1960.5,-839.5 1865.5,-839.5"/>
<text text-anchor="middle" x="1913" y="-846.5" font-family="Helvetica,sans-Serif" font-size="10.00" fill="#000000">sbml/SBMLDocument.h</text>
</a>
</g>
</g>
<!-- Node1&#45;&gt;Node2 -->
<g id="edge1" class="edge">
<title>Node1&#45;&gt;Node2</title>
<path fill="none" stroke="#191970" d="M2018.1679,-895.3733C1997.6897,-886.3435 1966.8601,-872.7494 1943.8681,-862.6111"/>
<polygon fill="#191970" stroke="#191970" points="1945.1093,-859.3333 1934.5472,-858.5011 1942.285,-865.7383 1945.1093,-859.3333"/>
</g>
<!-- Node18 -->
<g id="node18" class="node">
<title>Node18</title>
<g id="a_node18"><a xlink:href="_s_b_m_l_namespaces_8h.html" target="_top" xlink:title="SBMLNamespaces class to store level/version and namespace. ">
<polygon fill="#ffffff" stroke="#000000" points="2182.5,-391.5 2182.5,-410.5 2287.5,-410.5 2287.5,-391.5 2182.5,-391.5"/>
<text text-anchor="middle" x="2235" y="-398.5" font-family="Helvetica,sans-Serif" font-size="10.00" fill="#000000">sbml/SBMLNamespaces.h</text>
</a>
</g>
</g>
<!-- Node1&#45;&gt;Node18 -->
<g id="edge150" class="edge">
<title>Node1&#45;&gt;Node18</title>
<path fill="none" stroke="#191970" d="M2043.7213,-895.382C2067.2276,-834.6272 2195.1661,-503.9554 2227.549,-420.258"/>
<polygon fill="#191970" stroke="#191970" points="2230.8954,-421.3083 2231.2397,-410.719 2224.367,-418.7824 2230.8954,-421.3083"/>
</g>
<!-- Node52 -->
<g id="node52" class="node">
<title>Node52</title>
<g id="a_node52"><a xlink:href="_s_base_extension_point_8h.html" target="_top" xlink:title="Implementation of SBaseExtensionPoint. ">
<polygon fill="#ffffff" stroke="#000000" points="2005,-324.5 2005,-354.5 2129,-354.5 2129,-324.5 2005,-324.5"/>
<text text-anchor="start" x="2013" y="-342.5" font-family="Helvetica,sans-Serif" font-size="10.00" fill="#000000">sbml/extension/SBaseExtension</text>
<text text-anchor="middle" x="2067" y="-331.5" font-family="Helvetica,sans-Serif" font-size="10.00" fill="#000000">Point.h</text>
</a>
</g>
</g>
<!-- Node1&#45;&gt;Node52 -->
<g id="edge151" class="edge">
<title>Node1&#45;&gt;Node52</title>
<path fill="none" stroke="#191970" d="M2040,-895.4116C2040,-876.0538 2040,-830.9167 2040,-793 2040,-793 2040,-793 2040,-625 2040,-528.4927 2055.48,-414.4472 2062.9974,-364.7537"/>
<polygon fill="#191970" stroke="#191970" points="2066.4954,-365.0342 2064.5563,-354.6184 2059.5767,-363.97 2066.4954,-365.0342"/>
</g>
<!-- Node3 -->
<g id="node3" class="node">
<title>Node3</title>
<g id="a_node3"><a xlink:href="extern_8h.html" target="_top" xlink:title="Definitions of LIBSBML_EXTERN and related things. ">
<polygon fill="#ffffff" stroke="#000000" points="2168,-67.5 2168,-86.5 2260,-86.5 2260,-67.5 2168,-67.5"/>
<text text-anchor="middle" x="2214" y="-74.5" font-family="Helvetica,sans-Serif" font-size="10.00" fill="#000000">sbml/common/extern.h</text>
</a>
</g>
</g>
<!-- Node2&#45;&gt;Node3 -->
<g id="edge2" class="edge">
<title>Node2&#45;&gt;Node3</title>
<path fill="none" stroke="#191970" d="M1960.5593,-846.204C2159.2912,-834.2122 2913,-785.5329 2913,-737 2913,-737 2913,-737 2913,-205.5 2913,-146.8481 2864.5507,-144.547 2810,-123 2760.6214,-103.4959 2409.3788,-85.7814 2270.4013,-79.4574"/>
<polygon fill="#191970" stroke="#191970" points="2270.5223,-75.9594 2260.3744,-79.0041 2270.2061,-82.9522 2270.5223,-75.9594"/>
</g>
<!-- Node5 -->
<g id="node5" class="node">
<title>Node5</title>
<g id="a_node5"><a xlink:href="sbmlfwd_8h.html" target="_top" xlink:title="Forward declarations for all opaque C types. ">
<polygon fill="#ffffff" stroke="#000000" points="859.5,-263 859.5,-282 958.5,-282 958.5,-263 859.5,-263"/>
<text text-anchor="middle" x="909" y="-270" font-family="Helvetica,sans-Serif" font-size="10.00" fill="#000000">sbml/common/sbmlfwd.h</text>
</a>
</g>
</g>
<!-- Node2&#45;&gt;Node5 -->
<g id="edge4" class="edge">
<title>Node2&#45;&gt;Node5</title>
<path fill="none" stroke="#191970" d="M1865.2779,-848.6556C1576.5901,-846.2675 76,-829.41 76,-737 76,-737 76,-737 76,-513 76,-422.5111 162.8489,-439.8801 239,-391 291.3872,-357.3735 302.4623,-342.1777 362,-324 451.7524,-296.5973 726.6846,-280.8943 849.1103,-275.0945"/>
<polygon fill="#191970" stroke="#191970" points="849.5923,-278.5759 859.4179,-274.6126 849.2653,-271.5835 849.5923,-278.5759"/>
</g>
<!-- Node9 -->
<g id="node9" class="node">
<title>Node9</title>
<g id="a_node9"><a xlink:href="_s_b_m_l_error_8h.html" target="_top" xlink:title="Represents SBML errors and other diagnostics. ">
<polygon fill="#ffffff" stroke="#000000" points="1710,-447.5 1710,-466.5 1788,-466.5 1788,-447.5 1710,-447.5"/>
<text text-anchor="middle" x="1749" y="-454.5" font-family="Helvetica,sans-Serif" font-size="10.00" fill="#000000">sbml/SBMLError.h</text>
</a>
</g>
</g>
<!-- Node2&#45;&gt;Node9 -->
<g id="edge11" class="edge">
<title>Node2&#45;&gt;Node9</title>
<path fill="none" stroke="#191970" d="M1895.9217,-839.4135C1882.9332,-831.2954 1865.5523,-818.5155 1855,-803 1837.7629,-777.6556 1835,-767.6506 1835,-737 1835,-737 1835,-737 1835,-681 1835,-599.9325 1785.3012,-512.6708 1761.4649,-475.4808"/>
<polygon fill="#191970" stroke="#191970" points="1764.1545,-473.1992 1755.7483,-466.7504 1758.2983,-477.0338 1764.1545,-473.1992"/>
</g>
<!-- Node15 -->
<g id="node15" class="node">
<title>Node15</title>
<polygon fill="#ffffff" stroke="#bfbfbf" points="158,-263 158,-282 196,-282 196,-263 158,-263"/>
<text text-anchor="middle" x="177" y="-270" font-family="Helvetica,sans-Serif" font-size="10.00" fill="#000000">iosfwd</text>
</g>
<!-- Node2&#45;&gt;Node15 -->
<g id="edge148" class="edge">
<title>Node2&#45;&gt;Node15</title>
<path fill="none" stroke="#191970" d="M1865.438,-848.4192C1608.7591,-845.1886 394.2781,-828.6487 229,-803 124.3323,-786.7571 0,-842.9205 0,-737 0,-737 0,-737 0,-401 0,-328.8558 97.4851,-293.0199 147.7612,-279.3354"/>
<polygon fill="#191970" stroke="#191970" points="148.9232,-282.6497 157.721,-276.7464 147.162,-275.8749 148.9232,-282.6497"/>
</g>
<!-- Node24 -->
<g id="node24" class="node">
<title>Node24</title>
<g id="a_node24"><a xlink:href="_s_b_m_l_error_log_8h.html" target="_top" xlink:title="Stores errors (and messages) encountered while processing SBML. ">
<polygon fill="#ffffff" stroke="#000000" points="983,-503.5 983,-522.5 1073,-522.5 1073,-503.5 983,-503.5"/>
<text text-anchor="middle" x="1028" y="-510.5" font-family="Helvetica,sans-Serif" font-size="10.00" fill="#000000">sbml/SBMLErrorLog.h</text>
</a>
</g>
</g>
<!-- Node2&#45;&gt;Node24 -->
<g id="edge41" class="edge">
<title>Node2&#45;&gt;Node24</title>
<path fill="none" stroke="#191970" d="M1865.1553,-845.0321C1735.4088,-833.6965 1379.611,-798.6283 1275,-747 1166.4722,-693.4387 1073.4499,-575.7269 1040.6293,-530.8556"/>
<polygon fill="#191970" stroke="#191970" points="1043.4077,-528.7245 1034.7177,-522.6635 1037.7313,-532.8207 1043.4077,-528.7245"/>
</g>
<!-- Node28 -->
<g id="node28" class="node">
<title>Node28</title>
<g id="a_node28"><a xlink:href="_s_base_8h.html" target="_top" xlink:title="Definition of SBase, the base object of all SBML objects. ">
<polygon fill="#ffffff" stroke="#000000" points="2198.5,-783.5 2198.5,-802.5 2261.5,-802.5 2261.5,-783.5 2198.5,-783.5"/>
<text text-anchor="middle" x="2230" y="-790.5" font-family="Helvetica,sans-Serif" font-size="10.00" fill="#000000">sbml/SBase.h</text>
</a>
</g>
</g>
<!-- Node2&#45;&gt;Node28 -->
<g id="edge54" class="edge">
<title>Node2&#45;&gt;Node28</title>
<path fill="none" stroke="#191970" d="M1960.8013,-840.5556C2022.6412,-829.6312 2129.3847,-810.7743 2188.1637,-800.3906"/>
<polygon fill="#191970" stroke="#191970" points="2188.9737,-803.8018 2198.2123,-798.6155 2187.7559,-796.9086 2188.9737,-803.8018"/>
</g>
<!-- Node50 -->
<g id="node50" class="node">
<title>Node50</title>
<g id="a_node50"><a xlink:href="_s_b_m_l_transforms_8h.html" target="_top" xlink:title="sbml/SBMLTransforms.h">
<polygon fill="#ffffff" stroke="#000000" points="1863.5,-783.5 1863.5,-802.5 1962.5,-802.5 1962.5,-783.5 1863.5,-783.5"/>
<text text-anchor="middle" x="1913" y="-790.5" font-family="Helvetica,sans-Serif" font-size="10.00" fill="#000000">sbml/SBMLTransforms.h</text>
</a>
</g>
</g>
<!-- Node2&#45;&gt;Node50 -->
<g id="edge147" class="edge">
<title>Node2&#45;&gt;Node50</title>
<path fill="none" stroke="#191970" d="M1913,-839.2455C1913,-831.9382 1913,-821.6944 1913,-812.7046"/>
<polygon fill="#191970" stroke="#191970" points="1916.5001,-812.6426 1913,-802.6427 1909.5001,-812.6427 1916.5001,-812.6426"/>
</g>
<!-- Node51 -->
<g id="node51" class="node">
<title>Node51</title>
<polygon fill="#ffffff" stroke="#bfbfbf" points="1980.5,-783.5 1980.5,-802.5 2011.5,-802.5 2011.5,-783.5 1980.5,-783.5"/>
<text text-anchor="middle" x="1996" y="-790.5" font-family="Helvetica,sans-Serif" font-size="10.00" fill="#000000">map</text>
</g>
<!-- Node2&#45;&gt;Node51 -->
<g id="edge149" class="edge">
<title>Node2&#45;&gt;Node51</title>
<path fill="none" stroke="#191970" d="M1927.4575,-839.2455C1940.0732,-830.7337 1958.5944,-818.2375 1973.2045,-808.3801"/>
<polygon fill="#191970" stroke="#191970" points="1975.3761,-811.1371 1981.7082,-802.6427 1971.4609,-805.3343 1975.3761,-811.1371"/>
</g>
<!-- Node4 -->
<g id="node4" class="node">
<title>Node4</title>
<g id="a_node4"><a xlink:href="libsbml-namespace_8h.html" target="_top" xlink:title="Defines C++ namespace of libSBML. ">
<polygon fill="#ffffff" stroke="#000000" points="1233.5,-.5 1233.5,-30.5 1322.5,-30.5 1322.5,-.5 1233.5,-.5"/>
<text text-anchor="start" x="1241.5" y="-18.5" font-family="Helvetica,sans-Serif" font-size="10.00" fill="#000000">sbml/common/libsbml</text>
<text text-anchor="middle" x="1278" y="-7.5" font-family="Helvetica,sans-Serif" font-size="10.00" fill="#000000">&#45;namespace.h</text>
</a>
</g>
</g>
<!-- Node3&#45;&gt;Node4 -->
<g id="edge3" class="edge">
<title>Node3&#45;&gt;Node4</title>
<path fill="none" stroke="#191970" d="M2167.9029,-73.9712C2011.4848,-63.6937 1501.3491,-30.1752 1332.6871,-19.0932"/>
<polygon fill="#191970" stroke="#191970" points="1332.7566,-15.5903 1322.5486,-18.4271 1332.2976,-22.5753 1332.7566,-15.5903"/>
</g>
<!-- Node5&#45;&gt;Node4 -->
<g id="edge5" class="edge">
<title>Node5&#45;&gt;Node4</title>
<path fill="none" stroke="#191970" d="M923.0146,-262.7391C976.9048,-225.2059 1171.5451,-89.6434 1247.4185,-36.7993"/>
<polygon fill="#191970" stroke="#191970" points="1249.8596,-39.3645 1256.0651,-30.7771 1245.8589,-33.6203 1249.8596,-39.3645"/>
</g>
<!-- Node6 -->
<g id="node6" class="node">
<title>Node6</title>
<g id="a_node6"><a xlink:href="libsbml-config_8h.html" target="_top" xlink:title="Decides whether to #include Unix or Windows configuration variables. ">
<polygon fill="#ffffff" stroke="#000000" points="2419.5,-190.5 2419.5,-220.5 2508.5,-220.5 2508.5,-190.5 2419.5,-190.5"/>
<text text-anchor="start" x="2427.5" y="-208.5" font-family="Helvetica,sans-Serif" font-size="10.00" fill="#000000">sbml/common/libsbml</text>
<text text-anchor="middle" x="2464" y="-197.5" font-family="Helvetica,sans-Serif" font-size="10.00" fill="#000000">&#45;config.h</text>
</a>
</g>
</g>
<!-- Node5&#45;&gt;Node6 -->
<g id="edge6" class="edge">
<title>Node5&#45;&gt;Node6</title>
<path fill="none" stroke="#191970" d="M949.0204,-262.9652C960.5658,-260.5888 973.2257,-258.3388 985,-257 1296.5122,-221.5782 2080.6059,-268.1126 2409.3367,-220.7483"/>
<polygon fill="#191970" stroke="#191970" points="2410.0322,-224.1833 2419.4061,-219.2457 2408.999,-217.26 2410.0322,-224.1833"/>
</g>
<!-- Node6&#45;&gt;Node4 -->
<g id="edge7" class="edge">
<title>Node6&#45;&gt;Node4</title>
<path fill="none" stroke="#191970" d="M2485.9123,-190.3068C2507.7769,-173.2903 2535.7526,-145.1886 2518,-123 2447.136,-34.4287 2381.3747,-82.4431 2269,-67 2085.7727,-41.8199 1512.8051,-22.6509 1332.7319,-17.1221"/>
<polygon fill="#191970" stroke="#191970" points="1332.797,-13.6226 1322.6948,-16.8156 1332.5832,-20.6193 1332.797,-13.6226"/>
</g>
<!-- Node7 -->
<g id="node7" class="node">
<title>Node7</title>
<g id="a_node7"><a xlink:href="libsbml-config-common_8h.html" target="_top" xlink:title="Configuration variables. ">
<polygon fill="#ffffff" stroke="#000000" points="2419.5,-123.5 2419.5,-153.5 2508.5,-153.5 2508.5,-123.5 2419.5,-123.5"/>
<text text-anchor="start" x="2427.5" y="-141.5" font-family="Helvetica,sans-Serif" font-size="10.00" fill="#000000">sbml/common/libsbml</text>
<text text-anchor="middle" x="2464" y="-130.5" font-family="Helvetica,sans-Serif" font-size="10.00" fill="#000000">&#45;config&#45;common.h</text>
</a>
</g>
</g>
<!-- Node6&#45;&gt;Node7 -->
<g id="edge8" class="edge">
<title>Node6&#45;&gt;Node7</title>
<path fill="none" stroke="#191970" d="M2464,-190.2967C2464,-182.5013 2464,-172.7991 2464,-163.9064"/>
<polygon fill="#191970" stroke="#191970" points="2467.5001,-163.6431 2464,-153.6432 2460.5001,-163.6432 2467.5001,-163.6431"/>
</g>
<!-- Node8 -->
<g id="node8" class="node">
<title>Node8</title>
<g id="a_node8"><a xlink:href="libsbml-version_8h.html" target="_top" xlink:title="Define libSBML version numbers for access from client software. ">
<polygon fill="#ffffff" stroke="#000000" points="2312.5,-123.5 2312.5,-153.5 2401.5,-153.5 2401.5,-123.5 2312.5,-123.5"/>
<text text-anchor="start" x="2320.5" y="-141.5" font-family="Helvetica,sans-Serif" font-size="10.00" fill="#000000">sbml/common/libsbml</text>
<text text-anchor="middle" x="2357" y="-130.5" font-family="Helvetica,sans-Serif" font-size="10.00" fill="#000000">&#45;version.h</text>
</a>
</g>
</g>
<!-- Node6&#45;&gt;Node8 -->
<g id="edge9" class="edge">
<title>Node6&#45;&gt;Node8</title>
<path fill="none" stroke="#191970" d="M2439.9871,-190.4639C2425.2225,-181.2188 2406.1005,-169.2452 2389.9339,-159.1222"/>
<polygon fill="#191970" stroke="#191970" points="2391.636,-156.0584 2381.303,-153.7177 2387.921,-161.9913 2391.636,-156.0584"/>
</g>
<!-- Node8&#45;&gt;Node3 -->
<g id="edge10" class="edge">
<title>Node8&#45;&gt;Node3</title>
<path fill="none" stroke="#191970" d="M2322.0183,-123.4554C2298.6816,-113.419 2268.2502,-100.3314 2245.637,-90.6061"/>
<polygon fill="#191970" stroke="#191970" points="2246.7292,-87.2659 2236.1599,-86.5303 2243.9636,-93.6965 2246.7292,-87.2659"/>
</g>
<!-- Node9&#45;&gt;Node3 -->
<g id="edge12" class="edge">
<title>Node9&#45;&gt;Node3</title>
<path fill="none" stroke="#191970" d="M1749,-447.2511C1749,-427.1182 1749,-379.4826 1749,-339.5 1749,-339.5 1749,-339.5 1749,-205.5 1749,-121.5913 2033.8566,-90.3122 2157.6642,-80.68"/>
<polygon fill="#191970" stroke="#191970" points="2158.0072,-84.1642 2167.714,-79.9183 2157.4781,-77.1842 2158.0072,-84.1642"/>
</g>
<!-- Node10 -->
<g id="node10" class="node">
<title>Node10</title>
<g id="a_node10"><a xlink:href="_x_m_l_error_8h.html" target="_top" xlink:title="Represents errors (and messages) encountered during an XML parse. ">
<polygon fill="#ffffff" stroke="#000000" points="1013.5,-330 1013.5,-349 1100.5,-349 1100.5,-330 1013.5,-330"/>
<text text-anchor="middle" x="1057" y="-337" font-family="Helvetica,sans-Serif" font-size="10.00" fill="#000000">sbml/xml/XMLError.h</text>
</a>
</g>
</g>
<!-- Node9&#45;&gt;Node10 -->
<g id="edge13" class="edge">
<title>Node9&#45;&gt;Node10</title>
<path fill="none" stroke="#191970" d="M1709.6438,-454.2617C1595.8605,-446.2447 1271.6235,-422.6554 1225,-411 1172.8851,-397.9718 1116.1468,-370.8594 1083.7446,-354.0192"/>
<polygon fill="#191970" stroke="#191970" points="1084.9807,-350.7144 1074.5021,-349.1497 1081.7178,-356.9075 1084.9807,-350.7144"/>
</g>
<!-- Node9&#45;&gt;Node18 -->
<g id="edge26" class="edge">
<title>Node9&#45;&gt;Node18</title>
<path fill="none" stroke="#191970" d="M1788.3597,-452.4647C1872.4719,-442.7728 2070.3406,-419.9731 2172.1129,-408.2462"/>
<polygon fill="#191970" stroke="#191970" points="2172.7165,-411.7 2182.2501,-407.0782 2171.9151,-404.746 2172.7165,-411.7"/>
</g>
<!-- Node10&#45;&gt;Node5 -->
<g id="edge17" class="edge">
<title>Node10&#45;&gt;Node5</title>
<path fill="none" stroke="#191970" d="M1035.7952,-329.9005C1010.5179,-318.4574 968.0916,-299.2509 939.3452,-286.2374"/>
<polygon fill="#191970" stroke="#191970" points="940.7189,-283.0173 930.1655,-282.0817 937.832,-289.3943 940.7189,-283.0173"/>
</g>
<!-- Node11 -->
<g id="node11" class="node">
<title>Node11</title>
<polygon fill="#ffffff" stroke="#bfbfbf" points="2261.5,-196 2261.5,-215 2300.5,-215 2300.5,-196 2261.5,-196"/>
<text text-anchor="middle" x="2281" y="-203" font-family="Helvetica,sans-Serif" font-size="10.00" fill="#000000">stdio.h</text>
</g>
<!-- Node10&#45;&gt;Node11 -->
<g id="edge14" class="edge">
<title>Node10&#45;&gt;Node11</title>
<path fill="none" stroke="#191970" d="M1100.4521,-329.9586C1181.2541,-312.5916 1360.2976,-275.8732 1513,-257 1798.9931,-221.6528 2148.1135,-209.313 2251.0809,-206.3008"/>
<polygon fill="#191970" stroke="#191970" points="2251.445,-209.7919 2261.341,-206.008 2251.2452,-202.7947 2251.445,-209.7919"/>
</g>
<!-- Node12 -->
<g id="node12" class="node">
<title>Node12</title>
<g id="a_node12"><a xlink:href="_x_m_l_extern_8h.html" target="_top" xlink:title="Defines LIBLAX_EXTERN. ">
<polygon fill="#ffffff" stroke="#000000" points="994,-263 994,-282 1086,-282 1086,-263 994,-263"/>
<text text-anchor="middle" x="1040" y="-270" font-family="Helvetica,sans-Serif" font-size="10.00" fill="#000000">sbml/xml/XMLExtern.h</text>
</a>
</g>
</g>
<!-- Node10&#45;&gt;Node12 -->
<g id="edge15" class="edge">
<title>Node10&#45;&gt;Node12</title>
<path fill="none" stroke="#191970" d="M1054.5643,-329.9005C1052.0648,-320.0495 1048.1055,-304.4451 1044.9455,-291.9912"/>
<polygon fill="#191970" stroke="#191970" points="1048.2831,-290.9137 1042.4312,-282.0817 1041.4981,-292.6353 1048.2831,-290.9137"/>
</g>
<!-- Node13 -->
<g id="node13" class="node">
<title>Node13</title>
<g id="a_node13"><a xlink:href="util_8h.html" target="_top" xlink:title="Utility functions. ">
<polygon fill="#ffffff" stroke="#000000" points="2308,-263 2308,-282 2370,-282 2370,-263 2308,-263"/>
<text text-anchor="middle" x="2339" y="-270" font-family="Helvetica,sans-Serif" font-size="10.00" fill="#000000">sbml/util/util.h</text>
</a>
</g>
</g>
<!-- Node10&#45;&gt;Node13 -->
<g id="edge18" class="edge">
<title>Node10&#45;&gt;Node13</title>
<path fill="none" stroke="#191970" d="M1100.5069,-333.449C1125.4781,-330.1826 1157.4492,-326.3496 1186,-324 1298.3896,-314.751 2104.7224,-281.944 2297.621,-274.1636"/>
<polygon fill="#191970" stroke="#191970" points="2298.044,-277.6495 2307.8949,-273.7495 2297.762,-270.6552 2298.044,-277.6495"/>
</g>
<!-- Node10&#45;&gt;Node15 -->
<g id="edge22" class="edge">
<title>Node10&#45;&gt;Node15</title>
<path fill="none" stroke="#191970" d="M1013.4158,-336.1291C971.9197,-332.9376 907.7111,-328.0458 852,-324 622.2708,-307.317 564.5287,-307.246 335,-288 290.2843,-284.2506 238.5415,-279.0013 206.7943,-275.6762"/>
<polygon fill="#191970" stroke="#191970" points="206.7548,-272.1528 196.4431,-274.586 206.0215,-279.1143 206.7548,-272.1528"/>
</g>
<!-- Node16 -->
<g id="node16" class="node">
<title>Node16</title>
<polygon fill="#ffffff" stroke="#bfbfbf" points="1883.5,-263 1883.5,-282 1918.5,-282 1918.5,-263 1883.5,-263"/>
<text text-anchor="middle" x="1901" y="-270" font-family="Helvetica,sans-Serif" font-size="10.00" fill="#000000">string</text>
</g>
<!-- Node10&#45;&gt;Node16 -->
<g id="edge23" class="edge">
<title>Node10&#45;&gt;Node16</title>
<path fill="none" stroke="#191970" d="M1100.5333,-333.7453C1125.5131,-330.5747 1157.4839,-326.7386 1186,-324 1453.2013,-298.3389 1777.6995,-279.3607 1873.2716,-274.02"/>
<polygon fill="#191970" stroke="#191970" points="1873.4947,-277.5131 1883.2851,-273.4637 1873.1063,-270.5239 1873.4947,-277.5131"/>
</g>
<!-- Node17 -->
<g id="node17" class="node">
<title>Node17</title>
<g id="a_node17"><a xlink:href="operation_return_values_8h.html" target="_top" xlink:title="Enumeration of values returned by operations within libSBML. ">
<polygon fill="#ffffff" stroke="#000000" points="343.5,-257.5 343.5,-287.5 462.5,-287.5 462.5,-257.5 343.5,-257.5"/>
<text text-anchor="start" x="351.5" y="-275.5" font-family="Helvetica,sans-Serif" font-size="10.00" fill="#000000">sbml/common/operationReturn</text>
<text text-anchor="middle" x="403" y="-264.5" font-family="Helvetica,sans-Serif" font-size="10.00" fill="#000000">Values.h</text>
</a>
</g>
</g>
<!-- Node10&#45;&gt;Node17 -->
<g id="edge24" class="edge">
<title>Node10&#45;&gt;Node17</title>
<path fill="none" stroke="#191970" d="M1013.3285,-335.026C902.312,-323.6528 608.531,-293.5559 473.1406,-279.6857"/>
<polygon fill="#191970" stroke="#191970" points="473.1921,-276.1727 462.8875,-278.6353 472.4787,-283.1363 473.1921,-276.1727"/>
</g>
<!-- Node12&#45;&gt;Node4 -->
<g id="edge16" class="edge">
<title>Node12&#45;&gt;Node4</title>
<path fill="none" stroke="#191970" d="M1049.0393,-262.7391C1083.4444,-225.5873 1206.7958,-92.3886 1256.7598,-38.4359"/>
<polygon fill="#191970" stroke="#191970" points="1259.6256,-40.4924 1263.8523,-30.7771 1254.4896,-35.7361 1259.6256,-40.4924"/>
</g>
<!-- Node13&#45;&gt;Node3 -->
<g id="edge21" class="edge">
<title>Node13&#45;&gt;Node3</title>
<path fill="none" stroke="#191970" d="M2336.8344,-262.8615C2332.9974,-246.9442 2324.0589,-214.4901 2310,-190 2288.1809,-151.9919 2252.9244,-114.5603 2231.7533,-93.7484"/>
<polygon fill="#191970" stroke="#191970" points="2234.0064,-91.0583 2224.3863,-86.6193 2229.1385,-96.0886 2234.0064,-91.0583"/>
</g>
<!-- Node13&#45;&gt;Node11 -->
<g id="edge19" class="edge">
<title>Node13&#45;&gt;Node11</title>
<path fill="none" stroke="#191970" d="M2330.69,-262.9005C2321.6454,-252.4525 2306.9983,-235.5325 2295.9445,-222.7635"/>
<polygon fill="#191970" stroke="#191970" points="2298.4858,-220.3515 2289.2946,-215.0817 2293.1934,-224.9331 2298.4858,-220.3515"/>
</g>
<!-- Node14 -->
<g id="node14" class="node">
<title>Node14</title>
<polygon fill="#ffffff" stroke="#bfbfbf" points="2357,-196 2357,-215 2401,-215 2401,-196 2357,-196"/>
<text text-anchor="middle" x="2379" y="-203" font-family="Helvetica,sans-Serif" font-size="10.00" fill="#000000">stdarg.h</text>
</g>
<!-- Node13&#45;&gt;Node14 -->
<g id="edge20" class="edge">
<title>Node13&#45;&gt;Node14</title>
<path fill="none" stroke="#191970" d="M2344.731,-262.9005C2350.7905,-252.751 2360.4961,-236.4941 2368.0341,-223.8679"/>
<polygon fill="#191970" stroke="#191970" points="2371.1586,-225.462 2373.2796,-215.0817 2365.1483,-221.8737 2371.1586,-225.462"/>
</g>
<!-- Node17&#45;&gt;Node3 -->
<g id="edge25" class="edge">
<title>Node17&#45;&gt;Node3</title>
<path fill="none" stroke="#191970" d="M405.3204,-257.2346C411.0223,-225.6955 428.9316,-153.7306 477,-123 513.226,-99.8404 1863.277,-81.4397 2157.6846,-77.6972"/>
<polygon fill="#191970" stroke="#191970" points="2157.7535,-81.1967 2167.7084,-77.5703 2157.6648,-74.1973 2157.7535,-81.1967"/>
</g>
<!-- Node18&#45;&gt;Node16 -->
<g id="edge39" class="edge">
<title>Node18&#45;&gt;Node16</title>
<path fill="none" stroke="#191970" d="M2229.9582,-391.3678C2220.6959,-374.7062 2199.2978,-340.6909 2171,-324 2130.0805,-299.8645 1989.4851,-282.1193 1929.0152,-275.424"/>
<polygon fill="#191970" stroke="#191970" points="1929.0182,-271.9038 1918.6987,-274.3034 1928.2622,-278.8629 1929.0182,-271.9038"/>
</g>
<!-- Node19 -->
<g id="node19" class="node">
<title>Node19</title>
<g id="a_node19"><a xlink:href="_x_m_l_namespaces_8h.html" target="_top" xlink:title="A list of XMLNamespace declarations (URI/prefix pairs) ">
<polygon fill="#ffffff" stroke="#000000" points="1195,-330 1195,-349 1309,-349 1309,-330 1195,-330"/>
<text text-anchor="middle" x="1252" y="-337" font-family="Helvetica,sans-Serif" font-size="10.00" fill="#000000">sbml/xml/XMLNamespaces.h</text>
</a>
</g>
</g>
<!-- Node18&#45;&gt;Node19 -->
<g id="edge27" class="edge">
<title>Node18&#45;&gt;Node19</title>
<path fill="none" stroke="#191970" d="M2182.4187,-399.9719C2045.9107,-396.929 1669.1245,-386.1442 1357,-355 1344.7022,-353.7729 1331.641,-352.1249 1319.0606,-350.3607"/>
<polygon fill="#191970" stroke="#191970" points="1319.4949,-346.8872 1309.0982,-348.9268 1318.4976,-353.8158 1319.4949,-346.8872"/>
</g>
<!-- Node21 -->
<g id="node21" class="node">
<title>Node21</title>
<g id="a_node21"><a xlink:href="common_8h.html" target="_top" xlink:title="Common functions and macros for C and C++. ">
<polygon fill="#ffffff" stroke="#000000" points="2515,-330 2515,-349 2615,-349 2615,-330 2515,-330"/>
<text text-anchor="middle" x="2565" y="-337" font-family="Helvetica,sans-Serif" font-size="10.00" fill="#000000">sbml/common/common.h</text>
</a>
</g>
</g>
<!-- Node18&#45;&gt;Node21 -->
<g id="edge33" class="edge">
<title>Node18&#45;&gt;Node21</title>
<path fill="none" stroke="#191970" d="M2287.7231,-393.4686C2342.527,-385.3089 2430.6636,-371.2562 2506,-355 2510.7944,-353.9654 2515.7851,-352.7979 2520.7441,-351.5794"/>
<polygon fill="#191970" stroke="#191970" points="2521.97,-354.8796 2530.8056,-349.0329 2520.2525,-348.0936 2521.97,-354.8796"/>
</g>
<!-- Node23 -->
<g id="node23" class="node">
<title>Node23</title>
<polygon fill="#ffffff" stroke="#bfbfbf" points="2299.5,-330 2299.5,-349 2348.5,-349 2348.5,-330 2299.5,-330"/>
<text text-anchor="middle" x="2324" y="-337" font-family="Helvetica,sans-Serif" font-size="10.00" fill="#000000">stdexcept</text>
</g>
<!-- Node18&#45;&gt;Node23 -->
<g id="edge40" class="edge">
<title>Node18&#45;&gt;Node23</title>
<path fill="none" stroke="#191970" d="M2248.9063,-391.3906C2263.0138,-381.6421 2285.0724,-366.3994 2301.6385,-354.9521"/>
<polygon fill="#191970" stroke="#191970" points="2303.9542,-357.6063 2310.1914,-349.0419 2299.9747,-351.8474 2303.9542,-357.6063"/>
</g>
<!-- Node19&#45;&gt;Node5 -->
<g id="edge29" class="edge">
<title>Node19&#45;&gt;Node5</title>
<path fill="none" stroke="#191970" d="M1201.7747,-329.9775C1148.0846,-319.7594 1060.4787,-302.9757 985,-288 978.6723,-286.7445 972.0513,-285.4161 965.4686,-284.0861"/>
<polygon fill="#191970" stroke="#191970" points="965.6993,-280.5617 955.2032,-282.0049 964.3084,-287.4221 965.6993,-280.5617"/>
</g>
<!-- Node19&#45;&gt;Node12 -->
<g id="edge28" class="edge">
<title>Node19&#45;&gt;Node12</title>
<path fill="none" stroke="#191970" d="M1221.6256,-329.9005C1184.3942,-318.134 1121.1901,-298.1591 1080.0243,-285.1492"/>
<polygon fill="#191970" stroke="#191970" points="1080.908,-281.7579 1070.3181,-282.0817 1078.7985,-288.4325 1080.908,-281.7579"/>
</g>
<!-- Node19&#45;&gt;Node16 -->
<g id="edge31" class="edge">
<title>Node19&#45;&gt;Node16</title>
<path fill="none" stroke="#191970" d="M1309.1466,-330.5113C1324.6516,-328.2236 1341.4508,-325.8824 1357,-324 1553.987,-300.1527 1792.2308,-280.8948 1872.8152,-274.6462"/>
<polygon fill="#191970" stroke="#191970" points="1873.4176,-278.1102 1883.1189,-273.8517 1872.8794,-271.1309 1873.4176,-278.1102"/>
</g>
<!-- Node19&#45;&gt;Node17 -->
<g id="edge30" class="edge">
<title>Node19&#45;&gt;Node17</title>
<path fill="none" stroke="#191970" d="M1194.7007,-332.7704C1168.8455,-329.8563 1137.9079,-326.5388 1110,-324 876.9427,-302.799 600.0325,-284.6793 473.0028,-276.7608"/>
<polygon fill="#191970" stroke="#191970" points="472.847,-273.2444 462.6491,-276.1173 472.4127,-280.231 472.847,-273.2444"/>
</g>
<!-- Node20 -->
<g id="node20" class="node">
<title>Node20</title>
<polygon fill="#ffffff" stroke="#bfbfbf" points="1521.5,-263 1521.5,-282 1558.5,-282 1558.5,-263 1521.5,-263"/>
<text text-anchor="middle" x="1540" y="-270" font-family="Helvetica,sans-Serif" font-size="10.00" fill="#000000">vector</text>
</g>
<!-- Node19&#45;&gt;Node20 -->
<g id="edge32" class="edge">
<title>Node19&#45;&gt;Node20</title>
<path fill="none" stroke="#191970" d="M1292.9575,-329.9717C1352.2346,-316.1815 1460.4319,-291.0106 1511.6623,-279.0924"/>
<polygon fill="#191970" stroke="#191970" points="1512.4581,-282.5009 1521.4049,-276.8259 1510.8719,-275.6829 1512.4581,-282.5009"/>
</g>
<!-- Node21&#45;&gt;Node3 -->
<g id="edge36" class="edge">
<title>Node21&#45;&gt;Node3</title>
<path fill="none" stroke="#191970" d="M2555.1683,-329.9002C2546.0219,-320.2663 2532.9389,-304.5211 2527,-288 2502.1558,-218.8875 2567.3886,-177.3557 2518,-123 2501.589,-104.9385 2353.4961,-89.208 2270.2285,-81.6948"/>
<polygon fill="#191970" stroke="#191970" points="2270.4332,-78.1992 2260.162,-80.798 2269.812,-85.1716 2270.4332,-78.1992"/>
</g>
<!-- Node21&#45;&gt;Node6 -->
<g id="edge34" class="edge">
<title>Node21&#45;&gt;Node6</title>
<path fill="none" stroke="#191970" d="M2545.6301,-329.9821C2529.4788,-321.1417 2506.9323,-306.5588 2493,-288 2480.3191,-271.1082 2472.8562,-248.2103 2468.6851,-230.8234"/>
<polygon fill="#191970" stroke="#191970" points="2472.0516,-229.8342 2466.4961,-220.8127 2465.2131,-231.3295 2472.0516,-229.8342"/>
</g>
<!-- Node21&#45;&gt;Node11 -->
<g id="edge35" class="edge">
<title>Node21&#45;&gt;Node11</title>
<path fill="none" stroke="#191970" d="M2544.5754,-329.8631C2494.9207,-306.4344 2367.7367,-246.4251 2310.1315,-219.2451"/>
<polygon fill="#191970" stroke="#191970" points="2311.3984,-215.9729 2300.861,-214.871 2308.4113,-222.3036 2311.3984,-215.9729"/>
</g>
<!-- Node21&#45;&gt;Node13 -->
<g id="edge38" class="edge">
<title>Node21&#45;&gt;Node13</title>
<path fill="none" stroke="#191970" d="M2532.6197,-329.9005C2492.4222,-317.9836 2423.8241,-297.647 2379.9956,-284.6536"/>
<polygon fill="#191970" stroke="#191970" points="2380.812,-281.2451 2370.2296,-281.7583 2378.8224,-287.9564 2380.812,-281.2451"/>
</g>
<!-- Node22 -->
<g id="node22" class="node">
<title>Node22</title>
<g id="a_node22"><a xlink:href="memory_8h.html" target="_top" xlink:title="sbml/util/memory.h">
<polygon fill="#ffffff" stroke="#000000" points="2535.5,-263 2535.5,-282 2614.5,-282 2614.5,-263 2535.5,-263"/>
<text text-anchor="middle" x="2575" y="-270" font-family="Helvetica,sans-Serif" font-size="10.00" fill="#000000">sbml/util/memory.h</text>
</a>
</g>
</g>
<!-- Node21&#45;&gt;Node22 -->
<g id="edge37" class="edge">
<title>Node21&#45;&gt;Node22</title>
<path fill="none" stroke="#191970" d="M2566.4328,-329.9005C2567.9031,-320.0495 2570.2321,-304.4451 2572.0909,-291.9912"/>
<polygon fill="#191970" stroke="#191970" points="2575.5553,-292.4888 2573.5699,-282.0817 2568.632,-291.4554 2575.5553,-292.4888"/>
</g>
<!-- Node24&#45;&gt;Node3 -->
<g id="edge42" class="edge">
<title>Node24&#45;&gt;Node3</title>
<path fill="none" stroke="#191970" d="M1010.0776,-503.328C993.1908,-494.1534 967.2333,-479.8919 945,-467 930.1637,-458.3972 927.9617,-453.2727 912,-447 838.5006,-418.1161 800.2519,-459.5916 738,-411 706.0855,-386.0887 689.4184,-358.2541 711,-324 829.578,-135.7945 712.3376,-240.5299 1659,-123 1840.6302,-100.4503 2057.1167,-86.097 2157.5956,-80.1485"/>
<polygon fill="#191970" stroke="#191970" points="2158.0428,-83.6283 2167.8206,-79.5485 2157.6327,-76.6404 2158.0428,-83.6283"/>
</g>
<!-- Node24&#45;&gt;Node9 -->
<g id="edge52" class="edge">
<title>Node24&#45;&gt;Node9</title>
<path fill="none" stroke="#191970" d="M1073.021,-504.265C1076.0538,-503.7995 1079.0678,-503.3714 1082,-503 1142.6649,-495.3165 1555.4009,-469.1138 1699.4878,-460.0863"/>
<polygon fill="#191970" stroke="#191970" points="1700.0289,-463.5593 1709.7907,-459.4414 1699.5915,-456.573 1700.0289,-463.5593"/>
</g>
<!-- Node24&#45;&gt;Node10 -->
<g id="edge43" class="edge">
<title>Node24&#45;&gt;Node10</title>
<path fill="none" stroke="#191970" d="M1029.6005,-503.4248C1034.1846,-475.999 1047.4338,-396.732 1053.6744,-359.3964"/>
<polygon fill="#191970" stroke="#191970" points="1057.1722,-359.6997 1055.3687,-349.2595 1050.2679,-358.5457 1057.1722,-359.6997"/>
</g>
<!-- Node24&#45;&gt;Node20 -->
<g id="edge53" class="edge">
<title>Node24&#45;&gt;Node20</title>
<path fill="none" stroke="#191970" d="M1073.004,-503.7168C1123.2368,-493.1843 1201.2451,-476.2709 1230,-467 1351.6962,-427.7639 1400.2025,-440.8072 1495,-355 1514.1104,-337.702 1526.7723,-310.3323 1533.6663,-291.9111"/>
<polygon fill="#191970" stroke="#191970" points="1537.0505,-292.8376 1537.0641,-282.2428 1530.4464,-290.5167 1537.0505,-292.8376"/>
</g>
<!-- Node25 -->
<g id="node25" class="node">
<title>Node25</title>
<g id="a_node25"><a xlink:href="_x_m_l_error_log_8h.html" target="_top" xlink:title="Stores errors (and messages) encountered while processing XML. ">
<polygon fill="#ffffff" stroke="#000000" points="822.5,-391.5 822.5,-410.5 921.5,-410.5 921.5,-391.5 822.5,-391.5"/>
<text text-anchor="middle" x="872" y="-398.5" font-family="Helvetica,sans-Serif" font-size="10.00" fill="#000000">sbml/xml/XMLErrorLog.h</text>
</a>
</g>
</g>
<!-- Node24&#45;&gt;Node25 -->
<g id="edge44" class="edge">
<title>Node24&#45;&gt;Node25</title>
<path fill="none" stroke="#191970" d="M1016.7588,-503.4103C1001.0805,-490.1879 971.5769,-465.855 945,-447 929.4656,-435.9791 911.3542,-424.5583 897.0579,-415.8535"/>
<polygon fill="#191970" stroke="#191970" points="898.6498,-412.7263 888.2795,-410.5569 895.0335,-418.7199 898.6498,-412.7263"/>
</g>
<!-- Node25&#45;&gt;Node5 -->
<g id="edge47" class="edge">
<title>Node25&#45;&gt;Node5</title>
<path fill="none" stroke="#191970" d="M874.781,-391.3416C880.8344,-370.3184 895.3057,-320.0598 903.3553,-292.1038"/>
<polygon fill="#191970" stroke="#191970" points="906.783,-292.8485 906.1867,-282.2705 900.0563,-290.9116 906.783,-292.8485"/>
</g>
<!-- Node25&#45;&gt;Node10 -->
<g id="edge46" class="edge">
<title>Node25&#45;&gt;Node10</title>
<path fill="none" stroke="#191970" d="M900.9063,-391.3906C932.539,-380.8749 983.403,-363.966 1018.4229,-352.3243"/>
<polygon fill="#191970" stroke="#191970" points="1019.9115,-355.5178 1028.2967,-349.0419 1017.7032,-348.8753 1019.9115,-355.5178"/>
</g>
<!-- Node25&#45;&gt;Node12 -->
<g id="edge45" class="edge">
<title>Node25&#45;&gt;Node12</title>
<path fill="none" stroke="#191970" d="M824.6146,-391.4227C776.7875,-379.6664 713.735,-357.1237 742,-324 775.0108,-285.3146 918.0124,-297.3548 968,-288 974.2684,-286.8269 980.8272,-285.5226 987.3253,-284.1827"/>
<polygon fill="#191970" stroke="#191970" points="988.3678,-287.5403 997.4362,-282.0616 986.9306,-280.6894 988.3678,-287.5403"/>
</g>
<!-- Node25&#45;&gt;Node16 -->
<g id="edge49" class="edge">
<title>Node25&#45;&gt;Node16</title>
<path fill="none" stroke="#191970" d="M921.602,-400.1007C1045.0876,-397.3908 1363.5546,-387.3812 1464,-355 1489.2461,-346.8613 1489.9876,-332.831 1515,-324 1581.3832,-300.5625 1795.2124,-281.1758 1872.6589,-274.7599"/>
<polygon fill="#191970" stroke="#191970" points="1873.3809,-278.2126 1883.062,-273.9085 1872.8098,-271.236 1873.3809,-278.2126"/>
</g>
<!-- Node25&#45;&gt;Node20 -->
<g id="edge50" class="edge">
<title>Node25&#45;&gt;Node20</title>
<path fill="none" stroke="#191970" d="M921.6026,-399.3803C1022.3083,-395.5257 1247.1824,-383.8776 1318,-355 1338.503,-346.6394 1337.2887,-334.0863 1357,-324 1408.0771,-297.8637 1474.1711,-283.4758 1511.3342,-276.9326"/>
<polygon fill="#191970" stroke="#191970" points="1512.1758,-280.34 1521.4516,-275.2205 1511.0078,-273.4382 1512.1758,-280.34"/>
</g>
<!-- Node26 -->
<g id="node26" class="node">
<title>Node26</title>
<polygon fill="#ffffff" stroke="#bfbfbf" points="750.5,-330 750.5,-349 795.5,-349 795.5,-330 750.5,-330"/>
<text text-anchor="middle" x="773" y="-337" font-family="Helvetica,sans-Serif" font-size="10.00" fill="#000000">iostream</text>
</g>
<!-- Node25&#45;&gt;Node26 -->
<g id="edge48" class="edge">
<title>Node25&#45;&gt;Node26</title>
<path fill="none" stroke="#191970" d="M856.5313,-391.3906C840.5479,-381.4616 815.3897,-365.833 796.8567,-354.3201"/>
<polygon fill="#191970" stroke="#191970" points="798.7015,-351.3457 788.3601,-349.0419 795.0076,-357.2918 798.7015,-351.3457"/>
</g>
<!-- Node27 -->
<g id="node27" class="node">
<title>Node27</title>
<polygon fill="#ffffff" stroke="#bfbfbf" points="813.5,-330 813.5,-349 842.5,-349 842.5,-330 813.5,-330"/>
<text text-anchor="middle" x="828" y="-337" font-family="Helvetica,sans-Serif" font-size="10.00" fill="#000000">list</text>
</g>
<!-- Node25&#45;&gt;Node27 -->
<g id="edge51" class="edge">
<title>Node25&#45;&gt;Node27</title>
<path fill="none" stroke="#191970" d="M865.125,-391.3906C858.6407,-382.3273 848.7586,-368.5149 840.8199,-357.4188"/>
<polygon fill="#191970" stroke="#191970" points="843.6371,-355.3412 834.9719,-349.2449 837.9441,-359.4143 843.6371,-355.3412"/>
</g>
<!-- Node28&#45;&gt;Node3 -->
<g id="edge55" class="edge">
<title>Node28&#45;&gt;Node3</title>
<path fill="none" stroke="#191970" d="M2261.7952,-791.4158C2356.9471,-786.461 2638.3476,-770.1932 2727,-747 2796.6769,-728.7711 2875,-753.0219 2875,-681 2875,-681 2875,-681 2875,-205.5 2875,-187.8495 2934.2784,-186.4488 2760,-123 2671.1894,-90.6671 2391.2874,-80.8134 2270.4541,-78.0223"/>
<polygon fill="#191970" stroke="#191970" points="2270.3784,-74.5199 2260.3028,-77.7959 2270.2222,-81.5181 2270.3784,-74.5199"/>
</g>
<!-- Node28&#45;&gt;Node5 -->
<g id="edge56" class="edge">
<title>Node28&#45;&gt;Node5</title>
<path fill="none" stroke="#191970" d="M2198.4955,-791.2965C2157.5919,-789.1298 2083.9809,-785.3839 2021,-783 1446.966,-761.2719 1301.9538,-788.3655 729,-747 602.9189,-737.8973 164,-807.4093 164,-681 164,-681 164,-681 164,-569 164,-404.3101 289.9971,-387.3867 442,-324 514.2023,-293.8909 740.3816,-279.9892 849.2635,-274.9108"/>
<polygon fill="#191970" stroke="#191970" points="849.5953,-278.3994 859.4251,-274.4466 849.2758,-271.4067 849.5953,-278.3994"/>
</g>
<!-- Node28&#45;&gt;Node10 -->
<g id="edge143" class="edge">
<title>Node28&#45;&gt;Node10</title>
<path fill="none" stroke="#191970" d="M2218.6723,-783.3445C2155.4998,-729.5804 1847.7391,-468.7634 1797,-447 1765.2963,-433.4014 1275.9681,-368.2591 1110.9003,-346.5541"/>
<polygon fill="#191970" stroke="#191970" points="1110.8756,-343.0208 1100.5048,-345.1882 1109.9637,-349.9612 1110.8756,-343.0208"/>
</g>
<!-- Node28&#45;&gt;Node16 -->
<g id="edge144" class="edge">
<title>Node28&#45;&gt;Node16</title>
<path fill="none" stroke="#191970" d="M2225.2459,-783.095C2208.6076,-747.4891 2154,-622.3028 2154,-513 2154,-513 2154,-513 2154,-457 2154,-397.4627 2178.0694,-368.0356 2138,-324 2110.1133,-293.3529 1985.0224,-279.3894 1928.6734,-274.5709"/>
<polygon fill="#191970" stroke="#191970" points="1928.9322,-271.0805 1918.6795,-273.7512 1928.3599,-278.0571 1928.9322,-271.0805"/>
</g>
<!-- Node28&#45;&gt;Node18 -->
<g id="edge124" class="edge">
<title>Node28&#45;&gt;Node18</title>
<path fill="none" stroke="#191970" d="M2230,-783.4116C2230,-764.0538 2230,-718.9167 2230,-681 2230,-681 2230,-681 2230,-513 2230,-480.6794 2232.1037,-443.1646 2233.582,-420.7929"/>
<polygon fill="#191970" stroke="#191970" points="2237.0898,-420.7984 2234.2836,-410.5819 2230.1063,-420.3185 2237.0898,-420.7984"/>
</g>
<!-- Node28&#45;&gt;Node23 -->
<g id="edge145" class="edge">
<title>Node28&#45;&gt;Node23</title>
<path fill="none" stroke="#191970" d="M2261.8017,-788.9425C2315.8901,-780.0676 2420,-753.5607 2420,-681 2420,-681 2420,-681 2420,-513 2420,-448.4934 2368.5659,-385.4635 2340.9936,-356.3093"/>
<polygon fill="#191970" stroke="#191970" points="2343.3879,-353.7508 2333.9121,-349.0115 2338.3642,-358.6256 2343.3879,-353.7508"/>
</g>
<!-- Node29 -->
<g id="node29" class="node">
<title>Node29</title>
<g id="a_node29"><a xlink:href="_s_b_m_l_type_codes_8h.html" target="_top" xlink:title="Enumeration to identify SBML objects at runtime. ">
<polygon fill="#ffffff" stroke="#000000" points="2709.5,-263 2709.5,-282 2808.5,-282 2808.5,-263 2709.5,-263"/>
<text text-anchor="middle" x="2759" y="-270" font-family="Helvetica,sans-Serif" font-size="10.00" fill="#000000">sbml/SBMLTypeCodes.h</text>
</a>
</g>
</g>
<!-- Node28&#45;&gt;Node29 -->
<g id="edge57" class="edge">
<title>Node28&#45;&gt;Node29</title>
<path fill="none" stroke="#191970" d="M2261.5521,-791.4724C2349.5497,-786.9362 2596.2481,-772.2633 2673,-747 2727.8812,-728.9356 2785,-738.7778 2785,-681 2785,-681 2785,-681 2785,-401 2785,-361.5442 2773.0785,-316.603 2765.3806,-291.6964"/>
<polygon fill="#191970" stroke="#191970" points="2768.6719,-290.4974 2762.2929,-282.0381 2762.0043,-292.629 2768.6719,-290.4974"/>
</g>
<!-- Node30 -->
<g id="node30" class="node">
<title>Node30</title>
<g id="a_node30"><a xlink:href="_r_d_f_annotation_8h.html" target="_top" xlink:title="RDFAnnotation I/O. ">
<polygon fill="#ffffff" stroke="#000000" points="1283.5,-727.5 1283.5,-746.5 1412.5,-746.5 1412.5,-727.5 1283.5,-727.5"/>
<text text-anchor="middle" x="1348" y="-734.5" font-family="Helvetica,sans-Serif" font-size="10.00" fill="#000000">sbml/annotation/RDFAnnotation.h</text>
</a>
</g>
</g>
<!-- Node28&#45;&gt;Node30 -->
<g id="edge60" class="edge">
<title>Node28&#45;&gt;Node30</title>
<path fill="none" stroke="#191970" d="M2198.3491,-790.9904C2072.5816,-783.0052 1606.14,-753.3898 1422.7443,-741.7457"/>
<polygon fill="#191970" stroke="#191970" points="1422.8522,-738.2456 1412.6504,-741.1048 1422.4085,-745.2315 1422.8522,-738.2456"/>
</g>
<!-- Node35 -->
<g id="node35" class="node">
<title>Node35</title>
<g id="a_node35"><a xlink:href="_list_8h.html" target="_top" xlink:title="Simple, generic list utility class. ">
<polygon fill="#ffffff" stroke="#000000" points="472,-503.5 472,-522.5 536,-522.5 536,-503.5 472,-503.5"/>
<text text-anchor="middle" x="504" y="-510.5" font-family="Helvetica,sans-Serif" font-size="10.00" fill="#000000">sbml/util/List.h</text>
</a>
</g>
</g>
<!-- Node28&#45;&gt;Node35 -->
<g id="edge123" class="edge">
<title>Node28&#45;&gt;Node35</title>
<path fill="none" stroke="#191970" d="M2198.4946,-791.3214C2157.5899,-789.1813 2083.9778,-785.4639 2021,-783 1757.9685,-772.7094 1095.9929,-794.0547 837,-747 685.439,-719.4639 641.4493,-713.6522 509,-635 471.759,-612.8853 429.4904,-598.158 448,-559 454.0246,-546.2547 465.5032,-535.8542 476.5074,-528.1874"/>
<polygon fill="#191970" stroke="#191970" points="478.6121,-530.9948 485.1176,-522.6324 474.8172,-525.1127 478.6121,-530.9948"/>
</g>
<!-- Node37 -->
<g id="node37" class="node">
<title>Node37</title>
<g id="a_node37"><a xlink:href="_x_m_l_node_8h.html" target="_top" xlink:title="Class definition of XMLNode, a node in an XML document tree. ">
<polygon fill="#ffffff" stroke="#000000" points="1091,-503.5 1091,-522.5 1179,-522.5 1179,-503.5 1091,-503.5"/>
<text text-anchor="middle" x="1135" y="-510.5" font-family="Helvetica,sans-Serif" font-size="10.00" fill="#000000">sbml/xml/XMLNode.h</text>
</a>
</g>
</g>
<!-- Node28&#45;&gt;Node37 -->
<g id="edge142" class="edge">
<title>Node28&#45;&gt;Node37</title>
<path fill="none" stroke="#191970" d="M2207.6752,-783.4946C2188.9123,-775.0668 2161.7519,-761.8214 2140,-747 2097.8468,-718.2775 2099.9968,-693.0493 2054,-671 1898.0639,-596.2495 1362.3847,-536.2263 1189.3609,-518.4074"/>
<polygon fill="#191970" stroke="#191970" points="1189.522,-514.9057 1179.2174,-517.3684 1188.8087,-521.8692 1189.522,-514.9057"/>
</g>
<!-- Node45 -->
<g id="node45" class="node">
<title>Node45</title>
<g id="a_node45"><a xlink:href="_c_v_term_8h.html" target="_top" xlink:title="Definition of a CVTerm class for adding annotations to a Model. ">
<polygon fill="#ffffff" stroke="#000000" points="767,-503.5 767,-522.5 873,-522.5 873,-503.5 767,-503.5"/>
<text text-anchor="middle" x="820" y="-510.5" font-family="Helvetica,sans-Serif" font-size="10.00" fill="#000000">sbml/annotation/CVTerm.h</text>
</a>
</g>
</g>
<!-- Node28&#45;&gt;Node45 -->
<g id="edge113" class="edge">
<title>Node28&#45;&gt;Node45</title>
<path fill="none" stroke="#191970" d="M2198.4367,-791.4893C2033.8062,-783.6086 1280.8876,-747.5523 1275,-747 1169.5536,-737.1087 803,-786.9093 803,-681 803,-681 803,-681 803,-625 803,-592.192 810.2185,-554.584 815.248,-532.3624"/>
<polygon fill="#191970" stroke="#191970" points="818.6816,-533.0502 817.5643,-522.5144 811.8676,-531.4474 818.6816,-533.0502"/>
</g>
<!-- Node46 -->
<g id="node46" class="node">
<title>Node46</title>
<g id="a_node46"><a xlink:href="_syntax_checker_8h.html" target="_top" xlink:title="Syntax checking functions. ">
<polygon fill="#ffffff" stroke="#000000" points="2405,-330 2405,-349 2497,-349 2497,-330 2405,-330"/>
<text text-anchor="middle" x="2451" y="-337" font-family="Helvetica,sans-Serif" font-size="10.00" fill="#000000">sbml/SyntaxChecker.h</text>
</a>
</g>
</g>
<!-- Node28&#45;&gt;Node46 -->
<g id="edge125" class="edge">
<title>Node28&#45;&gt;Node46</title>
<path fill="none" stroke="#191970" d="M2261.8244,-790.2027C2352.3743,-781.8166 2604,-752.8757 2604,-681 2604,-681 2604,-681 2604,-457 2604,-424.712 2518.6079,-377.3721 2475.2615,-353.8558"/>
<polygon fill="#191970" stroke="#191970" points="2476.9088,-350.7677 2466.4493,-349.0794 2473.5731,-356.9218 2476.9088,-350.7677"/>
</g>
<!-- Node47 -->
<g id="node47" class="node">
<title>Node47</title>
<g id="a_node47"><a xlink:href="_s_b_m_l_constructor_exception_8h.html" target="_top" xlink:title="Definition of SBMLConstructorException, the exception class for constructor exceptions. ">
<polygon fill="#ffffff" stroke="#000000" points="2258.5,-447.5 2258.5,-466.5 2391.5,-466.5 2391.5,-447.5 2258.5,-447.5"/>
<text text-anchor="middle" x="2325" y="-454.5" font-family="Helvetica,sans-Serif" font-size="10.00" fill="#000000">sbml/SBMLConstructorException.h</text>
</a>
</g>
</g>
<!-- Node28&#45;&gt;Node47 -->
<g id="edge130" class="edge">
<title>Node28&#45;&gt;Node47</title>
<path fill="none" stroke="#191970" d="M2240.7647,-783.3752C2259.7041,-765.322 2297,-724.2769 2297,-681 2297,-681 2297,-681 2297,-569 2297,-535.5848 2308.8754,-498.1911 2317.1585,-476.1729"/>
<polygon fill="#191970" stroke="#191970" points="2320.4868,-477.2719 2320.8685,-466.6839 2313.9674,-474.7229 2320.4868,-477.2719"/>
</g>
<!-- Node48 -->
<g id="node48" class="node">
<title>Node48</title>
<polygon fill="#ffffff" stroke="#bfbfbf" points="2709.5,-330 2709.5,-349 2756.5,-349 2756.5,-330 2709.5,-330"/>
<text text-anchor="middle" x="2733" y="-337" font-family="Helvetica,sans-Serif" font-size="10.00" fill="#000000">algorithm</text>
</g>
<!-- Node28&#45;&gt;Node48 -->
<g id="edge146" class="edge">
<title>Node28&#45;&gt;Node48</title>
<path fill="none" stroke="#191970" d="M2261.8222,-792.4871C2369.7217,-789.9002 2715,-774.3308 2715,-681 2715,-681 2715,-681 2715,-457 2715,-422.2391 2722.7924,-382.3538 2728.123,-359.1357"/>
<polygon fill="#191970" stroke="#191970" points="2731.5838,-359.711 2730.4972,-349.1721 2724.7745,-358.0884 2731.5838,-359.711"/>
</g>
<!-- Node49 -->
<g id="node49" class="node">
<title>Node49</title>
<g id="a_node49"><a xlink:href="_expected_attributes_8h.html" target="_top" xlink:title="Definition of ExpectedAttributes, the class allowing the specification of attributes to expect...">
<polygon fill="#ffffff" stroke="#000000" points="2434,-391.5 2434,-410.5 2538,-410.5 2538,-391.5 2434,-391.5"/>
<text text-anchor="middle" x="2486" y="-398.5" font-family="Helvetica,sans-Serif" font-size="10.00" fill="#000000">sbml/ExpectedAttributes.h</text>
</a>
</g>
</g>
<!-- Node28&#45;&gt;Node49 -->
<g id="edge136" class="edge">
<title>Node28&#45;&gt;Node49</title>
<path fill="none" stroke="#191970" d="M2261.7251,-789.0007C2311.9574,-782.1556 2406.892,-766.9769 2434,-747 2461.2482,-726.9198 2472,-714.8479 2472,-681 2472,-681 2472,-681 2472,-513 2472,-480.311 2477.9446,-442.6669 2482.0866,-420.4058"/>
<polygon fill="#191970" stroke="#191970" points="2485.5324,-421.0207 2483.9941,-410.5381 2478.6597,-419.692 2485.5324,-421.0207"/>
</g>
<!-- Node29&#45;&gt;Node3 -->
<g id="edge59" class="edge">
<title>Node29&#45;&gt;Node3</title>
<path fill="none" stroke="#191970" d="M2758.1389,-262.7522C2755.154,-235.4239 2742.6508,-157.8032 2695,-123 2661.3473,-98.4207 2390.1376,-84.2838 2270.4324,-79.1873"/>
<polygon fill="#191970" stroke="#191970" points="2270.4994,-75.6871 2260.3614,-78.7647 2270.2059,-82.681 2270.4994,-75.6871"/>
</g>
<!-- Node29&#45;&gt;Node6 -->
<g id="edge58" class="edge">
<title>Node29&#45;&gt;Node6</title>
<path fill="none" stroke="#191970" d="M2717.047,-262.9717C2664.9758,-251.1454 2576.0511,-230.9489 2518.6821,-217.9193"/>
<polygon fill="#191970" stroke="#191970" points="2519.2315,-214.455 2508.7046,-215.6532 2517.6811,-221.2812 2519.2315,-214.455"/>
</g>
<!-- Node31 -->
<g id="node31" class="node">
<title>Node31</title>
<g id="a_node31"><a xlink:href="_r_d_f_annotation_parser_8h.html" target="_top" xlink:title="RDFAnnotationParser.h">
<polygon fill="#ffffff" stroke="#000000" points="970,-671.5 970,-690.5 1066,-690.5 1066,-671.5 970,-671.5"/>
<text text-anchor="middle" x="1018" y="-678.5" font-family="Helvetica,sans-Serif" font-size="10.00" fill="#000000">RDFAnnotationParser.h</text>
</a>
</g>
</g>
<!-- Node30&#45;&gt;Node31 -->
<g id="edge61" class="edge">
<title>Node30&#45;&gt;Node31</title>
<path fill="none" stroke="#191970" d="M1291.6459,-727.4369C1231.6095,-717.2489 1137.0275,-701.1986 1076.2686,-690.888"/>
<polygon fill="#191970" stroke="#191970" points="1076.5212,-687.3809 1066.0765,-689.1584 1075.35,-694.2822 1076.5212,-687.3809"/>
</g>
<!-- Node31&#45;&gt;Node3 -->
<g id="edge62" class="edge">
<title>Node31&#45;&gt;Node3</title>
<path fill="none" stroke="#191970" d="M1066.3879,-678.961C1198.6587,-673.1788 1564.2979,-655.7441 1683,-635 1772.6654,-619.3303 1797.1514,-616.7032 1880,-579 1968.896,-538.5447 2195,-370.1684 2195,-272.5 2195,-272.5 2195,-272.5 2195,-205.5 2195,-166.5827 2203.6339,-121.7416 2209.2614,-96.6479"/>
<polygon fill="#191970" stroke="#191970" points="2212.7419,-97.1325 2211.5936,-86.6001 2205.9232,-95.5497 2212.7419,-97.1325"/>
</g>
<!-- Node31&#45;&gt;Node5 -->
<g id="edge63" class="edge">
<title>Node31&#45;&gt;Node5</title>
<path fill="none" stroke="#191970" d="M969.9928,-679.9088C859.9759,-676.8881 592.6802,-666.4461 509,-635 447.6291,-611.9375 423.6747,-587.6863 413,-523 397.5849,-429.5884 406.8905,-371.1316 489,-324 549.0572,-289.5266 748.4355,-277.8977 849.3646,-274.1626"/>
<polygon fill="#191970" stroke="#191970" points="849.5363,-277.6588 859.4053,-273.805 849.2871,-270.6632 849.5363,-277.6588"/>
</g>
<!-- Node31&#45;&gt;Node16 -->
<g id="edge110" class="edge">
<title>Node31&#45;&gt;Node16</title>
<path fill="none" stroke="#191970" d="M1066.2142,-680.1936C1260.683,-675.6636 1977,-646.1406 1977,-457 1977,-457 1977,-457 1977,-401 1977,-355.7888 1941.7147,-312.5297 1919.2296,-289.5531"/>
<polygon fill="#191970" stroke="#191970" points="1921.4629,-286.8396 1911.8889,-282.3019 1916.5436,-291.8196 1921.4629,-286.8396"/>
</g>
<!-- Node32 -->
<g id="node32" class="node">
<title>Node32</title>
<g id="a_node32"><a xlink:href="_x_m_l_attributes_8h.html" target="_top" xlink:title="XMLAttributes are a list of name/value pairs for XML elements. ">
<polygon fill="#ffffff" stroke="#000000" points="1234,-391.5 1234,-410.5 1336,-410.5 1336,-391.5 1234,-391.5"/>
<text text-anchor="middle" x="1285" y="-398.5" font-family="Helvetica,sans-Serif" font-size="10.00" fill="#000000">sbml/xml/XMLAttributes.h</text>
</a>
</g>
</g>
<!-- Node31&#45;&gt;Node32 -->
<g id="edge64" class="edge">
<title>Node31&#45;&gt;Node32</title>
<path fill="none" stroke="#191970" d="M1060.2675,-671.4397C1180.0635,-643.3933 1517.1077,-557.5899 1578,-467 1582.9588,-459.6228 1583.7774,-453.7553 1578,-447 1563.1362,-429.6205 1427.8019,-414.2099 1346.3567,-406.405"/>
<polygon fill="#191970" stroke="#191970" points="1346.501,-402.9031 1336.2158,-405.4457 1345.8417,-409.872 1346.501,-402.9031"/>
</g>
<!-- Node34 -->
<g id="node34" class="node">
<title>Node34</title>
<g id="a_node34"><a xlink:href="_model_history_8h.html" target="_top" xlink:title="ModelHistory I/O. ">
<polygon fill="#ffffff" stroke="#000000" points="518,-615.5 518,-634.5 640,-634.5 640,-615.5 518,-615.5"/>
<text text-anchor="middle" x="579" y="-622.5" font-family="Helvetica,sans-Serif" font-size="10.00" fill="#000000">sbml/annotation/ModelHistory.h</text>
</a>
</g>
</g>
<!-- Node31&#45;&gt;Node34 -->
<g id="edge75" class="edge">
<title>Node31&#45;&gt;Node34</title>
<path fill="none" stroke="#191970" d="M969.7635,-674.8468C892.4473,-664.9842 740.3544,-645.5828 650.416,-634.11"/>
<polygon fill="#191970" stroke="#191970" points="650.6648,-630.6135 640.3023,-632.8199 649.779,-637.5572 650.6648,-630.6135"/>
</g>
<!-- Node39 -->
<g id="node39" class="node">
<title>Node39</title>
<polygon fill="#ffffff" stroke="#bfbfbf" points="1531,-447.5 1531,-466.5 1569,-466.5 1569,-447.5 1531,-447.5"/>
<text text-anchor="middle" x="1550" y="-454.5" font-family="Helvetica,sans-Serif" font-size="10.00" fill="#000000">cstdlib</text>
</g>
<!-- Node31&#45;&gt;Node39 -->
<g id="edge112" class="edge">
<title>Node31&#45;&gt;Node39</title>
<path fill="none" stroke="#191970" d="M1040.8594,-671.375C1126.3468,-635.3803 1427.1415,-508.7299 1521.4788,-469.0089"/>
<polygon fill="#191970" stroke="#191970" points="1523.0901,-472.1281 1530.9483,-465.0218 1520.3737,-465.6767 1523.0901,-472.1281"/>
</g>
<!-- Node42 -->
<g id="node42" class="node">
<title>Node42</title>
<polygon fill="#ffffff" stroke="#bfbfbf" points="594,-447.5 594,-466.5 628,-466.5 628,-447.5 594,-447.5"/>
<text text-anchor="middle" x="611" y="-454.5" font-family="Helvetica,sans-Serif" font-size="10.00" fill="#000000">limits</text>
</g>
<!-- Node31&#45;&gt;Node42 -->
<g id="edge108" class="edge">
<title>Node31&#45;&gt;Node42</title>
<path fill="none" stroke="#191970" d="M1000.5117,-671.375C936.4562,-636.1209 714.3909,-513.9031 637.4723,-471.5695"/>
<polygon fill="#191970" stroke="#191970" points="638.8715,-468.3446 628.4231,-466.5891 635.4963,-474.4771 638.8715,-468.3446"/>
</g>
<!-- Node43 -->
<g id="node43" class="node">
<title>Node43</title>
<polygon fill="#ffffff" stroke="#bfbfbf" points="798.5,-447.5 798.5,-466.5 841.5,-466.5 841.5,-447.5 798.5,-447.5"/>
<text text-anchor="middle" x="820" y="-454.5" font-family="Helvetica,sans-Serif" font-size="10.00" fill="#000000">iomanip</text>
</g>
<!-- Node31&#45;&gt;Node43 -->
<g id="edge109" class="edge">
<title>Node31&#45;&gt;Node43</title>
<path fill="none" stroke="#191970" d="M1012.0378,-671.378C994.4157,-643.3852 940.1553,-560.3405 882,-503 870.3266,-491.4901 855.6547,-480.478 843.5144,-472.1154"/>
<polygon fill="#191970" stroke="#191970" points="845.4523,-469.2008 835.2009,-466.5251 841.5462,-475.0096 845.4523,-469.2008"/>
</g>
<!-- Node44 -->
<g id="node44" class="node">
<title>Node44</title>
<polygon fill="#ffffff" stroke="#bfbfbf" points="859.5,-447.5 859.5,-466.5 902.5,-466.5 902.5,-447.5 859.5,-447.5"/>
<text text-anchor="middle" x="881" y="-454.5" font-family="Helvetica,sans-Serif" font-size="10.00" fill="#000000">sstream</text>
</g>
<!-- Node31&#45;&gt;Node44 -->
<g id="edge111" class="edge">
<title>Node31&#45;&gt;Node44</title>
<path fill="none" stroke="#191970" d="M1014.7655,-671.4323C1005.063,-643.5868 974.185,-560.9017 931,-503 922.8186,-492.0306 911.7837,-481.5561 902.1619,-473.381"/>
<polygon fill="#191970" stroke="#191970" points="904.1295,-470.4681 894.1775,-466.8339 899.691,-475.8811 904.1295,-470.4681"/>
</g>
<!-- Node32&#45;&gt;Node5 -->
<g id="edge66" class="edge">
<title>Node32&#45;&gt;Node5</title>
<path fill="none" stroke="#191970" d="M1238.7076,-391.4901C1209.8408,-384.265 1172.6723,-372.534 1143,-355 1125.6756,-344.7626 1127.6356,-333.6915 1110,-324 1096.8859,-316.7933 1016.1195,-297.2461 961.0456,-284.4138"/>
<polygon fill="#191970" stroke="#191970" points="961.6157,-280.9531 951.0832,-282.1003 960.0323,-287.7717 961.6157,-280.9531"/>
</g>
<!-- Node32&#45;&gt;Node12 -->
<g id="edge65" class="edge">
<title>Node32&#45;&gt;Node12</title>
<path fill="none" stroke="#191970" d="M1261.1612,-391.4314C1240.7009,-382.8678 1210.6946,-369.4624 1186,-355 1165.6701,-343.0938 1163.1571,-336.1965 1143,-324 1119.6689,-309.883 1091.9598,-296.1893 1071.1612,-286.4754"/>
<polygon fill="#191970" stroke="#191970" points="1072.3906,-283.188 1061.8444,-282.1738 1069.4563,-289.5433 1072.3906,-283.188"/>
</g>
<!-- Node32&#45;&gt;Node16 -->
<g id="edge68" class="edge">
<title>Node32&#45;&gt;Node16</title>
<path fill="none" stroke="#191970" d="M1330.5461,-391.4989C1451.2724,-366.3149 1776.8451,-298.3992 1873.5528,-278.2256"/>
<polygon fill="#191970" stroke="#191970" points="1874.3665,-281.6313 1883.441,-276.1629 1872.9369,-274.7788 1874.3665,-281.6313"/>
</g>
<!-- Node32&#45;&gt;Node17 -->
<g id="edge67" class="edge">
<title>Node32&#45;&gt;Node17</title>
<path fill="none" stroke="#191970" d="M1233.8079,-393.1733C1177.5926,-384.4428 1084.708,-369.6172 1005,-355 936.7563,-342.4851 920.5278,-334.852 852,-324 718.564,-302.8693 561.5066,-286.8658 472.9659,-278.6515"/>
<polygon fill="#191970" stroke="#191970" points="473.0558,-275.1451 462.7768,-277.7126 472.4134,-282.1155 473.0558,-275.1451"/>
</g>
<!-- Node32&#45;&gt;Node20 -->
<g id="edge69" class="edge">
<title>Node32&#45;&gt;Node20</title>
<path fill="none" stroke="#191970" d="M1336.2164,-395.73C1373.7412,-390.0617 1424.7588,-378.467 1464,-355 1491.4336,-338.5942 1514.9317,-309.3102 1528.2629,-290.4069"/>
<polygon fill="#191970" stroke="#191970" points="1531.2122,-292.2943 1533.9633,-282.0629 1525.4323,-288.3456 1531.2122,-292.2943"/>
</g>
<!-- Node32&#45;&gt;Node23 -->
<g id="edge70" class="edge">
<title>Node32&#45;&gt;Node23</title>
<path fill="none" stroke="#191970" d="M1336.4731,-398.7501C1469.2728,-392.8312 1834.3171,-375.8374 2138,-355 2190.6674,-351.3862 2251.6305,-346.0945 2289,-342.7241"/>
<polygon fill="#191970" stroke="#191970" points="2289.7033,-346.1748 2299.3462,-341.7856 2289.0709,-339.2034 2289.7033,-346.1748"/>
</g>
<!-- Node33 -->
<g id="node33" class="node">
<title>Node33</title>
<g id="a_node33"><a xlink:href="_x_m_l_triple_8h.html" target="_top" xlink:title="Stores an XML namespace triple. ">
<polygon fill="#ffffff" stroke="#000000" points="1365.5,-330 1365.5,-349 1454.5,-349 1454.5,-330 1365.5,-330"/>
<text text-anchor="middle" x="1410" y="-337" font-family="Helvetica,sans-Serif" font-size="10.00" fill="#000000">sbml/xml/XMLTriple.h</text>
</a>
</g>
</g>
<!-- Node32&#45;&gt;Node33 -->
<g id="edge71" class="edge">
<title>Node32&#45;&gt;Node33</title>
<path fill="none" stroke="#191970" d="M1304.5313,-391.3906C1325.1708,-381.2359 1357.9276,-365.1196 1381.4602,-353.5416"/>
<polygon fill="#191970" stroke="#191970" points="1383.1782,-356.5971 1390.6059,-349.0419 1380.088,-350.3161 1383.1782,-356.5971"/>
</g>
<!-- Node33&#45;&gt;Node5 -->
<g id="edge73" class="edge">
<title>Node33&#45;&gt;Node5</title>
<path fill="none" stroke="#191970" d="M1365.1599,-331.3983C1350.1914,-328.84 1333.4031,-326.1282 1318,-324 1170.5386,-303.6253 1132.0906,-310.8989 985,-288 977.5987,-286.8478 969.8255,-285.4645 962.1917,-284.0049"/>
<polygon fill="#191970" stroke="#191970" points="962.7668,-280.551 952.2793,-282.0553 961.4158,-287.4194 962.7668,-280.551"/>
</g>
<!-- Node33&#45;&gt;Node12 -->
<g id="edge72" class="edge">
<title>Node33&#45;&gt;Node12</title>
<path fill="none" stroke="#191970" d="M1365.3694,-331.4182C1297.9073,-319.2021 1170.0321,-296.0463 1096.2776,-282.6908"/>
<polygon fill="#191970" stroke="#191970" points="1096.7053,-279.2114 1086.2416,-280.8735 1095.4579,-286.0994 1096.7053,-279.2114"/>
</g>
<!-- Node33&#45;&gt;Node16 -->
<g id="edge74" class="edge">
<title>Node33&#45;&gt;Node16</title>
<path fill="none" stroke="#191970" d="M1442.8935,-329.9989C1451.3489,-327.7941 1460.4683,-325.6212 1469,-324 1620.0834,-295.2914 1804.1104,-279.6718 1873.1077,-274.4809"/>
<polygon fill="#191970" stroke="#191970" points="1873.4563,-277.9648 1883.171,-273.737 1872.9401,-270.9838 1873.4563,-277.9648"/>
</g>
<!-- Node34&#45;&gt;Node3 -->
<g id="edge76" class="edge">
<title>Node34&#45;&gt;Node3</title>
<path fill="none" stroke="#191970" d="M517.7682,-616.4672C475.7788,-609.401 419.3242,-597.4775 372,-579 184.323,-505.7224 38,-473.9752 38,-272.5 38,-272.5 38,-272.5 38,-205.5 38,-163.3006 48.7463,-144.5977 85,-123 130.8048,-95.7123 1823.6869,-80.2444 2157.2627,-77.458"/>
<polygon fill="#191970" stroke="#191970" points="2157.6743,-80.9548 2167.6448,-77.3717 2157.616,-73.9551 2157.6743,-80.9548"/>
</g>
<!-- Node34&#45;&gt;Node5 -->
<g id="edge77" class="edge">
<title>Node34&#45;&gt;Node5</title>
<path fill="none" stroke="#191970" d="M535.597,-615.4577C501.632,-607.0075 458.4533,-593.7497 448,-579 378.5061,-480.9437 434.8322,-385.651 538,-324 589.2627,-293.3665 757.9421,-280.18 849.1652,-275.174"/>
<polygon fill="#191970" stroke="#191970" points="849.5564,-278.6582 859.356,-274.6312 849.184,-271.6682 849.5564,-278.6582"/>
</g>
<!-- Node34&#45;&gt;Node16 -->
<g id="edge107" class="edge">
<title>Node34&#45;&gt;Node16</title>
<path fill="none" stroke="#191970" d="M640.1827,-622.6338C881.4246,-612.9705 1759.0836,-574.5539 1872,-523 1910.0234,-505.6398 1939,-498.799 1939,-457 1939,-457 1939,-457 1939,-401 1939,-360.695 1921.596,-316.0903 1910.3445,-291.4654"/>
<polygon fill="#191970" stroke="#191970" points="1913.4056,-289.7511 1905.9678,-282.2058 1907.0769,-292.7425 1913.4056,-289.7511"/>
</g>
<!-- Node34&#45;&gt;Node17 -->
<g id="edge78" class="edge">
<title>Node34&#45;&gt;Node17</title>
<path fill="none" stroke="#191970" d="M526.6123,-615.4577C493.4962,-608.1947 450.419,-596.4343 415,-579 351.5579,-547.7719 326.3442,-533.3887 302,-467 280.0424,-407.12 255.4978,-377.6409 290,-324 300.185,-308.1653 316.5707,-297.1409 333.7415,-289.4877"/>
<polygon fill="#191970" stroke="#191970" points="335.3923,-292.5942 343.3272,-285.5736 332.7461,-286.1136 335.3923,-292.5942"/>
</g>
<!-- Node34&#45;&gt;Node35 -->
<g id="edge79" class="edge">
<title>Node34&#45;&gt;Node35</title>
<path fill="none" stroke="#191970" d="M578.0311,-615.2912C576.2921,-601.7145 571.6617,-576.7333 560,-559 551.9814,-546.8065 539.7326,-536.2191 528.7332,-528.2856"/>
<polygon fill="#191970" stroke="#191970" points="530.5156,-525.2644 520.2845,-522.5121 526.5661,-531.0439 530.5156,-525.2644"/>
</g>
<!-- Node34&#45;&gt;Node37 -->
<g id="edge82" class="edge">
<title>Node34&#45;&gt;Node37</title>
<path fill="none" stroke="#191970" d="M626.4042,-615.4509C729.1833,-594.7473 972.0124,-545.832 1080.7266,-523.9328"/>
<polygon fill="#191970" stroke="#191970" points="1081.7076,-527.3055 1090.8195,-521.8997 1080.3252,-520.4434 1081.7076,-527.3055"/>
</g>
<!-- Node40 -->
<g id="node40" class="node">
<title>Node40</title>
<g id="a_node40"><a xlink:href="_date_8h.html" target="_top" xlink:title="Date I/O. ">
<polygon fill="#ffffff" stroke="#000000" points="457,-559.5 457,-578.5 551,-578.5 551,-559.5 457,-559.5"/>
<text text-anchor="middle" x="504" y="-566.5" font-family="Helvetica,sans-Serif" font-size="10.00" fill="#000000">sbml/annotation/Date.h</text>
</a>
</g>
</g>
<!-- Node34&#45;&gt;Node40 -->
<g id="edge93" class="edge">
<title>Node34&#45;&gt;Node40</title>
<path fill="none" stroke="#191970" d="M565.936,-615.2455C554.6438,-606.814 538.1155,-594.4729 524.9729,-584.6598"/>
<polygon fill="#191970" stroke="#191970" points="527.0211,-581.8211 516.9143,-578.6427 522.8331,-587.4301 527.0211,-581.8211"/>
</g>
<!-- Node41 -->
<g id="node41" class="node">
<title>Node41</title>
<g id="a_node41"><a xlink:href="_model_creator_8h.html" target="_top" xlink:title="ModelCreator I/O. ">
<polygon fill="#ffffff" stroke="#000000" points="607.5,-559.5 607.5,-578.5 730.5,-578.5 730.5,-559.5 607.5,-559.5"/>
<text text-anchor="middle" x="669" y="-566.5" font-family="Helvetica,sans-Serif" font-size="10.00" fill="#000000">sbml/annotation/ModelCreator.h</text>
</a>
</g>
</g>
<!-- Node34&#45;&gt;Node41 -->
<g id="edge100" class="edge">
<title>Node34&#45;&gt;Node41</title>
<path fill="none" stroke="#191970" d="M594.6768,-615.2455C608.4856,-606.6534 628.8193,-594.0014 644.7292,-584.1018"/>
<polygon fill="#191970" stroke="#191970" points="646.8613,-586.8974 653.5028,-578.6427 643.1632,-580.954 646.8613,-586.8974"/>
</g>
<!-- Node35&#45;&gt;Node3 -->
<g id="edge80" class="edge">
<title>Node35&#45;&gt;Node3</title>
<path fill="none" stroke="#191970" d="M471.7529,-508.8277C378.3138,-494.759 114,-440.1459 114,-272.5 114,-272.5 114,-272.5 114,-205.5 114,-79.1728 261.2828,-143.1043 386,-123 564.2076,-94.2731 1868.6342,-80.2816 2157.473,-77.5172"/>
<polygon fill="#191970" stroke="#191970" points="2157.7458,-81.0149 2167.712,-77.4199 2157.6792,-74.0152 2157.7458,-81.0149"/>
</g>
<!-- Node36 -->
<g id="node36" class="node">
<title>Node36</title>
<polygon fill="#ffffff" stroke="#bfbfbf" points="496.5,-447.5 496.5,-466.5 537.5,-466.5 537.5,-447.5 496.5,-447.5"/>
<text text-anchor="middle" x="517" y="-454.5" font-family="Helvetica,sans-Serif" font-size="10.00" fill="#000000">string.h</text>
</g>
<!-- Node35&#45;&gt;Node36 -->
<g id="edge81" class="edge">
<title>Node35&#45;&gt;Node36</title>
<path fill="none" stroke="#191970" d="M506.2644,-503.2455C507.9794,-495.8579 510.3912,-485.4689 512.4944,-476.4087"/>
<polygon fill="#191970" stroke="#191970" points="515.9095,-477.1751 514.7615,-466.6427 509.0908,-475.5922 515.9095,-477.1751"/>
</g>
<!-- Node37&#45;&gt;Node5 -->
<g id="edge90" class="edge">
<title>Node37&#45;&gt;Node5</title>
<path fill="none" stroke="#191970" d="M1122.4589,-503.1658C1092.8277,-479.5757 1017.001,-417.1079 964,-355 946.6258,-334.6405 930.0677,-308.5789 919.7434,-291.2521"/>
<polygon fill="#191970" stroke="#191970" points="922.4985,-289.0305 914.4259,-282.1688 916.4575,-292.567 922.4985,-289.0305"/>
</g>
<!-- Node37&#45;&gt;Node12 -->
<g id="edge83" class="edge">
<title>Node37&#45;&gt;Node12</title>
<path fill="none" stroke="#191970" d="M1110.7266,-503.4227C1074.9095,-489.5542 1005.5919,-463.7154 945,-447 868.8725,-425.9988 839.4155,-450.4432 771,-411 742.094,-394.3349 732.8921,-386.1747 721,-355 716.0894,-342.127 711.9875,-334.4213 721,-324 757.2839,-282.0444 913.4114,-297.8425 968,-288 974.3586,-286.8535 981.0122,-285.5558 987.5967,-284.2111"/>
<polygon fill="#191970" stroke="#191970" points="988.7604,-287.5437 997.8344,-282.0744 987.3302,-280.6913 988.7604,-287.5437"/>
</g>
<!-- Node37&#45;&gt;Node20 -->
<g id="edge91" class="edge">
<title>Node37&#45;&gt;Node20</title>
<path fill="none" stroke="#191970" d="M1179.1403,-511.7026C1285.9635,-508.1092 1551.5946,-496.2893 1578,-467 1591.2888,-452.2598 1647.7662,-561.2825 1573,-324 1569.1789,-311.8731 1561.7132,-299.8241 1554.8481,-290.433"/>
<polygon fill="#191970" stroke="#191970" points="1557.471,-288.1031 1548.5887,-282.3277 1551.9308,-292.3817 1557.471,-288.1031"/>
</g>
<!-- Node38 -->
<g id="node38" class="node">
<title>Node38</title>
<g id="a_node38"><a xlink:href="_x_m_l_token_8h.html" target="_top" xlink:title="A unit of XML syntax, either an XML element or text. ">
<polygon fill="#ffffff" stroke="#000000" points="1111.5,-447.5 1111.5,-466.5 1202.5,-466.5 1202.5,-447.5 1111.5,-447.5"/>
<text text-anchor="middle" x="1157" y="-454.5" font-family="Helvetica,sans-Serif" font-size="10.00" fill="#000000">sbml/xml/XMLToken.h</text>
</a>
</g>
</g>
<!-- Node37&#45;&gt;Node38 -->
<g id="edge84" class="edge">
<title>Node37&#45;&gt;Node38</title>
<path fill="none" stroke="#191970" d="M1138.8321,-503.2455C1141.7659,-495.7776 1145.9047,-485.2427 1149.491,-476.1137"/>
<polygon fill="#191970" stroke="#191970" points="1152.8129,-477.23 1153.2118,-466.6427 1146.2976,-474.6704 1152.8129,-477.23"/>
</g>
<!-- Node37&#45;&gt;Node39 -->
<g id="edge92" class="edge">
<title>Node37&#45;&gt;Node39</title>
<path fill="none" stroke="#191970" d="M1179.2904,-505.0818C1183.9138,-504.3396 1188.5485,-503.6305 1193,-503 1336.4545,-482.6823 1375.0727,-496.1317 1517,-467 1518.2865,-466.7359 1519.5948,-466.4437 1520.9117,-466.1301"/>
<polygon fill="#191970" stroke="#191970" points="1522.2152,-469.4036 1530.9579,-463.419 1520.3913,-462.6454 1522.2152,-469.4036"/>
</g>
<!-- Node38&#45;&gt;Node5 -->
<g id="edge88" class="edge">
<title>Node38&#45;&gt;Node5</title>
<path fill="none" stroke="#191970" d="M1141.4819,-447.4479C1113.5047,-430.0397 1053.0516,-391.5649 1005,-355 976.6652,-333.4387 945.7423,-306.123 926.8574,-288.9737"/>
<polygon fill="#191970" stroke="#191970" points="929.0553,-286.2409 919.3118,-282.0798 924.3337,-291.4088 929.0553,-286.2409"/>
</g>
<!-- Node38&#45;&gt;Node12 -->
<g id="edge85" class="edge">
<title>Node38&#45;&gt;Node12</title>
<path fill="none" stroke="#191970" d="M1111.3161,-453.4761C1030.8766,-446.8416 867.4197,-431.3167 814,-411 793.2033,-403.0905 741.4444,-374.6463 731,-355 694.8598,-287.0194 853.3436,-309.0291 968,-288 974.3551,-286.8344 981.0066,-285.5251 987.5899,-284.1741"/>
<polygon fill="#191970" stroke="#191970" points="988.7557,-287.506 997.8266,-282.0316 987.3217,-280.6545 988.7557,-287.506"/>
</g>
<!-- Node38&#45;&gt;Node16 -->
<g id="edge89" class="edge">
<title>Node38&#45;&gt;Node16</title>
<path fill="none" stroke="#191970" d="M1200.5334,-447.4719C1279.6741,-430.0251 1452.322,-391.3876 1597,-355 1699.424,-329.2396 1820.3216,-295.3946 1873.5293,-280.3234"/>
<polygon fill="#191970" stroke="#191970" points="1874.5779,-283.6641 1883.2428,-277.5675 1872.6672,-276.9299 1874.5779,-283.6641"/>
</g>
<!-- Node38&#45;&gt;Node32 -->
<g id="edge86" class="edge">
<title>Node38&#45;&gt;Node32</title>
<path fill="none" stroke="#191970" d="M1179.004,-447.3733C1199.6435,-438.3435 1230.7158,-424.7494 1253.8889,-414.6111"/>
<polygon fill="#191970" stroke="#191970" points="1255.5245,-417.7159 1263.2831,-410.5011 1252.7187,-411.3028 1255.5245,-417.7159"/>
</g>
<!-- Node38&#45;&gt;Node38 -->
<g id="edge87" class="edge">
<title>Node38&#45;&gt;Node38</title>
<path fill="none" stroke="#191970" d="M1184.0829,-466.5252C1202.4849,-469.3079 1220.5,-466.1328 1220.5,-457 1220.5,-449.5796 1208.6073,-446.0922 1194.277,-446.5379"/>
<polygon fill="#191970" stroke="#191970" points="1193.7205,-443.0742 1184.0829,-447.4748 1194.3612,-450.0448 1193.7205,-443.0742"/>
</g>
<!-- Node40&#45;&gt;Node3 -->
<g id="edge94" class="edge">
<title>Node40&#45;&gt;Node3</title>
<path fill="none" stroke="#191970" d="M456.9722,-559.8233C345.7894,-535.1136 76,-456.2257 76,-272.5 76,-272.5 76,-272.5 76,-205.5 76,-162.6249 88.8773,-144.4517 126,-123 171.2266,-96.8654 1827.7164,-80.5015 2157.3093,-77.5005"/>
<polygon fill="#191970" stroke="#191970" points="2157.6054,-80.9981 2167.5732,-77.4075 2157.5418,-73.9983 2157.6054,-80.9981"/>
</g>
<!-- Node40&#45;&gt;Node5 -->
<g id="edge95" class="edge">
<title>Node40&#45;&gt;Node5</title>
<path fill="none" stroke="#191970" d="M491.2752,-559.2466C481.4593,-550.8582 468.6367,-537.7955 463,-523 459.8355,-514.6935 461.1475,-511.6937 463,-503 483.2751,-407.8475 504.6404,-372.4618 589,-324 632.1937,-299.1866 768.7029,-284.062 848.7924,-277.0932"/>
<polygon fill="#191970" stroke="#191970" points="849.5588,-280.5407 859.2253,-276.2038 848.9641,-273.566 849.5588,-280.5407"/>
</g>
<!-- Node40&#45;&gt;Node16 -->
<g id="edge99" class="edge">
<title>Node40&#45;&gt;Node16</title>
<path fill="none" stroke="#191970" d="M551.317,-563.6066C566.5293,-561.9832 583.4645,-560.2918 599,-559 732.0439,-547.9372 1685.7511,-540.802 1797,-467 1859.7078,-425.4 1887.4268,-333.048 1896.9219,-292.3811"/>
<polygon fill="#191970" stroke="#191970" points="1900.3946,-292.8859 1899.1307,-282.3667 1893.5589,-291.3781 1900.3946,-292.8859"/>
</g>
<!-- Node40&#45;&gt;Node17 -->
<g id="edge96" class="edge">
<title>Node40&#45;&gt;Node17</title>
<path fill="none" stroke="#191970" d="M480.8297,-559.4563C464.6363,-551.7424 443.5654,-539.4595 430,-523 379.1828,-461.3412 380.461,-433.5817 366,-355 363.5064,-341.4498 361.7773,-337.1147 366,-324 369.2898,-313.7825 375.4407,-303.8776 381.7962,-295.5293"/>
<polygon fill="#191970" stroke="#191970" points="384.5309,-297.7138 388.1214,-287.7459 379.0985,-293.2991 384.5309,-297.7138"/>
</g>
<!-- Node40&#45;&gt;Node35 -->
<g id="edge97" class="edge">
<title>Node40&#45;&gt;Node35</title>
<path fill="none" stroke="#191970" d="M504,-559.2455C504,-551.9382 504,-541.6944 504,-532.7046"/>
<polygon fill="#191970" stroke="#191970" points="507.5001,-532.6426 504,-522.6427 500.5001,-532.6427 507.5001,-532.6426"/>
</g>
<!-- Node40&#45;&gt;Node37 -->
<g id="edge98" class="edge">
<title>Node40&#45;&gt;Node37</title>
<path fill="none" stroke="#191970" d="M551.3278,-563.7311C566.5407,-562.1144 583.4735,-560.3955 599,-559 810.1526,-540.0221 866.86,-550.6654 1080.8346,-523.0226"/>
<polygon fill="#191970" stroke="#191970" points="1081.35,-526.4851 1090.8131,-521.7206 1080.4443,-519.5439 1081.35,-526.4851"/>
</g>
<!-- Node41&#45;&gt;Node3 -->
<g id="edge101" class="edge">
<title>Node41&#45;&gt;Node3</title>
<path fill="none" stroke="#191970" d="M730.6697,-565.3751C949.1093,-552.1333 1673,-504.6559 1673,-457 1673,-457 1673,-457 1673,-205.5 1673,-106.7101 2018.7937,-83.7482 2157.4679,-78.5117"/>
<polygon fill="#191970" stroke="#191970" points="2158.0069,-81.9947 2167.8746,-78.1375 2157.7553,-74.9992 2158.0069,-81.9947"/>
</g>
<!-- Node41&#45;&gt;Node5 -->
<g id="edge102" class="edge">
<title>Node41&#45;&gt;Node5</title>
<path fill="none" stroke="#191970" d="M656.8251,-559.3002C637.2229,-542.809 599.4089,-507.1625 585,-467 567.5772,-418.4369 562.001,-377.4863 622,-324 654.7967,-294.7633 775.0724,-281.497 849.1146,-275.9855"/>
<polygon fill="#191970" stroke="#191970" points="849.5178,-279.4657 859.2415,-275.2584 849.0165,-272.4836 849.5178,-279.4657"/>
</g>
<!-- Node41&#45;&gt;Node16 -->
<g id="edge106" class="edge">
<title>Node41&#45;&gt;Node16</title>
<path fill="none" stroke="#191970" d="M730.8763,-567.8654C965.3162,-563.3991 1788.2837,-546.1349 1839,-523 1875.6164,-506.297 1901,-497.2462 1901,-457 1901,-457 1901,-457 1901,-401 1901,-362.5012 1901,-317.5145 1901,-292.2812"/>
<polygon fill="#191970" stroke="#191970" points="1904.5001,-292.1718 1901,-282.1719 1897.5001,-292.1719 1904.5001,-292.1718"/>
</g>
<!-- Node41&#45;&gt;Node17 -->
<g id="edge103" class="edge">
<title>Node41&#45;&gt;Node17</title>
<path fill="none" stroke="#191970" d="M650.9793,-559.4683C607.8809,-536.5846 501.4262,-479.5091 488,-467 444.3483,-426.3301 434.9173,-410.8746 414,-355 407.1015,-336.5726 404.4295,-314.4064 403.4397,-297.6929"/>
<polygon fill="#191970" stroke="#191970" points="406.9317,-297.4312 403.0045,-287.5911 399.9382,-297.7325 406.9317,-297.4312"/>
</g>
<!-- Node41&#45;&gt;Node35 -->
<g id="edge104" class="edge">
<title>Node41&#45;&gt;Node35</title>
<path fill="none" stroke="#191970" d="M640.6355,-559.3733C613.3173,-550.1016 571.8204,-536.0178 541.7262,-525.804"/>
<polygon fill="#191970" stroke="#191970" points="542.5887,-522.4008 531.9944,-522.5011 540.339,-529.0294 542.5887,-522.4008"/>
</g>
<!-- Node41&#45;&gt;Node37 -->
<g id="edge105" class="edge">
<title>Node41&#45;&gt;Node37</title>
<path fill="none" stroke="#191970" d="M730.7635,-563.5893C809.6186,-556.354 950.4724,-542.3336 1080.6452,-523.1118"/>
<polygon fill="#191970" stroke="#191970" points="1081.4212,-526.5349 1090.796,-521.599 1080.3893,-519.6114 1081.4212,-526.5349"/>
</g>
<!-- Node45&#45;&gt;Node3 -->
<g id="edge114" class="edge">
<title>Node45&#45;&gt;Node3</title>
<path fill="none" stroke="#191970" d="M792.1972,-503.4617C765.9886,-494.3816 725.6702,-480.1841 691,-467 659.9694,-455.2 442.4093,-372.177 414,-355 374.6033,-331.1798 354.3468,-329.7757 335,-288 298.7169,-209.6535 390.9066,-148.0524 441,-123 480.2943,-103.3483 1859.4887,-82.1646 2157.5705,-77.8093"/>
<polygon fill="#191970" stroke="#191970" points="2157.7662,-81.3069 2167.7141,-77.6615 2157.6641,-74.3076 2157.7662,-81.3069"/>
</g>
<!-- Node45&#45;&gt;Node5 -->
<g id="edge115" class="edge">
<title>Node45&#45;&gt;Node5</title>
<path fill="none" stroke="#191970" d="M805.8023,-503.4597C765.301,-475.9035 650.9034,-395.5797 632,-355 626.1821,-342.5108 623.1929,-334.5954 632,-324 659.1003,-291.3968 776.5074,-279.3338 849.4956,-274.9429"/>
<polygon fill="#191970" stroke="#191970" points="849.7014,-278.437 859.4857,-274.3729 849.3026,-271.4483 849.7014,-278.437"/>
</g>
<!-- Node45&#45;&gt;Node16 -->
<g id="edge120" class="edge">
<title>Node45&#45;&gt;Node16</title>
<path fill="none" stroke="#191970" d="M873.0929,-509.4158C951.5855,-503.5823 1103.0084,-490.2805 1230,-467 1427.2131,-430.8462 1475.1572,-413.2788 1667,-355 1742.7418,-331.9908 1830.3219,-299.5035 1873.7146,-283.0023"/>
<polygon fill="#191970" stroke="#191970" points="1875.1756,-286.191 1883.27,-279.355 1872.6793,-279.6512 1875.1756,-286.191"/>
</g>
<!-- Node45&#45;&gt;Node17 -->
<g id="edge116" class="edge">
<title>Node45&#45;&gt;Node17</title>
<path fill="none" stroke="#191970" d="M797.3109,-503.4774C777.4853,-494.8425 748.1743,-481.3086 724,-467 674.1145,-437.4731 671.1206,-414.2078 618,-391 544.8359,-359.0354 504.8051,-404.2975 442,-355 423.8934,-340.7876 413.7772,-316.1333 408.4138,-297.4678"/>
<polygon fill="#191970" stroke="#191970" points="411.7415,-296.3567 405.8416,-287.5566 404.966,-298.1152 411.7415,-296.3567"/>
</g>
<!-- Node45&#45;&gt;Node32 -->
<g id="edge117" class="edge">
<title>Node45&#45;&gt;Node32</title>
<path fill="none" stroke="#191970" d="M809.6027,-503.4305C795.7704,-489.5716 774.7392,-463.7448 790,-447 818.6977,-415.5118 1097.5938,-405.2319 1223.6675,-402.1767"/>
<polygon fill="#191970" stroke="#191970" points="1224.0138,-405.6696 1233.9289,-401.9358 1223.8495,-398.6715 1224.0138,-405.6696"/>
</g>
<!-- Node45&#45;&gt;Node39 -->
<g id="edge122" class="edge">
<title>Node45&#45;&gt;Node39</title>
<path fill="none" stroke="#191970" d="M873.2408,-509.4999C1019.3208,-499.8661 1419.5112,-473.2578 1479,-467 1492.7338,-465.5553 1507.8977,-463.4848 1520.6732,-461.6022"/>
<polygon fill="#191970" stroke="#191970" points="1521.392,-465.0335 1530.7591,-460.0828 1520.3492,-458.1116 1521.392,-465.0335"/>
</g>
<!-- Node45&#45;&gt;Node42 -->
<g id="edge118" class="edge">
<title>Node45&#45;&gt;Node42</title>
<path fill="none" stroke="#191970" d="M780.2263,-503.4364C744.0313,-494.5639 689.2058,-480.7005 642,-467 640.7475,-466.6365 639.4691,-466.2573 638.1796,-465.8682"/>
<polygon fill="#191970" stroke="#191970" points="638.9125,-462.4304 628.3237,-462.788 636.8244,-469.1117 638.9125,-462.4304"/>
</g>
<!-- Node45&#45;&gt;Node43 -->
<g id="edge119" class="edge">
<title>Node45&#45;&gt;Node43</title>
<path fill="none" stroke="#191970" d="M820,-503.2455C820,-495.9382 820,-485.6944 820,-476.7046"/>
<polygon fill="#191970" stroke="#191970" points="823.5001,-476.6426 820,-466.6427 816.5001,-476.6427 823.5001,-476.6426"/>
</g>
<!-- Node45&#45;&gt;Node44 -->
<g id="edge121" class="edge">
<title>Node45&#45;&gt;Node44</title>
<path fill="none" stroke="#191970" d="M830.6254,-503.2455C839.5473,-495.0549 852.488,-483.1749 863.0192,-473.5069"/>
<polygon fill="#191970" stroke="#191970" points="865.4968,-475.9837 870.4964,-466.6427 860.7629,-470.8271 865.4968,-475.9837"/>
</g>
<!-- Node46&#45;&gt;Node3 -->
<g id="edge126" class="edge">
<title>Node46&#45;&gt;Node3</title>
<path fill="none" stroke="#191970" d="M2414.3353,-329.9591C2375.5251,-319.3623 2317.3838,-301.9149 2299,-288 2236.407,-240.6226 2219.7702,-139.6072 2215.4601,-96.8139"/>
<polygon fill="#191970" stroke="#191970" points="2218.9242,-96.2519 2214.5595,-86.5979 2211.9512,-96.8666 2218.9242,-96.2519"/>
</g>
<!-- Node46&#45;&gt;Node13 -->
<g id="edge128" class="edge">
<title>Node46&#45;&gt;Node13</title>
<path fill="none" stroke="#191970" d="M2434.9531,-329.9005C2416.3233,-318.7559 2385.3842,-300.2477 2363.6872,-287.2682"/>
<polygon fill="#191970" stroke="#191970" points="2365.3956,-284.2118 2355.0171,-282.0817 2361.802,-290.219 2365.3956,-284.2118"/>
</g>
<!-- Node46&#45;&gt;Node16 -->
<g id="edge129" class="edge">
<title>Node46&#45;&gt;Node16</title>
<path fill="none" stroke="#191970" d="M2417.5562,-329.9262C2408.9574,-327.7227 2399.6815,-325.5687 2391,-324 2216.9026,-292.5422 2004.2777,-278.2993 1929.0198,-273.9884"/>
<polygon fill="#191970" stroke="#191970" points="1929.114,-270.4883 1918.9339,-273.4236 1928.7225,-277.4773 1929.114,-270.4883"/>
</g>
<!-- Node46&#45;&gt;Node28 -->
<g id="edge127" class="edge">
<title>Node46&#45;&gt;Node28</title>
<path fill="none" stroke="#191970" d="M2475.9304,-349.0794C2523.6168,-370.3439 2622,-422.3428 2622,-457 2622,-681 2622,-681 2622,-681 2622,-752.51 2372.9287,-781.521 2271.7794,-790.0731"/>
<polygon fill="#191970" stroke="#191970" points="2271.2951,-786.6009 2261.614,-790.9052 2271.8662,-793.5776 2271.2951,-786.6009"/>
</g>
<!-- Node47&#45;&gt;Node3 -->
<g id="edge131" class="edge">
<title>Node47&#45;&gt;Node3</title>
<path fill="none" stroke="#191970" d="M2391.7807,-449.2117C2436.765,-442.517 2496.8155,-430.7302 2547,-411 2562.9608,-404.725 2565.1349,-399.5528 2580,-391 2608.9616,-374.3366 2623.5603,-379.7569 2646,-355 2672.749,-325.4888 2681,-312.3299 2681,-272.5 2681,-272.5 2681,-272.5 2681,-205.5 2681,-145.0976 2628.8693,-145.9579 2573,-123 2519.5237,-101.0255 2357.4284,-86.874 2270.5023,-80.6532"/>
<polygon fill="#191970" stroke="#191970" points="2270.5077,-77.145 2260.2865,-79.9339 2270.016,-84.1277 2270.5077,-77.145"/>
</g>
<!-- Node47&#45;&gt;Node16 -->
<g id="edge133" class="edge">
<title>Node47&#45;&gt;Node16</title>
<path fill="none" stroke="#191970" d="M2322.6604,-447.1547C2319.0145,-433.4157 2310.912,-408.2429 2297,-391 2264.5571,-350.7894 2249.7504,-343.7315 2202,-324 2152.5552,-303.5683 1993.9901,-283.3432 1929.0921,-275.698"/>
<polygon fill="#191970" stroke="#191970" points="1929.1464,-272.1807 1918.8085,-274.4998 1928.3362,-279.1337 1929.1464,-272.1807"/>
</g>
<!-- Node47&#45;&gt;Node18 -->
<g id="edge132" class="edge">
<title>Node47&#45;&gt;Node18</title>
<path fill="none" stroke="#191970" d="M2309.3232,-447.2455C2295.5144,-438.6534 2275.1807,-426.0014 2259.2708,-416.1018"/>
<polygon fill="#191970" stroke="#191970" points="2260.8368,-412.954 2250.4972,-410.6427 2257.1387,-418.8974 2260.8368,-412.954"/>
</g>
<!-- Node47&#45;&gt;Node23 -->
<g id="edge134" class="edge">
<title>Node47&#45;&gt;Node23</title>
<path fill="none" stroke="#191970" d="M2326.3824,-447.1547C2327.6136,-437.8576 2329.3219,-423.5134 2330,-411 2330.9467,-393.5296 2329.0485,-373.707 2327.1422,-359.372"/>
<polygon fill="#191970" stroke="#191970" points="2330.5662,-358.5953 2325.6657,-349.2019 2323.6388,-359.601 2330.5662,-358.5953"/>
</g>
<!-- Node47&#45;&gt;Node48 -->
<g id="edge135" class="edge">
<title>Node47&#45;&gt;Node48</title>
<path fill="none" stroke="#191970" d="M2391.6503,-449.7719C2443.7777,-442.9794 2517.6228,-430.8312 2580,-411 2626.6441,-396.1707 2677.5142,-370.2785 2707.2651,-354.0569"/>
<polygon fill="#191970" stroke="#191970" points="2709.0843,-357.0507 2716.1503,-349.1563 2705.7035,-350.9212 2709.0843,-357.0507"/>
</g>
<!-- Node49&#45;&gt;Node3 -->
<g id="edge137" class="edge">
<title>Node49&#45;&gt;Node3</title>
<path fill="none" stroke="#191970" d="M2533.1253,-391.4416C2568.6567,-383.1663 2613.0728,-370.1606 2624,-355 2688.1203,-266.0378 2631.9963,-182.6855 2540,-123 2496.6029,-94.8448 2351.5947,-83.5075 2270.3623,-79.2812"/>
<polygon fill="#191970" stroke="#191970" points="2270.465,-75.7821 2260.3024,-78.7772 2270.1147,-82.7733 2270.465,-75.7821"/>
</g>
<!-- Node49&#45;&gt;Node16 -->
<g id="edge138" class="edge">
<title>Node49&#45;&gt;Node16</title>
<path fill="none" stroke="#191970" d="M2464.1958,-391.443C2445.5126,-382.8866 2418.1869,-369.4854 2396,-355 2377.7494,-343.0846 2378.0901,-332.4527 2358,-324 2279.6613,-291.0398 2015.5616,-277.2834 1928.8441,-273.5852"/>
<polygon fill="#191970" stroke="#191970" points="1928.8558,-270.0828 1918.7193,-273.1652 1928.5656,-277.0768 1928.8558,-270.0828"/>
</g>
<!-- Node49&#45;&gt;Node20 -->
<g id="edge139" class="edge">
<title>Node49&#45;&gt;Node20</title>
<path fill="none" stroke="#191970" d="M2433.9768,-397.5825C2344.3012,-391.3642 2154.9325,-376.7967 1996,-355 1833.3791,-332.6975 1640.3295,-293.5423 1568.6457,-278.5629"/>
<polygon fill="#191970" stroke="#191970" points="1569.0917,-275.0804 1558.5861,-276.4527 1567.6545,-281.9312 1569.0917,-275.0804"/>
</g>
<!-- Node49&#45;&gt;Node23 -->
<g id="edge140" class="edge">
<title>Node49&#45;&gt;Node23</title>
<path fill="none" stroke="#191970" d="M2460.0262,-391.4612C2435.092,-382.2629 2396.3963,-367.8797 2363,-355 2361.1646,-354.2921 2359.2824,-353.5612 2357.3839,-352.8198"/>
<polygon fill="#191970" stroke="#191970" points="2358.482,-349.4907 2347.8949,-349.086 2355.9188,-356.0046 2358.482,-349.4907"/>
</g>
<!-- Node49&#45;&gt;Node48 -->
<g id="edge141" class="edge">
<title>Node49&#45;&gt;Node48</title>
<path fill="none" stroke="#191970" d="M2524.3227,-391.4581C2572.3444,-379.5013 2653.8662,-359.2034 2699.5045,-347.84"/>
<polygon fill="#191970" stroke="#191970" points="2700.6254,-351.1678 2709.4835,-345.3553 2698.9341,-344.3752 2700.6254,-351.1678"/>
</g>
<!-- Node52&#45;&gt;Node3 -->
<g id="edge152" class="edge">
<title>Node52&#45;&gt;Node3</title>
<path fill="none" stroke="#191970" d="M2129.2787,-335.1758C2174.2239,-332.0587 2236.3595,-327.7567 2291,-324 2349.5538,-319.9742 2777.9376,-330.8924 2818,-288 2874.9295,-227.0489 2888.693,-218.3802 2722,-123 2683.4983,-100.9697 2394.0678,-85.2456 2270.0905,-79.4518"/>
<polygon fill="#191970" stroke="#191970" points="2270.1872,-75.9526 2260.0362,-78.9868 2269.8637,-82.9451 2270.1872,-75.9526"/>
</g>
<!-- Node52&#45;&gt;Node5 -->
<g id="edge153" class="edge">
<title>Node52&#45;&gt;Node5</title>
<path fill="none" stroke="#191970" d="M2004.9598,-337.8021C1805.8826,-332.1562 1184.5531,-312.9481 985,-288 976.8304,-286.9786 968.228,-285.561 959.8656,-283.9947"/>
<polygon fill="#191970" stroke="#191970" points="960.3162,-280.5164 949.8296,-282.027 958.9693,-287.3857 960.3162,-280.5164"/>
</g>
<!-- Node52&#45;&gt;Node16 -->
<g id="edge154" class="edge">
<title>Node52&#45;&gt;Node16</title>
<path fill="none" stroke="#191970" d="M2029.7464,-324.4639C1998.9274,-312.0249 1955.8711,-294.6468 1928.2095,-283.4822"/>
<polygon fill="#191970" stroke="#191970" points="1929.3493,-280.1679 1918.7661,-279.6707 1926.7293,-286.6591 1929.3493,-280.1679"/>
</g>
</g>
</svg>
