<?xml version="1.0" encoding="UTF-8" standalone="no"?>
<!DOCTYPE svg PUBLIC "-//W3C//DTD SVG 1.1//EN"
 "http://www.w3.org/Graphics/SVG/1.1/DTD/svg11.dtd">
<!-- Generated by graphviz version 2.40.1 (20161225.0304)
 -->
<!-- Title: SpeciesReferenceGlyph.h Pages: 1 -->
<!--zoomable 308 -->
<svg id="main" version="1.1" xmlns="http://www.w3.org/2000/svg" xmlns:xlink="http://www.w3.org/1999/xlink" xml:space="preserve" onload="init(evt)">
<style type="text/css"><![CDATA[
.edge:hover path { stroke: red; }
.edge:hover polygon { stroke: red; fill: red; }
]]></style>
<script type="text/javascript"><![CDATA[
var edges = document.getElementsByTagName('g');
if (edges && edges.length) {
  for (var i=0;i<edges.length;i++) {
    if (edges[i].id.substr(0,4)=='edge') {
      edges[i].setAttribute('class','edge');
    }
  }
}
]]></script>
        <defs>
                <circle id="rim" cx="0" cy="0" r="7"/>
                <circle id="rim2" cx="0" cy="0" r="3.5"/>
                <g id="zoomPlus">
                        <use xlink:href="#rim" fill="#404040">
                                <set attributeName="fill" to="#808080" begin="zoomplus.mouseover" end="zoomplus.mouseout"/>
                        </use>
                        <path d="M-4,0h8M0,-4v8" fill="none" stroke="white" stroke-width="1.5" pointer-events="none"/>
                </g>
                <g id="zoomMin">
                        <use xlink:href="#rim" fill="#404040">
                                <set attributeName="fill" to="#808080" begin="zoomminus.mouseover" end="zoomminus.mouseout"/>
                        </use>
                        <path d="M-4,0h8" fill="none" stroke="white" stroke-width="1.5" pointer-events="none"/>
                </g>
                <g id="dirArrow">
                        <path fill="none" stroke="white" stroke-width="1.5" d="M0,-3.0v7 M-2.5,-0.5L0,-3.0L2.5,-0.5"/>
                </g>
               <g id="resetDef">
                       <use xlink:href="#rim2" fill="#404040">
                               <set attributeName="fill" to="#808080" begin="reset.mouseover" end="reset.mouseout"/>
                       </use>
               </g>
        </defs>

<script type="text/javascript">
var viewWidth = 3138;
var viewHeight = 308;
var sectionId = 'dynsection-1';
</script>
<script xlink:href="svgpan.js"/>
<svg id="graph" class="graph">
<g id="viewport">
<title>SpeciesReferenceGlyph.h</title>
<polygon fill="#ffffff" stroke="transparent" points="-4,4 -4,-304 3134,-304 3134,4 -4,4"/>
<!-- Node1 -->
<g id="node1" class="node">
<title>Node1</title>
<polygon fill="#bfbfbf" stroke="#000000" points="2648.5,-280.5 2648.5,-299.5 2781.5,-299.5 2781.5,-280.5 2648.5,-280.5"/>
<text text-anchor="middle" x="2715" y="-287.5" font-family="Helvetica,sans-Serif" font-size="10.00" fill="#000000">SpeciesReferenceGlyph.h</text>
</g>
<!-- Node2 -->
<g id="node2" class="node">
<title>Node2</title>
<g id="a_node2"><a xlink:href="_layout_extension_types_8h.html" target="_top" xlink:title="Include all SBML types of layout extension in a single header file. ">
<polygon fill="#ffffff" stroke="#000000" points="2710,-56.5 2710,-75.5 2836,-75.5 2836,-56.5 2710,-56.5"/>
<text text-anchor="middle" x="2773" y="-63.5" font-family="Helvetica,sans-Serif" font-size="10.00" fill="#000000">LayoutExtensionTypes.h</text>
</a>
</g>
</g>
<!-- Node1&#45;&gt;Node2 -->
<g id="edge1" class="edge">
<title>Node1&#45;&gt;Node2</title>
<path fill="none" stroke="#191970" d="M2742.5468,-275.3082C2783.4312,-251.6133 2858.0318,-200.5879 2883,-132 2893.9703,-101.8644 2857.7943,-84.7486 2824.0406,-75.5403"/>
<polygon fill="#191970" stroke="#191970" points="2740.6266,-272.3732 2733.6459,-280.3432 2744.0731,-278.466 2740.6266,-272.3732"/>
</g>
<!-- Node8 -->
<g id="node8" class="node">
<title>Node8</title>
<g id="a_node8"><a xlink:href="_layout_8h.html" target="_top" xlink:title="Definition of Layout for SBML Layout. ">
<polygon fill="#ffffff" stroke="#000000" points="2305.5,-168.5 2305.5,-187.5 2360.5,-187.5 2360.5,-168.5 2305.5,-168.5"/>
<text text-anchor="middle" x="2333" y="-175.5" font-family="Helvetica,sans-Serif" font-size="10.00" fill="#000000">Layout.h</text>
</a>
</g>
</g>
<!-- Node1&#45;&gt;Node8 -->
<g id="edge7" class="edge">
<title>Node1&#45;&gt;Node8</title>
<path fill="none" stroke="#191970" d="M2672.8229,-277.6339C2594.0301,-254.5324 2426.4998,-205.4136 2360.5229,-186.0695"/>
<polygon fill="#191970" stroke="#191970" points="2671.8501,-280.996 2682.4309,-280.4509 2673.8196,-274.2787 2671.8501,-280.996"/>
</g>
<!-- Node19 -->
<g id="node19" class="node">
<title>Node19</title>
<g id="a_node19"><a xlink:href="_reaction_glyph_8cpp.html" target="_top" xlink:title="Implementation of ReactionGlyph for SBML Layout. ">
<polygon fill="#ffffff" stroke="#000000" points="2772.5,-112.5 2772.5,-131.5 2873.5,-131.5 2873.5,-112.5 2772.5,-112.5"/>
<text text-anchor="middle" x="2823" y="-119.5" font-family="Helvetica,sans-Serif" font-size="10.00" fill="#000000">ReactionGlyph.cpp</text>
</a>
</g>
</g>
<!-- Node1&#45;&gt;Node19 -->
<g id="edge50" class="edge">
<title>Node1&#45;&gt;Node19</title>
<path fill="none" stroke="#191970" d="M2737.4856,-274.5386C2748.0843,-266.3962 2760.2838,-255.6833 2769,-244 2796.7011,-206.8695 2814.0782,-153.2925 2820.3552,-131.6293"/>
<polygon fill="#191970" stroke="#191970" points="2735.3935,-271.7325 2729.426,-280.4869 2739.5504,-277.3647 2735.3935,-271.7325"/>
</g>
<!-- Node21 -->
<g id="node21" class="node">
<title>Node21</title>
<g id="a_node21"><a xlink:href="_species_reference_glyph_8cpp.html" target="_top" xlink:title="Implementation of SpeciesReferenceGlyph for SBML Layout. ">
<polygon fill="#ffffff" stroke="#000000" points="1091.5,-112.5 1091.5,-131.5 1234.5,-131.5 1234.5,-112.5 1091.5,-112.5"/>
<text text-anchor="middle" x="1163" y="-119.5" font-family="Helvetica,sans-Serif" font-size="10.00" fill="#000000">SpeciesReferenceGlyph.cpp</text>
</a>
</g>
</g>
<!-- Node1&#45;&gt;Node21 -->
<g id="edge56" class="edge">
<title>Node1&#45;&gt;Node21</title>
<path fill="none" stroke="#191970" d="M2638.1184,-282.225C2419.6354,-260.0269 1776.4217,-193.962 1243,-132 1240.2193,-131.677 1237.3848,-131.3434 1234.5219,-131.0029"/>
<polygon fill="#191970" stroke="#191970" points="2637.8967,-285.7204 2648.1992,-283.2487 2638.604,-278.7562 2637.8967,-285.7204"/>
</g>
<!-- Node43 -->
<g id="node43" class="node">
<title>Node43</title>
<g id="a_node43"><a xlink:href="_reaction_glyph_8h.html" target="_top" xlink:title="Definition of ReactionGlyph for SBML Layout. ">
<polygon fill="#ffffff" stroke="#000000" points="2670,-224.5 2670,-243.5 2760,-243.5 2760,-224.5 2670,-224.5"/>
<text text-anchor="middle" x="2715" y="-231.5" font-family="Helvetica,sans-Serif" font-size="10.00" fill="#000000">ReactionGlyph.h</text>
</a>
</g>
</g>
<!-- Node1&#45;&gt;Node43 -->
<g id="edge51" class="edge">
<title>Node1&#45;&gt;Node43</title>
<path fill="none" stroke="#191970" d="M2715,-270.1575C2715,-261.155 2715,-250.9199 2715,-243.6427"/>
<polygon fill="#191970" stroke="#191970" points="2711.5001,-270.2455 2715,-280.2455 2718.5001,-270.2456 2711.5001,-270.2455"/>
</g>
<!-- Node3 -->
<g id="node3" class="node">
<title>Node3</title>
<g id="a_node3"><a xlink:href="_graphical_object_8cpp.html" target="_top" xlink:title="Implementation of GraphicalObject for SBML Layout. ">
<polygon fill="#ffffff" stroke="#000000" points="2446.5,-.5 2446.5,-19.5 2553.5,-19.5 2553.5,-.5 2446.5,-.5"/>
<text text-anchor="middle" x="2500" y="-7.5" font-family="Helvetica,sans-Serif" font-size="10.00" fill="#000000">GraphicalObject.cpp</text>
</a>
</g>
</g>
<!-- Node2&#45;&gt;Node3 -->
<g id="edge2" class="edge">
<title>Node2&#45;&gt;Node3</title>
<path fill="none" stroke="#191970" d="M2716.3135,-54.372C2665.9962,-44.0505 2593.3742,-29.1537 2546.4279,-19.5237"/>
<polygon fill="#191970" stroke="#191970" points="2715.8805,-57.856 2726.3798,-56.4369 2717.2871,-50.9988 2715.8805,-57.856"/>
</g>
<!-- Node4 -->
<g id="node4" class="node">
<title>Node4</title>
<g id="a_node4"><a xlink:href="_layout_validator_8cpp.html" target="_top" xlink:title="Implementation of the LayoutValidator class. ">
<polygon fill="#ffffff" stroke="#000000" points="2571.5,-.5 2571.5,-19.5 2676.5,-19.5 2676.5,-.5 2571.5,-.5"/>
<text text-anchor="middle" x="2624" y="-7.5" font-family="Helvetica,sans-Serif" font-size="10.00" fill="#000000">LayoutValidator.cpp</text>
</a>
</g>
</g>
<!-- Node2&#45;&gt;Node4 -->
<g id="edge3" class="edge">
<title>Node2&#45;&gt;Node4</title>
<path fill="none" stroke="#191970" d="M2737.8488,-52.7888C2710.6432,-42.5639 2673.6191,-28.6488 2649.2798,-19.5011"/>
<polygon fill="#191970" stroke="#191970" points="2736.7939,-56.1313 2747.386,-56.3733 2739.2566,-49.5788 2736.7939,-56.1313"/>
</g>
<!-- Node5 -->
<g id="node5" class="node">
<title>Node5</title>
<g id="a_node5"><a xlink:href="_render_list_of_layouts_plugin_8cpp.html" target="_top" xlink:title="Implementation of RenderListOfLayoutsPlugin, the plugin class of the fbc package for the Model elemen...">
<polygon fill="#ffffff" stroke="#000000" points="2694.5,-.5 2694.5,-19.5 2851.5,-19.5 2851.5,-.5 2694.5,-.5"/>
<text text-anchor="middle" x="2773" y="-7.5" font-family="Helvetica,sans-Serif" font-size="10.00" fill="#000000">RenderListOfLayoutsPlugin.cpp</text>
</a>
</g>
</g>
<!-- Node2&#45;&gt;Node5 -->
<g id="edge4" class="edge">
<title>Node2&#45;&gt;Node5</title>
<path fill="none" stroke="#191970" d="M2773,-46.1575C2773,-37.155 2773,-26.9199 2773,-19.6427"/>
<polygon fill="#191970" stroke="#191970" points="2769.5001,-46.2455 2773,-56.2455 2776.5001,-46.2456 2769.5001,-46.2455"/>
</g>
<!-- Node6 -->
<g id="node6" class="node">
<title>Node6</title>
<g id="a_node6"><a xlink:href="_render_layout_converter_8cpp.html" target="_top" xlink:title="Simple converter to convert Layout + Render from l2 to L3 and vice versa. ">
<polygon fill="#ffffff" stroke="#000000" points="2870,-.5 2870,-19.5 3012,-19.5 3012,-.5 2870,-.5"/>
<text text-anchor="middle" x="2941" y="-7.5" font-family="Helvetica,sans-Serif" font-size="10.00" fill="#000000">RenderLayoutConverter.cpp</text>
</a>
</g>
</g>
<!-- Node2&#45;&gt;Node6 -->
<g id="edge5" class="edge">
<title>Node2&#45;&gt;Node6</title>
<path fill="none" stroke="#191970" d="M2811.4286,-53.1905C2842.2073,-42.9309 2884.6926,-28.7691 2912.4966,-19.5011"/>
<polygon fill="#191970" stroke="#191970" points="2810.2602,-49.8905 2801.8802,-56.3733 2812.4739,-56.5313 2810.2602,-49.8905"/>
</g>
<!-- Node7 -->
<g id="node7" class="node">
<title>Node7</title>
<g id="a_node7"><a xlink:href="_render_utilities_8cpp.html" target="_top" xlink:title="implementation of RenderUtilities, a class of utility functions for the render package ...">
<polygon fill="#ffffff" stroke="#000000" points="3030,-.5 3030,-19.5 3130,-19.5 3130,-.5 3030,-.5"/>
<text text-anchor="middle" x="3080" y="-7.5" font-family="Helvetica,sans-Serif" font-size="10.00" fill="#000000">RenderUtilities.cpp</text>
</a>
</g>
</g>
<!-- Node2&#45;&gt;Node7 -->
<g id="edge6" class="edge">
<title>Node2&#45;&gt;Node7</title>
<path fill="none" stroke="#191970" d="M2835.4578,-54.6071C2892.8127,-44.1449 2976.7208,-28.8392 3029.8272,-19.152"/>
<polygon fill="#191970" stroke="#191970" points="2834.6359,-51.1991 2825.4264,-56.4369 2835.8921,-58.0855 2834.6359,-51.1991"/>
</g>
<!-- Node8&#45;&gt;Node2 -->
<g id="edge8" class="edge">
<title>Node8&#45;&gt;Node2</title>
<path fill="none" stroke="#191970" d="M2370.9635,-174.0204C2418.6681,-168.2641 2502.5803,-155.6181 2571,-132 2589.4135,-125.6438 2591.8701,-119.125 2610,-112 2649.8182,-96.3516 2697.0286,-83.6316 2730.3657,-75.5661"/>
<polygon fill="#191970" stroke="#191970" points="2370.3096,-170.5729 2360.7835,-175.21 2371.1221,-177.5256 2370.3096,-170.5729"/>
</g>
<!-- Node9 -->
<g id="node9" class="node">
<title>Node9</title>
<g id="a_node9"><a xlink:href="_layout_model_plugin_8h.html" target="_top" xlink:title="Definition of LayoutModelPlugin, the plugin class of layout package for Model element. ">
<polygon fill="#ffffff" stroke="#000000" points="2452,-112.5 2452,-131.5 2562,-131.5 2562,-112.5 2452,-112.5"/>
<text text-anchor="middle" x="2507" y="-119.5" font-family="Helvetica,sans-Serif" font-size="10.00" fill="#000000">LayoutModelPlugin.h</text>
</a>
</g>
</g>
<!-- Node8&#45;&gt;Node9 -->
<g id="edge9" class="edge">
<title>Node8&#45;&gt;Node9</title>
<path fill="none" stroke="#191970" d="M2370.4355,-165.9518C2402.3807,-155.6706 2447.7047,-141.0835 2477.2274,-131.582"/>
<polygon fill="#191970" stroke="#191970" points="2369.0177,-162.7312 2360.5708,-169.1266 2371.1623,-169.3946 2369.0177,-162.7312"/>
</g>
<!-- Node12 -->
<g id="node12" class="node">
<title>Node12</title>
<g id="a_node12"><a xlink:href="_layout_annotation_8cpp.html" target="_top" xlink:title="Layout annotation I/O. ">
<polygon fill="#ffffff" stroke="#000000" points="2321.5,-56.5 2321.5,-75.5 2434.5,-75.5 2434.5,-56.5 2321.5,-56.5"/>
<text text-anchor="middle" x="2378" y="-63.5" font-family="Helvetica,sans-Serif" font-size="10.00" fill="#000000">LayoutAnnotation.cpp</text>
</a>
</g>
</g>
<!-- Node8&#45;&gt;Node12 -->
<g id="edge26" class="edge">
<title>Node8&#45;&gt;Node12</title>
<path fill="none" stroke="#191970" d="M2369.3205,-163.9182C2383.0591,-156.6005 2397.2413,-146.164 2405,-132 2415.4679,-112.8903 2398.7807,-88.8611 2387.329,-75.7091"/>
<polygon fill="#191970" stroke="#191970" points="2367.4102,-160.9562 2359.9644,-168.4934 2370.4854,-167.2445 2367.4102,-160.9562"/>
</g>
<!-- Node14 -->
<g id="node14" class="node">
<title>Node14</title>
<g id="a_node14"><a xlink:href="_layout_species_reference_plugin_8h.html" target="_top" xlink:title="Definition of LayoutSpeciesReferencePlugin, the plugin class of layout package (Level2) for the Speci...">
<polygon fill="#ffffff" stroke="#000000" points="1650,-112.5 1650,-131.5 1814,-131.5 1814,-112.5 1650,-112.5"/>
<text text-anchor="middle" x="1732" y="-119.5" font-family="Helvetica,sans-Serif" font-size="10.00" fill="#000000">LayoutSpeciesReferencePlugin.h</text>
</a>
</g>
</g>
<!-- Node8&#45;&gt;Node14 -->
<g id="edge15" class="edge">
<title>Node8&#45;&gt;Node14</title>
<path fill="none" stroke="#191970" d="M2295.1881,-174.8434C2210.5567,-167.7227 1999.4493,-149.6508 1823,-132 1820.1533,-131.7152 1817.2571,-131.4211 1814.3323,-131.1203"/>
<polygon fill="#191970" stroke="#191970" points="2295.0825,-178.3468 2305.3404,-175.6961 2295.6684,-171.3714 2295.0825,-178.3468"/>
</g>
<!-- Node16 -->
<g id="node16" class="node">
<title>Node16</title>
<g id="a_node16"><a xlink:href="_compartment_glyph_8cpp.html" target="_top" xlink:title="Implementation of CompartmentGlyph for SBML Layout. ">
<polygon fill="#ffffff" stroke="#000000" points="1832,-112.5 1832,-131.5 1954,-131.5 1954,-112.5 1832,-112.5"/>
<text text-anchor="middle" x="1893" y="-119.5" font-family="Helvetica,sans-Serif" font-size="10.00" fill="#000000">CompartmentGlyph.cpp</text>
</a>
</g>
</g>
<!-- Node8&#45;&gt;Node16 -->
<g id="edge19" class="edge">
<title>Node8&#45;&gt;Node16</title>
<path fill="none" stroke="#191970" d="M2295.0408,-173.512C2227.9854,-165.5322 2084.1961,-148.1893 1963,-132 1960.0797,-131.6099 1957.0917,-131.2051 1954.0743,-130.7917"/>
<polygon fill="#191970" stroke="#191970" points="2294.7856,-177.0062 2305.1287,-174.7107 2295.6116,-170.0551 2294.7856,-177.0062"/>
</g>
<!-- Node17 -->
<g id="node17" class="node">
<title>Node17</title>
<g id="a_node17"><a xlink:href="_general_glyph_8cpp.html" target="_top" xlink:title="Implementation of GeneralGlyph for SBML Layout. ">
<polygon fill="#ffffff" stroke="#000000" points="2618.5,-112.5 2618.5,-131.5 2715.5,-131.5 2715.5,-112.5 2618.5,-112.5"/>
<text text-anchor="middle" x="2667" y="-119.5" font-family="Helvetica,sans-Serif" font-size="10.00" fill="#000000">GeneralGlyph.cpp</text>
</a>
</g>
</g>
<!-- Node8&#45;&gt;Node17 -->
<g id="edge20" class="edge">
<title>Node8&#45;&gt;Node17</title>
<path fill="none" stroke="#191970" d="M2370.5485,-171.7044C2431.317,-161.5157 2551.1734,-141.42 2618.3802,-130.1518"/>
<polygon fill="#191970" stroke="#191970" points="2369.9003,-168.2642 2360.6168,-173.3696 2371.0579,-175.1678 2369.9003,-168.2642"/>
</g>
<!-- Node18 -->
<g id="node18" class="node">
<title>Node18</title>
<g id="a_node18"><a xlink:href="_layout_8cpp.html" target="_top" xlink:title="Implementation of Layout for SBML Layout. ">
<polygon fill="#ffffff" stroke="#000000" points="1972.5,-112.5 1972.5,-131.5 2037.5,-131.5 2037.5,-112.5 1972.5,-112.5"/>
<text text-anchor="middle" x="2005" y="-119.5" font-family="Helvetica,sans-Serif" font-size="10.00" fill="#000000">Layout.cpp</text>
</a>
</g>
</g>
<!-- Node8&#45;&gt;Node18 -->
<g id="edge21" class="edge">
<title>Node8&#45;&gt;Node18</title>
<path fill="none" stroke="#191970" d="M2295.1586,-172.9226C2240.092,-165.3107 2134.759,-149.9073 2046,-132 2043.2708,-131.4494 2040.4485,-130.8419 2037.6208,-130.2066"/>
<polygon fill="#191970" stroke="#191970" points="2294.7781,-176.4032 2305.1613,-174.2959 2295.7303,-169.4682 2294.7781,-176.4032"/>
</g>
<!-- Node8&#45;&gt;Node19 -->
<g id="edge22" class="edge">
<title>Node8&#45;&gt;Node19</title>
<path fill="none" stroke="#191970" d="M2370.7299,-173.688C2457.9314,-163.7221 2673.5084,-139.0848 2772.1975,-127.806"/>
<polygon fill="#191970" stroke="#191970" points="2370.2864,-170.2158 2360.7485,-174.8287 2371.0812,-177.1706 2370.2864,-170.2158"/>
</g>
<!-- Node20 -->
<g id="node20" class="node">
<title>Node20</title>
<g id="a_node20"><a xlink:href="_species_glyph_8cpp.html" target="_top" xlink:title="Implementation of SpeciesGlyph for SBML Layout. ">
<polygon fill="#ffffff" stroke="#000000" points="2055.5,-112.5 2055.5,-131.5 2152.5,-131.5 2152.5,-112.5 2055.5,-112.5"/>
<text text-anchor="middle" x="2104" y="-119.5" font-family="Helvetica,sans-Serif" font-size="10.00" fill="#000000">SpeciesGlyph.cpp</text>
</a>
</g>
</g>
<!-- Node8&#45;&gt;Node20 -->
<g id="edge23" class="edge">
<title>Node8&#45;&gt;Node20</title>
<path fill="none" stroke="#191970" d="M2295.5525,-168.8425C2253.5947,-158.5821 2185.8815,-142.0234 2143.216,-131.5899"/>
<polygon fill="#191970" stroke="#191970" points="2294.8321,-172.2694 2305.3772,-171.2451 2296.4949,-165.4698 2294.8321,-172.2694"/>
</g>
<!-- Node8&#45;&gt;Node21 -->
<g id="edge24" class="edge">
<title>Node8&#45;&gt;Node21</title>
<path fill="none" stroke="#191970" d="M2294.9417,-177.5254C2154.775,-175.5375 1654.1414,-166.3134 1243,-132 1240.3498,-131.7788 1237.6523,-131.5354 1234.9291,-131.2742"/>
<polygon fill="#191970" stroke="#191970" points="2295.1074,-181.028 2305.1547,-177.6664 2295.204,-174.0286 2295.1074,-181.028"/>
</g>
<!-- Node22 -->
<g id="node22" class="node">
<title>Node22</title>
<g id="a_node22"><a xlink:href="_text_glyph_8cpp.html" target="_top" xlink:title="Implementation of TextGlyph for SBML Layout. ">
<polygon fill="#ffffff" stroke="#000000" points="2170.5,-112.5 2170.5,-131.5 2251.5,-131.5 2251.5,-112.5 2170.5,-112.5"/>
<text text-anchor="middle" x="2211" y="-119.5" font-family="Helvetica,sans-Serif" font-size="10.00" fill="#000000">TextGlyph.cpp</text>
</a>
</g>
</g>
<!-- Node8&#45;&gt;Node22 -->
<g id="edge25" class="edge">
<title>Node8&#45;&gt;Node22</title>
<path fill="none" stroke="#191970" d="M2302.7416,-164.1109C2280.6181,-153.9559 2251.1906,-140.4482 2231.6989,-131.5011"/>
<polygon fill="#191970" stroke="#191970" points="2301.479,-167.3824 2312.0275,-168.3733 2304.3993,-161.0206 2301.479,-167.3824"/>
</g>
<!-- Node23 -->
<g id="node23" class="node">
<title>Node23</title>
<g id="a_node23"><a xlink:href="_layout_annotation_8h.html" target="_top" xlink:title="Layout annotation I/O. ">
<polygon fill="#ffffff" stroke="#000000" points="1252.5,-112.5 1252.5,-131.5 1355.5,-131.5 1355.5,-112.5 1252.5,-112.5"/>
<text text-anchor="middle" x="1304" y="-119.5" font-family="Helvetica,sans-Serif" font-size="10.00" fill="#000000">LayoutAnnotation.h</text>
</a>
</g>
</g>
<!-- Node8&#45;&gt;Node23 -->
<g id="edge27" class="edge">
<title>Node8&#45;&gt;Node23</title>
<path fill="none" stroke="#191970" d="M2295.3825,-175.9528C2138.5618,-167.4183 1536.6006,-134.6585 1355.7058,-124.8139"/>
<polygon fill="#191970" stroke="#191970" points="2295.3013,-179.4535 2305.4767,-176.5021 2295.6817,-172.4638 2295.3013,-179.4535"/>
</g>
<!-- Node42 -->
<g id="node42" class="node">
<title>Node42</title>
<g id="a_node42"><a xlink:href="_render_layout_plugin_8cpp.html" target="_top" xlink:title="Implementation of RenderLayoutPlugin, the plugin class of the fbc package for the Model element...">
<polygon fill="#ffffff" stroke="#000000" points="2270,-112.5 2270,-131.5 2396,-131.5 2396,-112.5 2270,-112.5"/>
<text text-anchor="middle" x="2333" y="-119.5" font-family="Helvetica,sans-Serif" font-size="10.00" fill="#000000">RenderLayoutPlugin.cpp</text>
</a>
</g>
</g>
<!-- Node8&#45;&gt;Node42 -->
<g id="edge49" class="edge">
<title>Node8&#45;&gt;Node42</title>
<path fill="none" stroke="#191970" d="M2333,-158.1575C2333,-149.155 2333,-138.9199 2333,-131.6427"/>
<polygon fill="#191970" stroke="#191970" points="2329.5001,-158.2455 2333,-168.2455 2336.5001,-158.2456 2329.5001,-158.2455"/>
</g>
<!-- Node9&#45;&gt;Node2 -->
<g id="edge10" class="edge">
<title>Node9&#45;&gt;Node2</title>
<path fill="none" stroke="#191970" d="M2562.233,-110.372C2611.2601,-100.0505 2682.02,-85.1537 2727.7626,-75.5237"/>
<polygon fill="#191970" stroke="#191970" points="2561.4892,-106.9518 2552.4248,-112.4369 2562.9314,-113.8016 2561.4892,-106.9518"/>
</g>
<!-- Node10 -->
<g id="node10" class="node">
<title>Node10</title>
<g id="a_node10"><a xlink:href="_layout_extension_8cpp.html" target="_top" xlink:title="Implementation of LayoutExtension, the core module of layout package. ">
<polygon fill="#ffffff" stroke="#000000" points="2452.5,-56.5 2452.5,-75.5 2561.5,-75.5 2561.5,-56.5 2452.5,-56.5"/>
<text text-anchor="middle" x="2507" y="-63.5" font-family="Helvetica,sans-Serif" font-size="10.00" fill="#000000">LayoutExtension.cpp</text>
</a>
</g>
</g>
<!-- Node9&#45;&gt;Node10 -->
<g id="edge11" class="edge">
<title>Node9&#45;&gt;Node10</title>
<path fill="none" stroke="#191970" d="M2507,-102.1575C2507,-93.155 2507,-82.9199 2507,-75.6427"/>
<polygon fill="#191970" stroke="#191970" points="2503.5001,-102.2455 2507,-112.2455 2510.5001,-102.2456 2503.5001,-102.2455"/>
</g>
<!-- Node11 -->
<g id="node11" class="node">
<title>Node11</title>
<g id="a_node11"><a xlink:href="_layout_model_plugin_8cpp.html" target="_top" xlink:title="Implementation of LayoutModelPlugin, the plugin class of layout package for the Model element...">
<polygon fill="#ffffff" stroke="#000000" points="2183,-56.5 2183,-75.5 2303,-75.5 2303,-56.5 2183,-56.5"/>
<text text-anchor="middle" x="2243" y="-63.5" font-family="Helvetica,sans-Serif" font-size="10.00" fill="#000000">LayoutModelPlugin.cpp</text>
</a>
</g>
</g>
<!-- Node9&#45;&gt;Node11 -->
<g id="edge12" class="edge">
<title>Node9&#45;&gt;Node11</title>
<path fill="none" stroke="#191970" d="M2451.8772,-110.3073C2403.2306,-99.9883 2333.2012,-85.1336 2287.8973,-75.5237"/>
<polygon fill="#191970" stroke="#191970" points="2451.4081,-113.7856 2461.9167,-112.4369 2452.8607,-106.9379 2451.4081,-113.7856"/>
</g>
<!-- Node9&#45;&gt;Node12 -->
<g id="edge13" class="edge">
<title>Node9&#45;&gt;Node12</title>
<path fill="none" stroke="#191970" d="M2475.6329,-108.3833C2452.1716,-98.1985 2420.6815,-84.5284 2399.8865,-75.5011"/>
<polygon fill="#191970" stroke="#191970" points="2474.2574,-111.6017 2484.8241,-112.3733 2477.0449,-105.1806 2474.2574,-111.6017"/>
</g>
<!-- Node13 -->
<g id="node13" class="node">
<title>Node13</title>
<g id="a_node13"><a xlink:href="_render_extension_8cpp.html" target="_top" xlink:title="Implementation of RenderExtension, the core module of the render package. ">
<polygon fill="#ffffff" stroke="#000000" points="2580,-56.5 2580,-75.5 2692,-75.5 2692,-56.5 2580,-56.5"/>
<text text-anchor="middle" x="2636" y="-63.5" font-family="Helvetica,sans-Serif" font-size="10.00" fill="#000000">RenderExtension.cpp</text>
</a>
</g>
</g>
<!-- Node9&#45;&gt;Node13 -->
<g id="edge14" class="edge">
<title>Node9&#45;&gt;Node13</title>
<path fill="none" stroke="#191970" d="M2538.3671,-108.3833C2561.8284,-98.1985 2593.3185,-84.5284 2614.1135,-75.5011"/>
<polygon fill="#191970" stroke="#191970" points="2536.9551,-105.1806 2529.1759,-112.3733 2539.7426,-111.6017 2536.9551,-105.1806"/>
</g>
<!-- Node14&#45;&gt;Node10 -->
<g id="edge16" class="edge">
<title>Node14&#45;&gt;Node10</title>
<path fill="none" stroke="#191970" d="M1824.6335,-111.9053C2100.2511,-89.2965 2172.4926,-105.3444 2444,-76 2446.7526,-75.7025 2449.5684,-75.3677 2452.4087,-75.0058"/>
<polygon fill="#191970" stroke="#191970" points="1823.9976,-108.446 1814.3214,-112.7614 1824.5768,-115.422 1823.9976,-108.446"/>
</g>
<!-- Node14&#45;&gt;Node12 -->
<g id="edge18" class="edge">
<title>Node14&#45;&gt;Node12</title>
<path fill="none" stroke="#191970" d="M1824.459,-111.8976C2041.7255,-92.3369 2098.7201,-99.9724 2312,-76 2314.9943,-75.6634 2318.0612,-75.2921 2321.155,-74.8965"/>
<polygon fill="#191970" stroke="#191970" points="1823.9684,-108.4276 1814.3265,-112.8189 1824.6024,-115.3989 1823.9684,-108.4276"/>
</g>
<!-- Node15 -->
<g id="node15" class="node">
<title>Node15</title>
<g id="a_node15"><a xlink:href="_layout_species_reference_plugin_8cpp.html" target="_top" xlink:title="Implementation of LayoutSpeciesReferencePlugin, the plugin object of layout package (Level2) for the ...">
<polygon fill="#ffffff" stroke="#000000" points="1989.5,-56.5 1989.5,-75.5 2164.5,-75.5 2164.5,-56.5 1989.5,-56.5"/>
<text text-anchor="middle" x="2077" y="-63.5" font-family="Helvetica,sans-Serif" font-size="10.00" fill="#000000">LayoutSpeciesReferencePlugin.cpp</text>
</a>
</g>
</g>
<!-- Node14&#45;&gt;Node15 -->
<g id="edge17" class="edge">
<title>Node14&#45;&gt;Node15</title>
<path fill="none" stroke="#191970" d="M1800.8673,-110.8215C1864.5353,-100.487 1958.1326,-85.2944 2018.3274,-75.5237"/>
<polygon fill="#191970" stroke="#191970" points="1800.2256,-107.3798 1790.9156,-112.4369 1801.3472,-114.2894 1800.2256,-107.3798"/>
</g>
<!-- Node23&#45;&gt;Node11 -->
<g id="edge28" class="edge">
<title>Node23&#45;&gt;Node11</title>
<path fill="none" stroke="#191970" d="M1365.8283,-120.6167C1508.4103,-117.0141 1871.1805,-105.4878 2173,-76 2176.1767,-75.6896 2179.4301,-75.3392 2182.712,-74.9599"/>
<polygon fill="#191970" stroke="#191970" points="1365.4519,-117.1249 1355.542,-120.8725 1365.6259,-124.1227 1365.4519,-117.1249"/>
</g>
<!-- Node23&#45;&gt;Node12 -->
<g id="edge30" class="edge">
<title>Node23&#45;&gt;Node12</title>
<path fill="none" stroke="#191970" d="M1365.7964,-120.0305C1555.3507,-113.8546 2126.8986,-94.1959 2312,-76 2314.9987,-75.7052 2318.0691,-75.3672 2321.1657,-74.9977"/>
<polygon fill="#191970" stroke="#191970" points="1365.6075,-116.5347 1355.7264,-120.3576 1365.8348,-123.531 1365.6075,-116.5347"/>
</g>
<!-- Node23&#45;&gt;Node15 -->
<g id="edge29" class="edge">
<title>Node23&#45;&gt;Node15</title>
<path fill="none" stroke="#191970" d="M1365.7964,-118.5163C1484.783,-111.6487 1753.9379,-95.3383 1980,-76 1983.0362,-75.7403 1986.125,-75.4676 1989.244,-75.1852"/>
<polygon fill="#191970" stroke="#191970" points="1365.5624,-115.0239 1355.78,-119.0926 1365.9646,-122.0123 1365.5624,-115.0239"/>
</g>
<!-- Node24 -->
<g id="node24" class="node">
<title>Node24</title>
<g id="a_node24"><a xlink:href="_ellipse_8cpp.html" target="_top" xlink:title="Implementation of the Ellipse class. ">
<polygon fill="#ffffff" stroke="#000000" points="373.5,-56.5 373.5,-75.5 438.5,-75.5 438.5,-56.5 373.5,-56.5"/>
<text text-anchor="middle" x="406" y="-63.5" font-family="Helvetica,sans-Serif" font-size="10.00" fill="#000000">Ellipse.cpp</text>
</a>
</g>
</g>
<!-- Node23&#45;&gt;Node24 -->
<g id="edge31" class="edge">
<title>Node23&#45;&gt;Node24</title>
<path fill="none" stroke="#191970" d="M1242.4745,-112.0868C889.0167,-76.2272 794.312,-125.7281 447,-76 444.244,-75.6054 441.4027,-75.1076 438.5623,-74.5459"/>
<polygon fill="#191970" stroke="#191970" points="1242.1665,-115.5736 1252.4725,-113.1168 1242.8839,-108.6104 1242.1665,-115.5736"/>
</g>
<!-- Node25 -->
<g id="node25" class="node">
<title>Node25</title>
<g id="a_node25"><a xlink:href="_global_style_8cpp.html" target="_top" xlink:title="Implementation of the GlobalStyle class. ">
<polygon fill="#ffffff" stroke="#000000" points="456.5,-56.5 456.5,-75.5 543.5,-75.5 543.5,-56.5 456.5,-56.5"/>
<text text-anchor="middle" x="500" y="-63.5" font-family="Helvetica,sans-Serif" font-size="10.00" fill="#000000">GlobalStyle.cpp</text>
</a>
</g>
</g>
<!-- Node23&#45;&gt;Node25 -->
<g id="edge32" class="edge">
<title>Node23&#45;&gt;Node25</title>
<path fill="none" stroke="#191970" d="M1242.4061,-112.0686C935.9425,-79.821 854.6255,-112.1577 553,-76 549.9319,-75.6322 546.7742,-75.1931 543.6008,-74.7071"/>
<polygon fill="#191970" stroke="#191970" points="1242.155,-115.5616 1252.4698,-113.1421 1242.8975,-108.6011 1242.155,-115.5616"/>
</g>
<!-- Node26 -->
<g id="node26" class="node">
<title>Node26</title>
<g id="a_node26"><a xlink:href="_gradient_stop_8cpp.html" target="_top" xlink:title="class representing a stop in a gradient definition ">
<polygon fill="#ffffff" stroke="#000000" points="562,-56.5 562,-75.5 656,-75.5 656,-56.5 562,-56.5"/>
<text text-anchor="middle" x="609" y="-63.5" font-family="Helvetica,sans-Serif" font-size="10.00" fill="#000000">GradientStop.cpp</text>
</a>
</g>
</g>
<!-- Node23&#45;&gt;Node26 -->
<g id="edge33" class="edge">
<title>Node23&#45;&gt;Node26</title>
<path fill="none" stroke="#191970" d="M1242.4595,-112.0607C985.5124,-83.733 917.3081,-106.2839 665,-76 662.1564,-75.6587 659.2384,-75.2664 656.2993,-74.839"/>
<polygon fill="#191970" stroke="#191970" points="1242.1389,-115.5466 1252.4658,-113.1789 1242.9164,-108.5899 1242.1389,-115.5466"/>
</g>
<!-- Node27 -->
<g id="node27" class="node">
<title>Node27</title>
<g id="a_node27"><a xlink:href="_image_8cpp.html" target="_top" xlink:title="Implementation of the Image class. ">
<polygon fill="#ffffff" stroke="#000000" points="674.5,-56.5 674.5,-75.5 737.5,-75.5 737.5,-56.5 674.5,-56.5"/>
<text text-anchor="middle" x="706" y="-63.5" font-family="Helvetica,sans-Serif" font-size="10.00" fill="#000000">Image.cpp</text>
</a>
</g>
</g>
<!-- Node23&#45;&gt;Node27 -->
<g id="edge34" class="edge">
<title>Node23&#45;&gt;Node27</title>
<path fill="none" stroke="#191970" d="M1242.5085,-112.0572C1021.7609,-86.7924 962.1473,-109.8032 747,-76 743.9601,-75.5224 740.814,-74.9323 737.6786,-74.2795"/>
<polygon fill="#191970" stroke="#191970" points="1242.1237,-115.5359 1252.4615,-113.2163 1242.9335,-108.5829 1242.1237,-115.5359"/>
</g>
<!-- Node28 -->
<g id="node28" class="node">
<title>Node28</title>
<g id="a_node28"><a xlink:href="_linear_gradient_8cpp.html" target="_top" xlink:title="Implementation of the LinearGradient class. ">
<polygon fill="#ffffff" stroke="#000000" points="756,-56.5 756,-75.5 858,-75.5 858,-56.5 756,-56.5"/>
<text text-anchor="middle" x="807" y="-63.5" font-family="Helvetica,sans-Serif" font-size="10.00" fill="#000000">LinearGradient.cpp</text>
</a>
</g>
</g>
<!-- Node23&#45;&gt;Node28 -->
<g id="edge35" class="edge">
<title>Node23&#45;&gt;Node28</title>
<path fill="none" stroke="#191970" d="M1242.2927,-111.993C1074.7896,-90.6869 1030.2012,-97.3865 867,-76 864.0682,-75.6158 861.0599,-75.196 858.027,-74.753"/>
<polygon fill="#191970" stroke="#191970" points="1242.0862,-115.4952 1252.4511,-113.3001 1242.9795,-108.5524 1242.0862,-115.4952"/>
</g>
<!-- Node29 -->
<g id="node29" class="node">
<title>Node29</title>
<g id="a_node29"><a xlink:href="_list_of_curve_elements_8cpp.html" target="_top" xlink:title="storage class for curve elements ">
<polygon fill="#ffffff" stroke="#000000" points="876,-56.5 876,-75.5 1006,-75.5 1006,-56.5 876,-56.5"/>
<text text-anchor="middle" x="941" y="-63.5" font-family="Helvetica,sans-Serif" font-size="10.00" fill="#000000">ListOfCurveElements.cpp</text>
</a>
</g>
</g>
<!-- Node23&#45;&gt;Node29 -->
<g id="edge36" class="edge">
<title>Node23&#45;&gt;Node29</title>
<path fill="none" stroke="#191970" d="M1242.4888,-111.933C1154.0818,-97.9875 1063.8961,-84.3554 1004.955,-75.5266"/>
<polygon fill="#191970" stroke="#191970" points="1241.9982,-115.3988 1252.422,-113.5024 1243.0907,-108.4846 1241.9982,-115.3988"/>
</g>
<!-- Node30 -->
<g id="node30" class="node">
<title>Node30</title>
<g id="a_node30"><a xlink:href="_list_of_gradient_stops_8cpp.html" target="_top" xlink:title="Implementation of the ListOfGradientStops class. ">
<polygon fill="#ffffff" stroke="#000000" points="1024.5,-56.5 1024.5,-75.5 1149.5,-75.5 1149.5,-56.5 1024.5,-56.5"/>
<text text-anchor="middle" x="1087" y="-63.5" font-family="Helvetica,sans-Serif" font-size="10.00" fill="#000000">ListOfGradientStops.cpp</text>
</a>
</g>
</g>
<!-- Node23&#45;&gt;Node30 -->
<g id="edge37" class="edge">
<title>Node23&#45;&gt;Node30</title>
<path fill="none" stroke="#191970" d="M1256.9231,-109.8511C1216.9917,-99.5462 1160.5077,-84.9697 1123.8169,-75.5011"/>
<polygon fill="#191970" stroke="#191970" points="1256.139,-113.2634 1266.6964,-112.3733 1257.8882,-106.4854 1256.139,-113.2634"/>
</g>
<!-- Node31 -->
<g id="node31" class="node">
<title>Node31</title>
<g id="a_node31"><a xlink:href="_local_render_information_8cpp.html" target="_top" xlink:title="Implementation of the LocalRenderInformation class. ">
<polygon fill="#ffffff" stroke="#000000" points="1168,-56.5 1168,-75.5 1310,-75.5 1310,-56.5 1168,-56.5"/>
<text text-anchor="middle" x="1239" y="-63.5" font-family="Helvetica,sans-Serif" font-size="10.00" fill="#000000">LocalRenderInformation.cpp</text>
</a>
</g>
</g>
<!-- Node23&#45;&gt;Node31 -->
<g id="edge38" class="edge">
<title>Node23&#45;&gt;Node31</title>
<path fill="none" stroke="#191970" d="M1285.0165,-105.645C1273.7121,-95.9058 1259.753,-83.8795 1250.1924,-75.6427"/>
<polygon fill="#191970" stroke="#191970" points="1282.8173,-108.3701 1292.6779,-112.2455 1287.3862,-103.0668 1282.8173,-108.3701"/>
</g>
<!-- Node32 -->
<g id="node32" class="node">
<title>Node32</title>
<g id="a_node32"><a xlink:href="_local_style_8cpp.html" target="_top" xlink:title="class for representing a local style ">
<polygon fill="#ffffff" stroke="#000000" points="1328,-56.5 1328,-75.5 1410,-75.5 1410,-56.5 1328,-56.5"/>
<text text-anchor="middle" x="1369" y="-63.5" font-family="Helvetica,sans-Serif" font-size="10.00" fill="#000000">LocalStyle.cpp</text>
</a>
</g>
</g>
<!-- Node23&#45;&gt;Node32 -->
<g id="edge39" class="edge">
<title>Node23&#45;&gt;Node32</title>
<path fill="none" stroke="#191970" d="M1322.9835,-105.645C1334.2879,-95.9058 1348.247,-83.8795 1357.8076,-75.6427"/>
<polygon fill="#191970" stroke="#191970" points="1320.6138,-103.0668 1315.3221,-112.2455 1325.1827,-108.3701 1320.6138,-103.0668"/>
</g>
<!-- Node33 -->
<g id="node33" class="node">
<title>Node33</title>
<g id="a_node33"><a xlink:href="_polygon_8cpp.html" target="_top" xlink:title="Implementation of the Polygon class. ">
<polygon fill="#ffffff" stroke="#000000" points="1428,-56.5 1428,-75.5 1500,-75.5 1500,-56.5 1428,-56.5"/>
<text text-anchor="middle" x="1464" y="-63.5" font-family="Helvetica,sans-Serif" font-size="10.00" fill="#000000">Polygon.cpp</text>
</a>
</g>
</g>
<!-- Node23&#45;&gt;Node33 -->
<g id="edge40" class="edge">
<title>Node23&#45;&gt;Node33</title>
<path fill="none" stroke="#191970" d="M1340.9799,-109.057C1370.2618,-98.8084 1410.4885,-84.729 1436.8539,-75.5011"/>
<polygon fill="#191970" stroke="#191970" points="1339.7873,-105.7662 1331.505,-112.3733 1342.0998,-112.3732 1339.7873,-105.7662"/>
</g>
<!-- Node34 -->
<g id="node34" class="node">
<title>Node34</title>
<g id="a_node34"><a xlink:href="_radial_gradient_8cpp.html" target="_top" xlink:title="Implementation of the RadialGradient class. ">
<polygon fill="#ffffff" stroke="#000000" points="1518,-56.5 1518,-75.5 1620,-75.5 1620,-56.5 1518,-56.5"/>
<text text-anchor="middle" x="1569" y="-63.5" font-family="Helvetica,sans-Serif" font-size="10.00" fill="#000000">RadialGradient.cpp</text>
</a>
</g>
</g>
<!-- Node23&#45;&gt;Node34 -->
<g id="edge41" class="edge">
<title>Node23&#45;&gt;Node34</title>
<path fill="none" stroke="#191970" d="M1359.3316,-110.3073C1408.1624,-99.9883 1478.4571,-85.1336 1523.9326,-75.5237"/>
<polygon fill="#191970" stroke="#191970" points="1358.3143,-106.9449 1349.254,-112.4369 1359.7616,-113.7936 1358.3143,-106.9449"/>
</g>
<!-- Node35 -->
<g id="node35" class="node">
<title>Node35</title>
<g id="a_node35"><a xlink:href="_rectangle_8cpp.html" target="_top" xlink:title="Implementation of the Rectangle class. ">
<polygon fill="#ffffff" stroke="#000000" points="1638,-56.5 1638,-75.5 1718,-75.5 1718,-56.5 1638,-56.5"/>
<text text-anchor="middle" x="1678" y="-63.5" font-family="Helvetica,sans-Serif" font-size="10.00" fill="#000000">Rectangle.cpp</text>
</a>
</g>
</g>
<!-- Node23&#45;&gt;Node35 -->
<g id="edge42" class="edge">
<title>Node23&#45;&gt;Node35</title>
<path fill="none" stroke="#191970" d="M1365.8096,-114.3866C1431.3214,-106.0522 1537.7176,-91.7596 1629,-76 1631.9089,-75.4978 1634.9095,-74.9526 1637.9261,-74.3847"/>
<polygon fill="#191970" stroke="#191970" points="1365.1361,-110.9439 1355.655,-115.6724 1366.0155,-117.8884 1365.1361,-110.9439"/>
</g>
<!-- Node36 -->
<g id="node36" class="node">
<title>Node36</title>
<g id="a_node36"><a xlink:href="_render_cubic_bezier_8cpp.html" target="_top" xlink:title="Implementation of the RenderCubicBezier class. ">
<polygon fill="#ffffff" stroke="#000000" points="1736,-56.5 1736,-75.5 1858,-75.5 1858,-56.5 1736,-56.5"/>
<text text-anchor="middle" x="1797" y="-63.5" font-family="Helvetica,sans-Serif" font-size="10.00" fill="#000000">RenderCubicBezier.cpp</text>
</a>
</g>
</g>
<!-- Node23&#45;&gt;Node36 -->
<g id="edge43" class="edge">
<title>Node23&#45;&gt;Node36</title>
<path fill="none" stroke="#191970" d="M1365.7021,-115.9455C1448.1403,-107.7064 1598.7264,-92.1325 1727,-76 1729.9233,-75.6324 1732.9136,-75.2458 1735.9328,-74.847"/>
<polygon fill="#191970" stroke="#191970" points="1365.109,-112.4872 1355.5055,-116.9619 1365.8034,-119.4527 1365.109,-112.4872"/>
</g>
<!-- Node37 -->
<g id="node37" class="node">
<title>Node37</title>
<g id="a_node37"><a xlink:href="_render_curve_8cpp.html" target="_top" xlink:title="Implementation of the RenderCurve class. ">
<polygon fill="#ffffff" stroke="#000000" points="1876.5,-56.5 1876.5,-75.5 1971.5,-75.5 1971.5,-56.5 1876.5,-56.5"/>
<text text-anchor="middle" x="1924" y="-63.5" font-family="Helvetica,sans-Serif" font-size="10.00" fill="#000000">RenderCurve.cpp</text>
</a>
</g>
</g>
<!-- Node23&#45;&gt;Node37 -->
<g id="edge44" class="edge">
<title>Node23&#45;&gt;Node37</title>
<path fill="none" stroke="#191970" d="M1365.7789,-118.8195C1469.6067,-113.0566 1685.5513,-99.2789 1867,-76 1870.0892,-75.6037 1873.2661,-75.1567 1876.4642,-74.6771"/>
<polygon fill="#191970" stroke="#191970" points="1365.5779,-115.3251 1355.785,-119.3686 1365.962,-122.3146 1365.5779,-115.3251"/>
</g>
<!-- Node38 -->
<g id="node38" class="node">
<title>Node38</title>
<g id="a_node38"><a xlink:href="_render_group_8cpp.html" target="_top" xlink:title="Implementation of the RenderGroup class. ">
<polygon fill="#ffffff" stroke="#000000" points="0,-56.5 0,-75.5 96,-75.5 96,-56.5 0,-56.5"/>
<text text-anchor="middle" x="48" y="-63.5" font-family="Helvetica,sans-Serif" font-size="10.00" fill="#000000">RenderGroup.cpp</text>
</a>
</g>
</g>
<!-- Node23&#45;&gt;Node38 -->
<g id="edge45" class="edge">
<title>Node23&#45;&gt;Node38</title>
<path fill="none" stroke="#191970" d="M1242.3798,-112.0914C737.6077,-63.8139 605.0491,-127.5099 105,-76 102.1017,-75.7014 99.1286,-75.3422 96.1348,-74.9399"/>
<polygon fill="#191970" stroke="#191970" points="1242.1872,-115.589 1252.4775,-113.0673 1242.8606,-108.6214 1242.1872,-115.589"/>
</g>
<!-- Node39 -->
<g id="node39" class="node">
<title>Node39</title>
<g id="a_node39"><a xlink:href="_render_point_8cpp.html" target="_top" xlink:title="Implementation of the RenderPoint class. ">
<polygon fill="#ffffff" stroke="#000000" points="114.5,-56.5 114.5,-75.5 205.5,-75.5 205.5,-56.5 114.5,-56.5"/>
<text text-anchor="middle" x="160" y="-63.5" font-family="Helvetica,sans-Serif" font-size="10.00" fill="#000000">RenderPoint.cpp</text>
</a>
</g>
</g>
<!-- Node23&#45;&gt;Node39 -->
<g id="edge46" class="edge">
<title>Node23&#45;&gt;Node39</title>
<path fill="none" stroke="#191970" d="M1242.3272,-112.0823C786.3039,-67.7744 666.2043,-124.6599 215,-76 211.9123,-75.667 208.7371,-75.261 205.5446,-74.8055"/>
<polygon fill="#191970" stroke="#191970" points="1242.1819,-115.5848 1252.4763,-113.0796 1242.8666,-108.6183 1242.1819,-115.5848"/>
</g>
<!-- Node40 -->
<g id="node40" class="node">
<title>Node40</title>
<g id="a_node40"><a xlink:href="_style_8cpp.html" target="_top" xlink:title="Implementation of the Style class. ">
<polygon fill="#ffffff" stroke="#000000" points="224,-56.5 224,-75.5 282,-75.5 282,-56.5 224,-56.5"/>
<text text-anchor="middle" x="253" y="-63.5" font-family="Helvetica,sans-Serif" font-size="10.00" fill="#000000">Style.cpp</text>
</a>
</g>
</g>
<!-- Node23&#45;&gt;Node40 -->
<g id="edge47" class="edge">
<title>Node23&#45;&gt;Node40</title>
<path fill="none" stroke="#191970" d="M1242.4373,-112.0925C819.9407,-70.7325 706.5402,-137.7662 291,-76 288.166,-75.5787 285.239,-75.0266 282.3259,-74.3977"/>
<polygon fill="#191970" stroke="#191970" points="1242.1782,-115.584 1252.4753,-113.0898 1242.8703,-108.6182 1242.1782,-115.584"/>
</g>
<!-- Node41 -->
<g id="node41" class="node">
<title>Node41</title>
<g id="a_node41"><a xlink:href="_text_8cpp.html" target="_top" xlink:title="Implementation of the Text class. ">
<polygon fill="#ffffff" stroke="#000000" points="300.5,-56.5 300.5,-75.5 355.5,-75.5 355.5,-56.5 300.5,-56.5"/>
<text text-anchor="middle" x="328" y="-63.5" font-family="Helvetica,sans-Serif" font-size="10.00" fill="#000000">Text.cpp</text>
</a>
</g>
</g>
<!-- Node23&#45;&gt;Node41 -->
<g id="edge48" class="edge">
<title>Node23&#45;&gt;Node41</title>
<path fill="none" stroke="#191970" d="M1242.3242,-112.0783C852.2324,-73.392 746.9494,-136.2059 364,-76 361.3087,-75.5769 358.5314,-75.0234 355.7689,-74.3938"/>
<polygon fill="#191970" stroke="#191970" points="1242.1735,-115.5807 1252.4741,-113.1013 1242.8755,-108.616 1242.1735,-115.5807"/>
</g>
<!-- Node43&#45;&gt;Node2 -->
<g id="edge52" class="edge">
<title>Node43&#45;&gt;Node2</title>
<path fill="none" stroke="#191970" d="M2721.6539,-214.7267C2734.05,-178.8207 2760.2669,-102.8822 2769.607,-75.8279"/>
<polygon fill="#191970" stroke="#191970" points="2718.2396,-213.8915 2718.2845,-224.4862 2724.8563,-216.1759 2718.2396,-213.8915"/>
</g>
<!-- Node43&#45;&gt;Node8 -->
<g id="edge54" class="edge">
<title>Node43&#45;&gt;Node8</title>
<path fill="none" stroke="#191970" d="M2659.6984,-225.893C2576.9033,-213.7555 2423.7533,-191.3042 2360.9636,-182.0994"/>
<polygon fill="#191970" stroke="#191970" points="2659.2776,-229.3686 2669.6795,-227.3562 2660.2929,-222.4426 2659.2776,-229.3686"/>
</g>
<!-- Node43&#45;&gt;Node17 -->
<g id="edge53" class="edge">
<title>Node43&#45;&gt;Node17</title>
<path fill="none" stroke="#191970" d="M2706.9642,-215.2498C2696.612,-191.0946 2679.0087,-150.0202 2671.0821,-131.5249"/>
<polygon fill="#191970" stroke="#191970" points="2703.7513,-216.6382 2710.9075,-224.4509 2710.1853,-213.8807 2703.7513,-216.6382"/>
</g>
<!-- Node43&#45;&gt;Node19 -->
<g id="edge55" class="edge">
<title>Node43&#45;&gt;Node19</title>
<path fill="none" stroke="#191970" d="M2731.2447,-217.1536C2754.2356,-193.3113 2795.5028,-150.5156 2813.8153,-131.5249"/>
<polygon fill="#191970" stroke="#191970" points="2728.6299,-214.823 2724.208,-224.4509 2733.6689,-219.682 2728.6299,-214.823"/>
</g>
</g>
</svg>
        <g id="navigator" transform="translate(0 0)" fill="#404254">
                <rect fill="#f2f5e9" fill-opacity="0.5" stroke="#606060" stroke-width=".5" x="0" y="0" width="60" height="60"/>
                <use id="zoomplus" xlink:href="#zoomPlus" x="17" y="9" onmousedown="handleZoom(evt,'in')"/>
                <use id="zoomminus" xlink:href="#zoomMin" x="42" y="9" onmousedown="handleZoom(evt,'out')"/>
                <use id="reset" xlink:href="#resetDef" x="30" y="36" onmousedown="handleReset()"/>
                <g id="arrowUp" xlink:href="#dirArrow" transform="translate(30 24)" onmousedown="handlePan(0,-1)">
                  <use xlink:href="#rim" fill="#404040">
                        <set attributeName="fill" to="#808080" begin="arrowUp.mouseover" end="arrowUp.mouseout"/>
                  </use>
                  <path fill="none" stroke="white" stroke-width="1.5" d="M0,-3.0v7 M-2.5,-0.5L0,-3.0L2.5,-0.5"/>
                </g>
                <g id="arrowRight" xlink:href="#dirArrow" transform="rotate(90) translate(36 -43)" onmousedown="handlePan(1,0)">
                  <use xlink:href="#rim" fill="#404040">
                        <set attributeName="fill" to="#808080" begin="arrowRight.mouseover" end="arrowRight.mouseout"/>
                  </use>
                  <path fill="none" stroke="white" stroke-width="1.5" d="M0,-3.0v7 M-2.5,-0.5L0,-3.0L2.5,-0.5"/>
                </g>
                <g id="arrowDown" xlink:href="#dirArrow" transform="rotate(180) translate(-30 -48)" onmousedown="handlePan(0,1)">
                  <use xlink:href="#rim" fill="#404040">
                        <set attributeName="fill" to="#808080" begin="arrowDown.mouseover" end="arrowDown.mouseout"/>
                  </use>
                  <path fill="none" stroke="white" stroke-width="1.5" d="M0,-3.0v7 M-2.5,-0.5L0,-3.0L2.5,-0.5"/>
                </g>
                <g id="arrowLeft" xlink:href="#dirArrow" transform="rotate(270) translate(-36 17)" onmousedown="handlePan(-1,0)">
                  <use xlink:href="#rim" fill="#404040">
                        <set attributeName="fill" to="#808080" begin="arrowLeft.mouseover" end="arrowLeft.mouseout"/>
                  </use>
                  <path fill="none" stroke="white" stroke-width="1.5" d="M0,-3.0v7 M-2.5,-0.5L0,-3.0L2.5,-0.5"/>
                </g>
        </g>
        <svg viewBox="0 0 15 15" width="100%" height="30px" preserveAspectRatio="xMaxYMin meet">
         <g id="arrow_out" transform="scale(0.3 0.3)">
          <a xlink:href="_species_reference_glyph_8h__dep__incl_org.svg" target="_base">
           <rect id="button" ry="5" rx="5" y="6" x="6" height="38" width="38"
                fill="#f2f5e9" fill-opacity="0.5" stroke="#606060" stroke-width="1.0"/>
           <path id="arrow"
             d="M 11.500037,31.436501 C 11.940474,20.09759 22.043105,11.32322 32.158766,21.979434 L 37.068811,17.246167 C 37.068811,17.246167 37.088388,32 37.088388,32 L 22.160133,31.978069 C 22.160133,31.978069 26.997745,27.140456 26.997745,27.140456 C 18.528582,18.264221 13.291696,25.230495 11.500037,31.436501 z"
             style="fill:#404040;"/>
          </a>
         </g>
        </svg>
</svg>
