<?xml version="1.0" encoding="UTF-8" standalone="no"?>
<!DOCTYPE svg PUBLIC "-//W3C//DTD SVG 1.1//EN"
 "http://www.w3.org/Graphics/SVG/1.1/DTD/svg11.dtd">
<!-- Generated by graphviz version 2.40.1 (20161225.0304)
 -->
<!-- Title: SpeciesReferenceRole.h Pages: 1 -->
<!--zoomable 364 -->
<svg id="main" version="1.1" xmlns="http://www.w3.org/2000/svg" xmlns:xlink="http://www.w3.org/1999/xlink" xml:space="preserve" onload="init(evt)">
<style type="text/css"><![CDATA[
.edge:hover path { stroke: red; }
.edge:hover polygon { stroke: red; fill: red; }
]]></style>
<script type="text/javascript"><![CDATA[
var edges = document.getElementsByTagName('g');
if (edges && edges.length) {
  for (var i=0;i<edges.length;i++) {
    if (edges[i].id.substr(0,4)=='edge') {
      edges[i].setAttribute('class','edge');
    }
  }
}
]]></script>
        <defs>
                <circle id="rim" cx="0" cy="0" r="7"/>
                <circle id="rim2" cx="0" cy="0" r="3.5"/>
                <g id="zoomPlus">
                        <use xlink:href="#rim" fill="#404040">
                                <set attributeName="fill" to="#808080" begin="zoomplus.mouseover" end="zoomplus.mouseout"/>
                        </use>
                        <path d="M-4,0h8M0,-4v8" fill="none" stroke="white" stroke-width="1.5" pointer-events="none"/>
                </g>
                <g id="zoomMin">
                        <use xlink:href="#rim" fill="#404040">
                                <set attributeName="fill" to="#808080" begin="zoomminus.mouseover" end="zoomminus.mouseout"/>
                        </use>
                        <path d="M-4,0h8" fill="none" stroke="white" stroke-width="1.5" pointer-events="none"/>
                </g>
                <g id="dirArrow">
                        <path fill="none" stroke="white" stroke-width="1.5" d="M0,-3.0v7 M-2.5,-0.5L0,-3.0L2.5,-0.5"/>
                </g>
               <g id="resetDef">
                       <use xlink:href="#rim2" fill="#404040">
                               <set attributeName="fill" to="#808080" begin="reset.mouseover" end="reset.mouseout"/>
                       </use>
               </g>
        </defs>

<script type="text/javascript">
var viewWidth = 2554;
var viewHeight = 364;
var sectionId = 'dynsection-1';
</script>
<script xlink:href="svgpan.js"/>
<svg id="graph" class="graph">
<g id="viewport">
<title>SpeciesReferenceRole.h</title>
<polygon fill="#ffffff" stroke="transparent" points="-4,4 -4,-360 2549.5,-360 2549.5,4 -4,4"/>
<!-- Node1 -->
<g id="node1" class="node">
<title>Node1</title>
<polygon fill="#bfbfbf" stroke="#000000" points="716.5,-336.5 716.5,-355.5 815.5,-355.5 815.5,-336.5 716.5,-336.5"/>
<text text-anchor="middle" x="766" y="-343.5" font-family="Helvetica,sans-Serif" font-size="10.00" fill="#000000">SpeciesReferenceRole.h</text>
</g>
<!-- Node2 -->
<g id="node2" class="node">
<title>Node2</title>
<g id="a_node2"><a xlink:href="_layout_extension_types_8h.html" target="_top" xlink:title="Include all SBML types of layout extension in a single header file. ">
<polygon fill="#ffffff" stroke="#000000" points="215.5,-56.5 215.5,-75.5 314.5,-75.5 314.5,-56.5 215.5,-56.5"/>
<text text-anchor="middle" x="265" y="-63.5" font-family="Helvetica,sans-Serif" font-size="10.00" fill="#000000">LayoutExtensionTypes.h</text>
</a>
</g>
</g>
<!-- Node1&#45;&gt;Node2 -->
<g id="edge1" class="edge">
<title>Node1&#45;&gt;Node2</title>
<path fill="none" stroke="#191970" d="M706.2219,-338.7361C574.3285,-321.8994 270,-278.2556 270,-234 270,-234 270,-234 270,-178 270,-140.0456 267.0989,-94.9282 265.7164,-75.5819"/>
<polygon fill="#191970" stroke="#191970" points="705.8099,-342.2118 716.1707,-339.9969 706.6901,-335.2673 705.8099,-342.2118"/>
</g>
<!-- Node8 -->
<g id="node8" class="node">
<title>Node8</title>
<g id="a_node8"><a xlink:href="_species_reference_glyph_8h.html" target="_top" xlink:title="Definition of SpeciesReferenceGlyph for SBML Layout. ">
<polygon fill="#ffffff" stroke="#000000" points="1438,-280.5 1438,-299.5 1542,-299.5 1542,-280.5 1438,-280.5"/>
<text text-anchor="middle" x="1490" y="-287.5" font-family="Helvetica,sans-Serif" font-size="10.00" fill="#000000">SpeciesReferenceGlyph.h</text>
</a>
</g>
</g>
<!-- Node1&#45;&gt;Node8 -->
<g id="edge7" class="edge">
<title>Node1&#45;&gt;Node8</title>
<path fill="none" stroke="#191970" d="M825.7993,-341.3746C964.6566,-330.6343 1307.0383,-304.1517 1437.9499,-294.026"/>
<polygon fill="#191970" stroke="#191970" points="825.4637,-337.89 815.7635,-342.1509 826.0036,-344.8692 825.4637,-337.89"/>
</g>
<!-- Node3 -->
<g id="node3" class="node">
<title>Node3</title>
<g id="a_node3"><a xlink:href="_graphical_object_8cpp.html" target="_top" xlink:title="Implementation of GraphicalObject for SBML Layout. ">
<polygon fill="#ffffff" stroke="#000000" points="0,-.5 0,-19.5 84,-19.5 84,-.5 0,-.5"/>
<text text-anchor="middle" x="42" y="-7.5" font-family="Helvetica,sans-Serif" font-size="10.00" fill="#000000">GraphicalObject.cpp</text>
</a>
</g>
</g>
<!-- Node2&#45;&gt;Node3 -->
<g id="edge2" class="edge">
<title>Node2&#45;&gt;Node3</title>
<path fill="none" stroke="#191970" d="M217.1426,-53.982C176.1111,-43.6781 117.7924,-29.0331 79.9246,-19.5237"/>
<polygon fill="#191970" stroke="#191970" points="216.367,-57.3958 226.9183,-56.4369 218.0719,-50.6066 216.367,-57.3958"/>
</g>
<!-- Node4 -->
<g id="node4" class="node">
<title>Node4</title>
<g id="a_node4"><a xlink:href="_layout_validator_8cpp.html" target="_top" xlink:title="Implementation of the LayoutValidator class. ">
<polygon fill="#ffffff" stroke="#000000" points="102.5,-.5 102.5,-19.5 185.5,-19.5 185.5,-.5 102.5,-.5"/>
<text text-anchor="middle" x="144" y="-7.5" font-family="Helvetica,sans-Serif" font-size="10.00" fill="#000000">LayoutValidator.cpp</text>
</a>
</g>
</g>
<!-- Node2&#45;&gt;Node4 -->
<g id="edge3" class="edge">
<title>Node2&#45;&gt;Node4</title>
<path fill="none" stroke="#191970" d="M234.9896,-52.1109C213.0475,-41.9559 183.8612,-28.4482 164.5292,-19.5011"/>
<polygon fill="#191970" stroke="#191970" points="233.6541,-55.3494 244.1994,-56.3733 236.5942,-48.9968 233.6541,-55.3494"/>
</g>
<!-- Node5 -->
<g id="node5" class="node">
<title>Node5</title>
<g id="a_node5"><a xlink:href="_render_list_of_layouts_plugin_8cpp.html" target="_top" xlink:title="Implementation of RenderListOfLayoutsPlugin, the plugin class of the fbc package for the Model elemen...">
<polygon fill="#ffffff" stroke="#000000" points="204,-.5 204,-19.5 326,-19.5 326,-.5 204,-.5"/>
<text text-anchor="middle" x="265" y="-7.5" font-family="Helvetica,sans-Serif" font-size="10.00" fill="#000000">RenderListOfLayoutsPlugin.cpp</text>
</a>
</g>
</g>
<!-- Node2&#45;&gt;Node5 -->
<g id="edge4" class="edge">
<title>Node2&#45;&gt;Node5</title>
<path fill="none" stroke="#191970" d="M265,-46.1575C265,-37.155 265,-26.9199 265,-19.6427"/>
<polygon fill="#191970" stroke="#191970" points="261.5001,-46.2455 265,-56.2455 268.5001,-46.2456 261.5001,-46.2455"/>
</g>
<!-- Node6 -->
<g id="node6" class="node">
<title>Node6</title>
<g id="a_node6"><a xlink:href="_render_layout_converter_8cpp.html" target="_top" xlink:title="Simple converter to convert Layout + Render from l2 to L3 and vice versa. ">
<polygon fill="#ffffff" stroke="#000000" points="344.5,-.5 344.5,-19.5 455.5,-19.5 455.5,-.5 344.5,-.5"/>
<text text-anchor="middle" x="400" y="-7.5" font-family="Helvetica,sans-Serif" font-size="10.00" fill="#000000">RenderLayoutConverter.cpp</text>
</a>
</g>
</g>
<!-- Node2&#45;&gt;Node6 -->
<g id="edge5" class="edge">
<title>Node2&#45;&gt;Node6</title>
<path fill="none" stroke="#191970" d="M297.4991,-52.5189C322.0854,-42.3201 355.2366,-28.5685 377.0955,-19.5011"/>
<polygon fill="#191970" stroke="#191970" points="296.1031,-49.3087 288.2073,-56.3733 298.7852,-55.7745 296.1031,-49.3087"/>
</g>
<!-- Node7 -->
<g id="node7" class="node">
<title>Node7</title>
<g id="a_node7"><a xlink:href="_render_utilities_8cpp.html" target="_top" xlink:title="implementation of RenderUtilities, a class of utility functions for the render package ...">
<polygon fill="#ffffff" stroke="#000000" points="473.5,-.5 473.5,-19.5 552.5,-19.5 552.5,-.5 473.5,-.5"/>
<text text-anchor="middle" x="513" y="-7.5" font-family="Helvetica,sans-Serif" font-size="10.00" fill="#000000">RenderUtilities.cpp</text>
</a>
</g>
</g>
<!-- Node2&#45;&gt;Node7 -->
<g id="edge6" class="edge">
<title>Node2&#45;&gt;Node7</title>
<path fill="none" stroke="#191970" d="M317.252,-54.2012C363.8231,-43.6851 430.9781,-28.5211 473.2835,-18.9682"/>
<polygon fill="#191970" stroke="#191970" points="316.3344,-50.8202 307.3509,-56.4369 317.8763,-57.6482 316.3344,-50.8202"/>
</g>
<!-- Node8&#45;&gt;Node2 -->
<g id="edge8" class="edge">
<title>Node8&#45;&gt;Node2</title>
<path fill="none" stroke="#191970" d="M1427.4951,-284.2836C1224.6185,-265.2196 586.4173,-201.1058 392,-132 349.3881,-116.8536 303.1751,-89.8849 280.0188,-75.5593"/>
<polygon fill="#191970" stroke="#191970" points="1427.3952,-287.7895 1437.6779,-285.2369 1428.0478,-280.82 1427.3952,-287.7895"/>
</g>
<!-- Node9 -->
<g id="node9" class="node">
<title>Node9</title>
<g id="a_node9"><a xlink:href="_layout_8h.html" target="_top" xlink:title="Definition of Layout for SBML Layout. ">
<polygon fill="#ffffff" stroke="#000000" points="1435.5,-168.5 1435.5,-187.5 1480.5,-187.5 1480.5,-168.5 1435.5,-168.5"/>
<text text-anchor="middle" x="1458" y="-175.5" font-family="Helvetica,sans-Serif" font-size="10.00" fill="#000000">Layout.h</text>
</a>
</g>
</g>
<!-- Node8&#45;&gt;Node9 -->
<g id="edge9" class="edge">
<title>Node8&#45;&gt;Node9</title>
<path fill="none" stroke="#191970" d="M1484.4568,-270.5987C1477.5323,-246.363 1465.9586,-205.8551 1460.7214,-187.5249"/>
<polygon fill="#191970" stroke="#191970" points="1481.1591,-271.7972 1487.2717,-280.4509 1487.8898,-269.8742 1481.1591,-271.7972"/>
</g>
<!-- Node20 -->
<g id="node20" class="node">
<title>Node20</title>
<g id="a_node20"><a xlink:href="_reaction_glyph_8cpp.html" target="_top" xlink:title="Implementation of ReactionGlyph for SBML Layout. ">
<polygon fill="#ffffff" stroke="#000000" points="1871,-112.5 1871,-131.5 1951,-131.5 1951,-112.5 1871,-112.5"/>
<text text-anchor="middle" x="1911" y="-119.5" font-family="Helvetica,sans-Serif" font-size="10.00" fill="#000000">ReactionGlyph.cpp</text>
</a>
</g>
</g>
<!-- Node8&#45;&gt;Node20 -->
<g id="edge52" class="edge">
<title>Node8&#45;&gt;Node20</title>
<path fill="none" stroke="#191970" d="M1523.189,-276.7559C1605.2249,-244.0195 1816.0392,-159.8941 1887.1602,-131.5133"/>
<polygon fill="#191970" stroke="#191970" points="1521.8316,-273.5291 1513.841,-280.4862 1524.4261,-280.0306 1521.8316,-273.5291"/>
</g>
<!-- Node22 -->
<g id="node22" class="node">
<title>Node22</title>
<g id="a_node22"><a xlink:href="_species_reference_glyph_8cpp.html" target="_top" xlink:title="Implementation of SpeciesReferenceGlyph for SBML Layout. ">
<polygon fill="#ffffff" stroke="#000000" points="1969,-112.5 1969,-131.5 2081,-131.5 2081,-112.5 1969,-112.5"/>
<text text-anchor="middle" x="2025" y="-119.5" font-family="Helvetica,sans-Serif" font-size="10.00" fill="#000000">SpeciesReferenceGlyph.cpp</text>
</a>
</g>
</g>
<!-- Node8&#45;&gt;Node22 -->
<g id="edge58" class="edge">
<title>Node8&#45;&gt;Node22</title>
<path fill="none" stroke="#191970" d="M1532.1167,-277.662C1563.1077,-268.5243 1606.2364,-255.6849 1644,-244 1775.7058,-203.2472 1932.2336,-152.3429 1995.9043,-131.5317"/>
<polygon fill="#191970" stroke="#191970" points="1531.1075,-274.3105 1522.5033,-280.4925 1533.0847,-281.0254 1531.1075,-274.3105"/>
</g>
<!-- Node44 -->
<g id="node44" class="node">
<title>Node44</title>
<g id="a_node44"><a xlink:href="_reaction_glyph_8h.html" target="_top" xlink:title="Definition of ReactionGlyph for SBML Layout. ">
<polygon fill="#ffffff" stroke="#000000" points="1486,-224.5 1486,-243.5 1558,-243.5 1558,-224.5 1486,-224.5"/>
<text text-anchor="middle" x="1522" y="-231.5" font-family="Helvetica,sans-Serif" font-size="10.00" fill="#000000">ReactionGlyph.h</text>
</a>
</g>
</g>
<!-- Node8&#45;&gt;Node44 -->
<g id="edge53" class="edge">
<title>Node8&#45;&gt;Node44</title>
<path fill="none" stroke="#191970" d="M1500.6645,-271.3372C1505.9654,-262.0605 1512.1487,-251.2398 1516.4899,-243.6427"/>
<polygon fill="#191970" stroke="#191970" points="1497.4966,-269.8266 1495.574,-280.2455 1503.5743,-273.2996 1497.4966,-269.8266"/>
</g>
<!-- Node9&#45;&gt;Node2 -->
<g id="edge10" class="edge">
<title>Node9&#45;&gt;Node2</title>
<path fill="none" stroke="#191970" d="M1424.9532,-177.3896C1281.0481,-174.5736 708.3482,-161.6864 531,-132 499.5092,-126.7287 492.8903,-120.0773 462,-112 409.6724,-98.3171 349.0116,-84.4501 308.9796,-75.572"/>
<polygon fill="#191970" stroke="#191970" points="1425.247,-180.8959 1435.3127,-177.5893 1425.382,-173.8972 1425.247,-180.8959"/>
</g>
<!-- Node10 -->
<g id="node10" class="node">
<title>Node10</title>
<g id="a_node10"><a xlink:href="_layout_model_plugin_8h.html" target="_top" xlink:title="Definition of LayoutModelPlugin, the plugin class of layout package for Model element. ">
<polygon fill="#ffffff" stroke="#000000" points="540.5,-112.5 540.5,-131.5 627.5,-131.5 627.5,-112.5 540.5,-112.5"/>
<text text-anchor="middle" x="584" y="-119.5" font-family="Helvetica,sans-Serif" font-size="10.00" fill="#000000">LayoutModelPlugin.h</text>
</a>
</g>
</g>
<!-- Node9&#45;&gt;Node10 -->
<g id="edge11" class="edge">
<title>Node9&#45;&gt;Node10</title>
<path fill="none" stroke="#191970" d="M1425.2246,-176.3464C1319.6127,-170.9478 978.7018,-152.9746 697,-132 674.119,-130.2964 648.6614,-128.0723 627.7109,-126.1544"/>
<polygon fill="#191970" stroke="#191970" points="1425.0961,-179.8443 1435.2613,-176.8577 1425.4524,-172.8533 1425.0961,-179.8443"/>
</g>
<!-- Node13 -->
<g id="node13" class="node">
<title>Node13</title>
<g id="a_node13"><a xlink:href="_layout_annotation_8cpp.html" target="_top" xlink:title="Layout annotation I/O. ">
<polygon fill="#ffffff" stroke="#000000" points="543.5,-56.5 543.5,-75.5 632.5,-75.5 632.5,-56.5 543.5,-56.5"/>
<text text-anchor="middle" x="588" y="-63.5" font-family="Helvetica,sans-Serif" font-size="10.00" fill="#000000">LayoutAnnotation.cpp</text>
</a>
</g>
</g>
<!-- Node9&#45;&gt;Node13 -->
<g id="edge28" class="edge">
<title>Node9&#45;&gt;Node13</title>
<path fill="none" stroke="#191970" d="M1425.0162,-174.581C1314.1868,-162.9427 945.1159,-122.9695 642,-76 638.985,-75.5328 635.88,-75.0262 632.7546,-74.4972"/>
<polygon fill="#191970" stroke="#191970" points="1424.9069,-178.0886 1435.2169,-175.6486 1425.6356,-171.1266 1424.9069,-178.0886"/>
</g>
<!-- Node15 -->
<g id="node15" class="node">
<title>Node15</title>
<g id="a_node15"><a xlink:href="_layout_species_reference_plugin_8h.html" target="_top" xlink:title="Definition of LayoutSpeciesReferencePlugin, the plugin class of layout package (Level2) for the Speci...">
<polygon fill="#ffffff" stroke="#000000" points="706.5,-112.5 706.5,-131.5 833.5,-131.5 833.5,-112.5 706.5,-112.5"/>
<text text-anchor="middle" x="770" y="-119.5" font-family="Helvetica,sans-Serif" font-size="10.00" fill="#000000">LayoutSpeciesReferencePlugin.h</text>
</a>
</g>
</g>
<!-- Node9&#45;&gt;Node15 -->
<g id="edge17" class="edge">
<title>Node9&#45;&gt;Node15</title>
<path fill="none" stroke="#191970" d="M1424.8656,-175.303C1317.2626,-166.5446 976.361,-138.7968 833.7227,-127.1867"/>
<polygon fill="#191970" stroke="#191970" points="1424.858,-178.8139 1435.109,-176.1368 1425.4259,-171.837 1424.858,-178.8139"/>
</g>
<!-- Node17 -->
<g id="node17" class="node">
<title>Node17</title>
<g id="a_node17"><a xlink:href="_compartment_glyph_8cpp.html" target="_top" xlink:title="Implementation of CompartmentGlyph for SBML Layout. ">
<polygon fill="#ffffff" stroke="#000000" points="1295,-112.5 1295,-131.5 1391,-131.5 1391,-112.5 1295,-112.5"/>
<text text-anchor="middle" x="1343" y="-119.5" font-family="Helvetica,sans-Serif" font-size="10.00" fill="#000000">CompartmentGlyph.cpp</text>
</a>
</g>
</g>
<!-- Node9&#45;&gt;Node17 -->
<g id="edge21" class="edge">
<title>Node9&#45;&gt;Node17</title>
<path fill="none" stroke="#191970" d="M1429.1967,-163.9741C1408.375,-153.8348 1380.8022,-140.408 1362.5112,-131.5011"/>
<polygon fill="#191970" stroke="#191970" points="1427.7078,-167.1419 1438.2308,-168.3733 1430.7724,-160.8484 1427.7078,-167.1419"/>
</g>
<!-- Node18 -->
<g id="node18" class="node">
<title>Node18</title>
<g id="a_node18"><a xlink:href="_general_glyph_8cpp.html" target="_top" xlink:title="Implementation of GeneralGlyph for SBML Layout. ">
<polygon fill="#ffffff" stroke="#000000" points="1775.5,-112.5 1775.5,-131.5 1852.5,-131.5 1852.5,-112.5 1775.5,-112.5"/>
<text text-anchor="middle" x="1814" y="-119.5" font-family="Helvetica,sans-Serif" font-size="10.00" fill="#000000">GeneralGlyph.cpp</text>
</a>
</g>
</g>
<!-- Node9&#45;&gt;Node18 -->
<g id="edge22" class="edge">
<title>Node9&#45;&gt;Node18</title>
<path fill="none" stroke="#191970" d="M1490.992,-173.7027C1547.472,-166.2054 1666.2504,-149.8244 1766,-132 1769.0166,-131.461 1772.1341,-130.8758 1775.2643,-130.2681"/>
<polygon fill="#191970" stroke="#191970" points="1490.3254,-170.2603 1480.8698,-175.0396 1491.2421,-177.2 1490.3254,-170.2603"/>
</g>
<!-- Node19 -->
<g id="node19" class="node">
<title>Node19</title>
<g id="a_node19"><a xlink:href="_layout_8cpp.html" target="_top" xlink:title="Implementation of Layout for SBML Layout. ">
<polygon fill="#ffffff" stroke="#000000" points="1409.5,-112.5 1409.5,-131.5 1462.5,-131.5 1462.5,-112.5 1409.5,-112.5"/>
<text text-anchor="middle" x="1436" y="-119.5" font-family="Helvetica,sans-Serif" font-size="10.00" fill="#000000">Layout.cpp</text>
</a>
</g>
</g>
<!-- Node9&#45;&gt;Node19 -->
<g id="edge23" class="edge">
<title>Node9&#45;&gt;Node19</title>
<path fill="none" stroke="#191970" d="M1450.4372,-158.7493C1446.8454,-149.6064 1442.7099,-139.0798 1439.7882,-131.6427"/>
<polygon fill="#191970" stroke="#191970" points="1447.2537,-160.2178 1454.1679,-168.2455 1453.7689,-157.6582 1447.2537,-160.2178"/>
</g>
<!-- Node9&#45;&gt;Node20 -->
<g id="edge24" class="edge">
<title>Node9&#45;&gt;Node20</title>
<path fill="none" stroke="#191970" d="M1491.0485,-175.1728C1560.0354,-169.0636 1724.3038,-153.4326 1861,-132 1864.2359,-131.4926 1867.5809,-130.9231 1870.9358,-130.3198"/>
<polygon fill="#191970" stroke="#191970" points="1490.4691,-171.7101 1480.8134,-176.071 1491.0811,-178.6833 1490.4691,-171.7101"/>
</g>
<!-- Node21 -->
<g id="node21" class="node">
<title>Node21</title>
<g id="a_node21"><a xlink:href="_species_glyph_8cpp.html" target="_top" xlink:title="Implementation of SpeciesGlyph for SBML Layout. ">
<polygon fill="#ffffff" stroke="#000000" points="1480.5,-112.5 1480.5,-131.5 1557.5,-131.5 1557.5,-112.5 1480.5,-112.5"/>
<text text-anchor="middle" x="1519" y="-119.5" font-family="Helvetica,sans-Serif" font-size="10.00" fill="#000000">SpeciesGlyph.cpp</text>
</a>
</g>
</g>
<!-- Node9&#45;&gt;Node21 -->
<g id="edge25" class="edge">
<title>Node9&#45;&gt;Node21</title>
<path fill="none" stroke="#191970" d="M1476.1249,-161.3607C1486.678,-151.6727 1499.6112,-139.7995 1508.4964,-131.6427"/>
<polygon fill="#191970" stroke="#191970" points="1473.625,-158.9045 1468.6254,-168.2455 1478.3589,-164.0611 1473.625,-158.9045"/>
</g>
<!-- Node9&#45;&gt;Node22 -->
<g id="edge26" class="edge">
<title>Node9&#45;&gt;Node22</title>
<path fill="none" stroke="#191970" d="M1491.0205,-175.678C1571.4227,-169.8709 1783.6993,-153.6185 1960,-132 1962.8332,-131.6526 1965.7328,-131.2777 1968.6591,-130.8839"/>
<polygon fill="#191970" stroke="#191970" points="1490.2921,-172.2211 1480.5681,-176.4275 1490.7928,-179.2032 1490.2921,-172.2211"/>
</g>
<!-- Node23 -->
<g id="node23" class="node">
<title>Node23</title>
<g id="a_node23"><a xlink:href="_text_glyph_8cpp.html" target="_top" xlink:title="Implementation of TextGlyph for SBML Layout. ">
<polygon fill="#ffffff" stroke="#000000" points="1575.5,-112.5 1575.5,-131.5 1640.5,-131.5 1640.5,-112.5 1575.5,-112.5"/>
<text text-anchor="middle" x="1608" y="-119.5" font-family="Helvetica,sans-Serif" font-size="10.00" fill="#000000">TextGlyph.cpp</text>
</a>
</g>
</g>
<!-- Node9&#45;&gt;Node23 -->
<g id="edge27" class="edge">
<title>Node9&#45;&gt;Node23</title>
<path fill="none" stroke="#191970" d="M1490.3783,-165.9121C1517.9672,-155.6123 1557.0741,-141.0123 1582.4882,-131.5244"/>
<polygon fill="#191970" stroke="#191970" points="1488.926,-162.7183 1480.7818,-169.4948 1491.3744,-169.2761 1488.926,-162.7183"/>
</g>
<!-- Node24 -->
<g id="node24" class="node">
<title>Node24</title>
<g id="a_node24"><a xlink:href="_layout_annotation_8h.html" target="_top" xlink:title="Layout annotation I/O. ">
<polygon fill="#ffffff" stroke="#000000" points="1195.5,-112.5 1195.5,-131.5 1276.5,-131.5 1276.5,-112.5 1195.5,-112.5"/>
<text text-anchor="middle" x="1236" y="-119.5" font-family="Helvetica,sans-Serif" font-size="10.00" fill="#000000">LayoutAnnotation.h</text>
</a>
</g>
</g>
<!-- Node9&#45;&gt;Node24 -->
<g id="edge29" class="edge">
<title>Node9&#45;&gt;Node24</title>
<path fill="none" stroke="#191970" d="M1425.6352,-169.8359C1385.2709,-159.6539 1316.388,-142.278 1273.6877,-131.5068"/>
<polygon fill="#191970" stroke="#191970" points="1424.9394,-173.27 1435.4918,-172.3222 1426.6516,-166.4826 1424.9394,-173.27"/>
</g>
<!-- Node43 -->
<g id="node43" class="node">
<title>Node43</title>
<g id="a_node43"><a xlink:href="_render_layout_plugin_8cpp.html" target="_top" xlink:title="Implementation of RenderLayoutPlugin, the plugin class of the fbc package for the Model element...">
<polygon fill="#ffffff" stroke="#000000" points="1658.5,-112.5 1658.5,-131.5 1757.5,-131.5 1757.5,-112.5 1658.5,-112.5"/>
<text text-anchor="middle" x="1708" y="-119.5" font-family="Helvetica,sans-Serif" font-size="10.00" fill="#000000">RenderLayoutPlugin.cpp</text>
</a>
</g>
</g>
<!-- Node9&#45;&gt;Node43 -->
<g id="edge51" class="edge">
<title>Node9&#45;&gt;Node43</title>
<path fill="none" stroke="#191970" d="M1490.3876,-170.7452C1535.0972,-160.7302 1615.8075,-142.6511 1665.3729,-131.5485"/>
<polygon fill="#191970" stroke="#191970" points="1489.6199,-167.3303 1480.6268,-172.9316 1491.15,-174.1611 1489.6199,-167.3303"/>
</g>
<!-- Node10&#45;&gt;Node2 -->
<g id="edge12" class="edge">
<title>Node10&#45;&gt;Node2</title>
<path fill="none" stroke="#191970" d="M530.2445,-112.5633C470.0288,-101.9925 373.2174,-84.9974 314.7049,-74.7256"/>
<polygon fill="#191970" stroke="#191970" points="529.8587,-116.049 540.3133,-114.3309 531.0691,-109.1544 529.8587,-116.049"/>
</g>
<!-- Node11 -->
<g id="node11" class="node">
<title>Node11</title>
<g id="a_node11"><a xlink:href="_layout_extension_8cpp.html" target="_top" xlink:title="Implementation of LayoutExtension, the core module of layout package. ">
<polygon fill="#ffffff" stroke="#000000" points="439,-56.5 439,-75.5 525,-75.5 525,-56.5 439,-56.5"/>
<text text-anchor="middle" x="482" y="-63.5" font-family="Helvetica,sans-Serif" font-size="10.00" fill="#000000">LayoutExtension.cpp</text>
</a>
</g>
</g>
<!-- Node10&#45;&gt;Node11 -->
<g id="edge13" class="edge">
<title>Node10&#45;&gt;Node11</title>
<path fill="none" stroke="#191970" d="M557.266,-107.3225C539.0468,-97.3198 515.4402,-84.3593 499.5634,-75.6427"/>
<polygon fill="#191970" stroke="#191970" points="555.7827,-110.5009 566.233,-112.2455 559.1516,-104.3649 555.7827,-110.5009"/>
</g>
<!-- Node12 -->
<g id="node12" class="node">
<title>Node12</title>
<g id="a_node12"><a xlink:href="_layout_model_plugin_8cpp.html" target="_top" xlink:title="Implementation of LayoutModelPlugin, the plugin class of layout package for the Model element...">
<polygon fill="#ffffff" stroke="#000000" points="651,-56.5 651,-75.5 745,-75.5 745,-56.5 651,-56.5"/>
<text text-anchor="middle" x="698" y="-63.5" font-family="Helvetica,sans-Serif" font-size="10.00" fill="#000000">LayoutModelPlugin.cpp</text>
</a>
</g>
</g>
<!-- Node10&#45;&gt;Node12 -->
<g id="edge14" class="edge">
<title>Node10&#45;&gt;Node12</title>
<path fill="none" stroke="#191970" d="M612.8321,-107.8368C633.4395,-97.7139 660.6082,-84.3679 678.6584,-75.5011"/>
<polygon fill="#191970" stroke="#191970" points="611.0297,-104.8227 603.5973,-112.3733 614.116,-111.1056 611.0297,-104.8227"/>
</g>
<!-- Node10&#45;&gt;Node13 -->
<g id="edge15" class="edge">
<title>Node10&#45;&gt;Node13</title>
<path fill="none" stroke="#191970" d="M585.4173,-102.1575C586.0604,-93.155 586.7914,-82.9199 587.3112,-75.6427"/>
<polygon fill="#191970" stroke="#191970" points="581.9182,-102.0216 584.6967,-112.2455 588.9004,-102.5204 581.9182,-102.0216"/>
</g>
<!-- Node14 -->
<g id="node14" class="node">
<title>Node14</title>
<g id="a_node14"><a xlink:href="_render_extension_8cpp.html" target="_top" xlink:title="Implementation of RenderExtension, the core module of the render package. ">
<polygon fill="#ffffff" stroke="#000000" points="333,-56.5 333,-75.5 421,-75.5 421,-56.5 333,-56.5"/>
<text text-anchor="middle" x="377" y="-63.5" font-family="Helvetica,sans-Serif" font-size="10.00" fill="#000000">RenderExtension.cpp</text>
</a>
</g>
</g>
<!-- Node10&#45;&gt;Node14 -->
<g id="edge16" class="edge">
<title>Node10&#45;&gt;Node14</title>
<path fill="none" stroke="#191970" d="M538.6075,-109.7199C500.545,-99.4228 446.972,-84.9296 412.1202,-75.5011"/>
<polygon fill="#191970" stroke="#191970" points="537.8484,-113.1403 548.4154,-112.3733 539.6765,-106.3832 537.8484,-113.1403"/>
</g>
<!-- Node15&#45;&gt;Node11 -->
<g id="edge18" class="edge">
<title>Node15&#45;&gt;Node11</title>
<path fill="none" stroke="#191970" d="M710.8324,-110.4952C655.672,-99.7696 574.7022,-84.0254 525.3296,-74.4252"/>
<polygon fill="#191970" stroke="#191970" points="710.334,-113.9638 720.8183,-112.4369 711.6702,-107.0925 710.334,-113.9638"/>
</g>
<!-- Node15&#45;&gt;Node13 -->
<g id="edge20" class="edge">
<title>Node15&#45;&gt;Node13</title>
<path fill="none" stroke="#191970" d="M728.8014,-109.3235C695.4242,-99.0536 649.1301,-84.8093 618.8786,-75.5011"/>
<polygon fill="#191970" stroke="#191970" points="728.126,-112.7776 738.7131,-112.3733 730.1846,-106.0871 728.126,-112.7776"/>
</g>
<!-- Node16 -->
<g id="node16" class="node">
<title>Node16</title>
<g id="a_node16"><a xlink:href="_layout_species_reference_plugin_8cpp.html" target="_top" xlink:title="Implementation of LayoutSpeciesReferencePlugin, the plugin object of layout package (Level2) for the ...">
<polygon fill="#ffffff" stroke="#000000" points="763.5,-56.5 763.5,-75.5 898.5,-75.5 898.5,-56.5 763.5,-56.5"/>
<text text-anchor="middle" x="831" y="-63.5" font-family="Helvetica,sans-Serif" font-size="10.00" fill="#000000">LayoutSpeciesReferencePlugin.cpp</text>
</a>
</g>
</g>
<!-- Node15&#45;&gt;Node16 -->
<g id="edge19" class="edge">
<title>Node15&#45;&gt;Node16</title>
<path fill="none" stroke="#191970" d="M788.1249,-105.3607C798.678,-95.6727 811.6112,-83.7995 820.4964,-75.6427"/>
<polygon fill="#191970" stroke="#191970" points="785.625,-102.9045 780.6254,-112.2455 790.3589,-108.0611 785.625,-102.9045"/>
</g>
<!-- Node24&#45;&gt;Node12 -->
<g id="edge30" class="edge">
<title>Node24&#45;&gt;Node12</title>
<path fill="none" stroke="#191970" d="M1185.2607,-118.5258C1097.2347,-112.1935 910.6217,-97.4214 754,-76 751.0645,-75.5985 748.048,-75.1538 745.0098,-74.6815"/>
<polygon fill="#191970" stroke="#191970" points="1185.0212,-122.0176 1195.2449,-119.2382 1185.5194,-115.0353 1185.0212,-122.0176"/>
</g>
<!-- Node24&#45;&gt;Node13 -->
<g id="edge32" class="edge">
<title>Node24&#45;&gt;Node13</title>
<path fill="none" stroke="#191970" d="M1185.0337,-118.7503C1061.1061,-110.7358 746.512,-89.6847 642,-76 638.9748,-75.6039 635.8622,-75.1505 632.7312,-74.6605"/>
<polygon fill="#191970" stroke="#191970" points="1185.1691,-122.2662 1195.3737,-119.4173 1185.6198,-115.2807 1185.1691,-122.2662"/>
</g>
<!-- Node24&#45;&gt;Node16 -->
<g id="edge31" class="edge">
<title>Node24&#45;&gt;Node16</title>
<path fill="none" stroke="#191970" d="M1185.0723,-114.9581C1112.5953,-104.9366 979.552,-86.5405 898.8008,-75.3749"/>
<polygon fill="#191970" stroke="#191970" points="1184.9276,-118.4714 1195.3127,-116.3741 1185.8864,-111.5373 1184.9276,-118.4714"/>
</g>
<!-- Node25 -->
<g id="node25" class="node">
<title>Node25</title>
<g id="a_node25"><a xlink:href="_ellipse_8cpp.html" target="_top" xlink:title="Implementation of the Ellipse class. ">
<polygon fill="#ffffff" stroke="#000000" points="916.5,-56.5 916.5,-75.5 969.5,-75.5 969.5,-56.5 916.5,-56.5"/>
<text text-anchor="middle" x="943" y="-63.5" font-family="Helvetica,sans-Serif" font-size="10.00" fill="#000000">Ellipse.cpp</text>
</a>
</g>
</g>
<!-- Node24&#45;&gt;Node25 -->
<g id="edge33" class="edge">
<title>Node24&#45;&gt;Node25</title>
<path fill="none" stroke="#191970" d="M1185.0521,-114.4862C1132.785,-106.4113 1049.2696,-92.4897 978,-76 975.291,-75.3732 972.4792,-74.6665 969.6801,-73.9258"/>
<polygon fill="#191970" stroke="#191970" points="1184.6611,-117.9671 1195.0759,-116.0223 1185.7215,-111.0479 1184.6611,-117.9671"/>
</g>
<!-- Node26 -->
<g id="node26" class="node">
<title>Node26</title>
<g id="a_node26"><a xlink:href="_global_style_8cpp.html" target="_top" xlink:title="Implementation of the GlobalStyle class. ">
<polygon fill="#ffffff" stroke="#000000" points="987.5,-56.5 987.5,-75.5 1056.5,-75.5 1056.5,-56.5 987.5,-56.5"/>
<text text-anchor="middle" x="1022" y="-63.5" font-family="Helvetica,sans-Serif" font-size="10.00" fill="#000000">GlobalStyle.cpp</text>
</a>
</g>
</g>
<!-- Node24&#45;&gt;Node26 -->
<g id="edge34" class="edge">
<title>Node24&#45;&gt;Node26</title>
<path fill="none" stroke="#191970" d="M1189.4221,-109.8114C1149.4036,-99.3393 1092.6105,-84.4775 1056.5397,-75.0384"/>
<polygon fill="#191970" stroke="#191970" points="1188.6518,-113.2276 1199.2121,-112.3733 1190.4239,-106.4556 1188.6518,-113.2276"/>
</g>
<!-- Node27 -->
<g id="node27" class="node">
<title>Node27</title>
<g id="a_node27"><a xlink:href="_gradient_stop_8cpp.html" target="_top" xlink:title="class representing a stop in a gradient definition ">
<polygon fill="#ffffff" stroke="#000000" points="1074.5,-56.5 1074.5,-75.5 1149.5,-75.5 1149.5,-56.5 1074.5,-56.5"/>
<text text-anchor="middle" x="1112" y="-63.5" font-family="Helvetica,sans-Serif" font-size="10.00" fill="#000000">GradientStop.cpp</text>
</a>
</g>
</g>
<!-- Node24&#45;&gt;Node27 -->
<g id="edge35" class="edge">
<title>Node24&#45;&gt;Node27</title>
<path fill="none" stroke="#191970" d="M1205.5476,-108.2473C1183.0278,-98.0771 1152.9383,-84.4883 1133.0382,-75.5011"/>
<polygon fill="#191970" stroke="#191970" points="1204.1294,-111.4471 1214.6836,-112.3733 1207.0105,-105.0675 1204.1294,-111.4471"/>
</g>
<!-- Node28 -->
<g id="node28" class="node">
<title>Node28</title>
<g id="a_node28"><a xlink:href="_image_8cpp.html" target="_top" xlink:title="Implementation of the Image class. ">
<polygon fill="#ffffff" stroke="#000000" points="1168,-56.5 1168,-75.5 1220,-75.5 1220,-56.5 1168,-56.5"/>
<text text-anchor="middle" x="1194" y="-63.5" font-family="Helvetica,sans-Serif" font-size="10.00" fill="#000000">Image.cpp</text>
</a>
</g>
</g>
<!-- Node24&#45;&gt;Node28 -->
<g id="edge36" class="edge">
<title>Node24&#45;&gt;Node28</title>
<path fill="none" stroke="#191970" d="M1222.6584,-104.2112C1215.5604,-94.7472 1207.1097,-83.4797 1201.232,-75.6427"/>
<polygon fill="#191970" stroke="#191970" points="1219.8841,-106.3455 1228.6842,-112.2455 1225.4841,-102.1455 1219.8841,-106.3455"/>
</g>
<!-- Node29 -->
<g id="node29" class="node">
<title>Node29</title>
<g id="a_node29"><a xlink:href="_linear_gradient_8cpp.html" target="_top" xlink:title="Implementation of the LinearGradient class. ">
<polygon fill="#ffffff" stroke="#000000" points="1238,-56.5 1238,-75.5 1318,-75.5 1318,-56.5 1238,-56.5"/>
<text text-anchor="middle" x="1278" y="-63.5" font-family="Helvetica,sans-Serif" font-size="10.00" fill="#000000">LinearGradient.cpp</text>
</a>
</g>
</g>
<!-- Node24&#45;&gt;Node29 -->
<g id="edge37" class="edge">
<title>Node24&#45;&gt;Node29</title>
<path fill="none" stroke="#191970" d="M1249.3416,-104.2112C1256.4396,-94.7472 1264.8903,-83.4797 1270.768,-75.6427"/>
<polygon fill="#191970" stroke="#191970" points="1246.5159,-102.1455 1243.3158,-112.2455 1252.1159,-106.3455 1246.5159,-102.1455"/>
</g>
<!-- Node30 -->
<g id="node30" class="node">
<title>Node30</title>
<g id="a_node30"><a xlink:href="_list_of_curve_elements_8cpp.html" target="_top" xlink:title="storage class for curve elements ">
<polygon fill="#ffffff" stroke="#000000" points="1336,-56.5 1336,-75.5 1438,-75.5 1438,-56.5 1336,-56.5"/>
<text text-anchor="middle" x="1387" y="-63.5" font-family="Helvetica,sans-Serif" font-size="10.00" fill="#000000">ListOfCurveElements.cpp</text>
</a>
</g>
</g>
<!-- Node24&#45;&gt;Node30 -->
<g id="edge38" class="edge">
<title>Node24&#45;&gt;Node30</title>
<path fill="none" stroke="#191970" d="M1271.623,-108.7888C1299.1938,-98.5639 1336.7149,-84.6488 1361.3809,-75.5011"/>
<polygon fill="#191970" stroke="#191970" points="1270.1168,-105.6144 1261.9578,-112.3733 1272.5509,-112.1776 1270.1168,-105.6144"/>
</g>
<!-- Node31 -->
<g id="node31" class="node">
<title>Node31</title>
<g id="a_node31"><a xlink:href="_list_of_gradient_stops_8cpp.html" target="_top" xlink:title="Implementation of the ListOfGradientStops class. ">
<polygon fill="#ffffff" stroke="#000000" points="1456,-56.5 1456,-75.5 1554,-75.5 1554,-56.5 1456,-56.5"/>
<text text-anchor="middle" x="1505" y="-63.5" font-family="Helvetica,sans-Serif" font-size="10.00" fill="#000000">ListOfGradientStops.cpp</text>
</a>
</g>
</g>
<!-- Node24&#45;&gt;Node31 -->
<g id="edge39" class="edge">
<title>Node24&#45;&gt;Node31</title>
<path fill="none" stroke="#191970" d="M1286.4394,-111.4996C1336.0624,-101.1692 1411.166,-85.5342 1459.1428,-75.5465"/>
<polygon fill="#191970" stroke="#191970" points="1285.64,-108.0909 1276.5633,-113.5556 1287.0667,-114.944 1285.64,-108.0909"/>
</g>
<!-- Node32 -->
<g id="node32" class="node">
<title>Node32</title>
<g id="a_node32"><a xlink:href="_local_render_information_8cpp.html" target="_top" xlink:title="Implementation of the LocalRenderInformation class. ">
<polygon fill="#ffffff" stroke="#000000" points="1572.5,-56.5 1572.5,-75.5 1683.5,-75.5 1683.5,-56.5 1572.5,-56.5"/>
<text text-anchor="middle" x="1628" y="-63.5" font-family="Helvetica,sans-Serif" font-size="10.00" fill="#000000">LocalRenderInformation.cpp</text>
</a>
</g>
</g>
<!-- Node24&#45;&gt;Node32 -->
<g id="edge40" class="edge">
<title>Node24&#45;&gt;Node32</title>
<path fill="none" stroke="#191970" d="M1286.8428,-111.958C1410.2239,-91.8872 1443.3255,-92.98 1563,-76 1566.0522,-75.5669 1569.1835,-75.114 1572.3435,-74.6502"/>
<polygon fill="#191970" stroke="#191970" points="1285.918,-108.5628 1276.6167,-113.636 1287.0515,-115.4705 1285.918,-108.5628"/>
</g>
<!-- Node33 -->
<g id="node33" class="node">
<title>Node33</title>
<g id="a_node33"><a xlink:href="_local_style_8cpp.html" target="_top" xlink:title="class for representing a local style ">
<polygon fill="#ffffff" stroke="#000000" points="1701.5,-56.5 1701.5,-75.5 1766.5,-75.5 1766.5,-56.5 1701.5,-56.5"/>
<text text-anchor="middle" x="1734" y="-63.5" font-family="Helvetica,sans-Serif" font-size="10.00" fill="#000000">LocalStyle.cpp</text>
</a>
</g>
</g>
<!-- Node24&#45;&gt;Node33 -->
<g id="edge41" class="edge">
<title>Node24&#45;&gt;Node33</title>
<path fill="none" stroke="#191970" d="M1286.6868,-112.0614C1467.0786,-86.864 1516.4234,-104.531 1692,-76 1694.9594,-75.5191 1698.0193,-74.9443 1701.0762,-74.3168"/>
<polygon fill="#191970" stroke="#191970" points="1286.0029,-108.6234 1276.5952,-113.4963 1286.9883,-115.5537 1286.0029,-108.6234"/>
</g>
<!-- Node34 -->
<g id="node34" class="node">
<title>Node34</title>
<g id="a_node34"><a xlink:href="_polygon_8cpp.html" target="_top" xlink:title="Implementation of the Polygon class. ">
<polygon fill="#ffffff" stroke="#000000" points="1785,-56.5 1785,-75.5 1843,-75.5 1843,-56.5 1785,-56.5"/>
<text text-anchor="middle" x="1814" y="-63.5" font-family="Helvetica,sans-Serif" font-size="10.00" fill="#000000">Polygon.cpp</text>
</a>
</g>
</g>
<!-- Node24&#45;&gt;Node34 -->
<g id="edge42" class="edge">
<title>Node24&#45;&gt;Node34</title>
<path fill="none" stroke="#191970" d="M1286.7067,-112.0837C1503.718,-83.4266 1563.1957,-110.6689 1775,-76 1778.1731,-75.4806 1781.4651,-74.825 1784.7308,-74.0989"/>
<polygon fill="#191970" stroke="#191970" points="1286.032,-108.6428 1276.588,-113.445 1286.9654,-115.5803 1286.032,-108.6428"/>
</g>
<!-- Node35 -->
<g id="node35" class="node">
<title>Node35</title>
<g id="a_node35"><a xlink:href="_radial_gradient_8cpp.html" target="_top" xlink:title="Implementation of the RadialGradient class. ">
<polygon fill="#ffffff" stroke="#000000" points="1861.5,-56.5 1861.5,-75.5 1942.5,-75.5 1942.5,-56.5 1861.5,-56.5"/>
<text text-anchor="middle" x="1902" y="-63.5" font-family="Helvetica,sans-Serif" font-size="10.00" fill="#000000">RadialGradient.cpp</text>
</a>
</g>
</g>
<!-- Node24&#45;&gt;Node35 -->
<g id="edge43" class="edge">
<title>Node24&#45;&gt;Node35</title>
<path fill="none" stroke="#191970" d="M1286.7406,-112.0911C1537.6983,-79.9788 1605.3729,-108.358 1852,-76 1855.072,-75.5969 1858.2387,-75.1172 1861.4166,-74.5892"/>
<polygon fill="#191970" stroke="#191970" points="1286.0491,-108.6514 1276.5834,-113.4108 1286.951,-115.5931 1286.0491,-108.6514"/>
</g>
<!-- Node36 -->
<g id="node36" class="node">
<title>Node36</title>
<g id="a_node36"><a xlink:href="_rectangle_8cpp.html" target="_top" xlink:title="Implementation of the Rectangle class. ">
<polygon fill="#ffffff" stroke="#000000" points="1961,-56.5 1961,-75.5 2025,-75.5 2025,-56.5 1961,-56.5"/>
<text text-anchor="middle" x="1993" y="-63.5" font-family="Helvetica,sans-Serif" font-size="10.00" fill="#000000">Rectangle.cpp</text>
</a>
</g>
</g>
<!-- Node24&#45;&gt;Node36 -->
<g id="edge44" class="edge">
<title>Node24&#45;&gt;Node36</title>
<path fill="none" stroke="#191970" d="M1286.7058,-112.1121C1581.44,-75.8485 1661.3612,-117.9729 1951,-76 1954.1156,-75.5485 1957.3393,-74.976 1960.5519,-74.3343"/>
<polygon fill="#191970" stroke="#191970" points="1286.0677,-108.6646 1276.5792,-113.3784 1286.9363,-115.6105 1286.0677,-108.6646"/>
</g>
<!-- Node37 -->
<g id="node37" class="node">
<title>Node37</title>
<g id="a_node37"><a xlink:href="_render_cubic_bezier_8cpp.html" target="_top" xlink:title="Implementation of the RenderCubicBezier class. ">
<polygon fill="#ffffff" stroke="#000000" points="2043,-56.5 2043,-75.5 2139,-75.5 2139,-56.5 2043,-56.5"/>
<text text-anchor="middle" x="2091" y="-63.5" font-family="Helvetica,sans-Serif" font-size="10.00" fill="#000000">RenderCubicBezier.cpp</text>
</a>
</g>
</g>
<!-- Node24&#45;&gt;Node37 -->
<g id="edge45" class="edge">
<title>Node24&#45;&gt;Node37</title>
<path fill="none" stroke="#191970" d="M1286.9487,-112.0887C1618.1328,-72.0944 1706.6065,-112.4513 2034,-76 2036.8957,-75.6776 2039.8669,-75.2999 2042.8591,-74.8836"/>
<polygon fill="#191970" stroke="#191970" points="1286.0775,-108.6691 1276.5767,-113.3578 1286.9277,-115.6173 1286.0775,-108.6691"/>
</g>
<!-- Node38 -->
<g id="node38" class="node">
<title>Node38</title>
<g id="a_node38"><a xlink:href="_render_curve_8cpp.html" target="_top" xlink:title="Implementation of the RenderCurve class. ">
<polygon fill="#ffffff" stroke="#000000" points="2157.5,-56.5 2157.5,-75.5 2232.5,-75.5 2232.5,-56.5 2157.5,-56.5"/>
<text text-anchor="middle" x="2195" y="-63.5" font-family="Helvetica,sans-Serif" font-size="10.00" fill="#000000">RenderCurve.cpp</text>
</a>
</g>
</g>
<!-- Node24&#45;&gt;Node38 -->
<g id="edge46" class="edge">
<title>Node24&#45;&gt;Node38</title>
<path fill="none" stroke="#191970" d="M1286.512,-112.152C1668.4517,-67.2418 1770.8304,-123.6575 2148,-76 2151.0623,-75.6131 2154.2212,-75.1291 2157.3849,-74.5842"/>
<polygon fill="#191970" stroke="#191970" points="1286.0897,-108.6775 1276.574,-113.3359 1286.9178,-115.6284 1286.0897,-108.6775"/>
</g>
<!-- Node39 -->
<g id="node39" class="node">
<title>Node39</title>
<g id="a_node39"><a xlink:href="_render_group_8cpp.html" target="_top" xlink:title="Implementation of the RenderGroup class. ">
<polygon fill="#ffffff" stroke="#000000" points="2251,-56.5 2251,-75.5 2327,-75.5 2327,-56.5 2251,-56.5"/>
<text text-anchor="middle" x="2289" y="-63.5" font-family="Helvetica,sans-Serif" font-size="10.00" fill="#000000">RenderGroup.cpp</text>
</a>
</g>
</g>
<!-- Node24&#45;&gt;Node39 -->
<g id="edge47" class="edge">
<title>Node24&#45;&gt;Node39</title>
<path fill="none" stroke="#191970" d="M1286.6317,-112.1438C1710.0232,-63.1762 1823.3521,-128.0268 2242,-76 2244.8975,-75.6399 2247.8813,-75.1914 2250.8736,-74.6853"/>
<polygon fill="#191970" stroke="#191970" points="1286.0973,-108.6824 1276.5723,-113.3218 1286.9116,-115.6349 1286.0973,-108.6824"/>
</g>
<!-- Node40 -->
<g id="node40" class="node">
<title>Node40</title>
<g id="a_node40"><a xlink:href="_render_point_8cpp.html" target="_top" xlink:title="Implementation of the RenderPoint class. ">
<polygon fill="#ffffff" stroke="#000000" points="2345,-56.5 2345,-75.5 2417,-75.5 2417,-56.5 2345,-56.5"/>
<text text-anchor="middle" x="2381" y="-63.5" font-family="Helvetica,sans-Serif" font-size="10.00" fill="#000000">RenderPoint.cpp</text>
</a>
</g>
</g>
<!-- Node24&#45;&gt;Node40 -->
<g id="edge48" class="edge">
<title>Node24&#45;&gt;Node40</title>
<path fill="none" stroke="#191970" d="M1286.5703,-112.1559C1751.5702,-59.1149 1876.068,-134.48 2336,-76 2338.8581,-75.6366 2341.8022,-75.1776 2344.7517,-74.6572"/>
<polygon fill="#191970" stroke="#191970" points="1286.1036,-108.6865 1276.571,-113.3103 1286.9064,-115.6403 1286.1036,-108.6865"/>
</g>
<!-- Node41 -->
<g id="node41" class="node">
<title>Node41</title>
<g id="a_node41"><a xlink:href="_style_8cpp.html" target="_top" xlink:title="Implementation of the Style class. ">
<polygon fill="#ffffff" stroke="#000000" points="2435.5,-56.5 2435.5,-75.5 2482.5,-75.5 2482.5,-56.5 2435.5,-56.5"/>
<text text-anchor="middle" x="2459" y="-63.5" font-family="Helvetica,sans-Serif" font-size="10.00" fill="#000000">Style.cpp</text>
</a>
</g>
</g>
<!-- Node24&#45;&gt;Node41 -->
<g id="edge49" class="edge">
<title>Node24&#45;&gt;Node41</title>
<path fill="none" stroke="#191970" d="M1286.6664,-112.1513C1791.4123,-55.4581 1929.0892,-157.6712 2426,-76 2429.0717,-75.4951 2432.2571,-74.7828 2435.3833,-73.968"/>
<polygon fill="#191970" stroke="#191970" points="1286.1097,-108.692 1276.5699,-113.301 1286.9017,-115.647 1286.1097,-108.692"/>
</g>
<!-- Node42 -->
<g id="node42" class="node">
<title>Node42</title>
<g id="a_node42"><a xlink:href="_text_8cpp.html" target="_top" xlink:title="Implementation of the Text class. ">
<polygon fill="#ffffff" stroke="#000000" points="2500.5,-56.5 2500.5,-75.5 2545.5,-75.5 2545.5,-56.5 2500.5,-56.5"/>
<text text-anchor="middle" x="2523" y="-63.5" font-family="Helvetica,sans-Serif" font-size="10.00" fill="#000000">Text.cpp</text>
</a>
</g>
</g>
<!-- Node24&#45;&gt;Node42 -->
<g id="edge50" class="edge">
<title>Node24&#45;&gt;Node42</title>
<path fill="none" stroke="#191970" d="M1286.8472,-112.1662C1568.8186,-82.5661 2231.0137,-121.0532 2492,-76 2494.7863,-75.519 2497.6668,-74.8444 2500.4983,-74.0702"/>
<polygon fill="#191970" stroke="#191970" points="1286.1273,-108.7241 1276.5692,-113.295 1286.8916,-115.6823 1286.1273,-108.7241"/>
</g>
<!-- Node44&#45;&gt;Node2 -->
<g id="edge54" class="edge">
<title>Node44&#45;&gt;Node2</title>
<path fill="none" stroke="#191970" d="M1475.7247,-233.2851C1326.9071,-230.195 847.8564,-214.0818 462,-132 428.5719,-124.889 336.6875,-92.1411 291.2064,-75.6074"/>
<polygon fill="#191970" stroke="#191970" points="1475.7957,-236.7871 1485.8631,-233.4858 1475.9344,-229.7885 1475.7957,-236.7871"/>
</g>
<!-- Node44&#45;&gt;Node9 -->
<g id="edge56" class="edge">
<title>Node44&#45;&gt;Node9</title>
<path fill="none" stroke="#191970" d="M1503.3086,-217.645C1492.1781,-207.9058 1478.4337,-195.8795 1469.0202,-187.6427"/>
<polygon fill="#191970" stroke="#191970" points="1501.0215,-220.2945 1510.8521,-224.2455 1505.631,-215.0264 1501.0215,-220.2945"/>
</g>
<!-- Node44&#45;&gt;Node18 -->
<g id="edge55" class="edge">
<title>Node44&#45;&gt;Node18</title>
<path fill="none" stroke="#191970" d="M1556.2418,-220.8662C1615.7704,-198.0333 1736.9649,-151.5477 1789.1673,-131.5249"/>
<polygon fill="#191970" stroke="#191970" points="1554.9791,-217.6018 1546.8958,-224.4509 1557.486,-224.1375 1554.9791,-217.6018"/>
</g>
<!-- Node44&#45;&gt;Node20 -->
<g id="edge57" class="edge">
<title>Node44&#45;&gt;Node20</title>
<path fill="none" stroke="#191970" d="M1565.0765,-221.6238C1597.2837,-212.3684 1642.4009,-199.3988 1682,-188 1751.78,-167.9135 1833.5093,-144.3491 1878.0094,-131.5156"/>
<polygon fill="#191970" stroke="#191970" points="1563.7411,-218.3658 1555.0967,-224.4916 1565.6744,-225.0936 1563.7411,-218.3658"/>
</g>
</g>
</svg>
        <g id="navigator" transform="translate(0 0)" fill="#404254">
                <rect fill="#f2f5e9" fill-opacity="0.5" stroke="#606060" stroke-width=".5" x="0" y="0" width="60" height="60"/>
                <use id="zoomplus" xlink:href="#zoomPlus" x="17" y="9" onmousedown="handleZoom(evt,'in')"/>
                <use id="zoomminus" xlink:href="#zoomMin" x="42" y="9" onmousedown="handleZoom(evt,'out')"/>
                <use id="reset" xlink:href="#resetDef" x="30" y="36" onmousedown="handleReset()"/>
                <g id="arrowUp" xlink:href="#dirArrow" transform="translate(30 24)" onmousedown="handlePan(0,-1)">
                  <use xlink:href="#rim" fill="#404040">
                        <set attributeName="fill" to="#808080" begin="arrowUp.mouseover" end="arrowUp.mouseout"/>
                  </use>
                  <path fill="none" stroke="white" stroke-width="1.5" d="M0,-3.0v7 M-2.5,-0.5L0,-3.0L2.5,-0.5"/>
                </g>
                <g id="arrowRight" xlink:href="#dirArrow" transform="rotate(90) translate(36 -43)" onmousedown="handlePan(1,0)">
                  <use xlink:href="#rim" fill="#404040">
                        <set attributeName="fill" to="#808080" begin="arrowRight.mouseover" end="arrowRight.mouseout"/>
                  </use>
                  <path fill="none" stroke="white" stroke-width="1.5" d="M0,-3.0v7 M-2.5,-0.5L0,-3.0L2.5,-0.5"/>
                </g>
                <g id="arrowDown" xlink:href="#dirArrow" transform="rotate(180) translate(-30 -48)" onmousedown="handlePan(0,1)">
                  <use xlink:href="#rim" fill="#404040">
                        <set attributeName="fill" to="#808080" begin="arrowDown.mouseover" end="arrowDown.mouseout"/>
                  </use>
                  <path fill="none" stroke="white" stroke-width="1.5" d="M0,-3.0v7 M-2.5,-0.5L0,-3.0L2.5,-0.5"/>
                </g>
                <g id="arrowLeft" xlink:href="#dirArrow" transform="rotate(270) translate(-36 17)" onmousedown="handlePan(-1,0)">
                  <use xlink:href="#rim" fill="#404040">
                        <set attributeName="fill" to="#808080" begin="arrowLeft.mouseover" end="arrowLeft.mouseout"/>
                  </use>
                  <path fill="none" stroke="white" stroke-width="1.5" d="M0,-3.0v7 M-2.5,-0.5L0,-3.0L2.5,-0.5"/>
                </g>
        </g>
        <svg viewBox="0 0 15 15" width="100%" height="30px" preserveAspectRatio="xMaxYMin meet">
         <g id="arrow_out" transform="scale(0.3 0.3)">
          <a xlink:href="_species_reference_role_8h__dep__incl_org.svg" target="_base">
           <rect id="button" ry="5" rx="5" y="6" x="6" height="38" width="38"
                fill="#f2f5e9" fill-opacity="0.5" stroke="#606060" stroke-width="1.0"/>
           <path id="arrow"
             d="M 11.500037,31.436501 C 11.940474,20.09759 22.043105,11.32322 32.158766,21.979434 L 37.068811,17.246167 C 37.068811,17.246167 37.088388,32 37.088388,32 L 22.160133,31.978069 C 22.160133,31.978069 26.997745,27.140456 26.997745,27.140456 C 18.528582,18.264221 13.291696,25.230495 11.500037,31.436501 z"
             style="fill:#404040;"/>
          </a>
         </g>
        </svg>
</svg>
