<?xml version="1.0" encoding="UTF-8" standalone="no"?>
<!DOCTYPE svg PUBLIC "-//W3C//DTD SVG 1.1//EN"
 "http://www.w3.org/Graphics/SVG/1.1/DTD/svg11.dtd">
<!-- Generated by graphviz version 2.40.1 (20161225.0304)
 -->
<!-- Title: Submodel.h Pages: 1 -->
<svg width="1281pt" height="252pt"
 viewBox="0.00 0.00 1280.50 252.00" xmlns="http://www.w3.org/2000/svg" xmlns:xlink="http://www.w3.org/1999/xlink">
<g id="graph0" class="graph" transform="scale(1 1) rotate(0) translate(4 248)">
<title>Submodel.h</title>
<polygon fill="#ffffff" stroke="transparent" points="-4,4 -4,-248 1276.5,-248 1276.5,4 -4,4"/>
<!-- Node1 -->
<g id="node1" class="node">
<title>Node1</title>
<polygon fill="#bfbfbf" stroke="#000000" points="426.5,-224.5 426.5,-243.5 496.5,-243.5 496.5,-224.5 426.5,-224.5"/>
<text text-anchor="middle" x="461.5" y="-231.5" font-family="Helvetica,sans-Serif" font-size="10.00" fill="#000000">Submodel.h</text>
</g>
<!-- Node2 -->
<g id="node2" class="node">
<title>Node2</title>
<g id="a_node2"><a xlink:href="_comp_extension_types_8h.html" target="_top" xlink:title="Include all SBML types of Comp extension in a single header file. ">
<polygon fill="#ffffff" stroke="#000000" points="0,-56.5 0,-75.5 123,-75.5 123,-56.5 0,-56.5"/>
<text text-anchor="middle" x="61.5" y="-63.5" font-family="Helvetica,sans-Serif" font-size="10.00" fill="#000000">CompExtensionTypes.h</text>
</a>
</g>
</g>
<!-- Node1&#45;&gt;Node2 -->
<g id="edge1" class="edge">
<title>Node1&#45;&gt;Node2</title>
<path fill="none" stroke="#191970" d="M429.5015,-220.5607C351.325,-187.7265 152.0791,-104.0432 84.3992,-75.6177"/>
<polygon fill="#191970" stroke="#191970" points="428.273,-223.8408 438.8482,-224.4862 430.9837,-217.3869 428.273,-223.8408"/>
</g>
<!-- Node5 -->
<g id="node5" class="node">
<title>Node5</title>
<g id="a_node5"><a xlink:href="_deletion_8cpp.html" target="_top" xlink:title="Implementation of Deletion, the SBaseRef derived class of deletions package. ">
<polygon fill="#ffffff" stroke="#000000" points="373.5,-168.5 373.5,-187.5 445.5,-187.5 445.5,-168.5 373.5,-168.5"/>
<text text-anchor="middle" x="409.5" y="-175.5" font-family="Helvetica,sans-Serif" font-size="10.00" fill="#000000">Deletion.cpp</text>
</a>
</g>
</g>
<!-- Node1&#45;&gt;Node5 -->
<g id="edge4" class="edge">
<title>Node1&#45;&gt;Node5</title>
<path fill="none" stroke="#191970" d="M445.5178,-216.7884C436.6222,-207.2085 425.8796,-195.6396 418.4539,-187.6427"/>
<polygon fill="#191970" stroke="#191970" points="443.073,-219.2992 452.4423,-224.2455 448.2025,-214.536 443.073,-219.2992"/>
</g>
<!-- Node6 -->
<g id="node6" class="node">
<title>Node6</title>
<g id="a_node6"><a xlink:href="_list_of_submodels_8h.html" target="_top" xlink:title="Definition of ListOfSubmodels, the SBase derived class of submodels package. ">
<polygon fill="#ffffff" stroke="#000000" points="464,-168.5 464,-187.5 565,-187.5 565,-168.5 464,-168.5"/>
<text text-anchor="middle" x="514.5" y="-175.5" font-family="Helvetica,sans-Serif" font-size="10.00" fill="#000000">ListOfSubmodels.h</text>
</a>
</g>
</g>
<!-- Node1&#45;&gt;Node6 -->
<g id="edge5" class="edge">
<title>Node1&#45;&gt;Node6</title>
<path fill="none" stroke="#191970" d="M477.7896,-216.7884C486.8562,-207.2085 497.8054,-195.6396 505.3739,-187.6427"/>
<polygon fill="#191970" stroke="#191970" points="475.0637,-214.5767 470.7319,-224.2455 480.1478,-219.3884 475.0637,-214.5767"/>
</g>
<!-- Node16 -->
<g id="node16" class="node">
<title>Node16</title>
<g id="a_node16"><a xlink:href="_submodel_8cpp.html" target="_top" xlink:title="Implementation of Submodel, the SBase&#45;derived class of the comp package. ">
<polygon fill="#ffffff" stroke="#000000" points="1192.5,-56.5 1192.5,-75.5 1272.5,-75.5 1272.5,-56.5 1192.5,-56.5"/>
<text text-anchor="middle" x="1232.5" y="-63.5" font-family="Helvetica,sans-Serif" font-size="10.00" fill="#000000">Submodel.cpp</text>
</a>
</g>
</g>
<!-- Node1&#45;&gt;Node16 -->
<g id="edge24" class="edge">
<title>Node1&#45;&gt;Node16</title>
<path fill="none" stroke="#191970" d="M506.4605,-224.2032C644.4561,-194.1341 1060.5429,-103.4693 1192.1396,-74.7945"/>
<polygon fill="#191970" stroke="#191970" points="505.6573,-220.796 496.6317,-226.3448 507.1476,-227.6355 505.6573,-220.796"/>
</g>
<!-- Node3 -->
<g id="node3" class="node">
<title>Node3</title>
<g id="a_node3"><a xlink:href="_comp_flattening_converter_8cpp.html" target="_top" xlink:title="Implementation of a first flattening converter. ">
<polygon fill="#ffffff" stroke="#000000" points="469.5,-.5 469.5,-19.5 619.5,-19.5 619.5,-.5 469.5,-.5"/>
<text text-anchor="middle" x="544.5" y="-7.5" font-family="Helvetica,sans-Serif" font-size="10.00" fill="#000000">CompFlatteningConverter.cpp</text>
</a>
</g>
</g>
<!-- Node2&#45;&gt;Node3 -->
<g id="edge2" class="edge">
<title>Node2&#45;&gt;Node3</title>
<path fill="none" stroke="#191970" d="M133.3181,-55.7958C256.6073,-40.2416 388.79,-26.0389 469.4311,-17.6552"/>
<polygon fill="#191970" stroke="#191970" points="132.8031,-52.3329 123.3224,-57.0623 133.6831,-59.2774 132.8031,-52.3329"/>
</g>
<!-- Node4 -->
<g id="node4" class="node">
<title>Node4</title>
<g id="a_node4"><a xlink:href="_comp_validator_8cpp.html" target="_top" xlink:title="CompValidator.cpp">
<polygon fill="#ffffff" stroke="#000000" points="10.5,-.5 10.5,-19.5 112.5,-19.5 112.5,-.5 10.5,-.5"/>
<text text-anchor="middle" x="61.5" y="-7.5" font-family="Helvetica,sans-Serif" font-size="10.00" fill="#000000">CompValidator.cpp</text>
</a>
</g>
</g>
<!-- Node2&#45;&gt;Node4 -->
<g id="edge3" class="edge">
<title>Node2&#45;&gt;Node4</title>
<path fill="none" stroke="#191970" d="M61.5,-46.1575C61.5,-37.155 61.5,-26.9199 61.5,-19.6427"/>
<polygon fill="#191970" stroke="#191970" points="58.0001,-46.2455 61.5,-56.2455 65.0001,-46.2456 58.0001,-46.2455"/>
</g>
<!-- Node6&#45;&gt;Node2 -->
<g id="edge6" class="edge">
<title>Node6&#45;&gt;Node2</title>
<path fill="none" stroke="#191970" d="M528.7651,-159.9946C538.4878,-145.4254 547.5985,-125.2246 535.5,-112 505.0801,-78.7488 176.2671,-81.1885 131.5,-76 128.8172,-75.6891 126.0785,-75.3577 123.3134,-75.0118"/>
<polygon fill="#191970" stroke="#191970" points="525.8373,-158.0704 522.8164,-168.2254 531.5107,-162.1708 525.8373,-158.0704"/>
</g>
<!-- Node7 -->
<g id="node7" class="node">
<title>Node7</title>
<g id="a_node7"><a xlink:href="_comp_model_plugin_8h.html" target="_top" xlink:title="Definition of CompModelPlugin, the plugin class of comp package for the Model element. ">
<polygon fill="#ffffff" stroke="#000000" points="651,-112.5 651,-131.5 758,-131.5 758,-112.5 651,-112.5"/>
<text text-anchor="middle" x="704.5" y="-119.5" font-family="Helvetica,sans-Serif" font-size="10.00" fill="#000000">CompModelPlugin.h</text>
</a>
</g>
</g>
<!-- Node6&#45;&gt;Node7 -->
<g id="edge7" class="edge">
<title>Node6&#45;&gt;Node7</title>
<path fill="none" stroke="#191970" d="M557.0597,-165.4561C591.9369,-155.1765 640.5468,-140.8494 672.264,-131.5011"/>
<polygon fill="#191970" stroke="#191970" points="555.7647,-162.1888 547.1622,-168.3733 557.7437,-168.9033 555.7647,-162.1888"/>
</g>
<!-- Node18 -->
<g id="node18" class="node">
<title>Node18</title>
<g id="a_node18"><a xlink:href="_list_of_submodels_8cpp.html" target="_top" xlink:title="Implementation of ListOfSubmodels. ">
<polygon fill="#ffffff" stroke="#000000" points="292.5,-112.5 292.5,-131.5 404.5,-131.5 404.5,-112.5 292.5,-112.5"/>
<text text-anchor="middle" x="348.5" y="-119.5" font-family="Helvetica,sans-Serif" font-size="10.00" fill="#000000">ListOfSubmodels.cpp</text>
</a>
</g>
</g>
<!-- Node6&#45;&gt;Node18 -->
<g id="edge22" class="edge">
<title>Node6&#45;&gt;Node18</title>
<path fill="none" stroke="#191970" d="M476.1333,-165.057C445.7534,-154.8084 404.0181,-140.729 376.664,-131.5011"/>
<polygon fill="#191970" stroke="#191970" points="475.3694,-168.4931 485.9636,-168.3733 477.607,-161.8603 475.3694,-168.4931"/>
</g>
<!-- Node19 -->
<g id="node19" class="node">
<title>Node19</title>
<g id="a_node19"><a xlink:href="_model_definition_8cpp.html" target="_top" xlink:title="Implementation of ModelDefinition, the Subelement derived class of modelDefinitions package...">
<polygon fill="#ffffff" stroke="#000000" points="422.5,-112.5 422.5,-131.5 526.5,-131.5 526.5,-112.5 422.5,-112.5"/>
<text text-anchor="middle" x="474.5" y="-119.5" font-family="Helvetica,sans-Serif" font-size="10.00" fill="#000000">ModelDefinition.cpp</text>
</a>
</g>
</g>
<!-- Node6&#45;&gt;Node19 -->
<g id="edge23" class="edge">
<title>Node6&#45;&gt;Node19</title>
<path fill="none" stroke="#191970" d="M501.5864,-159.9209C494.8697,-150.5176 486.9283,-139.3997 481.3876,-131.6427"/>
<polygon fill="#191970" stroke="#191970" points="498.872,-162.1425 507.5325,-168.2455 504.5682,-158.0738 498.872,-162.1425"/>
</g>
<!-- Node7&#45;&gt;Node2 -->
<g id="edge8" class="edge">
<title>Node7&#45;&gt;Node2</title>
<path fill="none" stroke="#191970" d="M640.8408,-117.1132C502.1279,-106.4324 181.0308,-81.5207 131.5,-76 128.8159,-75.7008 126.0761,-75.3792 123.3101,-75.0412"/>
<polygon fill="#191970" stroke="#191970" points="640.6657,-120.61 650.9049,-117.8878 641.203,-113.6306 640.6657,-120.61"/>
</g>
<!-- Node8 -->
<g id="node8" class="node">
<title>Node8</title>
<g id="a_node8"><a xlink:href="_comp_extension_8cpp.html" target="_top" xlink:title="Implementation of CompExtension, the core module of comp package. ">
<polygon fill="#ffffff" stroke="#000000" points="926.5,-.5 926.5,-19.5 1032.5,-19.5 1032.5,-.5 926.5,-.5"/>
<text text-anchor="middle" x="979.5" y="-7.5" font-family="Helvetica,sans-Serif" font-size="10.00" fill="#000000">CompExtension.cpp</text>
</a>
</g>
</g>
<!-- Node7&#45;&gt;Node8 -->
<g id="edge9" class="edge">
<title>Node7&#45;&gt;Node8</title>
<path fill="none" stroke="#191970" d="M768.1843,-116.7928C852.933,-109.2077 993.9767,-94.0401 1009.5,-76 1024.1131,-59.0177 1003.901,-33.7431 990.2278,-19.9179"/>
<polygon fill="#191970" stroke="#191970" points="767.7937,-113.3136 758.1404,-117.6799 768.4096,-120.2864 767.7937,-113.3136"/>
</g>
<!-- Node9 -->
<g id="node9" class="node">
<title>Node9</title>
<g id="a_node9"><a xlink:href="_comp_model_plugin_8cpp.html" target="_top" xlink:title="Implementation of CompModelPlugin, the plugin class of comp package for the SBase element...">
<polygon fill="#ffffff" stroke="#000000" points="1057,-56.5 1057,-75.5 1174,-75.5 1174,-56.5 1057,-56.5"/>
<text text-anchor="middle" x="1115.5" y="-63.5" font-family="Helvetica,sans-Serif" font-size="10.00" fill="#000000">CompModelPlugin.cpp</text>
</a>
</g>
</g>
<!-- Node7&#45;&gt;Node9 -->
<g id="edge10" class="edge">
<title>Node7&#45;&gt;Node9</title>
<path fill="none" stroke="#191970" d="M768.1838,-113.3499C836.1322,-104.1165 946.922,-89.0503 1042.5,-76 1047.1895,-75.3597 1052.0484,-74.6956 1056.9297,-74.0279"/>
<polygon fill="#191970" stroke="#191970" points="767.5037,-109.91 758.066,-114.7247 768.4463,-116.8463 767.5037,-109.91"/>
</g>
<!-- Node10 -->
<g id="node10" class="node">
<title>Node10</title>
<g id="a_node10"><a xlink:href="_comp_s_b_m_l_document_plugin_8cpp.html" target="_top" xlink:title="Implementation of CompSBMLDocumentPlugin, the plugin class of comp package for the SBase element...">
<polygon fill="#ffffff" stroke="#000000" points="141,-56.5 141,-75.5 304,-75.5 304,-56.5 141,-56.5"/>
<text text-anchor="middle" x="222.5" y="-63.5" font-family="Helvetica,sans-Serif" font-size="10.00" fill="#000000">CompSBMLDocumentPlugin.cpp</text>
</a>
</g>
</g>
<!-- Node7&#45;&gt;Node10 -->
<g id="edge11" class="edge">
<title>Node7&#45;&gt;Node10</title>
<path fill="none" stroke="#191970" d="M640.6472,-114.5814C553.9911,-104.5135 399.091,-86.5168 304.0975,-75.4802"/>
<polygon fill="#191970" stroke="#191970" points="640.2743,-118.0616 650.6115,-115.7391 641.0823,-111.1083 640.2743,-118.0616"/>
</g>
<!-- Node11 -->
<g id="node11" class="node">
<title>Node11</title>
<g id="a_node11"><a xlink:href="_comp_base_8cpp.html" target="_top" xlink:title="Implementation of CompBase, the base class of extension entities plugged in SBase derived classes in ...">
<polygon fill="#ffffff" stroke="#000000" points="322,-56.5 322,-75.5 407,-75.5 407,-56.5 322,-56.5"/>
<text text-anchor="middle" x="364.5" y="-63.5" font-family="Helvetica,sans-Serif" font-size="10.00" fill="#000000">CompBase.cpp</text>
</a>
</g>
</g>
<!-- Node7&#45;&gt;Node11 -->
<g id="edge12" class="edge">
<title>Node7&#45;&gt;Node11</title>
<path fill="none" stroke="#191970" d="M640.6184,-112.3891C582.193,-103.4583 493.4154,-89.5348 416.5,-76 413.4216,-75.4583 410.2437,-74.8841 407.047,-74.2956"/>
<polygon fill="#191970" stroke="#191970" points="640.3914,-115.8948 650.8048,-113.9425 641.4468,-108.9748 640.3914,-115.8948"/>
</g>
<!-- Node12 -->
<g id="node12" class="node">
<title>Node12</title>
<g id="a_node12"><a xlink:href="_replaced_by_8cpp.html" target="_top" xlink:title="Implementation of ReplacedBy, the SBaseRef derived class of the comp package. ">
<polygon fill="#ffffff" stroke="#000000" points="425,-56.5 425,-75.5 514,-75.5 514,-56.5 425,-56.5"/>
<text text-anchor="middle" x="469.5" y="-63.5" font-family="Helvetica,sans-Serif" font-size="10.00" fill="#000000">ReplacedBy.cpp</text>
</a>
</g>
</g>
<!-- Node7&#45;&gt;Node12 -->
<g id="edge13" class="edge">
<title>Node7&#45;&gt;Node12</title>
<path fill="none" stroke="#191970" d="M654.6148,-110.1125C611.348,-99.8021 549.5396,-85.0733 509.4654,-75.5237"/>
<polygon fill="#191970" stroke="#191970" points="653.8301,-113.5234 664.3691,-112.4369 655.4528,-106.7141 653.8301,-113.5234"/>
</g>
<!-- Node13 -->
<g id="node13" class="node">
<title>Node13</title>
<g id="a_node13"><a xlink:href="_replaced_element_8cpp.html" target="_top" xlink:title="Implementation of ReplacedElement, the Subelement derived class of replacedElements package...">
<polygon fill="#ffffff" stroke="#000000" points="532.5,-56.5 532.5,-75.5 646.5,-75.5 646.5,-56.5 532.5,-56.5"/>
<text text-anchor="middle" x="589.5" y="-63.5" font-family="Helvetica,sans-Serif" font-size="10.00" fill="#000000">ReplacedElement.cpp</text>
</a>
</g>
</g>
<!-- Node7&#45;&gt;Node13 -->
<g id="edge14" class="edge">
<title>Node7&#45;&gt;Node13</title>
<path fill="none" stroke="#191970" d="M675.6967,-107.9741C654.875,-97.8348 627.3022,-84.408 609.0112,-75.5011"/>
<polygon fill="#191970" stroke="#191970" points="674.2078,-111.1419 684.7308,-112.3733 677.2724,-104.8484 674.2078,-111.1419"/>
</g>
<!-- Node14 -->
<g id="node14" class="node">
<title>Node14</title>
<g id="a_node14"><a xlink:href="_replacing_8cpp.html" target="_top" xlink:title="Implementation of Replacing, the SBaseRef derived class of Replacings package. ">
<polygon fill="#ffffff" stroke="#000000" points="664.5,-56.5 664.5,-75.5 744.5,-75.5 744.5,-56.5 664.5,-56.5"/>
<text text-anchor="middle" x="704.5" y="-63.5" font-family="Helvetica,sans-Serif" font-size="10.00" fill="#000000">Replacing.cpp</text>
</a>
</g>
</g>
<!-- Node7&#45;&gt;Node14 -->
<g id="edge15" class="edge">
<title>Node7&#45;&gt;Node14</title>
<path fill="none" stroke="#191970" d="M704.5,-102.1575C704.5,-93.155 704.5,-82.9199 704.5,-75.6427"/>
<polygon fill="#191970" stroke="#191970" points="701.0001,-102.2455 704.5,-112.2455 708.0001,-102.2456 701.0001,-102.2455"/>
</g>
<!-- Node15 -->
<g id="node15" class="node">
<title>Node15</title>
<g id="a_node15"><a xlink:href="_s_base_ref_8cpp.html" target="_top" xlink:title="Implementation of SBaseRef, the SBase&#45;derived class of the comp package. ">
<polygon fill="#ffffff" stroke="#000000" points="762.5,-56.5 762.5,-75.5 842.5,-75.5 842.5,-56.5 762.5,-56.5"/>
<text text-anchor="middle" x="802.5" y="-63.5" font-family="Helvetica,sans-Serif" font-size="10.00" fill="#000000">SBaseRef.cpp</text>
</a>
</g>
</g>
<!-- Node7&#45;&gt;Node15 -->
<g id="edge16" class="edge">
<title>Node7&#45;&gt;Node15</title>
<path fill="none" stroke="#191970" d="M730.6686,-107.0465C748.1058,-97.0824 770.5111,-84.2794 785.6253,-75.6427"/>
<polygon fill="#191970" stroke="#191970" points="728.5162,-104.2453 721.5703,-112.2455 731.9892,-110.323 728.5162,-104.2453"/>
</g>
<!-- Node7&#45;&gt;Node16 -->
<g id="edge17" class="edge">
<title>Node7&#45;&gt;Node16</title>
<path fill="none" stroke="#191970" d="M768.237,-118.0288C860.2709,-111.8078 1035.5741,-98.1342 1183.5,-76 1186.4195,-75.5632 1189.4278,-75.066 1192.4498,-74.5321"/>
<polygon fill="#191970" stroke="#191970" points="767.9878,-114.5376 758.2436,-118.6971 768.4549,-121.522 767.9878,-114.5376"/>
</g>
<!-- Node17 -->
<g id="node17" class="node">
<title>Node17</title>
<g id="a_node17"><a xlink:href="_comp_flattening_converter_8h.html" target="_top" xlink:title="Definition of a first flattening converter. ">
<polygon fill="#ffffff" stroke="#000000" points="861,-56.5 861,-75.5 1000,-75.5 1000,-56.5 861,-56.5"/>
<text text-anchor="middle" x="930.5" y="-63.5" font-family="Helvetica,sans-Serif" font-size="10.00" fill="#000000">CompFlatteningConverter.h</text>
</a>
</g>
</g>
<!-- Node7&#45;&gt;Node17 -->
<g id="edge18" class="edge">
<title>Node7&#45;&gt;Node17</title>
<path fill="none" stroke="#191970" d="M747.8513,-109.8511C787.8697,-99.5462 846.8499,-84.9697 886.9389,-75.5011"/>
<polygon fill="#191970" stroke="#191970" points="746.9124,-106.4787 738.1088,-112.3733 748.6668,-113.2553 746.9124,-106.4787"/>
</g>
<!-- Node17&#45;&gt;Node3 -->
<g id="edge21" class="edge">
<title>Node17&#45;&gt;Node3</title>
<path fill="none" stroke="#191970" d="M854.3262,-54.9489C783.0766,-44.6122 677.7708,-29.3346 610.1453,-19.5237"/>
<polygon fill="#191970" stroke="#191970" points="854.1839,-58.4648 864.5828,-56.4369 855.189,-51.5373 854.1839,-58.4648"/>
</g>
<!-- Node17&#45;&gt;Node7 -->
<g id="edge20" class="edge">
<title>Node17&#45;&gt;Node7</title>
<path fill="none" stroke="#191970" d="M887.5689,-78.0407C847.631,-88.3291 788.5479,-102.9335 748.3235,-112.4369"/>
<polygon fill="#191970" stroke="#191970" points="888.4839,-81.4192 897.2869,-75.5237 886.7288,-74.6428 888.4839,-81.4192"/>
</g>
<!-- Node17&#45;&gt;Node8 -->
<g id="edge19" class="edge">
<title>Node17&#45;&gt;Node8</title>
<path fill="none" stroke="#191970" d="M945.8122,-48.5004C954.1447,-38.9775 964.1353,-27.5596 971.0627,-19.6427"/>
<polygon fill="#191970" stroke="#191970" points="942.9862,-46.415 939.0351,-56.2455 948.2543,-51.0245 942.9862,-46.415"/>
</g>
</g>
</svg>
