<?xml version="1.0" encoding="UTF-8" standalone="no"?>
<!DOCTYPE svg PUBLIC "-//W3C//DTD SVG 1.1//EN"
 "http://www.w3.org/Graphics/SVG/1.1/DTD/svg11.dtd">
<!-- Generated by graphviz version 2.40.1 (20161225.0304)
 -->
<!-- Title: UnitDefinition.h Pages: 1 -->
<svg width="2876pt" height="968pt"
 viewBox="0.00 0.00 2876.00 968.00" xmlns="http://www.w3.org/2000/svg" xmlns:xlink="http://www.w3.org/1999/xlink">
<g id="graph0" class="graph" transform="scale(1 1) rotate(0) translate(4 964)">
<title>UnitDefinition.h</title>
<polygon fill="#ffffff" stroke="transparent" points="-4,4 -4,-964 2872,-964 2872,4 -4,4"/>
<!-- Node1 -->
<g id="node1" class="node">
<title>Node1</title>
<polygon fill="#bfbfbf" stroke="#000000" points="1498,-940.5 1498,-959.5 1582,-959.5 1582,-940.5 1498,-940.5"/>
<text text-anchor="middle" x="1540" y="-947.5" font-family="Helvetica,sans-Serif" font-size="10.00" fill="#000000">UnitDefinition.h</text>
</g>
<!-- Node2 -->
<g id="node2" class="node">
<title>Node2</title>
<g id="a_node2"><a xlink:href="extern_8h.html" target="_top" xlink:title="Definitions of LIBSBML_EXTERN and related things. ">
<polygon fill="#ffffff" stroke="#000000" points="2172,-67.5 2172,-86.5 2290,-86.5 2290,-67.5 2172,-67.5"/>
<text text-anchor="middle" x="2231" y="-74.5" font-family="Helvetica,sans-Serif" font-size="10.00" fill="#000000">sbml/common/extern.h</text>
</a>
</g>
</g>
<!-- Node1&#45;&gt;Node2 -->
<g id="edge1" class="edge">
<title>Node1&#45;&gt;Node2</title>
<path fill="none" stroke="#191970" d="M1582.3086,-948.7001C1808.8302,-941.469 2868,-904.1224 2868,-838 2868,-838 2868,-838 2868,-205.5 2868,-157.9834 2842.1238,-144.9867 2800,-123 2756.6877,-100.3929 2442.4993,-85.3203 2300.431,-79.5882"/>
<polygon fill="#191970" stroke="#191970" points="2300.2273,-76.0774 2290.0955,-79.1755 2299.9479,-83.0718 2300.2273,-76.0774"/>
</g>
<!-- Node4 -->
<g id="node4" class="node">
<title>Node4</title>
<g id="a_node4"><a xlink:href="sbmlfwd_8h.html" target="_top" xlink:title="Forward declarations for all opaque C types. ">
<polygon fill="#ffffff" stroke="#000000" points="297.5,-263 297.5,-282 424.5,-282 424.5,-263 297.5,-263"/>
<text text-anchor="middle" x="361" y="-270" font-family="Helvetica,sans-Serif" font-size="10.00" fill="#000000">sbml/common/sbmlfwd.h</text>
</a>
</g>
</g>
<!-- Node1&#45;&gt;Node4 -->
<g id="edge3" class="edge">
<title>Node1&#45;&gt;Node4</title>
<path fill="none" stroke="#191970" d="M1497.608,-949.1947C1249.8375,-944.2172 0,-915.2788 0,-838 0,-838 0,-838 0,-502 0,-403.2443 47.6495,-373.6788 133,-324 159.3444,-308.6661 233.2869,-293.5938 289.8906,-283.7567"/>
<polygon fill="#191970" stroke="#191970" points="290.6204,-287.1827 299.8847,-282.0424 289.437,-280.2834 290.6204,-287.1827"/>
</g>
<!-- Node8 -->
<g id="node8" class="node">
<title>Node8</title>
<polygon fill="#ffffff" stroke="#bfbfbf" points="1771.5,-263 1771.5,-282 1812.5,-282 1812.5,-263 1771.5,-263"/>
<text text-anchor="middle" x="1792" y="-270" font-family="Helvetica,sans-Serif" font-size="10.00" fill="#000000">string</text>
</g>
<!-- Node1&#45;&gt;Node8 -->
<g id="edge10" class="edge">
<title>Node1&#45;&gt;Node8</title>
<path fill="none" stroke="#191970" d="M1533.1655,-940.3377C1520.5769,-921.5638 1495,-878.4436 1495,-838 1495,-838 1495,-838 1495,-502 1495,-468.1521 1505.7606,-456.0922 1533,-436 1591.3091,-392.9904 1626.7169,-431.4308 1692,-400 1727.8978,-382.7169 1737.9943,-375.7976 1762,-344 1773.8788,-328.2656 1781.9846,-307.1335 1786.7467,-291.9291"/>
<polygon fill="#191970" stroke="#191970" points="1790.183,-292.648 1789.6295,-282.0676 1783.4642,-290.6839 1790.183,-292.648"/>
</g>
<!-- Node9 -->
<g id="node9" class="node">
<title>Node9</title>
<g id="a_node9"><a xlink:href="_s_base_8h.html" target="_top" xlink:title="Definition of SBase, the base object of all SBML objects. ">
<polygon fill="#ffffff" stroke="#000000" points="1983,-772.5 1983,-791.5 2061,-791.5 2061,-772.5 1983,-772.5"/>
<text text-anchor="middle" x="2022" y="-779.5" font-family="Helvetica,sans-Serif" font-size="10.00" fill="#000000">sbml/SBase.h</text>
</a>
</g>
</g>
<!-- Node1&#45;&gt;Node9 -->
<g id="edge11" class="edge">
<title>Node1&#45;&gt;Node9</title>
<path fill="none" stroke="#191970" d="M1567.2954,-940.4862C1649.0541,-911.9894 1892.048,-827.2945 1985.1418,-794.8468"/>
<polygon fill="#191970" stroke="#191970" points="1986.415,-798.1096 1994.7059,-791.5133 1984.1111,-791.4996 1986.415,-798.1096"/>
</g>
<!-- Node44 -->
<g id="node44" class="node">
<title>Node44</title>
<g id="a_node44"><a xlink:href="_list_of_8h.html" target="_top" xlink:title="sbml/ListOf.h">
<polygon fill="#ffffff" stroke="#000000" points="304.5,-828.5 304.5,-847.5 379.5,-847.5 379.5,-828.5 304.5,-828.5"/>
<text text-anchor="middle" x="342" y="-835.5" font-family="Helvetica,sans-Serif" font-size="10.00" fill="#000000">sbml/ListOf.h</text>
</a>
</g>
</g>
<!-- Node1&#45;&gt;Node44 -->
<g id="edge130" class="edge">
<title>Node1&#45;&gt;Node44</title>
<path fill="none" stroke="#191970" d="M1497.8504,-947.2906C1348.349,-937.452 829.6189,-901.3648 404,-848 399.3109,-847.4121 394.4324,-846.7366 389.5629,-846.02"/>
<polygon fill="#191970" stroke="#191970" points="390.0577,-842.5551 379.6441,-844.5064 389.0016,-849.475 390.0577,-842.5551"/>
</g>
<!-- Node46 -->
<g id="node46" class="node">
<title>Node46</title>
<g id="a_node46"><a xlink:href="_unit_8h.html" target="_top" xlink:title="Definitions of Unit and ListOfUnits. ">
<polygon fill="#ffffff" stroke="#000000" points="1551.5,-884.5 1551.5,-903.5 1618.5,-903.5 1618.5,-884.5 1551.5,-884.5"/>
<text text-anchor="middle" x="1585" y="-891.5" font-family="Helvetica,sans-Serif" font-size="10.00" fill="#000000">sbml/Unit.h</text>
</a>
</g>
</g>
<!-- Node1&#45;&gt;Node46 -->
<g id="edge138" class="edge">
<title>Node1&#45;&gt;Node46</title>
<path fill="none" stroke="#191970" d="M1547.8384,-940.2455C1554.162,-932.3761 1563.2224,-921.101 1570.8136,-911.6542"/>
<polygon fill="#191970" stroke="#191970" points="1573.7158,-913.6302 1577.2514,-903.6427 1568.2592,-909.2454 1573.7158,-913.6302"/>
</g>
<!-- Node3 -->
<g id="node3" class="node">
<title>Node3</title>
<g id="a_node3"><a xlink:href="libsbml-namespace_8h.html" target="_top" xlink:title="Defines C++ namespace of libSBML. ">
<polygon fill="#ffffff" stroke="#000000" points="90.5,-.5 90.5,-30.5 203.5,-30.5 203.5,-.5 90.5,-.5"/>
<text text-anchor="start" x="98.5" y="-18.5" font-family="Helvetica,sans-Serif" font-size="10.00" fill="#000000">sbml/common/libsbml</text>
<text text-anchor="middle" x="147" y="-7.5" font-family="Helvetica,sans-Serif" font-size="10.00" fill="#000000">&#45;namespace.h</text>
</a>
</g>
</g>
<!-- Node2&#45;&gt;Node3 -->
<g id="edge2" class="edge">
<title>Node2&#45;&gt;Node3</title>
<path fill="none" stroke="#191970" d="M2171.9869,-75.2585C1873.3288,-66.4449 530.3105,-26.8117 213.9153,-17.4747"/>
<polygon fill="#191970" stroke="#191970" points="213.6337,-13.965 203.5348,-17.1684 213.4271,-20.9619 213.6337,-13.965"/>
</g>
<!-- Node4&#45;&gt;Node3 -->
<g id="edge4" class="edge">
<title>Node4&#45;&gt;Node3</title>
<path fill="none" stroke="#191970" d="M297.2601,-263.8239C231.5219,-254.1881 133.9581,-237.7687 100,-221 59.6249,-201.0625 42.5307,-195.0398 24,-154 8.0877,-118.7593 2.5794,-99.1912 24,-67 36.9591,-47.5248 58.8513,-35.4002 80.6054,-27.8577"/>
<polygon fill="#191970" stroke="#191970" points="81.7541,-31.1652 90.2247,-24.8013 79.6343,-24.4939 81.7541,-31.1652"/>
</g>
<!-- Node5 -->
<g id="node5" class="node">
<title>Node5</title>
<g id="a_node5"><a xlink:href="libsbml-config_8h.html" target="_top" xlink:title="Decides whether to #include Unix or Windows configuration variables. ">
<polygon fill="#ffffff" stroke="#000000" points="304.5,-190.5 304.5,-220.5 417.5,-220.5 417.5,-190.5 304.5,-190.5"/>
<text text-anchor="start" x="312.5" y="-208.5" font-family="Helvetica,sans-Serif" font-size="10.00" fill="#000000">sbml/common/libsbml</text>
<text text-anchor="middle" x="361" y="-197.5" font-family="Helvetica,sans-Serif" font-size="10.00" fill="#000000">&#45;config.h</text>
</a>
</g>
</g>
<!-- Node4&#45;&gt;Node5 -->
<g id="edge5" class="edge">
<title>Node4&#45;&gt;Node5</title>
<path fill="none" stroke="#191970" d="M361,-262.9005C361,-254.5099 361,-241.9451 361,-230.7085"/>
<polygon fill="#191970" stroke="#191970" points="364.5001,-230.5217 361,-220.5218 357.5001,-230.5218 364.5001,-230.5217"/>
</g>
<!-- Node5&#45;&gt;Node3 -->
<g id="edge6" class="edge">
<title>Node5&#45;&gt;Node3</title>
<path fill="none" stroke="#191970" d="M341.0468,-190.3461C328.0162,-180.2907 310.7467,-166.6615 296,-154 250.198,-114.6747 199.133,-66.1185 170.2523,-38.1901"/>
<polygon fill="#191970" stroke="#191970" points="172.3334,-35.3328 162.7176,-30.8846 167.4607,-40.3585 172.3334,-35.3328"/>
</g>
<!-- Node6 -->
<g id="node6" class="node">
<title>Node6</title>
<g id="a_node6"><a xlink:href="libsbml-config-common_8h.html" target="_top" xlink:title="Configuration variables. ">
<polygon fill="#ffffff" stroke="#000000" points="304.5,-123.5 304.5,-153.5 417.5,-153.5 417.5,-123.5 304.5,-123.5"/>
<text text-anchor="start" x="312.5" y="-141.5" font-family="Helvetica,sans-Serif" font-size="10.00" fill="#000000">sbml/common/libsbml</text>
<text text-anchor="middle" x="361" y="-130.5" font-family="Helvetica,sans-Serif" font-size="10.00" fill="#000000">&#45;config&#45;common.h</text>
</a>
</g>
</g>
<!-- Node5&#45;&gt;Node6 -->
<g id="edge7" class="edge">
<title>Node5&#45;&gt;Node6</title>
<path fill="none" stroke="#191970" d="M361,-190.2967C361,-182.5013 361,-172.7991 361,-163.9064"/>
<polygon fill="#191970" stroke="#191970" points="364.5001,-163.6431 361,-153.6432 357.5001,-163.6432 364.5001,-163.6431"/>
</g>
<!-- Node7 -->
<g id="node7" class="node">
<title>Node7</title>
<g id="a_node7"><a xlink:href="libsbml-version_8h.html" target="_top" xlink:title="Define libSBML version numbers for access from client software. ">
<polygon fill="#ffffff" stroke="#000000" points="666.5,-123.5 666.5,-153.5 779.5,-153.5 779.5,-123.5 666.5,-123.5"/>
<text text-anchor="start" x="674.5" y="-141.5" font-family="Helvetica,sans-Serif" font-size="10.00" fill="#000000">sbml/common/libsbml</text>
<text text-anchor="middle" x="723" y="-130.5" font-family="Helvetica,sans-Serif" font-size="10.00" fill="#000000">&#45;version.h</text>
</a>
</g>
</g>
<!-- Node5&#45;&gt;Node7 -->
<g id="edge8" class="edge">
<title>Node5&#45;&gt;Node7</title>
<path fill="none" stroke="#191970" d="M417.5625,-195.0313C482.1927,-183.0693 587.8499,-163.514 656.4027,-150.826"/>
<polygon fill="#191970" stroke="#191970" points="657.0425,-154.2671 666.2385,-149.0056 655.7685,-147.384 657.0425,-154.2671"/>
</g>
<!-- Node7&#45;&gt;Node2 -->
<g id="edge9" class="edge">
<title>Node7&#45;&gt;Node2</title>
<path fill="none" stroke="#191970" d="M779.8177,-136.1828C1014.1714,-126.6253 1905.4241,-90.2778 2161.6941,-79.8265"/>
<polygon fill="#191970" stroke="#191970" points="2162.1324,-83.3116 2171.9815,-79.4069 2161.8471,-76.3174 2162.1324,-83.3116"/>
</g>
<!-- Node9&#45;&gt;Node2 -->
<g id="edge12" class="edge">
<title>Node9&#45;&gt;Node2</title>
<path fill="none" stroke="#191970" d="M2061.0996,-781.4818C2169.3706,-779.606 2471.1525,-771.2695 2563,-736 2646.812,-703.8162 2724,-703.7789 2724,-614 2724,-614 2724,-614 2724,-205.5 2724,-144.7439 2671.3416,-145.7362 2615,-123 2559.5051,-100.6054 2395.1128,-87.095 2300.3818,-80.9545"/>
<polygon fill="#191970" stroke="#191970" points="2300.5152,-77.4559 2290.3127,-80.3125 2300.0698,-84.4418 2300.5152,-77.4559"/>
</g>
<!-- Node9&#45;&gt;Node4 -->
<g id="edge13" class="edge">
<title>Node9&#45;&gt;Node4</title>
<path fill="none" stroke="#191970" d="M1982.7966,-781.5715C1747.8177,-778.9155 530.7259,-763.8932 367,-736 286.497,-722.2851 249.2961,-738.1893 192,-680 170.4951,-658.1598 172,-644.6506 172,-614 172,-614 172,-614 172,-558 172,-437.1564 291.1875,-328.1982 340.2649,-288.4552"/>
<polygon fill="#191970" stroke="#191970" points="342.6596,-291.0226 348.3057,-282.0575 338.3013,-285.5449 342.6596,-291.0226"/>
</g>
<!-- Node9&#45;&gt;Node8 -->
<g id="edge127" class="edge">
<title>Node9&#45;&gt;Node8</title>
<path fill="none" stroke="#191970" d="M2061.2522,-778.5389C2128.0549,-772.1583 2260.6364,-757.2258 2302,-736 2448.1753,-660.9897 2607.7296,-573.6313 2518,-436 2484.3096,-384.3242 2448.1423,-403.2421 2391,-380 2325.0829,-353.1889 2310.4287,-339.6062 2241,-324 2056.9137,-282.621 1997.6142,-345.7819 1818,-288 1816.9244,-287.654 1815.8461,-287.2568 1814.7732,-286.8194"/>
<polygon fill="#191970" stroke="#191970" points="1815.9779,-283.5057 1805.4772,-282.0966 1812.8072,-289.7465 1815.9779,-283.5057"/>
</g>
<!-- Node10 -->
<g id="node10" class="node">
<title>Node10</title>
<g id="a_node10"><a xlink:href="_s_b_m_l_type_codes_8h.html" target="_top" xlink:title="Enumeration to identify SBML objects at runtime. ">
<polygon fill="#ffffff" stroke="#000000" points="200.5,-660.5 200.5,-679.5 327.5,-679.5 327.5,-660.5 200.5,-660.5"/>
<text text-anchor="middle" x="264" y="-667.5" font-family="Helvetica,sans-Serif" font-size="10.00" fill="#000000">sbml/SBMLTypeCodes.h</text>
</a>
</g>
</g>
<!-- Node9&#45;&gt;Node10 -->
<g id="edge14" class="edge">
<title>Node9&#45;&gt;Node10</title>
<path fill="none" stroke="#191970" d="M1982.7132,-781.6203C1753.8353,-779.3067 597.2271,-766.1896 442,-736 387.378,-725.3768 327.3821,-700.059 292.8584,-684.0496"/>
<polygon fill="#191970" stroke="#191970" points="293.9475,-680.694 283.4089,-679.6038 290.9675,-687.0281 293.9475,-680.694"/>
</g>
<!-- Node11 -->
<g id="node11" class="node">
<title>Node11</title>
<g id="a_node11"><a xlink:href="_r_d_f_annotation_8h.html" target="_top" xlink:title="RDFAnnotation I/O. ">
<polygon fill="#ffffff" stroke="#000000" points="1574.5,-716.5 1574.5,-735.5 1741.5,-735.5 1741.5,-716.5 1574.5,-716.5"/>
<text text-anchor="middle" x="1658" y="-723.5" font-family="Helvetica,sans-Serif" font-size="10.00" fill="#000000">sbml/annotation/RDFAnnotation.h</text>
</a>
</g>
</g>
<!-- Node9&#45;&gt;Node11 -->
<g id="edge17" class="edge">
<title>Node9&#45;&gt;Node11</title>
<path fill="none" stroke="#191970" d="M1982.6998,-775.9538C1922.2665,-766.6564 1805.5791,-748.7045 1729.7897,-737.0446"/>
<polygon fill="#191970" stroke="#191970" points="1730.2534,-733.5748 1719.8374,-735.5134 1729.1889,-740.4934 1730.2534,-733.5748"/>
</g>
<!-- Node17 -->
<g id="node17" class="node">
<title>Node17</title>
<polygon fill="#ffffff" stroke="#bfbfbf" points="2122.5,-324.5 2122.5,-343.5 2181.5,-343.5 2181.5,-324.5 2122.5,-324.5"/>
<text text-anchor="middle" x="2152" y="-331.5" font-family="Helvetica,sans-Serif" font-size="10.00" fill="#000000">stdexcept</text>
</g>
<!-- Node9&#45;&gt;Node17 -->
<g id="edge128" class="edge">
<title>Node9&#45;&gt;Node17</title>
<path fill="none" stroke="#191970" d="M2061.3681,-776.6393C2117.0203,-766.597 2212,-739.306 2212,-670 2212,-670 2212,-670 2212,-502 2212,-444.9578 2180.9433,-383.0352 2163.5176,-352.7803"/>
<polygon fill="#191970" stroke="#191970" points="2166.3002,-350.61 2158.1951,-343.7867 2160.2761,-354.1752 2166.3002,-350.61"/>
</g>
<!-- Node20 -->
<g id="node20" class="node">
<title>Node20</title>
<g id="a_node20"><a xlink:href="_list_8h.html" target="_top" xlink:title="Simple, generic list utility class. ">
<polygon fill="#ffffff" stroke="#000000" points="1235,-492.5 1235,-511.5 1315,-511.5 1315,-492.5 1235,-492.5"/>
<text text-anchor="middle" x="1275" y="-499.5" font-family="Helvetica,sans-Serif" font-size="10.00" fill="#000000">sbml/util/List.h</text>
</a>
</g>
</g>
<!-- Node9&#45;&gt;Node20 -->
<g id="edge82" class="edge">
<title>Node9&#45;&gt;Node20</title>
<path fill="none" stroke="#191970" d="M1982.7788,-781.1201C1903.2551,-778.6646 1717.6994,-769.5143 1566,-736 1478.7107,-716.7156 1376,-759.3941 1376,-670 1376,-670 1376,-670 1376,-614 1376,-569.8652 1332.2112,-535.2933 1302.2988,-516.8258"/>
<polygon fill="#191970" stroke="#191970" points="1303.9108,-513.7126 1293.525,-511.6188 1300.3383,-519.7323 1303.9108,-513.7126"/>
</g>
<!-- Node22 -->
<g id="node22" class="node">
<title>Node22</title>
<g id="a_node22"><a xlink:href="_x_m_l_node_8h.html" target="_top" xlink:title="Class definition of XMLNode, a node in an XML document tree. ">
<polygon fill="#ffffff" stroke="#000000" points="839,-492.5 839,-511.5 951,-511.5 951,-492.5 839,-492.5"/>
<text text-anchor="middle" x="895" y="-499.5" font-family="Helvetica,sans-Serif" font-size="10.00" fill="#000000">sbml/xml/XMLNode.h</text>
</a>
</g>
</g>
<!-- Node9&#45;&gt;Node22 -->
<g id="edge118" class="edge">
<title>Node9&#45;&gt;Node22</title>
<path fill="none" stroke="#191970" d="M1982.9342,-780.5823C1863.4534,-776.022 1504.1341,-760.5793 1390,-736 1178.0415,-690.3538 1097.0312,-708.6225 932,-568 917.5178,-555.6597 907.5789,-536.1554 901.6783,-521.5442"/>
<polygon fill="#191970" stroke="#191970" points="904.8687,-520.0831 898.0882,-511.9421 898.312,-522.5346 904.8687,-520.0831"/>
</g>
<!-- Node30 -->
<g id="node30" class="node">
<title>Node30</title>
<g id="a_node30"><a xlink:href="_c_v_term_8h.html" target="_top" xlink:title="Definition of a CVTerm class for adding annotations to a Model. ">
<polygon fill="#ffffff" stroke="#000000" points="1698.5,-492.5 1698.5,-511.5 1833.5,-511.5 1833.5,-492.5 1698.5,-492.5"/>
<text text-anchor="middle" x="1766" y="-499.5" font-family="Helvetica,sans-Serif" font-size="10.00" fill="#000000">sbml/annotation/CVTerm.h</text>
</a>
</g>
</g>
<!-- Node9&#45;&gt;Node30 -->
<g id="edge72" class="edge">
<title>Node9&#45;&gt;Node30</title>
<path fill="none" stroke="#191970" d="M1986.5313,-772.4102C1922.6875,-754.0939 1795,-712.1877 1795,-670 1795,-670 1795,-670 1795,-614 1795,-580.5134 1782.7005,-543.1413 1774.1215,-521.1469"/>
<polygon fill="#191970" stroke="#191970" points="1777.2799,-519.6216 1770.279,-511.6693 1770.7928,-522.2517 1777.2799,-519.6216"/>
</g>
<!-- Node31 -->
<g id="node31" class="node">
<title>Node31</title>
<g id="a_node31"><a xlink:href="_s_b_m_l_namespaces_8h.html" target="_top" xlink:title="SBMLNamespaces class to store level/version and namespace. ">
<polygon fill="#ffffff" stroke="#000000" points="2010,-380.5 2010,-399.5 2144,-399.5 2144,-380.5 2010,-380.5"/>
<text text-anchor="middle" x="2077" y="-387.5" font-family="Helvetica,sans-Serif" font-size="10.00" fill="#000000">sbml/SBMLNamespaces.h</text>
</a>
</g>
</g>
<!-- Node9&#45;&gt;Node31 -->
<g id="edge83" class="edge">
<title>Node9&#45;&gt;Node31</title>
<path fill="none" stroke="#191970" d="M2022,-772.4116C2022,-753.0538 2022,-707.9167 2022,-670 2022,-670 2022,-670 2022,-502 2022,-471.3494 2028.0552,-463.2947 2042,-436 2047.2182,-425.7861 2054.7537,-415.5232 2061.497,-407.2909"/>
<polygon fill="#191970" stroke="#191970" points="2064.2848,-409.4157 2068.1072,-399.5344 2058.9571,-404.8753 2064.2848,-409.4157"/>
</g>
<!-- Node38 -->
<g id="node38" class="node">
<title>Node38</title>
<g id="a_node38"><a xlink:href="_syntax_checker_8h.html" target="_top" xlink:title="Syntax checking functions. ">
<polygon fill="#ffffff" stroke="#000000" points="2394.5,-324.5 2394.5,-343.5 2511.5,-343.5 2511.5,-324.5 2394.5,-324.5"/>
<text text-anchor="middle" x="2453" y="-331.5" font-family="Helvetica,sans-Serif" font-size="10.00" fill="#000000">sbml/SyntaxChecker.h</text>
</a>
</g>
</g>
<!-- Node9&#45;&gt;Node38 -->
<g id="edge101" class="edge">
<title>Node9&#45;&gt;Node38</title>
<path fill="none" stroke="#191970" d="M2061.3901,-780.864C2173.164,-777.4371 2485.764,-765.5604 2521,-736 2644.9471,-632.0177 2693.537,-509.8299 2597,-380 2586.1078,-365.3513 2545.969,-353.6056 2510.7614,-345.6502"/>
<polygon fill="#191970" stroke="#191970" points="2511.5078,-342.2308 2500.9902,-343.5076 2510.0084,-349.0683 2511.5078,-342.2308"/>
</g>
<!-- Node39 -->
<g id="node39" class="node">
<title>Node39</title>
<g id="a_node39"><a xlink:href="_s_b_m_l_constructor_exception_8h.html" target="_top" xlink:title="Definition of SBMLConstructorException, the exception class for constructor exceptions. ">
<polygon fill="#ffffff" stroke="#000000" points="2316,-436.5 2316,-455.5 2488,-455.5 2488,-436.5 2316,-436.5"/>
<text text-anchor="middle" x="2402" y="-443.5" font-family="Helvetica,sans-Serif" font-size="10.00" fill="#000000">sbml/SBMLConstructorException.h</text>
</a>
</g>
</g>
<!-- Node9&#45;&gt;Node39 -->
<g id="edge106" class="edge">
<title>Node9&#45;&gt;Node39</title>
<path fill="none" stroke="#191970" d="M2061.1578,-776.9413C2120.1064,-768.9263 2228.526,-752.5177 2264,-736 2306.0976,-716.3981 2345,-716.4375 2345,-670 2345,-670 2345,-670 2345,-558 2345,-521.1826 2369.7675,-484.2377 2386.6501,-463.3313"/>
<polygon fill="#191970" stroke="#191970" points="2389.3511,-465.5574 2393.0938,-455.6456 2383.9869,-461.06 2389.3511,-465.5574"/>
</g>
<!-- Node40 -->
<g id="node40" class="node">
<title>Node40</title>
<polygon fill="#ffffff" stroke="#bfbfbf" points="2276,-380.5 2276,-399.5 2334,-399.5 2334,-380.5 2276,-380.5"/>
<text text-anchor="middle" x="2305" y="-387.5" font-family="Helvetica,sans-Serif" font-size="10.00" fill="#000000">algorithm</text>
</g>
<!-- Node9&#45;&gt;Node40 -->
<g id="edge129" class="edge">
<title>Node9&#45;&gt;Node40</title>
<path fill="none" stroke="#191970" d="M2061.4011,-777.6278C2113.5954,-771.0944 2201.8843,-757.2324 2226,-736 2249.4265,-715.3743 2250,-701.2125 2250,-670 2250,-670 2250,-670 2250,-502 2250,-465.6071 2273.6865,-428.7455 2289.971,-407.7035"/>
<polygon fill="#191970" stroke="#191970" points="2292.8667,-409.6876 2296.4063,-399.7015 2287.4118,-405.3008 2292.8667,-409.6876"/>
</g>
<!-- Node41 -->
<g id="node41" class="node">
<title>Node41</title>
<g id="a_node41"><a xlink:href="_expected_attributes_8h.html" target="_top" xlink:title="Definition of ExpectedAttributes, the class allowing the specification of attributes to expect...">
<polygon fill="#ffffff" stroke="#000000" points="2050.5,-436.5 2050.5,-455.5 2183.5,-455.5 2183.5,-436.5 2050.5,-436.5"/>
<text text-anchor="middle" x="2117" y="-443.5" font-family="Helvetica,sans-Serif" font-size="10.00" fill="#000000">sbml/ExpectedAttributes.h</text>
</a>
</g>
</g>
<!-- Node9&#45;&gt;Node41 -->
<g id="edge112" class="edge">
<title>Node9&#45;&gt;Node41</title>
<path fill="none" stroke="#191970" d="M2058.795,-772.4434C2103.7798,-758.2795 2174,-727.0354 2174,-670 2174,-670 2174,-670 2174,-558 2174,-521.1826 2149.2325,-484.2377 2132.3499,-463.3313"/>
<polygon fill="#191970" stroke="#191970" points="2135.0131,-461.06 2125.9063,-455.6456 2129.6489,-465.5574 2135.0131,-461.06"/>
</g>
<!-- Node42 -->
<g id="node42" class="node">
<title>Node42</title>
<g id="a_node42"><a xlink:href="_x_m_l_error_8h.html" target="_top" xlink:title="Represents errors (and messages) encountered during an XML parse. ">
<polygon fill="#ffffff" stroke="#000000" points="806,-324.5 806,-343.5 916,-343.5 916,-324.5 806,-324.5"/>
<text text-anchor="middle" x="861" y="-331.5" font-family="Helvetica,sans-Serif" font-size="10.00" fill="#000000">sbml/xml/XMLError.h</text>
</a>
</g>
</g>
<!-- Node9&#45;&gt;Node42 -->
<g id="edge119" class="edge">
<title>Node9&#45;&gt;Node42</title>
<path fill="none" stroke="#191970" d="M1982.9236,-781.3166C1872.4533,-779.0091 1548.5877,-769.6526 1282,-736 887.8267,-686.2416 657.1633,-874.1974 404,-568 350.7578,-503.6043 347.6765,-441.7187 404,-380 432.0572,-349.2552 721.7392,-349.295 795.8952,-343.78"/>
<polygon fill="#191970" stroke="#191970" points="796.2449,-347.2626 805.8733,-342.8416 795.5894,-340.2934 796.2449,-347.2626"/>
</g>
<!-- Node10&#45;&gt;Node2 -->
<g id="edge16" class="edge">
<title>Node10&#45;&gt;Node2</title>
<path fill="none" stroke="#191970" d="M259.5681,-660.3207C255.5207,-651.141 249.6309,-636.876 246,-624 232.2766,-575.3327 234.4566,-561.853 226,-512 196.6215,-338.8083 148.8258,-218.9074 296,-123 335.8591,-97.0254 1820.2916,-81.0012 2161.5524,-77.6559"/>
<polygon fill="#191970" stroke="#191970" points="2161.8226,-81.1535 2171.7879,-77.556 2161.7542,-74.1538 2161.8226,-81.1535"/>
</g>
<!-- Node10&#45;&gt;Node5 -->
<g id="edge15" class="edge">
<title>Node10&#45;&gt;Node5</title>
<path fill="none" stroke="#191970" d="M261.9751,-660.3239C251.015,-607.5543 199.805,-355.7152 214,-324 234.4681,-278.2694 282.8945,-244.9047 318.599,-225.441"/>
<polygon fill="#191970" stroke="#191970" points="320.6322,-228.3252 327.837,-220.5572 317.3606,-222.1368 320.6322,-228.3252"/>
</g>
<!-- Node12 -->
<g id="node12" class="node">
<title>Node12</title>
<g id="a_node12"><a xlink:href="_r_d_f_annotation_parser_8h.html" target="_top" xlink:title="RDFAnnotationParser.h">
<polygon fill="#ffffff" stroke="#000000" points="1593.5,-660.5 1593.5,-679.5 1716.5,-679.5 1716.5,-660.5 1593.5,-660.5"/>
<text text-anchor="middle" x="1655" y="-667.5" font-family="Helvetica,sans-Serif" font-size="10.00" fill="#000000">RDFAnnotationParser.h</text>
</a>
</g>
</g>
<!-- Node11&#45;&gt;Node12 -->
<g id="edge18" class="edge">
<title>Node11&#45;&gt;Node12</title>
<path fill="none" stroke="#191970" d="M1657.4774,-716.2455C1657.086,-708.9382 1656.5372,-698.6944 1656.0556,-689.7046"/>
<polygon fill="#191970" stroke="#191970" points="1659.5466,-689.4411 1655.5166,-679.6427 1652.5566,-689.8156 1659.5466,-689.4411"/>
</g>
<!-- Node12&#45;&gt;Node2 -->
<g id="edge19" class="edge">
<title>Node12&#45;&gt;Node2</title>
<path fill="none" stroke="#191970" d="M1716.5321,-664.5394C1897.2548,-647.0862 2419.93,-586.0144 2518,-456 2587.4653,-363.9078 2388.5819,-346.1126 2386,-344 2342.3532,-308.2862 2265.7271,-150.8704 2239.8341,-95.9684"/>
<polygon fill="#191970" stroke="#191970" points="2242.8978,-94.2579 2235.4824,-86.6907 2236.5603,-97.2305 2242.8978,-94.2579"/>
</g>
<!-- Node12&#45;&gt;Node4 -->
<g id="edge20" class="edge">
<title>Node12&#45;&gt;Node4</title>
<path fill="none" stroke="#191970" d="M1593.2389,-669.2282C1423.8584,-666.7036 954.6112,-656.8615 804,-624 620.4039,-583.9416 554.7147,-582.7692 416,-456 375.3487,-418.8494 371.4001,-398.4255 363,-344 360.3396,-326.7626 359.9964,-306.9173 360.2286,-292.5144"/>
<polygon fill="#191970" stroke="#191970" points="363.7335,-292.375 360.5049,-282.2841 356.7361,-292.186 363.7335,-292.375"/>
</g>
<!-- Node12&#45;&gt;Node8 -->
<g id="edge69" class="edge">
<title>Node12&#45;&gt;Node8</title>
<path fill="none" stroke="#191970" d="M1716.8824,-661.8127C1812.1857,-647.4481 1984,-613.8118 1984,-558 1984,-558 1984,-558 1984,-502 1984,-405.0744 1929.8751,-389.0272 1858,-324 1843.766,-311.1221 1826.6526,-297.8248 1813.4191,-287.9682"/>
<polygon fill="#191970" stroke="#191970" points="1815.4798,-285.1392 1805.3524,-282.027 1811.3286,-290.7754 1815.4798,-285.1392"/>
</g>
<!-- Node13 -->
<g id="node13" class="node">
<title>Node13</title>
<g id="a_node13"><a xlink:href="_x_m_l_attributes_8h.html" target="_top" xlink:title="XMLAttributes are a list of name/value pairs for XML elements. ">
<polygon fill="#ffffff" stroke="#000000" points="800,-380.5 800,-399.5 930,-399.5 930,-380.5 800,-380.5"/>
<text text-anchor="middle" x="865" y="-387.5" font-family="Helvetica,sans-Serif" font-size="10.00" fill="#000000">sbml/xml/XMLAttributes.h</text>
</a>
</g>
</g>
<!-- Node12&#45;&gt;Node13 -->
<g id="edge21" class="edge">
<title>Node12&#45;&gt;Node13</title>
<path fill="none" stroke="#191970" d="M1593.4142,-666.6654C1368.9835,-654.1126 608,-607.8723 608,-558 608,-558 608,-558 608,-502 608,-457.9823 736.3007,-420.2536 811.5983,-401.9015"/>
<polygon fill="#191970" stroke="#191970" points="812.4966,-405.2854 821.4035,-399.548 810.8627,-398.4787 812.4966,-405.2854"/>
</g>
<!-- Node19 -->
<g id="node19" class="node">
<title>Node19</title>
<g id="a_node19"><a xlink:href="_model_history_8h.html" target="_top" xlink:title="ModelHistory I/O. ">
<polygon fill="#ffffff" stroke="#000000" points="1145.5,-604.5 1145.5,-623.5 1302.5,-623.5 1302.5,-604.5 1145.5,-604.5"/>
<text text-anchor="middle" x="1224" y="-611.5" font-family="Helvetica,sans-Serif" font-size="10.00" fill="#000000">sbml/annotation/ModelHistory.h</text>
</a>
</g>
</g>
<!-- Node12&#45;&gt;Node19 -->
<g id="edge34" class="edge">
<title>Node12&#45;&gt;Node19</title>
<path fill="none" stroke="#191970" d="M1593.2482,-661.9766C1518.0944,-652.2118 1390.8859,-635.6835 1307.1625,-624.8053"/>
<polygon fill="#191970" stroke="#191970" points="1307.5419,-621.3253 1297.1743,-623.5076 1306.6399,-628.2669 1307.5419,-621.3253"/>
</g>
<!-- Node24 -->
<g id="node24" class="node">
<title>Node24</title>
<polygon fill="#ffffff" stroke="#bfbfbf" points="1561.5,-436.5 1561.5,-455.5 1606.5,-455.5 1606.5,-436.5 1561.5,-436.5"/>
<text text-anchor="middle" x="1584" y="-443.5" font-family="Helvetica,sans-Serif" font-size="10.00" fill="#000000">cstdlib</text>
</g>
<!-- Node12&#45;&gt;Node24 -->
<g id="edge71" class="edge">
<title>Node12&#45;&gt;Node24</title>
<path fill="none" stroke="#191970" d="M1651.9492,-660.375C1641.1618,-626.3415 1604.6857,-511.262 1590.1006,-465.247"/>
<polygon fill="#191970" stroke="#191970" points="1593.3974,-464.0642 1587.0394,-455.5891 1586.7246,-466.1793 1593.3974,-464.0642"/>
</g>
<!-- Node27 -->
<g id="node27" class="node">
<title>Node27</title>
<polygon fill="#ffffff" stroke="#bfbfbf" points="1624.5,-436.5 1624.5,-455.5 1663.5,-455.5 1663.5,-436.5 1624.5,-436.5"/>
<text text-anchor="middle" x="1644" y="-443.5" font-family="Helvetica,sans-Serif" font-size="10.00" fill="#000000">limits</text>
</g>
<!-- Node12&#45;&gt;Node27 -->
<g id="edge67" class="edge">
<title>Node12&#45;&gt;Node27</title>
<path fill="none" stroke="#191970" d="M1654.5273,-660.375C1652.8631,-626.4851 1647.2524,-512.2317 1644.974,-465.8332"/>
<polygon fill="#191970" stroke="#191970" points="1648.4573,-465.4054 1644.4709,-455.5891 1641.4657,-465.7488 1648.4573,-465.4054"/>
</g>
<!-- Node28 -->
<g id="node28" class="node">
<title>Node28</title>
<polygon fill="#ffffff" stroke="#bfbfbf" points="1834,-436.5 1834,-455.5 1886,-455.5 1886,-436.5 1834,-436.5"/>
<text text-anchor="middle" x="1860" y="-443.5" font-family="Helvetica,sans-Serif" font-size="10.00" fill="#000000">iomanip</text>
</g>
<!-- Node12&#45;&gt;Node28 -->
<g id="edge68" class="edge">
<title>Node12&#45;&gt;Node28</title>
<path fill="none" stroke="#191970" d="M1672.6506,-660.3444C1710.1542,-638.8847 1798.0165,-583.4333 1843,-512 1851.7681,-498.0764 1856.0266,-479.8045 1858.0877,-466.0169"/>
<polygon fill="#191970" stroke="#191970" points="1861.6115,-466.0353 1859.3528,-455.684 1854.6634,-465.1845 1861.6115,-466.0353"/>
</g>
<!-- Node29 -->
<g id="node29" class="node">
<title>Node29</title>
<polygon fill="#ffffff" stroke="#bfbfbf" points="1904,-436.5 1904,-455.5 1956,-455.5 1956,-436.5 1904,-436.5"/>
<text text-anchor="middle" x="1930" y="-443.5" font-family="Helvetica,sans-Serif" font-size="10.00" fill="#000000">sstream</text>
</g>
<!-- Node12&#45;&gt;Node29 -->
<g id="edge70" class="edge">
<title>Node12&#45;&gt;Node29</title>
<path fill="none" stroke="#191970" d="M1681.3954,-660.4363C1702.432,-652.2459 1732.2019,-639.3582 1756,-624 1826.6629,-578.3975 1890.4444,-499.2634 1916.9712,-463.932"/>
<polygon fill="#191970" stroke="#191970" points="1920.0292,-465.6838 1923.1685,-455.5648 1914.404,-461.5175 1920.0292,-465.6838"/>
</g>
<!-- Node13&#45;&gt;Node4 -->
<g id="edge24" class="edge">
<title>Node13&#45;&gt;Node4</title>
<path fill="none" stroke="#191970" d="M818.1301,-380.4907C774.3103,-371.4885 707.0962,-357.3938 649,-344 563.5196,-324.2929 464.3372,-299.1692 407.4981,-284.5533"/>
<polygon fill="#191970" stroke="#191970" points="408.287,-281.1423 397.73,-282.0377 406.5411,-287.9211 408.287,-281.1423"/>
</g>
<!-- Node13&#45;&gt;Node8 -->
<g id="edge27" class="edge">
<title>Node13&#45;&gt;Node8</title>
<path fill="none" stroke="#191970" d="M930.3374,-384.978C1022.3591,-377.6143 1195.3062,-362.7093 1342,-344 1500.2323,-323.819 1688.3933,-291.0682 1761.158,-278.0712"/>
<polygon fill="#191970" stroke="#191970" points="1762.2063,-281.4392 1771.4321,-276.2302 1760.9716,-274.549 1762.2063,-281.4392"/>
</g>
<!-- Node14 -->
<g id="node14" class="node">
<title>Node14</title>
<g id="a_node14"><a xlink:href="_x_m_l_extern_8h.html" target="_top" xlink:title="Defines LIBLAX_EXTERN. ">
<polygon fill="#ffffff" stroke="#000000" points="587.5,-263 587.5,-282 704.5,-282 704.5,-263 587.5,-263"/>
<text text-anchor="middle" x="646" y="-270" font-family="Helvetica,sans-Serif" font-size="10.00" fill="#000000">sbml/xml/XMLExtern.h</text>
</a>
</g>
</g>
<!-- Node13&#45;&gt;Node14 -->
<g id="edge22" class="edge">
<title>Node13&#45;&gt;Node14</title>
<path fill="none" stroke="#191970" d="M799.7772,-382.1738C749.3804,-374.8383 685.1008,-362.2494 666,-344 652.067,-330.6881 647.5866,-308.5399 646.2701,-292.4157"/>
<polygon fill="#191970" stroke="#191970" points="649.7647,-292.2177 645.7868,-282.3979 642.7728,-292.555 649.7647,-292.2177"/>
</g>
<!-- Node15 -->
<g id="node15" class="node">
<title>Node15</title>
<g id="a_node15"><a xlink:href="operation_return_values_8h.html" target="_top" xlink:title="Enumeration of values returned by operations within libSBML. ">
<polygon fill="#ffffff" stroke="#000000" points="981.5,-257.5 981.5,-287.5 1134.5,-287.5 1134.5,-257.5 981.5,-257.5"/>
<text text-anchor="start" x="989.5" y="-275.5" font-family="Helvetica,sans-Serif" font-size="10.00" fill="#000000">sbml/common/operationReturn</text>
<text text-anchor="middle" x="1058" y="-264.5" font-family="Helvetica,sans-Serif" font-size="10.00" fill="#000000">Values.h</text>
</a>
</g>
</g>
<!-- Node13&#45;&gt;Node15 -->
<g id="edge25" class="edge">
<title>Node13&#45;&gt;Node15</title>
<path fill="none" stroke="#191970" d="M886.9481,-380.363C906.1336,-371.6548 934.5166,-358.0776 958,-344 983.5129,-328.7058 1010.8864,-308.8718 1030.5324,-293.9745"/>
<polygon fill="#191970" stroke="#191970" points="1032.8985,-296.5712 1038.7154,-287.716 1028.6459,-291.011 1032.8985,-296.5712"/>
</g>
<!-- Node16 -->
<g id="node16" class="node">
<title>Node16</title>
<polygon fill="#ffffff" stroke="#bfbfbf" points="1352,-263 1352,-282 1396,-282 1396,-263 1352,-263"/>
<text text-anchor="middle" x="1374" y="-270" font-family="Helvetica,sans-Serif" font-size="10.00" fill="#000000">vector</text>
</g>
<!-- Node13&#45;&gt;Node16 -->
<g id="edge28" class="edge">
<title>Node13&#45;&gt;Node16</title>
<path fill="none" stroke="#191970" d="M930.3082,-386.1564C1047.3694,-378.8565 1283.8528,-362.0908 1317,-344 1338.7828,-332.1116 1355.2166,-308.0821 1364.7118,-291.1716"/>
<polygon fill="#191970" stroke="#191970" points="1367.8863,-292.6563 1369.4886,-282.1833 1361.705,-289.3712 1367.8863,-292.6563"/>
</g>
<!-- Node13&#45;&gt;Node17 -->
<g id="edge29" class="edge">
<title>Node13&#45;&gt;Node17</title>
<path fill="none" stroke="#191970" d="M930.1475,-387.1653C1159.9729,-377.1651 1928.8983,-343.7076 2112.4215,-335.7221"/>
<polygon fill="#191970" stroke="#191970" points="2112.6011,-339.2177 2122.4395,-335.2862 2112.2968,-332.2244 2112.6011,-339.2177"/>
</g>
<!-- Node18 -->
<g id="node18" class="node">
<title>Node18</title>
<g id="a_node18"><a xlink:href="_x_m_l_triple_8h.html" target="_top" xlink:title="Stores an XML namespace triple. ">
<polygon fill="#ffffff" stroke="#000000" points="674.5,-324.5 674.5,-343.5 787.5,-343.5 787.5,-324.5 674.5,-324.5"/>
<text text-anchor="middle" x="731" y="-331.5" font-family="Helvetica,sans-Serif" font-size="10.00" fill="#000000">sbml/xml/XMLTriple.h</text>
</a>
</g>
</g>
<!-- Node13&#45;&gt;Node18 -->
<g id="edge30" class="edge">
<title>Node13&#45;&gt;Node18</title>
<path fill="none" stroke="#191970" d="M841.9646,-380.3733C820.2612,-371.3032 787.5382,-357.6279 763.245,-347.4755"/>
<polygon fill="#191970" stroke="#191970" points="764.3111,-344.1278 753.7348,-343.5011 761.6119,-350.5865 764.3111,-344.1278"/>
</g>
<!-- Node14&#45;&gt;Node3 -->
<g id="edge23" class="edge">
<title>Node14&#45;&gt;Node3</title>
<path fill="none" stroke="#191970" d="M587.2041,-269.256C500.6503,-263.5839 343.9983,-249.6342 296,-221 223.6724,-177.8518 176.295,-84.5985 156.9247,-40.0978"/>
<polygon fill="#191970" stroke="#191970" points="160.0369,-38.4718 152.9094,-30.6329 153.5928,-41.2056 160.0369,-38.4718"/>
</g>
<!-- Node15&#45;&gt;Node2 -->
<g id="edge26" class="edge">
<title>Node15&#45;&gt;Node2</title>
<path fill="none" stroke="#191970" d="M1086.8738,-257.3531C1148.8155,-225.7084 1299.8969,-153.0369 1436,-123 1573.3586,-92.6861 1994.659,-81.4996 2161.7134,-78.1859"/>
<polygon fill="#191970" stroke="#191970" points="2161.9372,-81.6823 2171.8671,-77.9881 2161.8007,-74.6837 2161.9372,-81.6823"/>
</g>
<!-- Node18&#45;&gt;Node4 -->
<g id="edge32" class="edge">
<title>Node18&#45;&gt;Node4</title>
<path fill="none" stroke="#191970" d="M674.4022,-324.5925C608.2209,-313.5921 498.7795,-295.4012 428.3053,-283.6872"/>
<polygon fill="#191970" stroke="#191970" points="428.6386,-280.1947 418.2,-282.0076 427.4907,-287.0999 428.6386,-280.1947"/>
</g>
<!-- Node18&#45;&gt;Node8 -->
<g id="edge33" class="edge">
<title>Node18&#45;&gt;Node8</title>
<path fill="none" stroke="#191970" d="M787.8365,-325.0245C790.9325,-324.6493 794.0022,-324.3039 797,-324 991.1235,-304.3183 1615.8455,-279.3298 1761.4596,-273.6733"/>
<polygon fill="#191970" stroke="#191970" points="1761.6202,-277.1698 1771.4772,-273.2853 1761.3492,-270.175 1761.6202,-277.1698"/>
</g>
<!-- Node18&#45;&gt;Node14 -->
<g id="edge31" class="edge">
<title>Node18&#45;&gt;Node14</title>
<path fill="none" stroke="#191970" d="M717.7188,-324.3906C704.2452,-314.6421 683.178,-299.3994 667.3565,-287.9521"/>
<polygon fill="#191970" stroke="#191970" points="669.3414,-285.0682 659.188,-282.0419 665.2381,-290.7394 669.3414,-285.0682"/>
</g>
<!-- Node19&#45;&gt;Node2 -->
<g id="edge35" class="edge">
<title>Node19&#45;&gt;Node2</title>
<path fill="none" stroke="#191970" d="M1252.8183,-604.4947C1274.5491,-596.5809 1304.5204,-584.0299 1328,-568 1396.7812,-521.042 1397.2029,-489.5334 1461,-436 1482.2536,-418.1657 1490.7626,-417.8536 1512,-400 1573.4628,-348.3301 1640,-352.7961 1640,-272.5 1640,-272.5 1640,-272.5 1640,-205.5 1640,-152.6181 2005.9741,-103.391 2161.9365,-84.8135"/>
<polygon fill="#191970" stroke="#191970" points="2162.3803,-88.2854 2171.8996,-83.6344 2161.5576,-81.334 2162.3803,-88.2854"/>
</g>
<!-- Node19&#45;&gt;Node4 -->
<g id="edge36" class="edge">
<title>Node19&#45;&gt;Node4</title>
<path fill="none" stroke="#191970" d="M1145.2796,-606.175C970.6997,-587.5478 557.6087,-536.0627 445,-456 396.5742,-421.5702 389.6133,-400.7472 372,-344 366.771,-327.153 363.9686,-307.2697 362.5041,-292.753"/>
<polygon fill="#191970" stroke="#191970" points="365.9582,-292.0769 361.5957,-282.4219 358.9852,-292.6901 365.9582,-292.0769"/>
</g>
<!-- Node19&#45;&gt;Node8 -->
<g id="edge66" class="edge">
<title>Node19&#45;&gt;Node8</title>
<path fill="none" stroke="#191970" d="M1302.617,-604.6591C1353.4131,-597.1563 1413.541,-585.0439 1433,-568 1479.9589,-526.8692 1433.6914,-476.7282 1481,-436 1542.168,-383.3403 1584.7288,-431.5967 1659,-400 1699.273,-382.8669 1708.6853,-374.5753 1740,-344 1756.5522,-327.8386 1771.6386,-305.9237 1781.2479,-290.6319"/>
<polygon fill="#191970" stroke="#191970" points="1784.2491,-292.4328 1786.4873,-282.0771 1778.2797,-288.7768 1784.2491,-292.4328"/>
</g>
<!-- Node19&#45;&gt;Node15 -->
<g id="edge37" class="edge">
<title>Node19&#45;&gt;Node15</title>
<path fill="none" stroke="#191970" d="M1145.2682,-608.3087C1087.999,-602.3388 1017.4044,-590.5478 999,-568 932.5483,-486.5881 1006.7116,-350.9937 1041.7296,-296.3766"/>
<polygon fill="#191970" stroke="#191970" points="1044.8357,-298.0218 1047.3793,-287.7368 1038.977,-294.1908 1044.8357,-298.0218"/>
</g>
<!-- Node19&#45;&gt;Node20 -->
<g id="edge38" class="edge">
<title>Node19&#45;&gt;Node20</title>
<path fill="none" stroke="#191970" d="M1262.0976,-604.4497C1280.8946,-597.6063 1301.8748,-586.2734 1313,-568 1323.1523,-551.3245 1308.9515,-531.9285 1295.1131,-518.4979"/>
<polygon fill="#191970" stroke="#191970" points="1297.3791,-515.828 1287.6193,-511.7053 1292.6779,-521.0145 1297.3791,-515.828"/>
</g>
<!-- Node19&#45;&gt;Node22 -->
<g id="edge41" class="edge">
<title>Node19&#45;&gt;Node22</title>
<path fill="none" stroke="#191970" d="M1145.2126,-605.0312C1080.9409,-596.7974 995.9074,-583.5402 965,-568 942.0843,-556.478 921.4731,-535.0307 908.6472,-519.7113"/>
<polygon fill="#191970" stroke="#191970" points="911.3668,-517.5082 902.3575,-511.933 905.9237,-521.9096 911.3668,-517.5082"/>
</g>
<!-- Node25 -->
<g id="node25" class="node">
<title>Node25</title>
<g id="a_node25"><a xlink:href="_date_8h.html" target="_top" xlink:title="Date I/O. ">
<polygon fill="#ffffff" stroke="#000000" points="1007.5,-548.5 1007.5,-567.5 1126.5,-567.5 1126.5,-548.5 1007.5,-548.5"/>
<text text-anchor="middle" x="1067" y="-555.5" font-family="Helvetica,sans-Serif" font-size="10.00" fill="#000000">sbml/annotation/Date.h</text>
</a>
</g>
</g>
<!-- Node19&#45;&gt;Node25 -->
<g id="edge52" class="edge">
<title>Node19&#45;&gt;Node25</title>
<path fill="none" stroke="#191970" d="M1197.0107,-604.3733C1171.1301,-595.1419 1131.8752,-581.1402 1103.2711,-570.9375"/>
<polygon fill="#191970" stroke="#191970" points="1104.2317,-567.5642 1093.6371,-567.5011 1101.88,-574.1573 1104.2317,-567.5642"/>
</g>
<!-- Node26 -->
<g id="node26" class="node">
<title>Node26</title>
<g id="a_node26"><a xlink:href="_model_creator_8h.html" target="_top" xlink:title="ModelCreator I/O. ">
<polygon fill="#ffffff" stroke="#000000" points="1144.5,-548.5 1144.5,-567.5 1303.5,-567.5 1303.5,-548.5 1144.5,-548.5"/>
<text text-anchor="middle" x="1224" y="-555.5" font-family="Helvetica,sans-Serif" font-size="10.00" fill="#000000">sbml/annotation/ModelCreator.h</text>
</a>
</g>
</g>
<!-- Node19&#45;&gt;Node26 -->
<g id="edge59" class="edge">
<title>Node19&#45;&gt;Node26</title>
<path fill="none" stroke="#191970" d="M1224,-604.2455C1224,-596.9382 1224,-586.6944 1224,-577.7046"/>
<polygon fill="#191970" stroke="#191970" points="1227.5001,-577.6426 1224,-567.6427 1220.5001,-577.6427 1227.5001,-577.6426"/>
</g>
<!-- Node20&#45;&gt;Node2 -->
<g id="edge39" class="edge">
<title>Node20&#45;&gt;Node2</title>
<path fill="none" stroke="#191970" d="M1280.2516,-492.3049C1288.6158,-477.8018 1306.3564,-450.6046 1329,-436 1381.1841,-402.3426 1416.0843,-439.4979 1464,-400 1512.6214,-359.9204 1526,-335.5113 1526,-272.5 1526,-272.5 1526,-272.5 1526,-205.5 1526,-167.3133 1520.2489,-146.9394 1550,-123 1573.5797,-104.0265 1993.3438,-86.0365 2161.8433,-79.5469"/>
<polygon fill="#191970" stroke="#191970" points="2161.9911,-83.0439 2171.8498,-79.1637 2161.7232,-76.049 2161.9911,-83.0439"/>
</g>
<!-- Node21 -->
<g id="node21" class="node">
<title>Node21</title>
<polygon fill="#ffffff" stroke="#bfbfbf" points="1227.5,-436.5 1227.5,-455.5 1276.5,-455.5 1276.5,-436.5 1227.5,-436.5"/>
<text text-anchor="middle" x="1252" y="-443.5" font-family="Helvetica,sans-Serif" font-size="10.00" fill="#000000">string.h</text>
</g>
<!-- Node20&#45;&gt;Node21 -->
<g id="edge40" class="edge">
<title>Node20&#45;&gt;Node21</title>
<path fill="none" stroke="#191970" d="M1270.9937,-492.2455C1267.9265,-484.7776 1263.5997,-474.2427 1259.8503,-465.1137"/>
<polygon fill="#191970" stroke="#191970" points="1262.9972,-463.5631 1255.9604,-455.6427 1256.5221,-466.2226 1262.9972,-463.5631"/>
</g>
<!-- Node22&#45;&gt;Node4 -->
<g id="edge49" class="edge">
<title>Node22&#45;&gt;Node4</title>
<path fill="none" stroke="#191970" d="M838.976,-499.5708C748.1633,-494.9045 573.3921,-482.688 518,-456 443.2946,-420.0069 390.3099,-330.0992 370.0748,-291.0689"/>
<polygon fill="#191970" stroke="#191970" points="373.1771,-289.4477 365.5423,-282.1019 366.9299,-292.6055 373.1771,-289.4477"/>
</g>
<!-- Node22&#45;&gt;Node14 -->
<g id="edge42" class="edge">
<title>Node22&#45;&gt;Node14</title>
<path fill="none" stroke="#191970" d="M859.1996,-492.4695C812.6665,-478.5965 730.9897,-449.0073 677,-400 654.3527,-379.4427 646.3342,-373.127 637,-344 631.5842,-327.1003 634.933,-306.9775 638.9965,-292.3915"/>
<polygon fill="#191970" stroke="#191970" points="642.4576,-293.0509 642.1098,-282.4618 635.7783,-290.9566 642.4576,-293.0509"/>
</g>
<!-- Node22&#45;&gt;Node16 -->
<g id="edge50" class="edge">
<title>Node22&#45;&gt;Node16</title>
<path fill="none" stroke="#191970" d="M908.3825,-492.4116C928.6285,-478.2928 968.6523,-451.8717 1006,-436 1148.4963,-375.443 1224.4436,-444.7613 1342,-344 1357.4369,-330.7685 1365.7572,-308.6068 1370.0083,-292.4575"/>
<polygon fill="#191970" stroke="#191970" points="1373.4861,-292.954 1372.3387,-282.4214 1366.6675,-291.3706 1373.4861,-292.954"/>
</g>
<!-- Node23 -->
<g id="node23" class="node">
<title>Node23</title>
<g id="a_node23"><a xlink:href="_x_m_l_token_8h.html" target="_top" xlink:title="A unit of XML syntax, either an XML element or text. ">
<polygon fill="#ffffff" stroke="#000000" points="782.5,-436.5 782.5,-455.5 897.5,-455.5 897.5,-436.5 782.5,-436.5"/>
<text text-anchor="middle" x="840" y="-443.5" font-family="Helvetica,sans-Serif" font-size="10.00" fill="#000000">sbml/xml/XMLToken.h</text>
</a>
</g>
</g>
<!-- Node22&#45;&gt;Node23 -->
<g id="edge43" class="edge">
<title>Node22&#45;&gt;Node23</title>
<path fill="none" stroke="#191970" d="M885.4197,-492.2455C877.4542,-484.1352 865.9359,-472.4075 856.4921,-462.7919"/>
<polygon fill="#191970" stroke="#191970" points="858.9747,-460.3247 849.4705,-455.6427 853.9805,-465.2297 858.9747,-460.3247"/>
</g>
<!-- Node22&#45;&gt;Node24 -->
<g id="edge51" class="edge">
<title>Node22&#45;&gt;Node24</title>
<path fill="none" stroke="#191970" d="M951.0916,-497.441C1089.1264,-486.2219 1441.9895,-457.5422 1551.2488,-448.6619"/>
<polygon fill="#191970" stroke="#191970" points="1551.6528,-452.1407 1561.3364,-447.842 1551.0857,-445.1637 1551.6528,-452.1407"/>
</g>
<!-- Node23&#45;&gt;Node4 -->
<g id="edge47" class="edge">
<title>Node23&#45;&gt;Node4</title>
<path fill="none" stroke="#191970" d="M782.2194,-439.7015C731.6473,-433.1334 656.6741,-420.8204 594,-400 540.429,-382.2036 529.5711,-371.005 480,-344 446.3672,-325.6777 408.637,-302.5526 384.8549,-287.6468"/>
<polygon fill="#191970" stroke="#191970" points="386.4912,-284.5411 376.1637,-282.1758 382.7621,-290.4651 386.4912,-284.5411"/>
</g>
<!-- Node23&#45;&gt;Node8 -->
<g id="edge48" class="edge">
<title>Node23&#45;&gt;Node8</title>
<path fill="none" stroke="#191970" d="M896.8503,-436.4395C1001.343,-418.7848 1230.9301,-379.6133 1424,-344 1549.2426,-320.898 1698.0312,-291.338 1761.1948,-278.6904"/>
<polygon fill="#191970" stroke="#191970" points="1762.1591,-282.0668 1771.2762,-276.6697 1760.7834,-275.2033 1762.1591,-282.0668"/>
</g>
<!-- Node23&#45;&gt;Node13 -->
<g id="edge45" class="edge">
<title>Node23&#45;&gt;Node13</title>
<path fill="none" stroke="#191970" d="M844.3547,-436.2455C847.7244,-428.6973 852.493,-418.0158 856.5983,-408.8197"/>
<polygon fill="#191970" stroke="#191970" points="859.8147,-410.2009 860.6952,-399.6427 853.4227,-407.3473 859.8147,-410.2009"/>
</g>
<!-- Node23&#45;&gt;Node14 -->
<g id="edge44" class="edge">
<title>Node23&#45;&gt;Node14</title>
<path fill="none" stroke="#191970" d="M797.2667,-436.4047C751.8107,-423.7082 682.0063,-396.5157 649,-344 639.3176,-328.5945 639.7316,-307.4151 641.859,-292.1099"/>
<polygon fill="#191970" stroke="#191970" points="645.3223,-292.6225 643.5909,-282.1701 638.4262,-291.4208 645.3223,-292.6225"/>
</g>
<!-- Node23&#45;&gt;Node23 -->
<g id="edge46" class="edge">
<title>Node23&#45;&gt;Node23</title>
<path fill="none" stroke="#191970" d="M872.2009,-455.5252C894.0805,-458.3079 915.5,-455.1328 915.5,-446 915.5,-438.2942 900.2512,-434.8298 882.3433,-435.6068"/>
<polygon fill="#191970" stroke="#191970" points="881.866,-432.1347 872.2009,-436.4748 882.4629,-439.1092 881.866,-432.1347"/>
</g>
<!-- Node25&#45;&gt;Node2 -->
<g id="edge53" class="edge">
<title>Node25&#45;&gt;Node2</title>
<path fill="none" stroke="#191970" d="M1071.4781,-548.3288C1078.036,-534.7968 1091.2041,-509.8683 1107,-492 1133.6185,-461.8891 1141.0773,-451.8722 1178,-436 1280.3236,-392.0135 1339.6127,-470.3006 1426,-400 1450.2093,-380.2989 1450,-365.2125 1450,-334 1450,-334 1450,-334 1450,-205.5 1450,-156.2443 1479.6976,-144.5271 1524,-123 1580.3494,-95.619 1994.7924,-82.6852 2161.6711,-78.5453"/>
<polygon fill="#191970" stroke="#191970" points="2161.9106,-82.0406 2171.8219,-78.2968 2161.7392,-75.0427 2161.9106,-82.0406"/>
</g>
<!-- Node25&#45;&gt;Node4 -->
<g id="edge54" class="edge">
<title>Node25&#45;&gt;Node4</title>
<path fill="none" stroke="#191970" d="M1007.1023,-552.0362C877.3007,-538.3941 574.4015,-502.4731 483,-456 424.0404,-426.022 415.076,-402.9096 385,-344 376.4599,-327.2725 369.9553,-306.8433 365.8863,-292.1119"/>
<polygon fill="#191970" stroke="#191970" points="369.185,-290.8937 363.2561,-282.1131 362.4153,-292.6745 369.185,-290.8937"/>
</g>
<!-- Node25&#45;&gt;Node8 -->
<g id="edge58" class="edge">
<title>Node25&#45;&gt;Node8</title>
<path fill="none" stroke="#191970" d="M1075.4343,-548.3585C1096.7722,-524.6782 1155.723,-463.5864 1219,-436 1319.8874,-392.0169 1357.5935,-428.115 1464,-400 1577.9528,-369.8911 1706.4266,-312.7558 1762.8237,-286.4257"/>
<polygon fill="#191970" stroke="#191970" points="1764.621,-289.4485 1772.1839,-282.0287 1761.6447,-283.1127 1764.621,-289.4485"/>
</g>
<!-- Node25&#45;&gt;Node15 -->
<g id="edge55" class="edge">
<title>Node25&#45;&gt;Node15</title>
<path fill="none" stroke="#191970" d="M1066.6902,-548.1724C1065.4361,-508.3885 1060.7121,-358.534 1058.8054,-298.0497"/>
<polygon fill="#191970" stroke="#191970" points="1062.2971,-297.7273 1058.4837,-287.8426 1055.3006,-297.948 1062.2971,-297.7273"/>
</g>
<!-- Node25&#45;&gt;Node20 -->
<g id="edge56" class="edge">
<title>Node25&#45;&gt;Node20</title>
<path fill="none" stroke="#191970" d="M1102.7565,-548.3733C1137.9426,-538.9001 1191.7881,-524.4032 1229.8956,-514.1435"/>
<polygon fill="#191970" stroke="#191970" points="1230.9639,-517.4806 1239.7101,-511.5011 1229.144,-510.7213 1230.9639,-517.4806"/>
</g>
<!-- Node25&#45;&gt;Node22 -->
<g id="edge57" class="edge">
<title>Node25&#45;&gt;Node22</title>
<path fill="none" stroke="#191970" d="M1037.4321,-548.3733C1008.8312,-539.0613 965.3212,-524.8953 933.9181,-514.671"/>
<polygon fill="#191970" stroke="#191970" points="934.7743,-511.269 924.182,-511.5011 932.6072,-517.9251 934.7743,-511.269"/>
</g>
<!-- Node26&#45;&gt;Node2 -->
<g id="edge60" class="edge">
<title>Node26&#45;&gt;Node2</title>
<path fill="none" stroke="#191970" d="M1250.148,-548.4235C1270.9843,-540.2259 1300.4633,-527.3347 1324,-512 1366.7381,-484.1552 1367.2796,-463.8719 1410,-436 1441.977,-415.1374 1458.1725,-423.8348 1488,-400 1512.5144,-380.4108 1514.7692,-370.8561 1531,-344 1549.1029,-314.0463 1564,-307.4991 1564,-272.5 1564,-272.5 1564,-272.5 1564,-205.5 1564,-159.6333 1585.7726,-145.0342 1626,-123 1671.9847,-97.8123 2012.3774,-83.9795 2161.4295,-79.0745"/>
<polygon fill="#191970" stroke="#191970" points="2161.9428,-82.5598 2171.8239,-78.7367 2161.7154,-75.5635 2161.9428,-82.5598"/>
</g>
<!-- Node26&#45;&gt;Node4 -->
<g id="edge61" class="edge">
<title>Node26&#45;&gt;Node4</title>
<path fill="none" stroke="#191970" d="M1188.2756,-548.4197C1137.6644,-534.9955 1042.1023,-510.1944 960,-492 773.8575,-450.7497 718.3862,-469.8909 541,-400 493.9675,-381.469 483.1726,-373.3304 442,-344 418.3225,-327.1327 393.6261,-304.4825 377.8227,-289.2336"/>
<polygon fill="#191970" stroke="#191970" points="380.0208,-286.4881 370.4217,-282.0039 375.1294,-291.4954 380.0208,-286.4881"/>
</g>
<!-- Node26&#45;&gt;Node8 -->
<g id="edge65" class="edge">
<title>Node26&#45;&gt;Node8</title>
<path fill="none" stroke="#191970" d="M1264.4605,-548.4422C1291.7714,-540.9492 1327.9868,-528.9358 1357,-512 1401.0526,-486.2854 1397.2592,-458.5757 1443,-436 1517.7227,-399.1201 1551.1036,-434.3997 1627,-400 1688.5215,-372.1156 1748.0132,-317.1493 1775.7535,-289.3898"/>
<polygon fill="#191970" stroke="#191970" points="1778.4905,-291.5985 1783.0117,-282.0168 1773.5021,-286.6878 1778.4905,-291.5985"/>
</g>
<!-- Node26&#45;&gt;Node15 -->
<g id="edge62" class="edge">
<title>Node26&#45;&gt;Node15</title>
<path fill="none" stroke="#191970" d="M1218.2859,-548.1724C1194.9621,-508.0583 1106.5727,-356.0392 1071.9907,-296.5624"/>
<polygon fill="#191970" stroke="#191970" points="1074.973,-294.7283 1066.9207,-287.8426 1068.9215,-298.2468 1074.973,-294.7283"/>
</g>
<!-- Node26&#45;&gt;Node20 -->
<g id="edge63" class="edge">
<title>Node26&#45;&gt;Node20</title>
<path fill="none" stroke="#191970" d="M1232.8835,-548.2455C1240.1966,-540.2155 1250.7391,-528.6394 1259.4467,-519.0781"/>
<polygon fill="#191970" stroke="#191970" points="1262.0727,-521.3928 1266.2183,-511.6427 1256.8972,-516.6795 1262.0727,-521.3928"/>
</g>
<!-- Node26&#45;&gt;Node22 -->
<g id="edge64" class="edge">
<title>Node26&#45;&gt;Node22</title>
<path fill="none" stroke="#191970" d="M1167.8167,-548.4369C1110.5646,-538.6918 1021.8013,-523.5832 961.1787,-513.2645"/>
<polygon fill="#191970" stroke="#191970" points="961.3971,-509.7514 950.9516,-511.5237 960.2225,-516.6521 961.3971,-509.7514"/>
</g>
<!-- Node30&#45;&gt;Node2 -->
<g id="edge73" class="edge">
<title>Node30&#45;&gt;Node2</title>
<path fill="none" stroke="#191970" d="M1833.6158,-500.2255C2010.4325,-495.2578 2474.4766,-479.9853 2497,-456 2580.7343,-366.8309 2345.0142,-390.9791 2279,-288 2239.5106,-226.3984 2232.3253,-136.3928 2231.1471,-96.8638"/>
<polygon fill="#191970" stroke="#191970" points="2234.6435,-96.6389 2230.9485,-86.7093 2227.6448,-96.7758 2234.6435,-96.6389"/>
</g>
<!-- Node30&#45;&gt;Node4 -->
<g id="edge74" class="edge">
<title>Node30&#45;&gt;Node4</title>
<path fill="none" stroke="#191970" d="M1753.1551,-492.2632C1729.8093,-474.6602 1681.9936,-439.0704 1673,-436 1487.3574,-372.6217 985.1931,-427.7315 791,-400 688.5572,-385.3708 664.161,-373.5913 565,-344 504.6626,-325.9943 435.7881,-300.878 395.4844,-285.7058"/>
<polygon fill="#191970" stroke="#191970" points="396.4674,-282.3357 385.8758,-282.0731 393.9919,-288.8834 396.4674,-282.3357"/>
</g>
<!-- Node30&#45;&gt;Node8 -->
<g id="edge79" class="edge">
<title>Node30&#45;&gt;Node8</title>
<path fill="none" stroke="#191970" d="M1773.652,-492.4913C1787.2272,-475.1519 1815.5468,-436.7825 1831,-400 1840.8965,-376.4437 1841.0922,-369.3847 1844,-344 1845.0116,-335.1689 1847.4215,-332.204 1844,-324 1838.0761,-309.7957 1826.1169,-297.5036 1815.1597,-288.4942"/>
<polygon fill="#191970" stroke="#191970" points="1817.1472,-285.607 1807.0926,-282.2672 1812.87,-291.1482 1817.1472,-285.607"/>
</g>
<!-- Node30&#45;&gt;Node13 -->
<g id="edge76" class="edge">
<title>Node30&#45;&gt;Node13</title>
<path fill="none" stroke="#191970" d="M1760.5379,-492.1779C1751.4709,-476.9777 1731.7329,-448.2346 1706,-436 1637.9282,-403.6356 1133.9596,-393.5649 940.4058,-390.8711"/>
<polygon fill="#191970" stroke="#191970" points="940.3655,-387.3703 930.3186,-390.7335 940.2699,-394.3696 940.3655,-387.3703"/>
</g>
<!-- Node30&#45;&gt;Node15 -->
<g id="edge75" class="edge">
<title>Node30&#45;&gt;Node15</title>
<path fill="none" stroke="#191970" d="M1763.8838,-492.0909C1760.1724,-477.3084 1751.0057,-449.7511 1732,-436 1520.8985,-283.2633 1392.8528,-445.7986 1153,-344 1125.4816,-332.3206 1098.6957,-310.9738 1080.62,-294.6351"/>
<polygon fill="#191970" stroke="#191970" points="1082.6704,-291.7633 1072.9566,-287.5333 1077.9123,-296.8977 1082.6704,-291.7633"/>
</g>
<!-- Node30&#45;&gt;Node24 -->
<g id="edge81" class="edge">
<title>Node30&#45;&gt;Node24</title>
<path fill="none" stroke="#191970" d="M1734.6702,-492.4452C1706.2705,-483.7724 1663.0129,-470.5331 1616.3992,-456.1128"/>
<polygon fill="#191970" stroke="#191970" points="1617.3088,-452.7306 1606.721,-453.1167 1615.2386,-459.4175 1617.3088,-452.7306"/>
</g>
<!-- Node30&#45;&gt;Node27 -->
<g id="edge77" class="edge">
<title>Node30&#45;&gt;Node27</title>
<path fill="none" stroke="#191970" d="M1745.0275,-492.3733C1725.2059,-483.2748 1695.2888,-469.5424 1673.1503,-459.3805"/>
<polygon fill="#191970" stroke="#191970" points="1674.4394,-456.1211 1663.891,-455.1303 1671.5192,-462.4829 1674.4394,-456.1211"/>
</g>
<!-- Node30&#45;&gt;Node28 -->
<g id="edge78" class="edge">
<title>Node30&#45;&gt;Node28</title>
<path fill="none" stroke="#191970" d="M1782.3736,-492.2455C1796.9308,-483.5731 1818.431,-470.7645 1835.1152,-460.825"/>
<polygon fill="#191970" stroke="#191970" points="1837.0144,-463.7676 1843.8141,-455.6427 1833.4317,-457.7539 1837.0144,-463.7676"/>
</g>
<!-- Node30&#45;&gt;Node29 -->
<g id="edge80" class="edge">
<title>Node30&#45;&gt;Node29</title>
<path fill="none" stroke="#191970" d="M1794.1926,-492.3733C1821.8389,-482.933 1864.0952,-468.5041 1894.1227,-458.2508"/>
<polygon fill="#191970" stroke="#191970" points="1895.4658,-461.4906 1903.7983,-454.9469 1893.2038,-454.8662 1895.4658,-461.4906"/>
</g>
<!-- Node31&#45;&gt;Node8 -->
<g id="edge99" class="edge">
<title>Node31&#45;&gt;Node8</title>
<path fill="none" stroke="#191970" d="M2068.0036,-380.3586C2053.9955,-365.9257 2025.5014,-338.819 1996,-324 1938.6477,-295.1912 1863.9237,-281.6678 1822.6912,-276.0187"/>
<polygon fill="#191970" stroke="#191970" points="1823.0871,-272.5408 1812.7183,-274.7176 1822.1815,-279.482 1823.0871,-272.5408"/>
</g>
<!-- Node31&#45;&gt;Node17 -->
<g id="edge100" class="edge">
<title>Node31&#45;&gt;Node17</title>
<path fill="none" stroke="#191970" d="M2090.064,-380.2455C2101.3562,-371.814 2117.8845,-359.4729 2131.0271,-349.6598"/>
<polygon fill="#191970" stroke="#191970" points="2133.1669,-352.4301 2139.0857,-343.6427 2128.9789,-346.8211 2133.1669,-352.4301"/>
</g>
<!-- Node32 -->
<g id="node32" class="node">
<title>Node32</title>
<g id="a_node32"><a xlink:href="_x_m_l_namespaces_8h.html" target="_top" xlink:title="A list of XMLNamespace declarations (URI/prefix pairs) ">
<polygon fill="#ffffff" stroke="#000000" points="1162,-324.5 1162,-343.5 1308,-343.5 1308,-324.5 1162,-324.5"/>
<text text-anchor="middle" x="1235" y="-331.5" font-family="Helvetica,sans-Serif" font-size="10.00" fill="#000000">sbml/xml/XMLNamespaces.h</text>
</a>
</g>
</g>
<!-- Node31&#45;&gt;Node32 -->
<g id="edge84" class="edge">
<title>Node31&#45;&gt;Node32</title>
<path fill="none" stroke="#191970" d="M2009.8728,-385.5355C1857.4176,-375.3959 1485.3848,-350.6527 1318.4592,-339.5507"/>
<polygon fill="#191970" stroke="#191970" points="1318.4582,-336.043 1308.248,-338.8716 1317.9936,-343.0276 1318.4582,-336.043"/>
</g>
<!-- Node33 -->
<g id="node33" class="node">
<title>Node33</title>
<g id="a_node33"><a xlink:href="common_8h.html" target="_top" xlink:title="Common functions and macros for C and C++. ">
<polygon fill="#ffffff" stroke="#000000" points="2530,-324.5 2530,-343.5 2658,-343.5 2658,-324.5 2530,-324.5"/>
<text text-anchor="middle" x="2594" y="-331.5" font-family="Helvetica,sans-Serif" font-size="10.00" fill="#000000">sbml/common/common.h</text>
</a>
</g>
</g>
<!-- Node31&#45;&gt;Node33 -->
<g id="edge90" class="edge">
<title>Node31&#45;&gt;Node33</title>
<path fill="none" stroke="#191970" d="M2144.0227,-383.7491C2228.9805,-375.6702 2380.2093,-360.7732 2519.8856,-344.1026"/>
<polygon fill="#191970" stroke="#191970" points="2520.4091,-347.565 2529.9213,-342.8993 2519.5757,-340.6148 2520.4091,-347.565"/>
</g>
<!-- Node32&#45;&gt;Node4 -->
<g id="edge86" class="edge">
<title>Node32&#45;&gt;Node4</title>
<path fill="none" stroke="#191970" d="M1161.7042,-328.8837C1040.4674,-320.4158 790.5414,-302.9372 579,-288 531.0972,-284.6175 477.2756,-280.791 435.0961,-277.7863"/>
<polygon fill="#191970" stroke="#191970" points="435.1335,-274.2802 424.91,-277.0605 434.636,-281.2625 435.1335,-274.2802"/>
</g>
<!-- Node32&#45;&gt;Node8 -->
<g id="edge88" class="edge">
<title>Node32&#45;&gt;Node8</title>
<path fill="none" stroke="#191970" d="M1308.1042,-325.9284C1431.3692,-312.3183 1675.507,-285.3623 1761.3099,-275.8886"/>
<polygon fill="#191970" stroke="#191970" points="1761.873,-279.3478 1771.4285,-274.7714 1761.1047,-272.39 1761.873,-279.3478"/>
</g>
<!-- Node32&#45;&gt;Node14 -->
<g id="edge85" class="edge">
<title>Node32&#45;&gt;Node14</title>
<path fill="none" stroke="#191970" d="M1161.8902,-326.3663C1047.3161,-314.4031 827.0093,-291.4 715.0144,-279.7061"/>
<polygon fill="#191970" stroke="#191970" points="715.1581,-276.2021 704.8486,-278.6446 714.4311,-283.1643 715.1581,-276.2021"/>
</g>
<!-- Node32&#45;&gt;Node15 -->
<g id="edge87" class="edge">
<title>Node32&#45;&gt;Node15</title>
<path fill="none" stroke="#191970" d="M1207.3438,-324.3906C1181.6145,-315.4508 1142.5873,-301.8905 1110.8811,-290.8739"/>
<polygon fill="#191970" stroke="#191970" points="1111.8939,-287.5206 1101.2991,-287.5446 1109.5964,-294.1329 1111.8939,-287.5206"/>
</g>
<!-- Node32&#45;&gt;Node16 -->
<g id="edge89" class="edge">
<title>Node32&#45;&gt;Node16</title>
<path fill="none" stroke="#191970" d="M1256.7188,-324.3906C1279.874,-314.1457 1316.7441,-297.8326 1342.9591,-286.2339"/>
<polygon fill="#191970" stroke="#191970" points="1344.705,-289.2888 1352.4338,-282.0419 1341.8727,-282.8874 1344.705,-289.2888"/>
</g>
<!-- Node33&#45;&gt;Node2 -->
<g id="edge93" class="edge">
<title>Node33&#45;&gt;Node2</title>
<path fill="none" stroke="#191970" d="M2581.4672,-324.385C2571.2496,-315.8903 2557.2114,-302.6083 2549,-288 2526.9742,-248.8157 2553.1734,-224.1973 2524,-190 2467.5415,-123.8187 2367.6384,-96.2384 2300.3796,-84.8505"/>
<polygon fill="#191970" stroke="#191970" points="2300.7198,-81.3602 2290.2898,-83.2218 2299.6042,-88.2708 2300.7198,-81.3602"/>
</g>
<!-- Node33&#45;&gt;Node5 -->
<g id="edge91" class="edge">
<title>Node33&#45;&gt;Node5</title>
<path fill="none" stroke="#191970" d="M2529.9246,-325.0728C2526.909,-324.6998 2523.9224,-324.3401 2521,-324 2211.0014,-287.9254 2133.4234,-277.3953 1822,-257 1284.9723,-221.8297 635.218,-209.5893 427.9265,-206.4229"/>
<polygon fill="#191970" stroke="#191970" points="427.8608,-202.9216 417.8091,-206.2702 427.7551,-209.9208 427.8608,-202.9216"/>
</g>
<!-- Node34 -->
<g id="node34" class="node">
<title>Node34</title>
<polygon fill="#ffffff" stroke="#bfbfbf" points="2469,-196 2469,-215 2515,-215 2515,-196 2469,-196"/>
<text text-anchor="middle" x="2492" y="-203" font-family="Helvetica,sans-Serif" font-size="10.00" fill="#000000">stdio.h</text>
</g>
<!-- Node33&#45;&gt;Node34 -->
<g id="edge92" class="edge">
<title>Node33&#45;&gt;Node34</title>
<path fill="none" stroke="#191970" d="M2567.6725,-324.447C2550.6237,-316.9861 2529.2142,-305.0079 2516,-288 2501.7517,-269.6612 2495.9573,-243.1153 2493.604,-225.1272"/>
<polygon fill="#191970" stroke="#191970" points="2497.0841,-224.7532 2492.5386,-215.183 2490.1239,-225.4989 2497.0841,-224.7532"/>
</g>
<!-- Node35 -->
<g id="node35" class="node">
<title>Node35</title>
<g id="a_node35"><a xlink:href="memory_8h.html" target="_top" xlink:title="sbml/util/memory.h">
<polygon fill="#ffffff" stroke="#000000" points="2558,-263 2558,-282 2658,-282 2658,-263 2558,-263"/>
<text text-anchor="middle" x="2608" y="-270" font-family="Helvetica,sans-Serif" font-size="10.00" fill="#000000">sbml/util/memory.h</text>
</a>
</g>
</g>
<!-- Node33&#45;&gt;Node35 -->
<g id="edge94" class="edge">
<title>Node33&#45;&gt;Node35</title>
<path fill="none" stroke="#191970" d="M2596.1875,-324.3906C2598.1486,-315.776 2601.0863,-302.8708 2603.5415,-292.0858"/>
<polygon fill="#191970" stroke="#191970" points="2606.9746,-292.7723 2605.7817,-282.2449 2600.1493,-291.2185 2606.9746,-292.7723"/>
</g>
<!-- Node36 -->
<g id="node36" class="node">
<title>Node36</title>
<g id="a_node36"><a xlink:href="util_8h.html" target="_top" xlink:title="Utility functions. ">
<polygon fill="#ffffff" stroke="#000000" points="2386.5,-263 2386.5,-282 2463.5,-282 2463.5,-263 2386.5,-263"/>
<text text-anchor="middle" x="2425" y="-270" font-family="Helvetica,sans-Serif" font-size="10.00" fill="#000000">sbml/util/util.h</text>
</a>
</g>
</g>
<!-- Node33&#45;&gt;Node36 -->
<g id="edge95" class="edge">
<title>Node33&#45;&gt;Node36</title>
<path fill="none" stroke="#191970" d="M2567.5938,-324.3906C2538.8209,-313.92 2492.6304,-297.1111 2460.6534,-285.4745"/>
<polygon fill="#191970" stroke="#191970" points="2461.8149,-282.1726 2451.2208,-282.0419 2459.421,-288.7506 2461.8149,-282.1726"/>
</g>
<!-- Node36&#45;&gt;Node2 -->
<g id="edge98" class="edge">
<title>Node36&#45;&gt;Node2</title>
<path fill="none" stroke="#191970" d="M2417.5304,-262.9858C2409.8202,-252.9114 2397.7202,-236.3711 2389,-221 2365.4411,-179.4731 2379.4034,-156.1045 2345,-123 2328.6039,-107.223 2306.0921,-96.6087 2285.4023,-89.5934"/>
<polygon fill="#191970" stroke="#191970" points="2286.3312,-86.2163 2275.7409,-86.525 2284.2123,-92.8879 2286.3312,-86.2163"/>
</g>
<!-- Node36&#45;&gt;Node34 -->
<g id="edge96" class="edge">
<title>Node36&#45;&gt;Node34</title>
<path fill="none" stroke="#191970" d="M2434.5995,-262.9005C2445.147,-252.353 2462.2904,-235.2096 2475.1002,-222.3998"/>
<polygon fill="#191970" stroke="#191970" points="2477.8221,-224.6276 2482.4183,-215.0817 2472.8724,-219.6779 2477.8221,-224.6276"/>
</g>
<!-- Node37 -->
<g id="node37" class="node">
<title>Node37</title>
<polygon fill="#ffffff" stroke="#bfbfbf" points="2397.5,-196 2397.5,-215 2450.5,-215 2450.5,-196 2397.5,-196"/>
<text text-anchor="middle" x="2424" y="-203" font-family="Helvetica,sans-Serif" font-size="10.00" fill="#000000">stdarg.h</text>
</g>
<!-- Node36&#45;&gt;Node37 -->
<g id="edge97" class="edge">
<title>Node36&#45;&gt;Node37</title>
<path fill="none" stroke="#191970" d="M2424.8567,-262.9005C2424.7112,-253.149 2424.4815,-237.7597 2424.2966,-225.3695"/>
<polygon fill="#191970" stroke="#191970" points="2427.792,-225.0283 2424.143,-215.0817 2420.7927,-225.1328 2427.792,-225.0283"/>
</g>
<!-- Node38&#45;&gt;Node2 -->
<g id="edge102" class="edge">
<title>Node38&#45;&gt;Node2</title>
<path fill="none" stroke="#191970" d="M2429.7267,-324.3501C2413.4162,-316.5848 2392.0958,-304.2841 2378,-288 2325.7501,-227.6387 2359.4273,-183.2073 2307,-123 2295.2852,-109.5467 2278.6419,-98.86 2263.9151,-91.1861"/>
<polygon fill="#191970" stroke="#191970" points="2265.1014,-87.8685 2254.5853,-86.5796 2262.0023,-94.1452 2265.1014,-87.8685"/>
</g>
<!-- Node38&#45;&gt;Node8 -->
<g id="edge105" class="edge">
<title>Node38&#45;&gt;Node8</title>
<path fill="none" stroke="#191970" d="M2394.3407,-328.5423C2258.3916,-315.8935 1925.5464,-284.9253 1822.7508,-275.3611"/>
<polygon fill="#191970" stroke="#191970" points="1823.0017,-271.8694 1812.7204,-274.4278 1822.3531,-278.8393 1823.0017,-271.8694"/>
</g>
<!-- Node38&#45;&gt;Node9 -->
<g id="edge103" class="edge">
<title>Node38&#45;&gt;Node9</title>
<path fill="none" stroke="#191970" d="M2511.6061,-342.6999C2552.8625,-350.5552 2602.6699,-363.4176 2615,-380 2711.537,-509.8299 2662.9471,-632.0177 2539,-736 2503.9379,-765.4145 2194.2423,-777.3195 2071.5811,-780.8126"/>
<polygon fill="#191970" stroke="#191970" points="2071.243,-777.3206 2061.344,-781.0969 2071.4373,-784.3179 2071.243,-777.3206"/>
</g>
<!-- Node38&#45;&gt;Node36 -->
<g id="edge104" class="edge">
<title>Node38&#45;&gt;Node36</title>
<path fill="none" stroke="#191970" d="M2448.625,-324.3906C2444.6212,-315.5965 2438.5817,-302.3312 2433.6115,-291.4145"/>
<polygon fill="#191970" stroke="#191970" points="2436.7657,-289.8957 2429.4367,-282.2449 2430.3949,-292.7963 2436.7657,-289.8957"/>
</g>
<!-- Node39&#45;&gt;Node2 -->
<g id="edge107" class="edge">
<title>Node39&#45;&gt;Node2</title>
<path fill="none" stroke="#191970" d="M2474.3729,-436.4962C2534.2863,-424.8423 2617.3553,-399.3012 2667,-344 2688.9651,-319.5322 2686,-305.3806 2686,-272.5 2686,-272.5 2686,-272.5 2686,-205.5 2686,-126.2807 2427.3287,-93.47 2300.0598,-82.121"/>
<polygon fill="#191970" stroke="#191970" points="2300.283,-78.6273 2290.0168,-81.2457 2299.6752,-85.6008 2300.283,-78.6273"/>
</g>
<!-- Node39&#45;&gt;Node8 -->
<g id="edge109" class="edge">
<title>Node39&#45;&gt;Node8</title>
<path fill="none" stroke="#191970" d="M2399.7696,-436.4357C2395.9368,-422.1036 2386.7427,-395.1267 2369,-380 2353.2223,-366.5486 2211.3181,-328.1295 2191,-324 2027.7887,-290.8288 1976.2549,-339.9004 1818,-288 1816.9264,-287.6479 1815.8498,-287.2456 1814.7781,-286.8041"/>
<polygon fill="#191970" stroke="#191970" points="1815.9859,-283.4911 1805.4876,-282.0644 1812.8048,-289.7266 1815.9859,-283.4911"/>
</g>
<!-- Node39&#45;&gt;Node17 -->
<g id="edge110" class="edge">
<title>Node39&#45;&gt;Node17</title>
<path fill="none" stroke="#191970" d="M2396.0787,-436.2419C2386.7004,-421.6567 2367.0085,-394.3535 2343,-380 2317.7718,-364.9173 2239.9384,-349.293 2191.7686,-340.693"/>
<polygon fill="#191970" stroke="#191970" points="2192.1323,-337.2033 2181.6768,-338.9164 2190.9185,-344.0973 2192.1323,-337.2033"/>
</g>
<!-- Node39&#45;&gt;Node31 -->
<g id="edge108" class="edge">
<title>Node39&#45;&gt;Node31</title>
<path fill="none" stroke="#191970" d="M2346.4998,-436.4369C2289.9437,-426.6918 2202.2596,-411.5832 2142.3741,-401.2645"/>
<polygon fill="#191970" stroke="#191970" points="2142.7204,-397.7726 2132.2713,-399.5237 2141.5317,-404.671 2142.7204,-397.7726"/>
</g>
<!-- Node39&#45;&gt;Node40 -->
<g id="edge111" class="edge">
<title>Node39&#45;&gt;Node40</title>
<path fill="none" stroke="#191970" d="M2385.1039,-436.2455C2370.082,-427.5731 2347.8957,-414.7645 2330.679,-404.825"/>
<polygon fill="#191970" stroke="#191970" points="2332.1128,-401.6114 2321.7025,-399.6427 2328.6129,-407.6737 2332.1128,-401.6114"/>
</g>
<!-- Node41&#45;&gt;Node2 -->
<g id="edge113" class="edge">
<title>Node41&#45;&gt;Node2</title>
<path fill="none" stroke="#191970" d="M2133.6265,-436.2771C2160.3766,-419.2388 2210,-381.2624 2210,-334 2210,-334 2210,-334 2210,-205.5 2210,-166.3148 2219.6289,-121.2778 2225.8464,-96.281"/>
<polygon fill="#191970" stroke="#191970" points="2229.2391,-97.1409 2228.3403,-86.5843 2222.4597,-95.3973 2229.2391,-97.1409"/>
</g>
<!-- Node41&#45;&gt;Node8 -->
<g id="edge114" class="edge">
<title>Node41&#45;&gt;Node8</title>
<path fill="none" stroke="#191970" d="M2074.1228,-436.4989C2050.4553,-429.5366 2021.7445,-418.0744 2001,-400 1971.7391,-374.5055 1988.8061,-347.6042 1958,-324 1907.0026,-284.9248 1877.3082,-312.7011 1818,-288 1817.151,-287.6464 1816.2966,-287.2687 1815.4415,-286.8719"/>
<polygon fill="#191970" stroke="#191970" points="1816.9411,-283.7055 1806.4666,-282.1131 1813.6619,-289.8899 1816.9411,-283.7055"/>
</g>
<!-- Node41&#45;&gt;Node16 -->
<g id="edge115" class="edge">
<title>Node41&#45;&gt;Node16</title>
<path fill="none" stroke="#191970" d="M2076.2605,-436.4868C1943.5281,-405.4921 1525.2348,-307.8153 1406.0062,-279.9739"/>
<polygon fill="#191970" stroke="#191970" points="1406.5781,-276.5133 1396.0442,-277.6476 1404.9863,-283.3299 1406.5781,-276.5133"/>
</g>
<!-- Node41&#45;&gt;Node17 -->
<g id="edge116" class="edge">
<title>Node41&#45;&gt;Node17</title>
<path fill="none" stroke="#191970" d="M2127.8548,-436.2679C2136.5343,-427.7019 2148.0417,-414.3808 2153,-400 2158.1361,-385.1036 2157.4664,-367.169 2155.7459,-353.7574"/>
<polygon fill="#191970" stroke="#191970" points="2159.1779,-353.0516 2154.158,-343.7215 2152.2639,-354.1456 2159.1779,-353.0516"/>
</g>
<!-- Node41&#45;&gt;Node40 -->
<g id="edge117" class="edge">
<title>Node41&#45;&gt;Node40</title>
<path fill="none" stroke="#191970" d="M2149.3184,-436.3733C2181.7105,-426.7245 2231.5986,-411.8642 2266.1324,-401.5776"/>
<polygon fill="#191970" stroke="#191970" points="2267.2941,-404.8836 2275.8787,-398.6744 2265.2957,-398.1749 2267.2941,-404.8836"/>
</g>
<!-- Node42&#45;&gt;Node4 -->
<g id="edge122" class="edge">
<title>Node42&#45;&gt;Node4</title>
<path fill="none" stroke="#191970" d="M805.8612,-325.2505C802.8654,-324.817 799.8968,-324.3973 797,-324 669.8837,-306.5678 521.4212,-289.7933 434.6481,-280.3489"/>
<polygon fill="#191970" stroke="#191970" points="434.9557,-276.8618 424.6363,-279.2619 434.2001,-283.8209 434.9557,-276.8618"/>
</g>
<!-- Node42&#45;&gt;Node8 -->
<g id="edge125" class="edge">
<title>Node42&#45;&gt;Node8</title>
<path fill="none" stroke="#191970" d="M916.1059,-330.3598C1090.4824,-318.8409 1626.6393,-283.4234 1761.1456,-274.5382"/>
<polygon fill="#191970" stroke="#191970" points="1761.427,-278.0273 1771.1745,-273.8757 1760.9655,-271.0425 1761.427,-278.0273"/>
</g>
<!-- Node42&#45;&gt;Node14 -->
<g id="edge121" class="edge">
<title>Node42&#45;&gt;Node14</title>
<path fill="none" stroke="#191970" d="M827.4063,-324.3906C790.0917,-313.7169 729.7508,-296.4566 689.0114,-284.8033"/>
<polygon fill="#191970" stroke="#191970" points="689.9348,-281.4271 679.3579,-282.0419 688.0097,-288.1572 689.9348,-281.4271"/>
</g>
<!-- Node42&#45;&gt;Node15 -->
<g id="edge126" class="edge">
<title>Node42&#45;&gt;Node15</title>
<path fill="none" stroke="#191970" d="M891.7813,-324.3906C920.6646,-315.3737 964.6049,-301.6563 1000.0545,-290.5896"/>
<polygon fill="#191970" stroke="#191970" points="1001.3057,-293.8656 1009.8084,-287.5446 999.2197,-287.1837 1001.3057,-293.8656"/>
</g>
<!-- Node42&#45;&gt;Node34 -->
<g id="edge120" class="edge">
<title>Node42&#45;&gt;Node34</title>
<path fill="none" stroke="#191970" d="M870.7023,-324.3146C888.8816,-306.915 930.124,-270.888 973,-257 1130.2283,-206.0721 2299.374,-259.9059 2460,-221 2461.9798,-220.5205 2463.981,-219.907 2465.965,-219.2021"/>
<polygon fill="#191970" stroke="#191970" points="2467.737,-222.2516 2475.5653,-215.1124 2464.9935,-215.8116 2467.737,-222.2516"/>
</g>
<!-- Node42&#45;&gt;Node36 -->
<g id="edge123" class="edge">
<title>Node42&#45;&gt;Node36</title>
<path fill="none" stroke="#191970" d="M916.2042,-331.8292C1160.8683,-322.2085 2145.4831,-283.4912 2376.374,-274.4121"/>
<polygon fill="#191970" stroke="#191970" points="2376.6257,-277.905 2386.4804,-274.0147 2376.3506,-270.9104 2376.6257,-277.905"/>
</g>
<!-- Node43 -->
<g id="node43" class="node">
<title>Node43</title>
<polygon fill="#ffffff" stroke="#bfbfbf" points="838.5,-263 838.5,-282 883.5,-282 883.5,-263 838.5,-263"/>
<text text-anchor="middle" x="861" y="-270" font-family="Helvetica,sans-Serif" font-size="10.00" fill="#000000">iosfwd</text>
</g>
<!-- Node42&#45;&gt;Node43 -->
<g id="edge124" class="edge">
<title>Node42&#45;&gt;Node43</title>
<path fill="none" stroke="#191970" d="M861,-324.3906C861,-315.8657 861,-303.1392 861,-292.4235"/>
<polygon fill="#191970" stroke="#191970" points="864.5001,-292.2448 861,-282.2449 857.5001,-292.2449 864.5001,-292.2448"/>
</g>
<!-- Node44&#45;&gt;Node2 -->
<g id="edge131" class="edge">
<title>Node44&#45;&gt;Node2</title>
<path fill="none" stroke="#191970" d="M304.2893,-833.0298C251.0293,-825.4874 157.0205,-810.098 128,-792 96.3129,-772.2391 76,-763.3439 76,-726 76,-726 76,-726 76,-670 76,-565.814 44.2183,-538.6573 62,-436 89.7351,-275.8792 108.0922,-200.3645 251,-123 293.8796,-99.7867 1816.1035,-81.5869 2161.6959,-77.7485"/>
<polygon fill="#191970" stroke="#191970" points="2161.8545,-81.247 2171.8151,-77.6365 2161.777,-74.2475 2161.8545,-81.247"/>
</g>
<!-- Node44&#45;&gt;Node4 -->
<g id="edge132" class="edge">
<title>Node44&#45;&gt;Node4</title>
<path fill="none" stroke="#191970" d="M304.494,-831.8145C258.0766,-823.6117 182.3043,-808.2643 159,-792 129.8864,-771.6814 114,-761.5027 114,-726 114,-726 114,-726 114,-502 114,-387.9064 257.1869,-314.5086 325.5206,-285.9769"/>
<polygon fill="#191970" stroke="#191970" points="327.0981,-289.1134 335.0335,-282.0934 324.4524,-282.6326 327.0981,-289.1134"/>
</g>
<!-- Node44&#45;&gt;Node9 -->
<g id="edge137" class="edge">
<title>Node44&#45;&gt;Node9</title>
<path fill="none" stroke="#191970" d="M379.8442,-836.7385C600.726,-829.3758 1722.1552,-791.9948 1972.4278,-783.6524"/>
<polygon fill="#191970" stroke="#191970" points="1972.79,-787.1424 1982.6678,-783.3111 1972.5567,-780.1463 1972.79,-787.1424"/>
</g>
<!-- Node44&#45;&gt;Node10 -->
<g id="edge133" class="edge">
<title>Node44&#45;&gt;Node10</title>
<path fill="none" stroke="#191970" d="M337.5829,-828.4862C325.1462,-801.6994 289.6548,-725.2565 272.9277,-689.2289"/>
<polygon fill="#191970" stroke="#191970" points="275.9486,-687.4241 268.5629,-679.8279 269.5996,-690.3719 275.9486,-687.4241"/>
</g>
<!-- Node44&#45;&gt;Node16 -->
<g id="edge134" class="edge">
<title>Node44&#45;&gt;Node16</title>
<path fill="none" stroke="#191970" d="M365.2781,-828.4438C444.9575,-795.4775 713.5128,-682.2505 925,-568 1022.6548,-515.2445 1035.1502,-480.1161 1137,-436 1193.981,-411.3188 1214.9544,-424.5317 1272,-400 1315.6262,-381.2392 1336.7411,-383.5687 1363,-344 1373.0718,-328.8231 1375.2622,-307.8942 1375.2686,-292.6018"/>
<polygon fill="#191970" stroke="#191970" points="1378.7541,-292.0803 1374.9423,-282.1949 1371.7575,-292.2998 1378.7541,-292.0803"/>
</g>
<!-- Node44&#45;&gt;Node40 -->
<g id="edge135" class="edge">
<title>Node44&#45;&gt;Node40</title>
<path fill="none" stroke="#191970" d="M379.5108,-837.761C662.7039,-835.7733 2455.7023,-819.8911 2530,-736 2535.8934,-729.3457 2533.0853,-724.3363 2530,-716 2477.1593,-573.2276 2361.9971,-597.9557 2307,-456 2301.3057,-441.3021 2301.1513,-423.3528 2302.2285,-409.885"/>
<polygon fill="#191970" stroke="#191970" points="2305.724,-410.1164 2303.3285,-399.7959 2298.7652,-409.3576 2305.724,-410.1164"/>
</g>
<!-- Node45 -->
<g id="node45" class="node">
<title>Node45</title>
<polygon fill="#ffffff" stroke="#bfbfbf" points="167.5,-772.5 167.5,-791.5 226.5,-791.5 226.5,-772.5 167.5,-772.5"/>
<text text-anchor="middle" x="197" y="-779.5" font-family="Helvetica,sans-Serif" font-size="10.00" fill="#000000">functional</text>
</g>
<!-- Node44&#45;&gt;Node45 -->
<g id="edge136" class="edge">
<title>Node44&#45;&gt;Node45</title>
<path fill="none" stroke="#191970" d="M317.0736,-828.3733C293.3798,-819.2226 257.5489,-805.3844 231.1932,-795.2057"/>
<polygon fill="#191970" stroke="#191970" points="232.1906,-791.8389 221.6011,-791.5011 229.6686,-798.3689 232.1906,-791.8389"/>
</g>
<!-- Node46&#45;&gt;Node2 -->
<g id="edge141" class="edge">
<title>Node46&#45;&gt;Node2</title>
<path fill="none" stroke="#191970" d="M1618.6073,-893.6283C1795.2486,-891.5426 2612.2397,-880.2114 2720,-848 2774.6255,-831.6715 2830,-839.0138 2830,-782 2830,-782 2830,-782 2830,-205.5 2830,-157.9834 2804.0604,-145.1077 2762,-123 2722.0861,-102.0206 2435.1066,-86.3207 2300.4398,-80.0233"/>
<polygon fill="#191970" stroke="#191970" points="2300.3832,-76.517 2290.2319,-79.5503 2300.0592,-83.5095 2300.3832,-76.517"/>
</g>
<!-- Node46&#45;&gt;Node4 -->
<g id="edge142" class="edge">
<title>Node46&#45;&gt;Node4</title>
<path fill="none" stroke="#191970" d="M1551.4817,-893.7079C1374.6876,-892.0298 549.0832,-882.4487 296,-848 178.7223,-832.0366 38,-900.3592 38,-782 38,-782 38,-782 38,-670 38,-593.4471 76,-578.5529 76,-502 76,-502 76,-502 76,-446 76,-346.2604 204.9269,-302.2011 289.3512,-284.042"/>
<polygon fill="#191970" stroke="#191970" points="290.0799,-287.4654 299.1592,-282.005 288.6564,-280.6117 290.0799,-287.4654"/>
</g>
<!-- Node46&#45;&gt;Node8 -->
<g id="edge145" class="edge">
<title>Node46&#45;&gt;Node8</title>
<path fill="none" stroke="#191970" d="M1576.875,-884.2177C1562.25,-865.5805 1533,-823.1609 1533,-782 1533,-782 1533,-782 1533,-502 1533,-471.3494 1530.1892,-456.4725 1553,-436 1617.2885,-378.3015 1666.6129,-438.3843 1744,-400 1777.2646,-383.5006 1790.9236,-377.9333 1806,-344 1813.5111,-327.0944 1807.871,-306.1693 1801.6545,-291.3347"/>
<polygon fill="#191970" stroke="#191970" points="1804.787,-289.7697 1797.4133,-282.1619 1798.4333,-292.7075 1804.787,-289.7697"/>
</g>
<!-- Node46&#45;&gt;Node9 -->
<g id="edge147" class="edge">
<title>Node46&#45;&gt;Node9</title>
<path fill="none" stroke="#191970" d="M1592.0315,-884.3844C1603.5394,-869.4672 1627.9433,-841.1049 1656,-828 1711.1999,-802.2168 1886.5203,-789.3494 1972.9165,-784.4413"/>
<polygon fill="#191970" stroke="#191970" points="1973.2071,-787.9307 1982.9978,-783.8819 1972.8192,-780.9414 1973.2071,-787.9307"/>
</g>
<!-- Node46&#45;&gt;Node15 -->
<g id="edge149" class="edge">
<title>Node46&#45;&gt;Node15</title>
<path fill="none" stroke="#191970" d="M1551.3325,-892.5796C1359.9907,-884.2914 418,-840.5163 418,-782 418,-782 418,-782 418,-446 418,-331.0759 817.9238,-385.7403 925,-344 940.9789,-337.7711 943.0342,-332.3755 958,-324 977.6804,-312.9859 999.9555,-301.4283 1018.4791,-292.0591"/>
<polygon fill="#191970" stroke="#191970" points="1020.157,-295.133 1027.5159,-287.5109 1017.01,-288.8803 1020.157,-295.133"/>
</g>
<!-- Node46&#45;&gt;Node33 -->
<g id="edge140" class="edge">
<title>Node46&#45;&gt;Node33</title>
<path fill="none" stroke="#191970" d="M1618.5519,-892.5103C1803.0704,-883.8843 2686,-836.8185 2686,-726 2686,-726 2686,-726 2686,-446 2686,-403.5397 2646.0299,-368.3942 2618.781,-349.3678"/>
<polygon fill="#191970" stroke="#191970" points="2620.7,-346.4405 2610.4478,-343.768 2616.7957,-352.2506 2620.7,-346.4405"/>
</g>
<!-- Node46&#45;&gt;Node44 -->
<g id="edge148" class="edge">
<title>Node46&#45;&gt;Node44</title>
<path fill="none" stroke="#191970" d="M1551.3359,-893.24C1383.4389,-889.3654 635.4856,-871.0908 404,-848 399.2976,-847.5309 394.4102,-846.934 389.5352,-846.266"/>
<polygon fill="#191970" stroke="#191970" points="390.0111,-842.7985 379.6096,-844.8132 388.9972,-849.7247 390.0111,-842.7985"/>
</g>
<!-- Node47 -->
<g id="node47" class="node">
<title>Node47</title>
<polygon fill="#ffffff" stroke="#bfbfbf" points="1561.5,-828.5 1561.5,-847.5 1608.5,-847.5 1608.5,-828.5 1561.5,-828.5"/>
<text text-anchor="middle" x="1585" y="-835.5" font-family="Helvetica,sans-Serif" font-size="10.00" fill="#000000">math.h</text>
</g>
<!-- Node46&#45;&gt;Node47 -->
<g id="edge139" class="edge">
<title>Node46&#45;&gt;Node47</title>
<path fill="none" stroke="#191970" d="M1585,-884.2455C1585,-876.9382 1585,-866.6944 1585,-857.7046"/>
<polygon fill="#191970" stroke="#191970" points="1588.5001,-857.6426 1585,-847.6427 1581.5001,-857.6427 1588.5001,-857.6426"/>
</g>
<!-- Node48 -->
<g id="node48" class="node">
<title>Node48</title>
<g id="a_node48"><a xlink:href="_unit_kind_8h.html" target="_top" xlink:title="Definition of SBML&#39;s UnitKind enumeration. ">
<polygon fill="#ffffff" stroke="#000000" points="2714.5,-716.5 2714.5,-735.5 2801.5,-735.5 2801.5,-716.5 2714.5,-716.5"/>
<text text-anchor="middle" x="2758" y="-723.5" font-family="Helvetica,sans-Serif" font-size="10.00" fill="#000000">sbml/UnitKind.h</text>
</a>
</g>
</g>
<!-- Node46&#45;&gt;Node48 -->
<g id="edge143" class="edge">
<title>Node46&#45;&gt;Node48</title>
<path fill="none" stroke="#191970" d="M1618.5063,-893.5614C1799.046,-891.0796 2649.5573,-877.8337 2696,-848 2732.0002,-824.8743 2748.0326,-773.9083 2754.375,-745.7177"/>
<polygon fill="#191970" stroke="#191970" points="2757.8255,-746.3139 2756.4125,-735.8137 2750.9691,-744.9032 2757.8255,-746.3139"/>
</g>
<!-- Node49 -->
<g id="node49" class="node">
<title>Node49</title>
<polygon fill="#ffffff" stroke="#bfbfbf" points="1665,-828.5 1665,-847.5 1711,-847.5 1711,-828.5 1665,-828.5"/>
<text text-anchor="middle" x="1688" y="-835.5" font-family="Helvetica,sans-Serif" font-size="10.00" fill="#000000">cstring</text>
</g>
<!-- Node46&#45;&gt;Node49 -->
<g id="edge146" class="edge">
<title>Node46&#45;&gt;Node49</title>
<path fill="none" stroke="#191970" d="M1602.9412,-884.2455C1619.04,-875.4928 1642.8879,-862.527 1661.2391,-852.5496"/>
<polygon fill="#191970" stroke="#191970" points="1663.1507,-855.4942 1670.2644,-847.6427 1659.8071,-849.3444 1663.1507,-855.4942"/>
</g>
<!-- Node48&#45;&gt;Node2 -->
<g id="edge144" class="edge">
<title>Node48&#45;&gt;Node2</title>
<path fill="none" stroke="#191970" d="M2758.5731,-716.4157C2759.6791,-697.0653 2762,-651.9408 2762,-614 2762,-614 2762,-614 2762,-205.5 2762,-167.3133 2767.4734,-147.2805 2738,-123 2704.9575,-95.7793 2431.5126,-83.4128 2300.4884,-79.0083"/>
<polygon fill="#191970" stroke="#191970" points="2300.2745,-75.4994 2290.1645,-78.6678 2300.0437,-82.4956 2300.2745,-75.4994"/>
</g>
</g>
</svg>
