<?xml version="1.0" encoding="UTF-8" standalone="no"?>
<!DOCTYPE svg PUBLIC "-//W3C//DTD SVG 1.1//EN"
 "http://www.w3.org/Graphics/SVG/1.1/DTD/svg11.dtd">
<!-- Generated by graphviz version 2.40.1 (20161225.0304)
 -->
<!-- Title: UnitConsistencyValidator.h Pages: 1 -->
<svg width="544pt" height="196pt"
 viewBox="0.00 0.00 543.50 196.00" xmlns="http://www.w3.org/2000/svg" xmlns:xlink="http://www.w3.org/1999/xlink">
<g id="graph0" class="graph" transform="scale(1 1) rotate(0) translate(4 192)">
<title>UnitConsistencyValidator.h</title>
<polygon fill="#ffffff" stroke="transparent" points="-4,4 -4,-192 539.5,-192 539.5,4 -4,4"/>
<!-- Node1 -->
<g id="node1" class="node">
<title>Node1</title>
<polygon fill="#bfbfbf" stroke="#000000" points="297.5,-168.5 297.5,-187.5 404.5,-187.5 404.5,-168.5 297.5,-168.5"/>
<text text-anchor="middle" x="351" y="-175.5" font-family="Helvetica,sans-Serif" font-size="10.00" fill="#000000">UnitConsistencyValidator.h</text>
</g>
<!-- Node2 -->
<g id="node2" class="node">
<title>Node2</title>
<g id="a_node2"><a xlink:href="_s_b_m_l_level_version_converter_8h.html" target="_top" xlink:title="Definition of SBMLLevelVersionConverter, the base class for SBML conversion. ">
<polygon fill="#ffffff" stroke="#000000" points="110.5,-112.5 110.5,-131.5 229.5,-131.5 229.5,-112.5 110.5,-112.5"/>
<text text-anchor="middle" x="170" y="-119.5" font-family="Helvetica,sans-Serif" font-size="10.00" fill="#000000">SBMLLevelVersionConverter.h</text>
</a>
</g>
</g>
<!-- Node1&#45;&gt;Node2 -->
<g id="edge1" class="edge">
<title>Node1&#45;&gt;Node2</title>
<path fill="none" stroke="#191970" d="M310.0278,-165.3235C276.8339,-155.0536 230.7942,-140.8093 200.709,-131.5011"/>
<polygon fill="#191970" stroke="#191970" points="309.2973,-168.7611 319.885,-168.3733 311.3663,-162.0739 309.2973,-168.7611"/>
</g>
<!-- Node7 -->
<g id="node7" class="node">
<title>Node7</title>
<g id="a_node7"><a xlink:href="_s_b_m_l_internal_validator_8cpp.html" target="_top" xlink:title="Implementation of SBMLInternalValidator, the validator for all internal validation performed by libSB...">
<polygon fill="#ffffff" stroke="#000000" points="248,-112.5 248,-131.5 354,-131.5 354,-112.5 248,-112.5"/>
<text text-anchor="middle" x="301" y="-119.5" font-family="Helvetica,sans-Serif" font-size="10.00" fill="#000000">SBMLInternalValidator.cpp</text>
</a>
</g>
</g>
<!-- Node1&#45;&gt;Node7 -->
<g id="edge6" class="edge">
<title>Node1&#45;&gt;Node7</title>
<path fill="none" stroke="#191970" d="M335.3753,-160.5004C326.8727,-150.9775 316.6782,-139.5596 309.6095,-131.6427"/>
<polygon fill="#191970" stroke="#191970" points="333.0197,-163.1172 342.2907,-168.2455 338.2413,-158.4551 333.0197,-163.1172"/>
</g>
<!-- Node8 -->
<g id="node8" class="node">
<title>Node8</title>
<g id="a_node8"><a xlink:href="_validator_8cpp.html" target="_top" xlink:title="Base class for SBML Validators. ">
<polygon fill="#ffffff" stroke="#000000" points="372,-112.5 372,-131.5 432,-131.5 432,-112.5 372,-112.5"/>
<text text-anchor="middle" x="402" y="-119.5" font-family="Helvetica,sans-Serif" font-size="10.00" fill="#000000">Validator.cpp</text>
</a>
</g>
</g>
<!-- Node1&#45;&gt;Node8 -->
<g id="edge7" class="edge">
<title>Node1&#45;&gt;Node8</title>
<path fill="none" stroke="#191970" d="M366.6749,-160.7884C375.3994,-151.2085 385.9354,-139.6396 393.2183,-131.6427"/>
<polygon fill="#191970" stroke="#191970" points="364.0291,-158.4954 359.8835,-168.2455 369.2046,-163.2088 364.0291,-158.4954"/>
</g>
<!-- Node9 -->
<g id="node9" class="node">
<title>Node9</title>
<g id="a_node9"><a xlink:href="_s_b_m_l_document_8cpp.html" target="_top" xlink:title="Implementation of the top&#45;level container for an SBML Model and associated data. ">
<polygon fill="#ffffff" stroke="#000000" points="450.5,-112.5 450.5,-131.5 535.5,-131.5 535.5,-112.5 450.5,-112.5"/>
<text text-anchor="middle" x="493" y="-119.5" font-family="Helvetica,sans-Serif" font-size="10.00" fill="#000000">SBMLDocument.cpp</text>
</a>
</g>
</g>
<!-- Node1&#45;&gt;Node9 -->
<g id="edge8" class="edge">
<title>Node1&#45;&gt;Node9</title>
<path fill="none" stroke="#191970" d="M384.8415,-164.6541C410.7366,-154.4419 445.8138,-140.6086 468.9079,-131.5011"/>
<polygon fill="#191970" stroke="#191970" points="383.4293,-161.4486 375.4107,-168.3733 385.9975,-167.9605 383.4293,-161.4486"/>
</g>
<!-- Node3 -->
<g id="node3" class="node">
<title>Node3</title>
<g id="a_node3"><a xlink:href="_register_converters_8cpp.html" target="_top" xlink:title="Registers all available converters. ">
<polygon fill="#ffffff" stroke="#000000" points="8.5,-56.5 8.5,-75.5 103.5,-75.5 103.5,-56.5 8.5,-56.5"/>
<text text-anchor="middle" x="56" y="-63.5" font-family="Helvetica,sans-Serif" font-size="10.00" fill="#000000">RegisterConverters.cpp</text>
</a>
</g>
</g>
<!-- Node2&#45;&gt;Node3 -->
<g id="edge2" class="edge">
<title>Node2&#45;&gt;Node3</title>
<path fill="none" stroke="#191970" d="M141.1679,-107.8368C120.5605,-97.7139 93.3918,-84.3679 75.3416,-75.5011"/>
<polygon fill="#191970" stroke="#191970" points="139.884,-111.1056 150.4027,-112.3733 142.9703,-104.8227 139.884,-111.1056"/>
</g>
<!-- Node5 -->
<g id="node5" class="node">
<title>Node5</title>
<g id="a_node5"><a xlink:href="_s_b_m_l_converter_types_8h.html" target="_top" xlink:title="Definition of SBMLConverterTypes. ">
<polygon fill="#ffffff" stroke="#000000" points="121.5,-56.5 121.5,-75.5 218.5,-75.5 218.5,-56.5 121.5,-56.5"/>
<text text-anchor="middle" x="170" y="-63.5" font-family="Helvetica,sans-Serif" font-size="10.00" fill="#000000">SBMLConverterTypes.h</text>
</a>
</g>
</g>
<!-- Node2&#45;&gt;Node5 -->
<g id="edge4" class="edge">
<title>Node2&#45;&gt;Node5</title>
<path fill="none" stroke="#191970" d="M170,-102.1575C170,-93.155 170,-82.9199 170,-75.6427"/>
<polygon fill="#191970" stroke="#191970" points="166.5001,-102.2455 170,-112.2455 173.5001,-102.2456 166.5001,-102.2455"/>
</g>
<!-- Node6 -->
<g id="node6" class="node">
<title>Node6</title>
<g id="a_node6"><a xlink:href="_s_b_m_l_level_version_converter_8cpp.html" target="_top" xlink:title="Implementation of SBMLFunctionDefinitionConverter, a converter replacing function definitions...">
<polygon fill="#ffffff" stroke="#000000" points="236.5,-56.5 236.5,-75.5 363.5,-75.5 363.5,-56.5 236.5,-56.5"/>
<text text-anchor="middle" x="300" y="-63.5" font-family="Helvetica,sans-Serif" font-size="10.00" fill="#000000">SBMLLevelVersionConverter.cpp</text>
</a>
</g>
</g>
<!-- Node2&#45;&gt;Node6 -->
<g id="edge5" class="edge">
<title>Node2&#45;&gt;Node6</title>
<path fill="none" stroke="#191970" d="M201.6102,-108.3833C225.2535,-98.1985 256.9876,-84.5284 277.9438,-75.5011"/>
<polygon fill="#191970" stroke="#191970" points="200.1472,-105.2025 192.3478,-112.3733 202.9166,-111.6314 200.1472,-105.2025"/>
</g>
<!-- Node4 -->
<g id="node4" class="node">
<title>Node4</title>
<g id="a_node4"><a xlink:href="_s_b_m_l_converter_registry_8cpp.html" target="_top" xlink:title="SBMLConverterRegistry.cpp">
<polygon fill="#ffffff" stroke="#000000" points="0,-.5 0,-19.5 112,-19.5 112,-.5 0,-.5"/>
<text text-anchor="middle" x="56" y="-7.5" font-family="Helvetica,sans-Serif" font-size="10.00" fill="#000000">SBMLConverterRegistry.cpp</text>
</a>
</g>
</g>
<!-- Node3&#45;&gt;Node4 -->
<g id="edge3" class="edge">
<title>Node3&#45;&gt;Node4</title>
<path fill="none" stroke="#191970" d="M56,-46.1575C56,-37.155 56,-26.9199 56,-19.6427"/>
<polygon fill="#191970" stroke="#191970" points="52.5001,-46.2455 56,-56.2455 59.5001,-46.2456 52.5001,-46.2455"/>
</g>
</g>
</svg>
