<?xml version="1.0" encoding="UTF-8" standalone="no"?>
<!DOCTYPE svg PUBLIC "-//W3C//DTD SVG 1.1//EN"
 "http://www.w3.org/Graphics/SVG/1.1/DTD/svg11.dtd">
<!-- Generated by graphviz version 2.40.1 (20161225.0304)
 -->
<!-- Title: XMLLogOverride.h Pages: 1 -->
<svg width="520pt" height="397pt"
 viewBox="0.00 0.00 520.16 397.00" xmlns="http://www.w3.org/2000/svg" xmlns:xlink="http://www.w3.org/1999/xlink">
<g id="graph0" class="graph" transform="scale(1 1) rotate(0) translate(4 393)">
<title>XMLLogOverride.h</title>
<polygon fill="#ffffff" stroke="transparent" points="-4,4 -4,-393 516.1557,-393 516.1557,4 -4,4"/>
<!-- Node1 -->
<g id="node1" class="node">
<title>Node1</title>
<polygon fill="#bfbfbf" stroke="#000000" points="169.1557,-369.5 169.1557,-388.5 248.1557,-388.5 248.1557,-369.5 169.1557,-369.5"/>
<text text-anchor="middle" x="208.6557" y="-376.5" font-family="Helvetica,sans-Serif" font-size="10.00" fill="#000000">XMLLogOverride.h</text>
</g>
<!-- Node2 -->
<g id="node2" class="node">
<title>Node2</title>
<g id="a_node2"><a xlink:href="_x_m_l_extern_8h.html" target="_top" xlink:title="Defines LIBLAX_EXTERN. ">
<polygon fill="#ffffff" stroke="#000000" points="21.6557,-257.5 21.6557,-276.5 113.6557,-276.5 113.6557,-257.5 21.6557,-257.5"/>
<text text-anchor="middle" x="67.6557" y="-264.5" font-family="Helvetica,sans-Serif" font-size="10.00" fill="#000000">sbml/xml/XMLExtern.h</text>
</a>
</g>
</g>
<!-- Node1&#45;&gt;Node2 -->
<g id="edge1" class="edge">
<title>Node1&#45;&gt;Node2</title>
<path fill="none" stroke="#191970" d="M196.6341,-369.4509C172.3886,-350.1921 117.4108,-306.5218 87.6644,-282.8935"/>
<polygon fill="#191970" stroke="#191970" points="89.6541,-280.0041 79.6468,-276.5249 85.3002,-285.4854 89.6541,-280.0041"/>
</g>
<!-- Node4 -->
<g id="node4" class="node">
<title>Node4</title>
<g id="a_node4"><a xlink:href="_x_m_l_error_8h.html" target="_top" xlink:title="Represents errors (and messages) encountered during an XML parse. ">
<polygon fill="#ffffff" stroke="#000000" points="271.1557,-313.5 271.1557,-332.5 358.1557,-332.5 358.1557,-313.5 271.1557,-313.5"/>
<text text-anchor="middle" x="314.6557" y="-320.5" font-family="Helvetica,sans-Serif" font-size="10.00" fill="#000000">sbml/xml/XMLError.h</text>
</a>
</g>
</g>
<!-- Node1&#45;&gt;Node4 -->
<g id="edge3" class="edge">
<title>Node1&#45;&gt;Node4</title>
<path fill="none" stroke="#191970" d="M227.1195,-369.2455C243.7631,-360.4527 268.455,-347.4079 287.3748,-337.4125"/>
<polygon fill="#191970" stroke="#191970" points="289.1965,-340.4086 296.4035,-332.6427 285.9266,-334.2193 289.1965,-340.4086"/>
</g>
<!-- Node3 -->
<g id="node3" class="node">
<title>Node3</title>
<g id="a_node3"><a xlink:href="libsbml-namespace_8h.html" target="_top" xlink:title="Defines C++ namespace of libSBML. ">
<polygon fill="#ffffff" stroke="#000000" points="65.1557,-.5 65.1557,-30.5 154.1557,-30.5 154.1557,-.5 65.1557,-.5"/>
<text text-anchor="start" x="73.1557" y="-18.5" font-family="Helvetica,sans-Serif" font-size="10.00" fill="#000000">sbml/common/libsbml</text>
<text text-anchor="middle" x="109.6557" y="-7.5" font-family="Helvetica,sans-Serif" font-size="10.00" fill="#000000">&#45;namespace.h</text>
</a>
</g>
</g>
<!-- Node2&#45;&gt;Node3 -->
<g id="edge2" class="edge">
<title>Node2&#45;&gt;Node3</title>
<path fill="none" stroke="#191970" d="M53.282,-257.1853C42.5852,-248.9414 28.8148,-236.1035 22.6557,-221 -3.1891,-157.6226 -11.2435,-126.46 22.6557,-67 30.4286,-53.366 43.3851,-42.9735 56.9559,-35.2212"/>
<polygon fill="#191970" stroke="#191970" points="58.6991,-38.2589 65.9143,-30.5007 55.4358,-32.0661 58.6991,-38.2589"/>
</g>
<!-- Node4&#45;&gt;Node2 -->
<g id="edge5" class="edge">
<title>Node4&#45;&gt;Node2</title>
<path fill="none" stroke="#191970" d="M272.4755,-313.4369C230.2034,-303.8529 165.0495,-289.0812 119.614,-278.78"/>
<polygon fill="#191970" stroke="#191970" points="120.1883,-275.3215 109.6619,-276.5237 118.6404,-282.1482 120.1883,-275.3215"/>
</g>
<!-- Node5 -->
<g id="node5" class="node">
<title>Node5</title>
<polygon fill="#ffffff" stroke="#bfbfbf" points="420.1557,-196 420.1557,-215 459.1557,-215 459.1557,-196 420.1557,-196"/>
<text text-anchor="middle" x="439.6557" y="-203" font-family="Helvetica,sans-Serif" font-size="10.00" fill="#000000">stdio.h</text>
</g>
<!-- Node4&#45;&gt;Node5 -->
<g id="edge4" class="edge">
<title>Node4&#45;&gt;Node5</title>
<path fill="none" stroke="#191970" d="M358.2782,-316.5304C383.0284,-310.5225 412.4145,-299.0041 429.6557,-277 440.9773,-262.5507 442.6179,-241.2334 441.9488,-225.6352"/>
<polygon fill="#191970" stroke="#191970" points="445.4231,-225.1667 441.1588,-215.4679 438.4441,-225.7091 445.4231,-225.1667"/>
</g>
<!-- Node6 -->
<g id="node6" class="node">
<title>Node6</title>
<g id="a_node6"><a xlink:href="sbmlfwd_8h.html" target="_top" xlink:title="Forward declarations for all opaque C types. ">
<polygon fill="#ffffff" stroke="#000000" points="132.1557,-257.5 132.1557,-276.5 231.1557,-276.5 231.1557,-257.5 132.1557,-257.5"/>
<text text-anchor="middle" x="181.6557" y="-264.5" font-family="Helvetica,sans-Serif" font-size="10.00" fill="#000000">sbml/common/sbmlfwd.h</text>
</a>
</g>
</g>
<!-- Node4&#45;&gt;Node6 -->
<g id="edge6" class="edge">
<title>Node4&#45;&gt;Node6</title>
<path fill="none" stroke="#191970" d="M291.7921,-313.3733C270.2507,-304.3032 237.7719,-290.6279 213.6601,-280.4755"/>
<polygon fill="#191970" stroke="#191970" points="214.7954,-277.156 204.2208,-276.5011 212.079,-283.6075 214.7954,-277.156"/>
</g>
<!-- Node11 -->
<g id="node11" class="node">
<title>Node11</title>
<g id="a_node11"><a xlink:href="util_8h.html" target="_top" xlink:title="Utility functions. ">
<polygon fill="#ffffff" stroke="#000000" points="249.6557,-257.5 249.6557,-276.5 311.6557,-276.5 311.6557,-257.5 249.6557,-257.5"/>
<text text-anchor="middle" x="280.6557" y="-264.5" font-family="Helvetica,sans-Serif" font-size="10.00" fill="#000000">sbml/util/util.h</text>
</a>
</g>
</g>
<!-- Node4&#45;&gt;Node11 -->
<g id="edge14" class="edge">
<title>Node4&#45;&gt;Node11</title>
<path fill="none" stroke="#191970" d="M308.7333,-313.2455C304.053,-305.5367 297.3884,-294.5598 291.7268,-285.2348"/>
<polygon fill="#191970" stroke="#191970" points="294.6917,-283.3741 286.5101,-276.6427 288.7082,-287.007 294.6917,-283.3741"/>
</g>
<!-- Node13 -->
<g id="node13" class="node">
<title>Node13</title>
<polygon fill="#ffffff" stroke="#bfbfbf" points="329.6557,-257.5 329.6557,-276.5 367.6557,-276.5 367.6557,-257.5 329.6557,-257.5"/>
<text text-anchor="middle" x="348.6557" y="-264.5" font-family="Helvetica,sans-Serif" font-size="10.00" fill="#000000">iosfwd</text>
</g>
<!-- Node4&#45;&gt;Node13 -->
<g id="edge18" class="edge">
<title>Node4&#45;&gt;Node13</title>
<path fill="none" stroke="#191970" d="M320.578,-313.2455C325.2584,-305.5367 331.9229,-294.5598 337.5845,-285.2348"/>
<polygon fill="#191970" stroke="#191970" points="340.6031,-287.007 342.8012,-276.6427 334.6196,-283.3741 340.6031,-287.007"/>
</g>
<!-- Node14 -->
<g id="node14" class="node">
<title>Node14</title>
<polygon fill="#ffffff" stroke="#bfbfbf" points="386.1557,-257.5 386.1557,-276.5 421.1557,-276.5 421.1557,-257.5 386.1557,-257.5"/>
<text text-anchor="middle" x="403.6557" y="-264.5" font-family="Helvetica,sans-Serif" font-size="10.00" fill="#000000">string</text>
</g>
<!-- Node4&#45;&gt;Node14 -->
<g id="edge19" class="edge">
<title>Node4&#45;&gt;Node14</title>
<path fill="none" stroke="#191970" d="M330.1583,-313.2455C343.8136,-304.6534 363.9214,-292.0014 379.6546,-282.1018"/>
<polygon fill="#191970" stroke="#191970" points="381.7307,-284.9307 388.3307,-276.6427 378.0028,-279.006 381.7307,-284.9307"/>
</g>
<!-- Node15 -->
<g id="node15" class="node">
<title>Node15</title>
<g id="a_node15"><a xlink:href="operation_return_values_8h.html" target="_top" xlink:title="Enumeration of values returned by operations within libSBML. ">
<polygon fill="#ffffff" stroke="#000000" points="393.1557,-123.5 393.1557,-153.5 512.1557,-153.5 512.1557,-123.5 393.1557,-123.5"/>
<text text-anchor="start" x="401.1557" y="-141.5" font-family="Helvetica,sans-Serif" font-size="10.00" fill="#000000">sbml/common/operationReturn</text>
<text text-anchor="middle" x="452.6557" y="-130.5" font-family="Helvetica,sans-Serif" font-size="10.00" fill="#000000">Values.h</text>
</a>
</g>
</g>
<!-- Node4&#45;&gt;Node15 -->
<g id="edge20" class="edge">
<title>Node4&#45;&gt;Node15</title>
<path fill="none" stroke="#191970" d="M358.2334,-318.0748C387.3614,-312.616 424.6104,-301.1315 448.6557,-277 476.5914,-248.9641 473.2455,-229.1813 467.6557,-190 466.384,-181.0862 463.9332,-171.5594 461.3753,-163.1541"/>
<polygon fill="#191970" stroke="#191970" points="464.684,-162.0103 458.2743,-153.5743 458.0242,-164.1661 464.684,-162.0103"/>
</g>
<!-- Node6&#45;&gt;Node3 -->
<g id="edge7" class="edge">
<title>Node6&#45;&gt;Node3</title>
<path fill="none" stroke="#191970" d="M162.9639,-257.2464C133.4946,-240.6575 77.3575,-203.8393 55.6557,-154 38.1947,-113.9 67.5158,-66.1969 89.3327,-38.5299"/>
<polygon fill="#191970" stroke="#191970" points="92.1819,-40.5746 95.8024,-30.6175 86.7628,-36.1435 92.1819,-40.5746"/>
</g>
<!-- Node7 -->
<g id="node7" class="node">
<title>Node7</title>
<g id="a_node7"><a xlink:href="libsbml-config_8h.html" target="_top" xlink:title="Decides whether to #include Unix or Windows configuration variables. ">
<polygon fill="#ffffff" stroke="#000000" points="137.1557,-190.5 137.1557,-220.5 226.1557,-220.5 226.1557,-190.5 137.1557,-190.5"/>
<text text-anchor="start" x="145.1557" y="-208.5" font-family="Helvetica,sans-Serif" font-size="10.00" fill="#000000">sbml/common/libsbml</text>
<text text-anchor="middle" x="181.6557" y="-197.5" font-family="Helvetica,sans-Serif" font-size="10.00" fill="#000000">&#45;config.h</text>
</a>
</g>
</g>
<!-- Node6&#45;&gt;Node7 -->
<g id="edge8" class="edge">
<title>Node6&#45;&gt;Node7</title>
<path fill="none" stroke="#191970" d="M181.6557,-257.3906C181.6557,-250.2234 181.6557,-240.0862 181.6557,-230.671"/>
<polygon fill="#191970" stroke="#191970" points="185.1558,-230.5446 181.6557,-220.5446 178.1558,-230.5446 185.1558,-230.5446"/>
</g>
<!-- Node7&#45;&gt;Node3 -->
<g id="edge9" class="edge">
<title>Node7&#45;&gt;Node3</title>
<path fill="none" stroke="#191970" d="M179.2449,-190.2976C176.3342,-173.5138 170.7936,-145.8453 162.6557,-123 152.0592,-93.2529 135.4009,-60.9969 123.5915,-39.6602"/>
<polygon fill="#191970" stroke="#191970" points="126.4935,-37.6797 118.546,-30.6735 120.3897,-41.1067 126.4935,-37.6797"/>
</g>
<!-- Node8 -->
<g id="node8" class="node">
<title>Node8</title>
<g id="a_node8"><a xlink:href="libsbml-config-common_8h.html" target="_top" xlink:title="Configuration variables. ">
<polygon fill="#ffffff" stroke="#000000" points="65.1557,-123.5 65.1557,-153.5 154.1557,-153.5 154.1557,-123.5 65.1557,-123.5"/>
<text text-anchor="start" x="73.1557" y="-141.5" font-family="Helvetica,sans-Serif" font-size="10.00" fill="#000000">sbml/common/libsbml</text>
<text text-anchor="middle" x="109.6557" y="-130.5" font-family="Helvetica,sans-Serif" font-size="10.00" fill="#000000">&#45;config&#45;common.h</text>
</a>
</g>
</g>
<!-- Node7&#45;&gt;Node8 -->
<g id="edge10" class="edge">
<title>Node7&#45;&gt;Node8</title>
<path fill="none" stroke="#191970" d="M165.3177,-190.2967C155.928,-181.559 143.9639,-170.4257 133.5358,-160.7218"/>
<polygon fill="#191970" stroke="#191970" points="135.634,-157.8933 125.9289,-153.6432 130.8653,-163.0178 135.634,-157.8933"/>
</g>
<!-- Node9 -->
<g id="node9" class="node">
<title>Node9</title>
<g id="a_node9"><a xlink:href="libsbml-version_8h.html" target="_top" xlink:title="Define libSBML version numbers for access from client software. ">
<polygon fill="#ffffff" stroke="#000000" points="211.1557,-123.5 211.1557,-153.5 300.1557,-153.5 300.1557,-123.5 211.1557,-123.5"/>
<text text-anchor="start" x="219.1557" y="-141.5" font-family="Helvetica,sans-Serif" font-size="10.00" fill="#000000">sbml/common/libsbml</text>
<text text-anchor="middle" x="255.6557" y="-130.5" font-family="Helvetica,sans-Serif" font-size="10.00" fill="#000000">&#45;version.h</text>
</a>
</g>
</g>
<!-- Node7&#45;&gt;Node9 -->
<g id="edge11" class="edge">
<title>Node7&#45;&gt;Node9</title>
<path fill="none" stroke="#191970" d="M198.4474,-190.2967C208.1926,-181.4733 220.6358,-170.2072 231.4269,-160.4368"/>
<polygon fill="#191970" stroke="#191970" points="233.8665,-162.9495 238.9304,-153.6432 229.1682,-157.7604 233.8665,-162.9495"/>
</g>
<!-- Node10 -->
<g id="node10" class="node">
<title>Node10</title>
<g id="a_node10"><a xlink:href="extern_8h.html" target="_top" xlink:title="Definitions of LIBSBML_EXTERN and related things. ">
<polygon fill="#ffffff" stroke="#000000" points="246.6557,-67.5 246.6557,-86.5 338.6557,-86.5 338.6557,-67.5 246.6557,-67.5"/>
<text text-anchor="middle" x="292.6557" y="-74.5" font-family="Helvetica,sans-Serif" font-size="10.00" fill="#000000">sbml/common/extern.h</text>
</a>
</g>
</g>
<!-- Node9&#45;&gt;Node10 -->
<g id="edge12" class="edge">
<title>Node9&#45;&gt;Node10</title>
<path fill="none" stroke="#191970" d="M264.8017,-123.2977C269.8307,-114.9388 276.1111,-104.4997 281.4348,-95.6509"/>
<polygon fill="#191970" stroke="#191970" points="284.5753,-97.2201 286.7315,-86.8469 278.5772,-93.6114 284.5753,-97.2201"/>
</g>
<!-- Node10&#45;&gt;Node3 -->
<g id="edge13" class="edge">
<title>Node10&#45;&gt;Node3</title>
<path fill="none" stroke="#191970" d="M264.0619,-67.3906C237.3458,-58.4123 196.7622,-44.7735 163.9058,-33.7316"/>
<polygon fill="#191970" stroke="#191970" points="165.0165,-30.4126 154.4225,-30.5446 162.7866,-37.0479 165.0165,-30.4126"/>
</g>
<!-- Node11&#45;&gt;Node5 -->
<g id="edge15" class="edge">
<title>Node11&#45;&gt;Node5</title>
<path fill="none" stroke="#191970" d="M311.0757,-257.4359C337.502,-248.8252 376.6147,-235.3493 409.6557,-221 410.6773,-220.5563 411.7126,-220.0931 412.7538,-219.6157"/>
<polygon fill="#191970" stroke="#191970" points="414.6169,-222.6016 422.0791,-215.0805 411.5554,-216.3066 414.6169,-222.6016"/>
</g>
<!-- Node11&#45;&gt;Node10 -->
<g id="edge17" class="edge">
<title>Node11&#45;&gt;Node10</title>
<path fill="none" stroke="#191970" d="M285.0116,-257.2526C294.8379,-234.0577 317.2259,-173.7269 308.6557,-123 307.1106,-113.8551 303.9523,-104.1019 300.8467,-95.9405"/>
<polygon fill="#191970" stroke="#191970" points="304.0683,-94.5713 297.0667,-86.6198 297.5815,-97.2021 304.0683,-94.5713"/>
</g>
<!-- Node12 -->
<g id="node12" class="node">
<title>Node12</title>
<polygon fill="#ffffff" stroke="#bfbfbf" points="356.6557,-196 356.6557,-215 400.6557,-215 400.6557,-196 356.6557,-196"/>
<text text-anchor="middle" x="378.6557" y="-203" font-family="Helvetica,sans-Serif" font-size="10.00" fill="#000000">stdarg.h</text>
</g>
<!-- Node11&#45;&gt;Node12 -->
<g id="edge16" class="edge">
<title>Node11&#45;&gt;Node12</title>
<path fill="none" stroke="#191970" d="M295.9682,-257.3906C311.7181,-247.5067 336.468,-231.9749 354.7894,-220.4773"/>
<polygon fill="#191970" stroke="#191970" points="356.8409,-223.3221 363.4507,-215.0419 353.12,-217.3929 356.8409,-223.3221"/>
</g>
<!-- Node15&#45;&gt;Node10 -->
<g id="edge21" class="edge">
<title>Node15&#45;&gt;Node10</title>
<path fill="none" stroke="#191970" d="M413.5153,-123.4554C387.053,-113.284 352.4376,-99.9787 327.0374,-90.2155"/>
<polygon fill="#191970" stroke="#191970" points="328.04,-86.8512 317.45,-86.5303 325.5284,-93.3852 328.04,-86.8512"/>
</g>
</g>
</svg>
