<?xml version="1.0" encoding="UTF-8" standalone="no"?>
<!DOCTYPE svg PUBLIC "-//W3C//DTD SVG 1.1//EN"
 "http://www.w3.org/Graphics/SVG/1.1/DTD/svg11.dtd">
<!-- Generated by graphviz version 2.40.1 (20161225.0304)
 -->
<!-- Title: XMLConstructorException.h Pages: 1 -->
<svg width="496pt" height="84pt"
 viewBox="0.00 0.00 495.50 84.00" xmlns="http://www.w3.org/2000/svg" xmlns:xlink="http://www.w3.org/1999/xlink">
<g id="graph0" class="graph" transform="scale(1 1) rotate(0) translate(4 80)">
<title>XMLConstructorException.h</title>
<polygon fill="#ffffff" stroke="transparent" points="-4,4 -4,-80 491.5,-80 491.5,4 -4,4"/>
<!-- Node1 -->
<g id="node1" class="node">
<title>Node1</title>
<polygon fill="#bfbfbf" stroke="#000000" points="209,-56.5 209,-75.5 319,-75.5 319,-56.5 209,-56.5"/>
<text text-anchor="middle" x="264" y="-63.5" font-family="Helvetica,sans-Serif" font-size="10.00" fill="#000000">XMLConstructorException.h</text>
</g>
<!-- Node2 -->
<g id="node2" class="node">
<title>Node2</title>
<g id="a_node2"><a xlink:href="_x_m_l_attributes_8cpp.html" target="_top" xlink:title="XMLAttributes are a list of name/value pairs for XMLElements. ">
<polygon fill="#ffffff" stroke="#000000" points="0,-.5 0,-19.5 78,-19.5 78,-.5 0,-.5"/>
<text text-anchor="middle" x="39" y="-7.5" font-family="Helvetica,sans-Serif" font-size="10.00" fill="#000000">XMLAttributes.cpp</text>
</a>
</g>
</g>
<!-- Node1&#45;&gt;Node2 -->
<g id="edge1" class="edge">
<title>Node1&#45;&gt;Node2</title>
<path fill="none" stroke="#191970" d="M215.7134,-53.982C174.3139,-43.6781 115.4721,-29.0331 77.2647,-19.5237"/>
<polygon fill="#191970" stroke="#191970" points="215.0275,-57.418 225.5768,-56.4369 216.7182,-50.6252 215.0275,-57.418"/>
</g>
<!-- Node3 -->
<g id="node3" class="node">
<title>Node3</title>
<g id="a_node3"><a xlink:href="_x_m_l_constructor_exception_8cpp.html" target="_top" xlink:title="XMLConstructorException an exception thrown by XML classes. ">
<polygon fill="#ffffff" stroke="#000000" points="96,-.5 96,-19.5 214,-19.5 214,-.5 96,-.5"/>
<text text-anchor="middle" x="155" y="-7.5" font-family="Helvetica,sans-Serif" font-size="10.00" fill="#000000">XMLConstructorException.cpp</text>
</a>
</g>
</g>
<!-- Node1&#45;&gt;Node3 -->
<g id="edge2" class="edge">
<title>Node1&#45;&gt;Node3</title>
<path fill="none" stroke="#191970" d="M235.9658,-51.5971C216.4254,-41.558 190.8908,-28.4393 173.7688,-19.6427"/>
<polygon fill="#191970" stroke="#191970" points="234.5194,-54.7889 245.0136,-56.2455 237.7183,-48.5625 234.5194,-54.7889"/>
</g>
<!-- Node4 -->
<g id="node4" class="node">
<title>Node4</title>
<g id="a_node4"><a xlink:href="_x_m_l_error_8cpp.html" target="_top" xlink:title="Represents errors (and messages) encountered during an XML parse. ">
<polygon fill="#ffffff" stroke="#000000" points="232.5,-.5 232.5,-19.5 295.5,-19.5 295.5,-.5 232.5,-.5"/>
<text text-anchor="middle" x="264" y="-7.5" font-family="Helvetica,sans-Serif" font-size="10.00" fill="#000000">XMLError.cpp</text>
</a>
</g>
</g>
<!-- Node1&#45;&gt;Node4 -->
<g id="edge3" class="edge">
<title>Node1&#45;&gt;Node4</title>
<path fill="none" stroke="#191970" d="M264,-46.1575C264,-37.155 264,-26.9199 264,-19.6427"/>
<polygon fill="#191970" stroke="#191970" points="260.5001,-46.2455 264,-56.2455 267.5001,-46.2456 260.5001,-46.2455"/>
</g>
<!-- Node5 -->
<g id="node5" class="node">
<title>Node5</title>
<g id="a_node5"><a xlink:href="_x_m_l_namespaces_8cpp.html" target="_top" xlink:title="A list of XMLNamespace declarations (URI/prefix pairs) ">
<polygon fill="#ffffff" stroke="#000000" points="314,-.5 314,-19.5 404,-19.5 404,-.5 314,-.5"/>
<text text-anchor="middle" x="359" y="-7.5" font-family="Helvetica,sans-Serif" font-size="10.00" fill="#000000">XMLNamespaces.cpp</text>
</a>
</g>
</g>
<!-- Node1&#45;&gt;Node5 -->
<g id="edge4" class="edge">
<title>Node1&#45;&gt;Node5</title>
<path fill="none" stroke="#191970" d="M289.3676,-51.0465C306.271,-41.0824 327.9904,-28.2794 342.6419,-19.6427"/>
<polygon fill="#191970" stroke="#191970" points="287.3851,-48.1522 280.5477,-56.2455 290.9398,-54.1825 287.3851,-48.1522"/>
</g>
<!-- Node6 -->
<g id="node6" class="node">
<title>Node6</title>
<g id="a_node6"><a xlink:href="_x_m_l_triple_8cpp.html" target="_top" xlink:title="Stores an XML namespace triple. ">
<polygon fill="#ffffff" stroke="#000000" points="422.5,-.5 422.5,-19.5 487.5,-19.5 487.5,-.5 422.5,-.5"/>
<text text-anchor="middle" x="455" y="-7.5" font-family="Helvetica,sans-Serif" font-size="10.00" fill="#000000">XMLTriple.cpp</text>
</a>
</g>
</g>
<!-- Node1&#45;&gt;Node6 -->
<g id="edge5" class="edge">
<title>Node1&#45;&gt;Node6</title>
<path fill="none" stroke="#191970" d="M306.7837,-53.4561C341.8445,-43.1765 390.7102,-28.8494 422.5944,-19.5011"/>
<polygon fill="#191970" stroke="#191970" points="305.4454,-50.2011 296.8341,-56.3733 307.4149,-56.9183 305.4454,-50.2011"/>
</g>
</g>
</svg>
