<?xml version="1.0" encoding="UTF-8" standalone="no"?>
<!DOCTYPE svg PUBLIC "-//W3C//DTD SVG 1.1//EN"
 "http://www.w3.org/Graphics/SVG/1.1/DTD/svg11.dtd">
<!-- Generated by graphviz version 2.40.1 (20161225.0304)
 -->
<!-- Title: XMLError.cpp Pages: 1 -->
<svg width="1000pt" height="464pt"
 viewBox="0.00 0.00 1000.30 464.00" xmlns="http://www.w3.org/2000/svg" xmlns:xlink="http://www.w3.org/1999/xlink">
<g id="graph0" class="graph" transform="scale(1 1) rotate(0) translate(4 460)">
<title>XMLError.cpp</title>
<polygon fill="#ffffff" stroke="transparent" points="-4,4 -4,-460 996.2968,-460 996.2968,4 -4,4"/>
<!-- Node1 -->
<g id="node1" class="node">
<title>Node1</title>
<polygon fill="#bfbfbf" stroke="#000000" points="432.7968,-436.5 432.7968,-455.5 510.7968,-455.5 510.7968,-436.5 432.7968,-436.5"/>
<text text-anchor="middle" x="471.7968" y="-443.5" font-family="Helvetica,sans-Serif" font-size="10.00" fill="#000000">XMLError.cpp</text>
</g>
<!-- Node2 -->
<g id="node2" class="node">
<title>Node2</title>
<polygon fill="#ffffff" stroke="#bfbfbf" points="248.2968,-380.5 248.2968,-399.5 303.2968,-399.5 303.2968,-380.5 248.2968,-380.5"/>
<text text-anchor="middle" x="275.7968" y="-387.5" font-family="Helvetica,sans-Serif" font-size="10.00" fill="#000000">iostream</text>
</g>
<!-- Node1&#45;&gt;Node2 -->
<g id="edge1" class="edge">
<title>Node1&#45;&gt;Node2</title>
<path fill="none" stroke="#191970" d="M438.1032,-436.3733C403.2873,-426.4259 349.0842,-410.9393 313.0219,-400.6358"/>
<polygon fill="#191970" stroke="#191970" points="313.9395,-397.2579 303.3628,-397.876 312.0165,-403.9886 313.9395,-397.2579"/>
</g>
<!-- Node3 -->
<g id="node3" class="node">
<title>Node3</title>
<polygon fill="#ffffff" stroke="#bfbfbf" points="321.7968,-380.5 321.7968,-399.5 373.7968,-399.5 373.7968,-380.5 321.7968,-380.5"/>
<text text-anchor="middle" x="347.7968" y="-387.5" font-family="Helvetica,sans-Serif" font-size="10.00" fill="#000000">iomanip</text>
</g>
<!-- Node1&#45;&gt;Node3 -->
<g id="edge2" class="edge">
<title>Node1&#45;&gt;Node3</title>
<path fill="none" stroke="#191970" d="M450.4804,-436.3733C430.5752,-427.3838 400.6532,-413.8706 378.2368,-403.7471"/>
<polygon fill="#191970" stroke="#191970" points="379.3893,-400.4272 368.835,-399.5011 376.5081,-406.8068 379.3893,-400.4272"/>
</g>
<!-- Node4 -->
<g id="node4" class="node">
<title>Node4</title>
<polygon fill="#ffffff" stroke="#bfbfbf" points="391.7968,-380.5 391.7968,-399.5 443.7968,-399.5 443.7968,-380.5 391.7968,-380.5"/>
<text text-anchor="middle" x="417.7968" y="-387.5" font-family="Helvetica,sans-Serif" font-size="10.00" fill="#000000">sstream</text>
</g>
<!-- Node1&#45;&gt;Node4 -->
<g id="edge3" class="edge">
<title>Node1&#45;&gt;Node4</title>
<path fill="none" stroke="#191970" d="M462.3907,-436.2455C454.6475,-428.2155 443.4848,-416.6394 434.265,-407.0781"/>
<polygon fill="#191970" stroke="#191970" points="436.5559,-404.4117 427.0951,-399.6427 431.517,-409.2706 436.5559,-404.4117"/>
</g>
<!-- Node5 -->
<g id="node5" class="node">
<title>Node5</title>
<g id="a_node5"><a xlink:href="common_8h.html" target="_top" xlink:title="Common functions and macros for C and C++. ">
<polygon fill="#ffffff" stroke="#000000" points="131.7968,-324.5 131.7968,-343.5 259.7968,-343.5 259.7968,-324.5 131.7968,-324.5"/>
<text text-anchor="middle" x="195.7968" y="-331.5" font-family="Helvetica,sans-Serif" font-size="10.00" fill="#000000">sbml/common/common.h</text>
</a>
</g>
</g>
<!-- Node1&#45;&gt;Node5 -->
<g id="edge4" class="edge">
<title>Node1&#45;&gt;Node5</title>
<path fill="none" stroke="#191970" d="M471.9916,-436.287C471.717,-421.7605 468.9127,-394.5332 452.7968,-380 426.4222,-356.2156 336.0379,-344.3131 269.8913,-338.6581"/>
<polygon fill="#191970" stroke="#191970" points="270.1616,-335.1686 259.908,-337.8358 269.587,-342.145 270.1616,-335.1686"/>
</g>
<!-- Node15 -->
<g id="node15" class="node">
<title>Node15</title>
<g id="a_node15"><a xlink:href="_x_m_l_error_8h.html" target="_top" xlink:title="Represents errors (and messages) encountered during an XML parse. ">
<polygon fill="#ffffff" stroke="#000000" points="367.7968,-324.5 367.7968,-343.5 477.7968,-343.5 477.7968,-324.5 367.7968,-324.5"/>
<text text-anchor="middle" x="422.7968" y="-331.5" font-family="Helvetica,sans-Serif" font-size="10.00" fill="#000000">sbml/xml/XMLError.h</text>
</a>
</g>
</g>
<!-- Node1&#45;&gt;Node15 -->
<g id="edge18" class="edge">
<title>Node1&#45;&gt;Node15</title>
<path fill="none" stroke="#191970" d="M477.7794,-436.077C485.0155,-422.6825 495.1343,-398.3795 485.7968,-380 478.9358,-366.4951 466.0435,-356.0099 453.7002,-348.4839"/>
<polygon fill="#191970" stroke="#191970" points="455.3335,-345.3868 444.9034,-343.5258 451.8964,-351.4849 455.3335,-345.3868"/>
</g>
<!-- Node21 -->
<g id="node21" class="node">
<title>Node21</title>
<g id="a_node21"><a xlink:href="_x_m_l_attributes_8h.html" target="_top" xlink:title="XMLAttributes are a list of name/value pairs for XML elements. ">
<polygon fill="#ffffff" stroke="#000000" points="582.7968,-380.5 582.7968,-399.5 712.7968,-399.5 712.7968,-380.5 582.7968,-380.5"/>
<text text-anchor="middle" x="647.7968" y="-387.5" font-family="Helvetica,sans-Serif" font-size="10.00" fill="#000000">sbml/xml/XMLAttributes.h</text>
</a>
</g>
</g>
<!-- Node1&#45;&gt;Node21 -->
<g id="edge30" class="edge">
<title>Node1&#45;&gt;Node21</title>
<path fill="none" stroke="#191970" d="M502.0523,-436.3733C531.4451,-427.021 576.226,-412.7725 608.3902,-402.5385"/>
<polygon fill="#191970" stroke="#191970" points="609.4681,-405.8685 617.9361,-399.5011 607.3456,-399.198 609.4681,-405.8685"/>
</g>
<!-- Node25 -->
<g id="node25" class="node">
<title>Node25</title>
<g id="a_node25"><a xlink:href="_x_m_l_constructor_exception_8h.html" target="_top" xlink:title="XMLConstructorException an exception thrown by XML classes. ">
<polygon fill="#ffffff" stroke="#000000" points="809.2968,-380.5 809.2968,-399.5 992.2968,-399.5 992.2968,-380.5 809.2968,-380.5"/>
<text text-anchor="middle" x="900.7968" y="-387.5" font-family="Helvetica,sans-Serif" font-size="10.00" fill="#000000">sbml/xml/XMLConstructorException.h</text>
</a>
</g>
</g>
<!-- Node1&#45;&gt;Node25 -->
<g id="edge41" class="edge">
<title>Node1&#45;&gt;Node25</title>
<path fill="none" stroke="#191970" d="M511.0049,-440.8819C580.186,-431.8513 725.3186,-412.9062 817.6509,-400.8535"/>
<polygon fill="#191970" stroke="#191970" points="818.3426,-404.293 827.8054,-399.528 817.4365,-397.3519 818.3426,-404.293"/>
</g>
<!-- Node6 -->
<g id="node6" class="node">
<title>Node6</title>
<g id="a_node6"><a xlink:href="libsbml-config_8h.html" target="_top" xlink:title="Decides whether to #include Unix or Windows configuration variables. ">
<polygon fill="#ffffff" stroke="#000000" points="425.2968,-190.5 425.2968,-220.5 538.2968,-220.5 538.2968,-190.5 425.2968,-190.5"/>
<text text-anchor="start" x="433.2968" y="-208.5" font-family="Helvetica,sans-Serif" font-size="10.00" fill="#000000">sbml/common/libsbml</text>
<text text-anchor="middle" x="481.7968" y="-197.5" font-family="Helvetica,sans-Serif" font-size="10.00" fill="#000000">&#45;config.h</text>
</a>
</g>
</g>
<!-- Node5&#45;&gt;Node6 -->
<g id="edge5" class="edge">
<title>Node5&#45;&gt;Node6</title>
<path fill="none" stroke="#191970" d="M220.8911,-324.4268C241.6459,-316.0519 271.5427,-302.9161 295.7968,-288 314.6575,-276.4007 315.411,-267.6988 334.7968,-257 359.884,-243.1547 389.3883,-231.9476 415.3549,-223.5668"/>
<polygon fill="#191970" stroke="#191970" points="416.6296,-226.835 425.1171,-220.4936 414.5276,-220.158 416.6296,-226.835"/>
</g>
<!-- Node10 -->
<g id="node10" class="node">
<title>Node10</title>
<g id="a_node10"><a xlink:href="extern_8h.html" target="_top" xlink:title="Definitions of LIBSBML_EXTERN and related things. ">
<polygon fill="#ffffff" stroke="#000000" points="420.7968,-67.5 420.7968,-86.5 538.7968,-86.5 538.7968,-67.5 420.7968,-67.5"/>
<text text-anchor="middle" x="479.7968" y="-74.5" font-family="Helvetica,sans-Serif" font-size="10.00" fill="#000000">sbml/common/extern.h</text>
</a>
</g>
</g>
<!-- Node5&#45;&gt;Node10 -->
<g id="edge12" class="edge">
<title>Node5&#45;&gt;Node10</title>
<path fill="none" stroke="#191970" d="M131.6669,-326.9549C82.8165,-320.1115 21.3788,-307.8047 5.7968,-288 -2.7226,-277.1719 -.8258,-269.0818 5.7968,-257 67.5254,-144.3864 139.6056,-162.5166 261.7968,-123 310.623,-107.2096 367.3889,-95.4315 410.7527,-87.7478"/>
<polygon fill="#191970" stroke="#191970" points="411.3812,-91.1911 420.6321,-86.0268 410.1798,-84.295 411.3812,-91.1911"/>
</g>
<!-- Node11 -->
<g id="node11" class="node">
<title>Node11</title>
<polygon fill="#ffffff" stroke="#bfbfbf" points="119.7968,-196 119.7968,-215 165.7968,-215 165.7968,-196 119.7968,-196"/>
<text text-anchor="middle" x="142.7968" y="-203" font-family="Helvetica,sans-Serif" font-size="10.00" fill="#000000">stdio.h</text>
</g>
<!-- Node5&#45;&gt;Node11 -->
<g id="edge11" class="edge">
<title>Node5&#45;&gt;Node11</title>
<path fill="none" stroke="#191970" d="M188.495,-324.2259C182.0449,-315.2117 172.7622,-301.2584 166.7968,-288 157.5586,-267.4677 150.871,-242.4678 146.9378,-225.4061"/>
<polygon fill="#191970" stroke="#191970" points="150.3183,-224.4818 144.7518,-215.4671 143.4817,-225.9856 150.3183,-224.4818"/>
</g>
<!-- Node12 -->
<g id="node12" class="node">
<title>Node12</title>
<g id="a_node12"><a xlink:href="memory_8h.html" target="_top" xlink:title="sbml/util/memory.h">
<polygon fill="#ffffff" stroke="#000000" points="14.7968,-263 14.7968,-282 114.7968,-282 114.7968,-263 14.7968,-263"/>
<text text-anchor="middle" x="64.7968" y="-270" font-family="Helvetica,sans-Serif" font-size="10.00" fill="#000000">sbml/util/memory.h</text>
</a>
</g>
</g>
<!-- Node5&#45;&gt;Node12 -->
<g id="edge13" class="edge">
<title>Node5&#45;&gt;Node12</title>
<path fill="none" stroke="#191970" d="M175.328,-324.3906C153.6016,-314.1908 119.0633,-297.9763 94.3782,-286.3875"/>
<polygon fill="#191970" stroke="#191970" points="95.6613,-283.1234 85.1218,-282.0419 92.6865,-289.4598 95.6613,-283.1234"/>
</g>
<!-- Node13 -->
<g id="node13" class="node">
<title>Node13</title>
<g id="a_node13"><a xlink:href="util_8h.html" target="_top" xlink:title="Utility functions. ">
<polygon fill="#ffffff" stroke="#000000" points="209.2968,-263 209.2968,-282 286.2968,-282 286.2968,-263 209.2968,-263"/>
<text text-anchor="middle" x="247.7968" y="-270" font-family="Helvetica,sans-Serif" font-size="10.00" fill="#000000">sbml/util/util.h</text>
</a>
</g>
</g>
<!-- Node5&#45;&gt;Node13 -->
<g id="edge14" class="edge">
<title>Node5&#45;&gt;Node13</title>
<path fill="none" stroke="#191970" d="M203.9218,-324.3906C211.661,-315.2376 223.4955,-301.2409 232.9239,-290.09"/>
<polygon fill="#191970" stroke="#191970" points="235.7732,-292.1409 239.5572,-282.2449 230.4279,-287.6213 235.7732,-292.1409"/>
</g>
<!-- Node7 -->
<g id="node7" class="node">
<title>Node7</title>
<g id="a_node7"><a xlink:href="libsbml-namespace_8h.html" target="_top" xlink:title="Defines C++ namespace of libSBML. ">
<polygon fill="#ffffff" stroke="#000000" points="548.2968,-.5 548.2968,-30.5 661.2968,-30.5 661.2968,-.5 548.2968,-.5"/>
<text text-anchor="start" x="556.2968" y="-18.5" font-family="Helvetica,sans-Serif" font-size="10.00" fill="#000000">sbml/common/libsbml</text>
<text text-anchor="middle" x="604.7968" y="-7.5" font-family="Helvetica,sans-Serif" font-size="10.00" fill="#000000">&#45;namespace.h</text>
</a>
</g>
</g>
<!-- Node6&#45;&gt;Node7 -->
<g id="edge6" class="edge">
<title>Node6&#45;&gt;Node7</title>
<path fill="none" stroke="#191970" d="M507.0043,-190.4307C520.5629,-181.2899 536.7243,-168.5862 547.7968,-154 574.4006,-118.9538 590.7389,-69.7239 598.7588,-40.3744"/>
<polygon fill="#191970" stroke="#191970" points="602.1908,-41.0846 601.3407,-30.524 595.4195,-39.3097 602.1908,-41.0846"/>
</g>
<!-- Node8 -->
<g id="node8" class="node">
<title>Node8</title>
<g id="a_node8"><a xlink:href="libsbml-config-common_8h.html" target="_top" xlink:title="Configuration variables. ">
<polygon fill="#ffffff" stroke="#000000" points="294.2968,-123.5 294.2968,-153.5 407.2968,-153.5 407.2968,-123.5 294.2968,-123.5"/>
<text text-anchor="start" x="302.2968" y="-141.5" font-family="Helvetica,sans-Serif" font-size="10.00" fill="#000000">sbml/common/libsbml</text>
<text text-anchor="middle" x="350.7968" y="-130.5" font-family="Helvetica,sans-Serif" font-size="10.00" fill="#000000">&#45;config&#45;common.h</text>
</a>
</g>
</g>
<!-- Node6&#45;&gt;Node8 -->
<g id="edge7" class="edge">
<title>Node6&#45;&gt;Node8</title>
<path fill="none" stroke="#191970" d="M452.3978,-190.4639C433.8194,-180.9619 409.6058,-168.5779 389.4769,-158.283"/>
<polygon fill="#191970" stroke="#191970" points="391.0477,-155.1552 380.5509,-153.7177 387.8602,-161.3874 391.0477,-155.1552"/>
</g>
<!-- Node9 -->
<g id="node9" class="node">
<title>Node9</title>
<g id="a_node9"><a xlink:href="libsbml-version_8h.html" target="_top" xlink:title="Define libSBML version numbers for access from client software. ">
<polygon fill="#ffffff" stroke="#000000" points="425.2968,-123.5 425.2968,-153.5 538.2968,-153.5 538.2968,-123.5 425.2968,-123.5"/>
<text text-anchor="start" x="433.2968" y="-141.5" font-family="Helvetica,sans-Serif" font-size="10.00" fill="#000000">sbml/common/libsbml</text>
<text text-anchor="middle" x="481.7968" y="-130.5" font-family="Helvetica,sans-Serif" font-size="10.00" fill="#000000">&#45;version.h</text>
</a>
</g>
</g>
<!-- Node6&#45;&gt;Node9 -->
<g id="edge8" class="edge">
<title>Node6&#45;&gt;Node9</title>
<path fill="none" stroke="#191970" d="M481.7968,-190.2967C481.7968,-182.5013 481.7968,-172.7991 481.7968,-163.9064"/>
<polygon fill="#191970" stroke="#191970" points="485.2969,-163.6431 481.7968,-153.6432 478.2969,-163.6432 485.2969,-163.6431"/>
</g>
<!-- Node9&#45;&gt;Node10 -->
<g id="edge9" class="edge">
<title>Node9&#45;&gt;Node10</title>
<path fill="none" stroke="#191970" d="M481.3024,-123.2977C481.045,-115.3834 480.727,-105.6043 480.4496,-97.0759"/>
<polygon fill="#191970" stroke="#191970" points="483.9403,-96.7279 480.117,-86.8469 476.944,-96.9554 483.9403,-96.7279"/>
</g>
<!-- Node10&#45;&gt;Node7 -->
<g id="edge10" class="edge">
<title>Node10&#45;&gt;Node7</title>
<path fill="none" stroke="#191970" d="M499.328,-67.3906C516.8718,-58.7591 543.1704,-45.8202 565.1172,-35.0224"/>
<polygon fill="#191970" stroke="#191970" points="566.7907,-38.0997 574.2183,-30.5446 563.7004,-31.8188 566.7907,-38.0997"/>
</g>
<!-- Node13&#45;&gt;Node10 -->
<g id="edge17" class="edge">
<title>Node13&#45;&gt;Node10</title>
<path fill="none" stroke="#191970" d="M247.1161,-262.824C245.822,-236.3444 246.0933,-162.0696 285.7968,-123 303.4753,-105.6038 362.1543,-93.2692 410.3906,-85.7807"/>
<polygon fill="#191970" stroke="#191970" points="411.1399,-89.2074 420.5067,-84.2563 410.0967,-82.2856 411.1399,-89.2074"/>
</g>
<!-- Node13&#45;&gt;Node11 -->
<g id="edge15" class="edge">
<title>Node13&#45;&gt;Node11</title>
<path fill="none" stroke="#191970" d="M232.7528,-262.9005C215.4433,-251.8554 186.799,-233.5776 166.4879,-220.6172"/>
<polygon fill="#191970" stroke="#191970" points="168.1255,-217.5103 157.8128,-215.0817 164.3601,-223.4113 168.1255,-217.5103"/>
</g>
<!-- Node14 -->
<g id="node14" class="node">
<title>Node14</title>
<polygon fill="#ffffff" stroke="#bfbfbf" points="184.2968,-196 184.2968,-215 237.2968,-215 237.2968,-196 184.2968,-196"/>
<text text-anchor="middle" x="210.7968" y="-203" font-family="Helvetica,sans-Serif" font-size="10.00" fill="#000000">stdarg.h</text>
</g>
<!-- Node13&#45;&gt;Node14 -->
<g id="edge16" class="edge">
<title>Node13&#45;&gt;Node14</title>
<path fill="none" stroke="#191970" d="M242.4956,-262.9005C236.8906,-252.751 227.9129,-236.4941 220.9403,-223.8679"/>
<polygon fill="#191970" stroke="#191970" points="223.9863,-222.1435 216.0881,-215.0817 217.8586,-225.5275 223.9863,-222.1435"/>
</g>
<!-- Node15&#45;&gt;Node11 -->
<g id="edge19" class="edge">
<title>Node15&#45;&gt;Node11</title>
<path fill="none" stroke="#191970" d="M367.5676,-327.3805C310.7425,-319.74 226.8249,-305.8944 199.7968,-288 176.2952,-272.4404 159.7216,-243.5641 150.713,-224.4382"/>
<polygon fill="#191970" stroke="#191970" points="153.864,-222.9105 146.5926,-215.2049 147.4716,-225.7632 153.864,-222.9105"/>
</g>
<!-- Node15&#45;&gt;Node13 -->
<g id="edge25" class="edge">
<title>Node15&#45;&gt;Node13</title>
<path fill="none" stroke="#191970" d="M395.453,-324.3906C365.6586,-313.92 317.8283,-297.1111 284.716,-285.4745"/>
<polygon fill="#191970" stroke="#191970" points="285.5433,-282.0554 274.9485,-282.0419 283.2224,-288.6595 285.5433,-282.0554"/>
</g>
<!-- Node16 -->
<g id="node16" class="node">
<title>Node16</title>
<g id="a_node16"><a xlink:href="_x_m_l_extern_8h.html" target="_top" xlink:title="Defines LIBLAX_EXTERN. ">
<polygon fill="#ffffff" stroke="#000000" points="577.2968,-263 577.2968,-282 694.2968,-282 694.2968,-263 577.2968,-263"/>
<text text-anchor="middle" x="635.7968" y="-270" font-family="Helvetica,sans-Serif" font-size="10.00" fill="#000000">sbml/xml/XMLExtern.h</text>
</a>
</g>
</g>
<!-- Node15&#45;&gt;Node16 -->
<g id="edge20" class="edge">
<title>Node15&#45;&gt;Node16</title>
<path fill="none" stroke="#191970" d="M456.078,-324.3906C492.9673,-313.7395 552.5724,-296.5296 592.9293,-284.8772"/>
<polygon fill="#191970" stroke="#191970" points="594.1126,-288.1786 602.7492,-282.0419 592.1708,-281.4533 594.1126,-288.1786"/>
</g>
<!-- Node17 -->
<g id="node17" class="node">
<title>Node17</title>
<g id="a_node17"><a xlink:href="sbmlfwd_8h.html" target="_top" xlink:title="Forward declarations for all opaque C types. ">
<polygon fill="#ffffff" stroke="#000000" points="712.2968,-263 712.2968,-282 839.2968,-282 839.2968,-263 712.2968,-263"/>
<text text-anchor="middle" x="775.7968" y="-270" font-family="Helvetica,sans-Serif" font-size="10.00" fill="#000000">sbml/common/sbmlfwd.h</text>
</a>
</g>
</g>
<!-- Node15&#45;&gt;Node17 -->
<g id="edge22" class="edge">
<title>Node15&#45;&gt;Node17</title>
<path fill="none" stroke="#191970" d="M477.8601,-325.8153C534.6164,-317.1847 625.5977,-302.8084 703.7968,-288 710.0626,-286.8135 716.6199,-285.5009 723.1171,-284.1565"/>
<polygon fill="#191970" stroke="#191970" points="724.1612,-287.5136 733.2272,-282.0312 722.7211,-280.6633 724.1612,-287.5136"/>
</g>
<!-- Node18 -->
<g id="node18" class="node">
<title>Node18</title>
<polygon fill="#ffffff" stroke="#bfbfbf" points="343.2968,-263 343.2968,-282 388.2968,-282 388.2968,-263 343.2968,-263"/>
<text text-anchor="middle" x="365.7968" y="-270" font-family="Helvetica,sans-Serif" font-size="10.00" fill="#000000">iosfwd</text>
</g>
<!-- Node15&#45;&gt;Node18 -->
<g id="edge26" class="edge">
<title>Node15&#45;&gt;Node18</title>
<path fill="none" stroke="#191970" d="M413.8905,-324.3906C405.324,-315.1478 392.1799,-300.966 381.7965,-289.7628"/>
<polygon fill="#191970" stroke="#191970" points="384.1933,-287.2 374.8286,-282.2449 379.0593,-291.9584 384.1933,-287.2"/>
</g>
<!-- Node19 -->
<g id="node19" class="node">
<title>Node19</title>
<polygon fill="#ffffff" stroke="#bfbfbf" points="857.2968,-263 857.2968,-282 898.2968,-282 898.2968,-263 857.2968,-263"/>
<text text-anchor="middle" x="877.7968" y="-270" font-family="Helvetica,sans-Serif" font-size="10.00" fill="#000000">string</text>
</g>
<!-- Node15&#45;&gt;Node19 -->
<g id="edge27" class="edge">
<title>Node15&#45;&gt;Node19</title>
<path fill="none" stroke="#191970" d="M477.883,-328.615C589.0764,-317.6673 831.3147,-293.3927 848.7968,-288 850.2628,-287.5478 851.7407,-287.0197 853.2117,-286.4366"/>
<polygon fill="#191970" stroke="#191970" points="855.0614,-289.4346 862.6226,-282.0131 852.0836,-283.0995 855.0614,-289.4346"/>
</g>
<!-- Node20 -->
<g id="node20" class="node">
<title>Node20</title>
<g id="a_node20"><a xlink:href="operation_return_values_8h.html" target="_top" xlink:title="Enumeration of values returned by operations within libSBML. ">
<polygon fill="#ffffff" stroke="#000000" points="406.2968,-257.5 406.2968,-287.5 559.2968,-287.5 559.2968,-257.5 406.2968,-257.5"/>
<text text-anchor="start" x="414.2968" y="-275.5" font-family="Helvetica,sans-Serif" font-size="10.00" fill="#000000">sbml/common/operationReturn</text>
<text text-anchor="middle" x="482.7968" y="-264.5" font-family="Helvetica,sans-Serif" font-size="10.00" fill="#000000">Values.h</text>
</a>
</g>
</g>
<!-- Node15&#45;&gt;Node20 -->
<g id="edge28" class="edge">
<title>Node15&#45;&gt;Node20</title>
<path fill="none" stroke="#191970" d="M432.1718,-324.3906C439.8409,-316.5298 450.9954,-305.0964 460.8834,-294.9612"/>
<polygon fill="#191970" stroke="#191970" points="463.6411,-297.1466 468.1191,-287.5446 458.6306,-292.2583 463.6411,-297.1466"/>
</g>
<!-- Node16&#45;&gt;Node7 -->
<g id="edge21" class="edge">
<title>Node16&#45;&gt;Node7</title>
<path fill="none" stroke="#191970" d="M634.6194,-262.7391C630.2025,-226.1213 614.5308,-96.1979 607.8498,-40.811"/>
<polygon fill="#191970" stroke="#191970" points="611.312,-40.286 606.6395,-30.7771 604.3624,-41.1244 611.312,-40.286"/>
</g>
<!-- Node17&#45;&gt;Node6 -->
<g id="edge24" class="edge">
<title>Node17&#45;&gt;Node6</title>
<path fill="none" stroke="#191970" d="M733.986,-262.9717C685.6058,-251.9463 605.3033,-233.646 548.3212,-220.6603"/>
<polygon fill="#191970" stroke="#191970" points="548.8492,-217.191 538.3215,-218.3815 547.2938,-224.016 548.8492,-217.191"/>
</g>
<!-- Node17&#45;&gt;Node7 -->
<g id="edge23" class="edge">
<title>Node17&#45;&gt;Node7</title>
<path fill="none" stroke="#191970" d="M769.3022,-262.7391C744.684,-225.7399 656.683,-93.481 620.5025,-39.1046"/>
<polygon fill="#191970" stroke="#191970" points="623.4152,-37.1638 614.9617,-30.7771 617.5874,-41.0415 623.4152,-37.1638"/>
</g>
<!-- Node20&#45;&gt;Node10 -->
<g id="edge29" class="edge">
<title>Node20&#45;&gt;Node10</title>
<path fill="none" stroke="#191970" d="M512.311,-257.291C525.7691,-248.6371 540.3386,-236.4245 547.7968,-221 566.7569,-181.7878 568.219,-161.471 547.7968,-123 540.4122,-109.0889 526.7332,-98.6166 513.5696,-91.2062"/>
<polygon fill="#191970" stroke="#191970" points="515.1101,-88.0625 504.6223,-86.5605 511.8844,-94.275 515.1101,-88.0625"/>
</g>
<!-- Node21&#45;&gt;Node16 -->
<g id="edge31" class="edge">
<title>Node21&#45;&gt;Node16</title>
<path fill="none" stroke="#191970" d="M641.5385,-380.2433C636.1612,-371.2409 628.8125,-357.2951 625.7968,-344 621.864,-326.6617 625.3593,-306.5863 629.2587,-292.1298"/>
<polygon fill="#191970" stroke="#191970" points="632.6839,-292.8924 632.203,-282.3085 625.9787,-290.8823 632.6839,-292.8924"/>
</g>
<!-- Node21&#45;&gt;Node17 -->
<g id="edge32" class="edge">
<title>Node21&#45;&gt;Node17</title>
<path fill="none" stroke="#191970" d="M694.2578,-380.4272C716.0808,-373.6834 740.761,-362.4467 756.7968,-344 769.2733,-329.6477 773.6734,-307.9797 775.1659,-292.2594"/>
<polygon fill="#191970" stroke="#191970" points="778.6732,-292.2548 775.8127,-282.0534 771.6872,-291.812 778.6732,-292.2548"/>
</g>
<!-- Node21&#45;&gt;Node19 -->
<g id="edge34" class="edge">
<title>Node21&#45;&gt;Node19</title>
<path fill="none" stroke="#191970" d="M681.9763,-380.4418C708.3706,-372.4212 745.3977,-359.7563 775.7968,-344 806.4034,-328.1361 838.4433,-304.3048 858.2638,-288.5799"/>
<polygon fill="#191970" stroke="#191970" points="860.6175,-291.1784 866.216,-282.1835 856.2302,-285.7239 860.6175,-291.1784"/>
</g>
<!-- Node21&#45;&gt;Node20 -->
<g id="edge33" class="edge">
<title>Node21&#45;&gt;Node20</title>
<path fill="none" stroke="#191970" d="M600.6787,-380.4274C575.9758,-373.5467 546.4413,-362.1859 524.7968,-344 509.9684,-331.5411 499.1262,-312.4311 492.1756,-297.1012"/>
<polygon fill="#191970" stroke="#191970" points="495.3032,-295.5123 488.1672,-287.681 488.8621,-298.2531 495.3032,-295.5123"/>
</g>
<!-- Node22 -->
<g id="node22" class="node">
<title>Node22</title>
<polygon fill="#ffffff" stroke="#bfbfbf" points="533.7968,-324.5 533.7968,-343.5 577.7968,-343.5 577.7968,-324.5 533.7968,-324.5"/>
<text text-anchor="middle" x="555.7968" y="-331.5" font-family="Helvetica,sans-Serif" font-size="10.00" fill="#000000">vector</text>
</g>
<!-- Node21&#45;&gt;Node22 -->
<g id="edge35" class="edge">
<title>Node21&#45;&gt;Node22</title>
<path fill="none" stroke="#191970" d="M631.7716,-380.2455C617.656,-371.6534 596.8704,-359.0014 580.6069,-349.1018"/>
<polygon fill="#191970" stroke="#191970" points="582.0001,-345.8525 571.6383,-343.6427 578.3605,-351.8319 582.0001,-345.8525"/>
</g>
<!-- Node23 -->
<g id="node23" class="node">
<title>Node23</title>
<polygon fill="#ffffff" stroke="#bfbfbf" points="842.2968,-324.5 842.2968,-343.5 901.2968,-343.5 901.2968,-324.5 842.2968,-324.5"/>
<text text-anchor="middle" x="871.7968" y="-331.5" font-family="Helvetica,sans-Serif" font-size="10.00" fill="#000000">stdexcept</text>
</g>
<!-- Node21&#45;&gt;Node23 -->
<g id="edge36" class="edge">
<title>Node21&#45;&gt;Node23</title>
<path fill="none" stroke="#191970" d="M686.0492,-380.4369C726.8276,-370.2423 791.0854,-354.1778 832.3247,-343.868"/>
<polygon fill="#191970" stroke="#191970" points="833.4325,-347.1989 842.285,-341.3779 831.7347,-340.4079 833.4325,-347.1989"/>
</g>
<!-- Node24 -->
<g id="node24" class="node">
<title>Node24</title>
<g id="a_node24"><a xlink:href="_x_m_l_triple_8h.html" target="_top" xlink:title="Stores an XML namespace triple. ">
<polygon fill="#ffffff" stroke="#000000" points="634.2968,-324.5 634.2968,-343.5 747.2968,-343.5 747.2968,-324.5 634.2968,-324.5"/>
<text text-anchor="middle" x="690.7968" y="-331.5" font-family="Helvetica,sans-Serif" font-size="10.00" fill="#000000">sbml/xml/XMLTriple.h</text>
</a>
</g>
</g>
<!-- Node21&#45;&gt;Node24 -->
<g id="edge37" class="edge">
<title>Node21&#45;&gt;Node24</title>
<path fill="none" stroke="#191970" d="M655.2868,-380.2455C661.3294,-372.3761 669.9871,-361.101 677.2409,-351.6542"/>
<polygon fill="#191970" stroke="#191970" points="680.0783,-353.7058 683.3926,-343.6427 674.5262,-349.4426 680.0783,-353.7058"/>
</g>
<!-- Node24&#45;&gt;Node16 -->
<g id="edge38" class="edge">
<title>Node24&#45;&gt;Node16</title>
<path fill="none" stroke="#191970" d="M682.203,-324.3906C673.9371,-315.1478 661.2542,-300.966 651.2351,-289.7628"/>
<polygon fill="#191970" stroke="#191970" points="653.7868,-287.3657 644.5117,-282.2449 648.569,-292.0321 653.7868,-287.3657"/>
</g>
<!-- Node24&#45;&gt;Node17 -->
<g id="edge39" class="edge">
<title>Node24&#45;&gt;Node17</title>
<path fill="none" stroke="#191970" d="M704.078,-324.3906C717.5516,-314.6421 738.6187,-299.3994 754.4403,-287.9521"/>
<polygon fill="#191970" stroke="#191970" points="756.5587,-290.7394 762.6088,-282.0419 752.4553,-285.0682 756.5587,-290.7394"/>
</g>
<!-- Node24&#45;&gt;Node19 -->
<g id="edge40" class="edge">
<title>Node24&#45;&gt;Node19</title>
<path fill="none" stroke="#191970" d="M732.1812,-324.4581C764.5273,-316.4057 810.3037,-303.6915 848.7968,-288 849.8276,-287.5798 850.8697,-287.1336 851.9153,-286.668"/>
<polygon fill="#191970" stroke="#191970" points="853.7668,-289.6587 861.2133,-282.1221 850.6922,-283.3701 853.7668,-289.6587"/>
</g>
<!-- Node25&#45;&gt;Node17 -->
<g id="edge42" class="edge">
<title>Node25&#45;&gt;Node17</title>
<path fill="none" stroke="#191970" d="M906.2751,-380.0838C913.093,-366.2607 922.4986,-340.9884 910.7968,-324 900.5005,-309.0521 858.705,-294.547 824.3131,-284.7607"/>
<polygon fill="#191970" stroke="#191970" points="824.954,-281.3063 814.3822,-282.0047 823.0821,-288.0514 824.954,-281.3063"/>
</g>
<!-- Node25&#45;&gt;Node19 -->
<g id="edge43" class="edge">
<title>Node25&#45;&gt;Node19</title>
<path fill="none" stroke="#191970" d="M914.6987,-380.3902C930.8889,-367.9275 954.1746,-345.2613 943.7968,-324 936.1091,-308.2502 921.0199,-295.9113 907.2077,-287.2644"/>
<polygon fill="#191970" stroke="#191970" points="908.8052,-284.1441 898.4062,-282.1166 905.2711,-290.1865 908.8052,-284.1441"/>
</g>
<!-- Node25&#45;&gt;Node23 -->
<g id="edge44" class="edge">
<title>Node25&#45;&gt;Node23</title>
<path fill="none" stroke="#191970" d="M895.7454,-380.2455C891.7949,-372.617 886.1871,-361.7881 881.391,-352.5267"/>
<polygon fill="#191970" stroke="#191970" points="884.4969,-350.9131 876.7903,-343.6427 878.2809,-354.1321 884.4969,-350.9131"/>
</g>
</g>
</svg>
