<?xml version="1.0" encoding="UTF-8" standalone="no"?>
<!DOCTYPE svg PUBLIC "-//W3C//DTD SVG 1.1//EN"
 "http://www.w3.org/Graphics/SVG/1.1/DTD/svg11.dtd">
<!-- Generated by graphviz version 2.40.1 (20161225.0304)
 -->
<!-- Title: XMLOutputStream.h Pages: 1 -->
<svg width="444pt" height="341pt"
 viewBox="0.00 0.00 444.14 341.00" xmlns="http://www.w3.org/2000/svg" xmlns:xlink="http://www.w3.org/1999/xlink">
<g id="graph0" class="graph" transform="scale(1 1) rotate(0) translate(4 337)">
<title>XMLOutputStream.h</title>
<polygon fill="#ffffff" stroke="transparent" points="-4,4 -4,-337 440.1396,-337 440.1396,4 -4,4"/>
<!-- Node1 -->
<g id="node1" class="node">
<title>Node1</title>
<polygon fill="#bfbfbf" stroke="#000000" points="225.6591,-313.5 225.6591,-332.5 310.6591,-332.5 310.6591,-313.5 225.6591,-313.5"/>
<text text-anchor="middle" x="268.1591" y="-320.5" font-family="Helvetica,sans-Serif" font-size="10.00" fill="#000000">XMLOutputStream.h</text>
</g>
<!-- Node2 -->
<g id="node2" class="node">
<title>Node2</title>
<g id="a_node2"><a xlink:href="sbmlfwd_8h.html" target="_top" xlink:title="Forward declarations for all opaque C types. ">
<polygon fill="#ffffff" stroke="#000000" points="5.6591,-257.5 5.6591,-276.5 104.6591,-276.5 104.6591,-257.5 5.6591,-257.5"/>
<text text-anchor="middle" x="55.1591" y="-264.5" font-family="Helvetica,sans-Serif" font-size="10.00" fill="#000000">sbml/common/sbmlfwd.h</text>
</a>
</g>
</g>
<!-- Node1&#45;&gt;Node2 -->
<g id="edge1" class="edge">
<title>Node1&#45;&gt;Node2</title>
<path fill="none" stroke="#191970" d="M231.5431,-313.3733C195.5112,-303.9001 140.3714,-289.4032 101.3478,-279.1435"/>
<polygon fill="#191970" stroke="#191970" points="101.8587,-275.6589 91.2973,-276.5011 100.0787,-282.4289 101.8587,-275.6589"/>
</g>
<!-- Node6 -->
<g id="node6" class="node">
<title>Node6</title>
<g id="a_node6"><a xlink:href="libsbml-version_8h.html" target="_top" xlink:title="Define libSBML version numbers for access from client software. ">
<polygon fill="#ffffff" stroke="#000000" points="138.6591,-123.5 138.6591,-153.5 227.6591,-153.5 227.6591,-123.5 138.6591,-123.5"/>
<text text-anchor="start" x="146.6591" y="-141.5" font-family="Helvetica,sans-Serif" font-size="10.00" fill="#000000">sbml/common/libsbml</text>
<text text-anchor="middle" x="183.1591" y="-130.5" font-family="Helvetica,sans-Serif" font-size="10.00" fill="#000000">&#45;version.h</text>
</a>
</g>
</g>
<!-- Node1&#45;&gt;Node6 -->
<g id="edge14" class="edge">
<title>Node1&#45;&gt;Node6</title>
<path fill="none" stroke="#191970" d="M225.6369,-318.0394C199.7198,-312.5781 168.5311,-301.1046 152.1591,-277 128.4238,-242.0542 150.3837,-191.7969 167.4795,-162.41"/>
<polygon fill="#191970" stroke="#191970" points="170.6006,-164.0132 172.795,-153.6481 164.6158,-160.3824 170.6006,-164.0132"/>
</g>
<!-- Node8 -->
<g id="node8" class="node">
<title>Node8</title>
<polygon fill="#ffffff" stroke="#bfbfbf" points="161.6591,-257.5 161.6591,-276.5 206.6591,-276.5 206.6591,-257.5 161.6591,-257.5"/>
<text text-anchor="middle" x="184.1591" y="-264.5" font-family="Helvetica,sans-Serif" font-size="10.00" fill="#000000">iostream</text>
</g>
<!-- Node1&#45;&gt;Node8 -->
<g id="edge9" class="edge">
<title>Node1&#45;&gt;Node8</title>
<path fill="none" stroke="#191970" d="M253.5275,-313.2455C240.7597,-304.7337 222.0154,-292.2375 207.2293,-282.3801"/>
<polygon fill="#191970" stroke="#191970" points="208.8851,-279.2775 198.6232,-276.6427 205.0022,-285.1019 208.8851,-279.2775"/>
</g>
<!-- Node9 -->
<g id="node9" class="node">
<title>Node9</title>
<polygon fill="#ffffff" stroke="#bfbfbf" points="225.1591,-257.5 225.1591,-276.5 259.1591,-276.5 259.1591,-257.5 225.1591,-257.5"/>
<text text-anchor="middle" x="242.1591" y="-264.5" font-family="Helvetica,sans-Serif" font-size="10.00" fill="#000000">limits</text>
</g>
<!-- Node1&#45;&gt;Node9 -->
<g id="edge10" class="edge">
<title>Node1&#45;&gt;Node9</title>
<path fill="none" stroke="#191970" d="M263.6303,-313.2455C260.1258,-305.6973 255.1665,-295.0158 250.8969,-285.8197"/>
<polygon fill="#191970" stroke="#191970" points="254.0218,-284.2389 246.6361,-276.6427 247.6727,-287.1867 254.0218,-284.2389"/>
</g>
<!-- Node10 -->
<g id="node10" class="node">
<title>Node10</title>
<polygon fill="#ffffff" stroke="#bfbfbf" points="277.1591,-257.5 277.1591,-276.5 313.1591,-276.5 313.1591,-257.5 277.1591,-257.5"/>
<text text-anchor="middle" x="295.1591" y="-264.5" font-family="Helvetica,sans-Serif" font-size="10.00" fill="#000000">locale</text>
</g>
<!-- Node1&#45;&gt;Node10 -->
<g id="edge11" class="edge">
<title>Node1&#45;&gt;Node10</title>
<path fill="none" stroke="#191970" d="M272.8622,-313.2455C276.5015,-305.6973 281.6515,-295.0158 286.0853,-285.8197"/>
<polygon fill="#191970" stroke="#191970" points="289.3196,-287.1704 290.51,-276.6427 283.0143,-284.1303 289.3196,-287.1704"/>
</g>
<!-- Node11 -->
<g id="node11" class="node">
<title>Node11</title>
<polygon fill="#ffffff" stroke="#bfbfbf" points="331.6591,-257.5 331.6591,-276.5 366.6591,-276.5 366.6591,-257.5 331.6591,-257.5"/>
<text text-anchor="middle" x="349.1591" y="-264.5" font-family="Helvetica,sans-Serif" font-size="10.00" fill="#000000">string</text>
</g>
<!-- Node1&#45;&gt;Node11 -->
<g id="edge12" class="edge">
<title>Node1&#45;&gt;Node11</title>
<path fill="none" stroke="#191970" d="M282.2683,-313.2455C294.58,-304.7337 312.6549,-292.2375 326.913,-282.3801"/>
<polygon fill="#191970" stroke="#191970" points="328.9765,-285.2085 335.2117,-276.6427 324.9957,-279.4506 328.9765,-285.2085"/>
</g>
<!-- Node12 -->
<g id="node12" class="node">
<title>Node12</title>
<polygon fill="#ffffff" stroke="#bfbfbf" points="384.6591,-257.5 384.6591,-276.5 421.6591,-276.5 421.6591,-257.5 384.6591,-257.5"/>
<text text-anchor="middle" x="403.1591" y="-264.5" font-family="Helvetica,sans-Serif" font-size="10.00" fill="#000000">time.h</text>
</g>
<!-- Node1&#45;&gt;Node12 -->
<g id="edge13" class="edge">
<title>Node1&#45;&gt;Node12</title>
<path fill="none" stroke="#191970" d="M291.3665,-313.3733C314.557,-303.7535 350.2359,-288.9534 375.0254,-278.6703"/>
<polygon fill="#191970" stroke="#191970" points="376.6947,-281.7671 384.5905,-274.7026 374.0126,-275.3013 376.6947,-281.7671"/>
</g>
<!-- Node13 -->
<g id="node13" class="node">
<title>Node13</title>
<g id="a_node13"><a xlink:href="_x_m_l_extern_8h.html" target="_top" xlink:title="Defines LIBLAX_EXTERN. ">
<polygon fill="#ffffff" stroke="#000000" points="307.1591,-196 307.1591,-215 399.1591,-215 399.1591,-196 307.1591,-196"/>
<text text-anchor="middle" x="353.1591" y="-203" font-family="Helvetica,sans-Serif" font-size="10.00" fill="#000000">sbml/xml/XMLExtern.h</text>
</a>
</g>
</g>
<!-- Node1&#45;&gt;Node13 -->
<g id="edge15" class="edge">
<title>Node1&#45;&gt;Node13</title>
<path fill="none" stroke="#191970" d="M310.9414,-316.8302C354.1879,-309.6146 416.6526,-296.167 431.1591,-277 448.4402,-254.1671 415.7569,-232.6307 387.5489,-219.2775"/>
<polygon fill="#191970" stroke="#191970" points="388.7874,-215.9966 378.2329,-215.0727 385.9076,-222.3768 388.7874,-215.9966"/>
</g>
<!-- Node3 -->
<g id="node3" class="node">
<title>Node3</title>
<g id="a_node3"><a xlink:href="libsbml-namespace_8h.html" target="_top" xlink:title="Defines C++ namespace of libSBML. ">
<polygon fill="#ffffff" stroke="#000000" points="21.6591,-.5 21.6591,-30.5 110.6591,-30.5 110.6591,-.5 21.6591,-.5"/>
<text text-anchor="start" x="29.6591" y="-18.5" font-family="Helvetica,sans-Serif" font-size="10.00" fill="#000000">sbml/common/libsbml</text>
<text text-anchor="middle" x="66.1591" y="-7.5" font-family="Helvetica,sans-Serif" font-size="10.00" fill="#000000">&#45;namespace.h</text>
</a>
</g>
</g>
<!-- Node2&#45;&gt;Node3 -->
<g id="edge2" class="edge">
<title>Node2&#45;&gt;Node3</title>
<path fill="none" stroke="#191970" d="M38.1024,-257.377C25.8503,-249.4014 10.2883,-236.8248 3.1591,-221 -2.5,-208.4381 1.8409,-203.7146 3.1591,-190 8.5051,-134.3817 6.0928,-117.8913 29.1591,-67 33.6586,-57.0729 40.2114,-47.1219 46.5565,-38.6501"/>
<polygon fill="#191970" stroke="#191970" points="49.3485,-40.7615 52.7487,-30.727 43.8331,-36.4509 49.3485,-40.7615"/>
</g>
<!-- Node4 -->
<g id="node4" class="node">
<title>Node4</title>
<g id="a_node4"><a xlink:href="libsbml-config_8h.html" target="_top" xlink:title="Decides whether to #include Unix or Windows configuration variables. ">
<polygon fill="#ffffff" stroke="#000000" points="12.6591,-190.5 12.6591,-220.5 101.6591,-220.5 101.6591,-190.5 12.6591,-190.5"/>
<text text-anchor="start" x="20.6591" y="-208.5" font-family="Helvetica,sans-Serif" font-size="10.00" fill="#000000">sbml/common/libsbml</text>
<text text-anchor="middle" x="57.1591" y="-197.5" font-family="Helvetica,sans-Serif" font-size="10.00" fill="#000000">&#45;config.h</text>
</a>
</g>
</g>
<!-- Node2&#45;&gt;Node4 -->
<g id="edge3" class="edge">
<title>Node2&#45;&gt;Node4</title>
<path fill="none" stroke="#191970" d="M55.4716,-257.3906C55.7047,-250.2234 56.0344,-240.0862 56.3406,-230.671"/>
<polygon fill="#191970" stroke="#191970" points="59.8429,-230.6531 56.6699,-220.5446 52.8466,-230.4255 59.8429,-230.6531"/>
</g>
<!-- Node4&#45;&gt;Node3 -->
<g id="edge4" class="edge">
<title>Node4&#45;&gt;Node3</title>
<path fill="none" stroke="#191970" d="M43.0724,-190.1152C35.2525,-180.5028 26.2915,-167.4322 22.1591,-154 18.1079,-140.8313 19.4996,-136.5187 22.1591,-123 28.0666,-92.9721 42.4324,-60.7682 53.1524,-39.5205"/>
<polygon fill="#191970" stroke="#191970" points="56.2931,-41.0666 57.7777,-30.5762 50.0753,-37.8511 56.2931,-41.0666"/>
</g>
<!-- Node5 -->
<g id="node5" class="node">
<title>Node5</title>
<g id="a_node5"><a xlink:href="libsbml-config-common_8h.html" target="_top" xlink:title="Configuration variables. ">
<polygon fill="#ffffff" stroke="#000000" points="31.6591,-123.5 31.6591,-153.5 120.6591,-153.5 120.6591,-123.5 31.6591,-123.5"/>
<text text-anchor="start" x="39.6591" y="-141.5" font-family="Helvetica,sans-Serif" font-size="10.00" fill="#000000">sbml/common/libsbml</text>
<text text-anchor="middle" x="76.1591" y="-130.5" font-family="Helvetica,sans-Serif" font-size="10.00" fill="#000000">&#45;config&#45;common.h</text>
</a>
</g>
</g>
<!-- Node4&#45;&gt;Node5 -->
<g id="edge5" class="edge">
<title>Node4&#45;&gt;Node5</title>
<path fill="none" stroke="#191970" d="M61.4705,-190.2967C63.7298,-182.3299 66.5537,-172.3718 69.1203,-163.3213"/>
<polygon fill="#191970" stroke="#191970" points="72.5037,-164.2187 71.8648,-153.6432 65.7693,-162.3089 72.5037,-164.2187"/>
</g>
<!-- Node4&#45;&gt;Node6 -->
<g id="edge6" class="edge">
<title>Node4&#45;&gt;Node6</title>
<path fill="none" stroke="#191970" d="M85.436,-190.4639C103.2248,-181.0047 126.385,-168.6894 145.6935,-158.4222"/>
<polygon fill="#191970" stroke="#191970" points="147.3546,-161.503 154.5407,-153.7177 144.0681,-155.3225 147.3546,-161.503"/>
</g>
<!-- Node7 -->
<g id="node7" class="node">
<title>Node7</title>
<g id="a_node7"><a xlink:href="extern_8h.html" target="_top" xlink:title="Definitions of LIBSBML_EXTERN and related things. ">
<polygon fill="#ffffff" stroke="#000000" points="84.1591,-67.5 84.1591,-86.5 176.1591,-86.5 176.1591,-67.5 84.1591,-67.5"/>
<text text-anchor="middle" x="130.1591" y="-74.5" font-family="Helvetica,sans-Serif" font-size="10.00" fill="#000000">sbml/common/extern.h</text>
</a>
</g>
</g>
<!-- Node6&#45;&gt;Node7 -->
<g id="edge7" class="edge">
<title>Node6&#45;&gt;Node7</title>
<path fill="none" stroke="#191970" d="M170.058,-123.2977C162.5478,-114.5831 153.0892,-103.6075 145.2665,-94.5302"/>
<polygon fill="#191970" stroke="#191970" points="147.8246,-92.1372 138.6451,-86.8469 142.522,-96.707 147.8246,-92.1372"/>
</g>
<!-- Node7&#45;&gt;Node3 -->
<g id="edge8" class="edge">
<title>Node7&#45;&gt;Node3</title>
<path fill="none" stroke="#191970" d="M120.1591,-67.3906C111.8985,-59.4527 99.8469,-47.8718 89.2236,-37.6635"/>
<polygon fill="#191970" stroke="#191970" points="91.4509,-34.9498 81.8153,-30.5446 86.6007,-39.9971 91.4509,-34.9498"/>
</g>
<!-- Node13&#45;&gt;Node3 -->
<g id="edge16" class="edge">
<title>Node13&#45;&gt;Node3</title>
<path fill="none" stroke="#191970" d="M343.3228,-195.6585C318.5652,-171.2948 250.9422,-107.2361 185.1591,-67 164.1649,-54.1589 139.4002,-42.8934 117.9139,-34.1996"/>
<polygon fill="#191970" stroke="#191970" points="119.1994,-30.9442 108.6133,-30.5122 116.6194,-37.4515 119.1994,-30.9442"/>
</g>
</g>
</svg>
