<?xml version="1.0" encoding="UTF-8" standalone="no"?>
<!DOCTYPE svg PUBLIC "-//W3C//DTD SVG 1.1//EN"
 "http://www.w3.org/Graphics/SVG/1.1/DTD/svg11.dtd">
<!-- Generated by graphviz version 2.40.1 (20161225.0304)
 -->
<!-- Title: ReplacedElement Pages: 1 -->
<svg width="103pt" height="252pt"
 viewBox="0.00 0.00 103.00 252.00" xmlns="http://www.w3.org/2000/svg" xmlns:xlink="http://www.w3.org/1999/xlink">
<g id="graph0" class="graph" transform="scale(1 1) rotate(0) translate(4 248)">
<title>ReplacedElement</title>
<polygon fill="#ffffff" stroke="transparent" points="-4,4 -4,-248 99,-248 99,4 -4,4"/>
<!-- Node1 -->
<g id="node1" class="node">
<title>Node1</title>
<polygon fill="#bfbfbf" stroke="#000000" points="0,-.5 0,-19.5 95,-19.5 95,-.5 0,-.5"/>
<text text-anchor="middle" x="47.5" y="-7.5" font-family="Helvetica,sans-Serif" font-size="10.00" fill="#000000">ReplacedElement</text>
</g>
<!-- Node2 -->
<g id="node2" class="node">
<title>Node2</title>
<g id="a_node2"><a xlink:href="class_replacing.html" target="_top" xlink:title=" Convenience class. ">
<polygon fill="#ffffff" stroke="#000000" points="17,-56.5 17,-75.5 78,-75.5 78,-56.5 17,-56.5"/>
<text text-anchor="middle" x="47.5" y="-63.5" font-family="Helvetica,sans-Serif" font-size="10.00" fill="#000000">Replacing</text>
</a>
</g>
</g>
<!-- Node2&#45;&gt;Node1 -->
<g id="edge1" class="edge">
<title>Node2&#45;&gt;Node1</title>
<path fill="none" stroke="#191970" d="M47.5,-46.1575C47.5,-37.155 47.5,-26.9199 47.5,-19.6427"/>
<polygon fill="#191970" stroke="#191970" points="44.0001,-46.2455 47.5,-56.2455 51.0001,-46.2456 44.0001,-46.2455"/>
</g>
<!-- Node3 -->
<g id="node3" class="node">
<title>Node3</title>
<g id="a_node3"><a xlink:href="class_s_base_ref.html" target="_top" xlink:title=" Base class for references to objects. ">
<polygon fill="#ffffff" stroke="#000000" points="16.5,-112.5 16.5,-131.5 78.5,-131.5 78.5,-112.5 16.5,-112.5"/>
<text text-anchor="middle" x="47.5" y="-119.5" font-family="Helvetica,sans-Serif" font-size="10.00" fill="#000000">SBaseRef</text>
</a>
</g>
</g>
<!-- Node3&#45;&gt;Node2 -->
<g id="edge2" class="edge">
<title>Node3&#45;&gt;Node2</title>
<path fill="none" stroke="#191970" d="M47.5,-102.1575C47.5,-93.155 47.5,-82.9199 47.5,-75.6427"/>
<polygon fill="#191970" stroke="#191970" points="44.0001,-102.2455 47.5,-112.2455 51.0001,-102.2456 44.0001,-102.2455"/>
</g>
<!-- Node4 -->
<g id="node4" class="node">
<title>Node4</title>
<g id="a_node4"><a xlink:href="class_comp_base.html" target="_top" xlink:title=" Convenience class for SBase&#45;derived classes. ">
<polygon fill="#ffffff" stroke="#000000" points="14.5,-168.5 14.5,-187.5 80.5,-187.5 80.5,-168.5 14.5,-168.5"/>
<text text-anchor="middle" x="47.5" y="-175.5" font-family="Helvetica,sans-Serif" font-size="10.00" fill="#000000">CompBase</text>
</a>
</g>
</g>
<!-- Node4&#45;&gt;Node3 -->
<g id="edge3" class="edge">
<title>Node4&#45;&gt;Node3</title>
<path fill="none" stroke="#191970" d="M47.5,-158.1575C47.5,-149.155 47.5,-138.9199 47.5,-131.6427"/>
<polygon fill="#191970" stroke="#191970" points="44.0001,-158.2455 47.5,-168.2455 51.0001,-158.2456 44.0001,-158.2455"/>
</g>
<!-- Node5 -->
<g id="node5" class="node">
<title>Node5</title>
<g id="a_node5"><a xlink:href="class_s_base.html" target="_top" xlink:title=" SBML&#39;s SBase class, base class of most SBML objects. ">
<polygon fill="#ffffff" stroke="#000000" points="24.5,-224.5 24.5,-243.5 70.5,-243.5 70.5,-224.5 24.5,-224.5"/>
<text text-anchor="middle" x="47.5" y="-231.5" font-family="Helvetica,sans-Serif" font-size="10.00" fill="#000000">SBase</text>
</a>
</g>
</g>
<!-- Node5&#45;&gt;Node4 -->
<g id="edge4" class="edge">
<title>Node5&#45;&gt;Node4</title>
<path fill="none" stroke="#191970" d="M47.5,-214.1575C47.5,-205.155 47.5,-194.9199 47.5,-187.6427"/>
<polygon fill="#191970" stroke="#191970" points="44.0001,-214.2455 47.5,-224.2455 51.0001,-214.2456 44.0001,-214.2455"/>
</g>
</g>
</svg>
