<?xml version="1.0" encoding="UTF-8" standalone="no"?>
<!DOCTYPE svg PUBLIC "-//W3C//DTD SVG 1.1//EN"
 "http://www.w3.org/Graphics/SVG/1.1/DTD/svg11.dtd">
<!-- Generated by graphviz version 2.40.1 (20161225.0304)
 -->
<!-- Title: ListOfGradientDefinitions Pages: 1 -->
<svg width="136pt" height="140pt"
 viewBox="0.00 0.00 136.00 140.00" xmlns="http://www.w3.org/2000/svg" xmlns:xlink="http://www.w3.org/1999/xlink">
<g id="graph0" class="graph" transform="scale(1 1) rotate(0) translate(4 136)">
<title>ListOfGradientDefinitions</title>
<polygon fill="#ffffff" stroke="transparent" points="-4,4 -4,-136 132,-136 132,4 -4,4"/>
<!-- Node1 -->
<g id="node1" class="node">
<title>Node1</title>
<polygon fill="#bfbfbf" stroke="#000000" points="0,-.5 0,-19.5 128,-19.5 128,-.5 0,-.5"/>
<text text-anchor="middle" x="64" y="-7.5" font-family="Helvetica,sans-Serif" font-size="10.00" fill="#000000">ListOfGradientDefinitions</text>
</g>
<!-- Node2 -->
<g id="node2" class="node">
<title>Node2</title>
<g id="a_node2"><a xlink:href="class_list_of.html" target="_top" xlink:title=" Parent class for libSBML&#39;s &quot;ListOfXYZ&quot; classes. ">
<polygon fill="#ffffff" stroke="#000000" points="42.5,-56.5 42.5,-75.5 85.5,-75.5 85.5,-56.5 42.5,-56.5"/>
<text text-anchor="middle" x="64" y="-63.5" font-family="Helvetica,sans-Serif" font-size="10.00" fill="#000000">ListOf</text>
</a>
</g>
</g>
<!-- Node2&#45;&gt;Node1 -->
<g id="edge1" class="edge">
<title>Node2&#45;&gt;Node1</title>
<path fill="none" stroke="#191970" d="M64,-46.1575C64,-37.155 64,-26.9199 64,-19.6427"/>
<polygon fill="#191970" stroke="#191970" points="60.5001,-46.2455 64,-56.2455 67.5001,-46.2456 60.5001,-46.2455"/>
</g>
<!-- Node3 -->
<g id="node3" class="node">
<title>Node3</title>
<g id="a_node3"><a xlink:href="class_s_base.html" target="_top" xlink:title=" SBML&#39;s SBase class, base class of most SBML objects. ">
<polygon fill="#ffffff" stroke="#000000" points="41,-112.5 41,-131.5 87,-131.5 87,-112.5 41,-112.5"/>
<text text-anchor="middle" x="64" y="-119.5" font-family="Helvetica,sans-Serif" font-size="10.00" fill="#000000">SBase</text>
</a>
</g>
</g>
<!-- Node3&#45;&gt;Node2 -->
<g id="edge2" class="edge">
<title>Node3&#45;&gt;Node2</title>
<path fill="none" stroke="#191970" d="M64,-102.1575C64,-93.155 64,-82.9199 64,-75.6427"/>
<polygon fill="#191970" stroke="#191970" points="60.5001,-102.2455 64,-112.2455 67.5001,-102.2456 60.5001,-102.2455"/>
</g>
</g>
</svg>
