<?xml version="1.0" encoding="UTF-8" standalone="no"?>
<!DOCTYPE svg PUBLIC "-//W3C//DTD SVG 1.1//EN"
 "http://www.w3.org/Graphics/SVG/1.1/DTD/svg11.dtd">
<!-- Generated by graphviz version 2.40.1 (20161225.0304)
 -->
<!-- Title: SBaseRef Pages: 1 -->
<svg width="261pt" height="252pt"
 viewBox="0.00 0.00 261.00 252.00" xmlns="http://www.w3.org/2000/svg" xmlns:xlink="http://www.w3.org/1999/xlink">
<g id="graph0" class="graph" transform="scale(1 1) rotate(0) translate(4 248)">
<title>SBaseRef</title>
<polygon fill="#ffffff" stroke="transparent" points="-4,4 -4,-248 257,-248 257,4 -4,4"/>
<!-- Node1 -->
<g id="node1" class="node">
<title>Node1</title>
<polygon fill="#bfbfbf" stroke="#000000" points="57.5,-112.5 57.5,-131.5 119.5,-131.5 119.5,-112.5 57.5,-112.5"/>
<text text-anchor="middle" x="88.5" y="-119.5" font-family="Helvetica,sans-Serif" font-size="10.00" fill="#000000">SBaseRef</text>
</g>
<!-- Node4 -->
<g id="node4" class="node">
<title>Node4</title>
<g id="a_node4"><a xlink:href="class_deletion.html" target="_top" xlink:title=" Deletion of an object from a submodel. ">
<polygon fill="#ffffff" stroke="#000000" points="0,-56.5 0,-75.5 53,-75.5 53,-56.5 0,-56.5"/>
<text text-anchor="middle" x="26.5" y="-63.5" font-family="Helvetica,sans-Serif" font-size="10.00" fill="#000000">Deletion</text>
</a>
</g>
</g>
<!-- Node1&#45;&gt;Node4 -->
<g id="edge3" class="edge">
<title>Node1&#45;&gt;Node4</title>
<path fill="none" stroke="#191970" d="M70.0779,-105.3607C59.3519,-95.6727 46.2066,-83.7995 37.1758,-75.6427"/>
<polygon fill="#191970" stroke="#191970" points="67.9334,-108.14 77.7004,-112.2455 72.6254,-102.9453 67.9334,-108.14"/>
</g>
<!-- Node5 -->
<g id="node5" class="node">
<title>Node5</title>
<g id="a_node5"><a xlink:href="class_port.html" target="_top" xlink:title=" An interface to be used in composition. ">
<polygon fill="#ffffff" stroke="#000000" points="71,-56.5 71,-75.5 106,-75.5 106,-56.5 71,-56.5"/>
<text text-anchor="middle" x="88.5" y="-63.5" font-family="Helvetica,sans-Serif" font-size="10.00" fill="#000000">Port</text>
</a>
</g>
</g>
<!-- Node1&#45;&gt;Node5 -->
<g id="edge4" class="edge">
<title>Node1&#45;&gt;Node5</title>
<path fill="none" stroke="#191970" d="M88.5,-102.1575C88.5,-93.155 88.5,-82.9199 88.5,-75.6427"/>
<polygon fill="#191970" stroke="#191970" points="85.0001,-102.2455 88.5,-112.2455 92.0001,-102.2456 85.0001,-102.2455"/>
</g>
<!-- Node6 -->
<g id="node6" class="node">
<title>Node6</title>
<g id="a_node6"><a xlink:href="class_replacing.html" target="_top" xlink:title=" Convenience class. ">
<polygon fill="#ffffff" stroke="#000000" points="124,-56.5 124,-75.5 185,-75.5 185,-56.5 124,-56.5"/>
<text text-anchor="middle" x="154.5" y="-63.5" font-family="Helvetica,sans-Serif" font-size="10.00" fill="#000000">Replacing</text>
</a>
</g>
</g>
<!-- Node1&#45;&gt;Node6 -->
<g id="edge5" class="edge">
<title>Node1&#45;&gt;Node6</title>
<path fill="none" stroke="#191970" d="M107.7755,-105.645C119.2538,-95.9058 133.4277,-83.8795 143.1354,-75.6427"/>
<polygon fill="#191970" stroke="#191970" points="105.357,-103.1069 99.9963,-112.2455 109.8859,-108.4445 105.357,-103.1069"/>
</g>
<!-- Node2 -->
<g id="node2" class="node">
<title>Node2</title>
<g id="a_node2"><a xlink:href="class_comp_base.html" target="_top" xlink:title=" Convenience class for SBase&#45;derived classes. ">
<polygon fill="#ffffff" stroke="#000000" points="55.5,-168.5 55.5,-187.5 121.5,-187.5 121.5,-168.5 55.5,-168.5"/>
<text text-anchor="middle" x="88.5" y="-175.5" font-family="Helvetica,sans-Serif" font-size="10.00" fill="#000000">CompBase</text>
</a>
</g>
</g>
<!-- Node2&#45;&gt;Node1 -->
<g id="edge1" class="edge">
<title>Node2&#45;&gt;Node1</title>
<path fill="none" stroke="#191970" d="M88.5,-158.1575C88.5,-149.155 88.5,-138.9199 88.5,-131.6427"/>
<polygon fill="#191970" stroke="#191970" points="85.0001,-158.2455 88.5,-168.2455 92.0001,-158.2456 85.0001,-158.2455"/>
</g>
<!-- Node3 -->
<g id="node3" class="node">
<title>Node3</title>
<g id="a_node3"><a xlink:href="class_s_base.html" target="_top" xlink:title=" SBML&#39;s SBase class, base class of most SBML objects. ">
<polygon fill="#ffffff" stroke="#000000" points="65.5,-224.5 65.5,-243.5 111.5,-243.5 111.5,-224.5 65.5,-224.5"/>
<text text-anchor="middle" x="88.5" y="-231.5" font-family="Helvetica,sans-Serif" font-size="10.00" fill="#000000">SBase</text>
</a>
</g>
</g>
<!-- Node3&#45;&gt;Node2 -->
<g id="edge2" class="edge">
<title>Node3&#45;&gt;Node2</title>
<path fill="none" stroke="#191970" d="M88.5,-214.1575C88.5,-205.155 88.5,-194.9199 88.5,-187.6427"/>
<polygon fill="#191970" stroke="#191970" points="85.0001,-214.2455 88.5,-224.2455 92.0001,-214.2456 85.0001,-214.2455"/>
</g>
<!-- Node7 -->
<g id="node7" class="node">
<title>Node7</title>
<g id="a_node7"><a xlink:href="class_replaced_by.html" target="_top" xlink:title=" Indicates an object replaced by another. ">
<polygon fill="#ffffff" stroke="#000000" points="69.5,-.5 69.5,-19.5 139.5,-19.5 139.5,-.5 69.5,-.5"/>
<text text-anchor="middle" x="104.5" y="-7.5" font-family="Helvetica,sans-Serif" font-size="10.00" fill="#000000">ReplacedBy</text>
</a>
</g>
</g>
<!-- Node6&#45;&gt;Node7 -->
<g id="edge6" class="edge">
<title>Node6&#45;&gt;Node7</title>
<path fill="none" stroke="#191970" d="M138.8753,-48.5004C130.3727,-38.9775 120.1782,-27.5596 113.1095,-19.6427"/>
<polygon fill="#191970" stroke="#191970" points="136.5197,-51.1172 145.7907,-56.2455 141.7413,-46.4551 136.5197,-51.1172"/>
</g>
<!-- Node8 -->
<g id="node8" class="node">
<title>Node8</title>
<g id="a_node8"><a xlink:href="class_replaced_element.html" target="_top" xlink:title=" Indicates an object replaces another. ">
<polygon fill="#ffffff" stroke="#000000" points="158,-.5 158,-19.5 253,-19.5 253,-.5 158,-.5"/>
<text text-anchor="middle" x="205.5" y="-7.5" font-family="Helvetica,sans-Serif" font-size="10.00" fill="#000000">ReplacedElement</text>
</a>
</g>
</g>
<!-- Node6&#45;&gt;Node8 -->
<g id="edge7" class="edge">
<title>Node6&#45;&gt;Node8</title>
<path fill="none" stroke="#191970" d="M170.1749,-48.7884C178.8994,-39.2085 189.4354,-27.6396 196.7183,-19.6427"/>
<polygon fill="#191970" stroke="#191970" points="167.5291,-46.4954 163.3835,-56.2455 172.7046,-51.2088 167.5291,-46.4954"/>
</g>
</g>
</svg>
