<?xml version="1.0" encoding="UTF-8" standalone="no"?>
<!DOCTYPE svg PUBLIC "-//W3C//DTD SVG 1.1//EN"
 "http://www.w3.org/Graphics/SVG/1.1/DTD/svg11.dtd">
<!-- Generated by graphviz version 2.40.1 (20161225.0304)
 -->
<!-- Title: RenderInformationBase Pages: 1 -->
<svg width="278pt" height="140pt"
 viewBox="0.00 0.00 277.50 140.00" xmlns="http://www.w3.org/2000/svg" xmlns:xlink="http://www.w3.org/1999/xlink">
<g id="graph0" class="graph" transform="scale(1 1) rotate(0) translate(4 136)">
<title>RenderInformationBase</title>
<polygon fill="#ffffff" stroke="transparent" points="-4,4 -4,-136 273.5,-136 273.5,4 -4,4"/>
<!-- Node1 -->
<g id="node1" class="node">
<title>Node1</title>
<polygon fill="#bfbfbf" stroke="#000000" points="75,-56.5 75,-75.5 197,-75.5 197,-56.5 75,-56.5"/>
<text text-anchor="middle" x="136" y="-63.5" font-family="Helvetica,sans-Serif" font-size="10.00" fill="#000000">RenderInformationBase</text>
</g>
<!-- Node3 -->
<g id="node3" class="node">
<title>Node3</title>
<g id="a_node3"><a xlink:href="class_global_render_information.html" target="_top" xlink:title=" Render information stored in a ListOfLayouts. ">
<polygon fill="#ffffff" stroke="#000000" points="0,-.5 0,-19.5 128,-19.5 128,-.5 0,-.5"/>
<text text-anchor="middle" x="64" y="-7.5" font-family="Helvetica,sans-Serif" font-size="10.00" fill="#000000">GlobalRenderInformation</text>
</a>
</g>
</g>
<!-- Node1&#45;&gt;Node3 -->
<g id="edge2" class="edge">
<title>Node1&#45;&gt;Node3</title>
<path fill="none" stroke="#191970" d="M115.336,-49.928C102.7511,-40.1397 87.0908,-27.9595 76.3977,-19.6427"/>
<polygon fill="#191970" stroke="#191970" points="113.4162,-52.8688 123.4586,-56.2455 117.7138,-47.3434 113.4162,-52.8688"/>
</g>
<!-- Node4 -->
<g id="node4" class="node">
<title>Node4</title>
<g id="a_node4"><a xlink:href="class_local_render_information.html" target="_top" xlink:title=" Rendering information stored in Layouts. ">
<polygon fill="#ffffff" stroke="#000000" points="146.5,-.5 146.5,-19.5 269.5,-19.5 269.5,-.5 146.5,-.5"/>
<text text-anchor="middle" x="208" y="-7.5" font-family="Helvetica,sans-Serif" font-size="10.00" fill="#000000">LocalRenderInformation</text>
</a>
</g>
</g>
<!-- Node1&#45;&gt;Node4 -->
<g id="edge3" class="edge">
<title>Node1&#45;&gt;Node4</title>
<path fill="none" stroke="#191970" d="M156.664,-49.928C169.2489,-40.1397 184.9092,-27.9595 195.6023,-19.6427"/>
<polygon fill="#191970" stroke="#191970" points="154.2862,-47.3434 148.5414,-56.2455 158.5838,-52.8688 154.2862,-47.3434"/>
</g>
<!-- Node2 -->
<g id="node2" class="node">
<title>Node2</title>
<g id="a_node2"><a xlink:href="class_s_base.html" target="_top" xlink:title=" SBML&#39;s SBase class, base class of most SBML objects. ">
<polygon fill="#ffffff" stroke="#000000" points="113,-112.5 113,-131.5 159,-131.5 159,-112.5 113,-112.5"/>
<text text-anchor="middle" x="136" y="-119.5" font-family="Helvetica,sans-Serif" font-size="10.00" fill="#000000">SBase</text>
</a>
</g>
</g>
<!-- Node2&#45;&gt;Node1 -->
<g id="edge1" class="edge">
<title>Node2&#45;&gt;Node1</title>
<path fill="none" stroke="#191970" d="M136,-102.1575C136,-93.155 136,-82.9199 136,-75.6427"/>
<polygon fill="#191970" stroke="#191970" points="132.5001,-102.2455 136,-112.2455 139.5001,-102.2456 132.5001,-102.2455"/>
</g>
</g>
</svg>
