<?xml version="1.0" encoding="UTF-8" standalone="no"?>
<!DOCTYPE svg PUBLIC "-//W3C//DTD SVG 1.1//EN"
 "http://www.w3.org/Graphics/SVG/1.1/DTD/svg11.dtd">
<!-- Generated by graphviz version 2.40.1 (20161225.0304)
 -->
<!-- Title: sbml Pages: 1 -->
<svg width="329pt" height="295pt"
 viewBox="0.00 0.00 329.37 295.00" xmlns="http://www.w3.org/2000/svg" xmlns:xlink="http://www.w3.org/1999/xlink">
<g id="graph0" class="graph" transform="scale(1 1) rotate(0) translate(4 291)">
<title>sbml</title>
<polygon fill="#ffffff" stroke="transparent" points="-4,4 -4,-291 325.3661,-291 325.3661,4 -4,4"/>
<g id="clust1" class="cluster">
<title>clusterdir_0a90ca78c76a6bb683a2fd4a8c3281f8</title>
<g id="a_clust1"><a xlink:href="dir_0a90ca78c76a6bb683a2fd4a8c3281f8.html" target="_top" xlink:title="qual">
<polygon fill="#ddddee" stroke="#000000" points="103.6819,-208 103.6819,-279 173.6819,-279 173.6819,-208 103.6819,-208"/>
<text text-anchor="middle" x="138.6819" y="-267" font-family="Helvetica,sans-Serif" font-size="10.00" fill="#000000">qual</text>
</a>
</g>
</g>
<!-- dir_aa5aa98f6df5b802bb45e20a57604d12 -->
<g id="node1" class="node">
<title>dir_aa5aa98f6df5b802bb45e20a57604d12</title>
<g id="a_node1"><a xlink:href="dir_aa5aa98f6df5b802bb45e20a57604d12.html" target="_top" xlink:title="sbml">
<polygon fill="#eeeeff" stroke="#000000" points="165.6819,-252 111.6819,-252 111.6819,-216 165.6819,-216 165.6819,-252"/>
<text text-anchor="middle" x="138.6819" y="-231.5" font-family="Helvetica,sans-Serif" font-size="10.00" fill="#000000">sbml</text>
</a>
</g>
</g>
<!-- dir_fd1e11fb0964f7346e999e146b0dfd59 -->
<g id="node2" class="node">
<title>dir_fd1e11fb0964f7346e999e146b0dfd59</title>
<g id="a_node2"><a xlink:href="dir_fd1e11fb0964f7346e999e146b0dfd59.html" target="_top" xlink:title="common">
<polygon fill="none" stroke="#000000" points="128.1819,-108 73.1819,-108 73.1819,-72 128.1819,-72 128.1819,-108"/>
<text text-anchor="middle" x="100.6819" y="-87.5" font-family="Helvetica,sans-Serif" font-size="10.00" fill="#000000">common</text>
</a>
</g>
</g>
<!-- dir_aa5aa98f6df5b802bb45e20a57604d12&#45;&gt;dir_fd1e11fb0964f7346e999e146b0dfd59 -->
<g id="edge3" class="edge">
<title>dir_aa5aa98f6df5b802bb45e20a57604d12&#45;&gt;dir_fd1e11fb0964f7346e999e146b0dfd59</title>
<path fill="none" stroke="#000000" d="M133.8692,-215.7623C127.3592,-191.0928 115.6866,-146.8598 108.0637,-117.9731"/>
<polygon fill="#000000" stroke="#000000" points="111.3913,-116.8656 105.4555,-108.0896 104.623,-118.6517 111.3913,-116.8656"/>
<g id="a_edge3&#45;headlabel"><a xlink:href="dir_000026_000015.html" target="_top" xlink:title="12">
<text text-anchor="middle" x="115.0537" y="-117.1168" font-family="Helvetica,sans-Serif" font-size="10.00" fill="#000000">12</text>
</a>
</g>
</g>
<!-- dir_c541d4b187fc5f863b4735b323978e0f -->
<g id="node3" class="node">
<title>dir_c541d4b187fc5f863b4735b323978e0f</title>
<g id="a_node3"><a xlink:href="dir_c541d4b187fc5f863b4735b323978e0f.html" target="_top" xlink:title="util">
<polygon fill="none" stroke="#000000" points="127.6819,-36 73.6819,-36 73.6819,0 127.6819,0 127.6819,-36"/>
<text text-anchor="middle" x="100.6819" y="-15.5" font-family="Helvetica,sans-Serif" font-size="10.00" fill="#000000">util</text>
</a>
</g>
</g>
<!-- dir_aa5aa98f6df5b802bb45e20a57604d12&#45;&gt;dir_c541d4b187fc5f863b4735b323978e0f -->
<g id="edge4" class="edge">
<title>dir_aa5aa98f6df5b802bb45e20a57604d12&#45;&gt;dir_c541d4b187fc5f863b4735b323978e0f</title>
<path fill="none" stroke="#000000" d="M111.4427,-231.2817C80.7733,-226.6011 32.2793,-213.9568 9.6819,-180 -21.5188,-133.1152 32.1573,-74.8361 69.4553,-42.5084"/>
<polygon fill="#000000" stroke="#000000" points="71.7546,-45.1478 77.1293,-36.0174 67.234,-39.8033 71.7546,-45.1478"/>
<g id="a_edge4&#45;headlabel"><a xlink:href="dir_000026_000011.html" target="_top" xlink:title="2">
<text text-anchor="middle" x="70.8438" y="-47.1369" font-family="Helvetica,sans-Serif" font-size="10.00" fill="#000000">2</text>
</a>
</g>
</g>
<!-- dir_fd5d7134f4fc3905912ada7aa4b1e1cf -->
<g id="node4" class="node">
<title>dir_fd5d7134f4fc3905912ada7aa4b1e1cf</title>
<g id="a_node4"><a xlink:href="dir_fd5d7134f4fc3905912ada7aa4b1e1cf.html" target="_top" xlink:title="common">
<polygon fill="none" stroke="#000000" points="231.1819,-108 176.1819,-108 176.1819,-72 231.1819,-72 231.1819,-108"/>
<text text-anchor="middle" x="203.6819" y="-87.5" font-family="Helvetica,sans-Serif" font-size="10.00" fill="#000000">common</text>
</a>
</g>
</g>
<!-- dir_aa5aa98f6df5b802bb45e20a57604d12&#45;&gt;dir_fd5d7134f4fc3905912ada7aa4b1e1cf -->
<g id="edge5" class="edge">
<title>dir_aa5aa98f6df5b802bb45e20a57604d12&#45;&gt;dir_fd5d7134f4fc3905912ada7aa4b1e1cf</title>
<path fill="none" stroke="#000000" d="M141.4172,-215.6785C144.6975,-196.9543 151.2403,-167.3865 162.6819,-144 167.4151,-134.3253 174.0026,-124.668 180.5142,-116.2515"/>
<polygon fill="#000000" stroke="#000000" points="183.3778,-118.2761 186.9289,-108.2941 177.928,-113.8828 183.3778,-118.2761"/>
<g id="a_edge5&#45;headlabel"><a xlink:href="dir_000026_000045.html" target="_top" xlink:title="6">
<text text-anchor="middle" x="183.3323" y="-120.3565" font-family="Helvetica,sans-Serif" font-size="10.00" fill="#000000">6</text>
</a>
</g>
</g>
<!-- dir_48ff6375d03f1aa509a6e0480f966544 -->
<g id="node5" class="node">
<title>dir_48ff6375d03f1aa509a6e0480f966544</title>
<g id="a_node5"><a xlink:href="dir_48ff6375d03f1aa509a6e0480f966544.html" target="_top" xlink:title="math">
<polygon fill="none" stroke="#000000" points="72.6819,-180 18.6819,-180 18.6819,-144 72.6819,-144 72.6819,-180"/>
<text text-anchor="middle" x="45.6819" y="-159.5" font-family="Helvetica,sans-Serif" font-size="10.00" fill="#000000">math</text>
</a>
</g>
</g>
<!-- dir_aa5aa98f6df5b802bb45e20a57604d12&#45;&gt;dir_48ff6375d03f1aa509a6e0480f966544 -->
<g id="edge6" class="edge">
<title>dir_aa5aa98f6df5b802bb45e20a57604d12&#45;&gt;dir_48ff6375d03f1aa509a6e0480f966544</title>
<path fill="none" stroke="#000000" d="M115.2141,-215.8314C103.6492,-206.8779 89.5415,-195.9558 77.0636,-186.2955"/>
<polygon fill="#000000" stroke="#000000" points="79.1921,-183.5171 69.1422,-180.1628 74.9068,-189.0521 79.1921,-183.5171"/>
<g id="a_edge6&#45;headlabel"><a xlink:href="dir_000026_000006.html" target="_top" xlink:title="1">
<text text-anchor="middle" x="83.7725" y="-180.9725" font-family="Helvetica,sans-Serif" font-size="10.00" fill="#000000">1</text>
</a>
</g>
</g>
<!-- dir_f5fb53e55ba501ec7d605d6902b83c25 -->
<g id="node6" class="node">
<title>dir_f5fb53e55ba501ec7d605d6902b83c25</title>
<g id="a_node6"><a xlink:href="dir_f5fb53e55ba501ec7d605d6902b83c25.html" target="_top" xlink:title="validator">
<polygon fill="none" stroke="#000000" points="258.6819,-180 204.6819,-180 204.6819,-144 258.6819,-144 258.6819,-180"/>
<text text-anchor="middle" x="231.6819" y="-159.5" font-family="Helvetica,sans-Serif" font-size="10.00" fill="#000000">validator</text>
</a>
</g>
</g>
<!-- dir_aa5aa98f6df5b802bb45e20a57604d12&#45;&gt;dir_f5fb53e55ba501ec7d605d6902b83c25 -->
<g id="edge7" class="edge">
<title>dir_aa5aa98f6df5b802bb45e20a57604d12&#45;&gt;dir_f5fb53e55ba501ec7d605d6902b83c25</title>
<path fill="none" stroke="#000000" d="M162.1497,-215.8314C173.7146,-206.8779 187.8223,-195.9558 200.3002,-186.2955"/>
<polygon fill="#000000" stroke="#000000" points="202.4569,-189.0521 208.2216,-180.1628 198.1717,-183.5171 202.4569,-189.0521"/>
<g id="a_edge7&#45;headlabel"><a xlink:href="dir_000026_000043.html" target="_top" xlink:title="6">
<text text-anchor="middle" x="201.3527" y="-190.9977" font-family="Helvetica,sans-Serif" font-size="10.00" fill="#000000">6</text>
</a>
</g>
</g>
<!-- dir_eda3612caf036758c7e7b2fe6230660c -->
<g id="node7" class="node">
<title>dir_eda3612caf036758c7e7b2fe6230660c</title>
<g id="a_node7"><a xlink:href="dir_eda3612caf036758c7e7b2fe6230660c.html" target="_top" xlink:title="extension">
<polygon fill="none" stroke="#000000" points="316.1819,-252 257.1819,-252 257.1819,-216 316.1819,-216 316.1819,-252"/>
<text text-anchor="middle" x="286.6819" y="-231.5" font-family="Helvetica,sans-Serif" font-size="10.00" fill="#000000">extension</text>
</a>
</g>
</g>
<!-- dir_aa5aa98f6df5b802bb45e20a57604d12&#45;&gt;dir_eda3612caf036758c7e7b2fe6230660c -->
<g id="edge8" class="edge">
<title>dir_aa5aa98f6df5b802bb45e20a57604d12&#45;&gt;dir_eda3612caf036758c7e7b2fe6230660c</title>
<path fill="none" stroke="#000000" d="M165.8538,-234C192.7784,-234 219.7031,-234 246.6277,-234"/>
<polygon fill="#000000" stroke="#000000" points="246.9469,-237.5001 256.9468,-234 246.9468,-230.5001 246.9469,-237.5001"/>
<g id="a_edge8&#45;headlabel"><a xlink:href="dir_000026_000044.html" target="_top" xlink:title="6">
<text text-anchor="middle" x="243.3522" y="-237.8393" font-family="Helvetica,sans-Serif" font-size="10.00" fill="#000000">6</text>
</a>
</g>
</g>
<!-- dir_fd1e11fb0964f7346e999e146b0dfd59&#45;&gt;dir_c541d4b187fc5f863b4735b323978e0f -->
<g id="edge1" class="edge">
<title>dir_fd1e11fb0964f7346e999e146b0dfd59&#45;&gt;dir_c541d4b187fc5f863b4735b323978e0f</title>
<path fill="none" stroke="#000000" d="M94.7295,-71.8314C93.9791,-64.131 93.7582,-54.9743 94.0668,-46.4166"/>
<polygon fill="#000000" stroke="#000000" points="97.5611,-46.6161 94.7059,-36.4133 90.5753,-46.1697 97.5611,-46.6161"/>
<g id="a_edge1&#45;headlabel"><a xlink:href="dir_000015_000011.html" target="_top" xlink:title="2">
<text text-anchor="middle" x="100.1655" y="-47.8844" font-family="Helvetica,sans-Serif" font-size="10.00" fill="#000000">2</text>
</a>
</g>
</g>
<!-- dir_c541d4b187fc5f863b4735b323978e0f&#45;&gt;dir_fd1e11fb0964f7346e999e146b0dfd59 -->
<g id="edge2" class="edge">
<title>dir_c541d4b187fc5f863b4735b323978e0f&#45;&gt;dir_fd1e11fb0964f7346e999e146b0dfd59</title>
<path fill="none" stroke="#000000" d="M106.6579,-36.4133C107.389,-44.0593 107.6022,-53.1084 107.2974,-61.5726"/>
<polygon fill="#000000" stroke="#000000" points="103.7867,-61.6264 106.6343,-71.8314 110.7721,-62.078 103.7867,-61.6264"/>
<g id="a_edge2&#45;headlabel"><a xlink:href="dir_000011_000015.html" target="_top" xlink:title="6">
<text text-anchor="middle" x="101.1851" y="-55.3562" font-family="Helvetica,sans-Serif" font-size="10.00" fill="#000000">6</text>
</a>
</g>
</g>
<!-- dir_fd5d7134f4fc3905912ada7aa4b1e1cf&#45;&gt;dir_aa5aa98f6df5b802bb45e20a57604d12 -->
<g id="edge9" class="edge">
<title>dir_fd5d7134f4fc3905912ada7aa4b1e1cf&#45;&gt;dir_aa5aa98f6df5b802bb45e20a57604d12</title>
<path fill="none" stroke="#000000" d="M195.5164,-108.0896C184.319,-132.8962 164.103,-177.6824 151.0448,-206.6113"/>
<polygon fill="#000000" stroke="#000000" points="147.8383,-205.2078 146.9142,-215.7623 154.2185,-208.0878 147.8383,-205.2078"/>
<g id="a_edge9&#45;headlabel"><a xlink:href="dir_000045_000026.html" target="_top" xlink:title="6">
<text text-anchor="middle" x="146.7293" y="-198.2634" font-family="Helvetica,sans-Serif" font-size="10.00" fill="#000000">6</text>
</a>
</g>
</g>
<!-- dir_fd5d7134f4fc3905912ada7aa4b1e1cf&#45;&gt;dir_eda3612caf036758c7e7b2fe6230660c -->
<g id="edge10" class="edge">
<title>dir_fd5d7134f4fc3905912ada7aa4b1e1cf&#45;&gt;dir_eda3612caf036758c7e7b2fe6230660c</title>
<path fill="none" stroke="#000000" d="M231.3506,-96.9904C254.4232,-104.4422 285.8359,-118.7438 300.6819,-144 311.7536,-162.8353 306.7959,-187.5558 299.8865,-206.322"/>
<polygon fill="#000000" stroke="#000000" points="296.5601,-205.2118 296.0537,-215.7946 303.049,-207.8374 296.5601,-205.2118"/>
<g id="a_edge10&#45;headlabel"><a xlink:href="dir_000045_000044.html" target="_top" xlink:title="3">
<text text-anchor="middle" x="295.2763" y="-198.3147" font-family="Helvetica,sans-Serif" font-size="10.00" fill="#000000">3</text>
</a>
</g>
</g>
<!-- dir_48ff6375d03f1aa509a6e0480f966544&#45;&gt;dir_fd1e11fb0964f7346e999e146b0dfd59 -->
<g id="edge11" class="edge">
<title>dir_48ff6375d03f1aa509a6e0480f966544&#45;&gt;dir_fd1e11fb0964f7346e999e146b0dfd59</title>
<path fill="none" stroke="#000000" d="M59.5607,-143.8314C65.8954,-135.5386 73.5203,-125.557 80.4745,-116.4533"/>
<polygon fill="#000000" stroke="#000000" points="83.3271,-118.4847 86.6162,-108.4133 77.7644,-114.2353 83.3271,-118.4847"/>
<g id="a_edge11&#45;headlabel"><a xlink:href="dir_000006_000015.html" target="_top" xlink:title="23">
<text text-anchor="middle" x="83.4014" y="-120.5647" font-family="Helvetica,sans-Serif" font-size="10.00" fill="#000000">23</text>
</a>
</g>
</g>
<!-- dir_48ff6375d03f1aa509a6e0480f966544&#45;&gt;dir_c541d4b187fc5f863b4735b323978e0f -->
<g id="edge12" class="edge">
<title>dir_48ff6375d03f1aa509a6e0480f966544&#45;&gt;dir_c541d4b187fc5f863b4735b323978e0f</title>
<path fill="none" stroke="#000000" d="M47.1605,-143.7827C49.1644,-125.1415 53.7139,-95.6387 63.6819,-72 67.6801,-62.5183 73.4788,-52.9883 79.3042,-44.6305"/>
<polygon fill="#000000" stroke="#000000" points="82.245,-46.538 85.3101,-36.3962 76.5895,-42.413 82.245,-46.538"/>
<g id="a_edge12&#45;headlabel"><a xlink:href="dir_000006_000011.html" target="_top" xlink:title="11">
<text text-anchor="middle" x="82.4207" y="-48.6153" font-family="Helvetica,sans-Serif" font-size="10.00" fill="#000000">11</text>
</a>
</g>
</g>
<!-- dir_f5fb53e55ba501ec7d605d6902b83c25&#45;&gt;dir_fd5d7134f4fc3905912ada7aa4b1e1cf -->
<g id="edge13" class="edge">
<title>dir_f5fb53e55ba501ec7d605d6902b83c25&#45;&gt;dir_fd5d7134f4fc3905912ada7aa4b1e1cf</title>
<path fill="none" stroke="#000000" d="M224.6163,-143.8314C221.5559,-135.9617 217.904,-126.5712 214.5137,-117.8533"/>
<polygon fill="#000000" stroke="#000000" points="217.7291,-116.4647 210.8426,-108.4133 211.2051,-119.0019 217.7291,-116.4647"/>
<g id="a_edge13&#45;headlabel"><a xlink:href="dir_000043_000045.html" target="_top" xlink:title="1">
<text text-anchor="middle" x="221.6782" y="-116.2859" font-family="Helvetica,sans-Serif" font-size="10.00" fill="#000000">1</text>
</a>
</g>
</g>
<!-- dir_eda3612caf036758c7e7b2fe6230660c&#45;&gt;dir_aa5aa98f6df5b802bb45e20a57604d12 -->
<g id="edge16" class="edge">
<title>dir_eda3612caf036758c7e7b2fe6230660c&#45;&gt;dir_aa5aa98f6df5b802bb45e20a57604d12</title>
<path fill="none" stroke="#000000" d="M256.9468,-234C230.0222,-234 203.0976,-234 176.1729,-234"/>
<polygon fill="#000000" stroke="#000000" points="175.8538,-230.5001 165.8538,-234 175.8537,-237.5001 175.8538,-230.5001"/>
<g id="a_edge16&#45;headlabel"><a xlink:href="dir_000044_000026.html" target="_top" xlink:title="2">
<text text-anchor="middle" x="179.4484" y="-225.1607" font-family="Helvetica,sans-Serif" font-size="10.00" fill="#000000">2</text>
</a>
</g>
</g>
<!-- dir_eda3612caf036758c7e7b2fe6230660c&#45;&gt;dir_fd1e11fb0964f7346e999e146b0dfd59 -->
<g id="edge14" class="edge">
<title>dir_eda3612caf036758c7e7b2fe6230660c&#45;&gt;dir_fd1e11fb0964f7346e999e146b0dfd59</title>
<path fill="none" stroke="#000000" d="M287.8653,-215.7548C288.1432,-195.6939 285.4203,-163.6999 267.6819,-144 263.1966,-139.0188 185.9602,-115.3677 138.115,-101.0692"/>
<polygon fill="#000000" stroke="#000000" points="138.9713,-97.6724 128.3882,-98.1701 136.9718,-104.3807 138.9713,-97.6724"/>
<g id="a_edge14&#45;headlabel"><a xlink:href="dir_000044_000015.html" target="_top" xlink:title="3">
<text text-anchor="middle" x="143.2272" y="-93.4781" font-family="Helvetica,sans-Serif" font-size="10.00" fill="#000000">3</text>
</a>
</g>
</g>
<!-- dir_eda3612caf036758c7e7b2fe6230660c&#45;&gt;dir_c541d4b187fc5f863b4735b323978e0f -->
<g id="edge15" class="edge">
<title>dir_eda3612caf036758c7e7b2fe6230660c&#45;&gt;dir_c541d4b187fc5f863b4735b323978e0f</title>
<path fill="none" stroke="#000000" d="M300.9316,-215.7563C313.4678,-197.3479 328.2089,-168.2556 317.6819,-144 286.3164,-71.7298 190.9749,-38.688 137.6983,-25.5162"/>
<polygon fill="#000000" stroke="#000000" points="138.4869,-22.1062 127.95,-23.2119 136.8766,-28.9185 138.4869,-22.1062"/>
<g id="a_edge15&#45;headlabel"><a xlink:href="dir_000044_000011.html" target="_top" xlink:title="1">
<text text-anchor="middle" x="142.6383" y="-17.6699" font-family="Helvetica,sans-Serif" font-size="10.00" fill="#000000">1</text>
</a>
</g>
</g>
<!-- dir_eda3612caf036758c7e7b2fe6230660c&#45;&gt;dir_f5fb53e55ba501ec7d605d6902b83c25 -->
<g id="edge17" class="edge">
<title>dir_eda3612caf036758c7e7b2fe6230660c&#45;&gt;dir_f5fb53e55ba501ec7d605d6902b83c25</title>
<path fill="none" stroke="#000000" d="M272.8031,-215.8314C266.4683,-207.5386 258.8435,-197.557 251.8893,-188.4533"/>
<polygon fill="#000000" stroke="#000000" points="254.5994,-186.2353 245.7476,-180.4133 249.0367,-190.4847 254.5994,-186.2353"/>
<g id="a_edge17&#45;headlabel"><a xlink:href="dir_000044_000043.html" target="_top" xlink:title="6">
<text text-anchor="middle" x="259.0377" y="-184.8683" font-family="Helvetica,sans-Serif" font-size="10.00" fill="#000000">6</text>
</a>
</g>
</g>
</g>
</svg>
