<?xml version="1.0" encoding="UTF-8" standalone="no"?>
<!DOCTYPE svg PUBLIC "-//W3C//DTD SVG 1.1//EN"
 "http://www.w3.org/Graphics/SVG/1.1/DTD/svg11.dtd">
<!-- Generated by graphviz version 2.40.1 (20161225.0304)
 -->
<!-- Title: comp Pages: 1 -->
<!--zoomable 735 -->
<svg id="main" version="1.1" xmlns="http://www.w3.org/2000/svg" xmlns:xlink="http://www.w3.org/1999/xlink" xml:space="preserve" onload="init(evt)">
<style type="text/css"><![CDATA[
.edge:hover path { stroke: red; }
.edge:hover polygon { stroke: red; fill: red; }
]]></style>
<script type="text/javascript"><![CDATA[
var edges = document.getElementsByTagName('g');
if (edges && edges.length) {
  for (var i=0;i<edges.length;i++) {
    if (edges[i].id.substr(0,4)=='edge') {
      edges[i].setAttribute('class','edge');
    }
  }
}
]]></script>
        <defs>
                <circle id="rim" cx="0" cy="0" r="7"/>
                <circle id="rim2" cx="0" cy="0" r="3.5"/>
                <g id="zoomPlus">
                        <use xlink:href="#rim" fill="#404040">
                                <set attributeName="fill" to="#808080" begin="zoomplus.mouseover" end="zoomplus.mouseout"/>
                        </use>
                        <path d="M-4,0h8M0,-4v8" fill="none" stroke="white" stroke-width="1.5" pointer-events="none"/>
                </g>
                <g id="zoomMin">
                        <use xlink:href="#rim" fill="#404040">
                                <set attributeName="fill" to="#808080" begin="zoomminus.mouseover" end="zoomminus.mouseout"/>
                        </use>
                        <path d="M-4,0h8" fill="none" stroke="white" stroke-width="1.5" pointer-events="none"/>
                </g>
                <g id="dirArrow">
                        <path fill="none" stroke="white" stroke-width="1.5" d="M0,-3.0v7 M-2.5,-0.5L0,-3.0L2.5,-0.5"/>
                </g>
               <g id="resetDef">
                       <use xlink:href="#rim2" fill="#404040">
                               <set attributeName="fill" to="#808080" begin="reset.mouseover" end="reset.mouseout"/>
                       </use>
               </g>
        </defs>

<script type="text/javascript">
var viewWidth = 650;
var viewHeight = 735;
var sectionId = 'dynsection-0';
</script>
<script xlink:href="svgpan.js"/>
<svg id="graph" class="graph">
<g id="viewport">
<title>comp</title>
<polygon fill="#ffffff" stroke="transparent" points="-4,4 -4,-731 646,-731 646,4 -4,4"/>
<g id="clust1" class="cluster">
<title>clusterdir_d29d847ea07fb74c2c88b7147de27d35</title>
<g id="a_clust1"><a xlink:href="dir_d29d847ea07fb74c2c88b7147de27d35.html" target="_top" xlink:title="packages">
<polygon fill="#ddddee" stroke="#000000" points="296,-416 296,-719 494,-719 494,-416 296,-416"/>
<text text-anchor="middle" x="395" y="-707" font-family="Helvetica,sans-Serif" font-size="10.00" fill="#000000">packages</text>
</a>
</g>
</g>
<g id="clust2" class="cluster">
<title>clusterdir_4a31e270508d04d0af8285a857164a4c</title>
<g id="a_clust2"><a xlink:href="dir_4a31e270508d04d0af8285a857164a4c.html" target="_top">
<polygon fill="#eeeeff" stroke="#000000" points="304,-424 304,-692 486,-692 486,-424 304,-424"/>
</a>
</g>
</g>
<!-- dir_4a31e270508d04d0af8285a857164a4c -->
<g id="node1" class="node">
<title>dir_4a31e270508d04d0af8285a857164a4c</title>
<text text-anchor="middle" x="451" y="-663.5" font-family="Helvetica,sans-Serif" font-size="10.00" fill="#000000">comp</text>
</g>
<!-- dir_75ea03fee82884b3113f88b9ca3f5035 -->
<g id="node2" class="node">
<title>dir_75ea03fee82884b3113f88b9ca3f5035</title>
<g id="a_node2"><a xlink:href="dir_75ea03fee82884b3113f88b9ca3f5035.html" target="_top" xlink:title="common">
<polygon fill="#ffffff" stroke="#000000" points="405.5,-684 350.5,-684 350.5,-648 405.5,-648 405.5,-684"/>
<text text-anchor="middle" x="378" y="-663.5" font-family="Helvetica,sans-Serif" font-size="10.00" fill="#000000">common</text>
</a>
</g>
</g>
<!-- dir_a8563fb538e645acca0097d117a29c7f -->
<g id="node3" class="node">
<title>dir_a8563fb538e645acca0097d117a29c7f</title>
<g id="a_node3"><a xlink:href="dir_a8563fb538e645acca0097d117a29c7f.html" target="_top" xlink:title="extension">
<polygon fill="#ffffff" stroke="#000000" points="421.5,-612 362.5,-612 362.5,-576 421.5,-576 421.5,-612"/>
<text text-anchor="middle" x="392" y="-591.5" font-family="Helvetica,sans-Serif" font-size="10.00" fill="#000000">extension</text>
</a>
</g>
</g>
<!-- dir_75ea03fee82884b3113f88b9ca3f5035&#45;&gt;dir_a8563fb538e645acca0097d117a29c7f -->
<g id="edge25" class="edge">
<title>dir_75ea03fee82884b3113f88b9ca3f5035&#45;&gt;dir_a8563fb538e645acca0097d117a29c7f</title>
<path fill="none" stroke="#000000" d="M375.5804,-647.8314C376.3355,-640.0463 377.9212,-630.7729 379.9246,-622.1347"/>
<polygon fill="#000000" stroke="#000000" points="383.3233,-622.9715 382.4436,-612.4133 376.5471,-621.2156 383.3233,-622.9715"/>
<g id="a_edge25&#45;headlabel"><a xlink:href="dir_000020_000019.html" target="_top" xlink:title="4">
<text text-anchor="middle" x="385.1703" y="-624.6634" font-family="Helvetica,sans-Serif" font-size="10.00" fill="#000000">4</text>
</a>
</g>
</g>
<!-- dir_6b4f0bfd99a63555e3fb645ce261dd7b -->
<g id="node4" class="node">
<title>dir_6b4f0bfd99a63555e3fb645ce261dd7b</title>
<g id="a_node4"><a xlink:href="dir_6b4f0bfd99a63555e3fb645ce261dd7b.html" target="_top" xlink:title="sbml">
<polygon fill="#ffffff" stroke="#000000" points="478,-540 424,-540 424,-504 478,-504 478,-540"/>
<text text-anchor="middle" x="451" y="-519.5" font-family="Helvetica,sans-Serif" font-size="10.00" fill="#000000">sbml</text>
</a>
</g>
</g>
<!-- dir_75ea03fee82884b3113f88b9ca3f5035&#45;&gt;dir_6b4f0bfd99a63555e3fb645ce261dd7b -->
<g id="edge23" class="edge">
<title>dir_75ea03fee82884b3113f88b9ca3f5035&#45;&gt;dir_6b4f0bfd99a63555e3fb645ce261dd7b</title>
<path fill="none" stroke="#000000" d="M393.0335,-647.7181C402.7662,-638.1599 414.6046,-625.6226 422,-612 432.39,-592.8613 437.3853,-568.6448 441.1363,-550.1537"/>
<polygon fill="#000000" stroke="#000000" points="444.5817,-550.7756 443.1753,-540.2745 437.7262,-549.3606 444.5817,-550.7756"/>
<g id="a_edge23&#45;headlabel"><a xlink:href="dir_000020_000017.html" target="_top" xlink:title="15">
<text text-anchor="middle" x="446.6358" y="-552.3699" font-family="Helvetica,sans-Serif" font-size="10.00" fill="#000000">15</text>
</a>
</g>
</g>
<!-- dir_37e37a27cff779b381c25ed0134aa6e8 -->
<g id="node6" class="node">
<title>dir_37e37a27cff779b381c25ed0134aa6e8</title>
<g id="a_node6"><a xlink:href="dir_37e37a27cff779b381c25ed0134aa6e8.html" target="_top" xlink:title="validator">
<polygon fill="#ffffff" stroke="#000000" points="386,-468 332,-468 332,-432 386,-432 386,-468"/>
<text text-anchor="middle" x="359" y="-447.5" font-family="Helvetica,sans-Serif" font-size="10.00" fill="#000000">validator</text>
</a>
</g>
</g>
<!-- dir_75ea03fee82884b3113f88b9ca3f5035&#45;&gt;dir_37e37a27cff779b381c25ed0134aa6e8 -->
<g id="edge24" class="edge">
<title>dir_75ea03fee82884b3113f88b9ca3f5035&#45;&gt;dir_37e37a27cff779b381c25ed0134aa6e8</title>
<path fill="none" stroke="#000000" d="M358.5204,-647.9824C351.1687,-637.7044 343.5719,-624.4288 338,-612 324.2014,-581.2205 319.4031,-573.2954 314,-540 311.4371,-524.2066 309.3635,-519.3135 314,-504 316.9876,-494.1327 322.4385,-484.4205 328.6212,-476.013"/>
<polygon fill="#000000" stroke="#000000" points="331.4555,-478.0732 334.9836,-468.0831 325.9956,-473.6926 331.4555,-478.0732"/>
<g id="a_edge24&#45;headlabel"><a xlink:href="dir_000020_000018.html" target="_top" xlink:title="1">
<text text-anchor="middle" x="331.4206" y="-480.1537" font-family="Helvetica,sans-Serif" font-size="10.00" fill="#000000">1</text>
</a>
</g>
</g>
<!-- dir_a8563fb538e645acca0097d117a29c7f&#45;&gt;dir_75ea03fee82884b3113f88b9ca3f5035 -->
<g id="edge42" class="edge">
<title>dir_a8563fb538e645acca0097d117a29c7f&#45;&gt;dir_75ea03fee82884b3113f88b9ca3f5035</title>
<path fill="none" stroke="#000000" d="M394.3956,-612.4133C393.6232,-620.2292 392.0245,-629.5113 390.0124,-638.136"/>
<polygon fill="#000000" stroke="#000000" points="386.6208,-637.2718 387.4852,-647.8314 393.3944,-639.0375 386.6208,-637.2718"/>
<g id="a_edge42&#45;headlabel"><a xlink:href="dir_000019_000020.html" target="_top" xlink:title="5">
<text text-anchor="middle" x="384.7799" y="-630.5773" font-family="Helvetica,sans-Serif" font-size="10.00" fill="#000000">5</text>
</a>
</g>
</g>
<!-- dir_a8563fb538e645acca0097d117a29c7f&#45;&gt;dir_6b4f0bfd99a63555e3fb645ce261dd7b -->
<g id="edge39" class="edge">
<title>dir_a8563fb538e645acca0097d117a29c7f&#45;&gt;dir_6b4f0bfd99a63555e3fb645ce261dd7b</title>
<path fill="none" stroke="#000000" d="M400.9358,-575.8314C407.0453,-567.3694 415.2352,-557.1489 423.2708,-547.8971"/>
<polygon fill="#000000" stroke="#000000" points="425.8987,-550.209 429.9353,-540.4133 420.671,-545.5536 425.8987,-550.209"/>
<g id="a_edge39&#45;headlabel"><a xlink:href="dir_000019_000017.html" target="_top" xlink:title="7">
<text text-anchor="middle" x="425.6285" y="-552.2817" font-family="Helvetica,sans-Serif" font-size="10.00" fill="#000000">7</text>
</a>
</g>
</g>
<!-- dir_bd834f6d703e990742b68c11905a6fe2 -->
<g id="node5" class="node">
<title>dir_bd834f6d703e990742b68c11905a6fe2</title>
<g id="a_node5"><a xlink:href="dir_bd834f6d703e990742b68c11905a6fe2.html" target="_top" xlink:title="util">
<polygon fill="#ffffff" stroke="#000000" points="386,-540 332,-540 332,-504 386,-504 386,-540"/>
<text text-anchor="middle" x="359" y="-519.5" font-family="Helvetica,sans-Serif" font-size="10.00" fill="#000000">util</text>
</a>
</g>
</g>
<!-- dir_a8563fb538e645acca0097d117a29c7f&#45;&gt;dir_bd834f6d703e990742b68c11905a6fe2 -->
<g id="edge40" class="edge">
<title>dir_a8563fb538e645acca0097d117a29c7f&#45;&gt;dir_bd834f6d703e990742b68c11905a6fe2</title>
<path fill="none" stroke="#000000" d="M377.7203,-575.8314C373.3465,-567.9617 368.8286,-558.5712 365.1721,-549.8533"/>
<polygon fill="#000000" stroke="#000000" points="368.3777,-548.4409 361.4634,-540.4133 361.8625,-551.0006 368.3777,-548.4409"/>
<g id="a_edge40&#45;headlabel"><a xlink:href="dir_000019_000021.html" target="_top" xlink:title="4">
<text text-anchor="middle" x="372.3347" y="-548.2484" font-family="Helvetica,sans-Serif" font-size="10.00" fill="#000000">4</text>
</a>
</g>
</g>
<!-- dir_a8563fb538e645acca0097d117a29c7f&#45;&gt;dir_37e37a27cff779b381c25ed0134aa6e8 -->
<g id="edge44" class="edge">
<title>dir_a8563fb538e645acca0097d117a29c7f&#45;&gt;dir_37e37a27cff779b381c25ed0134aa6e8</title>
<path fill="none" stroke="#000000" d="M395.9461,-575.9692C399.2269,-557.4765 402.2939,-528.0902 395,-504 392.0436,-494.2355 386.6748,-484.6229 380.97,-476.2762"/>
<polygon fill="#000000" stroke="#000000" points="383.7129,-474.0973 374.9905,-468.0831 378.0586,-478.2239 383.7129,-474.0973"/>
<g id="a_edge44&#45;headlabel"><a xlink:href="dir_000019_000018.html" target="_top" xlink:title="9">
<text text-anchor="middle" x="388.1253" y="-472.827" font-family="Helvetica,sans-Serif" font-size="10.00" fill="#000000">9</text>
</a>
</g>
</g>
<!-- dir_fd1e11fb0964f7346e999e146b0dfd59 -->
<g id="node7" class="node">
<title>dir_fd1e11fb0964f7346e999e146b0dfd59</title>
<g id="a_node7"><a xlink:href="dir_fd1e11fb0964f7346e999e146b0dfd59.html" target="_top" xlink:title="common">
<polygon fill="none" stroke="#000000" points="237.5,-108 182.5,-108 182.5,-72 237.5,-72 237.5,-108"/>
<text text-anchor="middle" x="210" y="-87.5" font-family="Helvetica,sans-Serif" font-size="10.00" fill="#000000">common</text>
</a>
</g>
</g>
<!-- dir_a8563fb538e645acca0097d117a29c7f&#45;&gt;dir_fd1e11fb0964f7346e999e146b0dfd59 -->
<g id="edge37" class="edge">
<title>dir_a8563fb538e645acca0097d117a29c7f&#45;&gt;dir_fd1e11fb0964f7346e999e146b0dfd59</title>
<path fill="none" stroke="#000000" d="M362.2715,-587.188C283.6077,-568.3065 76,-512.5496 76,-450 76,-450 76,-450 76,-234 76,-176.6557 133.654,-132.5834 173.3272,-109.0445"/>
<polygon fill="#000000" stroke="#000000" points="175.3117,-111.9408 182.2351,-103.921 171.8216,-105.8728 175.3117,-111.9408"/>
<g id="a_edge37&#45;headlabel"><a xlink:href="dir_000019_000015.html" target="_top" xlink:title="10">
<text text-anchor="middle" x="173.6113" y="-113.6941" font-family="Helvetica,sans-Serif" font-size="10.00" fill="#000000">10</text>
</a>
</g>
</g>
<!-- dir_c541d4b187fc5f863b4735b323978e0f -->
<g id="node8" class="node">
<title>dir_c541d4b187fc5f863b4735b323978e0f</title>
<g id="a_node8"><a xlink:href="dir_c541d4b187fc5f863b4735b323978e0f.html" target="_top" xlink:title="util">
<polygon fill="none" stroke="#000000" points="293,-36 239,-36 239,0 293,0 293,-36"/>
<text text-anchor="middle" x="266" y="-15.5" font-family="Helvetica,sans-Serif" font-size="10.00" fill="#000000">util</text>
</a>
</g>
</g>
<!-- dir_a8563fb538e645acca0097d117a29c7f&#45;&gt;dir_c541d4b187fc5f863b4735b323978e0f -->
<g id="edge38" class="edge">
<title>dir_a8563fb538e645acca0097d117a29c7f&#45;&gt;dir_c541d4b187fc5f863b4735b323978e0f</title>
<path fill="none" stroke="#000000" d="M362.3348,-592.0936C311.7174,-587.9614 206.2612,-575.4917 125,-540 62.2652,-512.5999 0,-518.4574 0,-450 0,-450 0,-450 0,-162 0,-115.3524 16.5812,-99.8538 54,-72 81.4913,-51.536 175.5785,-33.0884 228.705,-23.9842"/>
<polygon fill="#000000" stroke="#000000" points="229.4734,-27.4041 238.7523,-22.2901 228.3095,-20.5015 229.4734,-27.4041"/>
<g id="a_edge38&#45;headlabel"><a xlink:href="dir_000019_000011.html" target="_top" xlink:title="4">
<text text-anchor="middle" x="226.4009" y="-28.3014" font-family="Helvetica,sans-Serif" font-size="10.00" fill="#000000">4</text>
</a>
</g>
</g>
<!-- dir_d3b86ce335ad818909ececff0fac1eca -->
<g id="node9" class="node">
<title>dir_d3b86ce335ad818909ececff0fac1eca</title>
<g id="a_node9"><a xlink:href="dir_d3b86ce335ad818909ececff0fac1eca.html" target="_top" xlink:title="conversion">
<polygon fill="none" stroke="#000000" points="207.5,-468 142.5,-468 142.5,-432 207.5,-432 207.5,-468"/>
<text text-anchor="middle" x="175" y="-447.5" font-family="Helvetica,sans-Serif" font-size="10.00" fill="#000000">conversion</text>
</a>
</g>
</g>
<!-- dir_a8563fb538e645acca0097d117a29c7f&#45;&gt;dir_d3b86ce335ad818909ececff0fac1eca -->
<g id="edge41" class="edge">
<title>dir_a8563fb538e645acca0097d117a29c7f&#45;&gt;dir_d3b86ce335ad818909ececff0fac1eca</title>
<path fill="none" stroke="#000000" d="M364.5168,-575.7623C325.4662,-549.8485 253.8854,-502.3479 210.7503,-473.7237"/>
<polygon fill="#000000" stroke="#000000" points="212.5276,-470.7026 202.26,-468.0896 208.6571,-476.5352 212.5276,-470.7026"/>
<g id="a_edge41&#45;headlabel"><a xlink:href="dir_000019_000023.html" target="_top" xlink:title="2">
<text text-anchor="middle" x="217.0926" y="-467.8244" font-family="Helvetica,sans-Serif" font-size="10.00" fill="#000000">2</text>
</a>
</g>
</g>
<!-- dir_5cbb9a0bf548abf0d2e32772c73d2ad6 -->
<g id="node11" class="node">
<title>dir_5cbb9a0bf548abf0d2e32772c73d2ad6</title>
<g id="a_node11"><a xlink:href="dir_5cbb9a0bf548abf0d2e32772c73d2ad6.html" target="_top" xlink:title="xml">
<polygon fill="none" stroke="#000000" points="424,-180 370,-180 370,-144 424,-144 424,-180"/>
<text text-anchor="middle" x="397" y="-159.5" font-family="Helvetica,sans-Serif" font-size="10.00" fill="#000000">xml</text>
</a>
</g>
</g>
<!-- dir_a8563fb538e645acca0097d117a29c7f&#45;&gt;dir_5cbb9a0bf548abf0d2e32772c73d2ad6 -->
<g id="edge43" class="edge">
<title>dir_a8563fb538e645acca0097d117a29c7f&#45;&gt;dir_5cbb9a0bf548abf0d2e32772c73d2ad6</title>
<path fill="none" stroke="#000000" d="M421.66,-590.8569C487.8824,-582.0313 642,-550.6767 642,-450 642,-450 642,-450 642,-306 642,-210.735 502.6214,-177.2567 434.1166,-166.5554"/>
<polygon fill="#000000" stroke="#000000" points="434.5599,-163.083 424.1554,-165.0821 433.5357,-170.0076 434.5599,-163.083"/>
<g id="a_edge43&#45;headlabel"><a xlink:href="dir_000019_000027.html" target="_top" xlink:title="6">
<text text-anchor="middle" x="438.5312" y="-158.3001" font-family="Helvetica,sans-Serif" font-size="10.00" fill="#000000">6</text>
</a>
</g>
</g>
<!-- dir_3f96c34ad80e9031c68706862fabf1a4 -->
<g id="node12" class="node">
<title>dir_3f96c34ad80e9031c68706862fabf1a4</title>
<g id="a_node12"><a xlink:href="dir_3f96c34ad80e9031c68706862fabf1a4.html" target="_top" xlink:title="extension">
<polygon fill="none" stroke="#000000" points="391.5,-252 332.5,-252 332.5,-216 391.5,-216 391.5,-252"/>
<text text-anchor="middle" x="362" y="-231.5" font-family="Helvetica,sans-Serif" font-size="10.00" fill="#000000">extension</text>
</a>
</g>
</g>
<!-- dir_a8563fb538e645acca0097d117a29c7f&#45;&gt;dir_3f96c34ad80e9031c68706862fabf1a4 -->
<g id="edge45" class="edge">
<title>dir_a8563fb538e645acca0097d117a29c7f&#45;&gt;dir_3f96c34ad80e9031c68706862fabf1a4</title>
<path fill="none" stroke="#000000" d="M421.831,-585.9183C444.1299,-578.1378 473.0704,-563.9406 487,-540 495.0465,-526.1706 489.3637,-519.8244 487,-504 472.1706,-404.7199 474.5831,-372.884 421,-288 414.167,-277.1754 404.6043,-267.1443 395.1639,-258.7389"/>
<polygon fill="#000000" stroke="#000000" points="397.2123,-255.8866 387.3253,-252.0789 392.6799,-261.2211 397.2123,-255.8866"/>
<g id="a_edge45&#45;headlabel"><a xlink:href="dir_000019_000005.html" target="_top" xlink:title="11">
<text text-anchor="middle" x="401.79" y="-253.5503" font-family="Helvetica,sans-Serif" font-size="10.00" fill="#000000">11</text>
</a>
</g>
</g>
<!-- dir_6b4f0bfd99a63555e3fb645ce261dd7b&#45;&gt;dir_75ea03fee82884b3113f88b9ca3f5035 -->
<g id="edge5" class="edge">
<title>dir_6b4f0bfd99a63555e3fb645ce261dd7b&#45;&gt;dir_75ea03fee82884b3113f88b9ca3f5035</title>
<path fill="none" stroke="#000000" d="M456.6139,-540.2745C457.0943,-559.2241 452.3714,-589.2116 440,-612 433.5075,-623.9594 423.5906,-635.0824 413.4877,-644.0875"/>
<polygon fill="#000000" stroke="#000000" points="411.201,-641.4372 405.7792,-650.5397 415.694,-646.805 411.201,-641.4372"/>
<g id="a_edge5&#45;headlabel"><a xlink:href="dir_000017_000020.html" target="_top" xlink:title="15">
<text text-anchor="middle" x="412.135" y="-634.4528" font-family="Helvetica,sans-Serif" font-size="10.00" fill="#000000">15</text>
</a>
</g>
</g>
<!-- dir_6b4f0bfd99a63555e3fb645ce261dd7b&#45;&gt;dir_a8563fb538e645acca0097d117a29c7f -->
<g id="edge10" class="edge">
<title>dir_6b4f0bfd99a63555e3fb645ce261dd7b&#45;&gt;dir_a8563fb538e645acca0097d117a29c7f</title>
<path fill="none" stroke="#000000" d="M441.8874,-540.4133C435.7996,-548.8239 427.6938,-558.9323 419.7384,-568.0923"/>
<polygon fill="#000000" stroke="#000000" points="416.8815,-566.0374 412.8406,-575.8314 422.1071,-570.695 416.8815,-566.0374"/>
<g id="a_edge10&#45;headlabel"><a xlink:href="dir_000017_000019.html" target="_top" xlink:title="34">
<text text-anchor="middle" x="417.1537" y="-558.9648" font-family="Helvetica,sans-Serif" font-size="10.00" fill="#000000">34</text>
</a>
</g>
</g>
<!-- dir_6b4f0bfd99a63555e3fb645ce261dd7b&#45;&gt;dir_37e37a27cff779b381c25ed0134aa6e8 -->
<g id="edge8" class="edge">
<title>dir_6b4f0bfd99a63555e3fb645ce261dd7b&#45;&gt;dir_37e37a27cff779b381c25ed0134aa6e8</title>
<path fill="none" stroke="#000000" d="M427.7845,-503.8314C416.453,-494.9632 402.6536,-484.1637 390.3973,-474.5718"/>
<polygon fill="#000000" stroke="#000000" points="392.2402,-471.5697 382.2081,-468.1628 387.926,-477.0822 392.2402,-471.5697"/>
<g id="a_edge8&#45;headlabel"><a xlink:href="dir_000017_000018.html" target="_top" xlink:title="11">
<text text-anchor="middle" x="396.8208" y="-469.0491" font-family="Helvetica,sans-Serif" font-size="10.00" fill="#000000">11</text>
</a>
</g>
</g>
<!-- dir_6b4f0bfd99a63555e3fb645ce261dd7b&#45;&gt;dir_fd1e11fb0964f7346e999e146b0dfd59 -->
<g id="edge3" class="edge">
<title>dir_6b4f0bfd99a63555e3fb645ce261dd7b&#45;&gt;dir_fd1e11fb0964f7346e999e146b0dfd59</title>
<path fill="none" stroke="#000000" d="M423.8662,-513.2597C376.6561,-498.048 284.3529,-468.2848 284,-468 219.2142,-415.7297 190,-389.2429 190,-306 190,-306 190,-306 190,-234 190,-193.3124 197.9304,-146.7676 203.8037,-117.8757"/>
<polygon fill="#000000" stroke="#000000" points="207.2324,-118.5786 205.856,-108.0735 200.3809,-117.144 207.2324,-118.5786"/>
<g id="a_edge3&#45;headlabel"><a xlink:href="dir_000017_000015.html" target="_top" xlink:title="31">
<text text-anchor="middle" x="209.2748" y="-120.1787" font-family="Helvetica,sans-Serif" font-size="10.00" fill="#000000">31</text>
</a>
</g>
</g>
<!-- dir_6b4f0bfd99a63555e3fb645ce261dd7b&#45;&gt;dir_c541d4b187fc5f863b4735b323978e0f -->
<g id="edge4" class="edge">
<title>dir_6b4f0bfd99a63555e3fb645ce261dd7b&#45;&gt;dir_c541d4b187fc5f863b4735b323978e0f</title>
<path fill="none" stroke="#000000" d="M476.2648,-503.7425C519.7211,-470.003 604,-393.3136 604,-306 604,-306 604,-306 604,-162 604,-98.488 549.9826,-100.0492 493,-72 430.621,-41.2945 349.8518,-27.489 303.3894,-21.7244"/>
<polygon fill="#000000" stroke="#000000" points="303.5226,-18.2159 293.1812,-20.5195 302.702,-25.1677 303.5226,-18.2159"/>
<g id="a_edge4&#45;headlabel"><a xlink:href="dir_000017_000011.html" target="_top" xlink:title="2">
<text text-anchor="middle" x="307.4252" y="-13.3175" font-family="Helvetica,sans-Serif" font-size="10.00" fill="#000000">2</text>
</a>
</g>
</g>
<!-- dir_48ff6375d03f1aa509a6e0480f966544 -->
<g id="node10" class="node">
<title>dir_48ff6375d03f1aa509a6e0480f966544</title>
<g id="a_node10"><a xlink:href="dir_48ff6375d03f1aa509a6e0480f966544.html" target="_top" xlink:title="math">
<polygon fill="none" stroke="#000000" points="284,-324 230,-324 230,-288 284,-288 284,-324"/>
<text text-anchor="middle" x="257" y="-303.5" font-family="Helvetica,sans-Serif" font-size="10.00" fill="#000000">math</text>
</a>
</g>
</g>
<!-- dir_6b4f0bfd99a63555e3fb645ce261dd7b&#45;&gt;dir_48ff6375d03f1aa509a6e0480f966544 -->
<g id="edge6" class="edge">
<title>dir_6b4f0bfd99a63555e3fb645ce261dd7b&#45;&gt;dir_48ff6375d03f1aa509a6e0480f966544</title>
<path fill="none" stroke="#000000" d="M423.9829,-513.3325C390.9617,-502.2855 337.6609,-482.843 323,-468 286.0591,-430.6002 268.8996,-369.7136 261.6597,-334.1995"/>
<polygon fill="#000000" stroke="#000000" points="265.0345,-333.2123 259.7204,-324.0465 258.1588,-334.5256 265.0345,-333.2123"/>
<g id="a_edge6&#45;headlabel"><a xlink:href="dir_000017_000006.html" target="_top" xlink:title="1">
<text text-anchor="middle" x="268.4977" y="-333.7104" font-family="Helvetica,sans-Serif" font-size="10.00" fill="#000000">1</text>
</a>
</g>
</g>
<!-- dir_6b4f0bfd99a63555e3fb645ce261dd7b&#45;&gt;dir_5cbb9a0bf548abf0d2e32772c73d2ad6 -->
<g id="edge7" class="edge">
<title>dir_6b4f0bfd99a63555e3fb645ce261dd7b&#45;&gt;dir_5cbb9a0bf548abf0d2e32772c73d2ad6</title>
<path fill="none" stroke="#000000" d="M453.6149,-503.9357C456.2683,-482.791 459.5224,-446.75 456,-416 446.4204,-332.3707 419.6317,-236.2296 405.6861,-189.8695"/>
<polygon fill="#000000" stroke="#000000" points="409.0134,-188.7811 402.7554,-180.232 402.3163,-190.8178 409.0134,-188.7811"/>
<g id="a_edge7&#45;headlabel"><a xlink:href="dir_000017_000027.html" target="_top" xlink:title="75">
<text text-anchor="middle" x="412.7757" y="-188.8942" font-family="Helvetica,sans-Serif" font-size="10.00" fill="#000000">75</text>
</a>
</g>
</g>
<!-- dir_6b4f0bfd99a63555e3fb645ce261dd7b&#45;&gt;dir_3f96c34ad80e9031c68706862fabf1a4 -->
<g id="edge9" class="edge">
<title>dir_6b4f0bfd99a63555e3fb645ce261dd7b&#45;&gt;dir_3f96c34ad80e9031c68706862fabf1a4</title>
<path fill="none" stroke="#000000" d="M449.6847,-503.9049C446.215,-463.5416 434.6421,-363.7411 401,-288 396.7047,-278.3296 390.4976,-268.6735 384.294,-260.2569"/>
<polygon fill="#000000" stroke="#000000" points="387.0385,-258.0842 378.1626,-252.2988 381.4934,-262.3565 387.0385,-258.0842"/>
<g id="a_edge9&#45;headlabel"><a xlink:href="dir_000017_000005.html" target="_top" xlink:title="3">
<text text-anchor="middle" x="391.4814" y="-256.6988" font-family="Helvetica,sans-Serif" font-size="10.00" fill="#000000">3</text>
</a>
</g>
</g>
<!-- dir_bd834f6d703e990742b68c11905a6fe2&#45;&gt;dir_75ea03fee82884b3113f88b9ca3f5035 -->
<g id="edge14" class="edge">
<title>dir_bd834f6d703e990742b68c11905a6fe2&#45;&gt;dir_75ea03fee82884b3113f88b9ca3f5035</title>
<path fill="none" stroke="#000000" d="M355.2252,-540.1435C352.0548,-558.4739 348.8022,-587.5069 354,-612 355.8981,-620.9443 359.3835,-630.2059 363.1209,-638.4797"/>
<polygon fill="#000000" stroke="#000000" points="360.0505,-640.1706 367.5441,-647.6605 366.3568,-637.1324 360.0505,-640.1706"/>
<g id="a_edge14&#45;headlabel"><a xlink:href="dir_000021_000020.html" target="_top" xlink:title="1">
<text text-anchor="middle" x="355.9325" y="-635.6646" font-family="Helvetica,sans-Serif" font-size="10.00" fill="#000000">1</text>
</a>
</g>
</g>
<!-- dir_bd834f6d703e990742b68c11905a6fe2&#45;&gt;dir_a8563fb538e645acca0097d117a29c7f -->
<g id="edge17" class="edge">
<title>dir_bd834f6d703e990742b68c11905a6fe2&#45;&gt;dir_a8563fb538e645acca0097d117a29c7f</title>
<path fill="none" stroke="#000000" d="M373.4154,-540.4133C377.7921,-548.3141 382.3025,-557.7132 385.941,-566.417"/>
<polygon fill="#000000" stroke="#000000" points="382.7216,-567.7944 389.6251,-575.8314 389.2402,-565.2435 382.7216,-567.7944"/>
<g id="a_edge17&#45;headlabel"><a xlink:href="dir_000021_000019.html" target="_top" xlink:title="1">
<text text-anchor="middle" x="378.7677" y="-562.9817" font-family="Helvetica,sans-Serif" font-size="10.00" fill="#000000">1</text>
</a>
</g>
</g>
<!-- dir_bd834f6d703e990742b68c11905a6fe2&#45;&gt;dir_37e37a27cff779b381c25ed0134aa6e8 -->
<g id="edge15" class="edge">
<title>dir_bd834f6d703e990742b68c11905a6fe2&#45;&gt;dir_37e37a27cff779b381c25ed0134aa6e8</title>
<path fill="none" stroke="#000000" d="M359,-503.8314C359,-496.131 359,-486.9743 359,-478.4166"/>
<polygon fill="#000000" stroke="#000000" points="362.5001,-478.4132 359,-468.4133 355.5001,-478.4133 362.5001,-478.4132"/>
<g id="a_edge15&#45;headlabel"><a xlink:href="dir_000021_000018.html" target="_top" xlink:title="1">
<text text-anchor="middle" x="365.3393" y="-479.5079" font-family="Helvetica,sans-Serif" font-size="10.00" fill="#000000">1</text>
</a>
</g>
</g>
<!-- dir_bd834f6d703e990742b68c11905a6fe2&#45;&gt;dir_fd1e11fb0964f7346e999e146b0dfd59 -->
<g id="edge11" class="edge">
<title>dir_bd834f6d703e990742b68c11905a6fe2&#45;&gt;dir_fd1e11fb0964f7346e999e146b0dfd59</title>
<path fill="none" stroke="#000000" d="M331.7087,-519.111C277.8055,-512.8451 160.5116,-496.2501 133,-468 104.4776,-438.7121 114,-418.8816 114,-378 114,-378 114,-378 114,-234 114,-185.9377 151.4817,-141.7161 179.6044,-115.3006"/>
<polygon fill="#000000" stroke="#000000" points="182.2155,-117.6565 187.2493,-108.3339 177.5005,-112.4826 182.2155,-117.6565"/>
<g id="a_edge11&#45;headlabel"><a xlink:href="dir_000021_000015.html" target="_top" xlink:title="5">
<text text-anchor="middle" x="181.471" y="-119.6763" font-family="Helvetica,sans-Serif" font-size="10.00" fill="#000000">5</text>
</a>
</g>
</g>
<!-- dir_bd834f6d703e990742b68c11905a6fe2&#45;&gt;dir_c541d4b187fc5f863b4735b323978e0f -->
<g id="edge12" class="edge">
<title>dir_bd834f6d703e990742b68c11905a6fe2&#45;&gt;dir_c541d4b187fc5f863b4735b323978e0f</title>
<path fill="none" stroke="#000000" d="M385.2167,-503.7489C440.9175,-462.594 566,-356.5346 566,-234 566,-234 566,-234 566,-162 566,-104.2423 382.9893,-48.8625 302.8481,-27.3804"/>
<polygon fill="#000000" stroke="#000000" points="303.7149,-23.9893 293.1521,-24.8125 301.9228,-30.7561 303.7149,-23.9893"/>
<g id="a_edge12&#45;headlabel"><a xlink:href="dir_000021_000011.html" target="_top" xlink:title="2">
<text text-anchor="middle" x="307.9166" y="-19.6649" font-family="Helvetica,sans-Serif" font-size="10.00" fill="#000000">2</text>
</a>
</g>
</g>
<!-- dir_bd834f6d703e990742b68c11905a6fe2&#45;&gt;dir_d3b86ce335ad818909ececff0fac1eca -->
<g id="edge13" class="edge">
<title>dir_bd834f6d703e990742b68c11905a6fe2&#45;&gt;dir_d3b86ce335ad818909ececff0fac1eca</title>
<path fill="none" stroke="#000000" d="M331.8502,-511.3762C301.6049,-499.5411 252.3339,-480.2611 217.0842,-466.4677"/>
<polygon fill="#000000" stroke="#000000" points="218.1292,-463.1183 207.5413,-462.7336 215.5783,-469.637 218.1292,-463.1183"/>
<g id="a_edge13&#45;headlabel"><a xlink:href="dir_000021_000023.html" target="_top" xlink:title="4">
<text text-anchor="middle" x="222.5112" y="-459.284" font-family="Helvetica,sans-Serif" font-size="10.00" fill="#000000">4</text>
</a>
</g>
</g>
<!-- dir_bd834f6d703e990742b68c11905a6fe2&#45;&gt;dir_3f96c34ad80e9031c68706862fabf1a4 -->
<g id="edge16" class="edge">
<title>dir_bd834f6d703e990742b68c11905a6fe2&#45;&gt;dir_3f96c34ad80e9031c68706862fabf1a4</title>
<path fill="none" stroke="#000000" d="M374.9905,-503.9169C382.6538,-494.0371 391.0166,-481.1563 395,-468 416.9493,-395.5063 390.0775,-305.8733 373.3857,-261.5244"/>
<polygon fill="#000000" stroke="#000000" points="376.5768,-260.0729 369.6982,-252.0146 370.0503,-262.6036 376.5768,-260.0729"/>
<g id="a_edge16&#45;headlabel"><a xlink:href="dir_000021_000005.html" target="_top" xlink:title="2">
<text text-anchor="middle" x="380.5235" y="-259.8979" font-family="Helvetica,sans-Serif" font-size="10.00" fill="#000000">2</text>
</a>
</g>
</g>
<!-- dir_37e37a27cff779b381c25ed0134aa6e8&#45;&gt;dir_75ea03fee82884b3113f88b9ca3f5035 -->
<g id="edge32" class="edge">
<title>dir_37e37a27cff779b381c25ed0134aa6e8&#45;&gt;dir_75ea03fee82884b3113f88b9ca3f5035</title>
<path fill="none" stroke="#000000" d="M351.0354,-468.0831C344.3462,-477.9629 335.9834,-490.8437 332,-504 327.3635,-519.3135 329.4371,-524.2066 332,-540 337.4031,-573.2954 342.2014,-581.2205 356,-612 360.0483,-621.0303 365.1656,-630.5076 369.658,-638.9574"/>
<polygon fill="#000000" stroke="#000000" points="366.6407,-640.7406 374.3742,-647.9824 372.8446,-637.4985 366.6407,-640.7406"/>
<g id="a_edge32&#45;headlabel"><a xlink:href="dir_000018_000020.html" target="_top" xlink:title="1">
<text text-anchor="middle" x="362.4595" y="-636.3698" font-family="Helvetica,sans-Serif" font-size="10.00" fill="#000000">1</text>
</a>
</g>
</g>
<!-- dir_a0a785b8d726fb513b94381e63693443 -->
<g id="node13" class="node">
<title>dir_a0a785b8d726fb513b94381e63693443</title>
<g id="a_node13"><a xlink:href="dir_a0a785b8d726fb513b94381e63693443.html" target="_top" xlink:title="validator">
<polygon fill="none" stroke="#000000" points="386,-396 332,-396 332,-360 386,-360 386,-396"/>
<text text-anchor="middle" x="359" y="-375.5" font-family="Helvetica,sans-Serif" font-size="10.00" fill="#000000">validator</text>
</a>
</g>
</g>
<!-- dir_37e37a27cff779b381c25ed0134aa6e8&#45;&gt;dir_a0a785b8d726fb513b94381e63693443 -->
<g id="edge33" class="edge">
<title>dir_37e37a27cff779b381c25ed0134aa6e8&#45;&gt;dir_a0a785b8d726fb513b94381e63693443</title>
<path fill="none" stroke="#000000" d="M359,-431.8314C359,-424.131 359,-414.9743 359,-406.4166"/>
<polygon fill="#000000" stroke="#000000" points="362.5001,-406.4132 359,-396.4133 355.5001,-406.4133 362.5001,-406.4132"/>
<g id="a_edge33&#45;headlabel"><a xlink:href="dir_000018_000022.html" target="_top" xlink:title="3">
<text text-anchor="middle" x="365.3393" y="-407.5079" font-family="Helvetica,sans-Serif" font-size="10.00" fill="#000000">3</text>
</a>
</g>
</g>
<!-- dir_fd1e11fb0964f7346e999e146b0dfd59&#45;&gt;dir_c541d4b187fc5f863b4735b323978e0f -->
<g id="edge1" class="edge">
<title>dir_fd1e11fb0964f7346e999e146b0dfd59&#45;&gt;dir_c541d4b187fc5f863b4735b323978e0f</title>
<path fill="none" stroke="#000000" d="M218.1788,-71.8314C223.8781,-63.454 231.5446,-53.3531 239.1203,-44.1749"/>
<polygon fill="#000000" stroke="#000000" points="241.9041,-46.3038 245.7026,-36.4133 236.5653,-41.7763 241.9041,-46.3038"/>
<g id="a_edge1&#45;headlabel"><a xlink:href="dir_000015_000011.html" target="_top" xlink:title="2">
<text text-anchor="middle" x="241.7446" y="-48.3817" font-family="Helvetica,sans-Serif" font-size="10.00" fill="#000000">2</text>
</a>
</g>
</g>
<!-- dir_c541d4b187fc5f863b4735b323978e0f&#45;&gt;dir_fd1e11fb0964f7346e999e146b0dfd59 -->
<g id="edge2" class="edge">
<title>dir_c541d4b187fc5f863b4735b323978e0f&#45;&gt;dir_fd1e11fb0964f7346e999e146b0dfd59</title>
<path fill="none" stroke="#000000" d="M257.6546,-36.4133C251.9172,-44.8239 244.2326,-54.9323 236.6589,-64.0923"/>
<polygon fill="#000000" stroke="#000000" points="233.8912,-61.9444 230.0836,-71.8314 239.2257,-66.4768 233.8912,-61.9444"/>
<g id="a_edge2&#45;headlabel"><a xlink:href="dir_000011_000015.html" target="_top" xlink:title="6">
<text text-anchor="middle" x="234.0549" y="-54.8666" font-family="Helvetica,sans-Serif" font-size="10.00" fill="#000000">6</text>
</a>
</g>
</g>
<!-- dir_d3b86ce335ad818909ececff0fac1eca&#45;&gt;dir_fd1e11fb0964f7346e999e146b0dfd59 -->
<g id="edge18" class="edge">
<title>dir_d3b86ce335ad818909ececff0fac1eca&#45;&gt;dir_fd1e11fb0964f7346e999e146b0dfd59</title>
<path fill="none" stroke="#000000" d="M170.2344,-431.9623C163.4975,-404.8344 152,-351.8236 152,-306 152,-306 152,-306 152,-234 152,-192.6022 159.4506,-181.9459 176,-144 180.0759,-134.6545 185.6153,-125.0494 191.0393,-116.5793"/>
<polygon fill="#000000" stroke="#000000" points="193.972,-118.4898 196.5836,-108.2218 188.1389,-114.62 193.972,-118.4898"/>
<g id="a_edge18&#45;headlabel"><a xlink:href="dir_000023_000015.html" target="_top" xlink:title="5">
<text text-anchor="middle" x="194.3509" y="-120.5547" font-family="Helvetica,sans-Serif" font-size="10.00" fill="#000000">5</text>
</a>
</g>
</g>
<!-- dir_d3b86ce335ad818909ececff0fac1eca&#45;&gt;dir_c541d4b187fc5f863b4735b323978e0f -->
<g id="edge19" class="edge">
<title>dir_d3b86ce335ad818909ececff0fac1eca&#45;&gt;dir_c541d4b187fc5f863b4735b323978e0f</title>
<path fill="none" stroke="#000000" d="M142.1851,-433.817C101.6549,-411.2468 38,-366.2142 38,-306 38,-306 38,-306 38,-162 38,-72.8601 164.1219,-36.6601 228.759,-23.961"/>
<polygon fill="#000000" stroke="#000000" points="229.7647,-27.3336 238.9501,-22.0535 228.4768,-20.4531 229.7647,-27.3336"/>
<g id="a_edge19&#45;headlabel"><a xlink:href="dir_000023_000011.html" target="_top" xlink:title="11">
<text text-anchor="middle" x="226.7538" y="-28.2856" font-family="Helvetica,sans-Serif" font-size="10.00" fill="#000000">11</text>
</a>
</g>
</g>
<!-- dir_d3b86ce335ad818909ececff0fac1eca&#45;&gt;dir_48ff6375d03f1aa509a6e0480f966544 -->
<g id="edge20" class="edge">
<title>dir_d3b86ce335ad818909ececff0fac1eca&#45;&gt;dir_48ff6375d03f1aa509a6e0480f966544</title>
<path fill="none" stroke="#000000" d="M185.3854,-431.7623C199.6181,-406.7682 225.2863,-361.6924 241.7156,-332.8409"/>
<polygon fill="#000000" stroke="#000000" points="244.792,-334.5114 246.699,-324.0896 238.7091,-331.0475 244.792,-334.5114"/>
<g id="a_edge20&#45;headlabel"><a xlink:href="dir_000023_000006.html" target="_top" xlink:title="6">
<text text-anchor="middle" x="245.4806" y="-336.5401" font-family="Helvetica,sans-Serif" font-size="10.00" fill="#000000">6</text>
</a>
</g>
</g>
<!-- dir_d3b86ce335ad818909ececff0fac1eca&#45;&gt;dir_3f96c34ad80e9031c68706862fabf1a4 -->
<g id="edge21" class="edge">
<title>dir_d3b86ce335ad818909ececff0fac1eca&#45;&gt;dir_3f96c34ad80e9031c68706862fabf1a4</title>
<path fill="none" stroke="#000000" d="M194.1895,-431.8515C204.9201,-421.5325 218.4246,-408.2596 230,-396 259.1915,-365.0831 266.0504,-356.8895 293,-324 310.1581,-303.06 328.7902,-278.6504 342.3631,-260.5392"/>
<polygon fill="#000000" stroke="#000000" points="345.4133,-262.304 348.5911,-252.1969 339.804,-258.1163 345.4133,-262.304"/>
<g id="a_edge21&#45;headlabel"><a xlink:href="dir_000023_000005.html" target="_top" xlink:title="5">
<text text-anchor="middle" x="345.5381" y="-264.383" font-family="Helvetica,sans-Serif" font-size="10.00" fill="#000000">5</text>
</a>
</g>
</g>
<!-- dir_d3b86ce335ad818909ececff0fac1eca&#45;&gt;dir_a0a785b8d726fb513b94381e63693443 -->
<g id="edge22" class="edge">
<title>dir_d3b86ce335ad818909ececff0fac1eca&#45;&gt;dir_a0a785b8d726fb513b94381e63693443</title>
<path fill="none" stroke="#000000" d="M207.5619,-438.2584C236.6701,-427.6308 280.4061,-411.3381 318,-396 319.3946,-395.431 320.8129,-394.8451 322.2434,-394.248"/>
<polygon fill="#000000" stroke="#000000" points="323.9073,-397.3437 331.7381,-390.2072 321.1661,-390.9027 323.9073,-397.3437"/>
<g id="a_edge22&#45;headlabel"><a xlink:href="dir_000023_000022.html" target="_top" xlink:title="14">
<text text-anchor="middle" x="321.7116" y="-398.8638" font-family="Helvetica,sans-Serif" font-size="10.00" fill="#000000">14</text>
</a>
</g>
</g>
<!-- dir_48ff6375d03f1aa509a6e0480f966544&#45;&gt;dir_fd1e11fb0964f7346e999e146b0dfd59 -->
<g id="edge26" class="edge">
<title>dir_48ff6375d03f1aa509a6e0480f966544&#45;&gt;dir_fd1e11fb0964f7346e999e146b0dfd59</title>
<path fill="none" stroke="#000000" d="M253.0736,-287.9555C244.8832,-250.3144 225.9249,-163.1867 216.1197,-118.1246"/>
<polygon fill="#000000" stroke="#000000" points="219.4945,-117.1722 213.9482,-108.1451 212.6545,-118.6606 219.4945,-117.1722"/>
<g id="a_edge26&#45;headlabel"><a xlink:href="dir_000006_000015.html" target="_top" xlink:title="23">
<text text-anchor="middle" x="223.033" y="-117.581" font-family="Helvetica,sans-Serif" font-size="10.00" fill="#000000">23</text>
</a>
</g>
</g>
<!-- dir_48ff6375d03f1aa509a6e0480f966544&#45;&gt;dir_c541d4b187fc5f863b4735b323978e0f -->
<g id="edge27" class="edge">
<title>dir_48ff6375d03f1aa509a6e0480f966544&#45;&gt;dir_c541d4b187fc5f863b4735b323978e0f</title>
<path fill="none" stroke="#000000" d="M257.563,-287.9843C259.0846,-239.2939 263.2876,-104.7961 265.1232,-46.0573"/>
<polygon fill="#000000" stroke="#000000" points="268.6231,-46.1134 265.4372,-36.0089 261.6265,-45.8946 268.6231,-46.1134"/>
<g id="a_edge27&#45;headlabel"><a xlink:href="dir_000006_000011.html" target="_top" xlink:title="11">
<text text-anchor="middle" x="271.3488" y="-47.2949" font-family="Helvetica,sans-Serif" font-size="10.00" fill="#000000">11</text>
</a>
</g>
</g>
<!-- dir_48ff6375d03f1aa509a6e0480f966544&#45;&gt;dir_5cbb9a0bf548abf0d2e32772c73d2ad6 -->
<g id="edge28" class="edge">
<title>dir_48ff6375d03f1aa509a6e0480f966544&#45;&gt;dir_5cbb9a0bf548abf0d2e32772c73d2ad6</title>
<path fill="none" stroke="#000000" d="M268.1997,-287.8725C280.5002,-268.7746 301.5143,-238.4173 324,-216 335.2477,-204.7865 348.9488,-194.0354 361.4302,-185.1196"/>
<polygon fill="#000000" stroke="#000000" points="363.6334,-187.8502 369.8311,-179.2572 359.6275,-182.1097 363.6334,-187.8502"/>
<g id="a_edge28&#45;headlabel"><a xlink:href="dir_000006_000027.html" target="_top" xlink:title="6">
<text text-anchor="middle" x="362.3104" y="-189.7356" font-family="Helvetica,sans-Serif" font-size="10.00" fill="#000000">6</text>
</a>
</g>
</g>
<!-- dir_48ff6375d03f1aa509a6e0480f966544&#45;&gt;dir_3f96c34ad80e9031c68706862fabf1a4 -->
<g id="edge29" class="edge">
<title>dir_48ff6375d03f1aa509a6e0480f966544&#45;&gt;dir_3f96c34ad80e9031c68706862fabf1a4</title>
<path fill="none" stroke="#000000" d="M283.4959,-287.8314C296.6774,-278.7927 312.7847,-267.7476 326.9711,-258.0198"/>
<polygon fill="#000000" stroke="#000000" points="329.2446,-260.7047 335.5125,-252.1628 325.2859,-254.9316 329.2446,-260.7047"/>
<g id="a_edge29&#45;headlabel"><a xlink:href="dir_000006_000005.html" target="_top" xlink:title="6">
<text text-anchor="middle" x="327.8857" y="-262.5792" font-family="Helvetica,sans-Serif" font-size="10.00" fill="#000000">6</text>
</a>
</g>
</g>
<!-- dir_5cbb9a0bf548abf0d2e32772c73d2ad6&#45;&gt;dir_fd1e11fb0964f7346e999e146b0dfd59 -->
<g id="edge30" class="edge">
<title>dir_5cbb9a0bf548abf0d2e32772c73d2ad6&#45;&gt;dir_fd1e11fb0964f7346e999e146b0dfd59</title>
<path fill="none" stroke="#000000" d="M369.8086,-151.5306C337.4941,-139.0886 283.4088,-118.2643 247.2264,-104.3332"/>
<polygon fill="#000000" stroke="#000000" points="248.1187,-100.9263 237.5289,-100.5994 245.6035,-107.4588 248.1187,-100.9263"/>
<g id="a_edge30&#45;headlabel"><a xlink:href="dir_000027_000015.html" target="_top" xlink:title="17">
<text text-anchor="middle" x="252.4934" y="-97.0682" font-family="Helvetica,sans-Serif" font-size="10.00" fill="#000000">17</text>
</a>
</g>
</g>
<!-- dir_5cbb9a0bf548abf0d2e32772c73d2ad6&#45;&gt;dir_c541d4b187fc5f863b4735b323978e0f -->
<g id="edge31" class="edge">
<title>dir_5cbb9a0bf548abf0d2e32772c73d2ad6&#45;&gt;dir_c541d4b187fc5f863b4735b323978e0f</title>
<path fill="none" stroke="#000000" d="M392.2942,-143.9787C386.4476,-124.411 374.8699,-93.1315 356,-72 341.3239,-55.5649 320.4319,-42.6079 302.4707,-33.5101"/>
<polygon fill="#000000" stroke="#000000" points="303.9186,-30.3224 293.3938,-29.1063 300.863,-36.6203 303.9186,-30.3224"/>
<g id="a_edge31&#45;headlabel"><a xlink:href="dir_000027_000011.html" target="_top" xlink:title="5">
<text text-anchor="middle" x="308.392" y="-26.8369" font-family="Helvetica,sans-Serif" font-size="10.00" fill="#000000">5</text>
</a>
</g>
</g>
<!-- dir_3f96c34ad80e9031c68706862fabf1a4&#45;&gt;dir_fd1e11fb0964f7346e999e146b0dfd59 -->
<g id="edge34" class="edge">
<title>dir_3f96c34ad80e9031c68706862fabf1a4&#45;&gt;dir_fd1e11fb0964f7346e999e146b0dfd59</title>
<path fill="none" stroke="#000000" d="M342.7491,-215.7623C315.7954,-190.2272 266.7167,-143.7316 236.3789,-114.9906"/>
<polygon fill="#000000" stroke="#000000" points="238.7613,-112.4263 229.0946,-108.0896 233.947,-117.5079 238.7613,-112.4263"/>
<g id="a_edge34&#45;headlabel"><a xlink:href="dir_000005_000015.html" target="_top" xlink:title="11">
<text text-anchor="middle" x="243.3234" y="-110.3372" font-family="Helvetica,sans-Serif" font-size="10.00" fill="#000000">11</text>
</a>
</g>
</g>
<!-- dir_3f96c34ad80e9031c68706862fabf1a4&#45;&gt;dir_c541d4b187fc5f863b4735b323978e0f -->
<g id="edge35" class="edge">
<title>dir_3f96c34ad80e9031c68706862fabf1a4&#45;&gt;dir_c541d4b187fc5f863b4735b323978e0f</title>
<path fill="none" stroke="#000000" d="M353.9802,-215.9555C337.1803,-178.1556 298.2002,-90.4506 278.2473,-45.5564"/>
<polygon fill="#000000" stroke="#000000" points="281.3243,-43.8617 274.0645,-36.1451 274.9276,-46.7047 281.3243,-43.8617"/>
<g id="a_edge35&#45;headlabel"><a xlink:href="dir_000005_000011.html" target="_top" xlink:title="4">
<text text-anchor="middle" x="285.3787" y="-43.4934" font-family="Helvetica,sans-Serif" font-size="10.00" fill="#000000">4</text>
</a>
</g>
</g>
<!-- dir_3f96c34ad80e9031c68706862fabf1a4&#45;&gt;dir_5cbb9a0bf548abf0d2e32772c73d2ad6 -->
<g id="edge36" class="edge">
<title>dir_3f96c34ad80e9031c68706862fabf1a4&#45;&gt;dir_5cbb9a0bf548abf0d2e32772c73d2ad6</title>
<path fill="none" stroke="#000000" d="M370.832,-215.8314C374.6986,-207.8771 379.3206,-198.369 383.5968,-189.5723"/>
<polygon fill="#000000" stroke="#000000" points="386.8249,-190.9371 388.0491,-180.4133 380.5293,-187.8768 386.8249,-190.9371"/>
<g id="a_edge36&#45;headlabel"><a xlink:href="dir_000005_000027.html" target="_top" xlink:title="2">
<text text-anchor="middle" x="387.807" y="-192.9113" font-family="Helvetica,sans-Serif" font-size="10.00" fill="#000000">2</text>
</a>
</g>
</g>
<!-- dir_a0a785b8d726fb513b94381e63693443&#45;&gt;dir_48ff6375d03f1aa509a6e0480f966544 -->
<g id="edge46" class="edge">
<title>dir_a0a785b8d726fb513b94381e63693443&#45;&gt;dir_48ff6375d03f1aa509a6e0480f966544</title>
<path fill="none" stroke="#000000" d="M333.2611,-359.8314C320.4563,-350.7927 304.8091,-339.7476 291.0281,-330.0198"/>
<polygon fill="#000000" stroke="#000000" points="292.9188,-327.0703 282.7307,-324.1628 288.882,-332.7891 292.9188,-327.0703"/>
<g id="a_edge46&#45;headlabel"><a xlink:href="dir_000022_000006.html" target="_top" xlink:title="1">
<text text-anchor="middle" x="297.4928" y="-324.3236" font-family="Helvetica,sans-Serif" font-size="10.00" fill="#000000">1</text>
</a>
</g>
</g>
<!-- dir_a0a785b8d726fb513b94381e63693443&#45;&gt;dir_3f96c34ad80e9031c68706862fabf1a4 -->
<g id="edge47" class="edge">
<title>dir_a0a785b8d726fb513b94381e63693443&#45;&gt;dir_3f96c34ad80e9031c68706862fabf1a4</title>
<path fill="none" stroke="#000000" d="M359.38,-359.7623C359.8916,-335.201 360.8073,-291.2474 361.4093,-262.3541"/>
<polygon fill="#000000" stroke="#000000" points="364.914,-262.1604 361.6231,-252.0896 357.9155,-262.0145 364.914,-262.1604"/>
<g id="a_edge47&#45;headlabel"><a xlink:href="dir_000022_000005.html" target="_top" xlink:title="1">
<text text-anchor="middle" x="367.6779" y="-263.3133" font-family="Helvetica,sans-Serif" font-size="10.00" fill="#000000">1</text>
</a>
</g>
</g>
</g>
</svg>
        <g id="navigator" transform="translate(0 0)" fill="#404254">
                <rect fill="#f2f5e9" fill-opacity="0.5" stroke="#606060" stroke-width=".5" x="0" y="0" width="60" height="60"/>
                <use id="zoomplus" xlink:href="#zoomPlus" x="17" y="9" onmousedown="handleZoom(evt,'in')"/>
                <use id="zoomminus" xlink:href="#zoomMin" x="42" y="9" onmousedown="handleZoom(evt,'out')"/>
                <use id="reset" xlink:href="#resetDef" x="30" y="36" onmousedown="handleReset()"/>
                <g id="arrowUp" xlink:href="#dirArrow" transform="translate(30 24)" onmousedown="handlePan(0,-1)">
                  <use xlink:href="#rim" fill="#404040">
                        <set attributeName="fill" to="#808080" begin="arrowUp.mouseover" end="arrowUp.mouseout"/>
                  </use>
                  <path fill="none" stroke="white" stroke-width="1.5" d="M0,-3.0v7 M-2.5,-0.5L0,-3.0L2.5,-0.5"/>
                </g>
                <g id="arrowRight" xlink:href="#dirArrow" transform="rotate(90) translate(36 -43)" onmousedown="handlePan(1,0)">
                  <use xlink:href="#rim" fill="#404040">
                        <set attributeName="fill" to="#808080" begin="arrowRight.mouseover" end="arrowRight.mouseout"/>
                  </use>
                  <path fill="none" stroke="white" stroke-width="1.5" d="M0,-3.0v7 M-2.5,-0.5L0,-3.0L2.5,-0.5"/>
                </g>
                <g id="arrowDown" xlink:href="#dirArrow" transform="rotate(180) translate(-30 -48)" onmousedown="handlePan(0,1)">
                  <use xlink:href="#rim" fill="#404040">
                        <set attributeName="fill" to="#808080" begin="arrowDown.mouseover" end="arrowDown.mouseout"/>
                  </use>
                  <path fill="none" stroke="white" stroke-width="1.5" d="M0,-3.0v7 M-2.5,-0.5L0,-3.0L2.5,-0.5"/>
                </g>
                <g id="arrowLeft" xlink:href="#dirArrow" transform="rotate(270) translate(-36 17)" onmousedown="handlePan(-1,0)">
                  <use xlink:href="#rim" fill="#404040">
                        <set attributeName="fill" to="#808080" begin="arrowLeft.mouseover" end="arrowLeft.mouseout"/>
                  </use>
                  <path fill="none" stroke="white" stroke-width="1.5" d="M0,-3.0v7 M-2.5,-0.5L0,-3.0L2.5,-0.5"/>
                </g>
        </g>
        <svg viewBox="0 0 15 15" width="100%" height="30px" preserveAspectRatio="xMaxYMin meet">
         <g id="arrow_out" transform="scale(0.3 0.3)">
          <a xlink:href="dir_4a31e270508d04d0af8285a857164a4c_dep_org.svg" target="_base">
           <rect id="button" ry="5" rx="5" y="6" x="6" height="38" width="38"
                fill="#f2f5e9" fill-opacity="0.5" stroke="#606060" stroke-width="1.0"/>
           <path id="arrow"
             d="M 11.500037,31.436501 C 11.940474,20.09759 22.043105,11.32322 32.158766,21.979434 L 37.068811,17.246167 C 37.068811,17.246167 37.088388,32 37.088388,32 L 22.160133,31.978069 C 22.160133,31.978069 26.997745,27.140456 26.997745,27.140456 C 18.528582,18.264221 13.291696,25.230495 11.500037,31.436501 z"
             style="fill:#404040;"/>
          </a>
         </g>
        </svg>
</svg>
