<?xml version="1.0" encoding="UTF-8" standalone="no"?>
<!DOCTYPE svg PUBLIC "-//W3C//DTD SVG 1.1//EN"
 "http://www.w3.org/Graphics/SVG/1.1/DTD/svg11.dtd">
<!-- Generated by graphviz version 2.40.1 (20161225.0304)
 -->
<!-- Title: common Pages: 1 -->
<svg width="155pt" height="151pt"
 viewBox="0.00 0.00 154.50 151.00" xmlns="http://www.w3.org/2000/svg" xmlns:xlink="http://www.w3.org/1999/xlink">
<g id="graph0" class="graph" transform="scale(1 1) rotate(0) translate(4 147)">
<title>common</title>
<polygon fill="#ffffff" stroke="transparent" points="-4,4 -4,-147 150.5,-147 150.5,4 -4,4"/>
<g id="clust1" class="cluster">
<title>clusterdir_7b03e134e134ebc1f6457862e207af52</title>
<g id="a_clust1"><a xlink:href="dir_7b03e134e134ebc1f6457862e207af52.html" target="_top" xlink:title="fbc">
<polygon fill="#ddddee" stroke="#000000" points="8,-64 8,-135 80,-135 80,-64 8,-64"/>
<text text-anchor="middle" x="44" y="-123" font-family="Helvetica,sans-Serif" font-size="10.00" fill="#000000">fbc</text>
</a>
</g>
</g>
<!-- dir_496e4851956202bb45315fe7c1680ab4 -->
<g id="node1" class="node">
<title>dir_496e4851956202bb45315fe7c1680ab4</title>
<g id="a_node1"><a xlink:href="dir_496e4851956202bb45315fe7c1680ab4.html" target="_top" xlink:title="common">
<polygon fill="#eeeeff" stroke="#000000" points="71.5,-108 16.5,-108 16.5,-72 71.5,-72 71.5,-108"/>
<text text-anchor="middle" x="44" y="-87.5" font-family="Helvetica,sans-Serif" font-size="10.00" fill="#000000">common</text>
</a>
</g>
</g>
<!-- dir_821e112ecbf539a8266707009a4f56b3 -->
<g id="node2" class="node">
<title>dir_821e112ecbf539a8266707009a4f56b3</title>
<g id="a_node2"><a xlink:href="dir_821e112ecbf539a8266707009a4f56b3.html" target="_top" xlink:title="sbml">
<polygon fill="none" stroke="#000000" points="144,-108 90,-108 90,-72 144,-72 144,-108"/>
<text text-anchor="middle" x="117" y="-87.5" font-family="Helvetica,sans-Serif" font-size="10.00" fill="#000000">sbml</text>
</a>
</g>
</g>
<!-- dir_496e4851956202bb45315fe7c1680ab4&#45;&gt;dir_821e112ecbf539a8266707009a4f56b3 -->
<g id="edge5" class="edge">
<title>dir_496e4851956202bb45315fe7c1680ab4&#45;&gt;dir_821e112ecbf539a8266707009a4f56b3</title>
<path fill="none" stroke="#000000" d="M71.6602,-90C74.2946,-90 76.9291,-90 79.5636,-90"/>
<polygon fill="#000000" stroke="#000000" points="79.7253,-93.5001 89.7253,-90 79.7252,-86.5001 79.7253,-93.5001"/>
<g id="a_edge5&#45;headlabel"><a xlink:href="dir_000030_000004.html" target="_top" xlink:title="11">
<text text-anchor="middle" x="76.1306" y="-93.8393" font-family="Helvetica,sans-Serif" font-size="10.00" fill="#000000">11</text>
</a>
</g>
</g>
<!-- dir_fb4201f8130b4359a64f758895071626 -->
<g id="node3" class="node">
<title>dir_fb4201f8130b4359a64f758895071626</title>
<g id="a_node3"><a xlink:href="dir_fb4201f8130b4359a64f758895071626.html" target="_top" xlink:title="extension">
<polygon fill="none" stroke="#000000" points="146.5,-36 87.5,-36 87.5,0 146.5,0 146.5,-36"/>
<text text-anchor="middle" x="117" y="-15.5" font-family="Helvetica,sans-Serif" font-size="10.00" fill="#000000">extension</text>
</a>
</g>
</g>
<!-- dir_496e4851956202bb45315fe7c1680ab4&#45;&gt;dir_fb4201f8130b4359a64f758895071626 -->
<g id="edge6" class="edge">
<title>dir_496e4851956202bb45315fe7c1680ab4&#45;&gt;dir_fb4201f8130b4359a64f758895071626</title>
<path fill="none" stroke="#000000" d="M56.4686,-71.8314C64.4394,-63.1337 74.9694,-52.5783 85.056,-43.1265"/>
<polygon fill="#000000" stroke="#000000" points="87.6386,-45.5066 92.6331,-36.1628 82.9019,-40.3526 87.6386,-45.5066"/>
<g id="a_edge6&#45;headlabel"><a xlink:href="dir_000030_000029.html" target="_top" xlink:title="5">
<text text-anchor="middle" x="86.9132" y="-47.5294" font-family="Helvetica,sans-Serif" font-size="10.00" fill="#000000">5</text>
</a>
</g>
</g>
<!-- dir_821e112ecbf539a8266707009a4f56b3&#45;&gt;dir_496e4851956202bb45315fe7c1680ab4 -->
<g id="edge2" class="edge">
<title>dir_821e112ecbf539a8266707009a4f56b3&#45;&gt;dir_496e4851956202bb45315fe7c1680ab4</title>
<path fill="none" stroke="#000000" d="M89.7253,-90C87.0908,-90 84.4563,-90 81.8218,-90"/>
<polygon fill="#000000" stroke="#000000" points="81.6602,-86.5001 71.6602,-90 81.6601,-93.5001 81.6602,-86.5001"/>
<g id="a_edge2&#45;headlabel"><a xlink:href="dir_000004_000030.html" target="_top" xlink:title="11">
<text text-anchor="middle" x="85.2548" y="-81.1607" font-family="Helvetica,sans-Serif" font-size="10.00" fill="#000000">11</text>
</a>
</g>
</g>
<!-- dir_821e112ecbf539a8266707009a4f56b3&#45;&gt;dir_fb4201f8130b4359a64f758895071626 -->
<g id="edge1" class="edge">
<title>dir_821e112ecbf539a8266707009a4f56b3&#45;&gt;dir_fb4201f8130b4359a64f758895071626</title>
<path fill="none" stroke="#000000" d="M111.0476,-71.8314C110.2972,-64.131 110.0763,-54.9743 110.3849,-46.4166"/>
<polygon fill="#000000" stroke="#000000" points="113.8792,-46.6161 111.024,-36.4133 106.8935,-46.1697 113.8792,-46.6161"/>
<g id="a_edge1&#45;headlabel"><a xlink:href="dir_000004_000029.html" target="_top" xlink:title="19">
<text text-anchor="middle" x="116.4836" y="-47.8844" font-family="Helvetica,sans-Serif" font-size="10.00" fill="#000000">19</text>
</a>
</g>
</g>
<!-- dir_fb4201f8130b4359a64f758895071626&#45;&gt;dir_496e4851956202bb45315fe7c1680ab4 -->
<g id="edge4" class="edge">
<title>dir_fb4201f8130b4359a64f758895071626&#45;&gt;dir_496e4851956202bb45315fe7c1680ab4</title>
<path fill="none" stroke="#000000" d="M104.307,-36.4133C96.3498,-45.0787 85.9,-55.5464 75.8919,-64.9223"/>
<polygon fill="#000000" stroke="#000000" points="73.3684,-62.4879 68.3734,-71.8314 78.1048,-67.6422 73.3684,-62.4879"/>
<g id="a_edge4&#45;headlabel"><a xlink:href="dir_000029_000030.html" target="_top" xlink:title="2">
<text text-anchor="middle" x="74.094" y="-55.4651" font-family="Helvetica,sans-Serif" font-size="10.00" fill="#000000">2</text>
</a>
</g>
</g>
<!-- dir_fb4201f8130b4359a64f758895071626&#45;&gt;dir_821e112ecbf539a8266707009a4f56b3 -->
<g id="edge3" class="edge">
<title>dir_fb4201f8130b4359a64f758895071626&#45;&gt;dir_821e112ecbf539a8266707009a4f56b3</title>
<path fill="none" stroke="#000000" d="M122.976,-36.4133C123.7071,-44.0593 123.9203,-53.1084 123.6155,-61.5726"/>
<polygon fill="#000000" stroke="#000000" points="120.1048,-61.6264 122.9524,-71.8314 127.0902,-62.078 120.1048,-61.6264"/>
<g id="a_edge3&#45;headlabel"><a xlink:href="dir_000029_000004.html" target="_top" xlink:title="8">
<text text-anchor="middle" x="117.5032" y="-55.3562" font-family="Helvetica,sans-Serif" font-size="10.00" fill="#000000">8</text>
</a>
</g>
</g>
</g>
</svg>
