<?xml version="1.0" encoding="UTF-8" standalone="no"?>
<!DOCTYPE svg PUBLIC "-//W3C//DTD SVG 1.1//EN"
 "http://www.w3.org/Graphics/SVG/1.1/DTD/svg11.dtd">
<!-- Generated by graphviz version 2.40.1 (20161225.0304)
 -->
<!-- Title: extension Pages: 1 -->
<svg width="249pt" height="295pt"
 viewBox="0.00 0.00 249.38 295.00" xmlns="http://www.w3.org/2000/svg" xmlns:xlink="http://www.w3.org/1999/xlink">
<g id="graph0" class="graph" transform="scale(1 1) rotate(0) translate(4 291)">
<title>extension</title>
<polygon fill="#ffffff" stroke="transparent" points="-4,4 -4,-291 245.3762,-291 245.3762,4 -4,4"/>
<g id="clust1" class="cluster">
<title>clusterdir_0a90ca78c76a6bb683a2fd4a8c3281f8</title>
<g id="a_clust1"><a xlink:href="dir_0a90ca78c76a6bb683a2fd4a8c3281f8.html" target="_top" xlink:title="qual">
<polygon fill="#ddddee" stroke="#000000" points="67.3762,-208 67.3762,-279 143.3762,-279 143.3762,-208 67.3762,-208"/>
<text text-anchor="middle" x="105.3762" y="-267" font-family="Helvetica,sans-Serif" font-size="10.00" fill="#000000">qual</text>
</a>
</g>
</g>
<!-- dir_eda3612caf036758c7e7b2fe6230660c -->
<g id="node1" class="node">
<title>dir_eda3612caf036758c7e7b2fe6230660c</title>
<g id="a_node1"><a xlink:href="dir_eda3612caf036758c7e7b2fe6230660c.html" target="_top" xlink:title="extension">
<polygon fill="#eeeeff" stroke="#000000" points="134.8762,-252 75.8762,-252 75.8762,-216 134.8762,-216 134.8762,-252"/>
<text text-anchor="middle" x="105.3762" y="-231.5" font-family="Helvetica,sans-Serif" font-size="10.00" fill="#000000">extension</text>
</a>
</g>
</g>
<!-- dir_fd1e11fb0964f7346e999e146b0dfd59 -->
<g id="node2" class="node">
<title>dir_fd1e11fb0964f7346e999e146b0dfd59</title>
<g id="a_node2"><a xlink:href="dir_fd1e11fb0964f7346e999e146b0dfd59.html" target="_top" xlink:title="common">
<polygon fill="none" stroke="#000000" points="130.8762,-108 75.8762,-108 75.8762,-72 130.8762,-72 130.8762,-108"/>
<text text-anchor="middle" x="103.3762" y="-87.5" font-family="Helvetica,sans-Serif" font-size="10.00" fill="#000000">common</text>
</a>
</g>
</g>
<!-- dir_eda3612caf036758c7e7b2fe6230660c&#45;&gt;dir_fd1e11fb0964f7346e999e146b0dfd59 -->
<g id="edge9" class="edge">
<title>dir_eda3612caf036758c7e7b2fe6230660c&#45;&gt;dir_fd1e11fb0964f7346e999e146b0dfd59</title>
<path fill="none" stroke="#000000" d="M105.1229,-215.7623C104.7818,-191.201 104.1713,-147.2474 103.77,-118.3541"/>
<polygon fill="#000000" stroke="#000000" points="107.2661,-118.04 103.6274,-108.0896 100.2668,-118.1373 107.2661,-118.04"/>
<g id="a_edge9&#45;headlabel"><a xlink:href="dir_000044_000015.html" target="_top" xlink:title="3">
<text text-anchor="middle" x="110.1549" y="-119.0949" font-family="Helvetica,sans-Serif" font-size="10.00" fill="#000000">3</text>
</a>
</g>
</g>
<!-- dir_c541d4b187fc5f863b4735b323978e0f -->
<g id="node3" class="node">
<title>dir_c541d4b187fc5f863b4735b323978e0f</title>
<g id="a_node3"><a xlink:href="dir_c541d4b187fc5f863b4735b323978e0f.html" target="_top" xlink:title="util">
<polygon fill="none" stroke="#000000" points="130.3762,-36 76.3762,-36 76.3762,0 130.3762,0 130.3762,-36"/>
<text text-anchor="middle" x="103.3762" y="-15.5" font-family="Helvetica,sans-Serif" font-size="10.00" fill="#000000">util</text>
</a>
</g>
</g>
<!-- dir_eda3612caf036758c7e7b2fe6230660c&#45;&gt;dir_c541d4b187fc5f863b4735b323978e0f -->
<g id="edge10" class="edge">
<title>dir_eda3612caf036758c7e7b2fe6230660c&#45;&gt;dir_c541d4b187fc5f863b4735b323978e0f</title>
<path fill="none" stroke="#000000" d="M75.8691,-226.407C52.993,-218.7975 22.8315,-204.5916 8.3762,-180 -20.2372,-131.3223 33.3386,-74.367 70.9977,-42.6104"/>
<polygon fill="#000000" stroke="#000000" points="73.257,-45.2839 78.7569,-36.2284 68.8103,-39.8777 73.257,-45.2839"/>
<g id="a_edge10&#45;headlabel"><a xlink:href="dir_000044_000011.html" target="_top" xlink:title="1">
<text text-anchor="middle" x="72.2845" y="-47.2601" font-family="Helvetica,sans-Serif" font-size="10.00" fill="#000000">1</text>
</a>
</g>
</g>
<!-- dir_aa5aa98f6df5b802bb45e20a57604d12 -->
<g id="node4" class="node">
<title>dir_aa5aa98f6df5b802bb45e20a57604d12</title>
<g id="a_node4"><a xlink:href="dir_aa5aa98f6df5b802bb45e20a57604d12.html" target="_top" xlink:title="sbml">
<polygon fill="none" stroke="#000000" points="187.3762,-180 133.3762,-180 133.3762,-144 187.3762,-144 187.3762,-180"/>
<text text-anchor="middle" x="160.3762" y="-159.5" font-family="Helvetica,sans-Serif" font-size="10.00" fill="#000000">sbml</text>
</a>
</g>
</g>
<!-- dir_eda3612caf036758c7e7b2fe6230660c&#45;&gt;dir_aa5aa98f6df5b802bb45e20a57604d12 -->
<g id="edge11" class="edge">
<title>dir_eda3612caf036758c7e7b2fe6230660c&#45;&gt;dir_aa5aa98f6df5b802bb45e20a57604d12</title>
<path fill="none" stroke="#000000" d="M113.3026,-215.8314C118.8856,-207.454 126.4119,-197.3531 133.86,-188.1749"/>
<polygon fill="#000000" stroke="#000000" points="136.6166,-190.3344 140.3345,-180.4133 131.2412,-185.8504 136.6166,-190.3344"/>
<g id="a_edge11&#45;headlabel"><a xlink:href="dir_000044_000026.html" target="_top" xlink:title="2">
<text text-anchor="middle" x="136.4944" y="-192.4134" font-family="Helvetica,sans-Serif" font-size="10.00" fill="#000000">2</text>
</a>
</g>
</g>
<!-- dir_f5fb53e55ba501ec7d605d6902b83c25 -->
<g id="node5" class="node">
<title>dir_f5fb53e55ba501ec7d605d6902b83c25</title>
<g id="a_node5"><a xlink:href="dir_f5fb53e55ba501ec7d605d6902b83c25.html" target="_top" xlink:title="validator">
<polygon fill="none" stroke="#000000" points="241.3762,-108 187.3762,-108 187.3762,-72 241.3762,-72 241.3762,-108"/>
<text text-anchor="middle" x="214.3762" y="-87.5" font-family="Helvetica,sans-Serif" font-size="10.00" fill="#000000">validator</text>
</a>
</g>
</g>
<!-- dir_eda3612caf036758c7e7b2fe6230660c&#45;&gt;dir_f5fb53e55ba501ec7d605d6902b83c25 -->
<g id="edge12" class="edge">
<title>dir_eda3612caf036758c7e7b2fe6230660c&#45;&gt;dir_f5fb53e55ba501ec7d605d6902b83c25</title>
<path fill="none" stroke="#000000" d="M134.904,-223.8953C155.3184,-215.3718 181.4035,-201.1371 196.3762,-180 209.0624,-162.0908 213.3081,-137.4004 214.5234,-118.4099"/>
<polygon fill="#000000" stroke="#000000" points="218.0271,-118.3847 214.9256,-108.254 211.0325,-118.1077 218.0271,-118.3847"/>
<g id="a_edge12&#45;headlabel"><a xlink:href="dir_000044_000043.html" target="_top" xlink:title="6">
<text text-anchor="middle" x="220.722" y="-119.5888" font-family="Helvetica,sans-Serif" font-size="10.00" fill="#000000">6</text>
</a>
</g>
</g>
<!-- dir_3f96c34ad80e9031c68706862fabf1a4 -->
<g id="node6" class="node">
<title>dir_3f96c34ad80e9031c68706862fabf1a4</title>
<g id="a_node6"><a xlink:href="dir_3f96c34ad80e9031c68706862fabf1a4.html" target="_top" xlink:title="extension">
<polygon fill="none" stroke="#000000" points="76.8762,-180 17.8762,-180 17.8762,-144 76.8762,-144 76.8762,-180"/>
<text text-anchor="middle" x="47.3762" y="-159.5" font-family="Helvetica,sans-Serif" font-size="10.00" fill="#000000">extension</text>
</a>
</g>
</g>
<!-- dir_eda3612caf036758c7e7b2fe6230660c&#45;&gt;dir_3f96c34ad80e9031c68706862fabf1a4 -->
<g id="edge13" class="edge">
<title>dir_eda3612caf036758c7e7b2fe6230660c&#45;&gt;dir_3f96c34ad80e9031c68706862fabf1a4</title>
<path fill="none" stroke="#000000" d="M90.7404,-215.8314C84.0601,-207.5386 76.0194,-197.557 68.6858,-188.4533"/>
<polygon fill="#000000" stroke="#000000" points="71.2081,-186.0052 62.2091,-180.4133 65.7568,-190.3965 71.2081,-186.0052"/>
<g id="a_edge13&#45;headlabel"><a xlink:href="dir_000044_000005.html" target="_top" xlink:title="9">
<text text-anchor="middle" x="75.6742" y="-184.5233" font-family="Helvetica,sans-Serif" font-size="10.00" fill="#000000">9</text>
</a>
</g>
</g>
<!-- dir_fd1e11fb0964f7346e999e146b0dfd59&#45;&gt;dir_c541d4b187fc5f863b4735b323978e0f -->
<g id="edge1" class="edge">
<title>dir_fd1e11fb0964f7346e999e146b0dfd59&#45;&gt;dir_c541d4b187fc5f863b4735b323978e0f</title>
<path fill="none" stroke="#000000" d="M97.4238,-71.8314C96.6734,-64.131 96.4525,-54.9743 96.7611,-46.4166"/>
<polygon fill="#000000" stroke="#000000" points="100.2554,-46.6161 97.4002,-36.4133 93.2697,-46.1697 100.2554,-46.6161"/>
<g id="a_edge1&#45;headlabel"><a xlink:href="dir_000015_000011.html" target="_top" xlink:title="2">
<text text-anchor="middle" x="102.8598" y="-47.8844" font-family="Helvetica,sans-Serif" font-size="10.00" fill="#000000">2</text>
</a>
</g>
</g>
<!-- dir_c541d4b187fc5f863b4735b323978e0f&#45;&gt;dir_fd1e11fb0964f7346e999e146b0dfd59 -->
<g id="edge2" class="edge">
<title>dir_c541d4b187fc5f863b4735b323978e0f&#45;&gt;dir_fd1e11fb0964f7346e999e146b0dfd59</title>
<path fill="none" stroke="#000000" d="M109.3522,-36.4133C110.0833,-44.0593 110.2965,-53.1084 109.9917,-61.5726"/>
<polygon fill="#000000" stroke="#000000" points="106.481,-61.6264 109.3286,-71.8314 113.4664,-62.078 106.481,-61.6264"/>
<g id="a_edge2&#45;headlabel"><a xlink:href="dir_000011_000015.html" target="_top" xlink:title="6">
<text text-anchor="middle" x="103.8794" y="-55.3562" font-family="Helvetica,sans-Serif" font-size="10.00" fill="#000000">6</text>
</a>
</g>
</g>
<!-- dir_aa5aa98f6df5b802bb45e20a57604d12&#45;&gt;dir_eda3612caf036758c7e7b2fe6230660c -->
<g id="edge6" class="edge">
<title>dir_aa5aa98f6df5b802bb45e20a57604d12&#45;&gt;dir_eda3612caf036758c7e7b2fe6230660c</title>
<path fill="none" stroke="#000000" d="M152.2865,-180.4133C146.666,-188.8239 139.1218,-198.9323 131.6753,-208.0923"/>
<polygon fill="#000000" stroke="#000000" points="128.9346,-205.9138 125.2074,-215.8314 134.3058,-210.4027 128.9346,-205.9138"/>
<g id="a_edge6&#45;headlabel"><a xlink:href="dir_000026_000044.html" target="_top" xlink:title="6">
<text text-anchor="middle" x="129.0611" y="-198.8348" font-family="Helvetica,sans-Serif" font-size="10.00" fill="#000000">6</text>
</a>
</g>
</g>
<!-- dir_aa5aa98f6df5b802bb45e20a57604d12&#45;&gt;dir_fd1e11fb0964f7346e999e146b0dfd59 -->
<g id="edge3" class="edge">
<title>dir_aa5aa98f6df5b802bb45e20a57604d12&#45;&gt;dir_fd1e11fb0964f7346e999e146b0dfd59</title>
<path fill="none" stroke="#000000" d="M145.9927,-143.8314C139.4276,-135.5386 131.5255,-125.557 124.3184,-116.4533"/>
<polygon fill="#000000" stroke="#000000" points="126.9046,-114.0813 117.9534,-108.4133 121.4163,-118.4262 126.9046,-114.0813"/>
<g id="a_edge3&#45;headlabel"><a xlink:href="dir_000026_000015.html" target="_top" xlink:title="12">
<text text-anchor="middle" x="131.3619" y="-112.6373" font-family="Helvetica,sans-Serif" font-size="10.00" fill="#000000">12</text>
</a>
</g>
</g>
<!-- dir_aa5aa98f6df5b802bb45e20a57604d12&#45;&gt;dir_c541d4b187fc5f863b4735b323978e0f -->
<g id="edge4" class="edge">
<title>dir_aa5aa98f6df5b802bb45e20a57604d12&#45;&gt;dir_c541d4b187fc5f863b4735b323978e0f</title>
<path fill="none" stroke="#000000" d="M158.0872,-143.8102C155.3001,-125.1908 149.6403,-95.7053 139.3762,-72 135.256,-62.4842 129.4456,-52.8314 123.6928,-44.3698"/>
<polygon fill="#000000" stroke="#000000" points="126.4281,-42.1761 117.7918,-36.0389 120.7158,-46.2222 126.4281,-42.1761"/>
<g id="a_edge4&#45;headlabel"><a xlink:href="dir_000026_000011.html" target="_top" xlink:title="2">
<text text-anchor="middle" x="130.8227" y="-40.9683" font-family="Helvetica,sans-Serif" font-size="10.00" fill="#000000">2</text>
</a>
</g>
</g>
<!-- dir_aa5aa98f6df5b802bb45e20a57604d12&#45;&gt;dir_f5fb53e55ba501ec7d605d6902b83c25 -->
<g id="edge5" class="edge">
<title>dir_aa5aa98f6df5b802bb45e20a57604d12&#45;&gt;dir_f5fb53e55ba501ec7d605d6902b83c25</title>
<path fill="none" stroke="#000000" d="M174.0027,-143.8314C180.2222,-135.5386 187.7084,-125.557 194.5362,-116.4533"/>
<polygon fill="#000000" stroke="#000000" points="197.3662,-118.5133 200.5663,-108.4133 191.7662,-114.3133 197.3662,-118.5133"/>
<g id="a_edge5&#45;headlabel"><a xlink:href="dir_000026_000043.html" target="_top" xlink:title="6">
<text text-anchor="middle" x="197.4809" y="-120.5925" font-family="Helvetica,sans-Serif" font-size="10.00" fill="#000000">6</text>
</a>
</g>
</g>
<!-- dir_3f96c34ad80e9031c68706862fabf1a4&#45;&gt;dir_fd1e11fb0964f7346e999e146b0dfd59 -->
<g id="edge7" class="edge">
<title>dir_3f96c34ad80e9031c68706862fabf1a4&#45;&gt;dir_fd1e11fb0964f7346e999e146b0dfd59</title>
<path fill="none" stroke="#000000" d="M61.5074,-143.8314C67.9573,-135.5386 75.7207,-125.557 82.8014,-116.4533"/>
<polygon fill="#000000" stroke="#000000" points="85.6781,-118.4556 89.0548,-108.4133 80.1526,-114.158 85.6781,-118.4556"/>
<g id="a_edge7&#45;headlabel"><a xlink:href="dir_000005_000015.html" target="_top" xlink:title="11">
<text text-anchor="middle" x="85.7124" y="-120.5361" font-family="Helvetica,sans-Serif" font-size="10.00" fill="#000000">11</text>
</a>
</g>
</g>
<!-- dir_3f96c34ad80e9031c68706862fabf1a4&#45;&gt;dir_c541d4b187fc5f863b4735b323978e0f -->
<g id="edge8" class="edge">
<title>dir_3f96c34ad80e9031c68706862fabf1a4&#45;&gt;dir_c541d4b187fc5f863b4735b323978e0f</title>
<path fill="none" stroke="#000000" d="M49.1045,-143.782C51.3533,-125.1402 56.2602,-95.637 66.3762,-72 70.4249,-62.5397 76.2384,-53.016 82.0617,-44.6574"/>
<polygon fill="#000000" stroke="#000000" points="85.0029,-46.5641 88.0603,-36.4199 79.3443,-42.4434 85.0029,-46.5641"/>
<g id="a_edge8&#45;headlabel"><a xlink:href="dir_000005_000011.html" target="_top" xlink:title="4">
<text text-anchor="middle" x="85.1821" y="-48.6412" font-family="Helvetica,sans-Serif" font-size="10.00" fill="#000000">4</text>
</a>
</g>
</g>
</g>
</svg>
