<?xml version="1.0" encoding="UTF-8" standalone="no"?>
<!DOCTYPE svg PUBLIC "-//W3C//DTD SVG 1.1//EN"
 "http://www.w3.org/Graphics/SVG/1.1/DTD/svg11.dtd">
<!-- Generated by graphviz version 2.40.1 (20161225.0304)
 -->
<!-- Title: common Pages: 1 -->
<svg width="150pt" height="151pt"
 viewBox="0.00 0.00 150.00 151.00" xmlns="http://www.w3.org/2000/svg" xmlns:xlink="http://www.w3.org/1999/xlink">
<g id="graph0" class="graph" transform="scale(1 1) rotate(0) translate(4 147)">
<title>common</title>
<polygon fill="#ffffff" stroke="transparent" points="-4,4 -4,-147 146,-147 146,4 -4,4"/>
<g id="clust1" class="cluster">
<title>clusterdir_7b03e134e134ebc1f6457862e207af52</title>
<g id="a_clust1"><a xlink:href="dir_7b03e134e134ebc1f6457862e207af52.html" target="_top" xlink:title="fbc">
<polygon fill="#ddddee" stroke="#000000" points="8,-64 8,-135 78,-135 78,-64 8,-64"/>
<text text-anchor="middle" x="43" y="-123" font-family="Helvetica,sans-Serif" font-size="10.00" fill="#000000">fbc</text>
</a>
</g>
</g>
<!-- dir_496e4851956202bb45315fe7c1680ab4 -->
<g id="node1" class="node">
<title>dir_496e4851956202bb45315fe7c1680ab4</title>
<g id="a_node1"><a xlink:href="dir_496e4851956202bb45315fe7c1680ab4.html" target="_top" xlink:title="common">
<polygon fill="#eeeeff" stroke="#000000" points="70,-108 16,-108 16,-72 70,-72 70,-108"/>
<text text-anchor="middle" x="43" y="-87.5" font-family="Helvetica,sans-Serif" font-size="10.00" fill="#000000">common</text>
</a>
</g>
</g>
<!-- dir_821e112ecbf539a8266707009a4f56b3 -->
<g id="node2" class="node">
<title>dir_821e112ecbf539a8266707009a4f56b3</title>
<g id="a_node2"><a xlink:href="dir_821e112ecbf539a8266707009a4f56b3.html" target="_top" xlink:title="sbml">
<polygon fill="none" stroke="#000000" points="142,-108 88,-108 88,-72 142,-72 142,-108"/>
<text text-anchor="middle" x="115" y="-87.5" font-family="Helvetica,sans-Serif" font-size="10.00" fill="#000000">sbml</text>
</a>
</g>
</g>
<!-- dir_496e4851956202bb45315fe7c1680ab4&#45;&gt;dir_821e112ecbf539a8266707009a4f56b3 -->
<g id="edge5" class="edge">
<title>dir_496e4851956202bb45315fe7c1680ab4&#45;&gt;dir_821e112ecbf539a8266707009a4f56b3</title>
<path fill="none" stroke="#000000" d="M70.2813,-90C72.7377,-90 75.1942,-90 77.6507,-90"/>
<polygon fill="#000000" stroke="#000000" points="77.7495,-93.5001 87.7495,-90 77.7495,-86.5001 77.7495,-93.5001"/>
<g id="a_edge5&#45;headlabel"><a xlink:href="dir_000030_000004.html" target="_top" xlink:title="11">
<text text-anchor="middle" x="74.1549" y="-93.8393" font-family="Helvetica,sans-Serif" font-size="10.00" fill="#000000">11</text>
</a>
</g>
</g>
<!-- dir_fb4201f8130b4359a64f758895071626 -->
<g id="node3" class="node">
<title>dir_fb4201f8130b4359a64f758895071626</title>
<g id="a_node3"><a xlink:href="dir_fb4201f8130b4359a64f758895071626.html" target="_top" xlink:title="extension">
<polygon fill="none" stroke="#000000" points="142,-36 88,-36 88,0 142,0 142,-36"/>
<text text-anchor="middle" x="115" y="-15.5" font-family="Helvetica,sans-Serif" font-size="10.00" fill="#000000">extension</text>
</a>
</g>
</g>
<!-- dir_496e4851956202bb45315fe7c1680ab4&#45;&gt;dir_fb4201f8130b4359a64f758895071626 -->
<g id="edge6" class="edge">
<title>dir_496e4851956202bb45315fe7c1680ab4&#45;&gt;dir_fb4201f8130b4359a64f758895071626</title>
<path fill="none" stroke="#000000" d="M55.2162,-71.8314C63.0663,-63.1337 73.4496,-52.5783 83.4049,-43.1265"/>
<polygon fill="#000000" stroke="#000000" points="85.9508,-45.5384 90.8853,-36.1628 81.1812,-40.4148 85.9508,-45.5384"/>
<g id="a_edge6&#45;headlabel"><a xlink:href="dir_000030_000029.html" target="_top" xlink:title="5">
<text text-anchor="middle" x="85.2544" y="-47.5658" font-family="Helvetica,sans-Serif" font-size="10.00" fill="#000000">5</text>
</a>
</g>
</g>
<!-- dir_821e112ecbf539a8266707009a4f56b3&#45;&gt;dir_496e4851956202bb45315fe7c1680ab4 -->
<g id="edge2" class="edge">
<title>dir_821e112ecbf539a8266707009a4f56b3&#45;&gt;dir_496e4851956202bb45315fe7c1680ab4</title>
<path fill="none" stroke="#000000" d="M87.7495,-90C85.293,-90 82.8366,-90 80.3801,-90"/>
<polygon fill="#000000" stroke="#000000" points="80.2813,-86.5001 70.2813,-90 80.2812,-93.5001 80.2813,-86.5001"/>
<g id="a_edge2&#45;headlabel"><a xlink:href="dir_000004_000030.html" target="_top" xlink:title="11">
<text text-anchor="middle" x="83.8759" y="-81.1607" font-family="Helvetica,sans-Serif" font-size="10.00" fill="#000000">11</text>
</a>
</g>
</g>
<!-- dir_821e112ecbf539a8266707009a4f56b3&#45;&gt;dir_fb4201f8130b4359a64f758895071626 -->
<g id="edge1" class="edge">
<title>dir_821e112ecbf539a8266707009a4f56b3&#45;&gt;dir_fb4201f8130b4359a64f758895071626</title>
<path fill="none" stroke="#000000" d="M109.0476,-71.8314C108.2972,-64.131 108.0763,-54.9743 108.3849,-46.4166"/>
<polygon fill="#000000" stroke="#000000" points="111.8792,-46.6161 109.024,-36.4133 104.8935,-46.1697 111.8792,-46.6161"/>
<g id="a_edge1&#45;headlabel"><a xlink:href="dir_000004_000029.html" target="_top" xlink:title="19">
<text text-anchor="middle" x="114.4836" y="-47.8844" font-family="Helvetica,sans-Serif" font-size="10.00" fill="#000000">19</text>
</a>
</g>
</g>
<!-- dir_fb4201f8130b4359a64f758895071626&#45;&gt;dir_496e4851956202bb45315fe7c1680ab4 -->
<g id="edge4" class="edge">
<title>dir_fb4201f8130b4359a64f758895071626&#45;&gt;dir_496e4851956202bb45315fe7c1680ab4</title>
<path fill="none" stroke="#000000" d="M102.5627,-36.4133C94.7259,-45.0787 84.4215,-55.5464 74.5436,-64.9223"/>
<polygon fill="#000000" stroke="#000000" points="72.0561,-62.4561 67.121,-71.8314 76.8255,-67.5799 72.0561,-62.4561"/>
<g id="a_edge4&#45;headlabel"><a xlink:href="dir_000029_000030.html" target="_top" xlink:title="2">
<text text-anchor="middle" x="72.7528" y="-55.4287" font-family="Helvetica,sans-Serif" font-size="10.00" fill="#000000">2</text>
</a>
</g>
</g>
<!-- dir_fb4201f8130b4359a64f758895071626&#45;&gt;dir_821e112ecbf539a8266707009a4f56b3 -->
<g id="edge3" class="edge">
<title>dir_fb4201f8130b4359a64f758895071626&#45;&gt;dir_821e112ecbf539a8266707009a4f56b3</title>
<path fill="none" stroke="#000000" d="M120.976,-36.4133C121.7071,-44.0593 121.9203,-53.1084 121.6155,-61.5726"/>
<polygon fill="#000000" stroke="#000000" points="118.1048,-61.6264 120.9524,-71.8314 125.0902,-62.078 118.1048,-61.6264"/>
<g id="a_edge3&#45;headlabel"><a xlink:href="dir_000029_000004.html" target="_top" xlink:title="8">
<text text-anchor="middle" x="115.5032" y="-55.3562" font-family="Helvetica,sans-Serif" font-size="10.00" fill="#000000">8</text>
</a>
</g>
</g>
</g>
</svg>
