<?xml version="1.0" encoding="UTF-8" standalone="no"?>
<!DOCTYPE svg PUBLIC "-//W3C//DTD SVG 1.1//EN"
 "http://www.w3.org/Graphics/SVG/1.1/DTD/svg11.dtd">
<!-- Generated by graphviz version 2.40.1 (20161225.0304)
 -->
<!-- Title: operationReturnValues.cpp Pages: 1 -->
<svg width="186pt" height="218pt"
 viewBox="0.00 0.00 185.50 218.00" xmlns="http://www.w3.org/2000/svg" xmlns:xlink="http://www.w3.org/1999/xlink">
<g id="graph0" class="graph" transform="scale(1 1) rotate(0) translate(4 214)">
<title>operationReturnValues.cpp</title>
<polygon fill="#ffffff" stroke="transparent" points="-4,4 -4,-214 181.5,-214 181.5,4 -4,4"/>
<!-- Node1 -->
<g id="node1" class="node">
<title>Node1</title>
<polygon fill="#bfbfbf" stroke="#000000" points="15.5,-190.5 15.5,-209.5 122.5,-209.5 122.5,-190.5 15.5,-190.5"/>
<text text-anchor="middle" x="69" y="-197.5" font-family="Helvetica,sans-Serif" font-size="10.00" fill="#000000">operationReturnValues.cpp</text>
</g>
<!-- Node2 -->
<g id="node2" class="node">
<title>Node2</title>
<polygon fill="#ffffff" stroke="#bfbfbf" points="0,-129 0,-148 40,-148 40,-129 0,-129"/>
<text text-anchor="middle" x="20" y="-136" font-family="Helvetica,sans-Serif" font-size="10.00" fill="#000000">stdlib.h</text>
</g>
<!-- Node1&#45;&gt;Node2 -->
<g id="edge1" class="edge">
<title>Node1&#45;&gt;Node2</title>
<path fill="none" stroke="#191970" d="M61.3438,-190.3906C54.0511,-181.2376 42.8993,-167.2409 34.0148,-156.09"/>
<polygon fill="#191970" stroke="#191970" points="36.733,-153.8849 27.7642,-148.2449 31.2583,-158.247 36.733,-153.8849"/>
</g>
<!-- Node3 -->
<g id="node3" class="node">
<title>Node3</title>
<g id="a_node3"><a xlink:href="operation_return_values_8h.html" target="_top" xlink:title="Enumeration of values returned by operations within libSBML. ">
<polygon fill="#ffffff" stroke="#000000" points="58.5,-123.5 58.5,-153.5 177.5,-153.5 177.5,-123.5 58.5,-123.5"/>
<text text-anchor="start" x="66.5" y="-141.5" font-family="Helvetica,sans-Serif" font-size="10.00" fill="#000000">sbml/common/operationReturn</text>
<text text-anchor="middle" x="118" y="-130.5" font-family="Helvetica,sans-Serif" font-size="10.00" fill="#000000">Values.h</text>
</a>
</g>
</g>
<!-- Node1&#45;&gt;Node3 -->
<g id="edge2" class="edge">
<title>Node1&#45;&gt;Node3</title>
<path fill="none" stroke="#191970" d="M76.6563,-190.3906C82.7966,-182.6839 91.6728,-171.5434 99.6279,-161.5589"/>
<polygon fill="#191970" stroke="#191970" points="102.5192,-163.5467 106.0133,-153.5446 97.0444,-159.1847 102.5192,-163.5467"/>
</g>
<!-- Node4 -->
<g id="node4" class="node">
<title>Node4</title>
<g id="a_node4"><a xlink:href="extern_8h.html" target="_top" xlink:title="Definitions of LIBSBML_EXTERN and related things. ">
<polygon fill="#ffffff" stroke="#000000" points="72,-67.5 72,-86.5 164,-86.5 164,-67.5 72,-67.5"/>
<text text-anchor="middle" x="118" y="-74.5" font-family="Helvetica,sans-Serif" font-size="10.00" fill="#000000">sbml/common/extern.h</text>
</a>
</g>
</g>
<!-- Node3&#45;&gt;Node4 -->
<g id="edge3" class="edge">
<title>Node3&#45;&gt;Node4</title>
<path fill="none" stroke="#191970" d="M118,-123.2977C118,-115.3834 118,-105.6043 118,-97.0759"/>
<polygon fill="#191970" stroke="#191970" points="121.5001,-96.8469 118,-86.8469 114.5001,-96.847 121.5001,-96.8469"/>
</g>
<!-- Node5 -->
<g id="node5" class="node">
<title>Node5</title>
<g id="a_node5"><a xlink:href="libsbml-namespace_8h.html" target="_top" xlink:title="Defines C++ namespace of libSBML. ">
<polygon fill="#ffffff" stroke="#000000" points="73.5,-.5 73.5,-30.5 162.5,-30.5 162.5,-.5 73.5,-.5"/>
<text text-anchor="start" x="81.5" y="-18.5" font-family="Helvetica,sans-Serif" font-size="10.00" fill="#000000">sbml/common/libsbml</text>
<text text-anchor="middle" x="118" y="-7.5" font-family="Helvetica,sans-Serif" font-size="10.00" fill="#000000">&#45;namespace.h</text>
</a>
</g>
</g>
<!-- Node4&#45;&gt;Node5 -->
<g id="edge4" class="edge">
<title>Node4&#45;&gt;Node5</title>
<path fill="none" stroke="#191970" d="M118,-67.3906C118,-60.2234 118,-50.0862 118,-40.671"/>
<polygon fill="#191970" stroke="#191970" points="121.5001,-40.5446 118,-30.5446 114.5001,-40.5446 121.5001,-40.5446"/>
</g>
</g>
</svg>
