<?xml version="1.0" encoding="UTF-8" standalone="no"?>
<!DOCTYPE svg PUBLIC "-//W3C//DTD SVG 1.1//EN"
 "http://www.w3.org/Graphics/SVG/1.1/DTD/svg11.dtd">
<!-- Generated by graphviz version 2.40.1 (20161225.0304)
 -->
<!-- Title: sbmlfwd.h Pages: 1 -->
<svg width="277pt" height="285pt"
 viewBox="0.00 0.00 277.00 285.00" xmlns="http://www.w3.org/2000/svg" xmlns:xlink="http://www.w3.org/1999/xlink">
<g id="graph0" class="graph" transform="scale(1 1) rotate(0) translate(4 281)">
<title>sbmlfwd.h</title>
<polygon fill="#ffffff" stroke="transparent" points="-4,4 -4,-281 273,-281 273,4 -4,4"/>
<!-- Node1 -->
<g id="node1" class="node">
<title>Node1</title>
<polygon fill="#bfbfbf" stroke="#000000" points="17.5,-257.5 17.5,-276.5 67.5,-276.5 67.5,-257.5 17.5,-257.5"/>
<text text-anchor="middle" x="42.5" y="-264.5" font-family="Helvetica,sans-Serif" font-size="10.00" fill="#000000">sbmlfwd.h</text>
</g>
<!-- Node2 -->
<g id="node2" class="node">
<title>Node2</title>
<g id="a_node2"><a xlink:href="libsbml-namespace_8h.html" target="_top" xlink:title="Defines C++ namespace of libSBML. ">
<polygon fill="#ffffff" stroke="#000000" points="0,-.5 0,-30.5 89,-30.5 89,-.5 0,-.5"/>
<text text-anchor="start" x="8" y="-18.5" font-family="Helvetica,sans-Serif" font-size="10.00" fill="#000000">sbml/common/libsbml</text>
<text text-anchor="middle" x="44.5" y="-7.5" font-family="Helvetica,sans-Serif" font-size="10.00" fill="#000000">&#45;namespace.h</text>
</a>
</g>
</g>
<!-- Node1&#45;&gt;Node2 -->
<g id="edge1" class="edge">
<title>Node1&#45;&gt;Node2</title>
<path fill="none" stroke="#191970" d="M42.3682,-257.4232C42.0001,-228.6193 41.0782,-140.2501 42.5,-67 42.6642,-58.5404 42.98,-49.3036 43.313,-41.018"/>
<polygon fill="#191970" stroke="#191970" points="46.8186,-40.9596 43.7493,-30.8191 39.825,-40.6603 46.8186,-40.9596"/>
</g>
<!-- Node3 -->
<g id="node3" class="node">
<title>Node3</title>
<g id="a_node3"><a xlink:href="libsbml-config_8h.html" target="_top" xlink:title="Decides whether to #include Unix or Windows configuration variables. ">
<polygon fill="#ffffff" stroke="#000000" points="54,-190.5 54,-220.5 143,-220.5 143,-190.5 54,-190.5"/>
<text text-anchor="start" x="62" y="-208.5" font-family="Helvetica,sans-Serif" font-size="10.00" fill="#000000">sbml/common/libsbml</text>
<text text-anchor="middle" x="98.5" y="-197.5" font-family="Helvetica,sans-Serif" font-size="10.00" fill="#000000">&#45;config.h</text>
</a>
</g>
</g>
<!-- Node1&#45;&gt;Node3 -->
<g id="edge2" class="edge">
<title>Node1&#45;&gt;Node3</title>
<path fill="none" stroke="#191970" d="M51.25,-257.3906C58.4079,-249.5298 68.8188,-238.0964 78.0475,-227.9612"/>
<polygon fill="#191970" stroke="#191970" points="80.656,-230.295 84.8009,-220.5446 75.4802,-225.5821 80.656,-230.295"/>
</g>
<!-- Node3&#45;&gt;Node2 -->
<g id="edge3" class="edge">
<title>Node3&#45;&gt;Node2</title>
<path fill="none" stroke="#191970" d="M85.4204,-190.333C77.7607,-180.5973 68.6152,-167.3213 63.5,-154 49.0606,-116.3958 45.3579,-69.337 44.5393,-40.8883"/>
<polygon fill="#191970" stroke="#191970" points="48.0336,-40.5415 44.3475,-30.6086 41.0348,-40.6722 48.0336,-40.5415"/>
</g>
<!-- Node4 -->
<g id="node4" class="node">
<title>Node4</title>
<g id="a_node4"><a xlink:href="libsbml-config-common_8h.html" target="_top" xlink:title="Configuration variables. ">
<polygon fill="#ffffff" stroke="#000000" points="73,-123.5 73,-153.5 162,-153.5 162,-123.5 73,-123.5"/>
<text text-anchor="start" x="81" y="-141.5" font-family="Helvetica,sans-Serif" font-size="10.00" fill="#000000">sbml/common/libsbml</text>
<text text-anchor="middle" x="117.5" y="-130.5" font-family="Helvetica,sans-Serif" font-size="10.00" fill="#000000">&#45;config&#45;common.h</text>
</a>
</g>
</g>
<!-- Node3&#45;&gt;Node4 -->
<g id="edge4" class="edge">
<title>Node3&#45;&gt;Node4</title>
<path fill="none" stroke="#191970" d="M102.8114,-190.2967C105.0706,-182.3299 107.8946,-172.3718 110.4611,-163.3213"/>
<polygon fill="#191970" stroke="#191970" points="113.8446,-164.2187 113.2057,-153.6432 107.1101,-162.3089 113.8446,-164.2187"/>
</g>
<!-- Node5 -->
<g id="node5" class="node">
<title>Node5</title>
<g id="a_node5"><a xlink:href="libsbml-version_8h.html" target="_top" xlink:title="Define libSBML version numbers for access from client software. ">
<polygon fill="#ffffff" stroke="#000000" points="180,-123.5 180,-153.5 269,-153.5 269,-123.5 180,-123.5"/>
<text text-anchor="start" x="188" y="-141.5" font-family="Helvetica,sans-Serif" font-size="10.00" fill="#000000">sbml/common/libsbml</text>
<text text-anchor="middle" x="224.5" y="-130.5" font-family="Helvetica,sans-Serif" font-size="10.00" fill="#000000">&#45;version.h</text>
</a>
</g>
</g>
<!-- Node3&#45;&gt;Node5 -->
<g id="edge5" class="edge">
<title>Node3&#45;&gt;Node5</title>
<path fill="none" stroke="#191970" d="M126.7769,-190.4639C144.5657,-181.0047 167.7259,-168.6894 187.0343,-158.4222"/>
<polygon fill="#191970" stroke="#191970" points="188.6955,-161.503 195.8816,-153.7177 185.409,-155.3225 188.6955,-161.503"/>
</g>
<!-- Node6 -->
<g id="node6" class="node">
<title>Node6</title>
<g id="a_node6"><a xlink:href="extern_8h.html" target="_top" xlink:title="Definitions of LIBSBML_EXTERN and related things. ">
<polygon fill="#ffffff" stroke="#000000" points="125.5,-67.5 125.5,-86.5 217.5,-86.5 217.5,-67.5 125.5,-67.5"/>
<text text-anchor="middle" x="171.5" y="-74.5" font-family="Helvetica,sans-Serif" font-size="10.00" fill="#000000">sbml/common/extern.h</text>
</a>
</g>
</g>
<!-- Node5&#45;&gt;Node6 -->
<g id="edge6" class="edge">
<title>Node5&#45;&gt;Node6</title>
<path fill="none" stroke="#191970" d="M211.3989,-123.2977C203.8887,-114.5831 194.43,-103.6075 186.6073,-94.5302"/>
<polygon fill="#191970" stroke="#191970" points="189.1655,-92.1372 179.986,-86.8469 183.8629,-96.707 189.1655,-92.1372"/>
</g>
<!-- Node6&#45;&gt;Node2 -->
<g id="edge7" class="edge">
<title>Node6&#45;&gt;Node2</title>
<path fill="none" stroke="#191970" d="M151.6563,-67.3906C133.8318,-58.7591 107.1124,-45.8202 84.8145,-35.0224"/>
<polygon fill="#191970" stroke="#191970" points="86.0934,-31.7529 75.5677,-30.5446 83.0425,-38.0531 86.0934,-31.7529"/>
</g>
</g>
</svg>
